G04 #@! TF.FileFunction,Legend,Bot*
%FSLAX46Y46*%
G04 Gerber Fmt 4.6, Leading zero omitted, Abs format (unit mm)*
G04 Created by KiCad (PCBNEW 4.0.4-stable) date 12/10/17 16:08:38*
%MOMM*%
%LPD*%
G01*
G04 APERTURE LIST*
%ADD10C,0.100000*%
%ADD11C,0.500000*%
%ADD12C,0.300000*%
%ADD13C,0.200000*%
%ADD14C,0.150000*%
G04 APERTURE END LIST*
D10*
D11*
X43291810Y-63818690D02*
X53291810Y-70485357D01*
X43291810Y-70485357D02*
X53291810Y-63818690D01*
X49482286Y-74294881D02*
X49482286Y-81913929D01*
X53291810Y-78104405D02*
X45672762Y-78104405D01*
D12*
X118711428Y-90876286D02*
X118997142Y-91019143D01*
X119568571Y-91019143D01*
X119854285Y-90876286D01*
X119997142Y-90590571D01*
X119997142Y-89447714D01*
X119854285Y-89162000D01*
X119568571Y-89019143D01*
X118997142Y-89019143D01*
X118711428Y-89162000D01*
X118568571Y-89447714D01*
X118568571Y-89733429D01*
X119997142Y-90019143D01*
X117282856Y-91019143D02*
X117282856Y-88019143D01*
X115997142Y-91019143D02*
X115997142Y-89447714D01*
X116139999Y-89162000D01*
X116425713Y-89019143D01*
X116854285Y-89019143D01*
X117139999Y-89162000D01*
X117282856Y-89304857D01*
X114568570Y-91019143D02*
X114568570Y-89019143D01*
X114568570Y-89590571D02*
X114425713Y-89304857D01*
X114282856Y-89162000D01*
X113997142Y-89019143D01*
X113711427Y-89019143D01*
X112997142Y-89019143D02*
X112282856Y-91019143D01*
X111568570Y-89019143D02*
X112282856Y-91019143D01*
X112568570Y-91733429D01*
X112711427Y-91876286D01*
X112997142Y-92019143D01*
X110425713Y-91019143D02*
X110425713Y-88019143D01*
X110139999Y-89876286D02*
X109282856Y-91019143D01*
X109282856Y-89019143D02*
X110425713Y-90162000D01*
X107997142Y-90733429D02*
X107854285Y-90876286D01*
X107997142Y-91019143D01*
X108139999Y-90876286D01*
X107997142Y-90733429D01*
X107997142Y-91019143D01*
X105282857Y-89019143D02*
X105282857Y-91447714D01*
X105425714Y-91733429D01*
X105568571Y-91876286D01*
X105854286Y-92019143D01*
X106282857Y-92019143D01*
X106568571Y-91876286D01*
X105282857Y-90876286D02*
X105568571Y-91019143D01*
X106140000Y-91019143D01*
X106425714Y-90876286D01*
X106568571Y-90733429D01*
X106711428Y-90447714D01*
X106711428Y-89590571D01*
X106568571Y-89304857D01*
X106425714Y-89162000D01*
X106140000Y-89019143D01*
X105568571Y-89019143D01*
X105282857Y-89162000D01*
X103854285Y-91019143D02*
X103854285Y-89019143D01*
X103854285Y-88019143D02*
X103997142Y-88162000D01*
X103854285Y-88304857D01*
X103711428Y-88162000D01*
X103854285Y-88019143D01*
X103854285Y-88304857D01*
X102854286Y-89019143D02*
X101711429Y-89019143D01*
X102425714Y-88019143D02*
X102425714Y-90590571D01*
X102282857Y-90876286D01*
X101997143Y-91019143D01*
X101711429Y-91019143D01*
X100711428Y-91019143D02*
X100711428Y-88019143D01*
X99425714Y-91019143D02*
X99425714Y-89447714D01*
X99568571Y-89162000D01*
X99854285Y-89019143D01*
X100282857Y-89019143D01*
X100568571Y-89162000D01*
X100711428Y-89304857D01*
X96711428Y-89019143D02*
X96711428Y-91019143D01*
X97997142Y-89019143D02*
X97997142Y-90590571D01*
X97854285Y-90876286D01*
X97568571Y-91019143D01*
X97139999Y-91019143D01*
X96854285Y-90876286D01*
X96711428Y-90733429D01*
X95282856Y-91019143D02*
X95282856Y-88019143D01*
X95282856Y-89162000D02*
X94997142Y-89019143D01*
X94425713Y-89019143D01*
X94139999Y-89162000D01*
X93997142Y-89304857D01*
X93854285Y-89590571D01*
X93854285Y-90447714D01*
X93997142Y-90733429D01*
X94139999Y-90876286D01*
X94425713Y-91019143D01*
X94997142Y-91019143D01*
X95282856Y-90876286D01*
X92568570Y-90733429D02*
X92425713Y-90876286D01*
X92568570Y-91019143D01*
X92711427Y-90876286D01*
X92568570Y-90733429D01*
X92568570Y-91019143D01*
X91139999Y-91019143D02*
X91139999Y-89019143D01*
X91139999Y-88019143D02*
X91282856Y-88162000D01*
X91139999Y-88304857D01*
X90997142Y-88162000D01*
X91139999Y-88019143D01*
X91139999Y-88304857D01*
X89282857Y-91019143D02*
X89568571Y-90876286D01*
X89711428Y-90733429D01*
X89854285Y-90447714D01*
X89854285Y-89590571D01*
X89711428Y-89304857D01*
X89568571Y-89162000D01*
X89282857Y-89019143D01*
X88854285Y-89019143D01*
X88568571Y-89162000D01*
X88425714Y-89304857D01*
X88282857Y-89590571D01*
X88282857Y-90447714D01*
X88425714Y-90733429D01*
X88568571Y-90876286D01*
X88854285Y-91019143D01*
X89282857Y-91019143D01*
X118870093Y-94079286D02*
X118274855Y-95745952D01*
X117679617Y-94079286D01*
X115417712Y-95745952D02*
X116846284Y-95745952D01*
X116131998Y-95745952D02*
X116131998Y-93245952D01*
X116370093Y-93603095D01*
X116608188Y-93841190D01*
X116846284Y-93960238D01*
X114346284Y-95507857D02*
X114227236Y-95626905D01*
X114346284Y-95745952D01*
X114465332Y-95626905D01*
X114346284Y-95507857D01*
X114346284Y-95745952D01*
X112679617Y-93245952D02*
X112441522Y-93245952D01*
X112203427Y-93365000D01*
X112084379Y-93484048D01*
X111965332Y-93722143D01*
X111846284Y-94198333D01*
X111846284Y-94793571D01*
X111965332Y-95269762D01*
X112084379Y-95507857D01*
X112203427Y-95626905D01*
X112441522Y-95745952D01*
X112679617Y-95745952D01*
X112917713Y-95626905D01*
X113036760Y-95507857D01*
X113155808Y-95269762D01*
X113274856Y-94793571D01*
X113274856Y-94198333D01*
X113155808Y-93722143D01*
X113036760Y-93484048D01*
X112917713Y-93365000D01*
X112679617Y-93245952D01*
X108989142Y-93484048D02*
X108870094Y-93365000D01*
X108631999Y-93245952D01*
X108036761Y-93245952D01*
X107798665Y-93365000D01*
X107679618Y-93484048D01*
X107560570Y-93722143D01*
X107560570Y-93960238D01*
X107679618Y-94317381D01*
X109108189Y-95745952D01*
X107560570Y-95745952D01*
X106012951Y-93245952D02*
X105774856Y-93245952D01*
X105536761Y-93365000D01*
X105417713Y-93484048D01*
X105298666Y-93722143D01*
X105179618Y-94198333D01*
X105179618Y-94793571D01*
X105298666Y-95269762D01*
X105417713Y-95507857D01*
X105536761Y-95626905D01*
X105774856Y-95745952D01*
X106012951Y-95745952D01*
X106251047Y-95626905D01*
X106370094Y-95507857D01*
X106489142Y-95269762D01*
X106608190Y-94793571D01*
X106608190Y-94198333D01*
X106489142Y-93722143D01*
X106370094Y-93484048D01*
X106251047Y-93365000D01*
X106012951Y-93245952D01*
X102798666Y-95745952D02*
X104227238Y-95745952D01*
X103512952Y-95745952D02*
X103512952Y-93245952D01*
X103751047Y-93603095D01*
X103989142Y-93841190D01*
X104227238Y-93960238D01*
X100655809Y-93245952D02*
X101132000Y-93245952D01*
X101370095Y-93365000D01*
X101489143Y-93484048D01*
X101727238Y-93841190D01*
X101846286Y-94317381D01*
X101846286Y-95269762D01*
X101727238Y-95507857D01*
X101608190Y-95626905D01*
X101370095Y-95745952D01*
X100893905Y-95745952D01*
X100655809Y-95626905D01*
X100536762Y-95507857D01*
X100417714Y-95269762D01*
X100417714Y-94674524D01*
X100536762Y-94436429D01*
X100655809Y-94317381D01*
X100893905Y-94198333D01*
X101370095Y-94198333D01*
X101608190Y-94317381D01*
X101727238Y-94436429D01*
X101846286Y-94674524D01*
X99346286Y-95507857D02*
X99227238Y-95626905D01*
X99346286Y-95745952D01*
X99465334Y-95626905D01*
X99346286Y-95507857D01*
X99346286Y-95745952D01*
X96846286Y-95745952D02*
X98274858Y-95745952D01*
X97560572Y-95745952D02*
X97560572Y-93245952D01*
X97798667Y-93603095D01*
X98036762Y-93841190D01*
X98274858Y-93960238D01*
X94465334Y-95745952D02*
X95893906Y-95745952D01*
X95179620Y-95745952D02*
X95179620Y-93245952D01*
X95417715Y-93603095D01*
X95655810Y-93841190D01*
X95893906Y-93960238D01*
X93393906Y-95507857D02*
X93274858Y-95626905D01*
X93393906Y-95745952D01*
X93512954Y-95626905D01*
X93393906Y-95507857D01*
X93393906Y-95745952D01*
X90893906Y-95745952D02*
X92322478Y-95745952D01*
X91608192Y-95745952D02*
X91608192Y-93245952D01*
X91846287Y-93603095D01*
X92084382Y-93841190D01*
X92322478Y-93960238D01*
X88751049Y-94079286D02*
X88751049Y-95745952D01*
X89346287Y-93126905D02*
X89941526Y-94912619D01*
X88393906Y-94912619D01*
X115989142Y-67537143D02*
X115989142Y-64537143D01*
X115274857Y-64537143D01*
X114846285Y-64680000D01*
X114560571Y-64965714D01*
X114417714Y-65251429D01*
X114274857Y-65822857D01*
X114274857Y-66251429D01*
X114417714Y-66822857D01*
X114560571Y-67108571D01*
X114846285Y-67394286D01*
X115274857Y-67537143D01*
X115989142Y-67537143D01*
X111846285Y-67394286D02*
X112131999Y-67537143D01*
X112703428Y-67537143D01*
X112989142Y-67394286D01*
X113131999Y-67108571D01*
X113131999Y-65965714D01*
X112989142Y-65680000D01*
X112703428Y-65537143D01*
X112131999Y-65537143D01*
X111846285Y-65680000D01*
X111703428Y-65965714D01*
X111703428Y-66251429D01*
X113131999Y-66537143D01*
X110560570Y-67394286D02*
X110274856Y-67537143D01*
X109703428Y-67537143D01*
X109417713Y-67394286D01*
X109274856Y-67108571D01*
X109274856Y-66965714D01*
X109417713Y-66680000D01*
X109703428Y-66537143D01*
X110131999Y-66537143D01*
X110417713Y-66394286D01*
X110560570Y-66108571D01*
X110560570Y-65965714D01*
X110417713Y-65680000D01*
X110131999Y-65537143D01*
X109703428Y-65537143D01*
X109417713Y-65680000D01*
X107989142Y-67537143D02*
X107989142Y-65537143D01*
X107989142Y-64537143D02*
X108131999Y-64680000D01*
X107989142Y-64822857D01*
X107846285Y-64680000D01*
X107989142Y-64537143D01*
X107989142Y-64822857D01*
X105274857Y-65537143D02*
X105274857Y-67965714D01*
X105417714Y-68251429D01*
X105560571Y-68394286D01*
X105846286Y-68537143D01*
X106274857Y-68537143D01*
X106560571Y-68394286D01*
X105274857Y-67394286D02*
X105560571Y-67537143D01*
X106132000Y-67537143D01*
X106417714Y-67394286D01*
X106560571Y-67251429D01*
X106703428Y-66965714D01*
X106703428Y-66108571D01*
X106560571Y-65822857D01*
X106417714Y-65680000D01*
X106132000Y-65537143D01*
X105560571Y-65537143D01*
X105274857Y-65680000D01*
X103846285Y-65537143D02*
X103846285Y-67537143D01*
X103846285Y-65822857D02*
X103703428Y-65680000D01*
X103417714Y-65537143D01*
X102989142Y-65537143D01*
X102703428Y-65680000D01*
X102560571Y-65965714D01*
X102560571Y-67537143D01*
X97846285Y-65965714D02*
X97417714Y-66108571D01*
X97274857Y-66251429D01*
X97132000Y-66537143D01*
X97132000Y-66965714D01*
X97274857Y-67251429D01*
X97417714Y-67394286D01*
X97703428Y-67537143D01*
X98846285Y-67537143D01*
X98846285Y-64537143D01*
X97846285Y-64537143D01*
X97560571Y-64680000D01*
X97417714Y-64822857D01*
X97274857Y-65108571D01*
X97274857Y-65394286D01*
X97417714Y-65680000D01*
X97560571Y-65822857D01*
X97846285Y-65965714D01*
X98846285Y-65965714D01*
X96132000Y-65537143D02*
X95417714Y-67537143D01*
X94703428Y-65537143D02*
X95417714Y-67537143D01*
X95703428Y-68251429D01*
X95846285Y-68394286D01*
X96132000Y-68537143D01*
X93560571Y-67251429D02*
X93417714Y-67394286D01*
X93560571Y-67537143D01*
X93703428Y-67394286D01*
X93560571Y-67251429D01*
X93560571Y-67537143D01*
X93560571Y-65680000D02*
X93417714Y-65822857D01*
X93560571Y-65965714D01*
X93703428Y-65822857D01*
X93560571Y-65680000D01*
X93560571Y-65965714D01*
X115203428Y-70765714D02*
X114203428Y-70765714D01*
X113774857Y-72337143D02*
X115203428Y-72337143D01*
X115203428Y-69337143D01*
X113774857Y-69337143D01*
X112489142Y-72337143D02*
X112489142Y-70337143D01*
X112489142Y-70908571D02*
X112346285Y-70622857D01*
X112203428Y-70480000D01*
X111917714Y-70337143D01*
X111631999Y-70337143D01*
X110631999Y-72337143D02*
X110631999Y-70337143D01*
X110631999Y-69337143D02*
X110774856Y-69480000D01*
X110631999Y-69622857D01*
X110489142Y-69480000D01*
X110631999Y-69337143D01*
X110631999Y-69622857D01*
X107917714Y-72194286D02*
X108203428Y-72337143D01*
X108774857Y-72337143D01*
X109060571Y-72194286D01*
X109203428Y-72051429D01*
X109346285Y-71765714D01*
X109346285Y-70908571D01*
X109203428Y-70622857D01*
X109060571Y-70480000D01*
X108774857Y-70337143D01*
X108203428Y-70337143D01*
X107917714Y-70480000D01*
X104346285Y-72337143D02*
X104346285Y-69337143D01*
X103346285Y-71480000D01*
X102346285Y-69337143D01*
X102346285Y-72337143D01*
X99774857Y-72194286D02*
X100060571Y-72337143D01*
X100632000Y-72337143D01*
X100917714Y-72194286D01*
X101060571Y-71908571D01*
X101060571Y-70765714D01*
X100917714Y-70480000D01*
X100632000Y-70337143D01*
X100060571Y-70337143D01*
X99774857Y-70480000D01*
X99632000Y-70765714D01*
X99632000Y-71051429D01*
X101060571Y-71337143D01*
X98346285Y-70337143D02*
X98346285Y-72337143D01*
X98346285Y-70622857D02*
X98203428Y-70480000D01*
X97917714Y-70337143D01*
X97489142Y-70337143D01*
X97203428Y-70480000D01*
X97060571Y-70765714D01*
X97060571Y-72337143D01*
X95917714Y-70337143D02*
X94346285Y-70337143D01*
X95917714Y-72337143D01*
X94346285Y-72337143D01*
X92060571Y-72194286D02*
X92346285Y-72337143D01*
X92917714Y-72337143D01*
X93203428Y-72194286D01*
X93346285Y-71908571D01*
X93346285Y-70765714D01*
X93203428Y-70480000D01*
X92917714Y-70337143D01*
X92346285Y-70337143D01*
X92060571Y-70480000D01*
X91917714Y-70765714D01*
X91917714Y-71051429D01*
X93346285Y-71337143D01*
X153902857Y-95658859D02*
X153902857Y-93801716D01*
X152760000Y-94801716D01*
X152760000Y-94373144D01*
X152617143Y-94087430D01*
X152474286Y-93944573D01*
X152188571Y-93801716D01*
X151474286Y-93801716D01*
X151188571Y-93944573D01*
X151045714Y-94087430D01*
X150902857Y-94373144D01*
X150902857Y-95230287D01*
X151045714Y-95516001D01*
X151188571Y-95658859D01*
X150902857Y-92516001D02*
X152902857Y-92516001D01*
X152331429Y-92516001D02*
X152617143Y-92373144D01*
X152760000Y-92230287D01*
X152902857Y-91944573D01*
X152902857Y-91658858D01*
X150902857Y-89373144D02*
X153902857Y-89373144D01*
X151045714Y-89373144D02*
X150902857Y-89658858D01*
X150902857Y-90230287D01*
X151045714Y-90516001D01*
X151188571Y-90658858D01*
X151474286Y-90801715D01*
X152331429Y-90801715D01*
X152617143Y-90658858D01*
X152760000Y-90516001D01*
X152902857Y-90230287D01*
X152902857Y-89658858D01*
X152760000Y-89373144D01*
X153902857Y-85087430D02*
X153902857Y-84516001D01*
X153760000Y-84230287D01*
X153474286Y-83944573D01*
X152902857Y-83801715D01*
X151902857Y-83801715D01*
X151331429Y-83944573D01*
X151045714Y-84230287D01*
X150902857Y-84516001D01*
X150902857Y-85087430D01*
X151045714Y-85373144D01*
X151331429Y-85658858D01*
X151902857Y-85801715D01*
X152902857Y-85801715D01*
X153474286Y-85658858D01*
X153760000Y-85373144D01*
X153902857Y-85087430D01*
X150902857Y-82516001D02*
X152902857Y-82516001D01*
X152331429Y-82516001D02*
X152617143Y-82373144D01*
X152760000Y-82230287D01*
X152902857Y-81944573D01*
X152902857Y-81658858D01*
X150902857Y-79373144D02*
X153902857Y-79373144D01*
X151045714Y-79373144D02*
X150902857Y-79658858D01*
X150902857Y-80230287D01*
X151045714Y-80516001D01*
X151188571Y-80658858D01*
X151474286Y-80801715D01*
X152331429Y-80801715D01*
X152617143Y-80658858D01*
X152760000Y-80516001D01*
X152902857Y-80230287D01*
X152902857Y-79658858D01*
X152760000Y-79373144D01*
X151045714Y-76801715D02*
X150902857Y-77087429D01*
X150902857Y-77658858D01*
X151045714Y-77944572D01*
X151331429Y-78087429D01*
X152474286Y-78087429D01*
X152760000Y-77944572D01*
X152902857Y-77658858D01*
X152902857Y-77087429D01*
X152760000Y-76801715D01*
X152474286Y-76658858D01*
X152188571Y-76658858D01*
X151902857Y-78087429D01*
X150902857Y-75373143D02*
X152902857Y-75373143D01*
X152331429Y-75373143D02*
X152617143Y-75230286D01*
X152760000Y-75087429D01*
X152902857Y-74801715D01*
X152902857Y-74516000D01*
X152474286Y-70230286D02*
X152331429Y-69801715D01*
X152188571Y-69658858D01*
X151902857Y-69516001D01*
X151474286Y-69516001D01*
X151188571Y-69658858D01*
X151045714Y-69801715D01*
X150902857Y-70087429D01*
X150902857Y-71230286D01*
X153902857Y-71230286D01*
X153902857Y-70230286D01*
X153760000Y-69944572D01*
X153617143Y-69801715D01*
X153331429Y-69658858D01*
X153045714Y-69658858D01*
X152760000Y-69801715D01*
X152617143Y-69944572D01*
X152474286Y-70230286D01*
X152474286Y-71230286D01*
X152902857Y-66944572D02*
X150902857Y-66944572D01*
X152902857Y-68230286D02*
X151331429Y-68230286D01*
X151045714Y-68087429D01*
X150902857Y-67801715D01*
X150902857Y-67373143D01*
X151045714Y-67087429D01*
X151188571Y-66944572D01*
X152902857Y-65944572D02*
X152902857Y-64801715D01*
X153902857Y-65516000D02*
X151331429Y-65516000D01*
X151045714Y-65373143D01*
X150902857Y-65087429D01*
X150902857Y-64801715D01*
X152902857Y-64230286D02*
X152902857Y-63087429D01*
X153902857Y-63801714D02*
X151331429Y-63801714D01*
X151045714Y-63658857D01*
X150902857Y-63373143D01*
X150902857Y-63087429D01*
X151045714Y-60944571D02*
X150902857Y-61230285D01*
X150902857Y-61801714D01*
X151045714Y-62087428D01*
X151331429Y-62230285D01*
X152474286Y-62230285D01*
X152760000Y-62087428D01*
X152902857Y-61801714D01*
X152902857Y-61230285D01*
X152760000Y-60944571D01*
X152474286Y-60801714D01*
X152188571Y-60801714D01*
X151902857Y-62230285D01*
X150902857Y-59515999D02*
X152902857Y-59515999D01*
X152331429Y-59515999D02*
X152617143Y-59373142D01*
X152760000Y-59230285D01*
X152902857Y-58944571D01*
X152902857Y-58658856D01*
X152902857Y-57944571D02*
X150902857Y-57373142D01*
X152331429Y-56801713D01*
X150902857Y-56230285D01*
X152902857Y-55658856D01*
X150902857Y-54087428D02*
X151045714Y-54373142D01*
X151188571Y-54515999D01*
X151474286Y-54658856D01*
X152331429Y-54658856D01*
X152617143Y-54515999D01*
X152760000Y-54373142D01*
X152902857Y-54087428D01*
X152902857Y-53658856D01*
X152760000Y-53373142D01*
X152617143Y-53230285D01*
X152331429Y-53087428D01*
X151474286Y-53087428D01*
X151188571Y-53230285D01*
X151045714Y-53373142D01*
X150902857Y-53658856D01*
X150902857Y-54087428D01*
X150902857Y-51801713D02*
X152902857Y-51801713D01*
X152331429Y-51801713D02*
X152617143Y-51658856D01*
X152760000Y-51515999D01*
X152902857Y-51230285D01*
X152902857Y-50944570D01*
X152902857Y-50373142D02*
X152902857Y-49230285D01*
X153902857Y-49944570D02*
X151331429Y-49944570D01*
X151045714Y-49801713D01*
X150902857Y-49515999D01*
X150902857Y-49230285D01*
X150902857Y-48230284D02*
X153902857Y-48230284D01*
X150902857Y-46944570D02*
X152474286Y-46944570D01*
X152760000Y-47087427D01*
X152902857Y-47373141D01*
X152902857Y-47801713D01*
X152760000Y-48087427D01*
X152617143Y-48230284D01*
X150902857Y-41801713D02*
X150902857Y-43230284D01*
X153902857Y-43230284D01*
X150902857Y-40801713D02*
X153902857Y-40801713D01*
X153902857Y-39658856D01*
X153760000Y-39373142D01*
X153617143Y-39230285D01*
X153331429Y-39087428D01*
X152902857Y-39087428D01*
X152617143Y-39230285D01*
X152474286Y-39373142D01*
X152331429Y-39658856D01*
X152331429Y-40801713D01*
X151760000Y-37944570D02*
X151760000Y-36515999D01*
X150902857Y-38230285D02*
X153902857Y-37230285D01*
X150902857Y-36230285D01*
X150902857Y-35230284D02*
X153902857Y-35230284D01*
X153902857Y-34515999D01*
X153760000Y-34087427D01*
X153474286Y-33801713D01*
X153188571Y-33658856D01*
X152617143Y-33515999D01*
X152188571Y-33515999D01*
X151617143Y-33658856D01*
X151331429Y-33801713D01*
X151045714Y-34087427D01*
X150902857Y-34515999D01*
X150902857Y-35230284D01*
X146388571Y-73016000D02*
X146245714Y-73158857D01*
X146102857Y-73587428D01*
X146102857Y-73873142D01*
X146245714Y-74301714D01*
X146531429Y-74587428D01*
X146817143Y-74730285D01*
X147388571Y-74873142D01*
X147817143Y-74873142D01*
X148388571Y-74730285D01*
X148674286Y-74587428D01*
X148960000Y-74301714D01*
X149102857Y-73873142D01*
X149102857Y-73587428D01*
X148960000Y-73158857D01*
X148817143Y-73016000D01*
X146102857Y-71730285D02*
X148102857Y-71730285D01*
X147531429Y-71730285D02*
X147817143Y-71587428D01*
X147960000Y-71444571D01*
X148102857Y-71158857D01*
X148102857Y-70873142D01*
X146102857Y-69444571D02*
X146245714Y-69730285D01*
X146388571Y-69873142D01*
X146674286Y-70015999D01*
X147531429Y-70015999D01*
X147817143Y-69873142D01*
X147960000Y-69730285D01*
X148102857Y-69444571D01*
X148102857Y-69015999D01*
X147960000Y-68730285D01*
X147817143Y-68587428D01*
X147531429Y-68444571D01*
X146674286Y-68444571D01*
X146388571Y-68587428D01*
X146245714Y-68730285D01*
X146102857Y-69015999D01*
X146102857Y-69444571D01*
X146245714Y-67301713D02*
X146102857Y-67015999D01*
X146102857Y-66444571D01*
X146245714Y-66158856D01*
X146531429Y-66015999D01*
X146674286Y-66015999D01*
X146960000Y-66158856D01*
X147102857Y-66444571D01*
X147102857Y-66873142D01*
X147245714Y-67158856D01*
X147531429Y-67301713D01*
X147674286Y-67301713D01*
X147960000Y-67158856D01*
X148102857Y-66873142D01*
X148102857Y-66444571D01*
X147960000Y-66158856D01*
X146245714Y-64873142D02*
X146102857Y-64587428D01*
X146102857Y-64016000D01*
X146245714Y-63730285D01*
X146531429Y-63587428D01*
X146674286Y-63587428D01*
X146960000Y-63730285D01*
X147102857Y-64016000D01*
X147102857Y-64444571D01*
X147245714Y-64730285D01*
X147531429Y-64873142D01*
X147674286Y-64873142D01*
X147960000Y-64730285D01*
X148102857Y-64444571D01*
X148102857Y-64016000D01*
X147960000Y-63730285D01*
X146102857Y-61873143D02*
X146245714Y-62158857D01*
X146388571Y-62301714D01*
X146674286Y-62444571D01*
X147531429Y-62444571D01*
X147817143Y-62301714D01*
X147960000Y-62158857D01*
X148102857Y-61873143D01*
X148102857Y-61444571D01*
X147960000Y-61158857D01*
X147817143Y-61016000D01*
X147531429Y-60873143D01*
X146674286Y-60873143D01*
X146388571Y-61016000D01*
X146245714Y-61158857D01*
X146102857Y-61444571D01*
X146102857Y-61873143D01*
X148102857Y-59873143D02*
X146102857Y-59158857D01*
X148102857Y-58444571D01*
X146245714Y-56158857D02*
X146102857Y-56444571D01*
X146102857Y-57016000D01*
X146245714Y-57301714D01*
X146531429Y-57444571D01*
X147674286Y-57444571D01*
X147960000Y-57301714D01*
X148102857Y-57016000D01*
X148102857Y-56444571D01*
X147960000Y-56158857D01*
X147674286Y-56016000D01*
X147388571Y-56016000D01*
X147102857Y-57444571D01*
X146102857Y-54730285D02*
X148102857Y-54730285D01*
X147531429Y-54730285D02*
X147817143Y-54587428D01*
X147960000Y-54444571D01*
X148102857Y-54158857D01*
X148102857Y-53873142D01*
D13*
X51986571Y-85928287D02*
X51986571Y-85214001D01*
X50486571Y-85214001D01*
X51986571Y-87214001D02*
X51986571Y-86356858D01*
X51986571Y-86785430D02*
X50486571Y-86785430D01*
X50700857Y-86642573D01*
X50843714Y-86499715D01*
X50915143Y-86356858D01*
X50415143Y-90071143D02*
X52343714Y-88785429D01*
X50486571Y-91999715D02*
X50486571Y-92142572D01*
X50558000Y-92285429D01*
X50629429Y-92356858D01*
X50772286Y-92428287D01*
X51058000Y-92499715D01*
X51415143Y-92499715D01*
X51700857Y-92428287D01*
X51843714Y-92356858D01*
X51915143Y-92285429D01*
X51986571Y-92142572D01*
X51986571Y-91999715D01*
X51915143Y-91856858D01*
X51843714Y-91785429D01*
X51700857Y-91714001D01*
X51415143Y-91642572D01*
X51058000Y-91642572D01*
X50772286Y-91714001D01*
X50629429Y-91785429D01*
X50558000Y-91856858D01*
X50486571Y-91999715D01*
X51843714Y-93142572D02*
X51915143Y-93214000D01*
X51986571Y-93142572D01*
X51915143Y-93071143D01*
X51843714Y-93142572D01*
X51986571Y-93142572D01*
X50486571Y-93714001D02*
X50486571Y-94642572D01*
X51058000Y-94142572D01*
X51058000Y-94356858D01*
X51129429Y-94499715D01*
X51200857Y-94571144D01*
X51343714Y-94642572D01*
X51700857Y-94642572D01*
X51843714Y-94571144D01*
X51915143Y-94499715D01*
X51986571Y-94356858D01*
X51986571Y-93928286D01*
X51915143Y-93785429D01*
X51843714Y-93714001D01*
X51129429Y-95499715D02*
X51058000Y-95356857D01*
X50986571Y-95285429D01*
X50843714Y-95214000D01*
X50772286Y-95214000D01*
X50629429Y-95285429D01*
X50558000Y-95356857D01*
X50486571Y-95499715D01*
X50486571Y-95785429D01*
X50558000Y-95928286D01*
X50629429Y-95999715D01*
X50772286Y-96071143D01*
X50843714Y-96071143D01*
X50986571Y-95999715D01*
X51058000Y-95928286D01*
X51129429Y-95785429D01*
X51129429Y-95499715D01*
X51200857Y-95356857D01*
X51272286Y-95285429D01*
X51415143Y-95214000D01*
X51700857Y-95214000D01*
X51843714Y-95285429D01*
X51915143Y-95356857D01*
X51986571Y-95499715D01*
X51986571Y-95785429D01*
X51915143Y-95928286D01*
X51843714Y-95999715D01*
X51700857Y-96071143D01*
X51415143Y-96071143D01*
X51272286Y-95999715D01*
X51200857Y-95928286D01*
X51129429Y-95785429D01*
X51986571Y-97856857D02*
X50986571Y-97856857D01*
X51129429Y-97856857D02*
X51058000Y-97928285D01*
X50986571Y-98071143D01*
X50986571Y-98285428D01*
X51058000Y-98428285D01*
X51200857Y-98499714D01*
X51986571Y-98499714D01*
X51200857Y-98499714D02*
X51058000Y-98571143D01*
X50986571Y-98714000D01*
X50986571Y-98928285D01*
X51058000Y-99071143D01*
X51200857Y-99142571D01*
X51986571Y-99142571D01*
X51986571Y-99856857D02*
X50486571Y-99856857D01*
X51200857Y-99856857D02*
X51200857Y-100714000D01*
X51986571Y-100714000D02*
X50486571Y-100714000D01*
X98475713Y-34016071D02*
X99189999Y-34016071D01*
X99189999Y-32516071D01*
X98118570Y-32516071D02*
X97189999Y-32516071D01*
X97689999Y-33087500D01*
X97475713Y-33087500D01*
X97332856Y-33158929D01*
X97261427Y-33230357D01*
X97189999Y-33373214D01*
X97189999Y-33730357D01*
X97261427Y-33873214D01*
X97332856Y-33944643D01*
X97475713Y-34016071D01*
X97904285Y-34016071D01*
X98047142Y-33944643D01*
X98118570Y-33873214D01*
X94332857Y-32444643D02*
X95618571Y-34373214D01*
X92404285Y-32516071D02*
X92261428Y-32516071D01*
X92118571Y-32587500D01*
X92047142Y-32658929D01*
X91975713Y-32801786D01*
X91904285Y-33087500D01*
X91904285Y-33444643D01*
X91975713Y-33730357D01*
X92047142Y-33873214D01*
X92118571Y-33944643D01*
X92261428Y-34016071D01*
X92404285Y-34016071D01*
X92547142Y-33944643D01*
X92618571Y-33873214D01*
X92689999Y-33730357D01*
X92761428Y-33444643D01*
X92761428Y-33087500D01*
X92689999Y-32801786D01*
X92618571Y-32658929D01*
X92547142Y-32587500D01*
X92404285Y-32516071D01*
X91261428Y-33873214D02*
X91190000Y-33944643D01*
X91261428Y-34016071D01*
X91332857Y-33944643D01*
X91261428Y-33873214D01*
X91261428Y-34016071D01*
X90618571Y-32658929D02*
X90547142Y-32587500D01*
X90404285Y-32516071D01*
X90047142Y-32516071D01*
X89904285Y-32587500D01*
X89832856Y-32658929D01*
X89761428Y-32801786D01*
X89761428Y-32944643D01*
X89832856Y-33158929D01*
X90689999Y-34016071D01*
X89761428Y-34016071D01*
X88404285Y-32516071D02*
X89118571Y-32516071D01*
X89190000Y-33230357D01*
X89118571Y-33158929D01*
X88975714Y-33087500D01*
X88618571Y-33087500D01*
X88475714Y-33158929D01*
X88404285Y-33230357D01*
X88332857Y-33373214D01*
X88332857Y-33730357D01*
X88404285Y-33873214D01*
X88475714Y-33944643D01*
X88618571Y-34016071D01*
X88975714Y-34016071D01*
X89118571Y-33944643D01*
X89190000Y-33873214D01*
X86547143Y-34016071D02*
X86547143Y-33016071D01*
X86547143Y-33158929D02*
X86475715Y-33087500D01*
X86332857Y-33016071D01*
X86118572Y-33016071D01*
X85975715Y-33087500D01*
X85904286Y-33230357D01*
X85904286Y-34016071D01*
X85904286Y-33230357D02*
X85832857Y-33087500D01*
X85690000Y-33016071D01*
X85475715Y-33016071D01*
X85332857Y-33087500D01*
X85261429Y-33230357D01*
X85261429Y-34016071D01*
X84547143Y-34016071D02*
X84547143Y-32516071D01*
X84547143Y-33230357D02*
X83690000Y-33230357D01*
X83690000Y-34016071D02*
X83690000Y-32516071D01*
X141902571Y-110820287D02*
X141902571Y-110106001D01*
X140402571Y-110106001D01*
X140545429Y-111248858D02*
X140474000Y-111320287D01*
X140402571Y-111463144D01*
X140402571Y-111820287D01*
X140474000Y-111963144D01*
X140545429Y-112034573D01*
X140688286Y-112106001D01*
X140831143Y-112106001D01*
X141045429Y-112034573D01*
X141902571Y-111177430D01*
X141902571Y-112106001D01*
X140331143Y-114963143D02*
X142259714Y-113677429D01*
X140402571Y-116891715D02*
X140402571Y-117034572D01*
X140474000Y-117177429D01*
X140545429Y-117248858D01*
X140688286Y-117320287D01*
X140974000Y-117391715D01*
X141331143Y-117391715D01*
X141616857Y-117320287D01*
X141759714Y-117248858D01*
X141831143Y-117177429D01*
X141902571Y-117034572D01*
X141902571Y-116891715D01*
X141831143Y-116748858D01*
X141759714Y-116677429D01*
X141616857Y-116606001D01*
X141331143Y-116534572D01*
X140974000Y-116534572D01*
X140688286Y-116606001D01*
X140545429Y-116677429D01*
X140474000Y-116748858D01*
X140402571Y-116891715D01*
X141759714Y-118034572D02*
X141831143Y-118106000D01*
X141902571Y-118034572D01*
X141831143Y-117963143D01*
X141759714Y-118034572D01*
X141902571Y-118034572D01*
X140402571Y-118606001D02*
X140402571Y-119606001D01*
X141902571Y-118963144D01*
X141045429Y-120391715D02*
X140974000Y-120248857D01*
X140902571Y-120177429D01*
X140759714Y-120106000D01*
X140688286Y-120106000D01*
X140545429Y-120177429D01*
X140474000Y-120248857D01*
X140402571Y-120391715D01*
X140402571Y-120677429D01*
X140474000Y-120820286D01*
X140545429Y-120891715D01*
X140688286Y-120963143D01*
X140759714Y-120963143D01*
X140902571Y-120891715D01*
X140974000Y-120820286D01*
X141045429Y-120677429D01*
X141045429Y-120391715D01*
X141116857Y-120248857D01*
X141188286Y-120177429D01*
X141331143Y-120106000D01*
X141616857Y-120106000D01*
X141759714Y-120177429D01*
X141831143Y-120248857D01*
X141902571Y-120391715D01*
X141902571Y-120677429D01*
X141831143Y-120820286D01*
X141759714Y-120891715D01*
X141616857Y-120963143D01*
X141331143Y-120963143D01*
X141188286Y-120891715D01*
X141116857Y-120820286D01*
X141045429Y-120677429D01*
X141902571Y-122748857D02*
X140902571Y-122748857D01*
X141045429Y-122748857D02*
X140974000Y-122820285D01*
X140902571Y-122963143D01*
X140902571Y-123177428D01*
X140974000Y-123320285D01*
X141116857Y-123391714D01*
X141902571Y-123391714D01*
X141116857Y-123391714D02*
X140974000Y-123463143D01*
X140902571Y-123606000D01*
X140902571Y-123820285D01*
X140974000Y-123963143D01*
X141116857Y-124034571D01*
X141902571Y-124034571D01*
X141902571Y-124748857D02*
X140402571Y-124748857D01*
X141116857Y-124748857D02*
X141116857Y-125606000D01*
X141902571Y-125606000D02*
X140402571Y-125606000D01*
X122955929Y-109784000D02*
X122884500Y-109855429D01*
X122813071Y-109998286D01*
X122813071Y-110355429D01*
X122884500Y-110498286D01*
X122955929Y-110569715D01*
X123098786Y-110641143D01*
X123241643Y-110641143D01*
X123455929Y-110569715D01*
X124313071Y-109712572D01*
X124313071Y-110641143D01*
X124170214Y-111284000D02*
X124241643Y-111355428D01*
X124313071Y-111284000D01*
X124241643Y-111212571D01*
X124170214Y-111284000D01*
X124313071Y-111284000D01*
X122955929Y-111926857D02*
X122884500Y-111998286D01*
X122813071Y-112141143D01*
X122813071Y-112498286D01*
X122884500Y-112641143D01*
X122955929Y-112712572D01*
X123098786Y-112784000D01*
X123241643Y-112784000D01*
X123455929Y-112712572D01*
X124313071Y-111855429D01*
X124313071Y-112784000D01*
X123313071Y-114569714D02*
X124813071Y-114569714D01*
X124098786Y-115284000D02*
X124241643Y-115355428D01*
X124313071Y-115498285D01*
X124098786Y-114569714D02*
X124241643Y-114641142D01*
X124313071Y-114784000D01*
X124313071Y-115069714D01*
X124241643Y-115212571D01*
X124098786Y-115284000D01*
X123313071Y-115284000D01*
X123527357Y-116641143D02*
X123527357Y-116141143D01*
X124313071Y-116141143D02*
X122813071Y-116141143D01*
X122813071Y-116855429D01*
X73092571Y-149177715D02*
X73092571Y-148463429D01*
X73806857Y-148392000D01*
X73735429Y-148463429D01*
X73664000Y-148606286D01*
X73664000Y-148963429D01*
X73735429Y-149106286D01*
X73806857Y-149177715D01*
X73949714Y-149249143D01*
X74306857Y-149249143D01*
X74449714Y-149177715D01*
X74521143Y-149106286D01*
X74592571Y-148963429D01*
X74592571Y-148606286D01*
X74521143Y-148463429D01*
X74449714Y-148392000D01*
X74449714Y-149892000D02*
X74521143Y-149963428D01*
X74592571Y-149892000D01*
X74521143Y-149820571D01*
X74449714Y-149892000D01*
X74592571Y-149892000D01*
X73092571Y-151249143D02*
X73092571Y-150963429D01*
X73164000Y-150820572D01*
X73235429Y-150749143D01*
X73449714Y-150606286D01*
X73735429Y-150534857D01*
X74306857Y-150534857D01*
X74449714Y-150606286D01*
X74521143Y-150677714D01*
X74592571Y-150820572D01*
X74592571Y-151106286D01*
X74521143Y-151249143D01*
X74449714Y-151320572D01*
X74306857Y-151392000D01*
X73949714Y-151392000D01*
X73806857Y-151320572D01*
X73735429Y-151249143D01*
X73664000Y-151106286D01*
X73664000Y-150820572D01*
X73735429Y-150677714D01*
X73806857Y-150606286D01*
X73949714Y-150534857D01*
X73592571Y-153177714D02*
X75092571Y-153177714D01*
X74378286Y-153892000D02*
X74521143Y-153963428D01*
X74592571Y-154106285D01*
X74378286Y-153177714D02*
X74521143Y-153249142D01*
X74592571Y-153392000D01*
X74592571Y-153677714D01*
X74521143Y-153820571D01*
X74378286Y-153892000D01*
X73592571Y-153892000D01*
X73806857Y-155249143D02*
X73806857Y-154749143D01*
X74592571Y-154749143D02*
X73092571Y-154749143D01*
X73092571Y-155463429D01*
X65293428Y-120844571D02*
X64364857Y-120844571D01*
X64864857Y-121416000D01*
X64650571Y-121416000D01*
X64507714Y-121487429D01*
X64436285Y-121558857D01*
X64364857Y-121701714D01*
X64364857Y-122058857D01*
X64436285Y-122201714D01*
X64507714Y-122273143D01*
X64650571Y-122344571D01*
X65079143Y-122344571D01*
X65222000Y-122273143D01*
X65293428Y-122201714D01*
X63722000Y-122201714D02*
X63650572Y-122273143D01*
X63722000Y-122344571D01*
X63793429Y-122273143D01*
X63722000Y-122201714D01*
X63722000Y-122344571D01*
X63150571Y-120844571D02*
X62222000Y-120844571D01*
X62722000Y-121416000D01*
X62507714Y-121416000D01*
X62364857Y-121487429D01*
X62293428Y-121558857D01*
X62222000Y-121701714D01*
X62222000Y-122058857D01*
X62293428Y-122201714D01*
X62364857Y-122273143D01*
X62507714Y-122344571D01*
X62936286Y-122344571D01*
X63079143Y-122273143D01*
X63150571Y-122201714D01*
X60436286Y-121344571D02*
X60436286Y-122844571D01*
X59722000Y-122130286D02*
X59650572Y-122273143D01*
X59507715Y-122344571D01*
X60436286Y-122130286D02*
X60364858Y-122273143D01*
X60222000Y-122344571D01*
X59936286Y-122344571D01*
X59793429Y-122273143D01*
X59722000Y-122130286D01*
X59722000Y-121344571D01*
X58364857Y-121558857D02*
X58864857Y-121558857D01*
X58864857Y-122344571D02*
X58864857Y-120844571D01*
X58150571Y-120844571D01*
X70187429Y-88702000D02*
X70116000Y-88773429D01*
X70044571Y-88916286D01*
X70044571Y-89273429D01*
X70116000Y-89416286D01*
X70187429Y-89487715D01*
X70330286Y-89559143D01*
X70473143Y-89559143D01*
X70687429Y-89487715D01*
X71544571Y-88630572D01*
X71544571Y-89559143D01*
X71401714Y-90202000D02*
X71473143Y-90273428D01*
X71544571Y-90202000D01*
X71473143Y-90130571D01*
X71401714Y-90202000D01*
X71544571Y-90202000D01*
X70187429Y-90844857D02*
X70116000Y-90916286D01*
X70044571Y-91059143D01*
X70044571Y-91416286D01*
X70116000Y-91559143D01*
X70187429Y-91630572D01*
X70330286Y-91702000D01*
X70473143Y-91702000D01*
X70687429Y-91630572D01*
X71544571Y-90773429D01*
X71544571Y-91702000D01*
X70544571Y-93487714D02*
X72044571Y-93487714D01*
X71330286Y-94202000D02*
X71473143Y-94273428D01*
X71544571Y-94416285D01*
X71330286Y-93487714D02*
X71473143Y-93559142D01*
X71544571Y-93702000D01*
X71544571Y-93987714D01*
X71473143Y-94130571D01*
X71330286Y-94202000D01*
X70544571Y-94202000D01*
X70758857Y-95559143D02*
X70758857Y-95059143D01*
X71544571Y-95059143D02*
X70044571Y-95059143D01*
X70044571Y-95773429D01*
X106171714Y-83228571D02*
X107028857Y-83228571D01*
X106600285Y-83228571D02*
X106600285Y-81728571D01*
X106743142Y-81942857D01*
X106886000Y-82085714D01*
X107028857Y-82157143D01*
X105243143Y-81728571D02*
X105100286Y-81728571D01*
X104957429Y-81800000D01*
X104886000Y-81871429D01*
X104814571Y-82014286D01*
X104743143Y-82300000D01*
X104743143Y-82657143D01*
X104814571Y-82942857D01*
X104886000Y-83085714D01*
X104957429Y-83157143D01*
X105100286Y-83228571D01*
X105243143Y-83228571D01*
X105386000Y-83157143D01*
X105457429Y-83085714D01*
X105528857Y-82942857D01*
X105600286Y-82657143D01*
X105600286Y-82300000D01*
X105528857Y-82014286D01*
X105457429Y-81871429D01*
X105386000Y-81800000D01*
X105243143Y-81728571D01*
X102957429Y-82228571D02*
X102957429Y-83728571D01*
X102243143Y-83014286D02*
X102171715Y-83157143D01*
X102028858Y-83228571D01*
X102957429Y-83014286D02*
X102886001Y-83157143D01*
X102743143Y-83228571D01*
X102457429Y-83228571D01*
X102314572Y-83157143D01*
X102243143Y-83014286D01*
X102243143Y-82228571D01*
X100886000Y-82442857D02*
X101386000Y-82442857D01*
X101386000Y-83228571D02*
X101386000Y-81728571D01*
X100671714Y-81728571D01*
X120804714Y-113034001D02*
X120876143Y-112962572D01*
X120947571Y-112748286D01*
X120947571Y-112605429D01*
X120876143Y-112391144D01*
X120733286Y-112248286D01*
X120590429Y-112176858D01*
X120304714Y-112105429D01*
X120090429Y-112105429D01*
X119804714Y-112176858D01*
X119661857Y-112248286D01*
X119519000Y-112391144D01*
X119447571Y-112605429D01*
X119447571Y-112748286D01*
X119519000Y-112962572D01*
X119590429Y-113034001D01*
X119447571Y-114319715D02*
X119447571Y-114034001D01*
X119519000Y-113891144D01*
X119590429Y-113819715D01*
X119804714Y-113676858D01*
X120090429Y-113605429D01*
X120661857Y-113605429D01*
X120804714Y-113676858D01*
X120876143Y-113748286D01*
X120947571Y-113891144D01*
X120947571Y-114176858D01*
X120876143Y-114319715D01*
X120804714Y-114391144D01*
X120661857Y-114462572D01*
X120304714Y-114462572D01*
X120161857Y-114391144D01*
X120090429Y-114319715D01*
X120019000Y-114176858D01*
X120019000Y-113891144D01*
X120090429Y-113748286D01*
X120161857Y-113676858D01*
X120304714Y-113605429D01*
X70893714Y-151642001D02*
X70965143Y-151570572D01*
X71036571Y-151356286D01*
X71036571Y-151213429D01*
X70965143Y-150999144D01*
X70822286Y-150856286D01*
X70679429Y-150784858D01*
X70393714Y-150713429D01*
X70179429Y-150713429D01*
X69893714Y-150784858D01*
X69750857Y-150856286D01*
X69608000Y-150999144D01*
X69536571Y-151213429D01*
X69536571Y-151356286D01*
X69608000Y-151570572D01*
X69679429Y-151642001D01*
X70036571Y-152927715D02*
X71036571Y-152927715D01*
X69465143Y-152570572D02*
X70536571Y-152213429D01*
X70536571Y-153142001D01*
X61971999Y-118645714D02*
X62043428Y-118717143D01*
X62257714Y-118788571D01*
X62400571Y-118788571D01*
X62614856Y-118717143D01*
X62757714Y-118574286D01*
X62829142Y-118431429D01*
X62900571Y-118145714D01*
X62900571Y-117931429D01*
X62829142Y-117645714D01*
X62757714Y-117502857D01*
X62614856Y-117360000D01*
X62400571Y-117288571D01*
X62257714Y-117288571D01*
X62043428Y-117360000D01*
X61971999Y-117431429D01*
X60543428Y-118788571D02*
X61400571Y-118788571D01*
X60971999Y-118788571D02*
X60971999Y-117288571D01*
X61114856Y-117502857D01*
X61257714Y-117645714D01*
X61400571Y-117717143D01*
X67845714Y-91952001D02*
X67917143Y-91880572D01*
X67988571Y-91666286D01*
X67988571Y-91523429D01*
X67917143Y-91309144D01*
X67774286Y-91166286D01*
X67631429Y-91094858D01*
X67345714Y-91023429D01*
X67131429Y-91023429D01*
X66845714Y-91094858D01*
X66702857Y-91166286D01*
X66560000Y-91309144D01*
X66488571Y-91523429D01*
X66488571Y-91666286D01*
X66560000Y-91880572D01*
X66631429Y-91952001D01*
X66631429Y-92523429D02*
X66560000Y-92594858D01*
X66488571Y-92737715D01*
X66488571Y-93094858D01*
X66560000Y-93237715D01*
X66631429Y-93309144D01*
X66774286Y-93380572D01*
X66917143Y-93380572D01*
X67131429Y-93309144D01*
X67988571Y-92452001D01*
X67988571Y-93380572D01*
X104135999Y-79275714D02*
X104207428Y-79347143D01*
X104421714Y-79418571D01*
X104564571Y-79418571D01*
X104778856Y-79347143D01*
X104921714Y-79204286D01*
X104993142Y-79061429D01*
X105064571Y-78775714D01*
X105064571Y-78561429D01*
X104993142Y-78275714D01*
X104921714Y-78132857D01*
X104778856Y-77990000D01*
X104564571Y-77918571D01*
X104421714Y-77918571D01*
X104207428Y-77990000D01*
X104135999Y-78061429D01*
X103635999Y-77918571D02*
X102707428Y-77918571D01*
X103207428Y-78490000D01*
X102993142Y-78490000D01*
X102850285Y-78561429D01*
X102778856Y-78632857D01*
X102707428Y-78775714D01*
X102707428Y-79132857D01*
X102778856Y-79275714D01*
X102850285Y-79347143D01*
X102993142Y-79418571D01*
X103421714Y-79418571D01*
X103564571Y-79347143D01*
X103635999Y-79275714D01*
X101937429Y-138171999D02*
X102651714Y-138671999D01*
X101937429Y-139029142D02*
X103437429Y-139029142D01*
X103437429Y-138457714D01*
X103366000Y-138314856D01*
X103294571Y-138243428D01*
X103151714Y-138171999D01*
X102937429Y-138171999D01*
X102794571Y-138243428D01*
X102723143Y-138314856D01*
X102651714Y-138457714D01*
X102651714Y-139029142D01*
X102937429Y-136886285D02*
X101937429Y-136886285D01*
X103508857Y-137243428D02*
X102437429Y-137600571D01*
X102437429Y-136671999D01*
X135298571Y-64266001D02*
X134584286Y-63766001D01*
X135298571Y-63408858D02*
X133798571Y-63408858D01*
X133798571Y-63980286D01*
X133870000Y-64123144D01*
X133941429Y-64194572D01*
X134084286Y-64266001D01*
X134298571Y-64266001D01*
X134441429Y-64194572D01*
X134512857Y-64123144D01*
X134584286Y-63980286D01*
X134584286Y-63408858D01*
X133798571Y-64766001D02*
X133798571Y-65694572D01*
X134370000Y-65194572D01*
X134370000Y-65408858D01*
X134441429Y-65551715D01*
X134512857Y-65623144D01*
X134655714Y-65694572D01*
X135012857Y-65694572D01*
X135155714Y-65623144D01*
X135227143Y-65551715D01*
X135298571Y-65408858D01*
X135298571Y-64980286D01*
X135227143Y-64837429D01*
X135155714Y-64766001D01*
X64765999Y-35222571D02*
X65265999Y-34508286D01*
X65623142Y-35222571D02*
X65623142Y-33722571D01*
X65051714Y-33722571D01*
X64908856Y-33794000D01*
X64837428Y-33865429D01*
X64765999Y-34008286D01*
X64765999Y-34222571D01*
X64837428Y-34365429D01*
X64908856Y-34436857D01*
X65051714Y-34508286D01*
X65623142Y-34508286D01*
X63337428Y-35222571D02*
X64194571Y-35222571D01*
X63765999Y-35222571D02*
X63765999Y-33722571D01*
X63908856Y-33936857D01*
X64051714Y-34079714D01*
X64194571Y-34151143D01*
X72131999Y-57828571D02*
X72631999Y-57114286D01*
X72989142Y-57828571D02*
X72989142Y-56328571D01*
X72417714Y-56328571D01*
X72274856Y-56400000D01*
X72203428Y-56471429D01*
X72131999Y-56614286D01*
X72131999Y-56828571D01*
X72203428Y-56971429D01*
X72274856Y-57042857D01*
X72417714Y-57114286D01*
X72989142Y-57114286D01*
X71560571Y-56471429D02*
X71489142Y-56400000D01*
X71346285Y-56328571D01*
X70989142Y-56328571D01*
X70846285Y-56400000D01*
X70774856Y-56471429D01*
X70703428Y-56614286D01*
X70703428Y-56757143D01*
X70774856Y-56971429D01*
X71631999Y-57828571D01*
X70703428Y-57828571D01*
X112549714Y-42930001D02*
X112621143Y-42858572D01*
X112692571Y-42644286D01*
X112692571Y-42501429D01*
X112621143Y-42287144D01*
X112478286Y-42144286D01*
X112335429Y-42072858D01*
X112049714Y-42001429D01*
X111835429Y-42001429D01*
X111549714Y-42072858D01*
X111406857Y-42144286D01*
X111264000Y-42287144D01*
X111192571Y-42501429D01*
X111192571Y-42644286D01*
X111264000Y-42858572D01*
X111335429Y-42930001D01*
X111192571Y-44287144D02*
X111192571Y-43572858D01*
X111906857Y-43501429D01*
X111835429Y-43572858D01*
X111764000Y-43715715D01*
X111764000Y-44072858D01*
X111835429Y-44215715D01*
X111906857Y-44287144D01*
X112049714Y-44358572D01*
X112406857Y-44358572D01*
X112549714Y-44287144D01*
X112621143Y-44215715D01*
X112692571Y-44072858D01*
X112692571Y-43715715D01*
X112621143Y-43572858D01*
X112549714Y-43501429D01*
X115899429Y-39965715D02*
X115828000Y-39822857D01*
X115756571Y-39751429D01*
X115613714Y-39680000D01*
X115542286Y-39680000D01*
X115399429Y-39751429D01*
X115328000Y-39822857D01*
X115256571Y-39965715D01*
X115256571Y-40251429D01*
X115328000Y-40394286D01*
X115399429Y-40465715D01*
X115542286Y-40537143D01*
X115613714Y-40537143D01*
X115756571Y-40465715D01*
X115828000Y-40394286D01*
X115899429Y-40251429D01*
X115899429Y-39965715D01*
X115970857Y-39822857D01*
X116042286Y-39751429D01*
X116185143Y-39680000D01*
X116470857Y-39680000D01*
X116613714Y-39751429D01*
X116685143Y-39822857D01*
X116756571Y-39965715D01*
X116756571Y-40251429D01*
X116685143Y-40394286D01*
X116613714Y-40465715D01*
X116470857Y-40537143D01*
X116185143Y-40537143D01*
X116042286Y-40465715D01*
X115970857Y-40394286D01*
X115899429Y-40251429D01*
X116613714Y-41180000D02*
X116685143Y-41251428D01*
X116756571Y-41180000D01*
X116685143Y-41108571D01*
X116613714Y-41180000D01*
X116756571Y-41180000D01*
X115399429Y-41822857D02*
X115328000Y-41894286D01*
X115256571Y-42037143D01*
X115256571Y-42394286D01*
X115328000Y-42537143D01*
X115399429Y-42608572D01*
X115542286Y-42680000D01*
X115685143Y-42680000D01*
X115899429Y-42608572D01*
X116756571Y-41751429D01*
X116756571Y-42680000D01*
X115756571Y-44465714D02*
X117256571Y-44465714D01*
X116542286Y-45180000D02*
X116685143Y-45251428D01*
X116756571Y-45394285D01*
X116542286Y-44465714D02*
X116685143Y-44537142D01*
X116756571Y-44680000D01*
X116756571Y-44965714D01*
X116685143Y-45108571D01*
X116542286Y-45180000D01*
X115756571Y-45180000D01*
X115970857Y-46537143D02*
X115970857Y-46037143D01*
X116756571Y-46037143D02*
X115256571Y-46037143D01*
X115256571Y-46751429D01*
X50292000Y-29210000D02*
X50292000Y-49784000D01*
X68580000Y-29210000D02*
X50292000Y-29210000D01*
X68580000Y-22860000D02*
X68580000Y-29210000D01*
X78740000Y-22860000D02*
X68580000Y-22860000D01*
X78740000Y-43434000D02*
X78740000Y-22860000D01*
X60452000Y-43434000D02*
X78740000Y-43434000D01*
X60452000Y-49784000D02*
X60452000Y-43434000D01*
X50292000Y-49784000D02*
X60452000Y-49784000D01*
X57658000Y-51816000D02*
X57658000Y-72390000D01*
X75946000Y-51816000D02*
X57658000Y-51816000D01*
X75946000Y-45466000D02*
X75946000Y-51816000D01*
X86106000Y-45466000D02*
X75946000Y-45466000D01*
X86106000Y-66040000D02*
X86106000Y-45466000D01*
X67818000Y-66040000D02*
X86106000Y-66040000D01*
X67818000Y-72390000D02*
X67818000Y-66040000D01*
X57658000Y-72390000D02*
X67818000Y-72390000D01*
X103124000Y-25654000D02*
X103124000Y-60706000D01*
X124968000Y-25654000D02*
X103124000Y-25654000D01*
X124968000Y-60706000D02*
X124968000Y-25654000D01*
X103124000Y-60706000D02*
X124968000Y-60706000D01*
X128778000Y-34290000D02*
X128778000Y-94742000D01*
X150114000Y-34290000D02*
X128778000Y-34290000D01*
X150114000Y-94742000D02*
X150114000Y-34290000D01*
X128778000Y-94742000D02*
X150114000Y-94742000D01*
X86360000Y-92456000D02*
X86360000Y-68580000D01*
X121412000Y-92456000D02*
X86360000Y-92456000D01*
X121412000Y-68580000D02*
X121412000Y-92456000D01*
X86360000Y-68580000D02*
X121412000Y-68580000D01*
X61976000Y-103886000D02*
X61976000Y-80518000D01*
X76200000Y-103886000D02*
X61976000Y-103886000D01*
X76200000Y-80518000D02*
X76200000Y-103886000D01*
X61976000Y-80518000D02*
X76200000Y-80518000D01*
X44196000Y-127254000D02*
X44196000Y-112522000D01*
X79248000Y-127254000D02*
X44196000Y-127254000D01*
X79248000Y-112522000D02*
X79248000Y-127254000D01*
X44196000Y-112522000D02*
X79248000Y-112522000D01*
X62992000Y-134366000D02*
X62992000Y-169418000D01*
X81280000Y-134366000D02*
X62992000Y-134366000D01*
X81280000Y-169418000D02*
X81280000Y-134366000D01*
X62992000Y-169418000D02*
X81280000Y-169418000D01*
X114808000Y-124968000D02*
X114808000Y-101600000D01*
X129032000Y-124968000D02*
X114808000Y-124968000D01*
X129032000Y-101600000D02*
X129032000Y-124968000D01*
X114808000Y-101600000D02*
X129032000Y-101600000D01*
X87122000Y-168148000D02*
X87122000Y-107696000D01*
X108458000Y-168148000D02*
X87122000Y-168148000D01*
X108458000Y-107696000D02*
X108458000Y-168148000D01*
X87122000Y-107696000D02*
X108458000Y-107696000D01*
X99484571Y-144088571D02*
X99556000Y-144017142D01*
X99627429Y-143874285D01*
X99627429Y-143517142D01*
X99556000Y-143374285D01*
X99484571Y-143302856D01*
X99341714Y-143231428D01*
X99198857Y-143231428D01*
X98984571Y-143302856D01*
X98127429Y-144159999D01*
X98127429Y-143231428D01*
X99127429Y-141945714D02*
X98127429Y-141945714D01*
X99698857Y-142302857D02*
X98627429Y-142660000D01*
X98627429Y-141731428D01*
X98127429Y-141231429D02*
X98127429Y-140874286D01*
X98413143Y-140874286D01*
X98484571Y-141017143D01*
X98627429Y-141160000D01*
X98841714Y-141231429D01*
X99198857Y-141231429D01*
X99413143Y-141160000D01*
X99556000Y-141017143D01*
X99627429Y-140802857D01*
X99627429Y-140517143D01*
X99556000Y-140302857D01*
X99413143Y-140160000D01*
X99198857Y-140088572D01*
X98841714Y-140088572D01*
X98627429Y-140160000D01*
X98484571Y-140302857D01*
X98413143Y-140445714D01*
X98127429Y-140445714D01*
X98127429Y-140088572D01*
X99698857Y-137231429D02*
X97770286Y-138517143D01*
X98127429Y-134802857D02*
X98127429Y-135660000D01*
X98127429Y-135231428D02*
X99627429Y-135231428D01*
X99413143Y-135374285D01*
X99270286Y-135517143D01*
X99198857Y-135660000D01*
X99627429Y-133874286D02*
X99627429Y-133731429D01*
X99556000Y-133588572D01*
X99484571Y-133517143D01*
X99341714Y-133445714D01*
X99056000Y-133374286D01*
X98698857Y-133374286D01*
X98413143Y-133445714D01*
X98270286Y-133517143D01*
X98198857Y-133588572D01*
X98127429Y-133731429D01*
X98127429Y-133874286D01*
X98198857Y-134017143D01*
X98270286Y-134088572D01*
X98413143Y-134160000D01*
X98698857Y-134231429D01*
X99056000Y-134231429D01*
X99341714Y-134160000D01*
X99484571Y-134088572D01*
X99556000Y-134017143D01*
X99627429Y-133874286D01*
X99627429Y-132445715D02*
X99627429Y-132302858D01*
X99556000Y-132160001D01*
X99484571Y-132088572D01*
X99341714Y-132017143D01*
X99056000Y-131945715D01*
X98698857Y-131945715D01*
X98413143Y-132017143D01*
X98270286Y-132088572D01*
X98198857Y-132160001D01*
X98127429Y-132302858D01*
X98127429Y-132445715D01*
X98198857Y-132588572D01*
X98270286Y-132660001D01*
X98413143Y-132731429D01*
X98698857Y-132802858D01*
X99056000Y-132802858D01*
X99341714Y-132731429D01*
X99484571Y-132660001D01*
X99556000Y-132588572D01*
X99627429Y-132445715D01*
X99627429Y-131445715D02*
X98127429Y-131088572D01*
X99198857Y-130802858D01*
X98127429Y-130517144D01*
X99627429Y-130160001D01*
X137497429Y-59825715D02*
X137426000Y-59897144D01*
X137354571Y-60040001D01*
X137354571Y-60397144D01*
X137426000Y-60540001D01*
X137497429Y-60611430D01*
X137640286Y-60682858D01*
X137783143Y-60682858D01*
X137997429Y-60611430D01*
X138854571Y-59754287D01*
X138854571Y-60682858D01*
X138854571Y-61254286D02*
X138854571Y-61611429D01*
X138568857Y-61611429D01*
X138497429Y-61468572D01*
X138354571Y-61325715D01*
X138140286Y-61254286D01*
X137783143Y-61254286D01*
X137568857Y-61325715D01*
X137426000Y-61468572D01*
X137354571Y-61682858D01*
X137354571Y-61968572D01*
X137426000Y-62182858D01*
X137568857Y-62325715D01*
X137783143Y-62397143D01*
X138140286Y-62397143D01*
X138354571Y-62325715D01*
X138497429Y-62182858D01*
X138568857Y-62040001D01*
X138854571Y-62040001D01*
X138854571Y-62397143D01*
X137283143Y-65254286D02*
X139211714Y-63968572D01*
X138854571Y-67682858D02*
X138854571Y-66825715D01*
X138854571Y-67254287D02*
X137354571Y-67254287D01*
X137568857Y-67111430D01*
X137711714Y-66968572D01*
X137783143Y-66825715D01*
X137354571Y-68611429D02*
X137354571Y-68754286D01*
X137426000Y-68897143D01*
X137497429Y-68968572D01*
X137640286Y-69040001D01*
X137926000Y-69111429D01*
X138283143Y-69111429D01*
X138568857Y-69040001D01*
X138711714Y-68968572D01*
X138783143Y-68897143D01*
X138854571Y-68754286D01*
X138854571Y-68611429D01*
X138783143Y-68468572D01*
X138711714Y-68397143D01*
X138568857Y-68325715D01*
X138283143Y-68254286D01*
X137926000Y-68254286D01*
X137640286Y-68325715D01*
X137497429Y-68397143D01*
X137426000Y-68468572D01*
X137354571Y-68611429D01*
X137354571Y-70040000D02*
X137354571Y-70182857D01*
X137426000Y-70325714D01*
X137497429Y-70397143D01*
X137640286Y-70468572D01*
X137926000Y-70540000D01*
X138283143Y-70540000D01*
X138568857Y-70468572D01*
X138711714Y-70397143D01*
X138783143Y-70325714D01*
X138854571Y-70182857D01*
X138854571Y-70040000D01*
X138783143Y-69897143D01*
X138711714Y-69825714D01*
X138568857Y-69754286D01*
X138283143Y-69682857D01*
X137926000Y-69682857D01*
X137640286Y-69754286D01*
X137497429Y-69825714D01*
X137426000Y-69897143D01*
X137354571Y-70040000D01*
X137354571Y-71040000D02*
X138854571Y-71397143D01*
X137783143Y-71682857D01*
X138854571Y-71968571D01*
X137354571Y-72325714D01*
X78096285Y-60027429D02*
X78024856Y-59956000D01*
X77881999Y-59884571D01*
X77524856Y-59884571D01*
X77381999Y-59956000D01*
X77310570Y-60027429D01*
X77239142Y-60170286D01*
X77239142Y-60313143D01*
X77310570Y-60527429D01*
X78167713Y-61384571D01*
X77239142Y-61384571D01*
X75881999Y-59884571D02*
X76596285Y-59884571D01*
X76667714Y-60598857D01*
X76596285Y-60527429D01*
X76453428Y-60456000D01*
X76096285Y-60456000D01*
X75953428Y-60527429D01*
X75881999Y-60598857D01*
X75810571Y-60741714D01*
X75810571Y-61098857D01*
X75881999Y-61241714D01*
X75953428Y-61313143D01*
X76096285Y-61384571D01*
X76453428Y-61384571D01*
X76596285Y-61313143D01*
X76667714Y-61241714D01*
X75239143Y-61384571D02*
X74882000Y-61384571D01*
X74882000Y-61098857D01*
X75024857Y-61027429D01*
X75167714Y-60884571D01*
X75239143Y-60670286D01*
X75239143Y-60313143D01*
X75167714Y-60098857D01*
X75024857Y-59956000D01*
X74810571Y-59884571D01*
X74524857Y-59884571D01*
X74310571Y-59956000D01*
X74167714Y-60098857D01*
X74096286Y-60313143D01*
X74096286Y-60670286D01*
X74167714Y-60884571D01*
X74310571Y-61027429D01*
X74453428Y-61098857D01*
X74453428Y-61384571D01*
X74096286Y-61384571D01*
X71239143Y-59813143D02*
X72524857Y-61741714D01*
X69667714Y-60027429D02*
X69596285Y-59956000D01*
X69453428Y-59884571D01*
X69096285Y-59884571D01*
X68953428Y-59956000D01*
X68881999Y-60027429D01*
X68810571Y-60170286D01*
X68810571Y-60313143D01*
X68881999Y-60527429D01*
X69739142Y-61384571D01*
X68810571Y-61384571D01*
X67453428Y-59884571D02*
X68167714Y-59884571D01*
X68239143Y-60598857D01*
X68167714Y-60527429D01*
X68024857Y-60456000D01*
X67667714Y-60456000D01*
X67524857Y-60527429D01*
X67453428Y-60598857D01*
X67382000Y-60741714D01*
X67382000Y-61098857D01*
X67453428Y-61241714D01*
X67524857Y-61313143D01*
X67667714Y-61384571D01*
X68024857Y-61384571D01*
X68167714Y-61313143D01*
X68239143Y-61241714D01*
X66882000Y-59884571D02*
X66524857Y-61384571D01*
X66239143Y-60313143D01*
X65953429Y-61384571D01*
X65596286Y-59884571D01*
X69254000Y-37421429D02*
X69182571Y-37350000D01*
X69039714Y-37278571D01*
X68682571Y-37278571D01*
X68539714Y-37350000D01*
X68468285Y-37421429D01*
X68396857Y-37564286D01*
X68396857Y-37707143D01*
X68468285Y-37921429D01*
X69325428Y-38778571D01*
X68396857Y-38778571D01*
X67825429Y-38778571D02*
X67468286Y-38778571D01*
X67468286Y-38492857D01*
X67611143Y-38421429D01*
X67754000Y-38278571D01*
X67825429Y-38064286D01*
X67825429Y-37707143D01*
X67754000Y-37492857D01*
X67611143Y-37350000D01*
X67396857Y-37278571D01*
X67111143Y-37278571D01*
X66896857Y-37350000D01*
X66754000Y-37492857D01*
X66682572Y-37707143D01*
X66682572Y-38064286D01*
X66754000Y-38278571D01*
X66896857Y-38421429D01*
X67039714Y-38492857D01*
X67039714Y-38778571D01*
X66682572Y-38778571D01*
X63825429Y-37207143D02*
X65111143Y-39135714D01*
X62254000Y-37421429D02*
X62182571Y-37350000D01*
X62039714Y-37278571D01*
X61682571Y-37278571D01*
X61539714Y-37350000D01*
X61468285Y-37421429D01*
X61396857Y-37564286D01*
X61396857Y-37707143D01*
X61468285Y-37921429D01*
X62325428Y-38778571D01*
X61396857Y-38778571D01*
X60039714Y-37278571D02*
X60754000Y-37278571D01*
X60825429Y-37992857D01*
X60754000Y-37921429D01*
X60611143Y-37850000D01*
X60254000Y-37850000D01*
X60111143Y-37921429D01*
X60039714Y-37992857D01*
X59968286Y-38135714D01*
X59968286Y-38492857D01*
X60039714Y-38635714D01*
X60111143Y-38707143D01*
X60254000Y-38778571D01*
X60611143Y-38778571D01*
X60754000Y-38707143D01*
X60825429Y-38635714D01*
X59468286Y-37278571D02*
X59111143Y-38778571D01*
X58825429Y-37707143D01*
X58539715Y-38778571D01*
X58182572Y-37278571D01*
D14*
X145796000Y-171450000D02*
X145796000Y-171196000D01*
X130556000Y-171450000D02*
X130556000Y-171196000D01*
X145796000Y-180340000D02*
X130556000Y-180340000D01*
X130556000Y-180340000D02*
X130556000Y-171450000D01*
X130556000Y-171196000D02*
X145796000Y-171196000D01*
X145796000Y-171450000D02*
X145796000Y-180340000D01*
X62290000Y-171450000D02*
X62290000Y-171196000D01*
X47050000Y-171450000D02*
X47050000Y-171196000D01*
X62290000Y-180340000D02*
X47050000Y-180340000D01*
X47050000Y-180340000D02*
X47050000Y-171450000D01*
X47050000Y-171196000D02*
X62290000Y-171196000D01*
X62290000Y-171450000D02*
X62290000Y-180340000D01*
X49530000Y-100390000D02*
X49784000Y-100390000D01*
X49530000Y-85150000D02*
X49784000Y-85150000D01*
X40640000Y-100390000D02*
X40640000Y-85150000D01*
X40640000Y-85150000D02*
X49530000Y-85150000D01*
X49784000Y-85150000D02*
X49784000Y-100390000D01*
X49530000Y-100390000D02*
X40640000Y-100390000D01*
X143510000Y-110236000D02*
X143256000Y-110236000D01*
X143510000Y-125476000D02*
X143256000Y-125476000D01*
X152400000Y-110236000D02*
X152400000Y-125476000D01*
X152400000Y-125476000D02*
X143510000Y-125476000D01*
X143256000Y-125476000D02*
X143256000Y-110236000D01*
X143510000Y-110236000D02*
X152400000Y-110236000D01*
X83880000Y-31750000D02*
X83880000Y-32004000D01*
X99120000Y-31750000D02*
X99120000Y-32004000D01*
X83880000Y-22860000D02*
X99120000Y-22860000D01*
X99120000Y-22860000D02*
X99120000Y-31750000D01*
X99120000Y-32004000D02*
X83880000Y-32004000D01*
X83880000Y-31750000D02*
X83880000Y-22860000D01*
X94174000Y-171450000D02*
X94174000Y-171196000D01*
X78934000Y-171450000D02*
X78934000Y-171196000D01*
X94174000Y-180340000D02*
X78934000Y-180340000D01*
X78934000Y-180340000D02*
X78934000Y-171450000D01*
X78934000Y-171196000D02*
X94174000Y-171196000D01*
X94174000Y-171450000D02*
X94174000Y-180340000D01*
X125984000Y-171450000D02*
X125984000Y-171196000D01*
X110744000Y-171450000D02*
X110744000Y-171196000D01*
X125984000Y-180340000D02*
X110744000Y-180340000D01*
X110744000Y-180340000D02*
X110744000Y-171450000D01*
X110744000Y-171196000D02*
X125984000Y-171196000D01*
X125984000Y-171450000D02*
X125984000Y-180340000D01*
X56896000Y-133096000D02*
X56896000Y-146304000D01*
X45212000Y-133096000D02*
X56896000Y-133096000D01*
X45212000Y-146304000D02*
X45212000Y-133096000D01*
X56896000Y-146304000D02*
X45212000Y-146304000D01*
X45212000Y-166624000D02*
X45212000Y-153416000D01*
X56896000Y-166624000D02*
X45212000Y-166624000D01*
X56896000Y-153416000D02*
X56896000Y-166624000D01*
X45212000Y-153416000D02*
X56896000Y-153416000D01*
X128270000Y-132842000D02*
X128270000Y-146050000D01*
X116586000Y-132842000D02*
X128270000Y-132842000D01*
X116586000Y-146050000D02*
X116586000Y-132842000D01*
X128270000Y-146050000D02*
X116586000Y-146050000D01*
X116586000Y-166370000D02*
X116586000Y-153162000D01*
X128270000Y-166370000D02*
X116586000Y-166370000D01*
X128270000Y-153162000D02*
X128270000Y-166370000D01*
X116586000Y-153162000D02*
X128270000Y-153162000D01*
X139192000Y-146050000D02*
X139192000Y-132842000D01*
X146304000Y-146050000D02*
X139192000Y-146050000D01*
X146304000Y-132842000D02*
X146304000Y-146050000D01*
X139192000Y-132842000D02*
X146304000Y-132842000D01*
X136652000Y-166370000D02*
X136652000Y-153162000D01*
X148336000Y-166370000D02*
X136652000Y-166370000D01*
X148336000Y-153162000D02*
X148336000Y-166370000D01*
X136652000Y-153162000D02*
X148336000Y-153162000D01*
X139121714Y-172754857D02*
X139121714Y-171554857D01*
X138664571Y-171554857D01*
X138550285Y-171612000D01*
X138493142Y-171669143D01*
X138435999Y-171783429D01*
X138435999Y-171954857D01*
X138493142Y-172069143D01*
X138550285Y-172126286D01*
X138664571Y-172183429D01*
X139121714Y-172183429D01*
X137407428Y-171954857D02*
X137407428Y-172754857D01*
X137693142Y-171497714D02*
X137978857Y-172354857D01*
X137235999Y-172354857D01*
X142601714Y-178666857D02*
X142316000Y-179866857D01*
X142087429Y-179009714D01*
X141858857Y-179866857D01*
X141573143Y-178666857D01*
X140887428Y-178666857D02*
X140658857Y-178666857D01*
X140544571Y-178724000D01*
X140430285Y-178838286D01*
X140373143Y-179066857D01*
X140373143Y-179466857D01*
X140430285Y-179695429D01*
X140544571Y-179809714D01*
X140658857Y-179866857D01*
X140887428Y-179866857D01*
X141001714Y-179809714D01*
X141116000Y-179695429D01*
X141173143Y-179466857D01*
X141173143Y-179066857D01*
X141116000Y-178838286D01*
X141001714Y-178724000D01*
X140887428Y-178666857D01*
X139630285Y-178666857D02*
X139401714Y-178666857D01*
X139287428Y-178724000D01*
X139173142Y-178838286D01*
X139116000Y-179066857D01*
X139116000Y-179466857D01*
X139173142Y-179695429D01*
X139287428Y-179809714D01*
X139401714Y-179866857D01*
X139630285Y-179866857D01*
X139744571Y-179809714D01*
X139858857Y-179695429D01*
X139916000Y-179466857D01*
X139916000Y-179066857D01*
X139858857Y-178838286D01*
X139744571Y-178724000D01*
X139630285Y-178666857D01*
X138201714Y-179238286D02*
X138601714Y-179238286D01*
X138601714Y-179866857D02*
X138601714Y-178666857D01*
X138030285Y-178666857D01*
X137573143Y-179238286D02*
X137173143Y-179238286D01*
X137001714Y-179866857D02*
X137573143Y-179866857D01*
X137573143Y-178666857D01*
X137001714Y-178666857D01*
X135801714Y-179866857D02*
X136201714Y-179295429D01*
X136487429Y-179866857D02*
X136487429Y-178666857D01*
X136030286Y-178666857D01*
X135916000Y-178724000D01*
X135858857Y-178781143D01*
X135801714Y-178895429D01*
X135801714Y-179066857D01*
X135858857Y-179181143D01*
X135916000Y-179238286D01*
X136030286Y-179295429D01*
X136487429Y-179295429D01*
X135573143Y-179981143D02*
X134658857Y-179981143D01*
X133973143Y-179238286D02*
X133801714Y-179295429D01*
X133744571Y-179352571D01*
X133687428Y-179466857D01*
X133687428Y-179638286D01*
X133744571Y-179752571D01*
X133801714Y-179809714D01*
X133916000Y-179866857D01*
X134373143Y-179866857D01*
X134373143Y-178666857D01*
X133973143Y-178666857D01*
X133858857Y-178724000D01*
X133801714Y-178781143D01*
X133744571Y-178895429D01*
X133744571Y-179009714D01*
X133801714Y-179124000D01*
X133858857Y-179181143D01*
X133973143Y-179238286D01*
X134373143Y-179238286D01*
X55555714Y-172754857D02*
X55555714Y-171554857D01*
X55098571Y-171554857D01*
X54984285Y-171612000D01*
X54927142Y-171669143D01*
X54869999Y-171783429D01*
X54869999Y-171954857D01*
X54927142Y-172069143D01*
X54984285Y-172126286D01*
X55098571Y-172183429D01*
X55555714Y-172183429D01*
X54412857Y-171669143D02*
X54355714Y-171612000D01*
X54241428Y-171554857D01*
X53955714Y-171554857D01*
X53841428Y-171612000D01*
X53784285Y-171669143D01*
X53727142Y-171783429D01*
X53727142Y-171897714D01*
X53784285Y-172069143D01*
X54469999Y-172754857D01*
X53727142Y-172754857D01*
X58384285Y-178666857D02*
X57698571Y-178666857D01*
X58041428Y-179866857D02*
X58041428Y-178666857D01*
X57412856Y-178666857D02*
X57127142Y-179866857D01*
X56898571Y-179009714D01*
X56669999Y-179866857D01*
X56384285Y-178666857D01*
X55927142Y-179238286D02*
X55527142Y-179238286D01*
X55355713Y-179866857D02*
X55927142Y-179866857D01*
X55927142Y-178666857D01*
X55355713Y-178666857D01*
X54841428Y-179238286D02*
X54441428Y-179238286D01*
X54269999Y-179866857D02*
X54841428Y-179866857D01*
X54841428Y-178666857D01*
X54269999Y-178666857D01*
X53927142Y-178666857D02*
X53241428Y-178666857D01*
X53584285Y-179866857D02*
X53584285Y-178666857D01*
X52841428Y-179238286D02*
X52441428Y-179238286D01*
X52269999Y-179866857D02*
X52841428Y-179866857D01*
X52841428Y-178666857D01*
X52269999Y-178666857D01*
X51069999Y-179866857D02*
X51469999Y-179295429D01*
X51755714Y-179866857D02*
X51755714Y-178666857D01*
X51298571Y-178666857D01*
X51184285Y-178724000D01*
X51127142Y-178781143D01*
X51069999Y-178895429D01*
X51069999Y-179066857D01*
X51127142Y-179181143D01*
X51184285Y-179238286D01*
X51298571Y-179295429D01*
X51755714Y-179295429D01*
X87499714Y-172754857D02*
X87499714Y-171554857D01*
X87042571Y-171554857D01*
X86928285Y-171612000D01*
X86871142Y-171669143D01*
X86813999Y-171783429D01*
X86813999Y-171954857D01*
X86871142Y-172069143D01*
X86928285Y-172126286D01*
X87042571Y-172183429D01*
X87499714Y-172183429D01*
X85671142Y-172754857D02*
X86356857Y-172754857D01*
X86013999Y-172754857D02*
X86013999Y-171554857D01*
X86128285Y-171726286D01*
X86242571Y-171840571D01*
X86356857Y-171897714D01*
X88868286Y-179866857D02*
X88868286Y-178666857D01*
X88296857Y-179866857D02*
X88296857Y-178666857D01*
X87611142Y-179866857D01*
X87611142Y-178666857D01*
X87039714Y-179866857D02*
X87039714Y-178666857D01*
X86582571Y-178666857D01*
X86468285Y-178724000D01*
X86411142Y-178781143D01*
X86353999Y-178895429D01*
X86353999Y-179066857D01*
X86411142Y-179181143D01*
X86468285Y-179238286D01*
X86582571Y-179295429D01*
X87039714Y-179295429D01*
X85839714Y-178666857D02*
X85839714Y-179638286D01*
X85782571Y-179752571D01*
X85725428Y-179809714D01*
X85611142Y-179866857D01*
X85382571Y-179866857D01*
X85268285Y-179809714D01*
X85211142Y-179752571D01*
X85153999Y-179638286D01*
X85153999Y-178666857D01*
X84753999Y-178666857D02*
X84068285Y-178666857D01*
X84411142Y-179866857D02*
X84411142Y-178666857D01*
X119249714Y-172754857D02*
X119249714Y-171554857D01*
X118792571Y-171554857D01*
X118678285Y-171612000D01*
X118621142Y-171669143D01*
X118563999Y-171783429D01*
X118563999Y-171954857D01*
X118621142Y-172069143D01*
X118678285Y-172126286D01*
X118792571Y-172183429D01*
X119249714Y-172183429D01*
X118163999Y-171554857D02*
X117421142Y-171554857D01*
X117821142Y-172012000D01*
X117649714Y-172012000D01*
X117535428Y-172069143D01*
X117478285Y-172126286D01*
X117421142Y-172240571D01*
X117421142Y-172526286D01*
X117478285Y-172640571D01*
X117535428Y-172697714D01*
X117649714Y-172754857D01*
X117992571Y-172754857D01*
X118106857Y-172697714D01*
X118163999Y-172640571D01*
X122703999Y-178666857D02*
X122418285Y-179866857D01*
X122189714Y-179009714D01*
X121961142Y-179866857D01*
X121675428Y-178666857D01*
X120989713Y-178666857D02*
X120761142Y-178666857D01*
X120646856Y-178724000D01*
X120532570Y-178838286D01*
X120475428Y-179066857D01*
X120475428Y-179466857D01*
X120532570Y-179695429D01*
X120646856Y-179809714D01*
X120761142Y-179866857D01*
X120989713Y-179866857D01*
X121103999Y-179809714D01*
X121218285Y-179695429D01*
X121275428Y-179466857D01*
X121275428Y-179066857D01*
X121218285Y-178838286D01*
X121103999Y-178724000D01*
X120989713Y-178666857D01*
X119732570Y-178666857D02*
X119503999Y-178666857D01*
X119389713Y-178724000D01*
X119275427Y-178838286D01*
X119218285Y-179066857D01*
X119218285Y-179466857D01*
X119275427Y-179695429D01*
X119389713Y-179809714D01*
X119503999Y-179866857D01*
X119732570Y-179866857D01*
X119846856Y-179809714D01*
X119961142Y-179695429D01*
X120018285Y-179466857D01*
X120018285Y-179066857D01*
X119961142Y-178838286D01*
X119846856Y-178724000D01*
X119732570Y-178666857D01*
X118303999Y-179238286D02*
X118703999Y-179238286D01*
X118703999Y-179866857D02*
X118703999Y-178666857D01*
X118132570Y-178666857D01*
X117675428Y-179238286D02*
X117275428Y-179238286D01*
X117103999Y-179866857D02*
X117675428Y-179866857D01*
X117675428Y-178666857D01*
X117103999Y-178666857D01*
X115903999Y-179866857D02*
X116303999Y-179295429D01*
X116589714Y-179866857D02*
X116589714Y-178666857D01*
X116132571Y-178666857D01*
X116018285Y-178724000D01*
X115961142Y-178781143D01*
X115903999Y-178895429D01*
X115903999Y-179066857D01*
X115961142Y-179181143D01*
X116018285Y-179238286D01*
X116132571Y-179295429D01*
X116589714Y-179295429D01*
X115675428Y-179981143D02*
X114761142Y-179981143D01*
X114532571Y-179524000D02*
X113961142Y-179524000D01*
X114646856Y-179866857D02*
X114246856Y-178666857D01*
X113846856Y-179866857D01*
X52387333Y-142263762D02*
X52244476Y-142311381D01*
X52006380Y-142311381D01*
X51911142Y-142263762D01*
X51863523Y-142216143D01*
X51815904Y-142120905D01*
X51815904Y-142025667D01*
X51863523Y-141930429D01*
X51911142Y-141882810D01*
X52006380Y-141835190D01*
X52196857Y-141787571D01*
X52292095Y-141739952D01*
X52339714Y-141692333D01*
X52387333Y-141597095D01*
X52387333Y-141501857D01*
X52339714Y-141406619D01*
X52292095Y-141359000D01*
X52196857Y-141311381D01*
X51958761Y-141311381D01*
X51815904Y-141359000D01*
X51482571Y-141311381D02*
X51244476Y-142311381D01*
X51053999Y-141597095D01*
X50863523Y-142311381D01*
X50625428Y-141311381D01*
X49720666Y-142311381D02*
X50292095Y-142311381D01*
X50006381Y-142311381D02*
X50006381Y-141311381D01*
X50101619Y-141454238D01*
X50196857Y-141549476D01*
X50292095Y-141597095D01*
X46648667Y-135676190D02*
X46648667Y-136152381D01*
X46934381Y-135580952D02*
X45934381Y-135914285D01*
X46934381Y-136247619D01*
X46267714Y-136438095D02*
X46267714Y-136819047D01*
X45934381Y-136580952D02*
X46791524Y-136580952D01*
X46886762Y-136628571D01*
X46934381Y-136723809D01*
X46934381Y-136819047D01*
X46267714Y-137009524D02*
X46267714Y-137390476D01*
X45934381Y-137152381D02*
X46791524Y-137152381D01*
X46886762Y-137200000D01*
X46934381Y-137295238D01*
X46934381Y-137390476D01*
X46886762Y-138104763D02*
X46934381Y-138009525D01*
X46934381Y-137819048D01*
X46886762Y-137723810D01*
X46791524Y-137676191D01*
X46410571Y-137676191D01*
X46315333Y-137723810D01*
X46267714Y-137819048D01*
X46267714Y-138009525D01*
X46315333Y-138104763D01*
X46410571Y-138152382D01*
X46505810Y-138152382D01*
X46601048Y-137676191D01*
X46267714Y-138580953D02*
X46934381Y-138580953D01*
X46362952Y-138580953D02*
X46315333Y-138628572D01*
X46267714Y-138723810D01*
X46267714Y-138866668D01*
X46315333Y-138961906D01*
X46410571Y-139009525D01*
X46934381Y-139009525D01*
X46267714Y-139914287D02*
X46934381Y-139914287D01*
X46267714Y-139485715D02*
X46791524Y-139485715D01*
X46886762Y-139533334D01*
X46934381Y-139628572D01*
X46934381Y-139771430D01*
X46886762Y-139866668D01*
X46839143Y-139914287D01*
X46934381Y-140819049D02*
X46410571Y-140819049D01*
X46315333Y-140771430D01*
X46267714Y-140676192D01*
X46267714Y-140485715D01*
X46315333Y-140390477D01*
X46886762Y-140819049D02*
X46934381Y-140723811D01*
X46934381Y-140485715D01*
X46886762Y-140390477D01*
X46791524Y-140342858D01*
X46696286Y-140342858D01*
X46601048Y-140390477D01*
X46553429Y-140485715D01*
X46553429Y-140723811D01*
X46505810Y-140819049D01*
X46267714Y-141152382D02*
X46267714Y-141533334D01*
X45934381Y-141295239D02*
X46791524Y-141295239D01*
X46886762Y-141342858D01*
X46934381Y-141438096D01*
X46934381Y-141533334D01*
X46934381Y-141866668D02*
X46267714Y-141866668D01*
X45934381Y-141866668D02*
X45982000Y-141819049D01*
X46029619Y-141866668D01*
X45982000Y-141914287D01*
X45934381Y-141866668D01*
X46029619Y-141866668D01*
X46934381Y-142485715D02*
X46886762Y-142390477D01*
X46839143Y-142342858D01*
X46743905Y-142295239D01*
X46458190Y-142295239D01*
X46362952Y-142342858D01*
X46315333Y-142390477D01*
X46267714Y-142485715D01*
X46267714Y-142628573D01*
X46315333Y-142723811D01*
X46362952Y-142771430D01*
X46458190Y-142819049D01*
X46743905Y-142819049D01*
X46839143Y-142771430D01*
X46886762Y-142723811D01*
X46934381Y-142628573D01*
X46934381Y-142485715D01*
X46267714Y-143247620D02*
X46934381Y-143247620D01*
X46362952Y-143247620D02*
X46315333Y-143295239D01*
X46267714Y-143390477D01*
X46267714Y-143533335D01*
X46315333Y-143628573D01*
X46410571Y-143676192D01*
X46934381Y-143676192D01*
X52387333Y-162837762D02*
X52244476Y-162885381D01*
X52006380Y-162885381D01*
X51911142Y-162837762D01*
X51863523Y-162790143D01*
X51815904Y-162694905D01*
X51815904Y-162599667D01*
X51863523Y-162504429D01*
X51911142Y-162456810D01*
X52006380Y-162409190D01*
X52196857Y-162361571D01*
X52292095Y-162313952D01*
X52339714Y-162266333D01*
X52387333Y-162171095D01*
X52387333Y-162075857D01*
X52339714Y-161980619D01*
X52292095Y-161933000D01*
X52196857Y-161885381D01*
X51958761Y-161885381D01*
X51815904Y-161933000D01*
X51482571Y-161885381D02*
X51244476Y-162885381D01*
X51053999Y-162171095D01*
X50863523Y-162885381D01*
X50625428Y-161885381D01*
X50292095Y-161980619D02*
X50244476Y-161933000D01*
X50149238Y-161885381D01*
X49911142Y-161885381D01*
X49815904Y-161933000D01*
X49768285Y-161980619D01*
X49720666Y-162075857D01*
X49720666Y-162171095D01*
X49768285Y-162313952D01*
X50339714Y-162885381D01*
X49720666Y-162885381D01*
X46934381Y-158020000D02*
X45934381Y-158020000D01*
X45934381Y-158400953D01*
X45982000Y-158496191D01*
X46029619Y-158543810D01*
X46124857Y-158591429D01*
X46267714Y-158591429D01*
X46362952Y-158543810D01*
X46410571Y-158496191D01*
X46458190Y-158400953D01*
X46458190Y-158020000D01*
X46934381Y-159020000D02*
X45934381Y-159020000D01*
X46934381Y-159448572D02*
X46410571Y-159448572D01*
X46315333Y-159400953D01*
X46267714Y-159305715D01*
X46267714Y-159162857D01*
X46315333Y-159067619D01*
X46362952Y-159020000D01*
X46934381Y-160353334D02*
X46410571Y-160353334D01*
X46315333Y-160305715D01*
X46267714Y-160210477D01*
X46267714Y-160020000D01*
X46315333Y-159924762D01*
X46886762Y-160353334D02*
X46934381Y-160258096D01*
X46934381Y-160020000D01*
X46886762Y-159924762D01*
X46791524Y-159877143D01*
X46696286Y-159877143D01*
X46601048Y-159924762D01*
X46553429Y-160020000D01*
X46553429Y-160258096D01*
X46505810Y-160353334D01*
X46886762Y-160781905D02*
X46934381Y-160877143D01*
X46934381Y-161067619D01*
X46886762Y-161162858D01*
X46791524Y-161210477D01*
X46743905Y-161210477D01*
X46648667Y-161162858D01*
X46601048Y-161067619D01*
X46601048Y-160924762D01*
X46553429Y-160829524D01*
X46458190Y-160781905D01*
X46410571Y-160781905D01*
X46315333Y-160829524D01*
X46267714Y-160924762D01*
X46267714Y-161067619D01*
X46315333Y-161162858D01*
X46886762Y-162020001D02*
X46934381Y-161924763D01*
X46934381Y-161734286D01*
X46886762Y-161639048D01*
X46791524Y-161591429D01*
X46410571Y-161591429D01*
X46315333Y-161639048D01*
X46267714Y-161734286D01*
X46267714Y-161924763D01*
X46315333Y-162020001D01*
X46410571Y-162067620D01*
X46505810Y-162067620D01*
X46601048Y-161591429D01*
X123761333Y-142263762D02*
X123618476Y-142311381D01*
X123380380Y-142311381D01*
X123285142Y-142263762D01*
X123237523Y-142216143D01*
X123189904Y-142120905D01*
X123189904Y-142025667D01*
X123237523Y-141930429D01*
X123285142Y-141882810D01*
X123380380Y-141835190D01*
X123570857Y-141787571D01*
X123666095Y-141739952D01*
X123713714Y-141692333D01*
X123761333Y-141597095D01*
X123761333Y-141501857D01*
X123713714Y-141406619D01*
X123666095Y-141359000D01*
X123570857Y-141311381D01*
X123332761Y-141311381D01*
X123189904Y-141359000D01*
X122856571Y-141311381D02*
X122618476Y-142311381D01*
X122427999Y-141597095D01*
X122237523Y-142311381D01*
X121999428Y-141311381D01*
X121713714Y-141311381D02*
X121094666Y-141311381D01*
X121428000Y-141692333D01*
X121285142Y-141692333D01*
X121189904Y-141739952D01*
X121142285Y-141787571D01*
X121094666Y-141882810D01*
X121094666Y-142120905D01*
X121142285Y-142216143D01*
X121189904Y-142263762D01*
X121285142Y-142311381D01*
X121570857Y-142311381D01*
X121666095Y-142263762D01*
X121713714Y-142216143D01*
X118022667Y-135422190D02*
X118022667Y-135898381D01*
X118308381Y-135326952D02*
X117308381Y-135660285D01*
X118308381Y-135993619D01*
X117641714Y-136184095D02*
X117641714Y-136565047D01*
X117308381Y-136326952D02*
X118165524Y-136326952D01*
X118260762Y-136374571D01*
X118308381Y-136469809D01*
X118308381Y-136565047D01*
X117641714Y-136755524D02*
X117641714Y-137136476D01*
X117308381Y-136898381D02*
X118165524Y-136898381D01*
X118260762Y-136946000D01*
X118308381Y-137041238D01*
X118308381Y-137136476D01*
X118260762Y-137850763D02*
X118308381Y-137755525D01*
X118308381Y-137565048D01*
X118260762Y-137469810D01*
X118165524Y-137422191D01*
X117784571Y-137422191D01*
X117689333Y-137469810D01*
X117641714Y-137565048D01*
X117641714Y-137755525D01*
X117689333Y-137850763D01*
X117784571Y-137898382D01*
X117879810Y-137898382D01*
X117975048Y-137422191D01*
X117641714Y-138326953D02*
X118308381Y-138326953D01*
X117736952Y-138326953D02*
X117689333Y-138374572D01*
X117641714Y-138469810D01*
X117641714Y-138612668D01*
X117689333Y-138707906D01*
X117784571Y-138755525D01*
X118308381Y-138755525D01*
X117641714Y-139660287D02*
X118308381Y-139660287D01*
X117641714Y-139231715D02*
X118165524Y-139231715D01*
X118260762Y-139279334D01*
X118308381Y-139374572D01*
X118308381Y-139517430D01*
X118260762Y-139612668D01*
X118213143Y-139660287D01*
X118308381Y-140565049D02*
X117784571Y-140565049D01*
X117689333Y-140517430D01*
X117641714Y-140422192D01*
X117641714Y-140231715D01*
X117689333Y-140136477D01*
X118260762Y-140565049D02*
X118308381Y-140469811D01*
X118308381Y-140231715D01*
X118260762Y-140136477D01*
X118165524Y-140088858D01*
X118070286Y-140088858D01*
X117975048Y-140136477D01*
X117927429Y-140231715D01*
X117927429Y-140469811D01*
X117879810Y-140565049D01*
X117641714Y-140898382D02*
X117641714Y-141279334D01*
X117308381Y-141041239D02*
X118165524Y-141041239D01*
X118260762Y-141088858D01*
X118308381Y-141184096D01*
X118308381Y-141279334D01*
X118308381Y-141612668D02*
X117641714Y-141612668D01*
X117308381Y-141612668D02*
X117356000Y-141565049D01*
X117403619Y-141612668D01*
X117356000Y-141660287D01*
X117308381Y-141612668D01*
X117403619Y-141612668D01*
X118308381Y-142231715D02*
X118260762Y-142136477D01*
X118213143Y-142088858D01*
X118117905Y-142041239D01*
X117832190Y-142041239D01*
X117736952Y-142088858D01*
X117689333Y-142136477D01*
X117641714Y-142231715D01*
X117641714Y-142374573D01*
X117689333Y-142469811D01*
X117736952Y-142517430D01*
X117832190Y-142565049D01*
X118117905Y-142565049D01*
X118213143Y-142517430D01*
X118260762Y-142469811D01*
X118308381Y-142374573D01*
X118308381Y-142231715D01*
X117641714Y-142993620D02*
X118308381Y-142993620D01*
X117736952Y-142993620D02*
X117689333Y-143041239D01*
X117641714Y-143136477D01*
X117641714Y-143279335D01*
X117689333Y-143374573D01*
X117784571Y-143422192D01*
X118308381Y-143422192D01*
X123761333Y-162456762D02*
X123618476Y-162504381D01*
X123380380Y-162504381D01*
X123285142Y-162456762D01*
X123237523Y-162409143D01*
X123189904Y-162313905D01*
X123189904Y-162218667D01*
X123237523Y-162123429D01*
X123285142Y-162075810D01*
X123380380Y-162028190D01*
X123570857Y-161980571D01*
X123666095Y-161932952D01*
X123713714Y-161885333D01*
X123761333Y-161790095D01*
X123761333Y-161694857D01*
X123713714Y-161599619D01*
X123666095Y-161552000D01*
X123570857Y-161504381D01*
X123332761Y-161504381D01*
X123189904Y-161552000D01*
X122856571Y-161504381D02*
X122618476Y-162504381D01*
X122427999Y-161790095D01*
X122237523Y-162504381D01*
X121999428Y-161504381D01*
X121189904Y-161837714D02*
X121189904Y-162504381D01*
X121428000Y-161456762D02*
X121666095Y-162171048D01*
X121047047Y-162171048D01*
X118308381Y-157766000D02*
X117308381Y-157766000D01*
X117308381Y-158146953D01*
X117356000Y-158242191D01*
X117403619Y-158289810D01*
X117498857Y-158337429D01*
X117641714Y-158337429D01*
X117736952Y-158289810D01*
X117784571Y-158242191D01*
X117832190Y-158146953D01*
X117832190Y-157766000D01*
X118308381Y-158766000D02*
X117308381Y-158766000D01*
X118308381Y-159194572D02*
X117784571Y-159194572D01*
X117689333Y-159146953D01*
X117641714Y-159051715D01*
X117641714Y-158908857D01*
X117689333Y-158813619D01*
X117736952Y-158766000D01*
X118308381Y-160099334D02*
X117784571Y-160099334D01*
X117689333Y-160051715D01*
X117641714Y-159956477D01*
X117641714Y-159766000D01*
X117689333Y-159670762D01*
X118260762Y-160099334D02*
X118308381Y-160004096D01*
X118308381Y-159766000D01*
X118260762Y-159670762D01*
X118165524Y-159623143D01*
X118070286Y-159623143D01*
X117975048Y-159670762D01*
X117927429Y-159766000D01*
X117927429Y-160004096D01*
X117879810Y-160099334D01*
X118260762Y-160527905D02*
X118308381Y-160623143D01*
X118308381Y-160813619D01*
X118260762Y-160908858D01*
X118165524Y-160956477D01*
X118117905Y-160956477D01*
X118022667Y-160908858D01*
X117975048Y-160813619D01*
X117975048Y-160670762D01*
X117927429Y-160575524D01*
X117832190Y-160527905D01*
X117784571Y-160527905D01*
X117689333Y-160575524D01*
X117641714Y-160670762D01*
X117641714Y-160813619D01*
X117689333Y-160908858D01*
X118260762Y-161766001D02*
X118308381Y-161670763D01*
X118308381Y-161480286D01*
X118260762Y-161385048D01*
X118165524Y-161337429D01*
X117784571Y-161337429D01*
X117689333Y-161385048D01*
X117641714Y-161480286D01*
X117641714Y-161670763D01*
X117689333Y-161766001D01*
X117784571Y-161813620D01*
X117879810Y-161813620D01*
X117975048Y-161337429D01*
X144081333Y-142136762D02*
X143938476Y-142184381D01*
X143700380Y-142184381D01*
X143605142Y-142136762D01*
X143557523Y-142089143D01*
X143509904Y-141993905D01*
X143509904Y-141898667D01*
X143557523Y-141803429D01*
X143605142Y-141755810D01*
X143700380Y-141708190D01*
X143890857Y-141660571D01*
X143986095Y-141612952D01*
X144033714Y-141565333D01*
X144081333Y-141470095D01*
X144081333Y-141374857D01*
X144033714Y-141279619D01*
X143986095Y-141232000D01*
X143890857Y-141184381D01*
X143652761Y-141184381D01*
X143509904Y-141232000D01*
X143176571Y-141184381D02*
X142938476Y-142184381D01*
X142747999Y-141470095D01*
X142557523Y-142184381D01*
X142319428Y-141184381D01*
X141462285Y-141184381D02*
X141938476Y-141184381D01*
X141986095Y-141660571D01*
X141938476Y-141612952D01*
X141843238Y-141565333D01*
X141605142Y-141565333D01*
X141509904Y-141612952D01*
X141462285Y-141660571D01*
X141414666Y-141755810D01*
X141414666Y-141993905D01*
X141462285Y-142089143D01*
X141509904Y-142136762D01*
X141605142Y-142184381D01*
X141843238Y-142184381D01*
X141938476Y-142136762D01*
X141986095Y-142089143D01*
X140136571Y-137422191D02*
X140184190Y-137565048D01*
X140231810Y-137612667D01*
X140327048Y-137660286D01*
X140469905Y-137660286D01*
X140565143Y-137612667D01*
X140612762Y-137565048D01*
X140660381Y-137469810D01*
X140660381Y-137088857D01*
X139660381Y-137088857D01*
X139660381Y-137422191D01*
X139708000Y-137517429D01*
X139755619Y-137565048D01*
X139850857Y-137612667D01*
X139946095Y-137612667D01*
X140041333Y-137565048D01*
X140088952Y-137517429D01*
X140136571Y-137422191D01*
X140136571Y-137088857D01*
X139993714Y-137993619D02*
X140660381Y-138231714D01*
X139993714Y-138469810D02*
X140660381Y-138231714D01*
X140898476Y-138136476D01*
X140946095Y-138088857D01*
X140993714Y-137993619D01*
X139993714Y-138850762D02*
X140993714Y-138850762D01*
X140041333Y-138850762D02*
X139993714Y-138946000D01*
X139993714Y-139136477D01*
X140041333Y-139231715D01*
X140088952Y-139279334D01*
X140184190Y-139326953D01*
X140469905Y-139326953D01*
X140565143Y-139279334D01*
X140612762Y-139231715D01*
X140660381Y-139136477D01*
X140660381Y-138946000D01*
X140612762Y-138850762D01*
X140660381Y-140184096D02*
X140136571Y-140184096D01*
X140041333Y-140136477D01*
X139993714Y-140041239D01*
X139993714Y-139850762D01*
X140041333Y-139755524D01*
X140612762Y-140184096D02*
X140660381Y-140088858D01*
X140660381Y-139850762D01*
X140612762Y-139755524D01*
X140517524Y-139707905D01*
X140422286Y-139707905D01*
X140327048Y-139755524D01*
X140279429Y-139850762D01*
X140279429Y-140088858D01*
X140231810Y-140184096D01*
X140612762Y-140612667D02*
X140660381Y-140707905D01*
X140660381Y-140898381D01*
X140612762Y-140993620D01*
X140517524Y-141041239D01*
X140469905Y-141041239D01*
X140374667Y-140993620D01*
X140327048Y-140898381D01*
X140327048Y-140755524D01*
X140279429Y-140660286D01*
X140184190Y-140612667D01*
X140136571Y-140612667D01*
X140041333Y-140660286D01*
X139993714Y-140755524D01*
X139993714Y-140898381D01*
X140041333Y-140993620D01*
X140612762Y-141422191D02*
X140660381Y-141517429D01*
X140660381Y-141707905D01*
X140612762Y-141803144D01*
X140517524Y-141850763D01*
X140469905Y-141850763D01*
X140374667Y-141803144D01*
X140327048Y-141707905D01*
X140327048Y-141565048D01*
X140279429Y-141469810D01*
X140184190Y-141422191D01*
X140136571Y-141422191D01*
X140041333Y-141469810D01*
X139993714Y-141565048D01*
X139993714Y-141707905D01*
X140041333Y-141803144D01*
X143827333Y-162456762D02*
X143684476Y-162504381D01*
X143446380Y-162504381D01*
X143351142Y-162456762D01*
X143303523Y-162409143D01*
X143255904Y-162313905D01*
X143255904Y-162218667D01*
X143303523Y-162123429D01*
X143351142Y-162075810D01*
X143446380Y-162028190D01*
X143636857Y-161980571D01*
X143732095Y-161932952D01*
X143779714Y-161885333D01*
X143827333Y-161790095D01*
X143827333Y-161694857D01*
X143779714Y-161599619D01*
X143732095Y-161552000D01*
X143636857Y-161504381D01*
X143398761Y-161504381D01*
X143255904Y-161552000D01*
X142922571Y-161504381D02*
X142684476Y-162504381D01*
X142493999Y-161790095D01*
X142303523Y-162504381D01*
X142065428Y-161504381D01*
X141255904Y-161504381D02*
X141446381Y-161504381D01*
X141541619Y-161552000D01*
X141589238Y-161599619D01*
X141684476Y-161742476D01*
X141732095Y-161932952D01*
X141732095Y-162313905D01*
X141684476Y-162409143D01*
X141636857Y-162456762D01*
X141541619Y-162504381D01*
X141351142Y-162504381D01*
X141255904Y-162456762D01*
X141208285Y-162409143D01*
X141160666Y-162313905D01*
X141160666Y-162075810D01*
X141208285Y-161980571D01*
X141255904Y-161932952D01*
X141351142Y-161885333D01*
X141541619Y-161885333D01*
X141636857Y-161932952D01*
X141684476Y-161980571D01*
X141732095Y-162075810D01*
X138374381Y-157766000D02*
X137374381Y-157766000D01*
X137374381Y-158146953D01*
X137422000Y-158242191D01*
X137469619Y-158289810D01*
X137564857Y-158337429D01*
X137707714Y-158337429D01*
X137802952Y-158289810D01*
X137850571Y-158242191D01*
X137898190Y-158146953D01*
X137898190Y-157766000D01*
X138374381Y-158766000D02*
X137374381Y-158766000D01*
X138374381Y-159194572D02*
X137850571Y-159194572D01*
X137755333Y-159146953D01*
X137707714Y-159051715D01*
X137707714Y-158908857D01*
X137755333Y-158813619D01*
X137802952Y-158766000D01*
X138374381Y-160099334D02*
X137850571Y-160099334D01*
X137755333Y-160051715D01*
X137707714Y-159956477D01*
X137707714Y-159766000D01*
X137755333Y-159670762D01*
X138326762Y-160099334D02*
X138374381Y-160004096D01*
X138374381Y-159766000D01*
X138326762Y-159670762D01*
X138231524Y-159623143D01*
X138136286Y-159623143D01*
X138041048Y-159670762D01*
X137993429Y-159766000D01*
X137993429Y-160004096D01*
X137945810Y-160099334D01*
X138326762Y-160527905D02*
X138374381Y-160623143D01*
X138374381Y-160813619D01*
X138326762Y-160908858D01*
X138231524Y-160956477D01*
X138183905Y-160956477D01*
X138088667Y-160908858D01*
X138041048Y-160813619D01*
X138041048Y-160670762D01*
X137993429Y-160575524D01*
X137898190Y-160527905D01*
X137850571Y-160527905D01*
X137755333Y-160575524D01*
X137707714Y-160670762D01*
X137707714Y-160813619D01*
X137755333Y-160908858D01*
X138326762Y-161766001D02*
X138374381Y-161670763D01*
X138374381Y-161480286D01*
X138326762Y-161385048D01*
X138231524Y-161337429D01*
X137850571Y-161337429D01*
X137755333Y-161385048D01*
X137707714Y-161480286D01*
X137707714Y-161670763D01*
X137755333Y-161766001D01*
X137850571Y-161813620D01*
X137945810Y-161813620D01*
X138041048Y-161337429D01*
X42989405Y-29487762D02*
X42846548Y-29535381D01*
X42608452Y-29535381D01*
X42513214Y-29487762D01*
X42465595Y-29440143D01*
X42417976Y-29344905D01*
X42417976Y-29249667D01*
X42465595Y-29154429D01*
X42513214Y-29106810D01*
X42608452Y-29059190D01*
X42798929Y-29011571D01*
X42894167Y-28963952D01*
X42941786Y-28916333D01*
X42989405Y-28821095D01*
X42989405Y-28725857D01*
X42941786Y-28630619D01*
X42894167Y-28583000D01*
X42798929Y-28535381D01*
X42560833Y-28535381D01*
X42417976Y-28583000D01*
X41465595Y-29535381D02*
X42037024Y-29535381D01*
X41751310Y-29535381D02*
X41751310Y-28535381D01*
X41846548Y-28678238D01*
X41941786Y-28773476D01*
X42037024Y-28821095D01*
X48156714Y-24169714D02*
X47442428Y-24169714D01*
X47871000Y-23741143D02*
X48156714Y-25026857D01*
X47537666Y-24598286D02*
X48251952Y-24598286D01*
X47823380Y-25026857D02*
X47537666Y-23741143D01*
X46680523Y-23836381D02*
X46871000Y-23836381D01*
X46966238Y-23884000D01*
X47013857Y-23931619D01*
X47109095Y-24074476D01*
X47156714Y-24264952D01*
X47156714Y-24645905D01*
X47109095Y-24741143D01*
X47061476Y-24788762D01*
X46966238Y-24836381D01*
X46775761Y-24836381D01*
X46680523Y-24788762D01*
X46632904Y-24741143D01*
X46585285Y-24645905D01*
X46585285Y-24407810D01*
X46632904Y-24312571D01*
X46680523Y-24264952D01*
X46775761Y-24217333D01*
X46966238Y-24217333D01*
X47061476Y-24264952D01*
X47109095Y-24312571D01*
X47156714Y-24407810D01*
X151637905Y-29360762D02*
X151495048Y-29408381D01*
X151256952Y-29408381D01*
X151161714Y-29360762D01*
X151114095Y-29313143D01*
X151066476Y-29217905D01*
X151066476Y-29122667D01*
X151114095Y-29027429D01*
X151161714Y-28979810D01*
X151256952Y-28932190D01*
X151447429Y-28884571D01*
X151542667Y-28836952D01*
X151590286Y-28789333D01*
X151637905Y-28694095D01*
X151637905Y-28598857D01*
X151590286Y-28503619D01*
X151542667Y-28456000D01*
X151447429Y-28408381D01*
X151209333Y-28408381D01*
X151066476Y-28456000D01*
X150685524Y-28503619D02*
X150637905Y-28456000D01*
X150542667Y-28408381D01*
X150304571Y-28408381D01*
X150209333Y-28456000D01*
X150161714Y-28503619D01*
X150114095Y-28598857D01*
X150114095Y-28694095D01*
X150161714Y-28836952D01*
X150733143Y-29408381D01*
X150114095Y-29408381D01*
X146772214Y-24169714D02*
X146057928Y-24169714D01*
X146486500Y-23741143D02*
X146772214Y-25026857D01*
X146153166Y-24598286D02*
X146867452Y-24598286D01*
X146438880Y-25026857D02*
X146153166Y-23741143D01*
X145296023Y-23836381D02*
X145486500Y-23836381D01*
X145581738Y-23884000D01*
X145629357Y-23931619D01*
X145724595Y-24074476D01*
X145772214Y-24264952D01*
X145772214Y-24645905D01*
X145724595Y-24741143D01*
X145676976Y-24788762D01*
X145581738Y-24836381D01*
X145391261Y-24836381D01*
X145296023Y-24788762D01*
X145248404Y-24741143D01*
X145200785Y-24645905D01*
X145200785Y-24407810D01*
X145248404Y-24312571D01*
X145296023Y-24264952D01*
X145391261Y-24217333D01*
X145581738Y-24217333D01*
X145676976Y-24264952D01*
X145724595Y-24312571D01*
X145772214Y-24407810D01*
X42925905Y-174902762D02*
X42783048Y-174950381D01*
X42544952Y-174950381D01*
X42449714Y-174902762D01*
X42402095Y-174855143D01*
X42354476Y-174759905D01*
X42354476Y-174664667D01*
X42402095Y-174569429D01*
X42449714Y-174521810D01*
X42544952Y-174474190D01*
X42735429Y-174426571D01*
X42830667Y-174378952D01*
X42878286Y-174331333D01*
X42925905Y-174236095D01*
X42925905Y-174140857D01*
X42878286Y-174045619D01*
X42830667Y-173998000D01*
X42735429Y-173950381D01*
X42497333Y-173950381D01*
X42354476Y-173998000D01*
X41497333Y-173950381D02*
X41687810Y-173950381D01*
X41783048Y-173998000D01*
X41830667Y-174045619D01*
X41925905Y-174188476D01*
X41973524Y-174378952D01*
X41973524Y-174759905D01*
X41925905Y-174855143D01*
X41878286Y-174902762D01*
X41783048Y-174950381D01*
X41592571Y-174950381D01*
X41497333Y-174902762D01*
X41449714Y-174855143D01*
X41402095Y-174759905D01*
X41402095Y-174521810D01*
X41449714Y-174426571D01*
X41497333Y-174378952D01*
X41592571Y-174331333D01*
X41783048Y-174331333D01*
X41878286Y-174378952D01*
X41925905Y-174426571D01*
X41973524Y-174521810D01*
X40409714Y-174537714D02*
X39695428Y-174537714D01*
X40124000Y-174109143D02*
X40409714Y-175394857D01*
X39790666Y-174966286D02*
X40504952Y-174966286D01*
X40076380Y-175394857D02*
X39790666Y-174109143D01*
X38933523Y-174204381D02*
X39124000Y-174204381D01*
X39219238Y-174252000D01*
X39266857Y-174299619D01*
X39362095Y-174442476D01*
X39409714Y-174632952D01*
X39409714Y-175013905D01*
X39362095Y-175109143D01*
X39314476Y-175156762D01*
X39219238Y-175204381D01*
X39028761Y-175204381D01*
X38933523Y-175156762D01*
X38885904Y-175109143D01*
X38838285Y-175013905D01*
X38838285Y-174775810D01*
X38885904Y-174680571D01*
X38933523Y-174632952D01*
X39028761Y-174585333D01*
X39219238Y-174585333D01*
X39314476Y-174632952D01*
X39362095Y-174680571D01*
X39409714Y-174775810D01*
X151637905Y-174775762D02*
X151495048Y-174823381D01*
X151256952Y-174823381D01*
X151161714Y-174775762D01*
X151114095Y-174728143D01*
X151066476Y-174632905D01*
X151066476Y-174537667D01*
X151114095Y-174442429D01*
X151161714Y-174394810D01*
X151256952Y-174347190D01*
X151447429Y-174299571D01*
X151542667Y-174251952D01*
X151590286Y-174204333D01*
X151637905Y-174109095D01*
X151637905Y-174013857D01*
X151590286Y-173918619D01*
X151542667Y-173871000D01*
X151447429Y-173823381D01*
X151209333Y-173823381D01*
X151066476Y-173871000D01*
X150733143Y-173823381D02*
X150066476Y-173823381D01*
X150495048Y-174823381D01*
X154328714Y-174601214D02*
X153614428Y-174601214D01*
X154043000Y-174172643D02*
X154328714Y-175458357D01*
X153709666Y-175029786D02*
X154423952Y-175029786D01*
X153995380Y-175458357D02*
X153709666Y-174172643D01*
X152852523Y-174267881D02*
X153043000Y-174267881D01*
X153138238Y-174315500D01*
X153185857Y-174363119D01*
X153281095Y-174505976D01*
X153328714Y-174696452D01*
X153328714Y-175077405D01*
X153281095Y-175172643D01*
X153233476Y-175220262D01*
X153138238Y-175267881D01*
X152947761Y-175267881D01*
X152852523Y-175220262D01*
X152804904Y-175172643D01*
X152757285Y-175077405D01*
X152757285Y-174839310D01*
X152804904Y-174744071D01*
X152852523Y-174696452D01*
X152947761Y-174648833D01*
X153138238Y-174648833D01*
X153233476Y-174696452D01*
X153281095Y-174744071D01*
X153328714Y-174839310D01*
X85851905Y-104544762D02*
X85709048Y-104592381D01*
X85470952Y-104592381D01*
X85375714Y-104544762D01*
X85328095Y-104497143D01*
X85280476Y-104401905D01*
X85280476Y-104306667D01*
X85328095Y-104211429D01*
X85375714Y-104163810D01*
X85470952Y-104116190D01*
X85661429Y-104068571D01*
X85756667Y-104020952D01*
X85804286Y-103973333D01*
X85851905Y-103878095D01*
X85851905Y-103782857D01*
X85804286Y-103687619D01*
X85756667Y-103640000D01*
X85661429Y-103592381D01*
X85423333Y-103592381D01*
X85280476Y-103640000D01*
X84423333Y-103925714D02*
X84423333Y-104592381D01*
X84661429Y-103544762D02*
X84899524Y-104259048D01*
X84280476Y-104259048D01*
X92289214Y-103925714D02*
X91574928Y-103925714D01*
X92003500Y-103497143D02*
X92289214Y-104782857D01*
X91670166Y-104354286D02*
X92384452Y-104354286D01*
X91955880Y-104782857D02*
X91670166Y-103497143D01*
X90813023Y-103592381D02*
X91003500Y-103592381D01*
X91098738Y-103640000D01*
X91146357Y-103687619D01*
X91241595Y-103830476D01*
X91289214Y-104020952D01*
X91289214Y-104401905D01*
X91241595Y-104497143D01*
X91193976Y-104544762D01*
X91098738Y-104592381D01*
X90908261Y-104592381D01*
X90813023Y-104544762D01*
X90765404Y-104497143D01*
X90717785Y-104401905D01*
X90717785Y-104163810D01*
X90765404Y-104068571D01*
X90813023Y-104020952D01*
X90908261Y-103973333D01*
X91098738Y-103973333D01*
X91193976Y-104020952D01*
X91241595Y-104068571D01*
X91289214Y-104163810D01*
X151637905Y-107275262D02*
X151495048Y-107322881D01*
X151256952Y-107322881D01*
X151161714Y-107275262D01*
X151114095Y-107227643D01*
X151066476Y-107132405D01*
X151066476Y-107037167D01*
X151114095Y-106941929D01*
X151161714Y-106894310D01*
X151256952Y-106846690D01*
X151447429Y-106799071D01*
X151542667Y-106751452D01*
X151590286Y-106703833D01*
X151637905Y-106608595D01*
X151637905Y-106513357D01*
X151590286Y-106418119D01*
X151542667Y-106370500D01*
X151447429Y-106322881D01*
X151209333Y-106322881D01*
X151066476Y-106370500D01*
X150161714Y-106322881D02*
X150637905Y-106322881D01*
X150685524Y-106799071D01*
X150637905Y-106751452D01*
X150542667Y-106703833D01*
X150304571Y-106703833D01*
X150209333Y-106751452D01*
X150161714Y-106799071D01*
X150114095Y-106894310D01*
X150114095Y-107132405D01*
X150161714Y-107227643D01*
X150209333Y-107275262D01*
X150304571Y-107322881D01*
X150542667Y-107322881D01*
X150637905Y-107275262D01*
X150685524Y-107227643D01*
X151661714Y-97321714D02*
X150947428Y-97321714D01*
X151376000Y-96893143D02*
X151661714Y-98178857D01*
X151042666Y-97750286D02*
X151756952Y-97750286D01*
X151328380Y-98178857D02*
X151042666Y-96893143D01*
X150185523Y-96988381D02*
X150376000Y-96988381D01*
X150471238Y-97036000D01*
X150518857Y-97083619D01*
X150614095Y-97226476D01*
X150661714Y-97416952D01*
X150661714Y-97797905D01*
X150614095Y-97893143D01*
X150566476Y-97940762D01*
X150471238Y-97988381D01*
X150280761Y-97988381D01*
X150185523Y-97940762D01*
X150137904Y-97893143D01*
X150090285Y-97797905D01*
X150090285Y-97559810D01*
X150137904Y-97464571D01*
X150185523Y-97416952D01*
X150280761Y-97369333D01*
X150471238Y-97369333D01*
X150566476Y-97416952D01*
X150614095Y-97464571D01*
X150661714Y-97559810D01*
X42925905Y-111593262D02*
X42783048Y-111640881D01*
X42544952Y-111640881D01*
X42449714Y-111593262D01*
X42402095Y-111545643D01*
X42354476Y-111450405D01*
X42354476Y-111355167D01*
X42402095Y-111259929D01*
X42449714Y-111212310D01*
X42544952Y-111164690D01*
X42735429Y-111117071D01*
X42830667Y-111069452D01*
X42878286Y-111021833D01*
X42925905Y-110926595D01*
X42925905Y-110831357D01*
X42878286Y-110736119D01*
X42830667Y-110688500D01*
X42735429Y-110640881D01*
X42497333Y-110640881D01*
X42354476Y-110688500D01*
X42021143Y-110640881D02*
X41402095Y-110640881D01*
X41735429Y-111021833D01*
X41592571Y-111021833D01*
X41497333Y-111069452D01*
X41449714Y-111117071D01*
X41402095Y-111212310D01*
X41402095Y-111450405D01*
X41449714Y-111545643D01*
X41497333Y-111593262D01*
X41592571Y-111640881D01*
X41878286Y-111640881D01*
X41973524Y-111593262D01*
X42021143Y-111545643D01*
X42949714Y-101893714D02*
X42235428Y-101893714D01*
X42664000Y-101465143D02*
X42949714Y-102750857D01*
X42330666Y-102322286D02*
X43044952Y-102322286D01*
X42616380Y-102750857D02*
X42330666Y-101465143D01*
X41473523Y-101560381D02*
X41664000Y-101560381D01*
X41759238Y-101608000D01*
X41806857Y-101655619D01*
X41902095Y-101798476D01*
X41949714Y-101988952D01*
X41949714Y-102369905D01*
X41902095Y-102465143D01*
X41854476Y-102512762D01*
X41759238Y-102560381D01*
X41568761Y-102560381D01*
X41473523Y-102512762D01*
X41425904Y-102465143D01*
X41378285Y-102369905D01*
X41378285Y-102131810D01*
X41425904Y-102036571D01*
X41473523Y-101988952D01*
X41568761Y-101941333D01*
X41759238Y-101941333D01*
X41854476Y-101988952D01*
X41902095Y-102036571D01*
X41949714Y-102131810D01*
M02*
