G04 #@! TF.FileFunction,Copper,L2,Bot,Signal*
%FSLAX46Y46*%
G04 Gerber Fmt 4.6, Leading zero omitted, Abs format (unit mm)*
G04 Created by KiCad (PCBNEW 4.0.4-stable) date 12/10/17 16:08:38*
%MOMM*%
%LPD*%
G01*
G04 APERTURE LIST*
%ADD10C,0.100000*%
%ADD11C,0.500000*%
%ADD12O,2.000000X3.000000*%
%ADD13R,1.800000X1.800000*%
%ADD14C,1.800000*%
%ADD15O,3.000000X2.000000*%
%ADD16R,2.000000X1.700000*%
%ADD17O,2.000000X1.700000*%
%ADD18R,1.900000X1.600000*%
%ADD19C,7.000000*%
%ADD20C,5.000000*%
%ADD21R,3.000000X3.000000*%
%ADD22C,3.500000*%
%ADD23C,4.700000*%
%ADD24C,4.000000*%
%ADD25C,4.000000*%
%ADD26C,0.254000*%
G04 APERTURE END LIST*
D10*
D11*
X125730000Y-152019000D03*
X122364500Y-157480000D03*
D12*
X141926000Y-176276000D03*
X134426000Y-176276000D03*
X58420000Y-176276000D03*
X50920000Y-176276000D03*
D13*
X42164000Y-119888000D03*
D14*
X81280000Y-119888000D03*
D13*
X69088000Y-78486000D03*
D14*
X69088000Y-105918000D03*
D13*
X84328000Y-80518000D03*
D14*
X123444000Y-80518000D03*
D13*
X72136000Y-132334000D03*
D14*
X72136000Y-171450000D03*
D13*
X114046000Y-23622000D03*
D14*
X114046000Y-62738000D03*
D13*
X121920000Y-99568000D03*
D14*
X121920000Y-127000000D03*
D15*
X44704000Y-96520000D03*
X44704000Y-89020000D03*
X148336000Y-114106000D03*
X148336000Y-121606000D03*
D12*
X87750000Y-26924000D03*
X95250000Y-26924000D03*
X90304000Y-176276000D03*
X82804000Y-176276000D03*
X122114000Y-176276000D03*
X114614000Y-176276000D03*
D16*
X53340000Y-144272000D03*
D17*
X53340000Y-139700000D03*
X53340000Y-135128000D03*
X48768000Y-135128000D03*
X48768000Y-139700000D03*
D16*
X48768000Y-144272000D03*
X48768000Y-155448000D03*
D17*
X48768000Y-160020000D03*
X48768000Y-164592000D03*
X53340000Y-164592000D03*
X53340000Y-160020000D03*
D16*
X53340000Y-155448000D03*
X124714000Y-144018000D03*
D17*
X124714000Y-139446000D03*
X124714000Y-134874000D03*
X120142000Y-134874000D03*
X120142000Y-139446000D03*
D16*
X120142000Y-144018000D03*
X120142000Y-155194000D03*
D17*
X120142000Y-159766000D03*
X120142000Y-164338000D03*
X124714000Y-164338000D03*
X124714000Y-159766000D03*
D16*
X124714000Y-155194000D03*
D18*
X142748000Y-134874000D03*
D17*
X142748000Y-139446000D03*
X142748000Y-144018000D03*
D16*
X140208000Y-155194000D03*
D17*
X140208000Y-159766000D03*
X140208000Y-164338000D03*
X144780000Y-164338000D03*
X144780000Y-159766000D03*
D16*
X144780000Y-155194000D03*
D19*
X42164000Y-24384000D03*
X150876000Y-24384000D03*
X42164000Y-178816000D03*
X150876000Y-178816000D03*
X88392000Y-100584000D03*
X150876000Y-102108000D03*
X42164000Y-106680000D03*
D20*
X62738000Y-69088000D03*
X81026000Y-48768000D03*
D21*
X50292000Y-58928000D03*
D22*
X93472000Y-58928000D03*
D20*
X55372000Y-46482000D03*
X73660000Y-26162000D03*
D21*
X42926000Y-36322000D03*
D22*
X86106000Y-36322000D03*
D23*
X147066000Y-86614000D03*
X147066000Y-42418000D03*
D21*
X136398000Y-104140000D03*
D22*
X136398000Y-24892000D03*
D23*
X90170000Y-115824000D03*
X90170000Y-160020000D03*
D21*
X100838000Y-98298000D03*
D22*
X100838000Y-177546000D03*
D11*
X117284500Y-156718000D03*
D24*
X83312000Y-141986000D03*
D25*
X61150500Y-95186500D02*
X69088000Y-87249000D01*
X69088000Y-87249000D02*
X69088000Y-78486000D01*
X61150500Y-105801500D02*
X61150500Y-95186500D01*
X42164000Y-119888000D02*
X47064000Y-119888000D01*
X47064000Y-119888000D02*
X61150500Y-105801500D01*
X122174000Y-113538000D02*
X134768000Y-113538000D01*
X113792000Y-113538000D02*
X122174000Y-113538000D01*
X83312000Y-141986000D02*
X111760000Y-113538000D01*
X111760000Y-113538000D02*
X113792000Y-113538000D01*
X148336000Y-121606000D02*
X142836000Y-121606000D01*
X142836000Y-121606000D02*
X134768000Y-113538000D01*
X48768000Y-164592000D02*
X48768000Y-169442000D01*
X48768000Y-169442000D02*
X50014000Y-170688000D01*
X50014000Y-170688000D02*
X60706000Y-170688000D01*
X81534000Y-177546000D02*
X82804000Y-176276000D01*
X60706000Y-170688000D02*
X67564000Y-177546000D01*
X67564000Y-177546000D02*
X81534000Y-177546000D01*
X140208000Y-144018000D02*
X142748000Y-144018000D01*
X140208000Y-150344000D02*
X140208000Y-144018000D01*
X82804000Y-156464000D02*
X82804000Y-165354000D01*
X112268000Y-127000000D02*
X82804000Y-156464000D01*
X121920000Y-127000000D02*
X112268000Y-127000000D01*
X91440000Y-50038000D02*
X101346000Y-50038000D01*
X101346000Y-50038000D02*
X114046000Y-62738000D01*
X82550000Y-58928000D02*
X91440000Y-50038000D01*
X50292000Y-58928000D02*
X82550000Y-58928000D01*
X142748000Y-144018000D02*
X150114000Y-144018000D01*
X149780000Y-164338000D02*
X144780000Y-164338000D01*
X150114000Y-144018000D02*
X151638000Y-145542000D01*
X151638000Y-145542000D02*
X151638000Y-162480000D01*
X151638000Y-162480000D02*
X149780000Y-164338000D01*
X140208000Y-155194000D02*
X140208000Y-150344000D01*
X50292000Y-58928000D02*
X50292000Y-83432000D01*
X50292000Y-83432000D02*
X44704000Y-89020000D01*
X53340000Y-155448000D02*
X71882000Y-155448000D01*
X72898000Y-155448000D02*
X82804000Y-165354000D01*
X82804000Y-165354000D02*
X82804000Y-176276000D01*
X53340000Y-155448000D02*
X72898000Y-155448000D01*
X48768000Y-160020000D02*
X45720000Y-160020000D01*
X45720000Y-160020000D02*
X44259500Y-161480500D01*
X44259500Y-161480500D02*
X44259500Y-172275500D01*
X44259500Y-172275500D02*
X48260000Y-176276000D01*
X48260000Y-176276000D02*
X50920000Y-176276000D01*
X114554000Y-162306000D02*
X114614000Y-162366000D01*
X114614000Y-162366000D02*
X114614000Y-176276000D01*
X120142000Y-159766000D02*
X117094000Y-159766000D01*
X117094000Y-159766000D02*
X114554000Y-162306000D01*
X134426000Y-176276000D02*
X134620000Y-176276000D01*
X134620000Y-176276000D02*
X135636000Y-175260000D01*
X135636000Y-175260000D02*
X135636000Y-161036000D01*
X135636000Y-161036000D02*
X136906000Y-159766000D01*
X136906000Y-159766000D02*
X140208000Y-159766000D01*
X102235000Y-85661500D02*
X107696000Y-85661500D01*
X118300500Y-85661500D02*
X107696000Y-85661500D01*
X102235000Y-85661500D02*
X95440500Y-92456000D01*
X78232000Y-137668000D02*
X72741711Y-137668000D01*
X95440500Y-92456000D02*
X95440500Y-120459500D01*
X95440500Y-120459500D02*
X78232000Y-137668000D01*
X72741711Y-137668000D02*
X66137711Y-144272000D01*
X66137711Y-144272000D02*
X53340000Y-144272000D01*
X123444000Y-80518000D02*
X118300500Y-85661500D01*
X103095999Y-38071999D02*
X123444000Y-58420000D01*
X123444000Y-58420000D02*
X123444000Y-80518000D01*
X86106000Y-36322000D02*
X87855999Y-38071999D01*
X87855999Y-38071999D02*
X103095999Y-38071999D01*
X130048000Y-166116000D02*
X130048000Y-155575000D01*
X124714000Y-155194000D02*
X129714000Y-155194000D01*
X129714000Y-155194000D02*
X130048000Y-155528000D01*
X130048000Y-155528000D02*
X130048000Y-155575000D01*
X120142000Y-164338000D02*
X120142000Y-167386000D01*
X120142000Y-167386000D02*
X121666000Y-168910000D01*
X121666000Y-168910000D02*
X127254000Y-168910000D01*
X127254000Y-168910000D02*
X130048000Y-166116000D01*
X128016000Y-148844000D02*
X137414000Y-139446000D01*
X120142000Y-150344000D02*
X121642000Y-148844000D01*
X120142000Y-155194000D02*
X120142000Y-150344000D01*
X121642000Y-148844000D02*
X128016000Y-148844000D01*
X137414000Y-139446000D02*
X142748000Y-139446000D01*
X84328000Y-80518000D02*
X84328000Y-75618000D01*
X84328000Y-75618000D02*
X78750500Y-70040500D01*
X78750500Y-70040500D02*
X70104000Y-70040500D01*
X49974500Y-96583500D02*
X49911000Y-96520000D01*
X70104000Y-70040500D02*
X56642000Y-83502500D01*
X56642000Y-83502500D02*
X56642000Y-89916000D01*
X56642000Y-89916000D02*
X49974500Y-96583500D01*
X49911000Y-96520000D02*
X44704000Y-96520000D01*
X72136000Y-132334000D02*
X72136000Y-129032000D01*
X72136000Y-129032000D02*
X81280000Y-119888000D01*
X104060000Y-30734000D02*
X114046000Y-30734000D01*
X114046000Y-30734000D02*
X124523500Y-30734000D01*
X114046000Y-23622000D02*
X114046000Y-28522000D01*
X114046000Y-28522000D02*
X114046000Y-30734000D01*
X124523500Y-30734000D02*
X130810000Y-37020500D01*
X95250000Y-26924000D02*
X100250000Y-26924000D01*
X100250000Y-26924000D02*
X104060000Y-30734000D01*
X130810000Y-37020500D02*
X130810000Y-85778000D01*
X148336000Y-114106000D02*
X148336000Y-113792000D01*
X148336000Y-113792000D02*
X143192500Y-108648500D01*
X143192500Y-108648500D02*
X143192500Y-98160500D01*
X143192500Y-98160500D02*
X130810000Y-85778000D01*
X121920000Y-99568000D02*
X121920000Y-94668000D01*
X121920000Y-94668000D02*
X130810000Y-85778000D01*
X50673000Y-129984500D02*
X59753500Y-129984500D01*
X74739500Y-114998500D02*
X62928500Y-126809500D01*
X74739500Y-104140000D02*
X74739500Y-114998500D01*
X74739500Y-104140000D02*
X93472000Y-85407500D01*
X93472000Y-85407500D02*
X93472000Y-58928000D01*
X48768000Y-131889500D02*
X50673000Y-129984500D01*
X48768000Y-135128000D02*
X48768000Y-131889500D01*
X59753500Y-129984500D02*
X62928500Y-126809500D01*
X120142000Y-134874000D02*
X115142000Y-134874000D01*
X115142000Y-134874000D02*
X100838000Y-149178000D01*
X100838000Y-149178000D02*
X100838000Y-175071127D01*
X100838000Y-175071127D02*
X100838000Y-177546000D01*
D26*
G36*
X154338000Y-182278000D02*
X38702000Y-182278000D01*
X38702000Y-161480500D01*
X41732500Y-161480500D01*
X41732500Y-172275500D01*
X41924856Y-173242541D01*
X42472641Y-174062359D01*
X46473141Y-178062859D01*
X47292958Y-178610644D01*
X48260000Y-178803000D01*
X50920000Y-178803000D01*
X51887041Y-178610644D01*
X52706859Y-178062859D01*
X53254644Y-177243041D01*
X53447000Y-176276000D01*
X53339646Y-175736289D01*
X56893000Y-175736289D01*
X56893000Y-176815711D01*
X57009236Y-177400069D01*
X57340248Y-177895463D01*
X57835642Y-178226475D01*
X58420000Y-178342711D01*
X59004358Y-178226475D01*
X59499752Y-177895463D01*
X59830764Y-177400069D01*
X59947000Y-176815711D01*
X59947000Y-175736289D01*
X59830764Y-175151931D01*
X59499752Y-174656537D01*
X59004358Y-174325525D01*
X58420000Y-174209289D01*
X57835642Y-174325525D01*
X57340248Y-174656537D01*
X57009236Y-175151931D01*
X56893000Y-175736289D01*
X53339646Y-175736289D01*
X53254644Y-175308959D01*
X52706859Y-174489141D01*
X51887041Y-173941356D01*
X50920000Y-173749000D01*
X49306718Y-173749000D01*
X46786500Y-171228782D01*
X46786500Y-170937558D01*
X46981141Y-171228859D01*
X48227141Y-172474859D01*
X49046959Y-173022644D01*
X50014000Y-173215000D01*
X59659282Y-173215000D01*
X65777141Y-179332859D01*
X66596959Y-179880644D01*
X67564000Y-180073001D01*
X67564005Y-180073000D01*
X81534000Y-180073000D01*
X82501041Y-179880644D01*
X83320859Y-179332859D01*
X84590859Y-178062859D01*
X85138644Y-177243042D01*
X85331000Y-176276000D01*
X85331000Y-175736289D01*
X88777000Y-175736289D01*
X88777000Y-176815711D01*
X88893236Y-177400069D01*
X89224248Y-177895463D01*
X89719642Y-178226475D01*
X90304000Y-178342711D01*
X90888358Y-178226475D01*
X91383752Y-177895463D01*
X91714764Y-177400069D01*
X91831000Y-176815711D01*
X91831000Y-175736289D01*
X91714764Y-175151931D01*
X91383752Y-174656537D01*
X90888358Y-174325525D01*
X90304000Y-174209289D01*
X89719642Y-174325525D01*
X89224248Y-174656537D01*
X88893236Y-175151931D01*
X88777000Y-175736289D01*
X85331000Y-175736289D01*
X85331000Y-165354005D01*
X85331001Y-165354000D01*
X85331000Y-165353995D01*
X85331000Y-157510718D01*
X93663718Y-149178000D01*
X98311000Y-149178000D01*
X98311000Y-177546000D01*
X98503356Y-178513041D01*
X99051141Y-179332859D01*
X99870959Y-179880644D01*
X100838000Y-180073000D01*
X101805041Y-179880644D01*
X102624859Y-179332859D01*
X103172644Y-178513041D01*
X103365000Y-177546000D01*
X103365000Y-162306000D01*
X112027000Y-162306000D01*
X112087000Y-162607641D01*
X112087000Y-176276000D01*
X112279356Y-177243041D01*
X112827141Y-178062859D01*
X113646959Y-178610644D01*
X114614000Y-178803000D01*
X115581041Y-178610644D01*
X116400859Y-178062859D01*
X116948644Y-177243041D01*
X117141000Y-176276000D01*
X117141000Y-175736289D01*
X120587000Y-175736289D01*
X120587000Y-176815711D01*
X120703236Y-177400069D01*
X121034248Y-177895463D01*
X121529642Y-178226475D01*
X122114000Y-178342711D01*
X122698358Y-178226475D01*
X123193752Y-177895463D01*
X123524764Y-177400069D01*
X123641000Y-176815711D01*
X123641000Y-175736289D01*
X123524764Y-175151931D01*
X123193752Y-174656537D01*
X122698358Y-174325525D01*
X122114000Y-174209289D01*
X121529642Y-174325525D01*
X121034248Y-174656537D01*
X120703236Y-175151931D01*
X120587000Y-175736289D01*
X117141000Y-175736289D01*
X117141000Y-163292718D01*
X118140718Y-162293000D01*
X118741476Y-162293000D01*
X118355141Y-162551141D01*
X117807356Y-163370959D01*
X117615000Y-164338000D01*
X117615000Y-167386000D01*
X117807356Y-168353041D01*
X118355141Y-169172859D01*
X119879141Y-170696859D01*
X120698958Y-171244644D01*
X121666000Y-171437000D01*
X127254000Y-171437000D01*
X128221041Y-171244644D01*
X129040859Y-170696859D01*
X131834859Y-167902859D01*
X132382644Y-167083041D01*
X132575000Y-166116000D01*
X132575000Y-155528000D01*
X132382644Y-154560959D01*
X132382644Y-154560958D01*
X131834859Y-153741141D01*
X131500859Y-153407141D01*
X130681041Y-152859356D01*
X129714000Y-152667000D01*
X124714000Y-152667000D01*
X123746959Y-152859356D01*
X122927141Y-153407141D01*
X122669000Y-153793476D01*
X122669000Y-151390718D01*
X122688718Y-151371000D01*
X128016000Y-151371000D01*
X128983041Y-151178644D01*
X129802859Y-150630859D01*
X138460718Y-141973000D01*
X138807476Y-141973000D01*
X138421141Y-142231141D01*
X137873356Y-143050959D01*
X137681000Y-144018000D01*
X137681000Y-155194000D01*
X137873356Y-156161041D01*
X138421141Y-156980859D01*
X138807476Y-157239000D01*
X136906000Y-157239000D01*
X135938958Y-157431356D01*
X135119141Y-157979141D01*
X133849141Y-159249141D01*
X133301356Y-160068959D01*
X133109000Y-161036000D01*
X133109000Y-174175191D01*
X132639141Y-174489141D01*
X132091356Y-175308959D01*
X131899000Y-176276000D01*
X132091356Y-177243041D01*
X132639141Y-178062859D01*
X133458959Y-178610644D01*
X134426000Y-178803000D01*
X134620000Y-178803000D01*
X135587041Y-178610644D01*
X136406859Y-178062859D01*
X137422859Y-177046859D01*
X137970644Y-176227041D01*
X138068260Y-175736289D01*
X140399000Y-175736289D01*
X140399000Y-176815711D01*
X140515236Y-177400069D01*
X140846248Y-177895463D01*
X141341642Y-178226475D01*
X141926000Y-178342711D01*
X142510358Y-178226475D01*
X143005752Y-177895463D01*
X143336764Y-177400069D01*
X143453000Y-176815711D01*
X143453000Y-175736289D01*
X143336764Y-175151931D01*
X143005752Y-174656537D01*
X142510358Y-174325525D01*
X141926000Y-174209289D01*
X141341642Y-174325525D01*
X140846248Y-174656537D01*
X140515236Y-175151931D01*
X140399000Y-175736289D01*
X138068260Y-175736289D01*
X138163000Y-175260000D01*
X138163000Y-164338000D01*
X138651084Y-164338000D01*
X138755902Y-164864955D01*
X139054398Y-165311686D01*
X139501129Y-165610182D01*
X140028084Y-165715000D01*
X140387916Y-165715000D01*
X140914871Y-165610182D01*
X141361602Y-165311686D01*
X141660098Y-164864955D01*
X141764916Y-164338000D01*
X141660098Y-163811045D01*
X141361602Y-163364314D01*
X140914871Y-163065818D01*
X140387916Y-162961000D01*
X140028084Y-162961000D01*
X139501129Y-163065818D01*
X139054398Y-163364314D01*
X138755902Y-163811045D01*
X138651084Y-164338000D01*
X138163000Y-164338000D01*
X138163000Y-162293000D01*
X140208000Y-162293000D01*
X141175041Y-162100644D01*
X141994859Y-161552859D01*
X142542644Y-160733041D01*
X142735000Y-159766000D01*
X143223084Y-159766000D01*
X143327902Y-160292955D01*
X143626398Y-160739686D01*
X144073129Y-161038182D01*
X144600084Y-161143000D01*
X144959916Y-161143000D01*
X145486871Y-161038182D01*
X145933602Y-160739686D01*
X146232098Y-160292955D01*
X146336916Y-159766000D01*
X146232098Y-159239045D01*
X145933602Y-158792314D01*
X145486871Y-158493818D01*
X144959916Y-158389000D01*
X144600084Y-158389000D01*
X144073129Y-158493818D01*
X143626398Y-158792314D01*
X143327902Y-159239045D01*
X143223084Y-159766000D01*
X142735000Y-159766000D01*
X142542644Y-158798959D01*
X141994859Y-157979141D01*
X141247842Y-157480000D01*
X141994859Y-156980859D01*
X142542644Y-156161041D01*
X142735000Y-155194000D01*
X142735000Y-154344000D01*
X143242676Y-154344000D01*
X143242676Y-156044000D01*
X143279423Y-156239294D01*
X143394842Y-156418660D01*
X143570951Y-156538990D01*
X143780000Y-156581324D01*
X145780000Y-156581324D01*
X145975294Y-156544577D01*
X146154660Y-156429158D01*
X146274990Y-156253049D01*
X146317324Y-156044000D01*
X146317324Y-154344000D01*
X146280577Y-154148706D01*
X146165158Y-153969340D01*
X145989049Y-153849010D01*
X145780000Y-153806676D01*
X143780000Y-153806676D01*
X143584706Y-153843423D01*
X143405340Y-153958842D01*
X143285010Y-154134951D01*
X143242676Y-154344000D01*
X142735000Y-154344000D01*
X142735000Y-146545000D01*
X149067282Y-146545000D01*
X149111000Y-146588718D01*
X149111000Y-161433282D01*
X148733282Y-161811000D01*
X144780000Y-161811000D01*
X143812959Y-162003356D01*
X142993141Y-162551141D01*
X142445356Y-163370959D01*
X142253000Y-164338000D01*
X142445356Y-165305041D01*
X142993141Y-166124859D01*
X143812959Y-166672644D01*
X144780000Y-166865000D01*
X149780000Y-166865000D01*
X150747041Y-166672644D01*
X151566859Y-166124859D01*
X153424859Y-164266859D01*
X153972644Y-163447041D01*
X154165000Y-162480000D01*
X154165000Y-145542000D01*
X153972644Y-144574959D01*
X153972644Y-144574958D01*
X153424859Y-143755141D01*
X151900859Y-142231141D01*
X151081041Y-141683356D01*
X150114000Y-141491000D01*
X144148524Y-141491000D01*
X144534859Y-141232859D01*
X145082644Y-140413041D01*
X145275000Y-139446000D01*
X145082644Y-138478959D01*
X144534859Y-137659141D01*
X143715041Y-137111356D01*
X142748000Y-136919000D01*
X137414000Y-136919000D01*
X136446959Y-137111356D01*
X135627141Y-137659141D01*
X126969282Y-146317000D01*
X121642000Y-146317000D01*
X120674958Y-146509356D01*
X119855141Y-147057141D01*
X118355141Y-148557141D01*
X117807356Y-149376959D01*
X117615000Y-150344000D01*
X117615000Y-155194000D01*
X117807356Y-156161041D01*
X118355141Y-156980859D01*
X118741476Y-157239000D01*
X117094000Y-157239000D01*
X116126958Y-157431356D01*
X115307141Y-157979141D01*
X112767141Y-160519141D01*
X112219356Y-161338959D01*
X112027000Y-162306000D01*
X103365000Y-162306000D01*
X103365000Y-150224718D01*
X110421718Y-143168000D01*
X118604676Y-143168000D01*
X118604676Y-144868000D01*
X118641423Y-145063294D01*
X118756842Y-145242660D01*
X118932951Y-145362990D01*
X119142000Y-145405324D01*
X121142000Y-145405324D01*
X121337294Y-145368577D01*
X121516660Y-145253158D01*
X121636990Y-145077049D01*
X121679324Y-144868000D01*
X121679324Y-143168000D01*
X123176676Y-143168000D01*
X123176676Y-144868000D01*
X123213423Y-145063294D01*
X123328842Y-145242660D01*
X123504951Y-145362990D01*
X123714000Y-145405324D01*
X125714000Y-145405324D01*
X125909294Y-145368577D01*
X126088660Y-145253158D01*
X126208990Y-145077049D01*
X126251324Y-144868000D01*
X126251324Y-143168000D01*
X126214577Y-142972706D01*
X126099158Y-142793340D01*
X125923049Y-142673010D01*
X125714000Y-142630676D01*
X123714000Y-142630676D01*
X123518706Y-142667423D01*
X123339340Y-142782842D01*
X123219010Y-142958951D01*
X123176676Y-143168000D01*
X121679324Y-143168000D01*
X121642577Y-142972706D01*
X121527158Y-142793340D01*
X121351049Y-142673010D01*
X121142000Y-142630676D01*
X119142000Y-142630676D01*
X118946706Y-142667423D01*
X118767340Y-142782842D01*
X118647010Y-142958951D01*
X118604676Y-143168000D01*
X110421718Y-143168000D01*
X114143718Y-139446000D01*
X118585084Y-139446000D01*
X118689902Y-139972955D01*
X118988398Y-140419686D01*
X119435129Y-140718182D01*
X119962084Y-140823000D01*
X120321916Y-140823000D01*
X120848871Y-140718182D01*
X121295602Y-140419686D01*
X121594098Y-139972955D01*
X121698916Y-139446000D01*
X123157084Y-139446000D01*
X123261902Y-139972955D01*
X123560398Y-140419686D01*
X124007129Y-140718182D01*
X124534084Y-140823000D01*
X124893916Y-140823000D01*
X125420871Y-140718182D01*
X125867602Y-140419686D01*
X126166098Y-139972955D01*
X126270916Y-139446000D01*
X126166098Y-138919045D01*
X125867602Y-138472314D01*
X125420871Y-138173818D01*
X124893916Y-138069000D01*
X124534084Y-138069000D01*
X124007129Y-138173818D01*
X123560398Y-138472314D01*
X123261902Y-138919045D01*
X123157084Y-139446000D01*
X121698916Y-139446000D01*
X121594098Y-138919045D01*
X121295602Y-138472314D01*
X120848871Y-138173818D01*
X120321916Y-138069000D01*
X119962084Y-138069000D01*
X119435129Y-138173818D01*
X118988398Y-138472314D01*
X118689902Y-138919045D01*
X118585084Y-139446000D01*
X114143718Y-139446000D01*
X116188718Y-137401000D01*
X120142000Y-137401000D01*
X121109041Y-137208644D01*
X121928859Y-136660859D01*
X122476644Y-135841041D01*
X122669000Y-134874000D01*
X123157084Y-134874000D01*
X123261902Y-135400955D01*
X123560398Y-135847686D01*
X124007129Y-136146182D01*
X124534084Y-136251000D01*
X124893916Y-136251000D01*
X125420871Y-136146182D01*
X125867602Y-135847686D01*
X126166098Y-135400955D01*
X126270916Y-134874000D01*
X126166098Y-134347045D01*
X125983656Y-134074000D01*
X141260676Y-134074000D01*
X141260676Y-135674000D01*
X141297423Y-135869294D01*
X141412842Y-136048660D01*
X141588951Y-136168990D01*
X141798000Y-136211324D01*
X143698000Y-136211324D01*
X143893294Y-136174577D01*
X144072660Y-136059158D01*
X144192990Y-135883049D01*
X144235324Y-135674000D01*
X144235324Y-134074000D01*
X144198577Y-133878706D01*
X144083158Y-133699340D01*
X143907049Y-133579010D01*
X143698000Y-133536676D01*
X141798000Y-133536676D01*
X141602706Y-133573423D01*
X141423340Y-133688842D01*
X141303010Y-133864951D01*
X141260676Y-134074000D01*
X125983656Y-134074000D01*
X125867602Y-133900314D01*
X125420871Y-133601818D01*
X124893916Y-133497000D01*
X124534084Y-133497000D01*
X124007129Y-133601818D01*
X123560398Y-133900314D01*
X123261902Y-134347045D01*
X123157084Y-134874000D01*
X122669000Y-134874000D01*
X122476644Y-133906959D01*
X121928859Y-133087141D01*
X121109041Y-132539356D01*
X120142000Y-132347000D01*
X115142000Y-132347000D01*
X114174959Y-132539356D01*
X113355141Y-133087141D01*
X99051141Y-147391141D01*
X98503356Y-148210959D01*
X98311000Y-149178000D01*
X93663718Y-149178000D01*
X113314718Y-129527000D01*
X121920000Y-129527000D01*
X122887041Y-129334644D01*
X123706859Y-128786859D01*
X124254644Y-127967041D01*
X124447000Y-127000000D01*
X124254644Y-126032959D01*
X123706859Y-125213141D01*
X122887041Y-124665356D01*
X121920000Y-124473000D01*
X112268000Y-124473000D01*
X111300958Y-124665356D01*
X110481141Y-125213141D01*
X81017141Y-154677141D01*
X80469356Y-155496959D01*
X80277000Y-156464000D01*
X80277000Y-159253282D01*
X74684859Y-153661141D01*
X73865041Y-153113356D01*
X72898000Y-152921000D01*
X53340000Y-152921000D01*
X52372959Y-153113356D01*
X51553141Y-153661141D01*
X51005356Y-154480959D01*
X50813000Y-155448000D01*
X51005356Y-156415041D01*
X51553141Y-157234859D01*
X52372959Y-157782644D01*
X53340000Y-157975000D01*
X71851282Y-157975000D01*
X80277000Y-166400718D01*
X80277000Y-175019000D01*
X68610718Y-175019000D01*
X65324321Y-171732603D01*
X70708752Y-171732603D01*
X70925543Y-172257275D01*
X71326614Y-172659047D01*
X71850907Y-172876752D01*
X72418603Y-172877248D01*
X72943275Y-172660457D01*
X73345047Y-172259386D01*
X73562752Y-171735093D01*
X73563248Y-171167397D01*
X73346457Y-170642725D01*
X72945386Y-170240953D01*
X72421093Y-170023248D01*
X71853397Y-170022752D01*
X71328725Y-170239543D01*
X70926953Y-170640614D01*
X70709248Y-171164907D01*
X70708752Y-171732603D01*
X65324321Y-171732603D01*
X62492859Y-168901141D01*
X61673041Y-168353356D01*
X60706000Y-168161000D01*
X51295000Y-168161000D01*
X51295000Y-164592000D01*
X51783084Y-164592000D01*
X51887902Y-165118955D01*
X52186398Y-165565686D01*
X52633129Y-165864182D01*
X53160084Y-165969000D01*
X53519916Y-165969000D01*
X54046871Y-165864182D01*
X54493602Y-165565686D01*
X54792098Y-165118955D01*
X54896916Y-164592000D01*
X54792098Y-164065045D01*
X54493602Y-163618314D01*
X54046871Y-163319818D01*
X53519916Y-163215000D01*
X53160084Y-163215000D01*
X52633129Y-163319818D01*
X52186398Y-163618314D01*
X51887902Y-164065045D01*
X51783084Y-164592000D01*
X51295000Y-164592000D01*
X51102644Y-163624959D01*
X50554859Y-162805141D01*
X49807842Y-162306000D01*
X50554859Y-161806859D01*
X51102644Y-160987041D01*
X51295000Y-160020000D01*
X51783084Y-160020000D01*
X51887902Y-160546955D01*
X52186398Y-160993686D01*
X52633129Y-161292182D01*
X53160084Y-161397000D01*
X53519916Y-161397000D01*
X54046871Y-161292182D01*
X54493602Y-160993686D01*
X54792098Y-160546955D01*
X54896916Y-160020000D01*
X54792098Y-159493045D01*
X54493602Y-159046314D01*
X54046871Y-158747818D01*
X53519916Y-158643000D01*
X53160084Y-158643000D01*
X52633129Y-158747818D01*
X52186398Y-159046314D01*
X51887902Y-159493045D01*
X51783084Y-160020000D01*
X51295000Y-160020000D01*
X51102644Y-159052959D01*
X50554859Y-158233141D01*
X49735041Y-157685356D01*
X48768000Y-157493000D01*
X45720000Y-157493000D01*
X44752959Y-157685356D01*
X43933141Y-158233141D01*
X42472641Y-159693641D01*
X41924856Y-160513459D01*
X41732500Y-161480500D01*
X38702000Y-161480500D01*
X38702000Y-154598000D01*
X47230676Y-154598000D01*
X47230676Y-156298000D01*
X47267423Y-156493294D01*
X47382842Y-156672660D01*
X47558951Y-156792990D01*
X47768000Y-156835324D01*
X49768000Y-156835324D01*
X49963294Y-156798577D01*
X50142660Y-156683158D01*
X50262990Y-156507049D01*
X50305324Y-156298000D01*
X50305324Y-154598000D01*
X50268577Y-154402706D01*
X50153158Y-154223340D01*
X49977049Y-154103010D01*
X49768000Y-154060676D01*
X47768000Y-154060676D01*
X47572706Y-154097423D01*
X47393340Y-154212842D01*
X47273010Y-154388951D01*
X47230676Y-154598000D01*
X38702000Y-154598000D01*
X38702000Y-143422000D01*
X47230676Y-143422000D01*
X47230676Y-145122000D01*
X47267423Y-145317294D01*
X47382842Y-145496660D01*
X47558951Y-145616990D01*
X47768000Y-145659324D01*
X49768000Y-145659324D01*
X49963294Y-145622577D01*
X50142660Y-145507158D01*
X50262990Y-145331049D01*
X50305324Y-145122000D01*
X50305324Y-144272000D01*
X50813000Y-144272000D01*
X51005356Y-145239041D01*
X51553141Y-146058859D01*
X52372959Y-146606644D01*
X53340000Y-146799000D01*
X66137711Y-146799000D01*
X67104752Y-146606644D01*
X67924570Y-146058859D01*
X71496983Y-142486446D01*
X80784562Y-142486446D01*
X81168464Y-143415561D01*
X81878700Y-144127037D01*
X82807143Y-144512561D01*
X83812446Y-144513438D01*
X84741561Y-144129536D01*
X85453037Y-143419300D01*
X85453477Y-143418241D01*
X112806718Y-116065000D01*
X133721282Y-116065000D01*
X141049141Y-123392859D01*
X141868959Y-123940644D01*
X142836000Y-124133000D01*
X148336000Y-124133000D01*
X149303041Y-123940644D01*
X150122859Y-123392859D01*
X150670644Y-122573041D01*
X150863000Y-121606000D01*
X150670644Y-120638959D01*
X150122859Y-119819141D01*
X149303041Y-119271356D01*
X148336000Y-119079000D01*
X143882718Y-119079000D01*
X136554859Y-111751141D01*
X135735041Y-111203356D01*
X134768000Y-111011000D01*
X111760000Y-111011000D01*
X110792958Y-111203356D01*
X109973141Y-111751141D01*
X81526127Y-140198155D01*
X81170963Y-140552700D01*
X80785439Y-141481143D01*
X80784562Y-142486446D01*
X71496983Y-142486446D01*
X73788429Y-140195000D01*
X78232000Y-140195000D01*
X79199041Y-140002644D01*
X80018859Y-139454859D01*
X97227359Y-122246359D01*
X97775144Y-121426541D01*
X97967500Y-120459500D01*
X97967500Y-102640000D01*
X134360676Y-102640000D01*
X134360676Y-105640000D01*
X134397423Y-105835294D01*
X134512842Y-106014660D01*
X134688951Y-106134990D01*
X134898000Y-106177324D01*
X137898000Y-106177324D01*
X138093294Y-106140577D01*
X138272660Y-106025158D01*
X138392990Y-105849049D01*
X138435324Y-105640000D01*
X138435324Y-102640000D01*
X138398577Y-102444706D01*
X138283158Y-102265340D01*
X138107049Y-102145010D01*
X137898000Y-102102676D01*
X134898000Y-102102676D01*
X134702706Y-102139423D01*
X134523340Y-102254842D01*
X134403010Y-102430951D01*
X134360676Y-102640000D01*
X97967500Y-102640000D01*
X97967500Y-96798000D01*
X98800676Y-96798000D01*
X98800676Y-99798000D01*
X98837423Y-99993294D01*
X98952842Y-100172660D01*
X99128951Y-100292990D01*
X99338000Y-100335324D01*
X102338000Y-100335324D01*
X102533294Y-100298577D01*
X102712660Y-100183158D01*
X102832990Y-100007049D01*
X102875324Y-99798000D01*
X102875324Y-96798000D01*
X102838577Y-96602706D01*
X102723158Y-96423340D01*
X102547049Y-96303010D01*
X102338000Y-96260676D01*
X99338000Y-96260676D01*
X99142706Y-96297423D01*
X98963340Y-96412842D01*
X98843010Y-96588951D01*
X98800676Y-96798000D01*
X97967500Y-96798000D01*
X97967500Y-93502718D01*
X103281718Y-88188500D01*
X118300500Y-88188500D01*
X119267541Y-87996144D01*
X120087359Y-87448359D01*
X125230859Y-82304859D01*
X125778644Y-81485042D01*
X125971000Y-80518000D01*
X125971000Y-58420000D01*
X125778644Y-57452959D01*
X125230859Y-56633141D01*
X104882858Y-36285140D01*
X104063040Y-35737355D01*
X103095999Y-35544999D01*
X88902717Y-35544999D01*
X87892859Y-34535141D01*
X87073041Y-33987356D01*
X86106000Y-33795000D01*
X85138959Y-33987356D01*
X84319141Y-34535141D01*
X83771356Y-35354959D01*
X83579000Y-36322000D01*
X83771356Y-37289041D01*
X84319141Y-38108859D01*
X86069140Y-39858858D01*
X86888957Y-40406643D01*
X87855999Y-40598999D01*
X102049281Y-40598999D01*
X120917000Y-59466718D01*
X120917000Y-79471282D01*
X117253782Y-83134500D01*
X102235000Y-83134500D01*
X101267959Y-83326856D01*
X100448141Y-83874641D01*
X93653641Y-90669141D01*
X93105856Y-91488959D01*
X92913500Y-92456000D01*
X92913500Y-119412782D01*
X77185282Y-135141000D01*
X72741711Y-135141000D01*
X71774669Y-135333356D01*
X70954852Y-135881141D01*
X65090993Y-141745000D01*
X53340000Y-141745000D01*
X52372959Y-141937356D01*
X51553141Y-142485141D01*
X51005356Y-143304959D01*
X50813000Y-144272000D01*
X50305324Y-144272000D01*
X50305324Y-143422000D01*
X50268577Y-143226706D01*
X50153158Y-143047340D01*
X49977049Y-142927010D01*
X49768000Y-142884676D01*
X47768000Y-142884676D01*
X47572706Y-142921423D01*
X47393340Y-143036842D01*
X47273010Y-143212951D01*
X47230676Y-143422000D01*
X38702000Y-143422000D01*
X38702000Y-139700000D01*
X47211084Y-139700000D01*
X47315902Y-140226955D01*
X47614398Y-140673686D01*
X48061129Y-140972182D01*
X48588084Y-141077000D01*
X48947916Y-141077000D01*
X49474871Y-140972182D01*
X49921602Y-140673686D01*
X50220098Y-140226955D01*
X50324916Y-139700000D01*
X51783084Y-139700000D01*
X51887902Y-140226955D01*
X52186398Y-140673686D01*
X52633129Y-140972182D01*
X53160084Y-141077000D01*
X53519916Y-141077000D01*
X54046871Y-140972182D01*
X54493602Y-140673686D01*
X54792098Y-140226955D01*
X54896916Y-139700000D01*
X54792098Y-139173045D01*
X54493602Y-138726314D01*
X54046871Y-138427818D01*
X53519916Y-138323000D01*
X53160084Y-138323000D01*
X52633129Y-138427818D01*
X52186398Y-138726314D01*
X51887902Y-139173045D01*
X51783084Y-139700000D01*
X50324916Y-139700000D01*
X50220098Y-139173045D01*
X49921602Y-138726314D01*
X49474871Y-138427818D01*
X48947916Y-138323000D01*
X48588084Y-138323000D01*
X48061129Y-138427818D01*
X47614398Y-138726314D01*
X47315902Y-139173045D01*
X47211084Y-139700000D01*
X38702000Y-139700000D01*
X38702000Y-131889500D01*
X46241000Y-131889500D01*
X46241000Y-135128000D01*
X46433356Y-136095041D01*
X46981141Y-136914859D01*
X47800959Y-137462644D01*
X48768000Y-137655000D01*
X49735041Y-137462644D01*
X50554859Y-136914859D01*
X51102644Y-136095041D01*
X51295000Y-135128000D01*
X51783084Y-135128000D01*
X51887902Y-135654955D01*
X52186398Y-136101686D01*
X52633129Y-136400182D01*
X53160084Y-136505000D01*
X53519916Y-136505000D01*
X54046871Y-136400182D01*
X54493602Y-136101686D01*
X54792098Y-135654955D01*
X54896916Y-135128000D01*
X54792098Y-134601045D01*
X54493602Y-134154314D01*
X54046871Y-133855818D01*
X53519916Y-133751000D01*
X53160084Y-133751000D01*
X52633129Y-133855818D01*
X52186398Y-134154314D01*
X51887902Y-134601045D01*
X51783084Y-135128000D01*
X51295000Y-135128000D01*
X51295000Y-132936218D01*
X51719718Y-132511500D01*
X59753500Y-132511500D01*
X60720541Y-132319144D01*
X61540359Y-131771359D01*
X64279718Y-129032000D01*
X69609000Y-129032000D01*
X69609000Y-132334000D01*
X69801356Y-133301041D01*
X70349141Y-134120859D01*
X71168959Y-134668644D01*
X72136000Y-134861000D01*
X73103041Y-134668644D01*
X73922859Y-134120859D01*
X74470644Y-133301041D01*
X74663000Y-132334000D01*
X74663000Y-130078718D01*
X83066859Y-121674859D01*
X83614644Y-120855041D01*
X83807000Y-119888000D01*
X83614644Y-118920959D01*
X83066859Y-118101141D01*
X82247041Y-117553356D01*
X81280000Y-117361000D01*
X80312959Y-117553356D01*
X79493141Y-118101141D01*
X70349141Y-127245141D01*
X69801356Y-128064959D01*
X69609000Y-129032000D01*
X64279718Y-129032000D01*
X76526359Y-116785359D01*
X77074144Y-115965542D01*
X77266500Y-114998500D01*
X77266500Y-105186718D01*
X95258859Y-87194359D01*
X95806644Y-86374541D01*
X95999001Y-85407500D01*
X95999000Y-85407495D01*
X95999000Y-58928000D01*
X95806644Y-57960959D01*
X95258859Y-57141141D01*
X94439041Y-56593356D01*
X93472000Y-56401000D01*
X92504959Y-56593356D01*
X91685141Y-57141141D01*
X91137356Y-57960959D01*
X90945000Y-58928000D01*
X90945000Y-84360782D01*
X72952641Y-102353141D01*
X72404856Y-103172959D01*
X72212500Y-104140000D01*
X72212500Y-113951782D01*
X58706782Y-127457500D01*
X50673000Y-127457500D01*
X49705959Y-127649856D01*
X48886141Y-128197641D01*
X46981141Y-130102641D01*
X46433356Y-130922459D01*
X46241000Y-131889500D01*
X38702000Y-131889500D01*
X38702000Y-119888000D01*
X39637000Y-119888000D01*
X39829356Y-120855041D01*
X40377141Y-121674859D01*
X41196959Y-122222644D01*
X42164000Y-122415000D01*
X47064000Y-122415000D01*
X48031041Y-122222644D01*
X48850859Y-121674859D01*
X62937359Y-107588359D01*
X63485144Y-106768542D01*
X63598113Y-106200603D01*
X67660752Y-106200603D01*
X67877543Y-106725275D01*
X68278614Y-107127047D01*
X68802907Y-107344752D01*
X69370603Y-107345248D01*
X69895275Y-107128457D01*
X70297047Y-106727386D01*
X70514752Y-106203093D01*
X70515248Y-105635397D01*
X70298457Y-105110725D01*
X69897386Y-104708953D01*
X69373093Y-104491248D01*
X68805397Y-104490752D01*
X68280725Y-104707543D01*
X67878953Y-105108614D01*
X67661248Y-105632907D01*
X67660752Y-106200603D01*
X63598113Y-106200603D01*
X63677500Y-105801500D01*
X63677500Y-96233218D01*
X70874859Y-89035859D01*
X71422644Y-88216041D01*
X71615000Y-87249000D01*
X71615000Y-78486000D01*
X71422644Y-77518959D01*
X70874859Y-76699141D01*
X70055041Y-76151356D01*
X69088000Y-75959000D01*
X68120959Y-76151356D01*
X67301141Y-76699141D01*
X66753356Y-77518959D01*
X66561000Y-78486000D01*
X66561000Y-86202282D01*
X59363641Y-93399641D01*
X58815856Y-94219459D01*
X58623500Y-95186500D01*
X58623500Y-104754782D01*
X46017282Y-117361000D01*
X42164000Y-117361000D01*
X41196959Y-117553356D01*
X40377141Y-118101141D01*
X39829356Y-118920959D01*
X39637000Y-119888000D01*
X38702000Y-119888000D01*
X38702000Y-96520000D01*
X42177000Y-96520000D01*
X42369356Y-97487041D01*
X42917141Y-98306859D01*
X43736959Y-98854644D01*
X44704000Y-99047000D01*
X49655260Y-99047000D01*
X49974500Y-99110501D01*
X50941542Y-98918144D01*
X51761359Y-98370359D01*
X58428859Y-91702859D01*
X58976644Y-90883041D01*
X59169000Y-89916000D01*
X59169000Y-84549218D01*
X71150718Y-72567500D01*
X77703782Y-72567500D01*
X81801000Y-76664718D01*
X81801000Y-80518000D01*
X81993356Y-81485041D01*
X82541141Y-82304859D01*
X83360959Y-82852644D01*
X84328000Y-83045000D01*
X85295041Y-82852644D01*
X86114859Y-82304859D01*
X86662644Y-81485041D01*
X86855000Y-80518000D01*
X86855000Y-75618000D01*
X86662644Y-74650959D01*
X86114859Y-73831141D01*
X80537359Y-68253641D01*
X79717541Y-67705856D01*
X78750500Y-67513500D01*
X70104000Y-67513500D01*
X69136959Y-67705856D01*
X68317141Y-68253641D01*
X54855141Y-81715641D01*
X54307356Y-82535459D01*
X54115000Y-83502500D01*
X54115000Y-88869282D01*
X48991282Y-93993000D01*
X44704000Y-93993000D01*
X43736959Y-94185356D01*
X42917141Y-94733141D01*
X42369356Y-95552959D01*
X42177000Y-96520000D01*
X38702000Y-96520000D01*
X38702000Y-89020000D01*
X42177000Y-89020000D01*
X42369356Y-89987041D01*
X42917141Y-90806859D01*
X43736959Y-91354644D01*
X44704000Y-91547000D01*
X45671041Y-91354644D01*
X46490859Y-90806859D01*
X52078859Y-85218859D01*
X52626644Y-84399042D01*
X52819000Y-83432000D01*
X52819000Y-61455000D01*
X82550000Y-61455000D01*
X83517041Y-61262644D01*
X84336859Y-60714859D01*
X92486718Y-52565000D01*
X100299282Y-52565000D01*
X112259141Y-64524859D01*
X113078958Y-65072644D01*
X114046000Y-65265000D01*
X115013041Y-65072644D01*
X115832859Y-64524859D01*
X116380644Y-63705041D01*
X116573000Y-62738000D01*
X116380644Y-61770958D01*
X115832859Y-60951141D01*
X103132859Y-48251141D01*
X102313041Y-47703356D01*
X101346000Y-47511000D01*
X91440005Y-47511000D01*
X91440000Y-47510999D01*
X90472959Y-47703356D01*
X89653141Y-48251141D01*
X81503282Y-56401000D01*
X50292000Y-56401000D01*
X49324959Y-56593356D01*
X48879988Y-56890676D01*
X48792000Y-56890676D01*
X48596706Y-56927423D01*
X48417340Y-57042842D01*
X48297010Y-57218951D01*
X48254676Y-57428000D01*
X48254676Y-57515988D01*
X47957356Y-57960959D01*
X47765000Y-58928000D01*
X47765000Y-82385282D01*
X42917141Y-87233141D01*
X42369356Y-88052959D01*
X42177000Y-89020000D01*
X38702000Y-89020000D01*
X38702000Y-34822000D01*
X40888676Y-34822000D01*
X40888676Y-37822000D01*
X40925423Y-38017294D01*
X41040842Y-38196660D01*
X41216951Y-38316990D01*
X41426000Y-38359324D01*
X44426000Y-38359324D01*
X44621294Y-38322577D01*
X44800660Y-38207158D01*
X44920990Y-38031049D01*
X44963324Y-37822000D01*
X44963324Y-34822000D01*
X44926577Y-34626706D01*
X44811158Y-34447340D01*
X44635049Y-34327010D01*
X44426000Y-34284676D01*
X41426000Y-34284676D01*
X41230706Y-34321423D01*
X41051340Y-34436842D01*
X40931010Y-34612951D01*
X40888676Y-34822000D01*
X38702000Y-34822000D01*
X38702000Y-26384289D01*
X86223000Y-26384289D01*
X86223000Y-27463711D01*
X86339236Y-28048069D01*
X86670248Y-28543463D01*
X87165642Y-28874475D01*
X87750000Y-28990711D01*
X88334358Y-28874475D01*
X88829752Y-28543463D01*
X89160764Y-28048069D01*
X89277000Y-27463711D01*
X89277000Y-26924000D01*
X92723000Y-26924000D01*
X92915356Y-27891041D01*
X93463141Y-28710859D01*
X94282959Y-29258644D01*
X95250000Y-29451000D01*
X99203282Y-29451000D01*
X102273141Y-32520859D01*
X103092959Y-33068644D01*
X104060000Y-33261000D01*
X123476782Y-33261000D01*
X128283000Y-38067218D01*
X128283000Y-84731282D01*
X120133141Y-92881141D01*
X119585356Y-93700959D01*
X119393000Y-94668000D01*
X119393000Y-99568000D01*
X119585356Y-100535041D01*
X120133141Y-101354859D01*
X120952959Y-101902644D01*
X121920000Y-102095000D01*
X122887041Y-101902644D01*
X123706859Y-101354859D01*
X124254644Y-100535041D01*
X124447000Y-99568000D01*
X124447000Y-95714718D01*
X130810000Y-89351718D01*
X140665500Y-99207218D01*
X140665500Y-108648500D01*
X140857856Y-109615541D01*
X141405641Y-110435359D01*
X145990936Y-115020654D01*
X146001356Y-115073041D01*
X146549141Y-115892859D01*
X147368959Y-116440644D01*
X148336000Y-116633000D01*
X149303041Y-116440644D01*
X150122859Y-115892859D01*
X150670644Y-115073041D01*
X150863000Y-114106000D01*
X150863000Y-113792000D01*
X150670644Y-112824959D01*
X150670644Y-112824958D01*
X150122859Y-112005141D01*
X145719500Y-107601782D01*
X145719500Y-98160500D01*
X145713568Y-98130676D01*
X145527144Y-97193458D01*
X144979359Y-96373641D01*
X133337000Y-84731282D01*
X133337000Y-37020505D01*
X133337001Y-37020500D01*
X133144644Y-36053459D01*
X132596859Y-35233641D01*
X126310359Y-28947141D01*
X125490541Y-28399356D01*
X124523500Y-28207000D01*
X116573000Y-28207000D01*
X116573000Y-25342936D01*
X134120606Y-25342936D01*
X134466528Y-26180132D01*
X135106499Y-26821221D01*
X135943090Y-27168604D01*
X136848936Y-27169394D01*
X137686132Y-26823472D01*
X138327221Y-26183501D01*
X138674604Y-25346910D01*
X138675394Y-24441064D01*
X138329472Y-23603868D01*
X137689501Y-22962779D01*
X136852910Y-22615396D01*
X135947064Y-22614606D01*
X135109868Y-22960528D01*
X134468779Y-23600499D01*
X134121396Y-24437090D01*
X134120606Y-25342936D01*
X116573000Y-25342936D01*
X116573000Y-23622000D01*
X116380644Y-22654959D01*
X115832859Y-21835141D01*
X115013041Y-21287356D01*
X114046000Y-21095000D01*
X113078959Y-21287356D01*
X112259141Y-21835141D01*
X111711356Y-22654959D01*
X111519000Y-23622000D01*
X111519000Y-28207000D01*
X105106718Y-28207000D01*
X102036859Y-25137141D01*
X101217041Y-24589356D01*
X100250000Y-24397000D01*
X95250000Y-24397000D01*
X94282959Y-24589356D01*
X93463141Y-25137141D01*
X92915356Y-25956959D01*
X92723000Y-26924000D01*
X89277000Y-26924000D01*
X89277000Y-26384289D01*
X89160764Y-25799931D01*
X88829752Y-25304537D01*
X88334358Y-24973525D01*
X87750000Y-24857289D01*
X87165642Y-24973525D01*
X86670248Y-25304537D01*
X86339236Y-25799931D01*
X86223000Y-26384289D01*
X38702000Y-26384289D01*
X38702000Y-20922000D01*
X154338000Y-20922000D01*
X154338000Y-182278000D01*
X154338000Y-182278000D01*
G37*
X154338000Y-182278000D02*
X38702000Y-182278000D01*
X38702000Y-161480500D01*
X41732500Y-161480500D01*
X41732500Y-172275500D01*
X41924856Y-173242541D01*
X42472641Y-174062359D01*
X46473141Y-178062859D01*
X47292958Y-178610644D01*
X48260000Y-178803000D01*
X50920000Y-178803000D01*
X51887041Y-178610644D01*
X52706859Y-178062859D01*
X53254644Y-177243041D01*
X53447000Y-176276000D01*
X53339646Y-175736289D01*
X56893000Y-175736289D01*
X56893000Y-176815711D01*
X57009236Y-177400069D01*
X57340248Y-177895463D01*
X57835642Y-178226475D01*
X58420000Y-178342711D01*
X59004358Y-178226475D01*
X59499752Y-177895463D01*
X59830764Y-177400069D01*
X59947000Y-176815711D01*
X59947000Y-175736289D01*
X59830764Y-175151931D01*
X59499752Y-174656537D01*
X59004358Y-174325525D01*
X58420000Y-174209289D01*
X57835642Y-174325525D01*
X57340248Y-174656537D01*
X57009236Y-175151931D01*
X56893000Y-175736289D01*
X53339646Y-175736289D01*
X53254644Y-175308959D01*
X52706859Y-174489141D01*
X51887041Y-173941356D01*
X50920000Y-173749000D01*
X49306718Y-173749000D01*
X46786500Y-171228782D01*
X46786500Y-170937558D01*
X46981141Y-171228859D01*
X48227141Y-172474859D01*
X49046959Y-173022644D01*
X50014000Y-173215000D01*
X59659282Y-173215000D01*
X65777141Y-179332859D01*
X66596959Y-179880644D01*
X67564000Y-180073001D01*
X67564005Y-180073000D01*
X81534000Y-180073000D01*
X82501041Y-179880644D01*
X83320859Y-179332859D01*
X84590859Y-178062859D01*
X85138644Y-177243042D01*
X85331000Y-176276000D01*
X85331000Y-175736289D01*
X88777000Y-175736289D01*
X88777000Y-176815711D01*
X88893236Y-177400069D01*
X89224248Y-177895463D01*
X89719642Y-178226475D01*
X90304000Y-178342711D01*
X90888358Y-178226475D01*
X91383752Y-177895463D01*
X91714764Y-177400069D01*
X91831000Y-176815711D01*
X91831000Y-175736289D01*
X91714764Y-175151931D01*
X91383752Y-174656537D01*
X90888358Y-174325525D01*
X90304000Y-174209289D01*
X89719642Y-174325525D01*
X89224248Y-174656537D01*
X88893236Y-175151931D01*
X88777000Y-175736289D01*
X85331000Y-175736289D01*
X85331000Y-165354005D01*
X85331001Y-165354000D01*
X85331000Y-165353995D01*
X85331000Y-157510718D01*
X93663718Y-149178000D01*
X98311000Y-149178000D01*
X98311000Y-177546000D01*
X98503356Y-178513041D01*
X99051141Y-179332859D01*
X99870959Y-179880644D01*
X100838000Y-180073000D01*
X101805041Y-179880644D01*
X102624859Y-179332859D01*
X103172644Y-178513041D01*
X103365000Y-177546000D01*
X103365000Y-162306000D01*
X112027000Y-162306000D01*
X112087000Y-162607641D01*
X112087000Y-176276000D01*
X112279356Y-177243041D01*
X112827141Y-178062859D01*
X113646959Y-178610644D01*
X114614000Y-178803000D01*
X115581041Y-178610644D01*
X116400859Y-178062859D01*
X116948644Y-177243041D01*
X117141000Y-176276000D01*
X117141000Y-175736289D01*
X120587000Y-175736289D01*
X120587000Y-176815711D01*
X120703236Y-177400069D01*
X121034248Y-177895463D01*
X121529642Y-178226475D01*
X122114000Y-178342711D01*
X122698358Y-178226475D01*
X123193752Y-177895463D01*
X123524764Y-177400069D01*
X123641000Y-176815711D01*
X123641000Y-175736289D01*
X123524764Y-175151931D01*
X123193752Y-174656537D01*
X122698358Y-174325525D01*
X122114000Y-174209289D01*
X121529642Y-174325525D01*
X121034248Y-174656537D01*
X120703236Y-175151931D01*
X120587000Y-175736289D01*
X117141000Y-175736289D01*
X117141000Y-163292718D01*
X118140718Y-162293000D01*
X118741476Y-162293000D01*
X118355141Y-162551141D01*
X117807356Y-163370959D01*
X117615000Y-164338000D01*
X117615000Y-167386000D01*
X117807356Y-168353041D01*
X118355141Y-169172859D01*
X119879141Y-170696859D01*
X120698958Y-171244644D01*
X121666000Y-171437000D01*
X127254000Y-171437000D01*
X128221041Y-171244644D01*
X129040859Y-170696859D01*
X131834859Y-167902859D01*
X132382644Y-167083041D01*
X132575000Y-166116000D01*
X132575000Y-155528000D01*
X132382644Y-154560959D01*
X132382644Y-154560958D01*
X131834859Y-153741141D01*
X131500859Y-153407141D01*
X130681041Y-152859356D01*
X129714000Y-152667000D01*
X124714000Y-152667000D01*
X123746959Y-152859356D01*
X122927141Y-153407141D01*
X122669000Y-153793476D01*
X122669000Y-151390718D01*
X122688718Y-151371000D01*
X128016000Y-151371000D01*
X128983041Y-151178644D01*
X129802859Y-150630859D01*
X138460718Y-141973000D01*
X138807476Y-141973000D01*
X138421141Y-142231141D01*
X137873356Y-143050959D01*
X137681000Y-144018000D01*
X137681000Y-155194000D01*
X137873356Y-156161041D01*
X138421141Y-156980859D01*
X138807476Y-157239000D01*
X136906000Y-157239000D01*
X135938958Y-157431356D01*
X135119141Y-157979141D01*
X133849141Y-159249141D01*
X133301356Y-160068959D01*
X133109000Y-161036000D01*
X133109000Y-174175191D01*
X132639141Y-174489141D01*
X132091356Y-175308959D01*
X131899000Y-176276000D01*
X132091356Y-177243041D01*
X132639141Y-178062859D01*
X133458959Y-178610644D01*
X134426000Y-178803000D01*
X134620000Y-178803000D01*
X135587041Y-178610644D01*
X136406859Y-178062859D01*
X137422859Y-177046859D01*
X137970644Y-176227041D01*
X138068260Y-175736289D01*
X140399000Y-175736289D01*
X140399000Y-176815711D01*
X140515236Y-177400069D01*
X140846248Y-177895463D01*
X141341642Y-178226475D01*
X141926000Y-178342711D01*
X142510358Y-178226475D01*
X143005752Y-177895463D01*
X143336764Y-177400069D01*
X143453000Y-176815711D01*
X143453000Y-175736289D01*
X143336764Y-175151931D01*
X143005752Y-174656537D01*
X142510358Y-174325525D01*
X141926000Y-174209289D01*
X141341642Y-174325525D01*
X140846248Y-174656537D01*
X140515236Y-175151931D01*
X140399000Y-175736289D01*
X138068260Y-175736289D01*
X138163000Y-175260000D01*
X138163000Y-164338000D01*
X138651084Y-164338000D01*
X138755902Y-164864955D01*
X139054398Y-165311686D01*
X139501129Y-165610182D01*
X140028084Y-165715000D01*
X140387916Y-165715000D01*
X140914871Y-165610182D01*
X141361602Y-165311686D01*
X141660098Y-164864955D01*
X141764916Y-164338000D01*
X141660098Y-163811045D01*
X141361602Y-163364314D01*
X140914871Y-163065818D01*
X140387916Y-162961000D01*
X140028084Y-162961000D01*
X139501129Y-163065818D01*
X139054398Y-163364314D01*
X138755902Y-163811045D01*
X138651084Y-164338000D01*
X138163000Y-164338000D01*
X138163000Y-162293000D01*
X140208000Y-162293000D01*
X141175041Y-162100644D01*
X141994859Y-161552859D01*
X142542644Y-160733041D01*
X142735000Y-159766000D01*
X143223084Y-159766000D01*
X143327902Y-160292955D01*
X143626398Y-160739686D01*
X144073129Y-161038182D01*
X144600084Y-161143000D01*
X144959916Y-161143000D01*
X145486871Y-161038182D01*
X145933602Y-160739686D01*
X146232098Y-160292955D01*
X146336916Y-159766000D01*
X146232098Y-159239045D01*
X145933602Y-158792314D01*
X145486871Y-158493818D01*
X144959916Y-158389000D01*
X144600084Y-158389000D01*
X144073129Y-158493818D01*
X143626398Y-158792314D01*
X143327902Y-159239045D01*
X143223084Y-159766000D01*
X142735000Y-159766000D01*
X142542644Y-158798959D01*
X141994859Y-157979141D01*
X141247842Y-157480000D01*
X141994859Y-156980859D01*
X142542644Y-156161041D01*
X142735000Y-155194000D01*
X142735000Y-154344000D01*
X143242676Y-154344000D01*
X143242676Y-156044000D01*
X143279423Y-156239294D01*
X143394842Y-156418660D01*
X143570951Y-156538990D01*
X143780000Y-156581324D01*
X145780000Y-156581324D01*
X145975294Y-156544577D01*
X146154660Y-156429158D01*
X146274990Y-156253049D01*
X146317324Y-156044000D01*
X146317324Y-154344000D01*
X146280577Y-154148706D01*
X146165158Y-153969340D01*
X145989049Y-153849010D01*
X145780000Y-153806676D01*
X143780000Y-153806676D01*
X143584706Y-153843423D01*
X143405340Y-153958842D01*
X143285010Y-154134951D01*
X143242676Y-154344000D01*
X142735000Y-154344000D01*
X142735000Y-146545000D01*
X149067282Y-146545000D01*
X149111000Y-146588718D01*
X149111000Y-161433282D01*
X148733282Y-161811000D01*
X144780000Y-161811000D01*
X143812959Y-162003356D01*
X142993141Y-162551141D01*
X142445356Y-163370959D01*
X142253000Y-164338000D01*
X142445356Y-165305041D01*
X142993141Y-166124859D01*
X143812959Y-166672644D01*
X144780000Y-166865000D01*
X149780000Y-166865000D01*
X150747041Y-166672644D01*
X151566859Y-166124859D01*
X153424859Y-164266859D01*
X153972644Y-163447041D01*
X154165000Y-162480000D01*
X154165000Y-145542000D01*
X153972644Y-144574959D01*
X153972644Y-144574958D01*
X153424859Y-143755141D01*
X151900859Y-142231141D01*
X151081041Y-141683356D01*
X150114000Y-141491000D01*
X144148524Y-141491000D01*
X144534859Y-141232859D01*
X145082644Y-140413041D01*
X145275000Y-139446000D01*
X145082644Y-138478959D01*
X144534859Y-137659141D01*
X143715041Y-137111356D01*
X142748000Y-136919000D01*
X137414000Y-136919000D01*
X136446959Y-137111356D01*
X135627141Y-137659141D01*
X126969282Y-146317000D01*
X121642000Y-146317000D01*
X120674958Y-146509356D01*
X119855141Y-147057141D01*
X118355141Y-148557141D01*
X117807356Y-149376959D01*
X117615000Y-150344000D01*
X117615000Y-155194000D01*
X117807356Y-156161041D01*
X118355141Y-156980859D01*
X118741476Y-157239000D01*
X117094000Y-157239000D01*
X116126958Y-157431356D01*
X115307141Y-157979141D01*
X112767141Y-160519141D01*
X112219356Y-161338959D01*
X112027000Y-162306000D01*
X103365000Y-162306000D01*
X103365000Y-150224718D01*
X110421718Y-143168000D01*
X118604676Y-143168000D01*
X118604676Y-144868000D01*
X118641423Y-145063294D01*
X118756842Y-145242660D01*
X118932951Y-145362990D01*
X119142000Y-145405324D01*
X121142000Y-145405324D01*
X121337294Y-145368577D01*
X121516660Y-145253158D01*
X121636990Y-145077049D01*
X121679324Y-144868000D01*
X121679324Y-143168000D01*
X123176676Y-143168000D01*
X123176676Y-144868000D01*
X123213423Y-145063294D01*
X123328842Y-145242660D01*
X123504951Y-145362990D01*
X123714000Y-145405324D01*
X125714000Y-145405324D01*
X125909294Y-145368577D01*
X126088660Y-145253158D01*
X126208990Y-145077049D01*
X126251324Y-144868000D01*
X126251324Y-143168000D01*
X126214577Y-142972706D01*
X126099158Y-142793340D01*
X125923049Y-142673010D01*
X125714000Y-142630676D01*
X123714000Y-142630676D01*
X123518706Y-142667423D01*
X123339340Y-142782842D01*
X123219010Y-142958951D01*
X123176676Y-143168000D01*
X121679324Y-143168000D01*
X121642577Y-142972706D01*
X121527158Y-142793340D01*
X121351049Y-142673010D01*
X121142000Y-142630676D01*
X119142000Y-142630676D01*
X118946706Y-142667423D01*
X118767340Y-142782842D01*
X118647010Y-142958951D01*
X118604676Y-143168000D01*
X110421718Y-143168000D01*
X114143718Y-139446000D01*
X118585084Y-139446000D01*
X118689902Y-139972955D01*
X118988398Y-140419686D01*
X119435129Y-140718182D01*
X119962084Y-140823000D01*
X120321916Y-140823000D01*
X120848871Y-140718182D01*
X121295602Y-140419686D01*
X121594098Y-139972955D01*
X121698916Y-139446000D01*
X123157084Y-139446000D01*
X123261902Y-139972955D01*
X123560398Y-140419686D01*
X124007129Y-140718182D01*
X124534084Y-140823000D01*
X124893916Y-140823000D01*
X125420871Y-140718182D01*
X125867602Y-140419686D01*
X126166098Y-139972955D01*
X126270916Y-139446000D01*
X126166098Y-138919045D01*
X125867602Y-138472314D01*
X125420871Y-138173818D01*
X124893916Y-138069000D01*
X124534084Y-138069000D01*
X124007129Y-138173818D01*
X123560398Y-138472314D01*
X123261902Y-138919045D01*
X123157084Y-139446000D01*
X121698916Y-139446000D01*
X121594098Y-138919045D01*
X121295602Y-138472314D01*
X120848871Y-138173818D01*
X120321916Y-138069000D01*
X119962084Y-138069000D01*
X119435129Y-138173818D01*
X118988398Y-138472314D01*
X118689902Y-138919045D01*
X118585084Y-139446000D01*
X114143718Y-139446000D01*
X116188718Y-137401000D01*
X120142000Y-137401000D01*
X121109041Y-137208644D01*
X121928859Y-136660859D01*
X122476644Y-135841041D01*
X122669000Y-134874000D01*
X123157084Y-134874000D01*
X123261902Y-135400955D01*
X123560398Y-135847686D01*
X124007129Y-136146182D01*
X124534084Y-136251000D01*
X124893916Y-136251000D01*
X125420871Y-136146182D01*
X125867602Y-135847686D01*
X126166098Y-135400955D01*
X126270916Y-134874000D01*
X126166098Y-134347045D01*
X125983656Y-134074000D01*
X141260676Y-134074000D01*
X141260676Y-135674000D01*
X141297423Y-135869294D01*
X141412842Y-136048660D01*
X141588951Y-136168990D01*
X141798000Y-136211324D01*
X143698000Y-136211324D01*
X143893294Y-136174577D01*
X144072660Y-136059158D01*
X144192990Y-135883049D01*
X144235324Y-135674000D01*
X144235324Y-134074000D01*
X144198577Y-133878706D01*
X144083158Y-133699340D01*
X143907049Y-133579010D01*
X143698000Y-133536676D01*
X141798000Y-133536676D01*
X141602706Y-133573423D01*
X141423340Y-133688842D01*
X141303010Y-133864951D01*
X141260676Y-134074000D01*
X125983656Y-134074000D01*
X125867602Y-133900314D01*
X125420871Y-133601818D01*
X124893916Y-133497000D01*
X124534084Y-133497000D01*
X124007129Y-133601818D01*
X123560398Y-133900314D01*
X123261902Y-134347045D01*
X123157084Y-134874000D01*
X122669000Y-134874000D01*
X122476644Y-133906959D01*
X121928859Y-133087141D01*
X121109041Y-132539356D01*
X120142000Y-132347000D01*
X115142000Y-132347000D01*
X114174959Y-132539356D01*
X113355141Y-133087141D01*
X99051141Y-147391141D01*
X98503356Y-148210959D01*
X98311000Y-149178000D01*
X93663718Y-149178000D01*
X113314718Y-129527000D01*
X121920000Y-129527000D01*
X122887041Y-129334644D01*
X123706859Y-128786859D01*
X124254644Y-127967041D01*
X124447000Y-127000000D01*
X124254644Y-126032959D01*
X123706859Y-125213141D01*
X122887041Y-124665356D01*
X121920000Y-124473000D01*
X112268000Y-124473000D01*
X111300958Y-124665356D01*
X110481141Y-125213141D01*
X81017141Y-154677141D01*
X80469356Y-155496959D01*
X80277000Y-156464000D01*
X80277000Y-159253282D01*
X74684859Y-153661141D01*
X73865041Y-153113356D01*
X72898000Y-152921000D01*
X53340000Y-152921000D01*
X52372959Y-153113356D01*
X51553141Y-153661141D01*
X51005356Y-154480959D01*
X50813000Y-155448000D01*
X51005356Y-156415041D01*
X51553141Y-157234859D01*
X52372959Y-157782644D01*
X53340000Y-157975000D01*
X71851282Y-157975000D01*
X80277000Y-166400718D01*
X80277000Y-175019000D01*
X68610718Y-175019000D01*
X65324321Y-171732603D01*
X70708752Y-171732603D01*
X70925543Y-172257275D01*
X71326614Y-172659047D01*
X71850907Y-172876752D01*
X72418603Y-172877248D01*
X72943275Y-172660457D01*
X73345047Y-172259386D01*
X73562752Y-171735093D01*
X73563248Y-171167397D01*
X73346457Y-170642725D01*
X72945386Y-170240953D01*
X72421093Y-170023248D01*
X71853397Y-170022752D01*
X71328725Y-170239543D01*
X70926953Y-170640614D01*
X70709248Y-171164907D01*
X70708752Y-171732603D01*
X65324321Y-171732603D01*
X62492859Y-168901141D01*
X61673041Y-168353356D01*
X60706000Y-168161000D01*
X51295000Y-168161000D01*
X51295000Y-164592000D01*
X51783084Y-164592000D01*
X51887902Y-165118955D01*
X52186398Y-165565686D01*
X52633129Y-165864182D01*
X53160084Y-165969000D01*
X53519916Y-165969000D01*
X54046871Y-165864182D01*
X54493602Y-165565686D01*
X54792098Y-165118955D01*
X54896916Y-164592000D01*
X54792098Y-164065045D01*
X54493602Y-163618314D01*
X54046871Y-163319818D01*
X53519916Y-163215000D01*
X53160084Y-163215000D01*
X52633129Y-163319818D01*
X52186398Y-163618314D01*
X51887902Y-164065045D01*
X51783084Y-164592000D01*
X51295000Y-164592000D01*
X51102644Y-163624959D01*
X50554859Y-162805141D01*
X49807842Y-162306000D01*
X50554859Y-161806859D01*
X51102644Y-160987041D01*
X51295000Y-160020000D01*
X51783084Y-160020000D01*
X51887902Y-160546955D01*
X52186398Y-160993686D01*
X52633129Y-161292182D01*
X53160084Y-161397000D01*
X53519916Y-161397000D01*
X54046871Y-161292182D01*
X54493602Y-160993686D01*
X54792098Y-160546955D01*
X54896916Y-160020000D01*
X54792098Y-159493045D01*
X54493602Y-159046314D01*
X54046871Y-158747818D01*
X53519916Y-158643000D01*
X53160084Y-158643000D01*
X52633129Y-158747818D01*
X52186398Y-159046314D01*
X51887902Y-159493045D01*
X51783084Y-160020000D01*
X51295000Y-160020000D01*
X51102644Y-159052959D01*
X50554859Y-158233141D01*
X49735041Y-157685356D01*
X48768000Y-157493000D01*
X45720000Y-157493000D01*
X44752959Y-157685356D01*
X43933141Y-158233141D01*
X42472641Y-159693641D01*
X41924856Y-160513459D01*
X41732500Y-161480500D01*
X38702000Y-161480500D01*
X38702000Y-154598000D01*
X47230676Y-154598000D01*
X47230676Y-156298000D01*
X47267423Y-156493294D01*
X47382842Y-156672660D01*
X47558951Y-156792990D01*
X47768000Y-156835324D01*
X49768000Y-156835324D01*
X49963294Y-156798577D01*
X50142660Y-156683158D01*
X50262990Y-156507049D01*
X50305324Y-156298000D01*
X50305324Y-154598000D01*
X50268577Y-154402706D01*
X50153158Y-154223340D01*
X49977049Y-154103010D01*
X49768000Y-154060676D01*
X47768000Y-154060676D01*
X47572706Y-154097423D01*
X47393340Y-154212842D01*
X47273010Y-154388951D01*
X47230676Y-154598000D01*
X38702000Y-154598000D01*
X38702000Y-143422000D01*
X47230676Y-143422000D01*
X47230676Y-145122000D01*
X47267423Y-145317294D01*
X47382842Y-145496660D01*
X47558951Y-145616990D01*
X47768000Y-145659324D01*
X49768000Y-145659324D01*
X49963294Y-145622577D01*
X50142660Y-145507158D01*
X50262990Y-145331049D01*
X50305324Y-145122000D01*
X50305324Y-144272000D01*
X50813000Y-144272000D01*
X51005356Y-145239041D01*
X51553141Y-146058859D01*
X52372959Y-146606644D01*
X53340000Y-146799000D01*
X66137711Y-146799000D01*
X67104752Y-146606644D01*
X67924570Y-146058859D01*
X71496983Y-142486446D01*
X80784562Y-142486446D01*
X81168464Y-143415561D01*
X81878700Y-144127037D01*
X82807143Y-144512561D01*
X83812446Y-144513438D01*
X84741561Y-144129536D01*
X85453037Y-143419300D01*
X85453477Y-143418241D01*
X112806718Y-116065000D01*
X133721282Y-116065000D01*
X141049141Y-123392859D01*
X141868959Y-123940644D01*
X142836000Y-124133000D01*
X148336000Y-124133000D01*
X149303041Y-123940644D01*
X150122859Y-123392859D01*
X150670644Y-122573041D01*
X150863000Y-121606000D01*
X150670644Y-120638959D01*
X150122859Y-119819141D01*
X149303041Y-119271356D01*
X148336000Y-119079000D01*
X143882718Y-119079000D01*
X136554859Y-111751141D01*
X135735041Y-111203356D01*
X134768000Y-111011000D01*
X111760000Y-111011000D01*
X110792958Y-111203356D01*
X109973141Y-111751141D01*
X81526127Y-140198155D01*
X81170963Y-140552700D01*
X80785439Y-141481143D01*
X80784562Y-142486446D01*
X71496983Y-142486446D01*
X73788429Y-140195000D01*
X78232000Y-140195000D01*
X79199041Y-140002644D01*
X80018859Y-139454859D01*
X97227359Y-122246359D01*
X97775144Y-121426541D01*
X97967500Y-120459500D01*
X97967500Y-102640000D01*
X134360676Y-102640000D01*
X134360676Y-105640000D01*
X134397423Y-105835294D01*
X134512842Y-106014660D01*
X134688951Y-106134990D01*
X134898000Y-106177324D01*
X137898000Y-106177324D01*
X138093294Y-106140577D01*
X138272660Y-106025158D01*
X138392990Y-105849049D01*
X138435324Y-105640000D01*
X138435324Y-102640000D01*
X138398577Y-102444706D01*
X138283158Y-102265340D01*
X138107049Y-102145010D01*
X137898000Y-102102676D01*
X134898000Y-102102676D01*
X134702706Y-102139423D01*
X134523340Y-102254842D01*
X134403010Y-102430951D01*
X134360676Y-102640000D01*
X97967500Y-102640000D01*
X97967500Y-96798000D01*
X98800676Y-96798000D01*
X98800676Y-99798000D01*
X98837423Y-99993294D01*
X98952842Y-100172660D01*
X99128951Y-100292990D01*
X99338000Y-100335324D01*
X102338000Y-100335324D01*
X102533294Y-100298577D01*
X102712660Y-100183158D01*
X102832990Y-100007049D01*
X102875324Y-99798000D01*
X102875324Y-96798000D01*
X102838577Y-96602706D01*
X102723158Y-96423340D01*
X102547049Y-96303010D01*
X102338000Y-96260676D01*
X99338000Y-96260676D01*
X99142706Y-96297423D01*
X98963340Y-96412842D01*
X98843010Y-96588951D01*
X98800676Y-96798000D01*
X97967500Y-96798000D01*
X97967500Y-93502718D01*
X103281718Y-88188500D01*
X118300500Y-88188500D01*
X119267541Y-87996144D01*
X120087359Y-87448359D01*
X125230859Y-82304859D01*
X125778644Y-81485042D01*
X125971000Y-80518000D01*
X125971000Y-58420000D01*
X125778644Y-57452959D01*
X125230859Y-56633141D01*
X104882858Y-36285140D01*
X104063040Y-35737355D01*
X103095999Y-35544999D01*
X88902717Y-35544999D01*
X87892859Y-34535141D01*
X87073041Y-33987356D01*
X86106000Y-33795000D01*
X85138959Y-33987356D01*
X84319141Y-34535141D01*
X83771356Y-35354959D01*
X83579000Y-36322000D01*
X83771356Y-37289041D01*
X84319141Y-38108859D01*
X86069140Y-39858858D01*
X86888957Y-40406643D01*
X87855999Y-40598999D01*
X102049281Y-40598999D01*
X120917000Y-59466718D01*
X120917000Y-79471282D01*
X117253782Y-83134500D01*
X102235000Y-83134500D01*
X101267959Y-83326856D01*
X100448141Y-83874641D01*
X93653641Y-90669141D01*
X93105856Y-91488959D01*
X92913500Y-92456000D01*
X92913500Y-119412782D01*
X77185282Y-135141000D01*
X72741711Y-135141000D01*
X71774669Y-135333356D01*
X70954852Y-135881141D01*
X65090993Y-141745000D01*
X53340000Y-141745000D01*
X52372959Y-141937356D01*
X51553141Y-142485141D01*
X51005356Y-143304959D01*
X50813000Y-144272000D01*
X50305324Y-144272000D01*
X50305324Y-143422000D01*
X50268577Y-143226706D01*
X50153158Y-143047340D01*
X49977049Y-142927010D01*
X49768000Y-142884676D01*
X47768000Y-142884676D01*
X47572706Y-142921423D01*
X47393340Y-143036842D01*
X47273010Y-143212951D01*
X47230676Y-143422000D01*
X38702000Y-143422000D01*
X38702000Y-139700000D01*
X47211084Y-139700000D01*
X47315902Y-140226955D01*
X47614398Y-140673686D01*
X48061129Y-140972182D01*
X48588084Y-141077000D01*
X48947916Y-141077000D01*
X49474871Y-140972182D01*
X49921602Y-140673686D01*
X50220098Y-140226955D01*
X50324916Y-139700000D01*
X51783084Y-139700000D01*
X51887902Y-140226955D01*
X52186398Y-140673686D01*
X52633129Y-140972182D01*
X53160084Y-141077000D01*
X53519916Y-141077000D01*
X54046871Y-140972182D01*
X54493602Y-140673686D01*
X54792098Y-140226955D01*
X54896916Y-139700000D01*
X54792098Y-139173045D01*
X54493602Y-138726314D01*
X54046871Y-138427818D01*
X53519916Y-138323000D01*
X53160084Y-138323000D01*
X52633129Y-138427818D01*
X52186398Y-138726314D01*
X51887902Y-139173045D01*
X51783084Y-139700000D01*
X50324916Y-139700000D01*
X50220098Y-139173045D01*
X49921602Y-138726314D01*
X49474871Y-138427818D01*
X48947916Y-138323000D01*
X48588084Y-138323000D01*
X48061129Y-138427818D01*
X47614398Y-138726314D01*
X47315902Y-139173045D01*
X47211084Y-139700000D01*
X38702000Y-139700000D01*
X38702000Y-131889500D01*
X46241000Y-131889500D01*
X46241000Y-135128000D01*
X46433356Y-136095041D01*
X46981141Y-136914859D01*
X47800959Y-137462644D01*
X48768000Y-137655000D01*
X49735041Y-137462644D01*
X50554859Y-136914859D01*
X51102644Y-136095041D01*
X51295000Y-135128000D01*
X51783084Y-135128000D01*
X51887902Y-135654955D01*
X52186398Y-136101686D01*
X52633129Y-136400182D01*
X53160084Y-136505000D01*
X53519916Y-136505000D01*
X54046871Y-136400182D01*
X54493602Y-136101686D01*
X54792098Y-135654955D01*
X54896916Y-135128000D01*
X54792098Y-134601045D01*
X54493602Y-134154314D01*
X54046871Y-133855818D01*
X53519916Y-133751000D01*
X53160084Y-133751000D01*
X52633129Y-133855818D01*
X52186398Y-134154314D01*
X51887902Y-134601045D01*
X51783084Y-135128000D01*
X51295000Y-135128000D01*
X51295000Y-132936218D01*
X51719718Y-132511500D01*
X59753500Y-132511500D01*
X60720541Y-132319144D01*
X61540359Y-131771359D01*
X64279718Y-129032000D01*
X69609000Y-129032000D01*
X69609000Y-132334000D01*
X69801356Y-133301041D01*
X70349141Y-134120859D01*
X71168959Y-134668644D01*
X72136000Y-134861000D01*
X73103041Y-134668644D01*
X73922859Y-134120859D01*
X74470644Y-133301041D01*
X74663000Y-132334000D01*
X74663000Y-130078718D01*
X83066859Y-121674859D01*
X83614644Y-120855041D01*
X83807000Y-119888000D01*
X83614644Y-118920959D01*
X83066859Y-118101141D01*
X82247041Y-117553356D01*
X81280000Y-117361000D01*
X80312959Y-117553356D01*
X79493141Y-118101141D01*
X70349141Y-127245141D01*
X69801356Y-128064959D01*
X69609000Y-129032000D01*
X64279718Y-129032000D01*
X76526359Y-116785359D01*
X77074144Y-115965542D01*
X77266500Y-114998500D01*
X77266500Y-105186718D01*
X95258859Y-87194359D01*
X95806644Y-86374541D01*
X95999001Y-85407500D01*
X95999000Y-85407495D01*
X95999000Y-58928000D01*
X95806644Y-57960959D01*
X95258859Y-57141141D01*
X94439041Y-56593356D01*
X93472000Y-56401000D01*
X92504959Y-56593356D01*
X91685141Y-57141141D01*
X91137356Y-57960959D01*
X90945000Y-58928000D01*
X90945000Y-84360782D01*
X72952641Y-102353141D01*
X72404856Y-103172959D01*
X72212500Y-104140000D01*
X72212500Y-113951782D01*
X58706782Y-127457500D01*
X50673000Y-127457500D01*
X49705959Y-127649856D01*
X48886141Y-128197641D01*
X46981141Y-130102641D01*
X46433356Y-130922459D01*
X46241000Y-131889500D01*
X38702000Y-131889500D01*
X38702000Y-119888000D01*
X39637000Y-119888000D01*
X39829356Y-120855041D01*
X40377141Y-121674859D01*
X41196959Y-122222644D01*
X42164000Y-122415000D01*
X47064000Y-122415000D01*
X48031041Y-122222644D01*
X48850859Y-121674859D01*
X62937359Y-107588359D01*
X63485144Y-106768542D01*
X63598113Y-106200603D01*
X67660752Y-106200603D01*
X67877543Y-106725275D01*
X68278614Y-107127047D01*
X68802907Y-107344752D01*
X69370603Y-107345248D01*
X69895275Y-107128457D01*
X70297047Y-106727386D01*
X70514752Y-106203093D01*
X70515248Y-105635397D01*
X70298457Y-105110725D01*
X69897386Y-104708953D01*
X69373093Y-104491248D01*
X68805397Y-104490752D01*
X68280725Y-104707543D01*
X67878953Y-105108614D01*
X67661248Y-105632907D01*
X67660752Y-106200603D01*
X63598113Y-106200603D01*
X63677500Y-105801500D01*
X63677500Y-96233218D01*
X70874859Y-89035859D01*
X71422644Y-88216041D01*
X71615000Y-87249000D01*
X71615000Y-78486000D01*
X71422644Y-77518959D01*
X70874859Y-76699141D01*
X70055041Y-76151356D01*
X69088000Y-75959000D01*
X68120959Y-76151356D01*
X67301141Y-76699141D01*
X66753356Y-77518959D01*
X66561000Y-78486000D01*
X66561000Y-86202282D01*
X59363641Y-93399641D01*
X58815856Y-94219459D01*
X58623500Y-95186500D01*
X58623500Y-104754782D01*
X46017282Y-117361000D01*
X42164000Y-117361000D01*
X41196959Y-117553356D01*
X40377141Y-118101141D01*
X39829356Y-118920959D01*
X39637000Y-119888000D01*
X38702000Y-119888000D01*
X38702000Y-96520000D01*
X42177000Y-96520000D01*
X42369356Y-97487041D01*
X42917141Y-98306859D01*
X43736959Y-98854644D01*
X44704000Y-99047000D01*
X49655260Y-99047000D01*
X49974500Y-99110501D01*
X50941542Y-98918144D01*
X51761359Y-98370359D01*
X58428859Y-91702859D01*
X58976644Y-90883041D01*
X59169000Y-89916000D01*
X59169000Y-84549218D01*
X71150718Y-72567500D01*
X77703782Y-72567500D01*
X81801000Y-76664718D01*
X81801000Y-80518000D01*
X81993356Y-81485041D01*
X82541141Y-82304859D01*
X83360959Y-82852644D01*
X84328000Y-83045000D01*
X85295041Y-82852644D01*
X86114859Y-82304859D01*
X86662644Y-81485041D01*
X86855000Y-80518000D01*
X86855000Y-75618000D01*
X86662644Y-74650959D01*
X86114859Y-73831141D01*
X80537359Y-68253641D01*
X79717541Y-67705856D01*
X78750500Y-67513500D01*
X70104000Y-67513500D01*
X69136959Y-67705856D01*
X68317141Y-68253641D01*
X54855141Y-81715641D01*
X54307356Y-82535459D01*
X54115000Y-83502500D01*
X54115000Y-88869282D01*
X48991282Y-93993000D01*
X44704000Y-93993000D01*
X43736959Y-94185356D01*
X42917141Y-94733141D01*
X42369356Y-95552959D01*
X42177000Y-96520000D01*
X38702000Y-96520000D01*
X38702000Y-89020000D01*
X42177000Y-89020000D01*
X42369356Y-89987041D01*
X42917141Y-90806859D01*
X43736959Y-91354644D01*
X44704000Y-91547000D01*
X45671041Y-91354644D01*
X46490859Y-90806859D01*
X52078859Y-85218859D01*
X52626644Y-84399042D01*
X52819000Y-83432000D01*
X52819000Y-61455000D01*
X82550000Y-61455000D01*
X83517041Y-61262644D01*
X84336859Y-60714859D01*
X92486718Y-52565000D01*
X100299282Y-52565000D01*
X112259141Y-64524859D01*
X113078958Y-65072644D01*
X114046000Y-65265000D01*
X115013041Y-65072644D01*
X115832859Y-64524859D01*
X116380644Y-63705041D01*
X116573000Y-62738000D01*
X116380644Y-61770958D01*
X115832859Y-60951141D01*
X103132859Y-48251141D01*
X102313041Y-47703356D01*
X101346000Y-47511000D01*
X91440005Y-47511000D01*
X91440000Y-47510999D01*
X90472959Y-47703356D01*
X89653141Y-48251141D01*
X81503282Y-56401000D01*
X50292000Y-56401000D01*
X49324959Y-56593356D01*
X48879988Y-56890676D01*
X48792000Y-56890676D01*
X48596706Y-56927423D01*
X48417340Y-57042842D01*
X48297010Y-57218951D01*
X48254676Y-57428000D01*
X48254676Y-57515988D01*
X47957356Y-57960959D01*
X47765000Y-58928000D01*
X47765000Y-82385282D01*
X42917141Y-87233141D01*
X42369356Y-88052959D01*
X42177000Y-89020000D01*
X38702000Y-89020000D01*
X38702000Y-34822000D01*
X40888676Y-34822000D01*
X40888676Y-37822000D01*
X40925423Y-38017294D01*
X41040842Y-38196660D01*
X41216951Y-38316990D01*
X41426000Y-38359324D01*
X44426000Y-38359324D01*
X44621294Y-38322577D01*
X44800660Y-38207158D01*
X44920990Y-38031049D01*
X44963324Y-37822000D01*
X44963324Y-34822000D01*
X44926577Y-34626706D01*
X44811158Y-34447340D01*
X44635049Y-34327010D01*
X44426000Y-34284676D01*
X41426000Y-34284676D01*
X41230706Y-34321423D01*
X41051340Y-34436842D01*
X40931010Y-34612951D01*
X40888676Y-34822000D01*
X38702000Y-34822000D01*
X38702000Y-26384289D01*
X86223000Y-26384289D01*
X86223000Y-27463711D01*
X86339236Y-28048069D01*
X86670248Y-28543463D01*
X87165642Y-28874475D01*
X87750000Y-28990711D01*
X88334358Y-28874475D01*
X88829752Y-28543463D01*
X89160764Y-28048069D01*
X89277000Y-27463711D01*
X89277000Y-26924000D01*
X92723000Y-26924000D01*
X92915356Y-27891041D01*
X93463141Y-28710859D01*
X94282959Y-29258644D01*
X95250000Y-29451000D01*
X99203282Y-29451000D01*
X102273141Y-32520859D01*
X103092959Y-33068644D01*
X104060000Y-33261000D01*
X123476782Y-33261000D01*
X128283000Y-38067218D01*
X128283000Y-84731282D01*
X120133141Y-92881141D01*
X119585356Y-93700959D01*
X119393000Y-94668000D01*
X119393000Y-99568000D01*
X119585356Y-100535041D01*
X120133141Y-101354859D01*
X120952959Y-101902644D01*
X121920000Y-102095000D01*
X122887041Y-101902644D01*
X123706859Y-101354859D01*
X124254644Y-100535041D01*
X124447000Y-99568000D01*
X124447000Y-95714718D01*
X130810000Y-89351718D01*
X140665500Y-99207218D01*
X140665500Y-108648500D01*
X140857856Y-109615541D01*
X141405641Y-110435359D01*
X145990936Y-115020654D01*
X146001356Y-115073041D01*
X146549141Y-115892859D01*
X147368959Y-116440644D01*
X148336000Y-116633000D01*
X149303041Y-116440644D01*
X150122859Y-115892859D01*
X150670644Y-115073041D01*
X150863000Y-114106000D01*
X150863000Y-113792000D01*
X150670644Y-112824959D01*
X150670644Y-112824958D01*
X150122859Y-112005141D01*
X145719500Y-107601782D01*
X145719500Y-98160500D01*
X145713568Y-98130676D01*
X145527144Y-97193458D01*
X144979359Y-96373641D01*
X133337000Y-84731282D01*
X133337000Y-37020505D01*
X133337001Y-37020500D01*
X133144644Y-36053459D01*
X132596859Y-35233641D01*
X126310359Y-28947141D01*
X125490541Y-28399356D01*
X124523500Y-28207000D01*
X116573000Y-28207000D01*
X116573000Y-25342936D01*
X134120606Y-25342936D01*
X134466528Y-26180132D01*
X135106499Y-26821221D01*
X135943090Y-27168604D01*
X136848936Y-27169394D01*
X137686132Y-26823472D01*
X138327221Y-26183501D01*
X138674604Y-25346910D01*
X138675394Y-24441064D01*
X138329472Y-23603868D01*
X137689501Y-22962779D01*
X136852910Y-22615396D01*
X135947064Y-22614606D01*
X135109868Y-22960528D01*
X134468779Y-23600499D01*
X134121396Y-24437090D01*
X134120606Y-25342936D01*
X116573000Y-25342936D01*
X116573000Y-23622000D01*
X116380644Y-22654959D01*
X115832859Y-21835141D01*
X115013041Y-21287356D01*
X114046000Y-21095000D01*
X113078959Y-21287356D01*
X112259141Y-21835141D01*
X111711356Y-22654959D01*
X111519000Y-23622000D01*
X111519000Y-28207000D01*
X105106718Y-28207000D01*
X102036859Y-25137141D01*
X101217041Y-24589356D01*
X100250000Y-24397000D01*
X95250000Y-24397000D01*
X94282959Y-24589356D01*
X93463141Y-25137141D01*
X92915356Y-25956959D01*
X92723000Y-26924000D01*
X89277000Y-26924000D01*
X89277000Y-26384289D01*
X89160764Y-25799931D01*
X88829752Y-25304537D01*
X88334358Y-24973525D01*
X87750000Y-24857289D01*
X87165642Y-24973525D01*
X86670248Y-25304537D01*
X86339236Y-25799931D01*
X86223000Y-26384289D01*
X38702000Y-26384289D01*
X38702000Y-20922000D01*
X154338000Y-20922000D01*
X154338000Y-182278000D01*
G36*
X122927141Y-156980859D02*
X123746959Y-157528644D01*
X124714000Y-157721000D01*
X127521000Y-157721000D01*
X127521000Y-165069282D01*
X126207282Y-166383000D01*
X122712718Y-166383000D01*
X122669000Y-166339282D01*
X122669000Y-164338000D01*
X123157084Y-164338000D01*
X123261902Y-164864955D01*
X123560398Y-165311686D01*
X124007129Y-165610182D01*
X124534084Y-165715000D01*
X124893916Y-165715000D01*
X125420871Y-165610182D01*
X125867602Y-165311686D01*
X126166098Y-164864955D01*
X126270916Y-164338000D01*
X126166098Y-163811045D01*
X125867602Y-163364314D01*
X125420871Y-163065818D01*
X124893916Y-162961000D01*
X124534084Y-162961000D01*
X124007129Y-163065818D01*
X123560398Y-163364314D01*
X123261902Y-163811045D01*
X123157084Y-164338000D01*
X122669000Y-164338000D01*
X122476644Y-163370959D01*
X121928859Y-162551141D01*
X121181842Y-162052000D01*
X121928859Y-161552859D01*
X122476644Y-160733041D01*
X122669000Y-159766000D01*
X123157084Y-159766000D01*
X123261902Y-160292955D01*
X123560398Y-160739686D01*
X124007129Y-161038182D01*
X124534084Y-161143000D01*
X124893916Y-161143000D01*
X125420871Y-161038182D01*
X125867602Y-160739686D01*
X126166098Y-160292955D01*
X126270916Y-159766000D01*
X126166098Y-159239045D01*
X125867602Y-158792314D01*
X125420871Y-158493818D01*
X124893916Y-158389000D01*
X124534084Y-158389000D01*
X124007129Y-158493818D01*
X123560398Y-158792314D01*
X123261902Y-159239045D01*
X123157084Y-159766000D01*
X122669000Y-159766000D01*
X122476644Y-158798959D01*
X121928859Y-157979141D01*
X121181842Y-157480000D01*
X121928859Y-156980859D01*
X122428000Y-156233842D01*
X122927141Y-156980859D01*
X122927141Y-156980859D01*
G37*
X122927141Y-156980859D02*
X123746959Y-157528644D01*
X124714000Y-157721000D01*
X127521000Y-157721000D01*
X127521000Y-165069282D01*
X126207282Y-166383000D01*
X122712718Y-166383000D01*
X122669000Y-166339282D01*
X122669000Y-164338000D01*
X123157084Y-164338000D01*
X123261902Y-164864955D01*
X123560398Y-165311686D01*
X124007129Y-165610182D01*
X124534084Y-165715000D01*
X124893916Y-165715000D01*
X125420871Y-165610182D01*
X125867602Y-165311686D01*
X126166098Y-164864955D01*
X126270916Y-164338000D01*
X126166098Y-163811045D01*
X125867602Y-163364314D01*
X125420871Y-163065818D01*
X124893916Y-162961000D01*
X124534084Y-162961000D01*
X124007129Y-163065818D01*
X123560398Y-163364314D01*
X123261902Y-163811045D01*
X123157084Y-164338000D01*
X122669000Y-164338000D01*
X122476644Y-163370959D01*
X121928859Y-162551141D01*
X121181842Y-162052000D01*
X121928859Y-161552859D01*
X122476644Y-160733041D01*
X122669000Y-159766000D01*
X123157084Y-159766000D01*
X123261902Y-160292955D01*
X123560398Y-160739686D01*
X124007129Y-161038182D01*
X124534084Y-161143000D01*
X124893916Y-161143000D01*
X125420871Y-161038182D01*
X125867602Y-160739686D01*
X126166098Y-160292955D01*
X126270916Y-159766000D01*
X126166098Y-159239045D01*
X125867602Y-158792314D01*
X125420871Y-158493818D01*
X124893916Y-158389000D01*
X124534084Y-158389000D01*
X124007129Y-158493818D01*
X123560398Y-158792314D01*
X123261902Y-159239045D01*
X123157084Y-159766000D01*
X122669000Y-159766000D01*
X122476644Y-158798959D01*
X121928859Y-157979141D01*
X121181842Y-157480000D01*
X121928859Y-156980859D01*
X122428000Y-156233842D01*
X122927141Y-156980859D01*
M02*
