G04 #@! TF.FileFunction,Soldermask,Bot*
%FSLAX46Y46*%
G04 Gerber Fmt 4.6, Leading zero omitted, Abs format (unit mm)*
G04 Created by KiCad (PCBNEW 4.0.4-stable) date 12/10/17 16:08:38*
%MOMM*%
%LPD*%
G01*
G04 APERTURE LIST*
%ADD10C,0.100000*%
%ADD11C,0.520000*%
%ADD12O,2.400000X3.400000*%
%ADD13R,2.200000X2.200000*%
%ADD14C,2.200000*%
%ADD15O,3.400000X2.400000*%
%ADD16R,2.400000X2.100000*%
%ADD17O,2.400000X2.100000*%
%ADD18R,2.300000X2.000000*%
%ADD19C,7.020000*%
%ADD20C,5.400000*%
%ADD21R,3.400000X3.400000*%
%ADD22C,3.900000*%
%ADD23C,5.100000*%
G04 APERTURE END LIST*
D10*
D11*
X125730000Y-152019000D03*
X122364500Y-157480000D03*
D12*
X141926000Y-176276000D03*
X134426000Y-176276000D03*
X58420000Y-176276000D03*
X50920000Y-176276000D03*
D13*
X42164000Y-119888000D03*
D14*
X81280000Y-119888000D03*
D13*
X69088000Y-78486000D03*
D14*
X69088000Y-105918000D03*
D13*
X84328000Y-80518000D03*
D14*
X123444000Y-80518000D03*
D13*
X72136000Y-132334000D03*
D14*
X72136000Y-171450000D03*
D13*
X114046000Y-23622000D03*
D14*
X114046000Y-62738000D03*
D13*
X121920000Y-99568000D03*
D14*
X121920000Y-127000000D03*
D15*
X44704000Y-96520000D03*
X44704000Y-89020000D03*
X148336000Y-114106000D03*
X148336000Y-121606000D03*
D12*
X87750000Y-26924000D03*
X95250000Y-26924000D03*
X90304000Y-176276000D03*
X82804000Y-176276000D03*
X122114000Y-176276000D03*
X114614000Y-176276000D03*
D16*
X53340000Y-144272000D03*
D17*
X53340000Y-139700000D03*
X53340000Y-135128000D03*
X48768000Y-135128000D03*
X48768000Y-139700000D03*
D16*
X48768000Y-144272000D03*
X48768000Y-155448000D03*
D17*
X48768000Y-160020000D03*
X48768000Y-164592000D03*
X53340000Y-164592000D03*
X53340000Y-160020000D03*
D16*
X53340000Y-155448000D03*
X124714000Y-144018000D03*
D17*
X124714000Y-139446000D03*
X124714000Y-134874000D03*
X120142000Y-134874000D03*
X120142000Y-139446000D03*
D16*
X120142000Y-144018000D03*
X120142000Y-155194000D03*
D17*
X120142000Y-159766000D03*
X120142000Y-164338000D03*
X124714000Y-164338000D03*
X124714000Y-159766000D03*
D16*
X124714000Y-155194000D03*
D18*
X142748000Y-134874000D03*
D17*
X142748000Y-139446000D03*
X142748000Y-144018000D03*
D16*
X140208000Y-155194000D03*
D17*
X140208000Y-159766000D03*
X140208000Y-164338000D03*
X144780000Y-164338000D03*
X144780000Y-159766000D03*
D16*
X144780000Y-155194000D03*
D19*
X42164000Y-24384000D03*
X150876000Y-24384000D03*
X42164000Y-178816000D03*
X150876000Y-178816000D03*
X88392000Y-100584000D03*
X150876000Y-102108000D03*
X42164000Y-106680000D03*
D20*
X62738000Y-69088000D03*
X81026000Y-48768000D03*
D21*
X50292000Y-58928000D03*
D22*
X93472000Y-58928000D03*
D20*
X55372000Y-46482000D03*
X73660000Y-26162000D03*
D21*
X42926000Y-36322000D03*
D22*
X86106000Y-36322000D03*
D23*
X147066000Y-86614000D03*
X147066000Y-42418000D03*
D21*
X136398000Y-104140000D03*
D22*
X136398000Y-24892000D03*
D23*
X90170000Y-115824000D03*
X90170000Y-160020000D03*
D21*
X100838000Y-98298000D03*
D22*
X100838000Y-177546000D03*
D11*
X117284500Y-156718000D03*
M02*
