G04 #@! TF.FileFunction,Legend,Top*
%FSLAX46Y46*%
G04 Gerber Fmt 4.6, Leading zero omitted, Abs format (unit mm)*
G04 Created by KiCad (PCBNEW 4.0.4-stable) date 12/10/17 16:08:38*
%MOMM*%
%LPD*%
G01*
G04 APERTURE LIST*
%ADD10C,0.100000*%
%ADD11C,0.150000*%
%ADD12C,0.200000*%
G04 APERTURE END LIST*
D10*
D11*
X44021238Y-42007665D02*
X42021238Y-43340999D01*
X44021238Y-43340999D02*
X42021238Y-42007665D01*
X42783143Y-44102903D02*
X42783143Y-45626713D01*
X42021238Y-44864808D02*
X43545048Y-44864808D01*
X43354571Y-47912427D02*
X42021238Y-48388618D01*
X43354571Y-48864808D01*
X42021238Y-50674333D02*
X42021238Y-49531475D01*
X42021238Y-50102904D02*
X44021238Y-50102904D01*
X43735524Y-49912428D01*
X43545048Y-49721952D01*
X43449810Y-49531475D01*
X42211714Y-51531475D02*
X42116476Y-51626714D01*
X42021238Y-51531475D01*
X42116476Y-51436237D01*
X42211714Y-51531475D01*
X42021238Y-51531475D01*
X44021238Y-52864809D02*
X44021238Y-53055285D01*
X43926000Y-53245761D01*
X43830762Y-53340999D01*
X43640286Y-53436237D01*
X43259333Y-53531476D01*
X42783143Y-53531476D01*
X42402190Y-53436237D01*
X42211714Y-53340999D01*
X42116476Y-53245761D01*
X42021238Y-53055285D01*
X42021238Y-52864809D01*
X42116476Y-52674333D01*
X42211714Y-52579095D01*
X42402190Y-52483856D01*
X42783143Y-52388618D01*
X43259333Y-52388618D01*
X43640286Y-52483856D01*
X43830762Y-52579095D01*
X43926000Y-52674333D01*
X44021238Y-52864809D01*
X43068857Y-55912428D02*
X43068857Y-56579095D01*
X42021238Y-56864809D02*
X42021238Y-55912428D01*
X44021238Y-55912428D01*
X44021238Y-56864809D01*
X42021238Y-57721952D02*
X43354571Y-57721952D01*
X42973619Y-57721952D02*
X43164095Y-57817191D01*
X43259333Y-57912429D01*
X43354571Y-58102905D01*
X43354571Y-58293381D01*
X42021238Y-58960047D02*
X43354571Y-58960047D01*
X44021238Y-58960047D02*
X43926000Y-58864809D01*
X43830762Y-58960047D01*
X43926000Y-59055286D01*
X44021238Y-58960047D01*
X43830762Y-58960047D01*
X42116476Y-60769571D02*
X42021238Y-60579095D01*
X42021238Y-60198143D01*
X42116476Y-60007667D01*
X42211714Y-59912428D01*
X42402190Y-59817190D01*
X42973619Y-59817190D01*
X43164095Y-59912428D01*
X43259333Y-60007667D01*
X43354571Y-60198143D01*
X43354571Y-60579095D01*
X43259333Y-60769571D01*
X42021238Y-63150524D02*
X44021238Y-63150524D01*
X42592667Y-63817191D01*
X44021238Y-64483858D01*
X42021238Y-64483858D01*
X42116476Y-66198143D02*
X42021238Y-66007667D01*
X42021238Y-65626715D01*
X42116476Y-65436238D01*
X42306952Y-65341000D01*
X43068857Y-65341000D01*
X43259333Y-65436238D01*
X43354571Y-65626715D01*
X43354571Y-66007667D01*
X43259333Y-66198143D01*
X43068857Y-66293381D01*
X42878381Y-66293381D01*
X42687905Y-65341000D01*
X43354571Y-67150524D02*
X42021238Y-67150524D01*
X43164095Y-67150524D02*
X43259333Y-67245763D01*
X43354571Y-67436239D01*
X43354571Y-67721953D01*
X43259333Y-67912429D01*
X43068857Y-68007667D01*
X42021238Y-68007667D01*
X43354571Y-68769572D02*
X43354571Y-69817191D01*
X42021238Y-68769572D01*
X42021238Y-69817191D01*
X42116476Y-71341001D02*
X42021238Y-71150525D01*
X42021238Y-70769573D01*
X42116476Y-70579096D01*
X42306952Y-70483858D01*
X43068857Y-70483858D01*
X43259333Y-70579096D01*
X43354571Y-70769573D01*
X43354571Y-71150525D01*
X43259333Y-71341001D01*
X43068857Y-71436239D01*
X42878381Y-71436239D01*
X42687905Y-70483858D01*
X43830762Y-73721954D02*
X43926000Y-73817192D01*
X44021238Y-74007669D01*
X44021238Y-74483859D01*
X43926000Y-74674335D01*
X43830762Y-74769573D01*
X43640286Y-74864812D01*
X43449810Y-74864812D01*
X43164095Y-74769573D01*
X42021238Y-73626716D01*
X42021238Y-74864812D01*
X44021238Y-76102907D02*
X44021238Y-76293383D01*
X43926000Y-76483859D01*
X43830762Y-76579097D01*
X43640286Y-76674335D01*
X43259333Y-76769574D01*
X42783143Y-76769574D01*
X42402190Y-76674335D01*
X42211714Y-76579097D01*
X42116476Y-76483859D01*
X42021238Y-76293383D01*
X42021238Y-76102907D01*
X42116476Y-75912431D01*
X42211714Y-75817193D01*
X42402190Y-75721954D01*
X42783143Y-75626716D01*
X43259333Y-75626716D01*
X43640286Y-75721954D01*
X43830762Y-75817193D01*
X43926000Y-75912431D01*
X44021238Y-76102907D01*
X42021238Y-78674336D02*
X42021238Y-77531478D01*
X42021238Y-78102907D02*
X44021238Y-78102907D01*
X43735524Y-77912431D01*
X43545048Y-77721955D01*
X43449810Y-77531478D01*
X44021238Y-80388621D02*
X44021238Y-80007669D01*
X43926000Y-79817193D01*
X43830762Y-79721955D01*
X43545048Y-79531478D01*
X43164095Y-79436240D01*
X42402190Y-79436240D01*
X42211714Y-79531478D01*
X42116476Y-79626717D01*
X42021238Y-79817193D01*
X42021238Y-80198145D01*
X42116476Y-80388621D01*
X42211714Y-80483859D01*
X42402190Y-80579098D01*
X42878381Y-80579098D01*
X43068857Y-80483859D01*
X43164095Y-80388621D01*
X43259333Y-80198145D01*
X43259333Y-79817193D01*
X43164095Y-79626717D01*
X43068857Y-79531478D01*
X42878381Y-79436240D01*
D12*
X135806571Y-162512000D02*
X134306571Y-162512000D01*
X134306571Y-161940572D01*
X134378000Y-161797714D01*
X134449429Y-161726286D01*
X134592286Y-161654857D01*
X134806571Y-161654857D01*
X134949429Y-161726286D01*
X135020857Y-161797714D01*
X135092286Y-161940572D01*
X135092286Y-162512000D01*
X135806571Y-161012000D02*
X134306571Y-161012000D01*
X135806571Y-160369143D02*
X135020857Y-160369143D01*
X134878000Y-160440572D01*
X134806571Y-160583429D01*
X134806571Y-160797714D01*
X134878000Y-160940572D01*
X134949429Y-161012000D01*
X135806571Y-159012000D02*
X135020857Y-159012000D01*
X134878000Y-159083429D01*
X134806571Y-159226286D01*
X134806571Y-159512000D01*
X134878000Y-159654857D01*
X135735143Y-159012000D02*
X135806571Y-159154857D01*
X135806571Y-159512000D01*
X135735143Y-159654857D01*
X135592286Y-159726286D01*
X135449429Y-159726286D01*
X135306571Y-159654857D01*
X135235143Y-159512000D01*
X135235143Y-159154857D01*
X135163714Y-159012000D01*
X135735143Y-158369143D02*
X135806571Y-158226286D01*
X135806571Y-157940571D01*
X135735143Y-157797714D01*
X135592286Y-157726286D01*
X135520857Y-157726286D01*
X135378000Y-157797714D01*
X135306571Y-157940571D01*
X135306571Y-158154857D01*
X135235143Y-158297714D01*
X135092286Y-158369143D01*
X135020857Y-158369143D01*
X134878000Y-158297714D01*
X134806571Y-158154857D01*
X134806571Y-157940571D01*
X134878000Y-157797714D01*
X135735143Y-156512000D02*
X135806571Y-156654857D01*
X135806571Y-156940571D01*
X135735143Y-157083428D01*
X135592286Y-157154857D01*
X135020857Y-157154857D01*
X134878000Y-157083428D01*
X134806571Y-156940571D01*
X134806571Y-156654857D01*
X134878000Y-156512000D01*
X135020857Y-156440571D01*
X135163714Y-156440571D01*
X135306571Y-157154857D01*
X115740571Y-162766000D02*
X114240571Y-162766000D01*
X114240571Y-162194572D01*
X114312000Y-162051714D01*
X114383429Y-161980286D01*
X114526286Y-161908857D01*
X114740571Y-161908857D01*
X114883429Y-161980286D01*
X114954857Y-162051714D01*
X115026286Y-162194572D01*
X115026286Y-162766000D01*
X115740571Y-161266000D02*
X114240571Y-161266000D01*
X115740571Y-160623143D02*
X114954857Y-160623143D01*
X114812000Y-160694572D01*
X114740571Y-160837429D01*
X114740571Y-161051714D01*
X114812000Y-161194572D01*
X114883429Y-161266000D01*
X115740571Y-159266000D02*
X114954857Y-159266000D01*
X114812000Y-159337429D01*
X114740571Y-159480286D01*
X114740571Y-159766000D01*
X114812000Y-159908857D01*
X115669143Y-159266000D02*
X115740571Y-159408857D01*
X115740571Y-159766000D01*
X115669143Y-159908857D01*
X115526286Y-159980286D01*
X115383429Y-159980286D01*
X115240571Y-159908857D01*
X115169143Y-159766000D01*
X115169143Y-159408857D01*
X115097714Y-159266000D01*
X115669143Y-158623143D02*
X115740571Y-158480286D01*
X115740571Y-158194571D01*
X115669143Y-158051714D01*
X115526286Y-157980286D01*
X115454857Y-157980286D01*
X115312000Y-158051714D01*
X115240571Y-158194571D01*
X115240571Y-158408857D01*
X115169143Y-158551714D01*
X115026286Y-158623143D01*
X114954857Y-158623143D01*
X114812000Y-158551714D01*
X114740571Y-158408857D01*
X114740571Y-158194571D01*
X114812000Y-158051714D01*
X115669143Y-156766000D02*
X115740571Y-156908857D01*
X115740571Y-157194571D01*
X115669143Y-157337428D01*
X115526286Y-157408857D01*
X114954857Y-157408857D01*
X114812000Y-157337428D01*
X114740571Y-157194571D01*
X114740571Y-156908857D01*
X114812000Y-156766000D01*
X114954857Y-156694571D01*
X115097714Y-156694571D01*
X115240571Y-157408857D01*
X115312000Y-145481715D02*
X115312000Y-144767429D01*
X115740571Y-145624572D02*
X114240571Y-145124572D01*
X115740571Y-144624572D01*
X114740571Y-144338858D02*
X114740571Y-143767429D01*
X114240571Y-144124572D02*
X115526286Y-144124572D01*
X115669143Y-144053144D01*
X115740571Y-143910286D01*
X115740571Y-143767429D01*
X114740571Y-143481715D02*
X114740571Y-142910286D01*
X114240571Y-143267429D02*
X115526286Y-143267429D01*
X115669143Y-143196001D01*
X115740571Y-143053143D01*
X115740571Y-142910286D01*
X115669143Y-141838858D02*
X115740571Y-141981715D01*
X115740571Y-142267429D01*
X115669143Y-142410286D01*
X115526286Y-142481715D01*
X114954857Y-142481715D01*
X114812000Y-142410286D01*
X114740571Y-142267429D01*
X114740571Y-141981715D01*
X114812000Y-141838858D01*
X114954857Y-141767429D01*
X115097714Y-141767429D01*
X115240571Y-142481715D01*
X114740571Y-141124572D02*
X115740571Y-141124572D01*
X114883429Y-141124572D02*
X114812000Y-141053144D01*
X114740571Y-140910286D01*
X114740571Y-140696001D01*
X114812000Y-140553144D01*
X114954857Y-140481715D01*
X115740571Y-140481715D01*
X114740571Y-139124572D02*
X115740571Y-139124572D01*
X114740571Y-139767429D02*
X115526286Y-139767429D01*
X115669143Y-139696001D01*
X115740571Y-139553143D01*
X115740571Y-139338858D01*
X115669143Y-139196001D01*
X115597714Y-139124572D01*
X115740571Y-137767429D02*
X114954857Y-137767429D01*
X114812000Y-137838858D01*
X114740571Y-137981715D01*
X114740571Y-138267429D01*
X114812000Y-138410286D01*
X115669143Y-137767429D02*
X115740571Y-137910286D01*
X115740571Y-138267429D01*
X115669143Y-138410286D01*
X115526286Y-138481715D01*
X115383429Y-138481715D01*
X115240571Y-138410286D01*
X115169143Y-138267429D01*
X115169143Y-137910286D01*
X115097714Y-137767429D01*
X114740571Y-137267429D02*
X114740571Y-136696000D01*
X114240571Y-137053143D02*
X115526286Y-137053143D01*
X115669143Y-136981715D01*
X115740571Y-136838857D01*
X115740571Y-136696000D01*
X115740571Y-136196000D02*
X114740571Y-136196000D01*
X114240571Y-136196000D02*
X114312000Y-136267429D01*
X114383429Y-136196000D01*
X114312000Y-136124572D01*
X114240571Y-136196000D01*
X114383429Y-136196000D01*
X115740571Y-135267428D02*
X115669143Y-135410286D01*
X115597714Y-135481714D01*
X115454857Y-135553143D01*
X115026286Y-135553143D01*
X114883429Y-135481714D01*
X114812000Y-135410286D01*
X114740571Y-135267428D01*
X114740571Y-135053143D01*
X114812000Y-134910286D01*
X114883429Y-134838857D01*
X115026286Y-134767428D01*
X115454857Y-134767428D01*
X115597714Y-134838857D01*
X115669143Y-134910286D01*
X115740571Y-135053143D01*
X115740571Y-135267428D01*
X114740571Y-134124571D02*
X115740571Y-134124571D01*
X114883429Y-134124571D02*
X114812000Y-134053143D01*
X114740571Y-133910285D01*
X114740571Y-133696000D01*
X114812000Y-133553143D01*
X114954857Y-133481714D01*
X115740571Y-133481714D01*
X137306857Y-142735714D02*
X137378286Y-142521428D01*
X137449714Y-142450000D01*
X137592571Y-142378571D01*
X137806857Y-142378571D01*
X137949714Y-142450000D01*
X138021143Y-142521428D01*
X138092571Y-142664286D01*
X138092571Y-143235714D01*
X136592571Y-143235714D01*
X136592571Y-142735714D01*
X136664000Y-142592857D01*
X136735429Y-142521428D01*
X136878286Y-142450000D01*
X137021143Y-142450000D01*
X137164000Y-142521428D01*
X137235429Y-142592857D01*
X137306857Y-142735714D01*
X137306857Y-143235714D01*
X137092571Y-141878571D02*
X138092571Y-141521428D01*
X137092571Y-141164286D02*
X138092571Y-141521428D01*
X138449714Y-141664286D01*
X138521143Y-141735714D01*
X138592571Y-141878571D01*
X137092571Y-140592857D02*
X138592571Y-140592857D01*
X137164000Y-140592857D02*
X137092571Y-140450000D01*
X137092571Y-140164286D01*
X137164000Y-140021429D01*
X137235429Y-139950000D01*
X137378286Y-139878571D01*
X137806857Y-139878571D01*
X137949714Y-139950000D01*
X138021143Y-140021429D01*
X138092571Y-140164286D01*
X138092571Y-140450000D01*
X138021143Y-140592857D01*
X138092571Y-138592857D02*
X137306857Y-138592857D01*
X137164000Y-138664286D01*
X137092571Y-138807143D01*
X137092571Y-139092857D01*
X137164000Y-139235714D01*
X138021143Y-138592857D02*
X138092571Y-138735714D01*
X138092571Y-139092857D01*
X138021143Y-139235714D01*
X137878286Y-139307143D01*
X137735429Y-139307143D01*
X137592571Y-139235714D01*
X137521143Y-139092857D01*
X137521143Y-138735714D01*
X137449714Y-138592857D01*
X138021143Y-137950000D02*
X138092571Y-137807143D01*
X138092571Y-137521428D01*
X138021143Y-137378571D01*
X137878286Y-137307143D01*
X137806857Y-137307143D01*
X137664000Y-137378571D01*
X137592571Y-137521428D01*
X137592571Y-137735714D01*
X137521143Y-137878571D01*
X137378286Y-137950000D01*
X137306857Y-137950000D01*
X137164000Y-137878571D01*
X137092571Y-137735714D01*
X137092571Y-137521428D01*
X137164000Y-137378571D01*
X138021143Y-136735714D02*
X138092571Y-136592857D01*
X138092571Y-136307142D01*
X138021143Y-136164285D01*
X137878286Y-136092857D01*
X137806857Y-136092857D01*
X137664000Y-136164285D01*
X137592571Y-136307142D01*
X137592571Y-136521428D01*
X137521143Y-136664285D01*
X137378286Y-136735714D01*
X137306857Y-136735714D01*
X137164000Y-136664285D01*
X137092571Y-136521428D01*
X137092571Y-136307142D01*
X137164000Y-136164285D01*
X44192000Y-145989715D02*
X44192000Y-145275429D01*
X44620571Y-146132572D02*
X43120571Y-145632572D01*
X44620571Y-145132572D01*
X43620571Y-144846858D02*
X43620571Y-144275429D01*
X43120571Y-144632572D02*
X44406286Y-144632572D01*
X44549143Y-144561144D01*
X44620571Y-144418286D01*
X44620571Y-144275429D01*
X43620571Y-143989715D02*
X43620571Y-143418286D01*
X43120571Y-143775429D02*
X44406286Y-143775429D01*
X44549143Y-143704001D01*
X44620571Y-143561143D01*
X44620571Y-143418286D01*
X44549143Y-142346858D02*
X44620571Y-142489715D01*
X44620571Y-142775429D01*
X44549143Y-142918286D01*
X44406286Y-142989715D01*
X43834857Y-142989715D01*
X43692000Y-142918286D01*
X43620571Y-142775429D01*
X43620571Y-142489715D01*
X43692000Y-142346858D01*
X43834857Y-142275429D01*
X43977714Y-142275429D01*
X44120571Y-142989715D01*
X43620571Y-141632572D02*
X44620571Y-141632572D01*
X43763429Y-141632572D02*
X43692000Y-141561144D01*
X43620571Y-141418286D01*
X43620571Y-141204001D01*
X43692000Y-141061144D01*
X43834857Y-140989715D01*
X44620571Y-140989715D01*
X43620571Y-139632572D02*
X44620571Y-139632572D01*
X43620571Y-140275429D02*
X44406286Y-140275429D01*
X44549143Y-140204001D01*
X44620571Y-140061143D01*
X44620571Y-139846858D01*
X44549143Y-139704001D01*
X44477714Y-139632572D01*
X44620571Y-138275429D02*
X43834857Y-138275429D01*
X43692000Y-138346858D01*
X43620571Y-138489715D01*
X43620571Y-138775429D01*
X43692000Y-138918286D01*
X44549143Y-138275429D02*
X44620571Y-138418286D01*
X44620571Y-138775429D01*
X44549143Y-138918286D01*
X44406286Y-138989715D01*
X44263429Y-138989715D01*
X44120571Y-138918286D01*
X44049143Y-138775429D01*
X44049143Y-138418286D01*
X43977714Y-138275429D01*
X43620571Y-137775429D02*
X43620571Y-137204000D01*
X43120571Y-137561143D02*
X44406286Y-137561143D01*
X44549143Y-137489715D01*
X44620571Y-137346857D01*
X44620571Y-137204000D01*
X44620571Y-136704000D02*
X43620571Y-136704000D01*
X43120571Y-136704000D02*
X43192000Y-136775429D01*
X43263429Y-136704000D01*
X43192000Y-136632572D01*
X43120571Y-136704000D01*
X43263429Y-136704000D01*
X44620571Y-135775428D02*
X44549143Y-135918286D01*
X44477714Y-135989714D01*
X44334857Y-136061143D01*
X43906286Y-136061143D01*
X43763429Y-135989714D01*
X43692000Y-135918286D01*
X43620571Y-135775428D01*
X43620571Y-135561143D01*
X43692000Y-135418286D01*
X43763429Y-135346857D01*
X43906286Y-135275428D01*
X44334857Y-135275428D01*
X44477714Y-135346857D01*
X44549143Y-135418286D01*
X44620571Y-135561143D01*
X44620571Y-135775428D01*
X43620571Y-134632571D02*
X44620571Y-134632571D01*
X43763429Y-134632571D02*
X43692000Y-134561143D01*
X43620571Y-134418285D01*
X43620571Y-134204000D01*
X43692000Y-134061143D01*
X43834857Y-133989714D01*
X44620571Y-133989714D01*
X44620571Y-163020000D02*
X43120571Y-163020000D01*
X43120571Y-162448572D01*
X43192000Y-162305714D01*
X43263429Y-162234286D01*
X43406286Y-162162857D01*
X43620571Y-162162857D01*
X43763429Y-162234286D01*
X43834857Y-162305714D01*
X43906286Y-162448572D01*
X43906286Y-163020000D01*
X44620571Y-161520000D02*
X43120571Y-161520000D01*
X44620571Y-160877143D02*
X43834857Y-160877143D01*
X43692000Y-160948572D01*
X43620571Y-161091429D01*
X43620571Y-161305714D01*
X43692000Y-161448572D01*
X43763429Y-161520000D01*
X44620571Y-159520000D02*
X43834857Y-159520000D01*
X43692000Y-159591429D01*
X43620571Y-159734286D01*
X43620571Y-160020000D01*
X43692000Y-160162857D01*
X44549143Y-159520000D02*
X44620571Y-159662857D01*
X44620571Y-160020000D01*
X44549143Y-160162857D01*
X44406286Y-160234286D01*
X44263429Y-160234286D01*
X44120571Y-160162857D01*
X44049143Y-160020000D01*
X44049143Y-159662857D01*
X43977714Y-159520000D01*
X44549143Y-158877143D02*
X44620571Y-158734286D01*
X44620571Y-158448571D01*
X44549143Y-158305714D01*
X44406286Y-158234286D01*
X44334857Y-158234286D01*
X44192000Y-158305714D01*
X44120571Y-158448571D01*
X44120571Y-158662857D01*
X44049143Y-158805714D01*
X43906286Y-158877143D01*
X43834857Y-158877143D01*
X43692000Y-158805714D01*
X43620571Y-158662857D01*
X43620571Y-158448571D01*
X43692000Y-158305714D01*
X44549143Y-157020000D02*
X44620571Y-157162857D01*
X44620571Y-157448571D01*
X44549143Y-157591428D01*
X44406286Y-157662857D01*
X43834857Y-157662857D01*
X43692000Y-157591428D01*
X43620571Y-157448571D01*
X43620571Y-157162857D01*
X43692000Y-157020000D01*
X43834857Y-156948571D01*
X43977714Y-156948571D01*
X44120571Y-157662857D01*
X47852072Y-181717143D02*
X48994929Y-181717143D01*
X50637786Y-180788571D02*
X51494929Y-180788571D01*
X51066358Y-182288571D02*
X51066358Y-180788571D01*
X51852072Y-181288571D02*
X52137786Y-182288571D01*
X52423500Y-181574286D01*
X52709215Y-182288571D01*
X52994929Y-181288571D01*
X54137786Y-182217143D02*
X53994929Y-182288571D01*
X53709215Y-182288571D01*
X53566358Y-182217143D01*
X53494929Y-182074286D01*
X53494929Y-181502857D01*
X53566358Y-181360000D01*
X53709215Y-181288571D01*
X53994929Y-181288571D01*
X54137786Y-181360000D01*
X54209215Y-181502857D01*
X54209215Y-181645714D01*
X53494929Y-181788571D01*
X55423500Y-182217143D02*
X55280643Y-182288571D01*
X54994929Y-182288571D01*
X54852072Y-182217143D01*
X54780643Y-182074286D01*
X54780643Y-181502857D01*
X54852072Y-181360000D01*
X54994929Y-181288571D01*
X55280643Y-181288571D01*
X55423500Y-181360000D01*
X55494929Y-181502857D01*
X55494929Y-181645714D01*
X54780643Y-181788571D01*
X55923500Y-181288571D02*
X56494929Y-181288571D01*
X56137786Y-180788571D02*
X56137786Y-182074286D01*
X56209214Y-182217143D01*
X56352072Y-182288571D01*
X56494929Y-182288571D01*
X57566357Y-182217143D02*
X57423500Y-182288571D01*
X57137786Y-182288571D01*
X56994929Y-182217143D01*
X56923500Y-182074286D01*
X56923500Y-181502857D01*
X56994929Y-181360000D01*
X57137786Y-181288571D01*
X57423500Y-181288571D01*
X57566357Y-181360000D01*
X57637786Y-181502857D01*
X57637786Y-181645714D01*
X56923500Y-181788571D01*
X58280643Y-182288571D02*
X58280643Y-181288571D01*
X58280643Y-181574286D02*
X58352071Y-181431429D01*
X58423500Y-181360000D01*
X58566357Y-181288571D01*
X58709214Y-181288571D01*
X60352071Y-181717143D02*
X61494928Y-181717143D01*
X60923499Y-182288571D02*
X60923499Y-181145714D01*
X80006857Y-181590143D02*
X81149714Y-181590143D01*
X84149714Y-182161571D02*
X84149714Y-180661571D01*
X84864000Y-181161571D02*
X84864000Y-182161571D01*
X84864000Y-181304429D02*
X84935428Y-181233000D01*
X85078286Y-181161571D01*
X85292571Y-181161571D01*
X85435428Y-181233000D01*
X85506857Y-181375857D01*
X85506857Y-182161571D01*
X86221143Y-181161571D02*
X86221143Y-182661571D01*
X86221143Y-181233000D02*
X86364000Y-181161571D01*
X86649714Y-181161571D01*
X86792571Y-181233000D01*
X86864000Y-181304429D01*
X86935429Y-181447286D01*
X86935429Y-181875857D01*
X86864000Y-182018714D01*
X86792571Y-182090143D01*
X86649714Y-182161571D01*
X86364000Y-182161571D01*
X86221143Y-182090143D01*
X88221143Y-181161571D02*
X88221143Y-182161571D01*
X87578286Y-181161571D02*
X87578286Y-181947286D01*
X87649714Y-182090143D01*
X87792572Y-182161571D01*
X88006857Y-182161571D01*
X88149714Y-182090143D01*
X88221143Y-182018714D01*
X88721143Y-181161571D02*
X89292572Y-181161571D01*
X88935429Y-180661571D02*
X88935429Y-181947286D01*
X89006857Y-182090143D01*
X89149715Y-182161571D01*
X89292572Y-182161571D01*
X92078286Y-181590143D02*
X93221143Y-181590143D01*
X92649714Y-182161571D02*
X92649714Y-181018714D01*
X130461715Y-181717143D02*
X131604572Y-181717143D01*
X133318858Y-180788571D02*
X133676001Y-182288571D01*
X133961715Y-181217143D01*
X134247429Y-182288571D01*
X134604572Y-180788571D01*
X135390287Y-182288571D02*
X135247429Y-182217143D01*
X135176001Y-182145714D01*
X135104572Y-182002857D01*
X135104572Y-181574286D01*
X135176001Y-181431429D01*
X135247429Y-181360000D01*
X135390287Y-181288571D01*
X135604572Y-181288571D01*
X135747429Y-181360000D01*
X135818858Y-181431429D01*
X135890287Y-181574286D01*
X135890287Y-182002857D01*
X135818858Y-182145714D01*
X135747429Y-182217143D01*
X135604572Y-182288571D01*
X135390287Y-182288571D01*
X136747430Y-182288571D02*
X136604572Y-182217143D01*
X136533144Y-182145714D01*
X136461715Y-182002857D01*
X136461715Y-181574286D01*
X136533144Y-181431429D01*
X136604572Y-181360000D01*
X136747430Y-181288571D01*
X136961715Y-181288571D01*
X137104572Y-181360000D01*
X137176001Y-181431429D01*
X137247430Y-181574286D01*
X137247430Y-182002857D01*
X137176001Y-182145714D01*
X137104572Y-182217143D01*
X136961715Y-182288571D01*
X136747430Y-182288571D01*
X137676001Y-181288571D02*
X138247430Y-181288571D01*
X137890287Y-182288571D02*
X137890287Y-181002857D01*
X137961715Y-180860000D01*
X138104573Y-180788571D01*
X138247430Y-180788571D01*
X139318858Y-182217143D02*
X139176001Y-182288571D01*
X138890287Y-182288571D01*
X138747430Y-182217143D01*
X138676001Y-182074286D01*
X138676001Y-181502857D01*
X138747430Y-181360000D01*
X138890287Y-181288571D01*
X139176001Y-181288571D01*
X139318858Y-181360000D01*
X139390287Y-181502857D01*
X139390287Y-181645714D01*
X138676001Y-181788571D01*
X140033144Y-182288571D02*
X140033144Y-181288571D01*
X140033144Y-181574286D02*
X140104572Y-181431429D01*
X140176001Y-181360000D01*
X140318858Y-181288571D01*
X140461715Y-181288571D01*
X142604572Y-181502857D02*
X142818858Y-181574286D01*
X142890286Y-181645714D01*
X142961715Y-181788571D01*
X142961715Y-182002857D01*
X142890286Y-182145714D01*
X142818858Y-182217143D01*
X142676000Y-182288571D01*
X142104572Y-182288571D01*
X142104572Y-180788571D01*
X142604572Y-180788571D01*
X142747429Y-180860000D01*
X142818858Y-180931429D01*
X142890286Y-181074286D01*
X142890286Y-181217143D01*
X142818858Y-181360000D01*
X142747429Y-181431429D01*
X142604572Y-181502857D01*
X142104572Y-181502857D01*
X144747429Y-181717143D02*
X145890286Y-181717143D01*
X145318857Y-182288571D02*
X145318857Y-181145714D01*
X110693358Y-181717143D02*
X111836215Y-181717143D01*
X113550501Y-180788571D02*
X113907644Y-182288571D01*
X114193358Y-181217143D01*
X114479072Y-182288571D01*
X114836215Y-180788571D01*
X115621930Y-182288571D02*
X115479072Y-182217143D01*
X115407644Y-182145714D01*
X115336215Y-182002857D01*
X115336215Y-181574286D01*
X115407644Y-181431429D01*
X115479072Y-181360000D01*
X115621930Y-181288571D01*
X115836215Y-181288571D01*
X115979072Y-181360000D01*
X116050501Y-181431429D01*
X116121930Y-181574286D01*
X116121930Y-182002857D01*
X116050501Y-182145714D01*
X115979072Y-182217143D01*
X115836215Y-182288571D01*
X115621930Y-182288571D01*
X116979073Y-182288571D02*
X116836215Y-182217143D01*
X116764787Y-182145714D01*
X116693358Y-182002857D01*
X116693358Y-181574286D01*
X116764787Y-181431429D01*
X116836215Y-181360000D01*
X116979073Y-181288571D01*
X117193358Y-181288571D01*
X117336215Y-181360000D01*
X117407644Y-181431429D01*
X117479073Y-181574286D01*
X117479073Y-182002857D01*
X117407644Y-182145714D01*
X117336215Y-182217143D01*
X117193358Y-182288571D01*
X116979073Y-182288571D01*
X117907644Y-181288571D02*
X118479073Y-181288571D01*
X118121930Y-182288571D02*
X118121930Y-181002857D01*
X118193358Y-180860000D01*
X118336216Y-180788571D01*
X118479073Y-180788571D01*
X119550501Y-182217143D02*
X119407644Y-182288571D01*
X119121930Y-182288571D01*
X118979073Y-182217143D01*
X118907644Y-182074286D01*
X118907644Y-181502857D01*
X118979073Y-181360000D01*
X119121930Y-181288571D01*
X119407644Y-181288571D01*
X119550501Y-181360000D01*
X119621930Y-181502857D01*
X119621930Y-181645714D01*
X118907644Y-181788571D01*
X120264787Y-182288571D02*
X120264787Y-181288571D01*
X120264787Y-181574286D02*
X120336215Y-181431429D01*
X120407644Y-181360000D01*
X120550501Y-181288571D01*
X120693358Y-181288571D01*
X122264786Y-181860000D02*
X122979072Y-181860000D01*
X122121929Y-182288571D02*
X122621929Y-180788571D01*
X123121929Y-182288571D01*
X124764786Y-181717143D02*
X125907643Y-181717143D01*
X125336214Y-182288571D02*
X125336214Y-181145714D01*
X121110572Y-152316571D02*
X120253429Y-152316571D01*
X120682001Y-152316571D02*
X120682001Y-150816571D01*
X120539144Y-151030857D01*
X120396286Y-151173714D01*
X120253429Y-151245143D01*
X121967715Y-151459429D02*
X121824857Y-151388000D01*
X121753429Y-151316571D01*
X121682000Y-151173714D01*
X121682000Y-151102286D01*
X121753429Y-150959429D01*
X121824857Y-150888000D01*
X121967715Y-150816571D01*
X122253429Y-150816571D01*
X122396286Y-150888000D01*
X122467715Y-150959429D01*
X122539143Y-151102286D01*
X122539143Y-151173714D01*
X122467715Y-151316571D01*
X122396286Y-151388000D01*
X122253429Y-151459429D01*
X121967715Y-151459429D01*
X121824857Y-151530857D01*
X121753429Y-151602286D01*
X121682000Y-151745143D01*
X121682000Y-152030857D01*
X121753429Y-152173714D01*
X121824857Y-152245143D01*
X121967715Y-152316571D01*
X122253429Y-152316571D01*
X122396286Y-152245143D01*
X122467715Y-152173714D01*
X122539143Y-152030857D01*
X122539143Y-151745143D01*
X122467715Y-151602286D01*
X122396286Y-151530857D01*
X122253429Y-151459429D01*
X123467714Y-150816571D02*
X123610571Y-150816571D01*
X123753428Y-150888000D01*
X123824857Y-150959429D01*
X123896286Y-151102286D01*
X123967714Y-151388000D01*
X123967714Y-151745143D01*
X123896286Y-152030857D01*
X123824857Y-152173714D01*
X123753428Y-152245143D01*
X123610571Y-152316571D01*
X123467714Y-152316571D01*
X123324857Y-152245143D01*
X123253428Y-152173714D01*
X123182000Y-152030857D01*
X123110571Y-151745143D01*
X123110571Y-151388000D01*
X123182000Y-151102286D01*
X123253428Y-150959429D01*
X123324857Y-150888000D01*
X123467714Y-150816571D01*
X124824857Y-150816571D02*
X124681999Y-150888000D01*
X124610571Y-151030857D01*
X124681999Y-151173714D01*
X124824857Y-151245143D01*
X124967714Y-151173714D01*
X125039142Y-151030857D01*
X124967714Y-150888000D01*
X124824857Y-150816571D01*
X141176572Y-152316571D02*
X140319429Y-152316571D01*
X140748001Y-152316571D02*
X140748001Y-150816571D01*
X140605144Y-151030857D01*
X140462286Y-151173714D01*
X140319429Y-151245143D01*
X142033715Y-151459429D02*
X141890857Y-151388000D01*
X141819429Y-151316571D01*
X141748000Y-151173714D01*
X141748000Y-151102286D01*
X141819429Y-150959429D01*
X141890857Y-150888000D01*
X142033715Y-150816571D01*
X142319429Y-150816571D01*
X142462286Y-150888000D01*
X142533715Y-150959429D01*
X142605143Y-151102286D01*
X142605143Y-151173714D01*
X142533715Y-151316571D01*
X142462286Y-151388000D01*
X142319429Y-151459429D01*
X142033715Y-151459429D01*
X141890857Y-151530857D01*
X141819429Y-151602286D01*
X141748000Y-151745143D01*
X141748000Y-152030857D01*
X141819429Y-152173714D01*
X141890857Y-152245143D01*
X142033715Y-152316571D01*
X142319429Y-152316571D01*
X142462286Y-152245143D01*
X142533715Y-152173714D01*
X142605143Y-152030857D01*
X142605143Y-151745143D01*
X142533715Y-151602286D01*
X142462286Y-151530857D01*
X142319429Y-151459429D01*
X143533714Y-150816571D02*
X143676571Y-150816571D01*
X143819428Y-150888000D01*
X143890857Y-150959429D01*
X143962286Y-151102286D01*
X144033714Y-151388000D01*
X144033714Y-151745143D01*
X143962286Y-152030857D01*
X143890857Y-152173714D01*
X143819428Y-152245143D01*
X143676571Y-152316571D01*
X143533714Y-152316571D01*
X143390857Y-152245143D01*
X143319428Y-152173714D01*
X143248000Y-152030857D01*
X143176571Y-151745143D01*
X143176571Y-151388000D01*
X143248000Y-151102286D01*
X143319428Y-150959429D01*
X143390857Y-150888000D01*
X143533714Y-150816571D01*
X144890857Y-150816571D02*
X144747999Y-150888000D01*
X144676571Y-151030857D01*
X144747999Y-151173714D01*
X144890857Y-151245143D01*
X145033714Y-151173714D01*
X145105142Y-151030857D01*
X145033714Y-150888000D01*
X144890857Y-150816571D01*
X141597143Y-167072571D02*
X141740000Y-167072571D01*
X141882857Y-167144000D01*
X141954286Y-167215429D01*
X142025715Y-167358286D01*
X142097143Y-167644000D01*
X142097143Y-168001143D01*
X142025715Y-168286857D01*
X141954286Y-168429714D01*
X141882857Y-168501143D01*
X141740000Y-168572571D01*
X141597143Y-168572571D01*
X141454286Y-168501143D01*
X141382857Y-168429714D01*
X141311429Y-168286857D01*
X141240000Y-168001143D01*
X141240000Y-167644000D01*
X141311429Y-167358286D01*
X141382857Y-167215429D01*
X141454286Y-167144000D01*
X141597143Y-167072571D01*
X142954286Y-167072571D02*
X142811428Y-167144000D01*
X142740000Y-167286857D01*
X142811428Y-167429714D01*
X142954286Y-167501143D01*
X143097143Y-167429714D01*
X143168571Y-167286857D01*
X143097143Y-167144000D01*
X142954286Y-167072571D01*
X121277143Y-167072571D02*
X121420000Y-167072571D01*
X121562857Y-167144000D01*
X121634286Y-167215429D01*
X121705715Y-167358286D01*
X121777143Y-167644000D01*
X121777143Y-168001143D01*
X121705715Y-168286857D01*
X121634286Y-168429714D01*
X121562857Y-168501143D01*
X121420000Y-168572571D01*
X121277143Y-168572571D01*
X121134286Y-168501143D01*
X121062857Y-168429714D01*
X120991429Y-168286857D01*
X120920000Y-168001143D01*
X120920000Y-167644000D01*
X120991429Y-167358286D01*
X121062857Y-167215429D01*
X121134286Y-167144000D01*
X121277143Y-167072571D01*
X122634286Y-167072571D02*
X122491428Y-167144000D01*
X122420000Y-167286857D01*
X122491428Y-167429714D01*
X122634286Y-167501143D01*
X122777143Y-167429714D01*
X122848571Y-167286857D01*
X122777143Y-167144000D01*
X122634286Y-167072571D01*
X49482572Y-152570571D02*
X48625429Y-152570571D01*
X49054001Y-152570571D02*
X49054001Y-151070571D01*
X48911144Y-151284857D01*
X48768286Y-151427714D01*
X48625429Y-151499143D01*
X50339715Y-151713429D02*
X50196857Y-151642000D01*
X50125429Y-151570571D01*
X50054000Y-151427714D01*
X50054000Y-151356286D01*
X50125429Y-151213429D01*
X50196857Y-151142000D01*
X50339715Y-151070571D01*
X50625429Y-151070571D01*
X50768286Y-151142000D01*
X50839715Y-151213429D01*
X50911143Y-151356286D01*
X50911143Y-151427714D01*
X50839715Y-151570571D01*
X50768286Y-151642000D01*
X50625429Y-151713429D01*
X50339715Y-151713429D01*
X50196857Y-151784857D01*
X50125429Y-151856286D01*
X50054000Y-151999143D01*
X50054000Y-152284857D01*
X50125429Y-152427714D01*
X50196857Y-152499143D01*
X50339715Y-152570571D01*
X50625429Y-152570571D01*
X50768286Y-152499143D01*
X50839715Y-152427714D01*
X50911143Y-152284857D01*
X50911143Y-151999143D01*
X50839715Y-151856286D01*
X50768286Y-151784857D01*
X50625429Y-151713429D01*
X51839714Y-151070571D02*
X51982571Y-151070571D01*
X52125428Y-151142000D01*
X52196857Y-151213429D01*
X52268286Y-151356286D01*
X52339714Y-151642000D01*
X52339714Y-151999143D01*
X52268286Y-152284857D01*
X52196857Y-152427714D01*
X52125428Y-152499143D01*
X51982571Y-152570571D01*
X51839714Y-152570571D01*
X51696857Y-152499143D01*
X51625428Y-152427714D01*
X51554000Y-152284857D01*
X51482571Y-151999143D01*
X51482571Y-151642000D01*
X51554000Y-151356286D01*
X51625428Y-151213429D01*
X51696857Y-151142000D01*
X51839714Y-151070571D01*
X53196857Y-151070571D02*
X53053999Y-151142000D01*
X52982571Y-151284857D01*
X53053999Y-151427714D01*
X53196857Y-151499143D01*
X53339714Y-151427714D01*
X53411142Y-151284857D01*
X53339714Y-151142000D01*
X53196857Y-151070571D01*
X50157143Y-167326571D02*
X50300000Y-167326571D01*
X50442857Y-167398000D01*
X50514286Y-167469429D01*
X50585715Y-167612286D01*
X50657143Y-167898000D01*
X50657143Y-168255143D01*
X50585715Y-168540857D01*
X50514286Y-168683714D01*
X50442857Y-168755143D01*
X50300000Y-168826571D01*
X50157143Y-168826571D01*
X50014286Y-168755143D01*
X49942857Y-168683714D01*
X49871429Y-168540857D01*
X49800000Y-168255143D01*
X49800000Y-167898000D01*
X49871429Y-167612286D01*
X49942857Y-167469429D01*
X50014286Y-167398000D01*
X50157143Y-167326571D01*
X51514286Y-167326571D02*
X51371428Y-167398000D01*
X51300000Y-167540857D01*
X51371428Y-167683714D01*
X51514286Y-167755143D01*
X51657143Y-167683714D01*
X51728571Y-167540857D01*
X51657143Y-167398000D01*
X51514286Y-167326571D01*
X46696858Y-147935143D02*
X47839715Y-147935143D01*
X48482572Y-147149429D02*
X48554001Y-147078000D01*
X48696858Y-147006571D01*
X49054001Y-147006571D01*
X49196858Y-147078000D01*
X49268287Y-147149429D01*
X49339715Y-147292286D01*
X49339715Y-147435143D01*
X49268287Y-147649429D01*
X48411144Y-148506571D01*
X49339715Y-148506571D01*
X49982572Y-148363714D02*
X50054000Y-148435143D01*
X49982572Y-148506571D01*
X49911143Y-148435143D01*
X49982572Y-148363714D01*
X49982572Y-148506571D01*
X51411144Y-147006571D02*
X50696858Y-147006571D01*
X50625429Y-147720857D01*
X50696858Y-147649429D01*
X50839715Y-147578000D01*
X51196858Y-147578000D01*
X51339715Y-147649429D01*
X51411144Y-147720857D01*
X51482572Y-147863714D01*
X51482572Y-148220857D01*
X51411144Y-148363714D01*
X51339715Y-148435143D01*
X51196858Y-148506571D01*
X50839715Y-148506571D01*
X50696858Y-148435143D01*
X50625429Y-148363714D01*
X53911143Y-148506571D02*
X53911143Y-147006571D01*
X53911143Y-148435143D02*
X53768286Y-148506571D01*
X53482572Y-148506571D01*
X53339714Y-148435143D01*
X53268286Y-148363714D01*
X53196857Y-148220857D01*
X53196857Y-147792286D01*
X53268286Y-147649429D01*
X53339714Y-147578000D01*
X53482572Y-147506571D01*
X53768286Y-147506571D01*
X53911143Y-147578000D01*
X55125429Y-147720857D02*
X55339715Y-147792286D01*
X55411143Y-147863714D01*
X55482572Y-148006571D01*
X55482572Y-148220857D01*
X55411143Y-148363714D01*
X55339715Y-148435143D01*
X55196857Y-148506571D01*
X54625429Y-148506571D01*
X54625429Y-147006571D01*
X55125429Y-147006571D01*
X55268286Y-147078000D01*
X55339715Y-147149429D01*
X55411143Y-147292286D01*
X55411143Y-147435143D01*
X55339715Y-147578000D01*
X55268286Y-147649429D01*
X55125429Y-147720857D01*
X54625429Y-147720857D01*
X47514286Y-131679143D02*
X48657143Y-131679143D01*
X49657143Y-130750571D02*
X49800000Y-130750571D01*
X49942857Y-130822000D01*
X50014286Y-130893429D01*
X50085715Y-131036286D01*
X50157143Y-131322000D01*
X50157143Y-131679143D01*
X50085715Y-131964857D01*
X50014286Y-132107714D01*
X49942857Y-132179143D01*
X49800000Y-132250571D01*
X49657143Y-132250571D01*
X49514286Y-132179143D01*
X49442857Y-132107714D01*
X49371429Y-131964857D01*
X49300000Y-131679143D01*
X49300000Y-131322000D01*
X49371429Y-131036286D01*
X49442857Y-130893429D01*
X49514286Y-130822000D01*
X49657143Y-130750571D01*
X52585714Y-132250571D02*
X52585714Y-130750571D01*
X52585714Y-132179143D02*
X52442857Y-132250571D01*
X52157143Y-132250571D01*
X52014285Y-132179143D01*
X51942857Y-132107714D01*
X51871428Y-131964857D01*
X51871428Y-131536286D01*
X51942857Y-131393429D01*
X52014285Y-131322000D01*
X52157143Y-131250571D01*
X52442857Y-131250571D01*
X52585714Y-131322000D01*
X53800000Y-131464857D02*
X54014286Y-131536286D01*
X54085714Y-131607714D01*
X54157143Y-131750571D01*
X54157143Y-131964857D01*
X54085714Y-132107714D01*
X54014286Y-132179143D01*
X53871428Y-132250571D01*
X53300000Y-132250571D01*
X53300000Y-130750571D01*
X53800000Y-130750571D01*
X53942857Y-130822000D01*
X54014286Y-130893429D01*
X54085714Y-131036286D01*
X54085714Y-131179143D01*
X54014286Y-131322000D01*
X53942857Y-131393429D01*
X53800000Y-131464857D01*
X53300000Y-131464857D01*
X139569429Y-148078000D02*
X140283715Y-148078000D01*
X139426572Y-148506571D02*
X139926572Y-147006571D01*
X140426572Y-148506571D01*
X142069429Y-147935143D02*
X143212286Y-147935143D01*
X142640857Y-148506571D02*
X142640857Y-147363714D01*
X145569429Y-147720857D02*
X145783715Y-147792286D01*
X145855143Y-147863714D01*
X145926572Y-148006571D01*
X145926572Y-148220857D01*
X145855143Y-148363714D01*
X145783715Y-148435143D01*
X145640857Y-148506571D01*
X145069429Y-148506571D01*
X145069429Y-147006571D01*
X145569429Y-147006571D01*
X145712286Y-147078000D01*
X145783715Y-147149429D01*
X145855143Y-147292286D01*
X145855143Y-147435143D01*
X145783715Y-147578000D01*
X145712286Y-147649429D01*
X145569429Y-147720857D01*
X145069429Y-147720857D01*
X142390857Y-131314000D02*
X143105143Y-131314000D01*
X142248000Y-131742571D02*
X142748000Y-130242571D01*
X143248000Y-131742571D01*
X117816858Y-147935143D02*
X118959715Y-147935143D01*
X119602572Y-147149429D02*
X119674001Y-147078000D01*
X119816858Y-147006571D01*
X120174001Y-147006571D01*
X120316858Y-147078000D01*
X120388287Y-147149429D01*
X120459715Y-147292286D01*
X120459715Y-147435143D01*
X120388287Y-147649429D01*
X119531144Y-148506571D01*
X120459715Y-148506571D01*
X121102572Y-148363714D02*
X121174000Y-148435143D01*
X121102572Y-148506571D01*
X121031143Y-148435143D01*
X121102572Y-148363714D01*
X121102572Y-148506571D01*
X122531144Y-147006571D02*
X121816858Y-147006571D01*
X121745429Y-147720857D01*
X121816858Y-147649429D01*
X121959715Y-147578000D01*
X122316858Y-147578000D01*
X122459715Y-147649429D01*
X122531144Y-147720857D01*
X122602572Y-147863714D01*
X122602572Y-148220857D01*
X122531144Y-148363714D01*
X122459715Y-148435143D01*
X122316858Y-148506571D01*
X121959715Y-148506571D01*
X121816858Y-148435143D01*
X121745429Y-148363714D01*
X125031143Y-148506571D02*
X125031143Y-147006571D01*
X125031143Y-148435143D02*
X124888286Y-148506571D01*
X124602572Y-148506571D01*
X124459714Y-148435143D01*
X124388286Y-148363714D01*
X124316857Y-148220857D01*
X124316857Y-147792286D01*
X124388286Y-147649429D01*
X124459714Y-147578000D01*
X124602572Y-147506571D01*
X124888286Y-147506571D01*
X125031143Y-147578000D01*
X126245429Y-147720857D02*
X126459715Y-147792286D01*
X126531143Y-147863714D01*
X126602572Y-148006571D01*
X126602572Y-148220857D01*
X126531143Y-148363714D01*
X126459715Y-148435143D01*
X126316857Y-148506571D01*
X125745429Y-148506571D01*
X125745429Y-147006571D01*
X126245429Y-147006571D01*
X126388286Y-147078000D01*
X126459715Y-147149429D01*
X126531143Y-147292286D01*
X126531143Y-147435143D01*
X126459715Y-147578000D01*
X126388286Y-147649429D01*
X126245429Y-147720857D01*
X125745429Y-147720857D01*
X118634286Y-131425143D02*
X119777143Y-131425143D01*
X120777143Y-130496571D02*
X120920000Y-130496571D01*
X121062857Y-130568000D01*
X121134286Y-130639429D01*
X121205715Y-130782286D01*
X121277143Y-131068000D01*
X121277143Y-131425143D01*
X121205715Y-131710857D01*
X121134286Y-131853714D01*
X121062857Y-131925143D01*
X120920000Y-131996571D01*
X120777143Y-131996571D01*
X120634286Y-131925143D01*
X120562857Y-131853714D01*
X120491429Y-131710857D01*
X120420000Y-131425143D01*
X120420000Y-131068000D01*
X120491429Y-130782286D01*
X120562857Y-130639429D01*
X120634286Y-130568000D01*
X120777143Y-130496571D01*
X123705714Y-131996571D02*
X123705714Y-130496571D01*
X123705714Y-131925143D02*
X123562857Y-131996571D01*
X123277143Y-131996571D01*
X123134285Y-131925143D01*
X123062857Y-131853714D01*
X122991428Y-131710857D01*
X122991428Y-131282286D01*
X123062857Y-131139429D01*
X123134285Y-131068000D01*
X123277143Y-130996571D01*
X123562857Y-130996571D01*
X123705714Y-131068000D01*
X124920000Y-131210857D02*
X125134286Y-131282286D01*
X125205714Y-131353714D01*
X125277143Y-131496571D01*
X125277143Y-131710857D01*
X125205714Y-131853714D01*
X125134286Y-131925143D01*
X124991428Y-131996571D01*
X124420000Y-131996571D01*
X124420000Y-130496571D01*
X124920000Y-130496571D01*
X125062857Y-130568000D01*
X125134286Y-130639429D01*
X125205714Y-130782286D01*
X125205714Y-130925143D01*
X125134286Y-131068000D01*
X125062857Y-131139429D01*
X124920000Y-131210857D01*
X124420000Y-131210857D01*
D11*
X130556000Y-171450000D02*
X130556000Y-171196000D01*
X145796000Y-171450000D02*
X145796000Y-171196000D01*
X145796000Y-179705000D02*
X130556000Y-179705000D01*
X130556000Y-180340000D02*
X145796000Y-180340000D01*
X145796000Y-180340000D02*
X145796000Y-171450000D01*
X145796000Y-171196000D02*
X130556000Y-171196000D01*
X130556000Y-171450000D02*
X130556000Y-180340000D01*
X138938000Y-178054000D02*
X137414000Y-178054000D01*
X137414000Y-178054000D02*
X137414000Y-172974000D01*
X137414000Y-172974000D02*
X138938000Y-172974000D01*
X138938000Y-172974000D02*
X138938000Y-178054000D01*
X134997461Y-173482000D02*
G75*
G03X134997461Y-173482000I-567961J0D01*
G01*
X142490461Y-173482000D02*
G75*
G03X142490461Y-173482000I-567961J0D01*
G01*
X143718551Y-176276000D02*
G75*
G03X143718551Y-176276000I-1796051J0D01*
G01*
X136225551Y-176276000D02*
G75*
G03X136225551Y-176276000I-1796051J0D01*
G01*
X47050000Y-171450000D02*
X47050000Y-171196000D01*
X62290000Y-171450000D02*
X62290000Y-171196000D01*
X62290000Y-179705000D02*
X47050000Y-179705000D01*
X47050000Y-180340000D02*
X62290000Y-180340000D01*
X62290000Y-180340000D02*
X62290000Y-171450000D01*
X62290000Y-171196000D02*
X47050000Y-171196000D01*
X47050000Y-171450000D02*
X47050000Y-180340000D01*
X55432000Y-178054000D02*
X53908000Y-178054000D01*
X53908000Y-178054000D02*
X53908000Y-172974000D01*
X53908000Y-172974000D02*
X55432000Y-172974000D01*
X55432000Y-172974000D02*
X55432000Y-178054000D01*
X51491461Y-173482000D02*
G75*
G03X51491461Y-173482000I-567961J0D01*
G01*
X58984461Y-173482000D02*
G75*
G03X58984461Y-173482000I-567961J0D01*
G01*
X60212551Y-176276000D02*
G75*
G03X60212551Y-176276000I-1796051J0D01*
G01*
X52719551Y-176276000D02*
G75*
G03X52719551Y-176276000I-1796051J0D01*
G01*
X79248000Y-127254000D02*
X79248000Y-112522000D01*
X44196000Y-127254000D02*
X44196000Y-112522000D01*
X79248000Y-127254000D02*
X44196000Y-127254000D01*
X44196000Y-112522000D02*
X79248000Y-112522000D01*
X61976000Y-80518000D02*
X76200000Y-80518000D01*
X61976000Y-103886000D02*
X61976000Y-80518000D01*
X76200000Y-103886000D02*
X61976000Y-103886000D01*
X76200000Y-80518000D02*
X76200000Y-103886000D01*
X86360000Y-68580000D02*
X86360000Y-92456000D01*
X121412000Y-92456000D02*
X121412000Y-68580000D01*
X121412000Y-92456000D02*
X86360000Y-92456000D01*
X86360000Y-68580000D02*
X121412000Y-68580000D01*
X62992000Y-134366000D02*
X81280000Y-134366000D01*
X62992000Y-169418000D02*
X62992000Y-134366000D01*
X81280000Y-169418000D02*
X62992000Y-169418000D01*
X81280000Y-134366000D02*
X81280000Y-169418000D01*
X103124000Y-25654000D02*
X124968000Y-25654000D01*
X124968000Y-60706000D02*
X103124000Y-60706000D01*
X103124000Y-60706000D02*
X103124000Y-25654000D01*
X124968000Y-25654000D02*
X124968000Y-60706000D01*
X114808000Y-101600000D02*
X129032000Y-101600000D01*
X114808000Y-124968000D02*
X114808000Y-101600000D01*
X129032000Y-124968000D02*
X114808000Y-124968000D01*
X129032000Y-101600000D02*
X129032000Y-124968000D01*
X49530000Y-85150000D02*
X49784000Y-85150000D01*
X49530000Y-100390000D02*
X49784000Y-100390000D01*
X41275000Y-100390000D02*
X41275000Y-85150000D01*
X40640000Y-85150000D02*
X40640000Y-100390000D01*
X40640000Y-100390000D02*
X49530000Y-100390000D01*
X49784000Y-100390000D02*
X49784000Y-85150000D01*
X49530000Y-85150000D02*
X40640000Y-85150000D01*
X42926000Y-93532000D02*
X42926000Y-92008000D01*
X42926000Y-92008000D02*
X48006000Y-92008000D01*
X48006000Y-92008000D02*
X48006000Y-93532000D01*
X48006000Y-93532000D02*
X42926000Y-93532000D01*
X48065961Y-89023500D02*
G75*
G03X48065961Y-89023500I-567961J0D01*
G01*
X48065961Y-96516500D02*
G75*
G03X48065961Y-96516500I-567961J0D01*
G01*
X46500051Y-96516500D02*
G75*
G03X46500051Y-96516500I-1796051J0D01*
G01*
X46500051Y-89023500D02*
G75*
G03X46500051Y-89023500I-1796051J0D01*
G01*
X143510000Y-125476000D02*
X143256000Y-125476000D01*
X143510000Y-110236000D02*
X143256000Y-110236000D01*
X151765000Y-110236000D02*
X151765000Y-125476000D01*
X152400000Y-125476000D02*
X152400000Y-110236000D01*
X152400000Y-110236000D02*
X143510000Y-110236000D01*
X143256000Y-110236000D02*
X143256000Y-125476000D01*
X143510000Y-125476000D02*
X152400000Y-125476000D01*
X150114000Y-117094000D02*
X150114000Y-118618000D01*
X150114000Y-118618000D02*
X145034000Y-118618000D01*
X145034000Y-118618000D02*
X145034000Y-117094000D01*
X145034000Y-117094000D02*
X150114000Y-117094000D01*
X146109961Y-121602500D02*
G75*
G03X146109961Y-121602500I-567961J0D01*
G01*
X146109961Y-114109500D02*
G75*
G03X146109961Y-114109500I-567961J0D01*
G01*
X150132051Y-114109500D02*
G75*
G03X150132051Y-114109500I-1796051J0D01*
G01*
X150132051Y-121602500D02*
G75*
G03X150132051Y-121602500I-1796051J0D01*
G01*
X99120000Y-31750000D02*
X99120000Y-32004000D01*
X83880000Y-31750000D02*
X83880000Y-32004000D01*
X83880000Y-23495000D02*
X99120000Y-23495000D01*
X99120000Y-22860000D02*
X83880000Y-22860000D01*
X83880000Y-22860000D02*
X83880000Y-31750000D01*
X83880000Y-32004000D02*
X99120000Y-32004000D01*
X99120000Y-31750000D02*
X99120000Y-22860000D01*
X90738000Y-25146000D02*
X92262000Y-25146000D01*
X92262000Y-25146000D02*
X92262000Y-30226000D01*
X92262000Y-30226000D02*
X90738000Y-30226000D01*
X90738000Y-30226000D02*
X90738000Y-25146000D01*
X95814461Y-29718000D02*
G75*
G03X95814461Y-29718000I-567961J0D01*
G01*
X88321461Y-29718000D02*
G75*
G03X88321461Y-29718000I-567961J0D01*
G01*
X89549551Y-26924000D02*
G75*
G03X89549551Y-26924000I-1796051J0D01*
G01*
X97042551Y-26924000D02*
G75*
G03X97042551Y-26924000I-1796051J0D01*
G01*
X78934000Y-171450000D02*
X78934000Y-171196000D01*
X94174000Y-171450000D02*
X94174000Y-171196000D01*
X94174000Y-179705000D02*
X78934000Y-179705000D01*
X78934000Y-180340000D02*
X94174000Y-180340000D01*
X94174000Y-180340000D02*
X94174000Y-171450000D01*
X94174000Y-171196000D02*
X78934000Y-171196000D01*
X78934000Y-171450000D02*
X78934000Y-180340000D01*
X87316000Y-178054000D02*
X85792000Y-178054000D01*
X85792000Y-178054000D02*
X85792000Y-172974000D01*
X85792000Y-172974000D02*
X87316000Y-172974000D01*
X87316000Y-172974000D02*
X87316000Y-178054000D01*
X83375461Y-173482000D02*
G75*
G03X83375461Y-173482000I-567961J0D01*
G01*
X90868461Y-173482000D02*
G75*
G03X90868461Y-173482000I-567961J0D01*
G01*
X92096551Y-176276000D02*
G75*
G03X92096551Y-176276000I-1796051J0D01*
G01*
X84603551Y-176276000D02*
G75*
G03X84603551Y-176276000I-1796051J0D01*
G01*
X110744000Y-171450000D02*
X110744000Y-171196000D01*
X125984000Y-171450000D02*
X125984000Y-171196000D01*
X125984000Y-179705000D02*
X110744000Y-179705000D01*
X110744000Y-180340000D02*
X125984000Y-180340000D01*
X125984000Y-180340000D02*
X125984000Y-171450000D01*
X125984000Y-171196000D02*
X110744000Y-171196000D01*
X110744000Y-171450000D02*
X110744000Y-180340000D01*
X119126000Y-178054000D02*
X117602000Y-178054000D01*
X117602000Y-178054000D02*
X117602000Y-172974000D01*
X117602000Y-172974000D02*
X119126000Y-172974000D01*
X119126000Y-172974000D02*
X119126000Y-178054000D01*
X115185461Y-173482000D02*
G75*
G03X115185461Y-173482000I-567961J0D01*
G01*
X122678461Y-173482000D02*
G75*
G03X122678461Y-173482000I-567961J0D01*
G01*
X123906551Y-176276000D02*
G75*
G03X123906551Y-176276000I-1796051J0D01*
G01*
X116413551Y-176276000D02*
G75*
G03X116413551Y-176276000I-1796051J0D01*
G01*
X56896000Y-146304000D02*
X56896000Y-133096000D01*
X45212000Y-146304000D02*
X56896000Y-146304000D01*
X45212000Y-133096000D02*
X45212000Y-146304000D01*
X56896000Y-133096000D02*
X45212000Y-133096000D01*
X45212000Y-153416000D02*
X45212000Y-166624000D01*
X56896000Y-153416000D02*
X45212000Y-153416000D01*
X56896000Y-166624000D02*
X56896000Y-153416000D01*
X45212000Y-166624000D02*
X56896000Y-166624000D01*
X128270000Y-146050000D02*
X128270000Y-132842000D01*
X116586000Y-146050000D02*
X128270000Y-146050000D01*
X116586000Y-132842000D02*
X116586000Y-146050000D01*
X128270000Y-132842000D02*
X116586000Y-132842000D01*
X116586000Y-153162000D02*
X116586000Y-166370000D01*
X128270000Y-153162000D02*
X116586000Y-153162000D01*
X128270000Y-166370000D02*
X128270000Y-153162000D01*
X116586000Y-166370000D02*
X128270000Y-166370000D01*
X139192000Y-132842000D02*
X139192000Y-146050000D01*
X146304000Y-132842000D02*
X139192000Y-132842000D01*
X146304000Y-146050000D02*
X146304000Y-132842000D01*
X139192000Y-146050000D02*
X146304000Y-146050000D01*
X136652000Y-153162000D02*
X136652000Y-166370000D01*
X148336000Y-153162000D02*
X136652000Y-153162000D01*
X148336000Y-166370000D02*
X148336000Y-153162000D01*
X136652000Y-166370000D02*
X148336000Y-166370000D01*
X75946000Y-51816000D02*
X57658000Y-51816000D01*
X75946000Y-45466000D02*
X75946000Y-51816000D01*
X86106000Y-45466000D02*
X75946000Y-45466000D01*
X86106000Y-66040000D02*
X86106000Y-45466000D01*
X67818000Y-66040000D02*
X86106000Y-66040000D01*
X67818000Y-72390000D02*
X67818000Y-66040000D01*
X57658000Y-72390000D02*
X67818000Y-72390000D01*
X57658000Y-51816000D02*
X57658000Y-72390000D01*
X68580000Y-29210000D02*
X50292000Y-29210000D01*
X68580000Y-22860000D02*
X68580000Y-29210000D01*
X78740000Y-22860000D02*
X68580000Y-22860000D01*
X78740000Y-43434000D02*
X78740000Y-22860000D01*
X60452000Y-43434000D02*
X78740000Y-43434000D01*
X60452000Y-49784000D02*
X60452000Y-43434000D01*
X50292000Y-49784000D02*
X60452000Y-49784000D01*
X50292000Y-29210000D02*
X50292000Y-49784000D01*
X150114000Y-34290000D02*
X144018000Y-34290000D01*
X150114000Y-94742000D02*
X150114000Y-34290000D01*
X144018000Y-94742000D02*
X150114000Y-94742000D01*
X144018000Y-94742000D02*
X128778000Y-94742000D01*
X128778000Y-34290000D02*
X144018000Y-34290000D01*
X128778000Y-94742000D02*
X128778000Y-34290000D01*
X87122000Y-168148000D02*
X93218000Y-168148000D01*
X87122000Y-107696000D02*
X87122000Y-168148000D01*
X93218000Y-107696000D02*
X87122000Y-107696000D01*
X93218000Y-107696000D02*
X108458000Y-107696000D01*
X108458000Y-168148000D02*
X93218000Y-168148000D01*
X108458000Y-107696000D02*
X108458000Y-168148000D01*
X61555334Y-120245143D02*
X61507715Y-120292762D01*
X61364858Y-120340381D01*
X61269620Y-120340381D01*
X61126762Y-120292762D01*
X61031524Y-120197524D01*
X60983905Y-120102286D01*
X60936286Y-119911810D01*
X60936286Y-119768952D01*
X60983905Y-119578476D01*
X61031524Y-119483238D01*
X61126762Y-119388000D01*
X61269620Y-119340381D01*
X61364858Y-119340381D01*
X61507715Y-119388000D01*
X61555334Y-119435619D01*
X62507715Y-120340381D02*
X61936286Y-120340381D01*
X62222000Y-120340381D02*
X62222000Y-119340381D01*
X62126762Y-119483238D01*
X62031524Y-119578476D01*
X61936286Y-119626095D01*
X69445143Y-92368666D02*
X69492762Y-92416285D01*
X69540381Y-92559142D01*
X69540381Y-92654380D01*
X69492762Y-92797238D01*
X69397524Y-92892476D01*
X69302286Y-92940095D01*
X69111810Y-92987714D01*
X68968952Y-92987714D01*
X68778476Y-92940095D01*
X68683238Y-92892476D01*
X68588000Y-92797238D01*
X68540381Y-92654380D01*
X68540381Y-92559142D01*
X68588000Y-92416285D01*
X68635619Y-92368666D01*
X68635619Y-91987714D02*
X68588000Y-91940095D01*
X68540381Y-91844857D01*
X68540381Y-91606761D01*
X68588000Y-91511523D01*
X68635619Y-91463904D01*
X68730857Y-91416285D01*
X68826095Y-91416285D01*
X68968952Y-91463904D01*
X69540381Y-92035333D01*
X69540381Y-91416285D01*
X103719334Y-80875143D02*
X103671715Y-80922762D01*
X103528858Y-80970381D01*
X103433620Y-80970381D01*
X103290762Y-80922762D01*
X103195524Y-80827524D01*
X103147905Y-80732286D01*
X103100286Y-80541810D01*
X103100286Y-80398952D01*
X103147905Y-80208476D01*
X103195524Y-80113238D01*
X103290762Y-80018000D01*
X103433620Y-79970381D01*
X103528858Y-79970381D01*
X103671715Y-80018000D01*
X103719334Y-80065619D01*
X104052667Y-79970381D02*
X104671715Y-79970381D01*
X104338381Y-80351333D01*
X104481239Y-80351333D01*
X104576477Y-80398952D01*
X104624096Y-80446571D01*
X104671715Y-80541810D01*
X104671715Y-80779905D01*
X104624096Y-80875143D01*
X104576477Y-80922762D01*
X104481239Y-80970381D01*
X104195524Y-80970381D01*
X104100286Y-80922762D01*
X104052667Y-80875143D01*
X72493143Y-152058666D02*
X72540762Y-152106285D01*
X72588381Y-152249142D01*
X72588381Y-152344380D01*
X72540762Y-152487238D01*
X72445524Y-152582476D01*
X72350286Y-152630095D01*
X72159810Y-152677714D01*
X72016952Y-152677714D01*
X71826476Y-152630095D01*
X71731238Y-152582476D01*
X71636000Y-152487238D01*
X71588381Y-152344380D01*
X71588381Y-152249142D01*
X71636000Y-152106285D01*
X71683619Y-152058666D01*
X71921714Y-151201523D02*
X72588381Y-151201523D01*
X71540762Y-151439619D02*
X72255048Y-151677714D01*
X72255048Y-151058666D01*
X114403143Y-43346666D02*
X114450762Y-43394285D01*
X114498381Y-43537142D01*
X114498381Y-43632380D01*
X114450762Y-43775238D01*
X114355524Y-43870476D01*
X114260286Y-43918095D01*
X114069810Y-43965714D01*
X113926952Y-43965714D01*
X113736476Y-43918095D01*
X113641238Y-43870476D01*
X113546000Y-43775238D01*
X113498381Y-43632380D01*
X113498381Y-43537142D01*
X113546000Y-43394285D01*
X113593619Y-43346666D01*
X113498381Y-42441904D02*
X113498381Y-42918095D01*
X113974571Y-42965714D01*
X113926952Y-42918095D01*
X113879333Y-42822857D01*
X113879333Y-42584761D01*
X113926952Y-42489523D01*
X113974571Y-42441904D01*
X114069810Y-42394285D01*
X114307905Y-42394285D01*
X114403143Y-42441904D01*
X114450762Y-42489523D01*
X114498381Y-42584761D01*
X114498381Y-42822857D01*
X114450762Y-42918095D01*
X114403143Y-42965714D01*
X122277143Y-113450666D02*
X122324762Y-113498285D01*
X122372381Y-113641142D01*
X122372381Y-113736380D01*
X122324762Y-113879238D01*
X122229524Y-113974476D01*
X122134286Y-114022095D01*
X121943810Y-114069714D01*
X121800952Y-114069714D01*
X121610476Y-114022095D01*
X121515238Y-113974476D01*
X121420000Y-113879238D01*
X121372381Y-113736380D01*
X121372381Y-113641142D01*
X121420000Y-113498285D01*
X121467619Y-113450666D01*
X121372381Y-112593523D02*
X121372381Y-112784000D01*
X121420000Y-112879238D01*
X121467619Y-112926857D01*
X121610476Y-113022095D01*
X121800952Y-113069714D01*
X122181905Y-113069714D01*
X122277143Y-113022095D01*
X122324762Y-112974476D01*
X122372381Y-112879238D01*
X122372381Y-112688761D01*
X122324762Y-112593523D01*
X122277143Y-112545904D01*
X122181905Y-112498285D01*
X121943810Y-112498285D01*
X121848571Y-112545904D01*
X121800952Y-112593523D01*
X121753333Y-112688761D01*
X121753333Y-112879238D01*
X121800952Y-112974476D01*
X121848571Y-113022095D01*
X121943810Y-113069714D01*
X49501357Y-92973500D02*
X49501357Y-93544929D01*
X48301357Y-93544929D01*
X49501357Y-91944928D02*
X49501357Y-92630643D01*
X49501357Y-92287785D02*
X48301357Y-92287785D01*
X48472786Y-92402071D01*
X48587071Y-92516357D01*
X48644214Y-92630643D01*
X144814857Y-118056000D02*
X144814857Y-118627429D01*
X143614857Y-118627429D01*
X143729143Y-117713143D02*
X143672000Y-117656000D01*
X143614857Y-117541714D01*
X143614857Y-117256000D01*
X143672000Y-117141714D01*
X143729143Y-117084571D01*
X143843429Y-117027428D01*
X143957714Y-117027428D01*
X144129143Y-117084571D01*
X144814857Y-117770285D01*
X144814857Y-117027428D01*
X91300000Y-31784857D02*
X90728571Y-31784857D01*
X90728571Y-30584857D01*
X91585715Y-30584857D02*
X92328572Y-30584857D01*
X91928572Y-31042000D01*
X92100000Y-31042000D01*
X92214286Y-31099143D01*
X92271429Y-31156286D01*
X92328572Y-31270571D01*
X92328572Y-31556286D01*
X92271429Y-31670571D01*
X92214286Y-31727714D01*
X92100000Y-31784857D01*
X91757143Y-31784857D01*
X91642857Y-31727714D01*
X91585715Y-31670571D01*
M02*
