G04 #@! TF.FileFunction,Soldermask,Top*
%FSLAX46Y46*%
G04 Gerber Fmt 4.6, Leading zero omitted, Abs format (unit mm)*
G04 Created by KiCad (PCBNEW 4.0.4-stable) date 12/10/17 16:08:38*
%MOMM*%
%LPD*%
G01*
G04 APERTURE LIST*
%ADD10C,0.100000*%
%ADD11C,0.150000*%
%ADD12C,0.520000*%
%ADD13O,2.400000X3.400000*%
%ADD14R,2.200000X2.200000*%
%ADD15C,2.200000*%
%ADD16O,3.400000X2.400000*%
%ADD17R,2.400000X2.100000*%
%ADD18O,2.400000X2.100000*%
%ADD19R,2.300000X2.000000*%
%ADD20C,7.020000*%
%ADD21C,5.400000*%
%ADD22R,3.400000X3.400000*%
%ADD23C,3.900000*%
%ADD24C,5.100000*%
%ADD25C,0.254000*%
G04 APERTURE END LIST*
D10*
D11*
X75946000Y-51816000D02*
X57658000Y-51816000D01*
X75946000Y-45466000D02*
X75946000Y-51816000D01*
X86106000Y-45466000D02*
X75946000Y-45466000D01*
X86106000Y-66040000D02*
X86106000Y-45466000D01*
X67818000Y-66040000D02*
X86106000Y-66040000D01*
X67818000Y-72390000D02*
X67818000Y-66040000D01*
X57658000Y-72390000D02*
X67818000Y-72390000D01*
X57658000Y-51816000D02*
X57658000Y-72390000D01*
X68580000Y-29210000D02*
X50292000Y-29210000D01*
X68580000Y-22860000D02*
X68580000Y-29210000D01*
X78740000Y-22860000D02*
X68580000Y-22860000D01*
X78740000Y-43434000D02*
X78740000Y-22860000D01*
X60452000Y-43434000D02*
X78740000Y-43434000D01*
X60452000Y-49784000D02*
X60452000Y-43434000D01*
X50292000Y-49784000D02*
X60452000Y-49784000D01*
X50292000Y-29210000D02*
X50292000Y-49784000D01*
X128778000Y-34290000D02*
X128778000Y-94742000D01*
X150114000Y-34290000D02*
X128778000Y-34290000D01*
X150114000Y-94742000D02*
X150114000Y-34290000D01*
X128778000Y-94742000D02*
X150114000Y-94742000D01*
X108458000Y-168148000D02*
X108458000Y-107696000D01*
X87122000Y-168148000D02*
X108458000Y-168148000D01*
X87122000Y-107696000D02*
X87122000Y-168148000D01*
X108458000Y-107696000D02*
X87122000Y-107696000D01*
D12*
X125730000Y-152019000D03*
X122364500Y-157480000D03*
D13*
X141926000Y-176276000D03*
X134426000Y-176276000D03*
X58420000Y-176276000D03*
X50920000Y-176276000D03*
D14*
X42164000Y-119888000D03*
D15*
X81280000Y-119888000D03*
D14*
X69088000Y-78486000D03*
D15*
X69088000Y-105918000D03*
D14*
X84328000Y-80518000D03*
D15*
X123444000Y-80518000D03*
D14*
X72136000Y-132334000D03*
D15*
X72136000Y-171450000D03*
D14*
X114046000Y-23622000D03*
D15*
X114046000Y-62738000D03*
D14*
X121920000Y-99568000D03*
D15*
X121920000Y-127000000D03*
D16*
X44704000Y-96520000D03*
X44704000Y-89020000D03*
X148336000Y-114106000D03*
X148336000Y-121606000D03*
D13*
X87750000Y-26924000D03*
X95250000Y-26924000D03*
X90304000Y-176276000D03*
X82804000Y-176276000D03*
X122114000Y-176276000D03*
X114614000Y-176276000D03*
D17*
X53340000Y-144272000D03*
D18*
X53340000Y-139700000D03*
X53340000Y-135128000D03*
X48768000Y-135128000D03*
X48768000Y-139700000D03*
D17*
X48768000Y-144272000D03*
X48768000Y-155448000D03*
D18*
X48768000Y-160020000D03*
X48768000Y-164592000D03*
X53340000Y-164592000D03*
X53340000Y-160020000D03*
D17*
X53340000Y-155448000D03*
X124714000Y-144018000D03*
D18*
X124714000Y-139446000D03*
X124714000Y-134874000D03*
X120142000Y-134874000D03*
X120142000Y-139446000D03*
D17*
X120142000Y-144018000D03*
X120142000Y-155194000D03*
D18*
X120142000Y-159766000D03*
X120142000Y-164338000D03*
X124714000Y-164338000D03*
X124714000Y-159766000D03*
D17*
X124714000Y-155194000D03*
D19*
X142748000Y-134874000D03*
D18*
X142748000Y-139446000D03*
X142748000Y-144018000D03*
D17*
X140208000Y-155194000D03*
D18*
X140208000Y-159766000D03*
X140208000Y-164338000D03*
X144780000Y-164338000D03*
X144780000Y-159766000D03*
D17*
X144780000Y-155194000D03*
D20*
X42164000Y-24384000D03*
X150876000Y-24384000D03*
X42164000Y-178816000D03*
X150876000Y-178816000D03*
X88392000Y-100584000D03*
X150876000Y-102108000D03*
X42164000Y-106680000D03*
D21*
X62738000Y-69088000D03*
X81026000Y-48768000D03*
D22*
X50292000Y-58928000D03*
D23*
X93472000Y-58928000D03*
D21*
X55372000Y-46482000D03*
X73660000Y-26162000D03*
D22*
X42926000Y-36322000D03*
D23*
X86106000Y-36322000D03*
D24*
X147066000Y-86614000D03*
X147066000Y-42418000D03*
D22*
X136398000Y-104140000D03*
D23*
X136398000Y-24892000D03*
D24*
X90170000Y-115824000D03*
X90170000Y-160020000D03*
D22*
X100838000Y-98298000D03*
D23*
X100838000Y-177546000D03*
D12*
X117284500Y-156718000D03*
D25*
G36*
X85979000Y-65913000D02*
X67818000Y-65913000D01*
X67768590Y-65923006D01*
X67726965Y-65951447D01*
X67699685Y-65993841D01*
X67691000Y-66040000D01*
X67691000Y-72263000D01*
X57785000Y-72263000D01*
X57785000Y-51943000D01*
X75946000Y-51943000D01*
X75995410Y-51932994D01*
X76037035Y-51904553D01*
X76064315Y-51862159D01*
X76073000Y-51816000D01*
X76073000Y-45593000D01*
X85979000Y-45593000D01*
X85979000Y-65913000D01*
X85979000Y-65913000D01*
G37*
X85979000Y-65913000D02*
X67818000Y-65913000D01*
X67768590Y-65923006D01*
X67726965Y-65951447D01*
X67699685Y-65993841D01*
X67691000Y-66040000D01*
X67691000Y-72263000D01*
X57785000Y-72263000D01*
X57785000Y-51943000D01*
X75946000Y-51943000D01*
X75995410Y-51932994D01*
X76037035Y-51904553D01*
X76064315Y-51862159D01*
X76073000Y-51816000D01*
X76073000Y-45593000D01*
X85979000Y-45593000D01*
X85979000Y-65913000D01*
G36*
X78613000Y-43307000D02*
X60452000Y-43307000D01*
X60402590Y-43317006D01*
X60360965Y-43345447D01*
X60333685Y-43387841D01*
X60325000Y-43434000D01*
X60325000Y-49657000D01*
X50419000Y-49657000D01*
X50419000Y-29337000D01*
X68580000Y-29337000D01*
X68629410Y-29326994D01*
X68671035Y-29298553D01*
X68698315Y-29256159D01*
X68707000Y-29210000D01*
X68707000Y-22987000D01*
X78613000Y-22987000D01*
X78613000Y-43307000D01*
X78613000Y-43307000D01*
G37*
X78613000Y-43307000D02*
X60452000Y-43307000D01*
X60402590Y-43317006D01*
X60360965Y-43345447D01*
X60333685Y-43387841D01*
X60325000Y-43434000D01*
X60325000Y-49657000D01*
X50419000Y-49657000D01*
X50419000Y-29337000D01*
X68580000Y-29337000D01*
X68629410Y-29326994D01*
X68671035Y-29298553D01*
X68698315Y-29256159D01*
X68707000Y-29210000D01*
X68707000Y-22987000D01*
X78613000Y-22987000D01*
X78613000Y-43307000D01*
G36*
X149987000Y-94615000D02*
X128905000Y-94615000D01*
X128905000Y-34417000D01*
X149987000Y-34417000D01*
X149987000Y-94615000D01*
X149987000Y-94615000D01*
G37*
X149987000Y-94615000D02*
X128905000Y-94615000D01*
X128905000Y-34417000D01*
X149987000Y-34417000D01*
X149987000Y-94615000D01*
G36*
X108331000Y-168021000D02*
X87249000Y-168021000D01*
X87249000Y-107823000D01*
X108331000Y-107823000D01*
X108331000Y-168021000D01*
X108331000Y-168021000D01*
G37*
X108331000Y-168021000D02*
X87249000Y-168021000D01*
X87249000Y-107823000D01*
X108331000Y-107823000D01*
X108331000Y-168021000D01*
M02*
