M48
;DRILL file {KiCad 4.0.4-stable} date 12/10/17 16:08:49
;FORMAT={-:-/ absolute / metric / decimal}
FMAT,2
METRIC,TZ
T1C0.500
T2C0.800
T3C1.000
T4C1.100
T5C2.000
T6C3.200
T7C3.500
T8C3.600
%
G90
G05
M71
T1
X117.284Y-156.718
X122.364Y-157.48
X125.73Y-152.019
T2
X44.704Y-89.02
X44.704Y-96.52
X50.92Y-176.276
X58.42Y-176.276
X82.804Y-176.276
X87.75Y-26.924
X90.304Y-176.276
X95.25Y-26.924
X114.614Y-176.276
X122.114Y-176.276
X134.426Y-176.276
X141.926Y-176.276
X148.336Y-114.106
X148.336Y-121.606
T4
X42.164Y-119.888
X69.088Y-78.486
X69.088Y-105.918
X72.136Y-132.334
X72.136Y-171.45
X81.28Y-119.888
X84.328Y-80.518
X114.046Y-23.622
X114.046Y-62.738
X121.92Y-99.568
X121.92Y-127.
X123.444Y-80.518
T5
X42.926Y-36.322
X50.292Y-58.928
X83.312Y-141.986
X86.106Y-36.322
X93.472Y-58.928
X100.838Y-98.298
X100.838Y-177.546
X136.398Y-24.892
X136.398Y-104.14
T6
X90.17Y-115.824
X90.17Y-160.02
X147.066Y-42.418
X147.066Y-86.614
T7
X55.372Y-46.482
X62.738Y-69.088
X73.66Y-26.162
X81.026Y-48.768
T8
X42.164Y-24.384
X42.164Y-106.68
X42.164Y-178.816
X88.392Y-100.584
X150.876Y-24.384
X150.876Y-102.108
X150.876Y-178.816
T3
X48.918Y-135.128G85X48.618Y-135.128
G05
X48.918Y-139.7G85X48.618Y-139.7
G05
X48.918Y-144.272G85X48.618Y-144.272
G05
X48.618Y-155.448G85X48.918Y-155.448
G05
X48.618Y-160.02G85X48.918Y-160.02
G05
X48.618Y-164.592G85X48.918Y-164.592
G05
X53.49Y-135.128G85X53.19Y-135.128
G05
X53.49Y-139.7G85X53.19Y-139.7
G05
X53.49Y-144.272G85X53.19Y-144.272
G05
X53.19Y-155.448G85X53.49Y-155.448
G05
X53.19Y-160.02G85X53.49Y-160.02
G05
X53.19Y-164.592G85X53.49Y-164.592
G05
X120.292Y-134.874G85X119.992Y-134.874
G05
X120.292Y-139.446G85X119.992Y-139.446
G05
X120.292Y-144.018G85X119.992Y-144.018
G05
X119.992Y-155.194G85X120.292Y-155.194
G05
X119.992Y-159.766G85X120.292Y-159.766
G05
X119.992Y-164.338G85X120.292Y-164.338
G05
X124.864Y-134.874G85X124.564Y-134.874
G05
X124.864Y-139.446G85X124.564Y-139.446
G05
X124.864Y-144.018G85X124.564Y-144.018
G05
X124.564Y-155.194G85X124.864Y-155.194
G05
X124.564Y-159.766G85X124.864Y-159.766
G05
X124.564Y-164.338G85X124.864Y-164.338
G05
X140.058Y-155.194G85X140.358Y-155.194
G05
X140.058Y-159.766G85X140.358Y-159.766
G05
X140.058Y-164.338G85X140.358Y-164.338
G05
X142.598Y-134.874G85X142.898Y-134.874
G05
X142.598Y-139.446G85X142.898Y-139.446
G05
X142.598Y-144.018G85X142.898Y-144.018
G05
X144.63Y-155.194G85X144.93Y-155.194
G05
X144.63Y-159.766G85X144.93Y-159.766
G05
X144.63Y-164.338G85X144.93Y-164.338
G05
T0
M30
