G04 #@! TF.FileFunction,Legend,Bot*
%FSLAX46Y46*%
G04 Gerber Fmt 4.6, Leading zero omitted, Abs format (unit mm)*
G04 Created by KiCad (PCBNEW 4.0.7) date 02/15/19 15:45:41*
%MOMM*%
%LPD*%
G01*
G04 APERTURE LIST*
%ADD10C,0.100000*%
%ADD11C,0.200000*%
%ADD12C,0.150000*%
G04 APERTURE END LIST*
D10*
X167966668Y-76137333D02*
X167933334Y-76104000D01*
X167866668Y-76070667D01*
X167700001Y-76070667D01*
X167633334Y-76104000D01*
X167600001Y-76137333D01*
X167566668Y-76204000D01*
X167566668Y-76270667D01*
X167600001Y-76370667D01*
X168000001Y-76770667D01*
X167566668Y-76770667D01*
X167133334Y-76070667D02*
X167066667Y-76070667D01*
X167000001Y-76104000D01*
X166966667Y-76137333D01*
X166933334Y-76204000D01*
X166900001Y-76337333D01*
X166900001Y-76504000D01*
X166933334Y-76637333D01*
X166966667Y-76704000D01*
X167000001Y-76737333D01*
X167066667Y-76770667D01*
X167133334Y-76770667D01*
X167200001Y-76737333D01*
X167233334Y-76704000D01*
X167266667Y-76637333D01*
X167300001Y-76504000D01*
X167300001Y-76337333D01*
X167266667Y-76204000D01*
X167233334Y-76137333D01*
X167200001Y-76104000D01*
X167133334Y-76070667D01*
X166233334Y-76770667D02*
X166633334Y-76770667D01*
X166433334Y-76770667D02*
X166433334Y-76070667D01*
X166500000Y-76170667D01*
X166566667Y-76237333D01*
X166633334Y-76270667D01*
X165900000Y-76770667D02*
X165766667Y-76770667D01*
X165700000Y-76737333D01*
X165666667Y-76704000D01*
X165600000Y-76604000D01*
X165566667Y-76470667D01*
X165566667Y-76204000D01*
X165600000Y-76137333D01*
X165633333Y-76104000D01*
X165700000Y-76070667D01*
X165833333Y-76070667D01*
X165900000Y-76104000D01*
X165933333Y-76137333D01*
X165966667Y-76204000D01*
X165966667Y-76370667D01*
X165933333Y-76437333D01*
X165900000Y-76470667D01*
X165833333Y-76504000D01*
X165700000Y-76504000D01*
X165633333Y-76470667D01*
X165600000Y-76437333D01*
X165566667Y-76370667D01*
X165266666Y-76704000D02*
X165233333Y-76737333D01*
X165266666Y-76770667D01*
X165300000Y-76737333D01*
X165266666Y-76704000D01*
X165266666Y-76770667D01*
X164800000Y-76070667D02*
X164733333Y-76070667D01*
X164666667Y-76104000D01*
X164633333Y-76137333D01*
X164600000Y-76204000D01*
X164566667Y-76337333D01*
X164566667Y-76504000D01*
X164600000Y-76637333D01*
X164633333Y-76704000D01*
X164666667Y-76737333D01*
X164733333Y-76770667D01*
X164800000Y-76770667D01*
X164866667Y-76737333D01*
X164900000Y-76704000D01*
X164933333Y-76637333D01*
X164966667Y-76504000D01*
X164966667Y-76337333D01*
X164933333Y-76204000D01*
X164900000Y-76137333D01*
X164866667Y-76104000D01*
X164800000Y-76070667D01*
X164300000Y-76137333D02*
X164266666Y-76104000D01*
X164200000Y-76070667D01*
X164033333Y-76070667D01*
X163966666Y-76104000D01*
X163933333Y-76137333D01*
X163900000Y-76204000D01*
X163900000Y-76270667D01*
X163933333Y-76370667D01*
X164333333Y-76770667D01*
X163900000Y-76770667D01*
X163599999Y-76704000D02*
X163566666Y-76737333D01*
X163599999Y-76770667D01*
X163633333Y-76737333D01*
X163599999Y-76704000D01*
X163599999Y-76770667D01*
X162900000Y-76770667D02*
X163300000Y-76770667D01*
X163100000Y-76770667D02*
X163100000Y-76070667D01*
X163166666Y-76170667D01*
X163233333Y-76237333D01*
X163300000Y-76270667D01*
X162266666Y-76070667D02*
X162599999Y-76070667D01*
X162633333Y-76404000D01*
X162599999Y-76370667D01*
X162533333Y-76337333D01*
X162366666Y-76337333D01*
X162299999Y-76370667D01*
X162266666Y-76404000D01*
X162233333Y-76470667D01*
X162233333Y-76637333D01*
X162266666Y-76704000D01*
X162299999Y-76737333D01*
X162366666Y-76770667D01*
X162533333Y-76770667D01*
X162599999Y-76737333D01*
X162633333Y-76704000D01*
D11*
X121082286Y-90848571D02*
X121082286Y-89348571D01*
X120368000Y-89848571D02*
X120368000Y-90848571D01*
X120368000Y-89991429D02*
X120296572Y-89920000D01*
X120153714Y-89848571D01*
X119939429Y-89848571D01*
X119796572Y-89920000D01*
X119725143Y-90062857D01*
X119725143Y-90848571D01*
X119010857Y-89848571D02*
X119010857Y-91348571D01*
X119010857Y-89920000D02*
X118868000Y-89848571D01*
X118582286Y-89848571D01*
X118439429Y-89920000D01*
X118368000Y-89991429D01*
X118296571Y-90134286D01*
X118296571Y-90562857D01*
X118368000Y-90705714D01*
X118439429Y-90777143D01*
X118582286Y-90848571D01*
X118868000Y-90848571D01*
X119010857Y-90777143D01*
X117010857Y-89848571D02*
X117010857Y-90848571D01*
X117653714Y-89848571D02*
X117653714Y-90634286D01*
X117582286Y-90777143D01*
X117439428Y-90848571D01*
X117225143Y-90848571D01*
X117082286Y-90777143D01*
X117010857Y-90705714D01*
X116510857Y-89848571D02*
X115939428Y-89848571D01*
X116296571Y-89348571D02*
X116296571Y-90634286D01*
X116225143Y-90777143D01*
X116082285Y-90848571D01*
X115939428Y-90848571D01*
X189217715Y-98492571D02*
X188932001Y-98492571D01*
X188789143Y-98564000D01*
X188646286Y-98706857D01*
X188574858Y-98992571D01*
X188574858Y-99492571D01*
X188646286Y-99778286D01*
X188789143Y-99921143D01*
X188932001Y-99992571D01*
X189217715Y-99992571D01*
X189360572Y-99921143D01*
X189503429Y-99778286D01*
X189574858Y-99492571D01*
X189574858Y-98992571D01*
X189503429Y-98706857D01*
X189360572Y-98564000D01*
X189217715Y-98492571D01*
X187289143Y-98992571D02*
X187289143Y-99992571D01*
X187932000Y-98992571D02*
X187932000Y-99778286D01*
X187860572Y-99921143D01*
X187717714Y-99992571D01*
X187503429Y-99992571D01*
X187360572Y-99921143D01*
X187289143Y-99849714D01*
X186789143Y-98992571D02*
X186217714Y-98992571D01*
X186574857Y-98492571D02*
X186574857Y-99778286D01*
X186503429Y-99921143D01*
X186360571Y-99992571D01*
X186217714Y-99992571D01*
X185717714Y-98992571D02*
X185717714Y-100492571D01*
X185717714Y-99064000D02*
X185574857Y-98992571D01*
X185289143Y-98992571D01*
X185146286Y-99064000D01*
X185074857Y-99135429D01*
X185003428Y-99278286D01*
X185003428Y-99706857D01*
X185074857Y-99849714D01*
X185146286Y-99921143D01*
X185289143Y-99992571D01*
X185574857Y-99992571D01*
X185717714Y-99921143D01*
X183717714Y-98992571D02*
X183717714Y-99992571D01*
X184360571Y-98992571D02*
X184360571Y-99778286D01*
X184289143Y-99921143D01*
X184146285Y-99992571D01*
X183932000Y-99992571D01*
X183789143Y-99921143D01*
X183717714Y-99849714D01*
X183217714Y-98992571D02*
X182646285Y-98992571D01*
X183003428Y-98492571D02*
X183003428Y-99778286D01*
X182932000Y-99921143D01*
X182789142Y-99992571D01*
X182646285Y-99992571D01*
D12*
X189753429Y-79790857D02*
X189753429Y-78590857D01*
X189296286Y-78590857D01*
X189182000Y-78648000D01*
X189124857Y-78705143D01*
X189067714Y-78819429D01*
X189067714Y-78990857D01*
X189124857Y-79105143D01*
X189182000Y-79162286D01*
X189296286Y-79219429D01*
X189753429Y-79219429D01*
X188553429Y-79790857D02*
X188553429Y-78990857D01*
X188553429Y-79219429D02*
X188496286Y-79105143D01*
X188439143Y-79048000D01*
X188324857Y-78990857D01*
X188210572Y-78990857D01*
X187639143Y-79790857D02*
X187753429Y-79733714D01*
X187810572Y-79676571D01*
X187867715Y-79562286D01*
X187867715Y-79219429D01*
X187810572Y-79105143D01*
X187753429Y-79048000D01*
X187639143Y-78990857D01*
X187467715Y-78990857D01*
X187353429Y-79048000D01*
X187296286Y-79105143D01*
X187239143Y-79219429D01*
X187239143Y-79562286D01*
X187296286Y-79676571D01*
X187353429Y-79733714D01*
X187467715Y-79790857D01*
X187639143Y-79790857D01*
X185924857Y-78990857D02*
X185639143Y-79790857D01*
X185353429Y-78990857D01*
X184267714Y-79790857D02*
X184953429Y-79790857D01*
X184610571Y-79790857D02*
X184610571Y-78590857D01*
X184724857Y-78762286D01*
X184839143Y-78876571D01*
X184953429Y-78933714D01*
X183753429Y-79676571D02*
X183696286Y-79733714D01*
X183753429Y-79790857D01*
X183810572Y-79733714D01*
X183753429Y-79676571D01*
X183753429Y-79790857D01*
X182553428Y-79790857D02*
X183239143Y-79790857D01*
X182896285Y-79790857D02*
X182896285Y-78590857D01*
X183010571Y-78762286D01*
X183124857Y-78876571D01*
X183239143Y-78933714D01*
X189896286Y-77162000D02*
X189324857Y-77162000D01*
X190010571Y-77504857D02*
X189610571Y-76304857D01*
X189210571Y-77504857D01*
X188124857Y-77390571D02*
X188182000Y-77447714D01*
X188353429Y-77504857D01*
X188467715Y-77504857D01*
X188639143Y-77447714D01*
X188753429Y-77333429D01*
X188810572Y-77219143D01*
X188867715Y-76990571D01*
X188867715Y-76819143D01*
X188810572Y-76590571D01*
X188753429Y-76476286D01*
X188639143Y-76362000D01*
X188467715Y-76304857D01*
X188353429Y-76304857D01*
X188182000Y-76362000D01*
X188124857Y-76419143D01*
X186124857Y-77504857D02*
X186696286Y-77504857D01*
X186696286Y-76304857D01*
X185553428Y-77504857D02*
X185667714Y-77447714D01*
X185724857Y-77390571D01*
X185782000Y-77276286D01*
X185782000Y-76933429D01*
X185724857Y-76819143D01*
X185667714Y-76762000D01*
X185553428Y-76704857D01*
X185382000Y-76704857D01*
X185267714Y-76762000D01*
X185210571Y-76819143D01*
X185153428Y-76933429D01*
X185153428Y-77276286D01*
X185210571Y-77390571D01*
X185267714Y-77447714D01*
X185382000Y-77504857D01*
X185553428Y-77504857D01*
X184124857Y-76704857D02*
X184124857Y-77676286D01*
X184182000Y-77790571D01*
X184239143Y-77847714D01*
X184353428Y-77904857D01*
X184524857Y-77904857D01*
X184639143Y-77847714D01*
X184124857Y-77447714D02*
X184239143Y-77504857D01*
X184467714Y-77504857D01*
X184582000Y-77447714D01*
X184639143Y-77390571D01*
X184696286Y-77276286D01*
X184696286Y-76933429D01*
X184639143Y-76819143D01*
X184582000Y-76762000D01*
X184467714Y-76704857D01*
X184239143Y-76704857D01*
X184124857Y-76762000D01*
X183553429Y-77504857D02*
X183553429Y-76704857D01*
X183553429Y-76304857D02*
X183610572Y-76362000D01*
X183553429Y-76419143D01*
X183496286Y-76362000D01*
X183553429Y-76304857D01*
X183553429Y-76419143D01*
X182467714Y-77447714D02*
X182582000Y-77504857D01*
X182810571Y-77504857D01*
X182924857Y-77447714D01*
X182982000Y-77390571D01*
X183039143Y-77276286D01*
X183039143Y-76933429D01*
X182982000Y-76819143D01*
X182924857Y-76762000D01*
X182810571Y-76704857D01*
X182582000Y-76704857D01*
X182467714Y-76762000D01*
D11*
X182372000Y-81026000D02*
X188468000Y-81026000D01*
X182372000Y-96774000D02*
X182372000Y-81026000D01*
X188468000Y-96774000D02*
X182372000Y-96774000D01*
X122428000Y-87884000D02*
X116332000Y-87884000D01*
X122428000Y-77216000D02*
X122428000Y-87884000D01*
X116332000Y-77216000D02*
X122428000Y-77216000D01*
D10*
X121636667Y-100053333D02*
X121603333Y-99953333D01*
X121603333Y-99786666D01*
X121636667Y-99719999D01*
X121670000Y-99686666D01*
X121736667Y-99653333D01*
X121803333Y-99653333D01*
X121870000Y-99686666D01*
X121903333Y-99719999D01*
X121936667Y-99786666D01*
X121970000Y-99919999D01*
X122003333Y-99986666D01*
X122036667Y-100019999D01*
X122103333Y-100053333D01*
X122170000Y-100053333D01*
X122236667Y-100019999D01*
X122270000Y-99986666D01*
X122303333Y-99919999D01*
X122303333Y-99753333D01*
X122270000Y-99653333D01*
X121603333Y-99253332D02*
X121636667Y-99319999D01*
X121670000Y-99353332D01*
X121736667Y-99386666D01*
X121936667Y-99386666D01*
X122003333Y-99353332D01*
X122036667Y-99319999D01*
X122070000Y-99253332D01*
X122070000Y-99153332D01*
X122036667Y-99086666D01*
X122003333Y-99053332D01*
X121936667Y-99019999D01*
X121736667Y-99019999D01*
X121670000Y-99053332D01*
X121636667Y-99086666D01*
X121603333Y-99153332D01*
X121603333Y-99253332D01*
X122070000Y-98419999D02*
X121603333Y-98419999D01*
X122070000Y-98719999D02*
X121703333Y-98719999D01*
X121636667Y-98686666D01*
X121603333Y-98619999D01*
X121603333Y-98519999D01*
X121636667Y-98453333D01*
X121670000Y-98419999D01*
X121603333Y-98086666D02*
X122070000Y-98086666D01*
X121936667Y-98086666D02*
X122003333Y-98053333D01*
X122036667Y-98020000D01*
X122070000Y-97953333D01*
X122070000Y-97886666D01*
X121636667Y-97353333D02*
X121603333Y-97420000D01*
X121603333Y-97553333D01*
X121636667Y-97620000D01*
X121670000Y-97653333D01*
X121736667Y-97686667D01*
X121936667Y-97686667D01*
X122003333Y-97653333D01*
X122036667Y-97620000D01*
X122070000Y-97553333D01*
X122070000Y-97420000D01*
X122036667Y-97353333D01*
X121636667Y-96786667D02*
X121603333Y-96853333D01*
X121603333Y-96986667D01*
X121636667Y-97053333D01*
X121703333Y-97086667D01*
X121970000Y-97086667D01*
X122036667Y-97053333D01*
X122070000Y-96986667D01*
X122070000Y-96853333D01*
X122036667Y-96786667D01*
X121970000Y-96753333D01*
X121903333Y-96753333D01*
X121836667Y-97086667D01*
X121636667Y-95953334D02*
X121603333Y-95853334D01*
X121603333Y-95686667D01*
X121636667Y-95620000D01*
X121670000Y-95586667D01*
X121736667Y-95553334D01*
X121803333Y-95553334D01*
X121870000Y-95586667D01*
X121903333Y-95620000D01*
X121936667Y-95686667D01*
X121970000Y-95820000D01*
X122003333Y-95886667D01*
X122036667Y-95920000D01*
X122103333Y-95953334D01*
X122170000Y-95953334D01*
X122236667Y-95920000D01*
X122270000Y-95886667D01*
X122303333Y-95820000D01*
X122303333Y-95653334D01*
X122270000Y-95553334D01*
X121636667Y-94986667D02*
X121603333Y-95053333D01*
X121603333Y-95186667D01*
X121636667Y-95253333D01*
X121703333Y-95286667D01*
X121970000Y-95286667D01*
X122036667Y-95253333D01*
X122070000Y-95186667D01*
X122070000Y-95053333D01*
X122036667Y-94986667D01*
X121970000Y-94953333D01*
X121903333Y-94953333D01*
X121836667Y-95286667D01*
X121603333Y-94553333D02*
X121636667Y-94620000D01*
X121703333Y-94653333D01*
X122303333Y-94653333D01*
X121636667Y-94020000D02*
X121603333Y-94086666D01*
X121603333Y-94220000D01*
X121636667Y-94286666D01*
X121703333Y-94320000D01*
X121970000Y-94320000D01*
X122036667Y-94286666D01*
X122070000Y-94220000D01*
X122070000Y-94086666D01*
X122036667Y-94020000D01*
X121970000Y-93986666D01*
X121903333Y-93986666D01*
X121836667Y-94320000D01*
X121636667Y-93386666D02*
X121603333Y-93453333D01*
X121603333Y-93586666D01*
X121636667Y-93653333D01*
X121670000Y-93686666D01*
X121736667Y-93720000D01*
X121936667Y-93720000D01*
X122003333Y-93686666D01*
X122036667Y-93653333D01*
X122070000Y-93586666D01*
X122070000Y-93453333D01*
X122036667Y-93386666D01*
X122070000Y-93186666D02*
X122070000Y-92920000D01*
X122303333Y-93086666D02*
X121703333Y-93086666D01*
X121636667Y-93053333D01*
X121603333Y-92986666D01*
X121603333Y-92920000D01*
D12*
X188809238Y-92162381D02*
X188618761Y-92162381D01*
X188523523Y-92210000D01*
X188428285Y-92305238D01*
X188380666Y-92495714D01*
X188380666Y-92829048D01*
X188428285Y-93019524D01*
X188523523Y-93114762D01*
X188618761Y-93162381D01*
X188809238Y-93162381D01*
X188904476Y-93114762D01*
X188999714Y-93019524D01*
X189047333Y-92829048D01*
X189047333Y-92495714D01*
X188999714Y-92305238D01*
X188904476Y-92210000D01*
X188809238Y-92162381D01*
X187380666Y-93162381D02*
X187714000Y-92686190D01*
X187952095Y-93162381D02*
X187952095Y-92162381D01*
X187571142Y-92162381D01*
X187475904Y-92210000D01*
X187428285Y-92257619D01*
X187380666Y-92352857D01*
X187380666Y-92495714D01*
X187428285Y-92590952D01*
X187475904Y-92638571D01*
X187571142Y-92686190D01*
X187952095Y-92686190D01*
X189729905Y-90336667D02*
X189253714Y-90336667D01*
X189825143Y-90622381D02*
X189491810Y-89622381D01*
X189158476Y-90622381D01*
X188825143Y-90622381D02*
X188825143Y-89622381D01*
X188253714Y-90622381D01*
X188253714Y-89622381D01*
X187777524Y-90622381D02*
X187777524Y-89622381D01*
X187539429Y-89622381D01*
X187396571Y-89670000D01*
X187301333Y-89765238D01*
X187253714Y-89860476D01*
X187206095Y-90050952D01*
X187206095Y-90193810D01*
X187253714Y-90384286D01*
X187301333Y-90479524D01*
X187396571Y-90574762D01*
X187539429Y-90622381D01*
X187777524Y-90622381D01*
X187380571Y-87558571D02*
X187237714Y-87606190D01*
X187190095Y-87653810D01*
X187142476Y-87749048D01*
X187142476Y-87891905D01*
X187190095Y-87987143D01*
X187237714Y-88034762D01*
X187332952Y-88082381D01*
X187713905Y-88082381D01*
X187713905Y-87082381D01*
X187380571Y-87082381D01*
X187285333Y-87130000D01*
X187237714Y-87177619D01*
X187190095Y-87272857D01*
X187190095Y-87368095D01*
X187237714Y-87463333D01*
X187285333Y-87510952D01*
X187380571Y-87558571D01*
X187713905Y-87558571D01*
X187690095Y-85256667D02*
X187213904Y-85256667D01*
X187785333Y-85542381D02*
X187452000Y-84542381D01*
X187118666Y-85542381D01*
X189507714Y-95607143D02*
X189555333Y-95654762D01*
X189698190Y-95702381D01*
X189793428Y-95702381D01*
X189936286Y-95654762D01*
X190031524Y-95559524D01*
X190079143Y-95464286D01*
X190126762Y-95273810D01*
X190126762Y-95130952D01*
X190079143Y-94940476D01*
X190031524Y-94845238D01*
X189936286Y-94750000D01*
X189793428Y-94702381D01*
X189698190Y-94702381D01*
X189555333Y-94750000D01*
X189507714Y-94797619D01*
X188888667Y-94702381D02*
X188698190Y-94702381D01*
X188602952Y-94750000D01*
X188507714Y-94845238D01*
X188460095Y-95035714D01*
X188460095Y-95369048D01*
X188507714Y-95559524D01*
X188602952Y-95654762D01*
X188698190Y-95702381D01*
X188888667Y-95702381D01*
X188983905Y-95654762D01*
X189079143Y-95559524D01*
X189126762Y-95369048D01*
X189126762Y-95035714D01*
X189079143Y-94845238D01*
X188983905Y-94750000D01*
X188888667Y-94702381D01*
X188031524Y-95702381D02*
X188031524Y-94702381D01*
X187698190Y-95416667D01*
X187364857Y-94702381D01*
X187364857Y-95702381D01*
X189753714Y-82954762D02*
X189610857Y-83002381D01*
X189372761Y-83002381D01*
X189277523Y-82954762D01*
X189229904Y-82907143D01*
X189182285Y-82811905D01*
X189182285Y-82716667D01*
X189229904Y-82621429D01*
X189277523Y-82573810D01*
X189372761Y-82526190D01*
X189563238Y-82478571D01*
X189658476Y-82430952D01*
X189706095Y-82383333D01*
X189753714Y-82288095D01*
X189753714Y-82192857D01*
X189706095Y-82097619D01*
X189658476Y-82050000D01*
X189563238Y-82002381D01*
X189325142Y-82002381D01*
X189182285Y-82050000D01*
X188182285Y-83002381D02*
X188515619Y-82526190D01*
X188753714Y-83002381D02*
X188753714Y-82002381D01*
X188372761Y-82002381D01*
X188277523Y-82050000D01*
X188229904Y-82097619D01*
X188182285Y-82192857D01*
X188182285Y-82335714D01*
X188229904Y-82430952D01*
X188277523Y-82478571D01*
X188372761Y-82526190D01*
X188753714Y-82526190D01*
X187182285Y-82907143D02*
X187229904Y-82954762D01*
X187372761Y-83002381D01*
X187467999Y-83002381D01*
X187610857Y-82954762D01*
X187706095Y-82859524D01*
X187753714Y-82764286D01*
X187801333Y-82573810D01*
X187801333Y-82430952D01*
X187753714Y-82240476D01*
X187706095Y-82145238D01*
X187610857Y-82050000D01*
X187467999Y-82002381D01*
X187372761Y-82002381D01*
X187229904Y-82050000D01*
X187182285Y-82097619D01*
X117586095Y-94146667D02*
X117109904Y-94146667D01*
X117681333Y-94432381D02*
X117348000Y-93432381D01*
X117014666Y-94432381D01*
X117276571Y-98988571D02*
X117133714Y-99036190D01*
X117086095Y-99083810D01*
X117038476Y-99179048D01*
X117038476Y-99321905D01*
X117086095Y-99417143D01*
X117133714Y-99464762D01*
X117228952Y-99512381D01*
X117609905Y-99512381D01*
X117609905Y-98512381D01*
X117276571Y-98512381D01*
X117181333Y-98560000D01*
X117133714Y-98607619D01*
X117086095Y-98702857D01*
X117086095Y-98798095D01*
X117133714Y-98893333D01*
X117181333Y-98940952D01*
X117276571Y-98988571D01*
X117609905Y-98988571D01*
X117617714Y-96924762D02*
X117474857Y-96972381D01*
X117236761Y-96972381D01*
X117141523Y-96924762D01*
X117093904Y-96877143D01*
X117046285Y-96781905D01*
X117046285Y-96686667D01*
X117093904Y-96591429D01*
X117141523Y-96543810D01*
X117236761Y-96496190D01*
X117427238Y-96448571D01*
X117522476Y-96400952D01*
X117570095Y-96353333D01*
X117617714Y-96258095D01*
X117617714Y-96162857D01*
X117570095Y-96067619D01*
X117522476Y-96020000D01*
X117427238Y-95972381D01*
X117189142Y-95972381D01*
X117046285Y-96020000D01*
X116046285Y-96972381D02*
X116379619Y-96496190D01*
X116617714Y-96972381D02*
X116617714Y-95972381D01*
X116236761Y-95972381D01*
X116141523Y-96020000D01*
X116093904Y-96067619D01*
X116046285Y-96162857D01*
X116046285Y-96305714D01*
X116093904Y-96400952D01*
X116141523Y-96448571D01*
X116236761Y-96496190D01*
X116617714Y-96496190D01*
X115046285Y-96877143D02*
X115093904Y-96924762D01*
X115236761Y-96972381D01*
X115331999Y-96972381D01*
X115474857Y-96924762D01*
X115570095Y-96829524D01*
X115617714Y-96734286D01*
X115665333Y-96543810D01*
X115665333Y-96400952D01*
X115617714Y-96210476D01*
X115570095Y-96115238D01*
X115474857Y-96020000D01*
X115331999Y-95972381D01*
X115236761Y-95972381D01*
X115093904Y-96020000D01*
X115046285Y-96067619D01*
X117617714Y-79144762D02*
X117474857Y-79192381D01*
X117236761Y-79192381D01*
X117141523Y-79144762D01*
X117093904Y-79097143D01*
X117046285Y-79001905D01*
X117046285Y-78906667D01*
X117093904Y-78811429D01*
X117141523Y-78763810D01*
X117236761Y-78716190D01*
X117427238Y-78668571D01*
X117522476Y-78620952D01*
X117570095Y-78573333D01*
X117617714Y-78478095D01*
X117617714Y-78382857D01*
X117570095Y-78287619D01*
X117522476Y-78240000D01*
X117427238Y-78192381D01*
X117189142Y-78192381D01*
X117046285Y-78240000D01*
X116046285Y-79192381D02*
X116379619Y-78716190D01*
X116617714Y-79192381D02*
X116617714Y-78192381D01*
X116236761Y-78192381D01*
X116141523Y-78240000D01*
X116093904Y-78287619D01*
X116046285Y-78382857D01*
X116046285Y-78525714D01*
X116093904Y-78620952D01*
X116141523Y-78668571D01*
X116236761Y-78716190D01*
X116617714Y-78716190D01*
X115046285Y-79097143D02*
X115093904Y-79144762D01*
X115236761Y-79192381D01*
X115331999Y-79192381D01*
X115474857Y-79144762D01*
X115570095Y-79049524D01*
X115617714Y-78954286D01*
X115665333Y-78763810D01*
X115665333Y-78620952D01*
X115617714Y-78430476D01*
X115570095Y-78335238D01*
X115474857Y-78240000D01*
X115331999Y-78192381D01*
X115236761Y-78192381D01*
X115093904Y-78240000D01*
X115046285Y-78287619D01*
X117586095Y-81446667D02*
X117109904Y-81446667D01*
X117681333Y-81732381D02*
X117348000Y-80732381D01*
X117014666Y-81732381D01*
X117276571Y-83748571D02*
X117133714Y-83796190D01*
X117086095Y-83843810D01*
X117038476Y-83939048D01*
X117038476Y-84081905D01*
X117086095Y-84177143D01*
X117133714Y-84224762D01*
X117228952Y-84272381D01*
X117609905Y-84272381D01*
X117609905Y-83272381D01*
X117276571Y-83272381D01*
X117181333Y-83320000D01*
X117133714Y-83367619D01*
X117086095Y-83462857D01*
X117086095Y-83558095D01*
X117133714Y-83653333D01*
X117181333Y-83700952D01*
X117276571Y-83748571D01*
X117609905Y-83748571D01*
X117117714Y-86717143D02*
X117165333Y-86764762D01*
X117308190Y-86812381D01*
X117403428Y-86812381D01*
X117546286Y-86764762D01*
X117641524Y-86669524D01*
X117689143Y-86574286D01*
X117736762Y-86383810D01*
X117736762Y-86240952D01*
X117689143Y-86050476D01*
X117641524Y-85955238D01*
X117546286Y-85860000D01*
X117403428Y-85812381D01*
X117308190Y-85812381D01*
X117165333Y-85860000D01*
X117117714Y-85907619D01*
X116498667Y-85812381D02*
X116308190Y-85812381D01*
X116212952Y-85860000D01*
X116117714Y-85955238D01*
X116070095Y-86145714D01*
X116070095Y-86479048D01*
X116117714Y-86669524D01*
X116212952Y-86764762D01*
X116308190Y-86812381D01*
X116498667Y-86812381D01*
X116593905Y-86764762D01*
X116689143Y-86669524D01*
X116736762Y-86479048D01*
X116736762Y-86145714D01*
X116689143Y-85955238D01*
X116593905Y-85860000D01*
X116498667Y-85812381D01*
X115641524Y-86812381D02*
X115641524Y-85812381D01*
X115308190Y-86526667D01*
X114974857Y-85812381D01*
X114974857Y-86812381D01*
X177657047Y-88082381D02*
X177657047Y-87082381D01*
X176371333Y-88082381D02*
X176418952Y-88082381D01*
X176514190Y-88034762D01*
X176657047Y-87891905D01*
X176895142Y-87606190D01*
X176990381Y-87463333D01*
X177038000Y-87320476D01*
X177038000Y-87225238D01*
X176990381Y-87130000D01*
X176895142Y-87082381D01*
X176847523Y-87082381D01*
X176752285Y-87130000D01*
X176704666Y-87225238D01*
X176704666Y-87272857D01*
X176752285Y-87368095D01*
X176799904Y-87415714D01*
X177085619Y-87606190D01*
X177133238Y-87653810D01*
X177180857Y-87749048D01*
X177180857Y-87891905D01*
X177133238Y-87987143D01*
X177085619Y-88034762D01*
X176990381Y-88082381D01*
X176847523Y-88082381D01*
X176752285Y-88034762D01*
X176704666Y-87987143D01*
X176561809Y-87796667D01*
X176514190Y-87653810D01*
X176514190Y-87558571D01*
X179085714Y-101496762D02*
X178942857Y-101544381D01*
X178704761Y-101544381D01*
X178609523Y-101496762D01*
X178561904Y-101449143D01*
X178514285Y-101353905D01*
X178514285Y-101258667D01*
X178561904Y-101163429D01*
X178609523Y-101115810D01*
X178704761Y-101068190D01*
X178895238Y-101020571D01*
X178990476Y-100972952D01*
X179038095Y-100925333D01*
X179085714Y-100830095D01*
X179085714Y-100734857D01*
X179038095Y-100639619D01*
X178990476Y-100592000D01*
X178895238Y-100544381D01*
X178657142Y-100544381D01*
X178514285Y-100592000D01*
X177514285Y-101544381D02*
X177847619Y-101068190D01*
X178085714Y-101544381D02*
X178085714Y-100544381D01*
X177704761Y-100544381D01*
X177609523Y-100592000D01*
X177561904Y-100639619D01*
X177514285Y-100734857D01*
X177514285Y-100877714D01*
X177561904Y-100972952D01*
X177609523Y-101020571D01*
X177704761Y-101068190D01*
X178085714Y-101068190D01*
X176514285Y-101449143D02*
X176561904Y-101496762D01*
X176704761Y-101544381D01*
X176799999Y-101544381D01*
X176942857Y-101496762D01*
X177038095Y-101401524D01*
X177085714Y-101306286D01*
X177133333Y-101115810D01*
X177133333Y-100972952D01*
X177085714Y-100782476D01*
X177038095Y-100687238D01*
X176942857Y-100592000D01*
X176799999Y-100544381D01*
X176704761Y-100544381D01*
X176561904Y-100592000D01*
X176514285Y-100639619D01*
X149367714Y-101496762D02*
X149224857Y-101544381D01*
X148986761Y-101544381D01*
X148891523Y-101496762D01*
X148843904Y-101449143D01*
X148796285Y-101353905D01*
X148796285Y-101258667D01*
X148843904Y-101163429D01*
X148891523Y-101115810D01*
X148986761Y-101068190D01*
X149177238Y-101020571D01*
X149272476Y-100972952D01*
X149320095Y-100925333D01*
X149367714Y-100830095D01*
X149367714Y-100734857D01*
X149320095Y-100639619D01*
X149272476Y-100592000D01*
X149177238Y-100544381D01*
X148939142Y-100544381D01*
X148796285Y-100592000D01*
X147796285Y-101544381D02*
X148129619Y-101068190D01*
X148367714Y-101544381D02*
X148367714Y-100544381D01*
X147986761Y-100544381D01*
X147891523Y-100592000D01*
X147843904Y-100639619D01*
X147796285Y-100734857D01*
X147796285Y-100877714D01*
X147843904Y-100972952D01*
X147891523Y-101020571D01*
X147986761Y-101068190D01*
X148367714Y-101068190D01*
X146796285Y-101449143D02*
X146843904Y-101496762D01*
X146986761Y-101544381D01*
X147081999Y-101544381D01*
X147224857Y-101496762D01*
X147320095Y-101401524D01*
X147367714Y-101306286D01*
X147415333Y-101115810D01*
X147415333Y-100972952D01*
X147367714Y-100782476D01*
X147320095Y-100687238D01*
X147224857Y-100592000D01*
X147081999Y-100544381D01*
X146986761Y-100544381D01*
X146843904Y-100592000D01*
X146796285Y-100639619D01*
X149367714Y-88034762D02*
X149224857Y-88082381D01*
X148986761Y-88082381D01*
X148891523Y-88034762D01*
X148843904Y-87987143D01*
X148796285Y-87891905D01*
X148796285Y-87796667D01*
X148843904Y-87701429D01*
X148891523Y-87653810D01*
X148986761Y-87606190D01*
X149177238Y-87558571D01*
X149272476Y-87510952D01*
X149320095Y-87463333D01*
X149367714Y-87368095D01*
X149367714Y-87272857D01*
X149320095Y-87177619D01*
X149272476Y-87130000D01*
X149177238Y-87082381D01*
X148939142Y-87082381D01*
X148796285Y-87130000D01*
X147796285Y-88082381D02*
X148129619Y-87606190D01*
X148367714Y-88082381D02*
X148367714Y-87082381D01*
X147986761Y-87082381D01*
X147891523Y-87130000D01*
X147843904Y-87177619D01*
X147796285Y-87272857D01*
X147796285Y-87415714D01*
X147843904Y-87510952D01*
X147891523Y-87558571D01*
X147986761Y-87606190D01*
X148367714Y-87606190D01*
X146796285Y-87987143D02*
X146843904Y-88034762D01*
X146986761Y-88082381D01*
X147081999Y-88082381D01*
X147224857Y-88034762D01*
X147320095Y-87939524D01*
X147367714Y-87844286D01*
X147415333Y-87653810D01*
X147415333Y-87510952D01*
X147367714Y-87320476D01*
X147320095Y-87225238D01*
X147224857Y-87130000D01*
X147081999Y-87082381D01*
X146986761Y-87082381D01*
X146843904Y-87130000D01*
X146796285Y-87177619D01*
D11*
X155194000Y-83566000D02*
X155194000Y-84328000D01*
X155194000Y-97028000D02*
X155194000Y-97790000D01*
X125476000Y-97028000D02*
X125476000Y-97790000D01*
X125476000Y-93980000D02*
X125476000Y-93472000D01*
X155194000Y-93980000D02*
X155194000Y-93472000D01*
X155194000Y-80518000D02*
X155194000Y-80010000D01*
X125476000Y-83566000D02*
X125476000Y-84328000D01*
X125476000Y-80518000D02*
X125476000Y-80010000D01*
X147828000Y-80772000D02*
X146304000Y-80772000D01*
X145542000Y-82804000D02*
X145542000Y-82042000D01*
X145542000Y-82042000D02*
X144272000Y-80518000D01*
X143256000Y-80772000D02*
X144780000Y-80772000D01*
X177546000Y-80772000D02*
X176022000Y-80772000D01*
X175260000Y-82804000D02*
X175260000Y-82042000D01*
X175260000Y-82042000D02*
X173990000Y-80518000D01*
X172974000Y-80772000D02*
X174498000Y-80772000D01*
X177546000Y-94234000D02*
X176022000Y-94234000D01*
X175260000Y-96266000D02*
X175260000Y-95504000D01*
X175260000Y-95504000D02*
X173990000Y-93980000D01*
X172974000Y-94234000D02*
X174498000Y-94234000D01*
X145542000Y-95504000D02*
X144272000Y-93980000D01*
X145542000Y-96266000D02*
X145542000Y-95504000D01*
X147828000Y-94234000D02*
X146304000Y-94234000D01*
X143256000Y-94234000D02*
X144780000Y-94234000D01*
D12*
X151495047Y-77160381D02*
X151495047Y-76160381D01*
X150209333Y-77160381D02*
X150256952Y-77160381D01*
X150352190Y-77112762D01*
X150495047Y-76969905D01*
X150733142Y-76684190D01*
X150828381Y-76541333D01*
X150876000Y-76398476D01*
X150876000Y-76303238D01*
X150828381Y-76208000D01*
X150733142Y-76160381D01*
X150685523Y-76160381D01*
X150590285Y-76208000D01*
X150542666Y-76303238D01*
X150542666Y-76350857D01*
X150590285Y-76446095D01*
X150637904Y-76493714D01*
X150923619Y-76684190D01*
X150971238Y-76731810D01*
X151018857Y-76827048D01*
X151018857Y-76969905D01*
X150971238Y-77065143D01*
X150923619Y-77112762D01*
X150828381Y-77160381D01*
X150685523Y-77160381D01*
X150590285Y-77112762D01*
X150542666Y-77065143D01*
X150399809Y-76874667D01*
X150352190Y-76731810D01*
X150352190Y-76636571D01*
X180165428Y-77160381D02*
X180213047Y-77160381D01*
X180308285Y-77112762D01*
X180451142Y-76969905D01*
X180689237Y-76684190D01*
X180784476Y-76541333D01*
X180832095Y-76398476D01*
X180832095Y-76303238D01*
X180784476Y-76208000D01*
X180689237Y-76160381D01*
X180641618Y-76160381D01*
X180546380Y-76208000D01*
X180498761Y-76303238D01*
X180498761Y-76350857D01*
X180546380Y-76446095D01*
X180593999Y-76493714D01*
X180879714Y-76684190D01*
X180927333Y-76731810D01*
X180974952Y-76827048D01*
X180974952Y-76969905D01*
X180927333Y-77065143D01*
X180879714Y-77112762D01*
X180784476Y-77160381D01*
X180641618Y-77160381D01*
X180546380Y-77112762D01*
X180498761Y-77065143D01*
X180355904Y-76874667D01*
X180308285Y-76731810D01*
X180308285Y-76636571D01*
X151471238Y-89622381D02*
X151280761Y-89622381D01*
X151185523Y-89670000D01*
X151090285Y-89765238D01*
X151042666Y-89955714D01*
X151042666Y-90289048D01*
X151090285Y-90479524D01*
X151185523Y-90574762D01*
X151280761Y-90622381D01*
X151471238Y-90622381D01*
X151566476Y-90574762D01*
X151661714Y-90479524D01*
X151709333Y-90289048D01*
X151709333Y-89955714D01*
X151661714Y-89765238D01*
X151566476Y-89670000D01*
X151471238Y-89622381D01*
X150042666Y-90622381D02*
X150376000Y-90146190D01*
X150614095Y-90622381D02*
X150614095Y-89622381D01*
X150233142Y-89622381D01*
X150137904Y-89670000D01*
X150090285Y-89717619D01*
X150042666Y-89812857D01*
X150042666Y-89955714D01*
X150090285Y-90050952D01*
X150137904Y-90098571D01*
X150233142Y-90146190D01*
X150614095Y-90146190D01*
X181189238Y-89622381D02*
X180998761Y-89622381D01*
X180903523Y-89670000D01*
X180808285Y-89765238D01*
X180760666Y-89955714D01*
X180760666Y-90289048D01*
X180808285Y-90479524D01*
X180903523Y-90574762D01*
X180998761Y-90622381D01*
X181189238Y-90622381D01*
X181284476Y-90574762D01*
X181379714Y-90479524D01*
X181427333Y-90289048D01*
X181427333Y-89955714D01*
X181379714Y-89765238D01*
X181284476Y-89670000D01*
X181189238Y-89622381D01*
X179760666Y-90622381D02*
X180094000Y-90146190D01*
X180332095Y-90622381D02*
X180332095Y-89622381D01*
X179951142Y-89622381D01*
X179855904Y-89670000D01*
X179808285Y-89717619D01*
X179760666Y-89812857D01*
X179760666Y-89955714D01*
X179808285Y-90050952D01*
X179855904Y-90098571D01*
X179951142Y-90146190D01*
X180332095Y-90146190D01*
X128000095Y-86272667D02*
X127523904Y-86272667D01*
X128095333Y-86558381D02*
X127762000Y-85558381D01*
X127428666Y-86558381D01*
X128000095Y-92114667D02*
X127523904Y-92114667D01*
X128095333Y-92400381D02*
X127762000Y-91400381D01*
X127428666Y-92400381D01*
X157408571Y-91876571D02*
X157265714Y-91924190D01*
X157218095Y-91971810D01*
X157170476Y-92067048D01*
X157170476Y-92209905D01*
X157218095Y-92305143D01*
X157265714Y-92352762D01*
X157360952Y-92400381D01*
X157741905Y-92400381D01*
X157741905Y-91400381D01*
X157408571Y-91400381D01*
X157313333Y-91448000D01*
X157265714Y-91495619D01*
X157218095Y-91590857D01*
X157218095Y-91686095D01*
X157265714Y-91781333D01*
X157313333Y-91828952D01*
X157408571Y-91876571D01*
X157741905Y-91876571D01*
X157408571Y-86034571D02*
X157265714Y-86082190D01*
X157218095Y-86129810D01*
X157170476Y-86225048D01*
X157170476Y-86367905D01*
X157218095Y-86463143D01*
X157265714Y-86510762D01*
X157360952Y-86558381D01*
X157741905Y-86558381D01*
X157741905Y-85558381D01*
X157408571Y-85558381D01*
X157313333Y-85606000D01*
X157265714Y-85653619D01*
X157218095Y-85748857D01*
X157218095Y-85844095D01*
X157265714Y-85939333D01*
X157313333Y-85986952D01*
X157408571Y-86034571D01*
X157741905Y-86034571D01*
X159281714Y-78843143D02*
X159329333Y-78890762D01*
X159472190Y-78938381D01*
X159567428Y-78938381D01*
X159710286Y-78890762D01*
X159805524Y-78795524D01*
X159853143Y-78700286D01*
X159900762Y-78509810D01*
X159900762Y-78366952D01*
X159853143Y-78176476D01*
X159805524Y-78081238D01*
X159710286Y-77986000D01*
X159567428Y-77938381D01*
X159472190Y-77938381D01*
X159329333Y-77986000D01*
X159281714Y-78033619D01*
X158662667Y-77938381D02*
X158472190Y-77938381D01*
X158376952Y-77986000D01*
X158281714Y-78081238D01*
X158234095Y-78271714D01*
X158234095Y-78605048D01*
X158281714Y-78795524D01*
X158376952Y-78890762D01*
X158472190Y-78938381D01*
X158662667Y-78938381D01*
X158757905Y-78890762D01*
X158853143Y-78795524D01*
X158900762Y-78605048D01*
X158900762Y-78271714D01*
X158853143Y-78081238D01*
X158757905Y-77986000D01*
X158662667Y-77938381D01*
X157805524Y-78938381D02*
X157805524Y-77938381D01*
X157472190Y-78652667D01*
X157138857Y-77938381D01*
X157138857Y-78938381D01*
X129563714Y-78843143D02*
X129611333Y-78890762D01*
X129754190Y-78938381D01*
X129849428Y-78938381D01*
X129992286Y-78890762D01*
X130087524Y-78795524D01*
X130135143Y-78700286D01*
X130182762Y-78509810D01*
X130182762Y-78366952D01*
X130135143Y-78176476D01*
X130087524Y-78081238D01*
X129992286Y-77986000D01*
X129849428Y-77938381D01*
X129754190Y-77938381D01*
X129611333Y-77986000D01*
X129563714Y-78033619D01*
X128944667Y-77938381D02*
X128754190Y-77938381D01*
X128658952Y-77986000D01*
X128563714Y-78081238D01*
X128516095Y-78271714D01*
X128516095Y-78605048D01*
X128563714Y-78795524D01*
X128658952Y-78890762D01*
X128754190Y-78938381D01*
X128944667Y-78938381D01*
X129039905Y-78890762D01*
X129135143Y-78795524D01*
X129182762Y-78605048D01*
X129182762Y-78271714D01*
X129135143Y-78081238D01*
X129039905Y-77986000D01*
X128944667Y-77938381D01*
X128087524Y-78938381D02*
X128087524Y-77938381D01*
X127754190Y-78652667D01*
X127420857Y-77938381D01*
X127420857Y-78938381D01*
X129563714Y-99925143D02*
X129611333Y-99972762D01*
X129754190Y-100020381D01*
X129849428Y-100020381D01*
X129992286Y-99972762D01*
X130087524Y-99877524D01*
X130135143Y-99782286D01*
X130182762Y-99591810D01*
X130182762Y-99448952D01*
X130135143Y-99258476D01*
X130087524Y-99163238D01*
X129992286Y-99068000D01*
X129849428Y-99020381D01*
X129754190Y-99020381D01*
X129611333Y-99068000D01*
X129563714Y-99115619D01*
X128944667Y-99020381D02*
X128754190Y-99020381D01*
X128658952Y-99068000D01*
X128563714Y-99163238D01*
X128516095Y-99353714D01*
X128516095Y-99687048D01*
X128563714Y-99877524D01*
X128658952Y-99972762D01*
X128754190Y-100020381D01*
X128944667Y-100020381D01*
X129039905Y-99972762D01*
X129135143Y-99877524D01*
X129182762Y-99687048D01*
X129182762Y-99353714D01*
X129135143Y-99163238D01*
X129039905Y-99068000D01*
X128944667Y-99020381D01*
X128087524Y-100020381D02*
X128087524Y-99020381D01*
X127754190Y-99734667D01*
X127420857Y-99020381D01*
X127420857Y-100020381D01*
X159281714Y-99925143D02*
X159329333Y-99972762D01*
X159472190Y-100020381D01*
X159567428Y-100020381D01*
X159710286Y-99972762D01*
X159805524Y-99877524D01*
X159853143Y-99782286D01*
X159900762Y-99591810D01*
X159900762Y-99448952D01*
X159853143Y-99258476D01*
X159805524Y-99163238D01*
X159710286Y-99068000D01*
X159567428Y-99020381D01*
X159472190Y-99020381D01*
X159329333Y-99068000D01*
X159281714Y-99115619D01*
X158662667Y-99020381D02*
X158472190Y-99020381D01*
X158376952Y-99068000D01*
X158281714Y-99163238D01*
X158234095Y-99353714D01*
X158234095Y-99687048D01*
X158281714Y-99877524D01*
X158376952Y-99972762D01*
X158472190Y-100020381D01*
X158662667Y-100020381D01*
X158757905Y-99972762D01*
X158853143Y-99877524D01*
X158900762Y-99687048D01*
X158900762Y-99353714D01*
X158853143Y-99163238D01*
X158757905Y-99068000D01*
X158662667Y-99020381D01*
X157805524Y-100020381D02*
X157805524Y-99020381D01*
X157472190Y-99734667D01*
X157138857Y-99020381D01*
X157138857Y-100020381D01*
X165592000Y-81923381D02*
X165925334Y-81447190D01*
X166163429Y-81923381D02*
X166163429Y-80923381D01*
X165782476Y-80923381D01*
X165687238Y-80971000D01*
X165639619Y-81018619D01*
X165592000Y-81113857D01*
X165592000Y-81256714D01*
X165639619Y-81351952D01*
X165687238Y-81399571D01*
X165782476Y-81447190D01*
X166163429Y-81447190D01*
X164687238Y-81923381D02*
X165163429Y-81923381D01*
X165163429Y-80923381D01*
X164163429Y-81447190D02*
X164163429Y-81923381D01*
X164496762Y-80923381D02*
X164163429Y-81447190D01*
X163830095Y-80923381D01*
X163592000Y-80923381D02*
X162972952Y-80923381D01*
X163306286Y-81304333D01*
X163163428Y-81304333D01*
X163068190Y-81351952D01*
X163020571Y-81399571D01*
X162972952Y-81494810D01*
X162972952Y-81732905D01*
X163020571Y-81828143D01*
X163068190Y-81875762D01*
X163163428Y-81923381D01*
X163449143Y-81923381D01*
X163544381Y-81875762D01*
X163592000Y-81828143D01*
X167068190Y-83954333D02*
X167115810Y-83906714D01*
X167211048Y-83763857D01*
X167258667Y-83668619D01*
X167306286Y-83525762D01*
X167353905Y-83287667D01*
X167353905Y-83097190D01*
X167306286Y-82859095D01*
X167258667Y-82716238D01*
X167211048Y-82621000D01*
X167115810Y-82478143D01*
X167068190Y-82430524D01*
X166734857Y-83287667D02*
X166258666Y-83287667D01*
X166830095Y-83573381D02*
X166496762Y-82573381D01*
X166163428Y-83573381D01*
X165830095Y-83573381D02*
X165830095Y-82573381D01*
X165258666Y-83573381D01*
X165258666Y-82573381D01*
X164782476Y-83573381D02*
X164782476Y-82573381D01*
X164544381Y-82573381D01*
X164401523Y-82621000D01*
X164306285Y-82716238D01*
X164258666Y-82811476D01*
X164211047Y-83001952D01*
X164211047Y-83144810D01*
X164258666Y-83335286D01*
X164306285Y-83430524D01*
X164401523Y-83525762D01*
X164544381Y-83573381D01*
X164782476Y-83573381D01*
X162687237Y-83049571D02*
X162544380Y-83097190D01*
X162496761Y-83144810D01*
X162449142Y-83240048D01*
X162449142Y-83382905D01*
X162496761Y-83478143D01*
X162544380Y-83525762D01*
X162639618Y-83573381D01*
X163020571Y-83573381D01*
X163020571Y-82573381D01*
X162687237Y-82573381D01*
X162591999Y-82621000D01*
X162544380Y-82668619D01*
X162496761Y-82763857D01*
X162496761Y-82859095D01*
X162544380Y-82954333D01*
X162591999Y-83001952D01*
X162687237Y-83049571D01*
X163020571Y-83049571D01*
X162115809Y-83954333D02*
X162068190Y-83906714D01*
X161972952Y-83763857D01*
X161925333Y-83668619D01*
X161877714Y-83525762D01*
X161830095Y-83287667D01*
X161830095Y-83097190D01*
X161877714Y-82859095D01*
X161925333Y-82716238D01*
X161972952Y-82621000D01*
X162068190Y-82478143D01*
X162115809Y-82430524D01*
X165592000Y-95131381D02*
X165925334Y-94655190D01*
X166163429Y-95131381D02*
X166163429Y-94131381D01*
X165782476Y-94131381D01*
X165687238Y-94179000D01*
X165639619Y-94226619D01*
X165592000Y-94321857D01*
X165592000Y-94464714D01*
X165639619Y-94559952D01*
X165687238Y-94607571D01*
X165782476Y-94655190D01*
X166163429Y-94655190D01*
X164687238Y-95131381D02*
X165163429Y-95131381D01*
X165163429Y-94131381D01*
X164163429Y-94655190D02*
X164163429Y-95131381D01*
X164496762Y-94131381D02*
X164163429Y-94655190D01*
X163830095Y-94131381D01*
X163068190Y-94464714D02*
X163068190Y-95131381D01*
X163306286Y-94083762D02*
X163544381Y-94798048D01*
X162925333Y-94798048D01*
X166639619Y-97162333D02*
X166687239Y-97114714D01*
X166782477Y-96971857D01*
X166830096Y-96876619D01*
X166877715Y-96733762D01*
X166925334Y-96495667D01*
X166925334Y-96305190D01*
X166877715Y-96067095D01*
X166830096Y-95924238D01*
X166782477Y-95829000D01*
X166687239Y-95686143D01*
X166639619Y-95638524D01*
X166068191Y-95781381D02*
X165877714Y-95781381D01*
X165782476Y-95829000D01*
X165687238Y-95924238D01*
X165639619Y-96114714D01*
X165639619Y-96448048D01*
X165687238Y-96638524D01*
X165782476Y-96733762D01*
X165877714Y-96781381D01*
X166068191Y-96781381D01*
X166163429Y-96733762D01*
X166258667Y-96638524D01*
X166306286Y-96448048D01*
X166306286Y-96114714D01*
X166258667Y-95924238D01*
X166163429Y-95829000D01*
X166068191Y-95781381D01*
X164639619Y-96781381D02*
X164972953Y-96305190D01*
X165211048Y-96781381D02*
X165211048Y-95781381D01*
X164830095Y-95781381D01*
X164734857Y-95829000D01*
X164687238Y-95876619D01*
X164639619Y-95971857D01*
X164639619Y-96114714D01*
X164687238Y-96209952D01*
X164734857Y-96257571D01*
X164830095Y-96305190D01*
X165211048Y-96305190D01*
X163115809Y-96257571D02*
X162972952Y-96305190D01*
X162925333Y-96352810D01*
X162877714Y-96448048D01*
X162877714Y-96590905D01*
X162925333Y-96686143D01*
X162972952Y-96733762D01*
X163068190Y-96781381D01*
X163449143Y-96781381D01*
X163449143Y-95781381D01*
X163115809Y-95781381D01*
X163020571Y-95829000D01*
X162972952Y-95876619D01*
X162925333Y-95971857D01*
X162925333Y-96067095D01*
X162972952Y-96162333D01*
X163020571Y-96209952D01*
X163115809Y-96257571D01*
X163449143Y-96257571D01*
X162544381Y-97162333D02*
X162496762Y-97114714D01*
X162401524Y-96971857D01*
X162353905Y-96876619D01*
X162306286Y-96733762D01*
X162258667Y-96495667D01*
X162258667Y-96305190D01*
X162306286Y-96067095D01*
X162353905Y-95924238D01*
X162401524Y-95829000D01*
X162496762Y-95686143D01*
X162544381Y-95638524D01*
X135366000Y-95131381D02*
X135699334Y-94655190D01*
X135937429Y-95131381D02*
X135937429Y-94131381D01*
X135556476Y-94131381D01*
X135461238Y-94179000D01*
X135413619Y-94226619D01*
X135366000Y-94321857D01*
X135366000Y-94464714D01*
X135413619Y-94559952D01*
X135461238Y-94607571D01*
X135556476Y-94655190D01*
X135937429Y-94655190D01*
X134461238Y-95131381D02*
X134937429Y-95131381D01*
X134937429Y-94131381D01*
X133937429Y-94655190D02*
X133937429Y-95131381D01*
X134270762Y-94131381D02*
X133937429Y-94655190D01*
X133604095Y-94131381D01*
X133318381Y-94226619D02*
X133270762Y-94179000D01*
X133175524Y-94131381D01*
X132937428Y-94131381D01*
X132842190Y-94179000D01*
X132794571Y-94226619D01*
X132746952Y-94321857D01*
X132746952Y-94417095D01*
X132794571Y-94559952D01*
X133366000Y-95131381D01*
X132746952Y-95131381D01*
X136342190Y-97162333D02*
X136389810Y-97114714D01*
X136485048Y-96971857D01*
X136532667Y-96876619D01*
X136580286Y-96733762D01*
X136627905Y-96495667D01*
X136627905Y-96305190D01*
X136580286Y-96067095D01*
X136532667Y-95924238D01*
X136485048Y-95829000D01*
X136389810Y-95686143D01*
X136342190Y-95638524D01*
X135770762Y-95781381D02*
X135580285Y-95781381D01*
X135485047Y-95829000D01*
X135389809Y-95924238D01*
X135342190Y-96114714D01*
X135342190Y-96448048D01*
X135389809Y-96638524D01*
X135485047Y-96733762D01*
X135580285Y-96781381D01*
X135770762Y-96781381D01*
X135866000Y-96733762D01*
X135961238Y-96638524D01*
X136008857Y-96448048D01*
X136008857Y-96114714D01*
X135961238Y-95924238D01*
X135866000Y-95829000D01*
X135770762Y-95781381D01*
X134342190Y-96781381D02*
X134675524Y-96305190D01*
X134913619Y-96781381D02*
X134913619Y-95781381D01*
X134532666Y-95781381D01*
X134437428Y-95829000D01*
X134389809Y-95876619D01*
X134342190Y-95971857D01*
X134342190Y-96114714D01*
X134389809Y-96209952D01*
X134437428Y-96257571D01*
X134532666Y-96305190D01*
X134913619Y-96305190D01*
X133199333Y-96495667D02*
X132723142Y-96495667D01*
X133294571Y-96781381D02*
X132961238Y-95781381D01*
X132627904Y-96781381D01*
X132389809Y-97162333D02*
X132342190Y-97114714D01*
X132246952Y-96971857D01*
X132199333Y-96876619D01*
X132151714Y-96733762D01*
X132104095Y-96495667D01*
X132104095Y-96305190D01*
X132151714Y-96067095D01*
X132199333Y-95924238D01*
X132246952Y-95829000D01*
X132342190Y-95686143D01*
X132389809Y-95638524D01*
X135366000Y-81923381D02*
X135699334Y-81447190D01*
X135937429Y-81923381D02*
X135937429Y-80923381D01*
X135556476Y-80923381D01*
X135461238Y-80971000D01*
X135413619Y-81018619D01*
X135366000Y-81113857D01*
X135366000Y-81256714D01*
X135413619Y-81351952D01*
X135461238Y-81399571D01*
X135556476Y-81447190D01*
X135937429Y-81447190D01*
X134461238Y-81923381D02*
X134937429Y-81923381D01*
X134937429Y-80923381D01*
X133937429Y-81447190D02*
X133937429Y-81923381D01*
X134270762Y-80923381D02*
X133937429Y-81447190D01*
X133604095Y-80923381D01*
X132746952Y-81923381D02*
X133318381Y-81923381D01*
X133032667Y-81923381D02*
X133032667Y-80923381D01*
X133127905Y-81066238D01*
X133223143Y-81161476D01*
X133318381Y-81209095D01*
X136770762Y-83954333D02*
X136818382Y-83906714D01*
X136913620Y-83763857D01*
X136961239Y-83668619D01*
X137008858Y-83525762D01*
X137056477Y-83287667D01*
X137056477Y-83097190D01*
X137008858Y-82859095D01*
X136961239Y-82716238D01*
X136913620Y-82621000D01*
X136818382Y-82478143D01*
X136770762Y-82430524D01*
X136437429Y-83287667D02*
X135961238Y-83287667D01*
X136532667Y-83573381D02*
X136199334Y-82573381D01*
X135866000Y-83573381D01*
X135532667Y-83573381D02*
X135532667Y-82573381D01*
X134961238Y-83573381D01*
X134961238Y-82573381D01*
X134485048Y-83573381D02*
X134485048Y-82573381D01*
X134246953Y-82573381D01*
X134104095Y-82621000D01*
X134008857Y-82716238D01*
X133961238Y-82811476D01*
X133913619Y-83001952D01*
X133913619Y-83144810D01*
X133961238Y-83335286D01*
X134008857Y-83430524D01*
X134104095Y-83525762D01*
X134246953Y-83573381D01*
X134485048Y-83573381D01*
X132770762Y-83287667D02*
X132294571Y-83287667D01*
X132866000Y-83573381D02*
X132532667Y-82573381D01*
X132199333Y-83573381D01*
X131961238Y-83954333D02*
X131913619Y-83906714D01*
X131818381Y-83763857D01*
X131770762Y-83668619D01*
X131723143Y-83525762D01*
X131675524Y-83287667D01*
X131675524Y-83097190D01*
X131723143Y-82859095D01*
X131770762Y-82716238D01*
X131818381Y-82621000D01*
X131913619Y-82478143D01*
X131961238Y-82430524D01*
X122986000Y-88519000D02*
X151986000Y-88519000D01*
X151986000Y-88519000D02*
X151986000Y-75819000D01*
X151986000Y-75819000D02*
X122986000Y-75819000D01*
X122986000Y-88519000D02*
X122986000Y-75819000D01*
X122986000Y-101981000D02*
X151986000Y-101981000D01*
X151986000Y-101981000D02*
X151986000Y-89281000D01*
X151986000Y-89281000D02*
X122986000Y-89281000D01*
X122986000Y-101981000D02*
X122986000Y-89281000D01*
X152704000Y-88519000D02*
X181704000Y-88519000D01*
X181704000Y-88519000D02*
X181704000Y-75819000D01*
X181704000Y-75819000D02*
X152704000Y-75819000D01*
X152704000Y-88519000D02*
X152704000Y-75819000D01*
X152704000Y-101981000D02*
X181704000Y-101981000D01*
X181704000Y-101981000D02*
X181704000Y-89281000D01*
X181704000Y-89281000D02*
X152704000Y-89281000D01*
X152704000Y-101981000D02*
X152704000Y-89281000D01*
D10*
X145325333Y-84070000D02*
X145358667Y-84103333D01*
X145458667Y-84136667D01*
X145525333Y-84136667D01*
X145625333Y-84103333D01*
X145692000Y-84036667D01*
X145725333Y-83970000D01*
X145758667Y-83836667D01*
X145758667Y-83736667D01*
X145725333Y-83603333D01*
X145692000Y-83536667D01*
X145625333Y-83470000D01*
X145525333Y-83436667D01*
X145458667Y-83436667D01*
X145358667Y-83470000D01*
X145325333Y-83503333D01*
X149664666Y-81088667D02*
X149664666Y-80388667D01*
X149264666Y-81088667D01*
X149264666Y-80388667D01*
X148798000Y-80388667D02*
X148664667Y-80388667D01*
X148598000Y-80422000D01*
X148531333Y-80488667D01*
X148498000Y-80622000D01*
X148498000Y-80855333D01*
X148531333Y-80988667D01*
X148598000Y-81055333D01*
X148664667Y-81088667D01*
X148798000Y-81088667D01*
X148864667Y-81055333D01*
X148931333Y-80988667D01*
X148964667Y-80855333D01*
X148964667Y-80622000D01*
X148931333Y-80488667D01*
X148864667Y-80422000D01*
X148798000Y-80388667D01*
X142535999Y-81088667D02*
X142535999Y-80388667D01*
X142135999Y-81088667D01*
X142135999Y-80388667D01*
X141402666Y-81022000D02*
X141436000Y-81055333D01*
X141536000Y-81088667D01*
X141602666Y-81088667D01*
X141702666Y-81055333D01*
X141769333Y-80988667D01*
X141802666Y-80922000D01*
X141836000Y-80788667D01*
X141836000Y-80688667D01*
X141802666Y-80555333D01*
X141769333Y-80488667D01*
X141702666Y-80422000D01*
X141602666Y-80388667D01*
X141536000Y-80388667D01*
X141436000Y-80422000D01*
X141402666Y-80455333D01*
X125726000Y-81569001D02*
X125759333Y-81535667D01*
X125792667Y-81435667D01*
X125792667Y-81369001D01*
X125759333Y-81269001D01*
X125692667Y-81202334D01*
X125626000Y-81169001D01*
X125492667Y-81135667D01*
X125392667Y-81135667D01*
X125259333Y-81169001D01*
X125192667Y-81202334D01*
X125126000Y-81269001D01*
X125092667Y-81369001D01*
X125092667Y-81435667D01*
X125126000Y-81535667D01*
X125159333Y-81569001D01*
X125092667Y-82002334D02*
X125092667Y-82135667D01*
X125126000Y-82202334D01*
X125192667Y-82269001D01*
X125326000Y-82302334D01*
X125559333Y-82302334D01*
X125692667Y-82269001D01*
X125759333Y-82202334D01*
X125792667Y-82135667D01*
X125792667Y-82002334D01*
X125759333Y-81935667D01*
X125692667Y-81869001D01*
X125559333Y-81835667D01*
X125326000Y-81835667D01*
X125192667Y-81869001D01*
X125126000Y-81935667D01*
X125092667Y-82002334D01*
X125792667Y-82602334D02*
X125092667Y-82602334D01*
X125792667Y-83269000D02*
X125792667Y-82935667D01*
X125092667Y-82935667D01*
X145325333Y-97532000D02*
X145358667Y-97565333D01*
X145458667Y-97598667D01*
X145525333Y-97598667D01*
X145625333Y-97565333D01*
X145692000Y-97498667D01*
X145725333Y-97432000D01*
X145758667Y-97298667D01*
X145758667Y-97198667D01*
X145725333Y-97065333D01*
X145692000Y-96998667D01*
X145625333Y-96932000D01*
X145525333Y-96898667D01*
X145458667Y-96898667D01*
X145358667Y-96932000D01*
X145325333Y-96965333D01*
X149664666Y-94550667D02*
X149664666Y-93850667D01*
X149264666Y-94550667D01*
X149264666Y-93850667D01*
X148798000Y-93850667D02*
X148664667Y-93850667D01*
X148598000Y-93884000D01*
X148531333Y-93950667D01*
X148498000Y-94084000D01*
X148498000Y-94317333D01*
X148531333Y-94450667D01*
X148598000Y-94517333D01*
X148664667Y-94550667D01*
X148798000Y-94550667D01*
X148864667Y-94517333D01*
X148931333Y-94450667D01*
X148964667Y-94317333D01*
X148964667Y-94084000D01*
X148931333Y-93950667D01*
X148864667Y-93884000D01*
X148798000Y-93850667D01*
X142535999Y-94550667D02*
X142535999Y-93850667D01*
X142135999Y-94550667D01*
X142135999Y-93850667D01*
X141402666Y-94484000D02*
X141436000Y-94517333D01*
X141536000Y-94550667D01*
X141602666Y-94550667D01*
X141702666Y-94517333D01*
X141769333Y-94450667D01*
X141802666Y-94384000D01*
X141836000Y-94250667D01*
X141836000Y-94150667D01*
X141802666Y-94017333D01*
X141769333Y-93950667D01*
X141702666Y-93884000D01*
X141602666Y-93850667D01*
X141536000Y-93850667D01*
X141436000Y-93884000D01*
X141402666Y-93917333D01*
X125726000Y-95031001D02*
X125759333Y-94997667D01*
X125792667Y-94897667D01*
X125792667Y-94831001D01*
X125759333Y-94731001D01*
X125692667Y-94664334D01*
X125626000Y-94631001D01*
X125492667Y-94597667D01*
X125392667Y-94597667D01*
X125259333Y-94631001D01*
X125192667Y-94664334D01*
X125126000Y-94731001D01*
X125092667Y-94831001D01*
X125092667Y-94897667D01*
X125126000Y-94997667D01*
X125159333Y-95031001D01*
X125092667Y-95464334D02*
X125092667Y-95597667D01*
X125126000Y-95664334D01*
X125192667Y-95731001D01*
X125326000Y-95764334D01*
X125559333Y-95764334D01*
X125692667Y-95731001D01*
X125759333Y-95664334D01*
X125792667Y-95597667D01*
X125792667Y-95464334D01*
X125759333Y-95397667D01*
X125692667Y-95331001D01*
X125559333Y-95297667D01*
X125326000Y-95297667D01*
X125192667Y-95331001D01*
X125126000Y-95397667D01*
X125092667Y-95464334D01*
X125792667Y-96064334D02*
X125092667Y-96064334D01*
X125792667Y-96731000D02*
X125792667Y-96397667D01*
X125092667Y-96397667D01*
X175043333Y-84070000D02*
X175076667Y-84103333D01*
X175176667Y-84136667D01*
X175243333Y-84136667D01*
X175343333Y-84103333D01*
X175410000Y-84036667D01*
X175443333Y-83970000D01*
X175476667Y-83836667D01*
X175476667Y-83736667D01*
X175443333Y-83603333D01*
X175410000Y-83536667D01*
X175343333Y-83470000D01*
X175243333Y-83436667D01*
X175176667Y-83436667D01*
X175076667Y-83470000D01*
X175043333Y-83503333D01*
X179382666Y-81088667D02*
X179382666Y-80388667D01*
X178982666Y-81088667D01*
X178982666Y-80388667D01*
X178516000Y-80388667D02*
X178382667Y-80388667D01*
X178316000Y-80422000D01*
X178249333Y-80488667D01*
X178216000Y-80622000D01*
X178216000Y-80855333D01*
X178249333Y-80988667D01*
X178316000Y-81055333D01*
X178382667Y-81088667D01*
X178516000Y-81088667D01*
X178582667Y-81055333D01*
X178649333Y-80988667D01*
X178682667Y-80855333D01*
X178682667Y-80622000D01*
X178649333Y-80488667D01*
X178582667Y-80422000D01*
X178516000Y-80388667D01*
X172253999Y-81088667D02*
X172253999Y-80388667D01*
X171853999Y-81088667D01*
X171853999Y-80388667D01*
X171120666Y-81022000D02*
X171154000Y-81055333D01*
X171254000Y-81088667D01*
X171320666Y-81088667D01*
X171420666Y-81055333D01*
X171487333Y-80988667D01*
X171520666Y-80922000D01*
X171554000Y-80788667D01*
X171554000Y-80688667D01*
X171520666Y-80555333D01*
X171487333Y-80488667D01*
X171420666Y-80422000D01*
X171320666Y-80388667D01*
X171254000Y-80388667D01*
X171154000Y-80422000D01*
X171120666Y-80455333D01*
X155444000Y-81569001D02*
X155477333Y-81535667D01*
X155510667Y-81435667D01*
X155510667Y-81369001D01*
X155477333Y-81269001D01*
X155410667Y-81202334D01*
X155344000Y-81169001D01*
X155210667Y-81135667D01*
X155110667Y-81135667D01*
X154977333Y-81169001D01*
X154910667Y-81202334D01*
X154844000Y-81269001D01*
X154810667Y-81369001D01*
X154810667Y-81435667D01*
X154844000Y-81535667D01*
X154877333Y-81569001D01*
X154810667Y-82002334D02*
X154810667Y-82135667D01*
X154844000Y-82202334D01*
X154910667Y-82269001D01*
X155044000Y-82302334D01*
X155277333Y-82302334D01*
X155410667Y-82269001D01*
X155477333Y-82202334D01*
X155510667Y-82135667D01*
X155510667Y-82002334D01*
X155477333Y-81935667D01*
X155410667Y-81869001D01*
X155277333Y-81835667D01*
X155044000Y-81835667D01*
X154910667Y-81869001D01*
X154844000Y-81935667D01*
X154810667Y-82002334D01*
X155510667Y-82602334D02*
X154810667Y-82602334D01*
X155510667Y-83269000D02*
X155510667Y-82935667D01*
X154810667Y-82935667D01*
X175043333Y-97532000D02*
X175076667Y-97565333D01*
X175176667Y-97598667D01*
X175243333Y-97598667D01*
X175343333Y-97565333D01*
X175410000Y-97498667D01*
X175443333Y-97432000D01*
X175476667Y-97298667D01*
X175476667Y-97198667D01*
X175443333Y-97065333D01*
X175410000Y-96998667D01*
X175343333Y-96932000D01*
X175243333Y-96898667D01*
X175176667Y-96898667D01*
X175076667Y-96932000D01*
X175043333Y-96965333D01*
X179382666Y-94550667D02*
X179382666Y-93850667D01*
X178982666Y-94550667D01*
X178982666Y-93850667D01*
X178516000Y-93850667D02*
X178382667Y-93850667D01*
X178316000Y-93884000D01*
X178249333Y-93950667D01*
X178216000Y-94084000D01*
X178216000Y-94317333D01*
X178249333Y-94450667D01*
X178316000Y-94517333D01*
X178382667Y-94550667D01*
X178516000Y-94550667D01*
X178582667Y-94517333D01*
X178649333Y-94450667D01*
X178682667Y-94317333D01*
X178682667Y-94084000D01*
X178649333Y-93950667D01*
X178582667Y-93884000D01*
X178516000Y-93850667D01*
X172253999Y-94550667D02*
X172253999Y-93850667D01*
X171853999Y-94550667D01*
X171853999Y-93850667D01*
X171120666Y-94484000D02*
X171154000Y-94517333D01*
X171254000Y-94550667D01*
X171320666Y-94550667D01*
X171420666Y-94517333D01*
X171487333Y-94450667D01*
X171520666Y-94384000D01*
X171554000Y-94250667D01*
X171554000Y-94150667D01*
X171520666Y-94017333D01*
X171487333Y-93950667D01*
X171420666Y-93884000D01*
X171320666Y-93850667D01*
X171254000Y-93850667D01*
X171154000Y-93884000D01*
X171120666Y-93917333D01*
X155444000Y-95031001D02*
X155477333Y-94997667D01*
X155510667Y-94897667D01*
X155510667Y-94831001D01*
X155477333Y-94731001D01*
X155410667Y-94664334D01*
X155344000Y-94631001D01*
X155210667Y-94597667D01*
X155110667Y-94597667D01*
X154977333Y-94631001D01*
X154910667Y-94664334D01*
X154844000Y-94731001D01*
X154810667Y-94831001D01*
X154810667Y-94897667D01*
X154844000Y-94997667D01*
X154877333Y-95031001D01*
X154810667Y-95464334D02*
X154810667Y-95597667D01*
X154844000Y-95664334D01*
X154910667Y-95731001D01*
X155044000Y-95764334D01*
X155277333Y-95764334D01*
X155410667Y-95731001D01*
X155477333Y-95664334D01*
X155510667Y-95597667D01*
X155510667Y-95464334D01*
X155477333Y-95397667D01*
X155410667Y-95331001D01*
X155277333Y-95297667D01*
X155044000Y-95297667D01*
X154910667Y-95331001D01*
X154844000Y-95397667D01*
X154810667Y-95464334D01*
X155510667Y-96064334D02*
X154810667Y-96064334D01*
X155510667Y-96731000D02*
X155510667Y-96397667D01*
X154810667Y-96397667D01*
D12*
X121999333Y-75652381D02*
X121999333Y-76366667D01*
X122046953Y-76509524D01*
X122142191Y-76604762D01*
X122285048Y-76652381D01*
X122380286Y-76652381D01*
X120999333Y-76652381D02*
X121570762Y-76652381D01*
X121285048Y-76652381D02*
X121285048Y-75652381D01*
X121380286Y-75795238D01*
X121475524Y-75890476D01*
X121570762Y-75938095D01*
X182840381Y-88566667D02*
X183554667Y-88566667D01*
X183697524Y-88519047D01*
X183792762Y-88423809D01*
X183840381Y-88280952D01*
X183840381Y-88185714D01*
X182935619Y-88995238D02*
X182888000Y-89042857D01*
X182840381Y-89138095D01*
X182840381Y-89376191D01*
X182888000Y-89471429D01*
X182935619Y-89519048D01*
X183030857Y-89566667D01*
X183126095Y-89566667D01*
X183268952Y-89519048D01*
X183840381Y-88947619D01*
X183840381Y-89566667D01*
M02*
