G04 #@! TF.FileFunction,Copper,L2,Bot,Signal*
%FSLAX46Y46*%
G04 Gerber Fmt 4.6, Leading zero omitted, Abs format (unit mm)*
G04 Created by KiCad (PCBNEW 4.0.7) date 02/15/19 15:45:41*
%MOMM*%
%LPD*%
G01*
G04 APERTURE LIST*
%ADD10C,0.100000*%
%ADD11R,1.700000X1.700000*%
%ADD12O,1.700000X1.700000*%
%ADD13C,2.500000*%
%ADD14O,1.998980X1.998980*%
%ADD15R,1.998980X1.998980*%
%ADD16C,2.300000*%
%ADD17C,0.300000*%
G04 APERTURE END LIST*
D10*
D11*
X119380000Y-93980000D03*
D12*
X119380000Y-96520000D03*
X119380000Y-99060000D03*
D13*
X125336000Y-85919000D03*
X125336000Y-78419000D03*
X145636000Y-85919000D03*
X149136000Y-78419000D03*
X142136000Y-78419000D03*
X125336000Y-99381000D03*
X125336000Y-91881000D03*
X145636000Y-99381000D03*
X149136000Y-91881000D03*
X142136000Y-91881000D03*
X155054000Y-85919000D03*
X155054000Y-78419000D03*
X175354000Y-85919000D03*
X178854000Y-78419000D03*
X171854000Y-78419000D03*
X155054000Y-99381000D03*
X155054000Y-91881000D03*
X175354000Y-99381000D03*
X178854000Y-91881000D03*
X171854000Y-91881000D03*
D14*
X119380000Y-86360000D03*
D15*
X119380000Y-78740000D03*
D14*
X119380000Y-81280000D03*
X119380000Y-83820000D03*
X185420000Y-87630000D03*
D15*
X185420000Y-95250000D03*
D14*
X185420000Y-92710000D03*
X185420000Y-90170000D03*
X185420000Y-85090000D03*
X185420000Y-82550000D03*
D16*
X145636000Y-85919000D02*
X143035999Y-83318999D01*
X121692548Y-78740000D02*
X119380000Y-78740000D01*
X143035999Y-83318999D02*
X126271547Y-83318999D01*
X126271547Y-83318999D02*
X121692548Y-78740000D01*
X145636000Y-99381000D02*
X145636000Y-95758000D01*
X145636000Y-95758000D02*
X145636000Y-85919000D01*
X175354000Y-99381000D02*
X171731000Y-95758000D01*
X171731000Y-95758000D02*
X145636000Y-95758000D01*
X119380000Y-93980000D02*
X123237000Y-93980000D01*
X123237000Y-93980000D02*
X125336000Y-91881000D01*
X125336000Y-91881000D02*
X125336000Y-85919000D01*
X119380000Y-81280000D02*
X120697000Y-81280000D01*
X120697000Y-81280000D02*
X125336000Y-85919000D01*
X116586000Y-85676752D02*
X116586000Y-97468081D01*
X116586000Y-97468081D02*
X118177919Y-99060000D01*
X118177919Y-99060000D02*
X119380000Y-99060000D01*
X119380000Y-83820000D02*
X118442752Y-83820000D01*
X118442752Y-83820000D02*
X116586000Y-85676752D01*
D17*
X123117000Y-101600000D02*
X152835000Y-101600000D01*
X152835000Y-101600000D02*
X155054000Y-99381000D01*
X122863000Y-75946000D02*
X152581000Y-75946000D01*
X152581000Y-75946000D02*
X155054000Y-78419000D01*
X115824000Y-101600000D02*
X123117000Y-101600000D01*
X123117000Y-101600000D02*
X125336000Y-99381000D01*
X115062000Y-100838000D02*
X115824000Y-101600000D01*
X115062000Y-86360000D02*
X115062000Y-100838000D01*
X115062000Y-86360000D02*
X115062000Y-77216000D01*
X115062000Y-77216000D02*
X116332000Y-75946000D01*
X116332000Y-75946000D02*
X122863000Y-75946000D01*
X122863000Y-75946000D02*
X125336000Y-78419000D01*
D16*
X178854000Y-78419000D02*
X178854000Y-85017492D01*
X178854000Y-85017492D02*
X184006508Y-90170000D01*
X184006508Y-90170000D02*
X185420000Y-90170000D01*
X151714000Y-88900000D02*
X175873000Y-88900000D01*
X175873000Y-88900000D02*
X178854000Y-91881000D01*
X149136000Y-91881000D02*
X149136000Y-91478000D01*
X149136000Y-91478000D02*
X151714000Y-88900000D01*
X185420000Y-92710000D02*
X179683000Y-92710000D01*
X179683000Y-92710000D02*
X178854000Y-91881000D01*
X153013000Y-82296000D02*
X171731000Y-82296000D01*
X171731000Y-82296000D02*
X175354000Y-85919000D01*
X149136000Y-78419000D02*
X153013000Y-82296000D01*
M02*
