M48
; DRILL file KiCad 10.0.1 date 2026-05-07T10:51:35
; FORMAT={-:-/ absolute / metric / decimal}
; #@! TF.CreationDate,2026-05-07T10:51:35-05:00
; #@! TF.GenerationSoftware,Kicad,Pcbnew,10.0.1
; #@! TF.FileFunction,MixedPlating,1,4
FMAT,2
METRIC
; #@! TA.AperFunction,Plated,PTH,ViaDrill
T1C0.300
; #@! TA.AperFunction,Plated,PTH,ComponentDrill
T2C0.600
; #@! TA.AperFunction,Plated,PTH,ComponentDrill
T3C1.000
; #@! TA.AperFunction,Plated,PTH,ComponentDrill
T4C1.020
; #@! TA.AperFunction,Plated,PTH,ComponentDrill
T5C1.220
; #@! TA.AperFunction,Plated,PTH,ComponentDrill
T6C1.300
; #@! TA.AperFunction,Plated,PTH,ComponentDrill
T7C1.490
; #@! TA.AperFunction,Plated,PTH,ComponentDrill
T8C1.830
; #@! TA.AperFunction,NonPlated,NPTH,ComponentDrill
T9C3.000
; #@! TA.AperFunction,NonPlated,NPTH,ComponentDrill
T10C3.600
%
G90
G05
T1
X130.8Y-116.3
X130.8Y-119.1
X130.9Y-127.0
X130.9Y-129.5
X130.9Y-131.6
X131.0Y-77.0
X131.0Y-83.0
X131.0Y-91.0
X131.0Y-105.0
X131.0Y-133.0
X131.0Y-139.0
X131.2Y-114.7
X131.2Y-115.4
X131.2Y-116.8
X131.2Y-117.6
X131.4Y-110.2
X131.4Y-111.1
X131.4Y-112.3
X131.4Y-113.2
X131.4Y-114.1
X131.7Y-118.1
X131.9Y-116.4
X132.0Y-114.1
X132.1Y-127.0
X132.3Y-109.8
X132.3Y-110.5
X132.4Y-113.5
X132.8Y-85.2
X133.0Y-127.4
X133.2Y-110.2
X133.2Y-111.1
X133.2Y-112.3
X133.2Y-112.9
X133.2Y-116.1
X133.3Y-131.6
X133.6Y-113.7
X134.0Y-127.4
X134.1Y-110.7
X134.4Y-108.4
X134.4Y-109.3
X134.4Y-111.6
X134.4Y-112.4
X134.4Y-113.3
X134.6Y-117.7
X134.7Y-114.1
X134.7Y-131.6
X135.0Y-127.4
X135.1Y-108.0
X135.1Y-108.7
X135.1Y-109.7
X135.1Y-111.1
X135.1Y-112.8
X135.5Y-114.0
X135.5Y-129.1
X135.6Y-131.4
X135.7Y-106.0
X135.8Y-85.2
X135.9Y-108.0
X135.9Y-108.7
X135.9Y-109.7
X135.9Y-111.1
X135.9Y-112.8
X135.9Y-127.0
X135.9Y-127.9
X136.4Y-128.6
X136.4Y-130.8
X136.4Y-131.5
X136.6Y-108.4
X136.6Y-109.3
X136.6Y-111.6
X136.6Y-112.4
X136.9Y-110.7
X136.9Y-114.0
X136.9Y-127.9
X137.0Y-77.0
X137.1Y-133.55
X137.1Y-134.95
X137.2Y-131.4
X137.3Y-128.7
X137.3Y-130.5
X137.7Y-124.7
X137.7Y-125.9
X137.7Y-128.2
X137.7Y-129.2
X137.8Y-126.8
X138.0Y-139.0
X138.1Y-124.0
X138.15Y-136.0
X138.2Y-109.8
X138.2Y-111.9
X138.2Y-132.45
X138.3Y-127.5
X138.3Y-130.6
X139.0Y-127.0
X139.1Y-130.6
X139.2Y-124.0
X139.5Y-124.7
X139.5Y-126.4
X139.5Y-128.4
X139.5Y-129.8
X139.7Y-132.5
X139.93Y-135.78
X140.0Y-118.0
X140.4Y-109.8
X140.4Y-111.9
X140.6Y-125.5
X140.6Y-129.1
X140.65Y-133.45
X140.8Y-134.7
X140.9Y-127.3
X141.0Y-77.0
X141.0Y-81.0
X141.0Y-84.3
X141.0Y-86.4
X141.0Y-92.0
X141.0Y-97.0
X141.0Y-100.9
X141.0Y-107.1
X141.0Y-114.5
X141.1Y-130.9
X141.9Y-124.9
X141.9Y-126.1
X141.9Y-128.4
X141.9Y-129.8
X142.4Y-123.6
X142.5Y-130.9
X142.6Y-127.3
X143.0Y-124.8
X143.0Y-126.2
X143.0Y-128.4
X143.0Y-129.7
X143.9Y-104.4
X143.9Y-108.2
X144.0Y-121.9
X145.0Y-81.0
X145.0Y-116.3
X145.0Y-131.0
X146.0Y-93.0
X146.7Y-98.5
X147.0Y-84.0
X147.0Y-87.0
X147.0Y-124.0
X147.0Y-133.0
X147.1Y-114.2
X147.1Y-115.9
X147.25Y-100.55
X148.0Y-97.0
X149.0Y-104.5
X149.0Y-109.5
X149.0Y-129.0
X149.4Y-126.8
X149.9Y-107.39
X150.0Y-139.0
X150.4Y-87.3
X150.7Y-126.8
X151.0Y-110.0
X151.0Y-122.0
X151.4Y-130.7
X152.0Y-81.0
X152.0Y-117.0
X152.0Y-134.0
X152.5Y-85.5
X152.5Y-129.5
X153.0Y-92.0
X153.0Y-127.0
X154.0Y-139.0
X154.1Y-134.5
X154.5Y-114.0
X155.0Y-104.5
X155.0Y-109.5
X155.0Y-120.0
X155.25Y-133.35
X155.25Y-135.65
X155.5Y-81.0
X156.4Y-134.5
X156.7Y-100.5
X157.0Y-87.0
X157.0Y-123.0
X157.0Y-126.0
X157.12Y-130.06
X157.2Y-128.9
X157.3Y-132.4
X157.5Y-116.5
X158.9Y-128.0
X159.0Y-81.0
X159.0Y-106.0
X159.0Y-111.0
X159.0Y-114.0
X159.0Y-139.0
X159.5Y-130.9
X159.5Y-132.2
X159.5Y-133.4
X160.7Y-130.8
X161.0Y-118.0
X161.0Y-124.8
X161.0Y-126.1
X161.0Y-128.2
X161.0Y-129.8
X161.3Y-89.1
X161.3Y-107.0
X161.4Y-127.2
X161.6Y-123.5
X162.0Y-81.0
X162.0Y-130.9
X162.1Y-125.0
X162.1Y-125.9
X162.1Y-128.5
X162.1Y-129.5
X162.1Y-133.8
X162.1Y-136.1
X162.5Y-132.1
X162.6Y-135.1
X162.9Y-123.5
X163.0Y-77.0
X163.0Y-78.3
X163.0Y-127.2
X163.0Y-130.9
X163.5Y-124.7
X163.5Y-126.1
X163.5Y-128.3
X163.5Y-129.6
X163.6Y-133.6
X163.7Y-136.1
X164.1Y-132.3
X164.2Y-135.0
X164.5Y-131.0
X165.5Y-135.7
X165.8Y-131.6
X166.2Y-91.9
X166.2Y-97.0
X166.3Y-116.1
X166.4Y-77.0
X166.4Y-79.1
X166.4Y-131.0
X166.6Y-117.5
X166.9Y-136.6
X167.0Y-95.0
X167.0Y-104.0
X167.0Y-139.0
X167.2Y-135.5
X167.3Y-130.7
X167.4Y-114.8
X167.4Y-115.5
X167.4Y-116.7
X167.4Y-117.5
X167.5Y-109.2
X167.5Y-110.1
X167.5Y-112.2
X167.5Y-113.0
X167.6Y-114.1
X167.6Y-132.4
X167.6Y-134.3
X167.7Y-84.25
X167.7Y-131.4
X167.9Y-118.1
X168.0Y-93.0
X168.0Y-113.6
X168.1Y-116.4
X168.2Y-108.8
X168.2Y-109.5
X168.2Y-110.5
X168.2Y-111.9
X168.3Y-130.8
X168.4Y-114.2
X168.5Y-131.4
X168.7Y-113.6
X169.0Y-108.8
X169.0Y-109.5
X169.0Y-110.5
X169.0Y-111.9
X169.1Y-114.1
X169.2Y-131.2
X169.4Y-116.1
X169.6Y-113.5
X169.7Y-109.2
X169.7Y-110.1
X169.7Y-112.5
X170.6Y-109.7
X170.6Y-110.5
X170.6Y-111.8
X170.6Y-112.6
X170.8Y-115.2
X170.8Y-117.5
X170.9Y-114.2
X171.5Y-109.3
X171.5Y-110.0
X171.5Y-113.0
X172.4Y-109.7
X172.4Y-110.5
X172.4Y-111.8
X172.4Y-112.6
X172.4Y-114.0
X173.0Y-77.0
X173.0Y-85.0
X173.0Y-93.0
X173.0Y-101.0
X173.0Y-106.0
X173.0Y-118.9
X173.0Y-132.0
X173.0Y-139.0
X173.1Y-116.2
T2
X147.75Y-127.9
X155.25Y-134.5
T3
X134.0Y-92.92
X134.0Y-95.46
X134.0Y-98.0
X134.0Y-100.54
X161.0Y-132.46
X161.0Y-135.0
X161.0Y-137.54
T4
X139.275Y-77.874
X139.275Y-80.414
X139.275Y-82.954
X139.275Y-85.494
X139.275Y-88.034
X139.275Y-90.574
X139.275Y-93.114
X139.275Y-95.654
X139.275Y-98.194
X139.275Y-100.734
X139.275Y-103.274
X139.275Y-105.814
X139.275Y-108.354
X139.275Y-110.894
X139.275Y-113.434
X164.675Y-77.874
X164.675Y-80.414
X164.675Y-82.954
X164.675Y-85.494
X164.675Y-88.034
X164.675Y-90.574
X164.675Y-93.114
X164.675Y-95.654
X164.675Y-98.194
X164.675Y-100.734
X164.675Y-103.274
X164.675Y-105.814
X164.675Y-108.354
X164.675Y-110.894
X164.675Y-113.434
T5
X170.0Y-90.0
X170.0Y-100.0
T6
X148.25Y-135.1
X148.25Y-138.1
X156.25Y-138.1
T7
X132.8Y-129.5
X171.3Y-129.3
T8
X138.9Y-134.25
X140.0Y-137.7
X143.0Y-134.0
X165.0Y-137.7
X165.6Y-133.6
T9
X139.745Y-74.444
X139.745Y-121.394
X164.255Y-74.444
X164.255Y-121.394
T10
X134.0Y-80.0
X134.0Y-136.0
X170.0Y-80.0
X170.0Y-136.0
M30
