%TF.GenerationSoftware,KiCad,Pcbnew,10.0.1*%
%TF.CreationDate,2026-05-07T10:49:45-05:00*%
%TF.ProjectId,ESPDrive,45535044-7269-4766-952e-6b696361645f,rev?*%
%TF.SameCoordinates,Original*%
%TF.FileFunction,Paste,Bot*%
%TF.FilePolarity,Positive*%
%FSLAX46Y46*%
G04 Gerber Fmt 4.6, Leading zero omitted, Abs format (unit mm)*
G04 Created by KiCad (PCBNEW 10.0.1) date 2026-05-07 10:49:45*
%MOMM*%
%LPD*%
G01*
G04 APERTURE LIST*
G04 Aperture macros list*
%AMRoundRect*
0 Rectangle with rounded corners*
0 $1 Rounding radius*
0 $2 $3 $4 $5 $6 $7 $8 $9 X,Y pos of 4 corners*
0 Add a 4 corners polygon primitive as box body*
4,1,4,$2,$3,$4,$5,$6,$7,$8,$9,$2,$3,0*
0 Add four circle primitives for the rounded corners*
1,1,$1+$1,$2,$3*
1,1,$1+$1,$4,$5*
1,1,$1+$1,$6,$7*
1,1,$1+$1,$8,$9*
0 Add four rect primitives between the rounded corners*
20,1,$1+$1,$2,$3,$4,$5,0*
20,1,$1+$1,$4,$5,$6,$7,0*
20,1,$1+$1,$6,$7,$8,$9,0*
20,1,$1+$1,$8,$9,$2,$3,0*%
G04 Aperture macros list end*
%ADD10RoundRect,0.150000X-0.150000X0.587500X-0.150000X-0.587500X0.150000X-0.587500X0.150000X0.587500X0*%
%ADD11RoundRect,0.250000X-0.350000X-0.450000X0.350000X-0.450000X0.350000X0.450000X-0.350000X0.450000X0*%
%ADD12RoundRect,0.250000X0.350000X0.450000X-0.350000X0.450000X-0.350000X-0.450000X0.350000X-0.450000X0*%
%ADD13RoundRect,0.150000X-0.587500X-0.150000X0.587500X-0.150000X0.587500X0.150000X-0.587500X0.150000X0*%
%ADD14RoundRect,0.250000X0.475000X-0.337500X0.475000X0.337500X-0.475000X0.337500X-0.475000X-0.337500X0*%
%ADD15RoundRect,0.250000X0.450000X-0.350000X0.450000X0.350000X-0.450000X0.350000X-0.450000X-0.350000X0*%
%ADD16RoundRect,0.250000X-0.337500X-0.475000X0.337500X-0.475000X0.337500X0.475000X-0.337500X0.475000X0*%
%ADD17RoundRect,0.250000X-0.450000X0.350000X-0.450000X-0.350000X0.450000X-0.350000X0.450000X0.350000X0*%
G04 APERTURE END LIST*
D10*
%TO.C,Q3*%
X151000000Y-132100000D03*
X151950000Y-130225000D03*
X150050000Y-130225000D03*
%TD*%
D11*
%TO.C,R18*%
X149000000Y-93000000D03*
X151000000Y-93000000D03*
%TD*%
D12*
%TO.C,R17*%
X151000000Y-96000000D03*
X149000000Y-96000000D03*
%TD*%
D13*
%TO.C,Q2*%
X149000000Y-90900000D03*
X149000000Y-89000000D03*
X150875000Y-89950000D03*
%TD*%
D14*
%TO.C,C14*%
X159100000Y-93137500D03*
X159100000Y-91062500D03*
%TD*%
D11*
%TO.C,R3*%
X154000000Y-128000000D03*
X156000000Y-128000000D03*
%TD*%
D14*
%TO.C,C8*%
X147000000Y-120037500D03*
X147000000Y-117962500D03*
%TD*%
D10*
%TO.C,D1*%
X154050000Y-130062500D03*
X155950000Y-130062500D03*
X155000000Y-131937500D03*
%TD*%
D15*
%TO.C,R11*%
X170000000Y-97000000D03*
X170000000Y-95000000D03*
%TD*%
D16*
%TO.C,C5*%
X143962500Y-86000000D03*
X146037500Y-86000000D03*
%TD*%
D17*
%TO.C,R8*%
X144000000Y-118000000D03*
X144000000Y-120000000D03*
%TD*%
D12*
%TO.C,R2*%
X159000000Y-84000000D03*
X157000000Y-84000000D03*
%TD*%
D14*
%TO.C,C13*%
X144100000Y-93562500D03*
X144100000Y-95637500D03*
%TD*%
D17*
%TO.C,R14*%
X132000000Y-87000000D03*
X132000000Y-89000000D03*
%TD*%
%TO.C,R16*%
X135000000Y-87000000D03*
X135000000Y-89000000D03*
%TD*%
D12*
%TO.C,R4*%
X152000000Y-128000000D03*
X150000000Y-128000000D03*
%TD*%
D11*
%TO.C,R6*%
X144000000Y-89000000D03*
X146000000Y-89000000D03*
%TD*%
D12*
%TO.C,R7*%
X146000000Y-83000000D03*
X144000000Y-83000000D03*
%TD*%
%TO.C,R9*%
X146000000Y-115000000D03*
X144000000Y-115000000D03*
%TD*%
D17*
%TO.C,R5*%
X154500000Y-82000000D03*
X154500000Y-84000000D03*
%TD*%
D15*
%TO.C,R15*%
X134000000Y-106000000D03*
X134000000Y-104000000D03*
%TD*%
%TO.C,R10*%
X170000000Y-87000000D03*
X170000000Y-85000000D03*
%TD*%
M02*
