999
dxflib 3.26.4.0
  0
SECTION
  2
HEADER
  9
$ACADVER
  1
AC1015
  9
$HANDSEED
  5
FFFF
  9
$DIMADEC
 70
0
  9
$DIMASZ
 40
0.125
  9
$DIMATFIT
 70
0
  9
$DIMAUNIT
 70
0
  9
$DIMAZIN
 70
2
  9
$DIMBLK
  1
0
  9
$DIMBLK1
  1
0
  9
$DIMBLK2
  1
0
  9
$DIMDEC
 70
4
  9
$DIMDLI
 40
0.25
  9
$DIMDSEP
 70
46
  9
$DIMEXE
 40
0.0625
  9
$DIMEXO
 40
0.03125
  9
$DIMGAP
 40
0.03125
  9
$DIMLFAC
 40
1.0
  9
$DIMLUNIT
 70
2
  9
$DIMSCALE
 40
25.3999999999999986
  9
$DIMTAD
 70
1
  9
$DIMTIH
 70
0
  9
$DIMTSZ
 40
0.0
  9
$DIMTXT
 40
0.125
  9
$DIMZIN
 70
8
  9
$DWGCODEPAGE
  3
ANSI_1252
  9
$INSUNITS
 70
4
  9
$LTSCALE
 40
1.0
  9
$MAXACTVP
 70
64
  9
$MEASUREMENT
 70
0
  9
$MIRRTEXT
 70
0
  9
$PDMODE
 70
0
  9
$PDSIZE
 40
0.0
  0
ENDSEC
  0
SECTION
  2
TABLES
  0
TABLE
  2
VPORT
  5
8
100
AcDbSymbolTable
 70
1
  0
VPORT
  5
30
100
AcDbSymbolTableRecord
100
AcDbViewportTableRecord
  2
*Active
 70
0
 10
0.0
 20
0.0
 11
1.0
 21
1.0
 12
286.3055555555554861
 22
148.5
 13
0.0
 23
0.0
 14
10.0
 24
10.0
 15
10.0
 25
10.0
 16
0.0
 26
0.0
 36
1.0
 17
0.0
 27
0.0
 37
0.0
 40
297.0
 41
1.92798353909465
 42
50.0
 43
0.0
 44
0.0
 50
0.0
 51
0.0
 71
0
 72
100
 73
1
 74
3
 75
1
 76
1
 77
0
 78
0
281
0
 65
1
110
0.0
120
0.0
130
0.0
111
1.0
121
0.0
131
0.0
112
0.0
122
1.0
132
0.0
 79
0
146
0.0
  0
ENDTAB
  0
TABLE
  2
LTYPE
  5
5
100
AcDbSymbolTable
 70
41
  0
LTYPE
  5
16
100
AcDbSymbolTableRecord
100
AcDbLinetypeTableRecord
  2
Continuous
 70
0
  3
Solid line
 72
65
 73
0
 40
0.0
  0
LTYPE
  5
31
100
AcDbSymbolTableRecord
100
AcDbLinetypeTableRecord
  2
CENTERX2
 70
0
  3
Center (2x) ________  __  ________  __  _____
 72
65
 73
4
 40
101.6000000000000085
 49
63.5
 74
0
 49
-12.6999999999999993
 74
0
 49
12.6999999999999993
 74
0
 49
-12.6999999999999993
 74
0
  0
LTYPE
  5
32
100
AcDbSymbolTableRecord
100
AcDbLinetypeTableRecord
  2
DASHDOT
 70
0
  3
Dash dot __ . __ . __ . __ . __ . __ . __ . __
 72
65
 73
4
 40
25.4000000000000021
 49
12.6999999999999993
 74
0
 49
-6.2999999999999998
 74
0
 49
0.1
 74
0
 49
-6.2999999999999998
 74
0
  0
LTYPE
  5
33
100
AcDbSymbolTableRecord
100
AcDbLinetypeTableRecord
  2
PHANTOM
 70
0
  3
Phantom ______  __  __  ______  __  __  ______ 
 72
65
 73
6
 40
63.5000000000000071
 49
31.75
 74
0
 49
-6.3499999999999996
 74
0
 49
6.3499999999999996
 74
0
 49
-6.3499999999999996
 74
0
 49
6.3499999999999996
 74
0
 49
-6.3499999999999996
 74
0
  0
LTYPE
  5
34
100
AcDbSymbolTableRecord
100
AcDbLinetypeTableRecord
  2
ACAD_ISO03W100
 70
0
  3
ISO dash space __    __    __    __    __    __
 72
65
 73
2
 40
30.0
 49
12.0
 74
0
 49
-18.0
 74
0
  0
LTYPE
  5
35
100
AcDbSymbolTableRecord
100
AcDbLinetypeTableRecord
  2
DIVIDEX2
 70
0
  3
Divide (2x) ________  .  .  ________  .  .  _
 72
65
 73
6
 40
63.5
 49
25.3999999999999986
 74
0
 49
-12.6499999999999986
 74
0
 49
0.1
 74
0
 49
-12.5999999999999979
 74
0
 49
0.1
 74
0
 49
-12.6499999999999986
 74
0
  0
LTYPE
  5
36
100
AcDbSymbolTableRecord
100
AcDbLinetypeTableRecord
  2
ACAD_ISO11W100
 70
0
  3
ISO double-dash dot __ __ . __ __ . __ __ . __ _
 72
65
 73
6
 40
33.0
 49
12.0
 74
0
 49
-3.0
 74
0
 49
12.0
 74
0
 49
-2.9500000000000002
 74
0
 49
0.1
 74
0
 49
-2.9500000000000002
 74
0
  0
LTYPE
  5
37
100
AcDbSymbolTableRecord
100
AcDbLinetypeTableRecord
  2
ACAD_ISO15W100
 70
0
  3
ISO double-dash triple-dot __ __ . . . __ __ . .
 72
65
 73
10
 40
39.0000000000000071
 49
12.0
 74
0
 49
-3.0
 74
0
 49
12.0
 74
0
 49
-2.9500000000000002
 74
0
 49
0.1
 74
0
 49
-2.9000000000000004
 74
0
 49
0.1
 74
0
 49
-2.9000000000000004
 74
0
 49
0.1
 74
0
 49
-2.9500000000000002
 74
0
  0
LTYPE
  5
38
100
AcDbSymbolTableRecord
100
AcDbLinetypeTableRecord
  2
ACAD_ISO08W100
 70
0
  3
ISO long-dash short-dash ____ __ ____ __ ____ _
 72
65
 73
4
 40
36.0
 49
24.0
 74
0
 49
-3.0
 74
0
 49
6.0
 74
0
 49
-3.0
 74
0
  0
LTYPE
  5
39
100
AcDbSymbolTableRecord
100
AcDbLinetypeTableRecord
  2
DIVIDE2
 70
0
  3
Divide (.5x) __..__..__..__..__..__..__..__.._
 72
65
 73
6
 40
15.8749999999999982
 49
6.3499999999999996
 74
0
 49
-3.125
 74
0
 49
0.1
 74
0
 49
-3.0750000000000002
 74
0
 49
0.1
 74
0
 49
-3.125
 74
0
  0
LTYPE
  5
3A
100
AcDbSymbolTableRecord
100
AcDbLinetypeTableRecord
  2
ACAD_ISO14W100
 70
0
  3
ISO dash triple-dot __ . . . __ . . . __ . . . _
 72
65
 73
8
 40
24.0000000000000036
 49
12.0
 74
0
 49
-2.9500000000000002
 74
0
 49
0.1
 74
0
 49
-2.9000000000000004
 74
0
 49
0.1
 74
0
 49
-2.9000000000000004
 74
0
 49
0.1
 74
0
 49
-2.9500000000000002
 74
0
  0
LTYPE
  5
3B
100
AcDbSymbolTableRecord
100
AcDbLinetypeTableRecord
  2
CENTER
 70
0
  3
Center ____ _ ____ _ ____ _ ____ _ ____ _ ____
 72
65
 73
4
 40
50.8000000000000043
 49
31.75
 74
0
 49
-6.3499999999999996
 74
0
 49
6.3499999999999996
 74
0
 49
-6.3499999999999996
 74
0
  0
LTYPE
  5
14
100
AcDbSymbolTableRecord
100
AcDbLinetypeTableRecord
  2
BYBLOCK
 70
0
  3

 72
65
 73
0
 40
0.0
  0
LTYPE
  5
3C
100
AcDbSymbolTableRecord
100
AcDbLinetypeTableRecord
  2
DOT2
 70
0
  3
Dot (.5x) ........................................
 72
65
 73
2
 40
3.1749999999999998
 49
0.1
 74
0
 49
-3.0749999999999997
 74
0
  0
LTYPE
  5
3D
100
AcDbSymbolTableRecord
100
AcDbLinetypeTableRecord
  2
DASHED
 70
0
  3
Dashed __ __ __ __ __ __ __ __ __ __ __ __ __ _
 72
65
 73
2
 40
19.0499999999999972
 49
12.6999999999999993
 74
0
 49
-6.3499999999999996
 74
0
  0
LTYPE
  5
3E
100
AcDbSymbolTableRecord
100
AcDbLinetypeTableRecord
  2
BORDER2
 70
0
  3
Border (.5x) __.__.__.__.__.__.__.__.__.__.__.
 72
65
 73
6
 40
22.2250000000000014
 49
6.3499999999999996
 74
0
 49
-3.1749999999999998
 74
0
 49
6.3499999999999996
 74
0
 49
-3.125
 74
0
 49
0.1
 74
0
 49
-3.125
 74
0
  0
LTYPE
  5
3F
100
AcDbSymbolTableRecord
100
AcDbLinetypeTableRecord
  2
ACAD_ISO05W100
 70
0
  3
ISO long-dash double-dot ____ .. ____ .. ____ . 
 72
65
 73
6
 40
33.0000000000000071
 49
24.0
 74
0
 49
-2.9500000000000002
 74
0
 49
0.1
 74
0
 49
-2.9000000000000004
 74
0
 49
0.1
 74
0
 49
-2.9500000000000002
 74
0
  0
LTYPE
  5
40
100
AcDbSymbolTableRecord
100
AcDbLinetypeTableRecord
  2
ACAD_ISO12W100
 70
0
  3
ISO dash double-dot __ . . __ . . __ . . __ . . 
 72
65
 73
6
 40
21.0
 49
12.0
 74
0
 49
-2.9500000000000002
 74
0
 49
0.1
 74
0
 49
-2.9000000000000004
 74
0
 49
0.1
 74
0
 49
-2.9500000000000002
 74
0
  0
LTYPE
  5
41
100
AcDbSymbolTableRecord
100
AcDbLinetypeTableRecord
  2
ACAD_ISO02W100
 70
0
  3
ISO dash __ __ __ __ __ __ __ __ __ __ __ __ __
 72
65
 73
2
 40
15.0
 49
12.0
 74
0
 49
-3.0
 74
0
  0
LTYPE
  5
42
100
AcDbSymbolTableRecord
100
AcDbLinetypeTableRecord
  2
ACAD_ISO04W100
 70
0
  3
ISO long-dash dot ____ . ____ . ____ . ____ . _
 72
65
 73
4
 40
30.0
 49
24.0
 74
0
 49
-2.9500000000000002
 74
0
 49
0.1
 74
0
 49
-2.9500000000000002
 74
0
  0
LTYPE
  5
43
100
AcDbSymbolTableRecord
100
AcDbLinetypeTableRecord
  2
BORDERX2
 70
0
  3
Border (2x) ____  ____  .  ____  ____  .  ___
 72
65
 73
6
 40
88.8999999999999773
 49
25.3999999999999986
 74
0
 49
-12.6999999999999993
 74
0
 49
25.3999999999999986
 74
0
 49
-12.6499999999999986
 74
0
 49
0.1
 74
0
 49
-12.6499999999999986
 74
0
  0
LTYPE
  5
44
100
AcDbSymbolTableRecord
100
AcDbLinetypeTableRecord
  2
HIDDENX2
 70
0
  3
Hidden (2x) ____ ____ ____ ____ ____ ____ ____ 
 72
65
 73
2
 40
19.0499999999999972
 49
12.6999999999999993
 74
0
 49
-6.3499999999999996
 74
0
  0
LTYPE
  5
45
100
AcDbSymbolTableRecord
100
AcDbLinetypeTableRecord
  2
PHANTOM2
 70
0
  3
Phantom (.5x) ___ _ _ ___ _ _ ___ _ _ ___ _ _
 72
65
 73
6
 40
31.7500000000000036
 49
15.875
 74
0
 49
-3.1749999999999998
 74
0
 49
3.1749999999999998
 74
0
 49
-3.1749999999999998
 74
0
 49
3.1749999999999998
 74
0
 49
-3.1749999999999998
 74
0
  0
LTYPE
  5
46
100
AcDbSymbolTableRecord
100
AcDbLinetypeTableRecord
  2
ACAD_ISO13W100
 70
0
  3
ISO double-dash double-dot __ __ . . __ __ . . _
 72
65
 73
8
 40
36.0000000000000071
 49
12.0
 74
0
 49
-3.0
 74
0
 49
12.0
 74
0
 49
-2.9500000000000002
 74
0
 49
0.1
 74
0
 49
-2.9000000000000004
 74
0
 49
0.1
 74
0
 49
-2.9500000000000002
 74
0
  0
LTYPE
  5
47
100
AcDbSymbolTableRecord
100
AcDbLinetypeTableRecord
  2
HIDDEN
 70
0
  3
Hidden __ __ __ __ __ __ __ __ __ __ __ __ __ __
 72
65
 73
2
 40
9.5249999999999986
 49
6.3499999999999996
 74
0
 49
-3.1749999999999998
 74
0
  0
LTYPE
  5
48
100
AcDbSymbolTableRecord
100
AcDbLinetypeTableRecord
  2
HIDDEN2
 70
0
  3
Hidden (.5x) _ _ _ _ _ _ _ _ _ _ _ _ _ _ _ _ _ 
 72
65
 73
2
 40
4.7624999999999993
 49
3.1749999999999998
 74
0
 49
-1.5874999999999999
 74
0
  0
LTYPE
  5
49
100
AcDbSymbolTableRecord
100
AcDbLinetypeTableRecord
  2
BORDER
 70
0
  3
Border __ __ . __ __ . __ __ . __ __ . __ __ .
 72
65
 73
6
 40
44.4499999999999957
 49
12.6999999999999993
 74
0
 49
-6.3499999999999996
 74
0
 49
12.6999999999999993
 74
0
 49
-6.2999999999999998
 74
0
 49
0.1
 74
0
 49
-6.2999999999999998
 74
0
  0
LTYPE
  5
4A
100
AcDbSymbolTableRecord
100
AcDbLinetypeTableRecord
  2
ACAD_ISO09W100
 70
0
  3
ISO long-dash double-short-dash ____ __ __ ____
 72
65
 73
6
 40
45.0
 49
24.0
 74
0
 49
-3.0
 74
0
 49
6.0
 74
0
 49
-3.0
 74
0
 49
6.0
 74
0
 49
-3.0
 74
0
  0
LTYPE
  5
4B
100
AcDbSymbolTableRecord
100
AcDbLinetypeTableRecord
  2
PHANTOMX2
 70
0
  3
Phantom (2x) ____________    ____    ____   _
 72
65
 73
6
 40
127.0000000000000142
 49
63.5
 74
0
 49
-12.6999999999999993
 74
0
 49
12.6999999999999993
 74
0
 49
-12.6999999999999993
 74
0
 49
12.6999999999999993
 74
0
 49
-12.6999999999999993
 74
0
  0
LTYPE
  5
4C
100
AcDbSymbolTableRecord
100
AcDbLinetypeTableRecord
  2
ACAD_ISO07W100
 70
0
  3
ISO dot . . . . . . . . . . . . . . . . . . . . 
 72
65
 73
2
 40
3.0
 49
0.1
 74
0
 49
-2.8999999999999999
 74
0
  0
LTYPE
  5
4D
100
AcDbSymbolTableRecord
100
AcDbLinetypeTableRecord
  2
DOTX2
 70
0
  3
Dot (2x) .  .  .  .  .  .  .  .  .  .  .  .  .  .
 72
65
 73
2
 40
12.6999999999999993
 49
0.1
 74
0
 49
-12.5999999999999996
 74
0
  0
LTYPE
  5
15
100
AcDbSymbolTableRecord
100
AcDbLinetypeTableRecord
  2
BYLAYER
 70
0
  3

 72
65
 73
0
 40
0.0
  0
LTYPE
  5
4E
100
AcDbSymbolTableRecord
100
AcDbLinetypeTableRecord
  2
DASHDOTX2
 70
0
  3
Dash dot (2x) ____  .  ____  .  ____  .  ___
 72
65
 73
4
 40
50.7999999999999972
 49
25.3999999999999986
 74
0
 49
-12.6499999999999986
 74
0
 49
0.1
 74
0
 49
-12.6499999999999986
 74
0
  0
LTYPE
  5
4F
100
AcDbSymbolTableRecord
100
AcDbLinetypeTableRecord
  2
CENTER2
 70
0
  3
Center (.5x) ___ _ ___ _ ___ _ ___ _ ___ _ ___
 72
65
 73
4
 40
28.5750000000000028
 49
19.0500000000000007
 74
0
 49
-3.1749999999999998
 74
0
 49
3.1749999999999998
 74
0
 49
-3.1749999999999998
 74
0
  0
LTYPE
  5
50
100
AcDbSymbolTableRecord
100
AcDbLinetypeTableRecord
  2
DASHEDX2
 70
0
  3
Dashed (2x) ____  ____  ____  ____  ____  ___
 72
65
 73
2
 40
38.0999999999999943
 49
25.3999999999999986
 74
0
 49
-12.6999999999999993
 74
0
  0
LTYPE
  5
51
100
AcDbSymbolTableRecord
100
AcDbLinetypeTableRecord
  2
ACAD_ISO06W100
 70
0
  3
ISO long-dash triple-dot ____ ... ____ ... ____
 72
65
 73
8
 40
36.0000000000000071
 49
24.0
 74
0
 49
-2.9500000000000002
 74
0
 49
0.1
 74
0
 49
-2.9000000000000004
 74
0
 49
0.1
 74
0
 49
-2.9000000000000004
 74
0
 49
0.1
 74
0
 49
-2.9500000000000002
 74
0
  0
LTYPE
  5
52
100
AcDbSymbolTableRecord
100
AcDbLinetypeTableRecord
  2
DASHDOT2
 70
0
  3
Dash dot (.5x) _._._._._._._._._._._._._._._.
 72
65
 73
4
 40
12.6999999999999993
 49
6.3499999999999996
 74
0
 49
-3.125
 74
0
 49
0.1
 74
0
 49
-3.125
 74
0
  0
LTYPE
  5
53
100
AcDbSymbolTableRecord
100
AcDbLinetypeTableRecord
  2
DASHED2
 70
0
  3
Dashed (.5x) _ _ _ _ _ _ _ _ _ _ _ _ _ _ _ _ _ 
 72
65
 73
2
 40
9.5249999999999986
 49
6.3499999999999996
 74
0
 49
-3.1749999999999998
 74
0
  0
LTYPE
  5
54
100
AcDbSymbolTableRecord
100
AcDbLinetypeTableRecord
  2
DOT
 70
0
  3
Dot . . . . . . . . . . . . . . . . . . . . . . . .
 72
65
 73
2
 40
6.3499999999999996
 49
0.1
 74
0
 49
-6.25
 74
0
  0
LTYPE
  5
55
100
AcDbSymbolTableRecord
100
AcDbLinetypeTableRecord
  2
DIVIDE
 70
0
  3
Divide ____ . . ____ . . ____ . . ____ . . ____
 72
65
 73
6
 40
31.7500000000000036
 49
12.6999999999999993
 74
0
 49
-6.2999999999999998
 74
0
 49
0.1
 74
0
 49
-6.25
 74
0
 49
0.1
 74
0
 49
-6.2999999999999998
 74
0
  0
LTYPE
  5
56
100
AcDbSymbolTableRecord
100
AcDbLinetypeTableRecord
  2
ACAD_ISO10W100
 70
0
  3
ISO dash dot __ . __ . __ . __ . __ . __ . __ . 
 72
65
 73
4
 40
18.0
 49
12.0
 74
0
 49
-2.9500000000000002
 74
0
 49
0.1
 74
0
 49
-2.9500000000000002
 74
0
  0
ENDTAB
  0
TABLE
  2
LAYER
  5
2
100
AcDbSymbolTable
 70
5
  0
LAYER
  5
57
100
AcDbSymbolTableRecord
100
AcDbLayerTableRecord
  2
Components
 70
1
 62
3
420
65280
  6
ACAD_ISO02W100
370
25
390
F
  0
LAYER
  5
58
100
AcDbSymbolTableRecord
100
AcDbLayerTableRecord
  2
Label
 70
1
 62
30
420
16744192
  6
Continuous
370
35
390
F
  0
LAYER
  5
10
100
AcDbSymbolTableRecord
100
AcDbLayerTableRecord
  2
0
 70
0
 62
7
420
16777215
  6
Continuous
370
25
390
F
  0
LAYER
  5
59
100
AcDbSymbolTableRecord
100
AcDbLayerTableRecord
  2
Bends
 70
0
 62
1
420
16711680
  6
ACAD_ISO02W100
370
18
390
F
  0
LAYER
  5
5A
100
AcDbSymbolTableRecord
100
AcDbLayerTableRecord
  2
Measure
 70
1
 62
5
420
255
  6
Continuous
370
18
390
F
  0
ENDTAB
  0
TABLE
  2
STYLE
  5
3
100
AcDbSymbolTable
 70
7
  0
STYLE
  5
5B
100
AcDbSymbolTableRecord
100
AcDbTextStyleTableRecord
  2
Standard
 70
0
 40
0.0
 41
1.0
 50
0.0
 71
0
 42
2.5
  3

  4

1001
ACAD
1000
txt
1071
0
  0
STYLE
  5
5C
100
AcDbSymbolTableRecord
100
AcDbTextStyleTableRecord
  2
textstyle0
 70
0
 40
0.0
 41
1.0
 50
0.0
 71
0
 42
5.0
  3

  4

1001
ACAD
1000
Arial
1071
0
  0
STYLE
  5
5D
100
AcDbSymbolTableRecord
100
AcDbTextStyleTableRecord
  2
textstyle1
 70
0
 40
0.0
 41
1.0
 50
0.0
 71
0
 42
3.0
  3

  4

1001
ACAD
1000
Arial
1071
0
  0
STYLE
  5
5E
100
AcDbSymbolTableRecord
100
AcDbTextStyleTableRecord
  2
textstyle2
 70
0
 40
0.0
 41
1.0
 50
0.0
 71
0
 42
4.0
  3

  4

1001
ACAD
1000
Arial
1071
0
  0
STYLE
  5
5F
100
AcDbSymbolTableRecord
100
AcDbTextStyleTableRecord
  2
textstyle3
 70
0
 40
0.0
 41
1.0
 50
0.0
 71
0
 42
2.0
  3

  4

1001
ACAD
1000
Arial
1071
0
  0
STYLE
  5
60
100
AcDbSymbolTableRecord
100
AcDbTextStyleTableRecord
  2
textstyle4
 70
0
 40
0.0
 41
1.0
 50
0.0
 71
0
 42
3.0
  3

  4

1001
ACAD
1000
Arial
1071
0
  0
STYLE
  5
61
100
AcDbSymbolTableRecord
100
AcDbTextStyleTableRecord
  2
textstyle5
 70
0
 40
0.0
 41
1.0
 50
0.0
 71
0
 42
2.0
  3

  4

1001
ACAD
1000
Arial
1071
0
  0
ENDTAB
  0
TABLE
  2
VIEW
  5
6
100
AcDbSymbolTable
 70
0
  0
ENDTAB
  0
TABLE
  2
UCS
  5
7
100
AcDbSymbolTable
 70
0
  0
ENDTAB
  0
TABLE
  2
APPID
  5
9
100
AcDbSymbolTable
 70
1
  0
APPID
  5
12
100
AcDbSymbolTableRecord
100
AcDbRegAppTableRecord
  2
ACAD
 70
0
  0
APPID
  5
62
100
AcDbSymbolTableRecord
100
AcDbRegAppTableRecord
  2
QCAD
 70
0
  0
ENDTAB
  0
TABLE
  2
DIMSTYLE
  5
A
100
AcDbSymbolTable
 70
1
100
AcDbDimStyleTable
 71
0
  0
DIMSTYLE
105
27
100
AcDbSymbolTableRecord
100
AcDbDimStyleTableRecord
  2
Standard
 41
0.125
 42
0.03125
 43
3.75
 44
0.0625
 70
0
 73
0
 74
0
 77
1
 78
8
140
0.125
141
2.5
143
0.03937007874016
147
0.03125
171
3
172
1
271
2
272
2
274
3
278
44
283
0
284
8
340
5B
  0
ENDTAB
  0
TABLE
  2
BLOCK_RECORD
  5
1
100
AcDbSymbolTable
 70
1
  0
BLOCK_RECORD
  5
1F
100
AcDbSymbolTableRecord
100
AcDbBlockTableRecord
  2
*Model_Space
340
22
  0
BLOCK_RECORD
  5
1B
100
AcDbSymbolTableRecord
100
AcDbBlockTableRecord
  2
*Paper_Space
340
1E
  0
BLOCK_RECORD
  5
23
100
AcDbSymbolTableRecord
100
AcDbBlockTableRecord
  2
*Paper_Space0
340
26
  0
ENDTAB
  0
ENDSEC
  0
SECTION
  2
BLOCKS
  0
BLOCK
  5
20
100
AcDbEntity
  8
0
100
AcDbBlockBegin
  2
*Model_Space
 70
0
 10
0.0
 20
0.0
 30
0.0
  3
*Model_Space
  1

  0
ENDBLK
  5
21
100
AcDbEntity
  8
0
100
AcDbBlockEnd
  0
BLOCK
  5
1C
100
AcDbEntity
 67
1
  8
0
100
AcDbBlockBegin
  2
*Paper_Space
 70
0
 10
0.0
 20
0.0
 30
0.0
  3
*Paper_Space
  1

  0
ENDBLK
  5
1D
100
AcDbEntity
 67
1
  8
0
100
AcDbBlockEnd
  0
BLOCK
  5
24
100
AcDbEntity
  8
0
100
AcDbBlockBegin
  2
*Paper_Space0
 70
0
 10
0.0
 20
0.0
 30
0.0
  3
*Paper_Space0
  1

  0
ENDBLK
  5
25
100
AcDbEntity
  8
0
100
AcDbBlockEnd
  0
ENDSEC
  0
SECTION
  2
ENTITIES
  0
LINE
  5
63
100
AcDbEntity
  8
0
 62
256
370
-1
 48
1.0
  6
BYLAYER
100
AcDbLine
 10
222.0
 20
0.0
 30
0.0
 11
222.0
 21
41.0
 31
0.0
  0
LINE
  5
64
100
AcDbEntity
  8
0
 62
256
370
-1
 48
1.0
  6
BYLAYER
100
AcDbLine
 10
180.0
 20
41.0
 30
0.0
 11
40.0
 21
41.0
 31
0.0
  0
LINE
  5
65
100
AcDbEntity
  8
0
 62
256
370
-1
 48
1.0
  6
BYLAYER
100
AcDbLine
 10
-2.0
 20
41.0
 30
0.0
 11
-2.0
 21
0.0
 31
0.0
  0
LINE
  5
66
100
AcDbEntity
  8
Bends
 62
256
370
-1
 48
1.0
  6
ACAD_ISO02W100
100
AcDbLine
 10
-2.0
 20
0.0
 30
0.0
 11
222.0
 21
0.0
 31
0.0
  0
LINE
  5
67
100
AcDbEntity
  8
0
 62
256
370
-1
 48
1.0
  6
BYLAYER
100
AcDbLine
 10
222.0
 20
0.0
 30
0.0
 11
222.0
 21
-121.0
 31
0.0
  0
LINE
  5
68
100
AcDbEntity
  8
0
 62
256
370
-1
 48
1.0
  6
BYLAYER
100
AcDbLine
 10
164.0
 20
-121.0
 30
0.0
 11
86.0
 21
-121.0
 31
0.0
  0
LINE
  5
69
100
AcDbEntity
  8
0
 62
256
370
-1
 48
1.0
  6
BYLAYER
100
AcDbLine
 10
-2.0
 20
-121.0
 30
0.0
 11
-2.0
 21
0.0
 31
0.0
  0
CIRCLE
  5
6A
100
AcDbEntity
  8
0
 62
256
370
-1
 48
1.0
  6
BYLAYER
100
AcDbCircle
 10
190.0
 20
20.0
 30
0.0
 40
6.0
  0
CIRCLE
  5
6B
100
AcDbEntity
  8
0
 62
256
370
-1
 48
1.0
  6
BYLAYER
100
AcDbCircle
 10
160.0
 20
20.0
 30
0.0
 40
1.5200000000000102
  0
CIRCLE
  5
6C
100
AcDbEntity
  8
0
 62
256
370
-1
 48
1.0
  6
BYLAYER
100
AcDbCircle
 10
30.0
 20
20.0
 30
0.0
 40
3.5
  0
LINE
  5
6D
100
AcDbEntity
  8
0
 62
256
370
-1
 48
1.0
  6
BYLAYER
100
AcDbLine
 10
73.0
 20
27.0
 30
0.0
 11
97.0
 21
27.0
 31
0.0
  0
LINE
  5
6E
100
AcDbEntity
  8
0
 62
256
370
-1
 48
1.0
  6
BYLAYER
100
AcDbLine
 10
97.0
 20
27.0
 30
0.0
 11
97.0
 21
13.0
 31
0.0
  0
LINE
  5
6F
100
AcDbEntity
  8
0
 62
256
370
-1
 48
1.0
  6
BYLAYER
100
AcDbLine
 10
97.0
 20
13.0
 30
0.0
 11
73.0
 21
13.0
 31
0.0
  0
LINE
  5
70
100
AcDbEntity
  8
0
 62
256
370
-1
 48
1.0
  6
BYLAYER
100
AcDbLine
 10
73.0
 20
13.0
 30
0.0
 11
73.0
 21
27.0
 31
0.0
  0
MTEXT
  5
71
100
AcDbEntity
  8
Label
 62
256
370
-1
 48
1.0
  6
BYLAYER
100
AcDbMText
 10
85.0
 20
20.0
 30
0.0
 40
4.0
 41
0.0
 71
5
 72
1
  1
OLED
  7
textstyle2
 50
0.0
 73
2
 44
1.0
  0
MTEXT
  5
72
100
AcDbEntity
  8
Label
 62
256
370
-1
 48
1.0
  6
BYLAYER
100
AcDbMText
 10
190.0
 20
20.0
 30
0.0
 40
3.0
 41
0.0
 71
5
 72
1
  1
PWR
  7
textstyle4
 50
0.0
 73
2
 44
1.0
  0
MTEXT
  5
73
100
AcDbEntity
  8
Label
 62
256
370
-1
 48
1.0
  6
BYLAYER
100
AcDbMText
 10
160.0
 20
27.0
 30
0.0
 40
2.0
 41
0.0
 71
5
 72
1
  1
Input\PLED
  7
textstyle5
 50
0.0
 73
2
 44
1.0
  0
MTEXT
  5
74
100
AcDbEntity
  8
Label
 62
256
370
-1
 48
1.0
  6
BYLAYER
100
AcDbMText
 10
30.0
 20
30.0
 30
0.0
 40
2.0
 41
0.0
 71
5
 72
1
  1
Rotary\PEncoder
  7
textstyle3
 50
0.0
 73
2
 44
1.0
  0
LINE
  5
75
100
AcDbEntity
  8
0
 62
256
370
-1
 48
1.0
  6
BYLAYER
100
AcDbLine
 10
75.0
 20
-121.0
 30
0.0
 11
74.9999999999999858
 21
-132.7937499999999886
 31
0.0
  0
LINE
  5
76
100
AcDbEntity
  8
0
 62
256
370
-1
 48
1.0
  6
BYLAYER
100
AcDbLine
 10
75.0
 20
-132.7937499999999886
 30
0.0
 11
85.0
 21
-132.7937499999999886
 31
0.0
  0
LINE
  5
77
100
AcDbEntity
  8
0
 62
256
370
-1
 48
1.0
  6
BYLAYER
100
AcDbLine
 10
85.0
 20
-132.7937499999999886
 30
0.0
 11
85.0
 21
-121.0
 31
0.0
  0
LINE
  5
78
100
AcDbEntity
  8
0
 62
256
370
-1
 48
1.0
  6
BYLAYER
100
AcDbLine
 10
165.0
 20
-121.0
 30
0.0
 11
165.0
 21
-133.0
 31
0.0
  0
LINE
  5
79
100
AcDbEntity
  8
0
 62
256
370
-1
 48
1.0
  6
BYLAYER
100
AcDbLine
 10
165.0
 20
-133.0
 30
0.0
 11
175.0
 21
-133.0
 31
0.0
  0
LINE
  5
7A
100
AcDbEntity
  8
0
 62
256
370
-1
 48
1.0
  6
BYLAYER
100
AcDbLine
 10
175.0
 20
-133.0
 30
0.0
 11
175.0
 21
-121.0
 31
0.0
  0
LINE
  5
7B
100
AcDbEntity
  8
0
 62
256
370
-1
 48
1.0
  6
BYLAYER
100
AcDbLine
 10
176.0
 20
-121.0
 30
0.0
 11
222.0
 21
-121.0
 31
0.0
  0
LINE
  5
7C
100
AcDbEntity
  8
0
 62
256
370
-1
 48
1.0
  6
BYLAYER
100
AcDbLine
 10
74.0
 20
-121.0
 30
0.0
 11
-2.0
 21
-121.0
 31
0.0
  0
CIRCLE
  5
7D
100
AcDbEntity
  8
0
 62
256
370
-1
 48
1.0
  6
BYLAYER
100
AcDbCircle
 10
80.0
 20
-129.0
 30
0.0
 40
1.7000000000000028
  0
CIRCLE
  5
7E
100
AcDbEntity
  8
0
 62
256
370
-1
 48
1.0
  6
BYLAYER
100
AcDbCircle
 10
170.0
 20
-129.0
 30
0.0
 40
1.6999999999999886
  0
LINE
  5
7F
100
AcDbEntity
  8
Bends
 62
256
370
-1
 48
1.0
  6
BYLAYER
100
AcDbLine
 10
75.0
 20
-121.0
 30
0.0
 11
85.0
 21
-121.0
 31
0.0
  0
LINE
  5
80
100
AcDbEntity
  8
Bends
 62
256
370
-1
 48
1.0
  6
BYLAYER
100
AcDbLine
 10
165.0
 20
-121.0
 30
0.0
 11
175.0
 21
-121.0
 31
0.0
  0
LINE
  5
81
100
AcDbEntity
  8
0
 62
256
370
-1
 48
1.0
  6
BYLAYER
100
AcDbLine
 10
32.0
 20
41.0
 30
0.0
 11
32.0
 21
46.0
 31
0.0
  0
LINE
  5
82
100
AcDbEntity
  8
0
 62
256
370
-1
 48
1.0
  6
BYLAYER
100
AcDbLine
 10
32.0
 20
46.0
 30
0.0
 11
38.0
 21
46.0
 31
0.0
  0
LINE
  5
83
100
AcDbEntity
  8
0
 62
256
370
-1
 48
1.0
  6
BYLAYER
100
AcDbLine
 10
38.0
 20
46.0
 30
0.0
 11
38.0
 21
40.0
 31
0.0
  0
LINE
  5
84
100
AcDbEntity
  8
0
 62
256
370
-1
 48
1.0
  6
BYLAYER
100
AcDbLine
 10
30.0
 20
41.0
 30
0.0
 11
-2.0
 21
41.0
 31
0.0
  0
LINE
  5
85
100
AcDbEntity
  8
Bends
 62
256
370
-1
 48
1.0
  6
BYLAYER
100
AcDbLine
 10
32.0
 20
38.0
 30
0.0
 11
38.0
 21
38.0
 31
0.0
  0
LINE
  5
86
100
AcDbEntity
  8
0
 62
256
370
-1
 48
1.0
  6
BYLAYER
100
AcDbLine
 10
188.0
 20
40.0
 30
0.0
 11
188.0
 21
46.0
 31
0.0
  0
LINE
  5
87
100
AcDbEntity
  8
0
 62
256
370
-1
 48
1.0
  6
BYLAYER
100
AcDbLine
 10
188.0
 20
46.0
 30
0.0
 11
182.0
 21
46.0
 31
0.0
  0
LINE
  5
88
100
AcDbEntity
  8
0
 62
256
370
-1
 48
1.0
  6
BYLAYER
100
AcDbLine
 10
182.0
 20
46.0
 30
0.0
 11
182.0
 21
40.0
 31
0.0
  0
LINE
  5
89
100
AcDbEntity
  8
0
 62
256
370
-1
 48
1.0
  6
BYLAYER
100
AcDbLine
 10
190.0
 20
41.0
 30
0.0
 11
222.0
 21
41.0
 31
0.0
  0
LINE
  5
8A
100
AcDbEntity
  8
Bends
 62
256
370
-1
 48
1.0
  6
BYLAYER
100
AcDbLine
 10
182.0
 20
38.0
 30
0.0
 11
188.0
 21
38.0
 31
0.0
  0
DIMENSION
  5
8B
100
AcDbEntity
  8
Measure
 62
256
370
-1
 48
1.0
  6
BYLAYER
100
AcDbDimension
 10
32.0
 20
49.0
 30
0.0
 11
16.0
 21
51.3812500000000014
 31
0.0
 70
1
 71
8
 72
2
 74
0
 75
0
 41
1.0
 42
0.0
  1

  3
Standard
100
AcDbAlignedDimension
 13
32.0
 23
46.0
 33
0.0
 14
0.0
 24
46.0
 34
0.0
1001
ACAD
1000
DSTYLE
1002
{
1070
144
1040
1.0
1070
40
1040
25.3999999999999986
1002
}
  0
DIMENSION
  5
8C
100
AcDbEntity
  8
Measure
 62
256
370
-1
 48
1.0
  6
BYLAYER
100
AcDbDimension
 10
220.0
 20
49.1906249999999972
 30
0.0
 11
204.0
 21
51.5718749999999986
 31
0.0
 70
1
 71
8
 72
2
 74
0
 75
0
 41
1.0
 42
0.0
  1

  3
Standard
100
AcDbAlignedDimension
 13
188.0
 23
46.0
 33
0.0
 14
220.0
 24
46.0
 34
0.0
1001
ACAD
1000
DSTYLE
1002
{
1070
144
1040
1.0
1070
40
1040
25.3999999999999986
1002
}
  0
LINE
  5
8D
100
AcDbEntity
  8
Components
 62
256
370
-1
 48
1.0
  6
BYLAYER
100
AcDbLine
 10
23.0
 20
-119.0
 30
0.0
 11
140.0
 21
-119.0
 31
0.0
  0
DIMENSION
  5
8E
100
AcDbEntity
  8
Measure
 62
256
370
-1
 48
1.0
  6
BYLAYER
100
AcDbDimension
 10
-1.9999999999999982
 20
70.0
 30
0.0
 11
109.0
 21
72.3812499999999943
 31
0.0
 70
1
 71
8
 72
2
 74
0
 75
0
 41
1.0
 42
0.0
  1

  3
Standard
100
AcDbAlignedDimension
 13
-2.0
 23
40.0
 33
0.0
 14
220.0
 24
40.0
 34
0.0
1001
ACAD
1000
DSTYLE
1002
{
1070
144
1040
1.0
1070
40
1040
25.3999999999999986
1002
}
  0
LINE
  5
8F
100
AcDbEntity
  8
Components
 62
256
370
-1
 48
1.0
  6
BYLAYER
100
AcDbLine
 10
140.0
 20
-119.0
 30
0.0
 11
140.0
 21
-19.0
 31
0.0
  0
DIMENSION
  5
90
100
AcDbEntity
  8
Measure
 62
256
370
-1
 48
1.0
  6
BYLAYER
100
AcDbDimension
 10
-22.0
 20
-121.0
 30
0.0
 11
-24.3812500000000014
 21
-40.5
 31
0.0
 70
1
 71
8
 72
2
 74
0
 75
0
 41
1.0
 42
0.0
  1

  3
Standard
100
AcDbAlignedDimension
 13
-2.0
 23
-121.0
 33
0.0
 14
-2.0
 24
40.0
 34
0.0
1001
ACAD
1000
DSTYLE
1002
{
1070
144
1040
1.0
1070
40
1040
25.3999999999999986
1002
}
  0
LINE
  5
91
100
AcDbEntity
  8
Components
 62
256
370
-1
 48
1.0
  6
BYLAYER
100
AcDbLine
 10
140.0
 20
-19.0
 30
0.0
 11
23.0
 21
-19.0
 31
0.0
  0
DIMENSION
  5
92
100
AcDbEntity
  8
Measure
 62
256
370
-1
 48
1.0
  6
BYLAYER
100
AcDbDimension
 10
75.0
 20
-136.0
 30
0.0
 11
37.5
 21
-133.6187500000000057
 31
0.0
 70
1
 71
8
 72
2
 74
0
 75
0
 41
1.0
 42
0.0
  1

  3
Standard
100
AcDbAlignedDimension
 13
75.0
 23
-132.0
 33
0.0
 14
0.0
 24
-132.0
 34
0.0
1001
ACAD
1000
DSTYLE
1002
{
1070
144
1040
1.0
1070
40
1040
25.3999999999999986
1002
}
  0
LINE
  5
93
100
AcDbEntity
  8
Components
 62
256
370
-1
 48
1.0
  6
BYLAYER
100
AcDbLine
 10
23.0
 20
-19.0
 30
0.0
 11
23.0
 21
-119.0
 31
0.0
  0
DIMENSION
  5
94
100
AcDbEntity
  8
Measure
 62
256
370
-1
 48
1.0
  6
BYLAYER
100
AcDbDimension
 10
175.0
 20
-136.0
 30
0.0
 11
197.5
 21
-133.6187500000000057
 31
0.0
 70
1
 71
8
 72
2
 74
0
 75
0
 41
1.0
 42
0.0
  1

  3
Standard
100
AcDbAlignedDimension
 13
175.0
 23
-132.0
 33
0.0
 14
220.0
 24
-132.0
 34
0.0
1001
ACAD
1000
DSTYLE
1002
{
1070
144
1040
1.0
1070
40
1040
25.3999999999999986
1002
}
  0
DIMENSION
  5
95
100
AcDbEntity
  8
Measure
 62
256
370
-1
 48
1.0
  6
BYLAYER
100
AcDbDimension
 10
85.0
 20
-136.0355286540828104
 30
0.0
 11
125.0
 21
-133.654278654082816
 31
0.0
 70
1
 71
8
 72
2
 74
0
 75
0
 41
1.0
 42
0.0
  1

  3
Standard
100
AcDbAlignedDimension
 13
85.0
 23
-132.0
 33
0.0
 14
165.0
 24
-132.0
 34
0.0
1001
ACAD
1000
DSTYLE
1002
{
1070
144
1040
1.0
1070
40
1040
25.3999999999999986
1002
}
  0
DIMENSION
  5
96
100
AcDbEntity
  8
Measure
 62
256
370
-1
 48
1.0
  6
BYLAYER
100
AcDbDimension
 10
75.0
 20
-139.4298658599533383
 30
0.0
 11
80.0
 21
-137.0486158599533439
 31
0.0
 70
1
 71
8
 72
2
 74
0
 75
0
 41
1.0
 42
0.0
  1

  3
Standard
100
AcDbAlignedDimension
 13
75.0
 23
-132.0
 33
0.0
 14
85.0
 24
-132.0
 34
0.0
1001
ACAD
1000
DSTYLE
1002
{
1070
144
1040
1.0
1070
40
1040
25.3999999999999986
1002
}
  0
DIMENSION
  5
97
100
AcDbEntity
  8
Measure
 62
256
370
-1
 48
1.0
  6
BYLAYER
100
AcDbDimension
 10
38.0
 20
49.0294522897354454
 30
0.0
 11
110.0
 21
51.4107022897354469
 31
0.0
 70
1
 71
8
 72
2
 74
0
 75
0
 41
1.0
 42
0.0
  1

  3
Standard
100
AcDbAlignedDimension
 13
38.0
 23
46.0
 33
0.0
 14
182.0
 24
46.0
 34
0.0
1001
ACAD
1000
DSTYLE
1002
{
1070
144
1040
1.0
1070
40
1040
25.3999999999999986
1002
}
  0
DIMENSION
  5
98
100
AcDbEntity
  8
Measure
 62
256
370
-1
 48
1.0
  6
BYLAYER
100
AcDbDimension
 10
32.0
 20
52.0
 30
0.0
 11
35.0
 21
54.3812500000000014
 31
0.0
 70
1
 71
8
 72
2
 74
0
 75
0
 41
1.0
 42
0.0
  1

  3
Standard
100
AcDbAlignedDimension
 13
32.0
 23
46.0
 33
0.0
 14
38.0
 24
46.0
 34
0.0
1001
ACAD
1000
DSTYLE
1002
{
1070
144
1040
1.0
1070
40
1040
25.3999999999999986
1002
}
  0
DIMENSION
  5
99
100
AcDbEntity
  8
Measure
 62
256
370
-1
 48
1.0
  6
BYLAYER
100
AcDbDimension
 10
21.0
 20
23.5
 30
0.0
 11
18.6187499999999986
 21
20.0
 31
0.0
 70
1
 71
8
 72
2
 74
0
 75
0
 41
1.0
 42
0.0
  1

  3
Standard
100
AcDbAlignedDimension
 13
30.0
 23
23.5
 33
0.0
 14
30.0
 24
16.5
 34
0.0
1001
ACAD
1000
DSTYLE
1002
{
1070
144
1040
1.0
1070
40
1040
25.3999999999999986
1002
}
  0
DIMENSION
  5
9A
100
AcDbEntity
  8
Measure
 62
256
370
-1
 48
1.0
  6
BYLAYER
100
AcDbDimension
 10
63.0
 20
27.0
 30
0.0
 11
60.6187499999999986
 21
20.0
 31
0.0
 70
1
 71
8
 72
2
 74
0
 75
0
 41
1.0
 42
0.0
  1

  3
Standard
100
AcDbAlignedDimension
 13
73.0
 23
27.0
 33
0.0
 14
73.0
 24
13.0
 34
0.0
1001
ACAD
1000
DSTYLE
1002
{
1070
144
1040
1.0
1070
40
1040
25.3999999999999986
1002
}
  0
DIMENSION
  5
9B
100
AcDbEntity
  8
Measure
 62
256
370
-1
 48
1.0
  6
BYLAYER
100
AcDbDimension
 10
73.0
 20
33.0
 30
0.0
 11
85.0
 21
35.3812500000000014
 31
0.0
 70
1
 71
8
 72
2
 74
0
 75
0
 41
1.0
 42
0.0
  1

  3
Standard
100
AcDbAlignedDimension
 13
73.0
 23
27.0
 33
0.0
 14
97.0
 24
27.0
 34
0.0
1001
ACAD
1000
DSTYLE
1002
{
1070
144
1040
1.0
1070
40
1040
25.3999999999999986
1002
}
  0
DIMENSION
  5
9C
100
AcDbEntity
  8
Measure
 62
256
370
-1
 48
1.0
  6
BYLAYER
100
AcDbDimension
 10
153.4071712142041406
 20
21.5200000000000102
 30
0.0
 11
151.0259212142041463
 21
13.8057197859294689
 31
0.0
 70
1
 71
8
 72
2
 74
0
 75
0
 41
1.0
 42
0.0
  1

  3
Standard
100
AcDbAlignedDimension
 13
160.0
 23
21.5200000000000102
 33
0.0
 14
160.0
 24
18.4799999999999898
 34
0.0
1001
ACAD
1000
DSTYLE
1002
{
1070
144
1040
1.0
1070
40
1040
25.3999999999999986
1002
}
  0
DIMENSION
  5
9D
100
AcDbEntity
  8
Measure
 62
256
370
-1
 48
1.0
  6
BYLAYER
100
AcDbDimension
 10
203.0
 20
25.9999999999999964
 30
0.0
 11
200.6187500000000057
 21
19.9999999999999964
 31
0.0
 70
1
 71
8
 72
2
 74
0
 75
0
 41
1.0
 42
0.0
  1

  3
Standard
100
AcDbAlignedDimension
 13
190.0
 23
26.0
 33
0.0
 14
190.0
 24
14.0
 34
0.0
1001
ACAD
1000
DSTYLE
1002
{
1070
144
1040
1.0
1070
40
1040
25.3999999999999986
1002
}
  0
DIMENSION
  5
9E
100
AcDbEntity
  8
Measure
 62
256
370
-1
 48
1.0
  6
BYLAYER
100
AcDbDimension
 10
190.0
 20
-129.0
 30
0.0
 11
187.6187500000000057
 21
-125.0
 31
0.0
 70
1
 71
8
 72
2
 74
0
 75
0
 41
1.0
 42
0.0
  1

  3
Standard
100
AcDbAlignedDimension
 13
175.0
 23
-129.0
 33
0.0
 14
175.0
 24
-121.0
 34
0.0
1001
ACAD
1000
DSTYLE
1002
{
1070
144
1040
1.0
1070
40
1040
25.3999999999999986
1002
}
  0
DIMENSION
  5
9F
100
AcDbEntity
  8
Measure
 62
256
370
-1
 48
1.0
  6
BYLAYER
100
AcDbDimension
 10
0.0000000000000002
 20
-106.0
 30
0.0
 11
11.5
 21
-103.6187500000000057
 31
0.0
 70
1
 71
8
 72
2
 74
0
 75
0
 41
1.0
 42
0.0
  1

  3
Standard
100
AcDbAlignedDimension
 13
0.0
 23
-110.0
 33
0.0
 14
23.0
 24
-110.0
 34
0.0
1001
ACAD
1000
DSTYLE
1002
{
1070
144
1040
1.0
1070
40
1040
25.3999999999999986
1002
}
  0
LINE
  5
A0
100
AcDbEntity
  8
Components
 62
2
420
16776960
370
-1
 48
1.0
  6
BYLAYER
100
AcDbLine
 10
35.0
 20
-44.0
 30
0.0
 11
75.0
 21
-44.0
 31
0.0
  0
LINE
  5
A1
100
AcDbEntity
  8
Components
 62
2
420
16776960
370
-1
 48
1.0
  6
BYLAYER
100
AcDbLine
 10
75.0
 20
-44.0
 30
0.0
 11
75.0
 21
-84.0
 31
0.0
  0
LINE
  5
A2
100
AcDbEntity
  8
Components
 62
2
420
16776960
370
-1
 48
1.0
  6
BYLAYER
100
AcDbLine
 10
75.0
 20
-84.0
 30
0.0
 11
35.0
 21
-84.0
 31
0.0
  0
LINE
  5
A3
100
AcDbEntity
  8
Components
 62
2
420
16776960
370
-1
 48
1.0
  6
BYLAYER
100
AcDbLine
 10
35.0
 20
-84.0
 30
0.0
 11
35.0
 21
-44.0
 31
0.0
  0
CIRCLE
  5
A4
100
AcDbEntity
  8
0
 62
256
370
-1
 48
1.0
  6
BYLAYER
100
AcDbCircle
 10
39.0
 20
-48.0
 30
0.0
 40
2.5
  0
CIRCLE
  5
A5
100
AcDbEntity
  8
0
 62
256
370
-1
 48
1.0
  6
BYLAYER
100
AcDbCircle
 10
71.0
 20
-48.0
 30
0.0
 40
2.5
  0
CIRCLE
  5
A6
100
AcDbEntity
  8
0
 62
256
370
-1
 48
1.0
  6
BYLAYER
100
AcDbCircle
 10
39.0
 20
-80.0
 30
0.0
 40
2.5
  0
CIRCLE
  5
A7
100
AcDbEntity
  8
0
 62
256
370
-1
 48
1.0
  6
BYLAYER
100
AcDbCircle
 10
71.0
 20
-80.0
 30
0.0
 40
2.5
  0
DIMENSION
  5
A8
100
AcDbEntity
  8
Measure
 62
256
370
-1
 48
1.0
  6
BYLAYER
100
AcDbDimension
 10
39.0
 20
-40.0
 30
0.0
 11
55.0
 21
-37.6187499999999986
 31
0.0
 70
1
 71
8
 72
2
 74
0
 75
0
 41
1.0
 42
0.0
  1

  3
Standard
100
AcDbAlignedDimension
 13
39.0
 23
-48.0
 33
0.0
 14
71.0
 24
-48.0
 34
0.0
1001
ACAD
1000
DSTYLE
1002
{
1070
144
1040
1.0
1070
40
1040
25.3999999999999986
1002
}
  0
DIMENSION
  5
A9
100
AcDbEntity
  8
Measure
 62
256
370
-1
 48
1.0
  6
BYLAYER
100
AcDbDimension
 10
81.0
 20
-48.0
 30
0.0
 11
78.6187500000000057
 21
-64.0
 31
0.0
 70
1
 71
8
 72
2
 74
0
 75
0
 41
1.0
 42
0.0
  1

  3
Standard
100
AcDbAlignedDimension
 13
71.0
 23
-48.0
 33
0.0
 14
71.0
 24
-80.0
 34
0.0
1001
ACAD
1000
DSTYLE
1002
{
1070
144
1040
1.0
1070
40
1040
25.3999999999999986
1002
}
  0
DIMENSION
  5
AA
100
AcDbEntity
  8
Measure
 62
256
370
-1
 48
1.0
  6
BYLAYER
100
AcDbDimension
 10
35.0
 20
-34.0
 30
0.0
 11
55.0
 21
-31.6187499999999986
 31
0.0
 70
1
 71
8
 72
2
 74
0
 75
0
 41
1.0
 42
0.0
  1

  3
Standard
100
AcDbAlignedDimension
 13
35.0
 23
-44.0
 33
0.0
 14
75.0
 24
-44.0
 34
0.0
1001
ACAD
1000
DSTYLE
1002
{
1070
144
1040
1.0
1070
40
1040
25.3999999999999986
1002
}
  0
DIMENSION
  5
AB
100
AcDbEntity
  8
Measure
 62
256
370
-1
 48
1.0
  6
BYLAYER
100
AcDbDimension
 10
86.98029684233083
 20
-44.0
 30
0.0
 11
84.5990468423308357
 21
-64.0
 31
0.0
 70
1
 71
8
 72
2
 74
0
 75
0
 41
1.0
 42
0.0
  1

  3
Standard
100
AcDbAlignedDimension
 13
75.0
 23
-44.0
 33
0.0
 14
75.0
 24
-84.0
 34
0.0
1001
ACAD
1000
DSTYLE
1002
{
1070
144
1040
1.0
1070
40
1040
25.3999999999999986
1002
}
  0
CIRCLE
  5
AC
100
AcDbEntity
  8
0
 62
256
370
-1
 48
1.0
  6
BYLAYER
100
AcDbCircle
 10
55.0
 20
-64.0
 30
0.0
 40
18.6010752377382751
  0
DIMENSION
  5
AD
100
AcDbEntity
  8
Measure
 62
256
370
-1
 48
1.0
  6
BYLAYER
100
AcDbDimension
 10
31.0
 20
-77.5
 30
0.0
 11
28.6187499999999986
 21
-80.0
 31
0.0
 70
1
 71
8
 72
2
 74
0
 75
0
 41
1.0
 42
0.0
  1

  3
Standard
100
AcDbAlignedDimension
 13
39.0
 23
-77.5
 33
0.0
 14
39.0
 24
-82.5
 34
0.0
1001
ACAD
1000
DSTYLE
1002
{
1070
144
1040
1.0
1070
40
1040
25.3999999999999986
1002
}
  0
DIMENSION
  5
AE
100
AcDbEntity
  8
Measure
 62
256
370
-1
 48
1.0
  6
BYLAYER
100
AcDbDimension
 10
-1.9999999999999998
 20
-94.0
 30
0.0
 11
10.5
 21
-91.6187500000000057
 31
0.0
 70
1
 71
8
 72
2
 74
0
 75
0
 41
1.0
 42
0.0
  1

  3
Standard
100
AcDbAlignedDimension
 13
-2.0
 23
-97.0
 33
0.0
 14
23.0
 24
-97.0
 34
0.0
1001
ACAD
1000
DSTYLE
1002
{
1070
144
1040
1.0
1070
40
1040
25.3999999999999986
1002
}
  0
LINE
  5
AF
100
AcDbEntity
  8
0
 62
256
370
-1
 48
1.0
  6
BYLAYER
100
AcDbLine
 10
180.0
 20
41.0
 30
0.0
 11
180.0
 21
37.0
 31
0.0
  0
LINE
  5
B0
100
AcDbEntity
  8
0
 62
256
370
-1
 48
1.0
  6
BYLAYER
100
AcDbLine
 10
180.0
 20
37.0
 30
0.0
 11
182.0
 21
37.0
 31
0.0
  0
LINE
  5
B1
100
AcDbEntity
  8
0
 62
256
370
-1
 48
1.0
  6
BYLAYER
100
AcDbLine
 10
182.0
 20
37.0
 30
0.0
 11
182.0
 21
40.0
 31
0.0
  0
LINE
  5
B2
100
AcDbEntity
  8
0
 62
256
370
-1
 48
1.0
  6
BYLAYER
100
AcDbLine
 10
190.0
 20
41.0
 30
0.0
 11
190.0
 21
37.0
 31
0.0
  0
LINE
  5
B3
100
AcDbEntity
  8
0
 62
256
370
-1
 48
1.0
  6
BYLAYER
100
AcDbLine
 10
190.0
 20
37.0
 30
0.0
 11
188.0
 21
37.0
 31
0.0
  0
LINE
  5
B4
100
AcDbEntity
  8
0
 62
256
370
-1
 48
1.0
  6
BYLAYER
100
AcDbLine
 10
188.0
 20
37.0
 30
0.0
 11
188.0
 21
40.0
 31
0.0
  0
LINE
  5
B5
100
AcDbEntity
  8
0
 62
256
370
-1
 48
1.0
  6
BYLAYER
100
AcDbLine
 10
30.0
 20
41.0
 30
0.0
 11
30.0
 21
37.0
 31
0.0
  0
LINE
  5
B6
100
AcDbEntity
  8
0
 62
256
370
-1
 48
1.0
  6
BYLAYER
100
AcDbLine
 10
30.0
 20
37.0
 30
0.0
 11
32.0
 21
37.0
 31
0.0
  0
LINE
  5
B7
100
AcDbEntity
  8
0
 62
256
370
-1
 48
1.0
  6
BYLAYER
100
AcDbLine
 10
32.0
 20
37.0
 30
0.0
 11
32.0
 21
41.0
 31
0.0
  0
LINE
  5
B8
100
AcDbEntity
  8
0
 62
256
370
-1
 48
1.0
  6
BYLAYER
100
AcDbLine
 10
40.0
 20
41.0
 30
0.0
 11
40.0
 21
37.0
 31
0.0
  0
LINE
  5
B9
100
AcDbEntity
  8
0
 62
256
370
-1
 48
1.0
  6
BYLAYER
100
AcDbLine
 10
40.0
 20
37.0
 30
0.0
 11
38.0
 21
37.0
 31
0.0
  0
LINE
  5
BA
100
AcDbEntity
  8
0
 62
256
370
-1
 48
1.0
  6
BYLAYER
100
AcDbLine
 10
38.0
 20
37.0
 30
0.0
 11
38.0
 21
40.0
 31
0.0
  0
MTEXT
  5
BB
100
AcDbEntity
  8
Label
 62
256
370
-1
 48
1.0
  6
BYLAYER
100
AcDbMText
 10
55.0
 20
-64.0
 30
0.0
 40
3.0
 41
0.0
 71
5
 72
1
  1
40mm\PFan
  7
textstyle1
 50
0.0
 73
2
 44
1.0
  0
MTEXT
  5
BC
100
AcDbEntity
  8
Label
 62
256
370
-1
 48
1.0
  6
BYLAYER
100
AcDbMText
 10
110.0
 20
-90.0
 30
0.0
 40
5.0
 41
0.0
 71
5
 72
1
  1
GBS-C
  7
textstyle0
 50
0.0
 73
2
 44
1.0
  0
LINE
  5
BD
100
AcDbEntity
  8
0
 62
256
370
-1
 48
1.0
  6
BYLAYER
100
AcDbLine
 10
74.0
 20
-121.0
 30
0.0
 11
74.0
 21
-120.0
 31
0.0
  0
LINE
  5
BE
100
AcDbEntity
  8
0
 62
256
370
-1
 48
1.0
  6
BYLAYER
100
AcDbLine
 10
74.0
 20
-120.0
 30
0.0
 11
75.0
 21
-120.0
 31
0.0
  0
LINE
  5
BF
100
AcDbEntity
  8
0
 62
256
370
-1
 48
1.0
  6
BYLAYER
100
AcDbLine
 10
75.0
 20
-120.0
 30
0.0
 11
75.0
 21
-121.0
 31
0.0
  0
LINE
  5
C0
100
AcDbEntity
  8
0
 62
256
370
-1
 48
1.0
  6
BYLAYER
100
AcDbLine
 10
75.0
 20
-121.0
 30
0.0
 11
75.0
 21
-121.0
 31
0.0
  0
LINE
  5
C1
100
AcDbEntity
  8
0
 62
256
370
-1
 48
1.0
  6
BYLAYER
100
AcDbLine
 10
85.0
 20
-121.0
 30
0.0
 11
85.0
 21
-120.0
 31
0.0
  0
LINE
  5
C2
100
AcDbEntity
  8
0
 62
256
370
-1
 48
1.0
  6
BYLAYER
100
AcDbLine
 10
85.0
 20
-120.0
 30
0.0
 11
86.0
 21
-120.0
 31
0.0
  0
LINE
  5
C3
100
AcDbEntity
  8
0
 62
256
370
-1
 48
1.0
  6
BYLAYER
100
AcDbLine
 10
86.0
 20
-120.0
 30
0.0
 11
86.0
 21
-121.0
 31
0.0
  0
LINE
  5
C4
100
AcDbEntity
  8
0
 62
256
370
-1
 48
1.0
  6
BYLAYER
100
AcDbLine
 10
164.0
 20
-121.0
 30
0.0
 11
164.0
 21
-120.0
 31
0.0
  0
LINE
  5
C5
100
AcDbEntity
  8
0
 62
256
370
-1
 48
1.0
  6
BYLAYER
100
AcDbLine
 10
164.0
 20
-120.0
 30
0.0
 11
165.0
 21
-120.0
 31
0.0
  0
LINE
  5
C6
100
AcDbEntity
  8
0
 62
256
370
-1
 48
1.0
  6
BYLAYER
100
AcDbLine
 10
165.0
 20
-120.0
 30
0.0
 11
165.0
 21
-121.0
 31
0.0
  0
LINE
  5
C7
100
AcDbEntity
  8
0
 62
256
370
-1
 48
1.0
  6
BYLAYER
100
AcDbLine
 10
175.0
 20
-121.0
 30
0.0
 11
175.0
 21
-120.0
 31
0.0
  0
LINE
  5
C8
100
AcDbEntity
  8
0
 62
256
370
-1
 48
1.0
  6
BYLAYER
100
AcDbLine
 10
175.0
 20
-120.0
 30
0.0
 11
176.0
 21
-120.0
 31
0.0
  0
LINE
  5
C9
100
AcDbEntity
  8
0
 62
256
370
-1
 48
1.0
  6
BYLAYER
100
AcDbLine
 10
176.0
 20
-120.0
 30
0.0
 11
176.0
 21
-121.0
 31
0.0
  0
ENDSEC
  0
SECTION
  2
OBJECTS
  0
DICTIONARY
  5
C
100
AcDbDictionary
280
0
281
1
  3
ACAD_GROUP
350
D
  3
ACAD_LAYOUT
350
1A
  3
ACAD_MLINESTYLE
350
17
  3
ACAD_PLOTSETTINGS
350
19
  3
ACAD_PLOTSTYLENAME
350
E
  3
AcDbVariableDictionary
350
CA
  3
QCAD_OBJECTS
350
CB
  0
DICTIONARY
  5
D
100
AcDbDictionary
280
0
281
1
  0
ACDBDICTIONARYWDFLT
  5
E
100
AcDbDictionary
281
1
  3
Normal
350
F
100
AcDbDictionaryWithDefault
340
F
  0
ACDBPLACEHOLDER
  5
F
  0
DICTIONARY
  5
17
100
AcDbDictionary
280
0
281
1
  3
Standard
350
18
  0
MLINESTYLE
  5
18
100
AcDbMlineStyle
  2
STANDARD
 70
0
  3

 62
256
 51
90.0
 52
90.0
 71
2
 49
0.5
 62
256
  6
BYLAYER
 49
-0.5
 62
256
  6
BYLAYER
  0
DICTIONARY
  5
19
100
AcDbDictionary
280
0
281
1
  0
DICTIONARY
  5
1A
100
AcDbDictionary
281
1
  3
Layout1
350
1E
  3
Layout2
350
26
  3
Model
350
22
  0
LAYOUT
  5
1E
100
AcDbPlotSettings
  1

  2
none_device
  4

  6

 40
0.0
 41
0.0
 42
0.0
 43
0.0
 44
0.0
 45
0.0
 46
0.0
 47
0.0
 48
0.0
 49
0.0
140
0.0
141
0.0
142
1.0
143
1.0
 70
688
 72
0
 73
0
 74
5
  7

 75
16
147
1.0
148
0.0
149
0.0
100
AcDbLayout
  1
Layout1
 70
1
 71
1
 10
0.0
 20
0.0
 11
420.0
 21
297.0
 12
0.0
 22
0.0
 32
0.0
 14
100000000000000000000.0
 24
100000000000000000000.0
 34
100000000000000000000.0
 15
-100000000000000000000.0
 25
-100000000000000000000.0
 35
-100000000000000000000.0
146
0.0
 13
0.0
 23
0.0
 33
0.0
 16
1.0
 26
0.0
 36
0.0
 17
0.0
 27
1.0
 37
0.0
 76
0
330
1B
  0
LAYOUT
  5
22
100
AcDbPlotSettings
  1

  2
none_device
  4

  6

 40
0.0
 41
0.0
 42
0.0
 43
0.0
 44
0.0
 45
0.0
 46
0.0
 47
0.0
 48
0.0
 49
0.0
140
0.0
141
0.0
142
1.0
143
1.0
 70
1712
 72
0
 73
0
 74
0
  7

 75
0
147
1.0
148
0.0
149
0.0
100
AcDbLayout
  1
Model
 70
1
 71
0
 10
0.0
 20
0.0
 11
12.0
 21
9.0
 12
0.0
 22
0.0
 32
0.0
 14
0.0
 24
0.0
 34
0.0
 15
0.0
 25
0.0
 35
0.0
146
0.0
 13
0.0
 23
0.0
 33
0.0
 16
1.0
 26
0.0
 36
0.0
 17
0.0
 27
1.0
 37
0.0
 76
0
330
1F
  0
LAYOUT
  5
26
100
AcDbPlotSettings
  1

  2
none_device
  4

  6

 40
0.0
 41
0.0
 42
0.0
 43
0.0
 44
0.0
 45
0.0
 46
0.0
 47
0.0
 48
0.0
 49
0.0
140
0.0
141
0.0
142
1.0
143
1.0
 70
688
 72
0
 73
0
 74
5
  7

 75
16
147
1.0
148
0.0
149
0.0
100
AcDbLayout
  1
Layout2
 70
1
 71
2
 10
0.0
 20
0.0
 11
12.0
 21
9.0
 12
0.0
 22
0.0
 32
0.0
 14
0.0
 24
0.0
 34
0.0
 15
0.0
 25
0.0
 35
0.0
146
0.0
 13
0.0
 23
0.0
 33
0.0
 16
1.0
 26
0.0
 36
0.0
 17
0.0
 27
1.0
 37
0.0
 76
0
330
23
  0
DICTIONARY
  5
CA
100
AcDbDictionary
281
1
  3
DIMASSOC
350
CD
  3
HIDETEXT
350
CC
  0
DICTIONARYVAR
  5
CC
100
DictionaryVariables
280
0
  1
2
  0
DICTIONARYVAR
  5
CD
100
DictionaryVariables
280
0
  1
1
  0
DICTIONARY
  5
CB
100
AcDbDictionary
281
1
  3
ColorSettings/BackgroundColor
350
CE
  3
ColorSettings/ColorMode
350
CF
  3
Grid/DisplayGrid00
350
D0
  3
Grid/DisplayGrid01
350
D1
  3
Grid/DisplayGrid02
350
D2
  3
Grid/DisplayGrid03
350
D3
  3
Grid/GridSpacingX00
350
D4
  3
Grid/GridSpacingX01
350
D5
  3
Grid/GridSpacingX02
350
D6
  3
Grid/GridSpacingX03
350
D7
  3
Grid/GridSpacingY00
350
D8
  3
Grid/GridSpacingY01
350
D9
  3
Grid/GridSpacingY02
350
DA
  3
Grid/GridSpacingY03
350
DB
  3
Grid/IsometricGrid00
350
DC
  3
Grid/IsometricGrid01
350
DD
  3
Grid/IsometricGrid02
350
DE
  3
Grid/IsometricGrid03
350
DF
  3
Grid/IsometricProjection00
350
E0
  3
Grid/IsometricProjection01
350
E1
  3
Grid/IsometricProjection02
350
E2
  3
Grid/IsometricProjection03
350
E3
  3
Grid/MetaGridSpacingX00
350
E4
  3
Grid/MetaGridSpacingX01
350
E5
  3
Grid/MetaGridSpacingX02
350
E6
  3
Grid/MetaGridSpacingX03
350
E7
  3
Grid/MetaGridSpacingY00
350
E8
  3
Grid/MetaGridSpacingY01
350
E9
  3
Grid/MetaGridSpacingY02
350
EA
  3
Grid/MetaGridSpacingY03
350
EB
  3
MultiPageSettings/Columns
350
EC
  3
MultiPageSettings/GlueMarginsBottom
350
ED
  3
MultiPageSettings/GlueMarginsLeft
350
EE
  3
MultiPageSettings/GlueMarginsRight
350
EF
  3
MultiPageSettings/GlueMarginsTop
350
F0
  3
MultiPageSettings/PrintCropMarks
350
F1
  3
MultiPageSettings/Rows
350
F2
  3
PageSettings/OffsetX
350
F3
  3
PageSettings/OffsetY
350
F4
  3
PageSettings/PageOrientation
350
F5
  3
PageSettings/PaperHeight
350
F6
  3
PageSettings/PaperWidth
350
F7
  3
PageSettings/Scale
350
F8
  3
PageSettings/ShowPaperBorders
350
F9
  3
PageTagSettings/EnablePageTags
350
FA
  3
PageTagSettings/TagAlignment
350
FB
  3
PageTagSettings/TagFont
350
FC
  3
PageTagSettings/TagPosition
350
FD
  3
QCADVersion
350
FE
  3
UnitSettings/PaperUnit
350
FF
  3
ViewportCenter
350
100
  3
ViewportHeight
350
101
  3
ViewportWidth
350
102
  0
XRECORD
  5
CE
330
CB
100
AcDbXrecord
280
1
1000
White
  0
XRECORD
  5
CF
330
CB
100
AcDbXrecord
280
1
1000
FullColor
  0
XRECORD
  5
D0
330
CB
100
AcDbXrecord
280
1
290
1
  0
XRECORD
  5
D1
330
CB
100
AcDbXrecord
280
1
290
1
  0
XRECORD
  5
D2
330
CB
100
AcDbXrecord
280
1
290
1
  0
XRECORD
  5
D3
330
CB
100
AcDbXrecord
280
1
290
1
  0
XRECORD
  5
D4
330
CB
100
AcDbXrecord
280
1
1000
auto
  0
XRECORD
  5
D5
330
CB
100
AcDbXrecord
280
1
1000
auto
  0
XRECORD
  5
D6
330
CB
100
AcDbXrecord
280
1
1000
auto
  0
XRECORD
  5
D7
330
CB
100
AcDbXrecord
280
1
1000
auto
  0
XRECORD
  5
D8
330
CB
100
AcDbXrecord
280
1
1000
auto
  0
XRECORD
  5
D9
330
CB
100
AcDbXrecord
280
1
1000
auto
  0
XRECORD
  5
DA
330
CB
100
AcDbXrecord
280
1
1000
auto
  0
XRECORD
  5
DB
330
CB
100
AcDbXrecord
280
1
1000
auto
  0
XRECORD
  5
DC
330
CB
100
AcDbXrecord
280
1
290
0
  0
XRECORD
  5
DD
330
CB
100
AcDbXrecord
280
1
290
0
  0
XRECORD
  5
DE
330
CB
100
AcDbXrecord
280
1
290
0
  0
XRECORD
  5
DF
330
CB
100
AcDbXrecord
280
1
290
0
  0
XRECORD
  5
E0
330
CB
100
AcDbXrecord
280
1
 90
65537
  0
XRECORD
  5
E1
330
CB
100
AcDbXrecord
280
1
 90
65537
  0
XRECORD
  5
E2
330
CB
100
AcDbXrecord
280
1
 90
65537
  0
XRECORD
  5
E3
330
CB
100
AcDbXrecord
280
1
 90
65537
  0
XRECORD
  5
E4
330
CB
100
AcDbXrecord
280
1
1000
auto
  0
XRECORD
  5
E5
330
CB
100
AcDbXrecord
280
1
1000
auto
  0
XRECORD
  5
E6
330
CB
100
AcDbXrecord
280
1
1000
auto
  0
XRECORD
  5
E7
330
CB
100
AcDbXrecord
280
1
1000
auto
  0
XRECORD
  5
E8
330
CB
100
AcDbXrecord
280
1
1000
auto
  0
XRECORD
  5
E9
330
CB
100
AcDbXrecord
280
1
1000
auto
  0
XRECORD
  5
EA
330
CB
100
AcDbXrecord
280
1
1000
auto
  0
XRECORD
  5
EB
330
CB
100
AcDbXrecord
280
1
1000
auto
  0
XRECORD
  5
EC
330
CB
100
AcDbXrecord
280
1
 90
1
  0
XRECORD
  5
ED
330
CB
100
AcDbXrecord
280
1
 40
0.5
  0
XRECORD
  5
EE
330
CB
100
AcDbXrecord
280
1
 40
0.5
  0
XRECORD
  5
EF
330
CB
100
AcDbXrecord
280
1
 40
0.5
  0
XRECORD
  5
F0
330
CB
100
AcDbXrecord
280
1
 40
0.5
  0
XRECORD
  5
F1
330
CB
100
AcDbXrecord
280
1
290
0
  0
XRECORD
  5
F2
330
CB
100
AcDbXrecord
280
1
 90
1
  0
XRECORD
  5
F3
330
CB
100
AcDbXrecord
280
1
 40
0.0
  0
XRECORD
  5
F4
330
CB
100
AcDbXrecord
280
1
 40
0.0
  0
XRECORD
  5
F5
330
CB
100
AcDbXrecord
280
1
1000
Portrait
  0
XRECORD
  5
F6
330
CB
100
AcDbXrecord
280
1
 40
11.0
  0
XRECORD
  5
F7
330
CB
100
AcDbXrecord
280
1
 40
8.5
  0
XRECORD
  5
F8
330
CB
100
AcDbXrecord
280
1
1000
1:1
  0
XRECORD
  5
F9
330
CB
100
AcDbXrecord
280
1
290
1
  0
XRECORD
  5
FA
330
CB
100
AcDbXrecord
280
1
290
0
  0
XRECORD
  5
FB
330
CB
100
AcDbXrecord
280
1
1000
Inside
  0
XRECORD
  5
FC
330
CB
100
AcDbXrecord
280
1
1000
Arial,10,-1,5,50,0,0,0,0,0
  0
XRECORD
  5
FD
330
CB
100
AcDbXrecord
280
1
1000
TopLeft
  0
XRECORD
  5
FE
330
CB
100
AcDbXrecord
280
1
1000
3.31.2
  0
XRECORD
  5
FF
330
CB
100
AcDbXrecord
280
1
 90
1
  0
XRECORD
  5
101
330
CB
100
AcDbXrecord
280
1
 40
276.9667972957330448
  0
XRECORD
  5
102
330
CB
100
AcDbXrecord
280
1
 40
558.3888245747755263
  0
ENDSEC
  0
EOF
