999
dxflib 3.26.4.0
  0
SECTION
  2
HEADER
  9
$ACADVER
  1
AC1015
  9
$HANDSEED
  5
FFFF
  9
$DIMADEC
 70
0
  9
$DIMASZ
 40
0.125
  9
$DIMATFIT
 70
0
  9
$DIMAUNIT
 70
0
  9
$DIMAZIN
 70
2
  9
$DIMBLK
  1
0
  9
$DIMBLK1
  1
0
  9
$DIMBLK2
  1
0
  9
$DIMDEC
 70
4
  9
$DIMDLI
 40
0.25
  9
$DIMDSEP
 70
46
  9
$DIMEXE
 40
0.0625
  9
$DIMEXO
 40
0.03125
  9
$DIMGAP
 40
0.03125
  9
$DIMLFAC
 40
1.0
  9
$DIMLUNIT
 70
2
  9
$DIMSCALE
 40
25.3999999999999986
  9
$DIMTAD
 70
1
  9
$DIMTIH
 70
0
  9
$DIMTSZ
 40
0.0
  9
$DIMTXT
 40
0.125
  9
$DIMZIN
 70
8
  9
$DWGCODEPAGE
  3
ANSI_1252
  9
$INSUNITS
 70
4
  9
$LTSCALE
 40
1.0
  9
$MAXACTVP
 70
64
  9
$MEASUREMENT
 70
0
  9
$MIRRTEXT
 70
0
  9
$PDMODE
 70
0
  9
$PDSIZE
 40
0.0
  0
ENDSEC
  0
SECTION
  2
TABLES
  0
TABLE
  2
VPORT
  5
8
100
AcDbSymbolTable
 70
1
  0
VPORT
  5
30
100
AcDbSymbolTableRecord
100
AcDbViewportTableRecord
  2
*Active
 70
0
 10
0.0
 20
0.0
 11
1.0
 21
1.0
 12
286.3055555555554861
 22
148.5
 13
0.0
 23
0.0
 14
10.0
 24
10.0
 15
10.0
 25
10.0
 16
0.0
 26
0.0
 36
1.0
 17
0.0
 27
0.0
 37
0.0
 40
297.0
 41
1.92798353909465
 42
50.0
 43
0.0
 44
0.0
 50
0.0
 51
0.0
 71
0
 72
100
 73
1
 74
3
 75
1
 76
1
 77
0
 78
0
281
0
 65
1
110
0.0
120
0.0
130
0.0
111
1.0
121
0.0
131
0.0
112
0.0
122
1.0
132
0.0
 79
0
146
0.0
  0
ENDTAB
  0
TABLE
  2
LTYPE
  5
5
100
AcDbSymbolTable
 70
41
  0
LTYPE
  5
16
100
AcDbSymbolTableRecord
100
AcDbLinetypeTableRecord
  2
Continuous
 70
0
  3
Solid line
 72
65
 73
0
 40
0.0
  0
LTYPE
  5
31
100
AcDbSymbolTableRecord
100
AcDbLinetypeTableRecord
  2
PHANTOM
 70
0
  3
Phantom ______  __  __  ______  __  __  ______ 
 72
65
 73
6
 40
63.5000000000000071
 49
31.75
 74
0
 49
-6.3499999999999996
 74
0
 49
6.3499999999999996
 74
0
 49
-6.3499999999999996
 74
0
 49
6.3499999999999996
 74
0
 49
-6.3499999999999996
 74
0
  0
LTYPE
  5
32
100
AcDbSymbolTableRecord
100
AcDbLinetypeTableRecord
  2
HIDDENX2
 70
0
  3
Hidden (2x) ____ ____ ____ ____ ____ ____ ____ 
 72
65
 73
2
 40
19.0499999999999972
 49
12.6999999999999993
 74
0
 49
-6.3499999999999996
 74
0
  0
LTYPE
  5
33
100
AcDbSymbolTableRecord
100
AcDbLinetypeTableRecord
  2
ACAD_ISO11W100
 70
0
  3
ISO double-dash dot __ __ . __ __ . __ __ . __ _
 72
65
 73
6
 40
33.0
 49
12.0
 74
0
 49
-3.0
 74
0
 49
12.0
 74
0
 49
-2.9500000000000002
 74
0
 49
0.1
 74
0
 49
-2.9500000000000002
 74
0
  0
LTYPE
  5
34
100
AcDbSymbolTableRecord
100
AcDbLinetypeTableRecord
  2
DASHEDX2
 70
0
  3
Dashed (2x) ____  ____  ____  ____  ____  ___
 72
65
 73
2
 40
38.0999999999999943
 49
25.3999999999999986
 74
0
 49
-12.6999999999999993
 74
0
  0
LTYPE
  5
35
100
AcDbSymbolTableRecord
100
AcDbLinetypeTableRecord
  2
PHANTOMX2
 70
0
  3
Phantom (2x) ____________    ____    ____   _
 72
65
 73
6
 40
127.0000000000000142
 49
63.5
 74
0
 49
-12.6999999999999993
 74
0
 49
12.6999999999999993
 74
0
 49
-12.6999999999999993
 74
0
 49
12.6999999999999993
 74
0
 49
-12.6999999999999993
 74
0
  0
LTYPE
  5
36
100
AcDbSymbolTableRecord
100
AcDbLinetypeTableRecord
  2
DIVIDE
 70
0
  3
Divide ____ . . ____ . . ____ . . ____ . . ____
 72
65
 73
6
 40
31.7500000000000036
 49
12.6999999999999993
 74
0
 49
-6.2999999999999998
 74
0
 49
0.1
 74
0
 49
-6.25
 74
0
 49
0.1
 74
0
 49
-6.2999999999999998
 74
0
  0
LTYPE
  5
37
100
AcDbSymbolTableRecord
100
AcDbLinetypeTableRecord
  2
CENTER
 70
0
  3
Center ____ _ ____ _ ____ _ ____ _ ____ _ ____
 72
65
 73
4
 40
50.8000000000000043
 49
31.75
 74
0
 49
-6.3499999999999996
 74
0
 49
6.3499999999999996
 74
0
 49
-6.3499999999999996
 74
0
  0
LTYPE
  5
38
100
AcDbSymbolTableRecord
100
AcDbLinetypeTableRecord
  2
DOTX2
 70
0
  3
Dot (2x) .  .  .  .  .  .  .  .  .  .  .  .  .  .
 72
65
 73
2
 40
12.6999999999999993
 49
0.1
 74
0
 49
-12.5999999999999996
 74
0
  0
LTYPE
  5
39
100
AcDbSymbolTableRecord
100
AcDbLinetypeTableRecord
  2
ACAD_ISO10W100
 70
0
  3
ISO dash dot __ . __ . __ . __ . __ . __ . __ . 
 72
65
 73
4
 40
18.0
 49
12.0
 74
0
 49
-2.9500000000000002
 74
0
 49
0.1
 74
0
 49
-2.9500000000000002
 74
0
  0
LTYPE
  5
3A
100
AcDbSymbolTableRecord
100
AcDbLinetypeTableRecord
  2
DASHDOT
 70
0
  3
Dash dot __ . __ . __ . __ . __ . __ . __ . __
 72
65
 73
4
 40
25.4000000000000021
 49
12.6999999999999993
 74
0
 49
-6.2999999999999998
 74
0
 49
0.1
 74
0
 49
-6.2999999999999998
 74
0
  0
LTYPE
  5
3B
100
AcDbSymbolTableRecord
100
AcDbLinetypeTableRecord
  2
ACAD_ISO09W100
 70
0
  3
ISO long-dash double-short-dash ____ __ __ ____
 72
65
 73
6
 40
45.0
 49
24.0
 74
0
 49
-3.0
 74
0
 49
6.0
 74
0
 49
-3.0
 74
0
 49
6.0
 74
0
 49
-3.0
 74
0
  0
LTYPE
  5
3C
100
AcDbSymbolTableRecord
100
AcDbLinetypeTableRecord
  2
HIDDEN
 70
0
  3
Hidden __ __ __ __ __ __ __ __ __ __ __ __ __ __
 72
65
 73
2
 40
9.5249999999999986
 49
6.3499999999999996
 74
0
 49
-3.1749999999999998
 74
0
  0
LTYPE
  5
3D
100
AcDbSymbolTableRecord
100
AcDbLinetypeTableRecord
  2
DASHED
 70
0
  3
Dashed __ __ __ __ __ __ __ __ __ __ __ __ __ _
 72
65
 73
2
 40
19.0499999999999972
 49
12.6999999999999993
 74
0
 49
-6.3499999999999996
 74
0
  0
LTYPE
  5
3E
100
AcDbSymbolTableRecord
100
AcDbLinetypeTableRecord
  2
CENTERX2
 70
0
  3
Center (2x) ________  __  ________  __  _____
 72
65
 73
4
 40
101.6000000000000085
 49
63.5
 74
0
 49
-12.6999999999999993
 74
0
 49
12.6999999999999993
 74
0
 49
-12.6999999999999993
 74
0
  0
LTYPE
  5
3F
100
AcDbSymbolTableRecord
100
AcDbLinetypeTableRecord
  2
ACAD_ISO08W100
 70
0
  3
ISO long-dash short-dash ____ __ ____ __ ____ _
 72
65
 73
4
 40
36.0
 49
24.0
 74
0
 49
-3.0
 74
0
 49
6.0
 74
0
 49
-3.0
 74
0
  0
LTYPE
  5
40
100
AcDbSymbolTableRecord
100
AcDbLinetypeTableRecord
  2
ACAD_ISO12W100
 70
0
  3
ISO dash double-dot __ . . __ . . __ . . __ . . 
 72
65
 73
6
 40
21.0
 49
12.0
 74
0
 49
-2.9500000000000002
 74
0
 49
0.1
 74
0
 49
-2.9000000000000004
 74
0
 49
0.1
 74
0
 49
-2.9500000000000002
 74
0
  0
LTYPE
  5
41
100
AcDbSymbolTableRecord
100
AcDbLinetypeTableRecord
  2
BORDER
 70
0
  3
Border __ __ . __ __ . __ __ . __ __ . __ __ .
 72
65
 73
6
 40
44.4499999999999957
 49
12.6999999999999993
 74
0
 49
-6.3499999999999996
 74
0
 49
12.6999999999999993
 74
0
 49
-6.2999999999999998
 74
0
 49
0.1
 74
0
 49
-6.2999999999999998
 74
0
  0
LTYPE
  5
42
100
AcDbSymbolTableRecord
100
AcDbLinetypeTableRecord
  2
BORDERX2
 70
0
  3
Border (2x) ____  ____  .  ____  ____  .  ___
 72
65
 73
6
 40
88.8999999999999773
 49
25.3999999999999986
 74
0
 49
-12.6999999999999993
 74
0
 49
25.3999999999999986
 74
0
 49
-12.6499999999999986
 74
0
 49
0.1
 74
0
 49
-12.6499999999999986
 74
0
  0
LTYPE
  5
43
100
AcDbSymbolTableRecord
100
AcDbLinetypeTableRecord
  2
DOT
 70
0
  3
Dot . . . . . . . . . . . . . . . . . . . . . . . .
 72
65
 73
2
 40
6.3499999999999996
 49
0.1
 74
0
 49
-6.25
 74
0
  0
LTYPE
  5
44
100
AcDbSymbolTableRecord
100
AcDbLinetypeTableRecord
  2
HIDDEN2
 70
0
  3
Hidden (.5x) _ _ _ _ _ _ _ _ _ _ _ _ _ _ _ _ _ 
 72
65
 73
2
 40
4.7624999999999993
 49
3.1749999999999998
 74
0
 49
-1.5874999999999999
 74
0
  0
LTYPE
  5
45
100
AcDbSymbolTableRecord
100
AcDbLinetypeTableRecord
  2
PHANTOM2
 70
0
  3
Phantom (.5x) ___ _ _ ___ _ _ ___ _ _ ___ _ _
 72
65
 73
6
 40
31.7500000000000036
 49
15.875
 74
0
 49
-3.1749999999999998
 74
0
 49
3.1749999999999998
 74
0
 49
-3.1749999999999998
 74
0
 49
3.1749999999999998
 74
0
 49
-3.1749999999999998
 74
0
  0
LTYPE
  5
46
100
AcDbSymbolTableRecord
100
AcDbLinetypeTableRecord
  2
DASHDOT2
 70
0
  3
Dash dot (.5x) _._._._._._._._._._._._._._._.
 72
65
 73
4
 40
12.6999999999999993
 49
6.3499999999999996
 74
0
 49
-3.125
 74
0
 49
0.1
 74
0
 49
-3.125
 74
0
  0
LTYPE
  5
47
100
AcDbSymbolTableRecord
100
AcDbLinetypeTableRecord
  2
BORDER2
 70
0
  3
Border (.5x) __.__.__.__.__.__.__.__.__.__.__.
 72
65
 73
6
 40
22.2250000000000014
 49
6.3499999999999996
 74
0
 49
-3.1749999999999998
 74
0
 49
6.3499999999999996
 74
0
 49
-3.125
 74
0
 49
0.1
 74
0
 49
-3.125
 74
0
  0
LTYPE
  5
14
100
AcDbSymbolTableRecord
100
AcDbLinetypeTableRecord
  2
BYBLOCK
 70
0
  3

 72
65
 73
0
 40
0.0
  0
LTYPE
  5
48
100
AcDbSymbolTableRecord
100
AcDbLinetypeTableRecord
  2
CENTER2
 70
0
  3
Center (.5x) ___ _ ___ _ ___ _ ___ _ ___ _ ___
 72
65
 73
4
 40
28.5750000000000028
 49
19.0500000000000007
 74
0
 49
-3.1749999999999998
 74
0
 49
3.1749999999999998
 74
0
 49
-3.1749999999999998
 74
0
  0
LTYPE
  5
49
100
AcDbSymbolTableRecord
100
AcDbLinetypeTableRecord
  2
DOT2
 70
0
  3
Dot (.5x) ........................................
 72
65
 73
2
 40
3.1749999999999998
 49
0.1
 74
0
 49
-3.0749999999999997
 74
0
  0
LTYPE
  5
4A
100
AcDbSymbolTableRecord
100
AcDbLinetypeTableRecord
  2
ACAD_ISO13W100
 70
0
  3
ISO double-dash double-dot __ __ . . __ __ . . _
 72
65
 73
8
 40
36.0000000000000071
 49
12.0
 74
0
 49
-3.0
 74
0
 49
12.0
 74
0
 49
-2.9500000000000002
 74
0
 49
0.1
 74
0
 49
-2.9000000000000004
 74
0
 49
0.1
 74
0
 49
-2.9500000000000002
 74
0
  0
LTYPE
  5
4B
100
AcDbSymbolTableRecord
100
AcDbLinetypeTableRecord
  2
DASHED2
 70
0
  3
Dashed (.5x) _ _ _ _ _ _ _ _ _ _ _ _ _ _ _ _ _ 
 72
65
 73
2
 40
9.5249999999999986
 49
6.3499999999999996
 74
0
 49
-3.1749999999999998
 74
0
  0
LTYPE
  5
4C
100
AcDbSymbolTableRecord
100
AcDbLinetypeTableRecord
  2
ACAD_ISO06W100
 70
0
  3
ISO long-dash triple-dot ____ ... ____ ... ____
 72
65
 73
8
 40
36.0000000000000071
 49
24.0
 74
0
 49
-2.9500000000000002
 74
0
 49
0.1
 74
0
 49
-2.9000000000000004
 74
0
 49
0.1
 74
0
 49
-2.9000000000000004
 74
0
 49
0.1
 74
0
 49
-2.9500000000000002
 74
0
  0
LTYPE
  5
4D
100
AcDbSymbolTableRecord
100
AcDbLinetypeTableRecord
  2
ACAD_ISO15W100
 70
0
  3
ISO double-dash triple-dot __ __ . . . __ __ . .
 72
65
 73
10
 40
39.0000000000000071
 49
12.0
 74
0
 49
-3.0
 74
0
 49
12.0
 74
0
 49
-2.9500000000000002
 74
0
 49
0.1
 74
0
 49
-2.9000000000000004
 74
0
 49
0.1
 74
0
 49
-2.9000000000000004
 74
0
 49
0.1
 74
0
 49
-2.9500000000000002
 74
0
  0
LTYPE
  5
4E
100
AcDbSymbolTableRecord
100
AcDbLinetypeTableRecord
  2
ACAD_ISO02W100
 70
0
  3
ISO dash __ __ __ __ __ __ __ __ __ __ __ __ __
 72
65
 73
2
 40
15.0
 49
12.0
 74
0
 49
-3.0
 74
0
  0
LTYPE
  5
4F
100
AcDbSymbolTableRecord
100
AcDbLinetypeTableRecord
  2
ACAD_ISO14W100
 70
0
  3
ISO dash triple-dot __ . . . __ . . . __ . . . _
 72
65
 73
8
 40
24.0000000000000036
 49
12.0
 74
0
 49
-2.9500000000000002
 74
0
 49
0.1
 74
0
 49
-2.9000000000000004
 74
0
 49
0.1
 74
0
 49
-2.9000000000000004
 74
0
 49
0.1
 74
0
 49
-2.9500000000000002
 74
0
  0
LTYPE
  5
50
100
AcDbSymbolTableRecord
100
AcDbLinetypeTableRecord
  2
DIVIDE2
 70
0
  3
Divide (.5x) __..__..__..__..__..__..__..__.._
 72
65
 73
6
 40
15.8749999999999982
 49
6.3499999999999996
 74
0
 49
-3.125
 74
0
 49
0.1
 74
0
 49
-3.0750000000000002
 74
0
 49
0.1
 74
0
 49
-3.125
 74
0
  0
LTYPE
  5
51
100
AcDbSymbolTableRecord
100
AcDbLinetypeTableRecord
  2
DASHDOTX2
 70
0
  3
Dash dot (2x) ____  .  ____  .  ____  .  ___
 72
65
 73
4
 40
50.7999999999999972
 49
25.3999999999999986
 74
0
 49
-12.6499999999999986
 74
0
 49
0.1
 74
0
 49
-12.6499999999999986
 74
0
  0
LTYPE
  5
52
100
AcDbSymbolTableRecord
100
AcDbLinetypeTableRecord
  2
ACAD_ISO03W100
 70
0
  3
ISO dash space __    __    __    __    __    __
 72
65
 73
2
 40
30.0
 49
12.0
 74
0
 49
-18.0
 74
0
  0
LTYPE
  5
53
100
AcDbSymbolTableRecord
100
AcDbLinetypeTableRecord
  2
ACAD_ISO07W100
 70
0
  3
ISO dot . . . . . . . . . . . . . . . . . . . . 
 72
65
 73
2
 40
3.0
 49
0.1
 74
0
 49
-2.8999999999999999
 74
0
  0
LTYPE
  5
54
100
AcDbSymbolTableRecord
100
AcDbLinetypeTableRecord
  2
ACAD_ISO04W100
 70
0
  3
ISO long-dash dot ____ . ____ . ____ . ____ . _
 72
65
 73
4
 40
30.0
 49
24.0
 74
0
 49
-2.9500000000000002
 74
0
 49
0.1
 74
0
 49
-2.9500000000000002
 74
0
  0
LTYPE
  5
15
100
AcDbSymbolTableRecord
100
AcDbLinetypeTableRecord
  2
BYLAYER
 70
0
  3

 72
65
 73
0
 40
0.0
  0
LTYPE
  5
55
100
AcDbSymbolTableRecord
100
AcDbLinetypeTableRecord
  2
DIVIDEX2
 70
0
  3
Divide (2x) ________  .  .  ________  .  .  _
 72
65
 73
6
 40
63.5
 49
25.3999999999999986
 74
0
 49
-12.6499999999999986
 74
0
 49
0.1
 74
0
 49
-12.5999999999999979
 74
0
 49
0.1
 74
0
 49
-12.6499999999999986
 74
0
  0
LTYPE
  5
56
100
AcDbSymbolTableRecord
100
AcDbLinetypeTableRecord
  2
ACAD_ISO05W100
 70
0
  3
ISO long-dash double-dot ____ .. ____ .. ____ . 
 72
65
 73
6
 40
33.0000000000000071
 49
24.0
 74
0
 49
-2.9500000000000002
 74
0
 49
0.1
 74
0
 49
-2.9000000000000004
 74
0
 49
0.1
 74
0
 49
-2.9500000000000002
 74
0
  0
ENDTAB
  0
TABLE
  2
LAYER
  5
2
100
AcDbSymbolTable
 70
5
  0
LAYER
  5
57
100
AcDbSymbolTableRecord
100
AcDbLayerTableRecord
  2
Labels
 70
1
 62
30
420
16744192
  6
Continuous
370
18
390
F
  0
LAYER
  5
58
100
AcDbSymbolTableRecord
100
AcDbLayerTableRecord
  2
Bends
 70
0
 62
1
420
16711680
  6
ACAD_ISO02W100
370
25
390
F
  0
LAYER
  5
59
100
AcDbSymbolTableRecord
100
AcDbLayerTableRecord
  2
Measure
 70
1
 62
5
420
255
  6
Continuous
370
13
390
F
  0
LAYER
  5
10
100
AcDbSymbolTableRecord
100
AcDbLayerTableRecord
  2
0
 70
0
 62
7
420
16777215
  6
Continuous
370
25
390
F
  0
LAYER
  5
5A
100
AcDbSymbolTableRecord
100
AcDbLayerTableRecord
  2
Components
 70
1
 62
3
420
65280
  6
ACAD_ISO02W100
370
25
390
F
  0
ENDTAB
  0
TABLE
  2
STYLE
  5
3
100
AcDbSymbolTable
 70
17
  0
STYLE
  5
5B
100
AcDbSymbolTableRecord
100
AcDbTextStyleTableRecord
  2
Standard
 70
0
 40
0.0
 41
1.0
 50
0.0
 71
0
 42
2.5
  3

  4

1001
ACAD
1000
txt
1071
0
  0
STYLE
  5
5C
100
AcDbSymbolTableRecord
100
AcDbTextStyleTableRecord
  2
textstyle0
 70
0
 40
0.0
 41
1.0
 50
0.0
 71
0
 42
3.0
  3

  4

1001
ACAD
1000
Arial
1071
0
  0
STYLE
  5
5D
100
AcDbSymbolTableRecord
100
AcDbTextStyleTableRecord
  2
textstyle1
 70
0
 40
0.0
 41
1.0
 50
0.0
 71
0
 42
3.0
  3

  4

1001
ACAD
1000
Arial
1071
0
  0
STYLE
  5
5E
100
AcDbSymbolTableRecord
100
AcDbTextStyleTableRecord
  2
textstyle2
 70
0
 40
0.0
 41
1.0
 50
0.0
 71
0
 42
5.0
  3

  4

1001
ACAD
1000
Arial
1071
0
  0
STYLE
  5
5F
100
AcDbSymbolTableRecord
100
AcDbTextStyleTableRecord
  2
textstyle3
 70
0
 40
0.0
 41
1.0
 50
0.0
 71
0
 42
4.0
  3

  4

1001
ACAD
1000
Arial
1071
0
  0
STYLE
  5
60
100
AcDbSymbolTableRecord
100
AcDbTextStyleTableRecord
  2
textstyle4
 70
0
 40
0.0
 41
1.0
 50
0.0
 71
0
 42
2.0
  3

  4

1001
ACAD
1000
Arial
1071
0
  0
STYLE
  5
61
100
AcDbSymbolTableRecord
100
AcDbTextStyleTableRecord
  2
textstyle5
 70
0
 40
0.0
 41
1.0
 50
0.0
 71
0
 42
2.0
  3

  4

1001
ACAD
1000
Arial
1071
0
  0
STYLE
  5
62
100
AcDbSymbolTableRecord
100
AcDbTextStyleTableRecord
  2
textstyle6
 70
0
 40
0.0
 41
1.0
 50
0.0
 71
0
 42
2.0
  3

  4

1001
ACAD
1000
Arial
1071
0
  0
STYLE
  5
63
100
AcDbSymbolTableRecord
100
AcDbTextStyleTableRecord
  2
textstyle7
 70
0
 40
0.0
 41
1.0
 50
0.0
 71
0
 42
2.0
  3

  4

1001
ACAD
1000
Arial
1071
0
  0
STYLE
  5
64
100
AcDbSymbolTableRecord
100
AcDbTextStyleTableRecord
  2
textstyle8
 70
0
 40
0.0
 41
1.0
 50
0.0
 71
0
 42
2.0
  3

  4

1001
ACAD
1000
Arial
1071
0
  0
STYLE
  5
65
100
AcDbSymbolTableRecord
100
AcDbTextStyleTableRecord
  2
textstyle9
 70
0
 40
0.0
 41
1.0
 50
0.0
 71
0
 42
2.0
  3

  4

1001
ACAD
1000
Arial
1071
0
  0
STYLE
  5
66
100
AcDbSymbolTableRecord
100
AcDbTextStyleTableRecord
  2
textstyle10
 70
0
 40
0.0
 41
1.0
 50
0.0
 71
0
 42
3.0
  3

  4

1001
ACAD
1000
Arial
1071
0
  0
STYLE
  5
67
100
AcDbSymbolTableRecord
100
AcDbTextStyleTableRecord
  2
textstyle11
 70
0
 40
0.0
 41
1.0
 50
0.0
 71
0
 42
4.0
  3

  4

1001
ACAD
1000
Arial
1071
0
  0
STYLE
  5
68
100
AcDbSymbolTableRecord
100
AcDbTextStyleTableRecord
  2
textstyle12
 70
0
 40
0.0
 41
1.0
 50
0.0
 71
0
 42
1.5
  3

  4

1001
ACAD
1000
Arial
1071
0
  0
STYLE
  5
69
100
AcDbSymbolTableRecord
100
AcDbTextStyleTableRecord
  2
textstyle13
 70
0
 40
0.0
 41
1.0
 50
0.0
 71
0
 42
1.5
  3

  4

1001
ACAD
1000
Arial
1071
0
  0
STYLE
  5
6A
100
AcDbSymbolTableRecord
100
AcDbTextStyleTableRecord
  2
textstyle14
 70
0
 40
0.0
 41
1.0
 50
0.0
 71
0
 42
1.5
  3

  4

1001
ACAD
1000
Arial
1071
0
  0
STYLE
  5
6B
100
AcDbSymbolTableRecord
100
AcDbTextStyleTableRecord
  2
textstyle15
 70
0
 40
0.0
 41
1.0
 50
0.0
 71
0
 42
4.0
  3

  4

1001
ACAD
1000
Arial
1071
0
  0
ENDTAB
  0
TABLE
  2
VIEW
  5
6
100
AcDbSymbolTable
 70
0
  0
ENDTAB
  0
TABLE
  2
UCS
  5
7
100
AcDbSymbolTable
 70
0
  0
ENDTAB
  0
TABLE
  2
APPID
  5
9
100
AcDbSymbolTable
 70
1
  0
APPID
  5
12
100
AcDbSymbolTableRecord
100
AcDbRegAppTableRecord
  2
ACAD
 70
0
  0
APPID
  5
6C
100
AcDbSymbolTableRecord
100
AcDbRegAppTableRecord
  2
QCAD
 70
0
  0
ENDTAB
  0
TABLE
  2
DIMSTYLE
  5
A
100
AcDbSymbolTable
 70
1
100
AcDbDimStyleTable
 71
0
  0
DIMSTYLE
105
27
100
AcDbSymbolTableRecord
100
AcDbDimStyleTableRecord
  2
Standard
 41
0.125
 42
0.03125
 43
3.75
 44
0.0625
 70
0
 73
0
 74
0
 77
1
 78
8
140
0.125
141
2.5
143
0.03937007874016
147
0.03125
171
3
172
1
271
2
272
2
274
3
278
44
283
0
284
8
340
5B
  0
ENDTAB
  0
TABLE
  2
BLOCK_RECORD
  5
1
100
AcDbSymbolTable
 70
1
  0
BLOCK_RECORD
  5
1F
100
AcDbSymbolTableRecord
100
AcDbBlockTableRecord
  2
*Model_Space
340
22
  0
BLOCK_RECORD
  5
1B
100
AcDbSymbolTableRecord
100
AcDbBlockTableRecord
  2
*Paper_Space
340
1E
  0
BLOCK_RECORD
  5
23
100
AcDbSymbolTableRecord
100
AcDbBlockTableRecord
  2
*Paper_Space0
340
26
  0
ENDTAB
  0
ENDSEC
  0
SECTION
  2
BLOCKS
  0
BLOCK
  5
20
100
AcDbEntity
  8
0
100
AcDbBlockBegin
  2
*Model_Space
 70
0
 10
0.0
 20
0.0
 30
0.0
  3
*Model_Space
  1

  0
ENDBLK
  5
21
100
AcDbEntity
  8
0
100
AcDbBlockEnd
  0
BLOCK
  5
1C
100
AcDbEntity
 67
1
  8
0
100
AcDbBlockBegin
  2
*Paper_Space
 70
0
 10
0.0
 20
0.0
 30
0.0
  3
*Paper_Space
  1

  0
ENDBLK
  5
1D
100
AcDbEntity
 67
1
  8
0
100
AcDbBlockEnd
  0
BLOCK
  5
24
100
AcDbEntity
  8
0
100
AcDbBlockBegin
  2
*Paper_Space0
 70
0
 10
0.0
 20
0.0
 30
0.0
  3
*Paper_Space0
  1

  0
ENDBLK
  5
25
100
AcDbEntity
  8
0
100
AcDbBlockEnd
  0
ENDSEC
  0
SECTION
  2
ENTITIES
  0
LINE
  5
6D
100
AcDbEntity
  8
Bends
 62
256
370
-1
 48
1.0
  6
BYLAYER
100
AcDbLine
 10
0.0
 20
0.0
 30
0.0
 11
220.0
 21
-0.0
 31
0.0
  0
LINE
  5
6E
100
AcDbEntity
  8
0
 62
256
370
-1
 48
1.0
  6
BYLAYER
100
AcDbLine
 10
177.9999999999999716
 20
119.9999999999999858
 30
0.0
 11
41.9999999999999929
 21
119.9999999999999858
 31
0.0
  0
LINE
  5
6F
100
AcDbEntity
  8
0
 62
256
370
-1
 48
1.0
  6
BYLAYER
100
AcDbLine
 10
-0.0
 20
-0.0
 30
0.0
 11
-40.0
 21
-0.0
 31
0.0
  0
LINE
  5
70
100
AcDbEntity
  8
0
 62
256
370
-1
 48
1.0
  6
BYLAYER
100
AcDbLine
 10
-40.0
 20
-0.0
 30
0.0
 11
-39.9999999999999929
 21
68.0
 31
0.0
  0
LINE
  5
71
100
AcDbEntity
  8
0
 62
256
370
-1
 48
1.0
  6
BYLAYER
100
AcDbLine
 10
-35.0
 20
120.0
 30
0.0
 11
-0.0
 21
120.0
 31
0.0
  0
LINE
  5
72
100
AcDbEntity
  8
Bends
 62
256
370
-1
 48
1.0
  6
BYLAYER
100
AcDbLine
 10
-0.0
 20
120.0
 30
0.0
 11
-0.0
 21
-0.0
 31
0.0
  0
LINE
  5
73
100
AcDbEntity
  8
0
 62
256
370
-1
 48
1.0
  6
BYLAYER
100
AcDbLine
 10
220.0
 20
0.0
 30
0.0
 11
260.0
 21
0.0
 31
0.0
  0
LINE
  5
74
100
AcDbEntity
  8
0
 62
256
370
-1
 48
1.0
  6
BYLAYER
100
AcDbLine
 10
259.9999999999999432
 20
31.9999999999999964
 30
0.0
 11
260.0
 21
115.0
 31
0.0
  0
LINE
  5
75
100
AcDbEntity
  8
0
 62
256
370
-1
 48
1.0
  6
BYLAYER
100
AcDbLine
 10
255.0
 20
120.0
 30
0.0
 11
220.0
 21
120.0
 31
0.0
  0
LINE
  5
76
100
AcDbEntity
  8
Bends
 62
256
370
-1
 48
1.0
  6
BYLAYER
100
AcDbLine
 10
220.0
 20
120.0
 30
0.0
 11
220.0
 21
0.0
 31
0.0
  0
LINE
  5
77
100
AcDbEntity
  8
0
 62
256
370
-1
 48
1.0
  6
BYLAYER
100
AcDbLine
 10
221.0
 20
-1.0
 30
0.0
 11
221.0
 21
-40.0
 31
0.0
  0
LINE
  5
78
100
AcDbEntity
  8
0
 62
256
370
-1
 48
1.0
  6
BYLAYER
100
AcDbLine
 10
69.9999999999999858
 20
-39.9999999999999929
 30
0.0
 11
-1.0
 21
-40.0
 31
0.0
  0
LINE
  5
79
100
AcDbEntity
  8
0
 62
256
370
-1
 48
1.0
  6
BYLAYER
100
AcDbLine
 10
-1.0
 20
-40.0
 30
0.0
 11
-1.0
 21
-1.0
 31
0.0
  0
LINE
  5
7A
100
AcDbEntity
  8
0
 62
256
370
-1
 48
1.0
  6
BYLAYER
100
AcDbLine
 10
-30.0
 20
40.0
 30
0.0
 11
-14.0000000000000018
 21
40.0
 31
0.0
  0
LINE
  5
7B
100
AcDbEntity
  8
0
 62
256
370
-1
 48
1.0
  6
BYLAYER
100
AcDbLine
 10
-30.0
 20
40.0
 30
0.0
 11
-30.0
 21
87.0
 31
0.0
  0
LINE
  5
7C
100
AcDbEntity
  8
0
 62
256
370
-1
 48
1.0
  6
BYLAYER
100
AcDbLine
 10
-30.0
 20
87.0
 30
0.0
 11
-14.0000000000000018
 21
85.0
 31
0.0
  0
LINE
  5
7D
100
AcDbEntity
  8
0
 62
256
370
-1
 48
1.0
  6
BYLAYER
100
AcDbLine
 10
-14.0000000000000018
 20
85.0
 30
0.0
 11
-14.0000000000000018
 21
40.0
 31
0.0
  0
ELLIPSE
  5
7E
100
AcDbEntity
  8
0
 62
256
370
-1
 48
1.0
  6
BYLAYER
100
AcDbEllipse
 10
0.0
 20
0.0
 30
0.0
 11
0.0
 21
0.0
 31
0.0
 40
0.0
 41
0.0
 42
6.2831853071795862
  0
CIRCLE
  5
7F
100
AcDbEntity
  8
0
 62
256
370
-1
 48
1.0
  6
BYLAYER
100
AcDbCircle
 10
38.5
 20
-14.9999999999999982
 30
0.0
 40
2.75
  0
CIRCLE
  5
80
100
AcDbEntity
  8
0
 62
256
370
-1
 48
1.0
  6
BYLAYER
100
AcDbCircle
 10
63.4999999999999929
 20
-14.9999999999999982
 30
0.0
 40
2.75
  0
LINE
  5
81
100
AcDbEntity
  8
0
 62
256
370
-1
 48
1.0
  6
BYLAYER
100
AcDbLine
 10
45.0
 20
-20.0
 30
0.0
 11
57.1715728752538226
 21
-20.0
 31
0.0
  0
LINE
  5
82
100
AcDbEntity
  8
0
 62
256
370
-1
 48
1.0
  6
BYLAYER
100
AcDbLine
 10
59.5150757595082496
 20
-17.5050252531694142
 30
0.0
 11
58.6329268897060132
 21
-11.3299831645537239
 31
0.0
  0
LINE
  5
83
100
AcDbEntity
  8
0
 62
256
370
-1
 48
1.0
  6
BYLAYER
100
AcDbLine
 10
57.1715728752538226
 20
-10.0
 30
0.0
 11
45.0
 21
-10.0
 31
0.0
  0
LINE
  5
84
100
AcDbEntity
  8
0
 62
256
370
-1
 48
1.0
  6
BYLAYER
100
AcDbLine
 10
43.5386459855478023
 20
-11.3299831645537221
 30
0.0
 11
42.6564971157455659
 21
-17.5050252531694142
 31
0.0
  0
CIRCLE
  5
85
100
AcDbEntity
  8
0
 62
256
370
-1
 48
1.0
  6
BYLAYER
100
AcDbCircle
 10
77.0
 20
-14.9999999999999982
 30
0.0
 40
5.5
  0
CIRCLE
  5
86
100
AcDbEntity
  8
0
 62
256
370
-1
 48
1.0
  6
BYLAYER
100
AcDbCircle
 10
90.9999999999999858
 20
-14.9999999999999982
 30
0.0
 40
5.5
  0
CIRCLE
  5
87
100
AcDbEntity
  8
0
 62
256
370
-1
 48
1.0
  6
BYLAYER
100
AcDbCircle
 10
104.9999999999999858
 20
-14.9999999999999982
 30
0.0
 40
5.5
  0
CIRCLE
  5
88
100
AcDbEntity
  8
0
 62
256
370
-1
 48
1.0
  6
BYLAYER
100
AcDbCircle
 10
12.0
 20
-15.0
 30
0.0
 40
4.0
  0
CIRCLE
  5
89
100
AcDbEntity
  8
0
 62
256
370
-1
 48
1.0
  6
BYLAYER
100
AcDbCircle
 10
126.0
 20
-29.0
 30
0.0
 40
5.5
  0
CIRCLE
  5
8A
100
AcDbEntity
  8
0
 62
256
370
-1
 48
1.0
  6
BYLAYER
100
AcDbCircle
 10
139.9999999999999716
 20
-29.0
 30
0.0
 40
5.5
  0
CIRCLE
  5
8B
100
AcDbEntity
  8
0
 62
256
370
-1
 48
1.0
  6
BYLAYER
100
AcDbCircle
 10
181.0
 20
-31.0
 30
0.0
 40
4.0
  0
CIRCLE
  5
8C
100
AcDbEntity
  8
0
 62
256
370
-1
 48
1.0
  6
BYLAYER
100
AcDbCircle
 10
204.0
 20
-26.0
 30
0.0
 40
6.0
  0
LINE
  5
8D
100
AcDbEntity
  8
0
 62
256
370
-1
 48
1.0
  6
BYLAYER
100
AcDbLine
 10
149.9999999999999716
 20
-3.0
 30
0.0
 11
184.0
 21
-3.0
 31
0.0
  0
LINE
  5
8E
100
AcDbEntity
  8
0
 62
256
370
-1
 48
1.0
  6
BYLAYER
100
AcDbLine
 10
184.0
 20
-3.0
 30
0.0
 11
183.9999999999999716
 21
-14.0999999999999996
 31
0.0
  0
LINE
  5
8F
100
AcDbEntity
  8
0
 62
256
370
-1
 48
1.0
  6
BYLAYER
100
AcDbLine
 10
183.9999999999999716
 20
-14.0999999999999996
 30
0.0
 11
150.0
 21
-14.0999999999999996
 31
0.0
  0
LINE
  5
90
100
AcDbEntity
  8
0
 62
256
370
-1
 48
1.0
  6
BYLAYER
100
AcDbLine
 10
150.0
 20
-14.0999999999999996
 30
0.0
 11
149.9999999999999716
 21
-3.0
 31
0.0
  0
LINE
  5
91
100
AcDbEntity
  8
Components
 62
256
370
-1
 48
1.0
  6
BYLAYER
100
AcDbLine
 10
23.0
 20
0.9999999999999999
 30
0.0
 11
140.0
 21
0.9999999999999999
 31
0.0
  0
LINE
  5
92
100
AcDbEntity
  8
Components
 62
256
370
-1
 48
1.0
  6
BYLAYER
100
AcDbLine
 10
140.0
 20
0.9999999999999999
 30
0.0
 11
140.0
 21
101.0
 31
0.0
  0
LINE
  5
93
100
AcDbEntity
  8
Components
 62
256
370
-1
 48
1.0
  6
BYLAYER
100
AcDbLine
 10
140.0
 20
101.0
 30
0.0
 11
23.0
 21
101.0
 31
0.0
  0
LINE
  5
94
100
AcDbEntity
  8
Components
 62
256
370
-1
 48
1.0
  6
BYLAYER
100
AcDbLine
 10
23.0
 20
101.0
 30
0.0
 11
23.0
 21
0.9999999999999999
 31
0.0
  0
LINE
  5
95
100
AcDbEntity
  8
Components
 62
256
370
-1
 48
1.0
  6
BYLAYER
100
AcDbLine
 10
1.0
 20
84.0
 30
0.0
 11
19.9999999999999964
 21
84.0
 31
0.0
  0
LINE
  5
96
100
AcDbEntity
  8
Components
 62
256
370
-1
 48
1.0
  6
BYLAYER
100
AcDbLine
 10
19.9999999999999964
 20
84.0
 30
0.0
 11
19.9999999999999964
 21
41.0000000000000071
 31
0.0
  0
LINE
  5
97
100
AcDbEntity
  8
Components
 62
256
370
-1
 48
1.0
  6
BYLAYER
100
AcDbLine
 10
19.9999999999999964
 20
41.0000000000000071
 30
0.0
 11
1.0
 21
41.0000000000000071
 31
0.0
  0
LINE
  5
98
100
AcDbEntity
  8
Components
 62
256
370
-1
 48
1.0
  6
BYLAYER
100
AcDbLine
 10
1.0
 20
41.0000000000000071
 30
0.0
 11
1.0
 21
84.0
 31
0.0
  0
LINE
  5
99
100
AcDbEntity
  8
0
 62
256
370
-1
 48
1.0
  6
BYLAYER
100
AcDbLine
 10
44.2928932188134539
 20
-19.7071067811865461
 30
0.0
 11
42.9393398282201773
 21
-18.3535533905932695
 31
0.0
  0
LINE
  5
9A
100
AcDbEntity
  8
0
 62
256
370
-1
 48
1.0
  6
BYLAYER
100
AcDbLine
 10
57.8786796564403687
 20
-19.707106781186539
 30
0.0
 11
59.2322330470336453
 21
-18.3535533905932624
 31
0.0
  0
LINE
  5
9B
100
AcDbEntity
  8
0
 62
256
370
-1
 48
1.0
  6
BYLAYER
100
AcDbLine
 10
44.2928932188134539
 20
-10.2928932188134539
 30
0.0
 11
43.8214886980224207
 21
-10.764297739604487
 31
0.0
  0
LINE
  5
9C
100
AcDbEntity
  8
0
 62
256
370
-1
 48
1.0
  6
BYLAYER
100
AcDbLine
 10
57.8786796564403687
 20
-10.2928932188134592
 30
0.0
 11
58.3500841772313947
 21
-10.7642977396044852
 31
0.0
  0
LINE
  5
9D
100
AcDbEntity
  8
0
 62
256
370
-1
 48
1.0
  6
BYLAYER
100
AcDbLine
 10
69.9999999999999858
 20
-39.9999999999999929
 30
0.0
 11
70.0
 21
-37.0
 31
0.0
  0
LINE
  5
9E
100
AcDbEntity
  8
0
 62
256
370
-1
 48
1.0
  6
BYLAYER
100
AcDbLine
 10
70.0
 20
-37.0
 30
0.0
 11
80.0
 21
-37.0
 31
0.0
  0
LINE
  5
9F
100
AcDbEntity
  8
0
 62
256
370
-1
 48
1.0
  6
BYLAYER
100
AcDbLine
 10
80.0
 20
-37.0
 30
0.0
 11
79.9999999999999858
 21
-39.9999999999999929
 31
0.0
  0
LINE
  5
A0
100
AcDbEntity
  8
0
 62
256
370
-1
 48
1.0
  6
BYLAYER
100
AcDbLine
 10
159.9999999999999716
 20
-39.9999999999999929
 30
0.0
 11
160.0
 21
-37.0
 31
0.0
  0
LINE
  5
A1
100
AcDbEntity
  8
0
 62
256
370
-1
 48
1.0
  6
BYLAYER
100
AcDbLine
 10
160.0
 20
-37.0
 30
0.0
 11
170.0
 21
-37.0
 31
0.0
  0
LINE
  5
A2
100
AcDbEntity
  8
0
 62
256
370
-1
 48
1.0
  6
BYLAYER
100
AcDbLine
 10
170.0
 20
-37.0
 30
0.0
 11
170.0
 21
-39.9999999999999929
 31
0.0
  0
LINE
  5
A3
100
AcDbEntity
  8
0
 62
256
370
-1
 48
1.0
  6
BYLAYER
100
AcDbLine
 10
170.0
 20
-39.9999999999999929
 30
0.0
 11
170.0
 21
-39.9999999999999929
 31
0.0
  0
LINE
  5
A4
100
AcDbEntity
  8
0
 62
256
370
-1
 48
1.0
  6
BYLAYER
100
AcDbLine
 10
79.9999999999999858
 20
-39.9999999999999929
 30
0.0
 11
159.9999999999999716
 21
-39.9999999999999929
 31
0.0
  0
LINE
  5
A5
100
AcDbEntity
  8
0
 62
256
370
-1
 48
1.0
  6
BYLAYER
100
AcDbLine
 10
170.0
 20
-39.9999999999999929
 30
0.0
 11
220.9999999999999716
 21
-39.9999999999999858
 31
0.0
  0
CIRCLE
  5
A6
100
AcDbEntity
  8
0
 62
256
370
-1
 48
1.0
  6
BYLAYER
100
AcDbCircle
 10
74.9999999999999858
 20
-31.9999999999999964
 30
0.0
 40
1.25
  0
CIRCLE
  5
A7
100
AcDbEntity
  8
0
 62
256
370
-1
 48
1.0
  6
BYLAYER
100
AcDbCircle
 10
165.0
 20
-31.9999999999999964
 30
0.0
 40
1.25
  0
LINE
  5
A8
100
AcDbEntity
  8
0
 62
256
370
-1
 48
1.0
  6
BYLAYER
100
AcDbLine
 10
-39.9999999999999929
 20
79.9999999999999858
 30
0.0
 11
-50.0
 21
79.9999999999999858
 31
0.0
  0
LINE
  5
A9
100
AcDbEntity
  8
0
 62
256
370
-1
 48
1.0
  6
BYLAYER
100
AcDbLine
 10
-50.0
 20
79.9999999999999858
 30
0.0
 11
-50.0
 21
69.9999999999999858
 31
0.0
  0
LINE
  5
AA
100
AcDbEntity
  8
0
 62
256
370
-1
 48
1.0
  6
BYLAYER
100
AcDbLine
 10
-50.0
 20
69.9999999999999858
 30
0.0
 11
-40.0
 21
69.9999999999999858
 31
0.0
  0
LINE
  5
AB
100
AcDbEntity
  8
0
 62
256
370
-1
 48
1.0
  6
BYLAYER
100
AcDbLine
 10
-39.9999999999999929
 20
82.0
 30
0.0
 11
-40.0
 21
115.0
 31
0.0
  0
LINE
  5
AC
100
AcDbEntity
  8
0
 62
256
370
-1
 48
1.0
  6
BYLAYER
100
AcDbLine
 10
-39.9999999999999929
 20
82.0
 30
0.0
 11
-36.0
 21
82.0
 31
0.0
  0
LINE
  5
AD
100
AcDbEntity
  8
0
 62
256
370
-1
 48
1.0
  6
BYLAYER
100
AcDbLine
 10
-36.0
 20
82.0
 30
0.0
 11
-36.0
 21
79.9999999999999858
 31
0.0
  0
LINE
  5
AE
100
AcDbEntity
  8
0
 62
256
370
-1
 48
1.0
  6
BYLAYER
100
AcDbLine
 10
-36.0
 20
79.9999999999999858
 30
0.0
 11
-39.9999999999999929
 21
79.9999999999999858
 31
0.0
  0
LINE
  5
AF
100
AcDbEntity
  8
0
 62
256
370
-1
 48
1.0
  6
BYLAYER
100
AcDbLine
 10
-39.9999999999999929
 20
68.0
 30
0.0
 11
-36.0
 21
68.0000000000000142
 31
0.0
  0
LINE
  5
B0
100
AcDbEntity
  8
0
 62
256
370
-1
 48
1.0
  6
BYLAYER
100
AcDbLine
 10
-36.0
 20
68.0000000000000142
 30
0.0
 11
-36.0
 21
70.0
 31
0.0
  0
LINE
  5
B1
100
AcDbEntity
  8
0
 62
256
370
-1
 48
1.0
  6
BYLAYER
100
AcDbLine
 10
-36.0
 20
70.0
 30
0.0
 11
-40.0
 21
69.9999999999999858
 31
0.0
  0
LINE
  5
B2
100
AcDbEntity
  8
Bends
 62
256
370
-1
 48
1.0
  6
BYLAYER
100
AcDbLine
 10
-36.9999999999999929
 20
69.9999999999999858
 30
0.0
 11
-37.0
 21
80.0
 31
0.0
  0
LINE
  5
B3
100
AcDbEntity
  8
0
 62
256
370
-1
 48
1.0
  6
BYLAYER
100
AcDbLine
 10
259.9999999999999432
 20
29.9999999999999964
 30
0.0
 11
269.9999999999999432
 21
29.9999999999999964
 31
0.0
  0
LINE
  5
B4
100
AcDbEntity
  8
0
 62
256
370
-1
 48
1.0
  6
BYLAYER
100
AcDbLine
 10
269.9999999999999432
 20
29.9999999999999964
 30
0.0
 11
269.9999999999999432
 21
19.9999999999999964
 31
0.0
  0
LINE
  5
B5
100
AcDbEntity
  8
0
 62
256
370
-1
 48
1.0
  6
BYLAYER
100
AcDbLine
 10
269.9999999999999432
 20
19.9999999999999964
 30
0.0
 11
260.0
 21
19.9999999999999964
 31
0.0
  0
LINE
  5
B6
100
AcDbEntity
  8
0
 62
256
370
-1
 48
1.0
  6
BYLAYER
100
AcDbLine
 10
259.9999999999999432
 20
18.0
 30
0.0
 11
259.9999999999999432
 21
-0.0
 31
0.0
  0
LINE
  5
B7
100
AcDbEntity
  8
0
 62
256
370
-1
 48
1.0
  6
BYLAYER
100
AcDbLine
 10
259.9999999999999432
 20
18.0
 30
0.0
 11
256.0
 21
18.0
 31
0.0
  0
LINE
  5
B8
100
AcDbEntity
  8
0
 62
256
370
-1
 48
1.0
  6
BYLAYER
100
AcDbLine
 10
256.0
 20
18.0
 30
0.0
 11
256.0
 21
19.9999999999999964
 31
0.0
  0
LINE
  5
B9
100
AcDbEntity
  8
0
 62
256
370
-1
 48
1.0
  6
BYLAYER
100
AcDbLine
 10
256.0
 20
19.9999999999999964
 30
0.0
 11
260.0
 21
19.9999999999999964
 31
0.0
  0
LINE
  5
BA
100
AcDbEntity
  8
0
 62
256
370
-1
 48
1.0
  6
BYLAYER
100
AcDbLine
 10
259.9999999999999432
 20
29.9999999999999964
 30
0.0
 11
256.0
 21
30.0
 31
0.0
  0
LINE
  5
BB
100
AcDbEntity
  8
0
 62
256
370
-1
 48
1.0
  6
BYLAYER
100
AcDbLine
 10
256.0
 20
30.0
 30
0.0
 11
256.0
 21
32.0
 31
0.0
  0
LINE
  5
BC
100
AcDbEntity
  8
0
 62
256
370
-1
 48
1.0
  6
BYLAYER
100
AcDbLine
 10
256.0
 20
32.0
 30
0.0
 11
259.9999999999999432
 21
31.9999999999999964
 31
0.0
  0
LINE
  5
BD
100
AcDbEntity
  8
Bends
 62
256
370
-1
 48
1.0
  6
BYLAYER
100
AcDbLine
 10
257.0
 20
20.0
 30
0.0
 11
257.0
 21
30.0
 31
0.0
  0
ARC
  5
BE
100
AcDbEntity
  8
0
 62
256
370
-1
 48
1.0
  6
BYLAYER
100
AcDbCircle
 10
255.0
 20
115.0
 30
0.0
 40
5.0
100
AcDbArc
 50
0.0
 51
90.0
  0
ARC
  5
BF
100
AcDbEntity
  8
0
 62
256
370
-1
 48
1.0
  6
BYLAYER
100
AcDbCircle
 10
-35.0
 20
115.0
 30
0.0
 40
5.0
100
AcDbArc
 50
90.0
 51
180.0
  0
LINE
  5
C0
100
AcDbEntity
  8
0
 62
256
370
-1
 48
1.0
  6
BYLAYER
100
AcDbLine
 10
29.9999999999999964
 20
119.9999999999999858
 30
0.0
 11
29.9999999999999964
 21
126.0
 31
0.0
  0
LINE
  5
C1
100
AcDbEntity
  8
0
 62
256
370
-1
 48
1.0
  6
BYLAYER
100
AcDbLine
 10
29.9999999999999964
 20
126.0
 30
0.0
 11
39.9999999999999929
 21
126.0
 31
0.0
  0
LINE
  5
C2
100
AcDbEntity
  8
0
 62
256
370
-1
 48
1.0
  6
BYLAYER
100
AcDbLine
 10
39.9999999999999929
 20
126.0
 30
0.0
 11
40.0
 21
120.0
 31
0.0
  0
LINE
  5
C3
100
AcDbEntity
  8
0
 62
256
370
-1
 48
1.0
  6
BYLAYER
100
AcDbLine
 10
190.0
 20
119.9999999999999858
 30
0.0
 11
190.0
 21
126.0
 31
0.0
  0
LINE
  5
C4
100
AcDbEntity
  8
0
 62
256
370
-1
 48
1.0
  6
BYLAYER
100
AcDbLine
 10
190.0
 20
126.0
 30
0.0
 11
180.0
 21
126.0
 31
0.0
  0
LINE
  5
C5
100
AcDbEntity
  8
0
 62
256
370
-1
 48
1.0
  6
BYLAYER
100
AcDbLine
 10
180.0
 20
126.0
 30
0.0
 11
180.0
 21
120.0
 31
0.0
  0
LINE
  5
C6
100
AcDbEntity
  8
0
 62
256
370
-1
 48
1.0
  6
BYLAYER
100
AcDbLine
 10
192.0
 20
119.9999999999999858
 30
0.0
 11
220.0
 21
120.0
 31
0.0
  0
LINE
  5
C7
100
AcDbEntity
  8
0
 62
256
370
-1
 48
1.0
  6
BYLAYER
100
AcDbLine
 10
-0.0
 20
120.0
 30
0.0
 11
28.0
 21
119.9999999999999858
 31
0.0
  0
LINE
  5
C8
100
AcDbEntity
  8
0
 62
256
370
-1
 48
1.0
  6
BYLAYER
100
AcDbLine
 10
28.0
 20
119.9999999999999858
 30
0.0
 11
28.0000000000000036
 21
116.0
 31
0.0
  0
LINE
  5
C9
100
AcDbEntity
  8
0
 62
256
370
-1
 48
1.0
  6
BYLAYER
100
AcDbLine
 10
28.0000000000000036
 20
116.0
 30
0.0
 11
30.0
 21
116.0
 31
0.0
  0
LINE
  5
CA
100
AcDbEntity
  8
0
 62
256
370
-1
 48
1.0
  6
BYLAYER
100
AcDbLine
 10
30.0
 20
116.0
 30
0.0
 11
29.9999999999999964
 21
119.9999999999999858
 31
0.0
  0
LINE
  5
CB
100
AcDbEntity
  8
0
 62
256
370
-1
 48
1.0
  6
BYLAYER
100
AcDbLine
 10
40.0
 20
120.0
 30
0.0
 11
40.0
 21
116.0
 31
0.0
  0
LINE
  5
CC
100
AcDbEntity
  8
0
 62
256
370
-1
 48
1.0
  6
BYLAYER
100
AcDbLine
 10
40.0
 20
116.0
 30
0.0
 11
42.0
 21
116.0
 31
0.0
  0
LINE
  5
CD
100
AcDbEntity
  8
0
 62
256
370
-1
 48
1.0
  6
BYLAYER
100
AcDbLine
 10
42.0
 20
116.0
 30
0.0
 11
41.9999999999999929
 21
119.9999999999999858
 31
0.0
  0
LINE
  5
CE
100
AcDbEntity
  8
Bends
 62
256
370
-1
 48
1.0
  6
BYLAYER
100
AcDbLine
 10
29.9999999999999929
 20
117.0
 30
0.0
 11
40.0
 21
117.0
 31
0.0
  0
LINE
  5
CF
100
AcDbEntity
  8
0
 62
256
370
-1
 48
1.0
  6
BYLAYER
100
AcDbLine
 10
31.9999999999999964
 20
119.9999999999999858
 30
0.0
 11
31.9999999999999964
 21
122.0
 31
0.0
  0
LINE
  5
D0
100
AcDbEntity
  8
0
 62
256
370
-1
 48
1.0
  6
BYLAYER
100
AcDbLine
 10
31.9999999999999964
 20
122.0
 30
0.0
 11
38.0
 21
122.0
 31
0.0
  0
LINE
  5
D1
100
AcDbEntity
  8
0
 62
256
370
-1
 48
1.0
  6
BYLAYER
100
AcDbLine
 10
38.0
 20
122.0
 30
0.0
 11
38.0
 21
119.9999999999999858
 31
0.0
  0
LINE
  5
D2
100
AcDbEntity
  8
0
 62
256
370
-1
 48
1.0
  6
BYLAYER
100
AcDbLine
 10
38.0
 20
119.9999999999999858
 30
0.0
 11
31.9999999999999964
 21
119.9999999999999858
 31
0.0
  0
LINE
  5
D3
100
AcDbEntity
  8
0
 62
256
370
-1
 48
1.0
  6
BYLAYER
100
AcDbLine
 10
182.0
 20
119.9999999999999858
 30
0.0
 11
182.0
 21
122.0
 31
0.0
  0
LINE
  5
D4
100
AcDbEntity
  8
0
 62
256
370
-1
 48
1.0
  6
BYLAYER
100
AcDbLine
 10
182.0
 20
122.0
 30
0.0
 11
187.9999999999999716
 21
122.0
 31
0.0
  0
LINE
  5
D5
100
AcDbEntity
  8
0
 62
256
370
-1
 48
1.0
  6
BYLAYER
100
AcDbLine
 10
187.9999999999999716
 20
122.0
 30
0.0
 11
187.9999999999999716
 21
119.9999999999999858
 31
0.0
  0
LINE
  5
D6
100
AcDbEntity
  8
0
 62
256
370
-1
 48
1.0
  6
BYLAYER
100
AcDbLine
 10
187.9999999999999716
 20
119.9999999999999858
 30
0.0
 11
182.0
 21
119.9999999999999858
 31
0.0
  0
LINE
  5
D7
100
AcDbEntity
  8
0
 62
256
370
-1
 48
1.0
  6
BYLAYER
100
AcDbLine
 10
177.9999999999999716
 20
119.9999999999999858
 30
0.0
 11
177.9999999999999716
 21
116.0
 31
0.0
  0
LINE
  5
D8
100
AcDbEntity
  8
0
 62
256
370
-1
 48
1.0
  6
BYLAYER
100
AcDbLine
 10
177.9999999999999716
 20
116.0
 30
0.0
 11
180.0
 21
116.0
 31
0.0
  0
LINE
  5
D9
100
AcDbEntity
  8
0
 62
256
370
-1
 48
1.0
  6
BYLAYER
100
AcDbLine
 10
180.0
 20
116.0
 30
0.0
 11
180.0
 21
120.0
 31
0.0
  0
LINE
  5
DA
100
AcDbEntity
  8
0
 62
256
370
-1
 48
1.0
  6
BYLAYER
100
AcDbLine
 10
190.0
 20
119.9999999999999858
 30
0.0
 11
190.0
 21
116.0000000000000142
 31
0.0
  0
LINE
  5
DB
100
AcDbEntity
  8
0
 62
256
370
-1
 48
1.0
  6
BYLAYER
100
AcDbLine
 10
190.0
 20
116.0000000000000142
 30
0.0
 11
192.0
 21
116.0
 31
0.0
  0
LINE
  5
DC
100
AcDbEntity
  8
0
 62
256
370
-1
 48
1.0
  6
BYLAYER
100
AcDbLine
 10
192.0
 20
116.0
 30
0.0
 11
192.0
 21
119.9999999999999858
 31
0.0
  0
LINE
  5
DD
100
AcDbEntity
  8
Bends
 62
256
370
-1
 48
1.0
  6
BYLAYER
100
AcDbLine
 10
180.0
 20
117.0
 30
0.0
 11
189.9999999999999716
 21
117.0000000000000284
 31
0.0
  0
CIRCLE
  5
DE
100
AcDbEntity
  8
0
 62
256
370
-1
 48
1.0
  6
BYLAYER
100
AcDbCircle
 10
84.0
 20
-22.3999999999999986
 30
0.0
 40
1.7
  0
CIRCLE
  5
DF
100
AcDbEntity
  8
0
 62
256
370
-1
 48
1.0
  6
BYLAYER
100
AcDbCircle
 10
97.9999999999999858
 20
-22.3999999999999986
 30
0.0
 40
1.7
  0
CIRCLE
  5
E0
100
AcDbEntity
  8
0
 62
256
370
-1
 48
1.0
  6
BYLAYER
100
AcDbCircle
 10
26.0
 20
4.0
 30
0.0
 40
1.25
  0
CIRCLE
  5
E1
100
AcDbEntity
  8
0
 62
256
370
-1
 48
1.0
  6
BYLAYER
100
AcDbCircle
 10
137.0
 20
4.0
 30
0.0
 40
1.25
  0
CIRCLE
  5
E2
100
AcDbEntity
  8
0
 62
256
370
-1
 48
1.0
  6
BYLAYER
100
AcDbCircle
 10
26.0
 20
98.0
 30
0.0
 40
1.25
  0
CIRCLE
  5
E3
100
AcDbEntity
  8
0
 62
256
370
-1
 48
1.0
  6
BYLAYER
100
AcDbCircle
 10
137.0
 20
98.0
 30
0.0
 40
1.25
  0
ARC
  5
E4
100
AcDbEntity
  8
0
 62
256
370
-1
 48
1.0
  6
BYLAYER
100
AcDbCircle
 10
45.0
 20
-11.0
 30
0.0
 40
1.0
100
AcDbArc
 50
90.0
 51
135.0
  0
ARC
  5
E5
100
AcDbEntity
  8
0
 62
256
370
-1
 48
1.0
  6
BYLAYER
100
AcDbCircle
 10
57.1715728752538226
 20
-11.0000000000000018
 30
0.0
 40
1.0
100
AcDbArc
 50
44.9999999999999147
 51
90.0
  0
ARC
  5
E6
100
AcDbEntity
  8
0
 62
256
370
-1
 48
1.0
  6
BYLAYER
100
AcDbCircle
 10
44.5285954792089598
 20
-11.4714045207910296
 30
0.0
 40
1.0
100
AcDbArc
 50
134.9999999999999432
 51
171.8698976458440484
  0
ARC
  5
E7
100
AcDbEntity
  8
0
 62
256
370
-1
 48
1.0
  6
BYLAYER
100
AcDbCircle
 10
43.6464466094067234
 20
-17.6464466094067234
 30
0.0
 40
1.0
100
AcDbArc
 50
171.8698976458439631
 51
225.0
  0
ARC
  5
E8
100
AcDbEntity
  8
0
 62
256
370
-1
 48
1.0
  6
BYLAYER
100
AcDbCircle
 10
45.0
 20
-19.0
 30
0.0
 40
1.0
100
AcDbArc
 50
225.0
 51
270.0
  0
ARC
  5
E9
100
AcDbEntity
  8
0
 62
256
370
-1
 48
1.0
  6
BYLAYER
100
AcDbCircle
 10
57.1715728752538226
 20
-19.0
 30
0.0
 40
1.0
100
AcDbArc
 50
270.0
 51
315.0000000000001705
  0
ARC
  5
EA
100
AcDbEntity
  8
0
 62
256
370
-1
 48
1.0
  6
BYLAYER
100
AcDbCircle
 10
58.5251262658470992
 20
-17.6464466094067234
 30
0.0
 40
1.0
100
AcDbArc
 50
315.0000000000001705
 51
8.1301023541560511
  0
ARC
  5
EB
100
AcDbEntity
  8
0
 62
256
370
-1
 48
1.0
  6
BYLAYER
100
AcDbCircle
 10
57.6429773960448415
 20
-11.4714045207910331
 30
0.0
 40
1.0
100
AcDbArc
 50
8.1301023541559605
 51
44.9999999999998579
  0
CIRCLE
  5
EC
100
AcDbEntity
  8
0
 62
256
370
-1
 48
1.0
  6
BYLAYER
100
AcDbCircle
 10
133.0
 20
-22.0
 30
0.0
 40
1.7
  0
CIRCLE
  5
ED
100
AcDbEntity
  8
0
 62
256
370
-1
 48
1.0
  6
BYLAYER
100
AcDbCircle
 10
133.0
 20
-36.0
 30
0.0
 40
1.7
  0
LINE
  5
EE
100
AcDbEntity
  8
Measure
 62
256
370
-1
 48
1.0
  6
BYLAYER
100
AcDbLine
 10
82.5
 20
-15.0
 30
0.0
 11
85.4999999999999858
 21
-15.0
 31
0.0
  0
LINE
  5
EF
100
AcDbEntity
  8
Measure
 62
256
370
-1
 48
1.0
  6
BYLAYER
100
AcDbLine
 10
84.0
 20
-15.0
 30
0.0
 11
84.0
 21
-27.5776314822121762
 31
0.0
  0
LINE
  5
F0
100
AcDbEntity
  8
Measure
 62
256
370
-1
 48
1.0
  6
BYLAYER
100
AcDbLine
 10
97.9999999999999858
 20
-14.9999999999999982
 30
0.0
 11
97.9999999999999858
 21
-27.5776314822121691
 31
0.0
  0
LINE
  5
F1
100
AcDbEntity
  8
Measure
 62
256
370
-1
 48
1.0
  6
BYLAYER
100
AcDbLine
 10
96.4999999999999858
 20
-14.9999999999999982
 30
0.0
 11
99.4999999999999858
 21
-14.9999999999999982
 31
0.0
  0
LINE
  5
F2
100
AcDbEntity
  8
Measure
 62
256
370
-1
 48
1.0
  6
BYLAYER
100
AcDbLine
 10
131.5
 20
-29.0
 30
0.0
 11
134.4999999999999716
 21
-29.0
 31
0.0
  0
LINE
  5
F3
100
AcDbEntity
  8
Measure
 62
256
370
-1
 48
1.0
  6
BYLAYER
100
AcDbLine
 10
134.4999999999999716
 20
-29.0
 30
0.0
 11
133.0
 21
-29.0
 31
0.0
  0
LINE
  5
F4
100
AcDbEntity
  8
Measure
 62
256
370
-1
 48
1.0
  6
BYLAYER
100
AcDbLine
 10
133.0
 20
-29.0
 30
0.0
 11
133.0
 21
-19.0
 31
0.0
  0
LINE
  5
F5
100
AcDbEntity
  8
Measure
 62
256
370
-1
 48
1.0
  6
BYLAYER
100
AcDbLine
 10
133.0
 20
-29.0
 30
0.0
 11
133.0
 21
-39.848455386369821
 31
0.0
  0
MTEXT
  5
F6
100
AcDbEntity
  8
Labels
 62
256
370
-1
 48
1.0
  6
BYLAYER
100
AcDbMText
 10
159.5
 20
-8.5
 30
0.0
 40
4.0
 41
0.0
 71
5
 72
1
  1
HDMI
  7
textstyle15
 50
0.0
 73
2
 44
1.0
  0
MTEXT
  5
F7
100
AcDbEntity
  8
Labels
 62
256
370
-1
 48
1.0
  6
BYLAYER
100
AcDbMText
 10
181.0
 20
-31.0
 30
0.0
 40
1.5
 41
0.0
 71
5
 72
1
  1
3.5mm
  7
textstyle14
 50
0.0
 73
2
 44
1.0
  0
MTEXT
  5
F8
100
AcDbEntity
  8
Labels
 62
256
370
-1
 48
1.0
  6
BYLAYER
100
AcDbMText
 10
176.0000000000001421
 20
-8.5
 30
0.0
 40
1.5
 41
0.0
 71
5
 72
1
  1
3.5mm
  7
textstyle13
 50
0.0
 73
2
 44
1.0
  0
MTEXT
  5
F9
100
AcDbEntity
  8
Labels
 62
256
370
-1
 48
1.0
  6
BYLAYER
100
AcDbMText
 10
12.0000000000001759
 20
-15.0
 30
0.0
 40
1.5
 41
0.0
 71
5
 72
1
  1
3.5mm
  7
textstyle12
 50
0.0
 73
2
 44
1.0
  0
MTEXT
  5
FA
100
AcDbEntity
  8
Labels
 62
256
370
-1
 48
1.0
  6
BYLAYER
100
AcDbMText
 10
51.0
 20
-15.0
 30
0.0
 40
4.0
 41
0.0
 71
5
 72
1
  1
VGA
  7
textstyle11
 50
0.0
 73
2
 44
1.0
  0
MTEXT
  5
FB
100
AcDbEntity
  8
Labels
 62
256
370
-1
 48
1.0
  6
BYLAYER
100
AcDbMText
 10
204.3415063973625365
 20
-24.3944053104271106
 30
0.0
 40
3.0
 41
0.0
 71
5
 72
1
  1
PWR
  7
textstyle10
 50
0.0
 73
2
 44
1.0
  0
MTEXT
  5
FC
100
AcDbEntity
  8
Labels
 62
256
370
-1
 48
1.0
  6
BYLAYER
100
AcDbMText
 10
204.0
 20
-28.0000000000000036
 30
0.0
 40
2.0
 41
0.0
 71
5
 72
1
  1
5.5x2.1
  7
textstyle9
 50
0.0
 73
2
 44
1.0
  0
MTEXT
  5
FD
100
AcDbEntity
  8
Labels
 62
256
370
-1
 48
1.0
  6
BYLAYER
100
AcDbMText
 10
126.0
 20
-29.0
 30
0.0
 40
2.0
 41
0.0
 71
5
 72
1
  1
Audio\PL
  7
textstyle8
 50
0.0
 73
2
 44
1.0
  0
MTEXT
  5
FE
100
AcDbEntity
  8
Labels
 62
256
370
-1
 48
1.0
  6
BYLAYER
100
AcDbMText
 10
139.9999999999999716
 20
-29.0
 30
0.0
 40
2.0
 41
0.0
 71
5
 72
1
  1
Audio\PR
  7
textstyle7
 50
0.0
 73
2
 44
1.0
  0
MTEXT
  5
FF
100
AcDbEntity
  8
Labels
 62
256
370
-1
 48
1.0
  6
BYLAYER
100
AcDbMText
 10
104.9999999999999858
 20
-14.9999999999999982
 30
0.0
 40
2.0
 41
0.0
 71
5
 72
1
  1
Pr
  7
textstyle6
 50
0.0
 73
2
 44
1.0
  0
MTEXT
  5
100
100
AcDbEntity
  8
Labels
 62
256
370
-1
 48
1.0
  6
BYLAYER
100
AcDbMText
 10
77.0
 20
-14.9999999999999982
 30
0.0
 40
2.0
 41
0.0
 71
5
 72
1
  1
Y
  7
textstyle5
 50
0.0
 73
2
 44
1.0
  0
MTEXT
  5
101
100
AcDbEntity
  8
Labels
 62
256
370
-1
 48
1.0
  6
BYLAYER
100
AcDbMText
 10
90.9999999999999858
 20
-14.9999999999999982
 30
0.0
 40
2.0
 41
0.0
 71
5
 72
1
  1
Pb
  7
textstyle4
 50
0.0
 73
2
 44
1.0
  0
DIMENSION
  5
102
100
AcDbEntity
  8
Measure
 62
256
370
-1
 48
1.0
  6
BYLAYER
100
AcDbDimension
 10
38.5
 20
-28.0
 30
0.0
 11
51.0
 21
-25.6187499999999986
 31
0.0
 70
1
 71
8
 72
2
 74
0
 75
0
 41
1.0
 42
0.0
  1

  3
Standard
100
AcDbAlignedDimension
 13
38.5
 23
-14.9999999999999982
 33
0.0
 14
63.4999999999999929
 24
-14.9999999999999982
 34
0.0
1001
ACAD
1000
DSTYLE
1002
{
1070
144
1040
1.0
1070
40
1040
25.3999999999999986
1002
}
  0
DIMENSION
  5
103
100
AcDbEntity
  8
Measure
 62
256
370
-1
 48
1.0
  6
BYLAYER
100
AcDbDimension
 10
74.9999999999999858
 20
-49.0
 30
0.0
 11
120.0
 21
-46.6187499999999986
 31
0.0
 70
1
 71
8
 72
2
 74
0
 75
0
 41
1.0
 42
0.0
  1

  3
Standard
100
AcDbAlignedDimension
 13
74.9999999999999858
 23
-31.9999999999999964
 33
0.0
 14
165.0
 24
-31.9999999999999964
 34
0.0
1001
ACAD
1000
DSTYLE
1002
{
1070
144
1040
1.0
1070
40
1040
25.3999999999999986
1002
}
  0
DIMENSION
  5
104
100
AcDbEntity
  8
Measure
 62
256
370
-1
 48
1.0
  6
BYLAYER
100
AcDbDimension
 10
77.0
 20
-5.0
 30
0.0
 11
91.0
 21
-2.6187500000000004
 31
0.0
 70
1
 71
8
 72
2
 74
0
 75
0
 41
1.0
 42
0.0
  1

  3
Standard
100
AcDbAlignedDimension
 13
77.0
 23
-14.9999999999999982
 33
0.0
 14
104.9999999999999858
 24
-14.9999999999999982
 34
0.0
1001
ACAD
1000
DSTYLE
1002
{
1070
144
1040
1.0
1070
40
1040
25.3999999999999986
1002
}
  0
DIMENSION
  5
105
100
AcDbEntity
  8
Measure
 62
256
370
-1
 48
1.0
  6
BYLAYER
100
AcDbDimension
 10
90.9999999999999858
 20
-35.0
 30
0.0
 11
97.9999999999999858
 21
-32.6187499999999986
 31
0.0
 70
1
 71
8
 72
2
 74
0
 75
0
 41
1.0
 42
0.0
  1

  3
Standard
100
AcDbAlignedDimension
 13
90.9999999999999858
 23
-14.9999999999999982
 33
0.0
 14
104.9999999999999858
 24
-14.9999999999999982
 34
0.0
1001
ACAD
1000
DSTYLE
1002
{
1070
144
1040
1.0
1070
40
1040
25.3999999999999986
1002
}
  0
DIMENSION
  5
106
100
AcDbEntity
  8
Measure
 62
256
370
-1
 48
1.0
  6
BYLAYER
100
AcDbDimension
 10
77.0
 20
-35.0
 30
0.0
 11
84.0
 21
-32.6187499999999986
 31
0.0
 70
1
 71
8
 72
2
 74
0
 75
0
 41
1.0
 42
0.0
  1

  3
Standard
100
AcDbAlignedDimension
 13
77.0
 23
-14.9999999999999982
 33
0.0
 14
90.9999999999999858
 24
-14.9999999999999982
 34
0.0
1001
ACAD
1000
DSTYLE
1002
{
1070
144
1040
1.0
1070
40
1040
25.3999999999999986
1002
}
  0
MTEXT
  5
107
100
AcDbEntity
  8
Labels
 62
256
370
-1
 48
1.0
  6
BYLAYER
100
AcDbMText
 10
-22.0
 20
64.0
 30
0.0
 40
4.0
 41
0.0
 71
5
 72
1
  1
SCART
  7
textstyle3
 50
90.0
 73
2
 44
1.0
  0
DIMENSION
  5
108
100
AcDbEntity
  8
Measure
 62
256
370
-1
 48
1.0
  6
BYLAYER
100
AcDbDimension
 10
126.0
 20
-12.0
 30
0.0
 11
133.0
 21
-9.6187500000000004
 31
0.0
 70
1
 71
8
 72
2
 74
0
 75
0
 41
1.0
 42
0.0
  1

  3
Standard
100
AcDbAlignedDimension
 13
126.0
 23
-29.0
 33
0.0
 14
139.9999999999999716
 24
-29.0
 34
0.0
1001
ACAD
1000
DSTYLE
1002
{
1070
144
1040
1.0
1070
40
1040
25.3999999999999986
1002
}
  0
DIMENSION
  5
109
100
AcDbEntity
  8
Measure
 62
256
370
-1
 48
1.0
  6
BYLAYER
100
AcDbDimension
 10
193.0000000000000284
 20
-3.0000000000000262
 30
0.0
 11
190.6187500000000057
 21
-8.5500000000000185
 31
0.0
 70
1
 71
8
 72
2
 74
0
 75
0
 41
1.0
 42
0.0
  1

  3
Standard
100
AcDbAlignedDimension
 13
183.9999999999999716
 23
-3.0
 33
0.0
 14
183.9999999999999432
 24
-14.0999999999999996
 34
0.0
1001
ACAD
1000
DSTYLE
1002
{
1070
144
1040
1.0
1070
40
1040
25.3999999999999986
1002
}
  0
DIMENSION
  5
10A
100
AcDbEntity
  8
Measure
 62
256
370
-1
 48
1.0
  6
BYLAYER
100
AcDbDimension
 10
149.9999999999999432
 20
7.0
 30
0.0
 11
166.9999999999999432
 21
9.3812499999999996
 31
0.0
 70
1
 71
8
 72
2
 74
0
 75
0
 41
1.0
 42
0.0
  1

  3
Standard
100
AcDbAlignedDimension
 13
149.9999999999999432
 23
-3.0
 33
0.0
 14
183.9999999999999716
 24
-3.0
 34
0.0
1001
ACAD
1000
DSTYLE
1002
{
1070
144
1040
1.0
1070
40
1040
25.3999999999999986
1002
}
  0
DIMENSION
  5
10B
100
AcDbEntity
  8
Measure
 62
256
370
-1
 48
1.0
  6
BYLAYER
100
AcDbDimension
 10
177.0
 20
-23.0
 30
0.0
 11
181.0
 21
-20.6187499999999986
 31
0.0
 70
1
 71
8
 72
2
 74
0
 75
0
 41
1.0
 42
0.0
  1

  3
Standard
100
AcDbAlignedDimension
 13
177.0
 23
-31.0
 33
0.0
 14
185.0
 24
-31.0
 34
0.0
1001
ACAD
1000
DSTYLE
1002
{
1070
144
1040
1.0
1070
40
1040
25.3999999999999986
1002
}
  0
DIMENSION
  5
10C
100
AcDbEntity
  8
Measure
 62
256
370
-1
 48
1.0
  6
BYLAYER
100
AcDbDimension
 10
198.0
 20
-15.0
 30
0.0
 11
204.0
 21
-12.6187500000000004
 31
0.0
 70
1
 71
8
 72
2
 74
0
 75
0
 41
1.0
 42
0.0
  1

  3
Standard
100
AcDbAlignedDimension
 13
198.0
 23
-26.0
 33
0.0
 14
210.0
 24
-26.0
 34
0.0
1001
ACAD
1000
DSTYLE
1002
{
1070
144
1040
1.0
1070
40
1040
25.3999999999999986
1002
}
  0
DIMENSION
  5
10D
100
AcDbEntity
  8
Measure
 62
256
370
-1
 48
1.0
  6
BYLAYER
100
AcDbDimension
 10
153.0
 20
-23.5000000000000036
 30
0.0
 11
150.6187500000000057
 21
-29.0
 31
0.0
 70
1
 71
8
 72
2
 74
0
 75
0
 41
1.0
 42
0.0
  1

  3
Standard
100
AcDbAlignedDimension
 13
139.9999999999999716
 23
-23.5
 33
0.0
 14
139.9999999999999716
 24
-34.5
 34
0.0
1001
ACAD
1000
DSTYLE
1002
{
1070
144
1040
1.0
1070
40
1040
25.3999999999999986
1002
}
  0
DIMENSION
  5
10E
100
AcDbEntity
  8
Measure
 62
256
370
-1
 48
1.0
  6
BYLAYER
100
AcDbDimension
 10
31.0
 20
-12.2499999999999964
 30
0.0
 11
28.6187499999999986
 21
-21.0131944444444407
 31
0.0
 70
1
 71
8
 72
2
 74
0
 75
0
 41
1.0
 42
0.0
  1

  3
Standard
100
AcDbAlignedDimension
 13
38.5
 23
-12.2499999999999982
 33
0.0
 14
38.5
 24
-17.7499999999999964
 34
0.0
1001
ACAD
1000
DSTYLE
1002
{
1070
144
1040
1.0
1070
40
1040
25.3999999999999986
1002
}
  0
DIMENSION
  5
10F
100
AcDbEntity
  8
Measure
 62
256
370
-1
 48
1.0
  6
BYLAYER
100
AcDbDimension
 10
8.0
 20
-27.0
 30
0.0
 11
12.0
 21
-24.6187499999999986
 31
0.0
 70
1
 71
8
 72
2
 74
0
 75
0
 41
1.0
 42
0.0
  1

  3
Standard
100
AcDbAlignedDimension
 13
8.0
 23
-15.0
 33
0.0
 14
16.0
 24
-15.0
 34
0.0
1001
ACAD
1000
DSTYLE
1002
{
1070
144
1040
1.0
1070
40
1040
25.3999999999999986
1002
}
  0
DIMENSION
  5
110
100
AcDbEntity
  8
Measure
 62
256
370
-1
 48
1.0
  6
BYLAYER
100
AcDbDimension
 10
-30.0
 20
23.9377245696665426
 30
0.0
 11
-22.0
 21
26.318974569666544
 31
0.0
 70
1
 71
8
 72
2
 74
0
 75
0
 41
1.0
 42
0.0
  1

  3
Standard
100
AcDbAlignedDimension
 13
-30.0
 23
40.0
 33
0.0
 14
-14.0000000000000018
 24
40.0
 34
0.0
1001
ACAD
1000
DSTYLE
1002
{
1070
144
1040
1.0
1070
40
1040
25.3999999999999986
1002
}
  0
DIMENSION
  5
111
100
AcDbEntity
  8
Measure
 62
256
370
-1
 48
1.0
  6
BYLAYER
100
AcDbDimension
 10
-5.4407429780401912
 20
85.0
 30
0.0
 11
-7.8219929780401909
 21
62.5
 31
0.0
 70
1
 71
8
 72
2
 74
0
 75
0
 41
1.0
 42
0.0
  1

  3
Standard
100
AcDbAlignedDimension
 13
-14.0000000000000018
 23
85.0
 33
0.0
 14
-14.0000000000000018
 24
40.0
 34
0.0
1001
ACAD
1000
DSTYLE
1002
{
1070
144
1040
1.0
1070
40
1040
25.3999999999999986
1002
}
  0
DIMENSION
  5
112
100
AcDbEntity
  8
Measure
 62
256
370
-1
 48
1.0
  6
BYLAYER
100
AcDbDimension
 10
-56.3870307959456625
 20
87.0
 30
0.0
 11
-58.7682807959456639
 21
63.5
 31
0.0
 70
1
 71
8
 72
2
 74
0
 75
0
 41
1.0
 42
0.0
  1

  3
Standard
100
AcDbAlignedDimension
 13
-30.0
 23
87.0
 33
0.0
 14
-30.0
 24
40.0
 34
0.0
1001
ACAD
1000
DSTYLE
1002
{
1070
144
1040
1.0
1070
40
1040
25.3999999999999986
1002
}
  0
DIMENSION
  5
113
100
AcDbEntity
  8
Measure
 62
256
370
-1
 48
1.0
  6
BYLAYER
100
AcDbDimension
 10
280.0
 20
29.9999999999999929
 30
0.0
 11
277.6187499999999773
 21
24.9999999999999929
 31
0.0
 70
1
 71
8
 72
2
 74
0
 75
0
 41
1.0
 42
0.0
  1

  3
Standard
100
AcDbAlignedDimension
 13
269.9999999999999432
 23
29.9999999999999964
 33
0.0
 14
269.9999999999999432
 24
19.9999999999999964
 34
0.0
1001
ACAD
1000
DSTYLE
1002
{
1070
144
1040
1.0
1070
40
1040
25.3999999999999986
1002
}
  0
DIMENSION
  5
114
100
AcDbEntity
  8
Measure
 62
256
370
-1
 48
1.0
  6
BYLAYER
100
AcDbDimension
 10
74.9999999999999858
 20
-49.0
 30
0.0
 11
36.9999999999999929
 21
-46.6187499999999986
 31
0.0
 70
1
 71
8
 72
2
 74
0
 75
0
 41
1.0
 42
0.0
  1

  3
Standard
100
AcDbAlignedDimension
 13
74.9999999999999858
 23
-31.9999999999999964
 33
0.0
 14
-1.0
 24
-31.9999999999999964
 34
0.0
1001
ACAD
1000
DSTYLE
1002
{
1070
144
1040
1.0
1070
40
1040
25.3999999999999986
1002
}
  0
DIMENSION
  5
115
100
AcDbEntity
  8
Measure
 62
256
370
-1
 48
1.0
  6
BYLAYER
100
AcDbDimension
 10
164.9983266991276025
 20
-48.9999999176489212
 30
0.0
 11
192.998561084286564
 21
-46.6215059541751202
 31
0.0
 70
1
 71
8
 72
2
 74
0
 75
0
 41
1.0
 42
0.0
  1

  3
Standard
100
AcDbAlignedDimension
 13
165.0
 23
-31.9999999999999964
 33
0.0
 14
221.0
 24
-32.0055120499819807
 34
0.0
1001
ACAD
1000
DSTYLE
1002
{
1070
144
1040
1.0
1070
40
1040
25.3999999999999986
1002
}
  0
DIMENSION
  5
116
100
AcDbEntity
  8
Measure
 62
256
370
-1
 48
1.0
  6
BYLAYER
100
AcDbDimension
 10
65.9999999999999858
 20
-32.0000000000000142
 30
0.0
 11
63.6187499999999986
 21
-36.0000000000000213
 31
0.0
 70
1
 71
8
 72
2
 74
0
 75
0
 41
1.0
 42
0.0
  1

  3
Standard
100
AcDbAlignedDimension
 13
74.9999999999999858
 23
-31.9999999999999964
 33
0.0
 14
75.0
 24
-40.0
 34
0.0
1001
ACAD
1000
DSTYLE
1002
{
1070
144
1040
1.0
1070
40
1040
25.3999999999999986
1002
}
  0
DIMENSION
  5
117
100
AcDbEntity
  8
Measure
 62
256
370
-1
 48
1.0
  6
BYLAYER
100
AcDbDimension
 10
34.9999999999999929
 20
133.0
 30
0.0
 11
17.4999999999999964
 21
135.3812499999999943
 31
0.0
 70
1
 71
8
 72
2
 74
0
 75
0
 41
1.0
 42
0.0
  1

  3
Standard
100
AcDbAlignedDimension
 13
34.9999999999999929
 23
126.0
 33
0.0
 14
0.0
 24
126.0
 34
0.0
1001
ACAD
1000
DSTYLE
1002
{
1070
144
1040
1.0
1070
40
1040
25.3999999999999986
1002
}
  0
DIMENSION
  5
118
100
AcDbEntity
  8
Measure
 62
256
370
-1
 48
1.0
  6
BYLAYER
100
AcDbDimension
 10
29.9999999999999964
 20
108.9999999999999858
 30
0.0
 11
35.0
 21
111.3812499999999943
 31
0.0
 70
1
 71
8
 72
2
 74
0
 75
0
 41
1.0
 42
0.0
  1

  3
Standard
100
AcDbAlignedDimension
 13
29.9999999999999964
 23
118.9999999999999858
 33
0.0
 14
40.0
 24
119.0
 34
0.0
1001
ACAD
1000
DSTYLE
1002
{
1070
144
1040
1.0
1070
40
1040
25.3999999999999986
1002
}
  0
DIMENSION
  5
119
100
AcDbEntity
  8
Measure
 62
256
370
-1
 48
1.0
  6
BYLAYER
100
AcDbDimension
 10
34.9999999999999929
 20
132.8444003286057296
 30
0.0
 11
110.0
 21
135.2256503286057239
 31
0.0
 70
1
 71
8
 72
2
 74
0
 75
0
 41
1.0
 42
0.0
  1

  3
Standard
100
AcDbAlignedDimension
 13
34.9999999999999929
 23
126.0
 33
0.0
 14
185.0
 24
126.0
 34
0.0
1001
ACAD
1000
DSTYLE
1002
{
1070
144
1040
1.0
1070
40
1040
25.3999999999999986
1002
}
  0
DIMENSION
  5
11A
100
AcDbEntity
  8
Measure
 62
256
370
-1
 48
1.0
  6
BYLAYER
100
AcDbDimension
 10
182.0
 20
107.0
 30
0.0
 11
185.0
 21
109.3812499999999943
 31
0.0
 70
1
 71
8
 72
2
 74
0
 75
0
 41
1.0
 42
0.0
  1

  3
Standard
100
AcDbAlignedDimension
 13
182.0
 23
121.0
 33
0.0
 14
187.9999999999999716
 24
121.0
 34
0.0
1001
ACAD
1000
DSTYLE
1002
{
1070
144
1040
1.0
1070
40
1040
25.3999999999999986
1002
}
  0
DIMENSION
  5
11B
100
AcDbEntity
  8
Measure
 62
256
370
-1
 48
1.0
  6
BYLAYER
100
AcDbDimension
 10
31.9999999999999964
 20
124.0
 30
0.0
 11
15.9999999999999982
 21
126.3812499999999943
 31
0.0
 70
1
 71
8
 72
2
 74
0
 75
0
 41
1.0
 42
0.0
  1

  3
Standard
100
AcDbAlignedDimension
 13
31.9999999999999964
 23
121.0
 33
0.0
 14
0.0
 24
121.0
 34
0.0
1001
ACAD
1000
DSTYLE
1002
{
1070
144
1040
1.0
1070
40
1040
25.3999999999999986
1002
}
  0
DIMENSION
  5
11C
100
AcDbEntity
  8
Measure
 62
256
370
-1
 48
1.0
  6
BYLAYER
100
AcDbDimension
 10
187.9999999999999716
 20
124.0
 30
0.0
 11
204.0
 21
126.3812499999999943
 31
0.0
 70
1
 71
8
 72
2
 74
0
 75
0
 41
1.0
 42
0.0
  1

  3
Standard
100
AcDbAlignedDimension
 13
187.9999999999999716
 23
121.0
 33
0.0
 14
220.0
 24
121.0
 34
0.0
1001
ACAD
1000
DSTYLE
1002
{
1070
144
1040
1.0
1070
40
1040
25.3999999999999986
1002
}
  0
DIMENSION
  5
11D
100
AcDbEntity
  8
Measure
 62
256
370
-1
 48
1.0
  6
BYLAYER
100
AcDbDimension
 10
185.0
 20
133.0
 30
0.0
 11
202.5
 21
135.3812499999999943
 31
0.0
 70
1
 71
8
 72
2
 74
0
 75
0
 41
1.0
 42
0.0
  1

  3
Standard
100
AcDbAlignedDimension
 13
185.0
 23
126.0
 33
0.0
 14
220.0
 24
126.0
 34
0.0
1001
ACAD
1000
DSTYLE
1002
{
1070
144
1040
1.0
1070
40
1040
25.3999999999999986
1002
}
  0
DIMENSION
  5
11E
100
AcDbEntity
  8
Measure
 62
256
370
-1
 48
1.0
  6
BYLAYER
100
AcDbDimension
 10
282.4405078018926929
 20
-0.00000000000001
 30
0.0
 11
280.059257801892727
 21
59.9999999999999858
 31
0.0
 70
1
 71
8
 72
2
 74
0
 75
0
 41
1.0
 42
0.0
  1

  3
Standard
100
AcDbAlignedDimension
 13
259.9999999999999432
 23
-0.0
 33
0.0
 14
260.0
 24
120.0
 34
0.0
1001
ACAD
1000
DSTYLE
1002
{
1070
144
1040
1.0
1070
40
1040
25.3999999999999986
1002
}
  0
DIMENSION
  5
11F
100
AcDbEntity
  8
Measure
 62
256
370
-1
 48
1.0
  6
BYLAYER
100
AcDbDimension
 10
0.0000000000000092
 20
150.1087538043725544
 30
0.0
 11
110.0
 21
152.4900038043725488
 31
0.0
 70
1
 71
8
 72
2
 74
0
 75
0
 41
1.0
 42
0.0
  1

  3
Standard
100
AcDbAlignedDimension
 13
-0.0
 23
120.0
 33
0.0
 14
220.0
 24
119.9999999999999858
 34
0.0
1001
ACAD
1000
DSTYLE
1002
{
1070
144
1040
1.0
1070
40
1040
25.3999999999999986
1002
}
  0
DIMENSION
  5
120
100
AcDbEntity
  8
Measure
 62
256
370
-1
 48
1.0
  6
BYLAYER
100
AcDbDimension
 10
232.9646644090605321
 20
-0.0000000000000147
 30
0.0
 11
230.5834144090605093
 21
-20.0000000000000071
 31
0.0
 70
1
 71
8
 72
2
 74
0
 75
0
 41
1.0
 42
0.0
  1

  3
Standard
100
AcDbAlignedDimension
 13
220.0
 23
-0.0
 33
0.0
 14
219.9999999999999716
 24
-39.9999999999999929
 34
0.0
1001
ACAD
1000
DSTYLE
1002
{
1070
144
1040
1.0
1070
40
1040
25.3999999999999986
1002
}
  0
DIMENSION
  5
121
100
AcDbEntity
  8
Measure
 62
256
370
-1
 48
1.0
  6
BYLAYER
100
AcDbDimension
 10
0.0000000000000002
 20
12.0
 30
0.0
 11
11.5
 21
14.3812499999999996
 31
0.0
 70
1
 71
8
 72
2
 74
0
 75
0
 41
1.0
 42
0.0
  1

  3
Standard
100
AcDbAlignedDimension
 13
0.0
 23
8.0
 33
0.0
 14
23.0
 24
8.0
 34
0.0
1001
ACAD
1000
DSTYLE
1002
{
1070
144
1040
1.0
1070
40
1040
25.3999999999999986
1002
}
  0
LINE
  5
122
100
AcDbEntity
  8
0
 62
256
370
-1
 48
1.0
  6
BYLAYER
100
AcDbLine
 10
257.0
 20
40.0
 30
0.0
 11
223.0
 21
40.0
 31
0.0
  0
LINE
  5
123
100
AcDbEntity
  8
0
 62
256
370
-1
 48
1.0
  6
BYLAYER
100
AcDbLine
 10
257.0
 20
38.0
 30
0.0
 11
223.0
 21
38.0
 31
0.0
  0
LINE
  5
124
100
AcDbEntity
  8
0
 62
256
370
-1
 48
1.0
  6
BYLAYER
100
AcDbLine
 10
257.0
 20
42.0
 30
0.0
 11
223.0
 21
42.0
 31
0.0
  0
LINE
  5
125
100
AcDbEntity
  8
0
 62
256
370
-1
 48
1.0
  6
BYLAYER
100
AcDbLine
 10
257.0
 20
44.0
 30
0.0
 11
223.0
 21
44.0
 31
0.0
  0
LINE
  5
126
100
AcDbEntity
  8
0
 62
256
370
-1
 48
1.0
  6
BYLAYER
100
AcDbLine
 10
257.0
 20
46.0
 30
0.0
 11
223.0
 21
46.0
 31
0.0
  0
LINE
  5
127
100
AcDbEntity
  8
0
 62
256
370
-1
 48
1.0
  6
BYLAYER
100
AcDbLine
 10
257.0
 20
50.0
 30
0.0
 11
223.0
 21
50.0
 31
0.0
  0
LINE
  5
128
100
AcDbEntity
  8
0
 62
256
370
-1
 48
1.0
  6
BYLAYER
100
AcDbLine
 10
257.0
 20
48.0
 30
0.0
 11
223.0
 21
48.0
 31
0.0
  0
LINE
  5
129
100
AcDbEntity
  8
0
 62
256
370
-1
 48
1.0
  6
BYLAYER
100
AcDbLine
 10
257.0
 20
52.0
 30
0.0
 11
223.0
 21
52.0
 31
0.0
  0
LINE
  5
12A
100
AcDbEntity
  8
0
 62
256
370
-1
 48
1.0
  6
BYLAYER
100
AcDbLine
 10
257.0
 20
54.0
 30
0.0
 11
223.0
 21
54.0
 31
0.0
  0
LINE
  5
12B
100
AcDbEntity
  8
0
 62
256
370
-1
 48
1.0
  6
BYLAYER
100
AcDbLine
 10
257.0
 20
56.0
 30
0.0
 11
223.0
 21
56.0
 31
0.0
  0
LINE
  5
12C
100
AcDbEntity
  8
0
 62
256
370
-1
 48
1.0
  6
BYLAYER
100
AcDbLine
 10
257.0
 20
60.0
 30
0.0
 11
223.0
 21
60.0
 31
0.0
  0
LINE
  5
12D
100
AcDbEntity
  8
0
 62
256
370
-1
 48
1.0
  6
BYLAYER
100
AcDbLine
 10
257.0
 20
58.0
 30
0.0
 11
223.0
 21
58.0
 31
0.0
  0
LINE
  5
12E
100
AcDbEntity
  8
0
 62
256
370
-1
 48
1.0
  6
BYLAYER
100
AcDbLine
 10
257.0
 20
62.0
 30
0.0
 11
223.0
 21
62.0
 31
0.0
  0
LINE
  5
12F
100
AcDbEntity
  8
0
 62
256
370
-1
 48
1.0
  6
BYLAYER
100
AcDbLine
 10
257.0
 20
64.0
 30
0.0
 11
223.0
 21
64.0
 31
0.0
  0
LINE
  5
130
100
AcDbEntity
  8
0
 62
256
370
-1
 48
1.0
  6
BYLAYER
100
AcDbLine
 10
257.0
 20
66.0
 30
0.0
 11
223.0
 21
66.0
 31
0.0
  0
LINE
  5
131
100
AcDbEntity
  8
0
 62
256
370
-1
 48
1.0
  6
BYLAYER
100
AcDbLine
 10
257.0
 20
70.0
 30
0.0
 11
223.0
 21
70.0
 31
0.0
  0
LINE
  5
132
100
AcDbEntity
  8
0
 62
256
370
-1
 48
1.0
  6
BYLAYER
100
AcDbLine
 10
257.0
 20
68.0
 30
0.0
 11
223.0
 21
68.0
 31
0.0
  0
LINE
  5
133
100
AcDbEntity
  8
0
 62
256
370
-1
 48
1.0
  6
BYLAYER
100
AcDbLine
 10
257.0
 20
72.0
 30
0.0
 11
223.0
 21
72.0
 31
0.0
  0
LINE
  5
134
100
AcDbEntity
  8
0
 62
256
370
-1
 48
1.0
  6
BYLAYER
100
AcDbLine
 10
257.0
 20
74.0
 30
0.0
 11
223.0
 21
74.0
 31
0.0
  0
LINE
  5
135
100
AcDbEntity
  8
0
 62
256
370
-1
 48
1.0
  6
BYLAYER
100
AcDbLine
 10
257.0
 20
76.0
 30
0.0
 11
223.0
 21
76.0
 31
0.0
  0
LINE
  5
136
100
AcDbEntity
  8
0
 62
256
370
-1
 48
1.0
  6
BYLAYER
100
AcDbLine
 10
257.0
 20
80.0
 30
0.0
 11
223.0
 21
80.0
 31
0.0
  0
LINE
  5
137
100
AcDbEntity
  8
0
 62
256
370
-1
 48
1.0
  6
BYLAYER
100
AcDbLine
 10
257.0
 20
78.0
 30
0.0
 11
223.0
 21
78.0
 31
0.0
  0
LINE
  5
138
100
AcDbEntity
  8
0
 62
256
370
-1
 48
1.0
  6
BYLAYER
100
AcDbLine
 10
257.0
 20
82.0
 30
0.0
 11
223.0
 21
82.0
 31
0.0
  0
LINE
  5
139
100
AcDbEntity
  8
0
 62
256
370
-1
 48
1.0
  6
BYLAYER
100
AcDbLine
 10
257.0
 20
84.0
 30
0.0
 11
223.0
 21
84.0
 31
0.0
  0
LINE
  5
13A
100
AcDbEntity
  8
0
 62
256
370
-1
 48
1.0
  6
BYLAYER
100
AcDbLine
 10
257.0
 20
86.0
 30
0.0
 11
223.0
 21
86.0
 31
0.0
  0
LINE
  5
13B
100
AcDbEntity
  8
0
 62
256
370
-1
 48
1.0
  6
BYLAYER
100
AcDbLine
 10
223.0
 20
40.0
 30
0.0
 11
223.0
 21
39.0
 31
0.0
  0
LINE
  5
13C
100
AcDbEntity
  8
0
 62
256
370
-1
 48
1.0
  6
BYLAYER
100
AcDbLine
 10
223.0
 20
38.0
 30
0.0
 11
223.0
 21
37.0
 31
0.0
  0
LINE
  5
13D
100
AcDbEntity
  8
0
 62
256
370
-1
 48
1.0
  6
BYLAYER
100
AcDbLine
 10
223.0
 20
42.0
 30
0.0
 11
223.0
 21
41.0
 31
0.0
  0
LINE
  5
13E
100
AcDbEntity
  8
0
 62
256
370
-1
 48
1.0
  6
BYLAYER
100
AcDbLine
 10
223.0
 20
44.0
 30
0.0
 11
223.0
 21
43.0
 31
0.0
  0
LINE
  5
13F
100
AcDbEntity
  8
0
 62
256
370
-1
 48
1.0
  6
BYLAYER
100
AcDbLine
 10
223.0
 20
46.0
 30
0.0
 11
223.0
 21
45.0
 31
0.0
  0
LINE
  5
140
100
AcDbEntity
  8
0
 62
256
370
-1
 48
1.0
  6
BYLAYER
100
AcDbLine
 10
223.0
 20
50.0
 30
0.0
 11
223.0
 21
49.0
 31
0.0
  0
LINE
  5
141
100
AcDbEntity
  8
0
 62
256
370
-1
 48
1.0
  6
BYLAYER
100
AcDbLine
 10
223.0
 20
48.0
 30
0.0
 11
223.0
 21
47.0
 31
0.0
  0
LINE
  5
142
100
AcDbEntity
  8
0
 62
256
370
-1
 48
1.0
  6
BYLAYER
100
AcDbLine
 10
223.0
 20
52.0
 30
0.0
 11
223.0
 21
51.0
 31
0.0
  0
LINE
  5
143
100
AcDbEntity
  8
0
 62
256
370
-1
 48
1.0
  6
BYLAYER
100
AcDbLine
 10
223.0
 20
54.0
 30
0.0
 11
223.0
 21
53.0
 31
0.0
  0
LINE
  5
144
100
AcDbEntity
  8
0
 62
256
370
-1
 48
1.0
  6
BYLAYER
100
AcDbLine
 10
223.0
 20
56.0
 30
0.0
 11
223.0
 21
55.0
 31
0.0
  0
LINE
  5
145
100
AcDbEntity
  8
0
 62
256
370
-1
 48
1.0
  6
BYLAYER
100
AcDbLine
 10
223.0
 20
60.0
 30
0.0
 11
223.0
 21
59.0
 31
0.0
  0
LINE
  5
146
100
AcDbEntity
  8
0
 62
256
370
-1
 48
1.0
  6
BYLAYER
100
AcDbLine
 10
223.0
 20
58.0
 30
0.0
 11
223.0
 21
57.0
 31
0.0
  0
LINE
  5
147
100
AcDbEntity
  8
0
 62
256
370
-1
 48
1.0
  6
BYLAYER
100
AcDbLine
 10
223.0
 20
62.0
 30
0.0
 11
223.0
 21
61.0
 31
0.0
  0
LINE
  5
148
100
AcDbEntity
  8
0
 62
256
370
-1
 48
1.0
  6
BYLAYER
100
AcDbLine
 10
223.0
 20
64.0
 30
0.0
 11
223.0
 21
63.0
 31
0.0
  0
LINE
  5
149
100
AcDbEntity
  8
0
 62
256
370
-1
 48
1.0
  6
BYLAYER
100
AcDbLine
 10
223.0
 20
66.0
 30
0.0
 11
223.0
 21
65.0
 31
0.0
  0
LINE
  5
14A
100
AcDbEntity
  8
0
 62
256
370
-1
 48
1.0
  6
BYLAYER
100
AcDbLine
 10
223.0
 20
70.0
 30
0.0
 11
223.0
 21
69.0
 31
0.0
  0
LINE
  5
14B
100
AcDbEntity
  8
0
 62
256
370
-1
 48
1.0
  6
BYLAYER
100
AcDbLine
 10
223.0
 20
68.0
 30
0.0
 11
223.0
 21
67.0
 31
0.0
  0
LINE
  5
14C
100
AcDbEntity
  8
0
 62
256
370
-1
 48
1.0
  6
BYLAYER
100
AcDbLine
 10
223.0
 20
72.0
 30
0.0
 11
223.0
 21
71.0
 31
0.0
  0
LINE
  5
14D
100
AcDbEntity
  8
0
 62
256
370
-1
 48
1.0
  6
BYLAYER
100
AcDbLine
 10
223.0
 20
74.0
 30
0.0
 11
223.0
 21
73.0
 31
0.0
  0
LINE
  5
14E
100
AcDbEntity
  8
0
 62
256
370
-1
 48
1.0
  6
BYLAYER
100
AcDbLine
 10
223.0
 20
76.0
 30
0.0
 11
223.0
 21
75.0
 31
0.0
  0
LINE
  5
14F
100
AcDbEntity
  8
0
 62
256
370
-1
 48
1.0
  6
BYLAYER
100
AcDbLine
 10
223.0
 20
80.0
 30
0.0
 11
223.0
 21
79.0
 31
0.0
  0
LINE
  5
150
100
AcDbEntity
  8
0
 62
256
370
-1
 48
1.0
  6
BYLAYER
100
AcDbLine
 10
223.0
 20
78.0
 30
0.0
 11
223.0
 21
77.0
 31
0.0
  0
LINE
  5
151
100
AcDbEntity
  8
0
 62
256
370
-1
 48
1.0
  6
BYLAYER
100
AcDbLine
 10
223.0
 20
82.0
 30
0.0
 11
223.0
 21
81.0
 31
0.0
  0
LINE
  5
152
100
AcDbEntity
  8
0
 62
256
370
-1
 48
1.0
  6
BYLAYER
100
AcDbLine
 10
223.0
 20
84.0
 30
0.0
 11
223.0
 21
83.0
 31
0.0
  0
LINE
  5
153
100
AcDbEntity
  8
0
 62
256
370
-1
 48
1.0
  6
BYLAYER
100
AcDbLine
 10
223.0
 20
86.0
 30
0.0
 11
223.0
 21
85.0
 31
0.0
  0
LINE
  5
154
100
AcDbEntity
  8
0
 62
256
370
-1
 48
1.0
  6
BYLAYER
100
AcDbLine
 10
223.0
 20
39.0
 30
0.0
 11
257.0
 21
39.0
 31
0.0
  0
LINE
  5
155
100
AcDbEntity
  8
0
 62
256
370
-1
 48
1.0
  6
BYLAYER
100
AcDbLine
 10
223.0
 20
37.0
 30
0.0
 11
257.0
 21
37.0
 31
0.0
  0
LINE
  5
156
100
AcDbEntity
  8
0
 62
256
370
-1
 48
1.0
  6
BYLAYER
100
AcDbLine
 10
223.0
 20
41.0
 30
0.0
 11
257.0
 21
41.0
 31
0.0
  0
LINE
  5
157
100
AcDbEntity
  8
0
 62
256
370
-1
 48
1.0
  6
BYLAYER
100
AcDbLine
 10
223.0
 20
43.0
 30
0.0
 11
257.0
 21
43.0
 31
0.0
  0
LINE
  5
158
100
AcDbEntity
  8
0
 62
256
370
-1
 48
1.0
  6
BYLAYER
100
AcDbLine
 10
223.0
 20
45.0
 30
0.0
 11
257.0
 21
45.0
 31
0.0
  0
LINE
  5
159
100
AcDbEntity
  8
0
 62
256
370
-1
 48
1.0
  6
BYLAYER
100
AcDbLine
 10
223.0
 20
49.0
 30
0.0
 11
257.0
 21
49.0
 31
0.0
  0
LINE
  5
15A
100
AcDbEntity
  8
0
 62
256
370
-1
 48
1.0
  6
BYLAYER
100
AcDbLine
 10
223.0
 20
47.0
 30
0.0
 11
257.0
 21
47.0
 31
0.0
  0
LINE
  5
15B
100
AcDbEntity
  8
0
 62
256
370
-1
 48
1.0
  6
BYLAYER
100
AcDbLine
 10
223.0
 20
51.0
 30
0.0
 11
257.0
 21
51.0
 31
0.0
  0
LINE
  5
15C
100
AcDbEntity
  8
0
 62
256
370
-1
 48
1.0
  6
BYLAYER
100
AcDbLine
 10
223.0
 20
53.0
 30
0.0
 11
257.0
 21
53.0
 31
0.0
  0
LINE
  5
15D
100
AcDbEntity
  8
0
 62
256
370
-1
 48
1.0
  6
BYLAYER
100
AcDbLine
 10
223.0
 20
55.0
 30
0.0
 11
257.0
 21
55.0
 31
0.0
  0
LINE
  5
15E
100
AcDbEntity
  8
0
 62
256
370
-1
 48
1.0
  6
BYLAYER
100
AcDbLine
 10
223.0
 20
59.0
 30
0.0
 11
257.0
 21
59.0
 31
0.0
  0
LINE
  5
15F
100
AcDbEntity
  8
0
 62
256
370
-1
 48
1.0
  6
BYLAYER
100
AcDbLine
 10
223.0
 20
57.0
 30
0.0
 11
257.0
 21
57.0
 31
0.0
  0
LINE
  5
160
100
AcDbEntity
  8
0
 62
256
370
-1
 48
1.0
  6
BYLAYER
100
AcDbLine
 10
223.0
 20
61.0
 30
0.0
 11
257.0
 21
61.0
 31
0.0
  0
LINE
  5
161
100
AcDbEntity
  8
0
 62
256
370
-1
 48
1.0
  6
BYLAYER
100
AcDbLine
 10
223.0
 20
63.0
 30
0.0
 11
257.0
 21
63.0
 31
0.0
  0
LINE
  5
162
100
AcDbEntity
  8
0
 62
256
370
-1
 48
1.0
  6
BYLAYER
100
AcDbLine
 10
223.0
 20
65.0
 30
0.0
 11
257.0
 21
65.0
 31
0.0
  0
LINE
  5
163
100
AcDbEntity
  8
0
 62
256
370
-1
 48
1.0
  6
BYLAYER
100
AcDbLine
 10
223.0
 20
69.0
 30
0.0
 11
257.0
 21
69.0
 31
0.0
  0
LINE
  5
164
100
AcDbEntity
  8
0
 62
256
370
-1
 48
1.0
  6
BYLAYER
100
AcDbLine
 10
223.0
 20
67.0
 30
0.0
 11
257.0
 21
67.0
 31
0.0
  0
LINE
  5
165
100
AcDbEntity
  8
0
 62
256
370
-1
 48
1.0
  6
BYLAYER
100
AcDbLine
 10
223.0
 20
71.0
 30
0.0
 11
257.0
 21
71.0
 31
0.0
  0
LINE
  5
166
100
AcDbEntity
  8
0
 62
256
370
-1
 48
1.0
  6
BYLAYER
100
AcDbLine
 10
223.0
 20
73.0
 30
0.0
 11
257.0
 21
73.0
 31
0.0
  0
LINE
  5
167
100
AcDbEntity
  8
0
 62
256
370
-1
 48
1.0
  6
BYLAYER
100
AcDbLine
 10
223.0
 20
75.0
 30
0.0
 11
257.0
 21
75.0
 31
0.0
  0
LINE
  5
168
100
AcDbEntity
  8
0
 62
256
370
-1
 48
1.0
  6
BYLAYER
100
AcDbLine
 10
223.0
 20
79.0
 30
0.0
 11
257.0
 21
79.0
 31
0.0
  0
LINE
  5
169
100
AcDbEntity
  8
0
 62
256
370
-1
 48
1.0
  6
BYLAYER
100
AcDbLine
 10
223.0
 20
77.0
 30
0.0
 11
257.0
 21
77.0
 31
0.0
  0
LINE
  5
16A
100
AcDbEntity
  8
0
 62
256
370
-1
 48
1.0
  6
BYLAYER
100
AcDbLine
 10
223.0
 20
81.0
 30
0.0
 11
257.0
 21
81.0
 31
0.0
  0
LINE
  5
16B
100
AcDbEntity
  8
0
 62
256
370
-1
 48
1.0
  6
BYLAYER
100
AcDbLine
 10
223.0
 20
83.0
 30
0.0
 11
257.0
 21
83.0
 31
0.0
  0
LINE
  5
16C
100
AcDbEntity
  8
0
 62
256
370
-1
 48
1.0
  6
BYLAYER
100
AcDbLine
 10
223.0
 20
85.0
 30
0.0
 11
257.0
 21
85.0
 31
0.0
  0
LINE
  5
16D
100
AcDbEntity
  8
0
 62
256
370
-1
 48
1.0
  6
BYLAYER
100
AcDbLine
 10
257.0
 20
39.0
 30
0.0
 11
257.0
 21
40.0
 31
0.0
  0
LINE
  5
16E
100
AcDbEntity
  8
0
 62
256
370
-1
 48
1.0
  6
BYLAYER
100
AcDbLine
 10
257.0
 20
37.0
 30
0.0
 11
257.0
 21
38.0
 31
0.0
  0
LINE
  5
16F
100
AcDbEntity
  8
0
 62
256
370
-1
 48
1.0
  6
BYLAYER
100
AcDbLine
 10
257.0
 20
41.0
 30
0.0
 11
257.0
 21
42.0
 31
0.0
  0
LINE
  5
170
100
AcDbEntity
  8
0
 62
256
370
-1
 48
1.0
  6
BYLAYER
100
AcDbLine
 10
257.0
 20
43.0
 30
0.0
 11
257.0
 21
44.0
 31
0.0
  0
LINE
  5
171
100
AcDbEntity
  8
0
 62
256
370
-1
 48
1.0
  6
BYLAYER
100
AcDbLine
 10
257.0
 20
45.0
 30
0.0
 11
257.0
 21
46.0
 31
0.0
  0
LINE
  5
172
100
AcDbEntity
  8
0
 62
256
370
-1
 48
1.0
  6
BYLAYER
100
AcDbLine
 10
257.0
 20
49.0
 30
0.0
 11
257.0
 21
50.0
 31
0.0
  0
LINE
  5
173
100
AcDbEntity
  8
0
 62
256
370
-1
 48
1.0
  6
BYLAYER
100
AcDbLine
 10
257.0
 20
47.0
 30
0.0
 11
257.0
 21
48.0
 31
0.0
  0
LINE
  5
174
100
AcDbEntity
  8
0
 62
256
370
-1
 48
1.0
  6
BYLAYER
100
AcDbLine
 10
257.0
 20
51.0
 30
0.0
 11
257.0
 21
52.0
 31
0.0
  0
LINE
  5
175
100
AcDbEntity
  8
0
 62
256
370
-1
 48
1.0
  6
BYLAYER
100
AcDbLine
 10
257.0
 20
53.0
 30
0.0
 11
257.0
 21
54.0
 31
0.0
  0
LINE
  5
176
100
AcDbEntity
  8
0
 62
256
370
-1
 48
1.0
  6
BYLAYER
100
AcDbLine
 10
257.0
 20
55.0
 30
0.0
 11
257.0
 21
56.0
 31
0.0
  0
LINE
  5
177
100
AcDbEntity
  8
0
 62
256
370
-1
 48
1.0
  6
BYLAYER
100
AcDbLine
 10
257.0
 20
59.0
 30
0.0
 11
257.0
 21
60.0
 31
0.0
  0
LINE
  5
178
100
AcDbEntity
  8
0
 62
256
370
-1
 48
1.0
  6
BYLAYER
100
AcDbLine
 10
257.0
 20
57.0
 30
0.0
 11
257.0
 21
58.0
 31
0.0
  0
LINE
  5
179
100
AcDbEntity
  8
0
 62
256
370
-1
 48
1.0
  6
BYLAYER
100
AcDbLine
 10
257.0
 20
61.0
 30
0.0
 11
257.0
 21
62.0
 31
0.0
  0
LINE
  5
17A
100
AcDbEntity
  8
0
 62
256
370
-1
 48
1.0
  6
BYLAYER
100
AcDbLine
 10
257.0
 20
63.0
 30
0.0
 11
257.0
 21
64.0
 31
0.0
  0
LINE
  5
17B
100
AcDbEntity
  8
0
 62
256
370
-1
 48
1.0
  6
BYLAYER
100
AcDbLine
 10
257.0
 20
65.0
 30
0.0
 11
257.0
 21
66.0
 31
0.0
  0
LINE
  5
17C
100
AcDbEntity
  8
0
 62
256
370
-1
 48
1.0
  6
BYLAYER
100
AcDbLine
 10
257.0
 20
69.0
 30
0.0
 11
257.0
 21
70.0
 31
0.0
  0
LINE
  5
17D
100
AcDbEntity
  8
0
 62
256
370
-1
 48
1.0
  6
BYLAYER
100
AcDbLine
 10
257.0
 20
67.0
 30
0.0
 11
257.0
 21
68.0
 31
0.0
  0
LINE
  5
17E
100
AcDbEntity
  8
0
 62
256
370
-1
 48
1.0
  6
BYLAYER
100
AcDbLine
 10
257.0
 20
71.0
 30
0.0
 11
257.0
 21
72.0
 31
0.0
  0
LINE
  5
17F
100
AcDbEntity
  8
0
 62
256
370
-1
 48
1.0
  6
BYLAYER
100
AcDbLine
 10
257.0
 20
73.0
 30
0.0
 11
257.0
 21
74.0
 31
0.0
  0
LINE
  5
180
100
AcDbEntity
  8
0
 62
256
370
-1
 48
1.0
  6
BYLAYER
100
AcDbLine
 10
257.0
 20
75.0
 30
0.0
 11
257.0
 21
76.0
 31
0.0
  0
LINE
  5
181
100
AcDbEntity
  8
0
 62
256
370
-1
 48
1.0
  6
BYLAYER
100
AcDbLine
 10
257.0
 20
79.0
 30
0.0
 11
257.0
 21
80.0
 31
0.0
  0
LINE
  5
182
100
AcDbEntity
  8
0
 62
256
370
-1
 48
1.0
  6
BYLAYER
100
AcDbLine
 10
257.0
 20
77.0
 30
0.0
 11
257.0
 21
78.0
 31
0.0
  0
LINE
  5
183
100
AcDbEntity
  8
0
 62
256
370
-1
 48
1.0
  6
BYLAYER
100
AcDbLine
 10
257.0
 20
81.0
 30
0.0
 11
257.0
 21
82.0
 31
0.0
  0
LINE
  5
184
100
AcDbEntity
  8
0
 62
256
370
-1
 48
1.0
  6
BYLAYER
100
AcDbLine
 10
257.0
 20
83.0
 30
0.0
 11
257.0
 21
84.0
 31
0.0
  0
LINE
  5
185
100
AcDbEntity
  8
0
 62
256
370
-1
 48
1.0
  6
BYLAYER
100
AcDbLine
 10
257.0
 20
85.0
 30
0.0
 11
257.0
 21
86.0
 31
0.0
  0
LINE
  5
186
100
AcDbEntity
  8
0
 62
256
370
-1
 48
1.0
  6
BYLAYER
100
AcDbLine
 10
-1.0
 20
-1.0
 30
0.0
 11
0.0
 21
-1.0
 31
0.0
  0
LINE
  5
187
100
AcDbEntity
  8
0
 62
256
370
-1
 48
1.0
  6
BYLAYER
100
AcDbLine
 10
0.0
 20
-1.0
 30
0.0
 11
-0.0
 21
0.0
 31
0.0
  0
DIMENSION
  5
188
100
AcDbEntity
  8
Measure
 62
256
370
-1
 48
1.0
  6
BYLAYER
100
AcDbDimension
 10
-40.0
 20
5.0
 30
0.0
 11
-20.0
 21
7.3812499999999996
 31
0.0
 70
1
 71
8
 72
2
 74
0
 75
0
 41
1.0
 42
0.0
  1

  3
Standard
100
AcDbAlignedDimension
 13
-40.0
 23
-0.0
 33
0.0
 14
-0.0
 24
0.0
 34
0.0
1001
ACAD
1000
DSTYLE
1002
{
1070
144
1040
1.0
1070
40
1040
25.3999999999999986
1002
}
  0
DIMENSION
  5
189
100
AcDbEntity
  8
Measure
 62
256
370
-1
 48
1.0
  6
BYLAYER
100
AcDbDimension
 10
-1.0000000000000009
 20
-15.0
 30
0.0
 11
-20.5
 21
-12.6187500000000004
 31
0.0
 70
1
 71
8
 72
2
 74
0
 75
0
 41
1.0
 42
0.0
  1

  3
Standard
100
AcDbAlignedDimension
 13
-1.0
 23
-10.0
 33
0.0
 14
-40.0
 24
-10.0
 34
0.0
1001
ACAD
1000
DSTYLE
1002
{
1070
144
1040
1.0
1070
40
1040
25.3999999999999986
1002
}
  0
LINE
  5
18A
100
AcDbEntity
  8
0
 62
256
370
-1
 48
1.0
  6
BYLAYER
100
AcDbLine
 10
221.0
 20
-1.0
 30
0.0
 11
220.0
 21
-1.0
 31
0.0
  0
LINE
  5
18B
100
AcDbEntity
  8
0
 62
256
370
-1
 48
1.0
  6
BYLAYER
100
AcDbLine
 10
220.0
 20
-1.0
 30
0.0
 11
220.0
 21
-0.0
 31
0.0
  0
MTEXT
  5
18C
100
AcDbEntity
  8
Labels
 62
256
370
-1
 48
1.0
  6
BYLAYER
100
AcDbMText
 10
80.0
 20
50.0
 30
0.0
 40
5.0
 41
0.0
 71
5
 72
1
  1
GBS-C
  7
textstyle2
 50
0.0
 73
2
 44
1.0
  0
MTEXT
  5
18D
100
AcDbEntity
  8
Labels
 62
256
370
-1
 48
1.0
  6
BYLAYER
100
AcDbMText
 10
10.0
 20
60.0
 30
0.0
 40
3.0
 41
0.0
 71
5
 72
1
  1
SCART PCB
  7
textstyle1
 50
90.0
 73
2
 44
1.0
  0
LINE
  5
18E
100
AcDbEntity
  8
Components
 62
256
370
-1
 48
1.0
  6
BYLAYER
100
AcDbLine
 10
150.0
 20
-1.5
 30
0.0
 11
184.0
 21
-1.5
 31
0.0
  0
LINE
  5
18F
100
AcDbEntity
  8
Components
 62
256
370
-1
 48
1.0
  6
BYLAYER
100
AcDbLine
 10
184.0
 20
-1.5
 30
0.0
 11
184.0
 21
55.5
 31
0.0
  0
LINE
  5
190
100
AcDbEntity
  8
Components
 62
256
370
-1
 48
1.0
  6
BYLAYER
100
AcDbLine
 10
184.0
 20
55.5
 30
0.0
 11
150.0
 21
55.5
 31
0.0
  0
LINE
  5
191
100
AcDbEntity
  8
Components
 62
256
370
-1
 48
1.0
  6
BYLAYER
100
AcDbLine
 10
150.0
 20
55.5
 30
0.0
 11
150.0
 21
-1.5
 31
0.0
  0
LINE
  5
192
100
AcDbEntity
  8
Components
 62
256
370
-1
 48
1.0
  6
BYLAYER
100
AcDbLine
 10
158.0277208518622842
 20
55.4991870955979039
 30
0.0
 11
176.0277208518622842
 21
55.4991870955979039
 31
0.0
  0
LINE
  5
193
100
AcDbEntity
  8
Components
 62
256
370
-1
 48
1.0
  6
BYLAYER
100
AcDbLine
 10
176.0277208518622842
 20
55.4991870955979039
 30
0.0
 11
176.0277208518622842
 21
61.4991870955979039
 31
0.0
  0
LINE
  5
194
100
AcDbEntity
  8
Components
 62
256
370
-1
 48
1.0
  6
BYLAYER
100
AcDbLine
 10
176.0277208518622842
 20
61.4991870955979039
 30
0.0
 11
158.0277208518622842
 21
61.4991870955979039
 31
0.0
  0
LINE
  5
195
100
AcDbEntity
  8
Components
 62
256
370
-1
 48
1.0
  6
BYLAYER
100
AcDbLine
 10
158.0277208518622842
 20
61.4991870955979039
 30
0.0
 11
158.0277208518622842
 21
55.4991870955979039
 31
0.0
  0
MTEXT
  5
196
100
AcDbEntity
  8
Labels
 62
256
370
-1
 48
1.0
  6
BYLAYER
100
AcDbMText
 10
167.0
 20
27.0
 30
0.0
 40
3.0
 41
0.0
 71
5
 72
1
  1
HDMI\PAdapter
  7
textstyle0
 50
0.0
 73
2
 44
1.0
  0
ENDSEC
  0
SECTION
  2
OBJECTS
  0
DICTIONARY
  5
C
100
AcDbDictionary
280
0
281
1
  3
ACAD_GROUP
350
D
  3
ACAD_LAYOUT
350
1A
  3
ACAD_MLINESTYLE
350
17
  3
ACAD_PLOTSETTINGS
350
19
  3
ACAD_PLOTSTYLENAME
350
E
  3
AcDbVariableDictionary
350
197
  3
QCAD_OBJECTS
350
198
  0
DICTIONARY
  5
D
100
AcDbDictionary
280
0
281
1
  0
ACDBDICTIONARYWDFLT
  5
E
100
AcDbDictionary
281
1
  3
Normal
350
F
100
AcDbDictionaryWithDefault
340
F
  0
ACDBPLACEHOLDER
  5
F
  0
DICTIONARY
  5
17
100
AcDbDictionary
280
0
281
1
  3
Standard
350
18
  0
MLINESTYLE
  5
18
100
AcDbMlineStyle
  2
STANDARD
 70
0
  3

 62
256
 51
90.0
 52
90.0
 71
2
 49
0.5
 62
256
  6
BYLAYER
 49
-0.5
 62
256
  6
BYLAYER
  0
DICTIONARY
  5
19
100
AcDbDictionary
280
0
281
1
  0
DICTIONARY
  5
1A
100
AcDbDictionary
281
1
  3
Layout1
350
1E
  3
Layout2
350
26
  3
Model
350
22
  0
LAYOUT
  5
1E
100
AcDbPlotSettings
  1

  2
none_device
  4

  6

 40
0.0
 41
0.0
 42
0.0
 43
0.0
 44
0.0
 45
0.0
 46
0.0
 47
0.0
 48
0.0
 49
0.0
140
0.0
141
0.0
142
1.0
143
1.0
 70
688
 72
0
 73
0
 74
5
  7

 75
16
147
1.0
148
0.0
149
0.0
100
AcDbLayout
  1
Layout1
 70
1
 71
1
 10
0.0
 20
0.0
 11
420.0
 21
297.0
 12
0.0
 22
0.0
 32
0.0
 14
100000000000000000000.0
 24
100000000000000000000.0
 34
100000000000000000000.0
 15
-100000000000000000000.0
 25
-100000000000000000000.0
 35
-100000000000000000000.0
146
0.0
 13
0.0
 23
0.0
 33
0.0
 16
1.0
 26
0.0
 36
0.0
 17
0.0
 27
1.0
 37
0.0
 76
0
330
1B
  0
LAYOUT
  5
22
100
AcDbPlotSettings
  1

  2
none_device
  4

  6

 40
0.0
 41
0.0
 42
0.0
 43
0.0
 44
0.0
 45
0.0
 46
0.0
 47
0.0
 48
0.0
 49
0.0
140
0.0
141
0.0
142
1.0
143
1.0
 70
1712
 72
0
 73
0
 74
0
  7

 75
0
147
1.0
148
0.0
149
0.0
100
AcDbLayout
  1
Model
 70
1
 71
0
 10
0.0
 20
0.0
 11
12.0
 21
9.0
 12
0.0
 22
0.0
 32
0.0
 14
0.0
 24
0.0
 34
0.0
 15
0.0
 25
0.0
 35
0.0
146
0.0
 13
0.0
 23
0.0
 33
0.0
 16
1.0
 26
0.0
 36
0.0
 17
0.0
 27
1.0
 37
0.0
 76
0
330
1F
  0
LAYOUT
  5
26
100
AcDbPlotSettings
  1

  2
none_device
  4

  6

 40
0.0
 41
0.0
 42
0.0
 43
0.0
 44
0.0
 45
0.0
 46
0.0
 47
0.0
 48
0.0
 49
0.0
140
0.0
141
0.0
142
1.0
143
1.0
 70
688
 72
0
 73
0
 74
5
  7

 75
16
147
1.0
148
0.0
149
0.0
100
AcDbLayout
  1
Layout2
 70
1
 71
2
 10
0.0
 20
0.0
 11
12.0
 21
9.0
 12
0.0
 22
0.0
 32
0.0
 14
0.0
 24
0.0
 34
0.0
 15
0.0
 25
0.0
 35
0.0
146
0.0
 13
0.0
 23
0.0
 33
0.0
 16
1.0
 26
0.0
 36
0.0
 17
0.0
 27
1.0
 37
0.0
 76
0
330
23
  0
DICTIONARY
  5
197
100
AcDbDictionary
281
1
  3
DIMASSOC
350
19A
  3
HIDETEXT
350
199
  0
DICTIONARYVAR
  5
199
100
DictionaryVariables
280
0
  1
2
  0
DICTIONARYVAR
  5
19A
100
DictionaryVariables
280
0
  1
1
  0
DICTIONARY
  5
198
100
AcDbDictionary
281
1
  3
ColorSettings/BackgroundColor
350
19B
  3
ColorSettings/ColorMode
350
19C
  3
Grid/DisplayGrid00
350
19D
  3
Grid/DisplayGrid01
350
19E
  3
Grid/DisplayGrid02
350
19F
  3
Grid/DisplayGrid03
350
1A0
  3
Grid/GridSpacingX00
350
1A1
  3
Grid/GridSpacingX01
350
1A2
  3
Grid/GridSpacingX02
350
1A3
  3
Grid/GridSpacingX03
350
1A4
  3
Grid/GridSpacingY00
350
1A5
  3
Grid/GridSpacingY01
350
1A6
  3
Grid/GridSpacingY02
350
1A7
  3
Grid/GridSpacingY03
350
1A8
  3
Grid/IsometricGrid00
350
1A9
  3
Grid/IsometricGrid01
350
1AA
  3
Grid/IsometricGrid02
350
1AB
  3
Grid/IsometricGrid03
350
1AC
  3
Grid/IsometricProjection00
350
1AD
  3
Grid/IsometricProjection01
350
1AE
  3
Grid/IsometricProjection02
350
1AF
  3
Grid/IsometricProjection03
350
1B0
  3
Grid/MetaGridSpacingX00
350
1B1
  3
Grid/MetaGridSpacingX01
350
1B2
  3
Grid/MetaGridSpacingX02
350
1B3
  3
Grid/MetaGridSpacingX03
350
1B4
  3
Grid/MetaGridSpacingY00
350
1B5
  3
Grid/MetaGridSpacingY01
350
1B6
  3
Grid/MetaGridSpacingY02
350
1B7
  3
Grid/MetaGridSpacingY03
350
1B8
  3
MultiPageSettings/Columns
350
1B9
  3
MultiPageSettings/GlueMarginsBottom
350
1BA
  3
MultiPageSettings/GlueMarginsLeft
350
1BB
  3
MultiPageSettings/GlueMarginsRight
350
1BC
  3
MultiPageSettings/GlueMarginsTop
350
1BD
  3
MultiPageSettings/PrintCropMarks
350
1BE
  3
MultiPageSettings/Rows
350
1BF
  3
PageSettings/OffsetX
350
1C0
  3
PageSettings/OffsetY
350
1C1
  3
PageSettings/PageOrientation
350
1C2
  3
PageSettings/PaperHeight
350
1C3
  3
PageSettings/PaperWidth
350
1C4
  3
PageSettings/Scale
350
1C5
  3
PageSettings/ShowPaperBorders
350
1C6
  3
PageTagSettings/EnablePageTags
350
1C7
  3
PageTagSettings/TagAlignment
350
1C8
  3
PageTagSettings/TagFont
350
1C9
  3
PageTagSettings/TagPosition
350
1CA
  3
QCADVersion
350
1CB
  3
UnitSettings/PaperUnit
350
1CC
  3
ViewportCenter
350
1CD
  3
ViewportHeight
350
1CE
  3
ViewportWidth
350
1CF
  0
XRECORD
  5
19B
330
198
100
AcDbXrecord
280
1
1000
White
  0
XRECORD
  5
19C
330
198
100
AcDbXrecord
280
1
1000
FullColor
  0
XRECORD
  5
19D
330
198
100
AcDbXrecord
280
1
290
1
  0
XRECORD
  5
19E
330
198
100
AcDbXrecord
280
1
290
1
  0
XRECORD
  5
19F
330
198
100
AcDbXrecord
280
1
290
1
  0
XRECORD
  5
1A0
330
198
100
AcDbXrecord
280
1
290
1
  0
XRECORD
  5
1A1
330
198
100
AcDbXrecord
280
1
1000
auto
  0
XRECORD
  5
1A2
330
198
100
AcDbXrecord
280
1
1000
auto
  0
XRECORD
  5
1A3
330
198
100
AcDbXrecord
280
1
1000
auto
  0
XRECORD
  5
1A4
330
198
100
AcDbXrecord
280
1
1000
auto
  0
XRECORD
  5
1A5
330
198
100
AcDbXrecord
280
1
1000
auto
  0
XRECORD
  5
1A6
330
198
100
AcDbXrecord
280
1
1000
auto
  0
XRECORD
  5
1A7
330
198
100
AcDbXrecord
280
1
1000
auto
  0
XRECORD
  5
1A8
330
198
100
AcDbXrecord
280
1
1000
auto
  0
XRECORD
  5
1A9
330
198
100
AcDbXrecord
280
1
290
0
  0
XRECORD
  5
1AA
330
198
100
AcDbXrecord
280
1
290
0
  0
XRECORD
  5
1AB
330
198
100
AcDbXrecord
280
1
290
0
  0
XRECORD
  5
1AC
330
198
100
AcDbXrecord
280
1
290
0
  0
XRECORD
  5
1AD
330
198
100
AcDbXrecord
280
1
 90
65537
  0
XRECORD
  5
1AE
330
198
100
AcDbXrecord
280
1
 90
65537
  0
XRECORD
  5
1AF
330
198
100
AcDbXrecord
280
1
 90
65537
  0
XRECORD
  5
1B0
330
198
100
AcDbXrecord
280
1
 90
65537
  0
XRECORD
  5
1B1
330
198
100
AcDbXrecord
280
1
1000
auto
  0
XRECORD
  5
1B2
330
198
100
AcDbXrecord
280
1
1000
auto
  0
XRECORD
  5
1B3
330
198
100
AcDbXrecord
280
1
1000
auto
  0
XRECORD
  5
1B4
330
198
100
AcDbXrecord
280
1
1000
auto
  0
XRECORD
  5
1B5
330
198
100
AcDbXrecord
280
1
1000
auto
  0
XRECORD
  5
1B6
330
198
100
AcDbXrecord
280
1
1000
auto
  0
XRECORD
  5
1B7
330
198
100
AcDbXrecord
280
1
1000
auto
  0
XRECORD
  5
1B8
330
198
100
AcDbXrecord
280
1
1000
auto
  0
XRECORD
  5
1B9
330
198
100
AcDbXrecord
280
1
 90
1
  0
XRECORD
  5
1BA
330
198
100
AcDbXrecord
280
1
 40
0.5
  0
XRECORD
  5
1BB
330
198
100
AcDbXrecord
280
1
 40
0.5
  0
XRECORD
  5
1BC
330
198
100
AcDbXrecord
280
1
 40
0.5
  0
XRECORD
  5
1BD
330
198
100
AcDbXrecord
280
1
 40
0.5
  0
XRECORD
  5
1BE
330
198
100
AcDbXrecord
280
1
290
0
  0
XRECORD
  5
1BF
330
198
100
AcDbXrecord
280
1
 90
1
  0
XRECORD
  5
1C0
330
198
100
AcDbXrecord
280
1
 40
0.0
  0
XRECORD
  5
1C1
330
198
100
AcDbXrecord
280
1
 40
0.0
  0
XRECORD
  5
1C2
330
198
100
AcDbXrecord
280
1
1000
Portrait
  0
XRECORD
  5
1C3
330
198
100
AcDbXrecord
280
1
 40
11.0
  0
XRECORD
  5
1C4
330
198
100
AcDbXrecord
280
1
 40
8.5
  0
XRECORD
  5
1C5
330
198
100
AcDbXrecord
280
1
1000
1:1
  0
XRECORD
  5
1C6
330
198
100
AcDbXrecord
280
1
290
1
  0
XRECORD
  5
1C7
330
198
100
AcDbXrecord
280
1
290
0
  0
XRECORD
  5
1C8
330
198
100
AcDbXrecord
280
1
1000
Inside
  0
XRECORD
  5
1C9
330
198
100
AcDbXrecord
280
1
1000
Arial,10,-1,5,50,0,0,0,0,0
  0
XRECORD
  5
1CA
330
198
100
AcDbXrecord
280
1
1000
TopLeft
  0
XRECORD
  5
1CB
330
198
100
AcDbXrecord
280
1
1000
3.31.2
  0
XRECORD
  5
1CC
330
198
100
AcDbXrecord
280
1
 90
1
  0
XRECORD
  5
1CE
330
198
100
AcDbXrecord
280
1
 40
263.5705345792231924
  0
XRECORD
  5
1CF
330
198
100
AcDbXrecord
280
1
 40
531.380809661061221
  0
ENDSEC
  0
EOF
