M48
; DRILL file KiCad 10.0.1 date 2026-06-07T05:09:04
; FORMAT={-:-/ absolute / metric / decimal}
; #@! TF.CreationDate,2026-06-07T05:09:04-05:00
; #@! TF.GenerationSoftware,Kicad,Pcbnew,10.0.1
; #@! TF.FileFunction,MixedPlating,1,2
FMAT,2
METRIC
; #@! TA.AperFunction,Plated,PTH,ViaDrill
T1C0.300
; #@! TA.AperFunction,Plated,PTH,ComponentDrill
T2C1.020
; #@! TA.AperFunction,Plated,PTH,ComponentDrill
T3C1.100
; #@! TA.AperFunction,Plated,PTH,ComponentDrill
T4C1.220
; #@! TA.AperFunction,Plated,PTH,ComponentDrill
T5C1.490
; #@! TA.AperFunction,Plated,PTH,ComponentDrill
T6C1.600
; #@! TA.AperFunction,Plated,PTH,ComponentDrill
T7C2.790
; #@! TA.AperFunction,NonPlated,NPTH,ComponentDrill
T8C3.000
%
G90
G05
T1
X124.9Y-80.9
X124.9Y-87.7
X124.9Y-93.3
X124.9Y-101.5
X124.9Y-114.3
X124.9Y-129.8
X124.9Y-136.1
X129.2Y-108.7
X130.2Y-91.6
X134.2Y-92.6
X134.3Y-110.4
X134.4Y-103.0
X135.0Y-117.5
X135.2Y-81.0
X136.7Y-126.1
X138.1Y-119.0
X138.4Y-97.2
X139.0Y-92.6
X143.9Y-88.9
X144.5Y-92.6
X144.5Y-128.4
X146.6Y-91.6
X146.8Y-103.9
X147.5Y-113.8
X148.7Y-110.5
X152.038Y-94.062
X152.6Y-88.9
X154.0Y-98.1
X154.0Y-128.5
X154.5Y-115.8
X154.5Y-136.1
X155.7Y-119.3
X157.1Y-103.9
X159.2Y-92.6
X159.3Y-95.8
X159.4Y-121.1
X160.0Y-118.9
X160.7Y-126.1
X162.8Y-81.0
X163.6Y-118.5
X163.8Y-92.6
X164.4Y-136.1
X165.7Y-107.5
X165.7Y-110.9
X166.1Y-99.6
X166.69Y-110.137
X167.16Y-109.0
X167.7Y-91.6
X168.11Y-109.0
X169.737Y-105.9
X169.737Y-121.1
X170.2Y-92.6
X170.862Y-103.7
X170.862Y-123.8
X170.862Y-127.1
X171.6Y-107.7
X172.8Y-91.2
X173.1Y-80.9
X173.1Y-95.0
X173.1Y-98.0
X173.1Y-107.0
X173.1Y-120.8
X173.1Y-129.0
X173.1Y-136.1
T2
X136.3Y-85.955
X136.3Y-88.495
X136.3Y-91.035
X136.3Y-93.575
X136.3Y-96.115
X136.3Y-98.655
X136.3Y-101.195
X136.3Y-103.735
X136.3Y-106.275
X136.3Y-108.815
X136.3Y-111.355
X136.3Y-113.895
X136.3Y-116.435
X136.3Y-118.975
X136.3Y-121.515
X161.7Y-85.955
X161.7Y-88.495
X161.7Y-91.035
X161.7Y-93.575
X161.7Y-96.115
X161.7Y-98.655
X161.7Y-101.195
X161.7Y-103.735
X161.7Y-106.275
X161.7Y-108.815
X161.7Y-111.355
X161.7Y-113.895
X161.7Y-116.435
X161.7Y-118.975
X161.7Y-121.515
T3
X126.46Y-125.05
X126.46Y-133.05
X129.0Y-125.05
X129.0Y-133.05
X131.54Y-125.05
X131.54Y-133.05
T4
X149.45Y-134.62
X159.45Y-134.62
X171.45Y-134.62
T5
X165.2Y-125.5
T6
X128.57Y-89.04
X128.57Y-98.96
X131.0Y-105.38
X131.0Y-120.62
X131.97Y-89.04
X131.97Y-98.96
X166.03Y-87.04
X166.03Y-96.96
X169.43Y-87.04
X169.43Y-96.96
T7
X126.7Y-105.4
X126.7Y-120.6
X129.0Y-83.0
X137.5Y-133.9
T8
X136.77Y-82.525
X136.77Y-129.475
X161.28Y-82.525
X161.28Y-129.475
M30
