%TF.GenerationSoftware,KiCad,Pcbnew,10.0.1*%
%TF.CreationDate,2026-06-07T05:08:58-05:00*%
%TF.ProjectId,ESPRadiator,45535052-6164-4696-9174-6f722e6b6963,rev?*%
%TF.SameCoordinates,Original*%
%TF.FileFunction,Soldermask,Top*%
%TF.FilePolarity,Negative*%
%FSLAX46Y46*%
G04 Gerber Fmt 4.6, Leading zero omitted, Abs format (unit mm)*
G04 Created by KiCad (PCBNEW 10.0.1) date 2026-06-07 05:08:58*
%MOMM*%
%LPD*%
G01*
G04 APERTURE LIST*
G04 Aperture macros list*
%AMRoundRect*
0 Rectangle with rounded corners*
0 $1 Rounding radius*
0 $2 $3 $4 $5 $6 $7 $8 $9 X,Y pos of 4 corners*
0 Add a 4 corners polygon primitive as box body*
4,1,4,$2,$3,$4,$5,$6,$7,$8,$9,$2,$3,0*
0 Add four circle primitives for the rounded corners*
1,1,$1+$1,$2,$3*
1,1,$1+$1,$4,$5*
1,1,$1+$1,$6,$7*
1,1,$1+$1,$8,$9*
0 Add four rect primitives between the rounded corners*
20,1,$1+$1,$2,$3,$4,$5,0*
20,1,$1+$1,$4,$5,$6,$7,0*
20,1,$1+$1,$6,$7,$8,$9,0*
20,1,$1+$1,$8,$9,$2,$3,0*%
G04 Aperture macros list end*
%ADD10RoundRect,0.250000X0.350000X0.450000X-0.350000X0.450000X-0.350000X-0.450000X0.350000X-0.450000X0*%
%ADD11C,4.310000*%
%ADD12RoundRect,0.150000X-0.150000X0.587500X-0.150000X-0.587500X0.150000X-0.587500X0.150000X0.587500X0*%
%ADD13RoundRect,0.250000X-0.337500X-0.475000X0.337500X-0.475000X0.337500X0.475000X-0.337500X0.475000X0*%
%ADD14RoundRect,0.250000X0.412500X1.100000X-0.412500X1.100000X-0.412500X-1.100000X0.412500X-1.100000X0*%
%ADD15RoundRect,0.250000X0.450000X-0.350000X0.450000X0.350000X-0.450000X0.350000X-0.450000X-0.350000X0*%
%ADD16RoundRect,0.235000X-1.465000X0.940000X-1.465000X-0.940000X1.465000X-0.940000X1.465000X0.940000X0*%
%ADD17RoundRect,0.250001X0.624999X-0.462499X0.624999X0.462499X-0.624999X0.462499X-0.624999X-0.462499X0*%
%ADD18C,2.510000*%
%ADD19RoundRect,0.250000X-0.475000X0.337500X-0.475000X-0.337500X0.475000X-0.337500X0.475000X0.337500X0*%
%ADD20RoundRect,0.250000X-0.350000X-0.450000X0.350000X-0.450000X0.350000X0.450000X-0.350000X0.450000X0*%
%ADD21RoundRect,0.250000X-0.450000X0.350000X-0.450000X-0.350000X0.450000X-0.350000X0.450000X0.350000X0*%
%ADD22RoundRect,0.150000X-0.150000X0.512500X-0.150000X-0.512500X0.150000X-0.512500X0.150000X0.512500X0*%
%ADD23RoundRect,0.250000X-1.350000X1.350000X-1.350000X-1.350000X1.350000X-1.350000X1.350000X1.350000X0*%
%ADD24C,3.200000*%
%ADD25C,2.604000*%
%ADD26C,2.240000*%
%ADD27C,3.000000*%
%ADD28C,2.204000*%
%ADD29RoundRect,0.102000X1.000000X1.000000X-1.000000X1.000000X-1.000000X-1.000000X1.000000X-1.000000X0*%
%ADD30R,1.905000X2.000000*%
%ADD31O,1.905000X2.000000*%
%ADD32RoundRect,0.250000X0.412500X0.650000X-0.412500X0.650000X-0.412500X-0.650000X0.412500X-0.650000X0*%
%ADD33RoundRect,0.249999X-0.750001X-0.640001X0.750001X-0.640001X0.750001X0.640001X-0.750001X0.640001X0*%
G04 APERTURE END LIST*
D10*
%TO.C,R8*%
X145450000Y-134620000D03*
X143450000Y-134620000D03*
%TD*%
D11*
%TO.C,W5*%
X126700000Y-120600000D03*
%TD*%
D12*
%TO.C,Q2*%
X153937881Y-94062118D03*
X152037881Y-94062118D03*
X152987881Y-95937118D03*
%TD*%
D11*
%TO.C,W3*%
X137500000Y-133900000D03*
%TD*%
%TO.C,W4*%
X126700000Y-105400000D03*
%TD*%
D13*
%TO.C,C2*%
X167662500Y-105900000D03*
X169737500Y-105900000D03*
%TD*%
D14*
%TO.C,C4*%
X170862500Y-127100000D03*
X167737500Y-127100000D03*
%TD*%
D15*
%TO.C,R6*%
X149000000Y-96000000D03*
X149000000Y-94000000D03*
%TD*%
D11*
%TO.C,W1*%
X129000000Y-83000000D03*
%TD*%
D16*
%TO.C,L1*%
X167640000Y-112575000D03*
X167640000Y-118625000D03*
%TD*%
D13*
%TO.C,C11*%
X140962500Y-110000000D03*
X143037500Y-110000000D03*
%TD*%
D10*
%TO.C,R9*%
X158000000Y-117000000D03*
X156000000Y-117000000D03*
%TD*%
D17*
%TO.C,D1*%
X172620000Y-96487500D03*
X172620000Y-93512500D03*
%TD*%
D18*
%TO.C,W2*%
X165200000Y-125500000D03*
%TD*%
D19*
%TO.C,C1*%
X170700000Y-110800000D03*
X170700000Y-108725000D03*
%TD*%
D10*
%TO.C,R2*%
X157995904Y-93994689D03*
X155995904Y-93994689D03*
%TD*%
D20*
%TO.C,R5*%
X141000000Y-94000000D03*
X143000000Y-94000000D03*
%TD*%
D21*
%TO.C,R14*%
X172730000Y-87000000D03*
X172730000Y-89000000D03*
%TD*%
D22*
%TO.C,U1*%
X168590000Y-107862500D03*
X167640000Y-107862500D03*
X166690000Y-107862500D03*
X166690000Y-110137500D03*
X167640000Y-110137500D03*
X168590000Y-110137500D03*
%TD*%
D23*
%TO.C,D2*%
X131000000Y-105380000D03*
D24*
X131000000Y-120620000D03*
%TD*%
D17*
%TO.C,D3*%
X125380000Y-95512500D03*
X125380000Y-98487500D03*
%TD*%
D21*
%TO.C,R17*%
X125270000Y-89000000D03*
X125270000Y-91000000D03*
%TD*%
D25*
%TO.C,F2*%
X131970000Y-89040000D03*
X131970000Y-98960000D03*
X128570000Y-89040000D03*
X128570000Y-98960000D03*
%TD*%
D26*
%TO.C,W6*%
X171450000Y-134620000D03*
%TD*%
%TO.C,W7*%
X149450000Y-134620000D03*
%TD*%
D27*
%TO.C,MCU1*%
X136770000Y-82525000D03*
X136770000Y-129475000D03*
X161280000Y-82525000D03*
X161280000Y-129475000D03*
D28*
X136300000Y-85955000D03*
X136300000Y-88495000D03*
X136300000Y-91035000D03*
X136300000Y-93575000D03*
X136300000Y-96115000D03*
X136300000Y-98655000D03*
X136300000Y-101195000D03*
X136300000Y-103735000D03*
X136300000Y-106275000D03*
X136300000Y-108815000D03*
X136300000Y-111355000D03*
X136300000Y-113895000D03*
X136300000Y-116435000D03*
X136300000Y-118975000D03*
D29*
X136300000Y-121515000D03*
X161700000Y-121515000D03*
D28*
X161700000Y-118975000D03*
X161700000Y-116435000D03*
X161700000Y-113895000D03*
X161700000Y-111355000D03*
X161700000Y-108815000D03*
X161700000Y-106275000D03*
X161700000Y-103735000D03*
X161700000Y-101195000D03*
X161700000Y-98655000D03*
X161700000Y-96115000D03*
X161700000Y-93575000D03*
X161700000Y-91035000D03*
X161700000Y-88495000D03*
X161700000Y-85955000D03*
%TD*%
D30*
%TO.C,Q3*%
X131540000Y-133050000D03*
D31*
X129000000Y-133050000D03*
X126460000Y-133050000D03*
%TD*%
D25*
%TO.C,F1*%
X169430000Y-87040000D03*
X169430000Y-96960000D03*
X166030000Y-87040000D03*
X166030000Y-96960000D03*
%TD*%
D20*
%TO.C,R3*%
X165450000Y-134620000D03*
X167450000Y-134620000D03*
%TD*%
D10*
%TO.C,R10*%
X155450000Y-134620000D03*
X153450000Y-134620000D03*
%TD*%
D32*
%TO.C,C3*%
X170862500Y-103700000D03*
X167737500Y-103700000D03*
%TD*%
D33*
%TO.C,U2*%
X142824452Y-116432858D03*
X142824452Y-118972858D03*
X142824452Y-121512858D03*
X142824452Y-124052858D03*
X152354452Y-124052858D03*
X152354452Y-121512858D03*
X152354452Y-118972858D03*
X152354452Y-116432858D03*
%TD*%
D30*
%TO.C,Q4*%
X131540000Y-125050000D03*
D31*
X129000000Y-125050000D03*
X126460000Y-125050000D03*
%TD*%
D26*
%TO.C,W8*%
X159450000Y-134620000D03*
%TD*%
D10*
%TO.C,R11*%
X158000000Y-122000000D03*
X156000000Y-122000000D03*
%TD*%
D13*
%TO.C,C10*%
X140962500Y-106000000D03*
X143037500Y-106000000D03*
%TD*%
D19*
%TO.C,C8*%
X146000000Y-93962500D03*
X146000000Y-96037500D03*
%TD*%
D14*
%TO.C,C5*%
X170862500Y-123800000D03*
X167737500Y-123800000D03*
%TD*%
D13*
%TO.C,C6*%
X167662500Y-121100000D03*
X169737500Y-121100000D03*
%TD*%
M02*
