%TF.GenerationSoftware,KiCad,Pcbnew,10.0.1*%
%TF.CreationDate,2026-06-07T05:08:58-05:00*%
%TF.ProjectId,ESPRadiator,45535052-6164-4696-9174-6f722e6b6963,rev?*%
%TF.SameCoordinates,Original*%
%TF.FileFunction,Legend,Top*%
%TF.FilePolarity,Positive*%
%FSLAX46Y46*%
G04 Gerber Fmt 4.6, Leading zero omitted, Abs format (unit mm)*
G04 Created by KiCad (PCBNEW 10.0.1) date 2026-06-07 05:08:58*
%MOMM*%
%LPD*%
G01*
G04 APERTURE LIST*
G04 Aperture macros list*
%AMRoundRect*
0 Rectangle with rounded corners*
0 $1 Rounding radius*
0 $2 $3 $4 $5 $6 $7 $8 $9 X,Y pos of 4 corners*
0 Add a 4 corners polygon primitive as box body*
4,1,4,$2,$3,$4,$5,$6,$7,$8,$9,$2,$3,0*
0 Add four circle primitives for the rounded corners*
1,1,$1+$1,$2,$3*
1,1,$1+$1,$4,$5*
1,1,$1+$1,$6,$7*
1,1,$1+$1,$8,$9*
0 Add four rect primitives between the rounded corners*
20,1,$1+$1,$2,$3,$4,$5,0*
20,1,$1+$1,$4,$5,$6,$7,0*
20,1,$1+$1,$6,$7,$8,$9,0*
20,1,$1+$1,$8,$9,$2,$3,0*%
G04 Aperture macros list end*
%ADD10C,0.150000*%
%ADD11C,0.120000*%
%ADD12C,0.127000*%
%ADD13C,0.200000*%
%ADD14C,4.290000*%
%ADD15C,2.490000*%
%ADD16C,2.220000*%
%ADD17RoundRect,0.250000X0.350000X0.450000X-0.350000X0.450000X-0.350000X-0.450000X0.350000X-0.450000X0*%
%ADD18C,4.310000*%
%ADD19RoundRect,0.150000X-0.150000X0.587500X-0.150000X-0.587500X0.150000X-0.587500X0.150000X0.587500X0*%
%ADD20RoundRect,0.250000X-0.337500X-0.475000X0.337500X-0.475000X0.337500X0.475000X-0.337500X0.475000X0*%
%ADD21RoundRect,0.250000X0.412500X1.100000X-0.412500X1.100000X-0.412500X-1.100000X0.412500X-1.100000X0*%
%ADD22RoundRect,0.250000X0.450000X-0.350000X0.450000X0.350000X-0.450000X0.350000X-0.450000X-0.350000X0*%
%ADD23RoundRect,0.235000X-1.465000X0.940000X-1.465000X-0.940000X1.465000X-0.940000X1.465000X0.940000X0*%
%ADD24RoundRect,0.250001X0.624999X-0.462499X0.624999X0.462499X-0.624999X0.462499X-0.624999X-0.462499X0*%
%ADD25C,2.510000*%
%ADD26RoundRect,0.250000X-0.475000X0.337500X-0.475000X-0.337500X0.475000X-0.337500X0.475000X0.337500X0*%
%ADD27RoundRect,0.250000X-0.350000X-0.450000X0.350000X-0.450000X0.350000X0.450000X-0.350000X0.450000X0*%
%ADD28RoundRect,0.250000X-0.450000X0.350000X-0.450000X-0.350000X0.450000X-0.350000X0.450000X0.350000X0*%
%ADD29RoundRect,0.150000X-0.150000X0.512500X-0.150000X-0.512500X0.150000X-0.512500X0.150000X0.512500X0*%
%ADD30RoundRect,0.250000X-1.350000X1.350000X-1.350000X-1.350000X1.350000X-1.350000X1.350000X1.350000X0*%
%ADD31C,3.200000*%
%ADD32C,2.604000*%
%ADD33C,2.240000*%
%ADD34C,3.000000*%
%ADD35C,2.204000*%
%ADD36RoundRect,0.102000X1.000000X1.000000X-1.000000X1.000000X-1.000000X-1.000000X1.000000X-1.000000X0*%
%ADD37R,1.905000X2.000000*%
%ADD38O,1.905000X2.000000*%
%ADD39RoundRect,0.250000X0.412500X0.650000X-0.412500X0.650000X-0.412500X-0.650000X0.412500X-0.650000X0*%
%ADD40RoundRect,0.249999X-0.750001X-0.640001X0.750001X-0.640001X0.750001X0.640001X-0.750001X0.640001X0*%
G04 APERTURE END LIST*
D10*
X164247619Y-101454819D02*
X164247619Y-100454819D01*
X164247619Y-100454819D02*
X164580952Y-101169104D01*
X164580952Y-101169104D02*
X164914285Y-100454819D01*
X164914285Y-100454819D02*
X164914285Y-101454819D01*
X165961904Y-101359580D02*
X165914285Y-101407200D01*
X165914285Y-101407200D02*
X165771428Y-101454819D01*
X165771428Y-101454819D02*
X165676190Y-101454819D01*
X165676190Y-101454819D02*
X165533333Y-101407200D01*
X165533333Y-101407200D02*
X165438095Y-101311961D01*
X165438095Y-101311961D02*
X165390476Y-101216723D01*
X165390476Y-101216723D02*
X165342857Y-101026247D01*
X165342857Y-101026247D02*
X165342857Y-100883390D01*
X165342857Y-100883390D02*
X165390476Y-100692914D01*
X165390476Y-100692914D02*
X165438095Y-100597676D01*
X165438095Y-100597676D02*
X165533333Y-100502438D01*
X165533333Y-100502438D02*
X165676190Y-100454819D01*
X165676190Y-100454819D02*
X165771428Y-100454819D01*
X165771428Y-100454819D02*
X165914285Y-100502438D01*
X165914285Y-100502438D02*
X165961904Y-100550057D01*
X166390476Y-100454819D02*
X166390476Y-101264342D01*
X166390476Y-101264342D02*
X166438095Y-101359580D01*
X166438095Y-101359580D02*
X166485714Y-101407200D01*
X166485714Y-101407200D02*
X166580952Y-101454819D01*
X166580952Y-101454819D02*
X166771428Y-101454819D01*
X166771428Y-101454819D02*
X166866666Y-101407200D01*
X166866666Y-101407200D02*
X166914285Y-101359580D01*
X166914285Y-101359580D02*
X166961904Y-101264342D01*
X166961904Y-101264342D02*
X166961904Y-100454819D01*
X168533333Y-100931009D02*
X168200000Y-100931009D01*
X168200000Y-101454819D02*
X168200000Y-100454819D01*
X168200000Y-100454819D02*
X168676190Y-100454819D01*
X169485714Y-100788152D02*
X169485714Y-101454819D01*
X169057143Y-100788152D02*
X169057143Y-101311961D01*
X169057143Y-101311961D02*
X169104762Y-101407200D01*
X169104762Y-101407200D02*
X169200000Y-101454819D01*
X169200000Y-101454819D02*
X169342857Y-101454819D01*
X169342857Y-101454819D02*
X169438095Y-101407200D01*
X169438095Y-101407200D02*
X169485714Y-101359580D01*
X169914286Y-101407200D02*
X170009524Y-101454819D01*
X170009524Y-101454819D02*
X170200000Y-101454819D01*
X170200000Y-101454819D02*
X170295238Y-101407200D01*
X170295238Y-101407200D02*
X170342857Y-101311961D01*
X170342857Y-101311961D02*
X170342857Y-101264342D01*
X170342857Y-101264342D02*
X170295238Y-101169104D01*
X170295238Y-101169104D02*
X170200000Y-101121485D01*
X170200000Y-101121485D02*
X170057143Y-101121485D01*
X170057143Y-101121485D02*
X169961905Y-101073866D01*
X169961905Y-101073866D02*
X169914286Y-100978628D01*
X169914286Y-100978628D02*
X169914286Y-100931009D01*
X169914286Y-100931009D02*
X169961905Y-100835771D01*
X169961905Y-100835771D02*
X170057143Y-100788152D01*
X170057143Y-100788152D02*
X170200000Y-100788152D01*
X170200000Y-100788152D02*
X170295238Y-100835771D01*
X171152381Y-101407200D02*
X171057143Y-101454819D01*
X171057143Y-101454819D02*
X170866667Y-101454819D01*
X170866667Y-101454819D02*
X170771429Y-101407200D01*
X170771429Y-101407200D02*
X170723810Y-101311961D01*
X170723810Y-101311961D02*
X170723810Y-100931009D01*
X170723810Y-100931009D02*
X170771429Y-100835771D01*
X170771429Y-100835771D02*
X170866667Y-100788152D01*
X170866667Y-100788152D02*
X171057143Y-100788152D01*
X171057143Y-100788152D02*
X171152381Y-100835771D01*
X171152381Y-100835771D02*
X171200000Y-100931009D01*
X171200000Y-100931009D02*
X171200000Y-101026247D01*
X171200000Y-101026247D02*
X170723810Y-101121485D01*
X128342856Y-102831009D02*
X128009523Y-102831009D01*
X128009523Y-103354819D02*
X128009523Y-102354819D01*
X128009523Y-102354819D02*
X128485713Y-102354819D01*
X129295237Y-103354819D02*
X129295237Y-102831009D01*
X129295237Y-102831009D02*
X129247618Y-102735771D01*
X129247618Y-102735771D02*
X129152380Y-102688152D01*
X129152380Y-102688152D02*
X128961904Y-102688152D01*
X128961904Y-102688152D02*
X128866666Y-102735771D01*
X129295237Y-103307200D02*
X129199999Y-103354819D01*
X129199999Y-103354819D02*
X128961904Y-103354819D01*
X128961904Y-103354819D02*
X128866666Y-103307200D01*
X128866666Y-103307200D02*
X128819047Y-103211961D01*
X128819047Y-103211961D02*
X128819047Y-103116723D01*
X128819047Y-103116723D02*
X128866666Y-103021485D01*
X128866666Y-103021485D02*
X128961904Y-102973866D01*
X128961904Y-102973866D02*
X129199999Y-102973866D01*
X129199999Y-102973866D02*
X129295237Y-102926247D01*
X129771428Y-102688152D02*
X129771428Y-103354819D01*
X129771428Y-102783390D02*
X129819047Y-102735771D01*
X129819047Y-102735771D02*
X129914285Y-102688152D01*
X129914285Y-102688152D02*
X130057142Y-102688152D01*
X130057142Y-102688152D02*
X130152380Y-102735771D01*
X130152380Y-102735771D02*
X130199999Y-102831009D01*
X130199999Y-102831009D02*
X130199999Y-103354819D01*
X131771428Y-102831009D02*
X131438095Y-102831009D01*
X131438095Y-103354819D02*
X131438095Y-102354819D01*
X131438095Y-102354819D02*
X131914285Y-102354819D01*
X132723809Y-102688152D02*
X132723809Y-103354819D01*
X132295238Y-102688152D02*
X132295238Y-103211961D01*
X132295238Y-103211961D02*
X132342857Y-103307200D01*
X132342857Y-103307200D02*
X132438095Y-103354819D01*
X132438095Y-103354819D02*
X132580952Y-103354819D01*
X132580952Y-103354819D02*
X132676190Y-103307200D01*
X132676190Y-103307200D02*
X132723809Y-103259580D01*
X133152381Y-103307200D02*
X133247619Y-103354819D01*
X133247619Y-103354819D02*
X133438095Y-103354819D01*
X133438095Y-103354819D02*
X133533333Y-103307200D01*
X133533333Y-103307200D02*
X133580952Y-103211961D01*
X133580952Y-103211961D02*
X133580952Y-103164342D01*
X133580952Y-103164342D02*
X133533333Y-103069104D01*
X133533333Y-103069104D02*
X133438095Y-103021485D01*
X133438095Y-103021485D02*
X133295238Y-103021485D01*
X133295238Y-103021485D02*
X133200000Y-102973866D01*
X133200000Y-102973866D02*
X133152381Y-102878628D01*
X133152381Y-102878628D02*
X133152381Y-102831009D01*
X133152381Y-102831009D02*
X133200000Y-102735771D01*
X133200000Y-102735771D02*
X133295238Y-102688152D01*
X133295238Y-102688152D02*
X133438095Y-102688152D01*
X133438095Y-102688152D02*
X133533333Y-102735771D01*
X134390476Y-103307200D02*
X134295238Y-103354819D01*
X134295238Y-103354819D02*
X134104762Y-103354819D01*
X134104762Y-103354819D02*
X134009524Y-103307200D01*
X134009524Y-103307200D02*
X133961905Y-103211961D01*
X133961905Y-103211961D02*
X133961905Y-102831009D01*
X133961905Y-102831009D02*
X134009524Y-102735771D01*
X134009524Y-102735771D02*
X134104762Y-102688152D01*
X134104762Y-102688152D02*
X134295238Y-102688152D01*
X134295238Y-102688152D02*
X134390476Y-102735771D01*
X134390476Y-102735771D02*
X134438095Y-102831009D01*
X134438095Y-102831009D02*
X134438095Y-102926247D01*
X134438095Y-102926247D02*
X133961905Y-103021485D01*
X131109524Y-84650057D02*
X131157143Y-84602438D01*
X131157143Y-84602438D02*
X131252381Y-84554819D01*
X131252381Y-84554819D02*
X131490476Y-84554819D01*
X131490476Y-84554819D02*
X131585714Y-84602438D01*
X131585714Y-84602438D02*
X131633333Y-84650057D01*
X131633333Y-84650057D02*
X131680952Y-84745295D01*
X131680952Y-84745295D02*
X131680952Y-84840533D01*
X131680952Y-84840533D02*
X131633333Y-84983390D01*
X131633333Y-84983390D02*
X131061905Y-85554819D01*
X131061905Y-85554819D02*
X131680952Y-85554819D01*
X132300000Y-84554819D02*
X132395238Y-84554819D01*
X132395238Y-84554819D02*
X132490476Y-84602438D01*
X132490476Y-84602438D02*
X132538095Y-84650057D01*
X132538095Y-84650057D02*
X132585714Y-84745295D01*
X132585714Y-84745295D02*
X132633333Y-84935771D01*
X132633333Y-84935771D02*
X132633333Y-85173866D01*
X132633333Y-85173866D02*
X132585714Y-85364342D01*
X132585714Y-85364342D02*
X132538095Y-85459580D01*
X132538095Y-85459580D02*
X132490476Y-85507200D01*
X132490476Y-85507200D02*
X132395238Y-85554819D01*
X132395238Y-85554819D02*
X132300000Y-85554819D01*
X132300000Y-85554819D02*
X132204762Y-85507200D01*
X132204762Y-85507200D02*
X132157143Y-85459580D01*
X132157143Y-85459580D02*
X132109524Y-85364342D01*
X132109524Y-85364342D02*
X132061905Y-85173866D01*
X132061905Y-85173866D02*
X132061905Y-84935771D01*
X132061905Y-84935771D02*
X132109524Y-84745295D01*
X132109524Y-84745295D02*
X132157143Y-84650057D01*
X132157143Y-84650057D02*
X132204762Y-84602438D01*
X132204762Y-84602438D02*
X132300000Y-84554819D01*
X133014286Y-85269104D02*
X133490476Y-85269104D01*
X132919048Y-85554819D02*
X133252381Y-84554819D01*
X133252381Y-84554819D02*
X133585714Y-85554819D01*
X164585714Y-82650057D02*
X164633333Y-82602438D01*
X164633333Y-82602438D02*
X164728571Y-82554819D01*
X164728571Y-82554819D02*
X164966666Y-82554819D01*
X164966666Y-82554819D02*
X165061904Y-82602438D01*
X165061904Y-82602438D02*
X165109523Y-82650057D01*
X165109523Y-82650057D02*
X165157142Y-82745295D01*
X165157142Y-82745295D02*
X165157142Y-82840533D01*
X165157142Y-82840533D02*
X165109523Y-82983390D01*
X165109523Y-82983390D02*
X164538095Y-83554819D01*
X164538095Y-83554819D02*
X165157142Y-83554819D01*
X165538095Y-83269104D02*
X166014285Y-83269104D01*
X165442857Y-83554819D02*
X165776190Y-82554819D01*
X165776190Y-82554819D02*
X166109523Y-83554819D01*
X130761904Y-80731009D02*
X130904761Y-80778628D01*
X130904761Y-80778628D02*
X130952380Y-80826247D01*
X130952380Y-80826247D02*
X130999999Y-80921485D01*
X130999999Y-80921485D02*
X130999999Y-81064342D01*
X130999999Y-81064342D02*
X130952380Y-81159580D01*
X130952380Y-81159580D02*
X130904761Y-81207200D01*
X130904761Y-81207200D02*
X130809523Y-81254819D01*
X130809523Y-81254819D02*
X130428571Y-81254819D01*
X130428571Y-81254819D02*
X130428571Y-80254819D01*
X130428571Y-80254819D02*
X130761904Y-80254819D01*
X130761904Y-80254819D02*
X130857142Y-80302438D01*
X130857142Y-80302438D02*
X130904761Y-80350057D01*
X130904761Y-80350057D02*
X130952380Y-80445295D01*
X130952380Y-80445295D02*
X130952380Y-80540533D01*
X130952380Y-80540533D02*
X130904761Y-80635771D01*
X130904761Y-80635771D02*
X130857142Y-80683390D01*
X130857142Y-80683390D02*
X130761904Y-80731009D01*
X130761904Y-80731009D02*
X130428571Y-80731009D01*
X131380952Y-80969104D02*
X131857142Y-80969104D01*
X131285714Y-81254819D02*
X131619047Y-80254819D01*
X131619047Y-80254819D02*
X131952380Y-81254819D01*
X132142857Y-80254819D02*
X132714285Y-80254819D01*
X132428571Y-81254819D02*
X132428571Y-80254819D01*
X132904762Y-80254819D02*
X133476190Y-80254819D01*
X133190476Y-81254819D02*
X133190476Y-80254819D01*
X133809524Y-80873866D02*
X134571429Y-80873866D01*
X134190476Y-81254819D02*
X134190476Y-80492914D01*
X150576191Y-136554819D02*
X150576191Y-135554819D01*
X151576190Y-135602438D02*
X151480952Y-135554819D01*
X151480952Y-135554819D02*
X151338095Y-135554819D01*
X151338095Y-135554819D02*
X151195238Y-135602438D01*
X151195238Y-135602438D02*
X151100000Y-135697676D01*
X151100000Y-135697676D02*
X151052381Y-135792914D01*
X151052381Y-135792914D02*
X151004762Y-135983390D01*
X151004762Y-135983390D02*
X151004762Y-136126247D01*
X151004762Y-136126247D02*
X151052381Y-136316723D01*
X151052381Y-136316723D02*
X151100000Y-136411961D01*
X151100000Y-136411961D02*
X151195238Y-136507200D01*
X151195238Y-136507200D02*
X151338095Y-136554819D01*
X151338095Y-136554819D02*
X151433333Y-136554819D01*
X151433333Y-136554819D02*
X151576190Y-136507200D01*
X151576190Y-136507200D02*
X151623809Y-136459580D01*
X151623809Y-136459580D02*
X151623809Y-136126247D01*
X151623809Y-136126247D02*
X151433333Y-136126247D01*
X152052381Y-136554819D02*
X152052381Y-135554819D01*
X152052381Y-135554819D02*
X152623809Y-136554819D01*
X152623809Y-136554819D02*
X152623809Y-135554819D01*
X160738095Y-136069104D02*
X161214285Y-136069104D01*
X160642857Y-136354819D02*
X160976190Y-135354819D01*
X160976190Y-135354819D02*
X161309523Y-136354819D01*
X162357142Y-135307200D02*
X161500000Y-136592914D01*
X163261904Y-136259580D02*
X163214285Y-136307200D01*
X163214285Y-136307200D02*
X163071428Y-136354819D01*
X163071428Y-136354819D02*
X162976190Y-136354819D01*
X162976190Y-136354819D02*
X162833333Y-136307200D01*
X162833333Y-136307200D02*
X162738095Y-136211961D01*
X162738095Y-136211961D02*
X162690476Y-136116723D01*
X162690476Y-136116723D02*
X162642857Y-135926247D01*
X162642857Y-135926247D02*
X162642857Y-135783390D01*
X162642857Y-135783390D02*
X162690476Y-135592914D01*
X162690476Y-135592914D02*
X162738095Y-135497676D01*
X162738095Y-135497676D02*
X162833333Y-135402438D01*
X162833333Y-135402438D02*
X162976190Y-135354819D01*
X162976190Y-135354819D02*
X163071428Y-135354819D01*
X163071428Y-135354819D02*
X163214285Y-135402438D01*
X163214285Y-135402438D02*
X163261904Y-135450057D01*
X171204762Y-132531009D02*
X171538095Y-132531009D01*
X171680952Y-133054819D02*
X171204762Y-133054819D01*
X171204762Y-133054819D02*
X171204762Y-132054819D01*
X171204762Y-132054819D02*
X171680952Y-132054819D01*
X172680952Y-132959580D02*
X172633333Y-133007200D01*
X172633333Y-133007200D02*
X172490476Y-133054819D01*
X172490476Y-133054819D02*
X172395238Y-133054819D01*
X172395238Y-133054819D02*
X172252381Y-133007200D01*
X172252381Y-133007200D02*
X172157143Y-132911961D01*
X172157143Y-132911961D02*
X172109524Y-132816723D01*
X172109524Y-132816723D02*
X172061905Y-132626247D01*
X172061905Y-132626247D02*
X172061905Y-132483390D01*
X172061905Y-132483390D02*
X172109524Y-132292914D01*
X172109524Y-132292914D02*
X172157143Y-132197676D01*
X172157143Y-132197676D02*
X172252381Y-132102438D01*
X172252381Y-132102438D02*
X172395238Y-132054819D01*
X172395238Y-132054819D02*
X172490476Y-132054819D01*
X172490476Y-132054819D02*
X172633333Y-132102438D01*
X172633333Y-132102438D02*
X172680952Y-132150057D01*
X172966667Y-132054819D02*
X173538095Y-132054819D01*
X173252381Y-133054819D02*
X173252381Y-132054819D01*
X163911905Y-127154819D02*
X164530952Y-127154819D01*
X164530952Y-127154819D02*
X164197619Y-127535771D01*
X164197619Y-127535771D02*
X164340476Y-127535771D01*
X164340476Y-127535771D02*
X164435714Y-127583390D01*
X164435714Y-127583390D02*
X164483333Y-127631009D01*
X164483333Y-127631009D02*
X164530952Y-127726247D01*
X164530952Y-127726247D02*
X164530952Y-127964342D01*
X164530952Y-127964342D02*
X164483333Y-128059580D01*
X164483333Y-128059580D02*
X164435714Y-128107200D01*
X164435714Y-128107200D02*
X164340476Y-128154819D01*
X164340476Y-128154819D02*
X164054762Y-128154819D01*
X164054762Y-128154819D02*
X163959524Y-128107200D01*
X163959524Y-128107200D02*
X163911905Y-128059580D01*
X164816667Y-127154819D02*
X165150000Y-128154819D01*
X165150000Y-128154819D02*
X165483333Y-127154819D01*
X165721429Y-127154819D02*
X166340476Y-127154819D01*
X166340476Y-127154819D02*
X166007143Y-127535771D01*
X166007143Y-127535771D02*
X166150000Y-127535771D01*
X166150000Y-127535771D02*
X166245238Y-127583390D01*
X166245238Y-127583390D02*
X166292857Y-127631009D01*
X166292857Y-127631009D02*
X166340476Y-127726247D01*
X166340476Y-127726247D02*
X166340476Y-127964342D01*
X166340476Y-127964342D02*
X166292857Y-128059580D01*
X166292857Y-128059580D02*
X166245238Y-128107200D01*
X166245238Y-128107200D02*
X166150000Y-128154819D01*
X166150000Y-128154819D02*
X165864286Y-128154819D01*
X165864286Y-128154819D02*
X165769048Y-128107200D01*
X165769048Y-128107200D02*
X165721429Y-128059580D01*
X139838095Y-135602438D02*
X139742857Y-135554819D01*
X139742857Y-135554819D02*
X139600000Y-135554819D01*
X139600000Y-135554819D02*
X139457143Y-135602438D01*
X139457143Y-135602438D02*
X139361905Y-135697676D01*
X139361905Y-135697676D02*
X139314286Y-135792914D01*
X139314286Y-135792914D02*
X139266667Y-135983390D01*
X139266667Y-135983390D02*
X139266667Y-136126247D01*
X139266667Y-136126247D02*
X139314286Y-136316723D01*
X139314286Y-136316723D02*
X139361905Y-136411961D01*
X139361905Y-136411961D02*
X139457143Y-136507200D01*
X139457143Y-136507200D02*
X139600000Y-136554819D01*
X139600000Y-136554819D02*
X139695238Y-136554819D01*
X139695238Y-136554819D02*
X139838095Y-136507200D01*
X139838095Y-136507200D02*
X139885714Y-136459580D01*
X139885714Y-136459580D02*
X139885714Y-136126247D01*
X139885714Y-136126247D02*
X139695238Y-136126247D01*
X140314286Y-136554819D02*
X140314286Y-135554819D01*
X140314286Y-135554819D02*
X140885714Y-136554819D01*
X140885714Y-136554819D02*
X140885714Y-135554819D01*
X141361905Y-136554819D02*
X141361905Y-135554819D01*
X141361905Y-135554819D02*
X141600000Y-135554819D01*
X141600000Y-135554819D02*
X141742857Y-135602438D01*
X141742857Y-135602438D02*
X141838095Y-135697676D01*
X141838095Y-135697676D02*
X141885714Y-135792914D01*
X141885714Y-135792914D02*
X141933333Y-135983390D01*
X141933333Y-135983390D02*
X141933333Y-136126247D01*
X141933333Y-136126247D02*
X141885714Y-136316723D01*
X141885714Y-136316723D02*
X141838095Y-136411961D01*
X141838095Y-136411961D02*
X141742857Y-136507200D01*
X141742857Y-136507200D02*
X141600000Y-136554819D01*
X141600000Y-136554819D02*
X141361905Y-136554819D01*
X124671428Y-117631009D02*
X124338095Y-117631009D01*
X124338095Y-118154819D02*
X124338095Y-117154819D01*
X124338095Y-117154819D02*
X124814285Y-117154819D01*
X125147619Y-117869104D02*
X125623809Y-117869104D01*
X125052381Y-118154819D02*
X125385714Y-117154819D01*
X125385714Y-117154819D02*
X125719047Y-118154819D01*
X126052381Y-118154819D02*
X126052381Y-117154819D01*
X126052381Y-117154819D02*
X126623809Y-118154819D01*
X126623809Y-118154819D02*
X126623809Y-117154819D01*
X127100000Y-117773866D02*
X127861905Y-117773866D01*
X124771428Y-108431009D02*
X124438095Y-108431009D01*
X124438095Y-108954819D02*
X124438095Y-107954819D01*
X124438095Y-107954819D02*
X124914285Y-107954819D01*
X125247619Y-108669104D02*
X125723809Y-108669104D01*
X125152381Y-108954819D02*
X125485714Y-107954819D01*
X125485714Y-107954819D02*
X125819047Y-108954819D01*
X126152381Y-108954819D02*
X126152381Y-107954819D01*
X126152381Y-107954819D02*
X126723809Y-108954819D01*
X126723809Y-108954819D02*
X126723809Y-107954819D01*
X127200000Y-108573866D02*
X127961905Y-108573866D01*
X127580952Y-108954819D02*
X127580952Y-108192914D01*
X144283333Y-133354819D02*
X143950000Y-132878628D01*
X143711905Y-133354819D02*
X143711905Y-132354819D01*
X143711905Y-132354819D02*
X144092857Y-132354819D01*
X144092857Y-132354819D02*
X144188095Y-132402438D01*
X144188095Y-132402438D02*
X144235714Y-132450057D01*
X144235714Y-132450057D02*
X144283333Y-132545295D01*
X144283333Y-132545295D02*
X144283333Y-132688152D01*
X144283333Y-132688152D02*
X144235714Y-132783390D01*
X144235714Y-132783390D02*
X144188095Y-132831009D01*
X144188095Y-132831009D02*
X144092857Y-132878628D01*
X144092857Y-132878628D02*
X143711905Y-132878628D01*
X144854762Y-132783390D02*
X144759524Y-132735771D01*
X144759524Y-132735771D02*
X144711905Y-132688152D01*
X144711905Y-132688152D02*
X144664286Y-132592914D01*
X144664286Y-132592914D02*
X144664286Y-132545295D01*
X144664286Y-132545295D02*
X144711905Y-132450057D01*
X144711905Y-132450057D02*
X144759524Y-132402438D01*
X144759524Y-132402438D02*
X144854762Y-132354819D01*
X144854762Y-132354819D02*
X145045238Y-132354819D01*
X145045238Y-132354819D02*
X145140476Y-132402438D01*
X145140476Y-132402438D02*
X145188095Y-132450057D01*
X145188095Y-132450057D02*
X145235714Y-132545295D01*
X145235714Y-132545295D02*
X145235714Y-132592914D01*
X145235714Y-132592914D02*
X145188095Y-132688152D01*
X145188095Y-132688152D02*
X145140476Y-132735771D01*
X145140476Y-132735771D02*
X145045238Y-132783390D01*
X145045238Y-132783390D02*
X144854762Y-132783390D01*
X144854762Y-132783390D02*
X144759524Y-132831009D01*
X144759524Y-132831009D02*
X144711905Y-132878628D01*
X144711905Y-132878628D02*
X144664286Y-132973866D01*
X144664286Y-132973866D02*
X144664286Y-133164342D01*
X144664286Y-133164342D02*
X144711905Y-133259580D01*
X144711905Y-133259580D02*
X144759524Y-133307200D01*
X144759524Y-133307200D02*
X144854762Y-133354819D01*
X144854762Y-133354819D02*
X145045238Y-133354819D01*
X145045238Y-133354819D02*
X145140476Y-133307200D01*
X145140476Y-133307200D02*
X145188095Y-133259580D01*
X145188095Y-133259580D02*
X145235714Y-133164342D01*
X145235714Y-133164342D02*
X145235714Y-132973866D01*
X145235714Y-132973866D02*
X145188095Y-132878628D01*
X145188095Y-132878628D02*
X145140476Y-132831009D01*
X145140476Y-132831009D02*
X145045238Y-132783390D01*
X152904761Y-98450057D02*
X152809523Y-98402438D01*
X152809523Y-98402438D02*
X152714285Y-98307200D01*
X152714285Y-98307200D02*
X152571428Y-98164342D01*
X152571428Y-98164342D02*
X152476190Y-98116723D01*
X152476190Y-98116723D02*
X152380952Y-98116723D01*
X152428571Y-98354819D02*
X152333333Y-98307200D01*
X152333333Y-98307200D02*
X152238095Y-98211961D01*
X152238095Y-98211961D02*
X152190476Y-98021485D01*
X152190476Y-98021485D02*
X152190476Y-97688152D01*
X152190476Y-97688152D02*
X152238095Y-97497676D01*
X152238095Y-97497676D02*
X152333333Y-97402438D01*
X152333333Y-97402438D02*
X152428571Y-97354819D01*
X152428571Y-97354819D02*
X152619047Y-97354819D01*
X152619047Y-97354819D02*
X152714285Y-97402438D01*
X152714285Y-97402438D02*
X152809523Y-97497676D01*
X152809523Y-97497676D02*
X152857142Y-97688152D01*
X152857142Y-97688152D02*
X152857142Y-98021485D01*
X152857142Y-98021485D02*
X152809523Y-98211961D01*
X152809523Y-98211961D02*
X152714285Y-98307200D01*
X152714285Y-98307200D02*
X152619047Y-98354819D01*
X152619047Y-98354819D02*
X152428571Y-98354819D01*
X153238095Y-97450057D02*
X153285714Y-97402438D01*
X153285714Y-97402438D02*
X153380952Y-97354819D01*
X153380952Y-97354819D02*
X153619047Y-97354819D01*
X153619047Y-97354819D02*
X153714285Y-97402438D01*
X153714285Y-97402438D02*
X153761904Y-97450057D01*
X153761904Y-97450057D02*
X153809523Y-97545295D01*
X153809523Y-97545295D02*
X153809523Y-97640533D01*
X153809523Y-97640533D02*
X153761904Y-97783390D01*
X153761904Y-97783390D02*
X153190476Y-98354819D01*
X153190476Y-98354819D02*
X153809523Y-98354819D01*
X165833333Y-106259580D02*
X165785714Y-106307200D01*
X165785714Y-106307200D02*
X165642857Y-106354819D01*
X165642857Y-106354819D02*
X165547619Y-106354819D01*
X165547619Y-106354819D02*
X165404762Y-106307200D01*
X165404762Y-106307200D02*
X165309524Y-106211961D01*
X165309524Y-106211961D02*
X165261905Y-106116723D01*
X165261905Y-106116723D02*
X165214286Y-105926247D01*
X165214286Y-105926247D02*
X165214286Y-105783390D01*
X165214286Y-105783390D02*
X165261905Y-105592914D01*
X165261905Y-105592914D02*
X165309524Y-105497676D01*
X165309524Y-105497676D02*
X165404762Y-105402438D01*
X165404762Y-105402438D02*
X165547619Y-105354819D01*
X165547619Y-105354819D02*
X165642857Y-105354819D01*
X165642857Y-105354819D02*
X165785714Y-105402438D01*
X165785714Y-105402438D02*
X165833333Y-105450057D01*
X166214286Y-105450057D02*
X166261905Y-105402438D01*
X166261905Y-105402438D02*
X166357143Y-105354819D01*
X166357143Y-105354819D02*
X166595238Y-105354819D01*
X166595238Y-105354819D02*
X166690476Y-105402438D01*
X166690476Y-105402438D02*
X166738095Y-105450057D01*
X166738095Y-105450057D02*
X166785714Y-105545295D01*
X166785714Y-105545295D02*
X166785714Y-105640533D01*
X166785714Y-105640533D02*
X166738095Y-105783390D01*
X166738095Y-105783390D02*
X166166667Y-106354819D01*
X166166667Y-106354819D02*
X166785714Y-106354819D01*
X172633333Y-127459580D02*
X172585714Y-127507200D01*
X172585714Y-127507200D02*
X172442857Y-127554819D01*
X172442857Y-127554819D02*
X172347619Y-127554819D01*
X172347619Y-127554819D02*
X172204762Y-127507200D01*
X172204762Y-127507200D02*
X172109524Y-127411961D01*
X172109524Y-127411961D02*
X172061905Y-127316723D01*
X172061905Y-127316723D02*
X172014286Y-127126247D01*
X172014286Y-127126247D02*
X172014286Y-126983390D01*
X172014286Y-126983390D02*
X172061905Y-126792914D01*
X172061905Y-126792914D02*
X172109524Y-126697676D01*
X172109524Y-126697676D02*
X172204762Y-126602438D01*
X172204762Y-126602438D02*
X172347619Y-126554819D01*
X172347619Y-126554819D02*
X172442857Y-126554819D01*
X172442857Y-126554819D02*
X172585714Y-126602438D01*
X172585714Y-126602438D02*
X172633333Y-126650057D01*
X173490476Y-126888152D02*
X173490476Y-127554819D01*
X173252381Y-126507200D02*
X173014286Y-127221485D01*
X173014286Y-127221485D02*
X173633333Y-127221485D01*
X148833333Y-98154819D02*
X148500000Y-97678628D01*
X148261905Y-98154819D02*
X148261905Y-97154819D01*
X148261905Y-97154819D02*
X148642857Y-97154819D01*
X148642857Y-97154819D02*
X148738095Y-97202438D01*
X148738095Y-97202438D02*
X148785714Y-97250057D01*
X148785714Y-97250057D02*
X148833333Y-97345295D01*
X148833333Y-97345295D02*
X148833333Y-97488152D01*
X148833333Y-97488152D02*
X148785714Y-97583390D01*
X148785714Y-97583390D02*
X148738095Y-97631009D01*
X148738095Y-97631009D02*
X148642857Y-97678628D01*
X148642857Y-97678628D02*
X148261905Y-97678628D01*
X149690476Y-97154819D02*
X149500000Y-97154819D01*
X149500000Y-97154819D02*
X149404762Y-97202438D01*
X149404762Y-97202438D02*
X149357143Y-97250057D01*
X149357143Y-97250057D02*
X149261905Y-97392914D01*
X149261905Y-97392914D02*
X149214286Y-97583390D01*
X149214286Y-97583390D02*
X149214286Y-97964342D01*
X149214286Y-97964342D02*
X149261905Y-98059580D01*
X149261905Y-98059580D02*
X149309524Y-98107200D01*
X149309524Y-98107200D02*
X149404762Y-98154819D01*
X149404762Y-98154819D02*
X149595238Y-98154819D01*
X149595238Y-98154819D02*
X149690476Y-98107200D01*
X149690476Y-98107200D02*
X149738095Y-98059580D01*
X149738095Y-98059580D02*
X149785714Y-97964342D01*
X149785714Y-97964342D02*
X149785714Y-97726247D01*
X149785714Y-97726247D02*
X149738095Y-97631009D01*
X149738095Y-97631009D02*
X149690476Y-97583390D01*
X149690476Y-97583390D02*
X149595238Y-97535771D01*
X149595238Y-97535771D02*
X149404762Y-97535771D01*
X149404762Y-97535771D02*
X149309524Y-97583390D01*
X149309524Y-97583390D02*
X149261905Y-97631009D01*
X149261905Y-97631009D02*
X149214286Y-97726247D01*
X172033333Y-116054819D02*
X171557143Y-116054819D01*
X171557143Y-116054819D02*
X171557143Y-115054819D01*
X172890476Y-116054819D02*
X172319048Y-116054819D01*
X172604762Y-116054819D02*
X172604762Y-115054819D01*
X172604762Y-115054819D02*
X172509524Y-115197676D01*
X172509524Y-115197676D02*
X172414286Y-115292914D01*
X172414286Y-115292914D02*
X172319048Y-115340533D01*
X141357142Y-112259580D02*
X141309523Y-112307200D01*
X141309523Y-112307200D02*
X141166666Y-112354819D01*
X141166666Y-112354819D02*
X141071428Y-112354819D01*
X141071428Y-112354819D02*
X140928571Y-112307200D01*
X140928571Y-112307200D02*
X140833333Y-112211961D01*
X140833333Y-112211961D02*
X140785714Y-112116723D01*
X140785714Y-112116723D02*
X140738095Y-111926247D01*
X140738095Y-111926247D02*
X140738095Y-111783390D01*
X140738095Y-111783390D02*
X140785714Y-111592914D01*
X140785714Y-111592914D02*
X140833333Y-111497676D01*
X140833333Y-111497676D02*
X140928571Y-111402438D01*
X140928571Y-111402438D02*
X141071428Y-111354819D01*
X141071428Y-111354819D02*
X141166666Y-111354819D01*
X141166666Y-111354819D02*
X141309523Y-111402438D01*
X141309523Y-111402438D02*
X141357142Y-111450057D01*
X142309523Y-112354819D02*
X141738095Y-112354819D01*
X142023809Y-112354819D02*
X142023809Y-111354819D01*
X142023809Y-111354819D02*
X141928571Y-111497676D01*
X141928571Y-111497676D02*
X141833333Y-111592914D01*
X141833333Y-111592914D02*
X141738095Y-111640533D01*
X143261904Y-112354819D02*
X142690476Y-112354819D01*
X142976190Y-112354819D02*
X142976190Y-111354819D01*
X142976190Y-111354819D02*
X142880952Y-111497676D01*
X142880952Y-111497676D02*
X142785714Y-111592914D01*
X142785714Y-111592914D02*
X142690476Y-111640533D01*
X156833333Y-119104819D02*
X156500000Y-118628628D01*
X156261905Y-119104819D02*
X156261905Y-118104819D01*
X156261905Y-118104819D02*
X156642857Y-118104819D01*
X156642857Y-118104819D02*
X156738095Y-118152438D01*
X156738095Y-118152438D02*
X156785714Y-118200057D01*
X156785714Y-118200057D02*
X156833333Y-118295295D01*
X156833333Y-118295295D02*
X156833333Y-118438152D01*
X156833333Y-118438152D02*
X156785714Y-118533390D01*
X156785714Y-118533390D02*
X156738095Y-118581009D01*
X156738095Y-118581009D02*
X156642857Y-118628628D01*
X156642857Y-118628628D02*
X156261905Y-118628628D01*
X157309524Y-119104819D02*
X157500000Y-119104819D01*
X157500000Y-119104819D02*
X157595238Y-119057200D01*
X157595238Y-119057200D02*
X157642857Y-119009580D01*
X157642857Y-119009580D02*
X157738095Y-118866723D01*
X157738095Y-118866723D02*
X157785714Y-118676247D01*
X157785714Y-118676247D02*
X157785714Y-118295295D01*
X157785714Y-118295295D02*
X157738095Y-118200057D01*
X157738095Y-118200057D02*
X157690476Y-118152438D01*
X157690476Y-118152438D02*
X157595238Y-118104819D01*
X157595238Y-118104819D02*
X157404762Y-118104819D01*
X157404762Y-118104819D02*
X157309524Y-118152438D01*
X157309524Y-118152438D02*
X157261905Y-118200057D01*
X157261905Y-118200057D02*
X157214286Y-118295295D01*
X157214286Y-118295295D02*
X157214286Y-118533390D01*
X157214286Y-118533390D02*
X157261905Y-118628628D01*
X157261905Y-118628628D02*
X157309524Y-118676247D01*
X157309524Y-118676247D02*
X157404762Y-118723866D01*
X157404762Y-118723866D02*
X157595238Y-118723866D01*
X157595238Y-118723866D02*
X157690476Y-118676247D01*
X157690476Y-118676247D02*
X157738095Y-118628628D01*
X157738095Y-118628628D02*
X157785714Y-118533390D01*
X171851905Y-99454819D02*
X171851905Y-98454819D01*
X171851905Y-98454819D02*
X172090000Y-98454819D01*
X172090000Y-98454819D02*
X172232857Y-98502438D01*
X172232857Y-98502438D02*
X172328095Y-98597676D01*
X172328095Y-98597676D02*
X172375714Y-98692914D01*
X172375714Y-98692914D02*
X172423333Y-98883390D01*
X172423333Y-98883390D02*
X172423333Y-99026247D01*
X172423333Y-99026247D02*
X172375714Y-99216723D01*
X172375714Y-99216723D02*
X172328095Y-99311961D01*
X172328095Y-99311961D02*
X172232857Y-99407200D01*
X172232857Y-99407200D02*
X172090000Y-99454819D01*
X172090000Y-99454819D02*
X171851905Y-99454819D01*
X173375714Y-99454819D02*
X172804286Y-99454819D01*
X173090000Y-99454819D02*
X173090000Y-98454819D01*
X173090000Y-98454819D02*
X172994762Y-98597676D01*
X172994762Y-98597676D02*
X172899524Y-98692914D01*
X172899524Y-98692914D02*
X172804286Y-98740533D01*
X172633333Y-110122080D02*
X172585714Y-110169700D01*
X172585714Y-110169700D02*
X172442857Y-110217319D01*
X172442857Y-110217319D02*
X172347619Y-110217319D01*
X172347619Y-110217319D02*
X172204762Y-110169700D01*
X172204762Y-110169700D02*
X172109524Y-110074461D01*
X172109524Y-110074461D02*
X172061905Y-109979223D01*
X172061905Y-109979223D02*
X172014286Y-109788747D01*
X172014286Y-109788747D02*
X172014286Y-109645890D01*
X172014286Y-109645890D02*
X172061905Y-109455414D01*
X172061905Y-109455414D02*
X172109524Y-109360176D01*
X172109524Y-109360176D02*
X172204762Y-109264938D01*
X172204762Y-109264938D02*
X172347619Y-109217319D01*
X172347619Y-109217319D02*
X172442857Y-109217319D01*
X172442857Y-109217319D02*
X172585714Y-109264938D01*
X172585714Y-109264938D02*
X172633333Y-109312557D01*
X173585714Y-110217319D02*
X173014286Y-110217319D01*
X173300000Y-110217319D02*
X173300000Y-109217319D01*
X173300000Y-109217319D02*
X173204762Y-109360176D01*
X173204762Y-109360176D02*
X173109524Y-109455414D01*
X173109524Y-109455414D02*
X173014286Y-109503033D01*
X156829237Y-96154819D02*
X156495904Y-95678628D01*
X156257809Y-96154819D02*
X156257809Y-95154819D01*
X156257809Y-95154819D02*
X156638761Y-95154819D01*
X156638761Y-95154819D02*
X156733999Y-95202438D01*
X156733999Y-95202438D02*
X156781618Y-95250057D01*
X156781618Y-95250057D02*
X156829237Y-95345295D01*
X156829237Y-95345295D02*
X156829237Y-95488152D01*
X156829237Y-95488152D02*
X156781618Y-95583390D01*
X156781618Y-95583390D02*
X156733999Y-95631009D01*
X156733999Y-95631009D02*
X156638761Y-95678628D01*
X156638761Y-95678628D02*
X156257809Y-95678628D01*
X157210190Y-95250057D02*
X157257809Y-95202438D01*
X157257809Y-95202438D02*
X157353047Y-95154819D01*
X157353047Y-95154819D02*
X157591142Y-95154819D01*
X157591142Y-95154819D02*
X157686380Y-95202438D01*
X157686380Y-95202438D02*
X157733999Y-95250057D01*
X157733999Y-95250057D02*
X157781618Y-95345295D01*
X157781618Y-95345295D02*
X157781618Y-95440533D01*
X157781618Y-95440533D02*
X157733999Y-95583390D01*
X157733999Y-95583390D02*
X157162571Y-96154819D01*
X157162571Y-96154819D02*
X157781618Y-96154819D01*
X141833333Y-96354819D02*
X141500000Y-95878628D01*
X141261905Y-96354819D02*
X141261905Y-95354819D01*
X141261905Y-95354819D02*
X141642857Y-95354819D01*
X141642857Y-95354819D02*
X141738095Y-95402438D01*
X141738095Y-95402438D02*
X141785714Y-95450057D01*
X141785714Y-95450057D02*
X141833333Y-95545295D01*
X141833333Y-95545295D02*
X141833333Y-95688152D01*
X141833333Y-95688152D02*
X141785714Y-95783390D01*
X141785714Y-95783390D02*
X141738095Y-95831009D01*
X141738095Y-95831009D02*
X141642857Y-95878628D01*
X141642857Y-95878628D02*
X141261905Y-95878628D01*
X142738095Y-95354819D02*
X142261905Y-95354819D01*
X142261905Y-95354819D02*
X142214286Y-95831009D01*
X142214286Y-95831009D02*
X142261905Y-95783390D01*
X142261905Y-95783390D02*
X142357143Y-95735771D01*
X142357143Y-95735771D02*
X142595238Y-95735771D01*
X142595238Y-95735771D02*
X142690476Y-95783390D01*
X142690476Y-95783390D02*
X142738095Y-95831009D01*
X142738095Y-95831009D02*
X142785714Y-95926247D01*
X142785714Y-95926247D02*
X142785714Y-96164342D01*
X142785714Y-96164342D02*
X142738095Y-96259580D01*
X142738095Y-96259580D02*
X142690476Y-96307200D01*
X142690476Y-96307200D02*
X142595238Y-96354819D01*
X142595238Y-96354819D02*
X142357143Y-96354819D01*
X142357143Y-96354819D02*
X142261905Y-96307200D01*
X142261905Y-96307200D02*
X142214286Y-96259580D01*
X173154819Y-85242857D02*
X172678628Y-85576190D01*
X173154819Y-85814285D02*
X172154819Y-85814285D01*
X172154819Y-85814285D02*
X172154819Y-85433333D01*
X172154819Y-85433333D02*
X172202438Y-85338095D01*
X172202438Y-85338095D02*
X172250057Y-85290476D01*
X172250057Y-85290476D02*
X172345295Y-85242857D01*
X172345295Y-85242857D02*
X172488152Y-85242857D01*
X172488152Y-85242857D02*
X172583390Y-85290476D01*
X172583390Y-85290476D02*
X172631009Y-85338095D01*
X172631009Y-85338095D02*
X172678628Y-85433333D01*
X172678628Y-85433333D02*
X172678628Y-85814285D01*
X173154819Y-84290476D02*
X173154819Y-84861904D01*
X173154819Y-84576190D02*
X172154819Y-84576190D01*
X172154819Y-84576190D02*
X172297676Y-84671428D01*
X172297676Y-84671428D02*
X172392914Y-84766666D01*
X172392914Y-84766666D02*
X172440533Y-84861904D01*
X172488152Y-83433333D02*
X173154819Y-83433333D01*
X172107200Y-83671428D02*
X172821485Y-83909523D01*
X172821485Y-83909523D02*
X172821485Y-83290476D01*
X164038095Y-108454819D02*
X164038095Y-109264342D01*
X164038095Y-109264342D02*
X164085714Y-109359580D01*
X164085714Y-109359580D02*
X164133333Y-109407200D01*
X164133333Y-109407200D02*
X164228571Y-109454819D01*
X164228571Y-109454819D02*
X164419047Y-109454819D01*
X164419047Y-109454819D02*
X164514285Y-109407200D01*
X164514285Y-109407200D02*
X164561904Y-109359580D01*
X164561904Y-109359580D02*
X164609523Y-109264342D01*
X164609523Y-109264342D02*
X164609523Y-108454819D01*
X165609523Y-109454819D02*
X165038095Y-109454819D01*
X165323809Y-109454819D02*
X165323809Y-108454819D01*
X165323809Y-108454819D02*
X165228571Y-108597676D01*
X165228571Y-108597676D02*
X165133333Y-108692914D01*
X165133333Y-108692914D02*
X165038095Y-108740533D01*
X126261905Y-113454819D02*
X126261905Y-112454819D01*
X126261905Y-112454819D02*
X126500000Y-112454819D01*
X126500000Y-112454819D02*
X126642857Y-112502438D01*
X126642857Y-112502438D02*
X126738095Y-112597676D01*
X126738095Y-112597676D02*
X126785714Y-112692914D01*
X126785714Y-112692914D02*
X126833333Y-112883390D01*
X126833333Y-112883390D02*
X126833333Y-113026247D01*
X126833333Y-113026247D02*
X126785714Y-113216723D01*
X126785714Y-113216723D02*
X126738095Y-113311961D01*
X126738095Y-113311961D02*
X126642857Y-113407200D01*
X126642857Y-113407200D02*
X126500000Y-113454819D01*
X126500000Y-113454819D02*
X126261905Y-113454819D01*
X127214286Y-112550057D02*
X127261905Y-112502438D01*
X127261905Y-112502438D02*
X127357143Y-112454819D01*
X127357143Y-112454819D02*
X127595238Y-112454819D01*
X127595238Y-112454819D02*
X127690476Y-112502438D01*
X127690476Y-112502438D02*
X127738095Y-112550057D01*
X127738095Y-112550057D02*
X127785714Y-112645295D01*
X127785714Y-112645295D02*
X127785714Y-112740533D01*
X127785714Y-112740533D02*
X127738095Y-112883390D01*
X127738095Y-112883390D02*
X127166667Y-113454819D01*
X127166667Y-113454819D02*
X127785714Y-113454819D01*
X133138095Y-105854819D02*
X133138095Y-104854819D01*
X133709523Y-105854819D02*
X133280952Y-105283390D01*
X133709523Y-104854819D02*
X133138095Y-105426247D01*
X124661905Y-100954819D02*
X124661905Y-99954819D01*
X124661905Y-99954819D02*
X124900000Y-99954819D01*
X124900000Y-99954819D02*
X125042857Y-100002438D01*
X125042857Y-100002438D02*
X125138095Y-100097676D01*
X125138095Y-100097676D02*
X125185714Y-100192914D01*
X125185714Y-100192914D02*
X125233333Y-100383390D01*
X125233333Y-100383390D02*
X125233333Y-100526247D01*
X125233333Y-100526247D02*
X125185714Y-100716723D01*
X125185714Y-100716723D02*
X125138095Y-100811961D01*
X125138095Y-100811961D02*
X125042857Y-100907200D01*
X125042857Y-100907200D02*
X124900000Y-100954819D01*
X124900000Y-100954819D02*
X124661905Y-100954819D01*
X125566667Y-99954819D02*
X126185714Y-99954819D01*
X126185714Y-99954819D02*
X125852381Y-100335771D01*
X125852381Y-100335771D02*
X125995238Y-100335771D01*
X125995238Y-100335771D02*
X126090476Y-100383390D01*
X126090476Y-100383390D02*
X126138095Y-100431009D01*
X126138095Y-100431009D02*
X126185714Y-100526247D01*
X126185714Y-100526247D02*
X126185714Y-100764342D01*
X126185714Y-100764342D02*
X126138095Y-100859580D01*
X126138095Y-100859580D02*
X126090476Y-100907200D01*
X126090476Y-100907200D02*
X125995238Y-100954819D01*
X125995238Y-100954819D02*
X125709524Y-100954819D01*
X125709524Y-100954819D02*
X125614286Y-100907200D01*
X125614286Y-100907200D02*
X125566667Y-100859580D01*
X125754819Y-86542857D02*
X125278628Y-86876190D01*
X125754819Y-87114285D02*
X124754819Y-87114285D01*
X124754819Y-87114285D02*
X124754819Y-86733333D01*
X124754819Y-86733333D02*
X124802438Y-86638095D01*
X124802438Y-86638095D02*
X124850057Y-86590476D01*
X124850057Y-86590476D02*
X124945295Y-86542857D01*
X124945295Y-86542857D02*
X125088152Y-86542857D01*
X125088152Y-86542857D02*
X125183390Y-86590476D01*
X125183390Y-86590476D02*
X125231009Y-86638095D01*
X125231009Y-86638095D02*
X125278628Y-86733333D01*
X125278628Y-86733333D02*
X125278628Y-87114285D01*
X125754819Y-85590476D02*
X125754819Y-86161904D01*
X125754819Y-85876190D02*
X124754819Y-85876190D01*
X124754819Y-85876190D02*
X124897676Y-85971428D01*
X124897676Y-85971428D02*
X124992914Y-86066666D01*
X124992914Y-86066666D02*
X125040533Y-86161904D01*
X124754819Y-85257142D02*
X124754819Y-84590476D01*
X124754819Y-84590476D02*
X125754819Y-85019047D01*
X132466666Y-83531009D02*
X132133333Y-83531009D01*
X132133333Y-84054819D02*
X132133333Y-83054819D01*
X132133333Y-83054819D02*
X132609523Y-83054819D01*
X132942857Y-83150057D02*
X132990476Y-83102438D01*
X132990476Y-83102438D02*
X133085714Y-83054819D01*
X133085714Y-83054819D02*
X133323809Y-83054819D01*
X133323809Y-83054819D02*
X133419047Y-83102438D01*
X133419047Y-83102438D02*
X133466666Y-83150057D01*
X133466666Y-83150057D02*
X133514285Y-83245295D01*
X133514285Y-83245295D02*
X133514285Y-83340533D01*
X133514285Y-83340533D02*
X133466666Y-83483390D01*
X133466666Y-83483390D02*
X132895238Y-84054819D01*
X132895238Y-84054819D02*
X133514285Y-84054819D01*
X146966667Y-131054819D02*
X146966667Y-130054819D01*
X146966667Y-130054819D02*
X147300000Y-130769104D01*
X147300000Y-130769104D02*
X147633333Y-130054819D01*
X147633333Y-130054819D02*
X147633333Y-131054819D01*
X148680952Y-130959580D02*
X148633333Y-131007200D01*
X148633333Y-131007200D02*
X148490476Y-131054819D01*
X148490476Y-131054819D02*
X148395238Y-131054819D01*
X148395238Y-131054819D02*
X148252381Y-131007200D01*
X148252381Y-131007200D02*
X148157143Y-130911961D01*
X148157143Y-130911961D02*
X148109524Y-130816723D01*
X148109524Y-130816723D02*
X148061905Y-130626247D01*
X148061905Y-130626247D02*
X148061905Y-130483390D01*
X148061905Y-130483390D02*
X148109524Y-130292914D01*
X148109524Y-130292914D02*
X148157143Y-130197676D01*
X148157143Y-130197676D02*
X148252381Y-130102438D01*
X148252381Y-130102438D02*
X148395238Y-130054819D01*
X148395238Y-130054819D02*
X148490476Y-130054819D01*
X148490476Y-130054819D02*
X148633333Y-130102438D01*
X148633333Y-130102438D02*
X148680952Y-130150057D01*
X149109524Y-130054819D02*
X149109524Y-130864342D01*
X149109524Y-130864342D02*
X149157143Y-130959580D01*
X149157143Y-130959580D02*
X149204762Y-131007200D01*
X149204762Y-131007200D02*
X149300000Y-131054819D01*
X149300000Y-131054819D02*
X149490476Y-131054819D01*
X149490476Y-131054819D02*
X149585714Y-131007200D01*
X149585714Y-131007200D02*
X149633333Y-130959580D01*
X149633333Y-130959580D02*
X149680952Y-130864342D01*
X149680952Y-130864342D02*
X149680952Y-130054819D01*
X150680952Y-131054819D02*
X150109524Y-131054819D01*
X150395238Y-131054819D02*
X150395238Y-130054819D01*
X150395238Y-130054819D02*
X150300000Y-130197676D01*
X150300000Y-130197676D02*
X150204762Y-130292914D01*
X150204762Y-130292914D02*
X150109524Y-130340533D01*
X132904761Y-131450057D02*
X132809523Y-131402438D01*
X132809523Y-131402438D02*
X132714285Y-131307200D01*
X132714285Y-131307200D02*
X132571428Y-131164342D01*
X132571428Y-131164342D02*
X132476190Y-131116723D01*
X132476190Y-131116723D02*
X132380952Y-131116723D01*
X132428571Y-131354819D02*
X132333333Y-131307200D01*
X132333333Y-131307200D02*
X132238095Y-131211961D01*
X132238095Y-131211961D02*
X132190476Y-131021485D01*
X132190476Y-131021485D02*
X132190476Y-130688152D01*
X132190476Y-130688152D02*
X132238095Y-130497676D01*
X132238095Y-130497676D02*
X132333333Y-130402438D01*
X132333333Y-130402438D02*
X132428571Y-130354819D01*
X132428571Y-130354819D02*
X132619047Y-130354819D01*
X132619047Y-130354819D02*
X132714285Y-130402438D01*
X132714285Y-130402438D02*
X132809523Y-130497676D01*
X132809523Y-130497676D02*
X132857142Y-130688152D01*
X132857142Y-130688152D02*
X132857142Y-131021485D01*
X132857142Y-131021485D02*
X132809523Y-131211961D01*
X132809523Y-131211961D02*
X132714285Y-131307200D01*
X132714285Y-131307200D02*
X132619047Y-131354819D01*
X132619047Y-131354819D02*
X132428571Y-131354819D01*
X133190476Y-130354819D02*
X133809523Y-130354819D01*
X133809523Y-130354819D02*
X133476190Y-130735771D01*
X133476190Y-130735771D02*
X133619047Y-130735771D01*
X133619047Y-130735771D02*
X133714285Y-130783390D01*
X133714285Y-130783390D02*
X133761904Y-130831009D01*
X133761904Y-130831009D02*
X133809523Y-130926247D01*
X133809523Y-130926247D02*
X133809523Y-131164342D01*
X133809523Y-131164342D02*
X133761904Y-131259580D01*
X133761904Y-131259580D02*
X133714285Y-131307200D01*
X133714285Y-131307200D02*
X133619047Y-131354819D01*
X133619047Y-131354819D02*
X133333333Y-131354819D01*
X133333333Y-131354819D02*
X133238095Y-131307200D01*
X133238095Y-131307200D02*
X133190476Y-131259580D01*
X169966666Y-83031009D02*
X169633333Y-83031009D01*
X169633333Y-83554819D02*
X169633333Y-82554819D01*
X169633333Y-82554819D02*
X170109523Y-82554819D01*
X171014285Y-83554819D02*
X170442857Y-83554819D01*
X170728571Y-83554819D02*
X170728571Y-82554819D01*
X170728571Y-82554819D02*
X170633333Y-82697676D01*
X170633333Y-82697676D02*
X170538095Y-82792914D01*
X170538095Y-82792914D02*
X170442857Y-82840533D01*
X166283333Y-133354819D02*
X165950000Y-132878628D01*
X165711905Y-133354819D02*
X165711905Y-132354819D01*
X165711905Y-132354819D02*
X166092857Y-132354819D01*
X166092857Y-132354819D02*
X166188095Y-132402438D01*
X166188095Y-132402438D02*
X166235714Y-132450057D01*
X166235714Y-132450057D02*
X166283333Y-132545295D01*
X166283333Y-132545295D02*
X166283333Y-132688152D01*
X166283333Y-132688152D02*
X166235714Y-132783390D01*
X166235714Y-132783390D02*
X166188095Y-132831009D01*
X166188095Y-132831009D02*
X166092857Y-132878628D01*
X166092857Y-132878628D02*
X165711905Y-132878628D01*
X166616667Y-132354819D02*
X167235714Y-132354819D01*
X167235714Y-132354819D02*
X166902381Y-132735771D01*
X166902381Y-132735771D02*
X167045238Y-132735771D01*
X167045238Y-132735771D02*
X167140476Y-132783390D01*
X167140476Y-132783390D02*
X167188095Y-132831009D01*
X167188095Y-132831009D02*
X167235714Y-132926247D01*
X167235714Y-132926247D02*
X167235714Y-133164342D01*
X167235714Y-133164342D02*
X167188095Y-133259580D01*
X167188095Y-133259580D02*
X167140476Y-133307200D01*
X167140476Y-133307200D02*
X167045238Y-133354819D01*
X167045238Y-133354819D02*
X166759524Y-133354819D01*
X166759524Y-133354819D02*
X166664286Y-133307200D01*
X166664286Y-133307200D02*
X166616667Y-133259580D01*
X153807142Y-133354819D02*
X153473809Y-132878628D01*
X153235714Y-133354819D02*
X153235714Y-132354819D01*
X153235714Y-132354819D02*
X153616666Y-132354819D01*
X153616666Y-132354819D02*
X153711904Y-132402438D01*
X153711904Y-132402438D02*
X153759523Y-132450057D01*
X153759523Y-132450057D02*
X153807142Y-132545295D01*
X153807142Y-132545295D02*
X153807142Y-132688152D01*
X153807142Y-132688152D02*
X153759523Y-132783390D01*
X153759523Y-132783390D02*
X153711904Y-132831009D01*
X153711904Y-132831009D02*
X153616666Y-132878628D01*
X153616666Y-132878628D02*
X153235714Y-132878628D01*
X154759523Y-133354819D02*
X154188095Y-133354819D01*
X154473809Y-133354819D02*
X154473809Y-132354819D01*
X154473809Y-132354819D02*
X154378571Y-132497676D01*
X154378571Y-132497676D02*
X154283333Y-132592914D01*
X154283333Y-132592914D02*
X154188095Y-132640533D01*
X155378571Y-132354819D02*
X155473809Y-132354819D01*
X155473809Y-132354819D02*
X155569047Y-132402438D01*
X155569047Y-132402438D02*
X155616666Y-132450057D01*
X155616666Y-132450057D02*
X155664285Y-132545295D01*
X155664285Y-132545295D02*
X155711904Y-132735771D01*
X155711904Y-132735771D02*
X155711904Y-132973866D01*
X155711904Y-132973866D02*
X155664285Y-133164342D01*
X155664285Y-133164342D02*
X155616666Y-133259580D01*
X155616666Y-133259580D02*
X155569047Y-133307200D01*
X155569047Y-133307200D02*
X155473809Y-133354819D01*
X155473809Y-133354819D02*
X155378571Y-133354819D01*
X155378571Y-133354819D02*
X155283333Y-133307200D01*
X155283333Y-133307200D02*
X155235714Y-133259580D01*
X155235714Y-133259580D02*
X155188095Y-133164342D01*
X155188095Y-133164342D02*
X155140476Y-132973866D01*
X155140476Y-132973866D02*
X155140476Y-132735771D01*
X155140476Y-132735771D02*
X155188095Y-132545295D01*
X155188095Y-132545295D02*
X155235714Y-132450057D01*
X155235714Y-132450057D02*
X155283333Y-132402438D01*
X155283333Y-132402438D02*
X155378571Y-132354819D01*
X165833333Y-104059580D02*
X165785714Y-104107200D01*
X165785714Y-104107200D02*
X165642857Y-104154819D01*
X165642857Y-104154819D02*
X165547619Y-104154819D01*
X165547619Y-104154819D02*
X165404762Y-104107200D01*
X165404762Y-104107200D02*
X165309524Y-104011961D01*
X165309524Y-104011961D02*
X165261905Y-103916723D01*
X165261905Y-103916723D02*
X165214286Y-103726247D01*
X165214286Y-103726247D02*
X165214286Y-103583390D01*
X165214286Y-103583390D02*
X165261905Y-103392914D01*
X165261905Y-103392914D02*
X165309524Y-103297676D01*
X165309524Y-103297676D02*
X165404762Y-103202438D01*
X165404762Y-103202438D02*
X165547619Y-103154819D01*
X165547619Y-103154819D02*
X165642857Y-103154819D01*
X165642857Y-103154819D02*
X165785714Y-103202438D01*
X165785714Y-103202438D02*
X165833333Y-103250057D01*
X166166667Y-103154819D02*
X166785714Y-103154819D01*
X166785714Y-103154819D02*
X166452381Y-103535771D01*
X166452381Y-103535771D02*
X166595238Y-103535771D01*
X166595238Y-103535771D02*
X166690476Y-103583390D01*
X166690476Y-103583390D02*
X166738095Y-103631009D01*
X166738095Y-103631009D02*
X166785714Y-103726247D01*
X166785714Y-103726247D02*
X166785714Y-103964342D01*
X166785714Y-103964342D02*
X166738095Y-104059580D01*
X166738095Y-104059580D02*
X166690476Y-104107200D01*
X166690476Y-104107200D02*
X166595238Y-104154819D01*
X166595238Y-104154819D02*
X166309524Y-104154819D01*
X166309524Y-104154819D02*
X166214286Y-104107200D01*
X166214286Y-104107200D02*
X166166667Y-104059580D01*
X146838095Y-125854819D02*
X146838095Y-126664342D01*
X146838095Y-126664342D02*
X146885714Y-126759580D01*
X146885714Y-126759580D02*
X146933333Y-126807200D01*
X146933333Y-126807200D02*
X147028571Y-126854819D01*
X147028571Y-126854819D02*
X147219047Y-126854819D01*
X147219047Y-126854819D02*
X147314285Y-126807200D01*
X147314285Y-126807200D02*
X147361904Y-126759580D01*
X147361904Y-126759580D02*
X147409523Y-126664342D01*
X147409523Y-126664342D02*
X147409523Y-125854819D01*
X147838095Y-125950057D02*
X147885714Y-125902438D01*
X147885714Y-125902438D02*
X147980952Y-125854819D01*
X147980952Y-125854819D02*
X148219047Y-125854819D01*
X148219047Y-125854819D02*
X148314285Y-125902438D01*
X148314285Y-125902438D02*
X148361904Y-125950057D01*
X148361904Y-125950057D02*
X148409523Y-126045295D01*
X148409523Y-126045295D02*
X148409523Y-126140533D01*
X148409523Y-126140533D02*
X148361904Y-126283390D01*
X148361904Y-126283390D02*
X147790476Y-126854819D01*
X147790476Y-126854819D02*
X148409523Y-126854819D01*
X133004761Y-123450057D02*
X132909523Y-123402438D01*
X132909523Y-123402438D02*
X132814285Y-123307200D01*
X132814285Y-123307200D02*
X132671428Y-123164342D01*
X132671428Y-123164342D02*
X132576190Y-123116723D01*
X132576190Y-123116723D02*
X132480952Y-123116723D01*
X132528571Y-123354819D02*
X132433333Y-123307200D01*
X132433333Y-123307200D02*
X132338095Y-123211961D01*
X132338095Y-123211961D02*
X132290476Y-123021485D01*
X132290476Y-123021485D02*
X132290476Y-122688152D01*
X132290476Y-122688152D02*
X132338095Y-122497676D01*
X132338095Y-122497676D02*
X132433333Y-122402438D01*
X132433333Y-122402438D02*
X132528571Y-122354819D01*
X132528571Y-122354819D02*
X132719047Y-122354819D01*
X132719047Y-122354819D02*
X132814285Y-122402438D01*
X132814285Y-122402438D02*
X132909523Y-122497676D01*
X132909523Y-122497676D02*
X132957142Y-122688152D01*
X132957142Y-122688152D02*
X132957142Y-123021485D01*
X132957142Y-123021485D02*
X132909523Y-123211961D01*
X132909523Y-123211961D02*
X132814285Y-123307200D01*
X132814285Y-123307200D02*
X132719047Y-123354819D01*
X132719047Y-123354819D02*
X132528571Y-123354819D01*
X133814285Y-122688152D02*
X133814285Y-123354819D01*
X133576190Y-122307200D02*
X133338095Y-123021485D01*
X133338095Y-123021485D02*
X133957142Y-123021485D01*
X156357142Y-124104819D02*
X156023809Y-123628628D01*
X155785714Y-124104819D02*
X155785714Y-123104819D01*
X155785714Y-123104819D02*
X156166666Y-123104819D01*
X156166666Y-123104819D02*
X156261904Y-123152438D01*
X156261904Y-123152438D02*
X156309523Y-123200057D01*
X156309523Y-123200057D02*
X156357142Y-123295295D01*
X156357142Y-123295295D02*
X156357142Y-123438152D01*
X156357142Y-123438152D02*
X156309523Y-123533390D01*
X156309523Y-123533390D02*
X156261904Y-123581009D01*
X156261904Y-123581009D02*
X156166666Y-123628628D01*
X156166666Y-123628628D02*
X155785714Y-123628628D01*
X157309523Y-124104819D02*
X156738095Y-124104819D01*
X157023809Y-124104819D02*
X157023809Y-123104819D01*
X157023809Y-123104819D02*
X156928571Y-123247676D01*
X156928571Y-123247676D02*
X156833333Y-123342914D01*
X156833333Y-123342914D02*
X156738095Y-123390533D01*
X158261904Y-124104819D02*
X157690476Y-124104819D01*
X157976190Y-124104819D02*
X157976190Y-123104819D01*
X157976190Y-123104819D02*
X157880952Y-123247676D01*
X157880952Y-123247676D02*
X157785714Y-123342914D01*
X157785714Y-123342914D02*
X157690476Y-123390533D01*
X141357142Y-108259580D02*
X141309523Y-108307200D01*
X141309523Y-108307200D02*
X141166666Y-108354819D01*
X141166666Y-108354819D02*
X141071428Y-108354819D01*
X141071428Y-108354819D02*
X140928571Y-108307200D01*
X140928571Y-108307200D02*
X140833333Y-108211961D01*
X140833333Y-108211961D02*
X140785714Y-108116723D01*
X140785714Y-108116723D02*
X140738095Y-107926247D01*
X140738095Y-107926247D02*
X140738095Y-107783390D01*
X140738095Y-107783390D02*
X140785714Y-107592914D01*
X140785714Y-107592914D02*
X140833333Y-107497676D01*
X140833333Y-107497676D02*
X140928571Y-107402438D01*
X140928571Y-107402438D02*
X141071428Y-107354819D01*
X141071428Y-107354819D02*
X141166666Y-107354819D01*
X141166666Y-107354819D02*
X141309523Y-107402438D01*
X141309523Y-107402438D02*
X141357142Y-107450057D01*
X142309523Y-108354819D02*
X141738095Y-108354819D01*
X142023809Y-108354819D02*
X142023809Y-107354819D01*
X142023809Y-107354819D02*
X141928571Y-107497676D01*
X141928571Y-107497676D02*
X141833333Y-107592914D01*
X141833333Y-107592914D02*
X141738095Y-107640533D01*
X142928571Y-107354819D02*
X143023809Y-107354819D01*
X143023809Y-107354819D02*
X143119047Y-107402438D01*
X143119047Y-107402438D02*
X143166666Y-107450057D01*
X143166666Y-107450057D02*
X143214285Y-107545295D01*
X143214285Y-107545295D02*
X143261904Y-107735771D01*
X143261904Y-107735771D02*
X143261904Y-107973866D01*
X143261904Y-107973866D02*
X143214285Y-108164342D01*
X143214285Y-108164342D02*
X143166666Y-108259580D01*
X143166666Y-108259580D02*
X143119047Y-108307200D01*
X143119047Y-108307200D02*
X143023809Y-108354819D01*
X143023809Y-108354819D02*
X142928571Y-108354819D01*
X142928571Y-108354819D02*
X142833333Y-108307200D01*
X142833333Y-108307200D02*
X142785714Y-108259580D01*
X142785714Y-108259580D02*
X142738095Y-108164342D01*
X142738095Y-108164342D02*
X142690476Y-107973866D01*
X142690476Y-107973866D02*
X142690476Y-107735771D01*
X142690476Y-107735771D02*
X142738095Y-107545295D01*
X142738095Y-107545295D02*
X142785714Y-107450057D01*
X142785714Y-107450057D02*
X142833333Y-107402438D01*
X142833333Y-107402438D02*
X142928571Y-107354819D01*
X145833333Y-98059580D02*
X145785714Y-98107200D01*
X145785714Y-98107200D02*
X145642857Y-98154819D01*
X145642857Y-98154819D02*
X145547619Y-98154819D01*
X145547619Y-98154819D02*
X145404762Y-98107200D01*
X145404762Y-98107200D02*
X145309524Y-98011961D01*
X145309524Y-98011961D02*
X145261905Y-97916723D01*
X145261905Y-97916723D02*
X145214286Y-97726247D01*
X145214286Y-97726247D02*
X145214286Y-97583390D01*
X145214286Y-97583390D02*
X145261905Y-97392914D01*
X145261905Y-97392914D02*
X145309524Y-97297676D01*
X145309524Y-97297676D02*
X145404762Y-97202438D01*
X145404762Y-97202438D02*
X145547619Y-97154819D01*
X145547619Y-97154819D02*
X145642857Y-97154819D01*
X145642857Y-97154819D02*
X145785714Y-97202438D01*
X145785714Y-97202438D02*
X145833333Y-97250057D01*
X146404762Y-97583390D02*
X146309524Y-97535771D01*
X146309524Y-97535771D02*
X146261905Y-97488152D01*
X146261905Y-97488152D02*
X146214286Y-97392914D01*
X146214286Y-97392914D02*
X146214286Y-97345295D01*
X146214286Y-97345295D02*
X146261905Y-97250057D01*
X146261905Y-97250057D02*
X146309524Y-97202438D01*
X146309524Y-97202438D02*
X146404762Y-97154819D01*
X146404762Y-97154819D02*
X146595238Y-97154819D01*
X146595238Y-97154819D02*
X146690476Y-97202438D01*
X146690476Y-97202438D02*
X146738095Y-97250057D01*
X146738095Y-97250057D02*
X146785714Y-97345295D01*
X146785714Y-97345295D02*
X146785714Y-97392914D01*
X146785714Y-97392914D02*
X146738095Y-97488152D01*
X146738095Y-97488152D02*
X146690476Y-97535771D01*
X146690476Y-97535771D02*
X146595238Y-97583390D01*
X146595238Y-97583390D02*
X146404762Y-97583390D01*
X146404762Y-97583390D02*
X146309524Y-97631009D01*
X146309524Y-97631009D02*
X146261905Y-97678628D01*
X146261905Y-97678628D02*
X146214286Y-97773866D01*
X146214286Y-97773866D02*
X146214286Y-97964342D01*
X146214286Y-97964342D02*
X146261905Y-98059580D01*
X146261905Y-98059580D02*
X146309524Y-98107200D01*
X146309524Y-98107200D02*
X146404762Y-98154819D01*
X146404762Y-98154819D02*
X146595238Y-98154819D01*
X146595238Y-98154819D02*
X146690476Y-98107200D01*
X146690476Y-98107200D02*
X146738095Y-98059580D01*
X146738095Y-98059580D02*
X146785714Y-97964342D01*
X146785714Y-97964342D02*
X146785714Y-97773866D01*
X146785714Y-97773866D02*
X146738095Y-97678628D01*
X146738095Y-97678628D02*
X146690476Y-97631009D01*
X146690476Y-97631009D02*
X146595238Y-97583390D01*
X172633333Y-124159580D02*
X172585714Y-124207200D01*
X172585714Y-124207200D02*
X172442857Y-124254819D01*
X172442857Y-124254819D02*
X172347619Y-124254819D01*
X172347619Y-124254819D02*
X172204762Y-124207200D01*
X172204762Y-124207200D02*
X172109524Y-124111961D01*
X172109524Y-124111961D02*
X172061905Y-124016723D01*
X172061905Y-124016723D02*
X172014286Y-123826247D01*
X172014286Y-123826247D02*
X172014286Y-123683390D01*
X172014286Y-123683390D02*
X172061905Y-123492914D01*
X172061905Y-123492914D02*
X172109524Y-123397676D01*
X172109524Y-123397676D02*
X172204762Y-123302438D01*
X172204762Y-123302438D02*
X172347619Y-123254819D01*
X172347619Y-123254819D02*
X172442857Y-123254819D01*
X172442857Y-123254819D02*
X172585714Y-123302438D01*
X172585714Y-123302438D02*
X172633333Y-123350057D01*
X173538095Y-123254819D02*
X173061905Y-123254819D01*
X173061905Y-123254819D02*
X173014286Y-123731009D01*
X173014286Y-123731009D02*
X173061905Y-123683390D01*
X173061905Y-123683390D02*
X173157143Y-123635771D01*
X173157143Y-123635771D02*
X173395238Y-123635771D01*
X173395238Y-123635771D02*
X173490476Y-123683390D01*
X173490476Y-123683390D02*
X173538095Y-123731009D01*
X173538095Y-123731009D02*
X173585714Y-123826247D01*
X173585714Y-123826247D02*
X173585714Y-124064342D01*
X173585714Y-124064342D02*
X173538095Y-124159580D01*
X173538095Y-124159580D02*
X173490476Y-124207200D01*
X173490476Y-124207200D02*
X173395238Y-124254819D01*
X173395238Y-124254819D02*
X173157143Y-124254819D01*
X173157143Y-124254819D02*
X173061905Y-124207200D01*
X173061905Y-124207200D02*
X173014286Y-124159580D01*
X171633333Y-121459580D02*
X171585714Y-121507200D01*
X171585714Y-121507200D02*
X171442857Y-121554819D01*
X171442857Y-121554819D02*
X171347619Y-121554819D01*
X171347619Y-121554819D02*
X171204762Y-121507200D01*
X171204762Y-121507200D02*
X171109524Y-121411961D01*
X171109524Y-121411961D02*
X171061905Y-121316723D01*
X171061905Y-121316723D02*
X171014286Y-121126247D01*
X171014286Y-121126247D02*
X171014286Y-120983390D01*
X171014286Y-120983390D02*
X171061905Y-120792914D01*
X171061905Y-120792914D02*
X171109524Y-120697676D01*
X171109524Y-120697676D02*
X171204762Y-120602438D01*
X171204762Y-120602438D02*
X171347619Y-120554819D01*
X171347619Y-120554819D02*
X171442857Y-120554819D01*
X171442857Y-120554819D02*
X171585714Y-120602438D01*
X171585714Y-120602438D02*
X171633333Y-120650057D01*
X172490476Y-120554819D02*
X172300000Y-120554819D01*
X172300000Y-120554819D02*
X172204762Y-120602438D01*
X172204762Y-120602438D02*
X172157143Y-120650057D01*
X172157143Y-120650057D02*
X172061905Y-120792914D01*
X172061905Y-120792914D02*
X172014286Y-120983390D01*
X172014286Y-120983390D02*
X172014286Y-121364342D01*
X172014286Y-121364342D02*
X172061905Y-121459580D01*
X172061905Y-121459580D02*
X172109524Y-121507200D01*
X172109524Y-121507200D02*
X172204762Y-121554819D01*
X172204762Y-121554819D02*
X172395238Y-121554819D01*
X172395238Y-121554819D02*
X172490476Y-121507200D01*
X172490476Y-121507200D02*
X172538095Y-121459580D01*
X172538095Y-121459580D02*
X172585714Y-121364342D01*
X172585714Y-121364342D02*
X172585714Y-121126247D01*
X172585714Y-121126247D02*
X172538095Y-121031009D01*
X172538095Y-121031009D02*
X172490476Y-120983390D01*
X172490476Y-120983390D02*
X172395238Y-120935771D01*
X172395238Y-120935771D02*
X172204762Y-120935771D01*
X172204762Y-120935771D02*
X172109524Y-120983390D01*
X172109524Y-120983390D02*
X172061905Y-121031009D01*
X172061905Y-121031009D02*
X172014286Y-121126247D01*
%TO.C,R8*%
D11*
X144677064Y-133885000D02*
X144222936Y-133885000D01*
X144677064Y-135355000D02*
X144222936Y-135355000D01*
%TO.C,Q2*%
X151427881Y-94239618D02*
X151477881Y-94239618D01*
X151427881Y-95759618D02*
X151427881Y-94239618D01*
X152427881Y-95759618D02*
X151427881Y-95759618D01*
X152597881Y-94239618D02*
X153377881Y-94239618D01*
X154497881Y-94239618D02*
X154547881Y-94239618D01*
X154547881Y-94239618D02*
X154547881Y-95759618D01*
X154547881Y-95759618D02*
X153547881Y-95759618D01*
X153367881Y-93699618D02*
X153037881Y-93939618D01*
X153037881Y-93459618D01*
X153367881Y-93699618D01*
G36*
X153367881Y-93699618D02*
G01*
X153037881Y-93939618D01*
X153037881Y-93459618D01*
X153367881Y-93699618D01*
G37*
%TO.C,C2*%
X168438748Y-105165000D02*
X168961252Y-105165000D01*
X168438748Y-106635000D02*
X168961252Y-106635000D01*
%TO.C,C4*%
X170011252Y-125740000D02*
X168588748Y-125740000D01*
X170011252Y-128460000D02*
X168588748Y-128460000D01*
%TO.C,R6*%
X148265000Y-95227064D02*
X148265000Y-94772936D01*
X149735000Y-95227064D02*
X149735000Y-94772936D01*
%TO.C,L1*%
X164240000Y-111900000D02*
X164240000Y-119300000D01*
X164240000Y-111900000D02*
X165740000Y-111900000D01*
X164240000Y-119300000D02*
X165740000Y-119300000D01*
X171040000Y-111900000D02*
X169540000Y-111900000D01*
X171040000Y-119300000D02*
X169540000Y-119300000D01*
X171040000Y-119300000D02*
X171040000Y-111900000D01*
%TO.C,C11*%
X141738748Y-109265000D02*
X142261252Y-109265000D01*
X141738748Y-110735000D02*
X142261252Y-110735000D01*
%TO.C,R9*%
X157227064Y-116265000D02*
X156772936Y-116265000D01*
X157227064Y-117735000D02*
X156772936Y-117735000D01*
%TO.C,D1*%
X171485000Y-93400000D02*
X171485000Y-97460000D01*
X171485000Y-97460000D02*
X173755000Y-97460000D01*
X173755000Y-97460000D02*
X173755000Y-93400000D01*
%TO.C,C1*%
X171435000Y-109501248D02*
X171435000Y-110023752D01*
X169965000Y-109501248D02*
X169965000Y-110023752D01*
%TO.C,R2*%
X157222968Y-93259689D02*
X156768840Y-93259689D01*
X157222968Y-94729689D02*
X156768840Y-94729689D01*
%TO.C,R5*%
X141772936Y-93265000D02*
X142227064Y-93265000D01*
X141772936Y-94735000D02*
X142227064Y-94735000D01*
%TO.C,R14*%
X171995000Y-87772936D02*
X171995000Y-88227064D01*
X173465000Y-87772936D02*
X173465000Y-88227064D01*
%TO.C,U1*%
X166080000Y-108090000D02*
X166130000Y-108090000D01*
X166080000Y-109910000D02*
X166080000Y-108090000D01*
X166130000Y-109910000D02*
X166080000Y-109910000D01*
X169150000Y-108090000D02*
X169200000Y-108090000D01*
X169200000Y-108090000D02*
X169200000Y-109910000D01*
X169200000Y-109910000D02*
X169150000Y-109910000D01*
X169480000Y-107790000D02*
X169150000Y-107550000D01*
X169480000Y-107310000D01*
X169480000Y-107790000D01*
G36*
X169480000Y-107790000D02*
G01*
X169150000Y-107550000D01*
X169480000Y-107310000D01*
X169480000Y-107790000D01*
G37*
%TO.C,D2*%
X131000000Y-107220000D02*
X131000000Y-108130000D01*
X131000000Y-118780000D02*
X131000000Y-117870000D01*
X133720000Y-109555000D02*
X128280000Y-109555000D01*
X133720000Y-109675000D02*
X128280000Y-109675000D01*
X133720000Y-109795000D02*
X128280000Y-109795000D01*
X128280000Y-108130000D02*
X133720000Y-108130000D01*
X133720000Y-117870000D01*
X128280000Y-117870000D01*
X128280000Y-108130000D01*
%TO.C,D3*%
X126515000Y-99460000D02*
X126515000Y-95400000D01*
X124245000Y-99460000D02*
X126515000Y-99460000D01*
X124245000Y-95400000D02*
X124245000Y-99460000D01*
%TO.C,R17*%
X124535000Y-89772936D02*
X124535000Y-90227064D01*
X126005000Y-89772936D02*
X126005000Y-90227064D01*
%TO.C,F2*%
D12*
X126905000Y-86000000D02*
X133635000Y-86000000D01*
X126905000Y-102000000D02*
X126905000Y-86000000D01*
X133635000Y-86000000D02*
X133635000Y-102000000D01*
X133635000Y-102000000D02*
X126905000Y-102000000D01*
%TO.C,MCU1*%
X134770000Y-80525000D02*
X163280000Y-80525000D01*
X134770000Y-131475000D02*
X134770000Y-80525000D01*
X134770000Y-131475000D02*
X134770000Y-80525000D01*
X140220000Y-80525000D02*
X134770000Y-80525000D01*
X145500000Y-131475000D02*
X134770000Y-131475000D01*
X152211000Y-131475000D02*
X145500000Y-131475000D01*
X157910000Y-80525000D02*
X140220000Y-80525000D01*
X163280000Y-80525000D02*
X157910000Y-80525000D01*
X163280000Y-80525000D02*
X163280000Y-131475000D01*
X163280000Y-80525000D02*
X163280000Y-131475000D01*
X163280000Y-131475000D02*
X134770000Y-131475000D01*
X163280000Y-131475000D02*
X152211000Y-131475000D01*
D13*
X163950000Y-121515000D02*
G75*
G02*
X163750000Y-121515000I-100000J0D01*
G01*
X163750000Y-121515000D02*
G75*
G02*
X163950000Y-121515000I100000J0D01*
G01*
%TO.C,Q3*%
D11*
X123890000Y-131690000D02*
X134110000Y-131690000D01*
X123890000Y-136310000D02*
X123890000Y-131690000D01*
X127150000Y-136310000D02*
X127150000Y-134930000D01*
X130850000Y-136310000D02*
X130850000Y-134930000D01*
X134110000Y-131690000D02*
X134110000Y-136310000D01*
X134110000Y-134930000D02*
X123890000Y-134930000D01*
X134110000Y-136310000D02*
X123890000Y-136310000D01*
%TO.C,F1*%
D12*
X164365000Y-84000000D02*
X171095000Y-84000000D01*
X164365000Y-100000000D02*
X164365000Y-84000000D01*
X171095000Y-84000000D02*
X171095000Y-100000000D01*
X171095000Y-100000000D02*
X164365000Y-100000000D01*
%TO.C,R3*%
D11*
X166222936Y-133885000D02*
X166677064Y-133885000D01*
X166222936Y-135355000D02*
X166677064Y-135355000D01*
%TO.C,R10*%
X154677064Y-133885000D02*
X154222936Y-133885000D01*
X154677064Y-135355000D02*
X154222936Y-135355000D01*
%TO.C,C3*%
X170011252Y-102790000D02*
X168588748Y-102790000D01*
X170011252Y-104610000D02*
X168588748Y-104610000D01*
%TO.C,U2*%
X144354452Y-115102858D02*
X144354452Y-125382858D01*
X144354452Y-125382858D02*
X150824452Y-125382858D01*
X146589452Y-115102858D02*
X144354452Y-115102858D01*
X150824452Y-115102858D02*
X148589452Y-115102858D01*
X150824452Y-125382858D02*
X150824452Y-115102858D01*
X148589452Y-115102858D02*
G75*
G02*
X146589452Y-115102858I-1000000J0D01*
G01*
%TO.C,Q4*%
X123890000Y-123690000D02*
X134110000Y-123690000D01*
X123890000Y-128310000D02*
X123890000Y-123690000D01*
X127150000Y-128310000D02*
X127150000Y-126930000D01*
X130850000Y-128310000D02*
X130850000Y-126930000D01*
X134110000Y-123690000D02*
X134110000Y-128310000D01*
X134110000Y-126930000D02*
X123890000Y-126930000D01*
X134110000Y-128310000D02*
X123890000Y-128310000D01*
%TO.C,R11*%
X157227064Y-121265000D02*
X156772936Y-121265000D01*
X157227064Y-122735000D02*
X156772936Y-122735000D01*
%TO.C,C10*%
X141738748Y-105265000D02*
X142261252Y-105265000D01*
X141738748Y-106735000D02*
X142261252Y-106735000D01*
%TO.C,C8*%
X145265000Y-94738748D02*
X145265000Y-95261252D01*
X146735000Y-94738748D02*
X146735000Y-95261252D01*
%TO.C,C5*%
X170011252Y-122440000D02*
X168588748Y-122440000D01*
X170011252Y-125160000D02*
X168588748Y-125160000D01*
%TO.C,C6*%
X168438748Y-120365000D02*
X168961252Y-120365000D01*
X168438748Y-121835000D02*
X168961252Y-121835000D01*
%TD*%
D14*
%TO.C,W5*%
X126700000Y-120600000D03*
%TD*%
%TO.C,W3*%
X137500000Y-133900000D03*
%TD*%
%TO.C,W4*%
X126700000Y-105400000D03*
%TD*%
%TO.C,W1*%
X129000000Y-83000000D03*
%TD*%
D15*
%TO.C,W2*%
X165200000Y-125500000D03*
%TD*%
D16*
%TO.C,W6*%
X171450000Y-134620000D03*
%TD*%
%TO.C,W7*%
X149450000Y-134620000D03*
%TD*%
%TO.C,W8*%
X159450000Y-134620000D03*
%TD*%
%LPC*%
D17*
%TO.C,R8*%
X145450000Y-134620000D03*
X143450000Y-134620000D03*
%TD*%
D18*
%TO.C,W5*%
X126700000Y-120600000D03*
%TD*%
D19*
%TO.C,Q2*%
X153937881Y-94062118D03*
X152037881Y-94062118D03*
X152987881Y-95937118D03*
%TD*%
D18*
%TO.C,W3*%
X137500000Y-133900000D03*
%TD*%
%TO.C,W4*%
X126700000Y-105400000D03*
%TD*%
D20*
%TO.C,C2*%
X167662500Y-105900000D03*
X169737500Y-105900000D03*
%TD*%
D21*
%TO.C,C4*%
X170862500Y-127100000D03*
X167737500Y-127100000D03*
%TD*%
D22*
%TO.C,R6*%
X149000000Y-96000000D03*
X149000000Y-94000000D03*
%TD*%
D18*
%TO.C,W1*%
X129000000Y-83000000D03*
%TD*%
D23*
%TO.C,L1*%
X167640000Y-112575000D03*
X167640000Y-118625000D03*
%TD*%
D20*
%TO.C,C11*%
X140962500Y-110000000D03*
X143037500Y-110000000D03*
%TD*%
D17*
%TO.C,R9*%
X158000000Y-117000000D03*
X156000000Y-117000000D03*
%TD*%
D24*
%TO.C,D1*%
X172620000Y-96487500D03*
X172620000Y-93512500D03*
%TD*%
D25*
%TO.C,W2*%
X165200000Y-125500000D03*
%TD*%
D26*
%TO.C,C1*%
X170700000Y-110800000D03*
X170700000Y-108725000D03*
%TD*%
D17*
%TO.C,R2*%
X157995904Y-93994689D03*
X155995904Y-93994689D03*
%TD*%
D27*
%TO.C,R5*%
X141000000Y-94000000D03*
X143000000Y-94000000D03*
%TD*%
D28*
%TO.C,R14*%
X172730000Y-87000000D03*
X172730000Y-89000000D03*
%TD*%
D29*
%TO.C,U1*%
X168590000Y-107862500D03*
X167640000Y-107862500D03*
X166690000Y-107862500D03*
X166690000Y-110137500D03*
X167640000Y-110137500D03*
X168590000Y-110137500D03*
%TD*%
D30*
%TO.C,D2*%
X131000000Y-105380000D03*
D31*
X131000000Y-120620000D03*
%TD*%
D24*
%TO.C,D3*%
X125380000Y-95512500D03*
X125380000Y-98487500D03*
%TD*%
D28*
%TO.C,R17*%
X125270000Y-89000000D03*
X125270000Y-91000000D03*
%TD*%
D32*
%TO.C,F2*%
X131970000Y-89040000D03*
X131970000Y-98960000D03*
X128570000Y-89040000D03*
X128570000Y-98960000D03*
%TD*%
D33*
%TO.C,W6*%
X171450000Y-134620000D03*
%TD*%
%TO.C,W7*%
X149450000Y-134620000D03*
%TD*%
D34*
%TO.C,MCU1*%
X136770000Y-82525000D03*
X136770000Y-129475000D03*
X161280000Y-82525000D03*
X161280000Y-129475000D03*
D35*
X136300000Y-85955000D03*
X136300000Y-88495000D03*
X136300000Y-91035000D03*
X136300000Y-93575000D03*
X136300000Y-96115000D03*
X136300000Y-98655000D03*
X136300000Y-101195000D03*
X136300000Y-103735000D03*
X136300000Y-106275000D03*
X136300000Y-108815000D03*
X136300000Y-111355000D03*
X136300000Y-113895000D03*
X136300000Y-116435000D03*
X136300000Y-118975000D03*
D36*
X136300000Y-121515000D03*
X161700000Y-121515000D03*
D35*
X161700000Y-118975000D03*
X161700000Y-116435000D03*
X161700000Y-113895000D03*
X161700000Y-111355000D03*
X161700000Y-108815000D03*
X161700000Y-106275000D03*
X161700000Y-103735000D03*
X161700000Y-101195000D03*
X161700000Y-98655000D03*
X161700000Y-96115000D03*
X161700000Y-93575000D03*
X161700000Y-91035000D03*
X161700000Y-88495000D03*
X161700000Y-85955000D03*
%TD*%
D37*
%TO.C,Q3*%
X131540000Y-133050000D03*
D38*
X129000000Y-133050000D03*
X126460000Y-133050000D03*
%TD*%
D32*
%TO.C,F1*%
X169430000Y-87040000D03*
X169430000Y-96960000D03*
X166030000Y-87040000D03*
X166030000Y-96960000D03*
%TD*%
D27*
%TO.C,R3*%
X165450000Y-134620000D03*
X167450000Y-134620000D03*
%TD*%
D17*
%TO.C,R10*%
X155450000Y-134620000D03*
X153450000Y-134620000D03*
%TD*%
D39*
%TO.C,C3*%
X170862500Y-103700000D03*
X167737500Y-103700000D03*
%TD*%
D40*
%TO.C,U2*%
X142824452Y-116432858D03*
X142824452Y-118972858D03*
X142824452Y-121512858D03*
X142824452Y-124052858D03*
X152354452Y-124052858D03*
X152354452Y-121512858D03*
X152354452Y-118972858D03*
X152354452Y-116432858D03*
%TD*%
D37*
%TO.C,Q4*%
X131540000Y-125050000D03*
D38*
X129000000Y-125050000D03*
X126460000Y-125050000D03*
%TD*%
D33*
%TO.C,W8*%
X159450000Y-134620000D03*
%TD*%
D17*
%TO.C,R11*%
X158000000Y-122000000D03*
X156000000Y-122000000D03*
%TD*%
D20*
%TO.C,C10*%
X140962500Y-106000000D03*
X143037500Y-106000000D03*
%TD*%
D26*
%TO.C,C8*%
X146000000Y-93962500D03*
X146000000Y-96037500D03*
%TD*%
D21*
%TO.C,C5*%
X170862500Y-123800000D03*
X167737500Y-123800000D03*
%TD*%
D20*
%TO.C,C6*%
X167662500Y-121100000D03*
X169737500Y-121100000D03*
%TD*%
%LPD*%
M02*
