%TF.GenerationSoftware,KiCad,Pcbnew,10.0.1*%
%TF.CreationDate,2026-06-07T05:08:58-05:00*%
%TF.ProjectId,ESPRadiator,45535052-6164-4696-9174-6f722e6b6963,rev?*%
%TF.SameCoordinates,Original*%
%TF.FileFunction,Legend,Bot*%
%TF.FilePolarity,Positive*%
%FSLAX46Y46*%
G04 Gerber Fmt 4.6, Leading zero omitted, Abs format (unit mm)*
G04 Created by KiCad (PCBNEW 10.0.1) date 2026-06-07 05:08:58*
%MOMM*%
%LPD*%
G01*
G04 APERTURE LIST*
G04 Aperture macros list*
%AMRoundRect*
0 Rectangle with rounded corners*
0 $1 Rounding radius*
0 $2 $3 $4 $5 $6 $7 $8 $9 X,Y pos of 4 corners*
0 Add a 4 corners polygon primitive as box body*
4,1,4,$2,$3,$4,$5,$6,$7,$8,$9,$2,$3,0*
0 Add four circle primitives for the rounded corners*
1,1,$1+$1,$2,$3*
1,1,$1+$1,$4,$5*
1,1,$1+$1,$6,$7*
1,1,$1+$1,$8,$9*
0 Add four rect primitives between the rounded corners*
20,1,$1+$1,$2,$3,$4,$5,0*
20,1,$1+$1,$4,$5,$6,$7,0*
20,1,$1+$1,$6,$7,$8,$9,0*
20,1,$1+$1,$8,$9,$2,$3,0*%
G04 Aperture macros list end*
%ADD10C,0.150000*%
%ADD11C,0.120000*%
%ADD12C,4.290000*%
%ADD13C,2.490000*%
%ADD14C,2.220000*%
%ADD15C,4.310000*%
%ADD16C,2.510000*%
%ADD17RoundRect,0.250000X-1.350000X1.350000X-1.350000X-1.350000X1.350000X-1.350000X1.350000X1.350000X0*%
%ADD18C,3.200000*%
%ADD19C,2.604000*%
%ADD20C,2.240000*%
%ADD21C,3.000000*%
%ADD22C,2.204000*%
%ADD23RoundRect,0.102000X1.000000X1.000000X-1.000000X1.000000X-1.000000X-1.000000X1.000000X-1.000000X0*%
%ADD24R,1.905000X2.000000*%
%ADD25O,1.905000X2.000000*%
%ADD26RoundRect,0.250000X-0.475000X0.337500X-0.475000X-0.337500X0.475000X-0.337500X0.475000X0.337500X0*%
%ADD27RoundRect,0.250000X0.450000X-0.350000X0.450000X0.350000X-0.450000X0.350000X-0.450000X-0.350000X0*%
%ADD28RoundRect,0.150000X0.150000X-0.587500X0.150000X0.587500X-0.150000X0.587500X-0.150000X-0.587500X0*%
%ADD29RoundRect,0.250000X-0.350000X-0.450000X0.350000X-0.450000X0.350000X0.450000X-0.350000X0.450000X0*%
%ADD30RoundRect,0.250000X-0.450000X0.350000X-0.450000X-0.350000X0.450000X-0.350000X0.450000X0.350000X0*%
%ADD31RoundRect,0.250000X0.350000X0.450000X-0.350000X0.450000X-0.350000X-0.450000X0.350000X-0.450000X0*%
G04 APERTURE END LIST*
D10*
X154642855Y-110628985D02*
X154571427Y-110557557D01*
X154571427Y-110557557D02*
X154428570Y-110486128D01*
X154428570Y-110486128D02*
X154071427Y-110486128D01*
X154071427Y-110486128D02*
X153928570Y-110557557D01*
X153928570Y-110557557D02*
X153857141Y-110628985D01*
X153857141Y-110628985D02*
X153785712Y-110771842D01*
X153785712Y-110771842D02*
X153785712Y-110914700D01*
X153785712Y-110914700D02*
X153857141Y-111128985D01*
X153857141Y-111128985D02*
X154714284Y-111986128D01*
X154714284Y-111986128D02*
X153785712Y-111986128D01*
X152857141Y-110486128D02*
X152714284Y-110486128D01*
X152714284Y-110486128D02*
X152571427Y-110557557D01*
X152571427Y-110557557D02*
X152499999Y-110628985D01*
X152499999Y-110628985D02*
X152428570Y-110771842D01*
X152428570Y-110771842D02*
X152357141Y-111057557D01*
X152357141Y-111057557D02*
X152357141Y-111414700D01*
X152357141Y-111414700D02*
X152428570Y-111700414D01*
X152428570Y-111700414D02*
X152499999Y-111843271D01*
X152499999Y-111843271D02*
X152571427Y-111914700D01*
X152571427Y-111914700D02*
X152714284Y-111986128D01*
X152714284Y-111986128D02*
X152857141Y-111986128D01*
X152857141Y-111986128D02*
X152999999Y-111914700D01*
X152999999Y-111914700D02*
X153071427Y-111843271D01*
X153071427Y-111843271D02*
X153142856Y-111700414D01*
X153142856Y-111700414D02*
X153214284Y-111414700D01*
X153214284Y-111414700D02*
X153214284Y-111057557D01*
X153214284Y-111057557D02*
X153142856Y-110771842D01*
X153142856Y-110771842D02*
X153071427Y-110628985D01*
X153071427Y-110628985D02*
X152999999Y-110557557D01*
X152999999Y-110557557D02*
X152857141Y-110486128D01*
X151785713Y-110628985D02*
X151714285Y-110557557D01*
X151714285Y-110557557D02*
X151571428Y-110486128D01*
X151571428Y-110486128D02*
X151214285Y-110486128D01*
X151214285Y-110486128D02*
X151071428Y-110557557D01*
X151071428Y-110557557D02*
X150999999Y-110628985D01*
X150999999Y-110628985D02*
X150928570Y-110771842D01*
X150928570Y-110771842D02*
X150928570Y-110914700D01*
X150928570Y-110914700D02*
X150999999Y-111128985D01*
X150999999Y-111128985D02*
X151857142Y-111986128D01*
X151857142Y-111986128D02*
X150928570Y-111986128D01*
X149642857Y-110486128D02*
X149928571Y-110486128D01*
X149928571Y-110486128D02*
X150071428Y-110557557D01*
X150071428Y-110557557D02*
X150142857Y-110628985D01*
X150142857Y-110628985D02*
X150285714Y-110843271D01*
X150285714Y-110843271D02*
X150357142Y-111128985D01*
X150357142Y-111128985D02*
X150357142Y-111700414D01*
X150357142Y-111700414D02*
X150285714Y-111843271D01*
X150285714Y-111843271D02*
X150214285Y-111914700D01*
X150214285Y-111914700D02*
X150071428Y-111986128D01*
X150071428Y-111986128D02*
X149785714Y-111986128D01*
X149785714Y-111986128D02*
X149642857Y-111914700D01*
X149642857Y-111914700D02*
X149571428Y-111843271D01*
X149571428Y-111843271D02*
X149499999Y-111700414D01*
X149499999Y-111700414D02*
X149499999Y-111343271D01*
X149499999Y-111343271D02*
X149571428Y-111200414D01*
X149571428Y-111200414D02*
X149642857Y-111128985D01*
X149642857Y-111128985D02*
X149785714Y-111057557D01*
X149785714Y-111057557D02*
X150071428Y-111057557D01*
X150071428Y-111057557D02*
X150214285Y-111128985D01*
X150214285Y-111128985D02*
X150285714Y-111200414D01*
X150285714Y-111200414D02*
X150357142Y-111343271D01*
X148857143Y-111843271D02*
X148785714Y-111914700D01*
X148785714Y-111914700D02*
X148857143Y-111986128D01*
X148857143Y-111986128D02*
X148928571Y-111914700D01*
X148928571Y-111914700D02*
X148857143Y-111843271D01*
X148857143Y-111843271D02*
X148857143Y-111986128D01*
X147857142Y-110486128D02*
X147714285Y-110486128D01*
X147714285Y-110486128D02*
X147571428Y-110557557D01*
X147571428Y-110557557D02*
X147500000Y-110628985D01*
X147500000Y-110628985D02*
X147428571Y-110771842D01*
X147428571Y-110771842D02*
X147357142Y-111057557D01*
X147357142Y-111057557D02*
X147357142Y-111414700D01*
X147357142Y-111414700D02*
X147428571Y-111700414D01*
X147428571Y-111700414D02*
X147500000Y-111843271D01*
X147500000Y-111843271D02*
X147571428Y-111914700D01*
X147571428Y-111914700D02*
X147714285Y-111986128D01*
X147714285Y-111986128D02*
X147857142Y-111986128D01*
X147857142Y-111986128D02*
X148000000Y-111914700D01*
X148000000Y-111914700D02*
X148071428Y-111843271D01*
X148071428Y-111843271D02*
X148142857Y-111700414D01*
X148142857Y-111700414D02*
X148214285Y-111414700D01*
X148214285Y-111414700D02*
X148214285Y-111057557D01*
X148214285Y-111057557D02*
X148142857Y-110771842D01*
X148142857Y-110771842D02*
X148071428Y-110628985D01*
X148071428Y-110628985D02*
X148000000Y-110557557D01*
X148000000Y-110557557D02*
X147857142Y-110486128D01*
X146071429Y-110486128D02*
X146357143Y-110486128D01*
X146357143Y-110486128D02*
X146500000Y-110557557D01*
X146500000Y-110557557D02*
X146571429Y-110628985D01*
X146571429Y-110628985D02*
X146714286Y-110843271D01*
X146714286Y-110843271D02*
X146785714Y-111128985D01*
X146785714Y-111128985D02*
X146785714Y-111700414D01*
X146785714Y-111700414D02*
X146714286Y-111843271D01*
X146714286Y-111843271D02*
X146642857Y-111914700D01*
X146642857Y-111914700D02*
X146500000Y-111986128D01*
X146500000Y-111986128D02*
X146214286Y-111986128D01*
X146214286Y-111986128D02*
X146071429Y-111914700D01*
X146071429Y-111914700D02*
X146000000Y-111843271D01*
X146000000Y-111843271D02*
X145928571Y-111700414D01*
X145928571Y-111700414D02*
X145928571Y-111343271D01*
X145928571Y-111343271D02*
X146000000Y-111200414D01*
X146000000Y-111200414D02*
X146071429Y-111128985D01*
X146071429Y-111128985D02*
X146214286Y-111057557D01*
X146214286Y-111057557D02*
X146500000Y-111057557D01*
X146500000Y-111057557D02*
X146642857Y-111128985D01*
X146642857Y-111128985D02*
X146714286Y-111200414D01*
X146714286Y-111200414D02*
X146785714Y-111343271D01*
X145285715Y-111843271D02*
X145214286Y-111914700D01*
X145214286Y-111914700D02*
X145285715Y-111986128D01*
X145285715Y-111986128D02*
X145357143Y-111914700D01*
X145357143Y-111914700D02*
X145285715Y-111843271D01*
X145285715Y-111843271D02*
X145285715Y-111986128D01*
X144285714Y-110486128D02*
X144142857Y-110486128D01*
X144142857Y-110486128D02*
X144000000Y-110557557D01*
X144000000Y-110557557D02*
X143928572Y-110628985D01*
X143928572Y-110628985D02*
X143857143Y-110771842D01*
X143857143Y-110771842D02*
X143785714Y-111057557D01*
X143785714Y-111057557D02*
X143785714Y-111414700D01*
X143785714Y-111414700D02*
X143857143Y-111700414D01*
X143857143Y-111700414D02*
X143928572Y-111843271D01*
X143928572Y-111843271D02*
X144000000Y-111914700D01*
X144000000Y-111914700D02*
X144142857Y-111986128D01*
X144142857Y-111986128D02*
X144285714Y-111986128D01*
X144285714Y-111986128D02*
X144428572Y-111914700D01*
X144428572Y-111914700D02*
X144500000Y-111843271D01*
X144500000Y-111843271D02*
X144571429Y-111700414D01*
X144571429Y-111700414D02*
X144642857Y-111414700D01*
X144642857Y-111414700D02*
X144642857Y-111057557D01*
X144642857Y-111057557D02*
X144571429Y-110771842D01*
X144571429Y-110771842D02*
X144500000Y-110628985D01*
X144500000Y-110628985D02*
X144428572Y-110557557D01*
X144428572Y-110557557D02*
X144285714Y-110486128D01*
X143285715Y-110486128D02*
X142285715Y-110486128D01*
X142285715Y-110486128D02*
X142928572Y-111986128D01*
X157952381Y-104869819D02*
X157285714Y-104869819D01*
X157000000Y-105917438D02*
X157952381Y-105917438D01*
X157952381Y-105917438D02*
X157952381Y-103917438D01*
X157952381Y-103917438D02*
X157000000Y-103917438D01*
X156238095Y-105822200D02*
X155952381Y-105917438D01*
X155952381Y-105917438D02*
X155476190Y-105917438D01*
X155476190Y-105917438D02*
X155285714Y-105822200D01*
X155285714Y-105822200D02*
X155190476Y-105726961D01*
X155190476Y-105726961D02*
X155095238Y-105536485D01*
X155095238Y-105536485D02*
X155095238Y-105346009D01*
X155095238Y-105346009D02*
X155190476Y-105155533D01*
X155190476Y-105155533D02*
X155285714Y-105060295D01*
X155285714Y-105060295D02*
X155476190Y-104965057D01*
X155476190Y-104965057D02*
X155857143Y-104869819D01*
X155857143Y-104869819D02*
X156047619Y-104774580D01*
X156047619Y-104774580D02*
X156142857Y-104679342D01*
X156142857Y-104679342D02*
X156238095Y-104488866D01*
X156238095Y-104488866D02*
X156238095Y-104298390D01*
X156238095Y-104298390D02*
X156142857Y-104107914D01*
X156142857Y-104107914D02*
X156047619Y-104012676D01*
X156047619Y-104012676D02*
X155857143Y-103917438D01*
X155857143Y-103917438D02*
X155380952Y-103917438D01*
X155380952Y-103917438D02*
X155095238Y-104012676D01*
X154238095Y-105917438D02*
X154238095Y-103917438D01*
X154238095Y-103917438D02*
X153476190Y-103917438D01*
X153476190Y-103917438D02*
X153285714Y-104012676D01*
X153285714Y-104012676D02*
X153190476Y-104107914D01*
X153190476Y-104107914D02*
X153095238Y-104298390D01*
X153095238Y-104298390D02*
X153095238Y-104584104D01*
X153095238Y-104584104D02*
X153190476Y-104774580D01*
X153190476Y-104774580D02*
X153285714Y-104869819D01*
X153285714Y-104869819D02*
X153476190Y-104965057D01*
X153476190Y-104965057D02*
X154238095Y-104965057D01*
X151571428Y-104869819D02*
X152238095Y-104869819D01*
X152238095Y-105917438D02*
X152238095Y-103917438D01*
X152238095Y-103917438D02*
X151285714Y-103917438D01*
X149666666Y-105917438D02*
X149666666Y-104869819D01*
X149666666Y-104869819D02*
X149761904Y-104679342D01*
X149761904Y-104679342D02*
X149952380Y-104584104D01*
X149952380Y-104584104D02*
X150333333Y-104584104D01*
X150333333Y-104584104D02*
X150523809Y-104679342D01*
X149666666Y-105822200D02*
X149857142Y-105917438D01*
X149857142Y-105917438D02*
X150333333Y-105917438D01*
X150333333Y-105917438D02*
X150523809Y-105822200D01*
X150523809Y-105822200D02*
X150619047Y-105631723D01*
X150619047Y-105631723D02*
X150619047Y-105441247D01*
X150619047Y-105441247D02*
X150523809Y-105250771D01*
X150523809Y-105250771D02*
X150333333Y-105155533D01*
X150333333Y-105155533D02*
X149857142Y-105155533D01*
X149857142Y-105155533D02*
X149666666Y-105060295D01*
X148714285Y-104584104D02*
X148714285Y-105917438D01*
X148714285Y-104774580D02*
X148619047Y-104679342D01*
X148619047Y-104679342D02*
X148428571Y-104584104D01*
X148428571Y-104584104D02*
X148142856Y-104584104D01*
X148142856Y-104584104D02*
X147952380Y-104679342D01*
X147952380Y-104679342D02*
X147857142Y-104869819D01*
X147857142Y-104869819D02*
X147857142Y-105917438D01*
X145571427Y-104584104D02*
X145095237Y-105917438D01*
X145095237Y-105917438D02*
X144619046Y-104584104D01*
X142809522Y-105917438D02*
X143952379Y-105917438D01*
X143380951Y-105917438D02*
X143380951Y-103917438D01*
X143380951Y-103917438D02*
X143571427Y-104203152D01*
X143571427Y-104203152D02*
X143761903Y-104393628D01*
X143761903Y-104393628D02*
X143952379Y-104488866D01*
X141952379Y-105726961D02*
X141857141Y-105822200D01*
X141857141Y-105822200D02*
X141952379Y-105917438D01*
X141952379Y-105917438D02*
X142047617Y-105822200D01*
X142047617Y-105822200D02*
X141952379Y-105726961D01*
X141952379Y-105726961D02*
X141952379Y-105917438D01*
X140619046Y-103917438D02*
X140428569Y-103917438D01*
X140428569Y-103917438D02*
X140238093Y-104012676D01*
X140238093Y-104012676D02*
X140142855Y-104107914D01*
X140142855Y-104107914D02*
X140047617Y-104298390D01*
X140047617Y-104298390D02*
X139952379Y-104679342D01*
X139952379Y-104679342D02*
X139952379Y-105155533D01*
X139952379Y-105155533D02*
X140047617Y-105536485D01*
X140047617Y-105536485D02*
X140142855Y-105726961D01*
X140142855Y-105726961D02*
X140238093Y-105822200D01*
X140238093Y-105822200D02*
X140428569Y-105917438D01*
X140428569Y-105917438D02*
X140619046Y-105917438D01*
X140619046Y-105917438D02*
X140809522Y-105822200D01*
X140809522Y-105822200D02*
X140904760Y-105726961D01*
X140904760Y-105726961D02*
X140999998Y-105536485D01*
X140999998Y-105536485D02*
X141095236Y-105155533D01*
X141095236Y-105155533D02*
X141095236Y-104679342D01*
X141095236Y-104679342D02*
X140999998Y-104298390D01*
X140999998Y-104298390D02*
X140904760Y-104107914D01*
X140904760Y-104107914D02*
X140809522Y-104012676D01*
X140809522Y-104012676D02*
X140619046Y-103917438D01*
X154166666Y-94059580D02*
X154214285Y-94107200D01*
X154214285Y-94107200D02*
X154357142Y-94154819D01*
X154357142Y-94154819D02*
X154452380Y-94154819D01*
X154452380Y-94154819D02*
X154595237Y-94107200D01*
X154595237Y-94107200D02*
X154690475Y-94011961D01*
X154690475Y-94011961D02*
X154738094Y-93916723D01*
X154738094Y-93916723D02*
X154785713Y-93726247D01*
X154785713Y-93726247D02*
X154785713Y-93583390D01*
X154785713Y-93583390D02*
X154738094Y-93392914D01*
X154738094Y-93392914D02*
X154690475Y-93297676D01*
X154690475Y-93297676D02*
X154595237Y-93202438D01*
X154595237Y-93202438D02*
X154452380Y-93154819D01*
X154452380Y-93154819D02*
X154357142Y-93154819D01*
X154357142Y-93154819D02*
X154214285Y-93202438D01*
X154214285Y-93202438D02*
X154166666Y-93250057D01*
X153833332Y-93154819D02*
X153166666Y-93154819D01*
X153166666Y-93154819D02*
X153595237Y-94154819D01*
X157166666Y-94154819D02*
X157499999Y-93678628D01*
X157738094Y-94154819D02*
X157738094Y-93154819D01*
X157738094Y-93154819D02*
X157357142Y-93154819D01*
X157357142Y-93154819D02*
X157261904Y-93202438D01*
X157261904Y-93202438D02*
X157214285Y-93250057D01*
X157214285Y-93250057D02*
X157166666Y-93345295D01*
X157166666Y-93345295D02*
X157166666Y-93488152D01*
X157166666Y-93488152D02*
X157214285Y-93583390D01*
X157214285Y-93583390D02*
X157261904Y-93631009D01*
X157261904Y-93631009D02*
X157357142Y-93678628D01*
X157357142Y-93678628D02*
X157738094Y-93678628D01*
X156214285Y-94154819D02*
X156785713Y-94154819D01*
X156499999Y-94154819D02*
X156499999Y-93154819D01*
X156499999Y-93154819D02*
X156595237Y-93297676D01*
X156595237Y-93297676D02*
X156690475Y-93392914D01*
X156690475Y-93392914D02*
X156785713Y-93440533D01*
X150995238Y-94350057D02*
X151090476Y-94302438D01*
X151090476Y-94302438D02*
X151185714Y-94207200D01*
X151185714Y-94207200D02*
X151328571Y-94064342D01*
X151328571Y-94064342D02*
X151423809Y-94016723D01*
X151423809Y-94016723D02*
X151519047Y-94016723D01*
X151471428Y-94254819D02*
X151566666Y-94207200D01*
X151566666Y-94207200D02*
X151661904Y-94111961D01*
X151661904Y-94111961D02*
X151709523Y-93921485D01*
X151709523Y-93921485D02*
X151709523Y-93588152D01*
X151709523Y-93588152D02*
X151661904Y-93397676D01*
X151661904Y-93397676D02*
X151566666Y-93302438D01*
X151566666Y-93302438D02*
X151471428Y-93254819D01*
X151471428Y-93254819D02*
X151280952Y-93254819D01*
X151280952Y-93254819D02*
X151185714Y-93302438D01*
X151185714Y-93302438D02*
X151090476Y-93397676D01*
X151090476Y-93397676D02*
X151042857Y-93588152D01*
X151042857Y-93588152D02*
X151042857Y-93921485D01*
X151042857Y-93921485D02*
X151090476Y-94111961D01*
X151090476Y-94111961D02*
X151185714Y-94207200D01*
X151185714Y-94207200D02*
X151280952Y-94254819D01*
X151280952Y-94254819D02*
X151471428Y-94254819D01*
X150090476Y-94254819D02*
X150661904Y-94254819D01*
X150376190Y-94254819D02*
X150376190Y-93254819D01*
X150376190Y-93254819D02*
X150471428Y-93397676D01*
X150471428Y-93397676D02*
X150566666Y-93492914D01*
X150566666Y-93492914D02*
X150661904Y-93540533D01*
X127642857Y-112154819D02*
X127976190Y-111678628D01*
X128214285Y-112154819D02*
X128214285Y-111154819D01*
X128214285Y-111154819D02*
X127833333Y-111154819D01*
X127833333Y-111154819D02*
X127738095Y-111202438D01*
X127738095Y-111202438D02*
X127690476Y-111250057D01*
X127690476Y-111250057D02*
X127642857Y-111345295D01*
X127642857Y-111345295D02*
X127642857Y-111488152D01*
X127642857Y-111488152D02*
X127690476Y-111583390D01*
X127690476Y-111583390D02*
X127738095Y-111631009D01*
X127738095Y-111631009D02*
X127833333Y-111678628D01*
X127833333Y-111678628D02*
X128214285Y-111678628D01*
X126690476Y-112154819D02*
X127261904Y-112154819D01*
X126976190Y-112154819D02*
X126976190Y-111154819D01*
X126976190Y-111154819D02*
X127071428Y-111297676D01*
X127071428Y-111297676D02*
X127166666Y-111392914D01*
X127166666Y-111392914D02*
X127261904Y-111440533D01*
X125833333Y-111154819D02*
X126023809Y-111154819D01*
X126023809Y-111154819D02*
X126119047Y-111202438D01*
X126119047Y-111202438D02*
X126166666Y-111250057D01*
X126166666Y-111250057D02*
X126261904Y-111392914D01*
X126261904Y-111392914D02*
X126309523Y-111583390D01*
X126309523Y-111583390D02*
X126309523Y-111964342D01*
X126309523Y-111964342D02*
X126261904Y-112059580D01*
X126261904Y-112059580D02*
X126214285Y-112107200D01*
X126214285Y-112107200D02*
X126119047Y-112154819D01*
X126119047Y-112154819D02*
X125928571Y-112154819D01*
X125928571Y-112154819D02*
X125833333Y-112107200D01*
X125833333Y-112107200D02*
X125785714Y-112059580D01*
X125785714Y-112059580D02*
X125738095Y-111964342D01*
X125738095Y-111964342D02*
X125738095Y-111726247D01*
X125738095Y-111726247D02*
X125785714Y-111631009D01*
X125785714Y-111631009D02*
X125833333Y-111583390D01*
X125833333Y-111583390D02*
X125928571Y-111535771D01*
X125928571Y-111535771D02*
X126119047Y-111535771D01*
X126119047Y-111535771D02*
X126214285Y-111583390D01*
X126214285Y-111583390D02*
X126261904Y-111631009D01*
X126261904Y-111631009D02*
X126309523Y-111726247D01*
X132742857Y-118154819D02*
X133076190Y-117678628D01*
X133314285Y-118154819D02*
X133314285Y-117154819D01*
X133314285Y-117154819D02*
X132933333Y-117154819D01*
X132933333Y-117154819D02*
X132838095Y-117202438D01*
X132838095Y-117202438D02*
X132790476Y-117250057D01*
X132790476Y-117250057D02*
X132742857Y-117345295D01*
X132742857Y-117345295D02*
X132742857Y-117488152D01*
X132742857Y-117488152D02*
X132790476Y-117583390D01*
X132790476Y-117583390D02*
X132838095Y-117631009D01*
X132838095Y-117631009D02*
X132933333Y-117678628D01*
X132933333Y-117678628D02*
X133314285Y-117678628D01*
X131790476Y-118154819D02*
X132361904Y-118154819D01*
X132076190Y-118154819D02*
X132076190Y-117154819D01*
X132076190Y-117154819D02*
X132171428Y-117297676D01*
X132171428Y-117297676D02*
X132266666Y-117392914D01*
X132266666Y-117392914D02*
X132361904Y-117440533D01*
X131409523Y-117250057D02*
X131361904Y-117202438D01*
X131361904Y-117202438D02*
X131266666Y-117154819D01*
X131266666Y-117154819D02*
X131028571Y-117154819D01*
X131028571Y-117154819D02*
X130933333Y-117202438D01*
X130933333Y-117202438D02*
X130885714Y-117250057D01*
X130885714Y-117250057D02*
X130838095Y-117345295D01*
X130838095Y-117345295D02*
X130838095Y-117440533D01*
X130838095Y-117440533D02*
X130885714Y-117583390D01*
X130885714Y-117583390D02*
X131457142Y-118154819D01*
X131457142Y-118154819D02*
X130838095Y-118154819D01*
X145166666Y-101154819D02*
X145499999Y-100678628D01*
X145738094Y-101154819D02*
X145738094Y-100154819D01*
X145738094Y-100154819D02*
X145357142Y-100154819D01*
X145357142Y-100154819D02*
X145261904Y-100202438D01*
X145261904Y-100202438D02*
X145214285Y-100250057D01*
X145214285Y-100250057D02*
X145166666Y-100345295D01*
X145166666Y-100345295D02*
X145166666Y-100488152D01*
X145166666Y-100488152D02*
X145214285Y-100583390D01*
X145214285Y-100583390D02*
X145261904Y-100631009D01*
X145261904Y-100631009D02*
X145357142Y-100678628D01*
X145357142Y-100678628D02*
X145738094Y-100678628D01*
X144833332Y-100154819D02*
X144166666Y-100154819D01*
X144166666Y-100154819D02*
X144595237Y-101154819D01*
X141166666Y-101059580D02*
X141214285Y-101107200D01*
X141214285Y-101107200D02*
X141357142Y-101154819D01*
X141357142Y-101154819D02*
X141452380Y-101154819D01*
X141452380Y-101154819D02*
X141595237Y-101107200D01*
X141595237Y-101107200D02*
X141690475Y-101011961D01*
X141690475Y-101011961D02*
X141738094Y-100916723D01*
X141738094Y-100916723D02*
X141785713Y-100726247D01*
X141785713Y-100726247D02*
X141785713Y-100583390D01*
X141785713Y-100583390D02*
X141738094Y-100392914D01*
X141738094Y-100392914D02*
X141690475Y-100297676D01*
X141690475Y-100297676D02*
X141595237Y-100202438D01*
X141595237Y-100202438D02*
X141452380Y-100154819D01*
X141452380Y-100154819D02*
X141357142Y-100154819D01*
X141357142Y-100154819D02*
X141214285Y-100202438D01*
X141214285Y-100202438D02*
X141166666Y-100250057D01*
X140690475Y-101154819D02*
X140499999Y-101154819D01*
X140499999Y-101154819D02*
X140404761Y-101107200D01*
X140404761Y-101107200D02*
X140357142Y-101059580D01*
X140357142Y-101059580D02*
X140261904Y-100916723D01*
X140261904Y-100916723D02*
X140214285Y-100726247D01*
X140214285Y-100726247D02*
X140214285Y-100345295D01*
X140214285Y-100345295D02*
X140261904Y-100250057D01*
X140261904Y-100250057D02*
X140309523Y-100202438D01*
X140309523Y-100202438D02*
X140404761Y-100154819D01*
X140404761Y-100154819D02*
X140595237Y-100154819D01*
X140595237Y-100154819D02*
X140690475Y-100202438D01*
X140690475Y-100202438D02*
X140738094Y-100250057D01*
X140738094Y-100250057D02*
X140785713Y-100345295D01*
X140785713Y-100345295D02*
X140785713Y-100583390D01*
X140785713Y-100583390D02*
X140738094Y-100678628D01*
X140738094Y-100678628D02*
X140690475Y-100726247D01*
X140690475Y-100726247D02*
X140595237Y-100773866D01*
X140595237Y-100773866D02*
X140404761Y-100773866D01*
X140404761Y-100773866D02*
X140309523Y-100726247D01*
X140309523Y-100726247D02*
X140261904Y-100678628D01*
X140261904Y-100678628D02*
X140214285Y-100583390D01*
X129542857Y-118154819D02*
X129876190Y-117678628D01*
X130114285Y-118154819D02*
X130114285Y-117154819D01*
X130114285Y-117154819D02*
X129733333Y-117154819D01*
X129733333Y-117154819D02*
X129638095Y-117202438D01*
X129638095Y-117202438D02*
X129590476Y-117250057D01*
X129590476Y-117250057D02*
X129542857Y-117345295D01*
X129542857Y-117345295D02*
X129542857Y-117488152D01*
X129542857Y-117488152D02*
X129590476Y-117583390D01*
X129590476Y-117583390D02*
X129638095Y-117631009D01*
X129638095Y-117631009D02*
X129733333Y-117678628D01*
X129733333Y-117678628D02*
X130114285Y-117678628D01*
X128590476Y-118154819D02*
X129161904Y-118154819D01*
X128876190Y-118154819D02*
X128876190Y-117154819D01*
X128876190Y-117154819D02*
X128971428Y-117297676D01*
X128971428Y-117297676D02*
X129066666Y-117392914D01*
X129066666Y-117392914D02*
X129161904Y-117440533D01*
X127685714Y-117154819D02*
X128161904Y-117154819D01*
X128161904Y-117154819D02*
X128209523Y-117631009D01*
X128209523Y-117631009D02*
X128161904Y-117583390D01*
X128161904Y-117583390D02*
X128066666Y-117535771D01*
X128066666Y-117535771D02*
X127828571Y-117535771D01*
X127828571Y-117535771D02*
X127733333Y-117583390D01*
X127733333Y-117583390D02*
X127685714Y-117631009D01*
X127685714Y-117631009D02*
X127638095Y-117726247D01*
X127638095Y-117726247D02*
X127638095Y-117964342D01*
X127638095Y-117964342D02*
X127685714Y-118059580D01*
X127685714Y-118059580D02*
X127733333Y-118107200D01*
X127733333Y-118107200D02*
X127828571Y-118154819D01*
X127828571Y-118154819D02*
X128066666Y-118154819D01*
X128066666Y-118154819D02*
X128161904Y-118107200D01*
X128161904Y-118107200D02*
X128209523Y-118059580D01*
X132042857Y-112254819D02*
X132376190Y-111778628D01*
X132614285Y-112254819D02*
X132614285Y-111254819D01*
X132614285Y-111254819D02*
X132233333Y-111254819D01*
X132233333Y-111254819D02*
X132138095Y-111302438D01*
X132138095Y-111302438D02*
X132090476Y-111350057D01*
X132090476Y-111350057D02*
X132042857Y-111445295D01*
X132042857Y-111445295D02*
X132042857Y-111588152D01*
X132042857Y-111588152D02*
X132090476Y-111683390D01*
X132090476Y-111683390D02*
X132138095Y-111731009D01*
X132138095Y-111731009D02*
X132233333Y-111778628D01*
X132233333Y-111778628D02*
X132614285Y-111778628D01*
X131090476Y-112254819D02*
X131661904Y-112254819D01*
X131376190Y-112254819D02*
X131376190Y-111254819D01*
X131376190Y-111254819D02*
X131471428Y-111397676D01*
X131471428Y-111397676D02*
X131566666Y-111492914D01*
X131566666Y-111492914D02*
X131661904Y-111540533D01*
X130757142Y-111254819D02*
X130138095Y-111254819D01*
X130138095Y-111254819D02*
X130471428Y-111635771D01*
X130471428Y-111635771D02*
X130328571Y-111635771D01*
X130328571Y-111635771D02*
X130233333Y-111683390D01*
X130233333Y-111683390D02*
X130185714Y-111731009D01*
X130185714Y-111731009D02*
X130138095Y-111826247D01*
X130138095Y-111826247D02*
X130138095Y-112064342D01*
X130138095Y-112064342D02*
X130185714Y-112159580D01*
X130185714Y-112159580D02*
X130233333Y-112207200D01*
X130233333Y-112207200D02*
X130328571Y-112254819D01*
X130328571Y-112254819D02*
X130614285Y-112254819D01*
X130614285Y-112254819D02*
X130709523Y-112207200D01*
X130709523Y-112207200D02*
X130757142Y-112159580D01*
X149166666Y-99154819D02*
X149499999Y-98678628D01*
X149738094Y-99154819D02*
X149738094Y-98154819D01*
X149738094Y-98154819D02*
X149357142Y-98154819D01*
X149357142Y-98154819D02*
X149261904Y-98202438D01*
X149261904Y-98202438D02*
X149214285Y-98250057D01*
X149214285Y-98250057D02*
X149166666Y-98345295D01*
X149166666Y-98345295D02*
X149166666Y-98488152D01*
X149166666Y-98488152D02*
X149214285Y-98583390D01*
X149214285Y-98583390D02*
X149261904Y-98631009D01*
X149261904Y-98631009D02*
X149357142Y-98678628D01*
X149357142Y-98678628D02*
X149738094Y-98678628D01*
X148309523Y-98488152D02*
X148309523Y-99154819D01*
X148547618Y-98107200D02*
X148785713Y-98821485D01*
X148785713Y-98821485D02*
X148166666Y-98821485D01*
%TO.C,C7*%
D11*
X153265000Y-90738748D02*
X153265000Y-91261252D01*
X154735000Y-90738748D02*
X154735000Y-91261252D01*
%TO.C,R1*%
X157735000Y-91227064D02*
X157735000Y-90772936D01*
X156265000Y-91227064D02*
X156265000Y-90772936D01*
%TO.C,Q1*%
X148440000Y-90240000D02*
X148440000Y-91760000D01*
X148440000Y-91760000D02*
X148490000Y-91760000D01*
X149440000Y-90240000D02*
X148440000Y-90240000D01*
X149610000Y-91760000D02*
X150390000Y-91760000D01*
X151510000Y-91760000D02*
X151560000Y-91760000D01*
X151560000Y-90240000D02*
X150560000Y-90240000D01*
X151560000Y-91760000D02*
X151560000Y-90240000D01*
X150380000Y-92300000D02*
X150050000Y-92540000D01*
X150050000Y-92060000D01*
X150380000Y-92300000D01*
G36*
X150380000Y-92300000D02*
G01*
X150050000Y-92540000D01*
X150050000Y-92060000D01*
X150380000Y-92300000D01*
G37*
%TO.C,R16*%
X126772936Y-109265000D02*
X127227064Y-109265000D01*
X126772936Y-110735000D02*
X127227064Y-110735000D01*
%TO.C,R12*%
X131265000Y-114772936D02*
X131265000Y-115227064D01*
X132735000Y-114772936D02*
X132735000Y-115227064D01*
%TO.C,R7*%
X144265000Y-98227064D02*
X144265000Y-97772936D01*
X145735000Y-98227064D02*
X145735000Y-97772936D01*
%TO.C,C9*%
X140265000Y-97738748D02*
X140265000Y-98261252D01*
X141735000Y-97738748D02*
X141735000Y-98261252D01*
%TO.C,R15*%
X128265000Y-114772936D02*
X128265000Y-115227064D01*
X129735000Y-114772936D02*
X129735000Y-115227064D01*
%TO.C,R13*%
X131627064Y-109265000D02*
X131172936Y-109265000D01*
X131627064Y-110735000D02*
X131172936Y-110735000D01*
%TO.C,R4*%
X148265000Y-96227064D02*
X148265000Y-95772936D01*
X149735000Y-96227064D02*
X149735000Y-95772936D01*
%TD*%
D12*
%TO.C,W5*%
X126700000Y-120600000D03*
%TD*%
%TO.C,W3*%
X137500000Y-133900000D03*
%TD*%
%TO.C,W4*%
X126700000Y-105400000D03*
%TD*%
%TO.C,W1*%
X129000000Y-83000000D03*
%TD*%
D13*
%TO.C,W2*%
X165200000Y-125500000D03*
%TD*%
D14*
%TO.C,W6*%
X171450000Y-134620000D03*
%TD*%
%TO.C,W7*%
X149450000Y-134620000D03*
%TD*%
%TO.C,W8*%
X159450000Y-134620000D03*
%TD*%
%LPC*%
D15*
%TO.C,W5*%
X126700000Y-120600000D03*
%TD*%
%TO.C,W3*%
X137500000Y-133900000D03*
%TD*%
%TO.C,W4*%
X126700000Y-105400000D03*
%TD*%
%TO.C,W1*%
X129000000Y-83000000D03*
%TD*%
D16*
%TO.C,W2*%
X165200000Y-125500000D03*
%TD*%
D17*
%TO.C,D2*%
X131000000Y-105380000D03*
D18*
X131000000Y-120620000D03*
%TD*%
D19*
%TO.C,F2*%
X131970000Y-89040000D03*
X131970000Y-98960000D03*
X128570000Y-89040000D03*
X128570000Y-98960000D03*
%TD*%
D20*
%TO.C,W6*%
X171450000Y-134620000D03*
%TD*%
%TO.C,W7*%
X149450000Y-134620000D03*
%TD*%
D21*
%TO.C,MCU1*%
X136770000Y-82525000D03*
X136770000Y-129475000D03*
X161280000Y-82525000D03*
X161280000Y-129475000D03*
D22*
X136300000Y-85955000D03*
X136300000Y-88495000D03*
X136300000Y-91035000D03*
X136300000Y-93575000D03*
X136300000Y-96115000D03*
X136300000Y-98655000D03*
X136300000Y-101195000D03*
X136300000Y-103735000D03*
X136300000Y-106275000D03*
X136300000Y-108815000D03*
X136300000Y-111355000D03*
X136300000Y-113895000D03*
X136300000Y-116435000D03*
X136300000Y-118975000D03*
D23*
X136300000Y-121515000D03*
X161700000Y-121515000D03*
D22*
X161700000Y-118975000D03*
X161700000Y-116435000D03*
X161700000Y-113895000D03*
X161700000Y-111355000D03*
X161700000Y-108815000D03*
X161700000Y-106275000D03*
X161700000Y-103735000D03*
X161700000Y-101195000D03*
X161700000Y-98655000D03*
X161700000Y-96115000D03*
X161700000Y-93575000D03*
X161700000Y-91035000D03*
X161700000Y-88495000D03*
X161700000Y-85955000D03*
%TD*%
D24*
%TO.C,Q3*%
X131540000Y-133050000D03*
D25*
X129000000Y-133050000D03*
X126460000Y-133050000D03*
%TD*%
D19*
%TO.C,F1*%
X169430000Y-87040000D03*
X169430000Y-96960000D03*
X166030000Y-87040000D03*
X166030000Y-96960000D03*
%TD*%
D24*
%TO.C,Q4*%
X131540000Y-125050000D03*
D25*
X129000000Y-125050000D03*
X126460000Y-125050000D03*
%TD*%
D20*
%TO.C,W8*%
X159450000Y-134620000D03*
%TD*%
D26*
%TO.C,C7*%
X154000000Y-89962500D03*
X154000000Y-92037500D03*
%TD*%
D27*
%TO.C,R1*%
X157000000Y-90000000D03*
X157000000Y-92000000D03*
%TD*%
D28*
%TO.C,Q1*%
X150950000Y-91937500D03*
X149050000Y-91937500D03*
X150000000Y-90062500D03*
%TD*%
D29*
%TO.C,R16*%
X126000000Y-110000000D03*
X128000000Y-110000000D03*
%TD*%
D30*
%TO.C,R12*%
X132000000Y-114000000D03*
X132000000Y-116000000D03*
%TD*%
D27*
%TO.C,R7*%
X145000000Y-99000000D03*
X145000000Y-97000000D03*
%TD*%
D26*
%TO.C,C9*%
X141000000Y-96962500D03*
X141000000Y-99037500D03*
%TD*%
D30*
%TO.C,R15*%
X129000000Y-114000000D03*
X129000000Y-116000000D03*
%TD*%
D31*
%TO.C,R13*%
X132400000Y-110000000D03*
X130400000Y-110000000D03*
%TD*%
D27*
%TO.C,R4*%
X149000000Y-97000000D03*
X149000000Y-95000000D03*
%TD*%
%LPD*%
M02*
