G04 #@! TF.FileFunction,Copper,L2,Bot,Signal*
%FSLAX46Y46*%
G04 Gerber Fmt 4.6, Leading zero omitted, Abs format (unit mm)*
G04 Created by KiCad (PCBNEW 4.0.4-stable) date 12/11/17 19:52:28*
%MOMM*%
%LPD*%
G01*
G04 APERTURE LIST*
%ADD10C,0.100000*%
%ADD11O,2.000000X3.000000*%
%ADD12R,3.000000X3.000000*%
%ADD13C,3.200000*%
%ADD14C,0.500000*%
%ADD15C,0.250000*%
%ADD16C,0.254000*%
G04 APERTURE END LIST*
D10*
D11*
X143570000Y-88900000D03*
X151070000Y-88900000D03*
D12*
X149860000Y-110490000D03*
D13*
X144780000Y-110490000D03*
D14*
X139700000Y-110490000D03*
X139700000Y-113030000D03*
X139700000Y-107950000D03*
X139700000Y-105410000D03*
X139700000Y-102870000D03*
X139700000Y-100330000D03*
X139700000Y-97790000D03*
X139700000Y-95250000D03*
X139700000Y-92710000D03*
X139700000Y-90170000D03*
X139700000Y-87630000D03*
X139700000Y-85090000D03*
X142240000Y-85090000D03*
X144780000Y-85090000D03*
X142240000Y-113030000D03*
X144780000Y-113030000D03*
X144780000Y-92710000D03*
X144780000Y-95250000D03*
X144780000Y-97790000D03*
X144780000Y-100330000D03*
X144780000Y-102870000D03*
X144780000Y-105410000D03*
X144780000Y-107950000D03*
X142240000Y-107950000D03*
X142240000Y-105410000D03*
X142240000Y-102870000D03*
X142240000Y-100330000D03*
X142240000Y-97790000D03*
X142240000Y-95250000D03*
X142240000Y-92710000D03*
X142240000Y-110490000D03*
X149860000Y-100330000D03*
X149860000Y-102870000D03*
X149860000Y-105410000D03*
X149860000Y-107950000D03*
X152400000Y-107950000D03*
X152400000Y-107950000D03*
X154940000Y-107950000D03*
X154940000Y-110490000D03*
X152400000Y-110490000D03*
X152400000Y-113030000D03*
X154940000Y-113030000D03*
X149860000Y-113030000D03*
X152400000Y-105410000D03*
X154940000Y-105410000D03*
X154940000Y-102870000D03*
X152400000Y-102870000D03*
X152400000Y-100330000D03*
X154940000Y-100330000D03*
X154940000Y-97790000D03*
X152400000Y-97790000D03*
X149860000Y-97790000D03*
X149860000Y-95250000D03*
X152400000Y-95250000D03*
X154940000Y-95250000D03*
X154940000Y-92710000D03*
X152400000Y-92710000D03*
X149860000Y-92710000D03*
X154940000Y-90170000D03*
X154940000Y-87630000D03*
X154940000Y-85090000D03*
X152400000Y-85090000D03*
X149860000Y-85090000D03*
D15*
X151070000Y-88900000D02*
X151070000Y-109280000D01*
X151070000Y-109280000D02*
X149860000Y-110490000D01*
X151070000Y-109280000D02*
X149860000Y-110490000D01*
X143570000Y-88900000D02*
X143570000Y-109280000D01*
X143570000Y-109280000D02*
X144780000Y-110490000D01*
D16*
G36*
X146939000Y-113590000D02*
X139140000Y-113590000D01*
X139140000Y-84530000D01*
X146939000Y-84530000D01*
X146939000Y-113590000D01*
X146939000Y-113590000D01*
G37*
X146939000Y-113590000D02*
X139140000Y-113590000D01*
X139140000Y-84530000D01*
X146939000Y-84530000D01*
X146939000Y-113590000D01*
G36*
X155500000Y-113590000D02*
X147701000Y-113590000D01*
X147701000Y-84530000D01*
X155500000Y-84530000D01*
X155500000Y-113590000D01*
X155500000Y-113590000D01*
G37*
X155500000Y-113590000D02*
X147701000Y-113590000D01*
X147701000Y-84530000D01*
X155500000Y-84530000D01*
X155500000Y-113590000D01*
M02*
