G04 #@! TF.FileFunction,Copper,L1,Top,Signal*
%FSLAX46Y46*%
G04 Gerber Fmt 4.6, Leading zero omitted, Abs format (unit mm)*
G04 Created by KiCad (PCBNEW 4.0.4-stable) date 12/11/17 19:55:02*
%MOMM*%
%LPD*%
G01*
G04 APERTURE LIST*
%ADD10C,0.100000*%
%ADD11R,3.000000X3.000000*%
%ADD12C,3.200000*%
%ADD13O,2.000000X3.000000*%
%ADD14C,0.250000*%
%ADD15C,0.254000*%
G04 APERTURE END LIST*
D10*
D11*
X149860000Y-110490000D03*
D12*
X144780000Y-110490000D03*
D13*
X143570000Y-88900000D03*
X151070000Y-88900000D03*
D14*
X151070000Y-88900000D02*
X151070000Y-109280000D01*
X151070000Y-109280000D02*
X149860000Y-110490000D01*
D15*
G36*
X155500000Y-113590000D02*
X139140000Y-113590000D01*
X139140000Y-110932619D01*
X142544613Y-110932619D01*
X142884155Y-111754372D01*
X143512321Y-112383636D01*
X144333481Y-112724611D01*
X145222619Y-112725387D01*
X146044372Y-112385845D01*
X146673636Y-111757679D01*
X147014611Y-110936519D01*
X147015387Y-110047381D01*
X146675845Y-109225628D01*
X146047679Y-108596364D01*
X145226519Y-108255389D01*
X144337381Y-108254613D01*
X143515628Y-108594155D01*
X142886364Y-109222321D01*
X142545389Y-110043481D01*
X142544613Y-110932619D01*
X139140000Y-110932619D01*
X139140000Y-88358173D01*
X141935000Y-88358173D01*
X141935000Y-89441827D01*
X142059457Y-90067514D01*
X142413880Y-90597947D01*
X142944313Y-90952370D01*
X143570000Y-91076827D01*
X144195687Y-90952370D01*
X144726120Y-90597947D01*
X145080543Y-90067514D01*
X145205000Y-89441827D01*
X145205000Y-88358173D01*
X145080543Y-87732486D01*
X144726120Y-87202053D01*
X144195687Y-86847630D01*
X143570000Y-86723173D01*
X142944313Y-86847630D01*
X142413880Y-87202053D01*
X142059457Y-87732486D01*
X141935000Y-88358173D01*
X139140000Y-88358173D01*
X139140000Y-84530000D01*
X155500000Y-84530000D01*
X155500000Y-113590000D01*
X155500000Y-113590000D01*
G37*
X155500000Y-113590000D02*
X139140000Y-113590000D01*
X139140000Y-110932619D01*
X142544613Y-110932619D01*
X142884155Y-111754372D01*
X143512321Y-112383636D01*
X144333481Y-112724611D01*
X145222619Y-112725387D01*
X146044372Y-112385845D01*
X146673636Y-111757679D01*
X147014611Y-110936519D01*
X147015387Y-110047381D01*
X146675845Y-109225628D01*
X146047679Y-108596364D01*
X145226519Y-108255389D01*
X144337381Y-108254613D01*
X143515628Y-108594155D01*
X142886364Y-109222321D01*
X142545389Y-110043481D01*
X142544613Y-110932619D01*
X139140000Y-110932619D01*
X139140000Y-88358173D01*
X141935000Y-88358173D01*
X141935000Y-89441827D01*
X142059457Y-90067514D01*
X142413880Y-90597947D01*
X142944313Y-90952370D01*
X143570000Y-91076827D01*
X144195687Y-90952370D01*
X144726120Y-90597947D01*
X145080543Y-90067514D01*
X145205000Y-89441827D01*
X145205000Y-88358173D01*
X145080543Y-87732486D01*
X144726120Y-87202053D01*
X144195687Y-86847630D01*
X143570000Y-86723173D01*
X142944313Y-86847630D01*
X142413880Y-87202053D01*
X142059457Y-87732486D01*
X141935000Y-88358173D01*
X139140000Y-88358173D01*
X139140000Y-84530000D01*
X155500000Y-84530000D01*
X155500000Y-113590000D01*
M02*
