M48
;DRILL file {KiCad 4.0.4-stable} date 12/11/17 19:52:33
;FORMAT={-:-/ absolute / metric / decimal}
FMAT,2
METRIC,TZ
T1C0.500
T2C0.800
T3C1.000
%
G90
G05
M71
T1
X139.7Y-85.09
X139.7Y-87.63
X139.7Y-90.17
X139.7Y-92.71
X139.7Y-95.25
X139.7Y-97.79
X139.7Y-100.33
X139.7Y-102.87
X139.7Y-105.41
X139.7Y-107.95
X139.7Y-110.49
X139.7Y-113.03
X142.24Y-85.09
X142.24Y-92.71
X142.24Y-95.25
X142.24Y-97.79
X142.24Y-100.33
X142.24Y-102.87
X142.24Y-105.41
X142.24Y-107.95
X142.24Y-110.49
X142.24Y-113.03
X144.78Y-85.09
X144.78Y-92.71
X144.78Y-95.25
X144.78Y-97.79
X144.78Y-100.33
X144.78Y-102.87
X144.78Y-105.41
X144.78Y-107.95
X144.78Y-113.03
X149.86Y-85.09
X149.86Y-92.71
X149.86Y-95.25
X149.86Y-97.79
X149.86Y-100.33
X149.86Y-102.87
X149.86Y-105.41
X149.86Y-107.95
X149.86Y-113.03
X152.4Y-85.09
X152.4Y-92.71
X152.4Y-95.25
X152.4Y-97.79
X152.4Y-100.33
X152.4Y-102.87
X152.4Y-105.41
X152.4Y-107.95
X152.4Y-107.95
X152.4Y-110.49
X152.4Y-113.03
X154.94Y-85.09
X154.94Y-87.63
X154.94Y-90.17
X154.94Y-92.71
X154.94Y-95.25
X154.94Y-97.79
X154.94Y-100.33
X154.94Y-102.87
X154.94Y-105.41
X154.94Y-107.95
X154.94Y-110.49
X154.94Y-113.03
T2
X143.57Y-88.9
X151.07Y-88.9
T3
X144.78Y-110.49
X149.86Y-110.49
T0
M30
