G04 #@! TF.FileFunction,Copper,L2,Bot,Signal*
%FSLAX46Y46*%
G04 Gerber Fmt 4.6, Leading zero omitted, Abs format (unit mm)*
G04 Created by KiCad (PCBNEW 4.0.4-stable) date 12/11/17 19:55:02*
%MOMM*%
%LPD*%
G01*
G04 APERTURE LIST*
%ADD10C,0.100000*%
%ADD11R,3.000000X3.000000*%
%ADD12C,3.200000*%
%ADD13O,2.000000X3.000000*%
%ADD14C,0.250000*%
%ADD15C,0.254000*%
G04 APERTURE END LIST*
D10*
D11*
X149860000Y-110490000D03*
D12*
X144780000Y-110490000D03*
D13*
X143570000Y-88900000D03*
X151070000Y-88900000D03*
D14*
X143570000Y-109280000D02*
X144780000Y-110490000D01*
X143570000Y-88900000D02*
X143570000Y-109280000D01*
D15*
G36*
X155500000Y-113590000D02*
X139140000Y-113590000D01*
X139140000Y-108990000D01*
X147712560Y-108990000D01*
X147712560Y-111990000D01*
X147756838Y-112225317D01*
X147895910Y-112441441D01*
X148108110Y-112586431D01*
X148360000Y-112637440D01*
X151360000Y-112637440D01*
X151595317Y-112593162D01*
X151811441Y-112454090D01*
X151956431Y-112241890D01*
X152007440Y-111990000D01*
X152007440Y-108990000D01*
X151963162Y-108754683D01*
X151824090Y-108538559D01*
X151611890Y-108393569D01*
X151360000Y-108342560D01*
X148360000Y-108342560D01*
X148124683Y-108386838D01*
X147908559Y-108525910D01*
X147763569Y-108738110D01*
X147712560Y-108990000D01*
X139140000Y-108990000D01*
X139140000Y-88358173D01*
X149435000Y-88358173D01*
X149435000Y-89441827D01*
X149559457Y-90067514D01*
X149913880Y-90597947D01*
X150444313Y-90952370D01*
X151070000Y-91076827D01*
X151695687Y-90952370D01*
X152226120Y-90597947D01*
X152580543Y-90067514D01*
X152705000Y-89441827D01*
X152705000Y-88358173D01*
X152580543Y-87732486D01*
X152226120Y-87202053D01*
X151695687Y-86847630D01*
X151070000Y-86723173D01*
X150444313Y-86847630D01*
X149913880Y-87202053D01*
X149559457Y-87732486D01*
X149435000Y-88358173D01*
X139140000Y-88358173D01*
X139140000Y-84530000D01*
X155500000Y-84530000D01*
X155500000Y-113590000D01*
X155500000Y-113590000D01*
G37*
X155500000Y-113590000D02*
X139140000Y-113590000D01*
X139140000Y-108990000D01*
X147712560Y-108990000D01*
X147712560Y-111990000D01*
X147756838Y-112225317D01*
X147895910Y-112441441D01*
X148108110Y-112586431D01*
X148360000Y-112637440D01*
X151360000Y-112637440D01*
X151595317Y-112593162D01*
X151811441Y-112454090D01*
X151956431Y-112241890D01*
X152007440Y-111990000D01*
X152007440Y-108990000D01*
X151963162Y-108754683D01*
X151824090Y-108538559D01*
X151611890Y-108393569D01*
X151360000Y-108342560D01*
X148360000Y-108342560D01*
X148124683Y-108386838D01*
X147908559Y-108525910D01*
X147763569Y-108738110D01*
X147712560Y-108990000D01*
X139140000Y-108990000D01*
X139140000Y-88358173D01*
X149435000Y-88358173D01*
X149435000Y-89441827D01*
X149559457Y-90067514D01*
X149913880Y-90597947D01*
X150444313Y-90952370D01*
X151070000Y-91076827D01*
X151695687Y-90952370D01*
X152226120Y-90597947D01*
X152580543Y-90067514D01*
X152705000Y-89441827D01*
X152705000Y-88358173D01*
X152580543Y-87732486D01*
X152226120Y-87202053D01*
X151695687Y-86847630D01*
X151070000Y-86723173D01*
X150444313Y-86847630D01*
X149913880Y-87202053D01*
X149559457Y-87732486D01*
X149435000Y-88358173D01*
X139140000Y-88358173D01*
X139140000Y-84530000D01*
X155500000Y-84530000D01*
X155500000Y-113590000D01*
M02*
