G04 #@! TF.FileFunction,Legend,Bot*
%FSLAX46Y46*%
G04 Gerber Fmt 4.6, Leading zero omitted, Abs format (unit mm)*
G04 Created by KiCad (PCBNEW 4.0.4-stable) date 12/11/17 19:52:28*
%MOMM*%
%LPD*%
G01*
G04 APERTURE LIST*
%ADD10C,0.100000*%
%ADD11C,0.500000*%
%ADD12C,0.150000*%
%ADD13C,0.250000*%
G04 APERTURE END LIST*
D10*
D11*
X150114000Y-106997500D02*
G75*
G03X150114000Y-106997500I-254000J0D01*
G01*
X151320500Y-94932500D02*
G75*
G03X151320500Y-94932500I-254000J0D01*
G01*
D12*
X152177142Y-104544762D02*
X152272380Y-104592381D01*
X152462857Y-104592381D01*
X152558095Y-104544762D01*
X152605714Y-104449524D01*
X152605714Y-104068571D01*
X152558095Y-103973333D01*
X152462857Y-103925714D01*
X152272380Y-103925714D01*
X152177142Y-103973333D01*
X152129523Y-104068571D01*
X152129523Y-104163810D01*
X152605714Y-104259048D01*
X151700952Y-104592381D02*
X151700952Y-103592381D01*
X151272380Y-104592381D02*
X151272380Y-104068571D01*
X151319999Y-103973333D01*
X151415237Y-103925714D01*
X151558095Y-103925714D01*
X151653333Y-103973333D01*
X151700952Y-104020952D01*
X150796190Y-104592381D02*
X150796190Y-103925714D01*
X150796190Y-104116190D02*
X150748571Y-104020952D01*
X150700952Y-103973333D01*
X150605714Y-103925714D01*
X150510475Y-103925714D01*
X150272380Y-103925714D02*
X150034285Y-104592381D01*
X149796189Y-103925714D02*
X150034285Y-104592381D01*
X150129523Y-104830476D01*
X150177142Y-104878095D01*
X150272380Y-104925714D01*
X149415237Y-104592381D02*
X149415237Y-103592381D01*
X149319999Y-104211429D02*
X149034284Y-104592381D01*
X149034284Y-103925714D02*
X149415237Y-104306667D01*
X148605713Y-104497143D02*
X148558094Y-104544762D01*
X148605713Y-104592381D01*
X148653332Y-104544762D01*
X148605713Y-104497143D01*
X148605713Y-104592381D01*
X147700951Y-103925714D02*
X147700951Y-104735238D01*
X147748570Y-104830476D01*
X147796189Y-104878095D01*
X147891428Y-104925714D01*
X148034285Y-104925714D01*
X148129523Y-104878095D01*
X147700951Y-104544762D02*
X147796189Y-104592381D01*
X147986666Y-104592381D01*
X148081904Y-104544762D01*
X148129523Y-104497143D01*
X148177142Y-104401905D01*
X148177142Y-104116190D01*
X148129523Y-104020952D01*
X148081904Y-103973333D01*
X147986666Y-103925714D01*
X147796189Y-103925714D01*
X147700951Y-103973333D01*
X147224761Y-104592381D02*
X147224761Y-103925714D01*
X147224761Y-103592381D02*
X147272380Y-103640000D01*
X147224761Y-103687619D01*
X147177142Y-103640000D01*
X147224761Y-103592381D01*
X147224761Y-103687619D01*
X146891428Y-103925714D02*
X146510476Y-103925714D01*
X146748571Y-103592381D02*
X146748571Y-104449524D01*
X146700952Y-104544762D01*
X146605714Y-104592381D01*
X146510476Y-104592381D01*
X146177142Y-104592381D02*
X146177142Y-103592381D01*
X145748570Y-104592381D02*
X145748570Y-104068571D01*
X145796189Y-103973333D01*
X145891427Y-103925714D01*
X146034285Y-103925714D01*
X146129523Y-103973333D01*
X146177142Y-104020952D01*
X144843808Y-103925714D02*
X144843808Y-104592381D01*
X145272380Y-103925714D02*
X145272380Y-104449524D01*
X145224761Y-104544762D01*
X145129523Y-104592381D01*
X144986665Y-104592381D01*
X144891427Y-104544762D01*
X144843808Y-104497143D01*
X144367618Y-104592381D02*
X144367618Y-103592381D01*
X144367618Y-103973333D02*
X144272380Y-103925714D01*
X144081903Y-103925714D01*
X143986665Y-103973333D01*
X143939046Y-104020952D01*
X143891427Y-104116190D01*
X143891427Y-104401905D01*
X143939046Y-104497143D01*
X143986665Y-104544762D01*
X144081903Y-104592381D01*
X144272380Y-104592381D01*
X144367618Y-104544762D01*
X143462856Y-104497143D02*
X143415237Y-104544762D01*
X143462856Y-104592381D01*
X143510475Y-104544762D01*
X143462856Y-104497143D01*
X143462856Y-104592381D01*
X142986666Y-104592381D02*
X142986666Y-103925714D01*
X142986666Y-103592381D02*
X143034285Y-103640000D01*
X142986666Y-103687619D01*
X142939047Y-103640000D01*
X142986666Y-103592381D01*
X142986666Y-103687619D01*
X142367619Y-104592381D02*
X142462857Y-104544762D01*
X142510476Y-104497143D01*
X142558095Y-104401905D01*
X142558095Y-104116190D01*
X142510476Y-104020952D01*
X142462857Y-103973333D01*
X142367619Y-103925714D01*
X142224761Y-103925714D01*
X142129523Y-103973333D01*
X142081904Y-104020952D01*
X142034285Y-104116190D01*
X142034285Y-104401905D01*
X142081904Y-104497143D01*
X142129523Y-104544762D01*
X142224761Y-104592381D01*
X142367619Y-104592381D01*
D13*
X151391428Y-98952857D02*
X151177142Y-99024286D01*
X151105714Y-99095714D01*
X151034285Y-99238571D01*
X151034285Y-99452857D01*
X151105714Y-99595714D01*
X151177142Y-99667143D01*
X151320000Y-99738571D01*
X151891428Y-99738571D01*
X151891428Y-98238571D01*
X151391428Y-98238571D01*
X151248571Y-98310000D01*
X151177142Y-98381429D01*
X151105714Y-98524286D01*
X151105714Y-98667143D01*
X151177142Y-98810000D01*
X151248571Y-98881429D01*
X151391428Y-98952857D01*
X151891428Y-98952857D01*
X150391428Y-99738571D02*
X150391428Y-98738571D01*
X150391428Y-99024286D02*
X150320000Y-98881429D01*
X150248571Y-98810000D01*
X150105714Y-98738571D01*
X149962857Y-98738571D01*
X148891429Y-99667143D02*
X149034286Y-99738571D01*
X149320000Y-99738571D01*
X149462857Y-99667143D01*
X149534286Y-99524286D01*
X149534286Y-98952857D01*
X149462857Y-98810000D01*
X149320000Y-98738571D01*
X149034286Y-98738571D01*
X148891429Y-98810000D01*
X148820000Y-98952857D01*
X148820000Y-99095714D01*
X149534286Y-99238571D01*
X147534286Y-99738571D02*
X147534286Y-98952857D01*
X147605715Y-98810000D01*
X147748572Y-98738571D01*
X148034286Y-98738571D01*
X148177143Y-98810000D01*
X147534286Y-99667143D02*
X147677143Y-99738571D01*
X148034286Y-99738571D01*
X148177143Y-99667143D01*
X148248572Y-99524286D01*
X148248572Y-99381429D01*
X148177143Y-99238571D01*
X148034286Y-99167143D01*
X147677143Y-99167143D01*
X147534286Y-99095714D01*
X146820000Y-99738571D02*
X146820000Y-98238571D01*
X146677143Y-99167143D02*
X146248572Y-99738571D01*
X146248572Y-98738571D02*
X146820000Y-99310000D01*
X145391428Y-99738571D02*
X145534286Y-99667143D01*
X145605714Y-99595714D01*
X145677143Y-99452857D01*
X145677143Y-99024286D01*
X145605714Y-98881429D01*
X145534286Y-98810000D01*
X145391428Y-98738571D01*
X145177143Y-98738571D01*
X145034286Y-98810000D01*
X144962857Y-98881429D01*
X144891428Y-99024286D01*
X144891428Y-99452857D01*
X144962857Y-99595714D01*
X145034286Y-99667143D01*
X145177143Y-99738571D01*
X145391428Y-99738571D01*
X143605714Y-98738571D02*
X143605714Y-99738571D01*
X144248571Y-98738571D02*
X144248571Y-99524286D01*
X144177143Y-99667143D01*
X144034285Y-99738571D01*
X143820000Y-99738571D01*
X143677143Y-99667143D01*
X143605714Y-99595714D01*
X143105714Y-98738571D02*
X142534285Y-98738571D01*
X142891428Y-98238571D02*
X142891428Y-99524286D01*
X142820000Y-99667143D01*
X142677142Y-99738571D01*
X142534285Y-99738571D01*
D12*
X152058096Y-101385714D02*
X151820001Y-102052381D01*
X151581905Y-101385714D01*
X150677143Y-102052381D02*
X151248572Y-102052381D01*
X150962858Y-102052381D02*
X150962858Y-101052381D01*
X151058096Y-101195238D01*
X151153334Y-101290476D01*
X151248572Y-101338095D01*
X150248572Y-101957143D02*
X150200953Y-102004762D01*
X150248572Y-102052381D01*
X150296191Y-102004762D01*
X150248572Y-101957143D01*
X150248572Y-102052381D01*
X149581906Y-101052381D02*
X149486667Y-101052381D01*
X149391429Y-101100000D01*
X149343810Y-101147619D01*
X149296191Y-101242857D01*
X149248572Y-101433333D01*
X149248572Y-101671429D01*
X149296191Y-101861905D01*
X149343810Y-101957143D01*
X149391429Y-102004762D01*
X149486667Y-102052381D01*
X149581906Y-102052381D01*
X149677144Y-102004762D01*
X149724763Y-101957143D01*
X149772382Y-101861905D01*
X149820001Y-101671429D01*
X149820001Y-101433333D01*
X149772382Y-101242857D01*
X149724763Y-101147619D01*
X149677144Y-101100000D01*
X149581906Y-101052381D01*
X148058096Y-102052381D02*
X148058096Y-101052381D01*
X147677143Y-101052381D01*
X147581905Y-101100000D01*
X147534286Y-101147619D01*
X147486667Y-101242857D01*
X147486667Y-101385714D01*
X147534286Y-101480952D01*
X147581905Y-101528571D01*
X147677143Y-101576190D01*
X148058096Y-101576190D01*
X146629524Y-102052381D02*
X146629524Y-101528571D01*
X146677143Y-101433333D01*
X146772381Y-101385714D01*
X146962858Y-101385714D01*
X147058096Y-101433333D01*
X146629524Y-102004762D02*
X146724762Y-102052381D01*
X146962858Y-102052381D01*
X147058096Y-102004762D01*
X147105715Y-101909524D01*
X147105715Y-101814286D01*
X147058096Y-101719048D01*
X146962858Y-101671429D01*
X146724762Y-101671429D01*
X146629524Y-101623810D01*
X146153334Y-102052381D02*
X146153334Y-101385714D01*
X146153334Y-101576190D02*
X146105715Y-101480952D01*
X146058096Y-101433333D01*
X145962858Y-101385714D01*
X145867619Y-101385714D01*
X145105714Y-102052381D02*
X145105714Y-101528571D01*
X145153333Y-101433333D01*
X145248571Y-101385714D01*
X145439048Y-101385714D01*
X145534286Y-101433333D01*
X145105714Y-102004762D02*
X145200952Y-102052381D01*
X145439048Y-102052381D01*
X145534286Y-102004762D01*
X145581905Y-101909524D01*
X145581905Y-101814286D01*
X145534286Y-101719048D01*
X145439048Y-101671429D01*
X145200952Y-101671429D01*
X145105714Y-101623810D01*
X144486667Y-102052381D02*
X144581905Y-102004762D01*
X144629524Y-101909524D01*
X144629524Y-101052381D01*
X143962857Y-102052381D02*
X144058095Y-102004762D01*
X144105714Y-101909524D01*
X144105714Y-101052381D01*
X143200951Y-102004762D02*
X143296189Y-102052381D01*
X143486666Y-102052381D01*
X143581904Y-102004762D01*
X143629523Y-101909524D01*
X143629523Y-101528571D01*
X143581904Y-101433333D01*
X143486666Y-101385714D01*
X143296189Y-101385714D01*
X143200951Y-101433333D01*
X143153332Y-101528571D01*
X143153332Y-101623810D01*
X143629523Y-101719048D01*
X142581904Y-102052381D02*
X142677142Y-102004762D01*
X142724761Y-101909524D01*
X142724761Y-101052381D01*
D13*
X153855714Y-95698571D02*
X152998571Y-95698571D01*
X153427142Y-97198571D02*
X153427142Y-95698571D01*
X152498571Y-97198571D02*
X152498571Y-96198571D01*
X152498571Y-96484286D02*
X152427143Y-96341429D01*
X152355714Y-96270000D01*
X152212857Y-96198571D01*
X152070000Y-96198571D01*
X150927143Y-97198571D02*
X150927143Y-96412857D01*
X150998572Y-96270000D01*
X151141429Y-96198571D01*
X151427143Y-96198571D01*
X151570000Y-96270000D01*
X150927143Y-97127143D02*
X151070000Y-97198571D01*
X151427143Y-97198571D01*
X151570000Y-97127143D01*
X151641429Y-96984286D01*
X151641429Y-96841429D01*
X151570000Y-96698571D01*
X151427143Y-96627143D01*
X151070000Y-96627143D01*
X150927143Y-96555714D01*
X150212857Y-96198571D02*
X150212857Y-97198571D01*
X150212857Y-96341429D02*
X150141429Y-96270000D01*
X149998571Y-96198571D01*
X149784286Y-96198571D01*
X149641429Y-96270000D01*
X149570000Y-96412857D01*
X149570000Y-97198571D01*
X148927143Y-97127143D02*
X148784286Y-97198571D01*
X148498571Y-97198571D01*
X148355714Y-97127143D01*
X148284286Y-96984286D01*
X148284286Y-96912857D01*
X148355714Y-96770000D01*
X148498571Y-96698571D01*
X148712857Y-96698571D01*
X148855714Y-96627143D01*
X148927143Y-96484286D01*
X148927143Y-96412857D01*
X148855714Y-96270000D01*
X148712857Y-96198571D01*
X148498571Y-96198571D01*
X148355714Y-96270000D01*
X147855714Y-96198571D02*
X147284285Y-96198571D01*
X147641428Y-97198571D02*
X147641428Y-95912857D01*
X147570000Y-95770000D01*
X147427142Y-95698571D01*
X147284285Y-95698571D01*
X146569999Y-97198571D02*
X146712857Y-97127143D01*
X146784285Y-97055714D01*
X146855714Y-96912857D01*
X146855714Y-96484286D01*
X146784285Y-96341429D01*
X146712857Y-96270000D01*
X146569999Y-96198571D01*
X146355714Y-96198571D01*
X146212857Y-96270000D01*
X146141428Y-96341429D01*
X146069999Y-96484286D01*
X146069999Y-96912857D01*
X146141428Y-97055714D01*
X146212857Y-97127143D01*
X146355714Y-97198571D01*
X146569999Y-97198571D01*
X145427142Y-97198571D02*
X145427142Y-96198571D01*
X145427142Y-96484286D02*
X145355714Y-96341429D01*
X145284285Y-96270000D01*
X145141428Y-96198571D01*
X144998571Y-96198571D01*
X144498571Y-97198571D02*
X144498571Y-96198571D01*
X144498571Y-96341429D02*
X144427143Y-96270000D01*
X144284285Y-96198571D01*
X144070000Y-96198571D01*
X143927143Y-96270000D01*
X143855714Y-96412857D01*
X143855714Y-97198571D01*
X143855714Y-96412857D02*
X143784285Y-96270000D01*
X143641428Y-96198571D01*
X143427143Y-96198571D01*
X143284285Y-96270000D01*
X143212857Y-96412857D01*
X143212857Y-97198571D01*
X141927143Y-97127143D02*
X142070000Y-97198571D01*
X142355714Y-97198571D01*
X142498571Y-97127143D01*
X142570000Y-96984286D01*
X142570000Y-96412857D01*
X142498571Y-96270000D01*
X142355714Y-96198571D01*
X142070000Y-96198571D01*
X141927143Y-96270000D01*
X141855714Y-96412857D01*
X141855714Y-96555714D01*
X142570000Y-96698571D01*
X141212857Y-97198571D02*
X141212857Y-96198571D01*
X141212857Y-96484286D02*
X141141429Y-96341429D01*
X141070000Y-96270000D01*
X140927143Y-96198571D01*
X140784286Y-96198571D01*
D12*
X139700000Y-93726000D02*
X139700000Y-93980000D01*
X154940000Y-93726000D02*
X154940000Y-93980000D01*
X139700000Y-84836000D02*
X154940000Y-84836000D01*
X154940000Y-84836000D02*
X154940000Y-93726000D01*
X154940000Y-93980000D02*
X139700000Y-93980000D01*
X139700000Y-93726000D02*
X139700000Y-84836000D01*
X152400000Y-113030000D02*
X142240000Y-113030000D01*
X142240000Y-113030000D02*
X142240000Y-107950000D01*
X142240000Y-107950000D02*
X152400000Y-107950000D01*
X152400000Y-107950000D02*
X152400000Y-113030000D01*
M02*
