G04 #@! TF.GenerationSoftware,KiCad,Pcbnew,(5.1.10)-1*
G04 #@! TF.CreationDate,2022-08-27T03:45:47-05:00*
G04 #@! TF.ProjectId,Common Slot Mini v1,436f6d6d-6f6e-4205-936c-6f74204d696e,rev?*
G04 #@! TF.SameCoordinates,Original*
G04 #@! TF.FileFunction,Copper,L2,Bot*
G04 #@! TF.FilePolarity,Positive*
%FSLAX46Y46*%
G04 Gerber Fmt 4.6, Leading zero omitted, Abs format (unit mm)*
G04 Created by KiCad (PCBNEW (5.1.10)-1) date 2022-08-27 03:45:47*
%MOMM*%
%LPD*%
G01*
G04 APERTURE LIST*
G04 #@! TA.AperFunction,ComponentPad*
%ADD10C,2.010000*%
G04 #@! TD*
G04 #@! TA.AperFunction,WasherPad*
%ADD11C,6.200000*%
G04 #@! TD*
G04 #@! TA.AperFunction,ComponentPad*
%ADD12C,2.000000*%
G04 #@! TD*
G04 #@! TA.AperFunction,ComponentPad*
%ADD13O,2.000000X2.000000*%
G04 #@! TD*
G04 #@! TA.AperFunction,ComponentPad*
%ADD14R,2.000000X2.000000*%
G04 #@! TD*
G04 #@! TA.AperFunction,ComponentPad*
%ADD15C,2.490000*%
G04 #@! TD*
G04 #@! TA.AperFunction,ComponentPad*
%ADD16C,3.750000*%
G04 #@! TD*
G04 #@! TA.AperFunction,ComponentPad*
%ADD17R,1.700000X1.700000*%
G04 #@! TD*
G04 #@! TA.AperFunction,ComponentPad*
%ADD18O,1.700000X1.700000*%
G04 #@! TD*
G04 #@! TA.AperFunction,ViaPad*
%ADD19C,1.500000*%
G04 #@! TD*
G04 #@! TA.AperFunction,ViaPad*
%ADD20C,0.800000*%
G04 #@! TD*
G04 #@! TA.AperFunction,Conductor*
%ADD21C,2.000000*%
G04 #@! TD*
G04 #@! TA.AperFunction,Conductor*
%ADD22C,0.500000*%
G04 #@! TD*
G04 #@! TA.AperFunction,Conductor*
%ADD23C,0.100000*%
G04 #@! TD*
G04 APERTURE END LIST*
D10*
X116760000Y-104048000D03*
D11*
X151000000Y-94000000D03*
X182673000Y-108366000D03*
X126666000Y-108366000D03*
X103933000Y-93253000D03*
D12*
X104000000Y-88000000D03*
X104000000Y-82960000D03*
X106540000Y-88000000D03*
X106540000Y-82960000D03*
X109080000Y-88000000D03*
D13*
X109080000Y-82960000D03*
D12*
X111620000Y-88000000D03*
D13*
X111620000Y-82960000D03*
D12*
X114160000Y-88000000D03*
D13*
X114160000Y-82960000D03*
D12*
X116700000Y-88000000D03*
D13*
X116700000Y-82960000D03*
D12*
X119240000Y-88000000D03*
D13*
X119240000Y-82960000D03*
D12*
X121780000Y-88000000D03*
D13*
X121780000Y-82960000D03*
D12*
X124320000Y-88000000D03*
D13*
X124320000Y-82960000D03*
D12*
X126860000Y-88000000D03*
D13*
X126860000Y-82960000D03*
D12*
X129400000Y-88000000D03*
D13*
X129400000Y-82960000D03*
D12*
X131940000Y-88000000D03*
D13*
X131940000Y-82960000D03*
D12*
X134480000Y-88000000D03*
D13*
X134480000Y-82960000D03*
D12*
X137020000Y-88000000D03*
D13*
X137020000Y-82960000D03*
D12*
X139560000Y-88000000D03*
D13*
X139560000Y-82960000D03*
D12*
X142100000Y-88000000D03*
D13*
X142100000Y-82960000D03*
D12*
X144640000Y-88000000D03*
D13*
X144640000Y-82960000D03*
D12*
X147180000Y-88000000D03*
D13*
X147180000Y-82960000D03*
D12*
X149720000Y-88000000D03*
D13*
X149720000Y-82960000D03*
D12*
X152260000Y-88000000D03*
D13*
X152260000Y-82960000D03*
D12*
X154800000Y-88000000D03*
D13*
X154800000Y-82960000D03*
D12*
X157340000Y-88000000D03*
D13*
X157340000Y-82960000D03*
D12*
X159880000Y-88000000D03*
D13*
X159880000Y-82960000D03*
D12*
X162420000Y-88000000D03*
D13*
X162420000Y-82960000D03*
D12*
X164960000Y-88000000D03*
D13*
X164960000Y-82960000D03*
D12*
X167500000Y-88000000D03*
D13*
X167500000Y-82960000D03*
D12*
X170040000Y-88000000D03*
D13*
X170040000Y-82960000D03*
D12*
X172580000Y-88000000D03*
D13*
X172580000Y-82960000D03*
D12*
X175120000Y-88000000D03*
D13*
X175120000Y-82960000D03*
D12*
X177660000Y-88000000D03*
D13*
X177660000Y-82960000D03*
D12*
X180200000Y-88000000D03*
D13*
X180200000Y-82960000D03*
D12*
X182740000Y-88000000D03*
D14*
X182740000Y-82960000D03*
D15*
X111553000Y-104048000D03*
X148510000Y-104810000D03*
X148510000Y-99984000D03*
X181276000Y-95920000D03*
X177339000Y-103794000D03*
D16*
X138350000Y-104175000D03*
X132635000Y-104175000D03*
X144065000Y-104175000D03*
X162737800Y-104140000D03*
X157657800Y-98552000D03*
X157657800Y-104140000D03*
X114093000Y-107858000D03*
X144065000Y-98460000D03*
X138350000Y-98460000D03*
X119808000Y-107858000D03*
X167817800Y-104140000D03*
X177977800Y-98552000D03*
X162737800Y-98552000D03*
X167817800Y-98552000D03*
X121205000Y-98460000D03*
X126920000Y-98460000D03*
X132635000Y-98460000D03*
X144065000Y-92745000D03*
X153717000Y-101508000D03*
X172897800Y-104140000D03*
X178104800Y-92964000D03*
X172897800Y-98552000D03*
X126920000Y-92745000D03*
X132635000Y-92745000D03*
X138350000Y-92745000D03*
X167944800Y-92964000D03*
X157784800Y-92964000D03*
X162864800Y-92964000D03*
X121205000Y-92745000D03*
X173024800Y-92964000D03*
D17*
X133270000Y-108366000D03*
D18*
X135810000Y-108366000D03*
X141779000Y-108366000D03*
D17*
X144319000Y-108366000D03*
D18*
X149780000Y-108366000D03*
X152320000Y-108366000D03*
D17*
X154860000Y-108366000D03*
X102790000Y-108366000D03*
D18*
X105330000Y-108366000D03*
X107870000Y-108366000D03*
D19*
X185269990Y-75473000D03*
D20*
X185213000Y-104556000D03*
X116760000Y-85633000D03*
X114093000Y-96301000D03*
D21*
X114160000Y-86585787D02*
X113080213Y-85506000D01*
X114160000Y-88000000D02*
X114160000Y-86585787D01*
X113080213Y-85506000D02*
X101901000Y-85506000D01*
X101901000Y-85379000D02*
X101480010Y-84958010D01*
X101901000Y-85506000D02*
X101901000Y-85379000D01*
X101480010Y-84958010D02*
X101480010Y-70480010D01*
X101480010Y-70480010D02*
X185269990Y-70480010D01*
X185269990Y-70480010D02*
X185269990Y-75473000D01*
X144319000Y-110144000D02*
X144993990Y-110818990D01*
X144319000Y-108366000D02*
X144319000Y-110144000D01*
X154860000Y-110271000D02*
X154312010Y-110818990D01*
X154860000Y-108366000D02*
X154860000Y-110271000D01*
X144993990Y-110818990D02*
X154312010Y-110818990D01*
X183287599Y-104105999D02*
X185269990Y-102123608D01*
X185269990Y-102123608D02*
X185269990Y-75473000D01*
X180628199Y-104105999D02*
X183287599Y-104105999D01*
X178413197Y-106321001D02*
X180628199Y-104105999D01*
X178367999Y-106321001D02*
X178413197Y-106321001D01*
X178367999Y-109115001D02*
X178367999Y-106321001D01*
X176664010Y-110818990D02*
X178367999Y-109115001D01*
X154312010Y-110818990D02*
X176664010Y-110818990D01*
D22*
X116252000Y-104048000D02*
X116252000Y-94142000D01*
X116252000Y-94142000D02*
X113966000Y-91856000D01*
X109080000Y-88000000D02*
X109080000Y-90101144D01*
X110834856Y-91856000D02*
X113966000Y-91856000D01*
X109080000Y-90101144D02*
X110834856Y-91856000D01*
D21*
X111553000Y-104048000D02*
X111553000Y-94908202D01*
X111553000Y-94568198D02*
X111553000Y-94908202D01*
X106540000Y-89555198D02*
X111553000Y-94568198D01*
X106540000Y-88000000D02*
X106540000Y-89555198D01*
D23*
X116935288Y-79318491D02*
X117113456Y-79372537D01*
X117277655Y-79460303D01*
X117421580Y-79578420D01*
X117539697Y-79722345D01*
X117627463Y-79886544D01*
X117681509Y-80064712D01*
X117700000Y-80252454D01*
X117700000Y-82278663D01*
X117639869Y-82188670D01*
X117471330Y-82020131D01*
X117273150Y-81887712D01*
X117052944Y-81796499D01*
X116819175Y-81750000D01*
X116580825Y-81750000D01*
X116347056Y-81796499D01*
X116126850Y-81887712D01*
X115928670Y-82020131D01*
X115760131Y-82188670D01*
X115627712Y-82386850D01*
X115536499Y-82607056D01*
X115490000Y-82840825D01*
X115490000Y-83079175D01*
X115536499Y-83312944D01*
X115627712Y-83533150D01*
X115760131Y-83731330D01*
X115928670Y-83899869D01*
X116126850Y-84032288D01*
X116347056Y-84123501D01*
X116580825Y-84170000D01*
X116819175Y-84170000D01*
X117052944Y-84123501D01*
X117273150Y-84032288D01*
X117471330Y-83899869D01*
X117639869Y-83731330D01*
X117700000Y-83641337D01*
X117700000Y-87318663D01*
X117639869Y-87228670D01*
X117471330Y-87060131D01*
X117273150Y-86927712D01*
X117052944Y-86836499D01*
X116819175Y-86790000D01*
X116580825Y-86790000D01*
X116347056Y-86836499D01*
X116126850Y-86927712D01*
X115928670Y-87060131D01*
X115760131Y-87228670D01*
X115627712Y-87426850D01*
X115536499Y-87647056D01*
X115490000Y-87880825D01*
X115490000Y-88119175D01*
X115536499Y-88352944D01*
X115627712Y-88573150D01*
X115760131Y-88771330D01*
X115928670Y-88939869D01*
X116126850Y-89072288D01*
X116347056Y-89163501D01*
X116580825Y-89210000D01*
X116819175Y-89210000D01*
X117052944Y-89163501D01*
X117273150Y-89072288D01*
X117471330Y-88939869D01*
X117639869Y-88771330D01*
X117700000Y-88681337D01*
X117700000Y-98995560D01*
X117681462Y-99183542D01*
X117627281Y-99361913D01*
X117539302Y-99526267D01*
X117420918Y-99670264D01*
X117276681Y-99788369D01*
X117112155Y-99876023D01*
X116933679Y-99929850D01*
X116745667Y-99948016D01*
X116712000Y-99947950D01*
X116712000Y-94164579D01*
X116714224Y-94141999D01*
X116712000Y-94119419D01*
X116712000Y-94119410D01*
X116705343Y-94051824D01*
X116679040Y-93965114D01*
X116636326Y-93885202D01*
X116578842Y-93815158D01*
X116561297Y-93800759D01*
X114307245Y-91546708D01*
X114292842Y-91529158D01*
X114222798Y-91471674D01*
X114142886Y-91428960D01*
X114056176Y-91402657D01*
X113988590Y-91396000D01*
X113988582Y-91396000D01*
X113966000Y-91393776D01*
X113943418Y-91396000D01*
X111025394Y-91396000D01*
X109540000Y-89910607D01*
X109540000Y-89119157D01*
X109653150Y-89072288D01*
X109851330Y-88939869D01*
X110019869Y-88771330D01*
X110152288Y-88573150D01*
X110243501Y-88352944D01*
X110290000Y-88119175D01*
X110290000Y-87880825D01*
X110410000Y-87880825D01*
X110410000Y-88119175D01*
X110456499Y-88352944D01*
X110547712Y-88573150D01*
X110680131Y-88771330D01*
X110848670Y-88939869D01*
X111046850Y-89072288D01*
X111267056Y-89163501D01*
X111500825Y-89210000D01*
X111739175Y-89210000D01*
X111972944Y-89163501D01*
X112193150Y-89072288D01*
X112391330Y-88939869D01*
X112559869Y-88771330D01*
X112692288Y-88573150D01*
X112783501Y-88352944D01*
X112830000Y-88119175D01*
X112830000Y-87880825D01*
X112783501Y-87647056D01*
X112692288Y-87426850D01*
X112559869Y-87228670D01*
X112391330Y-87060131D01*
X112193150Y-86927712D01*
X111972944Y-86836499D01*
X111739175Y-86790000D01*
X111500825Y-86790000D01*
X111267056Y-86836499D01*
X111046850Y-86927712D01*
X110848670Y-87060131D01*
X110680131Y-87228670D01*
X110547712Y-87426850D01*
X110456499Y-87647056D01*
X110410000Y-87880825D01*
X110290000Y-87880825D01*
X110243501Y-87647056D01*
X110152288Y-87426850D01*
X110019869Y-87228670D01*
X109851330Y-87060131D01*
X109653150Y-86927712D01*
X109432944Y-86836499D01*
X109199175Y-86790000D01*
X108960825Y-86790000D01*
X108727056Y-86836499D01*
X108506850Y-86927712D01*
X108308670Y-87060131D01*
X108140131Y-87228670D01*
X108007712Y-87426850D01*
X107916499Y-87647056D01*
X107870000Y-87880825D01*
X107870000Y-88119175D01*
X107916499Y-88352944D01*
X108007712Y-88573150D01*
X108140131Y-88771330D01*
X108308670Y-88939869D01*
X108506850Y-89072288D01*
X108620001Y-89119157D01*
X108620001Y-89924002D01*
X107750000Y-89054001D01*
X107750000Y-87880825D01*
X107738346Y-87822235D01*
X107732492Y-87762799D01*
X107715156Y-87705649D01*
X107703501Y-87647056D01*
X107680639Y-87591864D01*
X107663303Y-87534713D01*
X107635148Y-87482040D01*
X107612288Y-87426850D01*
X107579100Y-87377180D01*
X107550946Y-87324508D01*
X107513058Y-87278341D01*
X107479869Y-87228670D01*
X107437628Y-87186429D01*
X107399739Y-87140261D01*
X107353572Y-87102373D01*
X107311330Y-87060131D01*
X107261655Y-87026939D01*
X107215491Y-86989054D01*
X107162824Y-86960903D01*
X107113150Y-86927712D01*
X107057956Y-86904850D01*
X107005286Y-86876697D01*
X106948139Y-86859362D01*
X106892944Y-86836499D01*
X106834348Y-86824844D01*
X106777200Y-86807508D01*
X106717766Y-86801654D01*
X106659175Y-86790000D01*
X106599437Y-86790000D01*
X106540000Y-86784146D01*
X106480563Y-86790000D01*
X106420825Y-86790000D01*
X106362235Y-86801654D01*
X106302799Y-86807508D01*
X106245649Y-86824844D01*
X106187056Y-86836499D01*
X106131864Y-86859361D01*
X106074713Y-86876697D01*
X106022040Y-86904852D01*
X105966850Y-86927712D01*
X105917180Y-86960900D01*
X105864508Y-86989054D01*
X105818341Y-87026942D01*
X105768670Y-87060131D01*
X105726429Y-87102372D01*
X105680261Y-87140261D01*
X105642373Y-87186428D01*
X105600131Y-87228670D01*
X105566939Y-87278345D01*
X105529054Y-87324509D01*
X105500903Y-87377176D01*
X105467712Y-87426850D01*
X105444850Y-87482044D01*
X105416697Y-87534714D01*
X105399362Y-87591861D01*
X105376499Y-87647056D01*
X105364844Y-87705652D01*
X105347508Y-87762800D01*
X105341654Y-87822234D01*
X105330000Y-87880825D01*
X105330000Y-89495763D01*
X105324146Y-89555198D01*
X105330000Y-89614633D01*
X105330000Y-89614635D01*
X105347508Y-89792399D01*
X105416698Y-90020485D01*
X105529055Y-90230690D01*
X105680262Y-90414937D01*
X105726435Y-90452830D01*
X105779481Y-90505876D01*
X105500873Y-90319716D01*
X104898491Y-90070201D01*
X104259007Y-89943000D01*
X103606993Y-89943000D01*
X102967509Y-90070201D01*
X102365127Y-90319716D01*
X101822998Y-90681955D01*
X101361955Y-91142998D01*
X100999716Y-91685127D01*
X100750201Y-92287509D01*
X100623000Y-92926993D01*
X100623000Y-93579007D01*
X100750201Y-94218491D01*
X100999716Y-94820873D01*
X101361955Y-95363002D01*
X101822998Y-95824045D01*
X102365127Y-96186284D01*
X102967509Y-96435799D01*
X103606993Y-96563000D01*
X104259007Y-96563000D01*
X104898491Y-96435799D01*
X105500873Y-96186284D01*
X106043002Y-95824045D01*
X106504045Y-95363002D01*
X106866284Y-94820873D01*
X107115799Y-94218491D01*
X107243000Y-93579007D01*
X107243000Y-92926993D01*
X107115799Y-92287509D01*
X106866284Y-91685127D01*
X106680125Y-91406520D01*
X110343001Y-95069397D01*
X110343000Y-99986676D01*
X110253191Y-100013785D01*
X110244113Y-100017533D01*
X110070784Y-100109963D01*
X110062613Y-100115413D01*
X109910697Y-100239943D01*
X109903750Y-100246886D01*
X109779108Y-100398710D01*
X109773651Y-100406876D01*
X109681093Y-100580137D01*
X109677339Y-100589213D01*
X109620437Y-100777225D01*
X109618529Y-100786860D01*
X109599478Y-100982368D01*
X109599242Y-100987279D01*
X109611751Y-111094918D01*
X109593325Y-111283531D01*
X109539015Y-111462498D01*
X109450685Y-111627356D01*
X109331762Y-111771706D01*
X109206406Y-111874000D01*
X100806604Y-111874000D01*
X100748785Y-111842814D01*
X100605834Y-111724794D01*
X100488527Y-111581250D01*
X100425000Y-111462049D01*
X100425000Y-107516000D01*
X101728984Y-107516000D01*
X101728984Y-109216000D01*
X101733039Y-109257167D01*
X101745047Y-109296752D01*
X101764547Y-109333234D01*
X101790789Y-109365211D01*
X101822766Y-109391453D01*
X101859248Y-109410953D01*
X101898833Y-109422961D01*
X101940000Y-109427016D01*
X103640000Y-109427016D01*
X103681167Y-109422961D01*
X103720752Y-109410953D01*
X103757234Y-109391453D01*
X103789211Y-109365211D01*
X103815453Y-109333234D01*
X103834953Y-109296752D01*
X103846961Y-109257167D01*
X103851016Y-109216000D01*
X103851016Y-108261599D01*
X104270000Y-108261599D01*
X104270000Y-108470401D01*
X104310735Y-108675191D01*
X104390640Y-108868098D01*
X104506644Y-109041711D01*
X104654289Y-109189356D01*
X104827902Y-109305360D01*
X105020809Y-109385265D01*
X105225599Y-109426000D01*
X105434401Y-109426000D01*
X105639191Y-109385265D01*
X105832098Y-109305360D01*
X106005711Y-109189356D01*
X106153356Y-109041711D01*
X106269360Y-108868098D01*
X106349265Y-108675191D01*
X106390000Y-108470401D01*
X106390000Y-108261599D01*
X106349265Y-108056809D01*
X106269360Y-107863902D01*
X106153356Y-107690289D01*
X106005711Y-107542644D01*
X105832098Y-107426640D01*
X105639191Y-107346735D01*
X105434401Y-107306000D01*
X105225599Y-107306000D01*
X105020809Y-107346735D01*
X104827902Y-107426640D01*
X104654289Y-107542644D01*
X104506644Y-107690289D01*
X104390640Y-107863902D01*
X104310735Y-108056809D01*
X104270000Y-108261599D01*
X103851016Y-108261599D01*
X103851016Y-107516000D01*
X103846961Y-107474833D01*
X103834953Y-107435248D01*
X103815453Y-107398766D01*
X103789211Y-107366789D01*
X103757234Y-107340547D01*
X103720752Y-107321047D01*
X103681167Y-107309039D01*
X103640000Y-107304984D01*
X101940000Y-107304984D01*
X101898833Y-107309039D01*
X101859248Y-107321047D01*
X101822766Y-107340547D01*
X101790789Y-107366789D01*
X101764547Y-107398766D01*
X101745047Y-107435248D01*
X101733039Y-107474833D01*
X101728984Y-107516000D01*
X100425000Y-107516000D01*
X100425000Y-87880825D01*
X102790000Y-87880825D01*
X102790000Y-88119175D01*
X102836499Y-88352944D01*
X102927712Y-88573150D01*
X103060131Y-88771330D01*
X103228670Y-88939869D01*
X103426850Y-89072288D01*
X103647056Y-89163501D01*
X103880825Y-89210000D01*
X104119175Y-89210000D01*
X104352944Y-89163501D01*
X104573150Y-89072288D01*
X104771330Y-88939869D01*
X104939869Y-88771330D01*
X105072288Y-88573150D01*
X105163501Y-88352944D01*
X105210000Y-88119175D01*
X105210000Y-87880825D01*
X105163501Y-87647056D01*
X105072288Y-87426850D01*
X104939869Y-87228670D01*
X104771330Y-87060131D01*
X104573150Y-86927712D01*
X104352944Y-86836499D01*
X104119175Y-86790000D01*
X103880825Y-86790000D01*
X103647056Y-86836499D01*
X103426850Y-86927712D01*
X103228670Y-87060131D01*
X103060131Y-87228670D01*
X102927712Y-87426850D01*
X102836499Y-87647056D01*
X102790000Y-87880825D01*
X100425000Y-87880825D01*
X100425000Y-85551063D01*
X100469064Y-85633501D01*
X100620271Y-85817749D01*
X100666450Y-85855647D01*
X100775784Y-85964981D01*
X100777697Y-85971287D01*
X100890054Y-86181492D01*
X100968129Y-86276627D01*
X101041261Y-86365739D01*
X101225508Y-86516946D01*
X101435713Y-86629303D01*
X101663799Y-86698492D01*
X101901000Y-86721854D01*
X101960437Y-86716000D01*
X112579015Y-86716000D01*
X112950000Y-87086985D01*
X112950000Y-88119175D01*
X112961654Y-88177766D01*
X112967508Y-88237200D01*
X112984844Y-88294348D01*
X112996499Y-88352944D01*
X113019362Y-88408139D01*
X113036697Y-88465286D01*
X113064850Y-88517956D01*
X113087712Y-88573150D01*
X113120903Y-88622824D01*
X113149054Y-88675491D01*
X113186939Y-88721655D01*
X113220131Y-88771330D01*
X113262373Y-88813572D01*
X113300261Y-88859739D01*
X113346429Y-88897628D01*
X113388670Y-88939869D01*
X113438341Y-88973058D01*
X113484508Y-89010946D01*
X113537180Y-89039100D01*
X113586850Y-89072288D01*
X113642040Y-89095148D01*
X113694713Y-89123303D01*
X113751864Y-89140639D01*
X113807056Y-89163501D01*
X113865649Y-89175156D01*
X113922799Y-89192492D01*
X113982235Y-89198346D01*
X114040825Y-89210000D01*
X114100563Y-89210000D01*
X114160000Y-89215854D01*
X114219437Y-89210000D01*
X114279175Y-89210000D01*
X114337766Y-89198346D01*
X114397200Y-89192492D01*
X114454348Y-89175156D01*
X114512944Y-89163501D01*
X114568139Y-89140638D01*
X114625286Y-89123303D01*
X114677956Y-89095150D01*
X114733150Y-89072288D01*
X114782824Y-89039097D01*
X114835491Y-89010946D01*
X114881655Y-88973061D01*
X114931330Y-88939869D01*
X114973572Y-88897627D01*
X115019739Y-88859739D01*
X115057628Y-88813571D01*
X115099869Y-88771330D01*
X115133058Y-88721659D01*
X115170946Y-88675492D01*
X115199100Y-88622820D01*
X115232288Y-88573150D01*
X115255148Y-88517960D01*
X115283303Y-88465287D01*
X115300639Y-88408136D01*
X115323501Y-88352944D01*
X115335156Y-88294351D01*
X115352492Y-88237201D01*
X115358346Y-88177765D01*
X115370000Y-88119175D01*
X115370000Y-86645221D01*
X115375854Y-86585786D01*
X115369074Y-86516946D01*
X115352492Y-86348586D01*
X115283303Y-86120500D01*
X115170946Y-85910295D01*
X115170945Y-85910293D01*
X115057627Y-85772215D01*
X115019739Y-85726048D01*
X114973570Y-85688159D01*
X113977849Y-84692439D01*
X113939952Y-84646261D01*
X113755705Y-84495054D01*
X113545500Y-84382697D01*
X113317414Y-84313508D01*
X113139650Y-84296000D01*
X113139648Y-84296000D01*
X113080213Y-84290146D01*
X113020778Y-84296000D01*
X102690010Y-84296000D01*
X102690010Y-82840825D01*
X102790000Y-82840825D01*
X102790000Y-83079175D01*
X102836499Y-83312944D01*
X102927712Y-83533150D01*
X103060131Y-83731330D01*
X103228670Y-83899869D01*
X103426850Y-84032288D01*
X103647056Y-84123501D01*
X103880825Y-84170000D01*
X104119175Y-84170000D01*
X104352944Y-84123501D01*
X104573150Y-84032288D01*
X104771330Y-83899869D01*
X104939869Y-83731330D01*
X105072288Y-83533150D01*
X105163501Y-83312944D01*
X105210000Y-83079175D01*
X105210000Y-82840825D01*
X105330000Y-82840825D01*
X105330000Y-83079175D01*
X105376499Y-83312944D01*
X105467712Y-83533150D01*
X105600131Y-83731330D01*
X105768670Y-83899869D01*
X105966850Y-84032288D01*
X106187056Y-84123501D01*
X106420825Y-84170000D01*
X106659175Y-84170000D01*
X106892944Y-84123501D01*
X107113150Y-84032288D01*
X107311330Y-83899869D01*
X107479869Y-83731330D01*
X107612288Y-83533150D01*
X107703501Y-83312944D01*
X107750000Y-83079175D01*
X107750000Y-82840825D01*
X110410000Y-82840825D01*
X110410000Y-83079175D01*
X110456499Y-83312944D01*
X110547712Y-83533150D01*
X110680131Y-83731330D01*
X110848670Y-83899869D01*
X111046850Y-84032288D01*
X111267056Y-84123501D01*
X111500825Y-84170000D01*
X111739175Y-84170000D01*
X111972944Y-84123501D01*
X112193150Y-84032288D01*
X112391330Y-83899869D01*
X112559869Y-83731330D01*
X112692288Y-83533150D01*
X112783501Y-83312944D01*
X112830000Y-83079175D01*
X112830000Y-82840825D01*
X112950000Y-82840825D01*
X112950000Y-83079175D01*
X112996499Y-83312944D01*
X113087712Y-83533150D01*
X113220131Y-83731330D01*
X113388670Y-83899869D01*
X113586850Y-84032288D01*
X113807056Y-84123501D01*
X114040825Y-84170000D01*
X114279175Y-84170000D01*
X114512944Y-84123501D01*
X114733150Y-84032288D01*
X114931330Y-83899869D01*
X115099869Y-83731330D01*
X115232288Y-83533150D01*
X115323501Y-83312944D01*
X115370000Y-83079175D01*
X115370000Y-82840825D01*
X115323501Y-82607056D01*
X115232288Y-82386850D01*
X115099869Y-82188670D01*
X114931330Y-82020131D01*
X114733150Y-81887712D01*
X114512944Y-81796499D01*
X114279175Y-81750000D01*
X114040825Y-81750000D01*
X113807056Y-81796499D01*
X113586850Y-81887712D01*
X113388670Y-82020131D01*
X113220131Y-82188670D01*
X113087712Y-82386850D01*
X112996499Y-82607056D01*
X112950000Y-82840825D01*
X112830000Y-82840825D01*
X112783501Y-82607056D01*
X112692288Y-82386850D01*
X112559869Y-82188670D01*
X112391330Y-82020131D01*
X112193150Y-81887712D01*
X111972944Y-81796499D01*
X111739175Y-81750000D01*
X111500825Y-81750000D01*
X111267056Y-81796499D01*
X111046850Y-81887712D01*
X110848670Y-82020131D01*
X110680131Y-82188670D01*
X110547712Y-82386850D01*
X110456499Y-82607056D01*
X110410000Y-82840825D01*
X107750000Y-82840825D01*
X107703501Y-82607056D01*
X107612288Y-82386850D01*
X107479869Y-82188670D01*
X107311330Y-82020131D01*
X107113150Y-81887712D01*
X106892944Y-81796499D01*
X106659175Y-81750000D01*
X106420825Y-81750000D01*
X106187056Y-81796499D01*
X105966850Y-81887712D01*
X105768670Y-82020131D01*
X105600131Y-82188670D01*
X105467712Y-82386850D01*
X105376499Y-82607056D01*
X105330000Y-82840825D01*
X105210000Y-82840825D01*
X105163501Y-82607056D01*
X105072288Y-82386850D01*
X104939869Y-82188670D01*
X104771330Y-82020131D01*
X104573150Y-81887712D01*
X104352944Y-81796499D01*
X104119175Y-81750000D01*
X103880825Y-81750000D01*
X103647056Y-81796499D01*
X103426850Y-81887712D01*
X103228670Y-82020131D01*
X103060131Y-82188670D01*
X102927712Y-82386850D01*
X102836499Y-82607056D01*
X102790000Y-82840825D01*
X102690010Y-82840825D01*
X102690010Y-79300000D01*
X116747546Y-79300000D01*
X116935288Y-79318491D01*
G04 #@! TA.AperFunction,Conductor*
G36*
X116935288Y-79318491D02*
G01*
X117113456Y-79372537D01*
X117277655Y-79460303D01*
X117421580Y-79578420D01*
X117539697Y-79722345D01*
X117627463Y-79886544D01*
X117681509Y-80064712D01*
X117700000Y-80252454D01*
X117700000Y-82278663D01*
X117639869Y-82188670D01*
X117471330Y-82020131D01*
X117273150Y-81887712D01*
X117052944Y-81796499D01*
X116819175Y-81750000D01*
X116580825Y-81750000D01*
X116347056Y-81796499D01*
X116126850Y-81887712D01*
X115928670Y-82020131D01*
X115760131Y-82188670D01*
X115627712Y-82386850D01*
X115536499Y-82607056D01*
X115490000Y-82840825D01*
X115490000Y-83079175D01*
X115536499Y-83312944D01*
X115627712Y-83533150D01*
X115760131Y-83731330D01*
X115928670Y-83899869D01*
X116126850Y-84032288D01*
X116347056Y-84123501D01*
X116580825Y-84170000D01*
X116819175Y-84170000D01*
X117052944Y-84123501D01*
X117273150Y-84032288D01*
X117471330Y-83899869D01*
X117639869Y-83731330D01*
X117700000Y-83641337D01*
X117700000Y-87318663D01*
X117639869Y-87228670D01*
X117471330Y-87060131D01*
X117273150Y-86927712D01*
X117052944Y-86836499D01*
X116819175Y-86790000D01*
X116580825Y-86790000D01*
X116347056Y-86836499D01*
X116126850Y-86927712D01*
X115928670Y-87060131D01*
X115760131Y-87228670D01*
X115627712Y-87426850D01*
X115536499Y-87647056D01*
X115490000Y-87880825D01*
X115490000Y-88119175D01*
X115536499Y-88352944D01*
X115627712Y-88573150D01*
X115760131Y-88771330D01*
X115928670Y-88939869D01*
X116126850Y-89072288D01*
X116347056Y-89163501D01*
X116580825Y-89210000D01*
X116819175Y-89210000D01*
X117052944Y-89163501D01*
X117273150Y-89072288D01*
X117471330Y-88939869D01*
X117639869Y-88771330D01*
X117700000Y-88681337D01*
X117700000Y-98995560D01*
X117681462Y-99183542D01*
X117627281Y-99361913D01*
X117539302Y-99526267D01*
X117420918Y-99670264D01*
X117276681Y-99788369D01*
X117112155Y-99876023D01*
X116933679Y-99929850D01*
X116745667Y-99948016D01*
X116712000Y-99947950D01*
X116712000Y-94164579D01*
X116714224Y-94141999D01*
X116712000Y-94119419D01*
X116712000Y-94119410D01*
X116705343Y-94051824D01*
X116679040Y-93965114D01*
X116636326Y-93885202D01*
X116578842Y-93815158D01*
X116561297Y-93800759D01*
X114307245Y-91546708D01*
X114292842Y-91529158D01*
X114222798Y-91471674D01*
X114142886Y-91428960D01*
X114056176Y-91402657D01*
X113988590Y-91396000D01*
X113988582Y-91396000D01*
X113966000Y-91393776D01*
X113943418Y-91396000D01*
X111025394Y-91396000D01*
X109540000Y-89910607D01*
X109540000Y-89119157D01*
X109653150Y-89072288D01*
X109851330Y-88939869D01*
X110019869Y-88771330D01*
X110152288Y-88573150D01*
X110243501Y-88352944D01*
X110290000Y-88119175D01*
X110290000Y-87880825D01*
X110410000Y-87880825D01*
X110410000Y-88119175D01*
X110456499Y-88352944D01*
X110547712Y-88573150D01*
X110680131Y-88771330D01*
X110848670Y-88939869D01*
X111046850Y-89072288D01*
X111267056Y-89163501D01*
X111500825Y-89210000D01*
X111739175Y-89210000D01*
X111972944Y-89163501D01*
X112193150Y-89072288D01*
X112391330Y-88939869D01*
X112559869Y-88771330D01*
X112692288Y-88573150D01*
X112783501Y-88352944D01*
X112830000Y-88119175D01*
X112830000Y-87880825D01*
X112783501Y-87647056D01*
X112692288Y-87426850D01*
X112559869Y-87228670D01*
X112391330Y-87060131D01*
X112193150Y-86927712D01*
X111972944Y-86836499D01*
X111739175Y-86790000D01*
X111500825Y-86790000D01*
X111267056Y-86836499D01*
X111046850Y-86927712D01*
X110848670Y-87060131D01*
X110680131Y-87228670D01*
X110547712Y-87426850D01*
X110456499Y-87647056D01*
X110410000Y-87880825D01*
X110290000Y-87880825D01*
X110243501Y-87647056D01*
X110152288Y-87426850D01*
X110019869Y-87228670D01*
X109851330Y-87060131D01*
X109653150Y-86927712D01*
X109432944Y-86836499D01*
X109199175Y-86790000D01*
X108960825Y-86790000D01*
X108727056Y-86836499D01*
X108506850Y-86927712D01*
X108308670Y-87060131D01*
X108140131Y-87228670D01*
X108007712Y-87426850D01*
X107916499Y-87647056D01*
X107870000Y-87880825D01*
X107870000Y-88119175D01*
X107916499Y-88352944D01*
X108007712Y-88573150D01*
X108140131Y-88771330D01*
X108308670Y-88939869D01*
X108506850Y-89072288D01*
X108620001Y-89119157D01*
X108620001Y-89924002D01*
X107750000Y-89054001D01*
X107750000Y-87880825D01*
X107738346Y-87822235D01*
X107732492Y-87762799D01*
X107715156Y-87705649D01*
X107703501Y-87647056D01*
X107680639Y-87591864D01*
X107663303Y-87534713D01*
X107635148Y-87482040D01*
X107612288Y-87426850D01*
X107579100Y-87377180D01*
X107550946Y-87324508D01*
X107513058Y-87278341D01*
X107479869Y-87228670D01*
X107437628Y-87186429D01*
X107399739Y-87140261D01*
X107353572Y-87102373D01*
X107311330Y-87060131D01*
X107261655Y-87026939D01*
X107215491Y-86989054D01*
X107162824Y-86960903D01*
X107113150Y-86927712D01*
X107057956Y-86904850D01*
X107005286Y-86876697D01*
X106948139Y-86859362D01*
X106892944Y-86836499D01*
X106834348Y-86824844D01*
X106777200Y-86807508D01*
X106717766Y-86801654D01*
X106659175Y-86790000D01*
X106599437Y-86790000D01*
X106540000Y-86784146D01*
X106480563Y-86790000D01*
X106420825Y-86790000D01*
X106362235Y-86801654D01*
X106302799Y-86807508D01*
X106245649Y-86824844D01*
X106187056Y-86836499D01*
X106131864Y-86859361D01*
X106074713Y-86876697D01*
X106022040Y-86904852D01*
X105966850Y-86927712D01*
X105917180Y-86960900D01*
X105864508Y-86989054D01*
X105818341Y-87026942D01*
X105768670Y-87060131D01*
X105726429Y-87102372D01*
X105680261Y-87140261D01*
X105642373Y-87186428D01*
X105600131Y-87228670D01*
X105566939Y-87278345D01*
X105529054Y-87324509D01*
X105500903Y-87377176D01*
X105467712Y-87426850D01*
X105444850Y-87482044D01*
X105416697Y-87534714D01*
X105399362Y-87591861D01*
X105376499Y-87647056D01*
X105364844Y-87705652D01*
X105347508Y-87762800D01*
X105341654Y-87822234D01*
X105330000Y-87880825D01*
X105330000Y-89495763D01*
X105324146Y-89555198D01*
X105330000Y-89614633D01*
X105330000Y-89614635D01*
X105347508Y-89792399D01*
X105416698Y-90020485D01*
X105529055Y-90230690D01*
X105680262Y-90414937D01*
X105726435Y-90452830D01*
X105779481Y-90505876D01*
X105500873Y-90319716D01*
X104898491Y-90070201D01*
X104259007Y-89943000D01*
X103606993Y-89943000D01*
X102967509Y-90070201D01*
X102365127Y-90319716D01*
X101822998Y-90681955D01*
X101361955Y-91142998D01*
X100999716Y-91685127D01*
X100750201Y-92287509D01*
X100623000Y-92926993D01*
X100623000Y-93579007D01*
X100750201Y-94218491D01*
X100999716Y-94820873D01*
X101361955Y-95363002D01*
X101822998Y-95824045D01*
X102365127Y-96186284D01*
X102967509Y-96435799D01*
X103606993Y-96563000D01*
X104259007Y-96563000D01*
X104898491Y-96435799D01*
X105500873Y-96186284D01*
X106043002Y-95824045D01*
X106504045Y-95363002D01*
X106866284Y-94820873D01*
X107115799Y-94218491D01*
X107243000Y-93579007D01*
X107243000Y-92926993D01*
X107115799Y-92287509D01*
X106866284Y-91685127D01*
X106680125Y-91406520D01*
X110343001Y-95069397D01*
X110343000Y-99986676D01*
X110253191Y-100013785D01*
X110244113Y-100017533D01*
X110070784Y-100109963D01*
X110062613Y-100115413D01*
X109910697Y-100239943D01*
X109903750Y-100246886D01*
X109779108Y-100398710D01*
X109773651Y-100406876D01*
X109681093Y-100580137D01*
X109677339Y-100589213D01*
X109620437Y-100777225D01*
X109618529Y-100786860D01*
X109599478Y-100982368D01*
X109599242Y-100987279D01*
X109611751Y-111094918D01*
X109593325Y-111283531D01*
X109539015Y-111462498D01*
X109450685Y-111627356D01*
X109331762Y-111771706D01*
X109206406Y-111874000D01*
X100806604Y-111874000D01*
X100748785Y-111842814D01*
X100605834Y-111724794D01*
X100488527Y-111581250D01*
X100425000Y-111462049D01*
X100425000Y-107516000D01*
X101728984Y-107516000D01*
X101728984Y-109216000D01*
X101733039Y-109257167D01*
X101745047Y-109296752D01*
X101764547Y-109333234D01*
X101790789Y-109365211D01*
X101822766Y-109391453D01*
X101859248Y-109410953D01*
X101898833Y-109422961D01*
X101940000Y-109427016D01*
X103640000Y-109427016D01*
X103681167Y-109422961D01*
X103720752Y-109410953D01*
X103757234Y-109391453D01*
X103789211Y-109365211D01*
X103815453Y-109333234D01*
X103834953Y-109296752D01*
X103846961Y-109257167D01*
X103851016Y-109216000D01*
X103851016Y-108261599D01*
X104270000Y-108261599D01*
X104270000Y-108470401D01*
X104310735Y-108675191D01*
X104390640Y-108868098D01*
X104506644Y-109041711D01*
X104654289Y-109189356D01*
X104827902Y-109305360D01*
X105020809Y-109385265D01*
X105225599Y-109426000D01*
X105434401Y-109426000D01*
X105639191Y-109385265D01*
X105832098Y-109305360D01*
X106005711Y-109189356D01*
X106153356Y-109041711D01*
X106269360Y-108868098D01*
X106349265Y-108675191D01*
X106390000Y-108470401D01*
X106390000Y-108261599D01*
X106349265Y-108056809D01*
X106269360Y-107863902D01*
X106153356Y-107690289D01*
X106005711Y-107542644D01*
X105832098Y-107426640D01*
X105639191Y-107346735D01*
X105434401Y-107306000D01*
X105225599Y-107306000D01*
X105020809Y-107346735D01*
X104827902Y-107426640D01*
X104654289Y-107542644D01*
X104506644Y-107690289D01*
X104390640Y-107863902D01*
X104310735Y-108056809D01*
X104270000Y-108261599D01*
X103851016Y-108261599D01*
X103851016Y-107516000D01*
X103846961Y-107474833D01*
X103834953Y-107435248D01*
X103815453Y-107398766D01*
X103789211Y-107366789D01*
X103757234Y-107340547D01*
X103720752Y-107321047D01*
X103681167Y-107309039D01*
X103640000Y-107304984D01*
X101940000Y-107304984D01*
X101898833Y-107309039D01*
X101859248Y-107321047D01*
X101822766Y-107340547D01*
X101790789Y-107366789D01*
X101764547Y-107398766D01*
X101745047Y-107435248D01*
X101733039Y-107474833D01*
X101728984Y-107516000D01*
X100425000Y-107516000D01*
X100425000Y-87880825D01*
X102790000Y-87880825D01*
X102790000Y-88119175D01*
X102836499Y-88352944D01*
X102927712Y-88573150D01*
X103060131Y-88771330D01*
X103228670Y-88939869D01*
X103426850Y-89072288D01*
X103647056Y-89163501D01*
X103880825Y-89210000D01*
X104119175Y-89210000D01*
X104352944Y-89163501D01*
X104573150Y-89072288D01*
X104771330Y-88939869D01*
X104939869Y-88771330D01*
X105072288Y-88573150D01*
X105163501Y-88352944D01*
X105210000Y-88119175D01*
X105210000Y-87880825D01*
X105163501Y-87647056D01*
X105072288Y-87426850D01*
X104939869Y-87228670D01*
X104771330Y-87060131D01*
X104573150Y-86927712D01*
X104352944Y-86836499D01*
X104119175Y-86790000D01*
X103880825Y-86790000D01*
X103647056Y-86836499D01*
X103426850Y-86927712D01*
X103228670Y-87060131D01*
X103060131Y-87228670D01*
X102927712Y-87426850D01*
X102836499Y-87647056D01*
X102790000Y-87880825D01*
X100425000Y-87880825D01*
X100425000Y-85551063D01*
X100469064Y-85633501D01*
X100620271Y-85817749D01*
X100666450Y-85855647D01*
X100775784Y-85964981D01*
X100777697Y-85971287D01*
X100890054Y-86181492D01*
X100968129Y-86276627D01*
X101041261Y-86365739D01*
X101225508Y-86516946D01*
X101435713Y-86629303D01*
X101663799Y-86698492D01*
X101901000Y-86721854D01*
X101960437Y-86716000D01*
X112579015Y-86716000D01*
X112950000Y-87086985D01*
X112950000Y-88119175D01*
X112961654Y-88177766D01*
X112967508Y-88237200D01*
X112984844Y-88294348D01*
X112996499Y-88352944D01*
X113019362Y-88408139D01*
X113036697Y-88465286D01*
X113064850Y-88517956D01*
X113087712Y-88573150D01*
X113120903Y-88622824D01*
X113149054Y-88675491D01*
X113186939Y-88721655D01*
X113220131Y-88771330D01*
X113262373Y-88813572D01*
X113300261Y-88859739D01*
X113346429Y-88897628D01*
X113388670Y-88939869D01*
X113438341Y-88973058D01*
X113484508Y-89010946D01*
X113537180Y-89039100D01*
X113586850Y-89072288D01*
X113642040Y-89095148D01*
X113694713Y-89123303D01*
X113751864Y-89140639D01*
X113807056Y-89163501D01*
X113865649Y-89175156D01*
X113922799Y-89192492D01*
X113982235Y-89198346D01*
X114040825Y-89210000D01*
X114100563Y-89210000D01*
X114160000Y-89215854D01*
X114219437Y-89210000D01*
X114279175Y-89210000D01*
X114337766Y-89198346D01*
X114397200Y-89192492D01*
X114454348Y-89175156D01*
X114512944Y-89163501D01*
X114568139Y-89140638D01*
X114625286Y-89123303D01*
X114677956Y-89095150D01*
X114733150Y-89072288D01*
X114782824Y-89039097D01*
X114835491Y-89010946D01*
X114881655Y-88973061D01*
X114931330Y-88939869D01*
X114973572Y-88897627D01*
X115019739Y-88859739D01*
X115057628Y-88813571D01*
X115099869Y-88771330D01*
X115133058Y-88721659D01*
X115170946Y-88675492D01*
X115199100Y-88622820D01*
X115232288Y-88573150D01*
X115255148Y-88517960D01*
X115283303Y-88465287D01*
X115300639Y-88408136D01*
X115323501Y-88352944D01*
X115335156Y-88294351D01*
X115352492Y-88237201D01*
X115358346Y-88177765D01*
X115370000Y-88119175D01*
X115370000Y-86645221D01*
X115375854Y-86585786D01*
X115369074Y-86516946D01*
X115352492Y-86348586D01*
X115283303Y-86120500D01*
X115170946Y-85910295D01*
X115170945Y-85910293D01*
X115057627Y-85772215D01*
X115019739Y-85726048D01*
X114973570Y-85688159D01*
X113977849Y-84692439D01*
X113939952Y-84646261D01*
X113755705Y-84495054D01*
X113545500Y-84382697D01*
X113317414Y-84313508D01*
X113139650Y-84296000D01*
X113139648Y-84296000D01*
X113080213Y-84290146D01*
X113020778Y-84296000D01*
X102690010Y-84296000D01*
X102690010Y-82840825D01*
X102790000Y-82840825D01*
X102790000Y-83079175D01*
X102836499Y-83312944D01*
X102927712Y-83533150D01*
X103060131Y-83731330D01*
X103228670Y-83899869D01*
X103426850Y-84032288D01*
X103647056Y-84123501D01*
X103880825Y-84170000D01*
X104119175Y-84170000D01*
X104352944Y-84123501D01*
X104573150Y-84032288D01*
X104771330Y-83899869D01*
X104939869Y-83731330D01*
X105072288Y-83533150D01*
X105163501Y-83312944D01*
X105210000Y-83079175D01*
X105210000Y-82840825D01*
X105330000Y-82840825D01*
X105330000Y-83079175D01*
X105376499Y-83312944D01*
X105467712Y-83533150D01*
X105600131Y-83731330D01*
X105768670Y-83899869D01*
X105966850Y-84032288D01*
X106187056Y-84123501D01*
X106420825Y-84170000D01*
X106659175Y-84170000D01*
X106892944Y-84123501D01*
X107113150Y-84032288D01*
X107311330Y-83899869D01*
X107479869Y-83731330D01*
X107612288Y-83533150D01*
X107703501Y-83312944D01*
X107750000Y-83079175D01*
X107750000Y-82840825D01*
X110410000Y-82840825D01*
X110410000Y-83079175D01*
X110456499Y-83312944D01*
X110547712Y-83533150D01*
X110680131Y-83731330D01*
X110848670Y-83899869D01*
X111046850Y-84032288D01*
X111267056Y-84123501D01*
X111500825Y-84170000D01*
X111739175Y-84170000D01*
X111972944Y-84123501D01*
X112193150Y-84032288D01*
X112391330Y-83899869D01*
X112559869Y-83731330D01*
X112692288Y-83533150D01*
X112783501Y-83312944D01*
X112830000Y-83079175D01*
X112830000Y-82840825D01*
X112950000Y-82840825D01*
X112950000Y-83079175D01*
X112996499Y-83312944D01*
X113087712Y-83533150D01*
X113220131Y-83731330D01*
X113388670Y-83899869D01*
X113586850Y-84032288D01*
X113807056Y-84123501D01*
X114040825Y-84170000D01*
X114279175Y-84170000D01*
X114512944Y-84123501D01*
X114733150Y-84032288D01*
X114931330Y-83899869D01*
X115099869Y-83731330D01*
X115232288Y-83533150D01*
X115323501Y-83312944D01*
X115370000Y-83079175D01*
X115370000Y-82840825D01*
X115323501Y-82607056D01*
X115232288Y-82386850D01*
X115099869Y-82188670D01*
X114931330Y-82020131D01*
X114733150Y-81887712D01*
X114512944Y-81796499D01*
X114279175Y-81750000D01*
X114040825Y-81750000D01*
X113807056Y-81796499D01*
X113586850Y-81887712D01*
X113388670Y-82020131D01*
X113220131Y-82188670D01*
X113087712Y-82386850D01*
X112996499Y-82607056D01*
X112950000Y-82840825D01*
X112830000Y-82840825D01*
X112783501Y-82607056D01*
X112692288Y-82386850D01*
X112559869Y-82188670D01*
X112391330Y-82020131D01*
X112193150Y-81887712D01*
X111972944Y-81796499D01*
X111739175Y-81750000D01*
X111500825Y-81750000D01*
X111267056Y-81796499D01*
X111046850Y-81887712D01*
X110848670Y-82020131D01*
X110680131Y-82188670D01*
X110547712Y-82386850D01*
X110456499Y-82607056D01*
X110410000Y-82840825D01*
X107750000Y-82840825D01*
X107703501Y-82607056D01*
X107612288Y-82386850D01*
X107479869Y-82188670D01*
X107311330Y-82020131D01*
X107113150Y-81887712D01*
X106892944Y-81796499D01*
X106659175Y-81750000D01*
X106420825Y-81750000D01*
X106187056Y-81796499D01*
X105966850Y-81887712D01*
X105768670Y-82020131D01*
X105600131Y-82188670D01*
X105467712Y-82386850D01*
X105376499Y-82607056D01*
X105330000Y-82840825D01*
X105210000Y-82840825D01*
X105163501Y-82607056D01*
X105072288Y-82386850D01*
X104939869Y-82188670D01*
X104771330Y-82020131D01*
X104573150Y-81887712D01*
X104352944Y-81796499D01*
X104119175Y-81750000D01*
X103880825Y-81750000D01*
X103647056Y-81796499D01*
X103426850Y-81887712D01*
X103228670Y-82020131D01*
X103060131Y-82188670D01*
X102927712Y-82386850D01*
X102836499Y-82607056D01*
X102790000Y-82840825D01*
X102690010Y-82840825D01*
X102690010Y-79300000D01*
X116747546Y-79300000D01*
X116935288Y-79318491D01*
G37*
G04 #@! TD.AperFunction*
X115792001Y-94332539D02*
X115792000Y-99946133D01*
X112763000Y-99940151D01*
X112763000Y-94627636D01*
X112768854Y-94568198D01*
X112745492Y-94330996D01*
X112676303Y-94102910D01*
X112566378Y-93897256D01*
X112563946Y-93892706D01*
X112412739Y-93708459D01*
X112366567Y-93670567D01*
X111012000Y-92316000D01*
X113775463Y-92316000D01*
X115792001Y-94332539D01*
G04 #@! TA.AperFunction,Conductor*
G36*
X115792001Y-94332539D02*
G01*
X115792000Y-99946133D01*
X112763000Y-99940151D01*
X112763000Y-94627636D01*
X112768854Y-94568198D01*
X112745492Y-94330996D01*
X112676303Y-94102910D01*
X112566378Y-93897256D01*
X112563946Y-93892706D01*
X112412739Y-93708459D01*
X112366567Y-93670567D01*
X111012000Y-92316000D01*
X113775463Y-92316000D01*
X115792001Y-94332539D01*
G37*
G04 #@! TD.AperFunction*
X150790000Y-90690000D02*
X150673993Y-90690000D01*
X150034509Y-90817201D01*
X149432127Y-91066716D01*
X148889998Y-91428955D01*
X148428955Y-91889998D01*
X148066716Y-92432127D01*
X147817201Y-93034509D01*
X147690000Y-93673993D01*
X147690000Y-94326007D01*
X147817201Y-94965491D01*
X148066716Y-95567873D01*
X148428955Y-96110002D01*
X148889998Y-96571045D01*
X149432127Y-96933284D01*
X150034509Y-97182799D01*
X150673993Y-97310000D01*
X150790000Y-97310000D01*
X150790000Y-109608990D01*
X145529000Y-109608990D01*
X145529000Y-108306563D01*
X145511492Y-108128799D01*
X145442303Y-107900713D01*
X145380016Y-107784182D01*
X145380016Y-107516000D01*
X145375961Y-107474833D01*
X145363953Y-107435248D01*
X145344453Y-107398766D01*
X145318211Y-107366789D01*
X145286234Y-107340547D01*
X145249752Y-107321047D01*
X145210167Y-107309039D01*
X145169000Y-107304984D01*
X144900817Y-107304984D01*
X144784286Y-107242697D01*
X144556200Y-107173508D01*
X144319000Y-107150146D01*
X144081799Y-107173508D01*
X143853713Y-107242697D01*
X143737182Y-107304984D01*
X143469000Y-107304984D01*
X143427833Y-107309039D01*
X143388248Y-107321047D01*
X143351766Y-107340547D01*
X143319789Y-107366789D01*
X143293547Y-107398766D01*
X143274047Y-107435248D01*
X143262039Y-107474833D01*
X143257984Y-107516000D01*
X143257984Y-107784183D01*
X143195697Y-107900714D01*
X143126508Y-108128800D01*
X143109000Y-108306564D01*
X143109000Y-110084565D01*
X143103146Y-110144000D01*
X143109000Y-110203435D01*
X143109000Y-110203437D01*
X143126509Y-110381201D01*
X143195698Y-110609287D01*
X143308055Y-110819492D01*
X143459262Y-111003739D01*
X143505435Y-111041632D01*
X144096353Y-111632550D01*
X144134251Y-111678729D01*
X144318498Y-111829936D01*
X144400936Y-111874000D01*
X109584358Y-111874000D01*
X109654500Y-111788860D01*
X109677524Y-111754509D01*
X109770527Y-111580930D01*
X109786374Y-111542733D01*
X109843558Y-111354295D01*
X109851612Y-111313732D01*
X109870759Y-111117741D01*
X109871754Y-111097063D01*
X109867971Y-108039993D01*
X123356000Y-108039993D01*
X123356000Y-108692007D01*
X123483201Y-109331491D01*
X123732716Y-109933873D01*
X124094955Y-110476002D01*
X124555998Y-110937045D01*
X125098127Y-111299284D01*
X125700509Y-111548799D01*
X126339993Y-111676000D01*
X126992007Y-111676000D01*
X127631491Y-111548799D01*
X128233873Y-111299284D01*
X128776002Y-110937045D01*
X129237045Y-110476002D01*
X129599284Y-109933873D01*
X129848799Y-109331491D01*
X129976000Y-108692007D01*
X129976000Y-108039993D01*
X129871772Y-107516000D01*
X132208984Y-107516000D01*
X132208984Y-109216000D01*
X132213039Y-109257167D01*
X132225047Y-109296752D01*
X132244547Y-109333234D01*
X132270789Y-109365211D01*
X132302766Y-109391453D01*
X132339248Y-109410953D01*
X132378833Y-109422961D01*
X132420000Y-109427016D01*
X134120000Y-109427016D01*
X134161167Y-109422961D01*
X134200752Y-109410953D01*
X134237234Y-109391453D01*
X134269211Y-109365211D01*
X134295453Y-109333234D01*
X134314953Y-109296752D01*
X134326961Y-109257167D01*
X134331016Y-109216000D01*
X134331016Y-107516000D01*
X134326961Y-107474833D01*
X134314953Y-107435248D01*
X134295453Y-107398766D01*
X134269211Y-107366789D01*
X134237234Y-107340547D01*
X134200752Y-107321047D01*
X134161167Y-107309039D01*
X134120000Y-107304984D01*
X132420000Y-107304984D01*
X132378833Y-107309039D01*
X132339248Y-107321047D01*
X132302766Y-107340547D01*
X132270789Y-107366789D01*
X132244547Y-107398766D01*
X132225047Y-107435248D01*
X132213039Y-107474833D01*
X132208984Y-107516000D01*
X129871772Y-107516000D01*
X129848799Y-107400509D01*
X129599284Y-106798127D01*
X129237045Y-106255998D01*
X128776002Y-105794955D01*
X128233873Y-105432716D01*
X127631491Y-105183201D01*
X126992007Y-105056000D01*
X126339993Y-105056000D01*
X125700509Y-105183201D01*
X125098127Y-105432716D01*
X124555998Y-105794955D01*
X124094955Y-106255998D01*
X123732716Y-106798127D01*
X123483201Y-107400509D01*
X123356000Y-108039993D01*
X109867971Y-108039993D01*
X109859255Y-100997293D01*
X109875293Y-100832703D01*
X109920187Y-100684369D01*
X109993214Y-100547667D01*
X110091555Y-100427880D01*
X110211411Y-100329630D01*
X110343000Y-100259459D01*
X110343000Y-103239963D01*
X110263596Y-103358799D01*
X110153915Y-103623592D01*
X110098000Y-103904695D01*
X110098000Y-104191305D01*
X110153915Y-104472408D01*
X110263596Y-104737201D01*
X110422828Y-104975508D01*
X110625492Y-105178172D01*
X110863799Y-105337404D01*
X111128592Y-105447085D01*
X111409695Y-105503000D01*
X111696305Y-105503000D01*
X111977408Y-105447085D01*
X112242201Y-105337404D01*
X112480508Y-105178172D01*
X112683172Y-104975508D01*
X112842404Y-104737201D01*
X112952085Y-104472408D01*
X113008000Y-104191305D01*
X113008000Y-103904695D01*
X112952085Y-103623592D01*
X112842404Y-103358799D01*
X112763000Y-103239963D01*
X112763000Y-100200152D01*
X115792000Y-100206134D01*
X115792000Y-103309773D01*
X115683281Y-103472482D01*
X115591692Y-103693598D01*
X115545000Y-103928333D01*
X115545000Y-104167667D01*
X115591692Y-104402402D01*
X115683281Y-104623518D01*
X115816248Y-104822517D01*
X115985483Y-104991752D01*
X116184482Y-105124719D01*
X116405598Y-105216308D01*
X116640333Y-105263000D01*
X116879667Y-105263000D01*
X117114402Y-105216308D01*
X117335518Y-105124719D01*
X117534517Y-104991752D01*
X117703752Y-104822517D01*
X117836719Y-104623518D01*
X117928308Y-104402402D01*
X117975000Y-104167667D01*
X117975000Y-103928333D01*
X117928308Y-103693598D01*
X117836719Y-103472482D01*
X117703752Y-103273483D01*
X117534517Y-103104248D01*
X117335518Y-102971281D01*
X117114402Y-102879692D01*
X116879667Y-102833000D01*
X116712000Y-102833000D01*
X116712000Y-100207951D01*
X116747610Y-100208021D01*
X116768222Y-100207048D01*
X116963592Y-100188171D01*
X117004031Y-100180199D01*
X117191951Y-100123524D01*
X117230057Y-100107807D01*
X117403286Y-100015516D01*
X117437586Y-99992658D01*
X117589450Y-99868308D01*
X117618625Y-99839191D01*
X117743275Y-99687572D01*
X117766200Y-99653316D01*
X117858832Y-99480270D01*
X117874625Y-99442198D01*
X117931672Y-99254391D01*
X117939723Y-99213965D01*
X117958986Y-99018632D01*
X117960000Y-98998023D01*
X117960000Y-80250000D01*
X117958989Y-80229416D01*
X117939774Y-80034326D01*
X117931743Y-79993951D01*
X117874838Y-79806358D01*
X117859083Y-79768324D01*
X117766673Y-79595437D01*
X117743802Y-79561208D01*
X117619439Y-79409671D01*
X117590329Y-79380561D01*
X117438792Y-79256198D01*
X117404563Y-79233327D01*
X117231676Y-79140917D01*
X117193642Y-79125162D01*
X117006049Y-79068257D01*
X116965674Y-79060226D01*
X116770584Y-79041011D01*
X116750000Y-79040000D01*
X102690010Y-79040000D01*
X102690010Y-71690010D01*
X150790000Y-71690010D01*
X150790000Y-90690000D01*
G04 #@! TA.AperFunction,Conductor*
G36*
X150790000Y-90690000D02*
G01*
X150673993Y-90690000D01*
X150034509Y-90817201D01*
X149432127Y-91066716D01*
X148889998Y-91428955D01*
X148428955Y-91889998D01*
X148066716Y-92432127D01*
X147817201Y-93034509D01*
X147690000Y-93673993D01*
X147690000Y-94326007D01*
X147817201Y-94965491D01*
X148066716Y-95567873D01*
X148428955Y-96110002D01*
X148889998Y-96571045D01*
X149432127Y-96933284D01*
X150034509Y-97182799D01*
X150673993Y-97310000D01*
X150790000Y-97310000D01*
X150790000Y-109608990D01*
X145529000Y-109608990D01*
X145529000Y-108306563D01*
X145511492Y-108128799D01*
X145442303Y-107900713D01*
X145380016Y-107784182D01*
X145380016Y-107516000D01*
X145375961Y-107474833D01*
X145363953Y-107435248D01*
X145344453Y-107398766D01*
X145318211Y-107366789D01*
X145286234Y-107340547D01*
X145249752Y-107321047D01*
X145210167Y-107309039D01*
X145169000Y-107304984D01*
X144900817Y-107304984D01*
X144784286Y-107242697D01*
X144556200Y-107173508D01*
X144319000Y-107150146D01*
X144081799Y-107173508D01*
X143853713Y-107242697D01*
X143737182Y-107304984D01*
X143469000Y-107304984D01*
X143427833Y-107309039D01*
X143388248Y-107321047D01*
X143351766Y-107340547D01*
X143319789Y-107366789D01*
X143293547Y-107398766D01*
X143274047Y-107435248D01*
X143262039Y-107474833D01*
X143257984Y-107516000D01*
X143257984Y-107784183D01*
X143195697Y-107900714D01*
X143126508Y-108128800D01*
X143109000Y-108306564D01*
X143109000Y-110084565D01*
X143103146Y-110144000D01*
X143109000Y-110203435D01*
X143109000Y-110203437D01*
X143126509Y-110381201D01*
X143195698Y-110609287D01*
X143308055Y-110819492D01*
X143459262Y-111003739D01*
X143505435Y-111041632D01*
X144096353Y-111632550D01*
X144134251Y-111678729D01*
X144318498Y-111829936D01*
X144400936Y-111874000D01*
X109584358Y-111874000D01*
X109654500Y-111788860D01*
X109677524Y-111754509D01*
X109770527Y-111580930D01*
X109786374Y-111542733D01*
X109843558Y-111354295D01*
X109851612Y-111313732D01*
X109870759Y-111117741D01*
X109871754Y-111097063D01*
X109867971Y-108039993D01*
X123356000Y-108039993D01*
X123356000Y-108692007D01*
X123483201Y-109331491D01*
X123732716Y-109933873D01*
X124094955Y-110476002D01*
X124555998Y-110937045D01*
X125098127Y-111299284D01*
X125700509Y-111548799D01*
X126339993Y-111676000D01*
X126992007Y-111676000D01*
X127631491Y-111548799D01*
X128233873Y-111299284D01*
X128776002Y-110937045D01*
X129237045Y-110476002D01*
X129599284Y-109933873D01*
X129848799Y-109331491D01*
X129976000Y-108692007D01*
X129976000Y-108039993D01*
X129871772Y-107516000D01*
X132208984Y-107516000D01*
X132208984Y-109216000D01*
X132213039Y-109257167D01*
X132225047Y-109296752D01*
X132244547Y-109333234D01*
X132270789Y-109365211D01*
X132302766Y-109391453D01*
X132339248Y-109410953D01*
X132378833Y-109422961D01*
X132420000Y-109427016D01*
X134120000Y-109427016D01*
X134161167Y-109422961D01*
X134200752Y-109410953D01*
X134237234Y-109391453D01*
X134269211Y-109365211D01*
X134295453Y-109333234D01*
X134314953Y-109296752D01*
X134326961Y-109257167D01*
X134331016Y-109216000D01*
X134331016Y-107516000D01*
X134326961Y-107474833D01*
X134314953Y-107435248D01*
X134295453Y-107398766D01*
X134269211Y-107366789D01*
X134237234Y-107340547D01*
X134200752Y-107321047D01*
X134161167Y-107309039D01*
X134120000Y-107304984D01*
X132420000Y-107304984D01*
X132378833Y-107309039D01*
X132339248Y-107321047D01*
X132302766Y-107340547D01*
X132270789Y-107366789D01*
X132244547Y-107398766D01*
X132225047Y-107435248D01*
X132213039Y-107474833D01*
X132208984Y-107516000D01*
X129871772Y-107516000D01*
X129848799Y-107400509D01*
X129599284Y-106798127D01*
X129237045Y-106255998D01*
X128776002Y-105794955D01*
X128233873Y-105432716D01*
X127631491Y-105183201D01*
X126992007Y-105056000D01*
X126339993Y-105056000D01*
X125700509Y-105183201D01*
X125098127Y-105432716D01*
X124555998Y-105794955D01*
X124094955Y-106255998D01*
X123732716Y-106798127D01*
X123483201Y-107400509D01*
X123356000Y-108039993D01*
X109867971Y-108039993D01*
X109859255Y-100997293D01*
X109875293Y-100832703D01*
X109920187Y-100684369D01*
X109993214Y-100547667D01*
X110091555Y-100427880D01*
X110211411Y-100329630D01*
X110343000Y-100259459D01*
X110343000Y-103239963D01*
X110263596Y-103358799D01*
X110153915Y-103623592D01*
X110098000Y-103904695D01*
X110098000Y-104191305D01*
X110153915Y-104472408D01*
X110263596Y-104737201D01*
X110422828Y-104975508D01*
X110625492Y-105178172D01*
X110863799Y-105337404D01*
X111128592Y-105447085D01*
X111409695Y-105503000D01*
X111696305Y-105503000D01*
X111977408Y-105447085D01*
X112242201Y-105337404D01*
X112480508Y-105178172D01*
X112683172Y-104975508D01*
X112842404Y-104737201D01*
X112952085Y-104472408D01*
X113008000Y-104191305D01*
X113008000Y-103904695D01*
X112952085Y-103623592D01*
X112842404Y-103358799D01*
X112763000Y-103239963D01*
X112763000Y-100200152D01*
X115792000Y-100206134D01*
X115792000Y-103309773D01*
X115683281Y-103472482D01*
X115591692Y-103693598D01*
X115545000Y-103928333D01*
X115545000Y-104167667D01*
X115591692Y-104402402D01*
X115683281Y-104623518D01*
X115816248Y-104822517D01*
X115985483Y-104991752D01*
X116184482Y-105124719D01*
X116405598Y-105216308D01*
X116640333Y-105263000D01*
X116879667Y-105263000D01*
X117114402Y-105216308D01*
X117335518Y-105124719D01*
X117534517Y-104991752D01*
X117703752Y-104822517D01*
X117836719Y-104623518D01*
X117928308Y-104402402D01*
X117975000Y-104167667D01*
X117975000Y-103928333D01*
X117928308Y-103693598D01*
X117836719Y-103472482D01*
X117703752Y-103273483D01*
X117534517Y-103104248D01*
X117335518Y-102971281D01*
X117114402Y-102879692D01*
X116879667Y-102833000D01*
X116712000Y-102833000D01*
X116712000Y-100207951D01*
X116747610Y-100208021D01*
X116768222Y-100207048D01*
X116963592Y-100188171D01*
X117004031Y-100180199D01*
X117191951Y-100123524D01*
X117230057Y-100107807D01*
X117403286Y-100015516D01*
X117437586Y-99992658D01*
X117589450Y-99868308D01*
X117618625Y-99839191D01*
X117743275Y-99687572D01*
X117766200Y-99653316D01*
X117858832Y-99480270D01*
X117874625Y-99442198D01*
X117931672Y-99254391D01*
X117939723Y-99213965D01*
X117958986Y-99018632D01*
X117960000Y-98998023D01*
X117960000Y-80250000D01*
X117958989Y-80229416D01*
X117939774Y-80034326D01*
X117931743Y-79993951D01*
X117874838Y-79806358D01*
X117859083Y-79768324D01*
X117766673Y-79595437D01*
X117743802Y-79561208D01*
X117619439Y-79409671D01*
X117590329Y-79380561D01*
X117438792Y-79256198D01*
X117404563Y-79233327D01*
X117231676Y-79140917D01*
X117193642Y-79125162D01*
X117006049Y-79068257D01*
X116965674Y-79060226D01*
X116770584Y-79041011D01*
X116750000Y-79040000D01*
X102690010Y-79040000D01*
X102690010Y-71690010D01*
X150790000Y-71690010D01*
X150790000Y-90690000D01*
G37*
G04 #@! TD.AperFunction*
X186325001Y-111510606D02*
X186289697Y-111576655D01*
X186171580Y-111720580D01*
X186027655Y-111838697D01*
X185961608Y-111874000D01*
X177257064Y-111874000D01*
X177339502Y-111829936D01*
X177523749Y-111678729D01*
X177561646Y-111632551D01*
X179181571Y-110012628D01*
X179227738Y-109974740D01*
X179378945Y-109790493D01*
X179491302Y-109580288D01*
X179534403Y-109438203D01*
X179739716Y-109933873D01*
X180101955Y-110476002D01*
X180562998Y-110937045D01*
X181105127Y-111299284D01*
X181707509Y-111548799D01*
X182346993Y-111676000D01*
X182999007Y-111676000D01*
X183638491Y-111548799D01*
X184240873Y-111299284D01*
X184783002Y-110937045D01*
X185244045Y-110476002D01*
X185606284Y-109933873D01*
X185855799Y-109331491D01*
X185983000Y-108692007D01*
X185983000Y-108039993D01*
X185855799Y-107400509D01*
X185606284Y-106798127D01*
X185244045Y-106255998D01*
X184783002Y-105794955D01*
X184240873Y-105432716D01*
X183751098Y-105229844D01*
X183752886Y-105229302D01*
X183963091Y-105116945D01*
X184147338Y-104965738D01*
X184185235Y-104919560D01*
X186083562Y-103021235D01*
X186129729Y-102983347D01*
X186280936Y-102799100D01*
X186325001Y-102716661D01*
X186325001Y-111510606D01*
G04 #@! TA.AperFunction,Conductor*
G36*
X186325001Y-111510606D02*
G01*
X186289697Y-111576655D01*
X186171580Y-111720580D01*
X186027655Y-111838697D01*
X185961608Y-111874000D01*
X177257064Y-111874000D01*
X177339502Y-111829936D01*
X177523749Y-111678729D01*
X177561646Y-111632551D01*
X179181571Y-110012628D01*
X179227738Y-109974740D01*
X179378945Y-109790493D01*
X179491302Y-109580288D01*
X179534403Y-109438203D01*
X179739716Y-109933873D01*
X180101955Y-110476002D01*
X180562998Y-110937045D01*
X181105127Y-111299284D01*
X181707509Y-111548799D01*
X182346993Y-111676000D01*
X182999007Y-111676000D01*
X183638491Y-111548799D01*
X184240873Y-111299284D01*
X184783002Y-110937045D01*
X185244045Y-110476002D01*
X185606284Y-109933873D01*
X185855799Y-109331491D01*
X185983000Y-108692007D01*
X185983000Y-108039993D01*
X185855799Y-107400509D01*
X185606284Y-106798127D01*
X185244045Y-106255998D01*
X184783002Y-105794955D01*
X184240873Y-105432716D01*
X183751098Y-105229844D01*
X183752886Y-105229302D01*
X183963091Y-105116945D01*
X184147338Y-104965738D01*
X184185235Y-104919560D01*
X186083562Y-103021235D01*
X186129729Y-102983347D01*
X186280936Y-102799100D01*
X186325001Y-102716661D01*
X186325001Y-111510606D01*
G37*
G04 #@! TD.AperFunction*
X184059991Y-75413563D02*
X184059990Y-101622409D01*
X182786402Y-102895999D01*
X180687634Y-102895999D01*
X180628199Y-102890145D01*
X180568764Y-102895999D01*
X180568762Y-102895999D01*
X180390998Y-102913507D01*
X180162912Y-102982696D01*
X179952707Y-103095053D01*
X179768460Y-103246260D01*
X179730567Y-103292433D01*
X177736416Y-105286585D01*
X177692507Y-105310055D01*
X177508260Y-105461262D01*
X177357053Y-105645509D01*
X177244696Y-105855714D01*
X177175507Y-106083800D01*
X177152145Y-106321001D01*
X177158000Y-106380448D01*
X177157999Y-108613802D01*
X176162813Y-109608990D01*
X156070000Y-109608990D01*
X156070000Y-108306563D01*
X156052492Y-108128799D01*
X155983303Y-107900713D01*
X155921016Y-107784182D01*
X155921016Y-107516000D01*
X155916961Y-107474833D01*
X155904953Y-107435248D01*
X155885453Y-107398766D01*
X155859211Y-107366789D01*
X155827234Y-107340547D01*
X155790752Y-107321047D01*
X155751167Y-107309039D01*
X155710000Y-107304984D01*
X155441817Y-107304984D01*
X155325286Y-107242697D01*
X155097200Y-107173508D01*
X154860000Y-107150146D01*
X154622799Y-107173508D01*
X154394713Y-107242697D01*
X154278182Y-107304984D01*
X154010000Y-107304984D01*
X153968833Y-107309039D01*
X153929248Y-107321047D01*
X153892766Y-107340547D01*
X153860789Y-107366789D01*
X153834547Y-107398766D01*
X153815047Y-107435248D01*
X153803039Y-107474833D01*
X153798984Y-107516000D01*
X153798984Y-107784183D01*
X153736697Y-107900714D01*
X153667508Y-108128800D01*
X153650000Y-108306564D01*
X153650001Y-109608990D01*
X151050000Y-109608990D01*
X151050000Y-97310000D01*
X151326007Y-97310000D01*
X151965491Y-97182799D01*
X152567873Y-96933284D01*
X153110002Y-96571045D01*
X153571045Y-96110002D01*
X153933284Y-95567873D01*
X154182799Y-94965491D01*
X154310000Y-94326007D01*
X154310000Y-93673993D01*
X154182799Y-93034509D01*
X153933284Y-92432127D01*
X153571045Y-91889998D01*
X153110002Y-91428955D01*
X152567873Y-91066716D01*
X151965491Y-90817201D01*
X151326007Y-90690000D01*
X151050000Y-90690000D01*
X151050000Y-71690010D01*
X184059990Y-71690010D01*
X184059991Y-75413563D01*
G04 #@! TA.AperFunction,Conductor*
G36*
X184059991Y-75413563D02*
G01*
X184059990Y-101622409D01*
X182786402Y-102895999D01*
X180687634Y-102895999D01*
X180628199Y-102890145D01*
X180568764Y-102895999D01*
X180568762Y-102895999D01*
X180390998Y-102913507D01*
X180162912Y-102982696D01*
X179952707Y-103095053D01*
X179768460Y-103246260D01*
X179730567Y-103292433D01*
X177736416Y-105286585D01*
X177692507Y-105310055D01*
X177508260Y-105461262D01*
X177357053Y-105645509D01*
X177244696Y-105855714D01*
X177175507Y-106083800D01*
X177152145Y-106321001D01*
X177158000Y-106380448D01*
X177157999Y-108613802D01*
X176162813Y-109608990D01*
X156070000Y-109608990D01*
X156070000Y-108306563D01*
X156052492Y-108128799D01*
X155983303Y-107900713D01*
X155921016Y-107784182D01*
X155921016Y-107516000D01*
X155916961Y-107474833D01*
X155904953Y-107435248D01*
X155885453Y-107398766D01*
X155859211Y-107366789D01*
X155827234Y-107340547D01*
X155790752Y-107321047D01*
X155751167Y-107309039D01*
X155710000Y-107304984D01*
X155441817Y-107304984D01*
X155325286Y-107242697D01*
X155097200Y-107173508D01*
X154860000Y-107150146D01*
X154622799Y-107173508D01*
X154394713Y-107242697D01*
X154278182Y-107304984D01*
X154010000Y-107304984D01*
X153968833Y-107309039D01*
X153929248Y-107321047D01*
X153892766Y-107340547D01*
X153860789Y-107366789D01*
X153834547Y-107398766D01*
X153815047Y-107435248D01*
X153803039Y-107474833D01*
X153798984Y-107516000D01*
X153798984Y-107784183D01*
X153736697Y-107900714D01*
X153667508Y-108128800D01*
X153650000Y-108306564D01*
X153650001Y-109608990D01*
X151050000Y-109608990D01*
X151050000Y-97310000D01*
X151326007Y-97310000D01*
X151965491Y-97182799D01*
X152567873Y-96933284D01*
X153110002Y-96571045D01*
X153571045Y-96110002D01*
X153933284Y-95567873D01*
X154182799Y-94965491D01*
X154310000Y-94326007D01*
X154310000Y-93673993D01*
X154182799Y-93034509D01*
X153933284Y-92432127D01*
X153571045Y-91889998D01*
X153110002Y-91428955D01*
X152567873Y-91066716D01*
X151965491Y-90817201D01*
X151326007Y-90690000D01*
X151050000Y-90690000D01*
X151050000Y-71690010D01*
X184059990Y-71690010D01*
X184059991Y-75413563D01*
G37*
G04 #@! TD.AperFunction*
M02*
