G04 #@! TF.GenerationSoftware,KiCad,Pcbnew,(5.1.10)-1*
G04 #@! TF.CreationDate,2022-08-27T03:45:47-05:00*
G04 #@! TF.ProjectId,Common Slot Mini v1,436f6d6d-6f6e-4205-936c-6f74204d696e,rev?*
G04 #@! TF.SameCoordinates,Original*
G04 #@! TF.FileFunction,Soldermask,Bot*
G04 #@! TF.FilePolarity,Negative*
%FSLAX46Y46*%
G04 Gerber Fmt 4.6, Leading zero omitted, Abs format (unit mm)*
G04 Created by KiCad (PCBNEW (5.1.10)-1) date 2022-08-27 03:45:47*
%MOMM*%
%LPD*%
G01*
G04 APERTURE LIST*
%ADD10C,2.030000*%
%ADD11C,6.220000*%
%ADD12C,2.102000*%
%ADD13O,2.102000X2.102000*%
%ADD14C,2.510000*%
%ADD15C,3.770000*%
%ADD16O,1.802000X1.802000*%
G04 APERTURE END LIST*
D10*
X116760000Y-104048000D03*
D11*
X151000000Y-94000000D03*
X182673000Y-108366000D03*
X126666000Y-108366000D03*
X103933000Y-93253000D03*
D12*
X104000000Y-88000000D03*
X104000000Y-82960000D03*
X106540000Y-88000000D03*
X106540000Y-82960000D03*
X109080000Y-88000000D03*
D13*
X109080000Y-82960000D03*
D12*
X111620000Y-88000000D03*
D13*
X111620000Y-82960000D03*
D12*
X114160000Y-88000000D03*
D13*
X114160000Y-82960000D03*
D12*
X116700000Y-88000000D03*
D13*
X116700000Y-82960000D03*
D12*
X119240000Y-88000000D03*
D13*
X119240000Y-82960000D03*
D12*
X121780000Y-88000000D03*
D13*
X121780000Y-82960000D03*
D12*
X124320000Y-88000000D03*
D13*
X124320000Y-82960000D03*
D12*
X126860000Y-88000000D03*
D13*
X126860000Y-82960000D03*
D12*
X129400000Y-88000000D03*
D13*
X129400000Y-82960000D03*
D12*
X131940000Y-88000000D03*
D13*
X131940000Y-82960000D03*
D12*
X134480000Y-88000000D03*
D13*
X134480000Y-82960000D03*
D12*
X137020000Y-88000000D03*
D13*
X137020000Y-82960000D03*
D12*
X139560000Y-88000000D03*
D13*
X139560000Y-82960000D03*
D12*
X142100000Y-88000000D03*
D13*
X142100000Y-82960000D03*
D12*
X144640000Y-88000000D03*
D13*
X144640000Y-82960000D03*
D12*
X147180000Y-88000000D03*
D13*
X147180000Y-82960000D03*
D12*
X149720000Y-88000000D03*
D13*
X149720000Y-82960000D03*
D12*
X152260000Y-88000000D03*
D13*
X152260000Y-82960000D03*
D12*
X154800000Y-88000000D03*
D13*
X154800000Y-82960000D03*
D12*
X157340000Y-88000000D03*
D13*
X157340000Y-82960000D03*
D12*
X159880000Y-88000000D03*
D13*
X159880000Y-82960000D03*
D12*
X162420000Y-88000000D03*
D13*
X162420000Y-82960000D03*
D12*
X164960000Y-88000000D03*
D13*
X164960000Y-82960000D03*
D12*
X167500000Y-88000000D03*
D13*
X167500000Y-82960000D03*
D12*
X170040000Y-88000000D03*
D13*
X170040000Y-82960000D03*
D12*
X172580000Y-88000000D03*
D13*
X172580000Y-82960000D03*
D12*
X175120000Y-88000000D03*
D13*
X175120000Y-82960000D03*
D12*
X177660000Y-88000000D03*
D13*
X177660000Y-82960000D03*
D12*
X180200000Y-88000000D03*
D13*
X180200000Y-82960000D03*
D12*
X182740000Y-88000000D03*
G36*
G01*
X183740000Y-84011000D02*
X181740000Y-84011000D01*
G75*
G02*
X181689000Y-83960000I0J51000D01*
G01*
X181689000Y-81960000D01*
G75*
G02*
X181740000Y-81909000I51000J0D01*
G01*
X183740000Y-81909000D01*
G75*
G02*
X183791000Y-81960000I0J-51000D01*
G01*
X183791000Y-83960000D01*
G75*
G02*
X183740000Y-84011000I-51000J0D01*
G01*
G37*
D14*
X111553000Y-104048000D03*
X148510000Y-104810000D03*
X148510000Y-99984000D03*
X181276000Y-95920000D03*
X177339000Y-103794000D03*
D15*
X138350000Y-104175000D03*
X132635000Y-104175000D03*
X144065000Y-104175000D03*
X162737800Y-104140000D03*
X157657800Y-98552000D03*
X157657800Y-104140000D03*
X114093000Y-107858000D03*
X144065000Y-98460000D03*
X138350000Y-98460000D03*
X119808000Y-107858000D03*
X167817800Y-104140000D03*
X177977800Y-98552000D03*
X162737800Y-98552000D03*
X167817800Y-98552000D03*
X121205000Y-98460000D03*
X126920000Y-98460000D03*
X132635000Y-98460000D03*
X144065000Y-92745000D03*
X153717000Y-101508000D03*
X172897800Y-104140000D03*
X178104800Y-92964000D03*
X172897800Y-98552000D03*
X126920000Y-92745000D03*
X132635000Y-92745000D03*
X138350000Y-92745000D03*
X167944800Y-92964000D03*
X157784800Y-92964000D03*
X162864800Y-92964000D03*
X121205000Y-92745000D03*
X173024800Y-92964000D03*
G36*
G01*
X134120000Y-109267000D02*
X132420000Y-109267000D01*
G75*
G02*
X132369000Y-109216000I0J51000D01*
G01*
X132369000Y-107516000D01*
G75*
G02*
X132420000Y-107465000I51000J0D01*
G01*
X134120000Y-107465000D01*
G75*
G02*
X134171000Y-107516000I0J-51000D01*
G01*
X134171000Y-109216000D01*
G75*
G02*
X134120000Y-109267000I-51000J0D01*
G01*
G37*
D16*
X135810000Y-108366000D03*
X141779000Y-108366000D03*
G36*
G01*
X143469000Y-107465000D02*
X145169000Y-107465000D01*
G75*
G02*
X145220000Y-107516000I0J-51000D01*
G01*
X145220000Y-109216000D01*
G75*
G02*
X145169000Y-109267000I-51000J0D01*
G01*
X143469000Y-109267000D01*
G75*
G02*
X143418000Y-109216000I0J51000D01*
G01*
X143418000Y-107516000D01*
G75*
G02*
X143469000Y-107465000I51000J0D01*
G01*
G37*
X149780000Y-108366000D03*
X152320000Y-108366000D03*
G36*
G01*
X154010000Y-107465000D02*
X155710000Y-107465000D01*
G75*
G02*
X155761000Y-107516000I0J-51000D01*
G01*
X155761000Y-109216000D01*
G75*
G02*
X155710000Y-109267000I-51000J0D01*
G01*
X154010000Y-109267000D01*
G75*
G02*
X153959000Y-109216000I0J51000D01*
G01*
X153959000Y-107516000D01*
G75*
G02*
X154010000Y-107465000I51000J0D01*
G01*
G37*
G36*
G01*
X103640000Y-109267000D02*
X101940000Y-109267000D01*
G75*
G02*
X101889000Y-109216000I0J51000D01*
G01*
X101889000Y-107516000D01*
G75*
G02*
X101940000Y-107465000I51000J0D01*
G01*
X103640000Y-107465000D01*
G75*
G02*
X103691000Y-107516000I0J-51000D01*
G01*
X103691000Y-109216000D01*
G75*
G02*
X103640000Y-109267000I-51000J0D01*
G01*
G37*
X105330000Y-108366000D03*
X107870000Y-108366000D03*
M02*
