M48
; DRILL file {KiCad (5.1.10)-1} date 08/27/22 03:45:44
; FORMAT={-:-/ absolute / inch / decimal}
; #@! TF.CreationDate,2022-08-27T03:45:44-05:00
; #@! TF.GenerationSoftware,Kicad,Pcbnew,(5.1.10)-1
; #@! TF.FileFunction,Plated,1,2,PTH
FMAT,2
INCH
T1C0.0157
T2C0.0394
T3C0.0398
T4C0.0587
T5C0.0886
%
G90
G05
T1
X4.4919Y-3.7914
X4.5969Y-3.3714
X7.2919Y-4.1164
X7.2941Y-2.9714
T2
X4.0469Y-4.2664
X4.0945Y-3.2661
X4.0945Y-3.4646
X4.1469Y-4.2664
X4.1945Y-3.2661
X4.1945Y-3.4646
X4.2469Y-4.2664
X4.2945Y-3.2661
X4.2945Y-3.4646
X4.3945Y-3.2661
X4.3945Y-3.4646
X4.4945Y-3.2661
X4.4945Y-3.4646
X4.5945Y-3.2661
X4.5945Y-3.4646
X4.6945Y-3.2661
X4.6945Y-3.4646
X4.7945Y-3.2661
X4.7945Y-3.4646
X4.8945Y-3.2661
X4.8945Y-3.4646
X4.9945Y-3.2661
X4.9945Y-3.4646
X5.0945Y-3.2661
X5.0945Y-3.4646
X5.1945Y-3.2661
X5.1945Y-3.4646
X5.2469Y-4.2664
X5.2945Y-3.2661
X5.2945Y-3.4646
X5.3469Y-4.2664
X5.3945Y-3.2661
X5.3945Y-3.4646
X5.4945Y-3.2661
X5.4945Y-3.4646
X5.5819Y-4.2664
X5.5945Y-3.2661
X5.5945Y-3.4646
X5.6819Y-4.2664
X5.6945Y-3.2661
X5.6945Y-3.4646
X5.7945Y-3.2661
X5.7945Y-3.4646
X5.8945Y-3.2661
X5.8945Y-3.4646
X5.8969Y-4.2664
X5.9945Y-3.2661
X5.9945Y-3.4646
X5.9969Y-4.2664
X6.0945Y-3.2661
X6.0945Y-3.4646
X6.0969Y-4.2664
X6.1945Y-3.2661
X6.1945Y-3.4646
X6.2945Y-3.2661
X6.2945Y-3.4646
X6.3945Y-3.2661
X6.3945Y-3.4646
X6.4945Y-3.2661
X6.4945Y-3.4646
X6.5945Y-3.2661
X6.5945Y-3.4646
X6.6945Y-3.2661
X6.6945Y-3.4646
X6.7945Y-3.2661
X6.7945Y-3.4646
X6.8945Y-3.2661
X6.8945Y-3.4646
X6.9945Y-3.2661
X6.9945Y-3.4646
X7.0945Y-3.2661
X7.0945Y-3.4646
X7.1945Y-3.2661
X7.1945Y-3.4646
T3
X4.5969Y-4.0964
T4
X4.3919Y-4.0964
X5.8469Y-3.9364
X5.8469Y-4.1264
X6.9819Y-4.0864
X7.1369Y-3.7764
T5
X4.4919Y-4.2464
X4.7169Y-4.2464
X4.7719Y-3.6514
X4.7719Y-3.8764
X4.9969Y-3.6514
X4.9969Y-3.8764
X5.2219Y-3.6514
X5.2219Y-3.8764
X5.2219Y-4.1014
X5.4469Y-3.6514
X5.4469Y-3.8764
X5.4469Y-4.1014
X5.6719Y-3.6514
X5.6719Y-3.8764
X5.6719Y-4.1014
X6.0519Y-3.9964
X6.207Y-3.88
X6.207Y-4.1
X6.212Y-3.66
X6.407Y-3.88
X6.407Y-4.1
X6.412Y-3.66
X6.607Y-3.88
X6.607Y-4.1
X6.612Y-3.66
X6.807Y-3.88
X6.807Y-4.1
X6.812Y-3.66
X7.007Y-3.88
X7.012Y-3.66
T0
M30
