G04 #@! TF.GenerationSoftware,KiCad,Pcbnew,(5.1.10)-1*
G04 #@! TF.CreationDate,2022-08-27T03:45:47-05:00*
G04 #@! TF.ProjectId,Common Slot Mini v1,436f6d6d-6f6e-4205-936c-6f74204d696e,rev?*
G04 #@! TF.SameCoordinates,Original*
G04 #@! TF.FileFunction,Soldermask,Top*
G04 #@! TF.FilePolarity,Negative*
%FSLAX46Y46*%
G04 Gerber Fmt 4.6, Leading zero omitted, Abs format (unit mm)*
G04 Created by KiCad (PCBNEW (5.1.10)-1) date 2022-08-27 03:45:47*
%MOMM*%
%LPD*%
G01*
G04 APERTURE LIST*
%ADD10C,2.030000*%
%ADD11C,6.220000*%
%ADD12C,2.102000*%
%ADD13O,2.102000X2.102000*%
%ADD14C,2.510000*%
%ADD15C,3.770000*%
%ADD16O,1.802000X1.802000*%
%ADD17C,0.100000*%
G04 APERTURE END LIST*
D10*
X116760000Y-104048000D03*
D11*
X151000000Y-94000000D03*
X182673000Y-108366000D03*
X126666000Y-108366000D03*
X103933000Y-93253000D03*
D12*
X104000000Y-88000000D03*
X104000000Y-82960000D03*
X106540000Y-88000000D03*
X106540000Y-82960000D03*
X109080000Y-88000000D03*
D13*
X109080000Y-82960000D03*
D12*
X111620000Y-88000000D03*
D13*
X111620000Y-82960000D03*
D12*
X114160000Y-88000000D03*
D13*
X114160000Y-82960000D03*
D12*
X116700000Y-88000000D03*
D13*
X116700000Y-82960000D03*
D12*
X119240000Y-88000000D03*
D13*
X119240000Y-82960000D03*
D12*
X121780000Y-88000000D03*
D13*
X121780000Y-82960000D03*
D12*
X124320000Y-88000000D03*
D13*
X124320000Y-82960000D03*
D12*
X126860000Y-88000000D03*
D13*
X126860000Y-82960000D03*
D12*
X129400000Y-88000000D03*
D13*
X129400000Y-82960000D03*
D12*
X131940000Y-88000000D03*
D13*
X131940000Y-82960000D03*
D12*
X134480000Y-88000000D03*
D13*
X134480000Y-82960000D03*
D12*
X137020000Y-88000000D03*
D13*
X137020000Y-82960000D03*
D12*
X139560000Y-88000000D03*
D13*
X139560000Y-82960000D03*
D12*
X142100000Y-88000000D03*
D13*
X142100000Y-82960000D03*
D12*
X144640000Y-88000000D03*
D13*
X144640000Y-82960000D03*
D12*
X147180000Y-88000000D03*
D13*
X147180000Y-82960000D03*
D12*
X149720000Y-88000000D03*
D13*
X149720000Y-82960000D03*
D12*
X152260000Y-88000000D03*
D13*
X152260000Y-82960000D03*
D12*
X154800000Y-88000000D03*
D13*
X154800000Y-82960000D03*
D12*
X157340000Y-88000000D03*
D13*
X157340000Y-82960000D03*
D12*
X159880000Y-88000000D03*
D13*
X159880000Y-82960000D03*
D12*
X162420000Y-88000000D03*
D13*
X162420000Y-82960000D03*
D12*
X164960000Y-88000000D03*
D13*
X164960000Y-82960000D03*
D12*
X167500000Y-88000000D03*
D13*
X167500000Y-82960000D03*
D12*
X170040000Y-88000000D03*
D13*
X170040000Y-82960000D03*
D12*
X172580000Y-88000000D03*
D13*
X172580000Y-82960000D03*
D12*
X175120000Y-88000000D03*
D13*
X175120000Y-82960000D03*
D12*
X177660000Y-88000000D03*
D13*
X177660000Y-82960000D03*
D12*
X180200000Y-88000000D03*
D13*
X180200000Y-82960000D03*
D12*
X182740000Y-88000000D03*
G36*
G01*
X183740000Y-84011000D02*
X181740000Y-84011000D01*
G75*
G02*
X181689000Y-83960000I0J51000D01*
G01*
X181689000Y-81960000D01*
G75*
G02*
X181740000Y-81909000I51000J0D01*
G01*
X183740000Y-81909000D01*
G75*
G02*
X183791000Y-81960000I0J-51000D01*
G01*
X183791000Y-83960000D01*
G75*
G02*
X183740000Y-84011000I-51000J0D01*
G01*
G37*
D14*
X111553000Y-104048000D03*
X148510000Y-104810000D03*
X148510000Y-99984000D03*
X181276000Y-95920000D03*
X177339000Y-103794000D03*
D15*
X138350000Y-104175000D03*
X132635000Y-104175000D03*
X144065000Y-104175000D03*
X162737800Y-104140000D03*
X157657800Y-98552000D03*
X157657800Y-104140000D03*
X114093000Y-107858000D03*
X144065000Y-98460000D03*
X138350000Y-98460000D03*
X119808000Y-107858000D03*
X167817800Y-104140000D03*
X177977800Y-98552000D03*
X162737800Y-98552000D03*
X167817800Y-98552000D03*
X121205000Y-98460000D03*
X126920000Y-98460000D03*
X132635000Y-98460000D03*
X144065000Y-92745000D03*
X153717000Y-101508000D03*
X172897800Y-104140000D03*
X178104800Y-92964000D03*
X172897800Y-98552000D03*
X126920000Y-92745000D03*
X132635000Y-92745000D03*
X138350000Y-92745000D03*
X167944800Y-92964000D03*
X157784800Y-92964000D03*
X162864800Y-92964000D03*
X121205000Y-92745000D03*
X173024800Y-92964000D03*
G36*
G01*
X163429000Y-109851000D02*
X163429000Y-108151000D01*
G75*
G02*
X163480000Y-108100000I51000J0D01*
G01*
X165480000Y-108100000D01*
G75*
G02*
X165531000Y-108151000I0J-51000D01*
G01*
X165531000Y-109851000D01*
G75*
G02*
X165480000Y-109902000I-51000J0D01*
G01*
X163480000Y-109902000D01*
G75*
G02*
X163429000Y-109851000I0J51000D01*
G01*
G37*
G36*
G01*
X159429000Y-109851000D02*
X159429000Y-108151000D01*
G75*
G02*
X159480000Y-108100000I51000J0D01*
G01*
X161480000Y-108100000D01*
G75*
G02*
X161531000Y-108151000I0J-51000D01*
G01*
X161531000Y-109851000D01*
G75*
G02*
X161480000Y-109902000I-51000J0D01*
G01*
X159480000Y-109902000D01*
G75*
G02*
X159429000Y-109851000I0J51000D01*
G01*
G37*
G36*
G01*
X169716000Y-109851000D02*
X169716000Y-108151000D01*
G75*
G02*
X169767000Y-108100000I51000J0D01*
G01*
X171767000Y-108100000D01*
G75*
G02*
X171818000Y-108151000I0J-51000D01*
G01*
X171818000Y-109851000D01*
G75*
G02*
X171767000Y-109902000I-51000J0D01*
G01*
X169767000Y-109902000D01*
G75*
G02*
X169716000Y-109851000I0J51000D01*
G01*
G37*
G36*
G01*
X173716000Y-109851000D02*
X173716000Y-108151000D01*
G75*
G02*
X173767000Y-108100000I51000J0D01*
G01*
X175767000Y-108100000D01*
G75*
G02*
X175818000Y-108151000I0J-51000D01*
G01*
X175818000Y-109851000D01*
G75*
G02*
X175767000Y-109902000I-51000J0D01*
G01*
X173767000Y-109902000D01*
G75*
G02*
X173716000Y-109851000I0J51000D01*
G01*
G37*
G36*
G01*
X134120000Y-109267000D02*
X132420000Y-109267000D01*
G75*
G02*
X132369000Y-109216000I0J51000D01*
G01*
X132369000Y-107516000D01*
G75*
G02*
X132420000Y-107465000I51000J0D01*
G01*
X134120000Y-107465000D01*
G75*
G02*
X134171000Y-107516000I0J-51000D01*
G01*
X134171000Y-109216000D01*
G75*
G02*
X134120000Y-109267000I-51000J0D01*
G01*
G37*
D16*
X135810000Y-108366000D03*
X141779000Y-108366000D03*
G36*
G01*
X143469000Y-107465000D02*
X145169000Y-107465000D01*
G75*
G02*
X145220000Y-107516000I0J-51000D01*
G01*
X145220000Y-109216000D01*
G75*
G02*
X145169000Y-109267000I-51000J0D01*
G01*
X143469000Y-109267000D01*
G75*
G02*
X143418000Y-109216000I0J51000D01*
G01*
X143418000Y-107516000D01*
G75*
G02*
X143469000Y-107465000I51000J0D01*
G01*
G37*
X149780000Y-108366000D03*
X152320000Y-108366000D03*
G36*
G01*
X154010000Y-107465000D02*
X155710000Y-107465000D01*
G75*
G02*
X155761000Y-107516000I0J-51000D01*
G01*
X155761000Y-109216000D01*
G75*
G02*
X155710000Y-109267000I-51000J0D01*
G01*
X154010000Y-109267000D01*
G75*
G02*
X153959000Y-109216000I0J51000D01*
G01*
X153959000Y-107516000D01*
G75*
G02*
X154010000Y-107465000I51000J0D01*
G01*
G37*
G36*
G01*
X183093000Y-90202000D02*
X184793000Y-90202000D01*
G75*
G02*
X184844000Y-90253000I0J-51000D01*
G01*
X184844000Y-92253000D01*
G75*
G02*
X184793000Y-92304000I-51000J0D01*
G01*
X183093000Y-92304000D01*
G75*
G02*
X183042000Y-92253000I0J51000D01*
G01*
X183042000Y-90253000D01*
G75*
G02*
X183093000Y-90202000I51000J0D01*
G01*
G37*
G36*
G01*
X183093000Y-94202000D02*
X184793000Y-94202000D01*
G75*
G02*
X184844000Y-94253000I0J-51000D01*
G01*
X184844000Y-96253000D01*
G75*
G02*
X184793000Y-96304000I-51000J0D01*
G01*
X183093000Y-96304000D01*
G75*
G02*
X183042000Y-96253000I0J51000D01*
G01*
X183042000Y-94253000D01*
G75*
G02*
X183093000Y-94202000I51000J0D01*
G01*
G37*
G36*
G01*
X110559400Y-92553600D02*
X110559400Y-90853600D01*
G75*
G02*
X110610400Y-90802600I51000J0D01*
G01*
X112610400Y-90802600D01*
G75*
G02*
X112661400Y-90853600I0J-51000D01*
G01*
X112661400Y-92553600D01*
G75*
G02*
X112610400Y-92604600I-51000J0D01*
G01*
X110610400Y-92604600D01*
G75*
G02*
X110559400Y-92553600I0J51000D01*
G01*
G37*
G36*
G01*
X114559400Y-92553600D02*
X114559400Y-90853600D01*
G75*
G02*
X114610400Y-90802600I51000J0D01*
G01*
X116610400Y-90802600D01*
G75*
G02*
X116661400Y-90853600I0J-51000D01*
G01*
X116661400Y-92553600D01*
G75*
G02*
X116610400Y-92604600I-51000J0D01*
G01*
X114610400Y-92604600D01*
G75*
G02*
X114559400Y-92553600I0J51000D01*
G01*
G37*
G36*
G01*
X183093000Y-101187000D02*
X184793000Y-101187000D01*
G75*
G02*
X184844000Y-101238000I0J-51000D01*
G01*
X184844000Y-103238000D01*
G75*
G02*
X184793000Y-103289000I-51000J0D01*
G01*
X183093000Y-103289000D01*
G75*
G02*
X183042000Y-103238000I0J51000D01*
G01*
X183042000Y-101238000D01*
G75*
G02*
X183093000Y-101187000I51000J0D01*
G01*
G37*
G36*
G01*
X183093000Y-97187000D02*
X184793000Y-97187000D01*
G75*
G02*
X184844000Y-97238000I0J-51000D01*
G01*
X184844000Y-99238000D01*
G75*
G02*
X184793000Y-99289000I-51000J0D01*
G01*
X183093000Y-99289000D01*
G75*
G02*
X183042000Y-99238000I0J51000D01*
G01*
X183042000Y-97238000D01*
G75*
G02*
X183093000Y-97187000I51000J0D01*
G01*
G37*
D17*
G36*
X115857950Y-97913980D02*
G01*
X115867517Y-97916882D01*
X115876334Y-97921595D01*
X115884062Y-97927938D01*
X115890405Y-97935666D01*
X115895118Y-97944483D01*
X115898020Y-97954050D01*
X115899000Y-97964000D01*
X115899000Y-99464000D01*
X115898020Y-99473950D01*
X115895118Y-99483517D01*
X115890405Y-99492334D01*
X115884062Y-99500062D01*
X115876334Y-99506405D01*
X115867517Y-99511118D01*
X115857950Y-99514020D01*
X115848000Y-99515000D01*
X115348000Y-99515000D01*
X115341888Y-99514398D01*
X115323466Y-99514398D01*
X115318467Y-99514152D01*
X115269636Y-99509342D01*
X115264686Y-99508608D01*
X115216561Y-99499036D01*
X115211705Y-99497820D01*
X115164750Y-99483576D01*
X115160039Y-99481890D01*
X115114706Y-99463113D01*
X115110180Y-99460973D01*
X115066907Y-99437842D01*
X115062616Y-99435269D01*
X115021817Y-99408009D01*
X115017796Y-99405027D01*
X114979867Y-99373899D01*
X114976159Y-99370538D01*
X114941462Y-99335841D01*
X114938101Y-99332133D01*
X114906973Y-99294204D01*
X114903991Y-99290183D01*
X114876731Y-99249384D01*
X114874158Y-99245093D01*
X114851027Y-99201820D01*
X114848887Y-99197294D01*
X114830110Y-99151961D01*
X114828424Y-99147250D01*
X114814180Y-99100295D01*
X114812964Y-99095439D01*
X114803392Y-99047314D01*
X114802658Y-99042364D01*
X114797848Y-98993533D01*
X114797602Y-98988534D01*
X114797602Y-98970112D01*
X114797000Y-98964000D01*
X114797000Y-98464000D01*
X114797602Y-98457888D01*
X114797602Y-98439466D01*
X114797848Y-98434467D01*
X114802658Y-98385636D01*
X114803392Y-98380686D01*
X114812964Y-98332561D01*
X114814180Y-98327705D01*
X114828424Y-98280750D01*
X114830110Y-98276039D01*
X114848887Y-98230706D01*
X114851027Y-98226180D01*
X114874158Y-98182907D01*
X114876731Y-98178616D01*
X114903991Y-98137817D01*
X114906973Y-98133796D01*
X114938101Y-98095867D01*
X114941462Y-98092159D01*
X114976159Y-98057462D01*
X114979867Y-98054101D01*
X115017796Y-98022973D01*
X115021817Y-98019991D01*
X115062616Y-97992731D01*
X115066907Y-97990158D01*
X115110180Y-97967027D01*
X115114706Y-97964887D01*
X115160039Y-97946110D01*
X115164750Y-97944424D01*
X115211705Y-97930180D01*
X115216561Y-97928964D01*
X115264686Y-97919392D01*
X115269636Y-97918658D01*
X115318467Y-97913848D01*
X115323466Y-97913602D01*
X115341888Y-97913602D01*
X115348000Y-97913000D01*
X115848000Y-97913000D01*
X115857950Y-97913980D01*
G37*
G36*
X116654112Y-97913602D02*
G01*
X116672534Y-97913602D01*
X116677533Y-97913848D01*
X116726364Y-97918658D01*
X116731314Y-97919392D01*
X116779439Y-97928964D01*
X116784295Y-97930180D01*
X116831250Y-97944424D01*
X116835961Y-97946110D01*
X116881294Y-97964887D01*
X116885820Y-97967027D01*
X116929093Y-97990158D01*
X116933384Y-97992731D01*
X116974183Y-98019991D01*
X116978204Y-98022973D01*
X117016133Y-98054101D01*
X117019841Y-98057462D01*
X117054538Y-98092159D01*
X117057899Y-98095867D01*
X117089027Y-98133796D01*
X117092009Y-98137817D01*
X117119269Y-98178616D01*
X117121842Y-98182907D01*
X117144973Y-98226180D01*
X117147113Y-98230706D01*
X117165890Y-98276039D01*
X117167576Y-98280750D01*
X117181820Y-98327705D01*
X117183036Y-98332561D01*
X117192608Y-98380686D01*
X117193342Y-98385636D01*
X117198152Y-98434467D01*
X117198398Y-98439466D01*
X117198398Y-98457888D01*
X117199000Y-98464000D01*
X117199000Y-98964000D01*
X117198398Y-98970112D01*
X117198398Y-98988534D01*
X117198152Y-98993533D01*
X117193342Y-99042364D01*
X117192608Y-99047314D01*
X117183036Y-99095439D01*
X117181820Y-99100295D01*
X117167576Y-99147250D01*
X117165890Y-99151961D01*
X117147113Y-99197294D01*
X117144973Y-99201820D01*
X117121842Y-99245093D01*
X117119269Y-99249384D01*
X117092009Y-99290183D01*
X117089027Y-99294204D01*
X117057899Y-99332133D01*
X117054538Y-99335841D01*
X117019841Y-99370538D01*
X117016133Y-99373899D01*
X116978204Y-99405027D01*
X116974183Y-99408009D01*
X116933384Y-99435269D01*
X116929093Y-99437842D01*
X116885820Y-99460973D01*
X116881294Y-99463113D01*
X116835961Y-99481890D01*
X116831250Y-99483576D01*
X116784295Y-99497820D01*
X116779439Y-99499036D01*
X116731314Y-99508608D01*
X116726364Y-99509342D01*
X116677533Y-99514152D01*
X116672534Y-99514398D01*
X116654112Y-99514398D01*
X116648000Y-99515000D01*
X116148000Y-99515000D01*
X116138050Y-99514020D01*
X116128483Y-99511118D01*
X116119666Y-99506405D01*
X116111938Y-99500062D01*
X116105595Y-99492334D01*
X116100882Y-99483517D01*
X116097980Y-99473950D01*
X116097000Y-99464000D01*
X116097000Y-97964000D01*
X116097980Y-97954050D01*
X116100882Y-97944483D01*
X116105595Y-97935666D01*
X116111938Y-97927938D01*
X116119666Y-97921595D01*
X116128483Y-97916882D01*
X116138050Y-97913980D01*
X116148000Y-97913000D01*
X116648000Y-97913000D01*
X116654112Y-97913602D01*
G37*
G36*
X112971112Y-97913602D02*
G01*
X112989534Y-97913602D01*
X112994533Y-97913848D01*
X113043364Y-97918658D01*
X113048314Y-97919392D01*
X113096439Y-97928964D01*
X113101295Y-97930180D01*
X113148250Y-97944424D01*
X113152961Y-97946110D01*
X113198294Y-97964887D01*
X113202820Y-97967027D01*
X113246093Y-97990158D01*
X113250384Y-97992731D01*
X113291183Y-98019991D01*
X113295204Y-98022973D01*
X113333133Y-98054101D01*
X113336841Y-98057462D01*
X113371538Y-98092159D01*
X113374899Y-98095867D01*
X113406027Y-98133796D01*
X113409009Y-98137817D01*
X113436269Y-98178616D01*
X113438842Y-98182907D01*
X113461973Y-98226180D01*
X113464113Y-98230706D01*
X113482890Y-98276039D01*
X113484576Y-98280750D01*
X113498820Y-98327705D01*
X113500036Y-98332561D01*
X113509608Y-98380686D01*
X113510342Y-98385636D01*
X113515152Y-98434467D01*
X113515398Y-98439466D01*
X113515398Y-98457888D01*
X113516000Y-98464000D01*
X113516000Y-98964000D01*
X113515398Y-98970112D01*
X113515398Y-98988534D01*
X113515152Y-98993533D01*
X113510342Y-99042364D01*
X113509608Y-99047314D01*
X113500036Y-99095439D01*
X113498820Y-99100295D01*
X113484576Y-99147250D01*
X113482890Y-99151961D01*
X113464113Y-99197294D01*
X113461973Y-99201820D01*
X113438842Y-99245093D01*
X113436269Y-99249384D01*
X113409009Y-99290183D01*
X113406027Y-99294204D01*
X113374899Y-99332133D01*
X113371538Y-99335841D01*
X113336841Y-99370538D01*
X113333133Y-99373899D01*
X113295204Y-99405027D01*
X113291183Y-99408009D01*
X113250384Y-99435269D01*
X113246093Y-99437842D01*
X113202820Y-99460973D01*
X113198294Y-99463113D01*
X113152961Y-99481890D01*
X113148250Y-99483576D01*
X113101295Y-99497820D01*
X113096439Y-99499036D01*
X113048314Y-99508608D01*
X113043364Y-99509342D01*
X112994533Y-99514152D01*
X112989534Y-99514398D01*
X112971112Y-99514398D01*
X112965000Y-99515000D01*
X112465000Y-99515000D01*
X112455050Y-99514020D01*
X112445483Y-99511118D01*
X112436666Y-99506405D01*
X112428938Y-99500062D01*
X112422595Y-99492334D01*
X112417882Y-99483517D01*
X112414980Y-99473950D01*
X112414000Y-99464000D01*
X112414000Y-97964000D01*
X112414980Y-97954050D01*
X112417882Y-97944483D01*
X112422595Y-97935666D01*
X112428938Y-97927938D01*
X112436666Y-97921595D01*
X112445483Y-97916882D01*
X112455050Y-97913980D01*
X112465000Y-97913000D01*
X112965000Y-97913000D01*
X112971112Y-97913602D01*
G37*
G36*
X112174950Y-97913980D02*
G01*
X112184517Y-97916882D01*
X112193334Y-97921595D01*
X112201062Y-97927938D01*
X112207405Y-97935666D01*
X112212118Y-97944483D01*
X112215020Y-97954050D01*
X112216000Y-97964000D01*
X112216000Y-99464000D01*
X112215020Y-99473950D01*
X112212118Y-99483517D01*
X112207405Y-99492334D01*
X112201062Y-99500062D01*
X112193334Y-99506405D01*
X112184517Y-99511118D01*
X112174950Y-99514020D01*
X112165000Y-99515000D01*
X111665000Y-99515000D01*
X111658888Y-99514398D01*
X111640466Y-99514398D01*
X111635467Y-99514152D01*
X111586636Y-99509342D01*
X111581686Y-99508608D01*
X111533561Y-99499036D01*
X111528705Y-99497820D01*
X111481750Y-99483576D01*
X111477039Y-99481890D01*
X111431706Y-99463113D01*
X111427180Y-99460973D01*
X111383907Y-99437842D01*
X111379616Y-99435269D01*
X111338817Y-99408009D01*
X111334796Y-99405027D01*
X111296867Y-99373899D01*
X111293159Y-99370538D01*
X111258462Y-99335841D01*
X111255101Y-99332133D01*
X111223973Y-99294204D01*
X111220991Y-99290183D01*
X111193731Y-99249384D01*
X111191158Y-99245093D01*
X111168027Y-99201820D01*
X111165887Y-99197294D01*
X111147110Y-99151961D01*
X111145424Y-99147250D01*
X111131180Y-99100295D01*
X111129964Y-99095439D01*
X111120392Y-99047314D01*
X111119658Y-99042364D01*
X111114848Y-98993533D01*
X111114602Y-98988534D01*
X111114602Y-98970112D01*
X111114000Y-98964000D01*
X111114000Y-98464000D01*
X111114602Y-98457888D01*
X111114602Y-98439466D01*
X111114848Y-98434467D01*
X111119658Y-98385636D01*
X111120392Y-98380686D01*
X111129964Y-98332561D01*
X111131180Y-98327705D01*
X111145424Y-98280750D01*
X111147110Y-98276039D01*
X111165887Y-98230706D01*
X111168027Y-98226180D01*
X111191158Y-98182907D01*
X111193731Y-98178616D01*
X111220991Y-98137817D01*
X111223973Y-98133796D01*
X111255101Y-98095867D01*
X111258462Y-98092159D01*
X111293159Y-98057462D01*
X111296867Y-98054101D01*
X111334796Y-98022973D01*
X111338817Y-98019991D01*
X111379616Y-97992731D01*
X111383907Y-97990158D01*
X111427180Y-97967027D01*
X111431706Y-97964887D01*
X111477039Y-97946110D01*
X111481750Y-97944424D01*
X111528705Y-97930180D01*
X111533561Y-97928964D01*
X111581686Y-97919392D01*
X111586636Y-97918658D01*
X111635467Y-97913848D01*
X111640466Y-97913602D01*
X111658888Y-97913602D01*
X111665000Y-97913000D01*
X112165000Y-97913000D01*
X112174950Y-97913980D01*
G37*
G36*
X108491950Y-97913980D02*
G01*
X108501517Y-97916882D01*
X108510334Y-97921595D01*
X108518062Y-97927938D01*
X108524405Y-97935666D01*
X108529118Y-97944483D01*
X108532020Y-97954050D01*
X108533000Y-97964000D01*
X108533000Y-99464000D01*
X108532020Y-99473950D01*
X108529118Y-99483517D01*
X108524405Y-99492334D01*
X108518062Y-99500062D01*
X108510334Y-99506405D01*
X108501517Y-99511118D01*
X108491950Y-99514020D01*
X108482000Y-99515000D01*
X107982000Y-99515000D01*
X107975888Y-99514398D01*
X107957466Y-99514398D01*
X107952467Y-99514152D01*
X107903636Y-99509342D01*
X107898686Y-99508608D01*
X107850561Y-99499036D01*
X107845705Y-99497820D01*
X107798750Y-99483576D01*
X107794039Y-99481890D01*
X107748706Y-99463113D01*
X107744180Y-99460973D01*
X107700907Y-99437842D01*
X107696616Y-99435269D01*
X107655817Y-99408009D01*
X107651796Y-99405027D01*
X107613867Y-99373899D01*
X107610159Y-99370538D01*
X107575462Y-99335841D01*
X107572101Y-99332133D01*
X107540973Y-99294204D01*
X107537991Y-99290183D01*
X107510731Y-99249384D01*
X107508158Y-99245093D01*
X107485027Y-99201820D01*
X107482887Y-99197294D01*
X107464110Y-99151961D01*
X107462424Y-99147250D01*
X107448180Y-99100295D01*
X107446964Y-99095439D01*
X107437392Y-99047314D01*
X107436658Y-99042364D01*
X107431848Y-98993533D01*
X107431602Y-98988534D01*
X107431602Y-98970112D01*
X107431000Y-98964000D01*
X107431000Y-98464000D01*
X107431602Y-98457888D01*
X107431602Y-98439466D01*
X107431848Y-98434467D01*
X107436658Y-98385636D01*
X107437392Y-98380686D01*
X107446964Y-98332561D01*
X107448180Y-98327705D01*
X107462424Y-98280750D01*
X107464110Y-98276039D01*
X107482887Y-98230706D01*
X107485027Y-98226180D01*
X107508158Y-98182907D01*
X107510731Y-98178616D01*
X107537991Y-98137817D01*
X107540973Y-98133796D01*
X107572101Y-98095867D01*
X107575462Y-98092159D01*
X107610159Y-98057462D01*
X107613867Y-98054101D01*
X107651796Y-98022973D01*
X107655817Y-98019991D01*
X107696616Y-97992731D01*
X107700907Y-97990158D01*
X107744180Y-97967027D01*
X107748706Y-97964887D01*
X107794039Y-97946110D01*
X107798750Y-97944424D01*
X107845705Y-97930180D01*
X107850561Y-97928964D01*
X107898686Y-97919392D01*
X107903636Y-97918658D01*
X107952467Y-97913848D01*
X107957466Y-97913602D01*
X107975888Y-97913602D01*
X107982000Y-97913000D01*
X108482000Y-97913000D01*
X108491950Y-97913980D01*
G37*
G36*
X109288112Y-97913602D02*
G01*
X109306534Y-97913602D01*
X109311533Y-97913848D01*
X109360364Y-97918658D01*
X109365314Y-97919392D01*
X109413439Y-97928964D01*
X109418295Y-97930180D01*
X109465250Y-97944424D01*
X109469961Y-97946110D01*
X109515294Y-97964887D01*
X109519820Y-97967027D01*
X109563093Y-97990158D01*
X109567384Y-97992731D01*
X109608183Y-98019991D01*
X109612204Y-98022973D01*
X109650133Y-98054101D01*
X109653841Y-98057462D01*
X109688538Y-98092159D01*
X109691899Y-98095867D01*
X109723027Y-98133796D01*
X109726009Y-98137817D01*
X109753269Y-98178616D01*
X109755842Y-98182907D01*
X109778973Y-98226180D01*
X109781113Y-98230706D01*
X109799890Y-98276039D01*
X109801576Y-98280750D01*
X109815820Y-98327705D01*
X109817036Y-98332561D01*
X109826608Y-98380686D01*
X109827342Y-98385636D01*
X109832152Y-98434467D01*
X109832398Y-98439466D01*
X109832398Y-98457888D01*
X109833000Y-98464000D01*
X109833000Y-98964000D01*
X109832398Y-98970112D01*
X109832398Y-98988534D01*
X109832152Y-98993533D01*
X109827342Y-99042364D01*
X109826608Y-99047314D01*
X109817036Y-99095439D01*
X109815820Y-99100295D01*
X109801576Y-99147250D01*
X109799890Y-99151961D01*
X109781113Y-99197294D01*
X109778973Y-99201820D01*
X109755842Y-99245093D01*
X109753269Y-99249384D01*
X109726009Y-99290183D01*
X109723027Y-99294204D01*
X109691899Y-99332133D01*
X109688538Y-99335841D01*
X109653841Y-99370538D01*
X109650133Y-99373899D01*
X109612204Y-99405027D01*
X109608183Y-99408009D01*
X109567384Y-99435269D01*
X109563093Y-99437842D01*
X109519820Y-99460973D01*
X109515294Y-99463113D01*
X109469961Y-99481890D01*
X109465250Y-99483576D01*
X109418295Y-99497820D01*
X109413439Y-99499036D01*
X109365314Y-99508608D01*
X109360364Y-99509342D01*
X109311533Y-99514152D01*
X109306534Y-99514398D01*
X109288112Y-99514398D01*
X109282000Y-99515000D01*
X108782000Y-99515000D01*
X108772050Y-99514020D01*
X108762483Y-99511118D01*
X108753666Y-99506405D01*
X108745938Y-99500062D01*
X108739595Y-99492334D01*
X108734882Y-99483517D01*
X108731980Y-99473950D01*
X108731000Y-99464000D01*
X108731000Y-97964000D01*
X108731980Y-97954050D01*
X108734882Y-97944483D01*
X108739595Y-97935666D01*
X108745938Y-97927938D01*
X108753666Y-97921595D01*
X108762483Y-97916882D01*
X108772050Y-97913980D01*
X108782000Y-97913000D01*
X109282000Y-97913000D01*
X109288112Y-97913602D01*
G37*
G36*
G01*
X103640000Y-109267000D02*
X101940000Y-109267000D01*
G75*
G02*
X101889000Y-109216000I0J51000D01*
G01*
X101889000Y-107516000D01*
G75*
G02*
X101940000Y-107465000I51000J0D01*
G01*
X103640000Y-107465000D01*
G75*
G02*
X103691000Y-107516000I0J-51000D01*
G01*
X103691000Y-109216000D01*
G75*
G02*
X103640000Y-109267000I-51000J0D01*
G01*
G37*
D16*
X105330000Y-108366000D03*
X107870000Y-108366000D03*
D17*
G36*
X108527405Y-97937117D02*
G01*
X108528334Y-97938249D01*
X108528451Y-97938407D01*
X108536929Y-97951096D01*
X108553976Y-97968143D01*
X108574024Y-97981538D01*
X108596298Y-97990764D01*
X108619948Y-97995468D01*
X108644054Y-97995468D01*
X108667704Y-97990763D01*
X108689978Y-97981537D01*
X108710025Y-97968142D01*
X108727072Y-97951095D01*
X108735550Y-97938407D01*
X108735667Y-97938249D01*
X108736593Y-97937121D01*
X108738465Y-97936417D01*
X108740011Y-97937686D01*
X108739903Y-97939333D01*
X108736739Y-97945252D01*
X108733950Y-97954445D01*
X108733000Y-97964094D01*
X108733000Y-99463906D01*
X108733950Y-99473555D01*
X108736739Y-99482748D01*
X108739905Y-99488671D01*
X108739839Y-99490670D01*
X108738076Y-99491613D01*
X108736595Y-99490883D01*
X108735666Y-99489751D01*
X108735549Y-99489593D01*
X108727071Y-99476904D01*
X108710024Y-99459857D01*
X108689976Y-99446462D01*
X108667702Y-99437236D01*
X108644052Y-99432532D01*
X108619946Y-99432532D01*
X108596296Y-99437237D01*
X108574022Y-99446463D01*
X108553975Y-99459858D01*
X108536928Y-99476905D01*
X108528450Y-99489593D01*
X108528333Y-99489751D01*
X108527407Y-99490879D01*
X108525535Y-99491583D01*
X108523989Y-99490314D01*
X108524097Y-99488667D01*
X108527261Y-99482748D01*
X108530050Y-99473555D01*
X108531000Y-99463906D01*
X108531000Y-97964094D01*
X108530050Y-97954445D01*
X108527261Y-97945252D01*
X108524095Y-97939329D01*
X108524161Y-97937330D01*
X108525924Y-97936387D01*
X108527405Y-97937117D01*
G37*
G36*
X115893405Y-97937117D02*
G01*
X115894334Y-97938249D01*
X115894451Y-97938407D01*
X115902929Y-97951096D01*
X115919976Y-97968143D01*
X115940024Y-97981538D01*
X115962298Y-97990764D01*
X115985948Y-97995468D01*
X116010054Y-97995468D01*
X116033704Y-97990763D01*
X116055978Y-97981537D01*
X116076025Y-97968142D01*
X116093072Y-97951095D01*
X116101550Y-97938407D01*
X116101667Y-97938249D01*
X116102593Y-97937121D01*
X116104465Y-97936417D01*
X116106011Y-97937686D01*
X116105903Y-97939333D01*
X116102739Y-97945252D01*
X116099950Y-97954445D01*
X116099000Y-97964094D01*
X116099000Y-99463906D01*
X116099950Y-99473555D01*
X116102739Y-99482748D01*
X116105905Y-99488671D01*
X116105839Y-99490670D01*
X116104076Y-99491613D01*
X116102595Y-99490883D01*
X116101666Y-99489751D01*
X116101549Y-99489593D01*
X116093071Y-99476904D01*
X116076024Y-99459857D01*
X116055976Y-99446462D01*
X116033702Y-99437236D01*
X116010052Y-99432532D01*
X115985946Y-99432532D01*
X115962296Y-99437237D01*
X115940022Y-99446463D01*
X115919975Y-99459858D01*
X115902928Y-99476905D01*
X115894450Y-99489593D01*
X115894333Y-99489751D01*
X115893407Y-99490879D01*
X115891535Y-99491583D01*
X115889989Y-99490314D01*
X115890097Y-99488667D01*
X115893261Y-99482748D01*
X115896050Y-99473555D01*
X115897000Y-99463906D01*
X115897000Y-97964094D01*
X115896050Y-97954445D01*
X115893261Y-97945252D01*
X115890095Y-97939329D01*
X115890161Y-97937330D01*
X115891924Y-97936387D01*
X115893405Y-97937117D01*
G37*
G36*
X112210405Y-97937117D02*
G01*
X112211334Y-97938249D01*
X112211451Y-97938407D01*
X112219929Y-97951096D01*
X112236976Y-97968143D01*
X112257024Y-97981538D01*
X112279298Y-97990764D01*
X112302948Y-97995468D01*
X112327054Y-97995468D01*
X112350704Y-97990763D01*
X112372978Y-97981537D01*
X112393025Y-97968142D01*
X112410072Y-97951095D01*
X112418550Y-97938407D01*
X112418667Y-97938249D01*
X112419593Y-97937121D01*
X112421465Y-97936417D01*
X112423011Y-97937686D01*
X112422903Y-97939333D01*
X112419739Y-97945252D01*
X112416950Y-97954445D01*
X112416000Y-97964094D01*
X112416000Y-99463906D01*
X112416950Y-99473555D01*
X112419739Y-99482748D01*
X112422905Y-99488671D01*
X112422839Y-99490670D01*
X112421076Y-99491613D01*
X112419595Y-99490883D01*
X112418666Y-99489751D01*
X112418549Y-99489593D01*
X112410071Y-99476904D01*
X112393024Y-99459857D01*
X112372976Y-99446462D01*
X112350702Y-99437236D01*
X112327052Y-99432532D01*
X112302946Y-99432532D01*
X112279296Y-99437237D01*
X112257022Y-99446463D01*
X112236975Y-99459858D01*
X112219928Y-99476905D01*
X112211450Y-99489593D01*
X112211333Y-99489751D01*
X112210407Y-99490879D01*
X112208535Y-99491583D01*
X112206989Y-99490314D01*
X112207097Y-99488667D01*
X112210261Y-99482748D01*
X112213050Y-99473555D01*
X112214000Y-99463906D01*
X112214000Y-97964094D01*
X112213050Y-97954445D01*
X112210261Y-97945252D01*
X112207095Y-97939329D01*
X112207161Y-97937330D01*
X112208924Y-97936387D01*
X112210405Y-97937117D01*
G37*
M02*
