<?xml version="1.0" encoding="UTF-8" standalone="no"?>
<!-- Created with Inkscape (http://www.inkscape.org/) -->

<svg
   width="119.91622mm"
   height="138.5607mm"
   viewBox="0 0 119.91622 138.5607"
   version="1.1"
   id="svg5"
   xmlns:inkscape="http://www.inkscape.org/namespaces/inkscape"
   xmlns:sodipodi="http://sodipodi.sourceforge.net/DTD/sodipodi-0.dtd"
   xmlns="http://www.w3.org/2000/svg"
   xmlns:svg="http://www.w3.org/2000/svg">
  <sodipodi:namedview
     id="namedview7"
     pagecolor="#505050"
     bordercolor="#eeeeee"
     borderopacity="1"
     inkscape:showpageshadow="0"
     inkscape:pageopacity="0"
     inkscape:pagecheckerboard="0"
     inkscape:deskcolor="#505050"
     inkscape:document-units="mm"
     showgrid="false" />
  <defs
     id="defs2" />
  <g
     inkscape:label="Layer 1"
     inkscape:groupmode="layer"
     id="layer1"
     transform="translate(-40.821282,-113.70675)">
    <path
       id="rect217"
       style="fill:#ffffff;stroke-width:5.87082"
       d="m 51.909343,113.70675 c -6.146338,0 -11.088062,1.97905 -11.088062,4.43757 V 247.8301 c 0,2.45855 4.941724,4.43736 11.088062,4.43736 h 97.728627 c 6.14634,0 11.09953,-1.97881 11.09953,-4.43736 V 118.14432 c 0,-2.45852 -4.95319,-4.43757 -11.09953,-4.43757 z m 4.517785,20.75444 c 7.092364,0.18298 13.913582,0.27507 20.456174,0.27507 h 20.031896 c 12.315422,0 25.318972,-0.0922 39.008892,-0.27507 l 0.50453,0.55028 -4.79299,21.23596 -3.29086,0.48148 -5.11405,-15.86953 H 85.127672 v 37.782 h 7.499068 c 5.717893,0 12.10013,-0.046 19.13753,-0.13784 1.42946,-0.0457 2.36944,-0.64369 2.80927,-1.78888 l 2.87809,-9.27631 4.46045,-0.13766 c -0.16493,6.41217 -0.25226,11.16124 -0.25226,14.22997 0,2.97687 0.0873,7.64564 0.25226,14.0119 l -4.46045,0.27507 -2.96981,-9.41389 c -0.43983,-1.19091 -1.29249,-1.81174 -2.55704,-1.85767 -7.14733,-0.0913 -13.605441,-0.13767 -19.378297,-0.13767 h -7.418811 v 25.00851 c 0,5.08392 0.05057,10.09733 0.160528,15.04388 h 39.59368 l 10.05608,-17.44053 3.71514,-0.55026 -1.82316,23.9075 -0.57334,0.48172 c -14.23971,-0.13766 -27.38114,-0.20639 -39.421668,-0.20639 H 77.215809 c -6.652538,0 -13.473757,0.069 -20.456176,0.20639 l -0.332513,-2.95846 10.147828,-2.54551 c 1.374475,-0.32071 2.11452,-1.02203 2.224487,-2.12126 0.05498,-1.83215 0.08026,-3.87887 0.08026,-6.12305 0.05498,-2.29012 0.08026,-4.80832 0.08026,-7.55646 v -55.71556 c 0,-2.33584 -0.02546,-4.44023 -0.08026,-6.31809 0,-1.87786 -0.02546,-3.56823 -0.08026,-5.07948 -0.05498,-1.19092 -0.719165,-1.97284 -1.983692,-2.33916 l -10.228085,-2.68333 z" />
  </g>
</svg>
