<?xml version="1.0" encoding="UTF-8" standalone="no"?>
<!-- Created with Inkscape (http://www.inkscape.org/) -->

<svg
   width="30.346989mm"
   height="38.742844mm"
   viewBox="0 0 30.346989 38.742844"
   version="1.1"
   id="svg5"
   xmlns:inkscape="http://www.inkscape.org/namespaces/inkscape"
   xmlns:sodipodi="http://sodipodi.sourceforge.net/DTD/sodipodi-0.dtd"
   xmlns="http://www.w3.org/2000/svg"
   xmlns:svg="http://www.w3.org/2000/svg">
  <sodipodi:namedview
     id="namedview7"
     pagecolor="#505050"
     bordercolor="#eeeeee"
     borderopacity="1"
     inkscape:showpageshadow="0"
     inkscape:pageopacity="0"
     inkscape:pagecheckerboard="0"
     inkscape:deskcolor="#505050"
     inkscape:document-units="mm"
     showgrid="false" />
  <defs
     id="defs2" />
  <g
     inkscape:label="Layer 1"
     inkscape:groupmode="layer"
     id="layer1"
     transform="translate(-48.62959,-78.244322)">
    <path
       id="rect217"
       style="fill:#ffffff;stroke-width:1.56167"
       d="m 51.43717,78.24432 c -1.55546,0 -2.80758,0.553342 -2.80758,1.240751 v 36.261349 c 0,0.68741 1.25212,1.24075 2.80758,1.24075 h 24.731824 c 1.55546,0 2.807581,-0.55334 2.807581,-1.24075 V 79.485071 c 0,-0.687409 -1.252121,-1.240751 -2.807581,-1.240751 z m -1.019576,2.105814 c 2.315102,0.06615 4.514456,0.09922 6.598047,0.09922 h 6.275586 c 4.018356,0 8.185551,-0.03307 12.501563,-0.09922 l 0.173633,0.198438 -1.537891,8.259961 -1.339453,0.198437 -1.5875,-6.027539 H 61.902165 V 96.15072 h 1.339453 c 1.43867,0 2.984832,-0.01654 4.638476,-0.04961 0.429948,-0.01654 0.711068,-0.239779 0.84336,-0.669727 l 0.892969,-3.398242 1.637109,-0.07441 c -0.04961,2.397784 -0.07441,4.191993 -0.07441,5.382617 0,1.157551 0.02481,2.926952 0.07441,5.308202 l -1.637109,0.12402 -0.917774,-3.497456 C 68.566358,98.829627 68.310042,98.598116 67.929704,98.58158 66.242987,98.548507 64.67202,98.53197 63.216813,98.53197 h -1.314648 v 8.50801 c 0,1.81901 0.01654,3.62148 0.04961,5.40742 h 9.921875 l 3.125391,-6.52363 1.513086,-0.22325 -0.595313,9.27696 -0.173633,0.17363 c -4.117574,-0.0496 -8.127673,-0.0744 -12.030273,-0.0744 h -6.573242 c -2.133201,0 -4.332555,0.0248 -6.598047,0.0744 l -0.124024,-1.24023 3.323829,-0.91778 c 0.413411,-0.11575 0.636653,-0.37207 0.669726,-0.76894 0.01654,-0.66146 0.02481,-1.39733 0.02481,-2.20762 0.01654,-0.82682 0.0248,-1.73633 0.0248,-2.72852 V 87.518689 c 0,-0.826822 -0.0083,-1.579232 -0.0248,-2.257227 0,-0.677994 -0.0083,-1.298112 -0.02481,-1.860351 -0.01654,-0.429948 -0.214974,-0.7028 -0.595312,-0.818555 l -3.323829,-0.967383 z"
       inkscape:export-filename="E2.svg"
       inkscape:export-xdpi="105.90726"
       inkscape:export-ydpi="105.90726" />
  </g>
</svg>
