%TF.GenerationSoftware,KiCad,Pcbnew,10.0.1*%
%TF.CreationDate,2026-05-24T23:26:35-05:00*%
%TF.ProjectId,ESPSauna,45535053-6175-46e6-912e-6b696361645f,rev?*%
%TF.SameCoordinates,Original*%
%TF.FileFunction,Legend,Bot*%
%TF.FilePolarity,Positive*%
%FSLAX46Y46*%
G04 Gerber Fmt 4.6, Leading zero omitted, Abs format (unit mm)*
G04 Created by KiCad (PCBNEW 10.0.1) date 2026-05-24 23:26:35*
%MOMM*%
%LPD*%
G01*
G04 APERTURE LIST*
G04 Aperture macros list*
%AMRoundRect*
0 Rectangle with rounded corners*
0 $1 Rounding radius*
0 $2 $3 $4 $5 $6 $7 $8 $9 X,Y pos of 4 corners*
0 Add a 4 corners polygon primitive as box body*
4,1,4,$2,$3,$4,$5,$6,$7,$8,$9,$2,$3,0*
0 Add four circle primitives for the rounded corners*
1,1,$1+$1,$2,$3*
1,1,$1+$1,$4,$5*
1,1,$1+$1,$6,$7*
1,1,$1+$1,$8,$9*
0 Add four rect primitives between the rounded corners*
20,1,$1+$1,$2,$3,$4,$5,0*
20,1,$1+$1,$4,$5,$6,$7,0*
20,1,$1+$1,$6,$7,$8,$9,0*
20,1,$1+$1,$8,$9,$2,$3,0*%
%AMFreePoly0*
4,1,23,0.500000,-0.750000,0.000000,-0.750000,0.000000,-0.745722,-0.065263,-0.745722,-0.191342,-0.711940,-0.304381,-0.646677,-0.396677,-0.554381,-0.461940,-0.441342,-0.495722,-0.315263,-0.495722,-0.250000,-0.500000,-0.250000,-0.500000,0.250000,-0.495722,0.250000,-0.495722,0.315263,-0.461940,0.441342,-0.396677,0.554381,-0.304381,0.646677,-0.191342,0.711940,-0.065263,0.745722,0.000000,0.745722,
0.000000,0.750000,0.500000,0.750000,0.500000,-0.750000,0.500000,-0.750000,$1*%
%AMFreePoly1*
4,1,23,0.000000,0.745722,0.065263,0.745722,0.191342,0.711940,0.304381,0.646677,0.396677,0.554381,0.461940,0.441342,0.495722,0.315263,0.495722,0.250000,0.500000,0.250000,0.500000,-0.250000,0.495722,-0.250000,0.495722,-0.315263,0.461940,-0.441342,0.396677,-0.554381,0.304381,-0.646677,0.191342,-0.711940,0.065263,-0.745722,0.000000,-0.745722,0.000000,-0.750000,-0.500000,-0.750000,
-0.500000,0.750000,0.000000,0.750000,0.000000,0.745722,0.000000,0.745722,$1*%
G04 Aperture macros list end*
%ADD10C,0.150000*%
%ADD11C,0.200000*%
%ADD12C,0.120000*%
%ADD13C,2.220000*%
%ADD14R,1.700000X1.700000*%
%ADD15C,1.700000*%
%ADD16C,1.300000*%
%ADD17C,2.240000*%
%ADD18C,3.000000*%
%ADD19C,2.204000*%
%ADD20RoundRect,0.102000X1.000000X1.000000X-1.000000X1.000000X-1.000000X-1.000000X1.000000X-1.000000X0*%
%ADD21C,2.300000*%
%ADD22R,1.500000X1.500000*%
%ADD23C,1.500000*%
%ADD24C,1.200000*%
%ADD25O,2.200000X1.200000*%
%ADD26O,1.200000X2.200000*%
%ADD27RoundRect,0.250000X-0.350000X-0.450000X0.350000X-0.450000X0.350000X0.450000X-0.350000X0.450000X0*%
%ADD28RoundRect,0.250000X0.475000X-0.337500X0.475000X0.337500X-0.475000X0.337500X-0.475000X-0.337500X0*%
%ADD29RoundRect,0.250000X0.350000X0.450000X-0.350000X0.450000X-0.350000X-0.450000X0.350000X-0.450000X0*%
%ADD30RoundRect,0.150000X-0.150000X0.587500X-0.150000X-0.587500X0.150000X-0.587500X0.150000X0.587500X0*%
%ADD31RoundRect,0.150000X0.587500X0.150000X-0.587500X0.150000X-0.587500X-0.150000X0.587500X-0.150000X0*%
%ADD32RoundRect,0.250000X0.337500X0.475000X-0.337500X0.475000X-0.337500X-0.475000X0.337500X-0.475000X0*%
%ADD33RoundRect,0.150000X0.150000X-0.587500X0.150000X0.587500X-0.150000X0.587500X-0.150000X-0.587500X0*%
%ADD34FreePoly0,0.000000*%
%ADD35FreePoly1,0.000000*%
%ADD36RoundRect,0.250000X0.450000X-0.350000X0.450000X0.350000X-0.450000X0.350000X-0.450000X-0.350000X0*%
G04 APERTURE END LIST*
D10*
X95015601Y-118171190D02*
X94301316Y-118171190D01*
X95158458Y-118599761D02*
X94658458Y-117099761D01*
X94658458Y-117099761D02*
X94158458Y-118599761D01*
X92801316Y-118456904D02*
X92872744Y-118528333D01*
X92872744Y-118528333D02*
X93087030Y-118599761D01*
X93087030Y-118599761D02*
X93229887Y-118599761D01*
X93229887Y-118599761D02*
X93444173Y-118528333D01*
X93444173Y-118528333D02*
X93587030Y-118385475D01*
X93587030Y-118385475D02*
X93658459Y-118242618D01*
X93658459Y-118242618D02*
X93729887Y-117956904D01*
X93729887Y-117956904D02*
X93729887Y-117742618D01*
X93729887Y-117742618D02*
X93658459Y-117456904D01*
X93658459Y-117456904D02*
X93587030Y-117314047D01*
X93587030Y-117314047D02*
X93444173Y-117171190D01*
X93444173Y-117171190D02*
X93229887Y-117099761D01*
X93229887Y-117099761D02*
X93087030Y-117099761D01*
X93087030Y-117099761D02*
X92872744Y-117171190D01*
X92872744Y-117171190D02*
X92801316Y-117242618D01*
X92229887Y-117242618D02*
X92158459Y-117171190D01*
X92158459Y-117171190D02*
X92015602Y-117099761D01*
X92015602Y-117099761D02*
X91658459Y-117099761D01*
X91658459Y-117099761D02*
X91515602Y-117171190D01*
X91515602Y-117171190D02*
X91444173Y-117242618D01*
X91444173Y-117242618D02*
X91372744Y-117385475D01*
X91372744Y-117385475D02*
X91372744Y-117528333D01*
X91372744Y-117528333D02*
X91444173Y-117742618D01*
X91444173Y-117742618D02*
X92301316Y-118599761D01*
X92301316Y-118599761D02*
X91372744Y-118599761D01*
X94915601Y-111980057D02*
X94201316Y-111980057D01*
X95058458Y-112408628D02*
X94558458Y-110908628D01*
X94558458Y-110908628D02*
X94058458Y-112408628D01*
X92701316Y-112265771D02*
X92772744Y-112337200D01*
X92772744Y-112337200D02*
X92987030Y-112408628D01*
X92987030Y-112408628D02*
X93129887Y-112408628D01*
X93129887Y-112408628D02*
X93344173Y-112337200D01*
X93344173Y-112337200D02*
X93487030Y-112194342D01*
X93487030Y-112194342D02*
X93558459Y-112051485D01*
X93558459Y-112051485D02*
X93629887Y-111765771D01*
X93629887Y-111765771D02*
X93629887Y-111551485D01*
X93629887Y-111551485D02*
X93558459Y-111265771D01*
X93558459Y-111265771D02*
X93487030Y-111122914D01*
X93487030Y-111122914D02*
X93344173Y-110980057D01*
X93344173Y-110980057D02*
X93129887Y-110908628D01*
X93129887Y-110908628D02*
X92987030Y-110908628D01*
X92987030Y-110908628D02*
X92772744Y-110980057D01*
X92772744Y-110980057D02*
X92701316Y-111051485D01*
X91272744Y-112408628D02*
X92129887Y-112408628D01*
X91701316Y-112408628D02*
X91701316Y-110908628D01*
X91701316Y-110908628D02*
X91844173Y-111122914D01*
X91844173Y-111122914D02*
X91987030Y-111265771D01*
X91987030Y-111265771D02*
X92129887Y-111337200D01*
X128563220Y-117869819D02*
X128563220Y-116869819D01*
X128563220Y-116869819D02*
X127991792Y-117869819D01*
X127991792Y-117869819D02*
X127991792Y-116869819D01*
X127325125Y-116869819D02*
X127134649Y-116869819D01*
X127134649Y-116869819D02*
X127039411Y-116917438D01*
X127039411Y-116917438D02*
X126944173Y-117012676D01*
X126944173Y-117012676D02*
X126896554Y-117203152D01*
X126896554Y-117203152D02*
X126896554Y-117536485D01*
X126896554Y-117536485D02*
X126944173Y-117726961D01*
X126944173Y-117726961D02*
X127039411Y-117822200D01*
X127039411Y-117822200D02*
X127134649Y-117869819D01*
X127134649Y-117869819D02*
X127325125Y-117869819D01*
X127325125Y-117869819D02*
X127420363Y-117822200D01*
X127420363Y-117822200D02*
X127515601Y-117726961D01*
X127515601Y-117726961D02*
X127563220Y-117536485D01*
X127563220Y-117536485D02*
X127563220Y-117203152D01*
X127563220Y-117203152D02*
X127515601Y-117012676D01*
X127515601Y-117012676D02*
X127420363Y-116917438D01*
X127420363Y-116917438D02*
X127325125Y-116869819D01*
X128663220Y-121569819D02*
X128663220Y-120569819D01*
X128663220Y-120569819D02*
X128091792Y-121569819D01*
X128091792Y-121569819D02*
X128091792Y-120569819D01*
X127044173Y-121474580D02*
X127091792Y-121522200D01*
X127091792Y-121522200D02*
X127234649Y-121569819D01*
X127234649Y-121569819D02*
X127329887Y-121569819D01*
X127329887Y-121569819D02*
X127472744Y-121522200D01*
X127472744Y-121522200D02*
X127567982Y-121426961D01*
X127567982Y-121426961D02*
X127615601Y-121331723D01*
X127615601Y-121331723D02*
X127663220Y-121141247D01*
X127663220Y-121141247D02*
X127663220Y-120998390D01*
X127663220Y-120998390D02*
X127615601Y-120807914D01*
X127615601Y-120807914D02*
X127567982Y-120712676D01*
X127567982Y-120712676D02*
X127472744Y-120617438D01*
X127472744Y-120617438D02*
X127329887Y-120569819D01*
X127329887Y-120569819D02*
X127234649Y-120569819D01*
X127234649Y-120569819D02*
X127091792Y-120617438D01*
X127091792Y-120617438D02*
X127044173Y-120665057D01*
X144791792Y-118174580D02*
X144839411Y-118222200D01*
X144839411Y-118222200D02*
X144982268Y-118269819D01*
X144982268Y-118269819D02*
X145077506Y-118269819D01*
X145077506Y-118269819D02*
X145220363Y-118222200D01*
X145220363Y-118222200D02*
X145315601Y-118126961D01*
X145315601Y-118126961D02*
X145363220Y-118031723D01*
X145363220Y-118031723D02*
X145410839Y-117841247D01*
X145410839Y-117841247D02*
X145410839Y-117698390D01*
X145410839Y-117698390D02*
X145363220Y-117507914D01*
X145363220Y-117507914D02*
X145315601Y-117412676D01*
X145315601Y-117412676D02*
X145220363Y-117317438D01*
X145220363Y-117317438D02*
X145077506Y-117269819D01*
X145077506Y-117269819D02*
X144982268Y-117269819D01*
X144982268Y-117269819D02*
X144839411Y-117317438D01*
X144839411Y-117317438D02*
X144791792Y-117365057D01*
X144172744Y-117269819D02*
X143982268Y-117269819D01*
X143982268Y-117269819D02*
X143887030Y-117317438D01*
X143887030Y-117317438D02*
X143791792Y-117412676D01*
X143791792Y-117412676D02*
X143744173Y-117603152D01*
X143744173Y-117603152D02*
X143744173Y-117936485D01*
X143744173Y-117936485D02*
X143791792Y-118126961D01*
X143791792Y-118126961D02*
X143887030Y-118222200D01*
X143887030Y-118222200D02*
X143982268Y-118269819D01*
X143982268Y-118269819D02*
X144172744Y-118269819D01*
X144172744Y-118269819D02*
X144267982Y-118222200D01*
X144267982Y-118222200D02*
X144363220Y-118126961D01*
X144363220Y-118126961D02*
X144410839Y-117936485D01*
X144410839Y-117936485D02*
X144410839Y-117603152D01*
X144410839Y-117603152D02*
X144363220Y-117412676D01*
X144363220Y-117412676D02*
X144267982Y-117317438D01*
X144267982Y-117317438D02*
X144172744Y-117269819D01*
X143315601Y-118269819D02*
X143315601Y-117269819D01*
X143315601Y-117269819D02*
X142982268Y-117984104D01*
X142982268Y-117984104D02*
X142648935Y-117269819D01*
X142648935Y-117269819D02*
X142648935Y-118269819D01*
X123591792Y-116274580D02*
X123639411Y-116322200D01*
X123639411Y-116322200D02*
X123782268Y-116369819D01*
X123782268Y-116369819D02*
X123877506Y-116369819D01*
X123877506Y-116369819D02*
X124020363Y-116322200D01*
X124020363Y-116322200D02*
X124115601Y-116226961D01*
X124115601Y-116226961D02*
X124163220Y-116131723D01*
X124163220Y-116131723D02*
X124210839Y-115941247D01*
X124210839Y-115941247D02*
X124210839Y-115798390D01*
X124210839Y-115798390D02*
X124163220Y-115607914D01*
X124163220Y-115607914D02*
X124115601Y-115512676D01*
X124115601Y-115512676D02*
X124020363Y-115417438D01*
X124020363Y-115417438D02*
X123877506Y-115369819D01*
X123877506Y-115369819D02*
X123782268Y-115369819D01*
X123782268Y-115369819D02*
X123639411Y-115417438D01*
X123639411Y-115417438D02*
X123591792Y-115465057D01*
X122972744Y-115369819D02*
X122782268Y-115369819D01*
X122782268Y-115369819D02*
X122687030Y-115417438D01*
X122687030Y-115417438D02*
X122591792Y-115512676D01*
X122591792Y-115512676D02*
X122544173Y-115703152D01*
X122544173Y-115703152D02*
X122544173Y-116036485D01*
X122544173Y-116036485D02*
X122591792Y-116226961D01*
X122591792Y-116226961D02*
X122687030Y-116322200D01*
X122687030Y-116322200D02*
X122782268Y-116369819D01*
X122782268Y-116369819D02*
X122972744Y-116369819D01*
X122972744Y-116369819D02*
X123067982Y-116322200D01*
X123067982Y-116322200D02*
X123163220Y-116226961D01*
X123163220Y-116226961D02*
X123210839Y-116036485D01*
X123210839Y-116036485D02*
X123210839Y-115703152D01*
X123210839Y-115703152D02*
X123163220Y-115512676D01*
X123163220Y-115512676D02*
X123067982Y-115417438D01*
X123067982Y-115417438D02*
X122972744Y-115369819D01*
X122115601Y-116369819D02*
X122115601Y-115369819D01*
X122115601Y-115369819D02*
X121782268Y-116084104D01*
X121782268Y-116084104D02*
X121448935Y-115369819D01*
X121448935Y-115369819D02*
X121448935Y-116369819D01*
X104463220Y-120469819D02*
X104463220Y-119469819D01*
X104463220Y-119469819D02*
X103891792Y-120469819D01*
X103891792Y-120469819D02*
X103891792Y-119469819D01*
X102844173Y-120374580D02*
X102891792Y-120422200D01*
X102891792Y-120422200D02*
X103034649Y-120469819D01*
X103034649Y-120469819D02*
X103129887Y-120469819D01*
X103129887Y-120469819D02*
X103272744Y-120422200D01*
X103272744Y-120422200D02*
X103367982Y-120326961D01*
X103367982Y-120326961D02*
X103415601Y-120231723D01*
X103415601Y-120231723D02*
X103463220Y-120041247D01*
X103463220Y-120041247D02*
X103463220Y-119898390D01*
X103463220Y-119898390D02*
X103415601Y-119707914D01*
X103415601Y-119707914D02*
X103367982Y-119612676D01*
X103367982Y-119612676D02*
X103272744Y-119517438D01*
X103272744Y-119517438D02*
X103129887Y-119469819D01*
X103129887Y-119469819D02*
X103034649Y-119469819D01*
X103034649Y-119469819D02*
X102891792Y-119517438D01*
X102891792Y-119517438D02*
X102844173Y-119565057D01*
X104763220Y-117669819D02*
X104763220Y-116669819D01*
X104763220Y-116669819D02*
X104191792Y-117669819D01*
X104191792Y-117669819D02*
X104191792Y-116669819D01*
X103525125Y-116669819D02*
X103334649Y-116669819D01*
X103334649Y-116669819D02*
X103239411Y-116717438D01*
X103239411Y-116717438D02*
X103144173Y-116812676D01*
X103144173Y-116812676D02*
X103096554Y-117003152D01*
X103096554Y-117003152D02*
X103096554Y-117336485D01*
X103096554Y-117336485D02*
X103144173Y-117526961D01*
X103144173Y-117526961D02*
X103239411Y-117622200D01*
X103239411Y-117622200D02*
X103334649Y-117669819D01*
X103334649Y-117669819D02*
X103525125Y-117669819D01*
X103525125Y-117669819D02*
X103620363Y-117622200D01*
X103620363Y-117622200D02*
X103715601Y-117526961D01*
X103715601Y-117526961D02*
X103763220Y-117336485D01*
X103763220Y-117336485D02*
X103763220Y-117003152D01*
X103763220Y-117003152D02*
X103715601Y-116812676D01*
X103715601Y-116812676D02*
X103620363Y-116717438D01*
X103620363Y-116717438D02*
X103525125Y-116669819D01*
X147444173Y-110037200D02*
X146301316Y-110037200D01*
X146872744Y-110608628D02*
X146872744Y-109465771D01*
X145729887Y-109108628D02*
X144801315Y-109108628D01*
X144801315Y-109108628D02*
X145301315Y-109680057D01*
X145301315Y-109680057D02*
X145087030Y-109680057D01*
X145087030Y-109680057D02*
X144944173Y-109751485D01*
X144944173Y-109751485D02*
X144872744Y-109822914D01*
X144872744Y-109822914D02*
X144801315Y-109965771D01*
X144801315Y-109965771D02*
X144801315Y-110322914D01*
X144801315Y-110322914D02*
X144872744Y-110465771D01*
X144872744Y-110465771D02*
X144944173Y-110537200D01*
X144944173Y-110537200D02*
X145087030Y-110608628D01*
X145087030Y-110608628D02*
X145515601Y-110608628D01*
X145515601Y-110608628D02*
X145658458Y-110537200D01*
X145658458Y-110537200D02*
X145729887Y-110465771D01*
X144372744Y-109108628D02*
X143872744Y-110608628D01*
X143872744Y-110608628D02*
X143372744Y-109108628D01*
X143015602Y-109108628D02*
X142087030Y-109108628D01*
X142087030Y-109108628D02*
X142587030Y-109680057D01*
X142587030Y-109680057D02*
X142372745Y-109680057D01*
X142372745Y-109680057D02*
X142229888Y-109751485D01*
X142229888Y-109751485D02*
X142158459Y-109822914D01*
X142158459Y-109822914D02*
X142087030Y-109965771D01*
X142087030Y-109965771D02*
X142087030Y-110322914D01*
X142087030Y-110322914D02*
X142158459Y-110465771D01*
X142158459Y-110465771D02*
X142229888Y-110537200D01*
X142229888Y-110537200D02*
X142372745Y-110608628D01*
X142372745Y-110608628D02*
X142801316Y-110608628D01*
X142801316Y-110608628D02*
X142944173Y-110537200D01*
X142944173Y-110537200D02*
X143015602Y-110465771D01*
X157791792Y-95374580D02*
X157839411Y-95422200D01*
X157839411Y-95422200D02*
X157982268Y-95469819D01*
X157982268Y-95469819D02*
X158077506Y-95469819D01*
X158077506Y-95469819D02*
X158220363Y-95422200D01*
X158220363Y-95422200D02*
X158315601Y-95326961D01*
X158315601Y-95326961D02*
X158363220Y-95231723D01*
X158363220Y-95231723D02*
X158410839Y-95041247D01*
X158410839Y-95041247D02*
X158410839Y-94898390D01*
X158410839Y-94898390D02*
X158363220Y-94707914D01*
X158363220Y-94707914D02*
X158315601Y-94612676D01*
X158315601Y-94612676D02*
X158220363Y-94517438D01*
X158220363Y-94517438D02*
X158077506Y-94469819D01*
X158077506Y-94469819D02*
X157982268Y-94469819D01*
X157982268Y-94469819D02*
X157839411Y-94517438D01*
X157839411Y-94517438D02*
X157791792Y-94565057D01*
X156934649Y-94803152D02*
X156934649Y-95469819D01*
X157363220Y-94803152D02*
X157363220Y-95326961D01*
X157363220Y-95326961D02*
X157315601Y-95422200D01*
X157315601Y-95422200D02*
X157220363Y-95469819D01*
X157220363Y-95469819D02*
X157077506Y-95469819D01*
X157077506Y-95469819D02*
X156982268Y-95422200D01*
X156982268Y-95422200D02*
X156934649Y-95374580D01*
X156458458Y-95469819D02*
X156458458Y-94803152D01*
X156458458Y-94993628D02*
X156410839Y-94898390D01*
X156410839Y-94898390D02*
X156363220Y-94850771D01*
X156363220Y-94850771D02*
X156267982Y-94803152D01*
X156267982Y-94803152D02*
X156172744Y-94803152D01*
X155839410Y-95469819D02*
X155839410Y-94803152D01*
X155839410Y-94993628D02*
X155791791Y-94898390D01*
X155791791Y-94898390D02*
X155744172Y-94850771D01*
X155744172Y-94850771D02*
X155648934Y-94803152D01*
X155648934Y-94803152D02*
X155553696Y-94803152D01*
X154839410Y-95422200D02*
X154934648Y-95469819D01*
X154934648Y-95469819D02*
X155125124Y-95469819D01*
X155125124Y-95469819D02*
X155220362Y-95422200D01*
X155220362Y-95422200D02*
X155267981Y-95326961D01*
X155267981Y-95326961D02*
X155267981Y-94946009D01*
X155267981Y-94946009D02*
X155220362Y-94850771D01*
X155220362Y-94850771D02*
X155125124Y-94803152D01*
X155125124Y-94803152D02*
X154934648Y-94803152D01*
X154934648Y-94803152D02*
X154839410Y-94850771D01*
X154839410Y-94850771D02*
X154791791Y-94946009D01*
X154791791Y-94946009D02*
X154791791Y-95041247D01*
X154791791Y-95041247D02*
X155267981Y-95136485D01*
X154363219Y-94803152D02*
X154363219Y-95469819D01*
X154363219Y-94898390D02*
X154315600Y-94850771D01*
X154315600Y-94850771D02*
X154220362Y-94803152D01*
X154220362Y-94803152D02*
X154077505Y-94803152D01*
X154077505Y-94803152D02*
X153982267Y-94850771D01*
X153982267Y-94850771D02*
X153934648Y-94946009D01*
X153934648Y-94946009D02*
X153934648Y-95469819D01*
X153601314Y-94803152D02*
X153220362Y-94803152D01*
X153458457Y-94469819D02*
X153458457Y-95326961D01*
X153458457Y-95326961D02*
X153410838Y-95422200D01*
X153410838Y-95422200D02*
X153315600Y-95469819D01*
X153315600Y-95469819D02*
X153220362Y-95469819D01*
X152172742Y-95422200D02*
X152029885Y-95469819D01*
X152029885Y-95469819D02*
X151791790Y-95469819D01*
X151791790Y-95469819D02*
X151696552Y-95422200D01*
X151696552Y-95422200D02*
X151648933Y-95374580D01*
X151648933Y-95374580D02*
X151601314Y-95279342D01*
X151601314Y-95279342D02*
X151601314Y-95184104D01*
X151601314Y-95184104D02*
X151648933Y-95088866D01*
X151648933Y-95088866D02*
X151696552Y-95041247D01*
X151696552Y-95041247D02*
X151791790Y-94993628D01*
X151791790Y-94993628D02*
X151982266Y-94946009D01*
X151982266Y-94946009D02*
X152077504Y-94898390D01*
X152077504Y-94898390D02*
X152125123Y-94850771D01*
X152125123Y-94850771D02*
X152172742Y-94755533D01*
X152172742Y-94755533D02*
X152172742Y-94660295D01*
X152172742Y-94660295D02*
X152125123Y-94565057D01*
X152125123Y-94565057D02*
X152077504Y-94517438D01*
X152077504Y-94517438D02*
X151982266Y-94469819D01*
X151982266Y-94469819D02*
X151744171Y-94469819D01*
X151744171Y-94469819D02*
X151601314Y-94517438D01*
X150791790Y-95422200D02*
X150887028Y-95469819D01*
X150887028Y-95469819D02*
X151077504Y-95469819D01*
X151077504Y-95469819D02*
X151172742Y-95422200D01*
X151172742Y-95422200D02*
X151220361Y-95326961D01*
X151220361Y-95326961D02*
X151220361Y-94946009D01*
X151220361Y-94946009D02*
X151172742Y-94850771D01*
X151172742Y-94850771D02*
X151077504Y-94803152D01*
X151077504Y-94803152D02*
X150887028Y-94803152D01*
X150887028Y-94803152D02*
X150791790Y-94850771D01*
X150791790Y-94850771D02*
X150744171Y-94946009D01*
X150744171Y-94946009D02*
X150744171Y-95041247D01*
X150744171Y-95041247D02*
X151220361Y-95136485D01*
X150315599Y-94803152D02*
X150315599Y-95469819D01*
X150315599Y-94898390D02*
X150267980Y-94850771D01*
X150267980Y-94850771D02*
X150172742Y-94803152D01*
X150172742Y-94803152D02*
X150029885Y-94803152D01*
X150029885Y-94803152D02*
X149934647Y-94850771D01*
X149934647Y-94850771D02*
X149887028Y-94946009D01*
X149887028Y-94946009D02*
X149887028Y-95469819D01*
X149458456Y-95422200D02*
X149363218Y-95469819D01*
X149363218Y-95469819D02*
X149172742Y-95469819D01*
X149172742Y-95469819D02*
X149077504Y-95422200D01*
X149077504Y-95422200D02*
X149029885Y-95326961D01*
X149029885Y-95326961D02*
X149029885Y-95279342D01*
X149029885Y-95279342D02*
X149077504Y-95184104D01*
X149077504Y-95184104D02*
X149172742Y-95136485D01*
X149172742Y-95136485D02*
X149315599Y-95136485D01*
X149315599Y-95136485D02*
X149410837Y-95088866D01*
X149410837Y-95088866D02*
X149458456Y-94993628D01*
X149458456Y-94993628D02*
X149458456Y-94946009D01*
X149458456Y-94946009D02*
X149410837Y-94850771D01*
X149410837Y-94850771D02*
X149315599Y-94803152D01*
X149315599Y-94803152D02*
X149172742Y-94803152D01*
X149172742Y-94803152D02*
X149077504Y-94850771D01*
X148220361Y-95422200D02*
X148315599Y-95469819D01*
X148315599Y-95469819D02*
X148506075Y-95469819D01*
X148506075Y-95469819D02*
X148601313Y-95422200D01*
X148601313Y-95422200D02*
X148648932Y-95326961D01*
X148648932Y-95326961D02*
X148648932Y-94946009D01*
X148648932Y-94946009D02*
X148601313Y-94850771D01*
X148601313Y-94850771D02*
X148506075Y-94803152D01*
X148506075Y-94803152D02*
X148315599Y-94803152D01*
X148315599Y-94803152D02*
X148220361Y-94850771D01*
X148220361Y-94850771D02*
X148172742Y-94946009D01*
X148172742Y-94946009D02*
X148172742Y-95041247D01*
X148172742Y-95041247D02*
X148648932Y-95136485D01*
X153963220Y-77469819D02*
X153963220Y-76469819D01*
X153963220Y-76469819D02*
X153725125Y-76469819D01*
X153725125Y-76469819D02*
X153582268Y-76517438D01*
X153582268Y-76517438D02*
X153487030Y-76612676D01*
X153487030Y-76612676D02*
X153439411Y-76707914D01*
X153439411Y-76707914D02*
X153391792Y-76898390D01*
X153391792Y-76898390D02*
X153391792Y-77041247D01*
X153391792Y-77041247D02*
X153439411Y-77231723D01*
X153439411Y-77231723D02*
X153487030Y-77326961D01*
X153487030Y-77326961D02*
X153582268Y-77422200D01*
X153582268Y-77422200D02*
X153725125Y-77469819D01*
X153725125Y-77469819D02*
X153963220Y-77469819D01*
X152963220Y-77469819D02*
X152963220Y-76469819D01*
X152963220Y-76946009D02*
X152391792Y-76946009D01*
X152391792Y-77469819D02*
X152391792Y-76469819D01*
X152058458Y-76469819D02*
X151487030Y-76469819D01*
X151772744Y-77469819D02*
X151772744Y-76469819D01*
X151201315Y-76565057D02*
X151153696Y-76517438D01*
X151153696Y-76517438D02*
X151058458Y-76469819D01*
X151058458Y-76469819D02*
X150820363Y-76469819D01*
X150820363Y-76469819D02*
X150725125Y-76517438D01*
X150725125Y-76517438D02*
X150677506Y-76565057D01*
X150677506Y-76565057D02*
X150629887Y-76660295D01*
X150629887Y-76660295D02*
X150629887Y-76755533D01*
X150629887Y-76755533D02*
X150677506Y-76898390D01*
X150677506Y-76898390D02*
X151248934Y-77469819D01*
X151248934Y-77469819D02*
X150629887Y-77469819D01*
X150248934Y-76565057D02*
X150201315Y-76517438D01*
X150201315Y-76517438D02*
X150106077Y-76469819D01*
X150106077Y-76469819D02*
X149867982Y-76469819D01*
X149867982Y-76469819D02*
X149772744Y-76517438D01*
X149772744Y-76517438D02*
X149725125Y-76565057D01*
X149725125Y-76565057D02*
X149677506Y-76660295D01*
X149677506Y-76660295D02*
X149677506Y-76755533D01*
X149677506Y-76755533D02*
X149725125Y-76898390D01*
X149725125Y-76898390D02*
X150296553Y-77469819D01*
X150296553Y-77469819D02*
X149677506Y-77469819D01*
X158110839Y-65122200D02*
X157967982Y-65169819D01*
X157967982Y-65169819D02*
X157729887Y-65169819D01*
X157729887Y-65169819D02*
X157634649Y-65122200D01*
X157634649Y-65122200D02*
X157587030Y-65074580D01*
X157587030Y-65074580D02*
X157539411Y-64979342D01*
X157539411Y-64979342D02*
X157539411Y-64884104D01*
X157539411Y-64884104D02*
X157587030Y-64788866D01*
X157587030Y-64788866D02*
X157634649Y-64741247D01*
X157634649Y-64741247D02*
X157729887Y-64693628D01*
X157729887Y-64693628D02*
X157920363Y-64646009D01*
X157920363Y-64646009D02*
X158015601Y-64598390D01*
X158015601Y-64598390D02*
X158063220Y-64550771D01*
X158063220Y-64550771D02*
X158110839Y-64455533D01*
X158110839Y-64455533D02*
X158110839Y-64360295D01*
X158110839Y-64360295D02*
X158063220Y-64265057D01*
X158063220Y-64265057D02*
X158015601Y-64217438D01*
X158015601Y-64217438D02*
X157920363Y-64169819D01*
X157920363Y-64169819D02*
X157682268Y-64169819D01*
X157682268Y-64169819D02*
X157539411Y-64217438D01*
X157110839Y-65169819D02*
X157110839Y-64169819D01*
X157110839Y-64646009D02*
X156539411Y-64646009D01*
X156539411Y-65169819D02*
X156539411Y-64169819D01*
X156206077Y-64169819D02*
X155634649Y-64169819D01*
X155920363Y-65169819D02*
X155920363Y-64169819D01*
X154872744Y-64503152D02*
X154872744Y-65169819D01*
X155110839Y-64122200D02*
X155348934Y-64836485D01*
X155348934Y-64836485D02*
X154729887Y-64836485D01*
X153872744Y-64169819D02*
X154348934Y-64169819D01*
X154348934Y-64169819D02*
X154396553Y-64646009D01*
X154396553Y-64646009D02*
X154348934Y-64598390D01*
X154348934Y-64598390D02*
X154253696Y-64550771D01*
X154253696Y-64550771D02*
X154015601Y-64550771D01*
X154015601Y-64550771D02*
X153920363Y-64598390D01*
X153920363Y-64598390D02*
X153872744Y-64646009D01*
X153872744Y-64646009D02*
X153825125Y-64741247D01*
X153825125Y-64741247D02*
X153825125Y-64979342D01*
X153825125Y-64979342D02*
X153872744Y-65074580D01*
X153872744Y-65074580D02*
X153920363Y-65122200D01*
X153920363Y-65122200D02*
X154015601Y-65169819D01*
X154015601Y-65169819D02*
X154253696Y-65169819D01*
X154253696Y-65169819D02*
X154348934Y-65122200D01*
X154348934Y-65122200D02*
X154396553Y-65074580D01*
X111444173Y-61637200D02*
X110301316Y-61637200D01*
X110872744Y-62208628D02*
X110872744Y-61065771D01*
X108801315Y-62208628D02*
X109658458Y-62208628D01*
X109229887Y-62208628D02*
X109229887Y-60708628D01*
X109229887Y-60708628D02*
X109372744Y-60922914D01*
X109372744Y-60922914D02*
X109515601Y-61065771D01*
X109515601Y-61065771D02*
X109658458Y-61137200D01*
X108229887Y-60851485D02*
X108158459Y-60780057D01*
X108158459Y-60780057D02*
X108015602Y-60708628D01*
X108015602Y-60708628D02*
X107658459Y-60708628D01*
X107658459Y-60708628D02*
X107515602Y-60780057D01*
X107515602Y-60780057D02*
X107444173Y-60851485D01*
X107444173Y-60851485D02*
X107372744Y-60994342D01*
X107372744Y-60994342D02*
X107372744Y-61137200D01*
X107372744Y-61137200D02*
X107444173Y-61351485D01*
X107444173Y-61351485D02*
X108301316Y-62208628D01*
X108301316Y-62208628D02*
X107372744Y-62208628D01*
X106944173Y-60708628D02*
X106444173Y-62208628D01*
X106444173Y-62208628D02*
X105944173Y-60708628D01*
X97158458Y-60780057D02*
X97301316Y-60708628D01*
X97301316Y-60708628D02*
X97515601Y-60708628D01*
X97515601Y-60708628D02*
X97729887Y-60780057D01*
X97729887Y-60780057D02*
X97872744Y-60922914D01*
X97872744Y-60922914D02*
X97944173Y-61065771D01*
X97944173Y-61065771D02*
X98015601Y-61351485D01*
X98015601Y-61351485D02*
X98015601Y-61565771D01*
X98015601Y-61565771D02*
X97944173Y-61851485D01*
X97944173Y-61851485D02*
X97872744Y-61994342D01*
X97872744Y-61994342D02*
X97729887Y-62137200D01*
X97729887Y-62137200D02*
X97515601Y-62208628D01*
X97515601Y-62208628D02*
X97372744Y-62208628D01*
X97372744Y-62208628D02*
X97158458Y-62137200D01*
X97158458Y-62137200D02*
X97087030Y-62065771D01*
X97087030Y-62065771D02*
X97087030Y-61565771D01*
X97087030Y-61565771D02*
X97372744Y-61565771D01*
X96444173Y-62208628D02*
X96444173Y-60708628D01*
X96444173Y-60708628D02*
X95587030Y-62208628D01*
X95587030Y-62208628D02*
X95587030Y-60708628D01*
X94872744Y-62208628D02*
X94872744Y-60708628D01*
X94872744Y-60708628D02*
X94515601Y-60708628D01*
X94515601Y-60708628D02*
X94301315Y-60780057D01*
X94301315Y-60780057D02*
X94158458Y-60922914D01*
X94158458Y-60922914D02*
X94087029Y-61065771D01*
X94087029Y-61065771D02*
X94015601Y-61351485D01*
X94015601Y-61351485D02*
X94015601Y-61565771D01*
X94015601Y-61565771D02*
X94087029Y-61851485D01*
X94087029Y-61851485D02*
X94158458Y-61994342D01*
X94158458Y-61994342D02*
X94301315Y-62137200D01*
X94301315Y-62137200D02*
X94515601Y-62208628D01*
X94515601Y-62208628D02*
X94872744Y-62208628D01*
D11*
X114857143Y-77177331D02*
X114190476Y-77177331D01*
X113904762Y-78224950D02*
X114857143Y-78224950D01*
X114857143Y-78224950D02*
X114857143Y-76224950D01*
X114857143Y-76224950D02*
X113904762Y-76224950D01*
X113142857Y-78129712D02*
X112857143Y-78224950D01*
X112857143Y-78224950D02*
X112380952Y-78224950D01*
X112380952Y-78224950D02*
X112190476Y-78129712D01*
X112190476Y-78129712D02*
X112095238Y-78034473D01*
X112095238Y-78034473D02*
X112000000Y-77843997D01*
X112000000Y-77843997D02*
X112000000Y-77653521D01*
X112000000Y-77653521D02*
X112095238Y-77463045D01*
X112095238Y-77463045D02*
X112190476Y-77367807D01*
X112190476Y-77367807D02*
X112380952Y-77272569D01*
X112380952Y-77272569D02*
X112761905Y-77177331D01*
X112761905Y-77177331D02*
X112952381Y-77082092D01*
X112952381Y-77082092D02*
X113047619Y-76986854D01*
X113047619Y-76986854D02*
X113142857Y-76796378D01*
X113142857Y-76796378D02*
X113142857Y-76605902D01*
X113142857Y-76605902D02*
X113047619Y-76415426D01*
X113047619Y-76415426D02*
X112952381Y-76320188D01*
X112952381Y-76320188D02*
X112761905Y-76224950D01*
X112761905Y-76224950D02*
X112285714Y-76224950D01*
X112285714Y-76224950D02*
X112000000Y-76320188D01*
X111142857Y-78224950D02*
X111142857Y-76224950D01*
X111142857Y-76224950D02*
X110380952Y-76224950D01*
X110380952Y-76224950D02*
X110190476Y-76320188D01*
X110190476Y-76320188D02*
X110095238Y-76415426D01*
X110095238Y-76415426D02*
X110000000Y-76605902D01*
X110000000Y-76605902D02*
X110000000Y-76891616D01*
X110000000Y-76891616D02*
X110095238Y-77082092D01*
X110095238Y-77082092D02*
X110190476Y-77177331D01*
X110190476Y-77177331D02*
X110380952Y-77272569D01*
X110380952Y-77272569D02*
X111142857Y-77272569D01*
X109238095Y-78129712D02*
X108952381Y-78224950D01*
X108952381Y-78224950D02*
X108476190Y-78224950D01*
X108476190Y-78224950D02*
X108285714Y-78129712D01*
X108285714Y-78129712D02*
X108190476Y-78034473D01*
X108190476Y-78034473D02*
X108095238Y-77843997D01*
X108095238Y-77843997D02*
X108095238Y-77653521D01*
X108095238Y-77653521D02*
X108190476Y-77463045D01*
X108190476Y-77463045D02*
X108285714Y-77367807D01*
X108285714Y-77367807D02*
X108476190Y-77272569D01*
X108476190Y-77272569D02*
X108857143Y-77177331D01*
X108857143Y-77177331D02*
X109047619Y-77082092D01*
X109047619Y-77082092D02*
X109142857Y-76986854D01*
X109142857Y-76986854D02*
X109238095Y-76796378D01*
X109238095Y-76796378D02*
X109238095Y-76605902D01*
X109238095Y-76605902D02*
X109142857Y-76415426D01*
X109142857Y-76415426D02*
X109047619Y-76320188D01*
X109047619Y-76320188D02*
X108857143Y-76224950D01*
X108857143Y-76224950D02*
X108380952Y-76224950D01*
X108380952Y-76224950D02*
X108095238Y-76320188D01*
X106380952Y-78224950D02*
X106380952Y-77177331D01*
X106380952Y-77177331D02*
X106476190Y-76986854D01*
X106476190Y-76986854D02*
X106666666Y-76891616D01*
X106666666Y-76891616D02*
X107047619Y-76891616D01*
X107047619Y-76891616D02*
X107238095Y-76986854D01*
X106380952Y-78129712D02*
X106571428Y-78224950D01*
X106571428Y-78224950D02*
X107047619Y-78224950D01*
X107047619Y-78224950D02*
X107238095Y-78129712D01*
X107238095Y-78129712D02*
X107333333Y-77939235D01*
X107333333Y-77939235D02*
X107333333Y-77748759D01*
X107333333Y-77748759D02*
X107238095Y-77558283D01*
X107238095Y-77558283D02*
X107047619Y-77463045D01*
X107047619Y-77463045D02*
X106571428Y-77463045D01*
X106571428Y-77463045D02*
X106380952Y-77367807D01*
X104571428Y-76891616D02*
X104571428Y-78224950D01*
X105428571Y-76891616D02*
X105428571Y-77939235D01*
X105428571Y-77939235D02*
X105333333Y-78129712D01*
X105333333Y-78129712D02*
X105142857Y-78224950D01*
X105142857Y-78224950D02*
X104857142Y-78224950D01*
X104857142Y-78224950D02*
X104666666Y-78129712D01*
X104666666Y-78129712D02*
X104571428Y-78034473D01*
X103619047Y-76891616D02*
X103619047Y-78224950D01*
X103619047Y-77082092D02*
X103523809Y-76986854D01*
X103523809Y-76986854D02*
X103333333Y-76891616D01*
X103333333Y-76891616D02*
X103047618Y-76891616D01*
X103047618Y-76891616D02*
X102857142Y-76986854D01*
X102857142Y-76986854D02*
X102761904Y-77177331D01*
X102761904Y-77177331D02*
X102761904Y-78224950D01*
X100952380Y-78224950D02*
X100952380Y-77177331D01*
X100952380Y-77177331D02*
X101047618Y-76986854D01*
X101047618Y-76986854D02*
X101238094Y-76891616D01*
X101238094Y-76891616D02*
X101619047Y-76891616D01*
X101619047Y-76891616D02*
X101809523Y-76986854D01*
X100952380Y-78129712D02*
X101142856Y-78224950D01*
X101142856Y-78224950D02*
X101619047Y-78224950D01*
X101619047Y-78224950D02*
X101809523Y-78129712D01*
X101809523Y-78129712D02*
X101904761Y-77939235D01*
X101904761Y-77939235D02*
X101904761Y-77748759D01*
X101904761Y-77748759D02*
X101809523Y-77558283D01*
X101809523Y-77558283D02*
X101619047Y-77463045D01*
X101619047Y-77463045D02*
X101142856Y-77463045D01*
X101142856Y-77463045D02*
X100952380Y-77367807D01*
X98666665Y-76891616D02*
X98190475Y-78224950D01*
X98190475Y-78224950D02*
X97714284Y-76891616D01*
X95904760Y-78224950D02*
X97047617Y-78224950D01*
X96476189Y-78224950D02*
X96476189Y-76224950D01*
X96476189Y-76224950D02*
X96666665Y-76510664D01*
X96666665Y-76510664D02*
X96857141Y-76701140D01*
X96857141Y-76701140D02*
X97047617Y-76796378D01*
X95047617Y-78034473D02*
X94952379Y-78129712D01*
X94952379Y-78129712D02*
X95047617Y-78224950D01*
X95047617Y-78224950D02*
X95142855Y-78129712D01*
X95142855Y-78129712D02*
X95047617Y-78034473D01*
X95047617Y-78034473D02*
X95047617Y-78224950D01*
X93714284Y-76224950D02*
X93523807Y-76224950D01*
X93523807Y-76224950D02*
X93333331Y-76320188D01*
X93333331Y-76320188D02*
X93238093Y-76415426D01*
X93238093Y-76415426D02*
X93142855Y-76605902D01*
X93142855Y-76605902D02*
X93047617Y-76986854D01*
X93047617Y-76986854D02*
X93047617Y-77463045D01*
X93047617Y-77463045D02*
X93142855Y-77843997D01*
X93142855Y-77843997D02*
X93238093Y-78034473D01*
X93238093Y-78034473D02*
X93333331Y-78129712D01*
X93333331Y-78129712D02*
X93523807Y-78224950D01*
X93523807Y-78224950D02*
X93714284Y-78224950D01*
X93714284Y-78224950D02*
X93904760Y-78129712D01*
X93904760Y-78129712D02*
X93999998Y-78034473D01*
X93999998Y-78034473D02*
X94095236Y-77843997D01*
X94095236Y-77843997D02*
X94190474Y-77463045D01*
X94190474Y-77463045D02*
X94190474Y-76986854D01*
X94190474Y-76986854D02*
X94095236Y-76605902D01*
X94095236Y-76605902D02*
X93999998Y-76415426D01*
X93999998Y-76415426D02*
X93904760Y-76320188D01*
X93904760Y-76320188D02*
X93714284Y-76224950D01*
X112190476Y-79635314D02*
X112095238Y-79540076D01*
X112095238Y-79540076D02*
X111904762Y-79444838D01*
X111904762Y-79444838D02*
X111428571Y-79444838D01*
X111428571Y-79444838D02*
X111238095Y-79540076D01*
X111238095Y-79540076D02*
X111142857Y-79635314D01*
X111142857Y-79635314D02*
X111047619Y-79825790D01*
X111047619Y-79825790D02*
X111047619Y-80016266D01*
X111047619Y-80016266D02*
X111142857Y-80301980D01*
X111142857Y-80301980D02*
X112285714Y-81444838D01*
X112285714Y-81444838D02*
X111047619Y-81444838D01*
X109809524Y-79444838D02*
X109619047Y-79444838D01*
X109619047Y-79444838D02*
X109428571Y-79540076D01*
X109428571Y-79540076D02*
X109333333Y-79635314D01*
X109333333Y-79635314D02*
X109238095Y-79825790D01*
X109238095Y-79825790D02*
X109142857Y-80206742D01*
X109142857Y-80206742D02*
X109142857Y-80682933D01*
X109142857Y-80682933D02*
X109238095Y-81063885D01*
X109238095Y-81063885D02*
X109333333Y-81254361D01*
X109333333Y-81254361D02*
X109428571Y-81349600D01*
X109428571Y-81349600D02*
X109619047Y-81444838D01*
X109619047Y-81444838D02*
X109809524Y-81444838D01*
X109809524Y-81444838D02*
X110000000Y-81349600D01*
X110000000Y-81349600D02*
X110095238Y-81254361D01*
X110095238Y-81254361D02*
X110190476Y-81063885D01*
X110190476Y-81063885D02*
X110285714Y-80682933D01*
X110285714Y-80682933D02*
X110285714Y-80206742D01*
X110285714Y-80206742D02*
X110190476Y-79825790D01*
X110190476Y-79825790D02*
X110095238Y-79635314D01*
X110095238Y-79635314D02*
X110000000Y-79540076D01*
X110000000Y-79540076D02*
X109809524Y-79444838D01*
X108380952Y-79635314D02*
X108285714Y-79540076D01*
X108285714Y-79540076D02*
X108095238Y-79444838D01*
X108095238Y-79444838D02*
X107619047Y-79444838D01*
X107619047Y-79444838D02*
X107428571Y-79540076D01*
X107428571Y-79540076D02*
X107333333Y-79635314D01*
X107333333Y-79635314D02*
X107238095Y-79825790D01*
X107238095Y-79825790D02*
X107238095Y-80016266D01*
X107238095Y-80016266D02*
X107333333Y-80301980D01*
X107333333Y-80301980D02*
X108476190Y-81444838D01*
X108476190Y-81444838D02*
X107238095Y-81444838D01*
X105523809Y-79444838D02*
X105904762Y-79444838D01*
X105904762Y-79444838D02*
X106095238Y-79540076D01*
X106095238Y-79540076D02*
X106190476Y-79635314D01*
X106190476Y-79635314D02*
X106380952Y-79921028D01*
X106380952Y-79921028D02*
X106476190Y-80301980D01*
X106476190Y-80301980D02*
X106476190Y-81063885D01*
X106476190Y-81063885D02*
X106380952Y-81254361D01*
X106380952Y-81254361D02*
X106285714Y-81349600D01*
X106285714Y-81349600D02*
X106095238Y-81444838D01*
X106095238Y-81444838D02*
X105714285Y-81444838D01*
X105714285Y-81444838D02*
X105523809Y-81349600D01*
X105523809Y-81349600D02*
X105428571Y-81254361D01*
X105428571Y-81254361D02*
X105333333Y-81063885D01*
X105333333Y-81063885D02*
X105333333Y-80587695D01*
X105333333Y-80587695D02*
X105428571Y-80397219D01*
X105428571Y-80397219D02*
X105523809Y-80301980D01*
X105523809Y-80301980D02*
X105714285Y-80206742D01*
X105714285Y-80206742D02*
X106095238Y-80206742D01*
X106095238Y-80206742D02*
X106285714Y-80301980D01*
X106285714Y-80301980D02*
X106380952Y-80397219D01*
X106380952Y-80397219D02*
X106476190Y-80587695D01*
X104476190Y-81254361D02*
X104380952Y-81349600D01*
X104380952Y-81349600D02*
X104476190Y-81444838D01*
X104476190Y-81444838D02*
X104571428Y-81349600D01*
X104571428Y-81349600D02*
X104476190Y-81254361D01*
X104476190Y-81254361D02*
X104476190Y-81444838D01*
X103142857Y-79444838D02*
X102952380Y-79444838D01*
X102952380Y-79444838D02*
X102761904Y-79540076D01*
X102761904Y-79540076D02*
X102666666Y-79635314D01*
X102666666Y-79635314D02*
X102571428Y-79825790D01*
X102571428Y-79825790D02*
X102476190Y-80206742D01*
X102476190Y-80206742D02*
X102476190Y-80682933D01*
X102476190Y-80682933D02*
X102571428Y-81063885D01*
X102571428Y-81063885D02*
X102666666Y-81254361D01*
X102666666Y-81254361D02*
X102761904Y-81349600D01*
X102761904Y-81349600D02*
X102952380Y-81444838D01*
X102952380Y-81444838D02*
X103142857Y-81444838D01*
X103142857Y-81444838D02*
X103333333Y-81349600D01*
X103333333Y-81349600D02*
X103428571Y-81254361D01*
X103428571Y-81254361D02*
X103523809Y-81063885D01*
X103523809Y-81063885D02*
X103619047Y-80682933D01*
X103619047Y-80682933D02*
X103619047Y-80206742D01*
X103619047Y-80206742D02*
X103523809Y-79825790D01*
X103523809Y-79825790D02*
X103428571Y-79635314D01*
X103428571Y-79635314D02*
X103333333Y-79540076D01*
X103333333Y-79540076D02*
X103142857Y-79444838D01*
X100666666Y-79444838D02*
X101619047Y-79444838D01*
X101619047Y-79444838D02*
X101714285Y-80397219D01*
X101714285Y-80397219D02*
X101619047Y-80301980D01*
X101619047Y-80301980D02*
X101428571Y-80206742D01*
X101428571Y-80206742D02*
X100952380Y-80206742D01*
X100952380Y-80206742D02*
X100761904Y-80301980D01*
X100761904Y-80301980D02*
X100666666Y-80397219D01*
X100666666Y-80397219D02*
X100571428Y-80587695D01*
X100571428Y-80587695D02*
X100571428Y-81063885D01*
X100571428Y-81063885D02*
X100666666Y-81254361D01*
X100666666Y-81254361D02*
X100761904Y-81349600D01*
X100761904Y-81349600D02*
X100952380Y-81444838D01*
X100952380Y-81444838D02*
X101428571Y-81444838D01*
X101428571Y-81444838D02*
X101619047Y-81349600D01*
X101619047Y-81349600D02*
X101714285Y-81254361D01*
X99714285Y-81254361D02*
X99619047Y-81349600D01*
X99619047Y-81349600D02*
X99714285Y-81444838D01*
X99714285Y-81444838D02*
X99809523Y-81349600D01*
X99809523Y-81349600D02*
X99714285Y-81254361D01*
X99714285Y-81254361D02*
X99714285Y-81444838D01*
X98857142Y-79635314D02*
X98761904Y-79540076D01*
X98761904Y-79540076D02*
X98571428Y-79444838D01*
X98571428Y-79444838D02*
X98095237Y-79444838D01*
X98095237Y-79444838D02*
X97904761Y-79540076D01*
X97904761Y-79540076D02*
X97809523Y-79635314D01*
X97809523Y-79635314D02*
X97714285Y-79825790D01*
X97714285Y-79825790D02*
X97714285Y-80016266D01*
X97714285Y-80016266D02*
X97809523Y-80301980D01*
X97809523Y-80301980D02*
X98952380Y-81444838D01*
X98952380Y-81444838D02*
X97714285Y-81444838D01*
X95999999Y-80111504D02*
X95999999Y-81444838D01*
X96476190Y-79349600D02*
X96952380Y-80778171D01*
X96952380Y-80778171D02*
X95714285Y-80778171D01*
D10*
X136000000Y-120254819D02*
X136333333Y-119778628D01*
X136571428Y-120254819D02*
X136571428Y-119254819D01*
X136571428Y-119254819D02*
X136190476Y-119254819D01*
X136190476Y-119254819D02*
X136095238Y-119302438D01*
X136095238Y-119302438D02*
X136047619Y-119350057D01*
X136047619Y-119350057D02*
X136000000Y-119445295D01*
X136000000Y-119445295D02*
X136000000Y-119588152D01*
X136000000Y-119588152D02*
X136047619Y-119683390D01*
X136047619Y-119683390D02*
X136095238Y-119731009D01*
X136095238Y-119731009D02*
X136190476Y-119778628D01*
X136190476Y-119778628D02*
X136571428Y-119778628D01*
X135095238Y-120254819D02*
X135571428Y-120254819D01*
X135571428Y-120254819D02*
X135571428Y-119254819D01*
X134571428Y-119778628D02*
X134571428Y-120254819D01*
X134904761Y-119254819D02*
X134571428Y-119778628D01*
X134571428Y-119778628D02*
X134238095Y-119254819D01*
X133952380Y-119350057D02*
X133904761Y-119302438D01*
X133904761Y-119302438D02*
X133809523Y-119254819D01*
X133809523Y-119254819D02*
X133571428Y-119254819D01*
X133571428Y-119254819D02*
X133476190Y-119302438D01*
X133476190Y-119302438D02*
X133428571Y-119350057D01*
X133428571Y-119350057D02*
X133380952Y-119445295D01*
X133380952Y-119445295D02*
X133380952Y-119540533D01*
X133380952Y-119540533D02*
X133428571Y-119683390D01*
X133428571Y-119683390D02*
X133999999Y-120254819D01*
X133999999Y-120254819D02*
X133380952Y-120254819D01*
X139214285Y-117554819D02*
X138642857Y-117554819D01*
X138928571Y-118554819D02*
X138928571Y-117554819D01*
X138309523Y-118031009D02*
X137976190Y-118031009D01*
X137833333Y-118554819D02*
X138309523Y-118554819D01*
X138309523Y-118554819D02*
X138309523Y-117554819D01*
X138309523Y-117554819D02*
X137833333Y-117554819D01*
X137404761Y-118173866D02*
X136642857Y-118173866D01*
X136214285Y-118507200D02*
X136071428Y-118554819D01*
X136071428Y-118554819D02*
X135833333Y-118554819D01*
X135833333Y-118554819D02*
X135738095Y-118507200D01*
X135738095Y-118507200D02*
X135690476Y-118459580D01*
X135690476Y-118459580D02*
X135642857Y-118364342D01*
X135642857Y-118364342D02*
X135642857Y-118269104D01*
X135642857Y-118269104D02*
X135690476Y-118173866D01*
X135690476Y-118173866D02*
X135738095Y-118126247D01*
X135738095Y-118126247D02*
X135833333Y-118078628D01*
X135833333Y-118078628D02*
X136023809Y-118031009D01*
X136023809Y-118031009D02*
X136119047Y-117983390D01*
X136119047Y-117983390D02*
X136166666Y-117935771D01*
X136166666Y-117935771D02*
X136214285Y-117840533D01*
X136214285Y-117840533D02*
X136214285Y-117745295D01*
X136214285Y-117745295D02*
X136166666Y-117650057D01*
X136166666Y-117650057D02*
X136119047Y-117602438D01*
X136119047Y-117602438D02*
X136023809Y-117554819D01*
X136023809Y-117554819D02*
X135785714Y-117554819D01*
X135785714Y-117554819D02*
X135642857Y-117602438D01*
X135214285Y-118554819D02*
X135214285Y-117554819D01*
X135214285Y-117554819D02*
X134833333Y-117554819D01*
X134833333Y-117554819D02*
X134738095Y-117602438D01*
X134738095Y-117602438D02*
X134690476Y-117650057D01*
X134690476Y-117650057D02*
X134642857Y-117745295D01*
X134642857Y-117745295D02*
X134642857Y-117888152D01*
X134642857Y-117888152D02*
X134690476Y-117983390D01*
X134690476Y-117983390D02*
X134738095Y-118031009D01*
X134738095Y-118031009D02*
X134833333Y-118078628D01*
X134833333Y-118078628D02*
X135214285Y-118078628D01*
X134214285Y-118554819D02*
X134214285Y-117554819D01*
X134214285Y-117554819D02*
X133976190Y-117554819D01*
X133976190Y-117554819D02*
X133833333Y-117602438D01*
X133833333Y-117602438D02*
X133738095Y-117697676D01*
X133738095Y-117697676D02*
X133690476Y-117792914D01*
X133690476Y-117792914D02*
X133642857Y-117983390D01*
X133642857Y-117983390D02*
X133642857Y-118126247D01*
X133642857Y-118126247D02*
X133690476Y-118316723D01*
X133690476Y-118316723D02*
X133738095Y-118411961D01*
X133738095Y-118411961D02*
X133833333Y-118507200D01*
X133833333Y-118507200D02*
X133976190Y-118554819D01*
X133976190Y-118554819D02*
X134214285Y-118554819D01*
X133357142Y-117554819D02*
X132785714Y-117554819D01*
X133071428Y-118554819D02*
X133071428Y-117554819D01*
X116000000Y-120154819D02*
X116333333Y-119678628D01*
X116571428Y-120154819D02*
X116571428Y-119154819D01*
X116571428Y-119154819D02*
X116190476Y-119154819D01*
X116190476Y-119154819D02*
X116095238Y-119202438D01*
X116095238Y-119202438D02*
X116047619Y-119250057D01*
X116047619Y-119250057D02*
X116000000Y-119345295D01*
X116000000Y-119345295D02*
X116000000Y-119488152D01*
X116000000Y-119488152D02*
X116047619Y-119583390D01*
X116047619Y-119583390D02*
X116095238Y-119631009D01*
X116095238Y-119631009D02*
X116190476Y-119678628D01*
X116190476Y-119678628D02*
X116571428Y-119678628D01*
X115095238Y-120154819D02*
X115571428Y-120154819D01*
X115571428Y-120154819D02*
X115571428Y-119154819D01*
X114571428Y-119678628D02*
X114571428Y-120154819D01*
X114904761Y-119154819D02*
X114571428Y-119678628D01*
X114571428Y-119678628D02*
X114238095Y-119154819D01*
X113380952Y-120154819D02*
X113952380Y-120154819D01*
X113666666Y-120154819D02*
X113666666Y-119154819D01*
X113666666Y-119154819D02*
X113761904Y-119297676D01*
X113761904Y-119297676D02*
X113857142Y-119392914D01*
X113857142Y-119392914D02*
X113952380Y-119440533D01*
X119214285Y-117654819D02*
X118642857Y-117654819D01*
X118928571Y-118654819D02*
X118928571Y-117654819D01*
X118309523Y-118131009D02*
X117976190Y-118131009D01*
X117833333Y-118654819D02*
X118309523Y-118654819D01*
X118309523Y-118654819D02*
X118309523Y-117654819D01*
X118309523Y-117654819D02*
X117833333Y-117654819D01*
X117404761Y-118273866D02*
X116642857Y-118273866D01*
X116214285Y-118607200D02*
X116071428Y-118654819D01*
X116071428Y-118654819D02*
X115833333Y-118654819D01*
X115833333Y-118654819D02*
X115738095Y-118607200D01*
X115738095Y-118607200D02*
X115690476Y-118559580D01*
X115690476Y-118559580D02*
X115642857Y-118464342D01*
X115642857Y-118464342D02*
X115642857Y-118369104D01*
X115642857Y-118369104D02*
X115690476Y-118273866D01*
X115690476Y-118273866D02*
X115738095Y-118226247D01*
X115738095Y-118226247D02*
X115833333Y-118178628D01*
X115833333Y-118178628D02*
X116023809Y-118131009D01*
X116023809Y-118131009D02*
X116119047Y-118083390D01*
X116119047Y-118083390D02*
X116166666Y-118035771D01*
X116166666Y-118035771D02*
X116214285Y-117940533D01*
X116214285Y-117940533D02*
X116214285Y-117845295D01*
X116214285Y-117845295D02*
X116166666Y-117750057D01*
X116166666Y-117750057D02*
X116119047Y-117702438D01*
X116119047Y-117702438D02*
X116023809Y-117654819D01*
X116023809Y-117654819D02*
X115785714Y-117654819D01*
X115785714Y-117654819D02*
X115642857Y-117702438D01*
X115214285Y-118654819D02*
X115214285Y-117654819D01*
X115214285Y-117654819D02*
X114833333Y-117654819D01*
X114833333Y-117654819D02*
X114738095Y-117702438D01*
X114738095Y-117702438D02*
X114690476Y-117750057D01*
X114690476Y-117750057D02*
X114642857Y-117845295D01*
X114642857Y-117845295D02*
X114642857Y-117988152D01*
X114642857Y-117988152D02*
X114690476Y-118083390D01*
X114690476Y-118083390D02*
X114738095Y-118131009D01*
X114738095Y-118131009D02*
X114833333Y-118178628D01*
X114833333Y-118178628D02*
X115214285Y-118178628D01*
X114214285Y-118654819D02*
X114214285Y-117654819D01*
X114214285Y-117654819D02*
X113976190Y-117654819D01*
X113976190Y-117654819D02*
X113833333Y-117702438D01*
X113833333Y-117702438D02*
X113738095Y-117797676D01*
X113738095Y-117797676D02*
X113690476Y-117892914D01*
X113690476Y-117892914D02*
X113642857Y-118083390D01*
X113642857Y-118083390D02*
X113642857Y-118226247D01*
X113642857Y-118226247D02*
X113690476Y-118416723D01*
X113690476Y-118416723D02*
X113738095Y-118511961D01*
X113738095Y-118511961D02*
X113833333Y-118607200D01*
X113833333Y-118607200D02*
X113976190Y-118654819D01*
X113976190Y-118654819D02*
X114214285Y-118654819D01*
X113357142Y-117654819D02*
X112785714Y-117654819D01*
X113071428Y-118654819D02*
X113071428Y-117654819D01*
X129166666Y-78754819D02*
X129499999Y-78278628D01*
X129738094Y-78754819D02*
X129738094Y-77754819D01*
X129738094Y-77754819D02*
X129357142Y-77754819D01*
X129357142Y-77754819D02*
X129261904Y-77802438D01*
X129261904Y-77802438D02*
X129214285Y-77850057D01*
X129214285Y-77850057D02*
X129166666Y-77945295D01*
X129166666Y-77945295D02*
X129166666Y-78088152D01*
X129166666Y-78088152D02*
X129214285Y-78183390D01*
X129214285Y-78183390D02*
X129261904Y-78231009D01*
X129261904Y-78231009D02*
X129357142Y-78278628D01*
X129357142Y-78278628D02*
X129738094Y-78278628D01*
X128261904Y-77754819D02*
X128738094Y-77754819D01*
X128738094Y-77754819D02*
X128785713Y-78231009D01*
X128785713Y-78231009D02*
X128738094Y-78183390D01*
X128738094Y-78183390D02*
X128642856Y-78135771D01*
X128642856Y-78135771D02*
X128404761Y-78135771D01*
X128404761Y-78135771D02*
X128309523Y-78183390D01*
X128309523Y-78183390D02*
X128261904Y-78231009D01*
X128261904Y-78231009D02*
X128214285Y-78326247D01*
X128214285Y-78326247D02*
X128214285Y-78564342D01*
X128214285Y-78564342D02*
X128261904Y-78659580D01*
X128261904Y-78659580D02*
X128309523Y-78707200D01*
X128309523Y-78707200D02*
X128404761Y-78754819D01*
X128404761Y-78754819D02*
X128642856Y-78754819D01*
X128642856Y-78754819D02*
X128738094Y-78707200D01*
X128738094Y-78707200D02*
X128785713Y-78659580D01*
X141166666Y-93497080D02*
X141214285Y-93544700D01*
X141214285Y-93544700D02*
X141357142Y-93592319D01*
X141357142Y-93592319D02*
X141452380Y-93592319D01*
X141452380Y-93592319D02*
X141595237Y-93544700D01*
X141595237Y-93544700D02*
X141690475Y-93449461D01*
X141690475Y-93449461D02*
X141738094Y-93354223D01*
X141738094Y-93354223D02*
X141785713Y-93163747D01*
X141785713Y-93163747D02*
X141785713Y-93020890D01*
X141785713Y-93020890D02*
X141738094Y-92830414D01*
X141738094Y-92830414D02*
X141690475Y-92735176D01*
X141690475Y-92735176D02*
X141595237Y-92639938D01*
X141595237Y-92639938D02*
X141452380Y-92592319D01*
X141452380Y-92592319D02*
X141357142Y-92592319D01*
X141357142Y-92592319D02*
X141214285Y-92639938D01*
X141214285Y-92639938D02*
X141166666Y-92687557D01*
X140833332Y-92592319D02*
X140166666Y-92592319D01*
X140166666Y-92592319D02*
X140595237Y-93592319D01*
X125166666Y-100754819D02*
X125499999Y-100278628D01*
X125738094Y-100754819D02*
X125738094Y-99754819D01*
X125738094Y-99754819D02*
X125357142Y-99754819D01*
X125357142Y-99754819D02*
X125261904Y-99802438D01*
X125261904Y-99802438D02*
X125214285Y-99850057D01*
X125214285Y-99850057D02*
X125166666Y-99945295D01*
X125166666Y-99945295D02*
X125166666Y-100088152D01*
X125166666Y-100088152D02*
X125214285Y-100183390D01*
X125214285Y-100183390D02*
X125261904Y-100231009D01*
X125261904Y-100231009D02*
X125357142Y-100278628D01*
X125357142Y-100278628D02*
X125738094Y-100278628D01*
X124833332Y-99754819D02*
X124214285Y-99754819D01*
X124214285Y-99754819D02*
X124547618Y-100135771D01*
X124547618Y-100135771D02*
X124404761Y-100135771D01*
X124404761Y-100135771D02*
X124309523Y-100183390D01*
X124309523Y-100183390D02*
X124261904Y-100231009D01*
X124261904Y-100231009D02*
X124214285Y-100326247D01*
X124214285Y-100326247D02*
X124214285Y-100564342D01*
X124214285Y-100564342D02*
X124261904Y-100659580D01*
X124261904Y-100659580D02*
X124309523Y-100707200D01*
X124309523Y-100707200D02*
X124404761Y-100754819D01*
X124404761Y-100754819D02*
X124690475Y-100754819D01*
X124690475Y-100754819D02*
X124785713Y-100707200D01*
X124785713Y-100707200D02*
X124833332Y-100659580D01*
X113038094Y-115454819D02*
X113038094Y-114454819D01*
X113038094Y-114454819D02*
X112799999Y-114454819D01*
X112799999Y-114454819D02*
X112657142Y-114502438D01*
X112657142Y-114502438D02*
X112561904Y-114597676D01*
X112561904Y-114597676D02*
X112514285Y-114692914D01*
X112514285Y-114692914D02*
X112466666Y-114883390D01*
X112466666Y-114883390D02*
X112466666Y-115026247D01*
X112466666Y-115026247D02*
X112514285Y-115216723D01*
X112514285Y-115216723D02*
X112561904Y-115311961D01*
X112561904Y-115311961D02*
X112657142Y-115407200D01*
X112657142Y-115407200D02*
X112799999Y-115454819D01*
X112799999Y-115454819D02*
X113038094Y-115454819D01*
X111514285Y-115454819D02*
X112085713Y-115454819D01*
X111799999Y-115454819D02*
X111799999Y-114454819D01*
X111799999Y-114454819D02*
X111895237Y-114597676D01*
X111895237Y-114597676D02*
X111990475Y-114692914D01*
X111990475Y-114692914D02*
X112085713Y-114740533D01*
X134095238Y-110250057D02*
X134190476Y-110202438D01*
X134190476Y-110202438D02*
X134285714Y-110107200D01*
X134285714Y-110107200D02*
X134428571Y-109964342D01*
X134428571Y-109964342D02*
X134523809Y-109916723D01*
X134523809Y-109916723D02*
X134619047Y-109916723D01*
X134571428Y-110154819D02*
X134666666Y-110107200D01*
X134666666Y-110107200D02*
X134761904Y-110011961D01*
X134761904Y-110011961D02*
X134809523Y-109821485D01*
X134809523Y-109821485D02*
X134809523Y-109488152D01*
X134809523Y-109488152D02*
X134761904Y-109297676D01*
X134761904Y-109297676D02*
X134666666Y-109202438D01*
X134666666Y-109202438D02*
X134571428Y-109154819D01*
X134571428Y-109154819D02*
X134380952Y-109154819D01*
X134380952Y-109154819D02*
X134285714Y-109202438D01*
X134285714Y-109202438D02*
X134190476Y-109297676D01*
X134190476Y-109297676D02*
X134142857Y-109488152D01*
X134142857Y-109488152D02*
X134142857Y-109821485D01*
X134142857Y-109821485D02*
X134190476Y-110011961D01*
X134190476Y-110011961D02*
X134285714Y-110107200D01*
X134285714Y-110107200D02*
X134380952Y-110154819D01*
X134380952Y-110154819D02*
X134571428Y-110154819D01*
X133761904Y-109250057D02*
X133714285Y-109202438D01*
X133714285Y-109202438D02*
X133619047Y-109154819D01*
X133619047Y-109154819D02*
X133380952Y-109154819D01*
X133380952Y-109154819D02*
X133285714Y-109202438D01*
X133285714Y-109202438D02*
X133238095Y-109250057D01*
X133238095Y-109250057D02*
X133190476Y-109345295D01*
X133190476Y-109345295D02*
X133190476Y-109440533D01*
X133190476Y-109440533D02*
X133238095Y-109583390D01*
X133238095Y-109583390D02*
X133809523Y-110154819D01*
X133809523Y-110154819D02*
X133190476Y-110154819D01*
X133038094Y-115454819D02*
X133038094Y-114454819D01*
X133038094Y-114454819D02*
X132799999Y-114454819D01*
X132799999Y-114454819D02*
X132657142Y-114502438D01*
X132657142Y-114502438D02*
X132561904Y-114597676D01*
X132561904Y-114597676D02*
X132514285Y-114692914D01*
X132514285Y-114692914D02*
X132466666Y-114883390D01*
X132466666Y-114883390D02*
X132466666Y-115026247D01*
X132466666Y-115026247D02*
X132514285Y-115216723D01*
X132514285Y-115216723D02*
X132561904Y-115311961D01*
X132561904Y-115311961D02*
X132657142Y-115407200D01*
X132657142Y-115407200D02*
X132799999Y-115454819D01*
X132799999Y-115454819D02*
X133038094Y-115454819D01*
X132133332Y-114454819D02*
X131514285Y-114454819D01*
X131514285Y-114454819D02*
X131847618Y-114835771D01*
X131847618Y-114835771D02*
X131704761Y-114835771D01*
X131704761Y-114835771D02*
X131609523Y-114883390D01*
X131609523Y-114883390D02*
X131561904Y-114931009D01*
X131561904Y-114931009D02*
X131514285Y-115026247D01*
X131514285Y-115026247D02*
X131514285Y-115264342D01*
X131514285Y-115264342D02*
X131561904Y-115359580D01*
X131561904Y-115359580D02*
X131609523Y-115407200D01*
X131609523Y-115407200D02*
X131704761Y-115454819D01*
X131704761Y-115454819D02*
X131990475Y-115454819D01*
X131990475Y-115454819D02*
X132085713Y-115407200D01*
X132085713Y-115407200D02*
X132133332Y-115359580D01*
X123166666Y-97059580D02*
X123214285Y-97107200D01*
X123214285Y-97107200D02*
X123357142Y-97154819D01*
X123357142Y-97154819D02*
X123452380Y-97154819D01*
X123452380Y-97154819D02*
X123595237Y-97107200D01*
X123595237Y-97107200D02*
X123690475Y-97011961D01*
X123690475Y-97011961D02*
X123738094Y-96916723D01*
X123738094Y-96916723D02*
X123785713Y-96726247D01*
X123785713Y-96726247D02*
X123785713Y-96583390D01*
X123785713Y-96583390D02*
X123738094Y-96392914D01*
X123738094Y-96392914D02*
X123690475Y-96297676D01*
X123690475Y-96297676D02*
X123595237Y-96202438D01*
X123595237Y-96202438D02*
X123452380Y-96154819D01*
X123452380Y-96154819D02*
X123357142Y-96154819D01*
X123357142Y-96154819D02*
X123214285Y-96202438D01*
X123214285Y-96202438D02*
X123166666Y-96250057D01*
X122690475Y-97154819D02*
X122499999Y-97154819D01*
X122499999Y-97154819D02*
X122404761Y-97107200D01*
X122404761Y-97107200D02*
X122357142Y-97059580D01*
X122357142Y-97059580D02*
X122261904Y-96916723D01*
X122261904Y-96916723D02*
X122214285Y-96726247D01*
X122214285Y-96726247D02*
X122214285Y-96345295D01*
X122214285Y-96345295D02*
X122261904Y-96250057D01*
X122261904Y-96250057D02*
X122309523Y-96202438D01*
X122309523Y-96202438D02*
X122404761Y-96154819D01*
X122404761Y-96154819D02*
X122595237Y-96154819D01*
X122595237Y-96154819D02*
X122690475Y-96202438D01*
X122690475Y-96202438D02*
X122738094Y-96250057D01*
X122738094Y-96250057D02*
X122785713Y-96345295D01*
X122785713Y-96345295D02*
X122785713Y-96583390D01*
X122785713Y-96583390D02*
X122738094Y-96678628D01*
X122738094Y-96678628D02*
X122690475Y-96726247D01*
X122690475Y-96726247D02*
X122595237Y-96773866D01*
X122595237Y-96773866D02*
X122404761Y-96773866D01*
X122404761Y-96773866D02*
X122309523Y-96726247D01*
X122309523Y-96726247D02*
X122261904Y-96678628D01*
X122261904Y-96678628D02*
X122214285Y-96583390D01*
X133166666Y-86754819D02*
X133499999Y-86278628D01*
X133738094Y-86754819D02*
X133738094Y-85754819D01*
X133738094Y-85754819D02*
X133357142Y-85754819D01*
X133357142Y-85754819D02*
X133261904Y-85802438D01*
X133261904Y-85802438D02*
X133214285Y-85850057D01*
X133214285Y-85850057D02*
X133166666Y-85945295D01*
X133166666Y-85945295D02*
X133166666Y-86088152D01*
X133166666Y-86088152D02*
X133214285Y-86183390D01*
X133214285Y-86183390D02*
X133261904Y-86231009D01*
X133261904Y-86231009D02*
X133357142Y-86278628D01*
X133357142Y-86278628D02*
X133738094Y-86278628D01*
X132309523Y-86088152D02*
X132309523Y-86754819D01*
X132547618Y-85707200D02*
X132785713Y-86421485D01*
X132785713Y-86421485D02*
X132166666Y-86421485D01*
X123166666Y-85954819D02*
X123499999Y-85478628D01*
X123738094Y-85954819D02*
X123738094Y-84954819D01*
X123738094Y-84954819D02*
X123357142Y-84954819D01*
X123357142Y-84954819D02*
X123261904Y-85002438D01*
X123261904Y-85002438D02*
X123214285Y-85050057D01*
X123214285Y-85050057D02*
X123166666Y-85145295D01*
X123166666Y-85145295D02*
X123166666Y-85288152D01*
X123166666Y-85288152D02*
X123214285Y-85383390D01*
X123214285Y-85383390D02*
X123261904Y-85431009D01*
X123261904Y-85431009D02*
X123357142Y-85478628D01*
X123357142Y-85478628D02*
X123738094Y-85478628D01*
X122833332Y-84954819D02*
X122166666Y-84954819D01*
X122166666Y-84954819D02*
X122595237Y-85954819D01*
X138166666Y-100754819D02*
X138499999Y-100278628D01*
X138738094Y-100754819D02*
X138738094Y-99754819D01*
X138738094Y-99754819D02*
X138357142Y-99754819D01*
X138357142Y-99754819D02*
X138261904Y-99802438D01*
X138261904Y-99802438D02*
X138214285Y-99850057D01*
X138214285Y-99850057D02*
X138166666Y-99945295D01*
X138166666Y-99945295D02*
X138166666Y-100088152D01*
X138166666Y-100088152D02*
X138214285Y-100183390D01*
X138214285Y-100183390D02*
X138261904Y-100231009D01*
X138261904Y-100231009D02*
X138357142Y-100278628D01*
X138357142Y-100278628D02*
X138738094Y-100278628D01*
X137595237Y-100183390D02*
X137690475Y-100135771D01*
X137690475Y-100135771D02*
X137738094Y-100088152D01*
X137738094Y-100088152D02*
X137785713Y-99992914D01*
X137785713Y-99992914D02*
X137785713Y-99945295D01*
X137785713Y-99945295D02*
X137738094Y-99850057D01*
X137738094Y-99850057D02*
X137690475Y-99802438D01*
X137690475Y-99802438D02*
X137595237Y-99754819D01*
X137595237Y-99754819D02*
X137404761Y-99754819D01*
X137404761Y-99754819D02*
X137309523Y-99802438D01*
X137309523Y-99802438D02*
X137261904Y-99850057D01*
X137261904Y-99850057D02*
X137214285Y-99945295D01*
X137214285Y-99945295D02*
X137214285Y-99992914D01*
X137214285Y-99992914D02*
X137261904Y-100088152D01*
X137261904Y-100088152D02*
X137309523Y-100135771D01*
X137309523Y-100135771D02*
X137404761Y-100183390D01*
X137404761Y-100183390D02*
X137595237Y-100183390D01*
X137595237Y-100183390D02*
X137690475Y-100231009D01*
X137690475Y-100231009D02*
X137738094Y-100278628D01*
X137738094Y-100278628D02*
X137785713Y-100373866D01*
X137785713Y-100373866D02*
X137785713Y-100564342D01*
X137785713Y-100564342D02*
X137738094Y-100659580D01*
X137738094Y-100659580D02*
X137690475Y-100707200D01*
X137690475Y-100707200D02*
X137595237Y-100754819D01*
X137595237Y-100754819D02*
X137404761Y-100754819D01*
X137404761Y-100754819D02*
X137309523Y-100707200D01*
X137309523Y-100707200D02*
X137261904Y-100659580D01*
X137261904Y-100659580D02*
X137214285Y-100564342D01*
X137214285Y-100564342D02*
X137214285Y-100373866D01*
X137214285Y-100373866D02*
X137261904Y-100278628D01*
X137261904Y-100278628D02*
X137309523Y-100231009D01*
X137309523Y-100231009D02*
X137404761Y-100183390D01*
X113995238Y-110150057D02*
X114090476Y-110102438D01*
X114090476Y-110102438D02*
X114185714Y-110007200D01*
X114185714Y-110007200D02*
X114328571Y-109864342D01*
X114328571Y-109864342D02*
X114423809Y-109816723D01*
X114423809Y-109816723D02*
X114519047Y-109816723D01*
X114471428Y-110054819D02*
X114566666Y-110007200D01*
X114566666Y-110007200D02*
X114661904Y-109911961D01*
X114661904Y-109911961D02*
X114709523Y-109721485D01*
X114709523Y-109721485D02*
X114709523Y-109388152D01*
X114709523Y-109388152D02*
X114661904Y-109197676D01*
X114661904Y-109197676D02*
X114566666Y-109102438D01*
X114566666Y-109102438D02*
X114471428Y-109054819D01*
X114471428Y-109054819D02*
X114280952Y-109054819D01*
X114280952Y-109054819D02*
X114185714Y-109102438D01*
X114185714Y-109102438D02*
X114090476Y-109197676D01*
X114090476Y-109197676D02*
X114042857Y-109388152D01*
X114042857Y-109388152D02*
X114042857Y-109721485D01*
X114042857Y-109721485D02*
X114090476Y-109911961D01*
X114090476Y-109911961D02*
X114185714Y-110007200D01*
X114185714Y-110007200D02*
X114280952Y-110054819D01*
X114280952Y-110054819D02*
X114471428Y-110054819D01*
X113090476Y-110054819D02*
X113661904Y-110054819D01*
X113376190Y-110054819D02*
X113376190Y-109054819D01*
X113376190Y-109054819D02*
X113471428Y-109197676D01*
X113471428Y-109197676D02*
X113566666Y-109292914D01*
X113566666Y-109292914D02*
X113661904Y-109340533D01*
X138166666Y-93459580D02*
X138214285Y-93507200D01*
X138214285Y-93507200D02*
X138357142Y-93554819D01*
X138357142Y-93554819D02*
X138452380Y-93554819D01*
X138452380Y-93554819D02*
X138595237Y-93507200D01*
X138595237Y-93507200D02*
X138690475Y-93411961D01*
X138690475Y-93411961D02*
X138738094Y-93316723D01*
X138738094Y-93316723D02*
X138785713Y-93126247D01*
X138785713Y-93126247D02*
X138785713Y-92983390D01*
X138785713Y-92983390D02*
X138738094Y-92792914D01*
X138738094Y-92792914D02*
X138690475Y-92697676D01*
X138690475Y-92697676D02*
X138595237Y-92602438D01*
X138595237Y-92602438D02*
X138452380Y-92554819D01*
X138452380Y-92554819D02*
X138357142Y-92554819D01*
X138357142Y-92554819D02*
X138214285Y-92602438D01*
X138214285Y-92602438D02*
X138166666Y-92650057D01*
X137595237Y-92983390D02*
X137690475Y-92935771D01*
X137690475Y-92935771D02*
X137738094Y-92888152D01*
X137738094Y-92888152D02*
X137785713Y-92792914D01*
X137785713Y-92792914D02*
X137785713Y-92745295D01*
X137785713Y-92745295D02*
X137738094Y-92650057D01*
X137738094Y-92650057D02*
X137690475Y-92602438D01*
X137690475Y-92602438D02*
X137595237Y-92554819D01*
X137595237Y-92554819D02*
X137404761Y-92554819D01*
X137404761Y-92554819D02*
X137309523Y-92602438D01*
X137309523Y-92602438D02*
X137261904Y-92650057D01*
X137261904Y-92650057D02*
X137214285Y-92745295D01*
X137214285Y-92745295D02*
X137214285Y-92792914D01*
X137214285Y-92792914D02*
X137261904Y-92888152D01*
X137261904Y-92888152D02*
X137309523Y-92935771D01*
X137309523Y-92935771D02*
X137404761Y-92983390D01*
X137404761Y-92983390D02*
X137595237Y-92983390D01*
X137595237Y-92983390D02*
X137690475Y-93031009D01*
X137690475Y-93031009D02*
X137738094Y-93078628D01*
X137738094Y-93078628D02*
X137785713Y-93173866D01*
X137785713Y-93173866D02*
X137785713Y-93364342D01*
X137785713Y-93364342D02*
X137738094Y-93459580D01*
X137738094Y-93459580D02*
X137690475Y-93507200D01*
X137690475Y-93507200D02*
X137595237Y-93554819D01*
X137595237Y-93554819D02*
X137404761Y-93554819D01*
X137404761Y-93554819D02*
X137309523Y-93507200D01*
X137309523Y-93507200D02*
X137261904Y-93459580D01*
X137261904Y-93459580D02*
X137214285Y-93364342D01*
X137214285Y-93364342D02*
X137214285Y-93173866D01*
X137214285Y-93173866D02*
X137261904Y-93078628D01*
X137261904Y-93078628D02*
X137309523Y-93031009D01*
X137309523Y-93031009D02*
X137404761Y-92983390D01*
X124738094Y-77754819D02*
X124738094Y-76754819D01*
X124738094Y-76754819D02*
X124499999Y-76754819D01*
X124499999Y-76754819D02*
X124357142Y-76802438D01*
X124357142Y-76802438D02*
X124261904Y-76897676D01*
X124261904Y-76897676D02*
X124214285Y-76992914D01*
X124214285Y-76992914D02*
X124166666Y-77183390D01*
X124166666Y-77183390D02*
X124166666Y-77326247D01*
X124166666Y-77326247D02*
X124214285Y-77516723D01*
X124214285Y-77516723D02*
X124261904Y-77611961D01*
X124261904Y-77611961D02*
X124357142Y-77707200D01*
X124357142Y-77707200D02*
X124499999Y-77754819D01*
X124499999Y-77754819D02*
X124738094Y-77754819D01*
X123785713Y-76850057D02*
X123738094Y-76802438D01*
X123738094Y-76802438D02*
X123642856Y-76754819D01*
X123642856Y-76754819D02*
X123404761Y-76754819D01*
X123404761Y-76754819D02*
X123309523Y-76802438D01*
X123309523Y-76802438D02*
X123261904Y-76850057D01*
X123261904Y-76850057D02*
X123214285Y-76945295D01*
X123214285Y-76945295D02*
X123214285Y-77040533D01*
X123214285Y-77040533D02*
X123261904Y-77183390D01*
X123261904Y-77183390D02*
X123833332Y-77754819D01*
X123833332Y-77754819D02*
X123214285Y-77754819D01*
X123166666Y-90954819D02*
X123499999Y-90478628D01*
X123738094Y-90954819D02*
X123738094Y-89954819D01*
X123738094Y-89954819D02*
X123357142Y-89954819D01*
X123357142Y-89954819D02*
X123261904Y-90002438D01*
X123261904Y-90002438D02*
X123214285Y-90050057D01*
X123214285Y-90050057D02*
X123166666Y-90145295D01*
X123166666Y-90145295D02*
X123166666Y-90288152D01*
X123166666Y-90288152D02*
X123214285Y-90383390D01*
X123214285Y-90383390D02*
X123261904Y-90431009D01*
X123261904Y-90431009D02*
X123357142Y-90478628D01*
X123357142Y-90478628D02*
X123738094Y-90478628D01*
X122785713Y-90050057D02*
X122738094Y-90002438D01*
X122738094Y-90002438D02*
X122642856Y-89954819D01*
X122642856Y-89954819D02*
X122404761Y-89954819D01*
X122404761Y-89954819D02*
X122309523Y-90002438D01*
X122309523Y-90002438D02*
X122261904Y-90050057D01*
X122261904Y-90050057D02*
X122214285Y-90145295D01*
X122214285Y-90145295D02*
X122214285Y-90240533D01*
X122214285Y-90240533D02*
X122261904Y-90383390D01*
X122261904Y-90383390D02*
X122833332Y-90954819D01*
X122833332Y-90954819D02*
X122214285Y-90954819D01*
X129642857Y-82659580D02*
X129690476Y-82707200D01*
X129690476Y-82707200D02*
X129833333Y-82754819D01*
X129833333Y-82754819D02*
X129928571Y-82754819D01*
X129928571Y-82754819D02*
X130071428Y-82707200D01*
X130071428Y-82707200D02*
X130166666Y-82611961D01*
X130166666Y-82611961D02*
X130214285Y-82516723D01*
X130214285Y-82516723D02*
X130261904Y-82326247D01*
X130261904Y-82326247D02*
X130261904Y-82183390D01*
X130261904Y-82183390D02*
X130214285Y-81992914D01*
X130214285Y-81992914D02*
X130166666Y-81897676D01*
X130166666Y-81897676D02*
X130071428Y-81802438D01*
X130071428Y-81802438D02*
X129928571Y-81754819D01*
X129928571Y-81754819D02*
X129833333Y-81754819D01*
X129833333Y-81754819D02*
X129690476Y-81802438D01*
X129690476Y-81802438D02*
X129642857Y-81850057D01*
X128690476Y-82754819D02*
X129261904Y-82754819D01*
X128976190Y-82754819D02*
X128976190Y-81754819D01*
X128976190Y-81754819D02*
X129071428Y-81897676D01*
X129071428Y-81897676D02*
X129166666Y-81992914D01*
X129166666Y-81992914D02*
X129261904Y-82040533D01*
X128071428Y-81754819D02*
X127976190Y-81754819D01*
X127976190Y-81754819D02*
X127880952Y-81802438D01*
X127880952Y-81802438D02*
X127833333Y-81850057D01*
X127833333Y-81850057D02*
X127785714Y-81945295D01*
X127785714Y-81945295D02*
X127738095Y-82135771D01*
X127738095Y-82135771D02*
X127738095Y-82373866D01*
X127738095Y-82373866D02*
X127785714Y-82564342D01*
X127785714Y-82564342D02*
X127833333Y-82659580D01*
X127833333Y-82659580D02*
X127880952Y-82707200D01*
X127880952Y-82707200D02*
X127976190Y-82754819D01*
X127976190Y-82754819D02*
X128071428Y-82754819D01*
X128071428Y-82754819D02*
X128166666Y-82707200D01*
X128166666Y-82707200D02*
X128214285Y-82659580D01*
X128214285Y-82659580D02*
X128261904Y-82564342D01*
X128261904Y-82564342D02*
X128309523Y-82373866D01*
X128309523Y-82373866D02*
X128309523Y-82135771D01*
X128309523Y-82135771D02*
X128261904Y-81945295D01*
X128261904Y-81945295D02*
X128214285Y-81850057D01*
X128214285Y-81850057D02*
X128166666Y-81802438D01*
X128166666Y-81802438D02*
X128071428Y-81754819D01*
X125833333Y-112554819D02*
X125833333Y-113269104D01*
X125833333Y-113269104D02*
X125880952Y-113411961D01*
X125880952Y-113411961D02*
X125976190Y-113507200D01*
X125976190Y-113507200D02*
X126119047Y-113554819D01*
X126119047Y-113554819D02*
X126214285Y-113554819D01*
X125357142Y-113554819D02*
X125357142Y-112554819D01*
X125357142Y-112554819D02*
X124976190Y-112554819D01*
X124976190Y-112554819D02*
X124880952Y-112602438D01*
X124880952Y-112602438D02*
X124833333Y-112650057D01*
X124833333Y-112650057D02*
X124785714Y-112745295D01*
X124785714Y-112745295D02*
X124785714Y-112888152D01*
X124785714Y-112888152D02*
X124833333Y-112983390D01*
X124833333Y-112983390D02*
X124880952Y-113031009D01*
X124880952Y-113031009D02*
X124976190Y-113078628D01*
X124976190Y-113078628D02*
X125357142Y-113078628D01*
X123833333Y-113554819D02*
X124404761Y-113554819D01*
X124119047Y-113554819D02*
X124119047Y-112554819D01*
X124119047Y-112554819D02*
X124214285Y-112697676D01*
X124214285Y-112697676D02*
X124309523Y-112792914D01*
X124309523Y-112792914D02*
X124404761Y-112840533D01*
X149166666Y-71864819D02*
X149499999Y-71388628D01*
X149738094Y-71864819D02*
X149738094Y-70864819D01*
X149738094Y-70864819D02*
X149357142Y-70864819D01*
X149357142Y-70864819D02*
X149261904Y-70912438D01*
X149261904Y-70912438D02*
X149214285Y-70960057D01*
X149214285Y-70960057D02*
X149166666Y-71055295D01*
X149166666Y-71055295D02*
X149166666Y-71198152D01*
X149166666Y-71198152D02*
X149214285Y-71293390D01*
X149214285Y-71293390D02*
X149261904Y-71341009D01*
X149261904Y-71341009D02*
X149357142Y-71388628D01*
X149357142Y-71388628D02*
X149738094Y-71388628D01*
X148214285Y-71864819D02*
X148785713Y-71864819D01*
X148499999Y-71864819D02*
X148499999Y-70864819D01*
X148499999Y-70864819D02*
X148595237Y-71007676D01*
X148595237Y-71007676D02*
X148690475Y-71102914D01*
X148690475Y-71102914D02*
X148785713Y-71150533D01*
X129166666Y-86754819D02*
X129499999Y-86278628D01*
X129738094Y-86754819D02*
X129738094Y-85754819D01*
X129738094Y-85754819D02*
X129357142Y-85754819D01*
X129357142Y-85754819D02*
X129261904Y-85802438D01*
X129261904Y-85802438D02*
X129214285Y-85850057D01*
X129214285Y-85850057D02*
X129166666Y-85945295D01*
X129166666Y-85945295D02*
X129166666Y-86088152D01*
X129166666Y-86088152D02*
X129214285Y-86183390D01*
X129214285Y-86183390D02*
X129261904Y-86231009D01*
X129261904Y-86231009D02*
X129357142Y-86278628D01*
X129357142Y-86278628D02*
X129738094Y-86278628D01*
X128309523Y-85754819D02*
X128499999Y-85754819D01*
X128499999Y-85754819D02*
X128595237Y-85802438D01*
X128595237Y-85802438D02*
X128642856Y-85850057D01*
X128642856Y-85850057D02*
X128738094Y-85992914D01*
X128738094Y-85992914D02*
X128785713Y-86183390D01*
X128785713Y-86183390D02*
X128785713Y-86564342D01*
X128785713Y-86564342D02*
X128738094Y-86659580D01*
X128738094Y-86659580D02*
X128690475Y-86707200D01*
X128690475Y-86707200D02*
X128595237Y-86754819D01*
X128595237Y-86754819D02*
X128404761Y-86754819D01*
X128404761Y-86754819D02*
X128309523Y-86707200D01*
X128309523Y-86707200D02*
X128261904Y-86659580D01*
X128261904Y-86659580D02*
X128214285Y-86564342D01*
X128214285Y-86564342D02*
X128214285Y-86326247D01*
X128214285Y-86326247D02*
X128261904Y-86231009D01*
X128261904Y-86231009D02*
X128309523Y-86183390D01*
X128309523Y-86183390D02*
X128404761Y-86135771D01*
X128404761Y-86135771D02*
X128595237Y-86135771D01*
X128595237Y-86135771D02*
X128690475Y-86183390D01*
X128690475Y-86183390D02*
X128738094Y-86231009D01*
X128738094Y-86231009D02*
X128785713Y-86326247D01*
%TO.C,RLY2*%
X129000000Y-108500000D02*
X141000000Y-108500000D01*
X129000000Y-121500000D02*
X129000000Y-108500000D01*
X129000000Y-121500000D02*
X141000000Y-121500000D01*
X134365000Y-120588000D02*
X133603000Y-121477000D01*
X135635000Y-120588000D02*
X134365000Y-120588000D01*
X136402080Y-121477000D02*
X135640080Y-120588000D01*
X141000000Y-121500000D02*
X141000000Y-108500000D01*
X140871981Y-108903500D02*
G75*
G02*
X140304019Y-108903500I-283981J0D01*
G01*
X140304019Y-108903500D02*
G75*
G02*
X140871981Y-108903500I283981J0D01*
G01*
%TO.C,RLY1*%
X109000000Y-108500000D02*
X121000000Y-108500000D01*
X109000000Y-121500000D02*
X109000000Y-108500000D01*
X109000000Y-121500000D02*
X121000000Y-121500000D01*
X114365000Y-120588000D02*
X113603000Y-121477000D01*
X115635000Y-120588000D02*
X114365000Y-120588000D01*
X116402080Y-121477000D02*
X115640080Y-120588000D01*
X121000000Y-121500000D02*
X121000000Y-108500000D01*
X120871981Y-108903500D02*
G75*
G02*
X120304019Y-108903500I-283981J0D01*
G01*
X120304019Y-108903500D02*
G75*
G02*
X120871981Y-108903500I283981J0D01*
G01*
%TO.C,R5*%
D12*
X128772936Y-79265000D02*
X129227064Y-79265000D01*
X128772936Y-80735000D02*
X129227064Y-80735000D01*
%TO.C,C7*%
X140265000Y-96061252D02*
X140265000Y-95538748D01*
X141735000Y-96061252D02*
X141735000Y-95538748D01*
%TO.C,R3*%
X125227064Y-102735000D02*
X124772936Y-102735000D01*
X125227064Y-101265000D02*
X124772936Y-101265000D01*
%TO.C,D1*%
X113440000Y-114240000D02*
X113440000Y-115760000D01*
X113440000Y-115760000D02*
X114440000Y-115760000D01*
X113490000Y-114240000D02*
X113440000Y-114240000D01*
X115390000Y-114240000D02*
X114610000Y-114240000D01*
X115560000Y-115760000D02*
X116560000Y-115760000D01*
X116560000Y-114240000D02*
X116510000Y-114240000D01*
X116560000Y-115760000D02*
X116560000Y-114240000D01*
X114950000Y-113940000D02*
X114620000Y-113700000D01*
X114950000Y-113460000D01*
X114950000Y-113940000D01*
G36*
X114950000Y-113940000D02*
G01*
X114620000Y-113700000D01*
X114950000Y-113460000D01*
X114950000Y-113940000D01*
G37*
%TO.C,Q2*%
X135240000Y-109440000D02*
X135240000Y-110440000D01*
X135240000Y-111560000D02*
X135240000Y-112560000D01*
X135240000Y-112560000D02*
X136760000Y-112560000D01*
X136760000Y-109440000D02*
X135240000Y-109440000D01*
X136760000Y-109490000D02*
X136760000Y-109440000D01*
X136760000Y-111390000D02*
X136760000Y-110610000D01*
X136760000Y-112560000D02*
X136760000Y-112510000D01*
X137540000Y-110950000D02*
X137060000Y-110950000D01*
X137300000Y-110620000D01*
X137540000Y-110950000D01*
G36*
X137540000Y-110950000D02*
G01*
X137060000Y-110950000D01*
X137300000Y-110620000D01*
X137540000Y-110950000D01*
G37*
%TO.C,D3*%
X133440000Y-114240000D02*
X133440000Y-115760000D01*
X133440000Y-115760000D02*
X134440000Y-115760000D01*
X133490000Y-114240000D02*
X133440000Y-114240000D01*
X135390000Y-114240000D02*
X134610000Y-114240000D01*
X135560000Y-115760000D02*
X136560000Y-115760000D01*
X136560000Y-114240000D02*
X136510000Y-114240000D01*
X136560000Y-115760000D02*
X136560000Y-114240000D01*
X134950000Y-113940000D02*
X134620000Y-113700000D01*
X134950000Y-113460000D01*
X134950000Y-113940000D01*
G36*
X134950000Y-113940000D02*
G01*
X134620000Y-113700000D01*
X134950000Y-113460000D01*
X134950000Y-113940000D01*
G37*
%TO.C,C9*%
X123261252Y-94165000D02*
X122738748Y-94165000D01*
X123261252Y-95635000D02*
X122738748Y-95635000D01*
%TO.C,R4*%
X133227064Y-87265000D02*
X132772936Y-87265000D01*
X133227064Y-88735000D02*
X132772936Y-88735000D01*
%TO.C,R7*%
X123227064Y-87935000D02*
X122772936Y-87935000D01*
X123227064Y-86465000D02*
X122772936Y-86465000D01*
%TO.C,R8*%
X137772936Y-101265000D02*
X138227064Y-101265000D01*
X137772936Y-102735000D02*
X138227064Y-102735000D01*
%TO.C,Q1*%
X115240000Y-109390000D02*
X115240000Y-110390000D01*
X115240000Y-111510000D02*
X115240000Y-112510000D01*
X115240000Y-112510000D02*
X116760000Y-112510000D01*
X116760000Y-109390000D02*
X115240000Y-109390000D01*
X116760000Y-109440000D02*
X116760000Y-109390000D01*
X116760000Y-111340000D02*
X116760000Y-110560000D01*
X116760000Y-112510000D02*
X116760000Y-112460000D01*
X117540000Y-110900000D02*
X117060000Y-110900000D01*
X117300000Y-110570000D01*
X117540000Y-110900000D01*
G36*
X117540000Y-110900000D02*
G01*
X117060000Y-110900000D01*
X117300000Y-110570000D01*
X117540000Y-110900000D01*
G37*
%TO.C,C8*%
X137265000Y-96061252D02*
X137265000Y-95538748D01*
X138735000Y-96061252D02*
X138735000Y-95538748D01*
%TO.C,D2*%
X124430000Y-81362500D02*
X124100000Y-81602500D01*
X124100000Y-81122500D01*
X124430000Y-81362500D01*
G36*
X124430000Y-81362500D02*
G01*
X124100000Y-81602500D01*
X124100000Y-81122500D01*
X124430000Y-81362500D01*
G37*
X125610000Y-80822500D02*
X125610000Y-79302500D01*
X125610000Y-79302500D02*
X124610000Y-79302500D01*
X125560000Y-80822500D02*
X125610000Y-80822500D01*
X123660000Y-80822500D02*
X124440000Y-80822500D01*
X123490000Y-79302500D02*
X122490000Y-79302500D01*
X122490000Y-80822500D02*
X122540000Y-80822500D01*
X122490000Y-79302500D02*
X122490000Y-80822500D01*
%TO.C,R2*%
X123227064Y-92935000D02*
X122772936Y-92935000D01*
X123227064Y-91465000D02*
X122772936Y-91465000D01*
%TO.C,C10*%
X129261252Y-83265000D02*
X128738748Y-83265000D01*
X129261252Y-84735000D02*
X128738748Y-84735000D01*
%TO.C,JP1*%
X123600000Y-110700000D02*
X123600000Y-111300000D01*
X124300000Y-112000000D02*
X125700000Y-112000000D01*
X125700000Y-110000000D02*
X124300000Y-110000000D01*
X126400000Y-111300000D02*
X126400000Y-110700000D01*
X123600000Y-110700000D02*
G75*
G02*
X124300000Y-110000000I699999J1D01*
G01*
X124300000Y-112000000D02*
G75*
G02*
X123600000Y-111300000I-1J699999D01*
G01*
X125700000Y-110000000D02*
G75*
G02*
X126400000Y-110700000I0J-700000D01*
G01*
X126400000Y-111300000D02*
G75*
G02*
X125700000Y-112000000I-700000J0D01*
G01*
%TO.C,R1*%
X148265000Y-74227064D02*
X148265000Y-73772936D01*
X149735000Y-74227064D02*
X149735000Y-73772936D01*
%TO.C,R6*%
X129227064Y-87265000D02*
X128772936Y-87265000D01*
X129227064Y-88735000D02*
X128772936Y-88735000D01*
%TD*%
D13*
%TO.C,W11*%
X126000000Y-120000000D03*
%TD*%
%TO.C,W8*%
X106000000Y-120000000D03*
%TD*%
%TO.C,W3*%
X109000000Y-64000000D03*
%TD*%
%TO.C,W4*%
X145000000Y-112000000D03*
%TD*%
%TO.C,W9*%
X144000000Y-120000000D03*
%TD*%
%TO.C,W6*%
X123000000Y-118000000D03*
%TD*%
%TO.C,W7*%
X106000000Y-116000000D03*
%TD*%
%TO.C,W5*%
X96000000Y-64000000D03*
%TD*%
%TO.C,W2*%
X96000000Y-110000000D03*
%TD*%
%TO.C,W10*%
X126000000Y-116000000D03*
%TD*%
%TO.C,W1*%
X96000000Y-116000000D03*
%TD*%
%LPC*%
%TO.C,JP1*%
G36*
X124850000Y-110250000D02*
G01*
X125150000Y-110250000D01*
X125150000Y-111750000D01*
X124850000Y-111750000D01*
X124850000Y-110250000D01*
G37*
%TD*%
D14*
%TO.C,J2*%
X156000000Y-67460000D03*
D15*
X156000000Y-70000000D03*
X156000000Y-72540000D03*
X156000000Y-75080000D03*
%TD*%
D16*
%TO.C,PS1*%
X112550000Y-69550000D03*
X94550000Y-69550000D03*
X106550000Y-103150000D03*
X100550000Y-103150000D03*
%TD*%
D17*
%TO.C,W11*%
X126000000Y-120000000D03*
%TD*%
D18*
%TO.C,U4*%
X119075000Y-58375000D03*
X119075000Y-105325000D03*
X143585000Y-58375000D03*
X143585000Y-105325000D03*
D19*
X118605000Y-61805000D03*
X118605000Y-64345000D03*
X118605000Y-66885000D03*
X118605000Y-69425000D03*
X118605000Y-71965000D03*
X118605000Y-74505000D03*
X118605000Y-77045000D03*
X118605000Y-79585000D03*
X118605000Y-82125000D03*
X118605000Y-84665000D03*
X118605000Y-87205000D03*
X118605000Y-89745000D03*
X118605000Y-92285000D03*
X118605000Y-94825000D03*
D20*
X118605000Y-97365000D03*
X144005000Y-97365000D03*
D19*
X144005000Y-94825000D03*
X144005000Y-92285000D03*
X144005000Y-89745000D03*
X144005000Y-87205000D03*
X144005000Y-84665000D03*
X144005000Y-82125000D03*
X144005000Y-79585000D03*
X144005000Y-77045000D03*
X144005000Y-74505000D03*
X144005000Y-71965000D03*
X144005000Y-69425000D03*
X144005000Y-66885000D03*
X144005000Y-64345000D03*
X144005000Y-61805000D03*
%TD*%
D17*
%TO.C,W8*%
X106000000Y-120000000D03*
%TD*%
D16*
%TO.C,RLY2*%
X138250000Y-116500000D03*
X130750000Y-109900000D03*
D21*
X131250000Y-120100000D03*
X139250000Y-120100000D03*
X131250000Y-117100000D03*
%TD*%
D17*
%TO.C,W3*%
X109000000Y-64000000D03*
%TD*%
%TO.C,W4*%
X145000000Y-112000000D03*
%TD*%
D22*
%TO.C,U3*%
X153000000Y-74810000D03*
D23*
X153000000Y-72270000D03*
X153000000Y-69730000D03*
X153000000Y-67190000D03*
%TD*%
D17*
%TO.C,W9*%
X144000000Y-120000000D03*
%TD*%
%TO.C,W6*%
X123000000Y-118000000D03*
%TD*%
%TO.C,W7*%
X106000000Y-116000000D03*
%TD*%
%TO.C,W5*%
X96000000Y-64000000D03*
%TD*%
%TO.C,W2*%
X96000000Y-110000000D03*
%TD*%
D16*
%TO.C,RLY1*%
X118250000Y-116500000D03*
X110750000Y-109900000D03*
D21*
X111250000Y-120100000D03*
X119250000Y-120100000D03*
X111250000Y-117100000D03*
%TD*%
D24*
%TO.C,J1*%
X155000000Y-93000000D03*
X157500000Y-93000000D03*
X150000000Y-88000000D03*
X155000000Y-83000000D03*
X157500000Y-83000000D03*
D25*
X150000000Y-93000000D03*
D26*
X155000000Y-88000000D03*
D25*
X150000000Y-83000000D03*
%TD*%
D17*
%TO.C,W10*%
X126000000Y-116000000D03*
%TD*%
%TO.C,W1*%
X96000000Y-116000000D03*
%TD*%
D27*
%TO.C,R5*%
X128000000Y-80000000D03*
X130000000Y-80000000D03*
%TD*%
D28*
%TO.C,C7*%
X141000000Y-96837500D03*
X141000000Y-94762500D03*
%TD*%
D29*
%TO.C,R3*%
X126000000Y-102000000D03*
X124000000Y-102000000D03*
%TD*%
D30*
%TO.C,D1*%
X114050000Y-114062500D03*
X115950000Y-114062500D03*
X115000000Y-115937500D03*
%TD*%
D31*
%TO.C,Q2*%
X136937500Y-110050000D03*
X136937500Y-111950000D03*
X135062500Y-111000000D03*
%TD*%
D30*
%TO.C,D3*%
X134050000Y-114062500D03*
X135950000Y-114062500D03*
X135000000Y-115937500D03*
%TD*%
D32*
%TO.C,C9*%
X121962500Y-94900000D03*
X124037500Y-94900000D03*
%TD*%
D29*
%TO.C,R4*%
X134000000Y-88000000D03*
X132000000Y-88000000D03*
%TD*%
%TO.C,R7*%
X122000000Y-87200000D03*
X124000000Y-87200000D03*
%TD*%
D27*
%TO.C,R8*%
X137000000Y-102000000D03*
X139000000Y-102000000D03*
%TD*%
D31*
%TO.C,Q1*%
X116937500Y-110000000D03*
X116937500Y-111900000D03*
X115062500Y-110950000D03*
%TD*%
D28*
%TO.C,C8*%
X138000000Y-96837500D03*
X138000000Y-94762500D03*
%TD*%
D33*
%TO.C,D2*%
X124050000Y-79125000D03*
X123100000Y-81000000D03*
X125000000Y-81000000D03*
%TD*%
D29*
%TO.C,R2*%
X122000000Y-92200000D03*
X124000000Y-92200000D03*
%TD*%
D32*
%TO.C,C10*%
X130037500Y-84000000D03*
X127962500Y-84000000D03*
%TD*%
D34*
%TO.C,JP1*%
X124350000Y-111000000D03*
D35*
X125650000Y-111000000D03*
%TD*%
D36*
%TO.C,R1*%
X149000000Y-75000000D03*
X149000000Y-73000000D03*
%TD*%
D29*
%TO.C,R6*%
X130000000Y-88000000D03*
X128000000Y-88000000D03*
%TD*%
%LPD*%
M02*
