%TF.GenerationSoftware,KiCad,Pcbnew,10.0.1*%
%TF.CreationDate,2026-05-24T23:26:35-05:00*%
%TF.ProjectId,ESPSauna,45535053-6175-46e6-912e-6b696361645f,rev?*%
%TF.SameCoordinates,Original*%
%TF.FileFunction,Copper,L1,Top*%
%TF.FilePolarity,Positive*%
%FSLAX46Y46*%
G04 Gerber Fmt 4.6, Leading zero omitted, Abs format (unit mm)*
G04 Created by KiCad (PCBNEW 10.0.1) date 2026-05-24 23:26:35*
%MOMM*%
%LPD*%
G01*
G04 APERTURE LIST*
G04 Aperture macros list*
%AMRoundRect*
0 Rectangle with rounded corners*
0 $1 Rounding radius*
0 $2 $3 $4 $5 $6 $7 $8 $9 X,Y pos of 4 corners*
0 Add a 4 corners polygon primitive as box body*
4,1,4,$2,$3,$4,$5,$6,$7,$8,$9,$2,$3,0*
0 Add four circle primitives for the rounded corners*
1,1,$1+$1,$2,$3*
1,1,$1+$1,$4,$5*
1,1,$1+$1,$6,$7*
1,1,$1+$1,$8,$9*
0 Add four rect primitives between the rounded corners*
20,1,$1+$1,$2,$3,$4,$5,0*
20,1,$1+$1,$4,$5,$6,$7,0*
20,1,$1+$1,$6,$7,$8,$9,0*
20,1,$1+$1,$8,$9,$2,$3,0*%
G04 Aperture macros list end*
%TA.AperFunction,ComponentPad*%
%ADD10R,1.700000X1.700000*%
%TD*%
%TA.AperFunction,ComponentPad*%
%ADD11C,1.700000*%
%TD*%
%TA.AperFunction,ComponentPad*%
%ADD12C,1.300000*%
%TD*%
%TA.AperFunction,SMDPad,CuDef*%
%ADD13RoundRect,0.150000X0.150000X-0.512500X0.150000X0.512500X-0.150000X0.512500X-0.150000X-0.512500X0*%
%TD*%
%TA.AperFunction,SMDPad,CuDef*%
%ADD14RoundRect,0.250000X0.475000X-0.337500X0.475000X0.337500X-0.475000X0.337500X-0.475000X-0.337500X0*%
%TD*%
%TA.AperFunction,SMDPad,CuDef*%
%ADD15RoundRect,0.250000X-0.650000X0.412500X-0.650000X-0.412500X0.650000X-0.412500X0.650000X0.412500X0*%
%TD*%
%TA.AperFunction,SMDPad,CuDef*%
%ADD16RoundRect,0.250000X-0.475000X0.337500X-0.475000X-0.337500X0.475000X-0.337500X0.475000X0.337500X0*%
%TD*%
%TA.AperFunction,ComponentPad*%
%ADD17C,2.220000*%
%TD*%
%TA.AperFunction,ComponentPad*%
%ADD18C,2.000000*%
%TD*%
%TA.AperFunction,ComponentPad*%
%ADD19R,2.000000X2.000000*%
%TD*%
%TA.AperFunction,ComponentPad*%
%ADD20C,2.300000*%
%TD*%
%TA.AperFunction,SMDPad,CuDef*%
%ADD21RoundRect,0.235000X1.465000X-0.940000X1.465000X0.940000X-1.465000X0.940000X-1.465000X-0.940000X0*%
%TD*%
%TA.AperFunction,SMDPad,CuDef*%
%ADD22RoundRect,0.250000X1.100000X-0.412500X1.100000X0.412500X-1.100000X0.412500X-1.100000X-0.412500X0*%
%TD*%
%TA.AperFunction,ComponentPad*%
%ADD23R,1.500000X1.500000*%
%TD*%
%TA.AperFunction,ComponentPad*%
%ADD24C,1.500000*%
%TD*%
%TA.AperFunction,ComponentPad*%
%ADD25O,2.200000X1.200000*%
%TD*%
%TA.AperFunction,ComponentPad*%
%ADD26O,1.200000X2.200000*%
%TD*%
%TA.AperFunction,ViaPad*%
%ADD27C,0.500000*%
%TD*%
%TA.AperFunction,ViaPad*%
%ADD28C,0.700000*%
%TD*%
%TA.AperFunction,Conductor*%
%ADD29C,1.000000*%
%TD*%
%TA.AperFunction,Conductor*%
%ADD30C,2.500000*%
%TD*%
%TA.AperFunction,Conductor*%
%ADD31C,3.000000*%
%TD*%
%TA.AperFunction,Conductor*%
%ADD32C,0.900000*%
%TD*%
%TA.AperFunction,Conductor*%
%ADD33C,2.000000*%
%TD*%
%TA.AperFunction,Conductor*%
%ADD34C,0.500000*%
%TD*%
G04 APERTURE END LIST*
D10*
%TO.P,J2,1,Pin_1_1*%
%TO.N,+3V3*%
X156000000Y-67460000D03*
D11*
%TO.P,J2,2,Pin_2_2*%
%TO.N,GNDREF*%
X156000000Y-70000000D03*
%TO.P,J2,3,Pin_3_3*%
%TO.N,SCL*%
X156000000Y-72540000D03*
%TO.P,J2,4,Pin_4_4*%
%TO.N,SDA*%
X156000000Y-75080000D03*
%TD*%
D12*
%TO.P,PS1,4,+VO_4*%
%TO.N,+12V*%
X112550000Y-69550000D03*
%TO.P,PS1,3,-VO_3*%
%TO.N,GNDREF*%
X94550000Y-69550000D03*
%TO.P,PS1,2,AC_2_2*%
%TO.N,AC1*%
X106550000Y-103150000D03*
%TO.P,PS1,1,AC_1_1*%
%TO.N,AC2*%
X100550000Y-103150000D03*
%TD*%
D13*
%TO.P,U1,1,FB_1*%
%TO.N,+3V3*%
X153050000Y-114275000D03*
%TO.P,U1,2,EN_2*%
%TO.N,+12V*%
X154000000Y-114275000D03*
%TO.P,U1,3,IN_3*%
X154950000Y-114275000D03*
%TO.P,U1,4,GND_4*%
%TO.N,GNDREF*%
X154950000Y-112000000D03*
%TO.P,U1,5,SW_5*%
%TO.N,Net-(U1-SW)*%
X154000000Y-112000000D03*
%TO.P,U1,6,BST_6*%
%TO.N,Net-(U1-BST)*%
X153050000Y-112000000D03*
%TD*%
D14*
%TO.P,C2,1*%
%TO.N,+3V3*%
X157000000Y-100037500D03*
%TO.P,C2,2*%
%TO.N,GNDREF*%
X157000000Y-97962500D03*
%TD*%
D15*
%TO.P,C5,1*%
%TO.N,+12V*%
X154000000Y-116437500D03*
%TO.P,C5,2*%
%TO.N,GNDREF*%
X154000000Y-119562500D03*
%TD*%
D16*
%TO.P,C1,1*%
%TO.N,Net-(U1-SW)*%
X151000000Y-111962500D03*
%TO.P,C1,2*%
%TO.N,Net-(U1-BST)*%
X151000000Y-114037500D03*
%TD*%
D17*
%TO.P,W11,1*%
%TO.N,Safety_NC*%
X126000000Y-120000000D03*
%TD*%
D18*
%TO.P,U4,1,EN_1*%
%TO.N,unconnected-(U4-EN-Pad1)*%
X118605000Y-61805000D03*
%TO.P,U4,2,VP_2*%
%TO.N,unconnected-(U4-VP-Pad2)*%
X118605000Y-64345000D03*
%TO.P,U4,3,VN_3*%
%TO.N,unconnected-(U4-VN-Pad3)*%
X118605000Y-66885000D03*
%TO.P,U4,4,D34_4*%
%TO.N,unconnected-(U4-D34-Pad4)*%
X118605000Y-69425000D03*
%TO.P,U4,5,D35_5*%
%TO.N,Sense*%
X118605000Y-71965000D03*
%TO.P,U4,6,D32_6*%
%TO.N,unconnected-(U4-D32-Pad6)*%
X118605000Y-74505000D03*
%TO.P,U4,7,D33_7*%
%TO.N,unconnected-(U4-D33-Pad7)*%
X118605000Y-77045000D03*
%TO.P,U4,8,D25_8*%
%TO.N,unconnected-(U4-D25-Pad8)*%
X118605000Y-79585000D03*
%TO.P,U4,9,D26_9*%
%TO.N,unconnected-(U4-D26-Pad9)*%
X118605000Y-82125000D03*
%TO.P,U4,10,D27_10*%
%TO.N,unconnected-(U4-D27-Pad10)*%
X118605000Y-84665000D03*
%TO.P,U4,11,D14_11*%
%TO.N,Safety*%
X118605000Y-87205000D03*
%TO.P,U4,12,D12_12*%
%TO.N,unconnected-(U4-D12-Pad12)*%
X118605000Y-89745000D03*
%TO.P,U4,13,D13_13*%
%TO.N,Remote*%
X118605000Y-92285000D03*
%TO.P,U4,14,GND_14*%
%TO.N,GNDREF*%
X118605000Y-94825000D03*
D19*
%TO.P,U4,15,VIN_15*%
%TO.N,unconnected-(U4-VIN-Pad15)*%
X118605000Y-97365000D03*
%TO.P,U4,16,3V3_16*%
%TO.N,+3V3*%
X144005000Y-97365000D03*
D18*
%TO.P,U4,17,GND_17*%
%TO.N,GNDREF*%
X144005000Y-94825000D03*
%TO.P,U4,18,D15_18*%
%TO.N,unconnected-(U4-D15-Pad18)*%
X144005000Y-92285000D03*
%TO.P,U4,19,D2_19*%
%TO.N,unconnected-(U4-D2-Pad19)*%
X144005000Y-89745000D03*
%TO.P,U4,20,D4_20*%
%TO.N,DHT*%
X144005000Y-87205000D03*
%TO.P,U4,21,RX2_21*%
%TO.N,unconnected-(U4-RX2-Pad21)*%
X144005000Y-84665000D03*
%TO.P,U4,22,TX2_22*%
%TO.N,unconnected-(U4-TX2-Pad22)*%
X144005000Y-82125000D03*
%TO.P,U4,23,D5_23*%
%TO.N,unconnected-(U4-D5-Pad23)*%
X144005000Y-79585000D03*
%TO.P,U4,24,D18_24*%
%TO.N,unconnected-(U4-D18-Pad24)*%
X144005000Y-77045000D03*
%TO.P,U4,25,D19_25*%
%TO.N,unconnected-(U4-D19-Pad25)*%
X144005000Y-74505000D03*
%TO.P,U4,26,D21_26*%
%TO.N,SDA*%
X144005000Y-71965000D03*
%TO.P,U4,27,RX0_27*%
%TO.N,unconnected-(U4-RX0-Pad27)*%
X144005000Y-69425000D03*
%TO.P,U4,28,TX0_28*%
%TO.N,unconnected-(U4-TX0-Pad28)*%
X144005000Y-66885000D03*
%TO.P,U4,29,D22_29*%
%TO.N,SCL*%
X144005000Y-64345000D03*
%TO.P,U4,30,D23_30*%
%TO.N,unconnected-(U4-D23-Pad30)*%
X144005000Y-61805000D03*
%TD*%
D17*
%TO.P,W8,1*%
%TO.N,Remote_NC*%
X106000000Y-120000000D03*
%TD*%
D16*
%TO.P,C6,1*%
%TO.N,+12V*%
X157000000Y-115962500D03*
%TO.P,C6,2*%
%TO.N,GNDREF*%
X157000000Y-118037500D03*
%TD*%
D12*
%TO.P,RLY2,1*%
%TO.N,+12V*%
X138250000Y-116500000D03*
%TO.P,RLY2,2*%
%TO.N,Net-(D3-A)*%
X130750000Y-109900000D03*
D20*
%TO.P,RLY2,3*%
%TO.N,Safety_NC*%
X131250000Y-120100000D03*
%TO.P,RLY2,4*%
%TO.N,Safety_COM*%
X139250000Y-120100000D03*
%TO.P,RLY2,5*%
%TO.N,Safety_NO*%
X131250000Y-117100000D03*
%TD*%
D17*
%TO.P,W3,1*%
%TO.N,+12V*%
X109000000Y-64000000D03*
%TD*%
D21*
%TO.P,L1,1,1_1*%
%TO.N,Net-(U1-SW)*%
X152900000Y-109225000D03*
%TO.P,L1,2,2_2*%
%TO.N,+3V3*%
X152900000Y-103175000D03*
%TD*%
D17*
%TO.P,W4,1*%
%TO.N,+3V3*%
X145000000Y-112000000D03*
%TD*%
D22*
%TO.P,C4,2*%
%TO.N,GNDREF*%
X149000000Y-97437500D03*
%TO.P,C4,1*%
%TO.N,+3V3*%
X149000000Y-100562500D03*
%TD*%
D23*
%TO.P,U3,1,VDD_1*%
%TO.N,+3V3*%
X153000000Y-74810000D03*
D24*
%TO.P,U3,2,SDA_2*%
%TO.N,DHT*%
X153000000Y-72270000D03*
%TO.P,U3,3,GND_3*%
%TO.N,GNDREF*%
X153000000Y-69730000D03*
%TO.P,U3,4,GND_4*%
X153000000Y-67190000D03*
%TD*%
D17*
%TO.P,W9,1*%
%TO.N,Safety_COM*%
X144000000Y-120000000D03*
%TD*%
%TO.P,W6,1*%
%TO.N,Remote_COM*%
X123000000Y-118000000D03*
%TD*%
%TO.P,W7,1*%
%TO.N,Remote_NO*%
X106000000Y-116000000D03*
%TD*%
%TO.P,W5,1*%
%TO.N,GNDREF*%
X96000000Y-64000000D03*
%TD*%
D22*
%TO.P,C3,1*%
%TO.N,+3V3*%
X153300000Y-100562500D03*
%TO.P,C3,2*%
%TO.N,GNDREF*%
X153300000Y-97437500D03*
%TD*%
D17*
%TO.P,W2,1*%
%TO.N,AC2*%
X96000000Y-110000000D03*
%TD*%
D12*
%TO.P,RLY1,1*%
%TO.N,+12V*%
X118250000Y-116500000D03*
%TO.P,RLY1,2*%
%TO.N,Net-(D1-A)*%
X110750000Y-109900000D03*
D20*
%TO.P,RLY1,3*%
%TO.N,Remote_NC*%
X111250000Y-120100000D03*
%TO.P,RLY1,4*%
%TO.N,Remote_COM*%
X119250000Y-120100000D03*
%TO.P,RLY1,5*%
%TO.N,Remote_NO*%
X111250000Y-117100000D03*
%TD*%
D25*
%TO.P,J1,R*%
%TO.N,GNDREF*%
X150000000Y-93000000D03*
D26*
%TO.P,J1,S*%
X155000000Y-88000000D03*
D25*
%TO.P,J1,T*%
%TO.N,Net-(C10-Pad1)*%
X150000000Y-83000000D03*
%TD*%
D17*
%TO.P,W10,1*%
%TO.N,Safety_NO*%
X126000000Y-116000000D03*
%TD*%
%TO.P,W1,1*%
%TO.N,AC1*%
X96000000Y-116000000D03*
%TD*%
D27*
%TO.N,GNDREF*%
X154000000Y-119900000D03*
X157000000Y-118300000D03*
X153130000Y-113140000D03*
X155500000Y-112000000D03*
X149700000Y-97100000D03*
X148300000Y-97100000D03*
X153900000Y-97100000D03*
X152700000Y-97100000D03*
X157000000Y-97700000D03*
D28*
X130000000Y-99000000D03*
X144000000Y-100000000D03*
X146700000Y-114900000D03*
X107500000Y-110500000D03*
X120000000Y-115000000D03*
X138500000Y-113500000D03*
X128500000Y-110500000D03*
X116500000Y-108000000D03*
X120500000Y-96500000D03*
X139000000Y-88500000D03*
X139500000Y-79500000D03*
X128000000Y-73000000D03*
X103500000Y-82000000D03*
X92000000Y-96000000D03*
X111500000Y-96000000D03*
X152000000Y-121000000D03*
X158500000Y-112000000D03*
X147100000Y-112900000D03*
X133500000Y-121000000D03*
X123500000Y-121000000D03*
X117500000Y-121000000D03*
X113000000Y-121000000D03*
X104000000Y-121000000D03*
X100000000Y-121000000D03*
X92000000Y-89000000D03*
X92000000Y-75500000D03*
X105500000Y-61000000D03*
X92000000Y-61000000D03*
X131500000Y-65000000D03*
X122000000Y-65000000D03*
X120500000Y-61000000D03*
X141000000Y-65000000D03*
X142000000Y-61000000D03*
X158500000Y-71500000D03*
X158500000Y-61000000D03*
X158500000Y-84500000D03*
X158500000Y-91500000D03*
X158500000Y-96500000D03*
X158500000Y-103500000D03*
X146000000Y-121000000D03*
X158500000Y-121000000D03*
X156100000Y-111200000D03*
X156100000Y-112900000D03*
X155200000Y-110500000D03*
%TO.N,+3V3*%
X124100000Y-97300000D03*
%TD*%
%TO.N,+3V3*%
D29*
X154450000Y-69010000D02*
X156000000Y-67460000D01*
X154450000Y-73360000D02*
X154450000Y-69010000D01*
X153000000Y-74810000D02*
X154450000Y-73360000D01*
%TO.N,+12V*%
D30*
X153637500Y-116800000D02*
X154000000Y-116437500D01*
X138550000Y-116800000D02*
X153637500Y-116800000D01*
X138250000Y-116500000D02*
X138550000Y-116800000D01*
%TO.N,+3V3*%
D31*
X147500000Y-102062500D02*
X147500000Y-109500000D01*
X149000000Y-100562500D02*
X147500000Y-102062500D01*
X147500000Y-109500000D02*
X145000000Y-112000000D01*
%TO.N,AC2*%
X98350000Y-103150000D02*
X96000000Y-105500000D01*
X96000000Y-105500000D02*
X96000000Y-110000000D01*
X100550000Y-103150000D02*
X98350000Y-103150000D01*
%TO.N,+3V3*%
D29*
X152400000Y-75410000D02*
X153000000Y-74810000D01*
X152400000Y-87509188D02*
X152400000Y-75410000D01*
X150559188Y-89350000D02*
X152400000Y-87509188D01*
X149750000Y-89350000D02*
X150559188Y-89350000D01*
X146700000Y-92400000D02*
X149750000Y-89350000D01*
X146700000Y-95800000D02*
X146700000Y-92400000D01*
X145135000Y-97365000D02*
X146700000Y-95800000D01*
X144005000Y-97365000D02*
X145135000Y-97365000D01*
%TO.N,Net-(U1-SW)*%
D32*
X151000000Y-111125000D02*
X152900000Y-109225000D01*
X151000000Y-111962500D02*
X151000000Y-111125000D01*
X154000000Y-110325000D02*
X152900000Y-109225000D01*
X154000000Y-112000000D02*
X154000000Y-110325000D01*
%TO.N,+3V3*%
D33*
X147202500Y-100562500D02*
X149000000Y-100562500D01*
X144005000Y-97365000D02*
X147202500Y-100562500D01*
D34*
X152100000Y-115100000D02*
X148100000Y-115100000D01*
X148100000Y-115100000D02*
X145000000Y-112000000D01*
X152300000Y-114900000D02*
X152100000Y-115100000D01*
X152300000Y-114400000D02*
X152300000Y-114900000D01*
X152425000Y-114275000D02*
X152300000Y-114400000D01*
X153050000Y-114275000D02*
X152425000Y-114275000D01*
%TO.N,Net-(U1-BST)*%
X151462500Y-114037500D02*
X151000000Y-114037500D01*
X152400000Y-113100000D02*
X151462500Y-114037500D01*
X152400000Y-112650000D02*
X152400000Y-113100000D01*
X153050000Y-112000000D02*
X152400000Y-112650000D01*
%TO.N,DHT*%
D29*
X146195000Y-87205000D02*
X144005000Y-87205000D01*
X150130000Y-72270000D02*
X147300000Y-75100000D01*
X147300000Y-86100000D02*
X146195000Y-87205000D01*
X153000000Y-72270000D02*
X150130000Y-72270000D01*
X147300000Y-75100000D02*
X147300000Y-86100000D01*
%TO.N,+12V*%
D31*
X114350000Y-112600000D02*
X114000000Y-112250000D01*
X134350000Y-112600000D02*
X114350000Y-112600000D01*
X138250000Y-116500000D02*
X134350000Y-112600000D01*
X114000000Y-112250000D02*
X118250000Y-116500000D01*
X114000000Y-71000000D02*
X114000000Y-112250000D01*
X112550000Y-69550000D02*
X114000000Y-71000000D01*
%TO.N,+3V3*%
D33*
X124165000Y-97365000D02*
X124100000Y-97300000D01*
X144005000Y-97365000D02*
X124165000Y-97365000D01*
%TO.N,Safety_COM*%
D30*
X143900000Y-120100000D02*
X144000000Y-120000000D01*
X139250000Y-120100000D02*
X143900000Y-120100000D01*
%TO.N,Safety_NC*%
X126100000Y-120100000D02*
X126000000Y-120000000D01*
X131250000Y-120100000D02*
X126100000Y-120100000D01*
%TO.N,Safety_NO*%
X127100000Y-117100000D02*
X126000000Y-116000000D01*
X131250000Y-117100000D02*
X127100000Y-117100000D01*
%TO.N,Remote_COM*%
X120900000Y-120100000D02*
X123000000Y-118000000D01*
X119250000Y-120100000D02*
X120900000Y-120100000D01*
%TO.N,Remote_NO*%
X107100000Y-117100000D02*
X106000000Y-116000000D01*
X111250000Y-117100000D02*
X107100000Y-117100000D01*
%TO.N,Remote_NC*%
X106100000Y-120100000D02*
X106000000Y-120000000D01*
X111250000Y-120100000D02*
X106100000Y-120100000D01*
%TO.N,AC1*%
D31*
X99212742Y-109012742D02*
X105075484Y-103150000D01*
X96000000Y-116000000D02*
X99212742Y-112787258D01*
X99212742Y-112787258D02*
X99212742Y-109012742D01*
X105075484Y-103150000D02*
X106550000Y-103150000D01*
%TD*%
%TA.AperFunction,Conductor*%
%TO.N,GNDREF*%
G36*
X121159499Y-60504227D02*
G01*
X121166398Y-60507085D01*
X121182304Y-60522991D01*
X121192913Y-60533598D01*
X121195771Y-60540499D01*
X121199500Y-60559247D01*
X121199500Y-64065898D01*
X121231968Y-64187072D01*
X121231970Y-64187076D01*
X121233607Y-64193184D01*
X121233608Y-64193188D01*
X121266709Y-64250519D01*
X121266976Y-64250982D01*
X121266984Y-64250996D01*
X121299496Y-64307308D01*
X121299498Y-64307310D01*
X121299500Y-64307314D01*
X121392686Y-64400500D01*
X121434457Y-64424617D01*
X121506811Y-64466391D01*
X121506812Y-64466391D01*
X121506815Y-64466393D01*
X121585988Y-64487606D01*
X121607207Y-64493292D01*
X121631012Y-64499670D01*
X121633455Y-64500500D01*
X141065895Y-64500500D01*
X141072689Y-64500500D01*
X141078575Y-64497101D01*
X141193186Y-64466392D01*
X141307314Y-64400500D01*
X141400500Y-64307314D01*
X141433291Y-64250519D01*
X142804500Y-64250519D01*
X142804500Y-64439480D01*
X142827794Y-64586557D01*
X142834059Y-64626115D01*
X142834061Y-64626123D01*
X142834089Y-64626208D01*
X142892453Y-64805834D01*
X142978230Y-64974183D01*
X142978236Y-64974194D01*
X142978243Y-64974208D01*
X142978441Y-64974476D01*
X143006868Y-65013601D01*
X143089310Y-65127073D01*
X143089312Y-65127075D01*
X143089318Y-65127083D01*
X143176699Y-65214463D01*
X143222920Y-65260684D01*
X143222923Y-65260686D01*
X143222927Y-65260690D01*
X143222940Y-65260699D01*
X143223118Y-65260846D01*
X143223658Y-65261221D01*
X143375801Y-65371760D01*
X143375803Y-65371761D01*
X143375806Y-65371763D01*
X143501302Y-65435706D01*
X143544168Y-65457547D01*
X143723882Y-65515940D01*
X143910519Y-65545500D01*
X143910520Y-65545500D01*
X144099480Y-65545500D01*
X144099481Y-65545500D01*
X144286118Y-65515940D01*
X144465832Y-65457547D01*
X144634199Y-65371760D01*
X144787073Y-65260690D01*
X144920690Y-65127073D01*
X145031760Y-64974199D01*
X145117547Y-64805832D01*
X145175940Y-64626118D01*
X145205500Y-64439481D01*
X145205500Y-64250519D01*
X145175940Y-64063882D01*
X145117547Y-63884168D01*
X145031760Y-63715801D01*
X144921252Y-63563700D01*
X144921252Y-63563699D01*
X144920687Y-63562923D01*
X144808312Y-63450548D01*
X144804871Y-63442241D01*
X144721928Y-63381979D01*
X144721928Y-63381978D01*
X144634476Y-63318441D01*
X144634476Y-63318440D01*
X144634192Y-63318234D01*
X144634183Y-63318230D01*
X144465834Y-63232453D01*
X144286208Y-63174089D01*
X144286123Y-63174061D01*
X144286115Y-63174059D01*
X144142744Y-63151352D01*
X144099481Y-63144500D01*
X143910519Y-63144500D01*
X143875396Y-63150061D01*
X143875397Y-63150062D01*
X143723883Y-63174059D01*
X143723869Y-63174062D01*
X143723790Y-63174089D01*
X143544164Y-63232453D01*
X143375811Y-63318232D01*
X143222913Y-63429320D01*
X143089320Y-63562913D01*
X142978232Y-63715811D01*
X142892453Y-63884164D01*
X142834089Y-64063790D01*
X142834062Y-64063869D01*
X142834059Y-64063883D01*
X142833740Y-64065898D01*
X142804500Y-64250519D01*
X141433291Y-64250519D01*
X141466392Y-64193186D01*
X141497101Y-64078575D01*
X141500500Y-64072689D01*
X141500500Y-61710519D01*
X142804500Y-61710519D01*
X142804500Y-61899479D01*
X142834059Y-62086115D01*
X142834061Y-62086123D01*
X142834089Y-62086208D01*
X142892453Y-62265834D01*
X142978230Y-62434183D01*
X142978236Y-62434194D01*
X142978243Y-62434208D01*
X142978441Y-62434476D01*
X143089310Y-62587073D01*
X143089312Y-62587075D01*
X143089318Y-62587083D01*
X143191736Y-62689500D01*
X143222920Y-62720684D01*
X143222923Y-62720686D01*
X143222927Y-62720690D01*
X143222940Y-62720699D01*
X143223118Y-62720846D01*
X143223658Y-62721221D01*
X143375801Y-62831760D01*
X143375803Y-62831761D01*
X143375806Y-62831763D01*
X143441038Y-62865000D01*
X143544168Y-62917547D01*
X143723882Y-62975940D01*
X143910519Y-63005500D01*
X143910520Y-63005500D01*
X144099480Y-63005500D01*
X144099481Y-63005500D01*
X144286118Y-62975940D01*
X144465832Y-62917547D01*
X144634199Y-62831760D01*
X144787073Y-62720690D01*
X144920690Y-62587073D01*
X145031760Y-62434199D01*
X145117547Y-62265832D01*
X145175940Y-62086118D01*
X145205500Y-61899481D01*
X145205500Y-61710519D01*
X145175940Y-61523882D01*
X145117547Y-61344168D01*
X145031760Y-61175801D01*
X144921252Y-61023700D01*
X144921252Y-61023699D01*
X144920687Y-61022923D01*
X144808312Y-60910548D01*
X144804871Y-60902241D01*
X144634190Y-60778234D01*
X144465834Y-60692453D01*
X144286208Y-60634089D01*
X144286123Y-60634061D01*
X144286115Y-60634059D01*
X144142744Y-60611352D01*
X144099481Y-60604500D01*
X143910519Y-60604500D01*
X143875396Y-60610061D01*
X143875397Y-60610062D01*
X143723883Y-60634059D01*
X143723869Y-60634062D01*
X143723790Y-60634089D01*
X143544164Y-60692453D01*
X143375811Y-60778232D01*
X143222913Y-60889320D01*
X143089320Y-61022913D01*
X142978232Y-61175811D01*
X142892453Y-61344164D01*
X142834089Y-61523790D01*
X142834062Y-61523869D01*
X142834059Y-61523883D01*
X142804500Y-61710519D01*
X141500500Y-61710519D01*
X141500500Y-60559247D01*
X141504227Y-60540502D01*
X141507083Y-60533606D01*
X141533594Y-60507088D01*
X141540502Y-60504226D01*
X141559247Y-60500500D01*
X158940753Y-60500500D01*
X158959499Y-60504227D01*
X158966393Y-60507083D01*
X158992913Y-60533598D01*
X158995771Y-60540499D01*
X158999500Y-60559247D01*
X158999500Y-85240752D01*
X158995771Y-85259503D01*
X158992916Y-85266396D01*
X158966398Y-85292914D01*
X158959503Y-85295770D01*
X158940753Y-85299500D01*
X158565893Y-85299500D01*
X158500001Y-85299500D01*
X158411310Y-85299500D01*
X158324721Y-85316723D01*
X158324721Y-85316722D01*
X158237345Y-85334101D01*
X158237319Y-85334109D01*
X158073458Y-85401984D01*
X158073455Y-85401986D01*
X158073357Y-85402035D01*
X158072745Y-85402460D01*
X158035961Y-85427038D01*
X157925965Y-85500534D01*
X157800535Y-85625964D01*
X157701982Y-85773462D01*
X157634109Y-85937319D01*
X157634104Y-85937335D01*
X157634104Y-85937337D01*
X157622996Y-85993186D01*
X157599500Y-86111310D01*
X157599500Y-86111313D01*
X157599500Y-89888700D01*
X157634100Y-90062648D01*
X157634102Y-90062652D01*
X157634106Y-90062668D01*
X157634107Y-90062671D01*
X157693407Y-90205832D01*
X157701988Y-90226547D01*
X157800536Y-90374035D01*
X157925965Y-90499464D01*
X158073453Y-90598012D01*
X158237333Y-90665894D01*
X158323084Y-90682951D01*
X158353027Y-90688907D01*
X158411278Y-90700495D01*
X158411290Y-90700496D01*
X158411302Y-90700499D01*
X158411308Y-90700500D01*
X158434108Y-90700500D01*
X158940753Y-90700500D01*
X158959499Y-90704227D01*
X158966393Y-90707083D01*
X158992913Y-90733598D01*
X158995771Y-90740499D01*
X158999500Y-90759247D01*
X158999500Y-121419157D01*
X158995771Y-121437908D01*
X158992916Y-121444801D01*
X158971991Y-121465727D01*
X158966398Y-121471319D01*
X158959503Y-121474175D01*
X158940753Y-121477905D01*
X144604556Y-121477905D01*
X144585804Y-121474175D01*
X144580930Y-121472156D01*
X144554411Y-121445637D01*
X144554411Y-121408135D01*
X144554668Y-121407516D01*
X144569295Y-121391702D01*
X144570399Y-121389039D01*
X144574547Y-121386024D01*
X144577678Y-121382639D01*
X144582799Y-121380030D01*
X144660228Y-121340579D01*
X144746042Y-121278231D01*
X144844937Y-121206380D01*
X145106379Y-120944937D01*
X145240579Y-120760228D01*
X145344231Y-120556799D01*
X145414784Y-120339660D01*
X145450499Y-120114157D01*
X145450499Y-120062501D01*
X152603833Y-120062501D01*
X152610490Y-120127681D01*
X152610492Y-120127690D01*
X152665642Y-120294122D01*
X152755465Y-120439750D01*
X152757682Y-120443343D01*
X152881656Y-120567317D01*
X153030877Y-120659357D01*
X153197306Y-120714506D01*
X153248662Y-120719752D01*
X153300016Y-120724999D01*
X153300018Y-120724999D01*
X153499998Y-120724999D01*
X153499999Y-120724999D01*
X154500000Y-120724999D01*
X154699980Y-120724999D01*
X154699982Y-120724999D01*
X154741065Y-120720801D01*
X154802693Y-120714506D01*
X154969122Y-120659357D01*
X155118343Y-120567317D01*
X155242317Y-120443343D01*
X155334357Y-120294122D01*
X155389506Y-120127693D01*
X155396167Y-120062500D01*
X154500000Y-120062500D01*
X154500000Y-120724999D01*
X153499999Y-120724999D01*
X153500000Y-120724998D01*
X153500000Y-120062500D01*
X152603834Y-120062500D01*
X152603833Y-120062501D01*
X145450499Y-120062501D01*
X145450499Y-119885844D01*
X145414784Y-119660341D01*
X145344231Y-119443202D01*
X145240579Y-119239773D01*
X145111781Y-119062498D01*
X152603833Y-119062498D01*
X152603833Y-119062499D01*
X152603834Y-119062500D01*
X153500000Y-119062500D01*
X154500000Y-119062500D01*
X155396166Y-119062500D01*
X155396166Y-119062496D01*
X155389506Y-118997308D01*
X155389506Y-118997306D01*
X155334357Y-118830877D01*
X155242317Y-118681656D01*
X155118343Y-118557682D01*
X155118342Y-118557681D01*
X155085623Y-118537500D01*
X155788743Y-118537500D01*
X155840642Y-118694122D01*
X155880918Y-118759421D01*
X155932682Y-118843343D01*
X156056656Y-118967317D01*
X156205877Y-119059357D01*
X156372306Y-119114506D01*
X156475006Y-119124998D01*
X156475030Y-119124999D01*
X157500000Y-119124999D01*
X157524980Y-119124999D01*
X157524982Y-119124999D01*
X157566065Y-119120801D01*
X157627693Y-119114506D01*
X157794122Y-119059357D01*
X157943343Y-118967317D01*
X158067317Y-118843343D01*
X158159357Y-118694122D01*
X158211256Y-118537500D01*
X158211255Y-118537500D01*
X157500000Y-118537500D01*
X157500000Y-119124999D01*
X156475030Y-119124999D01*
X156499999Y-119124998D01*
X156500000Y-119124998D01*
X156500000Y-118537500D01*
X155788743Y-118537500D01*
X155085623Y-118537500D01*
X154969122Y-118465642D01*
X154802690Y-118410492D01*
X154699983Y-118400000D01*
X154699981Y-118400000D01*
X154500000Y-118400000D01*
X154500000Y-119062500D01*
X153500000Y-119062500D01*
X153500000Y-118400000D01*
X153300017Y-118400000D01*
X153197308Y-118410492D01*
X153030876Y-118465642D01*
X152881656Y-118557681D01*
X152757681Y-118681656D01*
X152665642Y-118830876D01*
X152610492Y-118997308D01*
X152603833Y-119062498D01*
X145111781Y-119062498D01*
X145106379Y-119055063D01*
X145106377Y-119055061D01*
X145106374Y-119055057D01*
X145106248Y-119054931D01*
X145106246Y-119054928D01*
X144944942Y-118893625D01*
X144944257Y-118893123D01*
X144944140Y-118893042D01*
X144763342Y-118761684D01*
X144763342Y-118761683D01*
X144760447Y-118759580D01*
X144760376Y-118759529D01*
X144760349Y-118759509D01*
X144760227Y-118759421D01*
X144760226Y-118759420D01*
X144760224Y-118759419D01*
X144760219Y-118759416D01*
X144760217Y-118759415D01*
X144760015Y-118759312D01*
X144556800Y-118655769D01*
X144339749Y-118585245D01*
X144339664Y-118585217D01*
X144339656Y-118585215D01*
X144114156Y-118549501D01*
X143885843Y-118549501D01*
X143839763Y-118556799D01*
X143660341Y-118585215D01*
X143660327Y-118585218D01*
X143660248Y-118585245D01*
X143473541Y-118645910D01*
X143466068Y-118647704D01*
X143458546Y-118648896D01*
X143450877Y-118649500D01*
X139135843Y-118649500D01*
X139096274Y-118655767D01*
X139096268Y-118655768D01*
X138910341Y-118685215D01*
X138910327Y-118685218D01*
X138910248Y-118685245D01*
X138693197Y-118755769D01*
X138489809Y-118859400D01*
X138489776Y-118859417D01*
X138489650Y-118859493D01*
X138489091Y-118859915D01*
X138372061Y-118944944D01*
X138305049Y-118993631D01*
X138143633Y-119155047D01*
X138143613Y-119155071D01*
X138143479Y-119155257D01*
X138082072Y-119239777D01*
X138009415Y-119339780D01*
X137905769Y-119543197D01*
X137835245Y-119760248D01*
X137835218Y-119760327D01*
X137835215Y-119760341D01*
X137799500Y-119985843D01*
X137799500Y-120214155D01*
X137835215Y-120439657D01*
X137835217Y-120439665D01*
X137835245Y-120439750D01*
X137905769Y-120656801D01*
X138009410Y-120860208D01*
X138009411Y-120860211D01*
X138009417Y-120860221D01*
X138009421Y-120860228D01*
X138143621Y-121044937D01*
X138143623Y-121044939D01*
X138143629Y-121044947D01*
X138302605Y-121203922D01*
X138305056Y-121206373D01*
X138305059Y-121206375D01*
X138305063Y-121206379D01*
X138305076Y-121206388D01*
X138305254Y-121206535D01*
X138305794Y-121206910D01*
X138489772Y-121340579D01*
X138489774Y-121340580D01*
X138489777Y-121340582D01*
X138568754Y-121380822D01*
X138583763Y-121392654D01*
X138587190Y-121396666D01*
X138598781Y-121432332D01*
X138581783Y-121465727D01*
X138581299Y-121466141D01*
X138549448Y-121477905D01*
X131954556Y-121477905D01*
X131935804Y-121474175D01*
X131930930Y-121472156D01*
X131930918Y-121472144D01*
X131930901Y-121472144D01*
X131918029Y-121459255D01*
X131904411Y-121445637D01*
X131904411Y-121445619D01*
X131904400Y-121445608D01*
X131904411Y-121427670D01*
X131904411Y-121408135D01*
X131904668Y-121407516D01*
X131927679Y-121382639D01*
X132008795Y-121341308D01*
X132009784Y-121340845D01*
X132011222Y-121340071D01*
X132026666Y-121332202D01*
X132036705Y-121321341D01*
X132194937Y-121206379D01*
X132194940Y-121206375D01*
X132194943Y-121206374D01*
X132356373Y-121044943D01*
X132356379Y-121044937D01*
X132490579Y-120860228D01*
X132594231Y-120656799D01*
X132664784Y-120439660D01*
X132700500Y-120214157D01*
X132700500Y-119985843D01*
X132664784Y-119760340D01*
X132594231Y-119543201D01*
X132490579Y-119339772D01*
X132356379Y-119155063D01*
X132356377Y-119155061D01*
X132356375Y-119155058D01*
X132194947Y-118993629D01*
X132194939Y-118993623D01*
X132194937Y-118993621D01*
X132010228Y-118859421D01*
X132010222Y-118859418D01*
X132010221Y-118859417D01*
X132010213Y-118859413D01*
X132010195Y-118859402D01*
X132010191Y-118859400D01*
X131806801Y-118755769D01*
X131589750Y-118685245D01*
X131589665Y-118685217D01*
X131589657Y-118685215D01*
X131403732Y-118655768D01*
X131403726Y-118655767D01*
X131364157Y-118649500D01*
X131364156Y-118649500D01*
X126549123Y-118649500D01*
X126541455Y-118648896D01*
X126533932Y-118647704D01*
X126526458Y-118645910D01*
X126339749Y-118585245D01*
X126339664Y-118585217D01*
X126339656Y-118585215D01*
X126114157Y-118549501D01*
X125885843Y-118549501D01*
X125660342Y-118585215D01*
X125660328Y-118585218D01*
X125660249Y-118585245D01*
X125443203Y-118655767D01*
X125239770Y-118759422D01*
X125239767Y-118759424D01*
X125055059Y-118893622D01*
X124893622Y-119055059D01*
X124759424Y-119239767D01*
X124759422Y-119239770D01*
X124655767Y-119443203D01*
X124585245Y-119660249D01*
X124585218Y-119660328D01*
X124585215Y-119660342D01*
X124585215Y-119660343D01*
X124549501Y-119885843D01*
X124549501Y-120114156D01*
X124551645Y-120127693D01*
X124585215Y-120339656D01*
X124585217Y-120339664D01*
X124585245Y-120339749D01*
X124655769Y-120556800D01*
X124759416Y-120760220D01*
X124759420Y-120760226D01*
X124759421Y-120760227D01*
X124759422Y-120760228D01*
X124893621Y-120944938D01*
X124893624Y-120944942D01*
X125069524Y-121120840D01*
X125155056Y-121206373D01*
X125155059Y-121206375D01*
X125155063Y-121206379D01*
X125155076Y-121206388D01*
X125155254Y-121206535D01*
X125155794Y-121206910D01*
X125339772Y-121340579D01*
X125339774Y-121340580D01*
X125339777Y-121340582D01*
X125418754Y-121380822D01*
X125433763Y-121392654D01*
X125437190Y-121396666D01*
X125448781Y-121432332D01*
X125431783Y-121465727D01*
X125431299Y-121466141D01*
X125399448Y-121477905D01*
X121604556Y-121477905D01*
X121585804Y-121474175D01*
X121580930Y-121472156D01*
X121580918Y-121472144D01*
X121580901Y-121472144D01*
X121568029Y-121459255D01*
X121554411Y-121445637D01*
X121554411Y-121445619D01*
X121554400Y-121445608D01*
X121554411Y-121427670D01*
X121554411Y-121408135D01*
X121554668Y-121407516D01*
X121569295Y-121391702D01*
X121570399Y-121389039D01*
X121574547Y-121386024D01*
X121577678Y-121382639D01*
X121582799Y-121380030D01*
X121660228Y-121340579D01*
X121746042Y-121278231D01*
X121844937Y-121206380D01*
X121844940Y-121206376D01*
X121844943Y-121206375D01*
X121846521Y-121204796D01*
X121846649Y-121204691D01*
X121847188Y-121204160D01*
X121847388Y-121203929D01*
X124106374Y-118944944D01*
X124106374Y-118944942D01*
X124106446Y-118944870D01*
X124106626Y-118944689D01*
X124107429Y-118943492D01*
X124240579Y-118760228D01*
X124344231Y-118556799D01*
X124414784Y-118339660D01*
X124450499Y-118114157D01*
X124450499Y-117885844D01*
X124414784Y-117660341D01*
X124344231Y-117443202D01*
X124240579Y-117239773D01*
X124106379Y-117055063D01*
X124106377Y-117055061D01*
X124106374Y-117055057D01*
X124106371Y-117055053D01*
X123944944Y-116893627D01*
X123944943Y-116893626D01*
X123944938Y-116893622D01*
X123944932Y-116893618D01*
X123944921Y-116893609D01*
X123860775Y-116832474D01*
X123763342Y-116761684D01*
X123763342Y-116761683D01*
X123760447Y-116759580D01*
X123760376Y-116759529D01*
X123760349Y-116759509D01*
X123760227Y-116759421D01*
X123760226Y-116759420D01*
X123760224Y-116759419D01*
X123760219Y-116759416D01*
X123760217Y-116759415D01*
X123760015Y-116759312D01*
X123556800Y-116655769D01*
X123339749Y-116585245D01*
X123339664Y-116585217D01*
X123339656Y-116585215D01*
X123114156Y-116549501D01*
X122885843Y-116549501D01*
X122839763Y-116556799D01*
X122660341Y-116585215D01*
X122660327Y-116585218D01*
X122660248Y-116585245D01*
X122443197Y-116655769D01*
X122239779Y-116759415D01*
X122176349Y-116805500D01*
X122055062Y-116893621D01*
X122055048Y-116893631D01*
X120320427Y-118628255D01*
X120304533Y-118638876D01*
X120287894Y-118645769D01*
X120269140Y-118649500D01*
X119135843Y-118649500D01*
X119096274Y-118655767D01*
X119096268Y-118655768D01*
X118910341Y-118685215D01*
X118910327Y-118685218D01*
X118910248Y-118685245D01*
X118693197Y-118755769D01*
X118489809Y-118859400D01*
X118489776Y-118859417D01*
X118489650Y-118859493D01*
X118489091Y-118859915D01*
X118372061Y-118944944D01*
X118305049Y-118993631D01*
X118143633Y-119155047D01*
X118143613Y-119155071D01*
X118143479Y-119155257D01*
X118082072Y-119239777D01*
X118009415Y-119339780D01*
X117905769Y-119543197D01*
X117835245Y-119760248D01*
X117835218Y-119760327D01*
X117835215Y-119760341D01*
X117799500Y-119985843D01*
X117799500Y-120214155D01*
X117835215Y-120439657D01*
X117835217Y-120439665D01*
X117835245Y-120439750D01*
X117905769Y-120656801D01*
X118009410Y-120860208D01*
X118009411Y-120860211D01*
X118009417Y-120860221D01*
X118009421Y-120860228D01*
X118143621Y-121044937D01*
X118143623Y-121044939D01*
X118143629Y-121044947D01*
X118302605Y-121203922D01*
X118305056Y-121206373D01*
X118305059Y-121206375D01*
X118305063Y-121206379D01*
X118305076Y-121206388D01*
X118305254Y-121206535D01*
X118305794Y-121206910D01*
X118489772Y-121340579D01*
X118489774Y-121340580D01*
X118489777Y-121340582D01*
X118568754Y-121380822D01*
X118583763Y-121392654D01*
X118587190Y-121396666D01*
X118598781Y-121432332D01*
X118581783Y-121465727D01*
X118581299Y-121466141D01*
X118549448Y-121477905D01*
X111954556Y-121477905D01*
X111935804Y-121474175D01*
X111930930Y-121472156D01*
X111930918Y-121472144D01*
X111930901Y-121472144D01*
X111918029Y-121459255D01*
X111904411Y-121445637D01*
X111904411Y-121445619D01*
X111904400Y-121445608D01*
X111904411Y-121427670D01*
X111904411Y-121408135D01*
X111904668Y-121407516D01*
X111927679Y-121382639D01*
X112008795Y-121341308D01*
X112009784Y-121340845D01*
X112011222Y-121340071D01*
X112026666Y-121332202D01*
X112036705Y-121321341D01*
X112194937Y-121206379D01*
X112194940Y-121206375D01*
X112194943Y-121206374D01*
X112356373Y-121044943D01*
X112356379Y-121044937D01*
X112490579Y-120860228D01*
X112594231Y-120656799D01*
X112664784Y-120439660D01*
X112700500Y-120214157D01*
X112700500Y-119985843D01*
X112664784Y-119760340D01*
X112594231Y-119543201D01*
X112490579Y-119339772D01*
X112356379Y-119155063D01*
X112356377Y-119155061D01*
X112356375Y-119155058D01*
X112194947Y-118993629D01*
X112194939Y-118993623D01*
X112194937Y-118993621D01*
X112010228Y-118859421D01*
X112010222Y-118859418D01*
X112010221Y-118859417D01*
X112010213Y-118859413D01*
X112010195Y-118859402D01*
X112010191Y-118859400D01*
X111806801Y-118755769D01*
X111589750Y-118685245D01*
X111589665Y-118685217D01*
X111589657Y-118685215D01*
X111403732Y-118655768D01*
X111403726Y-118655767D01*
X111364157Y-118649500D01*
X111364156Y-118649500D01*
X106549123Y-118649500D01*
X106541455Y-118648896D01*
X106533932Y-118647704D01*
X106526458Y-118645910D01*
X106339749Y-118585245D01*
X106339664Y-118585217D01*
X106339656Y-118585215D01*
X106114157Y-118549501D01*
X105885843Y-118549501D01*
X105660342Y-118585215D01*
X105660328Y-118585218D01*
X105660249Y-118585245D01*
X105443203Y-118655767D01*
X105239770Y-118759422D01*
X105239767Y-118759424D01*
X105055059Y-118893622D01*
X104893622Y-119055059D01*
X104759424Y-119239767D01*
X104759422Y-119239770D01*
X104655767Y-119443203D01*
X104585245Y-119660249D01*
X104585218Y-119660328D01*
X104585215Y-119660342D01*
X104585215Y-119660343D01*
X104549501Y-119885843D01*
X104549501Y-120114156D01*
X104551645Y-120127693D01*
X104585215Y-120339656D01*
X104585217Y-120339664D01*
X104585245Y-120339749D01*
X104655769Y-120556800D01*
X104759416Y-120760220D01*
X104759420Y-120760226D01*
X104759421Y-120760227D01*
X104759422Y-120760228D01*
X104893621Y-120944938D01*
X104893624Y-120944942D01*
X105069524Y-121120840D01*
X105155056Y-121206373D01*
X105155059Y-121206375D01*
X105155063Y-121206379D01*
X105155076Y-121206388D01*
X105155254Y-121206535D01*
X105155794Y-121206910D01*
X105339772Y-121340579D01*
X105339774Y-121340580D01*
X105339777Y-121340582D01*
X105418754Y-121380822D01*
X105433763Y-121392654D01*
X105437190Y-121396666D01*
X105448781Y-121432332D01*
X105431783Y-121465727D01*
X105431299Y-121466141D01*
X105399448Y-121477905D01*
X99150138Y-121477905D01*
X99131386Y-121474175D01*
X99126512Y-121472156D01*
X99099993Y-121445637D01*
X99099993Y-121408135D01*
X99102014Y-121403257D01*
X99112632Y-121387367D01*
X104458963Y-116041036D01*
X104474853Y-116030418D01*
X104479731Y-116028397D01*
X104517233Y-116028397D01*
X104543752Y-116054916D01*
X104545771Y-116059790D01*
X104549501Y-116078542D01*
X104549501Y-116114156D01*
X104585215Y-116339656D01*
X104585217Y-116339664D01*
X104585245Y-116339749D01*
X104653397Y-116549501D01*
X104655767Y-116556795D01*
X104655769Y-116556800D01*
X104689231Y-116622472D01*
X104759421Y-116760227D01*
X104827914Y-116854500D01*
X104856337Y-116893621D01*
X104893608Y-116944921D01*
X104893626Y-116944944D01*
X106155055Y-118206374D01*
X106155061Y-118206378D01*
X106155063Y-118206380D01*
X106253640Y-118278000D01*
X106339772Y-118340579D01*
X106543201Y-118444231D01*
X106760340Y-118514784D01*
X106985843Y-118550500D01*
X106985844Y-118550500D01*
X111364156Y-118550500D01*
X111364157Y-118550500D01*
X111589660Y-118514784D01*
X111806799Y-118444231D01*
X112010228Y-118340579D01*
X112194937Y-118206379D01*
X112356379Y-118044937D01*
X112490579Y-117860228D01*
X112594231Y-117656799D01*
X112664784Y-117439660D01*
X112700500Y-117214157D01*
X112700500Y-116985843D01*
X112664784Y-116760340D01*
X112594231Y-116543201D01*
X112490579Y-116339772D01*
X112356379Y-116155063D01*
X112356377Y-116155061D01*
X112356375Y-116155058D01*
X112194947Y-115993629D01*
X112194939Y-115993623D01*
X112194937Y-115993621D01*
X112010228Y-115859421D01*
X112010222Y-115859418D01*
X112010221Y-115859417D01*
X112010213Y-115859413D01*
X112010195Y-115859402D01*
X112010191Y-115859400D01*
X111806801Y-115755769D01*
X111589750Y-115685245D01*
X111589665Y-115685217D01*
X111589657Y-115685215D01*
X111416430Y-115657779D01*
X111364157Y-115649500D01*
X111364156Y-115649500D01*
X107730860Y-115649500D01*
X107712109Y-115645770D01*
X107695466Y-115638876D01*
X107679572Y-115628255D01*
X106944947Y-114893628D01*
X106944943Y-114893624D01*
X106938431Y-114888893D01*
X106938431Y-114888892D01*
X106824962Y-114806453D01*
X106760227Y-114759421D01*
X106556799Y-114655769D01*
X106556798Y-114655768D01*
X106556797Y-114655768D01*
X106547592Y-114652777D01*
X106547587Y-114652775D01*
X106339749Y-114585245D01*
X106339664Y-114585217D01*
X106339656Y-114585215D01*
X106114157Y-114549501D01*
X105885843Y-114549501D01*
X105810676Y-114561405D01*
X105660341Y-114585215D01*
X105660330Y-114585219D01*
X105573410Y-114613460D01*
X105554421Y-114615706D01*
X105551729Y-114615494D01*
X105546983Y-114615121D01*
X105543724Y-114613460D01*
X105513572Y-114598095D01*
X105511739Y-114595948D01*
X105500000Y-114564127D01*
X105500000Y-114092752D01*
X105500104Y-114089562D01*
X105500314Y-114086357D01*
X105500431Y-114085182D01*
X105500498Y-114084152D01*
X105500501Y-114084134D01*
X105500500Y-113985786D01*
X105500500Y-113919893D01*
X105500500Y-111880100D01*
X105500502Y-111880093D01*
X105500500Y-111817805D01*
X105500559Y-111815407D01*
X105500677Y-111813002D01*
X105500854Y-111810601D01*
X105509386Y-111723951D01*
X105510091Y-111719204D01*
X105511028Y-111714494D01*
X105512196Y-111709831D01*
X105515179Y-111700000D01*
X105525026Y-111667537D01*
X105536422Y-111629967D01*
X105538033Y-111625464D01*
X105539871Y-111621025D01*
X105541916Y-111616701D01*
X105581278Y-111543061D01*
X105583735Y-111538964D01*
X105586399Y-111534977D01*
X105589248Y-111531135D01*
X105644528Y-111463777D01*
X105646057Y-111462004D01*
X105647696Y-111460196D01*
X105649314Y-111458498D01*
X105693385Y-111414431D01*
X105693385Y-111414430D01*
X105696894Y-111410922D01*
X105696906Y-111410906D01*
X107291579Y-109816233D01*
X109899500Y-109816233D01*
X109899500Y-109983767D01*
X109912161Y-110047419D01*
X109931528Y-110144788D01*
X109932183Y-110148078D01*
X109932186Y-110148089D01*
X109996295Y-110302860D01*
X110089370Y-110442158D01*
X110207840Y-110560628D01*
X110340845Y-110649499D01*
X110347135Y-110653702D01*
X110347136Y-110653702D01*
X110347137Y-110653703D01*
X110501918Y-110717816D01*
X110666233Y-110750500D01*
X110666236Y-110750500D01*
X110833764Y-110750500D01*
X110833767Y-110750500D01*
X110998082Y-110717816D01*
X111152863Y-110653703D01*
X111292162Y-110560626D01*
X111410626Y-110442162D01*
X111503703Y-110302863D01*
X111567816Y-110148082D01*
X111600500Y-109983767D01*
X111600500Y-109816233D01*
X111567816Y-109651918D01*
X111503703Y-109497137D01*
X111410628Y-109357840D01*
X111292159Y-109239371D01*
X111152862Y-109146296D01*
X111152860Y-109146295D01*
X110998089Y-109082186D01*
X110998069Y-109082180D01*
X110998071Y-109082180D01*
X110931816Y-109069001D01*
X110931816Y-109069002D01*
X110833767Y-109049500D01*
X110833764Y-109049500D01*
X110666236Y-109049500D01*
X110666233Y-109049500D01*
X110584451Y-109065767D01*
X110501920Y-109082183D01*
X110501909Y-109082186D01*
X110347138Y-109146295D01*
X110207840Y-109239370D01*
X110089370Y-109357840D01*
X109996295Y-109497138D01*
X109932186Y-109651909D01*
X109932185Y-109651914D01*
X109932183Y-109651920D01*
X109915767Y-109734451D01*
X109899500Y-109816233D01*
X107291579Y-109816233D01*
X108458479Y-108649333D01*
X108460174Y-108647719D01*
X108461974Y-108646087D01*
X108463754Y-108644551D01*
X108531136Y-108589253D01*
X108534967Y-108586413D01*
X108538973Y-108583736D01*
X108543055Y-108581290D01*
X108616709Y-108541921D01*
X108621018Y-108539883D01*
X108625465Y-108538041D01*
X108629964Y-108536432D01*
X108709868Y-108512193D01*
X108714487Y-108511036D01*
X108719239Y-108510091D01*
X108723946Y-108509393D01*
X108810654Y-108500850D01*
X108813016Y-108500676D01*
X108815458Y-108500557D01*
X108817821Y-108500500D01*
X111107319Y-108500500D01*
X111109020Y-108500378D01*
X111109044Y-108500376D01*
X111112555Y-108500125D01*
X111116049Y-108500000D01*
X112240753Y-108500000D01*
X112259499Y-108503727D01*
X112266393Y-108506583D01*
X112292913Y-108533098D01*
X112295771Y-108539999D01*
X112299500Y-108558747D01*
X112299500Y-112136265D01*
X112299499Y-112136300D01*
X112299499Y-112137020D01*
X112299499Y-112138544D01*
X112299499Y-112361456D01*
X112308251Y-112427932D01*
X112310110Y-112442053D01*
X112327804Y-112576457D01*
X112328594Y-112582459D01*
X112328596Y-112582465D01*
X112386287Y-112797773D01*
X112386290Y-112797783D01*
X112413304Y-112863000D01*
X112471595Y-113003727D01*
X112489003Y-113033878D01*
X112583050Y-113196772D01*
X112583056Y-113196781D01*
X112583060Y-113196786D01*
X112718735Y-113373603D01*
X112718759Y-113373631D01*
X112718769Y-113373642D01*
X112878156Y-113533028D01*
X112878217Y-113533087D01*
X113067301Y-113722171D01*
X113067379Y-113722251D01*
X113228156Y-113883028D01*
X113228217Y-113883087D01*
X117126385Y-117781255D01*
X117243319Y-117870981D01*
X117303213Y-117916939D01*
X117303222Y-117916945D01*
X117303226Y-117916948D01*
X117303233Y-117916952D01*
X117493089Y-118026566D01*
X117496275Y-118028405D01*
X117702219Y-118113711D01*
X117868590Y-118158289D01*
X117917529Y-118171402D01*
X117917530Y-118171402D01*
X117917537Y-118171404D01*
X118138544Y-118200501D01*
X118138547Y-118200501D01*
X118361454Y-118200501D01*
X118361457Y-118200501D01*
X118582463Y-118171404D01*
X118797781Y-118113711D01*
X119003726Y-118028405D01*
X119196775Y-117916948D01*
X119196787Y-117916939D01*
X119294886Y-117841664D01*
X119371763Y-117782675D01*
X119371765Y-117782673D01*
X119373613Y-117781255D01*
X119373613Y-117781253D01*
X119373689Y-117781196D01*
X119374157Y-117780713D01*
X119435155Y-117719715D01*
X119531247Y-117623623D01*
X119545992Y-117604408D01*
X119617495Y-117511224D01*
X119665877Y-117448171D01*
X119665883Y-117448163D01*
X119666939Y-117446787D01*
X119666939Y-117446785D01*
X119667006Y-117446699D01*
X119667350Y-117446079D01*
X119778404Y-117253727D01*
X119778405Y-117253726D01*
X119863711Y-117047781D01*
X119921404Y-116832463D01*
X119950501Y-116611457D01*
X119950501Y-116388544D01*
X119921404Y-116167537D01*
X119863711Y-115952219D01*
X119836216Y-115885843D01*
X124549501Y-115885843D01*
X124549501Y-116114156D01*
X124585215Y-116339656D01*
X124585217Y-116339664D01*
X124585245Y-116339749D01*
X124653397Y-116549501D01*
X124655767Y-116556795D01*
X124655769Y-116556800D01*
X124689231Y-116622472D01*
X124759421Y-116760227D01*
X124827914Y-116854500D01*
X124856337Y-116893621D01*
X124893608Y-116944921D01*
X124893626Y-116944944D01*
X126155055Y-118206374D01*
X126155061Y-118206378D01*
X126155063Y-118206380D01*
X126253640Y-118278000D01*
X126339772Y-118340579D01*
X126543201Y-118444231D01*
X126760340Y-118514784D01*
X126985843Y-118550500D01*
X126985844Y-118550500D01*
X131364156Y-118550500D01*
X131364157Y-118550500D01*
X131589660Y-118514784D01*
X131806799Y-118444231D01*
X132010228Y-118340579D01*
X132194937Y-118206379D01*
X132356379Y-118044937D01*
X132490579Y-117860228D01*
X132594231Y-117656799D01*
X132664784Y-117439660D01*
X132700500Y-117214157D01*
X132700500Y-116985843D01*
X132664784Y-116760340D01*
X132594231Y-116543201D01*
X132490579Y-116339772D01*
X132356379Y-116155063D01*
X132356377Y-116155061D01*
X132356375Y-116155058D01*
X132194947Y-115993629D01*
X132194939Y-115993623D01*
X132194937Y-115993621D01*
X132010228Y-115859421D01*
X132010222Y-115859418D01*
X132010221Y-115859417D01*
X132010213Y-115859413D01*
X132010195Y-115859402D01*
X132010191Y-115859400D01*
X131806801Y-115755769D01*
X131589750Y-115685245D01*
X131589665Y-115685217D01*
X131589657Y-115685215D01*
X131416430Y-115657779D01*
X131364157Y-115649500D01*
X131364156Y-115649500D01*
X127730860Y-115649500D01*
X127712109Y-115645770D01*
X127695466Y-115638876D01*
X127679572Y-115628255D01*
X126944947Y-114893628D01*
X126944943Y-114893624D01*
X126938431Y-114888893D01*
X126938431Y-114888892D01*
X126824962Y-114806453D01*
X126760227Y-114759421D01*
X126556799Y-114655769D01*
X126556798Y-114655768D01*
X126556797Y-114655768D01*
X126547592Y-114652777D01*
X126547587Y-114652775D01*
X126339749Y-114585245D01*
X126339664Y-114585217D01*
X126339656Y-114585215D01*
X126114157Y-114549501D01*
X125885843Y-114549501D01*
X125660342Y-114585215D01*
X125660328Y-114585218D01*
X125660249Y-114585245D01*
X125443203Y-114655767D01*
X125239770Y-114759422D01*
X125239767Y-114759424D01*
X125055059Y-114893622D01*
X124893622Y-115055059D01*
X124759424Y-115239767D01*
X124759422Y-115239770D01*
X124655767Y-115443203D01*
X124585245Y-115660249D01*
X124585218Y-115660328D01*
X124585215Y-115660342D01*
X124581271Y-115685245D01*
X124549501Y-115885843D01*
X119836216Y-115885843D01*
X119834086Y-115880700D01*
X119812228Y-115827931D01*
X119778405Y-115746275D01*
X119666948Y-115553226D01*
X119666945Y-115553222D01*
X119666939Y-115553213D01*
X119635368Y-115512069D01*
X119531255Y-115376385D01*
X118545910Y-114391040D01*
X118535288Y-114375144D01*
X118533269Y-114370270D01*
X118533268Y-114332767D01*
X118559785Y-114306249D01*
X118564668Y-114304226D01*
X118583413Y-114300500D01*
X133615587Y-114300500D01*
X133634338Y-114304230D01*
X133650977Y-114311122D01*
X133666874Y-114321744D01*
X137126385Y-117781255D01*
X137243319Y-117870981D01*
X137303213Y-117916939D01*
X137303222Y-117916945D01*
X137303226Y-117916948D01*
X137496274Y-118028405D01*
X137702219Y-118113710D01*
X137702223Y-118113711D01*
X137702260Y-118113723D01*
X137702564Y-118113802D01*
X137793733Y-118138231D01*
X137917526Y-118171402D01*
X137917533Y-118171402D01*
X137917537Y-118171404D01*
X138138544Y-118200501D01*
X138154764Y-118200501D01*
X138162427Y-118201104D01*
X138165407Y-118201575D01*
X138169950Y-118202295D01*
X138177426Y-118204089D01*
X138210340Y-118214784D01*
X138435843Y-118250500D01*
X138435844Y-118250500D01*
X153751656Y-118250500D01*
X153751657Y-118250500D01*
X153977160Y-118214784D01*
X154194299Y-118144231D01*
X154221923Y-118130155D01*
X154259832Y-118110841D01*
X154282077Y-118105500D01*
X154795212Y-118105500D01*
X154801893Y-118105390D01*
X154801911Y-118105389D01*
X154801935Y-118105389D01*
X154805131Y-118105284D01*
X154805138Y-118105283D01*
X154805158Y-118105283D01*
X154808637Y-118105111D01*
X154811793Y-118104957D01*
X154814989Y-118104748D01*
X154821722Y-118104196D01*
X154824910Y-118103882D01*
X154831592Y-118103114D01*
X154946659Y-118087964D01*
X154959914Y-118085776D01*
X154966200Y-118084526D01*
X154979305Y-118081470D01*
X154985452Y-118079823D01*
X154998338Y-118075914D01*
X155004408Y-118073853D01*
X155016979Y-118069121D01*
X155119715Y-118026566D01*
X155131961Y-118021018D01*
X155137708Y-118018184D01*
X155149565Y-118011846D01*
X155155075Y-118008665D01*
X155166513Y-118001552D01*
X155171843Y-117997990D01*
X155182761Y-117990166D01*
X155270990Y-117922465D01*
X155281382Y-117913936D01*
X155286201Y-117909710D01*
X155296018Y-117900515D01*
X155300515Y-117896018D01*
X155309710Y-117886201D01*
X155313936Y-117881382D01*
X155322465Y-117870990D01*
X155390166Y-117782761D01*
X155397990Y-117771843D01*
X155401552Y-117766513D01*
X155408665Y-117755075D01*
X155411846Y-117749565D01*
X155418184Y-117737708D01*
X155421018Y-117731961D01*
X155426566Y-117719715D01*
X155469121Y-117616979D01*
X155473853Y-117604408D01*
X155475914Y-117598338D01*
X155479823Y-117585452D01*
X155481470Y-117579305D01*
X155484526Y-117566200D01*
X155485776Y-117559914D01*
X155487964Y-117546659D01*
X155489170Y-117537499D01*
X155788743Y-117537499D01*
X155788743Y-117537500D01*
X156500000Y-117537500D01*
X157500000Y-117537500D01*
X158211257Y-117537500D01*
X158212521Y-117534448D01*
X158207603Y-117526476D01*
X158202549Y-117511224D01*
X158159357Y-117380877D01*
X158067317Y-117231656D01*
X157943343Y-117107682D01*
X157943342Y-117107681D01*
X157794122Y-117015642D01*
X157627690Y-116960492D01*
X157524983Y-116950000D01*
X157524981Y-116950000D01*
X157500000Y-116950000D01*
X157500000Y-117537500D01*
X156500000Y-117537500D01*
X156500000Y-116949999D01*
X156475018Y-116949999D01*
X156372308Y-116960492D01*
X156205876Y-117015642D01*
X156056656Y-117107681D01*
X155932681Y-117231656D01*
X155840642Y-117380876D01*
X155819036Y-117446079D01*
X155788743Y-117537499D01*
X155489170Y-117537499D01*
X155503114Y-117431591D01*
X155503882Y-117424909D01*
X155504196Y-117421721D01*
X155504745Y-117415034D01*
X155504954Y-117411849D01*
X155505285Y-117405116D01*
X155505390Y-117401908D01*
X155505500Y-117395185D01*
X155505500Y-116854500D01*
X155519852Y-116819852D01*
X155554500Y-116805500D01*
X157595212Y-116805500D01*
X157601893Y-116805390D01*
X157601911Y-116805389D01*
X157601935Y-116805389D01*
X157605131Y-116805284D01*
X157605138Y-116805283D01*
X157605158Y-116805283D01*
X157608637Y-116805111D01*
X157611793Y-116804957D01*
X157614989Y-116804748D01*
X157621722Y-116804196D01*
X157624910Y-116803882D01*
X157631592Y-116803114D01*
X157746659Y-116787964D01*
X157759914Y-116785776D01*
X157766200Y-116784526D01*
X157779305Y-116781470D01*
X157785452Y-116779823D01*
X157798338Y-116775914D01*
X157804408Y-116773853D01*
X157816979Y-116769121D01*
X157919715Y-116726566D01*
X157931961Y-116721018D01*
X157937708Y-116718184D01*
X157949565Y-116711846D01*
X157955075Y-116708665D01*
X157966513Y-116701552D01*
X157971843Y-116697990D01*
X157982761Y-116690166D01*
X158070990Y-116622465D01*
X158081382Y-116613936D01*
X158086201Y-116609710D01*
X158096018Y-116600515D01*
X158100515Y-116596018D01*
X158109710Y-116586201D01*
X158113936Y-116581382D01*
X158122465Y-116570990D01*
X158190166Y-116482761D01*
X158197990Y-116471843D01*
X158201552Y-116466513D01*
X158208665Y-116455075D01*
X158211846Y-116449565D01*
X158218184Y-116437708D01*
X158221018Y-116431961D01*
X158226566Y-116419715D01*
X158269121Y-116316979D01*
X158273853Y-116304408D01*
X158275914Y-116298338D01*
X158279823Y-116285452D01*
X158281470Y-116279305D01*
X158284526Y-116266200D01*
X158285776Y-116259914D01*
X158287964Y-116246659D01*
X158303114Y-116131591D01*
X158303882Y-116124909D01*
X158304196Y-116121721D01*
X158304745Y-116115034D01*
X158304954Y-116111849D01*
X158305285Y-116105116D01*
X158305390Y-116101908D01*
X158305500Y-116095185D01*
X158305500Y-114004813D01*
X158305390Y-113998090D01*
X158305285Y-113994882D01*
X158304954Y-113988149D01*
X158304745Y-113984964D01*
X158304196Y-113978277D01*
X158303882Y-113975089D01*
X158303114Y-113968407D01*
X158287964Y-113853339D01*
X158285776Y-113840084D01*
X158284526Y-113833798D01*
X158281470Y-113820693D01*
X158279823Y-113814546D01*
X158275914Y-113801660D01*
X158273853Y-113795590D01*
X158269121Y-113783019D01*
X158226566Y-113680283D01*
X158221018Y-113668037D01*
X158218184Y-113662290D01*
X158211846Y-113650433D01*
X158208665Y-113644923D01*
X158201552Y-113633485D01*
X158197990Y-113628155D01*
X158190166Y-113617237D01*
X158190158Y-113617226D01*
X158122472Y-113529016D01*
X158113935Y-113518614D01*
X158109708Y-113513795D01*
X158100513Y-113503977D01*
X158096029Y-113499494D01*
X158096018Y-113499483D01*
X158090343Y-113494167D01*
X158086209Y-113490293D01*
X158081401Y-113486077D01*
X158070997Y-113477538D01*
X157982756Y-113409826D01*
X157971819Y-113401990D01*
X157966485Y-113398426D01*
X157955075Y-113391332D01*
X157949565Y-113388152D01*
X157949560Y-113388149D01*
X157945384Y-113385917D01*
X157937694Y-113381807D01*
X157934978Y-113380468D01*
X157931943Y-113378972D01*
X157919709Y-113373429D01*
X157919702Y-113373426D01*
X157816965Y-113330871D01*
X157804416Y-113326148D01*
X157798392Y-113324102D01*
X157798379Y-113324098D01*
X157798373Y-113324096D01*
X157785474Y-113320181D01*
X157779302Y-113318527D01*
X157779301Y-113318526D01*
X157779287Y-113318523D01*
X157766224Y-113315476D01*
X157764129Y-113315059D01*
X157759952Y-113314228D01*
X157759940Y-113314226D01*
X157746676Y-113312035D01*
X157698966Y-113305754D01*
X157631597Y-113296885D01*
X157627842Y-113296453D01*
X157624831Y-113296107D01*
X157621710Y-113295800D01*
X157614949Y-113295248D01*
X157611792Y-113295042D01*
X157605030Y-113294711D01*
X157601841Y-113294608D01*
X157595213Y-113294500D01*
X157595182Y-113294500D01*
X153545905Y-113294500D01*
X153545897Y-113294500D01*
X153522717Y-113295812D01*
X153511725Y-113297061D01*
X153511720Y-113297061D01*
X153488948Y-113300954D01*
X153488940Y-113300956D01*
X153488177Y-113301131D01*
X153488166Y-113301134D01*
X153429066Y-113324820D01*
X153429058Y-113324824D01*
X153403332Y-113340130D01*
X153403331Y-113340130D01*
X153354340Y-113380744D01*
X153354330Y-113380755D01*
X153353326Y-113381892D01*
X153353325Y-113381892D01*
X153344446Y-113397154D01*
X153314616Y-113419884D01*
X153295029Y-113420999D01*
X153233264Y-113412000D01*
X153233262Y-113412000D01*
X153233260Y-113412000D01*
X152866740Y-113412000D01*
X152866737Y-113412000D01*
X152866734Y-113412000D01*
X152838123Y-113416168D01*
X152819030Y-113415180D01*
X152812720Y-113413582D01*
X152782655Y-113391164D01*
X152776626Y-113356855D01*
X152777424Y-113352696D01*
X152783108Y-113337434D01*
X152819799Y-113273887D01*
X152826968Y-113247130D01*
X152850500Y-113159309D01*
X152850500Y-112921747D01*
X152854227Y-112903002D01*
X152857083Y-112896106D01*
X152883594Y-112869588D01*
X152890502Y-112866726D01*
X152909247Y-112863000D01*
X153233259Y-112863000D01*
X153233262Y-112863000D01*
X153243658Y-112861484D01*
X153250592Y-112860474D01*
X153250592Y-112860473D01*
X153301393Y-112853073D01*
X153406483Y-112801698D01*
X153483462Y-112724718D01*
X153499350Y-112714101D01*
X153506251Y-112711243D01*
X153543750Y-112711243D01*
X153550647Y-112714100D01*
X153566540Y-112724721D01*
X153643517Y-112801698D01*
X153748607Y-112853073D01*
X153796879Y-112860105D01*
X153796881Y-112860106D01*
X153796882Y-112860106D01*
X153802269Y-112860891D01*
X153816738Y-112863000D01*
X153816740Y-112863000D01*
X154183259Y-112863000D01*
X154183260Y-112863000D01*
X154204502Y-112859904D01*
X154223591Y-112860890D01*
X154235913Y-112864010D01*
X154265978Y-112886427D01*
X154266061Y-112886568D01*
X154282314Y-112914051D01*
X154282318Y-112914057D01*
X154398443Y-113030182D01*
X154398448Y-113030186D01*
X154531412Y-113108820D01*
X154535585Y-113112558D01*
X154649997Y-113145797D01*
X154649997Y-113145796D01*
X154649999Y-113145797D01*
X155250000Y-113145797D01*
X155360198Y-113113782D01*
X155360198Y-113113781D01*
X155364411Y-113112558D01*
X155368583Y-113108821D01*
X155501551Y-113030186D01*
X155501556Y-113030182D01*
X155617682Y-112914056D01*
X155617686Y-112914051D01*
X155701280Y-112772701D01*
X155747100Y-112614991D01*
X155747100Y-112614989D01*
X155747100Y-112614980D01*
X155747204Y-112614256D01*
X155747251Y-112613068D01*
X155749997Y-112578169D01*
X155750000Y-112578128D01*
X155750000Y-112300000D01*
X155250000Y-112300000D01*
X155250000Y-113145797D01*
X154649999Y-113145797D01*
X154650000Y-113145796D01*
X154650000Y-112073829D01*
X154650010Y-112072843D01*
X154650048Y-112070916D01*
X154650487Y-112066488D01*
X154650264Y-112066466D01*
X154650500Y-112064070D01*
X154650500Y-111700000D01*
X155250000Y-111700000D01*
X155750000Y-111700000D01*
X155750000Y-111421869D01*
X155749999Y-111421855D01*
X155749414Y-111414426D01*
X155747251Y-111386930D01*
X155747204Y-111385743D01*
X155747100Y-111385010D01*
X155747100Y-111385008D01*
X155701280Y-111227298D01*
X155684132Y-111198303D01*
X155617687Y-111085950D01*
X155617683Y-111085944D01*
X155501555Y-110969816D01*
X155501548Y-110969811D01*
X155360204Y-110886220D01*
X155356514Y-110885148D01*
X155250000Y-110854202D01*
X155250000Y-111700000D01*
X154650500Y-111700000D01*
X154650500Y-111440159D01*
X154651672Y-111429506D01*
X154653382Y-111421829D01*
X154655530Y-111412185D01*
X154659267Y-111381425D01*
X154659268Y-111381418D01*
X154796704Y-110249840D01*
X154797741Y-110246879D01*
X154800033Y-110222435D01*
X154803249Y-110195958D01*
X154804476Y-110160617D01*
X154804270Y-110156615D01*
X154804268Y-110156605D01*
X154804232Y-110156220D01*
X154804247Y-110156169D01*
X154804216Y-110155560D01*
X154804438Y-110155548D01*
X154807742Y-110144788D01*
X154807743Y-110132827D01*
X154813041Y-110127529D01*
X154815240Y-110120369D01*
X154834260Y-110106312D01*
X154840500Y-110103727D01*
X154859247Y-110100000D01*
X156600000Y-110100000D01*
X156600000Y-103154500D01*
X156614352Y-103119852D01*
X156649000Y-103105500D01*
X157796781Y-103105500D01*
X157796787Y-103105500D01*
X157810220Y-103105060D01*
X157816616Y-103104641D01*
X157830007Y-103103323D01*
X157949840Y-103087546D01*
X157949848Y-103087544D01*
X157949851Y-103087544D01*
X157962661Y-103084995D01*
X157976207Y-103082301D01*
X157988563Y-103078990D01*
X157988569Y-103078988D01*
X158013994Y-103070357D01*
X158013998Y-103070355D01*
X158014014Y-103070350D01*
X158122680Y-103025339D01*
X158146789Y-103013449D01*
X158157867Y-103007053D01*
X158180217Y-102992119D01*
X158273536Y-102920512D01*
X158293745Y-102902789D01*
X158302789Y-102893745D01*
X158320512Y-102873536D01*
X158392119Y-102780217D01*
X158407053Y-102757867D01*
X158413449Y-102746789D01*
X158425339Y-102722680D01*
X158470350Y-102614014D01*
X158478990Y-102588563D01*
X158482301Y-102576207D01*
X158487546Y-102549840D01*
X158503323Y-102430006D01*
X158504641Y-102416615D01*
X158505060Y-102410219D01*
X158505500Y-102396786D01*
X158505500Y-99903213D01*
X158505060Y-99889780D01*
X158504641Y-99883384D01*
X158503323Y-99869993D01*
X158487546Y-99750159D01*
X158482301Y-99723792D01*
X158478990Y-99711436D01*
X158478988Y-99711429D01*
X158470357Y-99686004D01*
X158470348Y-99685981D01*
X158425336Y-99577312D01*
X158413458Y-99553227D01*
X158413443Y-99553199D01*
X158407059Y-99542142D01*
X158407057Y-99542139D01*
X158407053Y-99542132D01*
X158392119Y-99519782D01*
X158372828Y-99494642D01*
X158320529Y-99426484D01*
X158320518Y-99426471D01*
X158320512Y-99426463D01*
X158302789Y-99406254D01*
X158293745Y-99397210D01*
X158273536Y-99379487D01*
X158273529Y-99379482D01*
X158273514Y-99379469D01*
X158180216Y-99307879D01*
X158157878Y-99292952D01*
X158157862Y-99292943D01*
X158146805Y-99286558D01*
X158122675Y-99274657D01*
X158014023Y-99229652D01*
X158013989Y-99229639D01*
X157988586Y-99221016D01*
X157988567Y-99221010D01*
X157988566Y-99221009D01*
X157988564Y-99221009D01*
X157976213Y-99217699D01*
X157976201Y-99217696D01*
X157976178Y-99217691D01*
X157949852Y-99212454D01*
X157830005Y-99196675D01*
X157817476Y-99195443D01*
X157816586Y-99195356D01*
X157816584Y-99195355D01*
X157816565Y-99195354D01*
X157810207Y-99194938D01*
X157798903Y-99194569D01*
X157796787Y-99194500D01*
X157796784Y-99194500D01*
X151548646Y-99194500D01*
X151513998Y-99180148D01*
X151500588Y-99155060D01*
X151488233Y-99092951D01*
X151488229Y-99092939D01*
X151488228Y-99092930D01*
X151476535Y-99054384D01*
X151469219Y-99036721D01*
X151450228Y-99001190D01*
X151433964Y-98976850D01*
X151417703Y-98952512D01*
X151392143Y-98921369D01*
X151392137Y-98921362D01*
X151378636Y-98907861D01*
X151378629Y-98907855D01*
X151347490Y-98882299D01*
X151323316Y-98866146D01*
X151298816Y-98849775D01*
X151298813Y-98849773D01*
X151298811Y-98849772D01*
X151263272Y-98830777D01*
X151245607Y-98823461D01*
X151245608Y-98823461D01*
X151245605Y-98823460D01*
X151207064Y-98811770D01*
X151207064Y-98811769D01*
X151144874Y-98799399D01*
X151144811Y-98799388D01*
X151124902Y-98796434D01*
X151115342Y-98795492D01*
X151115336Y-98795491D01*
X151104134Y-98794940D01*
X151095177Y-98794500D01*
X151095173Y-98794500D01*
X147152559Y-98794500D01*
X147117911Y-98780148D01*
X146293231Y-97955467D01*
X146275265Y-97937501D01*
X147153833Y-97937501D01*
X147160490Y-98002681D01*
X147160492Y-98002690D01*
X147215642Y-98169122D01*
X147307679Y-98318339D01*
X147307682Y-98318343D01*
X147431656Y-98442317D01*
X147580877Y-98534357D01*
X147747306Y-98589506D01*
X147798662Y-98594752D01*
X147850016Y-98599999D01*
X147850018Y-98599999D01*
X148499998Y-98599999D01*
X148499999Y-98599999D01*
X149500000Y-98599999D01*
X150149980Y-98599999D01*
X150149982Y-98599999D01*
X150191065Y-98595801D01*
X150252693Y-98589506D01*
X150419122Y-98534357D01*
X150568343Y-98442317D01*
X150692317Y-98318343D01*
X150784357Y-98169122D01*
X150839506Y-98002693D01*
X150846167Y-97937501D01*
X151453833Y-97937501D01*
X151460490Y-98002681D01*
X151460492Y-98002690D01*
X151515642Y-98169122D01*
X151607679Y-98318339D01*
X151607682Y-98318343D01*
X151731656Y-98442317D01*
X151880877Y-98534357D01*
X152047306Y-98589506D01*
X152098662Y-98594752D01*
X152150016Y-98599999D01*
X152150018Y-98599999D01*
X152799998Y-98599999D01*
X152799999Y-98599999D01*
X153800000Y-98599999D01*
X154449980Y-98599999D01*
X154449982Y-98599999D01*
X154491065Y-98595801D01*
X154552693Y-98589506D01*
X154719122Y-98534357D01*
X154835621Y-98462500D01*
X155788743Y-98462500D01*
X155840642Y-98619122D01*
X155932682Y-98768343D01*
X156056656Y-98892317D01*
X156205877Y-98984357D01*
X156372306Y-99039506D01*
X156475006Y-99049998D01*
X156475030Y-99049999D01*
X157500000Y-99049999D01*
X157524980Y-99049999D01*
X157524982Y-99049999D01*
X157566065Y-99045801D01*
X157627693Y-99039506D01*
X157794122Y-98984357D01*
X157943343Y-98892317D01*
X158067317Y-98768343D01*
X158159357Y-98619122D01*
X158211256Y-98462500D01*
X158211255Y-98462500D01*
X157500000Y-98462500D01*
X157500000Y-99049999D01*
X156475030Y-99049999D01*
X156499999Y-99049998D01*
X156500000Y-99049998D01*
X156500000Y-98462500D01*
X155788743Y-98462500D01*
X154835621Y-98462500D01*
X154868343Y-98442317D01*
X154891181Y-98419480D01*
X154992317Y-98318343D01*
X155084357Y-98169122D01*
X155139506Y-98002693D01*
X155146167Y-97937500D01*
X153800000Y-97937500D01*
X153800000Y-98599999D01*
X152799999Y-98599999D01*
X152800000Y-98599998D01*
X152800000Y-97937500D01*
X151453834Y-97937500D01*
X151453833Y-97937501D01*
X150846167Y-97937501D01*
X150846167Y-97937500D01*
X149500000Y-97937500D01*
X149500000Y-98599999D01*
X148499999Y-98599999D01*
X148500000Y-98599998D01*
X148500000Y-97937500D01*
X147153834Y-97937500D01*
X147153833Y-97937501D01*
X146275265Y-97937501D01*
X145955750Y-97617986D01*
X145945126Y-97602085D01*
X145943159Y-97597335D01*
X145943163Y-97559832D01*
X145953780Y-97543943D01*
X146035225Y-97462499D01*
X155788743Y-97462499D01*
X155788743Y-97462500D01*
X156500000Y-97462500D01*
X157500000Y-97462500D01*
X158211257Y-97462500D01*
X158212521Y-97459448D01*
X158207603Y-97451476D01*
X158198473Y-97423923D01*
X158159357Y-97305877D01*
X158067317Y-97156656D01*
X157943343Y-97032682D01*
X157943342Y-97032681D01*
X157794122Y-96940642D01*
X157627690Y-96885492D01*
X157524983Y-96875000D01*
X157524981Y-96875000D01*
X157500000Y-96875000D01*
X157500000Y-97462500D01*
X156500000Y-97462500D01*
X156500000Y-96874999D01*
X156475018Y-96874999D01*
X156372308Y-96885492D01*
X156205876Y-96940642D01*
X156056656Y-97032681D01*
X155932681Y-97156656D01*
X155840642Y-97305876D01*
X155840642Y-97305877D01*
X155788743Y-97462499D01*
X146035225Y-97462499D01*
X146240772Y-97256953D01*
X146252329Y-97239656D01*
X146258418Y-97232236D01*
X146553157Y-96937499D01*
X146553158Y-96937498D01*
X147153833Y-96937498D01*
X147153833Y-96937499D01*
X147153834Y-96937500D01*
X148500000Y-96937500D01*
X149500000Y-96937500D01*
X150846166Y-96937500D01*
X150846166Y-96937498D01*
X151453833Y-96937498D01*
X151453833Y-96937499D01*
X151453834Y-96937500D01*
X152800000Y-96937500D01*
X153800000Y-96937500D01*
X155146166Y-96937500D01*
X155146166Y-96937496D01*
X155139506Y-96872308D01*
X155139506Y-96872306D01*
X155084357Y-96705877D01*
X154992317Y-96556656D01*
X154868343Y-96432682D01*
X154868342Y-96432681D01*
X154719122Y-96340642D01*
X154552690Y-96285492D01*
X154449983Y-96275000D01*
X154449981Y-96275000D01*
X153800000Y-96275000D01*
X153800000Y-96937500D01*
X152800000Y-96937500D01*
X152800000Y-96275000D01*
X152150017Y-96275000D01*
X152047308Y-96285492D01*
X151880876Y-96340642D01*
X151731656Y-96432681D01*
X151607681Y-96556656D01*
X151515642Y-96705876D01*
X151460492Y-96872308D01*
X151453833Y-96937498D01*
X150846166Y-96937498D01*
X150846166Y-96937496D01*
X150839506Y-96872308D01*
X150839506Y-96872306D01*
X150784357Y-96705877D01*
X150692317Y-96556656D01*
X150568343Y-96432682D01*
X150568342Y-96432681D01*
X150419122Y-96340642D01*
X150252690Y-96285492D01*
X150149983Y-96275000D01*
X150149981Y-96275000D01*
X149500000Y-96275000D01*
X149500000Y-96937500D01*
X148500000Y-96937500D01*
X148500000Y-96275000D01*
X147850017Y-96275000D01*
X147747308Y-96285492D01*
X147580876Y-96340642D01*
X147431656Y-96432681D01*
X147307681Y-96556656D01*
X147215642Y-96705876D01*
X147160492Y-96872308D01*
X147153833Y-96937498D01*
X146553158Y-96937498D01*
X147244114Y-96246543D01*
X147320775Y-96131811D01*
X147373580Y-96004329D01*
X147378934Y-95977409D01*
X147400500Y-95868993D01*
X147400500Y-93500000D01*
X148520203Y-93500000D01*
X148559195Y-93576523D01*
X148660962Y-93716596D01*
X148660973Y-93716609D01*
X148783386Y-93839023D01*
X148783388Y-93839025D01*
X148783391Y-93839027D01*
X148783392Y-93839028D01*
X148783396Y-93839031D01*
X148923469Y-93940800D01*
X148923472Y-93940802D01*
X149077748Y-94019410D01*
X149242415Y-94072913D01*
X149242418Y-94072914D01*
X149413429Y-94100000D01*
X149500000Y-94100000D01*
X150500000Y-94100000D01*
X150586570Y-94100000D01*
X150586571Y-94100000D01*
X150757581Y-94072914D01*
X150757584Y-94072913D01*
X150922251Y-94019410D01*
X151076527Y-93940802D01*
X151076530Y-93940800D01*
X151214865Y-93840293D01*
X151215665Y-93839764D01*
X151216609Y-93839027D01*
X151339027Y-93716609D01*
X151339764Y-93715665D01*
X151340297Y-93714860D01*
X151440803Y-93576524D01*
X151479796Y-93500000D01*
X150500000Y-93500000D01*
X150500000Y-94100000D01*
X149500000Y-94100000D01*
X149500000Y-93500000D01*
X148520203Y-93500000D01*
X147400500Y-93500000D01*
X147400500Y-92960216D01*
X149300000Y-92960216D01*
X149300000Y-93039783D01*
X149330448Y-93113291D01*
X149330450Y-93113294D01*
X149386706Y-93169550D01*
X149386707Y-93169550D01*
X149386709Y-93169552D01*
X149460218Y-93200000D01*
X150539780Y-93200000D01*
X150539782Y-93200000D01*
X150613291Y-93169552D01*
X150613293Y-93169550D01*
X150613294Y-93169550D01*
X150669550Y-93113294D01*
X150669552Y-93113291D01*
X150681781Y-93083767D01*
X150700000Y-93039782D01*
X150700000Y-92960218D01*
X150681781Y-92916233D01*
X154149500Y-92916233D01*
X154149500Y-92916236D01*
X154149500Y-93083770D01*
X154155372Y-93113289D01*
X154155372Y-93113291D01*
X154155373Y-93113291D01*
X154182183Y-93248078D01*
X154182186Y-93248089D01*
X154241352Y-93390927D01*
X154246296Y-93402862D01*
X154339371Y-93542159D01*
X154457840Y-93660628D01*
X154597137Y-93753703D01*
X154751918Y-93817816D01*
X154916233Y-93850500D01*
X154916236Y-93850500D01*
X155083764Y-93850500D01*
X155083767Y-93850500D01*
X155248082Y-93817816D01*
X155402863Y-93753703D01*
X155542162Y-93660626D01*
X155660626Y-93542162D01*
X155753703Y-93402863D01*
X155817816Y-93248082D01*
X155850500Y-93083767D01*
X155850500Y-92916233D01*
X156649500Y-92916233D01*
X156649500Y-92916236D01*
X156649500Y-93083770D01*
X156655372Y-93113289D01*
X156655372Y-93113291D01*
X156655373Y-93113291D01*
X156682183Y-93248078D01*
X156682186Y-93248089D01*
X156741352Y-93390927D01*
X156746296Y-93402862D01*
X156839371Y-93542159D01*
X156957840Y-93660628D01*
X157097137Y-93753703D01*
X157251918Y-93817816D01*
X157416233Y-93850500D01*
X157416236Y-93850500D01*
X157583764Y-93850500D01*
X157583767Y-93850500D01*
X157748082Y-93817816D01*
X157902863Y-93753703D01*
X158042162Y-93660626D01*
X158160626Y-93542162D01*
X158253703Y-93402863D01*
X158317816Y-93248082D01*
X158350500Y-93083767D01*
X158350500Y-92916233D01*
X158317816Y-92751918D01*
X158253703Y-92597137D01*
X158188798Y-92500000D01*
X158160628Y-92457840D01*
X158042159Y-92339371D01*
X158029632Y-92331001D01*
X157958371Y-92283386D01*
X157902862Y-92246296D01*
X157902860Y-92246295D01*
X157748089Y-92182186D01*
X157748069Y-92182180D01*
X157748071Y-92182180D01*
X157681816Y-92169001D01*
X157681816Y-92169002D01*
X157583767Y-92149500D01*
X157583764Y-92149500D01*
X157416236Y-92149500D01*
X157416233Y-92149500D01*
X157334451Y-92165767D01*
X157251920Y-92182183D01*
X157251909Y-92182186D01*
X157097138Y-92246295D01*
X156957840Y-92339370D01*
X156839370Y-92457840D01*
X156746295Y-92597138D01*
X156682186Y-92751909D01*
X156682185Y-92751914D01*
X156682183Y-92751920D01*
X156672620Y-92800000D01*
X156649500Y-92916233D01*
X155850500Y-92916233D01*
X155817816Y-92751918D01*
X155753703Y-92597137D01*
X155688798Y-92500000D01*
X155660628Y-92457840D01*
X155542159Y-92339371D01*
X155529632Y-92331001D01*
X155458371Y-92283386D01*
X155402862Y-92246296D01*
X155402860Y-92246295D01*
X155248089Y-92182186D01*
X155248069Y-92182180D01*
X155248071Y-92182180D01*
X155181816Y-92169001D01*
X155181816Y-92169002D01*
X155083767Y-92149500D01*
X155083764Y-92149500D01*
X154916236Y-92149500D01*
X154916233Y-92149500D01*
X154834451Y-92165767D01*
X154751920Y-92182183D01*
X154751909Y-92182186D01*
X154597138Y-92246295D01*
X154457840Y-92339370D01*
X154339370Y-92457840D01*
X154246295Y-92597138D01*
X154182186Y-92751909D01*
X154182185Y-92751914D01*
X154182183Y-92751920D01*
X154172620Y-92800000D01*
X154149500Y-92916233D01*
X150681781Y-92916233D01*
X150669552Y-92886709D01*
X150669551Y-92886708D01*
X150669550Y-92886706D01*
X150613294Y-92830450D01*
X150613292Y-92830449D01*
X150613291Y-92830448D01*
X150570231Y-92812612D01*
X150539783Y-92800000D01*
X150539782Y-92800000D01*
X149460218Y-92800000D01*
X149460216Y-92800000D01*
X149386707Y-92830449D01*
X149330449Y-92886707D01*
X149300000Y-92960216D01*
X147400500Y-92960216D01*
X147400500Y-92720199D01*
X147404229Y-92701449D01*
X147411123Y-92684805D01*
X147421741Y-92668914D01*
X147590655Y-92500000D01*
X148520204Y-92500000D01*
X149500000Y-92500000D01*
X150500000Y-92500000D01*
X151479794Y-92500000D01*
X151479795Y-92500000D01*
X151440803Y-92423475D01*
X151408838Y-92379479D01*
X151339025Y-92283388D01*
X151339023Y-92283386D01*
X151216609Y-92160973D01*
X151216586Y-92160955D01*
X151088906Y-92068191D01*
X151076530Y-92059199D01*
X151076528Y-92059198D01*
X151076529Y-92059198D01*
X151076517Y-92059192D01*
X150922249Y-91980588D01*
X150757674Y-91927115D01*
X150757589Y-91927087D01*
X150757581Y-91927085D01*
X150586571Y-91900000D01*
X150586570Y-91900000D01*
X150500000Y-91900000D01*
X150500000Y-92500000D01*
X149500000Y-92500000D01*
X149500000Y-91900000D01*
X149413430Y-91900000D01*
X149413429Y-91900000D01*
X149327923Y-91913542D01*
X149242417Y-91927085D01*
X149242403Y-91927088D01*
X149242324Y-91927115D01*
X149077749Y-91980588D01*
X148923481Y-92059192D01*
X148923470Y-92059198D01*
X148783394Y-92160969D01*
X148660969Y-92283394D01*
X148559199Y-92423468D01*
X148559197Y-92423472D01*
X148520204Y-92500000D01*
X147590655Y-92500000D01*
X150018914Y-90071741D01*
X150034805Y-90061123D01*
X150051450Y-90054228D01*
X150070199Y-90050500D01*
X150628182Y-90050500D01*
X150763516Y-90023580D01*
X150890999Y-89970775D01*
X151005731Y-89894114D01*
X152313274Y-88586571D01*
X153900000Y-88586571D01*
X153920853Y-88718232D01*
X153927085Y-88757581D01*
X153927087Y-88757589D01*
X153927115Y-88757674D01*
X153980588Y-88922249D01*
X154059192Y-89076517D01*
X154059198Y-89076528D01*
X154160955Y-89216586D01*
X154160973Y-89216609D01*
X154283384Y-89339021D01*
X154283387Y-89339023D01*
X154283392Y-89339028D01*
X154283396Y-89339031D01*
X154423469Y-89440800D01*
X154423477Y-89440805D01*
X154423484Y-89440808D01*
X154423488Y-89440811D01*
X154500000Y-89479795D01*
X154500000Y-89479794D01*
X155500000Y-89479794D01*
X155576522Y-89440805D01*
X155576530Y-89440800D01*
X155714875Y-89340285D01*
X155715669Y-89339761D01*
X155716609Y-89339027D01*
X155839027Y-89216609D01*
X155839764Y-89215665D01*
X155840297Y-89214860D01*
X155940800Y-89076530D01*
X155940802Y-89076527D01*
X156019410Y-88922251D01*
X156072913Y-88757584D01*
X156072914Y-88757581D01*
X156100000Y-88586571D01*
X156100000Y-88500000D01*
X155500000Y-88500000D01*
X155500000Y-89479794D01*
X154500000Y-89479794D01*
X154500000Y-88500000D01*
X153900000Y-88500000D01*
X153900000Y-88586571D01*
X152313274Y-88586571D01*
X152944114Y-87955731D01*
X152977677Y-87905500D01*
X153020775Y-87840999D01*
X153073580Y-87713516D01*
X153100500Y-87578181D01*
X153100500Y-87413428D01*
X153900000Y-87413428D01*
X153900000Y-87500000D01*
X154500000Y-87500000D01*
X154500000Y-87460216D01*
X154800000Y-87460216D01*
X154800000Y-88539783D01*
X154804258Y-88550062D01*
X154830448Y-88613291D01*
X154830449Y-88613292D01*
X154830450Y-88613294D01*
X154886706Y-88669550D01*
X154886707Y-88669550D01*
X154886709Y-88669552D01*
X154960218Y-88700000D01*
X155039780Y-88700000D01*
X155039782Y-88700000D01*
X155113291Y-88669552D01*
X155113293Y-88669550D01*
X155113294Y-88669550D01*
X155169550Y-88613294D01*
X155169550Y-88613293D01*
X155169552Y-88613291D01*
X155200000Y-88539782D01*
X155200000Y-87460218D01*
X155169552Y-87386709D01*
X155169550Y-87386707D01*
X155169550Y-87386706D01*
X155113294Y-87330450D01*
X155113292Y-87330449D01*
X155113291Y-87330448D01*
X155070231Y-87312612D01*
X155039783Y-87300000D01*
X155039782Y-87300000D01*
X154960218Y-87300000D01*
X154960216Y-87300000D01*
X154886707Y-87330449D01*
X154830449Y-87386707D01*
X154800000Y-87460216D01*
X154500000Y-87460216D01*
X154500000Y-86520204D01*
X155500000Y-86520204D01*
X155500000Y-87500000D01*
X156100000Y-87500000D01*
X156100000Y-87413428D01*
X156072914Y-87242418D01*
X156072913Y-87242415D01*
X156019410Y-87077748D01*
X155940802Y-86923472D01*
X155940800Y-86923469D01*
X155839031Y-86783396D01*
X155839028Y-86783392D01*
X155839027Y-86783391D01*
X155839025Y-86783388D01*
X155839023Y-86783386D01*
X155716609Y-86660973D01*
X155716596Y-86660962D01*
X155576523Y-86559195D01*
X155500000Y-86520203D01*
X155500000Y-86520204D01*
X154500000Y-86520204D01*
X154423472Y-86559197D01*
X154423468Y-86559199D01*
X154283394Y-86660969D01*
X154160969Y-86783394D01*
X154059198Y-86923470D01*
X154059192Y-86923481D01*
X153980588Y-87077749D01*
X153927115Y-87242324D01*
X153927088Y-87242403D01*
X153927085Y-87242417D01*
X153918047Y-87299480D01*
X153900000Y-87413428D01*
X153100500Y-87413428D01*
X153100500Y-82916233D01*
X154149500Y-82916233D01*
X154149500Y-82916236D01*
X154149500Y-83083770D01*
X154163024Y-83151758D01*
X154163024Y-83151760D01*
X154163025Y-83151760D01*
X154182183Y-83248078D01*
X154182186Y-83248089D01*
X154246295Y-83402860D01*
X154318075Y-83510288D01*
X154339371Y-83542159D01*
X154457840Y-83660628D01*
X154590562Y-83749310D01*
X154590565Y-83749312D01*
X154597133Y-83753701D01*
X154597135Y-83753702D01*
X154597137Y-83753703D01*
X154751918Y-83817816D01*
X154916233Y-83850500D01*
X154916236Y-83850500D01*
X155083764Y-83850500D01*
X155083767Y-83850500D01*
X155248082Y-83817816D01*
X155402863Y-83753703D01*
X155542162Y-83660626D01*
X155660626Y-83542162D01*
X155753703Y-83402863D01*
X155817816Y-83248082D01*
X155850500Y-83083767D01*
X155850500Y-82916233D01*
X156649500Y-82916233D01*
X156649500Y-82916236D01*
X156649500Y-83083770D01*
X156663024Y-83151758D01*
X156663024Y-83151760D01*
X156663025Y-83151760D01*
X156682183Y-83248078D01*
X156682186Y-83248089D01*
X156746295Y-83402860D01*
X156818075Y-83510288D01*
X156839371Y-83542159D01*
X156957840Y-83660628D01*
X157090562Y-83749310D01*
X157090565Y-83749312D01*
X157097133Y-83753701D01*
X157097135Y-83753702D01*
X157097137Y-83753703D01*
X157251918Y-83817816D01*
X157416233Y-83850500D01*
X157416236Y-83850500D01*
X157583764Y-83850500D01*
X157583767Y-83850500D01*
X157748082Y-83817816D01*
X157902863Y-83753703D01*
X158042162Y-83660626D01*
X158160626Y-83542162D01*
X158253703Y-83402863D01*
X158317816Y-83248082D01*
X158350500Y-83083767D01*
X158350500Y-82916233D01*
X158317816Y-82751918D01*
X158253703Y-82597137D01*
X158181923Y-82489711D01*
X158160628Y-82457840D01*
X158042159Y-82339371D01*
X157902862Y-82246296D01*
X157902860Y-82246295D01*
X157748089Y-82182186D01*
X157748069Y-82182180D01*
X157748071Y-82182180D01*
X157681816Y-82169001D01*
X157681816Y-82169002D01*
X157583767Y-82149500D01*
X157583764Y-82149500D01*
X157416236Y-82149500D01*
X157416233Y-82149500D01*
X157334451Y-82165767D01*
X157251920Y-82182183D01*
X157251909Y-82182186D01*
X157097138Y-82246295D01*
X156957840Y-82339370D01*
X156839370Y-82457840D01*
X156746295Y-82597138D01*
X156682184Y-82751915D01*
X156682183Y-82751919D01*
X156682183Y-82751920D01*
X156679281Y-82766512D01*
X156649500Y-82916233D01*
X155850500Y-82916233D01*
X155817816Y-82751918D01*
X155753703Y-82597137D01*
X155681923Y-82489711D01*
X155660628Y-82457840D01*
X155542159Y-82339371D01*
X155402862Y-82246296D01*
X155402860Y-82246295D01*
X155248089Y-82182186D01*
X155248069Y-82182180D01*
X155248071Y-82182180D01*
X155181816Y-82169001D01*
X155181816Y-82169002D01*
X155083767Y-82149500D01*
X155083764Y-82149500D01*
X154916236Y-82149500D01*
X154916233Y-82149500D01*
X154834451Y-82165767D01*
X154751920Y-82182183D01*
X154751909Y-82182186D01*
X154597138Y-82246295D01*
X154457840Y-82339370D01*
X154339370Y-82457840D01*
X154246295Y-82597138D01*
X154182184Y-82751915D01*
X154182183Y-82751919D01*
X154182183Y-82751920D01*
X154179281Y-82766512D01*
X154149500Y-82916233D01*
X153100500Y-82916233D01*
X153100500Y-76366301D01*
X153103015Y-76350806D01*
X153288615Y-75794005D01*
X153313187Y-75765673D01*
X153335100Y-75760500D01*
X153769745Y-75760500D01*
X153769748Y-75760500D01*
X153828231Y-75748867D01*
X153894552Y-75704552D01*
X153938867Y-75638231D01*
X153950500Y-75579748D01*
X153950500Y-75209215D01*
X153959627Y-75180734D01*
X154105484Y-74976535D01*
X154949500Y-74976535D01*
X154949500Y-75183465D01*
X154970109Y-75287072D01*
X154970109Y-75287073D01*
X154989869Y-75386416D01*
X154989874Y-75386432D01*
X155004297Y-75421251D01*
X155069058Y-75577596D01*
X155183495Y-75748866D01*
X155184023Y-75749655D01*
X155330345Y-75895977D01*
X155502402Y-76010941D01*
X155693580Y-76090130D01*
X155896535Y-76130500D01*
X155896538Y-76130500D01*
X156103462Y-76130500D01*
X156103465Y-76130500D01*
X156306420Y-76090130D01*
X156497598Y-76010941D01*
X156669655Y-75895977D01*
X156815977Y-75749655D01*
X156930941Y-75577598D01*
X157010130Y-75386420D01*
X157050500Y-75183465D01*
X157050500Y-74976535D01*
X157010130Y-74773580D01*
X156930941Y-74582402D01*
X156815977Y-74410345D01*
X156669655Y-74264023D01*
X156669654Y-74264022D01*
X156497599Y-74149059D01*
X156497596Y-74149058D01*
X156306432Y-74069874D01*
X156306423Y-74069871D01*
X156306417Y-74069869D01*
X156306415Y-74069868D01*
X156306407Y-74069866D01*
X156224572Y-74053588D01*
X156224572Y-74053589D01*
X156103465Y-74029500D01*
X156103462Y-74029500D01*
X155896538Y-74029500D01*
X155896535Y-74029500D01*
X155822814Y-74044164D01*
X155822804Y-74044166D01*
X155693582Y-74069869D01*
X155693566Y-74069874D01*
X155502404Y-74149057D01*
X155330345Y-74264021D01*
X155184021Y-74410345D01*
X155069057Y-74582404D01*
X154989872Y-74773571D01*
X154989870Y-74773577D01*
X154989869Y-74773581D01*
X154989869Y-74773582D01*
X154987376Y-74786118D01*
X154949500Y-74976535D01*
X154105484Y-74976535D01*
X154794281Y-74012219D01*
X154800078Y-74002606D01*
X154807384Y-73993271D01*
X154994114Y-73806543D01*
X155070775Y-73691811D01*
X155123580Y-73564328D01*
X155150500Y-73428994D01*
X155150500Y-73304175D01*
X155154227Y-73285430D01*
X155156246Y-73280554D01*
X155182760Y-73254034D01*
X155220261Y-73254028D01*
X155225145Y-73256050D01*
X155241040Y-73266672D01*
X155330345Y-73355977D01*
X155502402Y-73470941D01*
X155693580Y-73550130D01*
X155896535Y-73590500D01*
X155896538Y-73590500D01*
X156103462Y-73590500D01*
X156103465Y-73590500D01*
X156306420Y-73550130D01*
X156497598Y-73470941D01*
X156669655Y-73355977D01*
X156815977Y-73209655D01*
X156930941Y-73037598D01*
X157010130Y-72846420D01*
X157050500Y-72643465D01*
X157050500Y-72436535D01*
X157010130Y-72233580D01*
X156930941Y-72042402D01*
X156815977Y-71870345D01*
X156669655Y-71724023D01*
X156669654Y-71724022D01*
X156497599Y-71609059D01*
X156497596Y-71609058D01*
X156306432Y-71529874D01*
X156306423Y-71529871D01*
X156306417Y-71529869D01*
X156306415Y-71529868D01*
X156306407Y-71529866D01*
X156224572Y-71513588D01*
X156224572Y-71513589D01*
X156103465Y-71489500D01*
X156103462Y-71489500D01*
X155896538Y-71489500D01*
X155896535Y-71489500D01*
X155822814Y-71504164D01*
X155822804Y-71504166D01*
X155693582Y-71529869D01*
X155693566Y-71529874D01*
X155502404Y-71609057D01*
X155330345Y-71724021D01*
X155241040Y-71813327D01*
X155225144Y-71823949D01*
X155220270Y-71825968D01*
X155182767Y-71825969D01*
X155156249Y-71799451D01*
X155154227Y-71794569D01*
X155150500Y-71775824D01*
X155150500Y-71157408D01*
X155154228Y-71138661D01*
X155156866Y-71132291D01*
X155168867Y-71120288D01*
X155179888Y-71107383D01*
X155181931Y-71107221D01*
X155183381Y-71105772D01*
X155217275Y-71104437D01*
X155220917Y-71105620D01*
X155234580Y-71112581D01*
X155292439Y-71154618D01*
X155292443Y-71154620D01*
X155292446Y-71154622D01*
X155481781Y-71251094D01*
X155683873Y-71316757D01*
X155683876Y-71316758D01*
X155893754Y-71350000D01*
X156106245Y-71350000D01*
X156106246Y-71350000D01*
X156316123Y-71316758D01*
X156316126Y-71316757D01*
X156518218Y-71251094D01*
X156535289Y-71242395D01*
X156535288Y-71242394D01*
X156535289Y-71242394D01*
X155870491Y-70577596D01*
X155856139Y-70542948D01*
X155870491Y-70508300D01*
X155905139Y-70493948D01*
X155917817Y-70495617D01*
X155934174Y-70500000D01*
X155934175Y-70500000D01*
X156065826Y-70500000D01*
X156065828Y-70500000D01*
X156192989Y-70465926D01*
X156192987Y-70465926D01*
X156192993Y-70465925D01*
X156307007Y-70400099D01*
X156400099Y-70307007D01*
X156465925Y-70192993D01*
X156469952Y-70177961D01*
X156500000Y-70065828D01*
X156500000Y-69999998D01*
X156707106Y-69999998D01*
X156707106Y-70000000D01*
X157242394Y-70535289D01*
X157242394Y-70535288D01*
X157242395Y-70535289D01*
X157251094Y-70518218D01*
X157316757Y-70316126D01*
X157316758Y-70316123D01*
X157350000Y-70106246D01*
X157350000Y-69893753D01*
X157316758Y-69683876D01*
X157316757Y-69683873D01*
X157251095Y-69481783D01*
X157242395Y-69464709D01*
X157242394Y-69464709D01*
X156707106Y-69999998D01*
X156500000Y-69999998D01*
X156500000Y-69934171D01*
X156465926Y-69807010D01*
X156465924Y-69807004D01*
X156414423Y-69717803D01*
X156400099Y-69692993D01*
X156307007Y-69599901D01*
X156264929Y-69575607D01*
X156192995Y-69534075D01*
X156192989Y-69534073D01*
X156065829Y-69500000D01*
X156065826Y-69500000D01*
X155934174Y-69500000D01*
X155934171Y-69500000D01*
X155917820Y-69504381D01*
X155880638Y-69499486D01*
X155857808Y-69469733D01*
X155862703Y-69432551D01*
X155870487Y-69422406D01*
X156535290Y-68757603D01*
X156535289Y-68757602D01*
X156535287Y-68757601D01*
X156535286Y-68757600D01*
X156518234Y-68748912D01*
X156518229Y-68748910D01*
X156518227Y-68748909D01*
X156518219Y-68748906D01*
X156403357Y-68711585D01*
X156318378Y-68683973D01*
X156318370Y-68683971D01*
X156316126Y-68683242D01*
X156316123Y-68683241D01*
X156312753Y-68682707D01*
X156311210Y-68682360D01*
X156297067Y-68672389D01*
X156282326Y-68663353D01*
X156281933Y-68661718D01*
X156280560Y-68660750D01*
X156277611Y-68643708D01*
X156273575Y-68626886D01*
X156274453Y-68625452D01*
X156274167Y-68623795D01*
X156284137Y-68609652D01*
X156293174Y-68594911D01*
X156294960Y-68593674D01*
X156409000Y-68518575D01*
X156435947Y-68510500D01*
X156869745Y-68510500D01*
X156869748Y-68510500D01*
X156928231Y-68498867D01*
X156994552Y-68454552D01*
X157038867Y-68388231D01*
X157050500Y-68329748D01*
X157050500Y-66590252D01*
X157038867Y-66531769D01*
X157006209Y-66482893D01*
X157006209Y-66482892D01*
X156994553Y-66465447D01*
X156954796Y-66438883D01*
X156954795Y-66438882D01*
X156928231Y-66421133D01*
X156869748Y-66409500D01*
X156869745Y-66409500D01*
X155130255Y-66409500D01*
X155130252Y-66409500D01*
X155095162Y-66416479D01*
X155071767Y-66421133D01*
X155005446Y-66465446D01*
X154961133Y-66531767D01*
X154961133Y-66531769D01*
X154949500Y-66590252D01*
X154949500Y-66590255D01*
X154949500Y-67024051D01*
X154941423Y-67051001D01*
X154029017Y-68436506D01*
X154028146Y-68438066D01*
X154027880Y-68437917D01*
X154019572Y-68449769D01*
X153905885Y-68563456D01*
X153829223Y-68678190D01*
X153821974Y-68695692D01*
X153811356Y-68711585D01*
X153806081Y-68716861D01*
X153771434Y-68731216D01*
X153767840Y-68731216D01*
X153739039Y-68721858D01*
X153655140Y-68660902D01*
X153655141Y-68660902D01*
X153655139Y-68660901D01*
X153655137Y-68660900D01*
X153479835Y-68571580D01*
X153292799Y-68510808D01*
X153292786Y-68510797D01*
X153292705Y-68510777D01*
X153287293Y-68509920D01*
X153269751Y-68503367D01*
X153269359Y-68503304D01*
X153265418Y-68500889D01*
X153265361Y-68500810D01*
X153265126Y-68500664D01*
X153257576Y-68490096D01*
X153243374Y-68470548D01*
X153243417Y-68470275D01*
X153243326Y-68470148D01*
X153245564Y-68456713D01*
X153249240Y-68433507D01*
X153249463Y-68433319D01*
X153249491Y-68433155D01*
X153250613Y-68432353D01*
X153273005Y-68413541D01*
X153273048Y-68413524D01*
X153279401Y-68411787D01*
X153280007Y-68411355D01*
X153280614Y-68411456D01*
X153283395Y-68410695D01*
X153292706Y-68409221D01*
X153292709Y-68409220D01*
X153458307Y-68355413D01*
X153458306Y-68355412D01*
X153458307Y-68355412D01*
X153000001Y-67897106D01*
X153000000Y-67897106D01*
X152541692Y-68355412D01*
X152541692Y-68355413D01*
X152642691Y-68388230D01*
X152707194Y-68409189D01*
X152707207Y-68409200D01*
X152707290Y-68409220D01*
X152707293Y-68409221D01*
X152712699Y-68410077D01*
X152730254Y-68416631D01*
X152730635Y-68416693D01*
X152734578Y-68419109D01*
X152734632Y-68419184D01*
X152734863Y-68419328D01*
X152742434Y-68429920D01*
X152756624Y-68449449D01*
X152756581Y-68449714D01*
X152756670Y-68449838D01*
X152754435Y-68463272D01*
X152750759Y-68486490D01*
X152750542Y-68486675D01*
X152750516Y-68486833D01*
X152749546Y-68487525D01*
X152727746Y-68506153D01*
X152727705Y-68506170D01*
X152720692Y-68508149D01*
X152720006Y-68508640D01*
X152719344Y-68508529D01*
X152716602Y-68509303D01*
X152712711Y-68509920D01*
X152707286Y-68510779D01*
X152707282Y-68510780D01*
X152707199Y-68510808D01*
X152541692Y-68564585D01*
X153312012Y-69334905D01*
X153322635Y-69350803D01*
X153324635Y-69355632D01*
X153324633Y-69393135D01*
X153298114Y-69419653D01*
X153260611Y-69419651D01*
X153248432Y-69411513D01*
X153248155Y-69411876D01*
X153245606Y-69409920D01*
X153154396Y-69357259D01*
X153154392Y-69357258D01*
X153052664Y-69330000D01*
X153052661Y-69330000D01*
X152947339Y-69330000D01*
X152947336Y-69330000D01*
X152845607Y-69357258D01*
X152845603Y-69357259D01*
X152754393Y-69409920D01*
X152754393Y-69409921D01*
X152679921Y-69484393D01*
X152679920Y-69484393D01*
X152627259Y-69575603D01*
X152627258Y-69575607D01*
X152600000Y-69677335D01*
X152600000Y-69782664D01*
X152627258Y-69884392D01*
X152627259Y-69884396D01*
X152655999Y-69934174D01*
X152679920Y-69975606D01*
X152754394Y-70050080D01*
X152783470Y-70066867D01*
X152845603Y-70102740D01*
X152845605Y-70102740D01*
X152845606Y-70102741D01*
X152903304Y-70118201D01*
X152947335Y-70129999D01*
X152947336Y-70130000D01*
X153052661Y-70130000D01*
X153052664Y-70130000D01*
X153052664Y-70129999D01*
X153154394Y-70102741D01*
X153162989Y-70097779D01*
X153184085Y-70085599D01*
X153245606Y-70050080D01*
X153245610Y-70050075D01*
X153248155Y-70048124D01*
X153248984Y-70049205D01*
X153253715Y-70047244D01*
X153260614Y-70040346D01*
X153270351Y-70040346D01*
X153279346Y-70036617D01*
X153288359Y-70040346D01*
X153298117Y-70040347D01*
X153305002Y-70047233D01*
X153314000Y-70050956D01*
X153317736Y-70059968D01*
X153324635Y-70066867D01*
X153324634Y-70076604D01*
X153328364Y-70085599D01*
X153324634Y-70104370D01*
X153322634Y-70109198D01*
X153312012Y-70125093D01*
X152541692Y-70895412D01*
X152541692Y-70895413D01*
X152707290Y-70949220D01*
X152707293Y-70949221D01*
X152901624Y-70980000D01*
X153098375Y-70980000D01*
X153098376Y-70980000D01*
X153292706Y-70949221D01*
X153292709Y-70949220D01*
X153479834Y-70888419D01*
X153655137Y-70799099D01*
X153655139Y-70799097D01*
X153655142Y-70799096D01*
X153659720Y-70795769D01*
X153663811Y-70792797D01*
X153681171Y-70784792D01*
X153687882Y-70783181D01*
X153724921Y-70789050D01*
X153745919Y-70815687D01*
X153747102Y-70819328D01*
X153749500Y-70834469D01*
X153749500Y-71547246D01*
X153745770Y-71565998D01*
X153743751Y-71570872D01*
X153717232Y-71597391D01*
X153679729Y-71597390D01*
X153674855Y-71595371D01*
X153658959Y-71584749D01*
X153605906Y-71531696D01*
X153542754Y-71489500D01*
X153450231Y-71427678D01*
X153450225Y-71427675D01*
X153277265Y-71356031D01*
X153277239Y-71356023D01*
X153175577Y-71335802D01*
X153175567Y-71335801D01*
X153093616Y-71319500D01*
X153093613Y-71319500D01*
X152906381Y-71319500D01*
X152891890Y-71322382D01*
X152881117Y-71323308D01*
X152879096Y-71323257D01*
X152879093Y-71323258D01*
X151478251Y-71565831D01*
X151475657Y-71566705D01*
X151474975Y-71566935D01*
X151459330Y-71569500D01*
X150060997Y-71569500D01*
X149952592Y-71591064D01*
X149952591Y-71591064D01*
X149952590Y-71591065D01*
X149931025Y-71595354D01*
X149931021Y-71595354D01*
X149925672Y-71596419D01*
X149925661Y-71596422D01*
X149859135Y-71623977D01*
X149859136Y-71623978D01*
X149859134Y-71623978D01*
X149850993Y-71627351D01*
X149798190Y-71649223D01*
X149686247Y-71724023D01*
X149686236Y-71724030D01*
X149683457Y-71725885D01*
X149683452Y-71725889D01*
X146755884Y-74653457D01*
X146679224Y-74768189D01*
X146626420Y-74895668D01*
X146625479Y-74900403D01*
X146625478Y-74900402D01*
X146625478Y-74900407D01*
X146605719Y-74999742D01*
X146605719Y-74999745D01*
X146599500Y-75031002D01*
X146599500Y-85779799D01*
X146595770Y-85798552D01*
X146588877Y-85815192D01*
X146578255Y-85831087D01*
X145954663Y-86454678D01*
X145920015Y-86469030D01*
X145907330Y-86467360D01*
X145074646Y-86244188D01*
X144359361Y-86052481D01*
X144353250Y-86052021D01*
X144343693Y-86051302D01*
X144332229Y-86049042D01*
X144286208Y-86034089D01*
X144286123Y-86034061D01*
X144286115Y-86034059D01*
X144142744Y-86011352D01*
X144099481Y-86004500D01*
X143910519Y-86004500D01*
X143875396Y-86010061D01*
X143875397Y-86010062D01*
X143723883Y-86034059D01*
X143723869Y-86034062D01*
X143723790Y-86034089D01*
X143544164Y-86092453D01*
X143375811Y-86178232D01*
X143222913Y-86289320D01*
X143089320Y-86422913D01*
X142978232Y-86575811D01*
X142892453Y-86744164D01*
X142834089Y-86923790D01*
X142834062Y-86923869D01*
X142834059Y-86923883D01*
X142834059Y-86923884D01*
X142804500Y-87110519D01*
X142804500Y-87299480D01*
X142809405Y-87330448D01*
X142834059Y-87486115D01*
X142834061Y-87486123D01*
X142834089Y-87486208D01*
X142892453Y-87665834D01*
X142978230Y-87834183D01*
X142978236Y-87834194D01*
X142978243Y-87834208D01*
X142978441Y-87834476D01*
X143006868Y-87873601D01*
X143089310Y-87987073D01*
X143089312Y-87987075D01*
X143089318Y-87987083D01*
X143185999Y-88083763D01*
X143222920Y-88120684D01*
X143222923Y-88120686D01*
X143222927Y-88120690D01*
X143222940Y-88120699D01*
X143223118Y-88120846D01*
X143223658Y-88121221D01*
X143375801Y-88231760D01*
X143375803Y-88231761D01*
X143375806Y-88231763D01*
X143407840Y-88248085D01*
X143544118Y-88317522D01*
X143544140Y-88317533D01*
X143544166Y-88317546D01*
X143544168Y-88317547D01*
X143723882Y-88375940D01*
X143910519Y-88405500D01*
X143910520Y-88405500D01*
X144099480Y-88405500D01*
X144099481Y-88405500D01*
X144286118Y-88375940D01*
X144286122Y-88375938D01*
X144286125Y-88375938D01*
X144304573Y-88369943D01*
X144332806Y-88360769D01*
X144344733Y-88358477D01*
X144359362Y-88357518D01*
X146039667Y-87907169D01*
X146052349Y-87905500D01*
X146263994Y-87905500D01*
X146399328Y-87878580D01*
X146526811Y-87825775D01*
X146641543Y-87749114D01*
X147844114Y-86546543D01*
X147920775Y-86431811D01*
X147973580Y-86304328D01*
X148000500Y-86168994D01*
X148000500Y-86031006D01*
X148000500Y-82921148D01*
X148699500Y-82921148D01*
X148699500Y-83078850D01*
X148730260Y-83233487D01*
X148730260Y-83233492D01*
X148751776Y-83285436D01*
X148790604Y-83379175D01*
X148790606Y-83379179D01*
X148790607Y-83379180D01*
X148790607Y-83379181D01*
X148867368Y-83494062D01*
X148878211Y-83510289D01*
X148989711Y-83621789D01*
X149120821Y-83709394D01*
X149266503Y-83769737D01*
X149266509Y-83769738D01*
X149266512Y-83769739D01*
X149266519Y-83769740D01*
X149266629Y-83769772D01*
X149267233Y-83769883D01*
X149414280Y-83799132D01*
X149421152Y-83800499D01*
X149421158Y-83800500D01*
X150578842Y-83800500D01*
X150733497Y-83769737D01*
X150879179Y-83709394D01*
X151010289Y-83621789D01*
X151121789Y-83510289D01*
X151209394Y-83379179D01*
X151269737Y-83233497D01*
X151269739Y-83233487D01*
X151269740Y-83233485D01*
X151300499Y-83078847D01*
X151300500Y-83078842D01*
X151300500Y-82921159D01*
X151300499Y-82921152D01*
X151299521Y-82916232D01*
X151299521Y-82916231D01*
X151269737Y-82766503D01*
X151209395Y-82620824D01*
X151209394Y-82620821D01*
X151121789Y-82489711D01*
X151010289Y-82378211D01*
X151010286Y-82378209D01*
X150879158Y-82290592D01*
X150879158Y-82290591D01*
X150878767Y-82290331D01*
X150876935Y-82289676D01*
X150733495Y-82230261D01*
X150733496Y-82230261D01*
X150578850Y-82199500D01*
X150578847Y-82199500D01*
X150578842Y-82199500D01*
X149421158Y-82199500D01*
X149421152Y-82199500D01*
X149421148Y-82199500D01*
X149266503Y-82230261D01*
X149120827Y-82290602D01*
X148989711Y-82378209D01*
X148878211Y-82489710D01*
X148878210Y-82489710D01*
X148790602Y-82620827D01*
X148730261Y-82766503D01*
X148699500Y-82921148D01*
X148000500Y-82921148D01*
X148000500Y-75420199D01*
X148004229Y-75401449D01*
X148011123Y-75384805D01*
X148021741Y-75368914D01*
X150398914Y-72991741D01*
X150414805Y-72981123D01*
X150431450Y-72974228D01*
X150450199Y-72970500D01*
X151459622Y-72970500D01*
X151475935Y-72973534D01*
X151475938Y-72973527D01*
X151476024Y-72973550D01*
X151477239Y-72973776D01*
X151478252Y-72974167D01*
X151478256Y-72974167D01*
X151478260Y-72974169D01*
X152804580Y-73203837D01*
X152879096Y-73216741D01*
X152885832Y-73217792D01*
X152885854Y-73217795D01*
X152886600Y-73217899D01*
X152886601Y-73217899D01*
X152886608Y-73217900D01*
X152886614Y-73217899D01*
X152889220Y-73217982D01*
X152889209Y-73218306D01*
X152898030Y-73218838D01*
X152906384Y-73220500D01*
X152906387Y-73220500D01*
X153093613Y-73220500D01*
X153093616Y-73220500D01*
X153277251Y-73183973D01*
X153450231Y-73112322D01*
X153605908Y-73008302D01*
X153658964Y-72955245D01*
X153674852Y-72944629D01*
X153679730Y-72942608D01*
X153717232Y-72942608D01*
X153743750Y-72969126D01*
X153745576Y-72973534D01*
X153745770Y-72974001D01*
X153749500Y-72992753D01*
X153749500Y-73024984D01*
X153735148Y-73059632D01*
X153728981Y-73064857D01*
X152629261Y-73850373D01*
X152600780Y-73859500D01*
X152230252Y-73859500D01*
X152195162Y-73866479D01*
X152171767Y-73871133D01*
X152105446Y-73915446D01*
X152061133Y-73981767D01*
X152061133Y-73981769D01*
X152049500Y-74040252D01*
X152049500Y-74040255D01*
X152049500Y-74739799D01*
X152045770Y-74758552D01*
X152038877Y-74775192D01*
X152028255Y-74791087D01*
X151855884Y-74963457D01*
X151855881Y-74963461D01*
X151810751Y-75031006D01*
X151810751Y-75031007D01*
X151779221Y-75078195D01*
X151726418Y-75205672D01*
X151699500Y-75340997D01*
X151699500Y-75341001D01*
X151699500Y-76270385D01*
X151699197Y-76272131D01*
X151698891Y-76274788D01*
X151697865Y-76286782D01*
X151699500Y-76296403D01*
X151699500Y-87188987D01*
X151695770Y-87207740D01*
X151688877Y-87224380D01*
X151678255Y-87240275D01*
X150941040Y-87977490D01*
X150925144Y-87988112D01*
X150920270Y-87990131D01*
X150882767Y-87990132D01*
X150856249Y-87963614D01*
X150854227Y-87958732D01*
X150850500Y-87939987D01*
X150850500Y-87916236D01*
X150850500Y-87916233D01*
X150817816Y-87751918D01*
X150753703Y-87597137D01*
X150688798Y-87500000D01*
X150660628Y-87457840D01*
X150542159Y-87339371D01*
X150528806Y-87330449D01*
X150472981Y-87293148D01*
X150402862Y-87246296D01*
X150393500Y-87242418D01*
X150248089Y-87182186D01*
X150248069Y-87182180D01*
X150248071Y-87182180D01*
X150181816Y-87169001D01*
X150181816Y-87169002D01*
X150083767Y-87149500D01*
X150083764Y-87149500D01*
X149916236Y-87149500D01*
X149916233Y-87149500D01*
X149834451Y-87165767D01*
X149751920Y-87182183D01*
X149751909Y-87182186D01*
X149597138Y-87246295D01*
X149457840Y-87339370D01*
X149339370Y-87457840D01*
X149246295Y-87597138D01*
X149182186Y-87751909D01*
X149182185Y-87751914D01*
X149182183Y-87751920D01*
X149167493Y-87825775D01*
X149149500Y-87916233D01*
X149149500Y-88083767D01*
X149171189Y-88192809D01*
X149171188Y-88192809D01*
X149182180Y-88248070D01*
X149182186Y-88248089D01*
X149246295Y-88402860D01*
X149339370Y-88542158D01*
X149435984Y-88638772D01*
X149446606Y-88654668D01*
X149446607Y-88654669D01*
X149449462Y-88661562D01*
X149449461Y-88699065D01*
X149449460Y-88699067D01*
X149448624Y-88701085D01*
X149422113Y-88727598D01*
X149418189Y-88729223D01*
X149418188Y-88729224D01*
X149381557Y-88753702D01*
X149381535Y-88753717D01*
X149381111Y-88754000D01*
X149381106Y-88754003D01*
X149303457Y-88805885D01*
X146155884Y-91953457D01*
X146155881Y-91953461D01*
X146082583Y-92063163D01*
X146082580Y-92063167D01*
X146082579Y-92063170D01*
X146079223Y-92068191D01*
X146079220Y-92068196D01*
X146079219Y-92068196D01*
X146026418Y-92195672D01*
X145999500Y-92330997D01*
X145999500Y-95479798D01*
X145995770Y-95498551D01*
X145988877Y-95515191D01*
X145978255Y-95531086D01*
X145254475Y-96254865D01*
X145238580Y-96265487D01*
X145231688Y-96268342D01*
X145194188Y-96268344D01*
X145190457Y-96266799D01*
X145168464Y-96248752D01*
X145149553Y-96220448D01*
X145149550Y-96220446D01*
X145149550Y-96220445D01*
X145100172Y-96187453D01*
X145100171Y-96187451D01*
X145083232Y-96176133D01*
X145068610Y-96173224D01*
X145024748Y-96164500D01*
X145024745Y-96164500D01*
X144667437Y-96164500D01*
X144648686Y-96160770D01*
X144632043Y-96153876D01*
X144616149Y-96143255D01*
X144005000Y-95532106D01*
X143393850Y-96143255D01*
X143377956Y-96153876D01*
X143361317Y-96160769D01*
X143342563Y-96164500D01*
X124501808Y-96164500D01*
X124494140Y-96163896D01*
X124486617Y-96162704D01*
X124479143Y-96160910D01*
X124381208Y-96129089D01*
X124381123Y-96129061D01*
X124381115Y-96129059D01*
X124237744Y-96106352D01*
X124194481Y-96099500D01*
X124005519Y-96099500D01*
X123970396Y-96105061D01*
X123970397Y-96105062D01*
X123818883Y-96129059D01*
X123818869Y-96129062D01*
X123818790Y-96129089D01*
X123639164Y-96187453D01*
X123470805Y-96273236D01*
X123317922Y-96384312D01*
X123184312Y-96517922D01*
X123073236Y-96670805D01*
X122987453Y-96839164D01*
X122929089Y-97018790D01*
X122929062Y-97018869D01*
X122929059Y-97018883D01*
X122899500Y-97205519D01*
X122899500Y-97394479D01*
X122929059Y-97581115D01*
X122929061Y-97581123D01*
X122929089Y-97581208D01*
X122987453Y-97760834D01*
X123073229Y-97929179D01*
X123073239Y-97929197D01*
X123073251Y-97929215D01*
X123126635Y-98002693D01*
X123126636Y-98002693D01*
X123183739Y-98081288D01*
X123184150Y-98081880D01*
X123184308Y-98082072D01*
X123184310Y-98082074D01*
X123184311Y-98082075D01*
X123295423Y-98193186D01*
X123382920Y-98280684D01*
X123382923Y-98280686D01*
X123382927Y-98280690D01*
X123382940Y-98280699D01*
X123383118Y-98280846D01*
X123383658Y-98281221D01*
X123535801Y-98391760D01*
X123535803Y-98391761D01*
X123535806Y-98391763D01*
X123590204Y-98419480D01*
X123704118Y-98477522D01*
X123704140Y-98477533D01*
X123704166Y-98477546D01*
X123704168Y-98477547D01*
X123883882Y-98535940D01*
X124070519Y-98565500D01*
X142985252Y-98565500D01*
X143477693Y-98565500D01*
X143496444Y-98569230D01*
X143513083Y-98576122D01*
X143528980Y-98586744D01*
X145780148Y-100837911D01*
X145794500Y-100872559D01*
X145794500Y-102396779D01*
X145794940Y-102410227D01*
X145795359Y-102416622D01*
X145796674Y-102429987D01*
X145799081Y-102448264D01*
X145799500Y-102454660D01*
X145799500Y-108765586D01*
X145795770Y-108784339D01*
X145788877Y-108800979D01*
X145778255Y-108816874D01*
X143718750Y-110876378D01*
X143718743Y-110876385D01*
X143583060Y-111053212D01*
X143583056Y-111053217D01*
X143583050Y-111053226D01*
X143471597Y-111246268D01*
X143471595Y-111246272D01*
X143448160Y-111302849D01*
X143386290Y-111452215D01*
X143386289Y-111452219D01*
X143386283Y-111452239D01*
X143328602Y-111667506D01*
X143328592Y-111667546D01*
X143328562Y-111667788D01*
X143308970Y-111816604D01*
X143299499Y-111888544D01*
X143299499Y-112111456D01*
X143313318Y-112216419D01*
X143328597Y-112332468D01*
X143328600Y-112332487D01*
X143386283Y-112547759D01*
X143386289Y-112547779D01*
X143386290Y-112547783D01*
X143400655Y-112582463D01*
X143471595Y-112753727D01*
X143497025Y-112797773D01*
X143583050Y-112946772D01*
X143583056Y-112946781D01*
X143583060Y-112946786D01*
X143718743Y-113123613D01*
X143876385Y-113281255D01*
X144002270Y-113377849D01*
X144053213Y-113416939D01*
X144053222Y-113416945D01*
X144053226Y-113416948D01*
X144246274Y-113528405D01*
X144452219Y-113613710D01*
X144452223Y-113613711D01*
X144452260Y-113613723D01*
X144452564Y-113613802D01*
X144525950Y-113633466D01*
X144667526Y-113671402D01*
X144667533Y-113671402D01*
X144667537Y-113671404D01*
X144888544Y-113700501D01*
X144888547Y-113700501D01*
X145111453Y-113700501D01*
X145111456Y-113700501D01*
X145332463Y-113671404D01*
X145366477Y-113662290D01*
X145549331Y-113613295D01*
X145549481Y-113613856D01*
X145580207Y-113614270D01*
X146200459Y-113843893D01*
X146218093Y-113855196D01*
X147621856Y-115258959D01*
X147632478Y-115274855D01*
X147634497Y-115279729D01*
X147634498Y-115317232D01*
X147607983Y-115343749D01*
X147607979Y-115343750D01*
X147607979Y-115343751D01*
X147607978Y-115343751D01*
X147603110Y-115345768D01*
X147584354Y-115349500D01*
X139534413Y-115349500D01*
X139515662Y-115345770D01*
X139499019Y-115338876D01*
X139483125Y-115328255D01*
X135633087Y-111478217D01*
X135633028Y-111478156D01*
X135473642Y-111318769D01*
X135473631Y-111318759D01*
X135473603Y-111318735D01*
X135296786Y-111183060D01*
X135296781Y-111183056D01*
X135296772Y-111183050D01*
X135155803Y-111101662D01*
X135134134Y-111089151D01*
X135128553Y-111081878D01*
X134897789Y-110986292D01*
X134897759Y-110986283D01*
X134682479Y-110928598D01*
X134635537Y-110922417D01*
X134461456Y-110899499D01*
X134461453Y-110899499D01*
X134236303Y-110899499D01*
X134236239Y-110899500D01*
X115759247Y-110899500D01*
X115740499Y-110895771D01*
X115733601Y-110892914D01*
X115707085Y-110866398D01*
X115704227Y-110859497D01*
X115700500Y-110840752D01*
X115700500Y-109816233D01*
X129899500Y-109816233D01*
X129899500Y-109983767D01*
X129912161Y-110047419D01*
X129931528Y-110144788D01*
X129932183Y-110148078D01*
X129932186Y-110148089D01*
X129996295Y-110302860D01*
X130089370Y-110442158D01*
X130207840Y-110560628D01*
X130340845Y-110649499D01*
X130347135Y-110653702D01*
X130347136Y-110653702D01*
X130347137Y-110653703D01*
X130501918Y-110717816D01*
X130666233Y-110750500D01*
X130666236Y-110750500D01*
X130833764Y-110750500D01*
X130833767Y-110750500D01*
X130998082Y-110717816D01*
X131152863Y-110653703D01*
X131292162Y-110560626D01*
X131410626Y-110442162D01*
X131503703Y-110302863D01*
X131567816Y-110148082D01*
X131600500Y-109983767D01*
X131600500Y-109816233D01*
X131567816Y-109651918D01*
X131503703Y-109497137D01*
X131410628Y-109357840D01*
X131292159Y-109239371D01*
X131152862Y-109146296D01*
X131152860Y-109146295D01*
X130998089Y-109082186D01*
X130998069Y-109082180D01*
X130998071Y-109082180D01*
X130931816Y-109069001D01*
X130931816Y-109069002D01*
X130833767Y-109049500D01*
X130833764Y-109049500D01*
X130666236Y-109049500D01*
X130666233Y-109049500D01*
X130584451Y-109065767D01*
X130501920Y-109082183D01*
X130501909Y-109082186D01*
X130347138Y-109146295D01*
X130207840Y-109239370D01*
X130089370Y-109357840D01*
X129996295Y-109497138D01*
X129932186Y-109651909D01*
X129932185Y-109651914D01*
X129932183Y-109651920D01*
X129915767Y-109734451D01*
X129899500Y-109816233D01*
X115700500Y-109816233D01*
X115700500Y-105429964D01*
X117322056Y-105429964D01*
X117323820Y-105437019D01*
X117324864Y-105442506D01*
X117354453Y-105667243D01*
X117354456Y-105667262D01*
X117413840Y-105888882D01*
X117413840Y-105888883D01*
X117413842Y-105888887D01*
X117501656Y-106100889D01*
X117501658Y-106100892D01*
X117616387Y-106299610D01*
X117616393Y-106299619D01*
X117616397Y-106299624D01*
X117756071Y-106481651D01*
X117918347Y-106643927D01*
X118058022Y-106751103D01*
X118100375Y-106783602D01*
X118100384Y-106783608D01*
X118100388Y-106783611D01*
X118299112Y-106898344D01*
X118511113Y-106986158D01*
X118682369Y-107032045D01*
X118732750Y-107045545D01*
X118732751Y-107045545D01*
X118732762Y-107045548D01*
X118960266Y-107075500D01*
X118960269Y-107075500D01*
X119189730Y-107075500D01*
X119189734Y-107075500D01*
X119417238Y-107045548D01*
X119638887Y-106986158D01*
X119850888Y-106898344D01*
X120049612Y-106783611D01*
X120231661Y-106643919D01*
X120393919Y-106481661D01*
X120533611Y-106299612D01*
X120648344Y-106100888D01*
X120736158Y-105888887D01*
X120795548Y-105667238D01*
X120825500Y-105439734D01*
X120825500Y-105429964D01*
X141832056Y-105429964D01*
X141833820Y-105437019D01*
X141834864Y-105442506D01*
X141864453Y-105667243D01*
X141864456Y-105667262D01*
X141923840Y-105888882D01*
X141923840Y-105888883D01*
X141923842Y-105888887D01*
X142011656Y-106100889D01*
X142011658Y-106100892D01*
X142126387Y-106299610D01*
X142126393Y-106299619D01*
X142126397Y-106299624D01*
X142266071Y-106481651D01*
X142428347Y-106643927D01*
X142568022Y-106751103D01*
X142610375Y-106783602D01*
X142610384Y-106783608D01*
X142610388Y-106783611D01*
X142809112Y-106898344D01*
X143021113Y-106986158D01*
X143192369Y-107032045D01*
X143242750Y-107045545D01*
X143242751Y-107045545D01*
X143242762Y-107045548D01*
X143470266Y-107075500D01*
X143470269Y-107075500D01*
X143699730Y-107075500D01*
X143699734Y-107075500D01*
X143927238Y-107045548D01*
X144148887Y-106986158D01*
X144360888Y-106898344D01*
X144559612Y-106783611D01*
X144741661Y-106643919D01*
X144903919Y-106481661D01*
X145043611Y-106299612D01*
X145158344Y-106100888D01*
X145246158Y-105888887D01*
X145305548Y-105667238D01*
X145335500Y-105439734D01*
X145335500Y-105210266D01*
X145305548Y-104982762D01*
X145246158Y-104761113D01*
X145158344Y-104549112D01*
X145043611Y-104350388D01*
X145043608Y-104350384D01*
X145043602Y-104350375D01*
X145011103Y-104308022D01*
X144903927Y-104168347D01*
X144741651Y-104006071D01*
X144559624Y-103866397D01*
X144559619Y-103866393D01*
X144559610Y-103866387D01*
X144360892Y-103751658D01*
X144360893Y-103751658D01*
X144360889Y-103751656D01*
X144148887Y-103663842D01*
X144148886Y-103663841D01*
X144148882Y-103663840D01*
X143927254Y-103604454D01*
X143888987Y-103599416D01*
X143699734Y-103574500D01*
X143699730Y-103574500D01*
X143470269Y-103574500D01*
X143470266Y-103574500D01*
X143403761Y-103583255D01*
X143243013Y-103604418D01*
X143242771Y-103604448D01*
X143242731Y-103604458D01*
X143021116Y-103663840D01*
X143021115Y-103663840D01*
X142875212Y-103724275D01*
X142809110Y-103751656D01*
X142809107Y-103751657D01*
X142809106Y-103751658D01*
X142610388Y-103866387D01*
X142610379Y-103866393D01*
X142610374Y-103866397D01*
X142428347Y-104006071D01*
X142266071Y-104168347D01*
X142126397Y-104350374D01*
X142126393Y-104350379D01*
X142126387Y-104350388D01*
X142011658Y-104549106D01*
X142011656Y-104549110D01*
X141984275Y-104615212D01*
X141923840Y-104761115D01*
X141923840Y-104761116D01*
X141864456Y-104982738D01*
X141864454Y-104982746D01*
X141864454Y-104982750D01*
X141834500Y-105210269D01*
X141834500Y-105210271D01*
X141834500Y-105422865D01*
X141832056Y-105429964D01*
X120825500Y-105429964D01*
X120825500Y-105210266D01*
X120795548Y-104982762D01*
X120736158Y-104761113D01*
X120648344Y-104549112D01*
X120533611Y-104350388D01*
X120533608Y-104350384D01*
X120533602Y-104350375D01*
X120501103Y-104308022D01*
X120393927Y-104168347D01*
X120231651Y-104006071D01*
X120049624Y-103866397D01*
X120049619Y-103866393D01*
X120049610Y-103866387D01*
X119850892Y-103751658D01*
X119850893Y-103751658D01*
X119850889Y-103751656D01*
X119638887Y-103663842D01*
X119638886Y-103663841D01*
X119638882Y-103663840D01*
X119417254Y-103604454D01*
X119378987Y-103599416D01*
X119189734Y-103574500D01*
X119189730Y-103574500D01*
X118960269Y-103574500D01*
X118960266Y-103574500D01*
X118893761Y-103583255D01*
X118733013Y-103604418D01*
X118732771Y-103604448D01*
X118732731Y-103604458D01*
X118511116Y-103663840D01*
X118511115Y-103663840D01*
X118365212Y-103724275D01*
X118299110Y-103751656D01*
X118299107Y-103751657D01*
X118299106Y-103751658D01*
X118100388Y-103866387D01*
X118100379Y-103866393D01*
X118100374Y-103866397D01*
X117918347Y-104006071D01*
X117756071Y-104168347D01*
X117616397Y-104350374D01*
X117616393Y-104350379D01*
X117616387Y-104350388D01*
X117501658Y-104549106D01*
X117501656Y-104549110D01*
X117474275Y-104615212D01*
X117413840Y-104761115D01*
X117413840Y-104761116D01*
X117354456Y-104982738D01*
X117354454Y-104982746D01*
X117354454Y-104982750D01*
X117324500Y-105210269D01*
X117324500Y-105210271D01*
X117324500Y-105422865D01*
X117322056Y-105429964D01*
X115700500Y-105429964D01*
X115700500Y-96345252D01*
X117404500Y-96345252D01*
X117404500Y-98384748D01*
X117416133Y-98443231D01*
X117429008Y-98462500D01*
X117433882Y-98469795D01*
X117460447Y-98509552D01*
X117460451Y-98509555D01*
X117487011Y-98527301D01*
X117487012Y-98527301D01*
X117497570Y-98534356D01*
X117526767Y-98553866D01*
X117526769Y-98553867D01*
X117585252Y-98565500D01*
X117585255Y-98565500D01*
X119624745Y-98565500D01*
X119624748Y-98565500D01*
X119683231Y-98553867D01*
X119749552Y-98509552D01*
X119793867Y-98443231D01*
X119805500Y-98384748D01*
X119805500Y-96345252D01*
X119793867Y-96286769D01*
X119766988Y-96246542D01*
X119766988Y-96246541D01*
X119749556Y-96220451D01*
X119749551Y-96220446D01*
X119700172Y-96187453D01*
X119700171Y-96187451D01*
X119683232Y-96176133D01*
X119668610Y-96173224D01*
X119624748Y-96164500D01*
X119624745Y-96164500D01*
X119267437Y-96164500D01*
X119248686Y-96160770D01*
X119232043Y-96153876D01*
X119216149Y-96143255D01*
X118605000Y-95532106D01*
X117993850Y-96143255D01*
X117977956Y-96153876D01*
X117961317Y-96160769D01*
X117942563Y-96164500D01*
X117585252Y-96164500D01*
X117550162Y-96171479D01*
X117526767Y-96176133D01*
X117460451Y-96220443D01*
X117460446Y-96220447D01*
X117425174Y-96273236D01*
X117425174Y-96273238D01*
X117416133Y-96286769D01*
X117404500Y-96345252D01*
X115700500Y-96345252D01*
X115700500Y-94706947D01*
X117105000Y-94706947D01*
X117105000Y-94943052D01*
X117135900Y-95138148D01*
X117141934Y-95176248D01*
X117141936Y-95176256D01*
X117141964Y-95176341D01*
X117193515Y-95334999D01*
X117214894Y-95400795D01*
X117251079Y-95471813D01*
X117897894Y-94824999D01*
X117830748Y-94757853D01*
X118095000Y-94757853D01*
X118095000Y-94892146D01*
X118129754Y-95021852D01*
X118129755Y-95021854D01*
X118196898Y-95138147D01*
X118291853Y-95233102D01*
X118376982Y-95282252D01*
X118408145Y-95300244D01*
X118408147Y-95300245D01*
X118537853Y-95334999D01*
X118537854Y-95335000D01*
X118672143Y-95335000D01*
X118672146Y-95335000D01*
X118672146Y-95334999D01*
X118801853Y-95300245D01*
X118918147Y-95233102D01*
X119013102Y-95138147D01*
X119080245Y-95021853D01*
X119114999Y-94892146D01*
X119115000Y-94892146D01*
X119115000Y-94824998D01*
X119312106Y-94824998D01*
X119312106Y-94824999D01*
X119312106Y-94825000D01*
X119958919Y-95471813D01*
X119995104Y-95400798D01*
X120068064Y-95176251D01*
X120068065Y-95176248D01*
X120105000Y-94943052D01*
X120105000Y-94706947D01*
X142505000Y-94706947D01*
X142505000Y-94943052D01*
X142535900Y-95138148D01*
X142541934Y-95176248D01*
X142541936Y-95176256D01*
X142541964Y-95176341D01*
X142593515Y-95334999D01*
X142614894Y-95400795D01*
X142651079Y-95471813D01*
X143297894Y-94825000D01*
X143297894Y-94824999D01*
X143230748Y-94757853D01*
X143495000Y-94757853D01*
X143495000Y-94892146D01*
X143529754Y-95021852D01*
X143529755Y-95021854D01*
X143596898Y-95138147D01*
X143691853Y-95233102D01*
X143776982Y-95282252D01*
X143808145Y-95300244D01*
X143808147Y-95300245D01*
X143937853Y-95334999D01*
X143937854Y-95335000D01*
X144072143Y-95335000D01*
X144072146Y-95335000D01*
X144072146Y-95334999D01*
X144201853Y-95300245D01*
X144318147Y-95233102D01*
X144413102Y-95138147D01*
X144480245Y-95021853D01*
X144514999Y-94892146D01*
X144515000Y-94892146D01*
X144515000Y-94824998D01*
X144712106Y-94824998D01*
X144712106Y-94824999D01*
X144712106Y-94825000D01*
X145358919Y-95471813D01*
X145395104Y-95400798D01*
X145468064Y-95176251D01*
X145468065Y-95176248D01*
X145505000Y-94943052D01*
X145505000Y-94706947D01*
X145468065Y-94473751D01*
X145468064Y-94473748D01*
X145395103Y-94249198D01*
X145358921Y-94178185D01*
X145358919Y-94178185D01*
X144712106Y-94824998D01*
X144515000Y-94824998D01*
X144515000Y-94757854D01*
X144514999Y-94757853D01*
X144480245Y-94628147D01*
X144480244Y-94628145D01*
X144413101Y-94511852D01*
X144318147Y-94416898D01*
X144201854Y-94349755D01*
X144201852Y-94349754D01*
X144072146Y-94315000D01*
X144072143Y-94315000D01*
X143937857Y-94315000D01*
X143937854Y-94315000D01*
X143808147Y-94349754D01*
X143808145Y-94349755D01*
X143691852Y-94416898D01*
X143691852Y-94416899D01*
X143596899Y-94511852D01*
X143596898Y-94511852D01*
X143529755Y-94628145D01*
X143529754Y-94628147D01*
X143495000Y-94757853D01*
X143230748Y-94757853D01*
X142651079Y-94178184D01*
X142651078Y-94178183D01*
X142647943Y-94179482D01*
X142645739Y-94188665D01*
X142614895Y-94249201D01*
X142614894Y-94249203D01*
X142541964Y-94473657D01*
X142541937Y-94473736D01*
X142541934Y-94473750D01*
X142541934Y-94473751D01*
X142505000Y-94706947D01*
X120105000Y-94706947D01*
X120068065Y-94473751D01*
X120068064Y-94473748D01*
X119995103Y-94249198D01*
X119958921Y-94178185D01*
X119958919Y-94178185D01*
X119312106Y-94824998D01*
X119115000Y-94824998D01*
X119115000Y-94757854D01*
X119114999Y-94757853D01*
X119080245Y-94628147D01*
X119080244Y-94628145D01*
X119013101Y-94511852D01*
X118918147Y-94416898D01*
X118801854Y-94349755D01*
X118801852Y-94349754D01*
X118672146Y-94315000D01*
X118672143Y-94315000D01*
X118537857Y-94315000D01*
X118537854Y-94315000D01*
X118408147Y-94349754D01*
X118408145Y-94349755D01*
X118291852Y-94416898D01*
X118291852Y-94416899D01*
X118196899Y-94511852D01*
X118196898Y-94511852D01*
X118129755Y-94628145D01*
X118129754Y-94628147D01*
X118095000Y-94757853D01*
X117830748Y-94757853D01*
X117251079Y-94178184D01*
X117251078Y-94178183D01*
X117247943Y-94179482D01*
X117245739Y-94188665D01*
X117214895Y-94249201D01*
X117214894Y-94249203D01*
X117141964Y-94473657D01*
X117141937Y-94473736D01*
X117141934Y-94473750D01*
X117141934Y-94473751D01*
X117105000Y-94706947D01*
X115700500Y-94706947D01*
X115700500Y-92190519D01*
X117404500Y-92190519D01*
X117404500Y-92379480D01*
X117411468Y-92423475D01*
X117434059Y-92566115D01*
X117434061Y-92566123D01*
X117434089Y-92566208D01*
X117492453Y-92745834D01*
X117578230Y-92914183D01*
X117578236Y-92914194D01*
X117578243Y-92914208D01*
X117578441Y-92914476D01*
X117689310Y-93067073D01*
X117689312Y-93067075D01*
X117689318Y-93067083D01*
X117791786Y-93169550D01*
X117822920Y-93200684D01*
X117822923Y-93200686D01*
X117822927Y-93200690D01*
X117822941Y-93200700D01*
X117823131Y-93200856D01*
X117823700Y-93201252D01*
X117975801Y-93311760D01*
X118030075Y-93339414D01*
X118045088Y-93351249D01*
X118048513Y-93355259D01*
X118060103Y-93390927D01*
X118043079Y-93424341D01*
X118037387Y-93429203D01*
X118027808Y-93435604D01*
X117983375Y-93458244D01*
X117968666Y-93465738D01*
X117959482Y-93467943D01*
X117958183Y-93471078D01*
X118604999Y-94117894D01*
X119251813Y-93471079D01*
X119251812Y-93471078D01*
X119182198Y-93435608D01*
X119172618Y-93429207D01*
X119166919Y-93424339D01*
X119149895Y-93390923D01*
X119153695Y-93379229D01*
X119161483Y-93355260D01*
X119161484Y-93355259D01*
X119164906Y-93351251D01*
X119179920Y-93339415D01*
X119234199Y-93311760D01*
X119387073Y-93200690D01*
X119520690Y-93067073D01*
X119631760Y-92914199D01*
X119717547Y-92745832D01*
X119775940Y-92566118D01*
X119805500Y-92379481D01*
X119805500Y-92190519D01*
X142804500Y-92190519D01*
X142804500Y-92379480D01*
X142811468Y-92423475D01*
X142834059Y-92566115D01*
X142834061Y-92566123D01*
X142834089Y-92566208D01*
X142892453Y-92745834D01*
X142978230Y-92914183D01*
X142978236Y-92914194D01*
X142978243Y-92914208D01*
X142978441Y-92914476D01*
X143089310Y-93067073D01*
X143089312Y-93067075D01*
X143089318Y-93067083D01*
X143191786Y-93169550D01*
X143222920Y-93200684D01*
X143222923Y-93200686D01*
X143222927Y-93200690D01*
X143222941Y-93200700D01*
X143223131Y-93200856D01*
X143223700Y-93201252D01*
X143375801Y-93311760D01*
X143430075Y-93339414D01*
X143445088Y-93351249D01*
X143448513Y-93355259D01*
X143460103Y-93390927D01*
X143443079Y-93424341D01*
X143437387Y-93429203D01*
X143427808Y-93435604D01*
X143383375Y-93458244D01*
X143368666Y-93465738D01*
X143359482Y-93467943D01*
X143358183Y-93471078D01*
X144004999Y-94117894D01*
X144651813Y-93471079D01*
X144651812Y-93471078D01*
X144582198Y-93435608D01*
X144572618Y-93429207D01*
X144566919Y-93424339D01*
X144549895Y-93390923D01*
X144553695Y-93379229D01*
X144561483Y-93355260D01*
X144561484Y-93355259D01*
X144564906Y-93351251D01*
X144579920Y-93339415D01*
X144634199Y-93311760D01*
X144787073Y-93200690D01*
X144920690Y-93067073D01*
X145031760Y-92914199D01*
X145117547Y-92745832D01*
X145175940Y-92566118D01*
X145205500Y-92379481D01*
X145205500Y-92190519D01*
X145175940Y-92003882D01*
X145117547Y-91824168D01*
X145031760Y-91655801D01*
X144921252Y-91503700D01*
X144921252Y-91503699D01*
X144920687Y-91502923D01*
X144808312Y-91390548D01*
X144804871Y-91382241D01*
X144634190Y-91258234D01*
X144465834Y-91172453D01*
X144286208Y-91114089D01*
X144286123Y-91114061D01*
X144286115Y-91114059D01*
X144142744Y-91091352D01*
X144099481Y-91084500D01*
X143910519Y-91084500D01*
X143875396Y-91090061D01*
X143875397Y-91090062D01*
X143723883Y-91114059D01*
X143723869Y-91114062D01*
X143723790Y-91114089D01*
X143544164Y-91172453D01*
X143375811Y-91258232D01*
X143222913Y-91369320D01*
X143089320Y-91502913D01*
X142978232Y-91655811D01*
X142892453Y-91824164D01*
X142834089Y-92003790D01*
X142834062Y-92003869D01*
X142834059Y-92003883D01*
X142809182Y-92160955D01*
X142804500Y-92190519D01*
X119805500Y-92190519D01*
X119775940Y-92003882D01*
X119717547Y-91824168D01*
X119631760Y-91655801D01*
X119521252Y-91503700D01*
X119521252Y-91503699D01*
X119520687Y-91502923D01*
X119408312Y-91390548D01*
X119404871Y-91382241D01*
X119234190Y-91258234D01*
X119065834Y-91172453D01*
X118886208Y-91114089D01*
X118886123Y-91114061D01*
X118886115Y-91114059D01*
X118742744Y-91091352D01*
X118699481Y-91084500D01*
X118510519Y-91084500D01*
X118475396Y-91090061D01*
X118475397Y-91090062D01*
X118323883Y-91114059D01*
X118323869Y-91114062D01*
X118323790Y-91114089D01*
X118144164Y-91172453D01*
X117975811Y-91258232D01*
X117822913Y-91369320D01*
X117689320Y-91502913D01*
X117578232Y-91655811D01*
X117492453Y-91824164D01*
X117434089Y-92003790D01*
X117434062Y-92003869D01*
X117434059Y-92003883D01*
X117409182Y-92160955D01*
X117404500Y-92190519D01*
X115700500Y-92190519D01*
X115700500Y-89650519D01*
X117404500Y-89650519D01*
X117404500Y-89839480D01*
X117433657Y-90023579D01*
X117434059Y-90026115D01*
X117434061Y-90026123D01*
X117434089Y-90026208D01*
X117492453Y-90205834D01*
X117578230Y-90374183D01*
X117578236Y-90374194D01*
X117578243Y-90374208D01*
X117578441Y-90374476D01*
X117689310Y-90527073D01*
X117689312Y-90527075D01*
X117689318Y-90527083D01*
X117760248Y-90598012D01*
X117822920Y-90660684D01*
X117822923Y-90660686D01*
X117822927Y-90660690D01*
X117822940Y-90660699D01*
X117823118Y-90660846D01*
X117823658Y-90661221D01*
X117975801Y-90771760D01*
X117975803Y-90771761D01*
X117975806Y-90771763D01*
X118050754Y-90809950D01*
X118144118Y-90857522D01*
X118144140Y-90857533D01*
X118144166Y-90857546D01*
X118144168Y-90857547D01*
X118323882Y-90915940D01*
X118510519Y-90945500D01*
X118510520Y-90945500D01*
X118699480Y-90945500D01*
X118699481Y-90945500D01*
X118886118Y-90915940D01*
X119065832Y-90857547D01*
X119234199Y-90771760D01*
X119387073Y-90660690D01*
X119520690Y-90527073D01*
X119631760Y-90374199D01*
X119717547Y-90205832D01*
X119775940Y-90026118D01*
X119805500Y-89839481D01*
X119805500Y-89650519D01*
X142804500Y-89650519D01*
X142804500Y-89839480D01*
X142833657Y-90023579D01*
X142834059Y-90026115D01*
X142834061Y-90026123D01*
X142834089Y-90026208D01*
X142892453Y-90205834D01*
X142978230Y-90374183D01*
X142978236Y-90374194D01*
X142978243Y-90374208D01*
X142978441Y-90374476D01*
X143089310Y-90527073D01*
X143089312Y-90527075D01*
X143089318Y-90527083D01*
X143160248Y-90598012D01*
X143222920Y-90660684D01*
X143222923Y-90660686D01*
X143222927Y-90660690D01*
X143222940Y-90660699D01*
X143223118Y-90660846D01*
X143223658Y-90661221D01*
X143375801Y-90771760D01*
X143375803Y-90771761D01*
X143375806Y-90771763D01*
X143450754Y-90809950D01*
X143544118Y-90857522D01*
X143544140Y-90857533D01*
X143544166Y-90857546D01*
X143544168Y-90857547D01*
X143723882Y-90915940D01*
X143910519Y-90945500D01*
X143910520Y-90945500D01*
X144099480Y-90945500D01*
X144099481Y-90945500D01*
X144286118Y-90915940D01*
X144465832Y-90857547D01*
X144634199Y-90771760D01*
X144787073Y-90660690D01*
X144920690Y-90527073D01*
X145031760Y-90374199D01*
X145117547Y-90205832D01*
X145175940Y-90026118D01*
X145205500Y-89839481D01*
X145205500Y-89650519D01*
X145175940Y-89463882D01*
X145117547Y-89284168D01*
X145031760Y-89115801D01*
X144921252Y-88963700D01*
X144921252Y-88963699D01*
X144920687Y-88962923D01*
X144808312Y-88850548D01*
X144804871Y-88842242D01*
X144787079Y-88829315D01*
X144787080Y-88829315D01*
X144688347Y-88757581D01*
X144688347Y-88757580D01*
X144634476Y-88718441D01*
X144634476Y-88718440D01*
X144634192Y-88718234D01*
X144634183Y-88718230D01*
X144465834Y-88632453D01*
X144286208Y-88574089D01*
X144286123Y-88574061D01*
X144286115Y-88574059D01*
X144142744Y-88551352D01*
X144099481Y-88544500D01*
X143910519Y-88544500D01*
X143875396Y-88550061D01*
X143875397Y-88550062D01*
X143723883Y-88574059D01*
X143723869Y-88574062D01*
X143723790Y-88574089D01*
X143544164Y-88632453D01*
X143375811Y-88718232D01*
X143222913Y-88829320D01*
X143089320Y-88962913D01*
X142978232Y-89115811D01*
X142892453Y-89284164D01*
X142834089Y-89463790D01*
X142834062Y-89463869D01*
X142834059Y-89463883D01*
X142834059Y-89463884D01*
X142804500Y-89650519D01*
X119805500Y-89650519D01*
X119775940Y-89463882D01*
X119717547Y-89284168D01*
X119631760Y-89115801D01*
X119521252Y-88963700D01*
X119521252Y-88963699D01*
X119520687Y-88962923D01*
X119408312Y-88850548D01*
X119404871Y-88842242D01*
X119387079Y-88829315D01*
X119387080Y-88829315D01*
X119288347Y-88757581D01*
X119288347Y-88757580D01*
X119234476Y-88718441D01*
X119234476Y-88718440D01*
X119234192Y-88718234D01*
X119234183Y-88718230D01*
X119065834Y-88632453D01*
X118886208Y-88574089D01*
X118886123Y-88574061D01*
X118886115Y-88574059D01*
X118742744Y-88551352D01*
X118699481Y-88544500D01*
X118510519Y-88544500D01*
X118475396Y-88550061D01*
X118475397Y-88550062D01*
X118323883Y-88574059D01*
X118323869Y-88574062D01*
X118323790Y-88574089D01*
X118144164Y-88632453D01*
X117975811Y-88718232D01*
X117822913Y-88829320D01*
X117689320Y-88962913D01*
X117578232Y-89115811D01*
X117492453Y-89284164D01*
X117434089Y-89463790D01*
X117434062Y-89463869D01*
X117434059Y-89463883D01*
X117434059Y-89463884D01*
X117404500Y-89650519D01*
X115700500Y-89650519D01*
X115700500Y-87110519D01*
X117404500Y-87110519D01*
X117404500Y-87299480D01*
X117409405Y-87330448D01*
X117434059Y-87486115D01*
X117434061Y-87486123D01*
X117434089Y-87486208D01*
X117492453Y-87665834D01*
X117578230Y-87834183D01*
X117578236Y-87834194D01*
X117578243Y-87834208D01*
X117578441Y-87834476D01*
X117606868Y-87873601D01*
X117689310Y-87987073D01*
X117689312Y-87987075D01*
X117689318Y-87987083D01*
X117785999Y-88083763D01*
X117822920Y-88120684D01*
X117822923Y-88120686D01*
X117822927Y-88120690D01*
X117822940Y-88120699D01*
X117823118Y-88120846D01*
X117823658Y-88121221D01*
X117975801Y-88231760D01*
X117975803Y-88231761D01*
X117975806Y-88231763D01*
X118007840Y-88248085D01*
X118144118Y-88317522D01*
X118144140Y-88317533D01*
X118144166Y-88317546D01*
X118144168Y-88317547D01*
X118323882Y-88375940D01*
X118510519Y-88405500D01*
X118510520Y-88405500D01*
X118699480Y-88405500D01*
X118699481Y-88405500D01*
X118886118Y-88375940D01*
X119065832Y-88317547D01*
X119234199Y-88231760D01*
X119387073Y-88120690D01*
X119520690Y-87987073D01*
X119631760Y-87834199D01*
X119717547Y-87665832D01*
X119775940Y-87486118D01*
X119805500Y-87299481D01*
X119805500Y-87110519D01*
X119775940Y-86923882D01*
X119717547Y-86744168D01*
X119631760Y-86575801D01*
X119521252Y-86423700D01*
X119521252Y-86423699D01*
X119520687Y-86422923D01*
X119408312Y-86310548D01*
X119404871Y-86302241D01*
X119234190Y-86178234D01*
X119065834Y-86092453D01*
X118886208Y-86034089D01*
X118886123Y-86034061D01*
X118886115Y-86034059D01*
X118742744Y-86011352D01*
X118699481Y-86004500D01*
X118510519Y-86004500D01*
X118475396Y-86010061D01*
X118475397Y-86010062D01*
X118323883Y-86034059D01*
X118323869Y-86034062D01*
X118323790Y-86034089D01*
X118144164Y-86092453D01*
X117975811Y-86178232D01*
X117822913Y-86289320D01*
X117689320Y-86422913D01*
X117578232Y-86575811D01*
X117492453Y-86744164D01*
X117434089Y-86923790D01*
X117434062Y-86923869D01*
X117434059Y-86923883D01*
X117434059Y-86923884D01*
X117404500Y-87110519D01*
X115700500Y-87110519D01*
X115700500Y-84570519D01*
X117404500Y-84570519D01*
X117404500Y-84759479D01*
X117434059Y-84946115D01*
X117434061Y-84946123D01*
X117434089Y-84946208D01*
X117492453Y-85125834D01*
X117578230Y-85294183D01*
X117578236Y-85294194D01*
X117578243Y-85294208D01*
X117578441Y-85294476D01*
X117689310Y-85447073D01*
X117689312Y-85447075D01*
X117689318Y-85447083D01*
X117822914Y-85580678D01*
X117822920Y-85580684D01*
X117822923Y-85580686D01*
X117822927Y-85580690D01*
X117822940Y-85580699D01*
X117823118Y-85580846D01*
X117823658Y-85581221D01*
X117975801Y-85691760D01*
X117975803Y-85691761D01*
X117975806Y-85691763D01*
X118136135Y-85773454D01*
X118144168Y-85777547D01*
X118323882Y-85835940D01*
X118510519Y-85865500D01*
X118510520Y-85865500D01*
X118699480Y-85865500D01*
X118699481Y-85865500D01*
X118886118Y-85835940D01*
X119065832Y-85777547D01*
X119234199Y-85691760D01*
X119387073Y-85580690D01*
X119520690Y-85447073D01*
X119631760Y-85294199D01*
X119717547Y-85125832D01*
X119775940Y-84946118D01*
X119805500Y-84759481D01*
X119805500Y-84570519D01*
X142804500Y-84570519D01*
X142804500Y-84759479D01*
X142834059Y-84946115D01*
X142834061Y-84946123D01*
X142834089Y-84946208D01*
X142892453Y-85125834D01*
X142978230Y-85294183D01*
X142978236Y-85294194D01*
X142978243Y-85294208D01*
X142978441Y-85294476D01*
X143089310Y-85447073D01*
X143089312Y-85447075D01*
X143089318Y-85447083D01*
X143222914Y-85580678D01*
X143222920Y-85580684D01*
X143222923Y-85580686D01*
X143222927Y-85580690D01*
X143222940Y-85580699D01*
X143223118Y-85580846D01*
X143223658Y-85581221D01*
X143375801Y-85691760D01*
X143375803Y-85691761D01*
X143375806Y-85691763D01*
X143536135Y-85773454D01*
X143544168Y-85777547D01*
X143723882Y-85835940D01*
X143910519Y-85865500D01*
X143910520Y-85865500D01*
X144099480Y-85865500D01*
X144099481Y-85865500D01*
X144286118Y-85835940D01*
X144465832Y-85777547D01*
X144634199Y-85691760D01*
X144787073Y-85580690D01*
X144920690Y-85447073D01*
X145031760Y-85294199D01*
X145117547Y-85125832D01*
X145175940Y-84946118D01*
X145205500Y-84759481D01*
X145205500Y-84570519D01*
X145175940Y-84383882D01*
X145117547Y-84204168D01*
X145031760Y-84035801D01*
X144921252Y-83883700D01*
X144921252Y-83883699D01*
X144920687Y-83882923D01*
X144808312Y-83770548D01*
X144804871Y-83762242D01*
X144787079Y-83749315D01*
X144787080Y-83749315D01*
X144665013Y-83660628D01*
X144665013Y-83660627D01*
X144634476Y-83638441D01*
X144634476Y-83638440D01*
X144634192Y-83638234D01*
X144634183Y-83638230D01*
X144465834Y-83552453D01*
X144286208Y-83494089D01*
X144286123Y-83494061D01*
X144286115Y-83494059D01*
X144142744Y-83471352D01*
X144099481Y-83464500D01*
X143910519Y-83464500D01*
X143875396Y-83470061D01*
X143875397Y-83470062D01*
X143723883Y-83494059D01*
X143723869Y-83494062D01*
X143723790Y-83494089D01*
X143544164Y-83552453D01*
X143375811Y-83638232D01*
X143222913Y-83749320D01*
X143089320Y-83882913D01*
X142978232Y-84035811D01*
X142892453Y-84204164D01*
X142834089Y-84383790D01*
X142834062Y-84383869D01*
X142834059Y-84383883D01*
X142804500Y-84570519D01*
X119805500Y-84570519D01*
X119775940Y-84383882D01*
X119717547Y-84204168D01*
X119631760Y-84035801D01*
X119521252Y-83883700D01*
X119521252Y-83883699D01*
X119520687Y-83882923D01*
X119408312Y-83770548D01*
X119404871Y-83762242D01*
X119387079Y-83749315D01*
X119387080Y-83749315D01*
X119265013Y-83660628D01*
X119265013Y-83660627D01*
X119234476Y-83638441D01*
X119234476Y-83638440D01*
X119234192Y-83638234D01*
X119234183Y-83638230D01*
X119065834Y-83552453D01*
X118886208Y-83494089D01*
X118886123Y-83494061D01*
X118886115Y-83494059D01*
X118742744Y-83471352D01*
X118699481Y-83464500D01*
X118510519Y-83464500D01*
X118475396Y-83470061D01*
X118475397Y-83470062D01*
X118323883Y-83494059D01*
X118323869Y-83494062D01*
X118323790Y-83494089D01*
X118144164Y-83552453D01*
X117975811Y-83638232D01*
X117822913Y-83749320D01*
X117689320Y-83882913D01*
X117578232Y-84035811D01*
X117492453Y-84204164D01*
X117434089Y-84383790D01*
X117434062Y-84383869D01*
X117434059Y-84383883D01*
X117404500Y-84570519D01*
X115700500Y-84570519D01*
X115700500Y-82030519D01*
X117404500Y-82030519D01*
X117404500Y-82219480D01*
X117415763Y-82290592D01*
X117434059Y-82406115D01*
X117434061Y-82406123D01*
X117434089Y-82406208D01*
X117492453Y-82585834D01*
X117578230Y-82754183D01*
X117578236Y-82754194D01*
X117578243Y-82754208D01*
X117578441Y-82754476D01*
X117689310Y-82907073D01*
X117689312Y-82907075D01*
X117689318Y-82907083D01*
X117822914Y-83040678D01*
X117822920Y-83040684D01*
X117822923Y-83040686D01*
X117822927Y-83040690D01*
X117822940Y-83040699D01*
X117823118Y-83040846D01*
X117823658Y-83041221D01*
X117975801Y-83151760D01*
X117975803Y-83151761D01*
X117975806Y-83151763D01*
X118136200Y-83233487D01*
X118144168Y-83237547D01*
X118323882Y-83295940D01*
X118510519Y-83325500D01*
X118510520Y-83325500D01*
X118699480Y-83325500D01*
X118699481Y-83325500D01*
X118886118Y-83295940D01*
X119065832Y-83237547D01*
X119234199Y-83151760D01*
X119387073Y-83040690D01*
X119520690Y-82907073D01*
X119631760Y-82754199D01*
X119717547Y-82585832D01*
X119775940Y-82406118D01*
X119805500Y-82219481D01*
X119805500Y-82030519D01*
X142804500Y-82030519D01*
X142804500Y-82219480D01*
X142815763Y-82290592D01*
X142834059Y-82406115D01*
X142834061Y-82406123D01*
X142834089Y-82406208D01*
X142892453Y-82585834D01*
X142978230Y-82754183D01*
X142978236Y-82754194D01*
X142978243Y-82754208D01*
X142978441Y-82754476D01*
X143089310Y-82907073D01*
X143089312Y-82907075D01*
X143089318Y-82907083D01*
X143222914Y-83040678D01*
X143222920Y-83040684D01*
X143222923Y-83040686D01*
X143222927Y-83040690D01*
X143222940Y-83040699D01*
X143223118Y-83040846D01*
X143223658Y-83041221D01*
X143375801Y-83151760D01*
X143375803Y-83151761D01*
X143375806Y-83151763D01*
X143536200Y-83233487D01*
X143544168Y-83237547D01*
X143723882Y-83295940D01*
X143910519Y-83325500D01*
X143910520Y-83325500D01*
X144099480Y-83325500D01*
X144099481Y-83325500D01*
X144286118Y-83295940D01*
X144465832Y-83237547D01*
X144634199Y-83151760D01*
X144787073Y-83040690D01*
X144920690Y-82907073D01*
X145031760Y-82754199D01*
X145117547Y-82585832D01*
X145175940Y-82406118D01*
X145205500Y-82219481D01*
X145205500Y-82030519D01*
X145175940Y-81843882D01*
X145117547Y-81664168D01*
X145031760Y-81495801D01*
X144921252Y-81343700D01*
X144921252Y-81343699D01*
X144920687Y-81342923D01*
X144808312Y-81230548D01*
X144804871Y-81222241D01*
X144634190Y-81098234D01*
X144465834Y-81012453D01*
X144286208Y-80954089D01*
X144286123Y-80954061D01*
X144286115Y-80954059D01*
X144142744Y-80931352D01*
X144099481Y-80924500D01*
X143910519Y-80924500D01*
X143875396Y-80930061D01*
X143875397Y-80930062D01*
X143723883Y-80954059D01*
X143723869Y-80954062D01*
X143723790Y-80954089D01*
X143544164Y-81012453D01*
X143375811Y-81098232D01*
X143222913Y-81209320D01*
X143089320Y-81342913D01*
X142978232Y-81495811D01*
X142892453Y-81664164D01*
X142834089Y-81843790D01*
X142834062Y-81843869D01*
X142834059Y-81843883D01*
X142834059Y-81843884D01*
X142804500Y-82030519D01*
X119805500Y-82030519D01*
X119775940Y-81843882D01*
X119717547Y-81664168D01*
X119631760Y-81495801D01*
X119521252Y-81343700D01*
X119521252Y-81343699D01*
X119520687Y-81342923D01*
X119408312Y-81230548D01*
X119404871Y-81222241D01*
X119234190Y-81098234D01*
X119065834Y-81012453D01*
X118886208Y-80954089D01*
X118886123Y-80954061D01*
X118886115Y-80954059D01*
X118742744Y-80931352D01*
X118699481Y-80924500D01*
X118510519Y-80924500D01*
X118475396Y-80930061D01*
X118475397Y-80930062D01*
X118323883Y-80954059D01*
X118323869Y-80954062D01*
X118323790Y-80954089D01*
X118144164Y-81012453D01*
X117975811Y-81098232D01*
X117822913Y-81209320D01*
X117689320Y-81342913D01*
X117578232Y-81495811D01*
X117492453Y-81664164D01*
X117434089Y-81843790D01*
X117434062Y-81843869D01*
X117434059Y-81843883D01*
X117434059Y-81843884D01*
X117404500Y-82030519D01*
X115700500Y-82030519D01*
X115700500Y-79490519D01*
X117404500Y-79490519D01*
X117404500Y-79679479D01*
X117434059Y-79866115D01*
X117434061Y-79866123D01*
X117434089Y-79866208D01*
X117492453Y-80045834D01*
X117578230Y-80214183D01*
X117578236Y-80214194D01*
X117578243Y-80214208D01*
X117578441Y-80214476D01*
X117689310Y-80367073D01*
X117689312Y-80367075D01*
X117689318Y-80367083D01*
X117822914Y-80500678D01*
X117822920Y-80500684D01*
X117822923Y-80500686D01*
X117822927Y-80500690D01*
X117822940Y-80500699D01*
X117823118Y-80500846D01*
X117823658Y-80501221D01*
X117975801Y-80611760D01*
X117975803Y-80611761D01*
X117975806Y-80611763D01*
X118050754Y-80649950D01*
X118144118Y-80697522D01*
X118144140Y-80697533D01*
X118144166Y-80697546D01*
X118144168Y-80697547D01*
X118323882Y-80755940D01*
X118510519Y-80785500D01*
X118510520Y-80785500D01*
X118699480Y-80785500D01*
X118699481Y-80785500D01*
X118886118Y-80755940D01*
X119065832Y-80697547D01*
X119234199Y-80611760D01*
X119387073Y-80500690D01*
X119520690Y-80367073D01*
X119631760Y-80214199D01*
X119717547Y-80045832D01*
X119775940Y-79866118D01*
X119805500Y-79679481D01*
X119805500Y-79490519D01*
X142804500Y-79490519D01*
X142804500Y-79679479D01*
X142834059Y-79866115D01*
X142834061Y-79866123D01*
X142834089Y-79866208D01*
X142892453Y-80045834D01*
X142978230Y-80214183D01*
X142978236Y-80214194D01*
X142978243Y-80214208D01*
X142978441Y-80214476D01*
X143089310Y-80367073D01*
X143089312Y-80367075D01*
X143089318Y-80367083D01*
X143222914Y-80500678D01*
X143222920Y-80500684D01*
X143222923Y-80500686D01*
X143222927Y-80500690D01*
X143222940Y-80500699D01*
X143223118Y-80500846D01*
X143223658Y-80501221D01*
X143375801Y-80611760D01*
X143375803Y-80611761D01*
X143375806Y-80611763D01*
X143450754Y-80649950D01*
X143544118Y-80697522D01*
X143544140Y-80697533D01*
X143544166Y-80697546D01*
X143544168Y-80697547D01*
X143723882Y-80755940D01*
X143910519Y-80785500D01*
X143910520Y-80785500D01*
X144099480Y-80785500D01*
X144099481Y-80785500D01*
X144286118Y-80755940D01*
X144465832Y-80697547D01*
X144634199Y-80611760D01*
X144787073Y-80500690D01*
X144920690Y-80367073D01*
X145031760Y-80214199D01*
X145117547Y-80045832D01*
X145175940Y-79866118D01*
X145205500Y-79679481D01*
X145205500Y-79490519D01*
X145175940Y-79303882D01*
X145117547Y-79124168D01*
X145031760Y-78955801D01*
X144921252Y-78803700D01*
X144921252Y-78803699D01*
X144920687Y-78802923D01*
X144808312Y-78690548D01*
X144804871Y-78682241D01*
X144634190Y-78558234D01*
X144465834Y-78472453D01*
X144286208Y-78414089D01*
X144286123Y-78414061D01*
X144286115Y-78414059D01*
X144142744Y-78391352D01*
X144099481Y-78384500D01*
X143910519Y-78384500D01*
X143875396Y-78390061D01*
X143875397Y-78390062D01*
X143723883Y-78414059D01*
X143723869Y-78414062D01*
X143723790Y-78414089D01*
X143544164Y-78472453D01*
X143375811Y-78558232D01*
X143222913Y-78669320D01*
X143089320Y-78802913D01*
X142978232Y-78955811D01*
X142892453Y-79124164D01*
X142834089Y-79303790D01*
X142834062Y-79303869D01*
X142834059Y-79303883D01*
X142804500Y-79490519D01*
X119805500Y-79490519D01*
X119775940Y-79303882D01*
X119717547Y-79124168D01*
X119631760Y-78955801D01*
X119521252Y-78803700D01*
X119521252Y-78803699D01*
X119520687Y-78802923D01*
X119408312Y-78690548D01*
X119404871Y-78682241D01*
X119234190Y-78558234D01*
X119065834Y-78472453D01*
X118886208Y-78414089D01*
X118886123Y-78414061D01*
X118886115Y-78414059D01*
X118742744Y-78391352D01*
X118699481Y-78384500D01*
X118510519Y-78384500D01*
X118475396Y-78390061D01*
X118475397Y-78390062D01*
X118323883Y-78414059D01*
X118323869Y-78414062D01*
X118323790Y-78414089D01*
X118144164Y-78472453D01*
X117975811Y-78558232D01*
X117822913Y-78669320D01*
X117689320Y-78802913D01*
X117578232Y-78955811D01*
X117492453Y-79124164D01*
X117434089Y-79303790D01*
X117434062Y-79303869D01*
X117434059Y-79303883D01*
X117404500Y-79490519D01*
X115700500Y-79490519D01*
X115700500Y-76950519D01*
X117404500Y-76950519D01*
X117404500Y-77139479D01*
X117434059Y-77326115D01*
X117434061Y-77326123D01*
X117434089Y-77326208D01*
X117492453Y-77505834D01*
X117578230Y-77674183D01*
X117578236Y-77674194D01*
X117578243Y-77674208D01*
X117578441Y-77674476D01*
X117689310Y-77827073D01*
X117689312Y-77827075D01*
X117689318Y-77827083D01*
X117822914Y-77960678D01*
X117822920Y-77960684D01*
X117822923Y-77960686D01*
X117822927Y-77960690D01*
X117822940Y-77960699D01*
X117823118Y-77960846D01*
X117823658Y-77961221D01*
X117975801Y-78071760D01*
X117975803Y-78071761D01*
X117975806Y-78071763D01*
X118050754Y-78109950D01*
X118144118Y-78157522D01*
X118144140Y-78157533D01*
X118144166Y-78157546D01*
X118144168Y-78157547D01*
X118323882Y-78215940D01*
X118510519Y-78245500D01*
X118510520Y-78245500D01*
X118699480Y-78245500D01*
X118699481Y-78245500D01*
X118886118Y-78215940D01*
X119065832Y-78157547D01*
X119234199Y-78071760D01*
X119387073Y-77960690D01*
X119520690Y-77827073D01*
X119631760Y-77674199D01*
X119717547Y-77505832D01*
X119775940Y-77326118D01*
X119805500Y-77139481D01*
X119805500Y-76950519D01*
X142804500Y-76950519D01*
X142804500Y-77139479D01*
X142834059Y-77326115D01*
X142834061Y-77326123D01*
X142834089Y-77326208D01*
X142892453Y-77505834D01*
X142978230Y-77674183D01*
X142978236Y-77674194D01*
X142978243Y-77674208D01*
X142978441Y-77674476D01*
X143089310Y-77827073D01*
X143089312Y-77827075D01*
X143089318Y-77827083D01*
X143222914Y-77960678D01*
X143222920Y-77960684D01*
X143222923Y-77960686D01*
X143222927Y-77960690D01*
X143222940Y-77960699D01*
X143223118Y-77960846D01*
X143223658Y-77961221D01*
X143375801Y-78071760D01*
X143375803Y-78071761D01*
X143375806Y-78071763D01*
X143450754Y-78109950D01*
X143544118Y-78157522D01*
X143544140Y-78157533D01*
X143544166Y-78157546D01*
X143544168Y-78157547D01*
X143723882Y-78215940D01*
X143910519Y-78245500D01*
X143910520Y-78245500D01*
X144099480Y-78245500D01*
X144099481Y-78245500D01*
X144286118Y-78215940D01*
X144465832Y-78157547D01*
X144634199Y-78071760D01*
X144787073Y-77960690D01*
X144920690Y-77827073D01*
X145031760Y-77674199D01*
X145117547Y-77505832D01*
X145175940Y-77326118D01*
X145205500Y-77139481D01*
X145205500Y-76950519D01*
X145175940Y-76763882D01*
X145117547Y-76584168D01*
X145031760Y-76415801D01*
X144921252Y-76263700D01*
X144921252Y-76263699D01*
X144920687Y-76262923D01*
X144808312Y-76150548D01*
X144804871Y-76142241D01*
X144787080Y-76129315D01*
X144634193Y-76018236D01*
X144634192Y-76018235D01*
X144634190Y-76018234D01*
X144465834Y-75932453D01*
X144286208Y-75874089D01*
X144286123Y-75874061D01*
X144286115Y-75874059D01*
X144142744Y-75851352D01*
X144099481Y-75844500D01*
X143910519Y-75844500D01*
X143875396Y-75850061D01*
X143875397Y-75850062D01*
X143723883Y-75874059D01*
X143723869Y-75874062D01*
X143723790Y-75874089D01*
X143544164Y-75932453D01*
X143375811Y-76018232D01*
X143222913Y-76129320D01*
X143089320Y-76262913D01*
X142978232Y-76415811D01*
X142892453Y-76584164D01*
X142834089Y-76763790D01*
X142834062Y-76763869D01*
X142834059Y-76763883D01*
X142804500Y-76950519D01*
X119805500Y-76950519D01*
X119775940Y-76763882D01*
X119717547Y-76584168D01*
X119631760Y-76415801D01*
X119521252Y-76263700D01*
X119521252Y-76263699D01*
X119520687Y-76262923D01*
X119408312Y-76150548D01*
X119404871Y-76142241D01*
X119387080Y-76129315D01*
X119234193Y-76018236D01*
X119234192Y-76018235D01*
X119234190Y-76018234D01*
X119065834Y-75932453D01*
X118886208Y-75874089D01*
X118886123Y-75874061D01*
X118886115Y-75874059D01*
X118742744Y-75851352D01*
X118699481Y-75844500D01*
X118510519Y-75844500D01*
X118475396Y-75850061D01*
X118475397Y-75850062D01*
X118323883Y-75874059D01*
X118323869Y-75874062D01*
X118323790Y-75874089D01*
X118144164Y-75932453D01*
X117975811Y-76018232D01*
X117822913Y-76129320D01*
X117689320Y-76262913D01*
X117578232Y-76415811D01*
X117492453Y-76584164D01*
X117434089Y-76763790D01*
X117434062Y-76763869D01*
X117434059Y-76763883D01*
X117404500Y-76950519D01*
X115700500Y-76950519D01*
X115700500Y-74410519D01*
X117404500Y-74410519D01*
X117404500Y-74599479D01*
X117434059Y-74786115D01*
X117434060Y-74786119D01*
X117434089Y-74786208D01*
X117492453Y-74965834D01*
X117578230Y-75134183D01*
X117578236Y-75134194D01*
X117578243Y-75134208D01*
X117578441Y-75134476D01*
X117689310Y-75287073D01*
X117689312Y-75287075D01*
X117689318Y-75287083D01*
X117771147Y-75368911D01*
X117822920Y-75420684D01*
X117822923Y-75420686D01*
X117822927Y-75420690D01*
X117822940Y-75420699D01*
X117823118Y-75420846D01*
X117823658Y-75421221D01*
X117975801Y-75531760D01*
X117975803Y-75531761D01*
X117975806Y-75531763D01*
X118065759Y-75577596D01*
X118144168Y-75617547D01*
X118323882Y-75675940D01*
X118510519Y-75705500D01*
X118510520Y-75705500D01*
X118699480Y-75705500D01*
X118699481Y-75705500D01*
X118886118Y-75675940D01*
X119065832Y-75617547D01*
X119234199Y-75531760D01*
X119387073Y-75420690D01*
X119520690Y-75287073D01*
X119631760Y-75134199D01*
X119717547Y-74965832D01*
X119775940Y-74786118D01*
X119805500Y-74599481D01*
X119805500Y-74410519D01*
X142804500Y-74410519D01*
X142804500Y-74599479D01*
X142834059Y-74786115D01*
X142834060Y-74786119D01*
X142834089Y-74786208D01*
X142892453Y-74965834D01*
X142978230Y-75134183D01*
X142978236Y-75134194D01*
X142978243Y-75134208D01*
X142978441Y-75134476D01*
X143089310Y-75287073D01*
X143089312Y-75287075D01*
X143089318Y-75287083D01*
X143171147Y-75368911D01*
X143222920Y-75420684D01*
X143222923Y-75420686D01*
X143222927Y-75420690D01*
X143222940Y-75420699D01*
X143223118Y-75420846D01*
X143223658Y-75421221D01*
X143375801Y-75531760D01*
X143375803Y-75531761D01*
X143375806Y-75531763D01*
X143465759Y-75577596D01*
X143544168Y-75617547D01*
X143723882Y-75675940D01*
X143910519Y-75705500D01*
X143910520Y-75705500D01*
X144099480Y-75705500D01*
X144099481Y-75705500D01*
X144286118Y-75675940D01*
X144465832Y-75617547D01*
X144634199Y-75531760D01*
X144787073Y-75420690D01*
X144920690Y-75287073D01*
X145031760Y-75134199D01*
X145117547Y-74965832D01*
X145175940Y-74786118D01*
X145205500Y-74599481D01*
X145205500Y-74410519D01*
X145175940Y-74223882D01*
X145117547Y-74044168D01*
X145031760Y-73875801D01*
X144921252Y-73723700D01*
X144921252Y-73723699D01*
X144920687Y-73722923D01*
X144808312Y-73610548D01*
X144804871Y-73602241D01*
X144752677Y-73564320D01*
X144634193Y-73478236D01*
X144634192Y-73478235D01*
X144634190Y-73478234D01*
X144465834Y-73392453D01*
X144286208Y-73334089D01*
X144286123Y-73334061D01*
X144286115Y-73334059D01*
X144142744Y-73311352D01*
X144099481Y-73304500D01*
X143910519Y-73304500D01*
X143875396Y-73310061D01*
X143875397Y-73310062D01*
X143723883Y-73334059D01*
X143723869Y-73334062D01*
X143723790Y-73334089D01*
X143544164Y-73392453D01*
X143375811Y-73478232D01*
X143222913Y-73589320D01*
X143089320Y-73722913D01*
X142978232Y-73875811D01*
X142892453Y-74044164D01*
X142834089Y-74223790D01*
X142834062Y-74223869D01*
X142834059Y-74223883D01*
X142804500Y-74410519D01*
X119805500Y-74410519D01*
X119775940Y-74223882D01*
X119717547Y-74044168D01*
X119631760Y-73875801D01*
X119521252Y-73723700D01*
X119521252Y-73723699D01*
X119520687Y-73722923D01*
X119408312Y-73610548D01*
X119404871Y-73602241D01*
X119352677Y-73564320D01*
X119234193Y-73478236D01*
X119234192Y-73478235D01*
X119234190Y-73478234D01*
X119065834Y-73392453D01*
X118886208Y-73334089D01*
X118886123Y-73334061D01*
X118886115Y-73334059D01*
X118742744Y-73311352D01*
X118699481Y-73304500D01*
X118510519Y-73304500D01*
X118475396Y-73310061D01*
X118475397Y-73310062D01*
X118323883Y-73334059D01*
X118323869Y-73334062D01*
X118323790Y-73334089D01*
X118144164Y-73392453D01*
X117975811Y-73478232D01*
X117822913Y-73589320D01*
X117689320Y-73722913D01*
X117578232Y-73875811D01*
X117492453Y-74044164D01*
X117434089Y-74223790D01*
X117434062Y-74223869D01*
X117434059Y-74223883D01*
X117404500Y-74410519D01*
X115700500Y-74410519D01*
X115700500Y-71870519D01*
X117404500Y-71870519D01*
X117404500Y-72059479D01*
X117434059Y-72246115D01*
X117434061Y-72246123D01*
X117434089Y-72246208D01*
X117492453Y-72425834D01*
X117578230Y-72594183D01*
X117578236Y-72594194D01*
X117578243Y-72594208D01*
X117578441Y-72594476D01*
X117689310Y-72747073D01*
X117689312Y-72747075D01*
X117689318Y-72747083D01*
X117788653Y-72846417D01*
X117822920Y-72880684D01*
X117822923Y-72880686D01*
X117822927Y-72880690D01*
X117822940Y-72880699D01*
X117823118Y-72880846D01*
X117823658Y-72881221D01*
X117975801Y-72991760D01*
X117975803Y-72991761D01*
X117975805Y-72991762D01*
X117975814Y-72991768D01*
X117975897Y-72991810D01*
X118129048Y-73069843D01*
X118144168Y-73077547D01*
X118323882Y-73135940D01*
X118510519Y-73165500D01*
X118510520Y-73165500D01*
X118699480Y-73165500D01*
X118699481Y-73165500D01*
X118886118Y-73135940D01*
X119065832Y-73077547D01*
X119234199Y-72991760D01*
X119387073Y-72880690D01*
X119520690Y-72747073D01*
X119631760Y-72594199D01*
X119717547Y-72425832D01*
X119775940Y-72246118D01*
X119805500Y-72059481D01*
X119805500Y-71870519D01*
X142804500Y-71870519D01*
X142804500Y-72059479D01*
X142834059Y-72246115D01*
X142834061Y-72246123D01*
X142834089Y-72246208D01*
X142892453Y-72425834D01*
X142978230Y-72594183D01*
X142978236Y-72594194D01*
X142978243Y-72594208D01*
X142978441Y-72594476D01*
X143089310Y-72747073D01*
X143089312Y-72747075D01*
X143089318Y-72747083D01*
X143188653Y-72846417D01*
X143222920Y-72880684D01*
X143222923Y-72880686D01*
X143222927Y-72880690D01*
X143222940Y-72880699D01*
X143223118Y-72880846D01*
X143223658Y-72881221D01*
X143375801Y-72991760D01*
X143375803Y-72991761D01*
X143375805Y-72991762D01*
X143375814Y-72991768D01*
X143375897Y-72991810D01*
X143529048Y-73069843D01*
X143544168Y-73077547D01*
X143723882Y-73135940D01*
X143910519Y-73165500D01*
X143910520Y-73165500D01*
X144099480Y-73165500D01*
X144099481Y-73165500D01*
X144286118Y-73135940D01*
X144465832Y-73077547D01*
X144634199Y-72991760D01*
X144787073Y-72880690D01*
X144920690Y-72747073D01*
X145031760Y-72594199D01*
X145117547Y-72425832D01*
X145175940Y-72246118D01*
X145205500Y-72059481D01*
X145205500Y-71870519D01*
X145175940Y-71683882D01*
X145117547Y-71504168D01*
X145042066Y-71356027D01*
X145031763Y-71335806D01*
X145031761Y-71335803D01*
X145031760Y-71335801D01*
X144920690Y-71182927D01*
X144920688Y-71182925D01*
X144920686Y-71182922D01*
X144808312Y-71070548D01*
X144804871Y-71062242D01*
X144787079Y-71049315D01*
X144787080Y-71049315D01*
X144649313Y-70949221D01*
X144649313Y-70949220D01*
X144639243Y-70941905D01*
X144634473Y-70938439D01*
X144634190Y-70938233D01*
X144634183Y-70938230D01*
X144465834Y-70852453D01*
X144286208Y-70794089D01*
X144286123Y-70794061D01*
X144286115Y-70794059D01*
X144142744Y-70771352D01*
X144099481Y-70764500D01*
X143910519Y-70764500D01*
X143875396Y-70770061D01*
X143875397Y-70770062D01*
X143723883Y-70794059D01*
X143723869Y-70794062D01*
X143723790Y-70794089D01*
X143544164Y-70852453D01*
X143375811Y-70938232D01*
X143222913Y-71049320D01*
X143089320Y-71182913D01*
X142978232Y-71335811D01*
X142892453Y-71504164D01*
X142834089Y-71683790D01*
X142834062Y-71683869D01*
X142834059Y-71683883D01*
X142804500Y-71870519D01*
X119805500Y-71870519D01*
X119775940Y-71683882D01*
X119717547Y-71504168D01*
X119642066Y-71356027D01*
X119631763Y-71335806D01*
X119631761Y-71335803D01*
X119631760Y-71335801D01*
X119520690Y-71182927D01*
X119520688Y-71182925D01*
X119520686Y-71182922D01*
X119408312Y-71070548D01*
X119404871Y-71062242D01*
X119387079Y-71049315D01*
X119387080Y-71049315D01*
X119249313Y-70949221D01*
X119249313Y-70949220D01*
X119239243Y-70941905D01*
X119234473Y-70938439D01*
X119234190Y-70938233D01*
X119234183Y-70938230D01*
X119065834Y-70852453D01*
X118886208Y-70794089D01*
X118886123Y-70794061D01*
X118886115Y-70794059D01*
X118742744Y-70771352D01*
X118699481Y-70764500D01*
X118510519Y-70764500D01*
X118475396Y-70770061D01*
X118475397Y-70770062D01*
X118323883Y-70794059D01*
X118323869Y-70794062D01*
X118323790Y-70794089D01*
X118144164Y-70852453D01*
X117975811Y-70938232D01*
X117822913Y-71049320D01*
X117689320Y-71182913D01*
X117578232Y-71335811D01*
X117492453Y-71504164D01*
X117434089Y-71683790D01*
X117434062Y-71683869D01*
X117434059Y-71683883D01*
X117404500Y-71870519D01*
X115700500Y-71870519D01*
X115700500Y-71114098D01*
X115700501Y-71114041D01*
X115700501Y-70888546D01*
X115700501Y-70888544D01*
X115671404Y-70667537D01*
X115660140Y-70625500D01*
X115636574Y-70537547D01*
X115613711Y-70452219D01*
X115549615Y-70297479D01*
X115530247Y-70250722D01*
X115529119Y-70247723D01*
X115528943Y-70247205D01*
X115416948Y-70053226D01*
X115416942Y-70053217D01*
X115416938Y-70053212D01*
X115413863Y-70049205D01*
X115376107Y-70000000D01*
X115281263Y-69876395D01*
X115281239Y-69876367D01*
X115281229Y-69876356D01*
X115122226Y-69717355D01*
X115122186Y-69717316D01*
X114735389Y-69330519D01*
X117404500Y-69330519D01*
X117404500Y-69519480D01*
X117409334Y-69550001D01*
X117434059Y-69706115D01*
X117434061Y-69706123D01*
X117434089Y-69706208D01*
X117492453Y-69885834D01*
X117578230Y-70054183D01*
X117578236Y-70054194D01*
X117578243Y-70054208D01*
X117578441Y-70054476D01*
X117606868Y-70093601D01*
X117689310Y-70207073D01*
X117689312Y-70207075D01*
X117689318Y-70207083D01*
X117779715Y-70297479D01*
X117822920Y-70340684D01*
X117822923Y-70340686D01*
X117822927Y-70340690D01*
X117822940Y-70340699D01*
X117823118Y-70340846D01*
X117823658Y-70341221D01*
X117975801Y-70451760D01*
X117975803Y-70451761D01*
X117975806Y-70451763D01*
X117975810Y-70451766D01*
X117975896Y-70451809D01*
X118139733Y-70535288D01*
X118144159Y-70537543D01*
X118144162Y-70537544D01*
X118144168Y-70537547D01*
X118323882Y-70595940D01*
X118510519Y-70625500D01*
X118510520Y-70625500D01*
X118699480Y-70625500D01*
X118699481Y-70625500D01*
X118886118Y-70595940D01*
X119065832Y-70537547D01*
X119234199Y-70451760D01*
X119387073Y-70340690D01*
X119520690Y-70207073D01*
X119631760Y-70054199D01*
X119717547Y-69885832D01*
X119775940Y-69706118D01*
X119805500Y-69519481D01*
X119805500Y-69330519D01*
X142804500Y-69330519D01*
X142804500Y-69519480D01*
X142809334Y-69550001D01*
X142834059Y-69706115D01*
X142834061Y-69706123D01*
X142834089Y-69706208D01*
X142892453Y-69885834D01*
X142978230Y-70054183D01*
X142978236Y-70054194D01*
X142978243Y-70054208D01*
X142978441Y-70054476D01*
X143006868Y-70093601D01*
X143089310Y-70207073D01*
X143089312Y-70207075D01*
X143089318Y-70207083D01*
X143179715Y-70297479D01*
X143222920Y-70340684D01*
X143222923Y-70340686D01*
X143222927Y-70340690D01*
X143222940Y-70340699D01*
X143223118Y-70340846D01*
X143223658Y-70341221D01*
X143375801Y-70451760D01*
X143375803Y-70451761D01*
X143375806Y-70451763D01*
X143375810Y-70451766D01*
X143375896Y-70451809D01*
X143539733Y-70535288D01*
X143544159Y-70537543D01*
X143544162Y-70537544D01*
X143544168Y-70537547D01*
X143723882Y-70595940D01*
X143910519Y-70625500D01*
X143910520Y-70625500D01*
X144099480Y-70625500D01*
X144099481Y-70625500D01*
X144286118Y-70595940D01*
X144465832Y-70537547D01*
X144634199Y-70451760D01*
X144787073Y-70340690D01*
X144920690Y-70207073D01*
X145031760Y-70054199D01*
X145117547Y-69885832D01*
X145175940Y-69706118D01*
X145187739Y-69631623D01*
X151750000Y-69631623D01*
X151750000Y-69828376D01*
X151764945Y-69922740D01*
X151780778Y-70022706D01*
X151780780Y-70022714D01*
X151780808Y-70022799D01*
X151834585Y-70188305D01*
X151834585Y-70188306D01*
X152292892Y-69729999D01*
X151834585Y-69271692D01*
X151780808Y-69437199D01*
X151780781Y-69437278D01*
X151780778Y-69437292D01*
X151767761Y-69519480D01*
X151750000Y-69631623D01*
X145187739Y-69631623D01*
X145190879Y-69611799D01*
X145201076Y-69547413D01*
X145205500Y-69519481D01*
X145205500Y-69330519D01*
X145175940Y-69143882D01*
X145117547Y-68964168D01*
X145097335Y-68924499D01*
X145031763Y-68795806D01*
X145031761Y-68795803D01*
X145031760Y-68795801D01*
X144920690Y-68642927D01*
X144920688Y-68642925D01*
X144920686Y-68642922D01*
X144808312Y-68530548D01*
X144804871Y-68522241D01*
X144708654Y-68452335D01*
X144708654Y-68452334D01*
X144634476Y-68398441D01*
X144634476Y-68398440D01*
X144634192Y-68398234D01*
X144634183Y-68398230D01*
X144465834Y-68312453D01*
X144286208Y-68254089D01*
X144286123Y-68254061D01*
X144286115Y-68254059D01*
X144142744Y-68231352D01*
X144099481Y-68224500D01*
X143910519Y-68224500D01*
X143875396Y-68230061D01*
X143875397Y-68230062D01*
X143723883Y-68254059D01*
X143723869Y-68254062D01*
X143723790Y-68254089D01*
X143544164Y-68312453D01*
X143375811Y-68398232D01*
X143222913Y-68509320D01*
X143089320Y-68642913D01*
X142978232Y-68795811D01*
X142892453Y-68964164D01*
X142835223Y-69140299D01*
X142835222Y-69140304D01*
X142834060Y-69143881D01*
X142834059Y-69143884D01*
X142822396Y-69217525D01*
X142820433Y-69229920D01*
X142804500Y-69330519D01*
X119805500Y-69330519D01*
X119775940Y-69143882D01*
X119717547Y-68964168D01*
X119697335Y-68924499D01*
X119631763Y-68795806D01*
X119631761Y-68795803D01*
X119631760Y-68795801D01*
X119520690Y-68642927D01*
X119520688Y-68642925D01*
X119520686Y-68642922D01*
X119408312Y-68530548D01*
X119404871Y-68522241D01*
X119308654Y-68452335D01*
X119308654Y-68452334D01*
X119234476Y-68398441D01*
X119234476Y-68398440D01*
X119234192Y-68398234D01*
X119234183Y-68398230D01*
X119065834Y-68312453D01*
X118886208Y-68254089D01*
X118886123Y-68254061D01*
X118886115Y-68254059D01*
X118742744Y-68231352D01*
X118699481Y-68224500D01*
X118510519Y-68224500D01*
X118475396Y-68230061D01*
X118475397Y-68230062D01*
X118323883Y-68254059D01*
X118323869Y-68254062D01*
X118323790Y-68254089D01*
X118144164Y-68312453D01*
X117975811Y-68398232D01*
X117822913Y-68509320D01*
X117689320Y-68642913D01*
X117578232Y-68795811D01*
X117492453Y-68964164D01*
X117435223Y-69140299D01*
X117435222Y-69140304D01*
X117434060Y-69143881D01*
X117434059Y-69143884D01*
X117422396Y-69217525D01*
X117420433Y-69229920D01*
X117404500Y-69330519D01*
X114735389Y-69330519D01*
X113673613Y-68268743D01*
X113496786Y-68133060D01*
X113496781Y-68133056D01*
X113496772Y-68133050D01*
X113363211Y-68055939D01*
X113334134Y-68039151D01*
X113328553Y-68031878D01*
X113097789Y-67936292D01*
X113097759Y-67936283D01*
X112882479Y-67878598D01*
X112835537Y-67872417D01*
X112661456Y-67849499D01*
X112661453Y-67849499D01*
X112438546Y-67849499D01*
X112438544Y-67849499D01*
X112390803Y-67855784D01*
X112217788Y-67878562D01*
X112217546Y-67878592D01*
X112217506Y-67878602D01*
X112002239Y-67936283D01*
X112002219Y-67936289D01*
X112002215Y-67936290D01*
X111856589Y-67996610D01*
X111796272Y-68021595D01*
X111796269Y-68021596D01*
X111796268Y-68021597D01*
X111603226Y-68133050D01*
X111603217Y-68133056D01*
X111603212Y-68133060D01*
X111426385Y-68268743D01*
X111268743Y-68426385D01*
X111133060Y-68603212D01*
X111133056Y-68603217D01*
X111133050Y-68603226D01*
X111021597Y-68796268D01*
X110936290Y-69002215D01*
X110936289Y-69002219D01*
X110936283Y-69002239D01*
X110878602Y-69217506D01*
X110878592Y-69217546D01*
X110878562Y-69217788D01*
X110860415Y-69355632D01*
X110849499Y-69438544D01*
X110849499Y-69661456D01*
X110877797Y-69876395D01*
X110878597Y-69882468D01*
X110878600Y-69882487D01*
X110936283Y-70097759D01*
X110936289Y-70097779D01*
X110936290Y-70097783D01*
X110949635Y-70130000D01*
X111021595Y-70303727D01*
X111042936Y-70340690D01*
X111133050Y-70496772D01*
X111133056Y-70496781D01*
X111133060Y-70496786D01*
X111268743Y-70673613D01*
X112278255Y-71683125D01*
X112288877Y-71699020D01*
X112295770Y-71715660D01*
X112299500Y-71734413D01*
X112299500Y-96441252D01*
X112295771Y-96460003D01*
X112292916Y-96466896D01*
X112266398Y-96493414D01*
X112259503Y-96496270D01*
X112240753Y-96500000D01*
X111116049Y-96500000D01*
X111112538Y-96499874D01*
X111112243Y-96499853D01*
X111109503Y-96499656D01*
X111108164Y-96499500D01*
X111107322Y-96499500D01*
X111107318Y-96499500D01*
X111065892Y-96499500D01*
X95065892Y-96499500D01*
X95000000Y-96499500D01*
X94892682Y-96499500D01*
X94892677Y-96499500D01*
X94890594Y-96499500D01*
X94888754Y-96499781D01*
X94887458Y-96499874D01*
X94883951Y-96500000D01*
X91528878Y-96500000D01*
X91510130Y-96496271D01*
X91503232Y-96493414D01*
X91476716Y-96466898D01*
X91473858Y-96459997D01*
X91470131Y-96441252D01*
X91470131Y-70636052D01*
X94171052Y-70636052D01*
X94171052Y-70636053D01*
X94280707Y-70671682D01*
X94280710Y-70671683D01*
X94459494Y-70700000D01*
X94640505Y-70700000D01*
X94640506Y-70700000D01*
X94819289Y-70671683D01*
X94819292Y-70671682D01*
X94928947Y-70636053D01*
X94928946Y-70636052D01*
X94928947Y-70636052D01*
X94550001Y-70257106D01*
X94550000Y-70257106D01*
X94171052Y-70636052D01*
X91470131Y-70636052D01*
X91470131Y-69459493D01*
X93400000Y-69459493D01*
X93400000Y-69640506D01*
X93414174Y-69729999D01*
X93428316Y-69819289D01*
X93428318Y-69819297D01*
X93428346Y-69819382D01*
X93443548Y-69866169D01*
X93449469Y-69884394D01*
X93463945Y-69928945D01*
X93463945Y-69928946D01*
X93842893Y-69550000D01*
X93790228Y-69497335D01*
X94150000Y-69497335D01*
X94150000Y-69602664D01*
X94177258Y-69704392D01*
X94177259Y-69704396D01*
X94222446Y-69782661D01*
X94229920Y-69795606D01*
X94304394Y-69870080D01*
X94331679Y-69885833D01*
X94395603Y-69922740D01*
X94395605Y-69922740D01*
X94395606Y-69922741D01*
X94418764Y-69928946D01*
X94497335Y-69949999D01*
X94497336Y-69950000D01*
X94602661Y-69950000D01*
X94602664Y-69950000D01*
X94602664Y-69949999D01*
X94704394Y-69922741D01*
X94795606Y-69870080D01*
X94870080Y-69795606D01*
X94921746Y-69706118D01*
X94922740Y-69704396D01*
X94922740Y-69704395D01*
X94922741Y-69704394D01*
X94949999Y-69602664D01*
X94950000Y-69602664D01*
X94950000Y-69549999D01*
X95257106Y-69549999D01*
X95257106Y-69550000D01*
X95636053Y-69928946D01*
X95671682Y-69819292D01*
X95671683Y-69819289D01*
X95700000Y-69640506D01*
X95700000Y-69459493D01*
X95671683Y-69280710D01*
X95671682Y-69280707D01*
X95636053Y-69171052D01*
X95636052Y-69171052D01*
X95257106Y-69549999D01*
X94950000Y-69549999D01*
X94950000Y-69497336D01*
X94949999Y-69497335D01*
X94936554Y-69447156D01*
X94922741Y-69395606D01*
X94922740Y-69395605D01*
X94922740Y-69395603D01*
X94885163Y-69330519D01*
X94870080Y-69304394D01*
X94795606Y-69229920D01*
X94774593Y-69217788D01*
X94704396Y-69177259D01*
X94704392Y-69177258D01*
X94602664Y-69150000D01*
X94602661Y-69150000D01*
X94497339Y-69150000D01*
X94497336Y-69150000D01*
X94395607Y-69177258D01*
X94395603Y-69177259D01*
X94304393Y-69229920D01*
X94304393Y-69229921D01*
X94229921Y-69304393D01*
X94229920Y-69304393D01*
X94177259Y-69395603D01*
X94177258Y-69395607D01*
X94150000Y-69497335D01*
X93790228Y-69497335D01*
X93463945Y-69171052D01*
X93428316Y-69280707D01*
X93428315Y-69280710D01*
X93403516Y-69437292D01*
X93400000Y-69459493D01*
X91470131Y-69459493D01*
X91470131Y-68463945D01*
X94171052Y-68463945D01*
X94550000Y-68842893D01*
X94550001Y-68842893D01*
X94928947Y-68463945D01*
X94906689Y-68456713D01*
X94819419Y-68428358D01*
X94819302Y-68428319D01*
X94819289Y-68428316D01*
X94807097Y-68426385D01*
X94640506Y-68400000D01*
X94640505Y-68400000D01*
X94459494Y-68400000D01*
X94280710Y-68428315D01*
X94280707Y-68428316D01*
X94171052Y-68463945D01*
X91470131Y-68463945D01*
X91470131Y-66790519D01*
X117404500Y-66790519D01*
X117404500Y-66979480D01*
X117434059Y-67166115D01*
X117434061Y-67166123D01*
X117434089Y-67166208D01*
X117492453Y-67345834D01*
X117578230Y-67514183D01*
X117578236Y-67514194D01*
X117578243Y-67514208D01*
X117578441Y-67514476D01*
X117689310Y-67667073D01*
X117689312Y-67667075D01*
X117689318Y-67667083D01*
X117822914Y-67800678D01*
X117822920Y-67800684D01*
X117822923Y-67800686D01*
X117822927Y-67800690D01*
X117822940Y-67800699D01*
X117823118Y-67800846D01*
X117823658Y-67801221D01*
X117975801Y-67911760D01*
X117975803Y-67911761D01*
X117975806Y-67911763D01*
X118050754Y-67949950D01*
X118144118Y-67997522D01*
X118144140Y-67997533D01*
X118144166Y-67997546D01*
X118144168Y-67997547D01*
X118323882Y-68055940D01*
X118510519Y-68085500D01*
X118510520Y-68085500D01*
X118699480Y-68085500D01*
X118699481Y-68085500D01*
X118886118Y-68055940D01*
X119065832Y-67997547D01*
X119234199Y-67911760D01*
X119387073Y-67800690D01*
X119520690Y-67667073D01*
X119631760Y-67514199D01*
X119717547Y-67345832D01*
X119775940Y-67166118D01*
X119805500Y-66979481D01*
X119805500Y-66790519D01*
X142804500Y-66790519D01*
X142804500Y-66979480D01*
X142834059Y-67166115D01*
X142834061Y-67166123D01*
X142834089Y-67166208D01*
X142892453Y-67345834D01*
X142978230Y-67514183D01*
X142978236Y-67514194D01*
X142978243Y-67514208D01*
X142978441Y-67514476D01*
X143089310Y-67667073D01*
X143089312Y-67667075D01*
X143089318Y-67667083D01*
X143222914Y-67800678D01*
X143222920Y-67800684D01*
X143222923Y-67800686D01*
X143222927Y-67800690D01*
X143222940Y-67800699D01*
X143223118Y-67800846D01*
X143223658Y-67801221D01*
X143375801Y-67911760D01*
X143375803Y-67911761D01*
X143375806Y-67911763D01*
X143450754Y-67949950D01*
X143544118Y-67997522D01*
X143544140Y-67997533D01*
X143544166Y-67997546D01*
X143544168Y-67997547D01*
X143723882Y-68055940D01*
X143910519Y-68085500D01*
X143910520Y-68085500D01*
X144099480Y-68085500D01*
X144099481Y-68085500D01*
X144286118Y-68055940D01*
X144465832Y-67997547D01*
X144634199Y-67911760D01*
X144787073Y-67800690D01*
X144920690Y-67667073D01*
X145031760Y-67514199D01*
X145117547Y-67345832D01*
X145175940Y-67166118D01*
X145187739Y-67091623D01*
X151750000Y-67091623D01*
X151750000Y-67288376D01*
X151759100Y-67345832D01*
X151780778Y-67482706D01*
X151780780Y-67482714D01*
X151780808Y-67482799D01*
X151834585Y-67648305D01*
X151834585Y-67648306D01*
X152292892Y-67189999D01*
X152240228Y-67137335D01*
X152600000Y-67137335D01*
X152600000Y-67242664D01*
X152627258Y-67344392D01*
X152627259Y-67344396D01*
X152679920Y-67435606D01*
X152754394Y-67510080D01*
X152787778Y-67529354D01*
X152845603Y-67562740D01*
X152845605Y-67562740D01*
X152845606Y-67562741D01*
X152925839Y-67584239D01*
X152947335Y-67589999D01*
X152947336Y-67590000D01*
X153052661Y-67590000D01*
X153052664Y-67590000D01*
X153052664Y-67589999D01*
X153154394Y-67562741D01*
X153245606Y-67510080D01*
X153320080Y-67435606D01*
X153372741Y-67344394D01*
X153399999Y-67242664D01*
X153400000Y-67242664D01*
X153400000Y-67189999D01*
X153707106Y-67189999D01*
X154165413Y-67648306D01*
X154219220Y-67482709D01*
X154219221Y-67482706D01*
X154250000Y-67288376D01*
X154250000Y-67091623D01*
X154219221Y-66897293D01*
X154219220Y-66897290D01*
X154165413Y-66731692D01*
X154165412Y-66731692D01*
X153917626Y-66979479D01*
X153707106Y-67189999D01*
X153400000Y-67189999D01*
X153400000Y-67137336D01*
X153399999Y-67137335D01*
X153394239Y-67115839D01*
X153372741Y-67035606D01*
X153372740Y-67035605D01*
X153372740Y-67035603D01*
X153320079Y-66944393D01*
X153245606Y-66869920D01*
X153154396Y-66817259D01*
X153154392Y-66817258D01*
X153052664Y-66790000D01*
X153052661Y-66790000D01*
X152947339Y-66790000D01*
X152947336Y-66790000D01*
X152845607Y-66817258D01*
X152845603Y-66817259D01*
X152754393Y-66869920D01*
X152754393Y-66869921D01*
X152679921Y-66944393D01*
X152679920Y-66944393D01*
X152627259Y-67035603D01*
X152627258Y-67035607D01*
X152600000Y-67137335D01*
X152240228Y-67137335D01*
X151834585Y-66731692D01*
X151780808Y-66897199D01*
X151780781Y-66897278D01*
X151780778Y-66897292D01*
X151780778Y-66897293D01*
X151750000Y-67091623D01*
X145187739Y-67091623D01*
X145194173Y-67051001D01*
X145205500Y-66979480D01*
X145205500Y-66790519D01*
X145175940Y-66603884D01*
X145175940Y-66603883D01*
X145175940Y-66603882D01*
X145117547Y-66424168D01*
X145031760Y-66255801D01*
X144921252Y-66103700D01*
X144921252Y-66103699D01*
X144920687Y-66102923D01*
X144842349Y-66024585D01*
X152541692Y-66024585D01*
X153000000Y-66482893D01*
X153000001Y-66482893D01*
X153458307Y-66024585D01*
X153353552Y-65990548D01*
X153292799Y-65970808D01*
X153292714Y-65970780D01*
X153292706Y-65970778D01*
X153283469Y-65969315D01*
X153098376Y-65940000D01*
X153098375Y-65940000D01*
X152901625Y-65940000D01*
X152901624Y-65940000D01*
X152804458Y-65955389D01*
X152707292Y-65970778D01*
X152707278Y-65970781D01*
X152707199Y-65970808D01*
X152541692Y-66024585D01*
X144842349Y-66024585D01*
X144808312Y-65990548D01*
X144804871Y-65982241D01*
X144634190Y-65858234D01*
X144465834Y-65772453D01*
X144286208Y-65714089D01*
X144286123Y-65714061D01*
X144286115Y-65714059D01*
X144142744Y-65691352D01*
X144099481Y-65684500D01*
X143910519Y-65684500D01*
X143875396Y-65690061D01*
X143875397Y-65690062D01*
X143723883Y-65714059D01*
X143723869Y-65714062D01*
X143723790Y-65714089D01*
X143544164Y-65772453D01*
X143375811Y-65858232D01*
X143222913Y-65969320D01*
X143089320Y-66102913D01*
X142978232Y-66255811D01*
X142892453Y-66424164D01*
X142834089Y-66603790D01*
X142834062Y-66603869D01*
X142834059Y-66603883D01*
X142834059Y-66603884D01*
X142804500Y-66790519D01*
X119805500Y-66790519D01*
X119775940Y-66603882D01*
X119717547Y-66424168D01*
X119631760Y-66255801D01*
X119521252Y-66103700D01*
X119521252Y-66103699D01*
X119520687Y-66102923D01*
X119408312Y-65990548D01*
X119404871Y-65982241D01*
X119234190Y-65858234D01*
X119065834Y-65772453D01*
X118886208Y-65714089D01*
X118886123Y-65714061D01*
X118886115Y-65714059D01*
X118742744Y-65691352D01*
X118699481Y-65684500D01*
X118510519Y-65684500D01*
X118475396Y-65690061D01*
X118475397Y-65690062D01*
X118323883Y-65714059D01*
X118323869Y-65714062D01*
X118323790Y-65714089D01*
X118144164Y-65772453D01*
X117975811Y-65858232D01*
X117822913Y-65969320D01*
X117689320Y-66102913D01*
X117578232Y-66255811D01*
X117492453Y-66424164D01*
X117434089Y-66603790D01*
X117434062Y-66603869D01*
X117434059Y-66603883D01*
X117434059Y-66603884D01*
X117404500Y-66790519D01*
X91470131Y-66790519D01*
X91470131Y-65435706D01*
X95271400Y-65435706D01*
X95314265Y-65457546D01*
X95381973Y-65492044D01*
X95622990Y-65570355D01*
X95622993Y-65570356D01*
X95873291Y-65610000D01*
X96126708Y-65610000D01*
X96126709Y-65610000D01*
X96377006Y-65570356D01*
X96377009Y-65570355D01*
X96618026Y-65492044D01*
X96728597Y-65435706D01*
X96728597Y-65435704D01*
X96000000Y-64707106D01*
X95999106Y-64708000D01*
X95271401Y-65435703D01*
X95271401Y-65435706D01*
X95271400Y-65435706D01*
X91470131Y-65435706D01*
X91470131Y-63873290D01*
X94390000Y-63873290D01*
X94390000Y-64126708D01*
X94429643Y-64377006D01*
X94429645Y-64377014D01*
X94429673Y-64377099D01*
X94482789Y-64540575D01*
X94507953Y-64618020D01*
X94564294Y-64728597D01*
X95292892Y-63999999D01*
X95232813Y-63939920D01*
X95390000Y-63939920D01*
X95390000Y-64060080D01*
X95413442Y-64177931D01*
X95413442Y-64177932D01*
X95443509Y-64250519D01*
X95459425Y-64288944D01*
X95526182Y-64388853D01*
X95611147Y-64473818D01*
X95711056Y-64540575D01*
X95822069Y-64586558D01*
X95939920Y-64610000D01*
X96060077Y-64610000D01*
X96060080Y-64610000D01*
X96177931Y-64586558D01*
X96288944Y-64540575D01*
X96388853Y-64473818D01*
X96473818Y-64388853D01*
X96540575Y-64288944D01*
X96586558Y-64177931D01*
X96610000Y-64060080D01*
X96610000Y-63999999D01*
X96707106Y-63999999D01*
X97435704Y-64728597D01*
X97435706Y-64728597D01*
X97492044Y-64618026D01*
X97570355Y-64377009D01*
X97570356Y-64377006D01*
X97610000Y-64126709D01*
X97610000Y-63896861D01*
X107689500Y-63896861D01*
X107689500Y-64103137D01*
X107721768Y-64306873D01*
X107721770Y-64306881D01*
X107721798Y-64306966D01*
X107785512Y-64503059D01*
X107879150Y-64686836D01*
X107879156Y-64686847D01*
X107879163Y-64686861D01*
X107879361Y-64687129D01*
X108000407Y-64853733D01*
X108000409Y-64853735D01*
X108000415Y-64853743D01*
X108120856Y-64974183D01*
X108146260Y-64999587D01*
X108146263Y-64999589D01*
X108146267Y-64999593D01*
X108146280Y-64999602D01*
X108146458Y-64999749D01*
X108146998Y-65000124D01*
X108313148Y-65120840D01*
X108313150Y-65120841D01*
X108313153Y-65120843D01*
X108325400Y-65127083D01*
X108496893Y-65214463D01*
X108496915Y-65214474D01*
X108496941Y-65214487D01*
X108496943Y-65214488D01*
X108693124Y-65278231D01*
X108896861Y-65310500D01*
X108896862Y-65310500D01*
X109103138Y-65310500D01*
X109103139Y-65310500D01*
X109306876Y-65278231D01*
X109503057Y-65214488D01*
X109686852Y-65120840D01*
X109853733Y-64999593D01*
X109999593Y-64853733D01*
X110120840Y-64686852D01*
X110214488Y-64503057D01*
X110278231Y-64306876D01*
X110287157Y-64250519D01*
X117404500Y-64250519D01*
X117404500Y-64439480D01*
X117427794Y-64586557D01*
X117434059Y-64626115D01*
X117434061Y-64626123D01*
X117434089Y-64626208D01*
X117492453Y-64805834D01*
X117578230Y-64974183D01*
X117578236Y-64974194D01*
X117578243Y-64974208D01*
X117578441Y-64974476D01*
X117606868Y-65013601D01*
X117689310Y-65127073D01*
X117689312Y-65127075D01*
X117689318Y-65127083D01*
X117776699Y-65214463D01*
X117822920Y-65260684D01*
X117822923Y-65260686D01*
X117822927Y-65260690D01*
X117822940Y-65260699D01*
X117823118Y-65260846D01*
X117823658Y-65261221D01*
X117975801Y-65371760D01*
X117975803Y-65371761D01*
X117975806Y-65371763D01*
X118101302Y-65435706D01*
X118144168Y-65457547D01*
X118323882Y-65515940D01*
X118510519Y-65545500D01*
X118510520Y-65545500D01*
X118699480Y-65545500D01*
X118699481Y-65545500D01*
X118886118Y-65515940D01*
X119065832Y-65457547D01*
X119234199Y-65371760D01*
X119387073Y-65260690D01*
X119520690Y-65127073D01*
X119631760Y-64974199D01*
X119717547Y-64805832D01*
X119775940Y-64626118D01*
X119805500Y-64439481D01*
X119805500Y-64250519D01*
X119775940Y-64063882D01*
X119717547Y-63884168D01*
X119631760Y-63715801D01*
X119521252Y-63563700D01*
X119521252Y-63563699D01*
X119520687Y-63562923D01*
X119408312Y-63450548D01*
X119404871Y-63442241D01*
X119321928Y-63381979D01*
X119321928Y-63381978D01*
X119234476Y-63318441D01*
X119234476Y-63318440D01*
X119234192Y-63318234D01*
X119234183Y-63318230D01*
X119065834Y-63232453D01*
X118886208Y-63174089D01*
X118886123Y-63174061D01*
X118886115Y-63174059D01*
X118742744Y-63151352D01*
X118699481Y-63144500D01*
X118510519Y-63144500D01*
X118475396Y-63150061D01*
X118475397Y-63150062D01*
X118323883Y-63174059D01*
X118323869Y-63174062D01*
X118323790Y-63174089D01*
X118144164Y-63232453D01*
X117975811Y-63318232D01*
X117822913Y-63429320D01*
X117689320Y-63562913D01*
X117578232Y-63715811D01*
X117492453Y-63884164D01*
X117434089Y-64063790D01*
X117434062Y-64063869D01*
X117434059Y-64063883D01*
X117433740Y-64065898D01*
X117404500Y-64250519D01*
X110287157Y-64250519D01*
X110310500Y-64103139D01*
X110310500Y-63896861D01*
X110278231Y-63693124D01*
X110214488Y-63496943D01*
X110180030Y-63429315D01*
X110155908Y-63381973D01*
X110121259Y-63313969D01*
X110121255Y-63313963D01*
X110120843Y-63313153D01*
X110120841Y-63313150D01*
X110120840Y-63313148D01*
X109999593Y-63146267D01*
X109999591Y-63146265D01*
X109999589Y-63146262D01*
X109853743Y-63000415D01*
X109853735Y-63000409D01*
X109853733Y-63000407D01*
X109687129Y-62879361D01*
X109687129Y-62879360D01*
X109686850Y-62879157D01*
X109686847Y-62879156D01*
X109686846Y-62879155D01*
X109686836Y-62879150D01*
X109503059Y-62785512D01*
X109306966Y-62721798D01*
X109306881Y-62721770D01*
X109306873Y-62721768D01*
X109150367Y-62696980D01*
X109103139Y-62689500D01*
X108896861Y-62689500D01*
X108858519Y-62695571D01*
X108858520Y-62695572D01*
X108693125Y-62721768D01*
X108693111Y-62721771D01*
X108693032Y-62721798D01*
X108496939Y-62785512D01*
X108313158Y-62879152D01*
X108146253Y-63000417D01*
X108000417Y-63146253D01*
X107879152Y-63313158D01*
X107785512Y-63496939D01*
X107721798Y-63693032D01*
X107721771Y-63693111D01*
X107721768Y-63693125D01*
X107689500Y-63896861D01*
X97610000Y-63896861D01*
X97610000Y-63873290D01*
X97570356Y-63622993D01*
X97570355Y-63622990D01*
X97492044Y-63381973D01*
X97435706Y-63271401D01*
X97435704Y-63271401D01*
X96707106Y-63999999D01*
X96610000Y-63999999D01*
X96610000Y-63939920D01*
X96586558Y-63822069D01*
X96540575Y-63711056D01*
X96473818Y-63611147D01*
X96388853Y-63526182D01*
X96288944Y-63459425D01*
X96288941Y-63459423D01*
X96288940Y-63459423D01*
X96177931Y-63413442D01*
X96060080Y-63390000D01*
X96060077Y-63390000D01*
X95939923Y-63390000D01*
X95939920Y-63390000D01*
X95851531Y-63407581D01*
X95822068Y-63413442D01*
X95822067Y-63413442D01*
X95711059Y-63459423D01*
X95611147Y-63526181D01*
X95526181Y-63611147D01*
X95459423Y-63711059D01*
X95413442Y-63822067D01*
X95413442Y-63822068D01*
X95413442Y-63822069D01*
X95390000Y-63939920D01*
X95232813Y-63939920D01*
X94564294Y-63271401D01*
X94507951Y-63381983D01*
X94429673Y-63622899D01*
X94429646Y-63622978D01*
X94429643Y-63622992D01*
X94390000Y-63873290D01*
X91470131Y-63873290D01*
X91470131Y-62564294D01*
X95271401Y-62564294D01*
X95999999Y-63292892D01*
X96728597Y-62564294D01*
X96618020Y-62507953D01*
X96618017Y-62507952D01*
X96618015Y-62507951D01*
X96377099Y-62429673D01*
X96377014Y-62429645D01*
X96377006Y-62429643D01*
X96126709Y-62390000D01*
X96126708Y-62390000D01*
X95873292Y-62390000D01*
X95873291Y-62390000D01*
X95748142Y-62409821D01*
X95622992Y-62429643D01*
X95622978Y-62429646D01*
X95622899Y-62429673D01*
X95381983Y-62507951D01*
X95381979Y-62507952D01*
X95381979Y-62507953D01*
X95271401Y-62564294D01*
X91470131Y-62564294D01*
X91470131Y-61710519D01*
X117404500Y-61710519D01*
X117404500Y-61899479D01*
X117434059Y-62086115D01*
X117434061Y-62086123D01*
X117434089Y-62086208D01*
X117492453Y-62265834D01*
X117578230Y-62434183D01*
X117578236Y-62434194D01*
X117578243Y-62434208D01*
X117578441Y-62434476D01*
X117689310Y-62587073D01*
X117689312Y-62587075D01*
X117689318Y-62587083D01*
X117791736Y-62689500D01*
X117822920Y-62720684D01*
X117822923Y-62720686D01*
X117822927Y-62720690D01*
X117822940Y-62720699D01*
X117823118Y-62720846D01*
X117823658Y-62721221D01*
X117975801Y-62831760D01*
X117975803Y-62831761D01*
X117975806Y-62831763D01*
X118041038Y-62865000D01*
X118144168Y-62917547D01*
X118323882Y-62975940D01*
X118510519Y-63005500D01*
X118510520Y-63005500D01*
X118699480Y-63005500D01*
X118699481Y-63005500D01*
X118886118Y-62975940D01*
X119065832Y-62917547D01*
X119234199Y-62831760D01*
X119387073Y-62720690D01*
X119520690Y-62587073D01*
X119631760Y-62434199D01*
X119717547Y-62265832D01*
X119775940Y-62086118D01*
X119805500Y-61899481D01*
X119805500Y-61710519D01*
X119775940Y-61523882D01*
X119717547Y-61344168D01*
X119631760Y-61175801D01*
X119521252Y-61023700D01*
X119521252Y-61023699D01*
X119520687Y-61022923D01*
X119408312Y-60910548D01*
X119404871Y-60902241D01*
X119234190Y-60778234D01*
X119065834Y-60692453D01*
X118886208Y-60634089D01*
X118886123Y-60634061D01*
X118886115Y-60634059D01*
X118742744Y-60611352D01*
X118699481Y-60604500D01*
X118510519Y-60604500D01*
X118475396Y-60610061D01*
X118475397Y-60610062D01*
X118323883Y-60634059D01*
X118323869Y-60634062D01*
X118323790Y-60634089D01*
X118144164Y-60692453D01*
X117975811Y-60778232D01*
X117822913Y-60889320D01*
X117689320Y-61022913D01*
X117578232Y-61175811D01*
X117492453Y-61344164D01*
X117434089Y-61523790D01*
X117434062Y-61523869D01*
X117434059Y-61523883D01*
X117404500Y-61710519D01*
X91470131Y-61710519D01*
X91470131Y-60559247D01*
X91473858Y-60540502D01*
X91476714Y-60533606D01*
X91503225Y-60507088D01*
X91510133Y-60504226D01*
X91528878Y-60500500D01*
X121140753Y-60500500D01*
X121159499Y-60504227D01*
G37*
%TD.AperFunction*%
%TA.AperFunction,Conductor*%
G36*
X149163734Y-110047288D02*
G01*
X149178199Y-110050157D01*
X149184671Y-110055465D01*
X149184936Y-110055569D01*
X149185013Y-110055746D01*
X149185647Y-110056266D01*
X149185648Y-110056267D01*
X149192644Y-110073157D01*
X149199990Y-110089918D01*
X149199794Y-110090418D01*
X149200000Y-110090915D01*
X149200000Y-110100000D01*
X150676875Y-110100000D01*
X150711523Y-110114352D01*
X150725875Y-110149000D01*
X150722504Y-110166861D01*
X150524509Y-110672675D01*
X150517495Y-110684978D01*
X150517110Y-110685470D01*
X150512555Y-110691023D01*
X150511269Y-110692948D01*
X150510139Y-110694395D01*
X150509605Y-110694696D01*
X150506175Y-110698877D01*
X150494719Y-110710333D01*
X150494719Y-110710334D01*
X150467883Y-110750499D01*
X150467883Y-110750500D01*
X150434947Y-110799793D01*
X150428419Y-110809563D01*
X150428418Y-110809564D01*
X150423533Y-110816873D01*
X150423531Y-110816877D01*
X150374498Y-110935255D01*
X150374498Y-110935257D01*
X150374497Y-110935262D01*
X150374494Y-110935274D01*
X150349030Y-111063288D01*
X150348650Y-111063212D01*
X150344833Y-111076625D01*
X150256714Y-111256242D01*
X150241822Y-111274084D01*
X150202849Y-111302849D01*
X150202844Y-111302854D01*
X150122210Y-111412109D01*
X150122203Y-111412124D01*
X150122197Y-111412139D01*
X150077352Y-111540300D01*
X150077205Y-111541170D01*
X150077139Y-111542582D01*
X150074500Y-111570714D01*
X150074500Y-112354284D01*
X150077139Y-112382416D01*
X150077205Y-112383829D01*
X150077352Y-112384698D01*
X150122197Y-112512859D01*
X150122203Y-112512874D01*
X150122210Y-112512889D01*
X150202848Y-112622150D01*
X150307798Y-112699606D01*
X150312114Y-112702791D01*
X150312117Y-112702792D01*
X150312118Y-112702793D01*
X150312120Y-112702793D01*
X150312123Y-112702795D01*
X150313662Y-112703333D01*
X150314105Y-112703615D01*
X150317909Y-112705192D01*
X150319975Y-112705543D01*
X150440301Y-112747646D01*
X150470734Y-112750500D01*
X150470744Y-112750500D01*
X151529256Y-112750500D01*
X151529266Y-112750500D01*
X151559699Y-112747646D01*
X151687882Y-112702793D01*
X151687885Y-112702791D01*
X151797148Y-112622152D01*
X151797148Y-112622150D01*
X151797150Y-112622150D01*
X151863538Y-112532197D01*
X151877670Y-112519329D01*
X151882066Y-112516679D01*
X151919150Y-112511089D01*
X151949325Y-112533359D01*
X151954916Y-112570443D01*
X151954686Y-112571332D01*
X151949500Y-112590685D01*
X151949500Y-112883352D01*
X151945770Y-112902105D01*
X151938877Y-112918745D01*
X151928255Y-112934641D01*
X151869685Y-112993210D01*
X151851589Y-113004681D01*
X151458404Y-113145796D01*
X151256970Y-113218091D01*
X151177480Y-113246620D01*
X151160928Y-113249500D01*
X150470714Y-113249500D01*
X150442583Y-113252139D01*
X150441169Y-113252205D01*
X150440300Y-113252352D01*
X150312139Y-113297197D01*
X150312124Y-113297203D01*
X150312109Y-113297210D01*
X150202848Y-113377848D01*
X150122210Y-113487109D01*
X150122203Y-113487124D01*
X150122197Y-113487139D01*
X150077352Y-113615300D01*
X150077205Y-113616170D01*
X150077139Y-113617582D01*
X150074500Y-113645714D01*
X150074500Y-114429284D01*
X150077139Y-114457416D01*
X150077205Y-114458829D01*
X150077352Y-114459698D01*
X150117738Y-114575116D01*
X150120411Y-114594044D01*
X150119993Y-114601493D01*
X150103726Y-114635280D01*
X150101766Y-114637032D01*
X150069110Y-114649500D01*
X148316646Y-114649500D01*
X148297895Y-114645770D01*
X148281252Y-114638876D01*
X148265358Y-114628255D01*
X146855194Y-113218091D01*
X146843891Y-113200457D01*
X146794510Y-113067069D01*
X146793434Y-113064501D01*
X146787840Y-113051140D01*
X146787731Y-113050909D01*
X146786991Y-113049331D01*
X146780962Y-113037784D01*
X146777073Y-113027800D01*
X146772085Y-113009184D01*
X146769413Y-113000064D01*
X146769084Y-112999030D01*
X146765976Y-112989992D01*
X146682017Y-112763204D01*
X146683447Y-112725730D01*
X146693318Y-112711549D01*
X147588265Y-111816604D01*
X148620703Y-110784164D01*
X148620770Y-110784101D01*
X148781241Y-110623630D01*
X148781247Y-110623624D01*
X148781250Y-110623619D01*
X148781255Y-110623615D01*
X148916939Y-110446786D01*
X148916940Y-110446783D01*
X148916948Y-110446774D01*
X149028405Y-110253726D01*
X149102001Y-110076047D01*
X149111924Y-110060864D01*
X149112236Y-110060538D01*
X149112622Y-110060153D01*
X149112633Y-110060124D01*
X149115654Y-110056979D01*
X149115906Y-110056868D01*
X149116039Y-110056736D01*
X149116090Y-110056787D01*
X149129152Y-110051062D01*
X149141413Y-110042861D01*
X149145856Y-110043742D01*
X149150003Y-110041925D01*
X149163734Y-110047288D01*
G37*
%TD.AperFunction*%
%TD*%
%TA.AperFunction,Conductor*%
%TO.N,+3V3*%
G36*
X151104736Y-99000942D02*
G01*
X151166975Y-99013322D01*
X151184640Y-99020638D01*
X151233319Y-99053165D01*
X151246834Y-99066680D01*
X151263098Y-99091021D01*
X151279361Y-99115360D01*
X151286677Y-99133023D01*
X151299058Y-99195263D01*
X151300000Y-99204823D01*
X151300000Y-99400000D01*
X157796787Y-99400000D01*
X157803182Y-99400418D01*
X157923017Y-99416195D01*
X157935368Y-99419505D01*
X158044040Y-99464518D01*
X158055116Y-99470913D01*
X158148435Y-99542520D01*
X158157479Y-99551564D01*
X158229086Y-99644883D01*
X158235482Y-99655961D01*
X158280493Y-99764627D01*
X158283804Y-99776983D01*
X158299581Y-99896817D01*
X158300000Y-99903213D01*
X158300000Y-102396786D01*
X158299581Y-102403182D01*
X158283804Y-102523016D01*
X158280493Y-102535372D01*
X158235482Y-102644038D01*
X158229086Y-102655116D01*
X158157479Y-102748435D01*
X158148435Y-102757479D01*
X158055116Y-102829086D01*
X158044038Y-102835482D01*
X157935372Y-102880493D01*
X157923016Y-102883804D01*
X157803183Y-102899581D01*
X157796787Y-102900000D01*
X156649000Y-102900000D01*
X156614352Y-102885648D01*
X156600000Y-102851000D01*
X156600000Y-102300000D01*
X149200000Y-102300000D01*
X149200000Y-102851000D01*
X149185648Y-102885648D01*
X149151000Y-102900000D01*
X146503213Y-102900000D01*
X146496817Y-102899581D01*
X146376983Y-102883804D01*
X146364627Y-102880493D01*
X146255961Y-102835482D01*
X146244883Y-102829086D01*
X146151564Y-102757479D01*
X146142520Y-102748435D01*
X146070913Y-102655116D01*
X146064517Y-102644038D01*
X146019505Y-102535368D01*
X146016195Y-102523016D01*
X146000419Y-102403182D01*
X146000000Y-102396786D01*
X146000000Y-99503213D01*
X146000419Y-99496817D01*
X146016195Y-99376983D01*
X146019504Y-99364633D01*
X146064520Y-99255955D01*
X146070913Y-99244883D01*
X146142522Y-99151561D01*
X146151561Y-99142522D01*
X146244885Y-99070911D01*
X146255955Y-99064520D01*
X146364633Y-99019504D01*
X146376980Y-99016195D01*
X146496817Y-99000418D01*
X146503213Y-99000000D01*
X151095177Y-99000000D01*
X151104736Y-99000942D01*
G37*
%TD.AperFunction*%
%TD*%
%TA.AperFunction,Conductor*%
%TO.N,+12V*%
G36*
X157598376Y-113500104D02*
G01*
X157601576Y-113500313D01*
X157604774Y-113500627D01*
X157719842Y-113515776D01*
X157726108Y-113517023D01*
X157732280Y-113518677D01*
X157738330Y-113520732D01*
X157817078Y-113553350D01*
X157841068Y-113563287D01*
X157846816Y-113566121D01*
X157852333Y-113569306D01*
X157857662Y-113572866D01*
X157945890Y-113640567D01*
X157950708Y-113644793D01*
X157955205Y-113649290D01*
X157959431Y-113654109D01*
X158027132Y-113742338D01*
X158030694Y-113747668D01*
X158033875Y-113753178D01*
X158036709Y-113758925D01*
X158079264Y-113861661D01*
X158081325Y-113867731D01*
X158082972Y-113873878D01*
X158084222Y-113880164D01*
X158099372Y-113995232D01*
X158099686Y-113998420D01*
X158099895Y-114001605D01*
X158100000Y-114004813D01*
X158100000Y-116095185D01*
X158099895Y-116098393D01*
X158099686Y-116101578D01*
X158099372Y-116104766D01*
X158084222Y-116219834D01*
X158082972Y-116226120D01*
X158081325Y-116232267D01*
X158079264Y-116238337D01*
X158036709Y-116341073D01*
X158033875Y-116346820D01*
X158030694Y-116352330D01*
X158027132Y-116357660D01*
X157959431Y-116445889D01*
X157955205Y-116450708D01*
X157950708Y-116455205D01*
X157945889Y-116459431D01*
X157857660Y-116527132D01*
X157852330Y-116530694D01*
X157846820Y-116533875D01*
X157841073Y-116536709D01*
X157738337Y-116579264D01*
X157732267Y-116581325D01*
X157726120Y-116582972D01*
X157719834Y-116584222D01*
X157604767Y-116599372D01*
X157601579Y-116599686D01*
X157598383Y-116599895D01*
X157595187Y-116600000D01*
X155300000Y-116600000D01*
X155300000Y-117395185D01*
X155299895Y-117398393D01*
X155299686Y-117401578D01*
X155299372Y-117404766D01*
X155284222Y-117519834D01*
X155282972Y-117526120D01*
X155281325Y-117532267D01*
X155279264Y-117538337D01*
X155236709Y-117641073D01*
X155233875Y-117646820D01*
X155230694Y-117652330D01*
X155227132Y-117657660D01*
X155159431Y-117745889D01*
X155155205Y-117750708D01*
X155150708Y-117755205D01*
X155145889Y-117759431D01*
X155057660Y-117827132D01*
X155052330Y-117830694D01*
X155046820Y-117833875D01*
X155041073Y-117836709D01*
X154938337Y-117879264D01*
X154932267Y-117881325D01*
X154926120Y-117882972D01*
X154919834Y-117884222D01*
X154804767Y-117899372D01*
X154801579Y-117899686D01*
X154798383Y-117899895D01*
X154795187Y-117900000D01*
X153304813Y-117900000D01*
X153301615Y-117899895D01*
X153298420Y-117899686D01*
X153295232Y-117899372D01*
X153180164Y-117884222D01*
X153173878Y-117882972D01*
X153167727Y-117881323D01*
X153161661Y-117879264D01*
X153058925Y-117836709D01*
X153053178Y-117833875D01*
X153047668Y-117830694D01*
X153042338Y-117827132D01*
X152954109Y-117759431D01*
X152949290Y-117755205D01*
X152944793Y-117750708D01*
X152940567Y-117745889D01*
X152872866Y-117657660D01*
X152869305Y-117652331D01*
X152866122Y-117646818D01*
X152863287Y-117641069D01*
X152820734Y-117538335D01*
X152818674Y-117532267D01*
X152817027Y-117526121D01*
X152817027Y-117526120D01*
X152815776Y-117519834D01*
X152800625Y-117404750D01*
X152800314Y-117401591D01*
X152800103Y-117398369D01*
X152800000Y-117395185D01*
X152800000Y-115194679D01*
X152803727Y-115175934D01*
X152806583Y-115169038D01*
X152833094Y-115142520D01*
X152837465Y-115140709D01*
X152863280Y-115137496D01*
X152866735Y-115138000D01*
X152866740Y-115138000D01*
X153233259Y-115138000D01*
X153233262Y-115138000D01*
X153243936Y-115136444D01*
X153250592Y-115135474D01*
X153250592Y-115135473D01*
X153301393Y-115128073D01*
X153406483Y-115076698D01*
X153489198Y-114993983D01*
X153540573Y-114888893D01*
X153550500Y-114820760D01*
X153550500Y-113729240D01*
X153540573Y-113661107D01*
X153531486Y-113642520D01*
X153530531Y-113640567D01*
X153500570Y-113579278D01*
X153495685Y-113560798D01*
X153495222Y-113553347D01*
X153498387Y-113544127D01*
X153498246Y-113541847D01*
X153499757Y-113540135D01*
X153507396Y-113517880D01*
X153508404Y-113516738D01*
X153534138Y-113501427D01*
X153534502Y-113501343D01*
X153534918Y-113501248D01*
X153545905Y-113500000D01*
X157595182Y-113500000D01*
X157598376Y-113500104D01*
G37*
%TD.AperFunction*%
%TD*%
%TA.AperFunction,Conductor*%
%TO.N,+3V3*%
G36*
X155158923Y-67111603D02*
G01*
X155996216Y-67457438D01*
X156002553Y-67463763D01*
X156002562Y-67463784D01*
X156348395Y-68301073D01*
X156348386Y-68310028D01*
X156344016Y-68315312D01*
X154910477Y-69259349D01*
X154901683Y-69261037D01*
X154895769Y-69257850D01*
X154202149Y-68564230D01*
X154198722Y-68555957D01*
X154200648Y-68549525D01*
X155144690Y-67115980D01*
X155152100Y-67110958D01*
X155158923Y-67111603D01*
G37*
%TD.AperFunction*%
%TD*%
%TA.AperFunction,Conductor*%
%TO.N,+3V3*%
G36*
X153931244Y-73181817D02*
G01*
X153932157Y-73182288D01*
X153935077Y-73184418D01*
X154625228Y-73874569D01*
X154627764Y-73878363D01*
X154628659Y-73880523D01*
X154628991Y-73888575D01*
X154628679Y-73889548D01*
X154627059Y-73892775D01*
X153756752Y-75111205D01*
X153753425Y-75114331D01*
X153751263Y-75115680D01*
X153743755Y-75117380D01*
X153743047Y-75117300D01*
X153739898Y-75116488D01*
X153005937Y-74813450D01*
X153002141Y-74810921D01*
X152999102Y-74807889D01*
X152996554Y-74804074D01*
X152693772Y-74070734D01*
X152692887Y-74066261D01*
X152692890Y-74063707D01*
X152695429Y-74056445D01*
X152695876Y-74055884D01*
X152696316Y-74055466D01*
X152696327Y-74055440D01*
X152696356Y-74055427D01*
X152698226Y-74053651D01*
X153916819Y-73183228D01*
X153920977Y-73181351D01*
X153923256Y-73180824D01*
X153931244Y-73181817D01*
G37*
%TD.AperFunction*%
%TD*%
%TA.AperFunction,Conductor*%
%TO.N,+3V3*%
G36*
X152403421Y-74812427D02*
G01*
X152403427Y-74812432D01*
X153144893Y-75554887D01*
X153148314Y-75563163D01*
X153147714Y-75566855D01*
X152902667Y-76302000D01*
X152896799Y-76308765D01*
X152891567Y-76310000D01*
X151914742Y-76310000D01*
X151906469Y-76306573D01*
X151903042Y-76298300D01*
X151903348Y-76295643D01*
X152247891Y-74818043D01*
X152253107Y-74810764D01*
X152259285Y-74809000D01*
X152395148Y-74809000D01*
X152403421Y-74812427D01*
G37*
%TD.AperFunction*%
%TD*%
%TA.AperFunction,Conductor*%
%TO.N,+3V3*%
G36*
X145007093Y-96379446D02*
G01*
X145010140Y-96384771D01*
X145135000Y-96865000D01*
X145389086Y-96409776D01*
X145396108Y-96404225D01*
X145405002Y-96405265D01*
X145407573Y-96407208D01*
X146095462Y-97095097D01*
X146098889Y-97103370D01*
X146095462Y-97111643D01*
X145490198Y-97716907D01*
X145486402Y-97719443D01*
X145135000Y-97864998D01*
X145010140Y-98345228D01*
X145004741Y-98352373D01*
X144995872Y-98353608D01*
X144990547Y-98350561D01*
X144012285Y-97373277D01*
X144008854Y-97365006D01*
X144012277Y-97356731D01*
X144012285Y-97356723D01*
X144257610Y-97111643D01*
X144990547Y-96379437D01*
X144998822Y-96376015D01*
X145007093Y-96379446D01*
G37*
%TD.AperFunction*%
%TD*%
%TA.AperFunction,Conductor*%
%TO.N,Net-(U1-SW)*%
G36*
X152898274Y-109228176D02*
G01*
X152902956Y-109235383D01*
X153137528Y-110391692D01*
X153135815Y-110400481D01*
X153131845Y-110404189D01*
X151343842Y-111420896D01*
X151334957Y-111422006D01*
X151329786Y-111418998D01*
X150705107Y-110794319D01*
X150701680Y-110786046D01*
X150702484Y-110781784D01*
X151197584Y-109516956D01*
X151203791Y-109510502D01*
X151206533Y-109509685D01*
X152889548Y-109226172D01*
X152898274Y-109228176D01*
G37*
%TD.AperFunction*%
%TD*%
%TA.AperFunction,Conductor*%
%TO.N,Net-(U1-SW)*%
G36*
X150928723Y-110576426D02*
G01*
X151548572Y-111196275D01*
X151551999Y-111204548D01*
X151548572Y-111212821D01*
X151511346Y-111250047D01*
X151583714Y-111397558D01*
X151584281Y-111406495D01*
X151581269Y-111411193D01*
X151008059Y-111955842D01*
X150999701Y-111959056D01*
X150991941Y-111955842D01*
X150418730Y-111411193D01*
X150415093Y-111403010D01*
X150416285Y-111397558D01*
X150506916Y-111212821D01*
X150550000Y-111125000D01*
X150680912Y-110808950D01*
X150683444Y-110805159D01*
X150912180Y-110576424D01*
X150920450Y-110572999D01*
X150928723Y-110576426D01*
G37*
%TD.AperFunction*%
%TD*%
%TA.AperFunction,Conductor*%
%TO.N,Net-(U1-SW)*%
G36*
X154003003Y-109233692D02*
G01*
X154009267Y-109238534D01*
X154596650Y-110159746D01*
X154598194Y-110163445D01*
X154599042Y-110167179D01*
X154599248Y-110171181D01*
X154455267Y-111356641D01*
X154451530Y-111387401D01*
X154450105Y-111391739D01*
X154449029Y-111393646D01*
X154442658Y-111398956D01*
X154441491Y-111399359D01*
X154437672Y-111400000D01*
X153559245Y-111400000D01*
X153554768Y-111399109D01*
X153551752Y-111397860D01*
X153545980Y-111392691D01*
X153526457Y-111357194D01*
X153526391Y-111357071D01*
X153526207Y-111356717D01*
X153526120Y-111356542D01*
X153489197Y-111281015D01*
X153489196Y-111281014D01*
X153489196Y-111281013D01*
X153480650Y-111272467D01*
X153479569Y-111271222D01*
X153478587Y-111269915D01*
X153477689Y-111268525D01*
X153005009Y-110409107D01*
X153003632Y-110404755D01*
X153003304Y-110401789D01*
X153004468Y-110395271D01*
X153004476Y-110395255D01*
X153006023Y-110392915D01*
X153988234Y-109237835D01*
X153991807Y-109235006D01*
X153993397Y-109234191D01*
X154002321Y-109233472D01*
X154003003Y-109233692D01*
G37*
%TD.AperFunction*%
%TD*%
%TA.AperFunction,Conductor*%
%TO.N,+3V3*%
G36*
X146040949Y-111632960D02*
G01*
X146046864Y-111639449D01*
X146573258Y-113061338D01*
X146573587Y-113062372D01*
X146587014Y-113112482D01*
X146600954Y-113136627D01*
X146601793Y-113138415D01*
X146663748Y-113305766D01*
X146663407Y-113314714D01*
X146661049Y-113318101D01*
X146318101Y-113661049D01*
X146309828Y-113664476D01*
X146305766Y-113663748D01*
X144886745Y-113138415D01*
X144639448Y-113046863D01*
X144632880Y-113040778D01*
X144632475Y-113032009D01*
X144995011Y-112002161D01*
X145000990Y-111995496D01*
X145002162Y-111995011D01*
X146032009Y-111632475D01*
X146040949Y-111632960D01*
G37*
%TD.AperFunction*%
%TD*%
%TA.AperFunction,Conductor*%
%TO.N,+3V3*%
G36*
X152752796Y-113978007D02*
G01*
X152754255Y-113979241D01*
X153042685Y-114266713D01*
X153046126Y-114274981D01*
X153042713Y-114283259D01*
X153042685Y-114283287D01*
X152754255Y-114570758D01*
X152745977Y-114574171D01*
X152744073Y-114574012D01*
X152459777Y-114526629D01*
X152452179Y-114521888D01*
X152450000Y-114515088D01*
X152450000Y-114034911D01*
X152453427Y-114026638D01*
X152459775Y-114023370D01*
X152744075Y-113975987D01*
X152752796Y-113978007D01*
G37*
%TD.AperFunction*%
%TD*%
%TA.AperFunction,Conductor*%
%TO.N,Net-(U1-BST)*%
G36*
X151962120Y-113185566D02*
G01*
X151969828Y-113188979D01*
X152308832Y-113527983D01*
X152311367Y-113531778D01*
X152311368Y-113531779D01*
X152312314Y-113534063D01*
X152312717Y-113541885D01*
X152312481Y-113542676D01*
X152311060Y-113545736D01*
X151712594Y-114460542D01*
X151709397Y-114463802D01*
X151707427Y-114465146D01*
X151699706Y-114467127D01*
X151698959Y-114467054D01*
X151698754Y-114467034D01*
X151695322Y-114466164D01*
X151686643Y-114462491D01*
X151239717Y-114273339D01*
X151235939Y-114270771D01*
X151233778Y-114268575D01*
X151230418Y-114260532D01*
X151220372Y-113537902D01*
X151219298Y-113460676D01*
X151220126Y-113456189D01*
X151221193Y-113453510D01*
X151225729Y-113448002D01*
X151225896Y-113447895D01*
X151227354Y-113447176D01*
X151227436Y-113447093D01*
X151227526Y-113447091D01*
X151228263Y-113446728D01*
X151954482Y-113186088D01*
X151958990Y-113185415D01*
X151962120Y-113185566D01*
G37*
%TD.AperFunction*%
%TD*%
%TA.AperFunction,Conductor*%
%TO.N,Net-(U1-BST)*%
G36*
X152757878Y-111878973D02*
G01*
X153040527Y-111995110D01*
X153046876Y-112001423D01*
X153047152Y-112009709D01*
X152832711Y-112638169D01*
X152826796Y-112644893D01*
X152825909Y-112645284D01*
X152721773Y-112686112D01*
X152712819Y-112685941D01*
X152709229Y-112683492D01*
X152368704Y-112342967D01*
X152365277Y-112334694D01*
X152368043Y-112327139D01*
X152744499Y-111882236D01*
X152752459Y-111878135D01*
X152757878Y-111878973D01*
G37*
%TD.AperFunction*%
%TD*%
%TA.AperFunction,Conductor*%
%TO.N,DHT*%
G36*
X145991514Y-86702676D02*
G01*
X145998618Y-86708128D01*
X146000185Y-86713977D01*
X146000185Y-87696022D01*
X145996758Y-87704295D01*
X145991514Y-87707323D01*
X144306162Y-88159024D01*
X144297284Y-88157856D01*
X144291956Y-88151181D01*
X144267456Y-88072003D01*
X144000254Y-87208454D01*
X144000254Y-87201545D01*
X144291956Y-86258817D01*
X144297675Y-86251927D01*
X144306161Y-86250975D01*
X145991514Y-86702676D01*
G37*
%TD.AperFunction*%
%TD*%
%TA.AperFunction,Conductor*%
%TO.N,DHT*%
G36*
X152922893Y-71527710D02*
G01*
X152927681Y-71535277D01*
X152927789Y-71536055D01*
X153004483Y-72268782D01*
X153004483Y-72271218D01*
X152927789Y-73003944D01*
X152923520Y-73011815D01*
X152914935Y-73014362D01*
X152914159Y-73014254D01*
X152626696Y-72964476D01*
X151513315Y-72771680D01*
X151505748Y-72766892D01*
X151503611Y-72760152D01*
X151503611Y-71779847D01*
X151507038Y-71771574D01*
X151513313Y-71768319D01*
X152914159Y-71525745D01*
X152922893Y-71527710D01*
G37*
%TD.AperFunction*%
%TD*%
M02*
