%TF.GenerationSoftware,KiCad,Pcbnew,10.0.1*%
%TF.CreationDate,2026-05-24T23:26:36-05:00*%
%TF.ProjectId,ESPSauna,45535053-6175-46e6-912e-6b696361645f,rev?*%
%TF.SameCoordinates,Original*%
%TF.FileFunction,Profile,NP*%
%FSLAX46Y46*%
G04 Gerber Fmt 4.6, Leading zero omitted, Abs format (unit mm)*
G04 Created by KiCad (PCBNEW 10.0.1) date 2026-05-24 23:26:36*
%MOMM*%
%LPD*%
G01*
G04 APERTURE LIST*
%TA.AperFunction,Profile*%
%ADD10C,0.050000*%
%TD*%
%TA.AperFunction,Profile*%
%ADD11C,0.120000*%
%TD*%
G04 APERTURE END LIST*
D10*
X105000000Y-113985786D02*
G75*
G02*
X104707114Y-114692900I-1000000J-14D01*
G01*
X105000000Y-111814214D02*
G75*
G02*
X105292886Y-111107100I1000000J14D01*
G01*
X108107107Y-108292893D02*
G75*
G02*
X108814214Y-108000010I707093J-707107D01*
G01*
X112000000Y-107000000D02*
G75*
G02*
X111000000Y-108000000I-1000000J0D01*
G01*
X111000000Y-97000000D02*
G75*
G02*
X112000000Y-98000000I0J-1000000D01*
G01*
X94000000Y-98000000D02*
G75*
G02*
X95000000Y-97000000I1000000J0D01*
G01*
X103000000Y-111014214D02*
G75*
G02*
X103292886Y-110307100I1000000J14D01*
G01*
X110000000Y-105000000D02*
G75*
G02*
X109000000Y-106000000I-1000000J0D01*
G01*
X107307107Y-106292893D02*
G75*
G02*
X108014214Y-106000010I707093J-707107D01*
G01*
X109000000Y-99000000D02*
G75*
G02*
X110000000Y-100000000I0J-1000000D01*
G01*
X95000000Y-99000000D02*
G75*
G02*
X94000000Y-98000000I0J1000000D01*
G01*
X103000000Y-113181238D02*
G75*
G02*
X102701585Y-113893786I-1000000J38D01*
G01*
X100707107Y-118692893D02*
G75*
G02*
X99292893Y-118692893I-707107J707108D01*
G01*
X99278500Y-118678500D02*
G75*
G02*
X99284009Y-117258833I707100J707100D01*
G01*
X99292893Y-118692893D02*
X99278500Y-118678500D01*
X100707107Y-118692893D02*
X104707107Y-114692893D01*
X99284003Y-117258827D02*
X102701604Y-113893805D01*
X103000000Y-113181238D02*
X103000000Y-111014214D01*
X109000000Y-99000000D02*
X95000000Y-99000000D01*
X110000000Y-105000000D02*
X110000000Y-100000000D01*
X108014214Y-106000000D02*
X109000000Y-106000000D01*
X103292893Y-110307107D02*
X107307107Y-106292893D01*
X95000000Y-97000000D02*
X111000000Y-97000000D01*
X112000000Y-98000000D02*
X112000000Y-107000000D01*
X111000000Y-108000000D02*
X108814214Y-108000000D01*
X108107107Y-108292893D02*
X105292893Y-111107107D01*
X105000000Y-111814214D02*
X105000000Y-113985786D01*
X121700000Y-60000000D02*
X121700000Y-64000000D01*
X141000000Y-60000000D02*
X141000000Y-64000000D01*
X90969631Y-60000000D02*
X121000000Y-60000000D01*
X90969631Y-121978405D02*
X90969631Y-60000000D01*
X121000000Y-60000000D02*
X121700000Y-60000000D01*
X121700000Y-64000000D02*
X141000000Y-64000000D01*
X141000000Y-60000000D02*
X159500000Y-60000000D01*
X159500000Y-81500000D02*
X159500000Y-60000000D01*
X159500000Y-94500000D02*
X159500000Y-121978405D01*
X159500000Y-121978405D02*
X90969631Y-121978405D01*
%TO.C,J1*%
D11*
X158100000Y-86200000D02*
X158100000Y-89800000D01*
X158500000Y-85800000D02*
X159500000Y-85800000D01*
X158500000Y-90200000D02*
X159500000Y-90200000D01*
X159500000Y-85800000D02*
X159500000Y-81500000D01*
X159500000Y-90200000D02*
X159500000Y-94500000D01*
X158100000Y-86200000D02*
G75*
G02*
X158500000Y-85800000I400000J0D01*
G01*
X158500000Y-90200000D02*
G75*
G02*
X158100000Y-89800000I1J400001D01*
G01*
%TD*%
M02*
