%TF.GenerationSoftware,KiCad,Pcbnew,10.0.1*%
%TF.CreationDate,2026-05-24T23:26:35-05:00*%
%TF.ProjectId,ESPSauna,45535053-6175-46e6-912e-6b696361645f,rev?*%
%TF.SameCoordinates,Original*%
%TF.FileFunction,Legend,Top*%
%TF.FilePolarity,Positive*%
%FSLAX46Y46*%
G04 Gerber Fmt 4.6, Leading zero omitted, Abs format (unit mm)*
G04 Created by KiCad (PCBNEW 10.0.1) date 2026-05-24 23:26:35*
%MOMM*%
%LPD*%
G01*
G04 APERTURE LIST*
G04 Aperture macros list*
%AMRoundRect*
0 Rectangle with rounded corners*
0 $1 Rounding radius*
0 $2 $3 $4 $5 $6 $7 $8 $9 X,Y pos of 4 corners*
0 Add a 4 corners polygon primitive as box body*
4,1,4,$2,$3,$4,$5,$6,$7,$8,$9,$2,$3,0*
0 Add four circle primitives for the rounded corners*
1,1,$1+$1,$2,$3*
1,1,$1+$1,$4,$5*
1,1,$1+$1,$6,$7*
1,1,$1+$1,$8,$9*
0 Add four rect primitives between the rounded corners*
20,1,$1+$1,$2,$3,$4,$5,0*
20,1,$1+$1,$4,$5,$6,$7,0*
20,1,$1+$1,$6,$7,$8,$9,0*
20,1,$1+$1,$8,$9,$2,$3,0*%
G04 Aperture macros list end*
%ADD10C,0.150000*%
%ADD11C,0.254000*%
%ADD12C,0.120000*%
%ADD13C,0.100000*%
%ADD14C,0.000000*%
%ADD15C,0.127000*%
%ADD16C,0.200000*%
%ADD17C,2.220000*%
%ADD18R,1.700000X1.700000*%
%ADD19C,1.700000*%
%ADD20C,1.300000*%
%ADD21RoundRect,0.150000X0.150000X-0.512500X0.150000X0.512500X-0.150000X0.512500X-0.150000X-0.512500X0*%
%ADD22RoundRect,0.250000X0.475000X-0.337500X0.475000X0.337500X-0.475000X0.337500X-0.475000X-0.337500X0*%
%ADD23RoundRect,0.250000X-0.650000X0.412500X-0.650000X-0.412500X0.650000X-0.412500X0.650000X0.412500X0*%
%ADD24RoundRect,0.250000X-0.475000X0.337500X-0.475000X-0.337500X0.475000X-0.337500X0.475000X0.337500X0*%
%ADD25C,2.240000*%
%ADD26C,3.000000*%
%ADD27C,2.204000*%
%ADD28RoundRect,0.102000X1.000000X1.000000X-1.000000X1.000000X-1.000000X-1.000000X1.000000X-1.000000X0*%
%ADD29C,2.300000*%
%ADD30RoundRect,0.235000X1.465000X-0.940000X1.465000X0.940000X-1.465000X0.940000X-1.465000X-0.940000X0*%
%ADD31RoundRect,0.250000X1.100000X-0.412500X1.100000X0.412500X-1.100000X0.412500X-1.100000X-0.412500X0*%
%ADD32R,1.500000X1.500000*%
%ADD33C,1.500000*%
%ADD34C,1.200000*%
%ADD35O,2.200000X1.200000*%
%ADD36O,1.200000X2.200000*%
G04 APERTURE END LIST*
D10*
X134008207Y-120269819D02*
X133674874Y-119793628D01*
X133436779Y-120269819D02*
X133436779Y-119269819D01*
X133436779Y-119269819D02*
X133817731Y-119269819D01*
X133817731Y-119269819D02*
X133912969Y-119317438D01*
X133912969Y-119317438D02*
X133960588Y-119365057D01*
X133960588Y-119365057D02*
X134008207Y-119460295D01*
X134008207Y-119460295D02*
X134008207Y-119603152D01*
X134008207Y-119603152D02*
X133960588Y-119698390D01*
X133960588Y-119698390D02*
X133912969Y-119746009D01*
X133912969Y-119746009D02*
X133817731Y-119793628D01*
X133817731Y-119793628D02*
X133436779Y-119793628D01*
X134912969Y-120269819D02*
X134436779Y-120269819D01*
X134436779Y-120269819D02*
X134436779Y-119269819D01*
X135436779Y-119793628D02*
X135436779Y-120269819D01*
X135103446Y-119269819D02*
X135436779Y-119793628D01*
X135436779Y-119793628D02*
X135770112Y-119269819D01*
X136055827Y-119365057D02*
X136103446Y-119317438D01*
X136103446Y-119317438D02*
X136198684Y-119269819D01*
X136198684Y-119269819D02*
X136436779Y-119269819D01*
X136436779Y-119269819D02*
X136532017Y-119317438D01*
X136532017Y-119317438D02*
X136579636Y-119365057D01*
X136579636Y-119365057D02*
X136627255Y-119460295D01*
X136627255Y-119460295D02*
X136627255Y-119555533D01*
X136627255Y-119555533D02*
X136579636Y-119698390D01*
X136579636Y-119698390D02*
X136008208Y-120269819D01*
X136008208Y-120269819D02*
X136627255Y-120269819D01*
X114308207Y-120169819D02*
X113974874Y-119693628D01*
X113736779Y-120169819D02*
X113736779Y-119169819D01*
X113736779Y-119169819D02*
X114117731Y-119169819D01*
X114117731Y-119169819D02*
X114212969Y-119217438D01*
X114212969Y-119217438D02*
X114260588Y-119265057D01*
X114260588Y-119265057D02*
X114308207Y-119360295D01*
X114308207Y-119360295D02*
X114308207Y-119503152D01*
X114308207Y-119503152D02*
X114260588Y-119598390D01*
X114260588Y-119598390D02*
X114212969Y-119646009D01*
X114212969Y-119646009D02*
X114117731Y-119693628D01*
X114117731Y-119693628D02*
X113736779Y-119693628D01*
X115212969Y-120169819D02*
X114736779Y-120169819D01*
X114736779Y-120169819D02*
X114736779Y-119169819D01*
X115736779Y-119693628D02*
X115736779Y-120169819D01*
X115403446Y-119169819D02*
X115736779Y-119693628D01*
X115736779Y-119693628D02*
X116070112Y-119169819D01*
X116927255Y-120169819D02*
X116355827Y-120169819D01*
X116641541Y-120169819D02*
X116641541Y-119169819D01*
X116641541Y-119169819D02*
X116546303Y-119312676D01*
X116546303Y-119312676D02*
X116451065Y-119407914D01*
X116451065Y-119407914D02*
X116355827Y-119455533D01*
X153889160Y-65122200D02*
X154032017Y-65169819D01*
X154032017Y-65169819D02*
X154270112Y-65169819D01*
X154270112Y-65169819D02*
X154365350Y-65122200D01*
X154365350Y-65122200D02*
X154412969Y-65074580D01*
X154412969Y-65074580D02*
X154460588Y-64979342D01*
X154460588Y-64979342D02*
X154460588Y-64884104D01*
X154460588Y-64884104D02*
X154412969Y-64788866D01*
X154412969Y-64788866D02*
X154365350Y-64741247D01*
X154365350Y-64741247D02*
X154270112Y-64693628D01*
X154270112Y-64693628D02*
X154079636Y-64646009D01*
X154079636Y-64646009D02*
X153984398Y-64598390D01*
X153984398Y-64598390D02*
X153936779Y-64550771D01*
X153936779Y-64550771D02*
X153889160Y-64455533D01*
X153889160Y-64455533D02*
X153889160Y-64360295D01*
X153889160Y-64360295D02*
X153936779Y-64265057D01*
X153936779Y-64265057D02*
X153984398Y-64217438D01*
X153984398Y-64217438D02*
X154079636Y-64169819D01*
X154079636Y-64169819D02*
X154317731Y-64169819D01*
X154317731Y-64169819D02*
X154460588Y-64217438D01*
X154889160Y-65169819D02*
X154889160Y-64169819D01*
X154889160Y-64646009D02*
X155460588Y-64646009D01*
X155460588Y-65169819D02*
X155460588Y-64169819D01*
X155793922Y-64169819D02*
X156365350Y-64169819D01*
X156079636Y-65169819D02*
X156079636Y-64169819D01*
X157127255Y-64503152D02*
X157127255Y-65169819D01*
X156889160Y-64122200D02*
X156651065Y-64836485D01*
X156651065Y-64836485D02*
X157270112Y-64836485D01*
X158127255Y-64169819D02*
X157651065Y-64169819D01*
X157651065Y-64169819D02*
X157603446Y-64646009D01*
X157603446Y-64646009D02*
X157651065Y-64598390D01*
X157651065Y-64598390D02*
X157746303Y-64550771D01*
X157746303Y-64550771D02*
X157984398Y-64550771D01*
X157984398Y-64550771D02*
X158079636Y-64598390D01*
X158079636Y-64598390D02*
X158127255Y-64646009D01*
X158127255Y-64646009D02*
X158174874Y-64741247D01*
X158174874Y-64741247D02*
X158174874Y-64979342D01*
X158174874Y-64979342D02*
X158127255Y-65074580D01*
X158127255Y-65074580D02*
X158079636Y-65122200D01*
X158079636Y-65122200D02*
X157984398Y-65169819D01*
X157984398Y-65169819D02*
X157746303Y-65169819D01*
X157746303Y-65169819D02*
X157651065Y-65122200D01*
X157651065Y-65122200D02*
X157603446Y-65074580D01*
X146336779Y-62669819D02*
X146336779Y-61669819D01*
X146336779Y-61669819D02*
X146574874Y-61669819D01*
X146574874Y-61669819D02*
X146717731Y-61717438D01*
X146717731Y-61717438D02*
X146812969Y-61812676D01*
X146812969Y-61812676D02*
X146860588Y-61907914D01*
X146860588Y-61907914D02*
X146908207Y-62098390D01*
X146908207Y-62098390D02*
X146908207Y-62241247D01*
X146908207Y-62241247D02*
X146860588Y-62431723D01*
X146860588Y-62431723D02*
X146812969Y-62526961D01*
X146812969Y-62526961D02*
X146717731Y-62622200D01*
X146717731Y-62622200D02*
X146574874Y-62669819D01*
X146574874Y-62669819D02*
X146336779Y-62669819D01*
X147336779Y-62669819D02*
X147336779Y-61669819D01*
X147336779Y-62146009D02*
X147908207Y-62146009D01*
X147908207Y-62669819D02*
X147908207Y-61669819D01*
X148241541Y-61669819D02*
X148812969Y-61669819D01*
X148527255Y-62669819D02*
X148527255Y-61669819D01*
X149098684Y-61765057D02*
X149146303Y-61717438D01*
X149146303Y-61717438D02*
X149241541Y-61669819D01*
X149241541Y-61669819D02*
X149479636Y-61669819D01*
X149479636Y-61669819D02*
X149574874Y-61717438D01*
X149574874Y-61717438D02*
X149622493Y-61765057D01*
X149622493Y-61765057D02*
X149670112Y-61860295D01*
X149670112Y-61860295D02*
X149670112Y-61955533D01*
X149670112Y-61955533D02*
X149622493Y-62098390D01*
X149622493Y-62098390D02*
X149051065Y-62669819D01*
X149051065Y-62669819D02*
X149670112Y-62669819D01*
X150051065Y-61765057D02*
X150098684Y-61717438D01*
X150098684Y-61717438D02*
X150193922Y-61669819D01*
X150193922Y-61669819D02*
X150432017Y-61669819D01*
X150432017Y-61669819D02*
X150527255Y-61717438D01*
X150527255Y-61717438D02*
X150574874Y-61765057D01*
X150574874Y-61765057D02*
X150622493Y-61860295D01*
X150622493Y-61860295D02*
X150622493Y-61955533D01*
X150622493Y-61955533D02*
X150574874Y-62098390D01*
X150574874Y-62098390D02*
X150003446Y-62669819D01*
X150003446Y-62669819D02*
X150622493Y-62669819D01*
X152527255Y-61622200D02*
X151670113Y-62907914D01*
X153574875Y-62384104D02*
X154051065Y-62384104D01*
X153479637Y-62669819D02*
X153812970Y-61669819D01*
X153812970Y-61669819D02*
X154146303Y-62669819D01*
X154479637Y-62669819D02*
X154479637Y-61669819D01*
X154479637Y-61669819D02*
X154812970Y-62384104D01*
X154812970Y-62384104D02*
X155146303Y-61669819D01*
X155146303Y-61669819D02*
X155146303Y-62669819D01*
X155574875Y-61765057D02*
X155622494Y-61717438D01*
X155622494Y-61717438D02*
X155717732Y-61669819D01*
X155717732Y-61669819D02*
X155955827Y-61669819D01*
X155955827Y-61669819D02*
X156051065Y-61717438D01*
X156051065Y-61717438D02*
X156098684Y-61765057D01*
X156098684Y-61765057D02*
X156146303Y-61860295D01*
X156146303Y-61860295D02*
X156146303Y-61955533D01*
X156146303Y-61955533D02*
X156098684Y-62098390D01*
X156098684Y-62098390D02*
X155527256Y-62669819D01*
X155527256Y-62669819D02*
X156146303Y-62669819D01*
X156479637Y-61669819D02*
X157098684Y-61669819D01*
X157098684Y-61669819D02*
X156765351Y-62050771D01*
X156765351Y-62050771D02*
X156908208Y-62050771D01*
X156908208Y-62050771D02*
X157003446Y-62098390D01*
X157003446Y-62098390D02*
X157051065Y-62146009D01*
X157051065Y-62146009D02*
X157098684Y-62241247D01*
X157098684Y-62241247D02*
X157098684Y-62479342D01*
X157098684Y-62479342D02*
X157051065Y-62574580D01*
X157051065Y-62574580D02*
X157003446Y-62622200D01*
X157003446Y-62622200D02*
X156908208Y-62669819D01*
X156908208Y-62669819D02*
X156622494Y-62669819D01*
X156622494Y-62669819D02*
X156527256Y-62622200D01*
X156527256Y-62622200D02*
X156479637Y-62574580D01*
X157717732Y-61669819D02*
X157812970Y-61669819D01*
X157812970Y-61669819D02*
X157908208Y-61717438D01*
X157908208Y-61717438D02*
X157955827Y-61765057D01*
X157955827Y-61765057D02*
X158003446Y-61860295D01*
X158003446Y-61860295D02*
X158051065Y-62050771D01*
X158051065Y-62050771D02*
X158051065Y-62288866D01*
X158051065Y-62288866D02*
X158003446Y-62479342D01*
X158003446Y-62479342D02*
X157955827Y-62574580D01*
X157955827Y-62574580D02*
X157908208Y-62622200D01*
X157908208Y-62622200D02*
X157812970Y-62669819D01*
X157812970Y-62669819D02*
X157717732Y-62669819D01*
X157717732Y-62669819D02*
X157622494Y-62622200D01*
X157622494Y-62622200D02*
X157574875Y-62574580D01*
X157574875Y-62574580D02*
X157527256Y-62479342D01*
X157527256Y-62479342D02*
X157479637Y-62288866D01*
X157479637Y-62288866D02*
X157479637Y-62050771D01*
X157479637Y-62050771D02*
X157527256Y-61860295D01*
X157527256Y-61860295D02*
X157574875Y-61765057D01*
X157574875Y-61765057D02*
X157622494Y-61717438D01*
X157622494Y-61717438D02*
X157717732Y-61669819D01*
X158432018Y-61765057D02*
X158479637Y-61717438D01*
X158479637Y-61717438D02*
X158574875Y-61669819D01*
X158574875Y-61669819D02*
X158812970Y-61669819D01*
X158812970Y-61669819D02*
X158908208Y-61717438D01*
X158908208Y-61717438D02*
X158955827Y-61765057D01*
X158955827Y-61765057D02*
X159003446Y-61860295D01*
X159003446Y-61860295D02*
X159003446Y-61955533D01*
X159003446Y-61955533D02*
X158955827Y-62098390D01*
X158955827Y-62098390D02*
X158384399Y-62669819D01*
X158384399Y-62669819D02*
X159003446Y-62669819D01*
X91470649Y-118171190D02*
X92184935Y-118171190D01*
X91327792Y-118599761D02*
X91827792Y-117099761D01*
X91827792Y-117099761D02*
X92327792Y-118599761D01*
X93684934Y-118456904D02*
X93613506Y-118528333D01*
X93613506Y-118528333D02*
X93399220Y-118599761D01*
X93399220Y-118599761D02*
X93256363Y-118599761D01*
X93256363Y-118599761D02*
X93042077Y-118528333D01*
X93042077Y-118528333D02*
X92899220Y-118385475D01*
X92899220Y-118385475D02*
X92827791Y-118242618D01*
X92827791Y-118242618D02*
X92756363Y-117956904D01*
X92756363Y-117956904D02*
X92756363Y-117742618D01*
X92756363Y-117742618D02*
X92827791Y-117456904D01*
X92827791Y-117456904D02*
X92899220Y-117314047D01*
X92899220Y-117314047D02*
X93042077Y-117171190D01*
X93042077Y-117171190D02*
X93256363Y-117099761D01*
X93256363Y-117099761D02*
X93399220Y-117099761D01*
X93399220Y-117099761D02*
X93613506Y-117171190D01*
X93613506Y-117171190D02*
X93684934Y-117242618D01*
X94256363Y-117242618D02*
X94327791Y-117171190D01*
X94327791Y-117171190D02*
X94470649Y-117099761D01*
X94470649Y-117099761D02*
X94827791Y-117099761D01*
X94827791Y-117099761D02*
X94970649Y-117171190D01*
X94970649Y-117171190D02*
X95042077Y-117242618D01*
X95042077Y-117242618D02*
X95113506Y-117385475D01*
X95113506Y-117385475D02*
X95113506Y-117528333D01*
X95113506Y-117528333D02*
X95042077Y-117742618D01*
X95042077Y-117742618D02*
X94184934Y-118599761D01*
X94184934Y-118599761D02*
X95113506Y-118599761D01*
X91484398Y-111980057D02*
X92198684Y-111980057D01*
X91341541Y-112408628D02*
X91841541Y-110908628D01*
X91841541Y-110908628D02*
X92341541Y-112408628D01*
X93698683Y-112265771D02*
X93627255Y-112337200D01*
X93627255Y-112337200D02*
X93412969Y-112408628D01*
X93412969Y-112408628D02*
X93270112Y-112408628D01*
X93270112Y-112408628D02*
X93055826Y-112337200D01*
X93055826Y-112337200D02*
X92912969Y-112194342D01*
X92912969Y-112194342D02*
X92841540Y-112051485D01*
X92841540Y-112051485D02*
X92770112Y-111765771D01*
X92770112Y-111765771D02*
X92770112Y-111551485D01*
X92770112Y-111551485D02*
X92841540Y-111265771D01*
X92841540Y-111265771D02*
X92912969Y-111122914D01*
X92912969Y-111122914D02*
X93055826Y-110980057D01*
X93055826Y-110980057D02*
X93270112Y-110908628D01*
X93270112Y-110908628D02*
X93412969Y-110908628D01*
X93412969Y-110908628D02*
X93627255Y-110980057D01*
X93627255Y-110980057D02*
X93698683Y-111051485D01*
X95127255Y-112408628D02*
X94270112Y-112408628D01*
X94698683Y-112408628D02*
X94698683Y-110908628D01*
X94698683Y-110908628D02*
X94555826Y-111122914D01*
X94555826Y-111122914D02*
X94412969Y-111265771D01*
X94412969Y-111265771D02*
X94270112Y-111337200D01*
X108669819Y-114491792D02*
X108193628Y-114825125D01*
X108669819Y-115063220D02*
X107669819Y-115063220D01*
X107669819Y-115063220D02*
X107669819Y-114682268D01*
X107669819Y-114682268D02*
X107717438Y-114587030D01*
X107717438Y-114587030D02*
X107765057Y-114539411D01*
X107765057Y-114539411D02*
X107860295Y-114491792D01*
X107860295Y-114491792D02*
X108003152Y-114491792D01*
X108003152Y-114491792D02*
X108098390Y-114539411D01*
X108098390Y-114539411D02*
X108146009Y-114587030D01*
X108146009Y-114587030D02*
X108193628Y-114682268D01*
X108193628Y-114682268D02*
X108193628Y-115063220D01*
X108622200Y-113682268D02*
X108669819Y-113777506D01*
X108669819Y-113777506D02*
X108669819Y-113967982D01*
X108669819Y-113967982D02*
X108622200Y-114063220D01*
X108622200Y-114063220D02*
X108526961Y-114110839D01*
X108526961Y-114110839D02*
X108146009Y-114110839D01*
X108146009Y-114110839D02*
X108050771Y-114063220D01*
X108050771Y-114063220D02*
X108003152Y-113967982D01*
X108003152Y-113967982D02*
X108003152Y-113777506D01*
X108003152Y-113777506D02*
X108050771Y-113682268D01*
X108050771Y-113682268D02*
X108146009Y-113634649D01*
X108146009Y-113634649D02*
X108241247Y-113634649D01*
X108241247Y-113634649D02*
X108336485Y-114110839D01*
X108669819Y-113206077D02*
X108003152Y-113206077D01*
X108098390Y-113206077D02*
X108050771Y-113158458D01*
X108050771Y-113158458D02*
X108003152Y-113063220D01*
X108003152Y-113063220D02*
X108003152Y-112920363D01*
X108003152Y-112920363D02*
X108050771Y-112825125D01*
X108050771Y-112825125D02*
X108146009Y-112777506D01*
X108146009Y-112777506D02*
X108669819Y-112777506D01*
X108146009Y-112777506D02*
X108050771Y-112729887D01*
X108050771Y-112729887D02*
X108003152Y-112634649D01*
X108003152Y-112634649D02*
X108003152Y-112491792D01*
X108003152Y-112491792D02*
X108050771Y-112396553D01*
X108050771Y-112396553D02*
X108146009Y-112348934D01*
X108146009Y-112348934D02*
X108669819Y-112348934D01*
X108669819Y-111729887D02*
X108622200Y-111825125D01*
X108622200Y-111825125D02*
X108574580Y-111872744D01*
X108574580Y-111872744D02*
X108479342Y-111920363D01*
X108479342Y-111920363D02*
X108193628Y-111920363D01*
X108193628Y-111920363D02*
X108098390Y-111872744D01*
X108098390Y-111872744D02*
X108050771Y-111825125D01*
X108050771Y-111825125D02*
X108003152Y-111729887D01*
X108003152Y-111729887D02*
X108003152Y-111587030D01*
X108003152Y-111587030D02*
X108050771Y-111491792D01*
X108050771Y-111491792D02*
X108098390Y-111444173D01*
X108098390Y-111444173D02*
X108193628Y-111396554D01*
X108193628Y-111396554D02*
X108479342Y-111396554D01*
X108479342Y-111396554D02*
X108574580Y-111444173D01*
X108574580Y-111444173D02*
X108622200Y-111491792D01*
X108622200Y-111491792D02*
X108669819Y-111587030D01*
X108669819Y-111587030D02*
X108669819Y-111729887D01*
X108003152Y-111110839D02*
X108003152Y-110729887D01*
X107669819Y-110967982D02*
X108526961Y-110967982D01*
X108526961Y-110967982D02*
X108622200Y-110920363D01*
X108622200Y-110920363D02*
X108669819Y-110825125D01*
X108669819Y-110825125D02*
X108669819Y-110729887D01*
X108622200Y-110015601D02*
X108669819Y-110110839D01*
X108669819Y-110110839D02*
X108669819Y-110301315D01*
X108669819Y-110301315D02*
X108622200Y-110396553D01*
X108622200Y-110396553D02*
X108526961Y-110444172D01*
X108526961Y-110444172D02*
X108146009Y-110444172D01*
X108146009Y-110444172D02*
X108050771Y-110396553D01*
X108050771Y-110396553D02*
X108003152Y-110301315D01*
X108003152Y-110301315D02*
X108003152Y-110110839D01*
X108003152Y-110110839D02*
X108050771Y-110015601D01*
X108050771Y-110015601D02*
X108146009Y-109967982D01*
X108146009Y-109967982D02*
X108241247Y-109967982D01*
X108241247Y-109967982D02*
X108336485Y-110444172D01*
X141577800Y-111789160D02*
X141530180Y-111932017D01*
X141530180Y-111932017D02*
X141530180Y-112170112D01*
X141530180Y-112170112D02*
X141577800Y-112265350D01*
X141577800Y-112265350D02*
X141625419Y-112312969D01*
X141625419Y-112312969D02*
X141720657Y-112360588D01*
X141720657Y-112360588D02*
X141815895Y-112360588D01*
X141815895Y-112360588D02*
X141911133Y-112312969D01*
X141911133Y-112312969D02*
X141958752Y-112265350D01*
X141958752Y-112265350D02*
X142006371Y-112170112D01*
X142006371Y-112170112D02*
X142053990Y-111979636D01*
X142053990Y-111979636D02*
X142101609Y-111884398D01*
X142101609Y-111884398D02*
X142149228Y-111836779D01*
X142149228Y-111836779D02*
X142244466Y-111789160D01*
X142244466Y-111789160D02*
X142339704Y-111789160D01*
X142339704Y-111789160D02*
X142434942Y-111836779D01*
X142434942Y-111836779D02*
X142482561Y-111884398D01*
X142482561Y-111884398D02*
X142530180Y-111979636D01*
X142530180Y-111979636D02*
X142530180Y-112217731D01*
X142530180Y-112217731D02*
X142482561Y-112360588D01*
X141530180Y-113217731D02*
X142053990Y-113217731D01*
X142053990Y-113217731D02*
X142149228Y-113170112D01*
X142149228Y-113170112D02*
X142196847Y-113074874D01*
X142196847Y-113074874D02*
X142196847Y-112884398D01*
X142196847Y-112884398D02*
X142149228Y-112789160D01*
X141577800Y-113217731D02*
X141530180Y-113122493D01*
X141530180Y-113122493D02*
X141530180Y-112884398D01*
X141530180Y-112884398D02*
X141577800Y-112789160D01*
X141577800Y-112789160D02*
X141673038Y-112741541D01*
X141673038Y-112741541D02*
X141768276Y-112741541D01*
X141768276Y-112741541D02*
X141863514Y-112789160D01*
X141863514Y-112789160D02*
X141911133Y-112884398D01*
X141911133Y-112884398D02*
X141911133Y-113122493D01*
X141911133Y-113122493D02*
X141958752Y-113217731D01*
X142196847Y-113551065D02*
X142196847Y-113932017D01*
X141530180Y-113693922D02*
X142387323Y-113693922D01*
X142387323Y-113693922D02*
X142482561Y-113741541D01*
X142482561Y-113741541D02*
X142530180Y-113836779D01*
X142530180Y-113836779D02*
X142530180Y-113932017D01*
X141577800Y-114646303D02*
X141530180Y-114551065D01*
X141530180Y-114551065D02*
X141530180Y-114360589D01*
X141530180Y-114360589D02*
X141577800Y-114265351D01*
X141577800Y-114265351D02*
X141673038Y-114217732D01*
X141673038Y-114217732D02*
X142053990Y-114217732D01*
X142053990Y-114217732D02*
X142149228Y-114265351D01*
X142149228Y-114265351D02*
X142196847Y-114360589D01*
X142196847Y-114360589D02*
X142196847Y-114551065D01*
X142196847Y-114551065D02*
X142149228Y-114646303D01*
X142149228Y-114646303D02*
X142053990Y-114693922D01*
X142053990Y-114693922D02*
X141958752Y-114693922D01*
X141958752Y-114693922D02*
X141863514Y-114217732D01*
X142196847Y-114979637D02*
X142196847Y-115360589D01*
X142530180Y-115122494D02*
X141673038Y-115122494D01*
X141673038Y-115122494D02*
X141577800Y-115170113D01*
X141577800Y-115170113D02*
X141530180Y-115265351D01*
X141530180Y-115265351D02*
X141530180Y-115360589D01*
X142196847Y-115598685D02*
X141530180Y-115836780D01*
X142196847Y-116074875D02*
X141530180Y-115836780D01*
X141530180Y-115836780D02*
X141292085Y-115741542D01*
X141292085Y-115741542D02*
X141244466Y-115693923D01*
X141244466Y-115693923D02*
X141196847Y-115598685D01*
X102936779Y-120469819D02*
X102936779Y-119469819D01*
X102936779Y-119469819D02*
X103508207Y-120469819D01*
X103508207Y-120469819D02*
X103508207Y-119469819D01*
X104555826Y-120374580D02*
X104508207Y-120422200D01*
X104508207Y-120422200D02*
X104365350Y-120469819D01*
X104365350Y-120469819D02*
X104270112Y-120469819D01*
X104270112Y-120469819D02*
X104127255Y-120422200D01*
X104127255Y-120422200D02*
X104032017Y-120326961D01*
X104032017Y-120326961D02*
X103984398Y-120231723D01*
X103984398Y-120231723D02*
X103936779Y-120041247D01*
X103936779Y-120041247D02*
X103936779Y-119898390D01*
X103936779Y-119898390D02*
X103984398Y-119707914D01*
X103984398Y-119707914D02*
X104032017Y-119612676D01*
X104032017Y-119612676D02*
X104127255Y-119517438D01*
X104127255Y-119517438D02*
X104270112Y-119469819D01*
X104270112Y-119469819D02*
X104365350Y-119469819D01*
X104365350Y-119469819D02*
X104508207Y-119517438D01*
X104508207Y-119517438D02*
X104555826Y-119565057D01*
X127136779Y-121569819D02*
X127136779Y-120569819D01*
X127136779Y-120569819D02*
X127708207Y-121569819D01*
X127708207Y-121569819D02*
X127708207Y-120569819D01*
X128755826Y-121474580D02*
X128708207Y-121522200D01*
X128708207Y-121522200D02*
X128565350Y-121569819D01*
X128565350Y-121569819D02*
X128470112Y-121569819D01*
X128470112Y-121569819D02*
X128327255Y-121522200D01*
X128327255Y-121522200D02*
X128232017Y-121426961D01*
X128232017Y-121426961D02*
X128184398Y-121331723D01*
X128184398Y-121331723D02*
X128136779Y-121141247D01*
X128136779Y-121141247D02*
X128136779Y-120998390D01*
X128136779Y-120998390D02*
X128184398Y-120807914D01*
X128184398Y-120807914D02*
X128232017Y-120712676D01*
X128232017Y-120712676D02*
X128327255Y-120617438D01*
X128327255Y-120617438D02*
X128470112Y-120569819D01*
X128470112Y-120569819D02*
X128565350Y-120569819D01*
X128565350Y-120569819D02*
X128708207Y-120617438D01*
X128708207Y-120617438D02*
X128755826Y-120665057D01*
X127036779Y-117869819D02*
X127036779Y-116869819D01*
X127036779Y-116869819D02*
X127608207Y-117869819D01*
X127608207Y-117869819D02*
X127608207Y-116869819D01*
X128274874Y-116869819D02*
X128465350Y-116869819D01*
X128465350Y-116869819D02*
X128560588Y-116917438D01*
X128560588Y-116917438D02*
X128655826Y-117012676D01*
X128655826Y-117012676D02*
X128703445Y-117203152D01*
X128703445Y-117203152D02*
X128703445Y-117536485D01*
X128703445Y-117536485D02*
X128655826Y-117726961D01*
X128655826Y-117726961D02*
X128560588Y-117822200D01*
X128560588Y-117822200D02*
X128465350Y-117869819D01*
X128465350Y-117869819D02*
X128274874Y-117869819D01*
X128274874Y-117869819D02*
X128179636Y-117822200D01*
X128179636Y-117822200D02*
X128084398Y-117726961D01*
X128084398Y-117726961D02*
X128036779Y-117536485D01*
X128036779Y-117536485D02*
X128036779Y-117203152D01*
X128036779Y-117203152D02*
X128084398Y-117012676D01*
X128084398Y-117012676D02*
X128179636Y-116917438D01*
X128179636Y-116917438D02*
X128274874Y-116869819D01*
X103236779Y-117669819D02*
X103236779Y-116669819D01*
X103236779Y-116669819D02*
X103808207Y-117669819D01*
X103808207Y-117669819D02*
X103808207Y-116669819D01*
X104474874Y-116669819D02*
X104665350Y-116669819D01*
X104665350Y-116669819D02*
X104760588Y-116717438D01*
X104760588Y-116717438D02*
X104855826Y-116812676D01*
X104855826Y-116812676D02*
X104903445Y-117003152D01*
X104903445Y-117003152D02*
X104903445Y-117336485D01*
X104903445Y-117336485D02*
X104855826Y-117526961D01*
X104855826Y-117526961D02*
X104760588Y-117622200D01*
X104760588Y-117622200D02*
X104665350Y-117669819D01*
X104665350Y-117669819D02*
X104474874Y-117669819D01*
X104474874Y-117669819D02*
X104379636Y-117622200D01*
X104379636Y-117622200D02*
X104284398Y-117526961D01*
X104284398Y-117526961D02*
X104236779Y-117336485D01*
X104236779Y-117336485D02*
X104236779Y-117003152D01*
X104236779Y-117003152D02*
X104284398Y-116812676D01*
X104284398Y-116812676D02*
X104379636Y-116717438D01*
X104379636Y-116717438D02*
X104474874Y-116669819D01*
X122008207Y-116274580D02*
X121960588Y-116322200D01*
X121960588Y-116322200D02*
X121817731Y-116369819D01*
X121817731Y-116369819D02*
X121722493Y-116369819D01*
X121722493Y-116369819D02*
X121579636Y-116322200D01*
X121579636Y-116322200D02*
X121484398Y-116226961D01*
X121484398Y-116226961D02*
X121436779Y-116131723D01*
X121436779Y-116131723D02*
X121389160Y-115941247D01*
X121389160Y-115941247D02*
X121389160Y-115798390D01*
X121389160Y-115798390D02*
X121436779Y-115607914D01*
X121436779Y-115607914D02*
X121484398Y-115512676D01*
X121484398Y-115512676D02*
X121579636Y-115417438D01*
X121579636Y-115417438D02*
X121722493Y-115369819D01*
X121722493Y-115369819D02*
X121817731Y-115369819D01*
X121817731Y-115369819D02*
X121960588Y-115417438D01*
X121960588Y-115417438D02*
X122008207Y-115465057D01*
X122627255Y-115369819D02*
X122817731Y-115369819D01*
X122817731Y-115369819D02*
X122912969Y-115417438D01*
X122912969Y-115417438D02*
X123008207Y-115512676D01*
X123008207Y-115512676D02*
X123055826Y-115703152D01*
X123055826Y-115703152D02*
X123055826Y-116036485D01*
X123055826Y-116036485D02*
X123008207Y-116226961D01*
X123008207Y-116226961D02*
X122912969Y-116322200D01*
X122912969Y-116322200D02*
X122817731Y-116369819D01*
X122817731Y-116369819D02*
X122627255Y-116369819D01*
X122627255Y-116369819D02*
X122532017Y-116322200D01*
X122532017Y-116322200D02*
X122436779Y-116226961D01*
X122436779Y-116226961D02*
X122389160Y-116036485D01*
X122389160Y-116036485D02*
X122389160Y-115703152D01*
X122389160Y-115703152D02*
X122436779Y-115512676D01*
X122436779Y-115512676D02*
X122532017Y-115417438D01*
X122532017Y-115417438D02*
X122627255Y-115369819D01*
X123484398Y-116369819D02*
X123484398Y-115369819D01*
X123484398Y-115369819D02*
X123817731Y-116084104D01*
X123817731Y-116084104D02*
X124151064Y-115369819D01*
X124151064Y-115369819D02*
X124151064Y-116369819D01*
X143308207Y-118174580D02*
X143260588Y-118222200D01*
X143260588Y-118222200D02*
X143117731Y-118269819D01*
X143117731Y-118269819D02*
X143022493Y-118269819D01*
X143022493Y-118269819D02*
X142879636Y-118222200D01*
X142879636Y-118222200D02*
X142784398Y-118126961D01*
X142784398Y-118126961D02*
X142736779Y-118031723D01*
X142736779Y-118031723D02*
X142689160Y-117841247D01*
X142689160Y-117841247D02*
X142689160Y-117698390D01*
X142689160Y-117698390D02*
X142736779Y-117507914D01*
X142736779Y-117507914D02*
X142784398Y-117412676D01*
X142784398Y-117412676D02*
X142879636Y-117317438D01*
X142879636Y-117317438D02*
X143022493Y-117269819D01*
X143022493Y-117269819D02*
X143117731Y-117269819D01*
X143117731Y-117269819D02*
X143260588Y-117317438D01*
X143260588Y-117317438D02*
X143308207Y-117365057D01*
X143927255Y-117269819D02*
X144117731Y-117269819D01*
X144117731Y-117269819D02*
X144212969Y-117317438D01*
X144212969Y-117317438D02*
X144308207Y-117412676D01*
X144308207Y-117412676D02*
X144355826Y-117603152D01*
X144355826Y-117603152D02*
X144355826Y-117936485D01*
X144355826Y-117936485D02*
X144308207Y-118126961D01*
X144308207Y-118126961D02*
X144212969Y-118222200D01*
X144212969Y-118222200D02*
X144117731Y-118269819D01*
X144117731Y-118269819D02*
X143927255Y-118269819D01*
X143927255Y-118269819D02*
X143832017Y-118222200D01*
X143832017Y-118222200D02*
X143736779Y-118126961D01*
X143736779Y-118126961D02*
X143689160Y-117936485D01*
X143689160Y-117936485D02*
X143689160Y-117603152D01*
X143689160Y-117603152D02*
X143736779Y-117412676D01*
X143736779Y-117412676D02*
X143832017Y-117317438D01*
X143832017Y-117317438D02*
X143927255Y-117269819D01*
X144784398Y-118269819D02*
X144784398Y-117269819D01*
X144784398Y-117269819D02*
X145117731Y-117984104D01*
X145117731Y-117984104D02*
X145451064Y-117269819D01*
X145451064Y-117269819D02*
X145451064Y-118269819D01*
X142055826Y-110037200D02*
X143198684Y-110037200D01*
X142627255Y-110608628D02*
X142627255Y-109465771D01*
X143770112Y-109108628D02*
X144698684Y-109108628D01*
X144698684Y-109108628D02*
X144198684Y-109680057D01*
X144198684Y-109680057D02*
X144412969Y-109680057D01*
X144412969Y-109680057D02*
X144555827Y-109751485D01*
X144555827Y-109751485D02*
X144627255Y-109822914D01*
X144627255Y-109822914D02*
X144698684Y-109965771D01*
X144698684Y-109965771D02*
X144698684Y-110322914D01*
X144698684Y-110322914D02*
X144627255Y-110465771D01*
X144627255Y-110465771D02*
X144555827Y-110537200D01*
X144555827Y-110537200D02*
X144412969Y-110608628D01*
X144412969Y-110608628D02*
X143984398Y-110608628D01*
X143984398Y-110608628D02*
X143841541Y-110537200D01*
X143841541Y-110537200D02*
X143770112Y-110465771D01*
X145127255Y-109108628D02*
X145627255Y-110608628D01*
X145627255Y-110608628D02*
X146127255Y-109108628D01*
X146484397Y-109108628D02*
X147412969Y-109108628D01*
X147412969Y-109108628D02*
X146912969Y-109680057D01*
X146912969Y-109680057D02*
X147127254Y-109680057D01*
X147127254Y-109680057D02*
X147270112Y-109751485D01*
X147270112Y-109751485D02*
X147341540Y-109822914D01*
X147341540Y-109822914D02*
X147412969Y-109965771D01*
X147412969Y-109965771D02*
X147412969Y-110322914D01*
X147412969Y-110322914D02*
X147341540Y-110465771D01*
X147341540Y-110465771D02*
X147270112Y-110537200D01*
X147270112Y-110537200D02*
X147127254Y-110608628D01*
X147127254Y-110608628D02*
X146698683Y-110608628D01*
X146698683Y-110608628D02*
X146555826Y-110537200D01*
X146555826Y-110537200D02*
X146484397Y-110465771D01*
X105692093Y-61637200D02*
X106834951Y-61637200D01*
X106263522Y-62208628D02*
X106263522Y-61065771D01*
X108334951Y-62208628D02*
X107477808Y-62208628D01*
X107906379Y-62208628D02*
X107906379Y-60708628D01*
X107906379Y-60708628D02*
X107763522Y-60922914D01*
X107763522Y-60922914D02*
X107620665Y-61065771D01*
X107620665Y-61065771D02*
X107477808Y-61137200D01*
X108906379Y-60851485D02*
X108977807Y-60780057D01*
X108977807Y-60780057D02*
X109120665Y-60708628D01*
X109120665Y-60708628D02*
X109477807Y-60708628D01*
X109477807Y-60708628D02*
X109620665Y-60780057D01*
X109620665Y-60780057D02*
X109692093Y-60851485D01*
X109692093Y-60851485D02*
X109763522Y-60994342D01*
X109763522Y-60994342D02*
X109763522Y-61137200D01*
X109763522Y-61137200D02*
X109692093Y-61351485D01*
X109692093Y-61351485D02*
X108834950Y-62208628D01*
X108834950Y-62208628D02*
X109763522Y-62208628D01*
X110192093Y-60708628D02*
X110692093Y-62208628D01*
X110692093Y-62208628D02*
X111192093Y-60708628D01*
X94941541Y-60780057D02*
X94798684Y-60708628D01*
X94798684Y-60708628D02*
X94584398Y-60708628D01*
X94584398Y-60708628D02*
X94370112Y-60780057D01*
X94370112Y-60780057D02*
X94227255Y-60922914D01*
X94227255Y-60922914D02*
X94155826Y-61065771D01*
X94155826Y-61065771D02*
X94084398Y-61351485D01*
X94084398Y-61351485D02*
X94084398Y-61565771D01*
X94084398Y-61565771D02*
X94155826Y-61851485D01*
X94155826Y-61851485D02*
X94227255Y-61994342D01*
X94227255Y-61994342D02*
X94370112Y-62137200D01*
X94370112Y-62137200D02*
X94584398Y-62208628D01*
X94584398Y-62208628D02*
X94727255Y-62208628D01*
X94727255Y-62208628D02*
X94941541Y-62137200D01*
X94941541Y-62137200D02*
X95012969Y-62065771D01*
X95012969Y-62065771D02*
X95012969Y-61565771D01*
X95012969Y-61565771D02*
X94727255Y-61565771D01*
X95655826Y-62208628D02*
X95655826Y-60708628D01*
X95655826Y-60708628D02*
X96512969Y-62208628D01*
X96512969Y-62208628D02*
X96512969Y-60708628D01*
X97227255Y-62208628D02*
X97227255Y-60708628D01*
X97227255Y-60708628D02*
X97584398Y-60708628D01*
X97584398Y-60708628D02*
X97798684Y-60780057D01*
X97798684Y-60780057D02*
X97941541Y-60922914D01*
X97941541Y-60922914D02*
X98012970Y-61065771D01*
X98012970Y-61065771D02*
X98084398Y-61351485D01*
X98084398Y-61351485D02*
X98084398Y-61565771D01*
X98084398Y-61565771D02*
X98012970Y-61851485D01*
X98012970Y-61851485D02*
X97941541Y-61994342D01*
X97941541Y-61994342D02*
X97798684Y-62137200D01*
X97798684Y-62137200D02*
X97584398Y-62208628D01*
X97584398Y-62208628D02*
X97227255Y-62208628D01*
D11*
X104124318Y-88192143D02*
X102854318Y-88192143D01*
X102854318Y-88192143D02*
X102854318Y-87708333D01*
X102854318Y-87708333D02*
X102914794Y-87587381D01*
X102914794Y-87587381D02*
X102975270Y-87526904D01*
X102975270Y-87526904D02*
X103096222Y-87466428D01*
X103096222Y-87466428D02*
X103277651Y-87466428D01*
X103277651Y-87466428D02*
X103398603Y-87526904D01*
X103398603Y-87526904D02*
X103459080Y-87587381D01*
X103459080Y-87587381D02*
X103519556Y-87708333D01*
X103519556Y-87708333D02*
X103519556Y-88192143D01*
X104063842Y-86982619D02*
X104124318Y-86801190D01*
X104124318Y-86801190D02*
X104124318Y-86498809D01*
X104124318Y-86498809D02*
X104063842Y-86377857D01*
X104063842Y-86377857D02*
X104003365Y-86317381D01*
X104003365Y-86317381D02*
X103882413Y-86256904D01*
X103882413Y-86256904D02*
X103761461Y-86256904D01*
X103761461Y-86256904D02*
X103640508Y-86317381D01*
X103640508Y-86317381D02*
X103580032Y-86377857D01*
X103580032Y-86377857D02*
X103519556Y-86498809D01*
X103519556Y-86498809D02*
X103459080Y-86740714D01*
X103459080Y-86740714D02*
X103398603Y-86861666D01*
X103398603Y-86861666D02*
X103338127Y-86922143D01*
X103338127Y-86922143D02*
X103217175Y-86982619D01*
X103217175Y-86982619D02*
X103096222Y-86982619D01*
X103096222Y-86982619D02*
X102975270Y-86922143D01*
X102975270Y-86922143D02*
X102914794Y-86861666D01*
X102914794Y-86861666D02*
X102854318Y-86740714D01*
X102854318Y-86740714D02*
X102854318Y-86438333D01*
X102854318Y-86438333D02*
X102914794Y-86256904D01*
X104124318Y-85047380D02*
X104124318Y-85773095D01*
X104124318Y-85410238D02*
X102854318Y-85410238D01*
X102854318Y-85410238D02*
X103035746Y-85531190D01*
X103035746Y-85531190D02*
X103156699Y-85652142D01*
X103156699Y-85652142D02*
X103217175Y-85773095D01*
D10*
X156138095Y-111854819D02*
X156138095Y-112664342D01*
X156138095Y-112664342D02*
X156185714Y-112759580D01*
X156185714Y-112759580D02*
X156233333Y-112807200D01*
X156233333Y-112807200D02*
X156328571Y-112854819D01*
X156328571Y-112854819D02*
X156519047Y-112854819D01*
X156519047Y-112854819D02*
X156614285Y-112807200D01*
X156614285Y-112807200D02*
X156661904Y-112759580D01*
X156661904Y-112759580D02*
X156709523Y-112664342D01*
X156709523Y-112664342D02*
X156709523Y-111854819D01*
X157709523Y-112854819D02*
X157138095Y-112854819D01*
X157423809Y-112854819D02*
X157423809Y-111854819D01*
X157423809Y-111854819D02*
X157328571Y-111997676D01*
X157328571Y-111997676D02*
X157233333Y-112092914D01*
X157233333Y-112092914D02*
X157138095Y-112140533D01*
X156833333Y-96559580D02*
X156785714Y-96607200D01*
X156785714Y-96607200D02*
X156642857Y-96654819D01*
X156642857Y-96654819D02*
X156547619Y-96654819D01*
X156547619Y-96654819D02*
X156404762Y-96607200D01*
X156404762Y-96607200D02*
X156309524Y-96511961D01*
X156309524Y-96511961D02*
X156261905Y-96416723D01*
X156261905Y-96416723D02*
X156214286Y-96226247D01*
X156214286Y-96226247D02*
X156214286Y-96083390D01*
X156214286Y-96083390D02*
X156261905Y-95892914D01*
X156261905Y-95892914D02*
X156309524Y-95797676D01*
X156309524Y-95797676D02*
X156404762Y-95702438D01*
X156404762Y-95702438D02*
X156547619Y-95654819D01*
X156547619Y-95654819D02*
X156642857Y-95654819D01*
X156642857Y-95654819D02*
X156785714Y-95702438D01*
X156785714Y-95702438D02*
X156833333Y-95750057D01*
X157214286Y-95750057D02*
X157261905Y-95702438D01*
X157261905Y-95702438D02*
X157357143Y-95654819D01*
X157357143Y-95654819D02*
X157595238Y-95654819D01*
X157595238Y-95654819D02*
X157690476Y-95702438D01*
X157690476Y-95702438D02*
X157738095Y-95750057D01*
X157738095Y-95750057D02*
X157785714Y-95845295D01*
X157785714Y-95845295D02*
X157785714Y-95940533D01*
X157785714Y-95940533D02*
X157738095Y-96083390D01*
X157738095Y-96083390D02*
X157166667Y-96654819D01*
X157166667Y-96654819D02*
X157785714Y-96654819D01*
X151633333Y-118359580D02*
X151585714Y-118407200D01*
X151585714Y-118407200D02*
X151442857Y-118454819D01*
X151442857Y-118454819D02*
X151347619Y-118454819D01*
X151347619Y-118454819D02*
X151204762Y-118407200D01*
X151204762Y-118407200D02*
X151109524Y-118311961D01*
X151109524Y-118311961D02*
X151061905Y-118216723D01*
X151061905Y-118216723D02*
X151014286Y-118026247D01*
X151014286Y-118026247D02*
X151014286Y-117883390D01*
X151014286Y-117883390D02*
X151061905Y-117692914D01*
X151061905Y-117692914D02*
X151109524Y-117597676D01*
X151109524Y-117597676D02*
X151204762Y-117502438D01*
X151204762Y-117502438D02*
X151347619Y-117454819D01*
X151347619Y-117454819D02*
X151442857Y-117454819D01*
X151442857Y-117454819D02*
X151585714Y-117502438D01*
X151585714Y-117502438D02*
X151633333Y-117550057D01*
X152538095Y-117454819D02*
X152061905Y-117454819D01*
X152061905Y-117454819D02*
X152014286Y-117931009D01*
X152014286Y-117931009D02*
X152061905Y-117883390D01*
X152061905Y-117883390D02*
X152157143Y-117835771D01*
X152157143Y-117835771D02*
X152395238Y-117835771D01*
X152395238Y-117835771D02*
X152490476Y-117883390D01*
X152490476Y-117883390D02*
X152538095Y-117931009D01*
X152538095Y-117931009D02*
X152585714Y-118026247D01*
X152585714Y-118026247D02*
X152585714Y-118264342D01*
X152585714Y-118264342D02*
X152538095Y-118359580D01*
X152538095Y-118359580D02*
X152490476Y-118407200D01*
X152490476Y-118407200D02*
X152395238Y-118454819D01*
X152395238Y-118454819D02*
X152157143Y-118454819D01*
X152157143Y-118454819D02*
X152061905Y-118407200D01*
X152061905Y-118407200D02*
X152014286Y-118359580D01*
X148933333Y-113359580D02*
X148885714Y-113407200D01*
X148885714Y-113407200D02*
X148742857Y-113454819D01*
X148742857Y-113454819D02*
X148647619Y-113454819D01*
X148647619Y-113454819D02*
X148504762Y-113407200D01*
X148504762Y-113407200D02*
X148409524Y-113311961D01*
X148409524Y-113311961D02*
X148361905Y-113216723D01*
X148361905Y-113216723D02*
X148314286Y-113026247D01*
X148314286Y-113026247D02*
X148314286Y-112883390D01*
X148314286Y-112883390D02*
X148361905Y-112692914D01*
X148361905Y-112692914D02*
X148409524Y-112597676D01*
X148409524Y-112597676D02*
X148504762Y-112502438D01*
X148504762Y-112502438D02*
X148647619Y-112454819D01*
X148647619Y-112454819D02*
X148742857Y-112454819D01*
X148742857Y-112454819D02*
X148885714Y-112502438D01*
X148885714Y-112502438D02*
X148933333Y-112550057D01*
X149885714Y-113454819D02*
X149314286Y-113454819D01*
X149600000Y-113454819D02*
X149600000Y-112454819D01*
X149600000Y-112454819D02*
X149504762Y-112597676D01*
X149504762Y-112597676D02*
X149409524Y-112692914D01*
X149409524Y-112692914D02*
X149314286Y-112740533D01*
X124138095Y-107854819D02*
X124138095Y-108664342D01*
X124138095Y-108664342D02*
X124185714Y-108759580D01*
X124185714Y-108759580D02*
X124233333Y-108807200D01*
X124233333Y-108807200D02*
X124328571Y-108854819D01*
X124328571Y-108854819D02*
X124519047Y-108854819D01*
X124519047Y-108854819D02*
X124614285Y-108807200D01*
X124614285Y-108807200D02*
X124661904Y-108759580D01*
X124661904Y-108759580D02*
X124709523Y-108664342D01*
X124709523Y-108664342D02*
X124709523Y-107854819D01*
X125614285Y-108188152D02*
X125614285Y-108854819D01*
X125376190Y-107807200D02*
X125138095Y-108521485D01*
X125138095Y-108521485D02*
X125757142Y-108521485D01*
X156833333Y-120059580D02*
X156785714Y-120107200D01*
X156785714Y-120107200D02*
X156642857Y-120154819D01*
X156642857Y-120154819D02*
X156547619Y-120154819D01*
X156547619Y-120154819D02*
X156404762Y-120107200D01*
X156404762Y-120107200D02*
X156309524Y-120011961D01*
X156309524Y-120011961D02*
X156261905Y-119916723D01*
X156261905Y-119916723D02*
X156214286Y-119726247D01*
X156214286Y-119726247D02*
X156214286Y-119583390D01*
X156214286Y-119583390D02*
X156261905Y-119392914D01*
X156261905Y-119392914D02*
X156309524Y-119297676D01*
X156309524Y-119297676D02*
X156404762Y-119202438D01*
X156404762Y-119202438D02*
X156547619Y-119154819D01*
X156547619Y-119154819D02*
X156642857Y-119154819D01*
X156642857Y-119154819D02*
X156785714Y-119202438D01*
X156785714Y-119202438D02*
X156833333Y-119250057D01*
X157690476Y-119154819D02*
X157500000Y-119154819D01*
X157500000Y-119154819D02*
X157404762Y-119202438D01*
X157404762Y-119202438D02*
X157357143Y-119250057D01*
X157357143Y-119250057D02*
X157261905Y-119392914D01*
X157261905Y-119392914D02*
X157214286Y-119583390D01*
X157214286Y-119583390D02*
X157214286Y-119964342D01*
X157214286Y-119964342D02*
X157261905Y-120059580D01*
X157261905Y-120059580D02*
X157309524Y-120107200D01*
X157309524Y-120107200D02*
X157404762Y-120154819D01*
X157404762Y-120154819D02*
X157595238Y-120154819D01*
X157595238Y-120154819D02*
X157690476Y-120107200D01*
X157690476Y-120107200D02*
X157738095Y-120059580D01*
X157738095Y-120059580D02*
X157785714Y-119964342D01*
X157785714Y-119964342D02*
X157785714Y-119726247D01*
X157785714Y-119726247D02*
X157738095Y-119631009D01*
X157738095Y-119631009D02*
X157690476Y-119583390D01*
X157690476Y-119583390D02*
X157595238Y-119535771D01*
X157595238Y-119535771D02*
X157404762Y-119535771D01*
X157404762Y-119535771D02*
X157309524Y-119583390D01*
X157309524Y-119583390D02*
X157261905Y-119631009D01*
X157261905Y-119631009D02*
X157214286Y-119726247D01*
X157333333Y-106654819D02*
X156857143Y-106654819D01*
X156857143Y-106654819D02*
X156857143Y-105654819D01*
X158190476Y-106654819D02*
X157619048Y-106654819D01*
X157904762Y-106654819D02*
X157904762Y-105654819D01*
X157904762Y-105654819D02*
X157809524Y-105797676D01*
X157809524Y-105797676D02*
X157714286Y-105892914D01*
X157714286Y-105892914D02*
X157619048Y-105940533D01*
X148933333Y-96059580D02*
X148885714Y-96107200D01*
X148885714Y-96107200D02*
X148742857Y-96154819D01*
X148742857Y-96154819D02*
X148647619Y-96154819D01*
X148647619Y-96154819D02*
X148504762Y-96107200D01*
X148504762Y-96107200D02*
X148409524Y-96011961D01*
X148409524Y-96011961D02*
X148361905Y-95916723D01*
X148361905Y-95916723D02*
X148314286Y-95726247D01*
X148314286Y-95726247D02*
X148314286Y-95583390D01*
X148314286Y-95583390D02*
X148361905Y-95392914D01*
X148361905Y-95392914D02*
X148409524Y-95297676D01*
X148409524Y-95297676D02*
X148504762Y-95202438D01*
X148504762Y-95202438D02*
X148647619Y-95154819D01*
X148647619Y-95154819D02*
X148742857Y-95154819D01*
X148742857Y-95154819D02*
X148885714Y-95202438D01*
X148885714Y-95202438D02*
X148933333Y-95250057D01*
X149790476Y-95488152D02*
X149790476Y-96154819D01*
X149552381Y-95107200D02*
X149314286Y-95821485D01*
X149314286Y-95821485D02*
X149933333Y-95821485D01*
X153133333Y-96059580D02*
X153085714Y-96107200D01*
X153085714Y-96107200D02*
X152942857Y-96154819D01*
X152942857Y-96154819D02*
X152847619Y-96154819D01*
X152847619Y-96154819D02*
X152704762Y-96107200D01*
X152704762Y-96107200D02*
X152609524Y-96011961D01*
X152609524Y-96011961D02*
X152561905Y-95916723D01*
X152561905Y-95916723D02*
X152514286Y-95726247D01*
X152514286Y-95726247D02*
X152514286Y-95583390D01*
X152514286Y-95583390D02*
X152561905Y-95392914D01*
X152561905Y-95392914D02*
X152609524Y-95297676D01*
X152609524Y-95297676D02*
X152704762Y-95202438D01*
X152704762Y-95202438D02*
X152847619Y-95154819D01*
X152847619Y-95154819D02*
X152942857Y-95154819D01*
X152942857Y-95154819D02*
X153085714Y-95202438D01*
X153085714Y-95202438D02*
X153133333Y-95250057D01*
X153466667Y-95154819D02*
X154085714Y-95154819D01*
X154085714Y-95154819D02*
X153752381Y-95535771D01*
X153752381Y-95535771D02*
X153895238Y-95535771D01*
X153895238Y-95535771D02*
X153990476Y-95583390D01*
X153990476Y-95583390D02*
X154038095Y-95631009D01*
X154038095Y-95631009D02*
X154085714Y-95726247D01*
X154085714Y-95726247D02*
X154085714Y-95964342D01*
X154085714Y-95964342D02*
X154038095Y-96059580D01*
X154038095Y-96059580D02*
X153990476Y-96107200D01*
X153990476Y-96107200D02*
X153895238Y-96154819D01*
X153895238Y-96154819D02*
X153609524Y-96154819D01*
X153609524Y-96154819D02*
X153514286Y-96107200D01*
X153514286Y-96107200D02*
X153466667Y-96059580D01*
X152766666Y-80354819D02*
X152766666Y-81069104D01*
X152766666Y-81069104D02*
X152719047Y-81211961D01*
X152719047Y-81211961D02*
X152623809Y-81307200D01*
X152623809Y-81307200D02*
X152480952Y-81354819D01*
X152480952Y-81354819D02*
X152385714Y-81354819D01*
X153766666Y-81354819D02*
X153195238Y-81354819D01*
X153480952Y-81354819D02*
X153480952Y-80354819D01*
X153480952Y-80354819D02*
X153385714Y-80497676D01*
X153385714Y-80497676D02*
X153290476Y-80592914D01*
X153290476Y-80592914D02*
X153195238Y-80640533D01*
%TO.C,J2*%
D12*
X154670000Y-68730000D02*
X154670000Y-76410000D01*
X154670000Y-68730000D02*
X157330000Y-68730000D01*
X154670000Y-76410000D02*
X157330000Y-76410000D01*
X156000000Y-66130000D02*
X157330000Y-66130000D01*
X157330000Y-66130000D02*
X157330000Y-67460000D01*
X157330000Y-68730000D02*
X157330000Y-76410000D01*
%TO.C,PS1*%
D13*
X100542000Y-105950000D02*
G75*
G02*
X100542000Y-105850000I0J50000D01*
G01*
X100542000Y-105850000D02*
G75*
G02*
X100542000Y-105950000I0J-50000D01*
G01*
X115050000Y-105350000D02*
X92050000Y-105350000D01*
X115050000Y-67350000D02*
X115050000Y-105350000D01*
D14*
X100542000Y-105950000D02*
X100541999Y-105950000D01*
X100541999Y-105950000D01*
X100541999Y-105950000D01*
X100541999Y-105950000D01*
X100541999Y-105950000D01*
X100541999Y-105950000D01*
X100541999Y-105950000D01*
X100541999Y-105949999D01*
X100541999Y-105949999D01*
X100541999Y-105949999D01*
X100541999Y-105949999D01*
X100541999Y-105949999D01*
X100542000Y-105949999D01*
X100542000Y-105949999D01*
X100542000Y-105949999D01*
X100542000Y-105949999D01*
X100542000Y-105949999D01*
X100542000Y-105949999D01*
X100542000Y-105949999D01*
X100542000Y-105949999D01*
X100542000Y-105949999D01*
X100542000Y-105949999D01*
X100542000Y-105949999D01*
X100542000Y-105949999D01*
X100542001Y-105949999D01*
X100542001Y-105949999D01*
X100542001Y-105949999D01*
X100542001Y-105949999D01*
X100542001Y-105949999D01*
X100542001Y-105949999D01*
X100542001Y-105950000D01*
X100542001Y-105950000D01*
X100542001Y-105950000D01*
X100542001Y-105950000D01*
X100542001Y-105950000D01*
X100542001Y-105950000D01*
X100542001Y-105950000D01*
X100542000Y-105950000D01*
X100542000Y-105950000D02*
X100542001Y-105950000D01*
X100542001Y-105950000D01*
X100542001Y-105950000D01*
X100542001Y-105950000D01*
X100542001Y-105950000D01*
X100542001Y-105950000D01*
X100542001Y-105950001D01*
X100542001Y-105950001D01*
X100542001Y-105950001D01*
X100542001Y-105950001D01*
X100542001Y-105950001D01*
X100542001Y-105950001D01*
X100542001Y-105950001D01*
X100542000Y-105950001D01*
X100542000Y-105950001D01*
X100542000Y-105950001D01*
X100542000Y-105950001D01*
X100542000Y-105950001D01*
X100542000Y-105950001D01*
X100542000Y-105950001D01*
X100542000Y-105950001D01*
X100542000Y-105950001D01*
X100542000Y-105950001D01*
X100542000Y-105950001D01*
X100542000Y-105950001D01*
X100541999Y-105950001D01*
X100541999Y-105950001D01*
X100541999Y-105950001D01*
X100541999Y-105950001D01*
X100541999Y-105950001D01*
X100541999Y-105950001D01*
X100541999Y-105950000D01*
X100541999Y-105950000D01*
X100541999Y-105950000D01*
X100541999Y-105950000D01*
X100541999Y-105950000D01*
X100541999Y-105950000D01*
X100542000Y-105950000D01*
D13*
D14*
X100542000Y-105850000D02*
X100541999Y-105850000D01*
X100541999Y-105850000D01*
X100541999Y-105850000D01*
X100541999Y-105850000D01*
X100541999Y-105850000D01*
X100541999Y-105850000D01*
X100541999Y-105850000D01*
X100541999Y-105849999D01*
X100541999Y-105849999D01*
X100541999Y-105849999D01*
X100541999Y-105849999D01*
X100541999Y-105849999D01*
X100542000Y-105849999D01*
X100542000Y-105849999D01*
X100542000Y-105849999D01*
X100542000Y-105849999D01*
X100542000Y-105849999D01*
X100542000Y-105849999D01*
X100542000Y-105849999D01*
X100542000Y-105849999D01*
X100542000Y-105849999D01*
X100542000Y-105849999D01*
X100542000Y-105849999D01*
X100542000Y-105849999D01*
X100542001Y-105849999D01*
X100542001Y-105849999D01*
X100542001Y-105849999D01*
X100542001Y-105849999D01*
X100542001Y-105849999D01*
X100542001Y-105849999D01*
X100542001Y-105850000D01*
X100542001Y-105850000D01*
X100542001Y-105850000D01*
X100542001Y-105850000D01*
X100542001Y-105850000D01*
X100542001Y-105850000D01*
X100542001Y-105850000D01*
X100542000Y-105850000D01*
X100542000Y-105850000D02*
X100542001Y-105850000D01*
X100542001Y-105850000D01*
X100542001Y-105850000D01*
X100542001Y-105850000D01*
X100542001Y-105850000D01*
X100542001Y-105850000D01*
X100542001Y-105850001D01*
X100542001Y-105850001D01*
X100542001Y-105850001D01*
X100542001Y-105850001D01*
X100542001Y-105850001D01*
X100542001Y-105850001D01*
X100542001Y-105850001D01*
X100542000Y-105850001D01*
X100542000Y-105850001D01*
X100542000Y-105850001D01*
X100542000Y-105850001D01*
X100542000Y-105850001D01*
X100542000Y-105850001D01*
X100542000Y-105850001D01*
X100542000Y-105850001D01*
X100542000Y-105850001D01*
X100542000Y-105850001D01*
X100542000Y-105850001D01*
X100542000Y-105850001D01*
X100541999Y-105850001D01*
X100541999Y-105850001D01*
X100541999Y-105850001D01*
X100541999Y-105850001D01*
X100541999Y-105850001D01*
X100541999Y-105850001D01*
X100541999Y-105850000D01*
X100541999Y-105850000D01*
X100541999Y-105850000D01*
X100541999Y-105850000D01*
X100541999Y-105850000D01*
X100541999Y-105850000D01*
X100542000Y-105850000D01*
D13*
X92050000Y-105350000D02*
X92050000Y-67350000D01*
X92050000Y-67350000D02*
X115050000Y-67350000D01*
%TO.C,U1*%
D12*
X152440000Y-112227500D02*
X152490000Y-112227500D01*
X152440000Y-114047500D02*
X152440000Y-112227500D01*
X152490000Y-114047500D02*
X152440000Y-114047500D01*
X155510000Y-112227500D02*
X155560000Y-112227500D01*
X155560000Y-112227500D02*
X155560000Y-114047500D01*
X155560000Y-114047500D02*
X155510000Y-114047500D01*
X152490000Y-114587500D02*
X152160000Y-114827500D01*
X152160000Y-114347500D01*
X152490000Y-114587500D01*
G36*
X152490000Y-114587500D02*
G01*
X152160000Y-114827500D01*
X152160000Y-114347500D01*
X152490000Y-114587500D01*
G37*
%TO.C,C2*%
X156265000Y-99261252D02*
X156265000Y-98738748D01*
X157735000Y-99261252D02*
X157735000Y-98738748D01*
%TO.C,C5*%
X153090000Y-117288748D02*
X153090000Y-118711252D01*
X154910000Y-117288748D02*
X154910000Y-118711252D01*
%TO.C,C1*%
X150265000Y-112738748D02*
X150265000Y-113261252D01*
X151735000Y-112738748D02*
X151735000Y-113261252D01*
%TO.C,U4*%
D15*
X117075000Y-56375000D02*
X145585000Y-56375000D01*
X117075000Y-107325000D02*
X117075000Y-56375000D01*
X117075000Y-107325000D02*
X117075000Y-56375000D01*
X122525000Y-56375000D02*
X117075000Y-56375000D01*
X127805000Y-107325000D02*
X117075000Y-107325000D01*
X134516000Y-107325000D02*
X127805000Y-107325000D01*
X140215000Y-56375000D02*
X122525000Y-56375000D01*
X145585000Y-56375000D02*
X140215000Y-56375000D01*
X145585000Y-56375000D02*
X145585000Y-107325000D01*
X145585000Y-56375000D02*
X145585000Y-107325000D01*
X145585000Y-107325000D02*
X117075000Y-107325000D01*
X145585000Y-107325000D02*
X134516000Y-107325000D01*
D16*
X146255000Y-97365000D02*
G75*
G02*
X146055000Y-97365000I-100000J0D01*
G01*
X146055000Y-97365000D02*
G75*
G02*
X146255000Y-97365000I100000J0D01*
G01*
%TO.C,C6*%
D12*
X156265000Y-116738748D02*
X156265000Y-117261252D01*
X157735000Y-116738748D02*
X157735000Y-117261252D01*
%TO.C,RLY2*%
D10*
X129000000Y-108500000D02*
X141000000Y-108500000D01*
X129000000Y-108502400D02*
X129000000Y-121502400D01*
X129000000Y-121500000D02*
X141000000Y-121500000D01*
X133603000Y-121477000D02*
X134365000Y-120588000D01*
X134365000Y-120588000D02*
X135635000Y-120588000D01*
X135640080Y-120588000D02*
X136402080Y-121477000D01*
X141000000Y-108497600D02*
X141000000Y-121497600D01*
X140871981Y-108904000D02*
G75*
G02*
X140304019Y-108904000I-283981J0D01*
G01*
X140304019Y-108904000D02*
G75*
G02*
X140871981Y-108904000I283981J0D01*
G01*
%TO.C,L1*%
D12*
X149500000Y-102500000D02*
X149500000Y-109900000D01*
X149500000Y-102500000D02*
X151000000Y-102500000D01*
X149500000Y-109900000D02*
X151000000Y-109900000D01*
X156300000Y-102500000D02*
X154800000Y-102500000D01*
X156300000Y-109900000D02*
X154800000Y-109900000D01*
X156300000Y-109900000D02*
X156300000Y-102500000D01*
%TO.C,C4*%
X150360000Y-99711252D02*
X150360000Y-98288748D01*
X147640000Y-99711252D02*
X147640000Y-98288748D01*
%TO.C,U3*%
X150150000Y-79050000D02*
X150150000Y-77780000D01*
X150400000Y-63200000D02*
X158400000Y-63200000D01*
X150400000Y-78800000D02*
X150400000Y-63200000D01*
X151420000Y-79050000D02*
X150150000Y-79050000D01*
X158400000Y-63200000D02*
X158400000Y-78800000D01*
X158400000Y-78800000D02*
X150400000Y-78800000D01*
%TO.C,C3*%
X151940000Y-99711252D02*
X151940000Y-98288748D01*
X154660000Y-99711252D02*
X154660000Y-98288748D01*
%TO.C,RLY1*%
D10*
X109000000Y-108500000D02*
X121000000Y-108500000D01*
X109000000Y-108502400D02*
X109000000Y-121502400D01*
X109000000Y-121500000D02*
X121000000Y-121500000D01*
X113603000Y-121477000D02*
X114365000Y-120588000D01*
X114365000Y-120588000D02*
X115635000Y-120588000D01*
X115640080Y-120588000D02*
X116402080Y-121477000D01*
X121000000Y-108497600D02*
X121000000Y-121497600D01*
X120871981Y-108904000D02*
G75*
G02*
X120304019Y-108904000I-283981J0D01*
G01*
X120304019Y-108904000D02*
G75*
G02*
X120871981Y-108904000I283981J0D01*
G01*
%TO.C,J1*%
D12*
X147300000Y-82000000D02*
X158300000Y-82000000D01*
X147300000Y-94000000D02*
X147300000Y-82000000D01*
X158300000Y-82000000D02*
X158300000Y-83500000D01*
X158300000Y-83500000D02*
X159500000Y-83500000D01*
X158300000Y-86000000D02*
X158300000Y-90000000D01*
X158300000Y-90000000D02*
X161300000Y-90000000D01*
X158300000Y-92500000D02*
X158300000Y-94000000D01*
X158300000Y-94000000D02*
X147300000Y-94000000D01*
X159500000Y-83500000D02*
X159500000Y-85000000D01*
X159500000Y-85000000D02*
X161300000Y-85000000D01*
X159500000Y-91000000D02*
X159500000Y-92500000D01*
X159500000Y-92500000D02*
X158300000Y-92500000D01*
X161300000Y-85000000D02*
X161300000Y-91000000D01*
X161300000Y-86000000D02*
X158300000Y-86000000D01*
X161300000Y-91000000D02*
X159500000Y-91000000D01*
%TD*%
D17*
%TO.C,W11*%
X126000000Y-120000000D03*
%TD*%
%TO.C,W8*%
X106000000Y-120000000D03*
%TD*%
%TO.C,W3*%
X109000000Y-64000000D03*
%TD*%
%TO.C,W4*%
X145000000Y-112000000D03*
%TD*%
%TO.C,W9*%
X144000000Y-120000000D03*
%TD*%
%TO.C,W6*%
X123000000Y-118000000D03*
%TD*%
%TO.C,W7*%
X106000000Y-116000000D03*
%TD*%
%TO.C,W5*%
X96000000Y-64000000D03*
%TD*%
%TO.C,W2*%
X96000000Y-110000000D03*
%TD*%
%TO.C,W10*%
X126000000Y-116000000D03*
%TD*%
%TO.C,W1*%
X96000000Y-116000000D03*
%TD*%
%LPC*%
D18*
%TO.C,J2*%
X156000000Y-67460000D03*
D19*
X156000000Y-70000000D03*
X156000000Y-72540000D03*
X156000000Y-75080000D03*
%TD*%
D20*
%TO.C,PS1*%
X112550000Y-69550000D03*
X94550000Y-69550000D03*
X106550000Y-103150000D03*
X100550000Y-103150000D03*
%TD*%
D21*
%TO.C,U1*%
X153050000Y-114275000D03*
X154000000Y-114275000D03*
X154950000Y-114275000D03*
X154950000Y-112000000D03*
X154000000Y-112000000D03*
X153050000Y-112000000D03*
%TD*%
D22*
%TO.C,C2*%
X157000000Y-100037500D03*
X157000000Y-97962500D03*
%TD*%
D23*
%TO.C,C5*%
X154000000Y-116437500D03*
X154000000Y-119562500D03*
%TD*%
D24*
%TO.C,C1*%
X151000000Y-111962500D03*
X151000000Y-114037500D03*
%TD*%
D25*
%TO.C,W11*%
X126000000Y-120000000D03*
%TD*%
D26*
%TO.C,U4*%
X119075000Y-58375000D03*
X119075000Y-105325000D03*
X143585000Y-58375000D03*
X143585000Y-105325000D03*
D27*
X118605000Y-61805000D03*
X118605000Y-64345000D03*
X118605000Y-66885000D03*
X118605000Y-69425000D03*
X118605000Y-71965000D03*
X118605000Y-74505000D03*
X118605000Y-77045000D03*
X118605000Y-79585000D03*
X118605000Y-82125000D03*
X118605000Y-84665000D03*
X118605000Y-87205000D03*
X118605000Y-89745000D03*
X118605000Y-92285000D03*
X118605000Y-94825000D03*
D28*
X118605000Y-97365000D03*
X144005000Y-97365000D03*
D27*
X144005000Y-94825000D03*
X144005000Y-92285000D03*
X144005000Y-89745000D03*
X144005000Y-87205000D03*
X144005000Y-84665000D03*
X144005000Y-82125000D03*
X144005000Y-79585000D03*
X144005000Y-77045000D03*
X144005000Y-74505000D03*
X144005000Y-71965000D03*
X144005000Y-69425000D03*
X144005000Y-66885000D03*
X144005000Y-64345000D03*
X144005000Y-61805000D03*
%TD*%
D25*
%TO.C,W8*%
X106000000Y-120000000D03*
%TD*%
D24*
%TO.C,C6*%
X157000000Y-115962500D03*
X157000000Y-118037500D03*
%TD*%
D20*
%TO.C,RLY2*%
X138250000Y-116500000D03*
X130750000Y-109900000D03*
D29*
X131250000Y-120100000D03*
X139250000Y-120100000D03*
X131250000Y-117100000D03*
%TD*%
D25*
%TO.C,W3*%
X109000000Y-64000000D03*
%TD*%
D30*
%TO.C,L1*%
X152900000Y-109225000D03*
X152900000Y-103175000D03*
%TD*%
D25*
%TO.C,W4*%
X145000000Y-112000000D03*
%TD*%
D31*
%TO.C,C4*%
X149000000Y-97437500D03*
X149000000Y-100562500D03*
%TD*%
D32*
%TO.C,U3*%
X153000000Y-74810000D03*
D33*
X153000000Y-72270000D03*
X153000000Y-69730000D03*
X153000000Y-67190000D03*
%TD*%
D25*
%TO.C,W9*%
X144000000Y-120000000D03*
%TD*%
%TO.C,W6*%
X123000000Y-118000000D03*
%TD*%
%TO.C,W7*%
X106000000Y-116000000D03*
%TD*%
%TO.C,W5*%
X96000000Y-64000000D03*
%TD*%
D31*
%TO.C,C3*%
X153300000Y-100562500D03*
X153300000Y-97437500D03*
%TD*%
D25*
%TO.C,W2*%
X96000000Y-110000000D03*
%TD*%
D20*
%TO.C,RLY1*%
X118250000Y-116500000D03*
X110750000Y-109900000D03*
D29*
X111250000Y-120100000D03*
X119250000Y-120100000D03*
X111250000Y-117100000D03*
%TD*%
D34*
%TO.C,J1*%
X155000000Y-93000000D03*
X157500000Y-93000000D03*
X150000000Y-88000000D03*
X155000000Y-83000000D03*
X157500000Y-83000000D03*
D35*
X150000000Y-93000000D03*
D36*
X155000000Y-88000000D03*
D35*
X150000000Y-83000000D03*
%TD*%
D25*
%TO.C,W10*%
X126000000Y-116000000D03*
%TD*%
%TO.C,W1*%
X96000000Y-116000000D03*
%TD*%
%LPD*%
M02*
