%TF.GenerationSoftware,KiCad,Pcbnew,10.0.1*%
%TF.CreationDate,2026-05-24T23:26:36-05:00*%
%TF.ProjectId,ESPSauna,45535053-6175-46e6-912e-6b696361645f,rev?*%
%TF.SameCoordinates,Original*%
%TF.FileFunction,Soldermask,Top*%
%TF.FilePolarity,Negative*%
%FSLAX46Y46*%
G04 Gerber Fmt 4.6, Leading zero omitted, Abs format (unit mm)*
G04 Created by KiCad (PCBNEW 10.0.1) date 2026-05-24 23:26:36*
%MOMM*%
%LPD*%
G01*
G04 APERTURE LIST*
G04 Aperture macros list*
%AMRoundRect*
0 Rectangle with rounded corners*
0 $1 Rounding radius*
0 $2 $3 $4 $5 $6 $7 $8 $9 X,Y pos of 4 corners*
0 Add a 4 corners polygon primitive as box body*
4,1,4,$2,$3,$4,$5,$6,$7,$8,$9,$2,$3,0*
0 Add four circle primitives for the rounded corners*
1,1,$1+$1,$2,$3*
1,1,$1+$1,$4,$5*
1,1,$1+$1,$6,$7*
1,1,$1+$1,$8,$9*
0 Add four rect primitives between the rounded corners*
20,1,$1+$1,$2,$3,$4,$5,0*
20,1,$1+$1,$4,$5,$6,$7,0*
20,1,$1+$1,$6,$7,$8,$9,0*
20,1,$1+$1,$8,$9,$2,$3,0*%
G04 Aperture macros list end*
%ADD10R,1.700000X1.700000*%
%ADD11C,1.700000*%
%ADD12C,1.300000*%
%ADD13RoundRect,0.150000X0.150000X-0.512500X0.150000X0.512500X-0.150000X0.512500X-0.150000X-0.512500X0*%
%ADD14RoundRect,0.250000X0.475000X-0.337500X0.475000X0.337500X-0.475000X0.337500X-0.475000X-0.337500X0*%
%ADD15RoundRect,0.250000X-0.650000X0.412500X-0.650000X-0.412500X0.650000X-0.412500X0.650000X0.412500X0*%
%ADD16RoundRect,0.250000X-0.475000X0.337500X-0.475000X-0.337500X0.475000X-0.337500X0.475000X0.337500X0*%
%ADD17C,2.240000*%
%ADD18C,3.000000*%
%ADD19C,2.204000*%
%ADD20RoundRect,0.102000X1.000000X1.000000X-1.000000X1.000000X-1.000000X-1.000000X1.000000X-1.000000X0*%
%ADD21C,2.300000*%
%ADD22RoundRect,0.235000X1.465000X-0.940000X1.465000X0.940000X-1.465000X0.940000X-1.465000X-0.940000X0*%
%ADD23RoundRect,0.250000X1.100000X-0.412500X1.100000X0.412500X-1.100000X0.412500X-1.100000X-0.412500X0*%
%ADD24R,1.500000X1.500000*%
%ADD25C,1.500000*%
%ADD26C,1.200000*%
%ADD27O,2.200000X1.200000*%
%ADD28O,1.200000X2.200000*%
G04 APERTURE END LIST*
D10*
%TO.C,J2*%
X156000000Y-67460000D03*
D11*
X156000000Y-70000000D03*
X156000000Y-72540000D03*
X156000000Y-75080000D03*
%TD*%
D12*
%TO.C,PS1*%
X112550000Y-69550000D03*
X94550000Y-69550000D03*
X106550000Y-103150000D03*
X100550000Y-103150000D03*
%TD*%
D13*
%TO.C,U1*%
X153050000Y-114275000D03*
X154000000Y-114275000D03*
X154950000Y-114275000D03*
X154950000Y-112000000D03*
X154000000Y-112000000D03*
X153050000Y-112000000D03*
%TD*%
D14*
%TO.C,C2*%
X157000000Y-100037500D03*
X157000000Y-97962500D03*
%TD*%
D15*
%TO.C,C5*%
X154000000Y-116437500D03*
X154000000Y-119562500D03*
%TD*%
D16*
%TO.C,C1*%
X151000000Y-111962500D03*
X151000000Y-114037500D03*
%TD*%
D17*
%TO.C,W11*%
X126000000Y-120000000D03*
%TD*%
D18*
%TO.C,U4*%
X119075000Y-58375000D03*
X119075000Y-105325000D03*
X143585000Y-58375000D03*
X143585000Y-105325000D03*
D19*
X118605000Y-61805000D03*
X118605000Y-64345000D03*
X118605000Y-66885000D03*
X118605000Y-69425000D03*
X118605000Y-71965000D03*
X118605000Y-74505000D03*
X118605000Y-77045000D03*
X118605000Y-79585000D03*
X118605000Y-82125000D03*
X118605000Y-84665000D03*
X118605000Y-87205000D03*
X118605000Y-89745000D03*
X118605000Y-92285000D03*
X118605000Y-94825000D03*
D20*
X118605000Y-97365000D03*
X144005000Y-97365000D03*
D19*
X144005000Y-94825000D03*
X144005000Y-92285000D03*
X144005000Y-89745000D03*
X144005000Y-87205000D03*
X144005000Y-84665000D03*
X144005000Y-82125000D03*
X144005000Y-79585000D03*
X144005000Y-77045000D03*
X144005000Y-74505000D03*
X144005000Y-71965000D03*
X144005000Y-69425000D03*
X144005000Y-66885000D03*
X144005000Y-64345000D03*
X144005000Y-61805000D03*
%TD*%
D17*
%TO.C,W8*%
X106000000Y-120000000D03*
%TD*%
D16*
%TO.C,C6*%
X157000000Y-115962500D03*
X157000000Y-118037500D03*
%TD*%
D12*
%TO.C,RLY2*%
X138250000Y-116500000D03*
X130750000Y-109900000D03*
D21*
X131250000Y-120100000D03*
X139250000Y-120100000D03*
X131250000Y-117100000D03*
%TD*%
D17*
%TO.C,W3*%
X109000000Y-64000000D03*
%TD*%
D22*
%TO.C,L1*%
X152900000Y-109225000D03*
X152900000Y-103175000D03*
%TD*%
D17*
%TO.C,W4*%
X145000000Y-112000000D03*
%TD*%
D23*
%TO.C,C4*%
X149000000Y-97437500D03*
X149000000Y-100562500D03*
%TD*%
D24*
%TO.C,U3*%
X153000000Y-74810000D03*
D25*
X153000000Y-72270000D03*
X153000000Y-69730000D03*
X153000000Y-67190000D03*
%TD*%
D17*
%TO.C,W9*%
X144000000Y-120000000D03*
%TD*%
%TO.C,W6*%
X123000000Y-118000000D03*
%TD*%
%TO.C,W7*%
X106000000Y-116000000D03*
%TD*%
%TO.C,W5*%
X96000000Y-64000000D03*
%TD*%
D23*
%TO.C,C3*%
X153300000Y-100562500D03*
X153300000Y-97437500D03*
%TD*%
D17*
%TO.C,W2*%
X96000000Y-110000000D03*
%TD*%
D12*
%TO.C,RLY1*%
X118250000Y-116500000D03*
X110750000Y-109900000D03*
D21*
X111250000Y-120100000D03*
X119250000Y-120100000D03*
X111250000Y-117100000D03*
%TD*%
D26*
%TO.C,J1*%
X155000000Y-93000000D03*
X157500000Y-93000000D03*
X150000000Y-88000000D03*
X155000000Y-83000000D03*
X157500000Y-83000000D03*
D27*
X150000000Y-93000000D03*
D28*
X155000000Y-88000000D03*
D27*
X150000000Y-83000000D03*
%TD*%
D17*
%TO.C,W10*%
X126000000Y-116000000D03*
%TD*%
%TO.C,W1*%
X96000000Y-116000000D03*
%TD*%
M02*
