M48
; DRILL file KiCad 10.0.1 date 2026-05-24T23:26:46
; FORMAT={-:-/ absolute / metric / decimal}
; #@! TF.CreationDate,2026-05-24T23:26:46-05:00
; #@! TF.GenerationSoftware,Kicad,Pcbnew,10.0.1
; #@! TF.FileFunction,MixedPlating,1,2
FMAT,2
METRIC
; #@! TA.AperFunction,Plated,PTH,ViaDrill
T1C0.300
; #@! TA.AperFunction,Plated,PTH,ComponentDrill
T2C0.400
; #@! TA.AperFunction,Plated,PTH,ComponentDrill
T3C0.600
; #@! TA.AperFunction,Plated,PTH,ComponentDrill
T4C0.800
; #@! TA.AperFunction,Plated,PTH,ComponentDrill
T5C1.000
; #@! TA.AperFunction,Plated,PTH,ComponentDrill
T6C1.020
; #@! TA.AperFunction,Plated,PTH,ComponentDrill
T7C1.220
; #@! TA.AperFunction,Plated,PTH,ComponentDrill
T8C1.300
; #@! TA.AperFunction,NonPlated,NPTH,ComponentDrill
T9C1.200
; #@! TA.AperFunction,NonPlated,NPTH,ComponentDrill
T10C3.000
%
G90
G05
T1
X92.0Y-61.0
X92.0Y-75.5
X92.0Y-89.0
X92.0Y-96.0
X100.0Y-121.0
X103.5Y-82.0
X104.0Y-121.0
X105.5Y-61.0
X107.5Y-110.5
X111.5Y-96.0
X113.0Y-121.0
X116.5Y-108.0
X117.5Y-121.0
X120.0Y-115.0
X120.5Y-61.0
X120.5Y-96.5
X122.0Y-65.0
X123.5Y-121.0
X124.1Y-97.3
X128.0Y-73.0
X128.5Y-110.5
X130.0Y-99.0
X131.5Y-65.0
X133.5Y-121.0
X138.5Y-113.5
X139.0Y-88.5
X139.5Y-79.5
X141.0Y-65.0
X142.0Y-61.0
X144.0Y-100.0
X146.0Y-121.0
X146.7Y-114.9
X147.1Y-112.9
X148.3Y-97.1
X149.7Y-97.1
X152.0Y-121.0
X152.7Y-97.1
X153.13Y-113.14
X153.9Y-97.1
X154.0Y-119.9
X155.2Y-110.5
X155.5Y-112.0
X156.1Y-111.2
X156.1Y-112.9
X157.0Y-97.7
X157.0Y-118.3
X158.5Y-61.0
X158.5Y-71.5
X158.5Y-84.5
X158.5Y-91.5
X158.5Y-96.5
X158.5Y-103.5
X158.5Y-112.0
X158.5Y-121.0
T3
X110.75Y-109.9
X118.25Y-116.5
X130.75Y-109.9
X138.25Y-116.5
T4
X94.55Y-69.55
X100.55Y-103.15
X106.55Y-103.15
X112.55Y-69.55
X153.0Y-67.19
X153.0Y-69.73
X153.0Y-72.27
X153.0Y-74.81
T5
X156.0Y-67.46
X156.0Y-70.0
X156.0Y-72.54
X156.0Y-75.08
T6
X118.605Y-61.805
X118.605Y-64.345
X118.605Y-66.885
X118.605Y-69.425
X118.605Y-71.965
X118.605Y-74.505
X118.605Y-77.045
X118.605Y-79.585
X118.605Y-82.125
X118.605Y-84.665
X118.605Y-87.205
X118.605Y-89.745
X118.605Y-92.285
X118.605Y-94.825
X118.605Y-97.365
X144.005Y-61.805
X144.005Y-64.345
X144.005Y-66.885
X144.005Y-69.425
X144.005Y-71.965
X144.005Y-74.505
X144.005Y-77.045
X144.005Y-79.585
X144.005Y-82.125
X144.005Y-84.665
X144.005Y-87.205
X144.005Y-89.745
X144.005Y-92.285
X144.005Y-94.825
X144.005Y-97.365
T7
X96.0Y-64.0
X96.0Y-110.0
X96.0Y-116.0
X106.0Y-116.0
X106.0Y-120.0
X109.0Y-64.0
X123.0Y-118.0
X126.0Y-116.0
X126.0Y-120.0
X144.0Y-120.0
X145.0Y-112.0
T8
X111.25Y-117.1
X111.25Y-120.1
X119.25Y-120.1
X131.25Y-117.1
X131.25Y-120.1
X139.25Y-120.1
T9
X150.0Y-88.0
X155.0Y-83.0
X155.0Y-93.0
X157.5Y-83.0
X157.5Y-93.0
T10
X119.075Y-58.375
X119.075Y-105.325
X143.585Y-58.375
X143.585Y-105.325
T2
G00X150.5Y-83.0
M15
G01X149.5Y-83.0
M16
G05
G00X149.5Y-93.0
M15
G01X150.5Y-93.0
M16
G05
G00X155.0Y-88.5
M15
G01X155.0Y-87.5
M16
G05
M30
