%TF.GenerationSoftware,KiCad,Pcbnew,10.0.1*%
%TF.CreationDate,2026-05-24T23:26:35-05:00*%
%TF.ProjectId,ESPSauna,45535053-6175-46e6-912e-6b696361645f,rev?*%
%TF.SameCoordinates,Original*%
%TF.FileFunction,Paste,Bot*%
%TF.FilePolarity,Positive*%
%FSLAX46Y46*%
G04 Gerber Fmt 4.6, Leading zero omitted, Abs format (unit mm)*
G04 Created by KiCad (PCBNEW 10.0.1) date 2026-05-24 23:26:35*
%MOMM*%
%LPD*%
G01*
G04 APERTURE LIST*
G04 Aperture macros list*
%AMRoundRect*
0 Rectangle with rounded corners*
0 $1 Rounding radius*
0 $2 $3 $4 $5 $6 $7 $8 $9 X,Y pos of 4 corners*
0 Add a 4 corners polygon primitive as box body*
4,1,4,$2,$3,$4,$5,$6,$7,$8,$9,$2,$3,0*
0 Add four circle primitives for the rounded corners*
1,1,$1+$1,$2,$3*
1,1,$1+$1,$4,$5*
1,1,$1+$1,$6,$7*
1,1,$1+$1,$8,$9*
0 Add four rect primitives between the rounded corners*
20,1,$1+$1,$2,$3,$4,$5,0*
20,1,$1+$1,$4,$5,$6,$7,0*
20,1,$1+$1,$6,$7,$8,$9,0*
20,1,$1+$1,$8,$9,$2,$3,0*%
G04 Aperture macros list end*
%ADD10RoundRect,0.250000X-0.350000X-0.450000X0.350000X-0.450000X0.350000X0.450000X-0.350000X0.450000X0*%
%ADD11RoundRect,0.250000X0.475000X-0.337500X0.475000X0.337500X-0.475000X0.337500X-0.475000X-0.337500X0*%
%ADD12RoundRect,0.250000X0.350000X0.450000X-0.350000X0.450000X-0.350000X-0.450000X0.350000X-0.450000X0*%
%ADD13RoundRect,0.150000X-0.150000X0.587500X-0.150000X-0.587500X0.150000X-0.587500X0.150000X0.587500X0*%
%ADD14RoundRect,0.150000X0.587500X0.150000X-0.587500X0.150000X-0.587500X-0.150000X0.587500X-0.150000X0*%
%ADD15RoundRect,0.250000X0.337500X0.475000X-0.337500X0.475000X-0.337500X-0.475000X0.337500X-0.475000X0*%
%ADD16RoundRect,0.150000X0.150000X-0.587500X0.150000X0.587500X-0.150000X0.587500X-0.150000X-0.587500X0*%
%ADD17RoundRect,0.250000X0.450000X-0.350000X0.450000X0.350000X-0.450000X0.350000X-0.450000X-0.350000X0*%
G04 APERTURE END LIST*
D10*
%TO.C,R5*%
X128000000Y-80000000D03*
X130000000Y-80000000D03*
%TD*%
D11*
%TO.C,C7*%
X141000000Y-96837500D03*
X141000000Y-94762500D03*
%TD*%
D12*
%TO.C,R3*%
X126000000Y-102000000D03*
X124000000Y-102000000D03*
%TD*%
D13*
%TO.C,D1*%
X114050000Y-114062500D03*
X115950000Y-114062500D03*
X115000000Y-115937500D03*
%TD*%
D14*
%TO.C,Q2*%
X136937500Y-110050000D03*
X136937500Y-111950000D03*
X135062500Y-111000000D03*
%TD*%
D13*
%TO.C,D3*%
X134050000Y-114062500D03*
X135950000Y-114062500D03*
X135000000Y-115937500D03*
%TD*%
D15*
%TO.C,C9*%
X121962500Y-94900000D03*
X124037500Y-94900000D03*
%TD*%
D12*
%TO.C,R4*%
X134000000Y-88000000D03*
X132000000Y-88000000D03*
%TD*%
%TO.C,R7*%
X122000000Y-87200000D03*
X124000000Y-87200000D03*
%TD*%
D10*
%TO.C,R8*%
X137000000Y-102000000D03*
X139000000Y-102000000D03*
%TD*%
D14*
%TO.C,Q1*%
X116937500Y-110000000D03*
X116937500Y-111900000D03*
X115062500Y-110950000D03*
%TD*%
D11*
%TO.C,C8*%
X138000000Y-96837500D03*
X138000000Y-94762500D03*
%TD*%
D16*
%TO.C,D2*%
X124050000Y-79125000D03*
X123100000Y-81000000D03*
X125000000Y-81000000D03*
%TD*%
D12*
%TO.C,R2*%
X122000000Y-92200000D03*
X124000000Y-92200000D03*
%TD*%
D15*
%TO.C,C10*%
X130037500Y-84000000D03*
X127962500Y-84000000D03*
%TD*%
D17*
%TO.C,R1*%
X149000000Y-75000000D03*
X149000000Y-73000000D03*
%TD*%
D12*
%TO.C,R6*%
X130000000Y-88000000D03*
X128000000Y-88000000D03*
%TD*%
M02*
