%TF.GenerationSoftware,KiCad,Pcbnew,10.0.1*%
%TF.CreationDate,2026-05-02T12:26:33-05:00*%
%TF.ProjectId,ESPDrive,45535044-7269-4766-952e-6b696361645f,rev?*%
%TF.SameCoordinates,Original*%
%TF.FileFunction,AssemblyDrawing,Top*%
%FSLAX46Y46*%
G04 Gerber Fmt 4.6, Leading zero omitted, Abs format (unit mm)*
G04 Created by KiCad (PCBNEW 10.0.1) date 2026-05-02 12:26:33*
%MOMM*%
%LPD*%
G01*
G04 APERTURE LIST*
%ADD10C,0.150000*%
%ADD11C,0.120000*%
%ADD12C,0.080000*%
%ADD13C,0.110000*%
%ADD14C,0.200000*%
%ADD15C,0.127000*%
%ADD16C,0.100000*%
G04 APERTURE END LIST*
D10*
X145749472Y-70490008D02*
X146082805Y-70490008D01*
X146225662Y-71013818D02*
X145749472Y-71013818D01*
X145749472Y-71013818D02*
X145749472Y-70013818D01*
X145749472Y-70013818D02*
X146225662Y-70013818D01*
X146606615Y-70966199D02*
X146749472Y-71013818D01*
X146749472Y-71013818D02*
X146987567Y-71013818D01*
X146987567Y-71013818D02*
X147082805Y-70966199D01*
X147082805Y-70966199D02*
X147130424Y-70918579D01*
X147130424Y-70918579D02*
X147178043Y-70823341D01*
X147178043Y-70823341D02*
X147178043Y-70728103D01*
X147178043Y-70728103D02*
X147130424Y-70632865D01*
X147130424Y-70632865D02*
X147082805Y-70585246D01*
X147082805Y-70585246D02*
X146987567Y-70537627D01*
X146987567Y-70537627D02*
X146797091Y-70490008D01*
X146797091Y-70490008D02*
X146701853Y-70442389D01*
X146701853Y-70442389D02*
X146654234Y-70394770D01*
X146654234Y-70394770D02*
X146606615Y-70299532D01*
X146606615Y-70299532D02*
X146606615Y-70204294D01*
X146606615Y-70204294D02*
X146654234Y-70109056D01*
X146654234Y-70109056D02*
X146701853Y-70061437D01*
X146701853Y-70061437D02*
X146797091Y-70013818D01*
X146797091Y-70013818D02*
X147035186Y-70013818D01*
X147035186Y-70013818D02*
X147178043Y-70061437D01*
X147606615Y-71013818D02*
X147606615Y-70013818D01*
X147606615Y-70013818D02*
X147987567Y-70013818D01*
X147987567Y-70013818D02*
X148082805Y-70061437D01*
X148082805Y-70061437D02*
X148130424Y-70109056D01*
X148130424Y-70109056D02*
X148178043Y-70204294D01*
X148178043Y-70204294D02*
X148178043Y-70347151D01*
X148178043Y-70347151D02*
X148130424Y-70442389D01*
X148130424Y-70442389D02*
X148082805Y-70490008D01*
X148082805Y-70490008D02*
X147987567Y-70537627D01*
X147987567Y-70537627D02*
X147606615Y-70537627D01*
X148511377Y-70013818D02*
X149130424Y-70013818D01*
X149130424Y-70013818D02*
X148797091Y-70394770D01*
X148797091Y-70394770D02*
X148939948Y-70394770D01*
X148939948Y-70394770D02*
X149035186Y-70442389D01*
X149035186Y-70442389D02*
X149082805Y-70490008D01*
X149082805Y-70490008D02*
X149130424Y-70585246D01*
X149130424Y-70585246D02*
X149130424Y-70823341D01*
X149130424Y-70823341D02*
X149082805Y-70918579D01*
X149082805Y-70918579D02*
X149035186Y-70966199D01*
X149035186Y-70966199D02*
X148939948Y-71013818D01*
X148939948Y-71013818D02*
X148654234Y-71013818D01*
X148654234Y-71013818D02*
X148558996Y-70966199D01*
X148558996Y-70966199D02*
X148511377Y-70918579D01*
X149511377Y-70109056D02*
X149558996Y-70061437D01*
X149558996Y-70061437D02*
X149654234Y-70013818D01*
X149654234Y-70013818D02*
X149892329Y-70013818D01*
X149892329Y-70013818D02*
X149987567Y-70061437D01*
X149987567Y-70061437D02*
X150035186Y-70109056D01*
X150035186Y-70109056D02*
X150082805Y-70204294D01*
X150082805Y-70204294D02*
X150082805Y-70299532D01*
X150082805Y-70299532D02*
X150035186Y-70442389D01*
X150035186Y-70442389D02*
X149463758Y-71013818D01*
X149463758Y-71013818D02*
X150082805Y-71013818D01*
X150511377Y-70632865D02*
X151273282Y-70632865D01*
X151749472Y-71013818D02*
X151749472Y-70013818D01*
X151749472Y-70013818D02*
X151987567Y-70013818D01*
X151987567Y-70013818D02*
X152130424Y-70061437D01*
X152130424Y-70061437D02*
X152225662Y-70156675D01*
X152225662Y-70156675D02*
X152273281Y-70251913D01*
X152273281Y-70251913D02*
X152320900Y-70442389D01*
X152320900Y-70442389D02*
X152320900Y-70585246D01*
X152320900Y-70585246D02*
X152273281Y-70775722D01*
X152273281Y-70775722D02*
X152225662Y-70870960D01*
X152225662Y-70870960D02*
X152130424Y-70966199D01*
X152130424Y-70966199D02*
X151987567Y-71013818D01*
X151987567Y-71013818D02*
X151749472Y-71013818D01*
X152749472Y-70490008D02*
X153082805Y-70490008D01*
X153225662Y-71013818D02*
X152749472Y-71013818D01*
X152749472Y-71013818D02*
X152749472Y-70013818D01*
X152749472Y-70013818D02*
X153225662Y-70013818D01*
X153511377Y-70013818D02*
X153844710Y-71013818D01*
X153844710Y-71013818D02*
X154178043Y-70013818D01*
X154511377Y-71013818D02*
X154511377Y-70013818D01*
X155082805Y-71013818D02*
X154654234Y-70442389D01*
X155082805Y-70013818D02*
X154511377Y-70585246D01*
X155511377Y-71013818D02*
X155511377Y-70013818D01*
X155844710Y-70013818D02*
X156416138Y-70013818D01*
X156130424Y-71013818D02*
X156130424Y-70013818D01*
X156749472Y-70632865D02*
X157511377Y-70632865D01*
X157844710Y-70013818D02*
X158178043Y-71013818D01*
X158178043Y-71013818D02*
X158511376Y-70013818D01*
X159368519Y-71013818D02*
X158797091Y-71013818D01*
X159082805Y-71013818D02*
X159082805Y-70013818D01*
X159082805Y-70013818D02*
X158987567Y-70156675D01*
X158987567Y-70156675D02*
X158892329Y-70251913D01*
X158892329Y-70251913D02*
X158797091Y-70299532D01*
X137704819Y-111542857D02*
X137704819Y-112114285D01*
X137704819Y-111828571D02*
X136704819Y-111828571D01*
X136704819Y-111828571D02*
X136847676Y-111923809D01*
X136847676Y-111923809D02*
X136942914Y-112019047D01*
X136942914Y-112019047D02*
X136990533Y-112114285D01*
X136704819Y-110923809D02*
X136704819Y-110828571D01*
X136704819Y-110828571D02*
X136752438Y-110733333D01*
X136752438Y-110733333D02*
X136800057Y-110685714D01*
X136800057Y-110685714D02*
X136895295Y-110638095D01*
X136895295Y-110638095D02*
X137085771Y-110590476D01*
X137085771Y-110590476D02*
X137323866Y-110590476D01*
X137323866Y-110590476D02*
X137514342Y-110638095D01*
X137514342Y-110638095D02*
X137609580Y-110685714D01*
X137609580Y-110685714D02*
X137657200Y-110733333D01*
X137657200Y-110733333D02*
X137704819Y-110828571D01*
X137704819Y-110828571D02*
X137704819Y-110923809D01*
X137704819Y-110923809D02*
X137657200Y-111019047D01*
X137657200Y-111019047D02*
X137609580Y-111066666D01*
X137609580Y-111066666D02*
X137514342Y-111114285D01*
X137514342Y-111114285D02*
X137323866Y-111161904D01*
X137323866Y-111161904D02*
X137085771Y-111161904D01*
X137085771Y-111161904D02*
X136895295Y-111114285D01*
X136895295Y-111114285D02*
X136800057Y-111066666D01*
X136800057Y-111066666D02*
X136752438Y-111019047D01*
X136752438Y-111019047D02*
X136704819Y-110923809D01*
X137038152Y-110161904D02*
X138038152Y-110161904D01*
X137561961Y-109685714D02*
X137657200Y-109638095D01*
X137657200Y-109638095D02*
X137704819Y-109542857D01*
X137561961Y-110161904D02*
X137657200Y-110114285D01*
X137657200Y-110114285D02*
X137704819Y-110019047D01*
X137704819Y-110019047D02*
X137704819Y-109828571D01*
X137704819Y-109828571D02*
X137657200Y-109733333D01*
X137657200Y-109733333D02*
X137561961Y-109685714D01*
X137561961Y-109685714D02*
X137038152Y-109685714D01*
X137181009Y-108780952D02*
X137181009Y-109114285D01*
X137704819Y-109114285D02*
X136704819Y-109114285D01*
X136704819Y-109114285D02*
X136704819Y-108638095D01*
D11*
X135787664Y-110533332D02*
X135825760Y-110571428D01*
X135825760Y-110571428D02*
X135863855Y-110685713D01*
X135863855Y-110685713D02*
X135863855Y-110761904D01*
X135863855Y-110761904D02*
X135825760Y-110876190D01*
X135825760Y-110876190D02*
X135749569Y-110952380D01*
X135749569Y-110952380D02*
X135673379Y-110990475D01*
X135673379Y-110990475D02*
X135520998Y-111028571D01*
X135520998Y-111028571D02*
X135406712Y-111028571D01*
X135406712Y-111028571D02*
X135254331Y-110990475D01*
X135254331Y-110990475D02*
X135178140Y-110952380D01*
X135178140Y-110952380D02*
X135101950Y-110876190D01*
X135101950Y-110876190D02*
X135063855Y-110761904D01*
X135063855Y-110761904D02*
X135063855Y-110685713D01*
X135063855Y-110685713D02*
X135101950Y-110571428D01*
X135101950Y-110571428D02*
X135140045Y-110533332D01*
X135330521Y-109847618D02*
X135863855Y-109847618D01*
X135025760Y-110038094D02*
X135597188Y-110228571D01*
X135597188Y-110228571D02*
X135597188Y-109733332D01*
D10*
X136854819Y-117914285D02*
X136854819Y-117819047D01*
X136854819Y-117819047D02*
X136902438Y-117723809D01*
X136902438Y-117723809D02*
X136950057Y-117676190D01*
X136950057Y-117676190D02*
X137045295Y-117628571D01*
X137045295Y-117628571D02*
X137235771Y-117580952D01*
X137235771Y-117580952D02*
X137473866Y-117580952D01*
X137473866Y-117580952D02*
X137664342Y-117628571D01*
X137664342Y-117628571D02*
X137759580Y-117676190D01*
X137759580Y-117676190D02*
X137807200Y-117723809D01*
X137807200Y-117723809D02*
X137854819Y-117819047D01*
X137854819Y-117819047D02*
X137854819Y-117914285D01*
X137854819Y-117914285D02*
X137807200Y-118009523D01*
X137807200Y-118009523D02*
X137759580Y-118057142D01*
X137759580Y-118057142D02*
X137664342Y-118104761D01*
X137664342Y-118104761D02*
X137473866Y-118152380D01*
X137473866Y-118152380D02*
X137235771Y-118152380D01*
X137235771Y-118152380D02*
X137045295Y-118104761D01*
X137045295Y-118104761D02*
X136950057Y-118057142D01*
X136950057Y-118057142D02*
X136902438Y-118009523D01*
X136902438Y-118009523D02*
X136854819Y-117914285D01*
X137759580Y-117152380D02*
X137807200Y-117104761D01*
X137807200Y-117104761D02*
X137854819Y-117152380D01*
X137854819Y-117152380D02*
X137807200Y-117199999D01*
X137807200Y-117199999D02*
X137759580Y-117152380D01*
X137759580Y-117152380D02*
X137854819Y-117152380D01*
X137854819Y-116152381D02*
X137854819Y-116723809D01*
X137854819Y-116438095D02*
X136854819Y-116438095D01*
X136854819Y-116438095D02*
X136997676Y-116533333D01*
X136997676Y-116533333D02*
X137092914Y-116628571D01*
X137092914Y-116628571D02*
X137140533Y-116723809D01*
X137188152Y-115723809D02*
X138188152Y-115723809D01*
X137711961Y-115247619D02*
X137807200Y-115200000D01*
X137807200Y-115200000D02*
X137854819Y-115104762D01*
X137711961Y-115723809D02*
X137807200Y-115676190D01*
X137807200Y-115676190D02*
X137854819Y-115580952D01*
X137854819Y-115580952D02*
X137854819Y-115390476D01*
X137854819Y-115390476D02*
X137807200Y-115295238D01*
X137807200Y-115295238D02*
X137711961Y-115247619D01*
X137711961Y-115247619D02*
X137188152Y-115247619D01*
X137331009Y-114342857D02*
X137331009Y-114676190D01*
X137854819Y-114676190D02*
X136854819Y-114676190D01*
X136854819Y-114676190D02*
X136854819Y-114200000D01*
D12*
X136079530Y-116283333D02*
X136103340Y-116307142D01*
X136103340Y-116307142D02*
X136127149Y-116378571D01*
X136127149Y-116378571D02*
X136127149Y-116426190D01*
X136127149Y-116426190D02*
X136103340Y-116497618D01*
X136103340Y-116497618D02*
X136055720Y-116545237D01*
X136055720Y-116545237D02*
X136008101Y-116569047D01*
X136008101Y-116569047D02*
X135912863Y-116592856D01*
X135912863Y-116592856D02*
X135841435Y-116592856D01*
X135841435Y-116592856D02*
X135746197Y-116569047D01*
X135746197Y-116569047D02*
X135698578Y-116545237D01*
X135698578Y-116545237D02*
X135650959Y-116497618D01*
X135650959Y-116497618D02*
X135627149Y-116426190D01*
X135627149Y-116426190D02*
X135627149Y-116378571D01*
X135627149Y-116378571D02*
X135650959Y-116307142D01*
X135650959Y-116307142D02*
X135674768Y-116283333D01*
X135627149Y-116116666D02*
X135627149Y-115783333D01*
X135627149Y-115783333D02*
X136127149Y-115997618D01*
D10*
X138585714Y-130850057D02*
X138633333Y-130802438D01*
X138633333Y-130802438D02*
X138728571Y-130754819D01*
X138728571Y-130754819D02*
X138966666Y-130754819D01*
X138966666Y-130754819D02*
X139061904Y-130802438D01*
X139061904Y-130802438D02*
X139109523Y-130850057D01*
X139109523Y-130850057D02*
X139157142Y-130945295D01*
X139157142Y-130945295D02*
X139157142Y-131040533D01*
X139157142Y-131040533D02*
X139109523Y-131183390D01*
X139109523Y-131183390D02*
X138538095Y-131754819D01*
X138538095Y-131754819D02*
X139157142Y-131754819D01*
X139538095Y-130850057D02*
X139585714Y-130802438D01*
X139585714Y-130802438D02*
X139680952Y-130754819D01*
X139680952Y-130754819D02*
X139919047Y-130754819D01*
X139919047Y-130754819D02*
X140014285Y-130802438D01*
X140014285Y-130802438D02*
X140061904Y-130850057D01*
X140061904Y-130850057D02*
X140109523Y-130945295D01*
X140109523Y-130945295D02*
X140109523Y-131040533D01*
X140109523Y-131040533D02*
X140061904Y-131183390D01*
X140061904Y-131183390D02*
X139490476Y-131754819D01*
X139490476Y-131754819D02*
X140109523Y-131754819D01*
X140538095Y-131088152D02*
X140538095Y-132088152D01*
X141014285Y-131611961D02*
X141061904Y-131707200D01*
X141061904Y-131707200D02*
X141157142Y-131754819D01*
X140538095Y-131611961D02*
X140585714Y-131707200D01*
X140585714Y-131707200D02*
X140680952Y-131754819D01*
X140680952Y-131754819D02*
X140871428Y-131754819D01*
X140871428Y-131754819D02*
X140966666Y-131707200D01*
X140966666Y-131707200D02*
X141014285Y-131611961D01*
X141014285Y-131611961D02*
X141014285Y-131088152D01*
X141919047Y-131231009D02*
X141585714Y-131231009D01*
X141585714Y-131754819D02*
X141585714Y-130754819D01*
X141585714Y-130754819D02*
X142061904Y-130754819D01*
D11*
X139685714Y-129343664D02*
X139647618Y-129381760D01*
X139647618Y-129381760D02*
X139533333Y-129419855D01*
X139533333Y-129419855D02*
X139457142Y-129419855D01*
X139457142Y-129419855D02*
X139342856Y-129381760D01*
X139342856Y-129381760D02*
X139266666Y-129305569D01*
X139266666Y-129305569D02*
X139228571Y-129229379D01*
X139228571Y-129229379D02*
X139190475Y-129076998D01*
X139190475Y-129076998D02*
X139190475Y-128962712D01*
X139190475Y-128962712D02*
X139228571Y-128810331D01*
X139228571Y-128810331D02*
X139266666Y-128734140D01*
X139266666Y-128734140D02*
X139342856Y-128657950D01*
X139342856Y-128657950D02*
X139457142Y-128619855D01*
X139457142Y-128619855D02*
X139533333Y-128619855D01*
X139533333Y-128619855D02*
X139647618Y-128657950D01*
X139647618Y-128657950D02*
X139685714Y-128696045D01*
X140447618Y-129419855D02*
X139990475Y-129419855D01*
X140219047Y-129419855D02*
X140219047Y-128619855D01*
X140219047Y-128619855D02*
X140142856Y-128734140D01*
X140142856Y-128734140D02*
X140066666Y-128810331D01*
X140066666Y-128810331D02*
X139990475Y-128848426D01*
X140942857Y-128619855D02*
X141019047Y-128619855D01*
X141019047Y-128619855D02*
X141095238Y-128657950D01*
X141095238Y-128657950D02*
X141133333Y-128696045D01*
X141133333Y-128696045D02*
X141171428Y-128772236D01*
X141171428Y-128772236D02*
X141209523Y-128924617D01*
X141209523Y-128924617D02*
X141209523Y-129115093D01*
X141209523Y-129115093D02*
X141171428Y-129267474D01*
X141171428Y-129267474D02*
X141133333Y-129343664D01*
X141133333Y-129343664D02*
X141095238Y-129381760D01*
X141095238Y-129381760D02*
X141019047Y-129419855D01*
X141019047Y-129419855D02*
X140942857Y-129419855D01*
X140942857Y-129419855D02*
X140866666Y-129381760D01*
X140866666Y-129381760D02*
X140828571Y-129343664D01*
X140828571Y-129343664D02*
X140790476Y-129267474D01*
X140790476Y-129267474D02*
X140752380Y-129115093D01*
X140752380Y-129115093D02*
X140752380Y-128924617D01*
X140752380Y-128924617D02*
X140790476Y-128772236D01*
X140790476Y-128772236D02*
X140828571Y-128696045D01*
X140828571Y-128696045D02*
X140866666Y-128657950D01*
X140866666Y-128657950D02*
X140942857Y-128619855D01*
D10*
X163985714Y-116269104D02*
X164461904Y-116269104D01*
X163890476Y-116554819D02*
X164223809Y-115554819D01*
X164223809Y-115554819D02*
X164557142Y-116554819D01*
X164890476Y-116554819D02*
X164890476Y-115554819D01*
X164890476Y-115554819D02*
X165271428Y-115554819D01*
X165271428Y-115554819D02*
X165366666Y-115602438D01*
X165366666Y-115602438D02*
X165414285Y-115650057D01*
X165414285Y-115650057D02*
X165461904Y-115745295D01*
X165461904Y-115745295D02*
X165461904Y-115888152D01*
X165461904Y-115888152D02*
X165414285Y-115983390D01*
X165414285Y-115983390D02*
X165366666Y-116031009D01*
X165366666Y-116031009D02*
X165271428Y-116078628D01*
X165271428Y-116078628D02*
X164890476Y-116078628D01*
X166319047Y-115554819D02*
X166128571Y-115554819D01*
X166128571Y-115554819D02*
X166033333Y-115602438D01*
X166033333Y-115602438D02*
X165985714Y-115650057D01*
X165985714Y-115650057D02*
X165890476Y-115792914D01*
X165890476Y-115792914D02*
X165842857Y-115983390D01*
X165842857Y-115983390D02*
X165842857Y-116364342D01*
X165842857Y-116364342D02*
X165890476Y-116459580D01*
X165890476Y-116459580D02*
X165938095Y-116507200D01*
X165938095Y-116507200D02*
X166033333Y-116554819D01*
X166033333Y-116554819D02*
X166223809Y-116554819D01*
X166223809Y-116554819D02*
X166319047Y-116507200D01*
X166319047Y-116507200D02*
X166366666Y-116459580D01*
X166366666Y-116459580D02*
X166414285Y-116364342D01*
X166414285Y-116364342D02*
X166414285Y-116126247D01*
X166414285Y-116126247D02*
X166366666Y-116031009D01*
X166366666Y-116031009D02*
X166319047Y-115983390D01*
X166319047Y-115983390D02*
X166223809Y-115935771D01*
X166223809Y-115935771D02*
X166033333Y-115935771D01*
X166033333Y-115935771D02*
X165938095Y-115983390D01*
X165938095Y-115983390D02*
X165890476Y-116031009D01*
X165890476Y-116031009D02*
X165842857Y-116126247D01*
X166747619Y-115554819D02*
X167366666Y-115554819D01*
X167366666Y-115554819D02*
X167033333Y-115935771D01*
X167033333Y-115935771D02*
X167176190Y-115935771D01*
X167176190Y-115935771D02*
X167271428Y-115983390D01*
X167271428Y-115983390D02*
X167319047Y-116031009D01*
X167319047Y-116031009D02*
X167366666Y-116126247D01*
X167366666Y-116126247D02*
X167366666Y-116364342D01*
X167366666Y-116364342D02*
X167319047Y-116459580D01*
X167319047Y-116459580D02*
X167271428Y-116507200D01*
X167271428Y-116507200D02*
X167176190Y-116554819D01*
X167176190Y-116554819D02*
X166890476Y-116554819D01*
X166890476Y-116554819D02*
X166795238Y-116507200D01*
X166795238Y-116507200D02*
X166747619Y-116459580D01*
X167747619Y-115650057D02*
X167795238Y-115602438D01*
X167795238Y-115602438D02*
X167890476Y-115554819D01*
X167890476Y-115554819D02*
X168128571Y-115554819D01*
X168128571Y-115554819D02*
X168223809Y-115602438D01*
X168223809Y-115602438D02*
X168271428Y-115650057D01*
X168271428Y-115650057D02*
X168319047Y-115745295D01*
X168319047Y-115745295D02*
X168319047Y-115840533D01*
X168319047Y-115840533D02*
X168271428Y-115983390D01*
X168271428Y-115983390D02*
X167700000Y-116554819D01*
X167700000Y-116554819D02*
X168319047Y-116554819D01*
X168938095Y-115554819D02*
X169033333Y-115554819D01*
X169033333Y-115554819D02*
X169128571Y-115602438D01*
X169128571Y-115602438D02*
X169176190Y-115650057D01*
X169176190Y-115650057D02*
X169223809Y-115745295D01*
X169223809Y-115745295D02*
X169271428Y-115935771D01*
X169271428Y-115935771D02*
X169271428Y-116173866D01*
X169271428Y-116173866D02*
X169223809Y-116364342D01*
X169223809Y-116364342D02*
X169176190Y-116459580D01*
X169176190Y-116459580D02*
X169128571Y-116507200D01*
X169128571Y-116507200D02*
X169033333Y-116554819D01*
X169033333Y-116554819D02*
X168938095Y-116554819D01*
X168938095Y-116554819D02*
X168842857Y-116507200D01*
X168842857Y-116507200D02*
X168795238Y-116459580D01*
X168795238Y-116459580D02*
X168747619Y-116364342D01*
X168747619Y-116364342D02*
X168700000Y-116173866D01*
X168700000Y-116173866D02*
X168700000Y-115935771D01*
X168700000Y-115935771D02*
X168747619Y-115745295D01*
X168747619Y-115745295D02*
X168795238Y-115650057D01*
X168795238Y-115650057D02*
X168842857Y-115602438D01*
X168842857Y-115602438D02*
X168938095Y-115554819D01*
X169604762Y-115554819D02*
X170223809Y-115554819D01*
X170223809Y-115554819D02*
X169890476Y-115935771D01*
X169890476Y-115935771D02*
X170033333Y-115935771D01*
X170033333Y-115935771D02*
X170128571Y-115983390D01*
X170128571Y-115983390D02*
X170176190Y-116031009D01*
X170176190Y-116031009D02*
X170223809Y-116126247D01*
X170223809Y-116126247D02*
X170223809Y-116364342D01*
X170223809Y-116364342D02*
X170176190Y-116459580D01*
X170176190Y-116459580D02*
X170128571Y-116507200D01*
X170128571Y-116507200D02*
X170033333Y-116554819D01*
X170033333Y-116554819D02*
X169747619Y-116554819D01*
X169747619Y-116554819D02*
X169652381Y-116507200D01*
X169652381Y-116507200D02*
X169604762Y-116459580D01*
X170557143Y-115554819D02*
X170795238Y-116554819D01*
X170795238Y-116554819D02*
X170985714Y-115840533D01*
X170985714Y-115840533D02*
X171176190Y-116554819D01*
X171176190Y-116554819D02*
X171414286Y-115554819D01*
X171795238Y-115554819D02*
X171795238Y-116364342D01*
X171795238Y-116364342D02*
X171842857Y-116459580D01*
X171842857Y-116459580D02*
X171890476Y-116507200D01*
X171890476Y-116507200D02*
X171985714Y-116554819D01*
X171985714Y-116554819D02*
X172176190Y-116554819D01*
X172176190Y-116554819D02*
X172271428Y-116507200D01*
X172271428Y-116507200D02*
X172319047Y-116459580D01*
X172319047Y-116459580D02*
X172366666Y-116364342D01*
X172366666Y-116364342D02*
X172366666Y-115554819D01*
D13*
X168351428Y-115707365D02*
X168351428Y-116290222D01*
X168351428Y-116290222D02*
X168385714Y-116358794D01*
X168385714Y-116358794D02*
X168420000Y-116393080D01*
X168420000Y-116393080D02*
X168488571Y-116427365D01*
X168488571Y-116427365D02*
X168625714Y-116427365D01*
X168625714Y-116427365D02*
X168694285Y-116393080D01*
X168694285Y-116393080D02*
X168728571Y-116358794D01*
X168728571Y-116358794D02*
X168762857Y-116290222D01*
X168762857Y-116290222D02*
X168762857Y-115707365D01*
X169482857Y-116427365D02*
X169071428Y-116427365D01*
X169277143Y-116427365D02*
X169277143Y-115707365D01*
X169277143Y-115707365D02*
X169208571Y-115810222D01*
X169208571Y-115810222D02*
X169140000Y-115878794D01*
X169140000Y-115878794D02*
X169071428Y-115913080D01*
D10*
X132428571Y-123154819D02*
X132238095Y-123154819D01*
X132238095Y-123154819D02*
X132142857Y-123202438D01*
X132142857Y-123202438D02*
X132095238Y-123250057D01*
X132095238Y-123250057D02*
X132000000Y-123392914D01*
X132000000Y-123392914D02*
X131952381Y-123583390D01*
X131952381Y-123583390D02*
X131952381Y-123964342D01*
X131952381Y-123964342D02*
X132000000Y-124059580D01*
X132000000Y-124059580D02*
X132047619Y-124107200D01*
X132047619Y-124107200D02*
X132142857Y-124154819D01*
X132142857Y-124154819D02*
X132333333Y-124154819D01*
X132333333Y-124154819D02*
X132428571Y-124107200D01*
X132428571Y-124107200D02*
X132476190Y-124059580D01*
X132476190Y-124059580D02*
X132523809Y-123964342D01*
X132523809Y-123964342D02*
X132523809Y-123726247D01*
X132523809Y-123726247D02*
X132476190Y-123631009D01*
X132476190Y-123631009D02*
X132428571Y-123583390D01*
X132428571Y-123583390D02*
X132333333Y-123535771D01*
X132333333Y-123535771D02*
X132142857Y-123535771D01*
X132142857Y-123535771D02*
X132047619Y-123583390D01*
X132047619Y-123583390D02*
X132000000Y-123631009D01*
X132000000Y-123631009D02*
X131952381Y-123726247D01*
X132952381Y-124059580D02*
X133000000Y-124107200D01*
X133000000Y-124107200D02*
X132952381Y-124154819D01*
X132952381Y-124154819D02*
X132904762Y-124107200D01*
X132904762Y-124107200D02*
X132952381Y-124059580D01*
X132952381Y-124059580D02*
X132952381Y-124154819D01*
X133571428Y-123583390D02*
X133476190Y-123535771D01*
X133476190Y-123535771D02*
X133428571Y-123488152D01*
X133428571Y-123488152D02*
X133380952Y-123392914D01*
X133380952Y-123392914D02*
X133380952Y-123345295D01*
X133380952Y-123345295D02*
X133428571Y-123250057D01*
X133428571Y-123250057D02*
X133476190Y-123202438D01*
X133476190Y-123202438D02*
X133571428Y-123154819D01*
X133571428Y-123154819D02*
X133761904Y-123154819D01*
X133761904Y-123154819D02*
X133857142Y-123202438D01*
X133857142Y-123202438D02*
X133904761Y-123250057D01*
X133904761Y-123250057D02*
X133952380Y-123345295D01*
X133952380Y-123345295D02*
X133952380Y-123392914D01*
X133952380Y-123392914D02*
X133904761Y-123488152D01*
X133904761Y-123488152D02*
X133857142Y-123535771D01*
X133857142Y-123535771D02*
X133761904Y-123583390D01*
X133761904Y-123583390D02*
X133571428Y-123583390D01*
X133571428Y-123583390D02*
X133476190Y-123631009D01*
X133476190Y-123631009D02*
X133428571Y-123678628D01*
X133428571Y-123678628D02*
X133380952Y-123773866D01*
X133380952Y-123773866D02*
X133380952Y-123964342D01*
X133380952Y-123964342D02*
X133428571Y-124059580D01*
X133428571Y-124059580D02*
X133476190Y-124107200D01*
X133476190Y-124107200D02*
X133571428Y-124154819D01*
X133571428Y-124154819D02*
X133761904Y-124154819D01*
X133761904Y-124154819D02*
X133857142Y-124107200D01*
X133857142Y-124107200D02*
X133904761Y-124059580D01*
X133904761Y-124059580D02*
X133952380Y-123964342D01*
X133952380Y-123964342D02*
X133952380Y-123773866D01*
X133952380Y-123773866D02*
X133904761Y-123678628D01*
X133904761Y-123678628D02*
X133857142Y-123631009D01*
X133857142Y-123631009D02*
X133761904Y-123583390D01*
X134380952Y-123488152D02*
X134380952Y-124488152D01*
X134857142Y-124011961D02*
X134904761Y-124107200D01*
X134904761Y-124107200D02*
X134999999Y-124154819D01*
X134380952Y-124011961D02*
X134428571Y-124107200D01*
X134428571Y-124107200D02*
X134523809Y-124154819D01*
X134523809Y-124154819D02*
X134714285Y-124154819D01*
X134714285Y-124154819D02*
X134809523Y-124107200D01*
X134809523Y-124107200D02*
X134857142Y-124011961D01*
X134857142Y-124011961D02*
X134857142Y-123488152D01*
X135428571Y-124154819D02*
X135428571Y-123154819D01*
X135428571Y-123631009D02*
X135999999Y-123631009D01*
X135999999Y-124154819D02*
X135999999Y-123154819D01*
X133833333Y-122754819D02*
X133357143Y-122754819D01*
X133357143Y-122754819D02*
X133357143Y-121754819D01*
X134690476Y-122754819D02*
X134119048Y-122754819D01*
X134404762Y-122754819D02*
X134404762Y-121754819D01*
X134404762Y-121754819D02*
X134309524Y-121897676D01*
X134309524Y-121897676D02*
X134214286Y-121992914D01*
X134214286Y-121992914D02*
X134119048Y-122040533D01*
X162085714Y-130950057D02*
X162133333Y-130902438D01*
X162133333Y-130902438D02*
X162228571Y-130854819D01*
X162228571Y-130854819D02*
X162466666Y-130854819D01*
X162466666Y-130854819D02*
X162561904Y-130902438D01*
X162561904Y-130902438D02*
X162609523Y-130950057D01*
X162609523Y-130950057D02*
X162657142Y-131045295D01*
X162657142Y-131045295D02*
X162657142Y-131140533D01*
X162657142Y-131140533D02*
X162609523Y-131283390D01*
X162609523Y-131283390D02*
X162038095Y-131854819D01*
X162038095Y-131854819D02*
X162657142Y-131854819D01*
X163038095Y-130950057D02*
X163085714Y-130902438D01*
X163085714Y-130902438D02*
X163180952Y-130854819D01*
X163180952Y-130854819D02*
X163419047Y-130854819D01*
X163419047Y-130854819D02*
X163514285Y-130902438D01*
X163514285Y-130902438D02*
X163561904Y-130950057D01*
X163561904Y-130950057D02*
X163609523Y-131045295D01*
X163609523Y-131045295D02*
X163609523Y-131140533D01*
X163609523Y-131140533D02*
X163561904Y-131283390D01*
X163561904Y-131283390D02*
X162990476Y-131854819D01*
X162990476Y-131854819D02*
X163609523Y-131854819D01*
X164038095Y-131188152D02*
X164038095Y-132188152D01*
X164514285Y-131711961D02*
X164561904Y-131807200D01*
X164561904Y-131807200D02*
X164657142Y-131854819D01*
X164038095Y-131711961D02*
X164085714Y-131807200D01*
X164085714Y-131807200D02*
X164180952Y-131854819D01*
X164180952Y-131854819D02*
X164371428Y-131854819D01*
X164371428Y-131854819D02*
X164466666Y-131807200D01*
X164466666Y-131807200D02*
X164514285Y-131711961D01*
X164514285Y-131711961D02*
X164514285Y-131188152D01*
X165419047Y-131331009D02*
X165085714Y-131331009D01*
X165085714Y-131854819D02*
X165085714Y-130854819D01*
X165085714Y-130854819D02*
X165561904Y-130854819D01*
D11*
X163666667Y-129287664D02*
X163628571Y-129325760D01*
X163628571Y-129325760D02*
X163514286Y-129363855D01*
X163514286Y-129363855D02*
X163438095Y-129363855D01*
X163438095Y-129363855D02*
X163323809Y-129325760D01*
X163323809Y-129325760D02*
X163247619Y-129249569D01*
X163247619Y-129249569D02*
X163209524Y-129173379D01*
X163209524Y-129173379D02*
X163171428Y-129020998D01*
X163171428Y-129020998D02*
X163171428Y-128906712D01*
X163171428Y-128906712D02*
X163209524Y-128754331D01*
X163209524Y-128754331D02*
X163247619Y-128678140D01*
X163247619Y-128678140D02*
X163323809Y-128601950D01*
X163323809Y-128601950D02*
X163438095Y-128563855D01*
X163438095Y-128563855D02*
X163514286Y-128563855D01*
X163514286Y-128563855D02*
X163628571Y-128601950D01*
X163628571Y-128601950D02*
X163666667Y-128640045D01*
X164047619Y-129363855D02*
X164200000Y-129363855D01*
X164200000Y-129363855D02*
X164276190Y-129325760D01*
X164276190Y-129325760D02*
X164314286Y-129287664D01*
X164314286Y-129287664D02*
X164390476Y-129173379D01*
X164390476Y-129173379D02*
X164428571Y-129020998D01*
X164428571Y-129020998D02*
X164428571Y-128716236D01*
X164428571Y-128716236D02*
X164390476Y-128640045D01*
X164390476Y-128640045D02*
X164352381Y-128601950D01*
X164352381Y-128601950D02*
X164276190Y-128563855D01*
X164276190Y-128563855D02*
X164123809Y-128563855D01*
X164123809Y-128563855D02*
X164047619Y-128601950D01*
X164047619Y-128601950D02*
X164009524Y-128640045D01*
X164009524Y-128640045D02*
X163971428Y-128716236D01*
X163971428Y-128716236D02*
X163971428Y-128906712D01*
X163971428Y-128906712D02*
X164009524Y-128982902D01*
X164009524Y-128982902D02*
X164047619Y-129020998D01*
X164047619Y-129020998D02*
X164123809Y-129059093D01*
X164123809Y-129059093D02*
X164276190Y-129059093D01*
X164276190Y-129059093D02*
X164352381Y-129020998D01*
X164352381Y-129020998D02*
X164390476Y-128982902D01*
X164390476Y-128982902D02*
X164428571Y-128906712D01*
D10*
X162085714Y-122750057D02*
X162133333Y-122702438D01*
X162133333Y-122702438D02*
X162228571Y-122654819D01*
X162228571Y-122654819D02*
X162466666Y-122654819D01*
X162466666Y-122654819D02*
X162561904Y-122702438D01*
X162561904Y-122702438D02*
X162609523Y-122750057D01*
X162609523Y-122750057D02*
X162657142Y-122845295D01*
X162657142Y-122845295D02*
X162657142Y-122940533D01*
X162657142Y-122940533D02*
X162609523Y-123083390D01*
X162609523Y-123083390D02*
X162038095Y-123654819D01*
X162038095Y-123654819D02*
X162657142Y-123654819D01*
X163038095Y-122750057D02*
X163085714Y-122702438D01*
X163085714Y-122702438D02*
X163180952Y-122654819D01*
X163180952Y-122654819D02*
X163419047Y-122654819D01*
X163419047Y-122654819D02*
X163514285Y-122702438D01*
X163514285Y-122702438D02*
X163561904Y-122750057D01*
X163561904Y-122750057D02*
X163609523Y-122845295D01*
X163609523Y-122845295D02*
X163609523Y-122940533D01*
X163609523Y-122940533D02*
X163561904Y-123083390D01*
X163561904Y-123083390D02*
X162990476Y-123654819D01*
X162990476Y-123654819D02*
X163609523Y-123654819D01*
X164038095Y-122988152D02*
X164038095Y-123988152D01*
X164514285Y-123511961D02*
X164561904Y-123607200D01*
X164561904Y-123607200D02*
X164657142Y-123654819D01*
X164038095Y-123511961D02*
X164085714Y-123607200D01*
X164085714Y-123607200D02*
X164180952Y-123654819D01*
X164180952Y-123654819D02*
X164371428Y-123654819D01*
X164371428Y-123654819D02*
X164466666Y-123607200D01*
X164466666Y-123607200D02*
X164514285Y-123511961D01*
X164514285Y-123511961D02*
X164514285Y-122988152D01*
X165419047Y-123131009D02*
X165085714Y-123131009D01*
X165085714Y-123654819D02*
X165085714Y-122654819D01*
X165085714Y-122654819D02*
X165561904Y-122654819D01*
D11*
X163285714Y-125731664D02*
X163247618Y-125769760D01*
X163247618Y-125769760D02*
X163133333Y-125807855D01*
X163133333Y-125807855D02*
X163057142Y-125807855D01*
X163057142Y-125807855D02*
X162942856Y-125769760D01*
X162942856Y-125769760D02*
X162866666Y-125693569D01*
X162866666Y-125693569D02*
X162828571Y-125617379D01*
X162828571Y-125617379D02*
X162790475Y-125464998D01*
X162790475Y-125464998D02*
X162790475Y-125350712D01*
X162790475Y-125350712D02*
X162828571Y-125198331D01*
X162828571Y-125198331D02*
X162866666Y-125122140D01*
X162866666Y-125122140D02*
X162942856Y-125045950D01*
X162942856Y-125045950D02*
X163057142Y-125007855D01*
X163057142Y-125007855D02*
X163133333Y-125007855D01*
X163133333Y-125007855D02*
X163247618Y-125045950D01*
X163247618Y-125045950D02*
X163285714Y-125084045D01*
X164047618Y-125807855D02*
X163590475Y-125807855D01*
X163819047Y-125807855D02*
X163819047Y-125007855D01*
X163819047Y-125007855D02*
X163742856Y-125122140D01*
X163742856Y-125122140D02*
X163666666Y-125198331D01*
X163666666Y-125198331D02*
X163590475Y-125236426D01*
X164809523Y-125807855D02*
X164352380Y-125807855D01*
X164580952Y-125807855D02*
X164580952Y-125007855D01*
X164580952Y-125007855D02*
X164504761Y-125122140D01*
X164504761Y-125122140D02*
X164428571Y-125198331D01*
X164428571Y-125198331D02*
X164352380Y-125236426D01*
D10*
X130354819Y-113414285D02*
X130354819Y-113319047D01*
X130354819Y-113319047D02*
X130402438Y-113223809D01*
X130402438Y-113223809D02*
X130450057Y-113176190D01*
X130450057Y-113176190D02*
X130545295Y-113128571D01*
X130545295Y-113128571D02*
X130735771Y-113080952D01*
X130735771Y-113080952D02*
X130973866Y-113080952D01*
X130973866Y-113080952D02*
X131164342Y-113128571D01*
X131164342Y-113128571D02*
X131259580Y-113176190D01*
X131259580Y-113176190D02*
X131307200Y-113223809D01*
X131307200Y-113223809D02*
X131354819Y-113319047D01*
X131354819Y-113319047D02*
X131354819Y-113414285D01*
X131354819Y-113414285D02*
X131307200Y-113509523D01*
X131307200Y-113509523D02*
X131259580Y-113557142D01*
X131259580Y-113557142D02*
X131164342Y-113604761D01*
X131164342Y-113604761D02*
X130973866Y-113652380D01*
X130973866Y-113652380D02*
X130735771Y-113652380D01*
X130735771Y-113652380D02*
X130545295Y-113604761D01*
X130545295Y-113604761D02*
X130450057Y-113557142D01*
X130450057Y-113557142D02*
X130402438Y-113509523D01*
X130402438Y-113509523D02*
X130354819Y-113414285D01*
X131259580Y-112652380D02*
X131307200Y-112604761D01*
X131307200Y-112604761D02*
X131354819Y-112652380D01*
X131354819Y-112652380D02*
X131307200Y-112699999D01*
X131307200Y-112699999D02*
X131259580Y-112652380D01*
X131259580Y-112652380D02*
X131354819Y-112652380D01*
X131354819Y-111652381D02*
X131354819Y-112223809D01*
X131354819Y-111938095D02*
X130354819Y-111938095D01*
X130354819Y-111938095D02*
X130497676Y-112033333D01*
X130497676Y-112033333D02*
X130592914Y-112128571D01*
X130592914Y-112128571D02*
X130640533Y-112223809D01*
X130688152Y-111223809D02*
X131688152Y-111223809D01*
X131211961Y-110747619D02*
X131307200Y-110700000D01*
X131307200Y-110700000D02*
X131354819Y-110604762D01*
X131211961Y-111223809D02*
X131307200Y-111176190D01*
X131307200Y-111176190D02*
X131354819Y-111080952D01*
X131354819Y-111080952D02*
X131354819Y-110890476D01*
X131354819Y-110890476D02*
X131307200Y-110795238D01*
X131307200Y-110795238D02*
X131211961Y-110747619D01*
X131211961Y-110747619D02*
X130688152Y-110747619D01*
X130831009Y-109842857D02*
X130831009Y-110176190D01*
X131354819Y-110176190D02*
X130354819Y-110176190D01*
X130354819Y-110176190D02*
X130354819Y-109700000D01*
D12*
X132479530Y-111783333D02*
X132503340Y-111807142D01*
X132503340Y-111807142D02*
X132527149Y-111878571D01*
X132527149Y-111878571D02*
X132527149Y-111926190D01*
X132527149Y-111926190D02*
X132503340Y-111997618D01*
X132503340Y-111997618D02*
X132455720Y-112045237D01*
X132455720Y-112045237D02*
X132408101Y-112069047D01*
X132408101Y-112069047D02*
X132312863Y-112092856D01*
X132312863Y-112092856D02*
X132241435Y-112092856D01*
X132241435Y-112092856D02*
X132146197Y-112069047D01*
X132146197Y-112069047D02*
X132098578Y-112045237D01*
X132098578Y-112045237D02*
X132050959Y-111997618D01*
X132050959Y-111997618D02*
X132027149Y-111926190D01*
X132027149Y-111926190D02*
X132027149Y-111878571D01*
X132027149Y-111878571D02*
X132050959Y-111807142D01*
X132050959Y-111807142D02*
X132074768Y-111783333D01*
X132074768Y-111592856D02*
X132050959Y-111569047D01*
X132050959Y-111569047D02*
X132027149Y-111521428D01*
X132027149Y-111521428D02*
X132027149Y-111402380D01*
X132027149Y-111402380D02*
X132050959Y-111354761D01*
X132050959Y-111354761D02*
X132074768Y-111330952D01*
X132074768Y-111330952D02*
X132122387Y-111307142D01*
X132122387Y-111307142D02*
X132170006Y-111307142D01*
X132170006Y-111307142D02*
X132241435Y-111330952D01*
X132241435Y-111330952D02*
X132527149Y-111616666D01*
X132527149Y-111616666D02*
X132527149Y-111307142D01*
D10*
X172634819Y-112851785D02*
X172634819Y-112756547D01*
X172634819Y-112756547D02*
X172682438Y-112661309D01*
X172682438Y-112661309D02*
X172730057Y-112613690D01*
X172730057Y-112613690D02*
X172825295Y-112566071D01*
X172825295Y-112566071D02*
X173015771Y-112518452D01*
X173015771Y-112518452D02*
X173253866Y-112518452D01*
X173253866Y-112518452D02*
X173444342Y-112566071D01*
X173444342Y-112566071D02*
X173539580Y-112613690D01*
X173539580Y-112613690D02*
X173587200Y-112661309D01*
X173587200Y-112661309D02*
X173634819Y-112756547D01*
X173634819Y-112756547D02*
X173634819Y-112851785D01*
X173634819Y-112851785D02*
X173587200Y-112947023D01*
X173587200Y-112947023D02*
X173539580Y-112994642D01*
X173539580Y-112994642D02*
X173444342Y-113042261D01*
X173444342Y-113042261D02*
X173253866Y-113089880D01*
X173253866Y-113089880D02*
X173015771Y-113089880D01*
X173015771Y-113089880D02*
X172825295Y-113042261D01*
X172825295Y-113042261D02*
X172730057Y-112994642D01*
X172730057Y-112994642D02*
X172682438Y-112947023D01*
X172682438Y-112947023D02*
X172634819Y-112851785D01*
X173539580Y-112089880D02*
X173587200Y-112042261D01*
X173587200Y-112042261D02*
X173634819Y-112089880D01*
X173634819Y-112089880D02*
X173587200Y-112137499D01*
X173587200Y-112137499D02*
X173539580Y-112089880D01*
X173539580Y-112089880D02*
X173634819Y-112089880D01*
X173634819Y-111089881D02*
X173634819Y-111661309D01*
X173634819Y-111375595D02*
X172634819Y-111375595D01*
X172634819Y-111375595D02*
X172777676Y-111470833D01*
X172777676Y-111470833D02*
X172872914Y-111566071D01*
X172872914Y-111566071D02*
X172920533Y-111661309D01*
X172968152Y-110661309D02*
X173968152Y-110661309D01*
X173491961Y-110185119D02*
X173587200Y-110137500D01*
X173587200Y-110137500D02*
X173634819Y-110042262D01*
X173491961Y-110661309D02*
X173587200Y-110613690D01*
X173587200Y-110613690D02*
X173634819Y-110518452D01*
X173634819Y-110518452D02*
X173634819Y-110327976D01*
X173634819Y-110327976D02*
X173587200Y-110232738D01*
X173587200Y-110232738D02*
X173491961Y-110185119D01*
X173491961Y-110185119D02*
X172968152Y-110185119D01*
X173111009Y-109280357D02*
X173111009Y-109613690D01*
X173634819Y-109613690D02*
X172634819Y-109613690D01*
X172634819Y-109613690D02*
X172634819Y-109137500D01*
D12*
X171679530Y-111220833D02*
X171703340Y-111244642D01*
X171703340Y-111244642D02*
X171727149Y-111316071D01*
X171727149Y-111316071D02*
X171727149Y-111363690D01*
X171727149Y-111363690D02*
X171703340Y-111435118D01*
X171703340Y-111435118D02*
X171655720Y-111482737D01*
X171655720Y-111482737D02*
X171608101Y-111506547D01*
X171608101Y-111506547D02*
X171512863Y-111530356D01*
X171512863Y-111530356D02*
X171441435Y-111530356D01*
X171441435Y-111530356D02*
X171346197Y-111506547D01*
X171346197Y-111506547D02*
X171298578Y-111482737D01*
X171298578Y-111482737D02*
X171250959Y-111435118D01*
X171250959Y-111435118D02*
X171227149Y-111363690D01*
X171227149Y-111363690D02*
X171227149Y-111316071D01*
X171227149Y-111316071D02*
X171250959Y-111244642D01*
X171250959Y-111244642D02*
X171274768Y-111220833D01*
X171727149Y-110744642D02*
X171727149Y-111030356D01*
X171727149Y-110887499D02*
X171227149Y-110887499D01*
X171227149Y-110887499D02*
X171298578Y-110935118D01*
X171298578Y-110935118D02*
X171346197Y-110982737D01*
X171346197Y-110982737D02*
X171370006Y-111030356D01*
D10*
X166154819Y-131314285D02*
X166154819Y-131219047D01*
X166154819Y-131219047D02*
X166202438Y-131123809D01*
X166202438Y-131123809D02*
X166250057Y-131076190D01*
X166250057Y-131076190D02*
X166345295Y-131028571D01*
X166345295Y-131028571D02*
X166535771Y-130980952D01*
X166535771Y-130980952D02*
X166773866Y-130980952D01*
X166773866Y-130980952D02*
X166964342Y-131028571D01*
X166964342Y-131028571D02*
X167059580Y-131076190D01*
X167059580Y-131076190D02*
X167107200Y-131123809D01*
X167107200Y-131123809D02*
X167154819Y-131219047D01*
X167154819Y-131219047D02*
X167154819Y-131314285D01*
X167154819Y-131314285D02*
X167107200Y-131409523D01*
X167107200Y-131409523D02*
X167059580Y-131457142D01*
X167059580Y-131457142D02*
X166964342Y-131504761D01*
X166964342Y-131504761D02*
X166773866Y-131552380D01*
X166773866Y-131552380D02*
X166535771Y-131552380D01*
X166535771Y-131552380D02*
X166345295Y-131504761D01*
X166345295Y-131504761D02*
X166250057Y-131457142D01*
X166250057Y-131457142D02*
X166202438Y-131409523D01*
X166202438Y-131409523D02*
X166154819Y-131314285D01*
X167059580Y-130552380D02*
X167107200Y-130504761D01*
X167107200Y-130504761D02*
X167154819Y-130552380D01*
X167154819Y-130552380D02*
X167107200Y-130599999D01*
X167107200Y-130599999D02*
X167059580Y-130552380D01*
X167059580Y-130552380D02*
X167154819Y-130552380D01*
X167154819Y-129552381D02*
X167154819Y-130123809D01*
X167154819Y-129838095D02*
X166154819Y-129838095D01*
X166154819Y-129838095D02*
X166297676Y-129933333D01*
X166297676Y-129933333D02*
X166392914Y-130028571D01*
X166392914Y-130028571D02*
X166440533Y-130123809D01*
X166488152Y-129123809D02*
X167488152Y-129123809D01*
X167011961Y-128647619D02*
X167107200Y-128600000D01*
X167107200Y-128600000D02*
X167154819Y-128504762D01*
X167011961Y-129123809D02*
X167107200Y-129076190D01*
X167107200Y-129076190D02*
X167154819Y-128980952D01*
X167154819Y-128980952D02*
X167154819Y-128790476D01*
X167154819Y-128790476D02*
X167107200Y-128695238D01*
X167107200Y-128695238D02*
X167011961Y-128647619D01*
X167011961Y-128647619D02*
X166488152Y-128647619D01*
X166631009Y-127742857D02*
X166631009Y-128076190D01*
X167154819Y-128076190D02*
X166154819Y-128076190D01*
X166154819Y-128076190D02*
X166154819Y-127600000D01*
D12*
X168479530Y-129921428D02*
X168503340Y-129945237D01*
X168503340Y-129945237D02*
X168527149Y-130016666D01*
X168527149Y-130016666D02*
X168527149Y-130064285D01*
X168527149Y-130064285D02*
X168503340Y-130135713D01*
X168503340Y-130135713D02*
X168455720Y-130183332D01*
X168455720Y-130183332D02*
X168408101Y-130207142D01*
X168408101Y-130207142D02*
X168312863Y-130230951D01*
X168312863Y-130230951D02*
X168241435Y-130230951D01*
X168241435Y-130230951D02*
X168146197Y-130207142D01*
X168146197Y-130207142D02*
X168098578Y-130183332D01*
X168098578Y-130183332D02*
X168050959Y-130135713D01*
X168050959Y-130135713D02*
X168027149Y-130064285D01*
X168027149Y-130064285D02*
X168027149Y-130016666D01*
X168027149Y-130016666D02*
X168050959Y-129945237D01*
X168050959Y-129945237D02*
X168074768Y-129921428D01*
X168527149Y-129445237D02*
X168527149Y-129730951D01*
X168527149Y-129588094D02*
X168027149Y-129588094D01*
X168027149Y-129588094D02*
X168098578Y-129635713D01*
X168098578Y-129635713D02*
X168146197Y-129683332D01*
X168146197Y-129683332D02*
X168170006Y-129730951D01*
X168027149Y-129016666D02*
X168027149Y-129111904D01*
X168027149Y-129111904D02*
X168050959Y-129159523D01*
X168050959Y-129159523D02*
X168074768Y-129183333D01*
X168074768Y-129183333D02*
X168146197Y-129230952D01*
X168146197Y-129230952D02*
X168241435Y-129254761D01*
X168241435Y-129254761D02*
X168431911Y-129254761D01*
X168431911Y-129254761D02*
X168479530Y-129230952D01*
X168479530Y-129230952D02*
X168503340Y-129207142D01*
X168503340Y-129207142D02*
X168527149Y-129159523D01*
X168527149Y-129159523D02*
X168527149Y-129064285D01*
X168527149Y-129064285D02*
X168503340Y-129016666D01*
X168503340Y-129016666D02*
X168479530Y-128992857D01*
X168479530Y-128992857D02*
X168431911Y-128969047D01*
X168431911Y-128969047D02*
X168312863Y-128969047D01*
X168312863Y-128969047D02*
X168265244Y-128992857D01*
X168265244Y-128992857D02*
X168241435Y-129016666D01*
X168241435Y-129016666D02*
X168217625Y-129064285D01*
X168217625Y-129064285D02*
X168217625Y-129159523D01*
X168217625Y-129159523D02*
X168241435Y-129207142D01*
X168241435Y-129207142D02*
X168265244Y-129230952D01*
X168265244Y-129230952D02*
X168312863Y-129254761D01*
D10*
X134454819Y-97468094D02*
X133454819Y-97468094D01*
X133454819Y-97468094D02*
X133454819Y-97229999D01*
X133454819Y-97229999D02*
X133502438Y-97087142D01*
X133502438Y-97087142D02*
X133597676Y-96991904D01*
X133597676Y-96991904D02*
X133692914Y-96944285D01*
X133692914Y-96944285D02*
X133883390Y-96896666D01*
X133883390Y-96896666D02*
X134026247Y-96896666D01*
X134026247Y-96896666D02*
X134216723Y-96944285D01*
X134216723Y-96944285D02*
X134311961Y-96991904D01*
X134311961Y-96991904D02*
X134407200Y-97087142D01*
X134407200Y-97087142D02*
X134454819Y-97229999D01*
X134454819Y-97229999D02*
X134454819Y-97468094D01*
X133550057Y-96515713D02*
X133502438Y-96468094D01*
X133502438Y-96468094D02*
X133454819Y-96372856D01*
X133454819Y-96372856D02*
X133454819Y-96134761D01*
X133454819Y-96134761D02*
X133502438Y-96039523D01*
X133502438Y-96039523D02*
X133550057Y-95991904D01*
X133550057Y-95991904D02*
X133645295Y-95944285D01*
X133645295Y-95944285D02*
X133740533Y-95944285D01*
X133740533Y-95944285D02*
X133883390Y-95991904D01*
X133883390Y-95991904D02*
X134454819Y-96563332D01*
X134454819Y-96563332D02*
X134454819Y-95944285D01*
X168428571Y-123154819D02*
X168238095Y-123154819D01*
X168238095Y-123154819D02*
X168142857Y-123202438D01*
X168142857Y-123202438D02*
X168095238Y-123250057D01*
X168095238Y-123250057D02*
X168000000Y-123392914D01*
X168000000Y-123392914D02*
X167952381Y-123583390D01*
X167952381Y-123583390D02*
X167952381Y-123964342D01*
X167952381Y-123964342D02*
X168000000Y-124059580D01*
X168000000Y-124059580D02*
X168047619Y-124107200D01*
X168047619Y-124107200D02*
X168142857Y-124154819D01*
X168142857Y-124154819D02*
X168333333Y-124154819D01*
X168333333Y-124154819D02*
X168428571Y-124107200D01*
X168428571Y-124107200D02*
X168476190Y-124059580D01*
X168476190Y-124059580D02*
X168523809Y-123964342D01*
X168523809Y-123964342D02*
X168523809Y-123726247D01*
X168523809Y-123726247D02*
X168476190Y-123631009D01*
X168476190Y-123631009D02*
X168428571Y-123583390D01*
X168428571Y-123583390D02*
X168333333Y-123535771D01*
X168333333Y-123535771D02*
X168142857Y-123535771D01*
X168142857Y-123535771D02*
X168047619Y-123583390D01*
X168047619Y-123583390D02*
X168000000Y-123631009D01*
X168000000Y-123631009D02*
X167952381Y-123726247D01*
X168952381Y-124059580D02*
X169000000Y-124107200D01*
X169000000Y-124107200D02*
X168952381Y-124154819D01*
X168952381Y-124154819D02*
X168904762Y-124107200D01*
X168904762Y-124107200D02*
X168952381Y-124059580D01*
X168952381Y-124059580D02*
X168952381Y-124154819D01*
X169571428Y-123583390D02*
X169476190Y-123535771D01*
X169476190Y-123535771D02*
X169428571Y-123488152D01*
X169428571Y-123488152D02*
X169380952Y-123392914D01*
X169380952Y-123392914D02*
X169380952Y-123345295D01*
X169380952Y-123345295D02*
X169428571Y-123250057D01*
X169428571Y-123250057D02*
X169476190Y-123202438D01*
X169476190Y-123202438D02*
X169571428Y-123154819D01*
X169571428Y-123154819D02*
X169761904Y-123154819D01*
X169761904Y-123154819D02*
X169857142Y-123202438D01*
X169857142Y-123202438D02*
X169904761Y-123250057D01*
X169904761Y-123250057D02*
X169952380Y-123345295D01*
X169952380Y-123345295D02*
X169952380Y-123392914D01*
X169952380Y-123392914D02*
X169904761Y-123488152D01*
X169904761Y-123488152D02*
X169857142Y-123535771D01*
X169857142Y-123535771D02*
X169761904Y-123583390D01*
X169761904Y-123583390D02*
X169571428Y-123583390D01*
X169571428Y-123583390D02*
X169476190Y-123631009D01*
X169476190Y-123631009D02*
X169428571Y-123678628D01*
X169428571Y-123678628D02*
X169380952Y-123773866D01*
X169380952Y-123773866D02*
X169380952Y-123964342D01*
X169380952Y-123964342D02*
X169428571Y-124059580D01*
X169428571Y-124059580D02*
X169476190Y-124107200D01*
X169476190Y-124107200D02*
X169571428Y-124154819D01*
X169571428Y-124154819D02*
X169761904Y-124154819D01*
X169761904Y-124154819D02*
X169857142Y-124107200D01*
X169857142Y-124107200D02*
X169904761Y-124059580D01*
X169904761Y-124059580D02*
X169952380Y-123964342D01*
X169952380Y-123964342D02*
X169952380Y-123773866D01*
X169952380Y-123773866D02*
X169904761Y-123678628D01*
X169904761Y-123678628D02*
X169857142Y-123631009D01*
X169857142Y-123631009D02*
X169761904Y-123583390D01*
X170380952Y-123488152D02*
X170380952Y-124488152D01*
X170857142Y-124011961D02*
X170904761Y-124107200D01*
X170904761Y-124107200D02*
X170999999Y-124154819D01*
X170380952Y-124011961D02*
X170428571Y-124107200D01*
X170428571Y-124107200D02*
X170523809Y-124154819D01*
X170523809Y-124154819D02*
X170714285Y-124154819D01*
X170714285Y-124154819D02*
X170809523Y-124107200D01*
X170809523Y-124107200D02*
X170857142Y-124011961D01*
X170857142Y-124011961D02*
X170857142Y-123488152D01*
X171428571Y-124154819D02*
X171428571Y-123154819D01*
X171428571Y-123631009D02*
X171999999Y-123631009D01*
X171999999Y-124154819D02*
X171999999Y-123154819D01*
X169833333Y-122754819D02*
X169357143Y-122754819D01*
X169357143Y-122754819D02*
X169357143Y-121754819D01*
X170119048Y-121850057D02*
X170166667Y-121802438D01*
X170166667Y-121802438D02*
X170261905Y-121754819D01*
X170261905Y-121754819D02*
X170500000Y-121754819D01*
X170500000Y-121754819D02*
X170595238Y-121802438D01*
X170595238Y-121802438D02*
X170642857Y-121850057D01*
X170642857Y-121850057D02*
X170690476Y-121945295D01*
X170690476Y-121945295D02*
X170690476Y-122040533D01*
X170690476Y-122040533D02*
X170642857Y-122183390D01*
X170642857Y-122183390D02*
X170071429Y-122754819D01*
X170071429Y-122754819D02*
X170690476Y-122754819D01*
X128085714Y-116269104D02*
X128561904Y-116269104D01*
X127990476Y-116554819D02*
X128323809Y-115554819D01*
X128323809Y-115554819D02*
X128657142Y-116554819D01*
X128990476Y-116554819D02*
X128990476Y-115554819D01*
X128990476Y-115554819D02*
X129371428Y-115554819D01*
X129371428Y-115554819D02*
X129466666Y-115602438D01*
X129466666Y-115602438D02*
X129514285Y-115650057D01*
X129514285Y-115650057D02*
X129561904Y-115745295D01*
X129561904Y-115745295D02*
X129561904Y-115888152D01*
X129561904Y-115888152D02*
X129514285Y-115983390D01*
X129514285Y-115983390D02*
X129466666Y-116031009D01*
X129466666Y-116031009D02*
X129371428Y-116078628D01*
X129371428Y-116078628D02*
X128990476Y-116078628D01*
X130419047Y-115554819D02*
X130228571Y-115554819D01*
X130228571Y-115554819D02*
X130133333Y-115602438D01*
X130133333Y-115602438D02*
X130085714Y-115650057D01*
X130085714Y-115650057D02*
X129990476Y-115792914D01*
X129990476Y-115792914D02*
X129942857Y-115983390D01*
X129942857Y-115983390D02*
X129942857Y-116364342D01*
X129942857Y-116364342D02*
X129990476Y-116459580D01*
X129990476Y-116459580D02*
X130038095Y-116507200D01*
X130038095Y-116507200D02*
X130133333Y-116554819D01*
X130133333Y-116554819D02*
X130323809Y-116554819D01*
X130323809Y-116554819D02*
X130419047Y-116507200D01*
X130419047Y-116507200D02*
X130466666Y-116459580D01*
X130466666Y-116459580D02*
X130514285Y-116364342D01*
X130514285Y-116364342D02*
X130514285Y-116126247D01*
X130514285Y-116126247D02*
X130466666Y-116031009D01*
X130466666Y-116031009D02*
X130419047Y-115983390D01*
X130419047Y-115983390D02*
X130323809Y-115935771D01*
X130323809Y-115935771D02*
X130133333Y-115935771D01*
X130133333Y-115935771D02*
X130038095Y-115983390D01*
X130038095Y-115983390D02*
X129990476Y-116031009D01*
X129990476Y-116031009D02*
X129942857Y-116126247D01*
X130847619Y-115554819D02*
X131466666Y-115554819D01*
X131466666Y-115554819D02*
X131133333Y-115935771D01*
X131133333Y-115935771D02*
X131276190Y-115935771D01*
X131276190Y-115935771D02*
X131371428Y-115983390D01*
X131371428Y-115983390D02*
X131419047Y-116031009D01*
X131419047Y-116031009D02*
X131466666Y-116126247D01*
X131466666Y-116126247D02*
X131466666Y-116364342D01*
X131466666Y-116364342D02*
X131419047Y-116459580D01*
X131419047Y-116459580D02*
X131371428Y-116507200D01*
X131371428Y-116507200D02*
X131276190Y-116554819D01*
X131276190Y-116554819D02*
X130990476Y-116554819D01*
X130990476Y-116554819D02*
X130895238Y-116507200D01*
X130895238Y-116507200D02*
X130847619Y-116459580D01*
X131847619Y-115650057D02*
X131895238Y-115602438D01*
X131895238Y-115602438D02*
X131990476Y-115554819D01*
X131990476Y-115554819D02*
X132228571Y-115554819D01*
X132228571Y-115554819D02*
X132323809Y-115602438D01*
X132323809Y-115602438D02*
X132371428Y-115650057D01*
X132371428Y-115650057D02*
X132419047Y-115745295D01*
X132419047Y-115745295D02*
X132419047Y-115840533D01*
X132419047Y-115840533D02*
X132371428Y-115983390D01*
X132371428Y-115983390D02*
X131800000Y-116554819D01*
X131800000Y-116554819D02*
X132419047Y-116554819D01*
X133038095Y-115554819D02*
X133133333Y-115554819D01*
X133133333Y-115554819D02*
X133228571Y-115602438D01*
X133228571Y-115602438D02*
X133276190Y-115650057D01*
X133276190Y-115650057D02*
X133323809Y-115745295D01*
X133323809Y-115745295D02*
X133371428Y-115935771D01*
X133371428Y-115935771D02*
X133371428Y-116173866D01*
X133371428Y-116173866D02*
X133323809Y-116364342D01*
X133323809Y-116364342D02*
X133276190Y-116459580D01*
X133276190Y-116459580D02*
X133228571Y-116507200D01*
X133228571Y-116507200D02*
X133133333Y-116554819D01*
X133133333Y-116554819D02*
X133038095Y-116554819D01*
X133038095Y-116554819D02*
X132942857Y-116507200D01*
X132942857Y-116507200D02*
X132895238Y-116459580D01*
X132895238Y-116459580D02*
X132847619Y-116364342D01*
X132847619Y-116364342D02*
X132800000Y-116173866D01*
X132800000Y-116173866D02*
X132800000Y-115935771D01*
X132800000Y-115935771D02*
X132847619Y-115745295D01*
X132847619Y-115745295D02*
X132895238Y-115650057D01*
X132895238Y-115650057D02*
X132942857Y-115602438D01*
X132942857Y-115602438D02*
X133038095Y-115554819D01*
X134323809Y-116554819D02*
X133752381Y-116554819D01*
X134038095Y-116554819D02*
X134038095Y-115554819D01*
X134038095Y-115554819D02*
X133942857Y-115697676D01*
X133942857Y-115697676D02*
X133847619Y-115792914D01*
X133847619Y-115792914D02*
X133752381Y-115840533D01*
X134657143Y-115554819D02*
X134895238Y-116554819D01*
X134895238Y-116554819D02*
X135085714Y-115840533D01*
X135085714Y-115840533D02*
X135276190Y-116554819D01*
X135276190Y-116554819D02*
X135514286Y-115554819D01*
X135895238Y-115554819D02*
X135895238Y-116364342D01*
X135895238Y-116364342D02*
X135942857Y-116459580D01*
X135942857Y-116459580D02*
X135990476Y-116507200D01*
X135990476Y-116507200D02*
X136085714Y-116554819D01*
X136085714Y-116554819D02*
X136276190Y-116554819D01*
X136276190Y-116554819D02*
X136371428Y-116507200D01*
X136371428Y-116507200D02*
X136419047Y-116459580D01*
X136419047Y-116459580D02*
X136466666Y-116364342D01*
X136466666Y-116364342D02*
X136466666Y-115554819D01*
D13*
X132151428Y-115707365D02*
X132151428Y-116290222D01*
X132151428Y-116290222D02*
X132185714Y-116358794D01*
X132185714Y-116358794D02*
X132220000Y-116393080D01*
X132220000Y-116393080D02*
X132288571Y-116427365D01*
X132288571Y-116427365D02*
X132425714Y-116427365D01*
X132425714Y-116427365D02*
X132494285Y-116393080D01*
X132494285Y-116393080D02*
X132528571Y-116358794D01*
X132528571Y-116358794D02*
X132562857Y-116290222D01*
X132562857Y-116290222D02*
X132562857Y-115707365D01*
X132871428Y-115775937D02*
X132905714Y-115741651D01*
X132905714Y-115741651D02*
X132974286Y-115707365D01*
X132974286Y-115707365D02*
X133145714Y-115707365D01*
X133145714Y-115707365D02*
X133214286Y-115741651D01*
X133214286Y-115741651D02*
X133248571Y-115775937D01*
X133248571Y-115775937D02*
X133282857Y-115844508D01*
X133282857Y-115844508D02*
X133282857Y-115913080D01*
X133282857Y-115913080D02*
X133248571Y-116015937D01*
X133248571Y-116015937D02*
X132837143Y-116427365D01*
X132837143Y-116427365D02*
X133282857Y-116427365D01*
D10*
X148976190Y-113594819D02*
X148500000Y-113594819D01*
X148500000Y-113594819D02*
X148500000Y-112594819D01*
X149166667Y-112594819D02*
X149738095Y-112594819D01*
X149452381Y-113594819D02*
X149452381Y-112594819D01*
X149928572Y-112594819D02*
X150261905Y-113594819D01*
X150261905Y-113594819D02*
X150595238Y-112594819D01*
X150928572Y-113213866D02*
X151690477Y-113213866D01*
X152309524Y-113023390D02*
X152214286Y-112975771D01*
X152214286Y-112975771D02*
X152166667Y-112928152D01*
X152166667Y-112928152D02*
X152119048Y-112832914D01*
X152119048Y-112832914D02*
X152119048Y-112785295D01*
X152119048Y-112785295D02*
X152166667Y-112690057D01*
X152166667Y-112690057D02*
X152214286Y-112642438D01*
X152214286Y-112642438D02*
X152309524Y-112594819D01*
X152309524Y-112594819D02*
X152500000Y-112594819D01*
X152500000Y-112594819D02*
X152595238Y-112642438D01*
X152595238Y-112642438D02*
X152642857Y-112690057D01*
X152642857Y-112690057D02*
X152690476Y-112785295D01*
X152690476Y-112785295D02*
X152690476Y-112832914D01*
X152690476Y-112832914D02*
X152642857Y-112928152D01*
X152642857Y-112928152D02*
X152595238Y-112975771D01*
X152595238Y-112975771D02*
X152500000Y-113023390D01*
X152500000Y-113023390D02*
X152309524Y-113023390D01*
X152309524Y-113023390D02*
X152214286Y-113071009D01*
X152214286Y-113071009D02*
X152166667Y-113118628D01*
X152166667Y-113118628D02*
X152119048Y-113213866D01*
X152119048Y-113213866D02*
X152119048Y-113404342D01*
X152119048Y-113404342D02*
X152166667Y-113499580D01*
X152166667Y-113499580D02*
X152214286Y-113547200D01*
X152214286Y-113547200D02*
X152309524Y-113594819D01*
X152309524Y-113594819D02*
X152500000Y-113594819D01*
X152500000Y-113594819D02*
X152595238Y-113547200D01*
X152595238Y-113547200D02*
X152642857Y-113499580D01*
X152642857Y-113499580D02*
X152690476Y-113404342D01*
X152690476Y-113404342D02*
X152690476Y-113213866D01*
X152690476Y-113213866D02*
X152642857Y-113118628D01*
X152642857Y-113118628D02*
X152595238Y-113071009D01*
X152595238Y-113071009D02*
X152500000Y-113023390D01*
X153071429Y-112690057D02*
X153119048Y-112642438D01*
X153119048Y-112642438D02*
X153214286Y-112594819D01*
X153214286Y-112594819D02*
X153452381Y-112594819D01*
X153452381Y-112594819D02*
X153547619Y-112642438D01*
X153547619Y-112642438D02*
X153595238Y-112690057D01*
X153595238Y-112690057D02*
X153642857Y-112785295D01*
X153642857Y-112785295D02*
X153642857Y-112880533D01*
X153642857Y-112880533D02*
X153595238Y-113023390D01*
X153595238Y-113023390D02*
X153023810Y-113594819D01*
X153023810Y-113594819D02*
X153642857Y-113594819D01*
X153976191Y-112594819D02*
X154642857Y-112594819D01*
X154642857Y-112594819D02*
X154214286Y-113594819D01*
X154976191Y-113547200D02*
X155119048Y-113594819D01*
X155119048Y-113594819D02*
X155357143Y-113594819D01*
X155357143Y-113594819D02*
X155452381Y-113547200D01*
X155452381Y-113547200D02*
X155500000Y-113499580D01*
X155500000Y-113499580D02*
X155547619Y-113404342D01*
X155547619Y-113404342D02*
X155547619Y-113309104D01*
X155547619Y-113309104D02*
X155500000Y-113213866D01*
X155500000Y-113213866D02*
X155452381Y-113166247D01*
X155452381Y-113166247D02*
X155357143Y-113118628D01*
X155357143Y-113118628D02*
X155166667Y-113071009D01*
X155166667Y-113071009D02*
X155071429Y-113023390D01*
X155071429Y-113023390D02*
X155023810Y-112975771D01*
X155023810Y-112975771D02*
X154976191Y-112880533D01*
X154976191Y-112880533D02*
X154976191Y-112785295D01*
X154976191Y-112785295D02*
X155023810Y-112690057D01*
X155023810Y-112690057D02*
X155071429Y-112642438D01*
X155071429Y-112642438D02*
X155166667Y-112594819D01*
X155166667Y-112594819D02*
X155404762Y-112594819D01*
X155404762Y-112594819D02*
X155547619Y-112642438D01*
X151454819Y-107761904D02*
X152264342Y-107761904D01*
X152264342Y-107761904D02*
X152359580Y-107714285D01*
X152359580Y-107714285D02*
X152407200Y-107666666D01*
X152407200Y-107666666D02*
X152454819Y-107571428D01*
X152454819Y-107571428D02*
X152454819Y-107380952D01*
X152454819Y-107380952D02*
X152407200Y-107285714D01*
X152407200Y-107285714D02*
X152359580Y-107238095D01*
X152359580Y-107238095D02*
X152264342Y-107190476D01*
X152264342Y-107190476D02*
X151454819Y-107190476D01*
X151454819Y-106809523D02*
X151454819Y-106190476D01*
X151454819Y-106190476D02*
X151835771Y-106523809D01*
X151835771Y-106523809D02*
X151835771Y-106380952D01*
X151835771Y-106380952D02*
X151883390Y-106285714D01*
X151883390Y-106285714D02*
X151931009Y-106238095D01*
X151931009Y-106238095D02*
X152026247Y-106190476D01*
X152026247Y-106190476D02*
X152264342Y-106190476D01*
X152264342Y-106190476D02*
X152359580Y-106238095D01*
X152359580Y-106238095D02*
X152407200Y-106285714D01*
X152407200Y-106285714D02*
X152454819Y-106380952D01*
X152454819Y-106380952D02*
X152454819Y-106666666D01*
X152454819Y-106666666D02*
X152407200Y-106761904D01*
X152407200Y-106761904D02*
X152359580Y-106809523D01*
X167204819Y-112342857D02*
X167204819Y-112914285D01*
X167204819Y-112628571D02*
X166204819Y-112628571D01*
X166204819Y-112628571D02*
X166347676Y-112723809D01*
X166347676Y-112723809D02*
X166442914Y-112819047D01*
X166442914Y-112819047D02*
X166490533Y-112914285D01*
X166204819Y-111723809D02*
X166204819Y-111628571D01*
X166204819Y-111628571D02*
X166252438Y-111533333D01*
X166252438Y-111533333D02*
X166300057Y-111485714D01*
X166300057Y-111485714D02*
X166395295Y-111438095D01*
X166395295Y-111438095D02*
X166585771Y-111390476D01*
X166585771Y-111390476D02*
X166823866Y-111390476D01*
X166823866Y-111390476D02*
X167014342Y-111438095D01*
X167014342Y-111438095D02*
X167109580Y-111485714D01*
X167109580Y-111485714D02*
X167157200Y-111533333D01*
X167157200Y-111533333D02*
X167204819Y-111628571D01*
X167204819Y-111628571D02*
X167204819Y-111723809D01*
X167204819Y-111723809D02*
X167157200Y-111819047D01*
X167157200Y-111819047D02*
X167109580Y-111866666D01*
X167109580Y-111866666D02*
X167014342Y-111914285D01*
X167014342Y-111914285D02*
X166823866Y-111961904D01*
X166823866Y-111961904D02*
X166585771Y-111961904D01*
X166585771Y-111961904D02*
X166395295Y-111914285D01*
X166395295Y-111914285D02*
X166300057Y-111866666D01*
X166300057Y-111866666D02*
X166252438Y-111819047D01*
X166252438Y-111819047D02*
X166204819Y-111723809D01*
X166538152Y-110961904D02*
X167538152Y-110961904D01*
X167061961Y-110485714D02*
X167157200Y-110438095D01*
X167157200Y-110438095D02*
X167204819Y-110342857D01*
X167061961Y-110961904D02*
X167157200Y-110914285D01*
X167157200Y-110914285D02*
X167204819Y-110819047D01*
X167204819Y-110819047D02*
X167204819Y-110628571D01*
X167204819Y-110628571D02*
X167157200Y-110533333D01*
X167157200Y-110533333D02*
X167061961Y-110485714D01*
X167061961Y-110485714D02*
X166538152Y-110485714D01*
X166681009Y-109580952D02*
X166681009Y-109914285D01*
X167204819Y-109914285D02*
X166204819Y-109914285D01*
X166204819Y-109914285D02*
X166204819Y-109438095D01*
D11*
X168887664Y-111333332D02*
X168925760Y-111371428D01*
X168925760Y-111371428D02*
X168963855Y-111485713D01*
X168963855Y-111485713D02*
X168963855Y-111561904D01*
X168963855Y-111561904D02*
X168925760Y-111676190D01*
X168925760Y-111676190D02*
X168849569Y-111752380D01*
X168849569Y-111752380D02*
X168773379Y-111790475D01*
X168773379Y-111790475D02*
X168620998Y-111828571D01*
X168620998Y-111828571D02*
X168506712Y-111828571D01*
X168506712Y-111828571D02*
X168354331Y-111790475D01*
X168354331Y-111790475D02*
X168278140Y-111752380D01*
X168278140Y-111752380D02*
X168201950Y-111676190D01*
X168201950Y-111676190D02*
X168163855Y-111561904D01*
X168163855Y-111561904D02*
X168163855Y-111485713D01*
X168163855Y-111485713D02*
X168201950Y-111371428D01*
X168201950Y-111371428D02*
X168240045Y-111333332D01*
X168163855Y-111066666D02*
X168163855Y-110571428D01*
X168163855Y-110571428D02*
X168468617Y-110838094D01*
X168468617Y-110838094D02*
X168468617Y-110723809D01*
X168468617Y-110723809D02*
X168506712Y-110647618D01*
X168506712Y-110647618D02*
X168544807Y-110609523D01*
X168544807Y-110609523D02*
X168620998Y-110571428D01*
X168620998Y-110571428D02*
X168811474Y-110571428D01*
X168811474Y-110571428D02*
X168887664Y-110609523D01*
X168887664Y-110609523D02*
X168925760Y-110647618D01*
X168925760Y-110647618D02*
X168963855Y-110723809D01*
X168963855Y-110723809D02*
X168963855Y-110952380D01*
X168963855Y-110952380D02*
X168925760Y-111028571D01*
X168925760Y-111028571D02*
X168887664Y-111066666D01*
D10*
X138485714Y-122850057D02*
X138533333Y-122802438D01*
X138533333Y-122802438D02*
X138628571Y-122754819D01*
X138628571Y-122754819D02*
X138866666Y-122754819D01*
X138866666Y-122754819D02*
X138961904Y-122802438D01*
X138961904Y-122802438D02*
X139009523Y-122850057D01*
X139009523Y-122850057D02*
X139057142Y-122945295D01*
X139057142Y-122945295D02*
X139057142Y-123040533D01*
X139057142Y-123040533D02*
X139009523Y-123183390D01*
X139009523Y-123183390D02*
X138438095Y-123754819D01*
X138438095Y-123754819D02*
X139057142Y-123754819D01*
X139438095Y-122850057D02*
X139485714Y-122802438D01*
X139485714Y-122802438D02*
X139580952Y-122754819D01*
X139580952Y-122754819D02*
X139819047Y-122754819D01*
X139819047Y-122754819D02*
X139914285Y-122802438D01*
X139914285Y-122802438D02*
X139961904Y-122850057D01*
X139961904Y-122850057D02*
X140009523Y-122945295D01*
X140009523Y-122945295D02*
X140009523Y-123040533D01*
X140009523Y-123040533D02*
X139961904Y-123183390D01*
X139961904Y-123183390D02*
X139390476Y-123754819D01*
X139390476Y-123754819D02*
X140009523Y-123754819D01*
X140438095Y-123088152D02*
X140438095Y-124088152D01*
X140914285Y-123611961D02*
X140961904Y-123707200D01*
X140961904Y-123707200D02*
X141057142Y-123754819D01*
X140438095Y-123611961D02*
X140485714Y-123707200D01*
X140485714Y-123707200D02*
X140580952Y-123754819D01*
X140580952Y-123754819D02*
X140771428Y-123754819D01*
X140771428Y-123754819D02*
X140866666Y-123707200D01*
X140866666Y-123707200D02*
X140914285Y-123611961D01*
X140914285Y-123611961D02*
X140914285Y-123088152D01*
X141819047Y-123231009D02*
X141485714Y-123231009D01*
X141485714Y-123754819D02*
X141485714Y-122754819D01*
X141485714Y-122754819D02*
X141961904Y-122754819D01*
D11*
X139685714Y-125787664D02*
X139647618Y-125825760D01*
X139647618Y-125825760D02*
X139533333Y-125863855D01*
X139533333Y-125863855D02*
X139457142Y-125863855D01*
X139457142Y-125863855D02*
X139342856Y-125825760D01*
X139342856Y-125825760D02*
X139266666Y-125749569D01*
X139266666Y-125749569D02*
X139228571Y-125673379D01*
X139228571Y-125673379D02*
X139190475Y-125520998D01*
X139190475Y-125520998D02*
X139190475Y-125406712D01*
X139190475Y-125406712D02*
X139228571Y-125254331D01*
X139228571Y-125254331D02*
X139266666Y-125178140D01*
X139266666Y-125178140D02*
X139342856Y-125101950D01*
X139342856Y-125101950D02*
X139457142Y-125063855D01*
X139457142Y-125063855D02*
X139533333Y-125063855D01*
X139533333Y-125063855D02*
X139647618Y-125101950D01*
X139647618Y-125101950D02*
X139685714Y-125140045D01*
X140447618Y-125863855D02*
X139990475Y-125863855D01*
X140219047Y-125863855D02*
X140219047Y-125063855D01*
X140219047Y-125063855D02*
X140142856Y-125178140D01*
X140142856Y-125178140D02*
X140066666Y-125254331D01*
X140066666Y-125254331D02*
X139990475Y-125292426D01*
X140752380Y-125140045D02*
X140790476Y-125101950D01*
X140790476Y-125101950D02*
X140866666Y-125063855D01*
X140866666Y-125063855D02*
X141057142Y-125063855D01*
X141057142Y-125063855D02*
X141133333Y-125101950D01*
X141133333Y-125101950D02*
X141171428Y-125140045D01*
X141171428Y-125140045D02*
X141209523Y-125216236D01*
X141209523Y-125216236D02*
X141209523Y-125292426D01*
X141209523Y-125292426D02*
X141171428Y-125406712D01*
X141171428Y-125406712D02*
X140714285Y-125863855D01*
X140714285Y-125863855D02*
X141209523Y-125863855D01*
D10*
X134174819Y-131414285D02*
X134174819Y-131319047D01*
X134174819Y-131319047D02*
X134222438Y-131223809D01*
X134222438Y-131223809D02*
X134270057Y-131176190D01*
X134270057Y-131176190D02*
X134365295Y-131128571D01*
X134365295Y-131128571D02*
X134555771Y-131080952D01*
X134555771Y-131080952D02*
X134793866Y-131080952D01*
X134793866Y-131080952D02*
X134984342Y-131128571D01*
X134984342Y-131128571D02*
X135079580Y-131176190D01*
X135079580Y-131176190D02*
X135127200Y-131223809D01*
X135127200Y-131223809D02*
X135174819Y-131319047D01*
X135174819Y-131319047D02*
X135174819Y-131414285D01*
X135174819Y-131414285D02*
X135127200Y-131509523D01*
X135127200Y-131509523D02*
X135079580Y-131557142D01*
X135079580Y-131557142D02*
X134984342Y-131604761D01*
X134984342Y-131604761D02*
X134793866Y-131652380D01*
X134793866Y-131652380D02*
X134555771Y-131652380D01*
X134555771Y-131652380D02*
X134365295Y-131604761D01*
X134365295Y-131604761D02*
X134270057Y-131557142D01*
X134270057Y-131557142D02*
X134222438Y-131509523D01*
X134222438Y-131509523D02*
X134174819Y-131414285D01*
X135079580Y-130652380D02*
X135127200Y-130604761D01*
X135127200Y-130604761D02*
X135174819Y-130652380D01*
X135174819Y-130652380D02*
X135127200Y-130699999D01*
X135127200Y-130699999D02*
X135079580Y-130652380D01*
X135079580Y-130652380D02*
X135174819Y-130652380D01*
X135174819Y-129652381D02*
X135174819Y-130223809D01*
X135174819Y-129938095D02*
X134174819Y-129938095D01*
X134174819Y-129938095D02*
X134317676Y-130033333D01*
X134317676Y-130033333D02*
X134412914Y-130128571D01*
X134412914Y-130128571D02*
X134460533Y-130223809D01*
X134508152Y-129223809D02*
X135508152Y-129223809D01*
X135031961Y-128747619D02*
X135127200Y-128700000D01*
X135127200Y-128700000D02*
X135174819Y-128604762D01*
X135031961Y-129223809D02*
X135127200Y-129176190D01*
X135127200Y-129176190D02*
X135174819Y-129080952D01*
X135174819Y-129080952D02*
X135174819Y-128890476D01*
X135174819Y-128890476D02*
X135127200Y-128795238D01*
X135127200Y-128795238D02*
X135031961Y-128747619D01*
X135031961Y-128747619D02*
X134508152Y-128747619D01*
X134651009Y-127842857D02*
X134651009Y-128176190D01*
X135174819Y-128176190D02*
X134174819Y-128176190D01*
X134174819Y-128176190D02*
X134174819Y-127700000D01*
D12*
X136579530Y-130021428D02*
X136603340Y-130045237D01*
X136603340Y-130045237D02*
X136627149Y-130116666D01*
X136627149Y-130116666D02*
X136627149Y-130164285D01*
X136627149Y-130164285D02*
X136603340Y-130235713D01*
X136603340Y-130235713D02*
X136555720Y-130283332D01*
X136555720Y-130283332D02*
X136508101Y-130307142D01*
X136508101Y-130307142D02*
X136412863Y-130330951D01*
X136412863Y-130330951D02*
X136341435Y-130330951D01*
X136341435Y-130330951D02*
X136246197Y-130307142D01*
X136246197Y-130307142D02*
X136198578Y-130283332D01*
X136198578Y-130283332D02*
X136150959Y-130235713D01*
X136150959Y-130235713D02*
X136127149Y-130164285D01*
X136127149Y-130164285D02*
X136127149Y-130116666D01*
X136127149Y-130116666D02*
X136150959Y-130045237D01*
X136150959Y-130045237D02*
X136174768Y-130021428D01*
X136627149Y-129545237D02*
X136627149Y-129830951D01*
X136627149Y-129688094D02*
X136127149Y-129688094D01*
X136127149Y-129688094D02*
X136198578Y-129735713D01*
X136198578Y-129735713D02*
X136246197Y-129783332D01*
X136246197Y-129783332D02*
X136270006Y-129830951D01*
X136127149Y-129092857D02*
X136127149Y-129330952D01*
X136127149Y-129330952D02*
X136365244Y-129354761D01*
X136365244Y-129354761D02*
X136341435Y-129330952D01*
X136341435Y-129330952D02*
X136317625Y-129283333D01*
X136317625Y-129283333D02*
X136317625Y-129164285D01*
X136317625Y-129164285D02*
X136341435Y-129116666D01*
X136341435Y-129116666D02*
X136365244Y-129092857D01*
X136365244Y-129092857D02*
X136412863Y-129069047D01*
X136412863Y-129069047D02*
X136531911Y-129069047D01*
X136531911Y-129069047D02*
X136579530Y-129092857D01*
X136579530Y-129092857D02*
X136603340Y-129116666D01*
X136603340Y-129116666D02*
X136627149Y-129164285D01*
X136627149Y-129164285D02*
X136627149Y-129283333D01*
X136627149Y-129283333D02*
X136603340Y-129330952D01*
X136603340Y-129330952D02*
X136579530Y-129354761D01*
D10*
X172654819Y-117914285D02*
X172654819Y-117819047D01*
X172654819Y-117819047D02*
X172702438Y-117723809D01*
X172702438Y-117723809D02*
X172750057Y-117676190D01*
X172750057Y-117676190D02*
X172845295Y-117628571D01*
X172845295Y-117628571D02*
X173035771Y-117580952D01*
X173035771Y-117580952D02*
X173273866Y-117580952D01*
X173273866Y-117580952D02*
X173464342Y-117628571D01*
X173464342Y-117628571D02*
X173559580Y-117676190D01*
X173559580Y-117676190D02*
X173607200Y-117723809D01*
X173607200Y-117723809D02*
X173654819Y-117819047D01*
X173654819Y-117819047D02*
X173654819Y-117914285D01*
X173654819Y-117914285D02*
X173607200Y-118009523D01*
X173607200Y-118009523D02*
X173559580Y-118057142D01*
X173559580Y-118057142D02*
X173464342Y-118104761D01*
X173464342Y-118104761D02*
X173273866Y-118152380D01*
X173273866Y-118152380D02*
X173035771Y-118152380D01*
X173035771Y-118152380D02*
X172845295Y-118104761D01*
X172845295Y-118104761D02*
X172750057Y-118057142D01*
X172750057Y-118057142D02*
X172702438Y-118009523D01*
X172702438Y-118009523D02*
X172654819Y-117914285D01*
X173559580Y-117152380D02*
X173607200Y-117104761D01*
X173607200Y-117104761D02*
X173654819Y-117152380D01*
X173654819Y-117152380D02*
X173607200Y-117199999D01*
X173607200Y-117199999D02*
X173559580Y-117152380D01*
X173559580Y-117152380D02*
X173654819Y-117152380D01*
X173654819Y-116152381D02*
X173654819Y-116723809D01*
X173654819Y-116438095D02*
X172654819Y-116438095D01*
X172654819Y-116438095D02*
X172797676Y-116533333D01*
X172797676Y-116533333D02*
X172892914Y-116628571D01*
X172892914Y-116628571D02*
X172940533Y-116723809D01*
X172988152Y-115723809D02*
X173988152Y-115723809D01*
X173511961Y-115247619D02*
X173607200Y-115200000D01*
X173607200Y-115200000D02*
X173654819Y-115104762D01*
X173511961Y-115723809D02*
X173607200Y-115676190D01*
X173607200Y-115676190D02*
X173654819Y-115580952D01*
X173654819Y-115580952D02*
X173654819Y-115390476D01*
X173654819Y-115390476D02*
X173607200Y-115295238D01*
X173607200Y-115295238D02*
X173511961Y-115247619D01*
X173511961Y-115247619D02*
X172988152Y-115247619D01*
X173131009Y-114342857D02*
X173131009Y-114676190D01*
X173654819Y-114676190D02*
X172654819Y-114676190D01*
X172654819Y-114676190D02*
X172654819Y-114200000D01*
D12*
X172379530Y-116283333D02*
X172403340Y-116307142D01*
X172403340Y-116307142D02*
X172427149Y-116378571D01*
X172427149Y-116378571D02*
X172427149Y-116426190D01*
X172427149Y-116426190D02*
X172403340Y-116497618D01*
X172403340Y-116497618D02*
X172355720Y-116545237D01*
X172355720Y-116545237D02*
X172308101Y-116569047D01*
X172308101Y-116569047D02*
X172212863Y-116592856D01*
X172212863Y-116592856D02*
X172141435Y-116592856D01*
X172141435Y-116592856D02*
X172046197Y-116569047D01*
X172046197Y-116569047D02*
X171998578Y-116545237D01*
X171998578Y-116545237D02*
X171950959Y-116497618D01*
X171950959Y-116497618D02*
X171927149Y-116426190D01*
X171927149Y-116426190D02*
X171927149Y-116378571D01*
X171927149Y-116378571D02*
X171950959Y-116307142D01*
X171950959Y-116307142D02*
X171974768Y-116283333D01*
X171927149Y-115854761D02*
X171927149Y-115949999D01*
X171927149Y-115949999D02*
X171950959Y-115997618D01*
X171950959Y-115997618D02*
X171974768Y-116021428D01*
X171974768Y-116021428D02*
X172046197Y-116069047D01*
X172046197Y-116069047D02*
X172141435Y-116092856D01*
X172141435Y-116092856D02*
X172331911Y-116092856D01*
X172331911Y-116092856D02*
X172379530Y-116069047D01*
X172379530Y-116069047D02*
X172403340Y-116045237D01*
X172403340Y-116045237D02*
X172427149Y-115997618D01*
X172427149Y-115997618D02*
X172427149Y-115902380D01*
X172427149Y-115902380D02*
X172403340Y-115854761D01*
X172403340Y-115854761D02*
X172379530Y-115830952D01*
X172379530Y-115830952D02*
X172331911Y-115807142D01*
X172331911Y-115807142D02*
X172212863Y-115807142D01*
X172212863Y-115807142D02*
X172165244Y-115830952D01*
X172165244Y-115830952D02*
X172141435Y-115854761D01*
X172141435Y-115854761D02*
X172117625Y-115902380D01*
X172117625Y-115902380D02*
X172117625Y-115997618D01*
X172117625Y-115997618D02*
X172141435Y-116045237D01*
X172141435Y-116045237D02*
X172165244Y-116069047D01*
X172165244Y-116069047D02*
X172212863Y-116092856D01*
D10*
X155804819Y-100166666D02*
X155804819Y-100738094D01*
X155804819Y-100452380D02*
X154804819Y-100452380D01*
X154804819Y-100452380D02*
X154947676Y-100547618D01*
X154947676Y-100547618D02*
X155042914Y-100642856D01*
X155042914Y-100642856D02*
X155090533Y-100738094D01*
X154804819Y-99547618D02*
X154804819Y-99452380D01*
X154804819Y-99452380D02*
X154852438Y-99357142D01*
X154852438Y-99357142D02*
X154900057Y-99309523D01*
X154900057Y-99309523D02*
X154995295Y-99261904D01*
X154995295Y-99261904D02*
X155185771Y-99214285D01*
X155185771Y-99214285D02*
X155423866Y-99214285D01*
X155423866Y-99214285D02*
X155614342Y-99261904D01*
X155614342Y-99261904D02*
X155709580Y-99309523D01*
X155709580Y-99309523D02*
X155757200Y-99357142D01*
X155757200Y-99357142D02*
X155804819Y-99452380D01*
X155804819Y-99452380D02*
X155804819Y-99547618D01*
X155804819Y-99547618D02*
X155757200Y-99642856D01*
X155757200Y-99642856D02*
X155709580Y-99690475D01*
X155709580Y-99690475D02*
X155614342Y-99738094D01*
X155614342Y-99738094D02*
X155423866Y-99785713D01*
X155423866Y-99785713D02*
X155185771Y-99785713D01*
X155185771Y-99785713D02*
X154995295Y-99738094D01*
X154995295Y-99738094D02*
X154900057Y-99690475D01*
X154900057Y-99690475D02*
X154852438Y-99642856D01*
X154852438Y-99642856D02*
X154804819Y-99547618D01*
X155804819Y-98785713D02*
X154804819Y-98785713D01*
X155423866Y-98690475D02*
X155804819Y-98404761D01*
X155138152Y-98404761D02*
X155519104Y-98785713D01*
X155804819Y-98023808D02*
X155804819Y-97785713D01*
X155804819Y-97785713D02*
X155614342Y-97785713D01*
X155614342Y-97785713D02*
X155566723Y-97880951D01*
X155566723Y-97880951D02*
X155471485Y-97976189D01*
X155471485Y-97976189D02*
X155328628Y-98023808D01*
X155328628Y-98023808D02*
X155090533Y-98023808D01*
X155090533Y-98023808D02*
X154947676Y-97976189D01*
X154947676Y-97976189D02*
X154852438Y-97880951D01*
X154852438Y-97880951D02*
X154804819Y-97738094D01*
X154804819Y-97738094D02*
X154804819Y-97547618D01*
X154804819Y-97547618D02*
X154852438Y-97404761D01*
X154852438Y-97404761D02*
X154947676Y-97309523D01*
X154947676Y-97309523D02*
X155090533Y-97261904D01*
X155090533Y-97261904D02*
X155328628Y-97261904D01*
X155328628Y-97261904D02*
X155471485Y-97309523D01*
X155471485Y-97309523D02*
X155566723Y-97404761D01*
X155566723Y-97404761D02*
X155614342Y-97499999D01*
X155614342Y-97499999D02*
X155804819Y-97499999D01*
X155804819Y-97499999D02*
X155804819Y-97261904D01*
D12*
X157227149Y-99321428D02*
X156989054Y-99488094D01*
X157227149Y-99607142D02*
X156727149Y-99607142D01*
X156727149Y-99607142D02*
X156727149Y-99416666D01*
X156727149Y-99416666D02*
X156750959Y-99369047D01*
X156750959Y-99369047D02*
X156774768Y-99345237D01*
X156774768Y-99345237D02*
X156822387Y-99321428D01*
X156822387Y-99321428D02*
X156893816Y-99321428D01*
X156893816Y-99321428D02*
X156941435Y-99345237D01*
X156941435Y-99345237D02*
X156965244Y-99369047D01*
X156965244Y-99369047D02*
X156989054Y-99416666D01*
X156989054Y-99416666D02*
X156989054Y-99607142D01*
X157227149Y-98845237D02*
X157227149Y-99130951D01*
X157227149Y-98988094D02*
X156727149Y-98988094D01*
X156727149Y-98988094D02*
X156798578Y-99035713D01*
X156798578Y-99035713D02*
X156846197Y-99083332D01*
X156846197Y-99083332D02*
X156870006Y-99130951D01*
X156774768Y-98654761D02*
X156750959Y-98630952D01*
X156750959Y-98630952D02*
X156727149Y-98583333D01*
X156727149Y-98583333D02*
X156727149Y-98464285D01*
X156727149Y-98464285D02*
X156750959Y-98416666D01*
X156750959Y-98416666D02*
X156774768Y-98392857D01*
X156774768Y-98392857D02*
X156822387Y-98369047D01*
X156822387Y-98369047D02*
X156870006Y-98369047D01*
X156870006Y-98369047D02*
X156941435Y-98392857D01*
X156941435Y-98392857D02*
X157227149Y-98678571D01*
X157227149Y-98678571D02*
X157227149Y-98369047D01*
D10*
X162104819Y-110166666D02*
X162104819Y-110738094D01*
X162104819Y-110452380D02*
X161104819Y-110452380D01*
X161104819Y-110452380D02*
X161247676Y-110547618D01*
X161247676Y-110547618D02*
X161342914Y-110642856D01*
X161342914Y-110642856D02*
X161390533Y-110738094D01*
X161104819Y-109547618D02*
X161104819Y-109452380D01*
X161104819Y-109452380D02*
X161152438Y-109357142D01*
X161152438Y-109357142D02*
X161200057Y-109309523D01*
X161200057Y-109309523D02*
X161295295Y-109261904D01*
X161295295Y-109261904D02*
X161485771Y-109214285D01*
X161485771Y-109214285D02*
X161723866Y-109214285D01*
X161723866Y-109214285D02*
X161914342Y-109261904D01*
X161914342Y-109261904D02*
X162009580Y-109309523D01*
X162009580Y-109309523D02*
X162057200Y-109357142D01*
X162057200Y-109357142D02*
X162104819Y-109452380D01*
X162104819Y-109452380D02*
X162104819Y-109547618D01*
X162104819Y-109547618D02*
X162057200Y-109642856D01*
X162057200Y-109642856D02*
X162009580Y-109690475D01*
X162009580Y-109690475D02*
X161914342Y-109738094D01*
X161914342Y-109738094D02*
X161723866Y-109785713D01*
X161723866Y-109785713D02*
X161485771Y-109785713D01*
X161485771Y-109785713D02*
X161295295Y-109738094D01*
X161295295Y-109738094D02*
X161200057Y-109690475D01*
X161200057Y-109690475D02*
X161152438Y-109642856D01*
X161152438Y-109642856D02*
X161104819Y-109547618D01*
X162104819Y-108785713D02*
X161104819Y-108785713D01*
X161723866Y-108690475D02*
X162104819Y-108404761D01*
X161438152Y-108404761D02*
X161819104Y-108785713D01*
X162104819Y-108023808D02*
X162104819Y-107785713D01*
X162104819Y-107785713D02*
X161914342Y-107785713D01*
X161914342Y-107785713D02*
X161866723Y-107880951D01*
X161866723Y-107880951D02*
X161771485Y-107976189D01*
X161771485Y-107976189D02*
X161628628Y-108023808D01*
X161628628Y-108023808D02*
X161390533Y-108023808D01*
X161390533Y-108023808D02*
X161247676Y-107976189D01*
X161247676Y-107976189D02*
X161152438Y-107880951D01*
X161152438Y-107880951D02*
X161104819Y-107738094D01*
X161104819Y-107738094D02*
X161104819Y-107547618D01*
X161104819Y-107547618D02*
X161152438Y-107404761D01*
X161152438Y-107404761D02*
X161247676Y-107309523D01*
X161247676Y-107309523D02*
X161390533Y-107261904D01*
X161390533Y-107261904D02*
X161628628Y-107261904D01*
X161628628Y-107261904D02*
X161771485Y-107309523D01*
X161771485Y-107309523D02*
X161866723Y-107404761D01*
X161866723Y-107404761D02*
X161914342Y-107499999D01*
X161914342Y-107499999D02*
X162104819Y-107499999D01*
X162104819Y-107499999D02*
X162104819Y-107261904D01*
D12*
X160227149Y-109321428D02*
X159989054Y-109488094D01*
X160227149Y-109607142D02*
X159727149Y-109607142D01*
X159727149Y-109607142D02*
X159727149Y-109416666D01*
X159727149Y-109416666D02*
X159750959Y-109369047D01*
X159750959Y-109369047D02*
X159774768Y-109345237D01*
X159774768Y-109345237D02*
X159822387Y-109321428D01*
X159822387Y-109321428D02*
X159893816Y-109321428D01*
X159893816Y-109321428D02*
X159941435Y-109345237D01*
X159941435Y-109345237D02*
X159965244Y-109369047D01*
X159965244Y-109369047D02*
X159989054Y-109416666D01*
X159989054Y-109416666D02*
X159989054Y-109607142D01*
X160227149Y-108845237D02*
X160227149Y-109130951D01*
X160227149Y-108988094D02*
X159727149Y-108988094D01*
X159727149Y-108988094D02*
X159798578Y-109035713D01*
X159798578Y-109035713D02*
X159846197Y-109083332D01*
X159846197Y-109083332D02*
X159870006Y-109130951D01*
X159727149Y-108678571D02*
X159727149Y-108369047D01*
X159727149Y-108369047D02*
X159917625Y-108535714D01*
X159917625Y-108535714D02*
X159917625Y-108464285D01*
X159917625Y-108464285D02*
X159941435Y-108416666D01*
X159941435Y-108416666D02*
X159965244Y-108392857D01*
X159965244Y-108392857D02*
X160012863Y-108369047D01*
X160012863Y-108369047D02*
X160131911Y-108369047D01*
X160131911Y-108369047D02*
X160179530Y-108392857D01*
X160179530Y-108392857D02*
X160203340Y-108416666D01*
X160203340Y-108416666D02*
X160227149Y-108464285D01*
X160227149Y-108464285D02*
X160227149Y-108607142D01*
X160227149Y-108607142D02*
X160203340Y-108654761D01*
X160203340Y-108654761D02*
X160179530Y-108678571D01*
D10*
X158154819Y-138761905D02*
X158869104Y-138761905D01*
X158869104Y-138761905D02*
X159011961Y-138809524D01*
X159011961Y-138809524D02*
X159107200Y-138904762D01*
X159107200Y-138904762D02*
X159154819Y-139047619D01*
X159154819Y-139047619D02*
X159154819Y-139142857D01*
X158488152Y-137857143D02*
X159154819Y-137857143D01*
X158488152Y-138285714D02*
X159011961Y-138285714D01*
X159011961Y-138285714D02*
X159107200Y-138238095D01*
X159107200Y-138238095D02*
X159154819Y-138142857D01*
X159154819Y-138142857D02*
X159154819Y-138000000D01*
X159154819Y-138000000D02*
X159107200Y-137904762D01*
X159107200Y-137904762D02*
X159059580Y-137857143D01*
X159154819Y-137380952D02*
X158488152Y-137380952D01*
X158583390Y-137380952D02*
X158535771Y-137333333D01*
X158535771Y-137333333D02*
X158488152Y-137238095D01*
X158488152Y-137238095D02*
X158488152Y-137095238D01*
X158488152Y-137095238D02*
X158535771Y-137000000D01*
X158535771Y-137000000D02*
X158631009Y-136952381D01*
X158631009Y-136952381D02*
X159154819Y-136952381D01*
X158631009Y-136952381D02*
X158535771Y-136904762D01*
X158535771Y-136904762D02*
X158488152Y-136809524D01*
X158488152Y-136809524D02*
X158488152Y-136666667D01*
X158488152Y-136666667D02*
X158535771Y-136571428D01*
X158535771Y-136571428D02*
X158631009Y-136523809D01*
X158631009Y-136523809D02*
X159154819Y-136523809D01*
X158488152Y-136047619D02*
X159488152Y-136047619D01*
X158535771Y-136047619D02*
X158488152Y-135952381D01*
X158488152Y-135952381D02*
X158488152Y-135761905D01*
X158488152Y-135761905D02*
X158535771Y-135666667D01*
X158535771Y-135666667D02*
X158583390Y-135619048D01*
X158583390Y-135619048D02*
X158678628Y-135571429D01*
X158678628Y-135571429D02*
X158964342Y-135571429D01*
X158964342Y-135571429D02*
X159059580Y-135619048D01*
X159059580Y-135619048D02*
X159107200Y-135666667D01*
X159107200Y-135666667D02*
X159154819Y-135761905D01*
X159154819Y-135761905D02*
X159154819Y-135952381D01*
X159154819Y-135952381D02*
X159107200Y-136047619D01*
X159107200Y-134761905D02*
X159154819Y-134857143D01*
X159154819Y-134857143D02*
X159154819Y-135047619D01*
X159154819Y-135047619D02*
X159107200Y-135142857D01*
X159107200Y-135142857D02*
X159011961Y-135190476D01*
X159011961Y-135190476D02*
X158631009Y-135190476D01*
X158631009Y-135190476D02*
X158535771Y-135142857D01*
X158535771Y-135142857D02*
X158488152Y-135047619D01*
X158488152Y-135047619D02*
X158488152Y-134857143D01*
X158488152Y-134857143D02*
X158535771Y-134761905D01*
X158535771Y-134761905D02*
X158631009Y-134714286D01*
X158631009Y-134714286D02*
X158726247Y-134714286D01*
X158726247Y-134714286D02*
X158821485Y-135190476D01*
X159154819Y-134285714D02*
X158488152Y-134285714D01*
X158678628Y-134285714D02*
X158583390Y-134238095D01*
X158583390Y-134238095D02*
X158535771Y-134190476D01*
X158535771Y-134190476D02*
X158488152Y-134095238D01*
X158488152Y-134095238D02*
X158488152Y-134000000D01*
X159250057Y-133904762D02*
X159250057Y-133142857D01*
X158154819Y-132999999D02*
X158154819Y-132380952D01*
X158154819Y-132380952D02*
X158535771Y-132714285D01*
X158535771Y-132714285D02*
X158535771Y-132571428D01*
X158535771Y-132571428D02*
X158583390Y-132476190D01*
X158583390Y-132476190D02*
X158631009Y-132428571D01*
X158631009Y-132428571D02*
X158726247Y-132380952D01*
X158726247Y-132380952D02*
X158964342Y-132380952D01*
X158964342Y-132380952D02*
X159059580Y-132428571D01*
X159059580Y-132428571D02*
X159107200Y-132476190D01*
X159107200Y-132476190D02*
X159154819Y-132571428D01*
X159154819Y-132571428D02*
X159154819Y-132857142D01*
X159154819Y-132857142D02*
X159107200Y-132952380D01*
X159107200Y-132952380D02*
X159059580Y-132999999D01*
X159250057Y-132190476D02*
X159250057Y-131428571D01*
X158154819Y-130999999D02*
X158154819Y-130809523D01*
X158154819Y-130809523D02*
X158202438Y-130714285D01*
X158202438Y-130714285D02*
X158297676Y-130619047D01*
X158297676Y-130619047D02*
X158488152Y-130571428D01*
X158488152Y-130571428D02*
X158821485Y-130571428D01*
X158821485Y-130571428D02*
X159011961Y-130619047D01*
X159011961Y-130619047D02*
X159107200Y-130714285D01*
X159107200Y-130714285D02*
X159154819Y-130809523D01*
X159154819Y-130809523D02*
X159154819Y-130999999D01*
X159154819Y-130999999D02*
X159107200Y-131095237D01*
X159107200Y-131095237D02*
X159011961Y-131190475D01*
X159011961Y-131190475D02*
X158821485Y-131238094D01*
X158821485Y-131238094D02*
X158488152Y-131238094D01*
X158488152Y-131238094D02*
X158297676Y-131190475D01*
X158297676Y-131190475D02*
X158202438Y-131095237D01*
X158202438Y-131095237D02*
X158154819Y-130999999D01*
X158488152Y-130142856D02*
X159488152Y-130142856D01*
X158535771Y-130142856D02*
X158488152Y-130047618D01*
X158488152Y-130047618D02*
X158488152Y-129857142D01*
X158488152Y-129857142D02*
X158535771Y-129761904D01*
X158535771Y-129761904D02*
X158583390Y-129714285D01*
X158583390Y-129714285D02*
X158678628Y-129666666D01*
X158678628Y-129666666D02*
X158964342Y-129666666D01*
X158964342Y-129666666D02*
X159059580Y-129714285D01*
X159059580Y-129714285D02*
X159107200Y-129761904D01*
X159107200Y-129761904D02*
X159154819Y-129857142D01*
X159154819Y-129857142D02*
X159154819Y-130047618D01*
X159154819Y-130047618D02*
X159107200Y-130142856D01*
X159107200Y-128857142D02*
X159154819Y-128952380D01*
X159154819Y-128952380D02*
X159154819Y-129142856D01*
X159154819Y-129142856D02*
X159107200Y-129238094D01*
X159107200Y-129238094D02*
X159011961Y-129285713D01*
X159011961Y-129285713D02*
X158631009Y-129285713D01*
X158631009Y-129285713D02*
X158535771Y-129238094D01*
X158535771Y-129238094D02*
X158488152Y-129142856D01*
X158488152Y-129142856D02*
X158488152Y-128952380D01*
X158488152Y-128952380D02*
X158535771Y-128857142D01*
X158535771Y-128857142D02*
X158631009Y-128809523D01*
X158631009Y-128809523D02*
X158726247Y-128809523D01*
X158726247Y-128809523D02*
X158821485Y-129285713D01*
X158488152Y-128380951D02*
X159154819Y-128380951D01*
X158583390Y-128380951D02*
X158535771Y-128333332D01*
X158535771Y-128333332D02*
X158488152Y-128238094D01*
X158488152Y-128238094D02*
X158488152Y-128095237D01*
X158488152Y-128095237D02*
X158535771Y-127999999D01*
X158535771Y-127999999D02*
X158631009Y-127952380D01*
X158631009Y-127952380D02*
X159154819Y-127952380D01*
X160454819Y-135833333D02*
X161169104Y-135833333D01*
X161169104Y-135833333D02*
X161311961Y-135880952D01*
X161311961Y-135880952D02*
X161407200Y-135976190D01*
X161407200Y-135976190D02*
X161454819Y-136119047D01*
X161454819Y-136119047D02*
X161454819Y-136214285D01*
X161454819Y-135357142D02*
X160454819Y-135357142D01*
X160454819Y-135357142D02*
X160454819Y-134976190D01*
X160454819Y-134976190D02*
X160502438Y-134880952D01*
X160502438Y-134880952D02*
X160550057Y-134833333D01*
X160550057Y-134833333D02*
X160645295Y-134785714D01*
X160645295Y-134785714D02*
X160788152Y-134785714D01*
X160788152Y-134785714D02*
X160883390Y-134833333D01*
X160883390Y-134833333D02*
X160931009Y-134880952D01*
X160931009Y-134880952D02*
X160978628Y-134976190D01*
X160978628Y-134976190D02*
X160978628Y-135357142D01*
X161454819Y-133833333D02*
X161454819Y-134404761D01*
X161454819Y-134119047D02*
X160454819Y-134119047D01*
X160454819Y-134119047D02*
X160597676Y-134214285D01*
X160597676Y-134214285D02*
X160692914Y-134309523D01*
X160692914Y-134309523D02*
X160740533Y-134404761D01*
%TO.C,MCU1*%
D14*
X166925186Y-113433999D02*
G75*
G02*
X166725186Y-113433999I-100000J0D01*
G01*
X166725186Y-113433999D02*
G75*
G02*
X166925186Y-113433999I100000J0D01*
G01*
D15*
X166255186Y-123393999D02*
X155186186Y-123393999D01*
X166255186Y-72443999D02*
X166255186Y-123393999D01*
X166255186Y-72443999D02*
X160885186Y-72443999D01*
X160885186Y-91563999D02*
X143195186Y-91563999D01*
X160885186Y-78933999D02*
X160885186Y-91563999D01*
X160885186Y-78933999D02*
X143195186Y-78933999D01*
X160885186Y-72443999D02*
X160885186Y-78933999D01*
X160885186Y-72443999D02*
X143195186Y-72443999D01*
X155186186Y-123393999D02*
X148475186Y-123393999D01*
X155186186Y-119503999D02*
X155186186Y-123393999D01*
X148475186Y-123393999D02*
X148475186Y-119503999D01*
X148475186Y-123393999D02*
X137745186Y-123393999D01*
X148475186Y-119503999D02*
X155186186Y-119503999D01*
X143195186Y-91563999D02*
X143195186Y-78933999D01*
X143195186Y-78933999D02*
X143195186Y-72443999D01*
X143195186Y-72443999D02*
X137745186Y-72443999D01*
X137745186Y-123393999D02*
X137745186Y-72443999D01*
%TO.C,C4*%
D16*
X134700000Y-108800000D02*
X136300000Y-108800000D01*
X136300000Y-112000000D01*
X134700000Y-112000000D01*
X134700000Y-108800000D01*
%TO.C,C7*%
X135275000Y-115200000D02*
X136525000Y-115200000D01*
X136525000Y-117200000D01*
X135275000Y-117200000D01*
X135275000Y-115200000D01*
%TO.C,C10*%
X138600000Y-127806000D02*
X141800000Y-127806000D01*
X141800000Y-130306000D01*
X138600000Y-130306000D01*
X138600000Y-127806000D01*
%TO.C,U1*%
X170350000Y-115700000D02*
X170350000Y-116900000D01*
X167450000Y-116900000D01*
X167450000Y-115300000D01*
X169950000Y-115300000D01*
X170350000Y-115700000D01*
%TO.C,L1*%
X130700000Y-119450000D02*
X137300000Y-119450000D01*
X137300000Y-126550000D01*
X130700000Y-126550000D01*
X130700000Y-119450000D01*
%TO.C,C9*%
X162200000Y-127750000D02*
X165400000Y-127750000D01*
X165400000Y-130250000D01*
X162200000Y-130250000D01*
X162200000Y-127750000D01*
%TO.C,C11*%
X162200000Y-124194000D02*
X165400000Y-124194000D01*
X165400000Y-126694000D01*
X162200000Y-126694000D01*
X162200000Y-124194000D01*
%TO.C,C2*%
X131675000Y-110700000D02*
X132925000Y-110700000D01*
X132925000Y-112700000D01*
X131675000Y-112700000D01*
X131675000Y-110700000D01*
%TO.C,C1*%
X170875000Y-110137500D02*
X172125000Y-110137500D01*
X172125000Y-112137500D01*
X170875000Y-112137500D01*
X170875000Y-110137500D01*
%TO.C,C16*%
X167675000Y-128600000D02*
X168925000Y-128600000D01*
X168925000Y-130600000D01*
X167675000Y-130600000D01*
X167675000Y-128600000D01*
%TO.C,D2*%
X132730000Y-92285000D02*
X133365000Y-91650000D01*
X132730000Y-101810000D02*
X132730000Y-92285000D01*
X133365000Y-91650000D02*
X135270000Y-91650000D01*
X135270000Y-91650000D02*
X135270000Y-101810000D01*
X135270000Y-101810000D02*
X132730000Y-101810000D01*
%TO.C,L2*%
X166700000Y-119450000D02*
X173300000Y-119450000D01*
X173300000Y-126550000D01*
X166700000Y-126550000D01*
X166700000Y-119450000D01*
%TO.C,U2*%
X134150000Y-115700000D02*
X134150000Y-116900000D01*
X131250000Y-116900000D01*
X131250000Y-115300000D01*
X133750000Y-115300000D01*
X134150000Y-115700000D01*
%TO.C,U3*%
X148825000Y-102920000D02*
X149825000Y-101920000D01*
X148825000Y-112080000D02*
X148825000Y-102920000D01*
X149825000Y-101920000D02*
X155175000Y-101920000D01*
X155175000Y-101920000D02*
X155175000Y-112080000D01*
X155175000Y-112080000D02*
X148825000Y-112080000D01*
%TO.C,C3*%
X167800000Y-109600000D02*
X169400000Y-109600000D01*
X169400000Y-112800000D01*
X167800000Y-112800000D01*
X167800000Y-109600000D01*
%TO.C,C12*%
X138600000Y-124250000D02*
X141800000Y-124250000D01*
X141800000Y-126750000D01*
X138600000Y-126750000D01*
X138600000Y-124250000D01*
%TO.C,C15*%
X135775000Y-128700000D02*
X137025000Y-128700000D01*
X137025000Y-130700000D01*
X135775000Y-130700000D01*
X135775000Y-128700000D01*
%TO.C,C6*%
X171575000Y-115200000D02*
X172825000Y-115200000D01*
X172825000Y-117200000D01*
X171575000Y-117200000D01*
X171575000Y-115200000D01*
%TO.C,R12*%
X156375000Y-98000000D02*
X157625000Y-98000000D01*
X157625000Y-100000000D01*
X156375000Y-100000000D01*
X156375000Y-98000000D01*
%TO.C,R13*%
X159375000Y-108000000D02*
X160625000Y-108000000D01*
X160625000Y-110000000D01*
X159375000Y-110000000D01*
X159375000Y-108000000D01*
%TO.C,JP1*%
X159730000Y-131190000D02*
X162270000Y-131190000D01*
X159730000Y-138810000D02*
X159730000Y-131190000D01*
X161635000Y-138810000D02*
X159730000Y-138810000D01*
X162270000Y-131190000D02*
X162270000Y-138175000D01*
X162270000Y-138175000D02*
X161635000Y-138810000D01*
%TD*%
M02*
