%TF.GenerationSoftware,KiCad,Pcbnew,10.0.1*%
%TF.CreationDate,2026-05-02T12:26:32-05:00*%
%TF.ProjectId,ESPDrive,45535044-7269-4766-952e-6b696361645f,rev?*%
%TF.SameCoordinates,Original*%
%TF.FileFunction,Legend,Bot*%
%TF.FilePolarity,Positive*%
%FSLAX46Y46*%
G04 Gerber Fmt 4.6, Leading zero omitted, Abs format (unit mm)*
G04 Created by KiCad (PCBNEW 10.0.1) date 2026-05-02 12:26:32*
%MOMM*%
%LPD*%
G01*
G04 APERTURE LIST*
%ADD10C,0.150000*%
%ADD11C,0.120000*%
%ADD12C,2.220000*%
%ADD13C,2.490000*%
%ADD14C,2.830000*%
G04 APERTURE END LIST*
D10*
X152166666Y-138254819D02*
X152499999Y-137778628D01*
X152738094Y-138254819D02*
X152738094Y-137254819D01*
X152738094Y-137254819D02*
X152357142Y-137254819D01*
X152357142Y-137254819D02*
X152261904Y-137302438D01*
X152261904Y-137302438D02*
X152214285Y-137350057D01*
X152214285Y-137350057D02*
X152166666Y-137445295D01*
X152166666Y-137445295D02*
X152166666Y-137588152D01*
X152166666Y-137588152D02*
X152214285Y-137683390D01*
X152214285Y-137683390D02*
X152261904Y-137731009D01*
X152261904Y-137731009D02*
X152357142Y-137778628D01*
X152357142Y-137778628D02*
X152738094Y-137778628D01*
X151214285Y-138254819D02*
X151785713Y-138254819D01*
X151499999Y-138254819D02*
X151499999Y-137254819D01*
X151499999Y-137254819D02*
X151595237Y-137397676D01*
X151595237Y-137397676D02*
X151690475Y-137492914D01*
X151690475Y-137492914D02*
X151785713Y-137540533D01*
X156014285Y-135654819D02*
X155442857Y-135654819D01*
X155728571Y-136654819D02*
X155728571Y-135654819D01*
X155109523Y-136131009D02*
X154776190Y-136131009D01*
X154633333Y-136654819D02*
X155109523Y-136654819D01*
X155109523Y-136654819D02*
X155109523Y-135654819D01*
X155109523Y-135654819D02*
X154633333Y-135654819D01*
X154204761Y-136273866D02*
X153442857Y-136273866D01*
X153014285Y-136607200D02*
X152871428Y-136654819D01*
X152871428Y-136654819D02*
X152633333Y-136654819D01*
X152633333Y-136654819D02*
X152538095Y-136607200D01*
X152538095Y-136607200D02*
X152490476Y-136559580D01*
X152490476Y-136559580D02*
X152442857Y-136464342D01*
X152442857Y-136464342D02*
X152442857Y-136369104D01*
X152442857Y-136369104D02*
X152490476Y-136273866D01*
X152490476Y-136273866D02*
X152538095Y-136226247D01*
X152538095Y-136226247D02*
X152633333Y-136178628D01*
X152633333Y-136178628D02*
X152823809Y-136131009D01*
X152823809Y-136131009D02*
X152919047Y-136083390D01*
X152919047Y-136083390D02*
X152966666Y-136035771D01*
X152966666Y-136035771D02*
X153014285Y-135940533D01*
X153014285Y-135940533D02*
X153014285Y-135845295D01*
X153014285Y-135845295D02*
X152966666Y-135750057D01*
X152966666Y-135750057D02*
X152919047Y-135702438D01*
X152919047Y-135702438D02*
X152823809Y-135654819D01*
X152823809Y-135654819D02*
X152585714Y-135654819D01*
X152585714Y-135654819D02*
X152442857Y-135702438D01*
X152014285Y-136654819D02*
X152014285Y-135654819D01*
X152014285Y-135654819D02*
X151633333Y-135654819D01*
X151633333Y-135654819D02*
X151538095Y-135702438D01*
X151538095Y-135702438D02*
X151490476Y-135750057D01*
X151490476Y-135750057D02*
X151442857Y-135845295D01*
X151442857Y-135845295D02*
X151442857Y-135988152D01*
X151442857Y-135988152D02*
X151490476Y-136083390D01*
X151490476Y-136083390D02*
X151538095Y-136131009D01*
X151538095Y-136131009D02*
X151633333Y-136178628D01*
X151633333Y-136178628D02*
X152014285Y-136178628D01*
X151014285Y-136654819D02*
X151014285Y-135654819D01*
X151014285Y-135654819D02*
X150776190Y-135654819D01*
X150776190Y-135654819D02*
X150633333Y-135702438D01*
X150633333Y-135702438D02*
X150538095Y-135797676D01*
X150538095Y-135797676D02*
X150490476Y-135892914D01*
X150490476Y-135892914D02*
X150442857Y-136083390D01*
X150442857Y-136083390D02*
X150442857Y-136226247D01*
X150442857Y-136226247D02*
X150490476Y-136416723D01*
X150490476Y-136416723D02*
X150538095Y-136511961D01*
X150538095Y-136511961D02*
X150633333Y-136607200D01*
X150633333Y-136607200D02*
X150776190Y-136654819D01*
X150776190Y-136654819D02*
X151014285Y-136654819D01*
X150157142Y-135654819D02*
X149585714Y-135654819D01*
X149871428Y-136654819D02*
X149871428Y-135654819D01*
X155242857Y-93359580D02*
X155290476Y-93407200D01*
X155290476Y-93407200D02*
X155433333Y-93454819D01*
X155433333Y-93454819D02*
X155528571Y-93454819D01*
X155528571Y-93454819D02*
X155671428Y-93407200D01*
X155671428Y-93407200D02*
X155766666Y-93311961D01*
X155766666Y-93311961D02*
X155814285Y-93216723D01*
X155814285Y-93216723D02*
X155861904Y-93026247D01*
X155861904Y-93026247D02*
X155861904Y-92883390D01*
X155861904Y-92883390D02*
X155814285Y-92692914D01*
X155814285Y-92692914D02*
X155766666Y-92597676D01*
X155766666Y-92597676D02*
X155671428Y-92502438D01*
X155671428Y-92502438D02*
X155528571Y-92454819D01*
X155528571Y-92454819D02*
X155433333Y-92454819D01*
X155433333Y-92454819D02*
X155290476Y-92502438D01*
X155290476Y-92502438D02*
X155242857Y-92550057D01*
X154290476Y-93454819D02*
X154861904Y-93454819D01*
X154576190Y-93454819D02*
X154576190Y-92454819D01*
X154576190Y-92454819D02*
X154671428Y-92597676D01*
X154671428Y-92597676D02*
X154766666Y-92692914D01*
X154766666Y-92692914D02*
X154861904Y-92740533D01*
X153433333Y-92788152D02*
X153433333Y-93454819D01*
X153671428Y-92407200D02*
X153909523Y-93121485D01*
X153909523Y-93121485D02*
X153290476Y-93121485D01*
X155666666Y-125854819D02*
X155999999Y-125378628D01*
X156238094Y-125854819D02*
X156238094Y-124854819D01*
X156238094Y-124854819D02*
X155857142Y-124854819D01*
X155857142Y-124854819D02*
X155761904Y-124902438D01*
X155761904Y-124902438D02*
X155714285Y-124950057D01*
X155714285Y-124950057D02*
X155666666Y-125045295D01*
X155666666Y-125045295D02*
X155666666Y-125188152D01*
X155666666Y-125188152D02*
X155714285Y-125283390D01*
X155714285Y-125283390D02*
X155761904Y-125331009D01*
X155761904Y-125331009D02*
X155857142Y-125378628D01*
X155857142Y-125378628D02*
X156238094Y-125378628D01*
X155333332Y-124854819D02*
X154714285Y-124854819D01*
X154714285Y-124854819D02*
X155047618Y-125235771D01*
X155047618Y-125235771D02*
X154904761Y-125235771D01*
X154904761Y-125235771D02*
X154809523Y-125283390D01*
X154809523Y-125283390D02*
X154761904Y-125331009D01*
X154761904Y-125331009D02*
X154714285Y-125426247D01*
X154714285Y-125426247D02*
X154714285Y-125664342D01*
X154714285Y-125664342D02*
X154761904Y-125759580D01*
X154761904Y-125759580D02*
X154809523Y-125807200D01*
X154809523Y-125807200D02*
X154904761Y-125854819D01*
X154904761Y-125854819D02*
X155190475Y-125854819D01*
X155190475Y-125854819D02*
X155285713Y-125807200D01*
X155285713Y-125807200D02*
X155333332Y-125759580D01*
X136766666Y-126159580D02*
X136814285Y-126207200D01*
X136814285Y-126207200D02*
X136957142Y-126254819D01*
X136957142Y-126254819D02*
X137052380Y-126254819D01*
X137052380Y-126254819D02*
X137195237Y-126207200D01*
X137195237Y-126207200D02*
X137290475Y-126111961D01*
X137290475Y-126111961D02*
X137338094Y-126016723D01*
X137338094Y-126016723D02*
X137385713Y-125826247D01*
X137385713Y-125826247D02*
X137385713Y-125683390D01*
X137385713Y-125683390D02*
X137338094Y-125492914D01*
X137338094Y-125492914D02*
X137290475Y-125397676D01*
X137290475Y-125397676D02*
X137195237Y-125302438D01*
X137195237Y-125302438D02*
X137052380Y-125254819D01*
X137052380Y-125254819D02*
X136957142Y-125254819D01*
X136957142Y-125254819D02*
X136814285Y-125302438D01*
X136814285Y-125302438D02*
X136766666Y-125350057D01*
X136195237Y-125683390D02*
X136290475Y-125635771D01*
X136290475Y-125635771D02*
X136338094Y-125588152D01*
X136338094Y-125588152D02*
X136385713Y-125492914D01*
X136385713Y-125492914D02*
X136385713Y-125445295D01*
X136385713Y-125445295D02*
X136338094Y-125350057D01*
X136338094Y-125350057D02*
X136290475Y-125302438D01*
X136290475Y-125302438D02*
X136195237Y-125254819D01*
X136195237Y-125254819D02*
X136004761Y-125254819D01*
X136004761Y-125254819D02*
X135909523Y-125302438D01*
X135909523Y-125302438D02*
X135861904Y-125350057D01*
X135861904Y-125350057D02*
X135814285Y-125445295D01*
X135814285Y-125445295D02*
X135814285Y-125492914D01*
X135814285Y-125492914D02*
X135861904Y-125588152D01*
X135861904Y-125588152D02*
X135909523Y-125635771D01*
X135909523Y-125635771D02*
X136004761Y-125683390D01*
X136004761Y-125683390D02*
X136195237Y-125683390D01*
X136195237Y-125683390D02*
X136290475Y-125731009D01*
X136290475Y-125731009D02*
X136338094Y-125778628D01*
X136338094Y-125778628D02*
X136385713Y-125873866D01*
X136385713Y-125873866D02*
X136385713Y-126064342D01*
X136385713Y-126064342D02*
X136338094Y-126159580D01*
X136338094Y-126159580D02*
X136290475Y-126207200D01*
X136290475Y-126207200D02*
X136195237Y-126254819D01*
X136195237Y-126254819D02*
X136004761Y-126254819D01*
X136004761Y-126254819D02*
X135909523Y-126207200D01*
X135909523Y-126207200D02*
X135861904Y-126159580D01*
X135861904Y-126159580D02*
X135814285Y-126064342D01*
X135814285Y-126064342D02*
X135814285Y-125873866D01*
X135814285Y-125873866D02*
X135861904Y-125778628D01*
X135861904Y-125778628D02*
X135909523Y-125731009D01*
X135909523Y-125731009D02*
X136004761Y-125683390D01*
X157138094Y-132154819D02*
X157138094Y-131154819D01*
X157138094Y-131154819D02*
X156899999Y-131154819D01*
X156899999Y-131154819D02*
X156757142Y-131202438D01*
X156757142Y-131202438D02*
X156661904Y-131297676D01*
X156661904Y-131297676D02*
X156614285Y-131392914D01*
X156614285Y-131392914D02*
X156566666Y-131583390D01*
X156566666Y-131583390D02*
X156566666Y-131726247D01*
X156566666Y-131726247D02*
X156614285Y-131916723D01*
X156614285Y-131916723D02*
X156661904Y-132011961D01*
X156661904Y-132011961D02*
X156757142Y-132107200D01*
X156757142Y-132107200D02*
X156899999Y-132154819D01*
X156899999Y-132154819D02*
X157138094Y-132154819D01*
X155614285Y-132154819D02*
X156185713Y-132154819D01*
X155899999Y-132154819D02*
X155899999Y-131154819D01*
X155899999Y-131154819D02*
X155995237Y-131297676D01*
X155995237Y-131297676D02*
X156090475Y-131392914D01*
X156090475Y-131392914D02*
X156185713Y-131440533D01*
X170642857Y-93920851D02*
X170976190Y-93444660D01*
X171214285Y-93920851D02*
X171214285Y-92920851D01*
X171214285Y-92920851D02*
X170833333Y-92920851D01*
X170833333Y-92920851D02*
X170738095Y-92968470D01*
X170738095Y-92968470D02*
X170690476Y-93016089D01*
X170690476Y-93016089D02*
X170642857Y-93111327D01*
X170642857Y-93111327D02*
X170642857Y-93254184D01*
X170642857Y-93254184D02*
X170690476Y-93349422D01*
X170690476Y-93349422D02*
X170738095Y-93397041D01*
X170738095Y-93397041D02*
X170833333Y-93444660D01*
X170833333Y-93444660D02*
X171214285Y-93444660D01*
X169690476Y-93920851D02*
X170261904Y-93920851D01*
X169976190Y-93920851D02*
X169976190Y-92920851D01*
X169976190Y-92920851D02*
X170071428Y-93063708D01*
X170071428Y-93063708D02*
X170166666Y-93158946D01*
X170166666Y-93158946D02*
X170261904Y-93206565D01*
X168738095Y-93920851D02*
X169309523Y-93920851D01*
X169023809Y-93920851D02*
X169023809Y-92920851D01*
X169023809Y-92920851D02*
X169119047Y-93063708D01*
X169119047Y-93063708D02*
X169214285Y-93158946D01*
X169214285Y-93158946D02*
X169309523Y-93206565D01*
X155266666Y-105359580D02*
X155314285Y-105407200D01*
X155314285Y-105407200D02*
X155457142Y-105454819D01*
X155457142Y-105454819D02*
X155552380Y-105454819D01*
X155552380Y-105454819D02*
X155695237Y-105407200D01*
X155695237Y-105407200D02*
X155790475Y-105311961D01*
X155790475Y-105311961D02*
X155838094Y-105216723D01*
X155838094Y-105216723D02*
X155885713Y-105026247D01*
X155885713Y-105026247D02*
X155885713Y-104883390D01*
X155885713Y-104883390D02*
X155838094Y-104692914D01*
X155838094Y-104692914D02*
X155790475Y-104597676D01*
X155790475Y-104597676D02*
X155695237Y-104502438D01*
X155695237Y-104502438D02*
X155552380Y-104454819D01*
X155552380Y-104454819D02*
X155457142Y-104454819D01*
X155457142Y-104454819D02*
X155314285Y-104502438D01*
X155314285Y-104502438D02*
X155266666Y-104550057D01*
X154361904Y-104454819D02*
X154838094Y-104454819D01*
X154838094Y-104454819D02*
X154885713Y-104931009D01*
X154885713Y-104931009D02*
X154838094Y-104883390D01*
X154838094Y-104883390D02*
X154742856Y-104835771D01*
X154742856Y-104835771D02*
X154504761Y-104835771D01*
X154504761Y-104835771D02*
X154409523Y-104883390D01*
X154409523Y-104883390D02*
X154361904Y-104931009D01*
X154361904Y-104931009D02*
X154314285Y-105026247D01*
X154314285Y-105026247D02*
X154314285Y-105264342D01*
X154314285Y-105264342D02*
X154361904Y-105359580D01*
X154361904Y-105359580D02*
X154409523Y-105407200D01*
X154409523Y-105407200D02*
X154504761Y-105454819D01*
X154504761Y-105454819D02*
X154742856Y-105454819D01*
X154742856Y-105454819D02*
X154838094Y-105407200D01*
X154838094Y-105407200D02*
X154885713Y-105359580D01*
X131116666Y-128554819D02*
X131449999Y-128078628D01*
X131688094Y-128554819D02*
X131688094Y-127554819D01*
X131688094Y-127554819D02*
X131307142Y-127554819D01*
X131307142Y-127554819D02*
X131211904Y-127602438D01*
X131211904Y-127602438D02*
X131164285Y-127650057D01*
X131164285Y-127650057D02*
X131116666Y-127745295D01*
X131116666Y-127745295D02*
X131116666Y-127888152D01*
X131116666Y-127888152D02*
X131164285Y-127983390D01*
X131164285Y-127983390D02*
X131211904Y-128031009D01*
X131211904Y-128031009D02*
X131307142Y-128078628D01*
X131307142Y-128078628D02*
X131688094Y-128078628D01*
X130545237Y-127983390D02*
X130640475Y-127935771D01*
X130640475Y-127935771D02*
X130688094Y-127888152D01*
X130688094Y-127888152D02*
X130735713Y-127792914D01*
X130735713Y-127792914D02*
X130735713Y-127745295D01*
X130735713Y-127745295D02*
X130688094Y-127650057D01*
X130688094Y-127650057D02*
X130640475Y-127602438D01*
X130640475Y-127602438D02*
X130545237Y-127554819D01*
X130545237Y-127554819D02*
X130354761Y-127554819D01*
X130354761Y-127554819D02*
X130259523Y-127602438D01*
X130259523Y-127602438D02*
X130211904Y-127650057D01*
X130211904Y-127650057D02*
X130164285Y-127745295D01*
X130164285Y-127745295D02*
X130164285Y-127792914D01*
X130164285Y-127792914D02*
X130211904Y-127888152D01*
X130211904Y-127888152D02*
X130259523Y-127935771D01*
X130259523Y-127935771D02*
X130354761Y-127983390D01*
X130354761Y-127983390D02*
X130545237Y-127983390D01*
X130545237Y-127983390D02*
X130640475Y-128031009D01*
X130640475Y-128031009D02*
X130688094Y-128078628D01*
X130688094Y-128078628D02*
X130735713Y-128173866D01*
X130735713Y-128173866D02*
X130735713Y-128364342D01*
X130735713Y-128364342D02*
X130688094Y-128459580D01*
X130688094Y-128459580D02*
X130640475Y-128507200D01*
X130640475Y-128507200D02*
X130545237Y-128554819D01*
X130545237Y-128554819D02*
X130354761Y-128554819D01*
X130354761Y-128554819D02*
X130259523Y-128507200D01*
X130259523Y-128507200D02*
X130211904Y-128459580D01*
X130211904Y-128459580D02*
X130164285Y-128364342D01*
X130164285Y-128364342D02*
X130164285Y-128173866D01*
X130164285Y-128173866D02*
X130211904Y-128078628D01*
X130211904Y-128078628D02*
X130259523Y-128031009D01*
X130259523Y-128031009D02*
X130354761Y-127983390D01*
X158166666Y-96804819D02*
X158499999Y-96328628D01*
X158738094Y-96804819D02*
X158738094Y-95804819D01*
X158738094Y-95804819D02*
X158357142Y-95804819D01*
X158357142Y-95804819D02*
X158261904Y-95852438D01*
X158261904Y-95852438D02*
X158214285Y-95900057D01*
X158214285Y-95900057D02*
X158166666Y-95995295D01*
X158166666Y-95995295D02*
X158166666Y-96138152D01*
X158166666Y-96138152D02*
X158214285Y-96233390D01*
X158214285Y-96233390D02*
X158261904Y-96281009D01*
X158261904Y-96281009D02*
X158357142Y-96328628D01*
X158357142Y-96328628D02*
X158738094Y-96328628D01*
X157785713Y-95900057D02*
X157738094Y-95852438D01*
X157738094Y-95852438D02*
X157642856Y-95804819D01*
X157642856Y-95804819D02*
X157404761Y-95804819D01*
X157404761Y-95804819D02*
X157309523Y-95852438D01*
X157309523Y-95852438D02*
X157261904Y-95900057D01*
X157261904Y-95900057D02*
X157214285Y-95995295D01*
X157214285Y-95995295D02*
X157214285Y-96090533D01*
X157214285Y-96090533D02*
X157261904Y-96233390D01*
X157261904Y-96233390D02*
X157833332Y-96804819D01*
X157833332Y-96804819D02*
X157214285Y-96804819D01*
X149495238Y-132350057D02*
X149590476Y-132302438D01*
X149590476Y-132302438D02*
X149685714Y-132207200D01*
X149685714Y-132207200D02*
X149828571Y-132064342D01*
X149828571Y-132064342D02*
X149923809Y-132016723D01*
X149923809Y-132016723D02*
X150019047Y-132016723D01*
X149971428Y-132254819D02*
X150066666Y-132207200D01*
X150066666Y-132207200D02*
X150161904Y-132111961D01*
X150161904Y-132111961D02*
X150209523Y-131921485D01*
X150209523Y-131921485D02*
X150209523Y-131588152D01*
X150209523Y-131588152D02*
X150161904Y-131397676D01*
X150161904Y-131397676D02*
X150066666Y-131302438D01*
X150066666Y-131302438D02*
X149971428Y-131254819D01*
X149971428Y-131254819D02*
X149780952Y-131254819D01*
X149780952Y-131254819D02*
X149685714Y-131302438D01*
X149685714Y-131302438D02*
X149590476Y-131397676D01*
X149590476Y-131397676D02*
X149542857Y-131588152D01*
X149542857Y-131588152D02*
X149542857Y-131921485D01*
X149542857Y-131921485D02*
X149590476Y-132111961D01*
X149590476Y-132111961D02*
X149685714Y-132207200D01*
X149685714Y-132207200D02*
X149780952Y-132254819D01*
X149780952Y-132254819D02*
X149971428Y-132254819D01*
X148590476Y-132254819D02*
X149161904Y-132254819D01*
X148876190Y-132254819D02*
X148876190Y-131254819D01*
X148876190Y-131254819D02*
X148971428Y-131397676D01*
X148971428Y-131397676D02*
X149066666Y-131492914D01*
X149066666Y-131492914D02*
X149161904Y-131540533D01*
X155242857Y-90359580D02*
X155290476Y-90407200D01*
X155290476Y-90407200D02*
X155433333Y-90454819D01*
X155433333Y-90454819D02*
X155528571Y-90454819D01*
X155528571Y-90454819D02*
X155671428Y-90407200D01*
X155671428Y-90407200D02*
X155766666Y-90311961D01*
X155766666Y-90311961D02*
X155814285Y-90216723D01*
X155814285Y-90216723D02*
X155861904Y-90026247D01*
X155861904Y-90026247D02*
X155861904Y-89883390D01*
X155861904Y-89883390D02*
X155814285Y-89692914D01*
X155814285Y-89692914D02*
X155766666Y-89597676D01*
X155766666Y-89597676D02*
X155671428Y-89502438D01*
X155671428Y-89502438D02*
X155528571Y-89454819D01*
X155528571Y-89454819D02*
X155433333Y-89454819D01*
X155433333Y-89454819D02*
X155290476Y-89502438D01*
X155290476Y-89502438D02*
X155242857Y-89550057D01*
X154290476Y-90454819D02*
X154861904Y-90454819D01*
X154576190Y-90454819D02*
X154576190Y-89454819D01*
X154576190Y-89454819D02*
X154671428Y-89597676D01*
X154671428Y-89597676D02*
X154766666Y-89692914D01*
X154766666Y-89692914D02*
X154861904Y-89740533D01*
X153957142Y-89454819D02*
X153338095Y-89454819D01*
X153338095Y-89454819D02*
X153671428Y-89835771D01*
X153671428Y-89835771D02*
X153528571Y-89835771D01*
X153528571Y-89835771D02*
X153433333Y-89883390D01*
X153433333Y-89883390D02*
X153385714Y-89931009D01*
X153385714Y-89931009D02*
X153338095Y-90026247D01*
X153338095Y-90026247D02*
X153338095Y-90264342D01*
X153338095Y-90264342D02*
X153385714Y-90359580D01*
X153385714Y-90359580D02*
X153433333Y-90407200D01*
X153433333Y-90407200D02*
X153528571Y-90454819D01*
X153528571Y-90454819D02*
X153814285Y-90454819D01*
X153814285Y-90454819D02*
X153909523Y-90407200D01*
X153909523Y-90407200D02*
X153957142Y-90359580D01*
X133442857Y-85754819D02*
X133776190Y-85278628D01*
X134014285Y-85754819D02*
X134014285Y-84754819D01*
X134014285Y-84754819D02*
X133633333Y-84754819D01*
X133633333Y-84754819D02*
X133538095Y-84802438D01*
X133538095Y-84802438D02*
X133490476Y-84850057D01*
X133490476Y-84850057D02*
X133442857Y-84945295D01*
X133442857Y-84945295D02*
X133442857Y-85088152D01*
X133442857Y-85088152D02*
X133490476Y-85183390D01*
X133490476Y-85183390D02*
X133538095Y-85231009D01*
X133538095Y-85231009D02*
X133633333Y-85278628D01*
X133633333Y-85278628D02*
X134014285Y-85278628D01*
X132490476Y-85754819D02*
X133061904Y-85754819D01*
X132776190Y-85754819D02*
X132776190Y-84754819D01*
X132776190Y-84754819D02*
X132871428Y-84897676D01*
X132871428Y-84897676D02*
X132966666Y-84992914D01*
X132966666Y-84992914D02*
X133061904Y-85040533D01*
X131633333Y-85088152D02*
X131633333Y-85754819D01*
X131871428Y-84707200D02*
X132109523Y-85421485D01*
X132109523Y-85421485D02*
X131490476Y-85421485D01*
X135642857Y-85754819D02*
X135976190Y-85278628D01*
X136214285Y-85754819D02*
X136214285Y-84754819D01*
X136214285Y-84754819D02*
X135833333Y-84754819D01*
X135833333Y-84754819D02*
X135738095Y-84802438D01*
X135738095Y-84802438D02*
X135690476Y-84850057D01*
X135690476Y-84850057D02*
X135642857Y-84945295D01*
X135642857Y-84945295D02*
X135642857Y-85088152D01*
X135642857Y-85088152D02*
X135690476Y-85183390D01*
X135690476Y-85183390D02*
X135738095Y-85231009D01*
X135738095Y-85231009D02*
X135833333Y-85278628D01*
X135833333Y-85278628D02*
X136214285Y-85278628D01*
X134690476Y-85754819D02*
X135261904Y-85754819D01*
X134976190Y-85754819D02*
X134976190Y-84754819D01*
X134976190Y-84754819D02*
X135071428Y-84897676D01*
X135071428Y-84897676D02*
X135166666Y-84992914D01*
X135166666Y-84992914D02*
X135261904Y-85040533D01*
X133833333Y-84754819D02*
X134023809Y-84754819D01*
X134023809Y-84754819D02*
X134119047Y-84802438D01*
X134119047Y-84802438D02*
X134166666Y-84850057D01*
X134166666Y-84850057D02*
X134261904Y-84992914D01*
X134261904Y-84992914D02*
X134309523Y-85183390D01*
X134309523Y-85183390D02*
X134309523Y-85564342D01*
X134309523Y-85564342D02*
X134261904Y-85659580D01*
X134261904Y-85659580D02*
X134214285Y-85707200D01*
X134214285Y-85707200D02*
X134119047Y-85754819D01*
X134119047Y-85754819D02*
X133928571Y-85754819D01*
X133928571Y-85754819D02*
X133833333Y-85707200D01*
X133833333Y-85707200D02*
X133785714Y-85659580D01*
X133785714Y-85659580D02*
X133738095Y-85564342D01*
X133738095Y-85564342D02*
X133738095Y-85326247D01*
X133738095Y-85326247D02*
X133785714Y-85231009D01*
X133785714Y-85231009D02*
X133833333Y-85183390D01*
X133833333Y-85183390D02*
X133928571Y-85135771D01*
X133928571Y-85135771D02*
X134119047Y-85135771D01*
X134119047Y-85135771D02*
X134214285Y-85183390D01*
X134214285Y-85183390D02*
X134261904Y-85231009D01*
X134261904Y-85231009D02*
X134309523Y-85326247D01*
X150566666Y-129054819D02*
X150899999Y-128578628D01*
X151138094Y-129054819D02*
X151138094Y-128054819D01*
X151138094Y-128054819D02*
X150757142Y-128054819D01*
X150757142Y-128054819D02*
X150661904Y-128102438D01*
X150661904Y-128102438D02*
X150614285Y-128150057D01*
X150614285Y-128150057D02*
X150566666Y-128245295D01*
X150566666Y-128245295D02*
X150566666Y-128388152D01*
X150566666Y-128388152D02*
X150614285Y-128483390D01*
X150614285Y-128483390D02*
X150661904Y-128531009D01*
X150661904Y-128531009D02*
X150757142Y-128578628D01*
X150757142Y-128578628D02*
X151138094Y-128578628D01*
X149709523Y-128388152D02*
X149709523Y-129054819D01*
X149947618Y-128007200D02*
X150185713Y-128721485D01*
X150185713Y-128721485D02*
X149566666Y-128721485D01*
X155266666Y-108454819D02*
X155599999Y-107978628D01*
X155838094Y-108454819D02*
X155838094Y-107454819D01*
X155838094Y-107454819D02*
X155457142Y-107454819D01*
X155457142Y-107454819D02*
X155361904Y-107502438D01*
X155361904Y-107502438D02*
X155314285Y-107550057D01*
X155314285Y-107550057D02*
X155266666Y-107645295D01*
X155266666Y-107645295D02*
X155266666Y-107788152D01*
X155266666Y-107788152D02*
X155314285Y-107883390D01*
X155314285Y-107883390D02*
X155361904Y-107931009D01*
X155361904Y-107931009D02*
X155457142Y-107978628D01*
X155457142Y-107978628D02*
X155838094Y-107978628D01*
X154409523Y-107454819D02*
X154599999Y-107454819D01*
X154599999Y-107454819D02*
X154695237Y-107502438D01*
X154695237Y-107502438D02*
X154742856Y-107550057D01*
X154742856Y-107550057D02*
X154838094Y-107692914D01*
X154838094Y-107692914D02*
X154885713Y-107883390D01*
X154885713Y-107883390D02*
X154885713Y-108264342D01*
X154885713Y-108264342D02*
X154838094Y-108359580D01*
X154838094Y-108359580D02*
X154790475Y-108407200D01*
X154790475Y-108407200D02*
X154695237Y-108454819D01*
X154695237Y-108454819D02*
X154504761Y-108454819D01*
X154504761Y-108454819D02*
X154409523Y-108407200D01*
X154409523Y-108407200D02*
X154361904Y-108359580D01*
X154361904Y-108359580D02*
X154314285Y-108264342D01*
X154314285Y-108264342D02*
X154314285Y-108026247D01*
X154314285Y-108026247D02*
X154361904Y-107931009D01*
X154361904Y-107931009D02*
X154409523Y-107883390D01*
X154409523Y-107883390D02*
X154504761Y-107835771D01*
X154504761Y-107835771D02*
X154695237Y-107835771D01*
X154695237Y-107835771D02*
X154790475Y-107883390D01*
X154790475Y-107883390D02*
X154838094Y-107931009D01*
X154838094Y-107931009D02*
X154885713Y-108026247D01*
X155366666Y-102454819D02*
X155699999Y-101978628D01*
X155938094Y-102454819D02*
X155938094Y-101454819D01*
X155938094Y-101454819D02*
X155557142Y-101454819D01*
X155557142Y-101454819D02*
X155461904Y-101502438D01*
X155461904Y-101502438D02*
X155414285Y-101550057D01*
X155414285Y-101550057D02*
X155366666Y-101645295D01*
X155366666Y-101645295D02*
X155366666Y-101788152D01*
X155366666Y-101788152D02*
X155414285Y-101883390D01*
X155414285Y-101883390D02*
X155461904Y-101931009D01*
X155461904Y-101931009D02*
X155557142Y-101978628D01*
X155557142Y-101978628D02*
X155938094Y-101978628D01*
X155033332Y-101454819D02*
X154366666Y-101454819D01*
X154366666Y-101454819D02*
X154795237Y-102454819D01*
X133466666Y-121504819D02*
X133799999Y-121028628D01*
X134038094Y-121504819D02*
X134038094Y-120504819D01*
X134038094Y-120504819D02*
X133657142Y-120504819D01*
X133657142Y-120504819D02*
X133561904Y-120552438D01*
X133561904Y-120552438D02*
X133514285Y-120600057D01*
X133514285Y-120600057D02*
X133466666Y-120695295D01*
X133466666Y-120695295D02*
X133466666Y-120838152D01*
X133466666Y-120838152D02*
X133514285Y-120933390D01*
X133514285Y-120933390D02*
X133561904Y-120981009D01*
X133561904Y-120981009D02*
X133657142Y-121028628D01*
X133657142Y-121028628D02*
X134038094Y-121028628D01*
X132990475Y-121504819D02*
X132799999Y-121504819D01*
X132799999Y-121504819D02*
X132704761Y-121457200D01*
X132704761Y-121457200D02*
X132657142Y-121409580D01*
X132657142Y-121409580D02*
X132561904Y-121266723D01*
X132561904Y-121266723D02*
X132514285Y-121076247D01*
X132514285Y-121076247D02*
X132514285Y-120695295D01*
X132514285Y-120695295D02*
X132561904Y-120600057D01*
X132561904Y-120600057D02*
X132609523Y-120552438D01*
X132609523Y-120552438D02*
X132704761Y-120504819D01*
X132704761Y-120504819D02*
X132895237Y-120504819D01*
X132895237Y-120504819D02*
X132990475Y-120552438D01*
X132990475Y-120552438D02*
X133038094Y-120600057D01*
X133038094Y-120600057D02*
X133085713Y-120695295D01*
X133085713Y-120695295D02*
X133085713Y-120933390D01*
X133085713Y-120933390D02*
X133038094Y-121028628D01*
X133038094Y-121028628D02*
X132990475Y-121076247D01*
X132990475Y-121076247D02*
X132895237Y-121123866D01*
X132895237Y-121123866D02*
X132704761Y-121123866D01*
X132704761Y-121123866D02*
X132609523Y-121076247D01*
X132609523Y-121076247D02*
X132561904Y-121028628D01*
X132561904Y-121028628D02*
X132514285Y-120933390D01*
X152266666Y-97454819D02*
X152599999Y-96978628D01*
X152838094Y-97454819D02*
X152838094Y-96454819D01*
X152838094Y-96454819D02*
X152457142Y-96454819D01*
X152457142Y-96454819D02*
X152361904Y-96502438D01*
X152361904Y-96502438D02*
X152314285Y-96550057D01*
X152314285Y-96550057D02*
X152266666Y-96645295D01*
X152266666Y-96645295D02*
X152266666Y-96788152D01*
X152266666Y-96788152D02*
X152314285Y-96883390D01*
X152314285Y-96883390D02*
X152361904Y-96931009D01*
X152361904Y-96931009D02*
X152457142Y-96978628D01*
X152457142Y-96978628D02*
X152838094Y-96978628D01*
X151361904Y-96454819D02*
X151838094Y-96454819D01*
X151838094Y-96454819D02*
X151885713Y-96931009D01*
X151885713Y-96931009D02*
X151838094Y-96883390D01*
X151838094Y-96883390D02*
X151742856Y-96835771D01*
X151742856Y-96835771D02*
X151504761Y-96835771D01*
X151504761Y-96835771D02*
X151409523Y-96883390D01*
X151409523Y-96883390D02*
X151361904Y-96931009D01*
X151361904Y-96931009D02*
X151314285Y-97026247D01*
X151314285Y-97026247D02*
X151314285Y-97264342D01*
X151314285Y-97264342D02*
X151361904Y-97359580D01*
X151361904Y-97359580D02*
X151409523Y-97407200D01*
X151409523Y-97407200D02*
X151504761Y-97454819D01*
X151504761Y-97454819D02*
X151742856Y-97454819D01*
X151742856Y-97454819D02*
X151838094Y-97407200D01*
X151838094Y-97407200D02*
X151885713Y-97359580D01*
X132242857Y-105454819D02*
X132576190Y-104978628D01*
X132814285Y-105454819D02*
X132814285Y-104454819D01*
X132814285Y-104454819D02*
X132433333Y-104454819D01*
X132433333Y-104454819D02*
X132338095Y-104502438D01*
X132338095Y-104502438D02*
X132290476Y-104550057D01*
X132290476Y-104550057D02*
X132242857Y-104645295D01*
X132242857Y-104645295D02*
X132242857Y-104788152D01*
X132242857Y-104788152D02*
X132290476Y-104883390D01*
X132290476Y-104883390D02*
X132338095Y-104931009D01*
X132338095Y-104931009D02*
X132433333Y-104978628D01*
X132433333Y-104978628D02*
X132814285Y-104978628D01*
X131290476Y-105454819D02*
X131861904Y-105454819D01*
X131576190Y-105454819D02*
X131576190Y-104454819D01*
X131576190Y-104454819D02*
X131671428Y-104597676D01*
X131671428Y-104597676D02*
X131766666Y-104692914D01*
X131766666Y-104692914D02*
X131861904Y-104740533D01*
X130385714Y-104454819D02*
X130861904Y-104454819D01*
X130861904Y-104454819D02*
X130909523Y-104931009D01*
X130909523Y-104931009D02*
X130861904Y-104883390D01*
X130861904Y-104883390D02*
X130766666Y-104835771D01*
X130766666Y-104835771D02*
X130528571Y-104835771D01*
X130528571Y-104835771D02*
X130433333Y-104883390D01*
X130433333Y-104883390D02*
X130385714Y-104931009D01*
X130385714Y-104931009D02*
X130338095Y-105026247D01*
X130338095Y-105026247D02*
X130338095Y-105264342D01*
X130338095Y-105264342D02*
X130385714Y-105359580D01*
X130385714Y-105359580D02*
X130433333Y-105407200D01*
X130433333Y-105407200D02*
X130528571Y-105454819D01*
X130528571Y-105454819D02*
X130766666Y-105454819D01*
X130766666Y-105454819D02*
X130861904Y-105407200D01*
X130861904Y-105407200D02*
X130909523Y-105359580D01*
X170642857Y-83904819D02*
X170976190Y-83428628D01*
X171214285Y-83904819D02*
X171214285Y-82904819D01*
X171214285Y-82904819D02*
X170833333Y-82904819D01*
X170833333Y-82904819D02*
X170738095Y-82952438D01*
X170738095Y-82952438D02*
X170690476Y-83000057D01*
X170690476Y-83000057D02*
X170642857Y-83095295D01*
X170642857Y-83095295D02*
X170642857Y-83238152D01*
X170642857Y-83238152D02*
X170690476Y-83333390D01*
X170690476Y-83333390D02*
X170738095Y-83381009D01*
X170738095Y-83381009D02*
X170833333Y-83428628D01*
X170833333Y-83428628D02*
X171214285Y-83428628D01*
X169690476Y-83904819D02*
X170261904Y-83904819D01*
X169976190Y-83904819D02*
X169976190Y-82904819D01*
X169976190Y-82904819D02*
X170071428Y-83047676D01*
X170071428Y-83047676D02*
X170166666Y-83142914D01*
X170166666Y-83142914D02*
X170261904Y-83190533D01*
X169071428Y-82904819D02*
X168976190Y-82904819D01*
X168976190Y-82904819D02*
X168880952Y-82952438D01*
X168880952Y-82952438D02*
X168833333Y-83000057D01*
X168833333Y-83000057D02*
X168785714Y-83095295D01*
X168785714Y-83095295D02*
X168738095Y-83285771D01*
X168738095Y-83285771D02*
X168738095Y-83523866D01*
X168738095Y-83523866D02*
X168785714Y-83714342D01*
X168785714Y-83714342D02*
X168833333Y-83809580D01*
X168833333Y-83809580D02*
X168880952Y-83857200D01*
X168880952Y-83857200D02*
X168976190Y-83904819D01*
X168976190Y-83904819D02*
X169071428Y-83904819D01*
X169071428Y-83904819D02*
X169166666Y-83857200D01*
X169166666Y-83857200D02*
X169214285Y-83809580D01*
X169214285Y-83809580D02*
X169261904Y-83714342D01*
X169261904Y-83714342D02*
X169309523Y-83523866D01*
X169309523Y-83523866D02*
X169309523Y-83285771D01*
X169309523Y-83285771D02*
X169261904Y-83095295D01*
X169261904Y-83095295D02*
X169214285Y-83000057D01*
X169214285Y-83000057D02*
X169166666Y-82952438D01*
X169166666Y-82952438D02*
X169071428Y-82904819D01*
%TO.C,R1*%
X146000000Y-126500000D02*
X158000000Y-126500000D01*
X146000000Y-139500000D02*
X146000000Y-126500000D01*
X146000000Y-139500000D02*
X158000000Y-139500000D01*
X151365000Y-138588000D02*
X150603000Y-139477000D01*
X152635000Y-138588000D02*
X151365000Y-138588000D01*
X153402080Y-139477000D02*
X152640080Y-138588000D01*
X158000000Y-139500000D02*
X158000000Y-126500000D01*
X157871981Y-126903500D02*
G75*
G02*
X157304019Y-126903500I-283981J0D01*
G01*
X157304019Y-126903500D02*
G75*
G02*
X157871981Y-126903500I283981J0D01*
G01*
%TO.C,C14*%
D11*
X158261252Y-92265000D02*
X157738748Y-92265000D01*
X158261252Y-93735000D02*
X157738748Y-93735000D01*
%TO.C,R3*%
X154772936Y-126265000D02*
X155227064Y-126265000D01*
X154772936Y-127735000D02*
X155227064Y-127735000D01*
%TO.C,C8*%
X133865000Y-126061252D02*
X133865000Y-125538748D01*
X135335000Y-126061252D02*
X135335000Y-125538748D01*
%TO.C,D1*%
X153440000Y-129240000D02*
X153440000Y-130760000D01*
X153440000Y-130760000D02*
X154440000Y-130760000D01*
X153490000Y-129240000D02*
X153440000Y-129240000D01*
X155390000Y-129240000D02*
X154610000Y-129240000D01*
X155560000Y-130760000D02*
X156560000Y-130760000D01*
X156560000Y-129240000D02*
X156510000Y-129240000D01*
X156560000Y-130760000D02*
X156560000Y-129240000D01*
X154950000Y-128940000D02*
X154620000Y-128700000D01*
X154950000Y-128460000D01*
X154950000Y-128940000D01*
G36*
X154950000Y-128940000D02*
G01*
X154620000Y-128700000D01*
X154950000Y-128460000D01*
X154950000Y-128940000D01*
G37*
%TO.C,R11*%
X169265000Y-96227064D02*
X169265000Y-95772936D01*
X170735000Y-96227064D02*
X170735000Y-95772936D01*
%TO.C,C5*%
X158261252Y-104265000D02*
X157738748Y-104265000D01*
X158261252Y-105735000D02*
X157738748Y-105735000D01*
%TO.C,R8*%
X131565000Y-125572936D02*
X131565000Y-126027064D01*
X133035000Y-125572936D02*
X133035000Y-126027064D01*
%TO.C,R2*%
X158227064Y-97265000D02*
X157772936Y-97265000D01*
X158227064Y-98735000D02*
X157772936Y-98735000D01*
%TO.C,Q1*%
X149440000Y-129090000D02*
X149440000Y-130910000D01*
X149440000Y-130910000D02*
X150440000Y-130910000D01*
X149490000Y-129090000D02*
X149440000Y-129090000D01*
X151390000Y-129090000D02*
X150610000Y-129090000D01*
X151560000Y-130910000D02*
X152560000Y-130910000D01*
X152560000Y-129090000D02*
X152510000Y-129090000D01*
X152560000Y-130910000D02*
X152560000Y-129090000D01*
X150950000Y-128790000D02*
X150620000Y-128550000D01*
X150950000Y-128310000D01*
X150950000Y-128790000D01*
G36*
X150950000Y-128790000D02*
G01*
X150620000Y-128550000D01*
X150950000Y-128310000D01*
X150950000Y-128790000D01*
G37*
%TO.C,C13*%
X158261252Y-89265000D02*
X157738748Y-89265000D01*
X158261252Y-90735000D02*
X157738748Y-90735000D01*
%TO.C,R14*%
X131265000Y-87772936D02*
X131265000Y-88227064D01*
X132735000Y-87772936D02*
X132735000Y-88227064D01*
%TO.C,R16*%
X134265000Y-87772936D02*
X134265000Y-88227064D01*
X135735000Y-87772936D02*
X135735000Y-88227064D01*
%TO.C,R4*%
X151227064Y-127735000D02*
X150772936Y-127735000D01*
X151227064Y-126265000D02*
X150772936Y-126265000D01*
%TO.C,R6*%
X158227064Y-107265000D02*
X157772936Y-107265000D01*
X158227064Y-108735000D02*
X157772936Y-108735000D01*
%TO.C,R7*%
X157772936Y-101265000D02*
X158227064Y-101265000D01*
X157772936Y-102735000D02*
X158227064Y-102735000D01*
%TO.C,R9*%
X133527064Y-121965000D02*
X133072936Y-121965000D01*
X133527064Y-123435000D02*
X133072936Y-123435000D01*
%TO.C,R5*%
X153265000Y-96772936D02*
X153265000Y-97227064D01*
X154735000Y-96772936D02*
X154735000Y-97227064D01*
%TO.C,R15*%
X133265000Y-105227064D02*
X133265000Y-104772936D01*
X134735000Y-105227064D02*
X134735000Y-104772936D01*
%TO.C,R10*%
X169265000Y-86227064D02*
X169265000Y-85772936D01*
X170735000Y-86227064D02*
X170735000Y-85772936D01*
%TD*%
D12*
%TO.C,W8*%
X170000000Y-90000000D03*
%TD*%
%TO.C,W9*%
X170000000Y-100000000D03*
%TD*%
D13*
%TO.C,W2*%
X171300000Y-129300000D03*
%TD*%
D14*
%TO.C,W7*%
X143000000Y-134000000D03*
%TD*%
D13*
%TO.C,W3*%
X132800000Y-129500000D03*
%TD*%
D14*
%TO.C,W1*%
X165600000Y-133600000D03*
%TD*%
%TO.C,W6*%
X140000000Y-137700000D03*
%TD*%
%TO.C,W4*%
X138600000Y-133700000D03*
%TD*%
%TO.C,W5*%
X165000000Y-137700000D03*
%TD*%
M02*
