%TF.GenerationSoftware,KiCad,Pcbnew,10.0.1*%
%TF.CreationDate,2026-05-02T12:26:32-05:00*%
%TF.ProjectId,ESPDrive,45535044-7269-4766-952e-6b696361645f,rev?*%
%TF.SameCoordinates,Original*%
%TF.FileFunction,Copper,L3,Inr*%
%TF.FilePolarity,Positive*%
%FSLAX46Y46*%
G04 Gerber Fmt 4.6, Leading zero omitted, Abs format (unit mm)*
G04 Created by KiCad (PCBNEW 10.0.1) date 2026-05-02 12:26:32*
%MOMM*%
%LPD*%
G01*
G04 APERTURE LIST*
%TA.AperFunction,ComponentPad*%
%ADD10C,2.000000*%
%TD*%
%TA.AperFunction,ComponentPad*%
%ADD11R,2.000000X2.000000*%
%TD*%
%TA.AperFunction,ComponentPad*%
%ADD12C,2.220000*%
%TD*%
%TA.AperFunction,ComponentPad*%
%ADD13C,2.490000*%
%TD*%
%TA.AperFunction,ComponentPad*%
%ADD14C,2.830000*%
%TD*%
%TA.AperFunction,ComponentPad*%
%ADD15C,1.300000*%
%TD*%
%TA.AperFunction,ComponentPad*%
%ADD16C,2.300000*%
%TD*%
%TA.AperFunction,WasherPad*%
%ADD17C,4.500000*%
%TD*%
%TA.AperFunction,ComponentPad*%
%ADD18R,1.700000X1.700000*%
%TD*%
%TA.AperFunction,ComponentPad*%
%ADD19C,1.700000*%
%TD*%
%TA.AperFunction,ViaPad*%
%ADD20C,0.600000*%
%TD*%
%TA.AperFunction,ViaPad*%
%ADD21C,1.500000*%
%TD*%
%TA.AperFunction,Conductor*%
%ADD22C,0.500000*%
%TD*%
%TA.AperFunction,Conductor*%
%ADD23C,2.000000*%
%TD*%
G04 APERTURE END LIST*
D10*
%TO.N,unconnected-(MCU1-D23-Pad30)*%
%TO.C,MCU1*%
X164675186Y-77873999D03*
%TO.N,unconnected-(MCU1-D22-Pad29)*%
X164675186Y-80413999D03*
%TO.N,unconnected-(MCU1-TX0-Pad28)*%
X164675186Y-82953999D03*
%TO.N,unconnected-(MCU1-RX0-Pad27)*%
X164675186Y-85493999D03*
%TO.N,unconnected-(MCU1-D21-Pad26)*%
X164675186Y-88033999D03*
%TO.N,C_on*%
X164675186Y-90573999D03*
%TO.N,C_lights*%
X164675186Y-93113999D03*
%TO.N,C_relay*%
X164675186Y-95653999D03*
%TO.N,C_en*%
X164675186Y-98193999D03*
%TO.N,unconnected-(MCU1-RX2-Pad21)*%
X164675186Y-100733999D03*
%TO.N,C_vdiv*%
X164675186Y-103273999D03*
%TO.N,unconnected-(MCU1-D2-Pad19)*%
X164675186Y-105813999D03*
%TO.N,unconnected-(MCU1-D15-Pad18)*%
X164675186Y-108353999D03*
%TO.N,GNDREF*%
X164675186Y-110893999D03*
D11*
%TO.N,+3V3*%
X164675186Y-113433999D03*
%TO.N,unconnected-(MCU1-VIN-Pad15)*%
X139275186Y-113433999D03*
D10*
%TO.N,GNDREF*%
X139275186Y-110893999D03*
%TO.N,unconnected-(MCU1-D13-Pad13)*%
X139275186Y-108353999D03*
%TO.N,unconnected-(MCU1-D12-Pad12)*%
X139275186Y-105813999D03*
%TO.N,unconnected-(MCU1-D14-Pad11)*%
X139275186Y-103273999D03*
%TO.N,C_g*%
X139275186Y-100733999D03*
%TO.N,unconnected-(MCU1-D26-Pad9)*%
X139275186Y-98193999D03*
%TO.N,unconnected-(MCU1-D25-Pad8)*%
X139275186Y-95653999D03*
%TO.N,C_r*%
X139275186Y-93113999D03*
%TO.N,C_b*%
X139275186Y-90573999D03*
%TO.N,unconnected-(MCU1-D35-Pad5)*%
X139275186Y-88033999D03*
%TO.N,unconnected-(MCU1-D34-Pad4)*%
X139275186Y-85493999D03*
%TO.N,unconnected-(MCU1-VN-Pad3)*%
X139275186Y-82953999D03*
%TO.N,unconnected-(MCU1-VP-Pad2)*%
X139275186Y-80413999D03*
%TO.N,unconnected-(MCU1-EN-Pad1)*%
X139275186Y-77873999D03*
%TD*%
D12*
%TO.N,S_on*%
%TO.C,W8*%
X170000000Y-90000000D03*
%TD*%
%TO.N,S_lights*%
%TO.C,W9*%
X170000000Y-100000000D03*
%TD*%
D13*
%TO.N,+3V3*%
%TO.C,W2*%
X171300000Y-129300000D03*
%TD*%
D14*
%TO.N,NO*%
%TO.C,W7*%
X143000000Y-134000000D03*
%TD*%
D15*
%TO.N,+BATT*%
%TO.C,R1*%
X155250000Y-134500000D03*
%TO.N,D_relay*%
X147750000Y-127900000D03*
D16*
%TO.N,NC*%
X148250000Y-138100000D03*
%TO.N,Net-(JP1-C)*%
X156250000Y-138100000D03*
%TO.N,NO*%
X148250000Y-135100000D03*
%TD*%
D13*
%TO.N,+12V*%
%TO.C,W3*%
X132800000Y-129500000D03*
%TD*%
D17*
%TO.N,*%
%TO.C,Ref\u002A\u002A*%
X170000000Y-80000000D03*
%TD*%
D18*
%TO.N,Net-(D2-BA)*%
%TO.C,D2*%
X134000000Y-92920000D03*
D19*
%TO.N,Net-(D2-RA)*%
X134000000Y-95460000D03*
%TO.N,GNDREF*%
X134000000Y-98000000D03*
%TO.N,Net-(D2-GA)*%
X134000000Y-100540000D03*
%TD*%
D14*
%TO.N,+BATT*%
%TO.C,W1*%
X165600000Y-133600000D03*
%TD*%
%TO.N,NC*%
%TO.C,W6*%
X140000000Y-137700000D03*
%TD*%
D17*
%TO.N,*%
%TO.C,Ref\u002A\u002A*%
X134000000Y-80000000D03*
%TD*%
D14*
%TO.N,GNDREF*%
%TO.C,W4*%
X138600000Y-133700000D03*
%TD*%
D17*
%TO.N,*%
%TO.C,Ref\u002A\u002A*%
X134000000Y-136000000D03*
%TD*%
D14*
%TO.N,COM*%
%TO.C,W5*%
X165000000Y-137700000D03*
%TD*%
D17*
%TO.N,*%
%TO.C,Ref\u002A\u002A*%
X170000000Y-136000000D03*
%TD*%
D18*
%TO.N,COM*%
%TO.C,JP1*%
X161000000Y-137540000D03*
D19*
%TO.N,Net-(JP1-C)*%
X161000000Y-135000000D03*
%TO.N,+BATT*%
X161000000Y-132460000D03*
%TD*%
D20*
%TO.N,+BATT*%
X170100000Y-111700000D03*
X167000000Y-112100000D03*
X166900000Y-115700000D03*
X162600000Y-117200000D03*
X162600000Y-115900000D03*
X167100000Y-113900000D03*
X172900000Y-112000000D03*
X171600000Y-113600000D03*
X170200000Y-113400000D03*
X131800000Y-113800000D03*
X136400000Y-113200000D03*
X135800000Y-113900000D03*
X135241700Y-113193717D03*
X137300000Y-114250000D03*
X137200000Y-112800000D03*
X137200000Y-111700000D03*
X133800000Y-112600000D03*
%TO.N,C_r*%
X132800000Y-85200000D03*
%TO.N,C_b*%
X135800000Y-85200000D03*
%TO.N,C_g*%
X135700000Y-106000000D03*
%TO.N,+BATT*%
X133900000Y-111500000D03*
X172900000Y-113300000D03*
D21*
X147300000Y-90400000D03*
D20*
X153600000Y-108000000D03*
%TO.N,+3V3*%
X170750000Y-114450000D03*
X158660000Y-95990000D03*
X160420000Y-112050000D03*
%TO.N,C_relay*%
X158900000Y-127000000D03*
%TO.N,C_lights*%
X161300000Y-106000000D03*
%TO.N,C_on*%
X158800000Y-100000000D03*
%TO.N,Net-(U2-FB)*%
X134700000Y-114100000D03*
X136300000Y-124200000D03*
%TO.N,Net-(U2-EN)*%
X145000000Y-98000000D03*
X133600000Y-113700000D03*
%TO.N,Net-(R10-Pad2)*%
X147250000Y-100550000D03*
X167700000Y-84250000D03*
%TO.N,Net-(R11-Pad2)*%
X168000000Y-93000000D03*
X149900000Y-107390000D03*
%TD*%
%TO.N,Net-(U2-FB)*%
D22*
X136300000Y-115700000D02*
X136300000Y-124200000D01*
X134700000Y-114100000D02*
X136300000Y-115700000D01*
%TO.N,+3V3*%
X170750000Y-114450000D02*
X171300000Y-115000000D01*
X171300000Y-115000000D02*
X171300000Y-124400000D01*
D23*
X171300000Y-124400000D02*
X171300000Y-129300000D01*
X164675186Y-117775186D02*
X171300000Y-124400000D01*
X164675186Y-113433999D02*
X164675186Y-117775186D01*
%TO.N,+BATT*%
X161000000Y-132460000D02*
X164460000Y-132460000D01*
X164460000Y-132460000D02*
X165600000Y-133600000D01*
%TO.N,C_relay*%
D22*
X162500000Y-96200000D02*
X162500000Y-113800000D01*
X160000000Y-125900000D02*
X158900000Y-127000000D01*
X163043557Y-95656443D02*
X162500000Y-96200000D01*
X162500000Y-113800000D02*
X160000000Y-116300000D01*
X164420000Y-95656443D02*
X163043557Y-95656443D01*
X160000000Y-116300000D02*
X160000000Y-125900000D01*
%TO.N,C_lights*%
X162283557Y-93116443D02*
X161300000Y-94100000D01*
X161300000Y-94100000D02*
X161300000Y-106000000D01*
X164420000Y-93116443D02*
X162283557Y-93116443D01*
%TO.N,C_on*%
X159800000Y-92500000D02*
X161723557Y-90576443D01*
X161723557Y-90576443D02*
X164420000Y-90576443D01*
X159800000Y-99000000D02*
X159800000Y-92500000D01*
X158800000Y-100000000D02*
X159800000Y-99000000D01*
%TO.N,NO*%
D23*
X148250000Y-135100000D02*
X144100000Y-135100000D01*
X144100000Y-135100000D02*
X143000000Y-134000000D01*
%TO.N,NC*%
X140400000Y-138100000D02*
X140000000Y-137700000D01*
X148250000Y-138100000D02*
X140400000Y-138100000D01*
%TO.N,Net-(JP1-C)*%
X156250000Y-138100000D02*
X159350000Y-135000000D01*
X159350000Y-135000000D02*
X161000000Y-135000000D01*
%TO.N,Net-(R10-Pad2)*%
D22*
X154500000Y-93300000D02*
X147250000Y-100550000D01*
X157270000Y-84230000D02*
X154500000Y-87000000D01*
X167700000Y-84250000D02*
X167670000Y-84220000D01*
X154500000Y-87000000D02*
X154500000Y-93300000D01*
X163832917Y-84232917D02*
X163830000Y-84230000D01*
X167670000Y-84220000D02*
X165400000Y-84220000D01*
X163830000Y-84230000D02*
X157270000Y-84230000D01*
%TO.N,Net-(R11-Pad2)*%
X150670000Y-99600000D02*
X150700000Y-99600000D01*
X149900000Y-107390000D02*
X150670000Y-106620000D01*
X150670000Y-106620000D02*
X150670000Y-99600000D01*
X166570000Y-86770000D02*
X165400000Y-86770000D01*
X167500000Y-92500000D02*
X167500000Y-87700000D01*
X158770000Y-86770000D02*
X163860000Y-86770000D01*
X156560000Y-93740000D02*
X156560000Y-88980000D01*
X156560000Y-88980000D02*
X158770000Y-86770000D01*
X150700000Y-99600000D02*
X156560000Y-93740000D01*
X168000000Y-93000000D02*
X167500000Y-92500000D01*
X167500000Y-87700000D02*
X166570000Y-86770000D01*
%TO.N,COM*%
D23*
X165000000Y-137700000D02*
X161160000Y-137700000D01*
X161160000Y-137700000D02*
X161000000Y-137540000D01*
%TD*%
%TA.AperFunction,Conductor*%
%TO.N,Net-(R11-Pad2)*%
G36*
X164032416Y-86519815D02*
G01*
X164054615Y-86525155D01*
X164214354Y-86606546D01*
X164394068Y-86664939D01*
X164580705Y-86694499D01*
X164580706Y-86694499D01*
X164769666Y-86694499D01*
X164769667Y-86694499D01*
X164956304Y-86664939D01*
X165136018Y-86606546D01*
X165293607Y-86526250D01*
X165315885Y-86520911D01*
X165483735Y-86521055D01*
X165518369Y-86535435D01*
X165532691Y-86570096D01*
X165532691Y-86570159D01*
X165531824Y-86975314D01*
X165517398Y-87009931D01*
X165482753Y-87024209D01*
X165343315Y-87024007D01*
X165314587Y-87014650D01*
X165304387Y-87007240D01*
X165304382Y-87007237D01*
X165136019Y-86921452D01*
X164956304Y-86863059D01*
X164956301Y-86863058D01*
X164812930Y-86840351D01*
X164769667Y-86833499D01*
X164580705Y-86833499D01*
X164545583Y-86839061D01*
X164394070Y-86863058D01*
X164394067Y-86863059D01*
X164214352Y-86921452D01*
X164045990Y-87007236D01*
X164045987Y-87007238D01*
X164038426Y-87012731D01*
X164009557Y-87022087D01*
X163681017Y-87021614D01*
X163646390Y-87007212D01*
X163632088Y-86972574D01*
X163632434Y-86568472D01*
X163646815Y-86533837D01*
X163681473Y-86519515D01*
X164032416Y-86519815D01*
G37*
%TD.AperFunction*%
%TD*%
%TA.AperFunction,Conductor*%
%TO.N,Net-(R10-Pad2)*%
G36*
X164026525Y-83976814D02*
G01*
X164048726Y-83982155D01*
X164137062Y-84027164D01*
X164214354Y-84066546D01*
X164394068Y-84124939D01*
X164580705Y-84154499D01*
X164580706Y-84154499D01*
X164769666Y-84154499D01*
X164769667Y-84154499D01*
X164956304Y-84124939D01*
X165136018Y-84066546D01*
X165299475Y-83983261D01*
X165321758Y-83977920D01*
X165483733Y-83978059D01*
X165518369Y-83992441D01*
X165532691Y-84027101D01*
X165532691Y-84027164D01*
X165531824Y-84432318D01*
X165517398Y-84466935D01*
X165482753Y-84481213D01*
X165339183Y-84481005D01*
X165310455Y-84471648D01*
X165304392Y-84467244D01*
X165304379Y-84467235D01*
X165136019Y-84381452D01*
X164956304Y-84323059D01*
X164956301Y-84323058D01*
X164812930Y-84300351D01*
X164769667Y-84293499D01*
X164580705Y-84293499D01*
X164545583Y-84299061D01*
X164394070Y-84323058D01*
X164394067Y-84323059D01*
X164214352Y-84381452D01*
X164045993Y-84467234D01*
X164042542Y-84469742D01*
X164013673Y-84479097D01*
X163681017Y-84478618D01*
X163646390Y-84464216D01*
X163632088Y-84429578D01*
X163632434Y-84025476D01*
X163646815Y-83990841D01*
X163681473Y-83976519D01*
X164026525Y-83976814D01*
G37*
%TD.AperFunction*%
%TD*%
%TA.AperFunction,Conductor*%
%TO.N,+BATT*%
G36*
X141459499Y-76504227D02*
G01*
X141466398Y-76507085D01*
X141482304Y-76522991D01*
X141492913Y-76533598D01*
X141495771Y-76540499D01*
X141499500Y-76559247D01*
X141499500Y-80065898D01*
X141533494Y-80192764D01*
X141533596Y-80193160D01*
X141533608Y-80193188D01*
X141591288Y-80293092D01*
X141599496Y-80307308D01*
X141599498Y-80307310D01*
X141599500Y-80307314D01*
X141692686Y-80400500D01*
X141711082Y-80411121D01*
X141766353Y-80443032D01*
X141806812Y-80466392D01*
X141880303Y-80486083D01*
X141907207Y-80493292D01*
X141931012Y-80499670D01*
X141933455Y-80500500D01*
X162065895Y-80500500D01*
X162072689Y-80500500D01*
X162078575Y-80497101D01*
X162193186Y-80466392D01*
X162307314Y-80400500D01*
X162388296Y-80319518D01*
X163474686Y-80319518D01*
X163474686Y-80508478D01*
X163504245Y-80695114D01*
X163504247Y-80695122D01*
X163504275Y-80695207D01*
X163562639Y-80874833D01*
X163648416Y-81043182D01*
X163648422Y-81043193D01*
X163648429Y-81043207D01*
X163648627Y-81043475D01*
X163759496Y-81196072D01*
X163759498Y-81196074D01*
X163759504Y-81196082D01*
X163893100Y-81329677D01*
X163893106Y-81329683D01*
X163893109Y-81329685D01*
X163893113Y-81329689D01*
X163893126Y-81329698D01*
X163893304Y-81329845D01*
X163893844Y-81330220D01*
X164045987Y-81440759D01*
X164045989Y-81440760D01*
X164045992Y-81440762D01*
X164109728Y-81473237D01*
X164214304Y-81526521D01*
X164214326Y-81526532D01*
X164214352Y-81526545D01*
X164214354Y-81526546D01*
X164394068Y-81584939D01*
X164580705Y-81614499D01*
X164580706Y-81614499D01*
X164769666Y-81614499D01*
X164769667Y-81614499D01*
X164956304Y-81584939D01*
X165136018Y-81526546D01*
X165304385Y-81440759D01*
X165457259Y-81329689D01*
X165590876Y-81196072D01*
X165701946Y-81043198D01*
X165787733Y-80874831D01*
X165846126Y-80695117D01*
X165875686Y-80508480D01*
X165875686Y-80319518D01*
X165846126Y-80132881D01*
X165787733Y-79953167D01*
X165741476Y-79862383D01*
X165741475Y-79862381D01*
X167549500Y-79862381D01*
X167549500Y-80137617D01*
X167580008Y-80408377D01*
X167580008Y-80408384D01*
X167580315Y-80411112D01*
X167580316Y-80411116D01*
X167641561Y-80679451D01*
X167647074Y-80695207D01*
X167732464Y-80939239D01*
X167732488Y-80939296D01*
X167732640Y-80939605D01*
X167851417Y-81186250D01*
X167851462Y-81186342D01*
X167851879Y-81187208D01*
X167851880Y-81187210D01*
X167851883Y-81187214D01*
X167851886Y-81187221D01*
X167851910Y-81187260D01*
X167851911Y-81187261D01*
X167852031Y-81187453D01*
X167852792Y-81188685D01*
X167852950Y-81188915D01*
X167941502Y-81329845D01*
X167998319Y-81420268D01*
X168014662Y-81440762D01*
X168040560Y-81473237D01*
X168153212Y-81614499D01*
X168169918Y-81635447D01*
X168169929Y-81635459D01*
X168364540Y-81830070D01*
X168364552Y-81830081D01*
X168378811Y-81841452D01*
X168579732Y-82001681D01*
X168812779Y-82148114D01*
X168812787Y-82148118D01*
X168812789Y-82148119D01*
X168812791Y-82148120D01*
X169060552Y-82267435D01*
X169060732Y-82267524D01*
X169060777Y-82267542D01*
X169060969Y-82267608D01*
X169320546Y-82358438D01*
X169588879Y-82419683D01*
X169823311Y-82446097D01*
X169837509Y-82447697D01*
X169862381Y-82450500D01*
X169862382Y-82450500D01*
X169862383Y-82450500D01*
X170137617Y-82450500D01*
X170137618Y-82450500D01*
X170162481Y-82447698D01*
X170411121Y-82419683D01*
X170679454Y-82358438D01*
X170939243Y-82267534D01*
X171137775Y-82171926D01*
X171187209Y-82148120D01*
X171187210Y-82148119D01*
X171187221Y-82148114D01*
X171420268Y-82001681D01*
X171635455Y-81830075D01*
X171830075Y-81635455D01*
X172001681Y-81420268D01*
X172148114Y-81187221D01*
X172267534Y-80939243D01*
X172358438Y-80679454D01*
X172419683Y-80411121D01*
X172450500Y-80137617D01*
X172450500Y-79862383D01*
X172419683Y-79588879D01*
X172358438Y-79320546D01*
X172267534Y-79060757D01*
X172267502Y-79060691D01*
X172259917Y-79044942D01*
X172259916Y-79044938D01*
X172259916Y-79044939D01*
X172148120Y-78812791D01*
X172148119Y-78812789D01*
X172148118Y-78812787D01*
X172148114Y-78812779D01*
X172001681Y-78579732D01*
X171918557Y-78475498D01*
X171830081Y-78364552D01*
X171830070Y-78364540D01*
X171635452Y-78169922D01*
X171444835Y-78017910D01*
X171444807Y-78017889D01*
X171420269Y-77998320D01*
X171420270Y-77998320D01*
X171420268Y-77998319D01*
X171188904Y-77852944D01*
X171188672Y-77852784D01*
X171187453Y-77852031D01*
X171187440Y-77852023D01*
X171187387Y-77851990D01*
X171187221Y-77851886D01*
X171187214Y-77851883D01*
X171187210Y-77851880D01*
X171187208Y-77851879D01*
X171187201Y-77851875D01*
X171187153Y-77851846D01*
X171186861Y-77851696D01*
X171186276Y-77851430D01*
X171036949Y-77779518D01*
X170939558Y-77732616D01*
X170939296Y-77732488D01*
X170939251Y-77732469D01*
X170939247Y-77732467D01*
X170939241Y-77732465D01*
X170939239Y-77732464D01*
X170716335Y-77654467D01*
X170709590Y-77648439D01*
X170642737Y-77633181D01*
X170551653Y-77612392D01*
X170526642Y-77606683D01*
X170411130Y-77580318D01*
X170411131Y-77580318D01*
X170410945Y-77580287D01*
X170410394Y-77580234D01*
X170137619Y-77549500D01*
X170137618Y-77549500D01*
X170137617Y-77549500D01*
X169862383Y-77549500D01*
X169862382Y-77549500D01*
X169862381Y-77549500D01*
X169591622Y-77580008D01*
X169591608Y-77580008D01*
X169588886Y-77580315D01*
X169320550Y-77641560D01*
X169060759Y-77732464D01*
X169060691Y-77732492D01*
X169060393Y-77732639D01*
X168812815Y-77851866D01*
X168812792Y-77851877D01*
X168579731Y-77998318D01*
X168364553Y-78169916D01*
X168169916Y-78364553D01*
X167998317Y-78579733D01*
X167997207Y-78581471D01*
X167997048Y-78581753D01*
X167866396Y-78789688D01*
X167866395Y-78789689D01*
X167851884Y-78812780D01*
X167851881Y-78812787D01*
X167851860Y-78812828D01*
X167732639Y-79060393D01*
X167732492Y-79060691D01*
X167732464Y-79060759D01*
X167641560Y-79320550D01*
X167580315Y-79588886D01*
X167580008Y-79591615D01*
X167580008Y-79591621D01*
X167549500Y-79862381D01*
X165741475Y-79862381D01*
X165701947Y-79784802D01*
X165701813Y-79784618D01*
X165641838Y-79702068D01*
X165591438Y-79632699D01*
X165591438Y-79632698D01*
X165590873Y-79631922D01*
X165478498Y-79519547D01*
X165475057Y-79511240D01*
X165304376Y-79387233D01*
X165136020Y-79301452D01*
X164956394Y-79243088D01*
X164956309Y-79243060D01*
X164956301Y-79243058D01*
X164812930Y-79220351D01*
X164769667Y-79213499D01*
X164580705Y-79213499D01*
X164545582Y-79219060D01*
X164545583Y-79219061D01*
X164394069Y-79243058D01*
X164394055Y-79243061D01*
X164393976Y-79243088D01*
X164214350Y-79301452D01*
X164045997Y-79387231D01*
X163893099Y-79498319D01*
X163759506Y-79631912D01*
X163648418Y-79784810D01*
X163562639Y-79953163D01*
X163504275Y-80132789D01*
X163504248Y-80132868D01*
X163504245Y-80132882D01*
X163474686Y-80319518D01*
X162388296Y-80319518D01*
X162400500Y-80307314D01*
X162466392Y-80193186D01*
X162497101Y-80078575D01*
X162500500Y-80072689D01*
X162500500Y-77779518D01*
X163474686Y-77779518D01*
X163474686Y-77968478D01*
X163504245Y-78155114D01*
X163504247Y-78155122D01*
X163504275Y-78155207D01*
X163562639Y-78334833D01*
X163648416Y-78503182D01*
X163648422Y-78503193D01*
X163648429Y-78503207D01*
X163648627Y-78503475D01*
X163759496Y-78656072D01*
X163759498Y-78656074D01*
X163759504Y-78656082D01*
X163893100Y-78789677D01*
X163893106Y-78789683D01*
X163893109Y-78789685D01*
X163893113Y-78789689D01*
X163893126Y-78789698D01*
X163893304Y-78789845D01*
X163893844Y-78790220D01*
X164045987Y-78900759D01*
X164045989Y-78900760D01*
X164045992Y-78900762D01*
X164120940Y-78938949D01*
X164214304Y-78986521D01*
X164214326Y-78986532D01*
X164214352Y-78986545D01*
X164214354Y-78986546D01*
X164394068Y-79044939D01*
X164580705Y-79074499D01*
X164580706Y-79074499D01*
X164769666Y-79074499D01*
X164769667Y-79074499D01*
X164956304Y-79044939D01*
X165136018Y-78986546D01*
X165304385Y-78900759D01*
X165457259Y-78789689D01*
X165590876Y-78656072D01*
X165701946Y-78503198D01*
X165787733Y-78334831D01*
X165846126Y-78155117D01*
X165875686Y-77968480D01*
X165875686Y-77779518D01*
X165846126Y-77592881D01*
X165787733Y-77413167D01*
X165701946Y-77244800D01*
X165591438Y-77092699D01*
X165591438Y-77092698D01*
X165590873Y-77091922D01*
X165478498Y-76979547D01*
X165475057Y-76971240D01*
X165304376Y-76847233D01*
X165136020Y-76761452D01*
X164956394Y-76703088D01*
X164956309Y-76703060D01*
X164956301Y-76703058D01*
X164812930Y-76680351D01*
X164769667Y-76673499D01*
X164580705Y-76673499D01*
X164545582Y-76679060D01*
X164545583Y-76679061D01*
X164394069Y-76703058D01*
X164394055Y-76703061D01*
X164393976Y-76703088D01*
X164214350Y-76761452D01*
X164045997Y-76847231D01*
X163893099Y-76958319D01*
X163759506Y-77091912D01*
X163648418Y-77244810D01*
X163562639Y-77413163D01*
X163504275Y-77592789D01*
X163504248Y-77592868D01*
X163504245Y-77592882D01*
X163474686Y-77779518D01*
X162500500Y-77779518D01*
X162500500Y-76559247D01*
X162504227Y-76540502D01*
X162507083Y-76533606D01*
X162533594Y-76507088D01*
X162540502Y-76504226D01*
X162559247Y-76500500D01*
X173440753Y-76500500D01*
X173459499Y-76504227D01*
X173466393Y-76507083D01*
X173492913Y-76533598D01*
X173495771Y-76540499D01*
X173499500Y-76559247D01*
X173499500Y-139440752D01*
X173495771Y-139459501D01*
X173495534Y-139460076D01*
X173492916Y-139466396D01*
X173466398Y-139492914D01*
X173459503Y-139495770D01*
X173440753Y-139499500D01*
X156632213Y-139499500D01*
X156613459Y-139495769D01*
X156609189Y-139494000D01*
X156598298Y-139483108D01*
X156585926Y-139473941D01*
X156585365Y-139470173D01*
X156582672Y-139467480D01*
X156582672Y-139452079D01*
X156580406Y-139436847D01*
X156582673Y-139433786D01*
X156582674Y-139429977D01*
X156602733Y-139406714D01*
X156602773Y-139406690D01*
X156612842Y-139402105D01*
X156626091Y-139397800D01*
X156639977Y-139393288D01*
X156768412Y-139351557D01*
X156957816Y-139255051D01*
X157129792Y-139130104D01*
X157129795Y-139130100D01*
X157129798Y-139130099D01*
X157131376Y-139128520D01*
X157131504Y-139128415D01*
X157132043Y-139127884D01*
X157132243Y-139127653D01*
X157280099Y-138979798D01*
X157280100Y-138979795D01*
X157280104Y-138979792D01*
X157280106Y-138979788D01*
X157280171Y-138979724D01*
X157280351Y-138979543D01*
X157281154Y-138978346D01*
X157405051Y-138807816D01*
X157501557Y-138618412D01*
X157530883Y-138528150D01*
X157535699Y-138517702D01*
X157541601Y-138508071D01*
X157548722Y-138499039D01*
X158602242Y-137445519D01*
X159799500Y-137445519D01*
X159799500Y-137634480D01*
X159799655Y-137635459D01*
X159829059Y-137821115D01*
X159829061Y-137821123D01*
X159829089Y-137821208D01*
X159887453Y-138000833D01*
X159926922Y-138078296D01*
X159926923Y-138078297D01*
X159941528Y-138106960D01*
X159945513Y-138117762D01*
X159948146Y-138128729D01*
X159949500Y-138140168D01*
X159949500Y-138409748D01*
X159961133Y-138468231D01*
X159978882Y-138494795D01*
X160005444Y-138534549D01*
X160005447Y-138534552D01*
X160023631Y-138546702D01*
X160023636Y-138546705D01*
X160071769Y-138578867D01*
X160130252Y-138590500D01*
X160322692Y-138590500D01*
X160341444Y-138594230D01*
X160358082Y-138601122D01*
X160373978Y-138611744D01*
X160377916Y-138615682D01*
X160377920Y-138615685D01*
X160377924Y-138615688D01*
X160377926Y-138615690D01*
X160530801Y-138726760D01*
X160530803Y-138726761D01*
X160689900Y-138807825D01*
X160699168Y-138812547D01*
X160878882Y-138870940D01*
X161065518Y-138900500D01*
X161065519Y-138900500D01*
X163885796Y-138900500D01*
X163904548Y-138904230D01*
X163921186Y-138911122D01*
X163937082Y-138921744D01*
X163945114Y-138929776D01*
X163947567Y-138932229D01*
X163947571Y-138932232D01*
X163947573Y-138932234D01*
X164153294Y-139081699D01*
X164379863Y-139197142D01*
X164621703Y-139275721D01*
X164872857Y-139315500D01*
X164872858Y-139315500D01*
X165127142Y-139315500D01*
X165127143Y-139315500D01*
X165378297Y-139275721D01*
X165620137Y-139197142D01*
X165846706Y-139081699D01*
X166052427Y-138932234D01*
X166052430Y-138932230D01*
X166052433Y-138932229D01*
X166054011Y-138930650D01*
X166054139Y-138930545D01*
X166054678Y-138930014D01*
X166054878Y-138929783D01*
X166232229Y-138752433D01*
X166232230Y-138752430D01*
X166232234Y-138752427D01*
X166232236Y-138752423D01*
X166232301Y-138752359D01*
X166232481Y-138752178D01*
X166233284Y-138750981D01*
X166381699Y-138546706D01*
X166497142Y-138320137D01*
X166575721Y-138078297D01*
X166615500Y-137827143D01*
X166615500Y-137572857D01*
X166586885Y-137392188D01*
X166575721Y-137321702D01*
X166531709Y-137186250D01*
X166497142Y-137079863D01*
X166381699Y-136853294D01*
X166232234Y-136647573D01*
X166232232Y-136647571D01*
X166232230Y-136647568D01*
X166232226Y-136647563D01*
X166052434Y-136467772D01*
X166052433Y-136467771D01*
X166052428Y-136467767D01*
X166052423Y-136467763D01*
X166052415Y-136467757D01*
X166028663Y-136450501D01*
X166028661Y-136450499D01*
X165970685Y-136408377D01*
X165846706Y-136318301D01*
X165657203Y-136221744D01*
X165628767Y-136207255D01*
X165628764Y-136207254D01*
X165620137Y-136202858D01*
X165620136Y-136202857D01*
X165620135Y-136202857D01*
X165610930Y-136199866D01*
X165610925Y-136199864D01*
X165378387Y-136124308D01*
X165378302Y-136124280D01*
X165378294Y-136124278D01*
X165185363Y-136093721D01*
X165174396Y-136091984D01*
X165127143Y-136084500D01*
X165127142Y-136084500D01*
X164872857Y-136084500D01*
X164825592Y-136091984D01*
X164825593Y-136091985D01*
X164621704Y-136124278D01*
X164621690Y-136124281D01*
X164621611Y-136124308D01*
X164379865Y-136202856D01*
X164153294Y-136318301D01*
X163947607Y-136467740D01*
X163947562Y-136467774D01*
X163937081Y-136478256D01*
X163921188Y-136488876D01*
X163904548Y-136495769D01*
X163885798Y-136499500D01*
X161927255Y-136499500D01*
X161922446Y-136499263D01*
X161917670Y-136498792D01*
X161912919Y-136498087D01*
X161869754Y-136489500D01*
X161869751Y-136489500D01*
X161869748Y-136489500D01*
X161600171Y-136489500D01*
X161588731Y-136488146D01*
X161583857Y-136486975D01*
X161577761Y-136485512D01*
X161566957Y-136481525D01*
X161460834Y-136427453D01*
X161281208Y-136369089D01*
X161281123Y-136369061D01*
X161281115Y-136369059D01*
X161137744Y-136346352D01*
X161094481Y-136339500D01*
X160905519Y-136339500D01*
X160870396Y-136345061D01*
X160870397Y-136345062D01*
X160718883Y-136369059D01*
X160718869Y-136369062D01*
X160718790Y-136369089D01*
X160539164Y-136427453D01*
X160433042Y-136481525D01*
X160422239Y-136485511D01*
X160411271Y-136488145D01*
X160399829Y-136489500D01*
X160130252Y-136489500D01*
X160079979Y-136499500D01*
X160079978Y-136499499D01*
X160071771Y-136501132D01*
X160071765Y-136501134D01*
X160005446Y-136545446D01*
X159961133Y-136611767D01*
X159961133Y-136611769D01*
X159949500Y-136670252D01*
X159949500Y-136670255D01*
X159949500Y-136939829D01*
X159948145Y-136951271D01*
X159945511Y-136962239D01*
X159941525Y-136973042D01*
X159887453Y-137079164D01*
X159829089Y-137258790D01*
X159829062Y-137258869D01*
X159829059Y-137258883D01*
X159829059Y-137258884D01*
X159799500Y-137445519D01*
X158602242Y-137445519D01*
X159826021Y-136221741D01*
X159841913Y-136211123D01*
X159858558Y-136204228D01*
X159877307Y-136200500D01*
X161094480Y-136200500D01*
X161094481Y-136200500D01*
X161281118Y-136170940D01*
X161460832Y-136112547D01*
X161629199Y-136026760D01*
X161782073Y-135915690D01*
X161782079Y-135915684D01*
X161835383Y-135862381D01*
X167549500Y-135862381D01*
X167549500Y-136137617D01*
X167580008Y-136408377D01*
X167580008Y-136408384D01*
X167580315Y-136411112D01*
X167641560Y-136679448D01*
X167732464Y-136939239D01*
X167732488Y-136939296D01*
X167732616Y-136939558D01*
X167746254Y-136967875D01*
X167851417Y-137186250D01*
X167851464Y-137186347D01*
X167851879Y-137187208D01*
X167851880Y-137187210D01*
X167851883Y-137187214D01*
X167851886Y-137187221D01*
X167851908Y-137187257D01*
X167851915Y-137187270D01*
X167852018Y-137187435D01*
X167852781Y-137188669D01*
X167852950Y-137188915D01*
X167936386Y-137321702D01*
X167936386Y-137321703D01*
X167998317Y-137420265D01*
X168169146Y-137634480D01*
X168169918Y-137635447D01*
X168169929Y-137635459D01*
X168364540Y-137830070D01*
X168364552Y-137830081D01*
X168473792Y-137917197D01*
X168579732Y-138001681D01*
X168812779Y-138148114D01*
X168812787Y-138148118D01*
X168812789Y-138148119D01*
X168812791Y-138148120D01*
X169060552Y-138267435D01*
X169060732Y-138267524D01*
X169060777Y-138267542D01*
X169060969Y-138267608D01*
X169320546Y-138358438D01*
X169588879Y-138419683D01*
X169823311Y-138446097D01*
X169837509Y-138447697D01*
X169862381Y-138450500D01*
X169862382Y-138450500D01*
X169862383Y-138450500D01*
X170137617Y-138450500D01*
X170137618Y-138450500D01*
X170162481Y-138447698D01*
X170411121Y-138419683D01*
X170679454Y-138358438D01*
X170939243Y-138267534D01*
X171187221Y-138148114D01*
X171420268Y-138001681D01*
X171635455Y-137830075D01*
X171830075Y-137635455D01*
X172001681Y-137420268D01*
X172148114Y-137187221D01*
X172267534Y-136939243D01*
X172358438Y-136679454D01*
X172419683Y-136411121D01*
X172450500Y-136137617D01*
X172450500Y-135862383D01*
X172419683Y-135588879D01*
X172358438Y-135320546D01*
X172274862Y-135081698D01*
X172267536Y-135060762D01*
X172267535Y-135060760D01*
X172267534Y-135060757D01*
X172263525Y-135052433D01*
X172148120Y-134812791D01*
X172148119Y-134812789D01*
X172148118Y-134812787D01*
X172148114Y-134812779D01*
X172140084Y-134800000D01*
X172001683Y-134579735D01*
X171975343Y-134546706D01*
X171879085Y-134426001D01*
X171867012Y-134410862D01*
X171830088Y-134364560D01*
X171830064Y-134364534D01*
X171635465Y-134169935D01*
X171635445Y-134169916D01*
X171444835Y-134017910D01*
X171444807Y-134017889D01*
X171420269Y-133998320D01*
X171420270Y-133998320D01*
X171420268Y-133998319D01*
X171188904Y-133852944D01*
X171188672Y-133852784D01*
X171187453Y-133852031D01*
X171187440Y-133852023D01*
X171187387Y-133851990D01*
X171187221Y-133851886D01*
X171187214Y-133851883D01*
X171187210Y-133851880D01*
X171187208Y-133851879D01*
X171187201Y-133851875D01*
X171187153Y-133851846D01*
X171186861Y-133851696D01*
X171186276Y-133851430D01*
X171092670Y-133806352D01*
X170939558Y-133732616D01*
X170939296Y-133732488D01*
X170939251Y-133732469D01*
X170939247Y-133732467D01*
X170939241Y-133732465D01*
X170939239Y-133732464D01*
X170716335Y-133654467D01*
X170709590Y-133648439D01*
X170642737Y-133633181D01*
X170551653Y-133612392D01*
X170526642Y-133606683D01*
X170411130Y-133580318D01*
X170411131Y-133580318D01*
X170410945Y-133580287D01*
X170410394Y-133580234D01*
X170137619Y-133549500D01*
X170137618Y-133549500D01*
X170137617Y-133549500D01*
X169862383Y-133549500D01*
X169862382Y-133549500D01*
X169862381Y-133549500D01*
X169591622Y-133580008D01*
X169591608Y-133580008D01*
X169588886Y-133580315D01*
X169320550Y-133641560D01*
X169060759Y-133732464D01*
X169060691Y-133732492D01*
X169060393Y-133732639D01*
X168812815Y-133851866D01*
X168812796Y-133851875D01*
X168811972Y-133852333D01*
X168811010Y-133852997D01*
X168745503Y-133894158D01*
X168745502Y-133894159D01*
X168579731Y-133998318D01*
X168364553Y-134169916D01*
X168169916Y-134364553D01*
X167998318Y-134579731D01*
X167975658Y-134615796D01*
X167972932Y-134620135D01*
X167870123Y-134783757D01*
X167870122Y-134783758D01*
X167870121Y-134783759D01*
X167851884Y-134812780D01*
X167851881Y-134812787D01*
X167851860Y-134812828D01*
X167732639Y-135060393D01*
X167732492Y-135060691D01*
X167732464Y-135060759D01*
X167641560Y-135320550D01*
X167580315Y-135588886D01*
X167580008Y-135591615D01*
X167580008Y-135591621D01*
X167549500Y-135862381D01*
X161835383Y-135862381D01*
X161871404Y-135826360D01*
X161915684Y-135782079D01*
X161915690Y-135782073D01*
X162026760Y-135629199D01*
X162112547Y-135460832D01*
X162170940Y-135281118D01*
X162200500Y-135094481D01*
X162200500Y-134905519D01*
X162170940Y-134718882D01*
X162112547Y-134539168D01*
X162100233Y-134515000D01*
X162026763Y-134370806D01*
X162026761Y-134370803D01*
X162026760Y-134370801D01*
X161915690Y-134217927D01*
X161915688Y-134217925D01*
X161915686Y-134217922D01*
X161803312Y-134105548D01*
X161799871Y-134097241D01*
X161660221Y-133995779D01*
X161629193Y-133973236D01*
X161629192Y-133973235D01*
X161629190Y-133973234D01*
X161460834Y-133887453D01*
X161281208Y-133829089D01*
X161281123Y-133829061D01*
X161281115Y-133829059D01*
X161137744Y-133806352D01*
X161094481Y-133799500D01*
X159444481Y-133799500D01*
X159255518Y-133799500D01*
X159220395Y-133805061D01*
X159220396Y-133805062D01*
X159068883Y-133829059D01*
X159068869Y-133829062D01*
X159068790Y-133829089D01*
X158889164Y-133887453D01*
X158720805Y-133973236D01*
X158567940Y-134084297D01*
X158567917Y-134084316D01*
X155850966Y-136801267D01*
X155841920Y-136808399D01*
X155832300Y-136814294D01*
X155821841Y-136819116D01*
X155731585Y-136848443D01*
X155542188Y-136944945D01*
X155542184Y-136944948D01*
X155542173Y-136944955D01*
X155370204Y-137069898D01*
X155219898Y-137220204D01*
X155094955Y-137392173D01*
X155094948Y-137392184D01*
X155094945Y-137392188D01*
X154998442Y-137581587D01*
X154932783Y-137783665D01*
X154932756Y-137783744D01*
X154932753Y-137783758D01*
X154911619Y-137917197D01*
X154899500Y-137993713D01*
X154899500Y-138206286D01*
X154909201Y-138267534D01*
X154932753Y-138416240D01*
X154932755Y-138416248D01*
X154932783Y-138416333D01*
X154998442Y-138618411D01*
X155066729Y-138752433D01*
X155094947Y-138807813D01*
X155094948Y-138807815D01*
X155094955Y-138807825D01*
X155219883Y-138979776D01*
X155219902Y-138979799D01*
X155370200Y-139130098D01*
X155370203Y-139130100D01*
X155370206Y-139130102D01*
X155370208Y-139130104D01*
X155429221Y-139172979D01*
X155462478Y-139197142D01*
X155542184Y-139255051D01*
X155731588Y-139351557D01*
X155860023Y-139393288D01*
X155860022Y-139393288D01*
X155868639Y-139396087D01*
X155883407Y-139400886D01*
X155899707Y-139410104D01*
X155900089Y-139410230D01*
X155903606Y-139413233D01*
X155903650Y-139413320D01*
X155903864Y-139413506D01*
X155909675Y-139425150D01*
X155920627Y-139446651D01*
X155920540Y-139446917D01*
X155920612Y-139447061D01*
X155916263Y-139460076D01*
X155909034Y-139482317D01*
X155908779Y-139482473D01*
X155908727Y-139482631D01*
X155907653Y-139483166D01*
X155883413Y-139498088D01*
X155883368Y-139498099D01*
X155875945Y-139498992D01*
X155875172Y-139499379D01*
X155874527Y-139499163D01*
X155871733Y-139499500D01*
X148632213Y-139499500D01*
X148613459Y-139495769D01*
X148609189Y-139494000D01*
X148582672Y-139467480D01*
X148582674Y-139429977D01*
X148602733Y-139406714D01*
X148602773Y-139406690D01*
X148612842Y-139402105D01*
X148626091Y-139397800D01*
X148639977Y-139393288D01*
X148768412Y-139351557D01*
X148957816Y-139255051D01*
X149129792Y-139130104D01*
X149129795Y-139130100D01*
X149129798Y-139130099D01*
X149131376Y-139128520D01*
X149131504Y-139128415D01*
X149132043Y-139127884D01*
X149132243Y-139127653D01*
X149280099Y-138979798D01*
X149280100Y-138979795D01*
X149280104Y-138979792D01*
X149280106Y-138979788D01*
X149280171Y-138979724D01*
X149280351Y-138979543D01*
X149281154Y-138978346D01*
X149405051Y-138807816D01*
X149501557Y-138618412D01*
X149567246Y-138416243D01*
X149600500Y-138206287D01*
X149600500Y-137993713D01*
X149567246Y-137783757D01*
X149501557Y-137581588D01*
X149405051Y-137392184D01*
X149353834Y-137321690D01*
X149343269Y-137307147D01*
X149280104Y-137220208D01*
X149280102Y-137220206D01*
X149280100Y-137220203D01*
X149280096Y-137220198D01*
X149129799Y-137069902D01*
X149129776Y-137069883D01*
X148957825Y-136944955D01*
X148957826Y-136944955D01*
X148957821Y-136944952D01*
X148957813Y-136944947D01*
X148957811Y-136944946D01*
X148957810Y-136944945D01*
X148768411Y-136848442D01*
X148566333Y-136782783D01*
X148566248Y-136782755D01*
X148566240Y-136782753D01*
X148404957Y-136757208D01*
X148395789Y-136755756D01*
X148356287Y-136749500D01*
X148356286Y-136749500D01*
X148143713Y-136749500D01*
X148104201Y-136755756D01*
X148104202Y-136755757D01*
X147933758Y-136782753D01*
X147933744Y-136782756D01*
X147933665Y-136782783D01*
X147731584Y-136848443D01*
X147647031Y-136891525D01*
X147636228Y-136895511D01*
X147625260Y-136898145D01*
X147613818Y-136899500D01*
X141445016Y-136899500D01*
X141426262Y-136895769D01*
X141413908Y-136890651D01*
X141389003Y-136867629D01*
X141381700Y-136853296D01*
X141381699Y-136853294D01*
X141232234Y-136647573D01*
X141232232Y-136647571D01*
X141232229Y-136647567D01*
X141232227Y-136647565D01*
X141232225Y-136647562D01*
X141052434Y-136467772D01*
X141052433Y-136467771D01*
X141052428Y-136467767D01*
X141052423Y-136467763D01*
X141052415Y-136467757D01*
X141028663Y-136450501D01*
X141028661Y-136450499D01*
X140970685Y-136408377D01*
X140846706Y-136318301D01*
X140657203Y-136221744D01*
X140628767Y-136207255D01*
X140628764Y-136207254D01*
X140620137Y-136202858D01*
X140620136Y-136202857D01*
X140620135Y-136202857D01*
X140610930Y-136199866D01*
X140610925Y-136199864D01*
X140378387Y-136124308D01*
X140378302Y-136124280D01*
X140378294Y-136124278D01*
X140185363Y-136093721D01*
X140174396Y-136091984D01*
X140127143Y-136084500D01*
X140127142Y-136084500D01*
X139872857Y-136084500D01*
X139825592Y-136091984D01*
X139825593Y-136091985D01*
X139621704Y-136124278D01*
X139621690Y-136124281D01*
X139621611Y-136124308D01*
X139379865Y-136202856D01*
X139153294Y-136318301D01*
X138947569Y-136467768D01*
X138767768Y-136647569D01*
X138618301Y-136853294D01*
X138502856Y-137079865D01*
X138424308Y-137321611D01*
X138424281Y-137321690D01*
X138424278Y-137321704D01*
X138408668Y-137420265D01*
X138404668Y-137445519D01*
X138384500Y-137572857D01*
X138384500Y-137827143D01*
X138384965Y-137830081D01*
X138424278Y-138078294D01*
X138424279Y-138078297D01*
X138485765Y-138267532D01*
X138502858Y-138320137D01*
X138618301Y-138546706D01*
X138657837Y-138601122D01*
X138749117Y-138726760D01*
X138767759Y-138752418D01*
X138767763Y-138752423D01*
X138767772Y-138752434D01*
X138947565Y-138932228D01*
X138947568Y-138932230D01*
X138947571Y-138932232D01*
X138947573Y-138932234D01*
X139153294Y-139081699D01*
X139379863Y-139197142D01*
X139621703Y-139275721D01*
X139872857Y-139315500D01*
X139872858Y-139315500D01*
X140127141Y-139315500D01*
X140127142Y-139315500D01*
X140127143Y-139315500D01*
X140252217Y-139295690D01*
X140259882Y-139295087D01*
X140267484Y-139295087D01*
X140275149Y-139295690D01*
X140305519Y-139300500D01*
X147613818Y-139300500D01*
X147625254Y-139301853D01*
X147636230Y-139304488D01*
X147647025Y-139308470D01*
X147708369Y-139339727D01*
X147731538Y-139351532D01*
X147731560Y-139351543D01*
X147731586Y-139351556D01*
X147731588Y-139351557D01*
X147731590Y-139351557D01*
X147731591Y-139351558D01*
X147860023Y-139393288D01*
X147860022Y-139393288D01*
X147868639Y-139396087D01*
X147883407Y-139400886D01*
X147899707Y-139410104D01*
X147900089Y-139410230D01*
X147903606Y-139413233D01*
X147903650Y-139413320D01*
X147903864Y-139413506D01*
X147909675Y-139425150D01*
X147920627Y-139446651D01*
X147920540Y-139446917D01*
X147920612Y-139447061D01*
X147916263Y-139460076D01*
X147909034Y-139482317D01*
X147908779Y-139482473D01*
X147908727Y-139482631D01*
X147907653Y-139483166D01*
X147883413Y-139498088D01*
X147883368Y-139498099D01*
X147875945Y-139498992D01*
X147875172Y-139499379D01*
X147874527Y-139499163D01*
X147871733Y-139499500D01*
X130559247Y-139499500D01*
X130540499Y-139495771D01*
X130533601Y-139492914D01*
X130507085Y-139466398D01*
X130504227Y-139459497D01*
X130500500Y-139440752D01*
X130500500Y-135862381D01*
X131549500Y-135862381D01*
X131549500Y-136137617D01*
X131580008Y-136408377D01*
X131580008Y-136408384D01*
X131580315Y-136411112D01*
X131641560Y-136679448D01*
X131732464Y-136939239D01*
X131732488Y-136939296D01*
X131732616Y-136939558D01*
X131746254Y-136967875D01*
X131851417Y-137186250D01*
X131851464Y-137186347D01*
X131851879Y-137187208D01*
X131851880Y-137187210D01*
X131851883Y-137187214D01*
X131851886Y-137187221D01*
X131851908Y-137187257D01*
X131851915Y-137187270D01*
X131852018Y-137187435D01*
X131852781Y-137188669D01*
X131852950Y-137188915D01*
X131936386Y-137321702D01*
X131936386Y-137321703D01*
X131998317Y-137420265D01*
X132169146Y-137634480D01*
X132169918Y-137635447D01*
X132169929Y-137635459D01*
X132364540Y-137830070D01*
X132364552Y-137830081D01*
X132473792Y-137917197D01*
X132579732Y-138001681D01*
X132812779Y-138148114D01*
X132812787Y-138148118D01*
X132812789Y-138148119D01*
X132812791Y-138148120D01*
X133060552Y-138267435D01*
X133060732Y-138267524D01*
X133060777Y-138267542D01*
X133060969Y-138267608D01*
X133320546Y-138358438D01*
X133588879Y-138419683D01*
X133823311Y-138446097D01*
X133837509Y-138447697D01*
X133862381Y-138450500D01*
X133862382Y-138450500D01*
X133862383Y-138450500D01*
X134137617Y-138450500D01*
X134137618Y-138450500D01*
X134162481Y-138447698D01*
X134411121Y-138419683D01*
X134679454Y-138358438D01*
X134939243Y-138267534D01*
X135187221Y-138148114D01*
X135420268Y-138001681D01*
X135635455Y-137830075D01*
X135830075Y-137635455D01*
X136001681Y-137420268D01*
X136148114Y-137187221D01*
X136267534Y-136939243D01*
X136358438Y-136679454D01*
X136419683Y-136411121D01*
X136450500Y-136137617D01*
X136450500Y-135862383D01*
X136419683Y-135588879D01*
X136358438Y-135320546D01*
X136274862Y-135081698D01*
X136267536Y-135060762D01*
X136267535Y-135060760D01*
X136267534Y-135060757D01*
X136263525Y-135052433D01*
X136148120Y-134812791D01*
X136148119Y-134812789D01*
X136148118Y-134812787D01*
X136148114Y-134812779D01*
X136140084Y-134800000D01*
X136001683Y-134579735D01*
X135975343Y-134546706D01*
X135879085Y-134426001D01*
X135867012Y-134410862D01*
X135830088Y-134364560D01*
X135830064Y-134364534D01*
X135635465Y-134169935D01*
X135635445Y-134169916D01*
X135444835Y-134017910D01*
X135444807Y-134017889D01*
X135420269Y-133998320D01*
X135420270Y-133998320D01*
X135420268Y-133998319D01*
X135188904Y-133852944D01*
X135188672Y-133852784D01*
X135187453Y-133852031D01*
X135187440Y-133852023D01*
X135187387Y-133851990D01*
X135187221Y-133851886D01*
X135187214Y-133851883D01*
X135187210Y-133851880D01*
X135187208Y-133851879D01*
X135187201Y-133851875D01*
X135187153Y-133851846D01*
X135186861Y-133851696D01*
X135186276Y-133851430D01*
X135092670Y-133806352D01*
X134939558Y-133732616D01*
X134939296Y-133732488D01*
X134939251Y-133732469D01*
X134939247Y-133732467D01*
X134939241Y-133732465D01*
X134939239Y-133732464D01*
X134716335Y-133654467D01*
X134709590Y-133648439D01*
X134592454Y-133621705D01*
X134592454Y-133621704D01*
X134592452Y-133621704D01*
X134579304Y-133618703D01*
X134579303Y-133618702D01*
X134411138Y-133580320D01*
X134411131Y-133580318D01*
X134410945Y-133580287D01*
X134410394Y-133580234D01*
X134344921Y-133572857D01*
X136984500Y-133572857D01*
X136984500Y-133827143D01*
X136988442Y-133852031D01*
X136990796Y-133866896D01*
X137024278Y-134078294D01*
X137024280Y-134078302D01*
X137024308Y-134078387D01*
X137083298Y-134259940D01*
X137101446Y-134315794D01*
X137102858Y-134320137D01*
X137218301Y-134546706D01*
X137366411Y-134750562D01*
X137367766Y-134752427D01*
X137367771Y-134752433D01*
X137547565Y-134932228D01*
X137547568Y-134932230D01*
X137547571Y-134932232D01*
X137547573Y-134932234D01*
X137753294Y-135081699D01*
X137979863Y-135197142D01*
X138221703Y-135275721D01*
X138472857Y-135315500D01*
X138472858Y-135315500D01*
X138727142Y-135315500D01*
X138727143Y-135315500D01*
X138978297Y-135275721D01*
X139220137Y-135197142D01*
X139446706Y-135081699D01*
X139652427Y-134932234D01*
X139652430Y-134932230D01*
X139652433Y-134932229D01*
X139654011Y-134930650D01*
X139654139Y-134930545D01*
X139654678Y-134930014D01*
X139654878Y-134929783D01*
X139832229Y-134752433D01*
X139832230Y-134752430D01*
X139832234Y-134752427D01*
X139832236Y-134752423D01*
X139832301Y-134752359D01*
X139832481Y-134752178D01*
X139833284Y-134750981D01*
X139981699Y-134546706D01*
X140097142Y-134320137D01*
X140175721Y-134078297D01*
X140208259Y-133872858D01*
X141384500Y-133872858D01*
X141384500Y-134127142D01*
X141391275Y-134169918D01*
X141424278Y-134378294D01*
X141424280Y-134378302D01*
X141424308Y-134378387D01*
X141450988Y-134460500D01*
X141501447Y-134615796D01*
X141502858Y-134620137D01*
X141502859Y-134620139D01*
X141502860Y-134620142D01*
X141535502Y-134684205D01*
X141618301Y-134846706D01*
X141661031Y-134905519D01*
X141723636Y-134991688D01*
X141767753Y-135052411D01*
X141767766Y-135052427D01*
X141767767Y-135052428D01*
X141767769Y-135052431D01*
X141767772Y-135052434D01*
X141947565Y-135232228D01*
X141947571Y-135232232D01*
X141947573Y-135232234D01*
X142153294Y-135381699D01*
X142379863Y-135497142D01*
X142621703Y-135575721D01*
X142872857Y-135615500D01*
X142887694Y-135615500D01*
X142906445Y-135619230D01*
X142923084Y-135626122D01*
X142938981Y-135636744D01*
X143317958Y-136015722D01*
X143318042Y-136015793D01*
X143318658Y-136016221D01*
X143470801Y-136126760D01*
X143470803Y-136126761D01*
X143470806Y-136126763D01*
X143557507Y-136170939D01*
X143639168Y-136212547D01*
X143818882Y-136270940D01*
X144005519Y-136300500D01*
X144194482Y-136300500D01*
X147613818Y-136300500D01*
X147625254Y-136301853D01*
X147636230Y-136304488D01*
X147647025Y-136308470D01*
X147707924Y-136339500D01*
X147731538Y-136351532D01*
X147731560Y-136351543D01*
X147731586Y-136351556D01*
X147731588Y-136351557D01*
X147933757Y-136417246D01*
X148143713Y-136450500D01*
X148143714Y-136450500D01*
X148356286Y-136450500D01*
X148356287Y-136450500D01*
X148566243Y-136417246D01*
X148768412Y-136351557D01*
X148957816Y-136255051D01*
X149129792Y-136130104D01*
X149129795Y-136130100D01*
X149129798Y-136130099D01*
X149131376Y-136128520D01*
X149131504Y-136128415D01*
X149132043Y-136127884D01*
X149132243Y-136127653D01*
X149280099Y-135979798D01*
X149280100Y-135979795D01*
X149280104Y-135979792D01*
X149280106Y-135979788D01*
X149280171Y-135979724D01*
X149280351Y-135979543D01*
X149281154Y-135978346D01*
X149405051Y-135807816D01*
X149501557Y-135618412D01*
X149567246Y-135416243D01*
X149577739Y-135349995D01*
X149583085Y-135316245D01*
X154999435Y-135316245D01*
X154999436Y-135316245D01*
X154999436Y-135316246D01*
X155002063Y-135317334D01*
X155002071Y-135317337D01*
X155088923Y-135334612D01*
X155166255Y-135349995D01*
X155166265Y-135349996D01*
X155166276Y-135349999D01*
X155166283Y-135350000D01*
X155333714Y-135350000D01*
X155333715Y-135350000D01*
X155497934Y-135317335D01*
X155500561Y-135316246D01*
X155381457Y-135197142D01*
X155250001Y-135065685D01*
X155250000Y-135065685D01*
X154999435Y-135316245D01*
X149583085Y-135316245D01*
X149586853Y-135292453D01*
X149600500Y-135206286D01*
X149600500Y-134993713D01*
X149571850Y-134812828D01*
X149567246Y-134783757D01*
X149501557Y-134581588D01*
X149417331Y-134416285D01*
X154400000Y-134416285D01*
X154400000Y-134416288D01*
X154400000Y-134583728D01*
X154432662Y-134747928D01*
X154432662Y-134747929D01*
X154433751Y-134750561D01*
X154433752Y-134750562D01*
X154433752Y-134750561D01*
X154433753Y-134750562D01*
X154559033Y-134625281D01*
X154684314Y-134500001D01*
X154684314Y-134499999D01*
X154644815Y-134460500D01*
X154950000Y-134460500D01*
X154950000Y-134539499D01*
X154970443Y-134615794D01*
X154970444Y-134615797D01*
X154972949Y-134620135D01*
X155009940Y-134684205D01*
X155065795Y-134740060D01*
X155134204Y-134779556D01*
X155194381Y-134795680D01*
X155210500Y-134799999D01*
X155210501Y-134800000D01*
X155289496Y-134800000D01*
X155289499Y-134800000D01*
X155289499Y-134799999D01*
X155365796Y-134779556D01*
X155434205Y-134740060D01*
X155490060Y-134684205D01*
X155529556Y-134615796D01*
X155549999Y-134539499D01*
X155550000Y-134539499D01*
X155550000Y-134499998D01*
X155815685Y-134499998D01*
X155815685Y-134499999D01*
X155815685Y-134500000D01*
X156066246Y-134750561D01*
X156067335Y-134747934D01*
X156100000Y-134583714D01*
X156100000Y-134416283D01*
X156099999Y-134416276D01*
X156093126Y-134381725D01*
X156067337Y-134252072D01*
X156067337Y-134252071D01*
X156067334Y-134252063D01*
X156066246Y-134249436D01*
X156066245Y-134249436D01*
X156066245Y-134249435D01*
X155815685Y-134499998D01*
X155550000Y-134499998D01*
X155550000Y-134460501D01*
X155549999Y-134460500D01*
X155529556Y-134384203D01*
X155529555Y-134384202D01*
X155518203Y-134364540D01*
X155490060Y-134315795D01*
X155434205Y-134259940D01*
X155420558Y-134252061D01*
X155365797Y-134220444D01*
X155365794Y-134220443D01*
X155289499Y-134200000D01*
X155289496Y-134200000D01*
X155210504Y-134200000D01*
X155210501Y-134200000D01*
X155134205Y-134220443D01*
X155134202Y-134220444D01*
X155065794Y-134259940D01*
X155009941Y-134315794D01*
X155009940Y-134315794D01*
X154970444Y-134384202D01*
X154970444Y-134384203D01*
X154950000Y-134460500D01*
X154644815Y-134460500D01*
X154433752Y-134249437D01*
X154433751Y-134249437D01*
X154432664Y-134252062D01*
X154420996Y-134310727D01*
X154400000Y-134416285D01*
X149417331Y-134416285D01*
X149405051Y-134392184D01*
X149399253Y-134384204D01*
X149352705Y-134320135D01*
X149280104Y-134220208D01*
X149280102Y-134220206D01*
X149280099Y-134220202D01*
X149280096Y-134220198D01*
X149129799Y-134069902D01*
X149129776Y-134069883D01*
X148957825Y-133944955D01*
X148957826Y-133944955D01*
X148957821Y-133944952D01*
X148957813Y-133944947D01*
X148957811Y-133944946D01*
X148957810Y-133944945D01*
X148775164Y-133851883D01*
X148768413Y-133848443D01*
X148768412Y-133848442D01*
X148768411Y-133848442D01*
X148566333Y-133782783D01*
X148566248Y-133782755D01*
X148566240Y-133782753D01*
X148404957Y-133757208D01*
X148395789Y-133755756D01*
X148356287Y-133749500D01*
X148356286Y-133749500D01*
X148143713Y-133749500D01*
X148104201Y-133755756D01*
X148104202Y-133755757D01*
X147933758Y-133782753D01*
X147933744Y-133782756D01*
X147933665Y-133782783D01*
X147731584Y-133848443D01*
X147647031Y-133891525D01*
X147636228Y-133895511D01*
X147625260Y-133898145D01*
X147613818Y-133899500D01*
X144671317Y-133899500D01*
X144652563Y-133895769D01*
X144643620Y-133892064D01*
X144618716Y-133869043D01*
X144616698Y-133865083D01*
X144611959Y-133850500D01*
X144597183Y-133757208D01*
X144589317Y-133707541D01*
X144585549Y-133683751D01*
X154999437Y-133683751D01*
X154999437Y-133683752D01*
X155249999Y-133934314D01*
X155249999Y-133934313D01*
X155250000Y-133934314D01*
X155500562Y-133683752D01*
X155500561Y-133683751D01*
X155497929Y-133682662D01*
X155333728Y-133650000D01*
X155333723Y-133650000D01*
X155166285Y-133650000D01*
X155096181Y-133663944D01*
X155002062Y-133682664D01*
X154999437Y-133683751D01*
X144585549Y-133683751D01*
X144575721Y-133621705D01*
X144575721Y-133621703D01*
X144497142Y-133379863D01*
X144381699Y-133153294D01*
X144232234Y-132947573D01*
X144232232Y-132947571D01*
X144232230Y-132947568D01*
X144232226Y-132947563D01*
X144052434Y-132767772D01*
X144052423Y-132767763D01*
X144051386Y-132767010D01*
X144051382Y-132767007D01*
X143846706Y-132618301D01*
X143665214Y-132525826D01*
X143628767Y-132507255D01*
X143628764Y-132507254D01*
X143620137Y-132502858D01*
X143620136Y-132502857D01*
X143620135Y-132502857D01*
X143610930Y-132499866D01*
X143610925Y-132499864D01*
X143378387Y-132424308D01*
X143378302Y-132424280D01*
X143378294Y-132424278D01*
X143241277Y-132402577D01*
X143241277Y-132402576D01*
X143241258Y-132402574D01*
X143188222Y-132394174D01*
X143174395Y-132391984D01*
X143127143Y-132384500D01*
X143127142Y-132384500D01*
X142872857Y-132384500D01*
X142825592Y-132391984D01*
X142825593Y-132391985D01*
X142621704Y-132424278D01*
X142621690Y-132424281D01*
X142621611Y-132424308D01*
X142379865Y-132502856D01*
X142153294Y-132618301D01*
X141947569Y-132767768D01*
X141767768Y-132947569D01*
X141618301Y-133153294D01*
X141502856Y-133379865D01*
X141424308Y-133621611D01*
X141424281Y-133621690D01*
X141424278Y-133621704D01*
X141398771Y-133782753D01*
X141391740Y-133827143D01*
X141387822Y-133851885D01*
X141384500Y-133872858D01*
X140208259Y-133872858D01*
X140215500Y-133827143D01*
X140215500Y-133572857D01*
X140175721Y-133321703D01*
X140097142Y-133079863D01*
X139981699Y-132853294D01*
X139832234Y-132647573D01*
X139832232Y-132647571D01*
X139832230Y-132647568D01*
X139832226Y-132647563D01*
X139652434Y-132467772D01*
X139652429Y-132467768D01*
X139652428Y-132467767D01*
X139646705Y-132463609D01*
X139641736Y-132459998D01*
X139641736Y-132459997D01*
X139499402Y-132356587D01*
X159950000Y-132356587D01*
X159950000Y-132563412D01*
X159990350Y-132766274D01*
X159990349Y-132766274D01*
X160030676Y-132863633D01*
X160030677Y-132863634D01*
X160030678Y-132863634D01*
X160416353Y-132477960D01*
X160451000Y-132463609D01*
X160485648Y-132477961D01*
X160500000Y-132512609D01*
X160500000Y-132525828D01*
X160534073Y-132652989D01*
X160534075Y-132652995D01*
X160590916Y-132751445D01*
X160599901Y-132767007D01*
X160692993Y-132860099D01*
X160699116Y-132863634D01*
X160807004Y-132925924D01*
X160807010Y-132925926D01*
X160934171Y-132960000D01*
X160947390Y-132960000D01*
X160982038Y-132974352D01*
X160996390Y-133009000D01*
X160982038Y-133043648D01*
X160596364Y-133429318D01*
X160596364Y-133429320D01*
X160693722Y-133469648D01*
X160693728Y-133469650D01*
X160896587Y-133510000D01*
X161103410Y-133510000D01*
X161103413Y-133510000D01*
X161289947Y-133472897D01*
X163985000Y-133472897D01*
X163985000Y-133727102D01*
X164018964Y-133941542D01*
X164024766Y-133978177D01*
X164024768Y-133978185D01*
X164024796Y-133978270D01*
X164102663Y-134217923D01*
X164103321Y-134219946D01*
X164208310Y-134426001D01*
X164208311Y-134426001D01*
X164208312Y-134426001D01*
X164682149Y-133952162D01*
X164716796Y-133937811D01*
X164751444Y-133952163D01*
X164762066Y-133968059D01*
X164782715Y-134017910D01*
X164789138Y-134033415D01*
X164823149Y-134084316D01*
X164880357Y-134169935D01*
X164889273Y-134183278D01*
X165016722Y-134310727D01*
X165166585Y-134410862D01*
X165231936Y-134437931D01*
X165258455Y-134464449D01*
X165258455Y-134501952D01*
X165247833Y-134517849D01*
X164773997Y-134991685D01*
X164773997Y-134991689D01*
X164975739Y-135094480D01*
X164980053Y-135096678D01*
X165221819Y-135175232D01*
X165221822Y-135175233D01*
X165472898Y-135215000D01*
X165727101Y-135215000D01*
X165727102Y-135215000D01*
X165978177Y-135175233D01*
X165978180Y-135175232D01*
X166219943Y-135096679D01*
X166426001Y-134991687D01*
X166426001Y-134991686D01*
X165952164Y-134517849D01*
X165937812Y-134483201D01*
X165952164Y-134448553D01*
X165968052Y-134437935D01*
X166033415Y-134410862D01*
X166183278Y-134310727D01*
X166310727Y-134183278D01*
X166410862Y-134033415D01*
X166437933Y-133968057D01*
X166464449Y-133941542D01*
X166501952Y-133941541D01*
X166517848Y-133952163D01*
X166991686Y-134426001D01*
X166991687Y-134426001D01*
X167096679Y-134219943D01*
X167175232Y-133978180D01*
X167175233Y-133978177D01*
X167215000Y-133727102D01*
X167215000Y-133472897D01*
X167175233Y-133221822D01*
X167175232Y-133221819D01*
X167096678Y-132980053D01*
X167050424Y-132889273D01*
X166991689Y-132773997D01*
X166991688Y-132773997D01*
X166991686Y-132773997D01*
X166517849Y-133247833D01*
X166483201Y-133262185D01*
X166448553Y-133247833D01*
X166437931Y-133231936D01*
X166433741Y-133221821D01*
X166410862Y-133166585D01*
X166310727Y-133016722D01*
X166183278Y-132889273D01*
X166144906Y-132863634D01*
X166129431Y-132853294D01*
X166033415Y-132789138D01*
X166033412Y-132789136D01*
X166033411Y-132789136D01*
X165968059Y-132762066D01*
X165941541Y-132735547D01*
X165941541Y-132698044D01*
X165952160Y-132682151D01*
X166426001Y-132208312D01*
X166426001Y-132208310D01*
X166426001Y-132208309D01*
X166292852Y-132140468D01*
X166219946Y-132103321D01*
X166219943Y-132103320D01*
X166219941Y-132103319D01*
X165978270Y-132024796D01*
X165978185Y-132024768D01*
X165978177Y-132024766D01*
X165727102Y-131985000D01*
X165727101Y-131985000D01*
X165472899Y-131985000D01*
X165472898Y-131985000D01*
X165415613Y-131994073D01*
X165221821Y-132024766D01*
X165221807Y-132024769D01*
X165221728Y-132024796D01*
X164980057Y-132103319D01*
X164773997Y-132208309D01*
X164773997Y-132208312D01*
X165247834Y-132682149D01*
X165262186Y-132716797D01*
X165247834Y-132751445D01*
X165231938Y-132762067D01*
X165166588Y-132789136D01*
X165016722Y-132889272D01*
X164889272Y-133016722D01*
X164789136Y-133166588D01*
X164762067Y-133231938D01*
X164735548Y-133258456D01*
X164698045Y-133258456D01*
X164682149Y-133247834D01*
X164208312Y-132773997D01*
X164208310Y-132773997D01*
X164103319Y-132980057D01*
X164024796Y-133221728D01*
X164024769Y-133221807D01*
X164024766Y-133221821D01*
X164008946Y-133321704D01*
X163985000Y-133472897D01*
X161289947Y-133472897D01*
X161306271Y-133469650D01*
X161306277Y-133469648D01*
X161403634Y-133429321D01*
X161403634Y-133429320D01*
X161017962Y-133043648D01*
X161003610Y-133009000D01*
X161017962Y-132974352D01*
X161052610Y-132960000D01*
X161065828Y-132960000D01*
X161192989Y-132925926D01*
X161192987Y-132925926D01*
X161192993Y-132925925D01*
X161307007Y-132860099D01*
X161400099Y-132767007D01*
X161465925Y-132652993D01*
X161475221Y-132618301D01*
X161500000Y-132525828D01*
X161500000Y-132512610D01*
X161514352Y-132477962D01*
X161549000Y-132463610D01*
X161583648Y-132477962D01*
X161969320Y-132863634D01*
X161969321Y-132863634D01*
X162009648Y-132766277D01*
X162009650Y-132766271D01*
X162050000Y-132563412D01*
X162050000Y-132356587D01*
X162025789Y-132234865D01*
X162025789Y-132234862D01*
X162009652Y-132153737D01*
X162009648Y-132153722D01*
X161969320Y-132056364D01*
X161969318Y-132056364D01*
X161583648Y-132442036D01*
X161549000Y-132456388D01*
X161514352Y-132442036D01*
X161500000Y-132407388D01*
X161500000Y-132394171D01*
X161465926Y-132267010D01*
X161465924Y-132267004D01*
X161400543Y-132153762D01*
X161400099Y-132152993D01*
X161307007Y-132059901D01*
X161300881Y-132056364D01*
X161192995Y-131994075D01*
X161192989Y-131994073D01*
X161065829Y-131960000D01*
X161065826Y-131960000D01*
X161052611Y-131960000D01*
X161017963Y-131945648D01*
X161003611Y-131911000D01*
X161017963Y-131876352D01*
X161063386Y-131830928D01*
X161403634Y-131490678D01*
X161403634Y-131490677D01*
X161403633Y-131490676D01*
X161306274Y-131450350D01*
X161306269Y-131450349D01*
X161103413Y-131410000D01*
X161103410Y-131410000D01*
X160896590Y-131410000D01*
X160896587Y-131410000D01*
X160693725Y-131450350D01*
X160693724Y-131450349D01*
X160693723Y-131450349D01*
X160596364Y-131490676D01*
X160596363Y-131490677D01*
X160982038Y-131876352D01*
X160996390Y-131911000D01*
X160982038Y-131945648D01*
X160947390Y-131960000D01*
X160934171Y-131960000D01*
X160807010Y-131994073D01*
X160807004Y-131994075D01*
X160692992Y-132059901D01*
X160692992Y-132059902D01*
X160599902Y-132152992D01*
X160599901Y-132152992D01*
X160534075Y-132267004D01*
X160534073Y-132267010D01*
X160500000Y-132394171D01*
X160500000Y-132407389D01*
X160485648Y-132442037D01*
X160451000Y-132456389D01*
X160416352Y-132442037D01*
X160030678Y-132056364D01*
X160030677Y-132056364D01*
X159990349Y-132153723D01*
X159990349Y-132153724D01*
X159990350Y-132153725D01*
X159950000Y-132356587D01*
X139499402Y-132356587D01*
X139446706Y-132318301D01*
X139230839Y-132208311D01*
X139228767Y-132207255D01*
X139228764Y-132207254D01*
X139220137Y-132202858D01*
X139220136Y-132202857D01*
X139220135Y-132202857D01*
X139210930Y-132199866D01*
X139210925Y-132199864D01*
X138978387Y-132124308D01*
X138978302Y-132124280D01*
X138978294Y-132124278D01*
X138785363Y-132093721D01*
X138774396Y-132091984D01*
X138727143Y-132084500D01*
X138727142Y-132084500D01*
X138472857Y-132084500D01*
X138425592Y-132091984D01*
X138425593Y-132091985D01*
X138221704Y-132124278D01*
X138221690Y-132124281D01*
X138221611Y-132124308D01*
X137979865Y-132202856D01*
X137753294Y-132318301D01*
X137547569Y-132467768D01*
X137367768Y-132647569D01*
X137218301Y-132853294D01*
X137102856Y-133079865D01*
X137024308Y-133321611D01*
X137024281Y-133321690D01*
X137024278Y-133321704D01*
X137007233Y-133429321D01*
X136988199Y-133549500D01*
X136984500Y-133572857D01*
X134344921Y-133572857D01*
X134137619Y-133549500D01*
X134137618Y-133549500D01*
X134137617Y-133549500D01*
X133862383Y-133549500D01*
X133862382Y-133549500D01*
X133862381Y-133549500D01*
X133591622Y-133580008D01*
X133591608Y-133580008D01*
X133588886Y-133580315D01*
X133320550Y-133641560D01*
X133060759Y-133732464D01*
X133060691Y-133732492D01*
X133060393Y-133732639D01*
X132812815Y-133851866D01*
X132812796Y-133851875D01*
X132811972Y-133852333D01*
X132811010Y-133852997D01*
X132745503Y-133894158D01*
X132745502Y-133894159D01*
X132579731Y-133998318D01*
X132364553Y-134169916D01*
X132169916Y-134364553D01*
X131998318Y-134579731D01*
X131975658Y-134615796D01*
X131972932Y-134620135D01*
X131870123Y-134783757D01*
X131870122Y-134783758D01*
X131870121Y-134783759D01*
X131851884Y-134812780D01*
X131851881Y-134812787D01*
X131851860Y-134812828D01*
X131732639Y-135060393D01*
X131732492Y-135060691D01*
X131732464Y-135060759D01*
X131641560Y-135320550D01*
X131580315Y-135588886D01*
X131580008Y-135591615D01*
X131580008Y-135591621D01*
X131549500Y-135862381D01*
X130500500Y-135862381D01*
X130500500Y-129386237D01*
X131354500Y-129386237D01*
X131354500Y-129613761D01*
X131390092Y-129838486D01*
X131390094Y-129838494D01*
X131390122Y-129838579D01*
X131460402Y-130054881D01*
X131563686Y-130257587D01*
X131563693Y-130257601D01*
X131563696Y-130257605D01*
X131563708Y-130257623D01*
X131669011Y-130402561D01*
X131697427Y-130441671D01*
X131697431Y-130441676D01*
X131697440Y-130441687D01*
X131858312Y-130602560D01*
X131858315Y-130602562D01*
X131858318Y-130602564D01*
X131858320Y-130602566D01*
X132042393Y-130736303D01*
X132245121Y-130839598D01*
X132461511Y-130909907D01*
X132686237Y-130945500D01*
X132686238Y-130945500D01*
X132913762Y-130945500D01*
X132913763Y-130945500D01*
X133138489Y-130909907D01*
X133354879Y-130839598D01*
X133557607Y-130736303D01*
X133741680Y-130602566D01*
X133741683Y-130602562D01*
X133741686Y-130602561D01*
X133743264Y-130600982D01*
X133743392Y-130600877D01*
X133743931Y-130600346D01*
X133744131Y-130600115D01*
X133902561Y-130441686D01*
X133902562Y-130441683D01*
X133902566Y-130441680D01*
X133902568Y-130441676D01*
X133902633Y-130441612D01*
X133902813Y-130441431D01*
X133903616Y-130440234D01*
X134036303Y-130257607D01*
X134139598Y-130054879D01*
X134209907Y-129838489D01*
X134245500Y-129613763D01*
X134245500Y-129386237D01*
X134209907Y-129161511D01*
X134139598Y-128945121D01*
X134036303Y-128742393D01*
X133902566Y-128558320D01*
X133902564Y-128558318D01*
X133902562Y-128558315D01*
X133902558Y-128558310D01*
X133741687Y-128397440D01*
X133741664Y-128397421D01*
X133557601Y-128263693D01*
X133354881Y-128160402D01*
X133138579Y-128090122D01*
X133138494Y-128090094D01*
X133138486Y-128090092D01*
X132965856Y-128062750D01*
X132965856Y-128062749D01*
X132913763Y-128054500D01*
X132686237Y-128054500D01*
X132643946Y-128061198D01*
X132461512Y-128090092D01*
X132461498Y-128090095D01*
X132461419Y-128090122D01*
X132245117Y-128160402D01*
X132042397Y-128263693D01*
X131858316Y-128397436D01*
X131697436Y-128558316D01*
X131563693Y-128742397D01*
X131460402Y-128945117D01*
X131390122Y-129161419D01*
X131390095Y-129161498D01*
X131390092Y-129161512D01*
X131354500Y-129386237D01*
X130500500Y-129386237D01*
X130500500Y-127816233D01*
X146899500Y-127816233D01*
X146899500Y-127816236D01*
X146899500Y-127983772D01*
X146913569Y-128054499D01*
X146913569Y-128054500D01*
X146913570Y-128054500D01*
X146920649Y-128090093D01*
X146932183Y-128148078D01*
X146932186Y-128148089D01*
X146980072Y-128263695D01*
X146996296Y-128302862D01*
X147089371Y-128442159D01*
X147207840Y-128560628D01*
X147347137Y-128653703D01*
X147501918Y-128717816D01*
X147666233Y-128750500D01*
X147666236Y-128750500D01*
X147833764Y-128750500D01*
X147833767Y-128750500D01*
X147998082Y-128717816D01*
X148152863Y-128653703D01*
X148292162Y-128560626D01*
X148410626Y-128442162D01*
X148503703Y-128302863D01*
X148567816Y-128148082D01*
X148600500Y-127983767D01*
X148600500Y-127816233D01*
X148567816Y-127651918D01*
X148503703Y-127497137D01*
X148439132Y-127400500D01*
X148410628Y-127357840D01*
X148292159Y-127239371D01*
X148152862Y-127146296D01*
X148152860Y-127146295D01*
X147998089Y-127082186D01*
X147998069Y-127082180D01*
X147998071Y-127082180D01*
X147931816Y-127069001D01*
X147931816Y-127069002D01*
X147833767Y-127049500D01*
X147833764Y-127049500D01*
X147666236Y-127049500D01*
X147666233Y-127049500D01*
X147584451Y-127065767D01*
X147501920Y-127082183D01*
X147501909Y-127082186D01*
X147347138Y-127146295D01*
X147207840Y-127239370D01*
X147089370Y-127357840D01*
X146996295Y-127497138D01*
X146932186Y-127651909D01*
X146932185Y-127651914D01*
X146932183Y-127651920D01*
X146915767Y-127734451D01*
X146899500Y-127816233D01*
X130500500Y-127816233D01*
X130500500Y-126934100D01*
X158399500Y-126934100D01*
X158399500Y-127065898D01*
X158433494Y-127192764D01*
X158433596Y-127193160D01*
X158433608Y-127193188D01*
X158499496Y-127307308D01*
X158499498Y-127307310D01*
X158499500Y-127307314D01*
X158592686Y-127400500D01*
X158634457Y-127424617D01*
X158706811Y-127466391D01*
X158706812Y-127466391D01*
X158706815Y-127466393D01*
X158785988Y-127487606D01*
X158807207Y-127493292D01*
X158831012Y-127499670D01*
X158833455Y-127500500D01*
X158965895Y-127500500D01*
X158972689Y-127500500D01*
X158978575Y-127497101D01*
X159093186Y-127466392D01*
X159207314Y-127400500D01*
X159300500Y-127307314D01*
X159366392Y-127193186D01*
X159369550Y-127181399D01*
X159374445Y-127169578D01*
X159380676Y-127158785D01*
X159388460Y-127148640D01*
X160360489Y-126176614D01*
X160419799Y-126073887D01*
X160426286Y-126049673D01*
X160450500Y-125959309D01*
X160450500Y-121498963D01*
X162502242Y-121498963D01*
X162504006Y-121506018D01*
X162505050Y-121511505D01*
X162534639Y-121736242D01*
X162534642Y-121736261D01*
X162594026Y-121957881D01*
X162594026Y-121957882D01*
X162594028Y-121957886D01*
X162681842Y-122169888D01*
X162684122Y-122173837D01*
X162796573Y-122368609D01*
X162796579Y-122368618D01*
X162796583Y-122368623D01*
X162936257Y-122550650D01*
X163098533Y-122712926D01*
X163238208Y-122820102D01*
X163280561Y-122852601D01*
X163280570Y-122852607D01*
X163280574Y-122852610D01*
X163479298Y-122967343D01*
X163691299Y-123055157D01*
X163862555Y-123101044D01*
X163912936Y-123114544D01*
X163912937Y-123114544D01*
X163912948Y-123114547D01*
X164140452Y-123144499D01*
X164140455Y-123144499D01*
X164369916Y-123144499D01*
X164369920Y-123144499D01*
X164597424Y-123114547D01*
X164819073Y-123055157D01*
X165031074Y-122967343D01*
X165229798Y-122852610D01*
X165411847Y-122712918D01*
X165574105Y-122550660D01*
X165713797Y-122368611D01*
X165828530Y-122169887D01*
X165916344Y-121957886D01*
X165975734Y-121736237D01*
X166005686Y-121508733D01*
X166005686Y-121279265D01*
X165975734Y-121051761D01*
X165923736Y-120857699D01*
X165922485Y-120838626D01*
X165923173Y-120833396D01*
X165941921Y-120800916D01*
X165978145Y-120791206D01*
X165978162Y-120791208D01*
X165979284Y-120791356D01*
X166007524Y-120805287D01*
X170078255Y-124876018D01*
X170088877Y-124891913D01*
X170095770Y-124908553D01*
X170099500Y-124927306D01*
X170099500Y-128469431D01*
X170097101Y-128484576D01*
X170092538Y-128498616D01*
X170085582Y-128512268D01*
X170081496Y-128517892D01*
X170081109Y-128518426D01*
X170069540Y-128534348D01*
X170063692Y-128542398D01*
X170063685Y-128542410D01*
X170063614Y-128542551D01*
X169960402Y-128745117D01*
X169890122Y-128961419D01*
X169890095Y-128961498D01*
X169890092Y-128961512D01*
X169854500Y-129186237D01*
X169854500Y-129413761D01*
X169890092Y-129638486D01*
X169890094Y-129638494D01*
X169890122Y-129638579D01*
X169960402Y-129854881D01*
X170063693Y-130057601D01*
X170197421Y-130241664D01*
X170197440Y-130241687D01*
X170358312Y-130402560D01*
X170358315Y-130402562D01*
X170358318Y-130402564D01*
X170358320Y-130402566D01*
X170542393Y-130536303D01*
X170745121Y-130639598D01*
X170961511Y-130709907D01*
X171186237Y-130745500D01*
X171186238Y-130745500D01*
X171413762Y-130745500D01*
X171413763Y-130745500D01*
X171638489Y-130709907D01*
X171854879Y-130639598D01*
X172057607Y-130536303D01*
X172241680Y-130402566D01*
X172241683Y-130402562D01*
X172241686Y-130402561D01*
X172243264Y-130400982D01*
X172243392Y-130400877D01*
X172243931Y-130400346D01*
X172244131Y-130400115D01*
X172402561Y-130241686D01*
X172402562Y-130241683D01*
X172402566Y-130241680D01*
X172402568Y-130241676D01*
X172402633Y-130241612D01*
X172402813Y-130241431D01*
X172403616Y-130240234D01*
X172536303Y-130057607D01*
X172639598Y-129854879D01*
X172709907Y-129638489D01*
X172745500Y-129413763D01*
X172745500Y-129186237D01*
X172709907Y-128961511D01*
X172639598Y-128745121D01*
X172536303Y-128542393D01*
X172536301Y-128542391D01*
X172536298Y-128542385D01*
X172514419Y-128512272D01*
X172507458Y-128498611D01*
X172502897Y-128484570D01*
X172500500Y-128469432D01*
X172500500Y-124305519D01*
X172494224Y-124265892D01*
X172473248Y-124133454D01*
X172470940Y-124118882D01*
X172412547Y-123939168D01*
X172326760Y-123770801D01*
X172216252Y-123618700D01*
X172216252Y-123618699D01*
X172215687Y-123617923D01*
X172082073Y-123484310D01*
X171771744Y-123173980D01*
X171761122Y-123158083D01*
X171754229Y-123141442D01*
X171750500Y-123122692D01*
X171750500Y-114940035D01*
X171749666Y-114937578D01*
X171720720Y-114829548D01*
X171720718Y-114829545D01*
X171719800Y-114826117D01*
X171719799Y-114826115D01*
X171719799Y-114826114D01*
X171694731Y-114782696D01*
X171660489Y-114723386D01*
X171238464Y-114301361D01*
X171230678Y-114291215D01*
X171224446Y-114280422D01*
X171219551Y-114268605D01*
X171216392Y-114256814D01*
X171150500Y-114142686D01*
X171057314Y-114049500D01*
X171057310Y-114049498D01*
X171057308Y-114049496D01*
X170943188Y-113983608D01*
X170943160Y-113983596D01*
X170942764Y-113983494D01*
X170815898Y-113949500D01*
X170815895Y-113949500D01*
X170815892Y-113949500D01*
X170684108Y-113949500D01*
X170684105Y-113949500D01*
X170684102Y-113949500D01*
X170557234Y-113983494D01*
X170556840Y-113983596D01*
X170556810Y-113983608D01*
X170440779Y-114050600D01*
X170438121Y-114054064D01*
X170354064Y-114138121D01*
X170350600Y-114140779D01*
X170283608Y-114256810D01*
X170283596Y-114256840D01*
X170283494Y-114257234D01*
X170249500Y-114384100D01*
X170249500Y-114515898D01*
X170283494Y-114642764D01*
X170283596Y-114643160D01*
X170283608Y-114643188D01*
X170329913Y-114723389D01*
X170349496Y-114757308D01*
X170349498Y-114757310D01*
X170349500Y-114757314D01*
X170442686Y-114850500D01*
X170508574Y-114888540D01*
X170551252Y-114913181D01*
X170553914Y-114914718D01*
X170555461Y-114915611D01*
X170556646Y-114916347D01*
X170568602Y-114919551D01*
X170580419Y-114924445D01*
X170591212Y-114930676D01*
X170601361Y-114938464D01*
X170828255Y-115165358D01*
X170838877Y-115181253D01*
X170845770Y-115197893D01*
X170849500Y-115216646D01*
X170849500Y-122123692D01*
X170845770Y-122142444D01*
X170843751Y-122147318D01*
X170817232Y-122173837D01*
X170779729Y-122173836D01*
X170774855Y-122171817D01*
X170758959Y-122161195D01*
X165896930Y-117299166D01*
X165886308Y-117283269D01*
X165879415Y-117266628D01*
X165875686Y-117247878D01*
X165875686Y-112414254D01*
X165875686Y-112414251D01*
X165864053Y-112355768D01*
X165837487Y-112316011D01*
X165837487Y-112316010D01*
X165819741Y-112289450D01*
X165819738Y-112289446D01*
X165779982Y-112262882D01*
X165773388Y-112258476D01*
X165753417Y-112245132D01*
X165694934Y-112233499D01*
X165694931Y-112233499D01*
X163655441Y-112233499D01*
X163655438Y-112233499D01*
X163620348Y-112240478D01*
X163596953Y-112245132D01*
X163530632Y-112289445D01*
X163486319Y-112355766D01*
X163486319Y-112355768D01*
X163474686Y-112414251D01*
X163474686Y-112414254D01*
X163474686Y-117869665D01*
X163504245Y-118056301D01*
X163504247Y-118056309D01*
X163504275Y-118056394D01*
X163562639Y-118236020D01*
X163648422Y-118404379D01*
X163759502Y-118557268D01*
X163759504Y-118557270D01*
X164841337Y-119639100D01*
X164851959Y-119654996D01*
X164853978Y-119659870D01*
X164853979Y-119697373D01*
X164827465Y-119723890D01*
X164826420Y-119724323D01*
X164794981Y-119726385D01*
X164597440Y-119673453D01*
X164559173Y-119668415D01*
X164369920Y-119643499D01*
X164369916Y-119643499D01*
X164140455Y-119643499D01*
X164140452Y-119643499D01*
X164073947Y-119652254D01*
X163913199Y-119673417D01*
X163912957Y-119673447D01*
X163912917Y-119673457D01*
X163691302Y-119732839D01*
X163691301Y-119732839D01*
X163545398Y-119793274D01*
X163479296Y-119820655D01*
X163479293Y-119820656D01*
X163479292Y-119820657D01*
X163280574Y-119935386D01*
X163280565Y-119935392D01*
X163280560Y-119935396D01*
X163098533Y-120075070D01*
X162936257Y-120237346D01*
X162796583Y-120419373D01*
X162796579Y-120419378D01*
X162796573Y-120419387D01*
X162681844Y-120618105D01*
X162681842Y-120618109D01*
X162654461Y-120684211D01*
X162594026Y-120830114D01*
X162594026Y-120830115D01*
X162534642Y-121051737D01*
X162534640Y-121051745D01*
X162534640Y-121051749D01*
X162504686Y-121279268D01*
X162504686Y-121279270D01*
X162504686Y-121491864D01*
X162502242Y-121498963D01*
X160450500Y-121498963D01*
X160450500Y-116516646D01*
X160454229Y-116497896D01*
X160461123Y-116481252D01*
X160471741Y-116465361D01*
X162860488Y-114076615D01*
X162860489Y-114076614D01*
X162919799Y-113973887D01*
X162937771Y-113906814D01*
X162950500Y-113859309D01*
X162950500Y-110799518D01*
X163474686Y-110799518D01*
X163474686Y-110988478D01*
X163504245Y-111175114D01*
X163504247Y-111175122D01*
X163504275Y-111175207D01*
X163562639Y-111354833D01*
X163648416Y-111523182D01*
X163648422Y-111523193D01*
X163648429Y-111523207D01*
X163648627Y-111523475D01*
X163759496Y-111676072D01*
X163759498Y-111676074D01*
X163759504Y-111676082D01*
X163893100Y-111809677D01*
X163893106Y-111809683D01*
X163893109Y-111809685D01*
X163893113Y-111809689D01*
X163893126Y-111809698D01*
X163893304Y-111809845D01*
X163893844Y-111810220D01*
X164045987Y-111920759D01*
X164045989Y-111920760D01*
X164045992Y-111920762D01*
X164170309Y-111984104D01*
X164214354Y-112006546D01*
X164394068Y-112064939D01*
X164580705Y-112094499D01*
X164580706Y-112094499D01*
X164769666Y-112094499D01*
X164769667Y-112094499D01*
X164956304Y-112064939D01*
X165136018Y-112006546D01*
X165304385Y-111920759D01*
X165457259Y-111809689D01*
X165590876Y-111676072D01*
X165701946Y-111523198D01*
X165787733Y-111354831D01*
X165846126Y-111175117D01*
X165875686Y-110988480D01*
X165875686Y-110799518D01*
X165846126Y-110612881D01*
X165787733Y-110433167D01*
X165701946Y-110264800D01*
X165591438Y-110112699D01*
X165591438Y-110112698D01*
X165590873Y-110111922D01*
X165478498Y-109999547D01*
X165475057Y-109991240D01*
X165304376Y-109867233D01*
X165136020Y-109781452D01*
X164956394Y-109723088D01*
X164956309Y-109723060D01*
X164956301Y-109723058D01*
X164812930Y-109700351D01*
X164769667Y-109693499D01*
X164580705Y-109693499D01*
X164545582Y-109699060D01*
X164545583Y-109699061D01*
X164394069Y-109723058D01*
X164394055Y-109723061D01*
X164393976Y-109723088D01*
X164214350Y-109781452D01*
X164045997Y-109867231D01*
X163893099Y-109978319D01*
X163759506Y-110111912D01*
X163648418Y-110264810D01*
X163562639Y-110433163D01*
X163504275Y-110612789D01*
X163504248Y-110612868D01*
X163504245Y-110612882D01*
X163474686Y-110799518D01*
X162950500Y-110799518D01*
X162950500Y-108259518D01*
X163474686Y-108259518D01*
X163474686Y-108448478D01*
X163504245Y-108635114D01*
X163504247Y-108635122D01*
X163504275Y-108635207D01*
X163562639Y-108814833D01*
X163648416Y-108983182D01*
X163648422Y-108983193D01*
X163648429Y-108983207D01*
X163648627Y-108983475D01*
X163759496Y-109136072D01*
X163759498Y-109136074D01*
X163759504Y-109136082D01*
X163893100Y-109269677D01*
X163893106Y-109269683D01*
X163893109Y-109269685D01*
X163893113Y-109269689D01*
X163893126Y-109269698D01*
X163893304Y-109269845D01*
X163893844Y-109270220D01*
X164045987Y-109380759D01*
X164045989Y-109380760D01*
X164045992Y-109380762D01*
X164120940Y-109418949D01*
X164214304Y-109466521D01*
X164214326Y-109466532D01*
X164214352Y-109466545D01*
X164214354Y-109466546D01*
X164394068Y-109524939D01*
X164580705Y-109554499D01*
X164580706Y-109554499D01*
X164769666Y-109554499D01*
X164769667Y-109554499D01*
X164956304Y-109524939D01*
X165136018Y-109466546D01*
X165304385Y-109380759D01*
X165457259Y-109269689D01*
X165590876Y-109136072D01*
X165701946Y-108983198D01*
X165787733Y-108814831D01*
X165846126Y-108635117D01*
X165875686Y-108448480D01*
X165875686Y-108259518D01*
X165846126Y-108072881D01*
X165787733Y-107893167D01*
X165701946Y-107724800D01*
X165641838Y-107642068D01*
X165591438Y-107572699D01*
X165591438Y-107572698D01*
X165590873Y-107571922D01*
X165478498Y-107459547D01*
X165475057Y-107451240D01*
X165304376Y-107327233D01*
X165136020Y-107241452D01*
X164956394Y-107183088D01*
X164956309Y-107183060D01*
X164956301Y-107183058D01*
X164812930Y-107160351D01*
X164769667Y-107153499D01*
X164580705Y-107153499D01*
X164545582Y-107159060D01*
X164545583Y-107159061D01*
X164394069Y-107183058D01*
X164394055Y-107183061D01*
X164393976Y-107183088D01*
X164214350Y-107241452D01*
X164045997Y-107327231D01*
X163893099Y-107438319D01*
X163759506Y-107571912D01*
X163648418Y-107724810D01*
X163562639Y-107893163D01*
X163504275Y-108072789D01*
X163504248Y-108072868D01*
X163504245Y-108072882D01*
X163474686Y-108259518D01*
X162950500Y-108259518D01*
X162950500Y-105719518D01*
X163474686Y-105719518D01*
X163474686Y-105908479D01*
X163478745Y-105934105D01*
X163504245Y-106095114D01*
X163504247Y-106095122D01*
X163504275Y-106095207D01*
X163562639Y-106274832D01*
X163648416Y-106443182D01*
X163648422Y-106443193D01*
X163648429Y-106443207D01*
X163648627Y-106443475D01*
X163677054Y-106482600D01*
X163759496Y-106596072D01*
X163759498Y-106596074D01*
X163759504Y-106596082D01*
X163842735Y-106679312D01*
X163893106Y-106729683D01*
X163893109Y-106729685D01*
X163893113Y-106729689D01*
X163893126Y-106729698D01*
X163893304Y-106729845D01*
X163893844Y-106730220D01*
X164045987Y-106840759D01*
X164045989Y-106840760D01*
X164045992Y-106840762D01*
X164155609Y-106896614D01*
X164214354Y-106926546D01*
X164394068Y-106984939D01*
X164580705Y-107014499D01*
X164580706Y-107014499D01*
X164769666Y-107014499D01*
X164769667Y-107014499D01*
X164956304Y-106984939D01*
X165136018Y-106926546D01*
X165304385Y-106840759D01*
X165457259Y-106729689D01*
X165590876Y-106596072D01*
X165701946Y-106443198D01*
X165787733Y-106274831D01*
X165846126Y-106095117D01*
X165875686Y-105908480D01*
X165875686Y-105719518D01*
X165846126Y-105532881D01*
X165787733Y-105353167D01*
X165701946Y-105184800D01*
X165591438Y-105032699D01*
X165591438Y-105032698D01*
X165590873Y-105031922D01*
X165478498Y-104919547D01*
X165475057Y-104911240D01*
X165304376Y-104787233D01*
X165136020Y-104701452D01*
X164956394Y-104643088D01*
X164956309Y-104643060D01*
X164956301Y-104643058D01*
X164812930Y-104620351D01*
X164769667Y-104613499D01*
X164580705Y-104613499D01*
X164545582Y-104619060D01*
X164545583Y-104619061D01*
X164394069Y-104643058D01*
X164394055Y-104643061D01*
X164393976Y-104643088D01*
X164214350Y-104701452D01*
X164045997Y-104787231D01*
X163893099Y-104898319D01*
X163759506Y-105031912D01*
X163648418Y-105184810D01*
X163562639Y-105353163D01*
X163504275Y-105532789D01*
X163504248Y-105532868D01*
X163504245Y-105532882D01*
X163504245Y-105532883D01*
X163474686Y-105719518D01*
X162950500Y-105719518D01*
X162950500Y-103179518D01*
X163474686Y-103179518D01*
X163474686Y-103368478D01*
X163504245Y-103555114D01*
X163504247Y-103555122D01*
X163504275Y-103555207D01*
X163562639Y-103734833D01*
X163648416Y-103903182D01*
X163648422Y-103903193D01*
X163648429Y-103903207D01*
X163648627Y-103903475D01*
X163759496Y-104056072D01*
X163759498Y-104056074D01*
X163759504Y-104056082D01*
X163893100Y-104189677D01*
X163893106Y-104189683D01*
X163893109Y-104189685D01*
X163893113Y-104189689D01*
X163893126Y-104189698D01*
X163893304Y-104189845D01*
X163893844Y-104190220D01*
X164045987Y-104300759D01*
X164045989Y-104300760D01*
X164045992Y-104300762D01*
X164120940Y-104338949D01*
X164214304Y-104386521D01*
X164214326Y-104386532D01*
X164214352Y-104386545D01*
X164214354Y-104386546D01*
X164394068Y-104444939D01*
X164580705Y-104474499D01*
X164580706Y-104474499D01*
X164769666Y-104474499D01*
X164769667Y-104474499D01*
X164956304Y-104444939D01*
X165136018Y-104386546D01*
X165304385Y-104300759D01*
X165457259Y-104189689D01*
X165590876Y-104056072D01*
X165701946Y-103903198D01*
X165787733Y-103734831D01*
X165846126Y-103555117D01*
X165875686Y-103368480D01*
X165875686Y-103179518D01*
X165846126Y-102992881D01*
X165787733Y-102813167D01*
X165701946Y-102644800D01*
X165591438Y-102492699D01*
X165591438Y-102492698D01*
X165590873Y-102491922D01*
X165478498Y-102379547D01*
X165475057Y-102371240D01*
X165304376Y-102247233D01*
X165136020Y-102161452D01*
X164956394Y-102103088D01*
X164956309Y-102103060D01*
X164956301Y-102103058D01*
X164812930Y-102080351D01*
X164769667Y-102073499D01*
X164580705Y-102073499D01*
X164545582Y-102079060D01*
X164545583Y-102079061D01*
X164394069Y-102103058D01*
X164394055Y-102103061D01*
X164393976Y-102103088D01*
X164214350Y-102161452D01*
X164045997Y-102247231D01*
X163893099Y-102358319D01*
X163759506Y-102491912D01*
X163648418Y-102644810D01*
X163562639Y-102813163D01*
X163504275Y-102992789D01*
X163504248Y-102992868D01*
X163504245Y-102992882D01*
X163474686Y-103179518D01*
X162950500Y-103179518D01*
X162950500Y-100639518D01*
X163474686Y-100639518D01*
X163474686Y-100828479D01*
X163478686Y-100853733D01*
X163504245Y-101015114D01*
X163504247Y-101015122D01*
X163504275Y-101015207D01*
X163562639Y-101194832D01*
X163648416Y-101363182D01*
X163648422Y-101363193D01*
X163648429Y-101363207D01*
X163648627Y-101363475D01*
X163759496Y-101516072D01*
X163759498Y-101516074D01*
X163759504Y-101516082D01*
X163833923Y-101590500D01*
X163893106Y-101649683D01*
X163893109Y-101649685D01*
X163893113Y-101649689D01*
X163893126Y-101649698D01*
X163893304Y-101649845D01*
X163893844Y-101650220D01*
X164045987Y-101760759D01*
X164045989Y-101760760D01*
X164045992Y-101760762D01*
X164120940Y-101798949D01*
X164214304Y-101846521D01*
X164214326Y-101846532D01*
X164214352Y-101846545D01*
X164214354Y-101846546D01*
X164394068Y-101904939D01*
X164580705Y-101934499D01*
X164580706Y-101934499D01*
X164769666Y-101934499D01*
X164769667Y-101934499D01*
X164956304Y-101904939D01*
X165136018Y-101846546D01*
X165304385Y-101760759D01*
X165457259Y-101649689D01*
X165590876Y-101516072D01*
X165701946Y-101363198D01*
X165787733Y-101194831D01*
X165811759Y-101120889D01*
X165846127Y-101015115D01*
X165846126Y-101015114D01*
X165847322Y-101007566D01*
X165875686Y-100828480D01*
X165875686Y-100639518D01*
X165846126Y-100452881D01*
X165787733Y-100273167D01*
X165772202Y-100242685D01*
X165701949Y-100104805D01*
X165701947Y-100104802D01*
X165701946Y-100104800D01*
X165590876Y-99951926D01*
X165590874Y-99951924D01*
X165590872Y-99951921D01*
X165535812Y-99896861D01*
X168689500Y-99896861D01*
X168689500Y-100103138D01*
X168710159Y-100233576D01*
X168721768Y-100306873D01*
X168721770Y-100306881D01*
X168721798Y-100306966D01*
X168785512Y-100503059D01*
X168879150Y-100686836D01*
X168879156Y-100686847D01*
X168879163Y-100686861D01*
X168879361Y-100687129D01*
X168919783Y-100742764D01*
X168995102Y-100846432D01*
X169000414Y-100853742D01*
X169097169Y-100950496D01*
X169146260Y-100999587D01*
X169146263Y-100999589D01*
X169146267Y-100999593D01*
X169146280Y-100999602D01*
X169146458Y-100999749D01*
X169146998Y-101000124D01*
X169313148Y-101120840D01*
X169313150Y-101120841D01*
X169313153Y-101120843D01*
X169458364Y-101194831D01*
X169496943Y-101214488D01*
X169693124Y-101278231D01*
X169896861Y-101310500D01*
X169896862Y-101310500D01*
X170103138Y-101310500D01*
X170103139Y-101310500D01*
X170306876Y-101278231D01*
X170503057Y-101214488D01*
X170686852Y-101120840D01*
X170853733Y-100999593D01*
X170999593Y-100853733D01*
X171120840Y-100686852D01*
X171214488Y-100503057D01*
X171278231Y-100306876D01*
X171310500Y-100103139D01*
X171310500Y-99896861D01*
X171278231Y-99693124D01*
X171214488Y-99496943D01*
X171210696Y-99489500D01*
X171210695Y-99489498D01*
X171210695Y-99489497D01*
X171121246Y-99313944D01*
X171120843Y-99313153D01*
X171120841Y-99313150D01*
X171120840Y-99313148D01*
X170999593Y-99146267D01*
X170999591Y-99146265D01*
X170999589Y-99146262D01*
X170853743Y-99000415D01*
X170853735Y-99000409D01*
X170853733Y-99000407D01*
X170687129Y-98879361D01*
X170687129Y-98879360D01*
X170686850Y-98879157D01*
X170686847Y-98879156D01*
X170686846Y-98879155D01*
X170686836Y-98879150D01*
X170503059Y-98785512D01*
X170306966Y-98721798D01*
X170306881Y-98721770D01*
X170306873Y-98721768D01*
X170150367Y-98696980D01*
X170103139Y-98689500D01*
X169896861Y-98689500D01*
X169858519Y-98695571D01*
X169858520Y-98695572D01*
X169693125Y-98721768D01*
X169693111Y-98721771D01*
X169693032Y-98721798D01*
X169496939Y-98785512D01*
X169313158Y-98879152D01*
X169146253Y-99000417D01*
X169000417Y-99146253D01*
X168879152Y-99313158D01*
X168785512Y-99496939D01*
X168721798Y-99693032D01*
X168721771Y-99693111D01*
X168721768Y-99693125D01*
X168697453Y-99846646D01*
X168689500Y-99896861D01*
X165535812Y-99896861D01*
X165478498Y-99839547D01*
X165475057Y-99831241D01*
X165457265Y-99818314D01*
X165457266Y-99818314D01*
X165327486Y-99724023D01*
X165327486Y-99724022D01*
X165304661Y-99707439D01*
X165304661Y-99707438D01*
X165304379Y-99707234D01*
X165304369Y-99707229D01*
X165136020Y-99621452D01*
X164956394Y-99563088D01*
X164956309Y-99563060D01*
X164956301Y-99563058D01*
X164812930Y-99540351D01*
X164769667Y-99533499D01*
X164580705Y-99533499D01*
X164545582Y-99539060D01*
X164545583Y-99539061D01*
X164394069Y-99563058D01*
X164394055Y-99563061D01*
X164393976Y-99563088D01*
X164214350Y-99621452D01*
X164045997Y-99707231D01*
X163893099Y-99818319D01*
X163759506Y-99951912D01*
X163648418Y-100104810D01*
X163562639Y-100273163D01*
X163504275Y-100452789D01*
X163504248Y-100452868D01*
X163504245Y-100452882D01*
X163496298Y-100503058D01*
X163474686Y-100639518D01*
X162950500Y-100639518D01*
X162950500Y-98099518D01*
X163474686Y-98099518D01*
X163474686Y-98288479D01*
X163477668Y-98307308D01*
X163504245Y-98475114D01*
X163504247Y-98475122D01*
X163504275Y-98475207D01*
X163562639Y-98654832D01*
X163648416Y-98823182D01*
X163648422Y-98823193D01*
X163648429Y-98823207D01*
X163648627Y-98823475D01*
X163759496Y-98976072D01*
X163759498Y-98976074D01*
X163759504Y-98976082D01*
X163833923Y-99050500D01*
X163893106Y-99109683D01*
X163893109Y-99109685D01*
X163893113Y-99109689D01*
X163893126Y-99109698D01*
X163893304Y-99109845D01*
X163893844Y-99110220D01*
X164045987Y-99220759D01*
X164045989Y-99220760D01*
X164045992Y-99220762D01*
X164155607Y-99276613D01*
X164214354Y-99306546D01*
X164394068Y-99364939D01*
X164580705Y-99394499D01*
X164580706Y-99394499D01*
X164769666Y-99394499D01*
X164769667Y-99394499D01*
X164956304Y-99364939D01*
X165136018Y-99306546D01*
X165304385Y-99220759D01*
X165457259Y-99109689D01*
X165590876Y-98976072D01*
X165701946Y-98823198D01*
X165787733Y-98654831D01*
X165846126Y-98475117D01*
X165875686Y-98288480D01*
X165875686Y-98099518D01*
X165846126Y-97912881D01*
X165787733Y-97733167D01*
X165787732Y-97733165D01*
X165767555Y-97693566D01*
X165702347Y-97565586D01*
X165702346Y-97565584D01*
X165701949Y-97564805D01*
X165701947Y-97564802D01*
X165701946Y-97564800D01*
X165590876Y-97411926D01*
X165590874Y-97411924D01*
X165590872Y-97411921D01*
X165478498Y-97299547D01*
X165475057Y-97291241D01*
X165457265Y-97278314D01*
X165457266Y-97278314D01*
X165327486Y-97184023D01*
X165327486Y-97184022D01*
X165304661Y-97167439D01*
X165304661Y-97167438D01*
X165304379Y-97167234D01*
X165304369Y-97167229D01*
X165136020Y-97081452D01*
X164956394Y-97023088D01*
X164956309Y-97023060D01*
X164956301Y-97023058D01*
X164812930Y-97000351D01*
X164769667Y-96993499D01*
X164580705Y-96993499D01*
X164545582Y-96999060D01*
X164545583Y-96999061D01*
X164394069Y-97023058D01*
X164394055Y-97023061D01*
X164393976Y-97023088D01*
X164214350Y-97081452D01*
X164045997Y-97167231D01*
X163893099Y-97278319D01*
X163759506Y-97411912D01*
X163648418Y-97564810D01*
X163562639Y-97733163D01*
X163504275Y-97912789D01*
X163504248Y-97912868D01*
X163504245Y-97912882D01*
X163504245Y-97912883D01*
X163474686Y-98099518D01*
X162950500Y-98099518D01*
X162950500Y-96416646D01*
X162954229Y-96397896D01*
X162957110Y-96390941D01*
X162961123Y-96381252D01*
X162971741Y-96365361D01*
X163208918Y-96128185D01*
X163224810Y-96117566D01*
X163241455Y-96110671D01*
X163260204Y-96106943D01*
X163518846Y-96106943D01*
X163537597Y-96110673D01*
X163549951Y-96115790D01*
X163574858Y-96138813D01*
X163623935Y-96235133D01*
X163648416Y-96283181D01*
X163648422Y-96283193D01*
X163648437Y-96283218D01*
X163648627Y-96283475D01*
X163658684Y-96297317D01*
X163759496Y-96436072D01*
X163759498Y-96436074D01*
X163759504Y-96436082D01*
X163833923Y-96510500D01*
X163893106Y-96569683D01*
X163893109Y-96569685D01*
X163893113Y-96569689D01*
X163893126Y-96569698D01*
X163893304Y-96569845D01*
X163893844Y-96570220D01*
X164045987Y-96680759D01*
X164045989Y-96680760D01*
X164045992Y-96680762D01*
X164120940Y-96718949D01*
X164214304Y-96766521D01*
X164214326Y-96766532D01*
X164214352Y-96766545D01*
X164214354Y-96766546D01*
X164394068Y-96824939D01*
X164580705Y-96854499D01*
X164580706Y-96854499D01*
X164769666Y-96854499D01*
X164769667Y-96854499D01*
X164956304Y-96824939D01*
X165136018Y-96766546D01*
X165304385Y-96680759D01*
X165457259Y-96569689D01*
X165590876Y-96436072D01*
X165701946Y-96283198D01*
X165787733Y-96114831D01*
X165846126Y-95935117D01*
X165875686Y-95748480D01*
X165875686Y-95559518D01*
X165846126Y-95372881D01*
X165787733Y-95193167D01*
X165780611Y-95179189D01*
X165701949Y-95024805D01*
X165701947Y-95024802D01*
X165701946Y-95024800D01*
X165590876Y-94871926D01*
X165590874Y-94871924D01*
X165590872Y-94871921D01*
X165478498Y-94759547D01*
X165475057Y-94751241D01*
X165457265Y-94738314D01*
X165457266Y-94738314D01*
X165327486Y-94644023D01*
X165327486Y-94644022D01*
X165304661Y-94627439D01*
X165304661Y-94627438D01*
X165304379Y-94627234D01*
X165304369Y-94627229D01*
X165136020Y-94541452D01*
X164956394Y-94483088D01*
X164956309Y-94483060D01*
X164956301Y-94483058D01*
X164812930Y-94460351D01*
X164769667Y-94453499D01*
X164580705Y-94453499D01*
X164545582Y-94459060D01*
X164545583Y-94459061D01*
X164394069Y-94483058D01*
X164394055Y-94483061D01*
X164393976Y-94483088D01*
X164214350Y-94541452D01*
X164045997Y-94627231D01*
X163893099Y-94738319D01*
X163759506Y-94871913D01*
X163759502Y-94871917D01*
X163648422Y-95024805D01*
X163574186Y-95170503D01*
X163562351Y-95185517D01*
X163552183Y-95194202D01*
X163520359Y-95205943D01*
X162984242Y-95205943D01*
X162893884Y-95230155D01*
X162893883Y-95230156D01*
X162869665Y-95236644D01*
X162869664Y-95236644D01*
X162766947Y-95295949D01*
X162766938Y-95295956D01*
X162139514Y-95923381D01*
X162139509Y-95923388D01*
X162080201Y-96026109D01*
X162080200Y-96026110D01*
X162080200Y-96026111D01*
X162073714Y-96050324D01*
X162073713Y-96050327D01*
X162049500Y-96140686D01*
X162049500Y-113583353D01*
X162045770Y-113602106D01*
X162038877Y-113618746D01*
X162028255Y-113634641D01*
X159644075Y-116018821D01*
X159640612Y-116021478D01*
X159586140Y-116115821D01*
X159586135Y-116115832D01*
X159580201Y-116126111D01*
X159578532Y-116132343D01*
X159578531Y-116132342D01*
X159578531Y-116132346D01*
X159576147Y-116141242D01*
X159576145Y-116141248D01*
X159549500Y-116240686D01*
X159549500Y-125683352D01*
X159545770Y-125702105D01*
X159538877Y-125718745D01*
X159528255Y-125734640D01*
X158751360Y-126511534D01*
X158741212Y-126519321D01*
X158730416Y-126525554D01*
X158718598Y-126530449D01*
X158707234Y-126533494D01*
X158706840Y-126533596D01*
X158706810Y-126533608D01*
X158590779Y-126600600D01*
X158588121Y-126604064D01*
X158504064Y-126688121D01*
X158500600Y-126690779D01*
X158433608Y-126806810D01*
X158433596Y-126806840D01*
X158433494Y-126807234D01*
X158399500Y-126934100D01*
X130500500Y-126934100D01*
X130500500Y-113634100D01*
X133099500Y-113634100D01*
X133099500Y-113765898D01*
X133133494Y-113892764D01*
X133133596Y-113893160D01*
X133133606Y-113893184D01*
X133133607Y-113893187D01*
X133133608Y-113893188D01*
X133180201Y-113973888D01*
X133185813Y-113983608D01*
X133199496Y-114007308D01*
X133199498Y-114007310D01*
X133199500Y-114007314D01*
X133292686Y-114100500D01*
X133334457Y-114124617D01*
X133406811Y-114166391D01*
X133406812Y-114166391D01*
X133406815Y-114166393D01*
X133485988Y-114187606D01*
X133507207Y-114193292D01*
X133531012Y-114199670D01*
X133533455Y-114200500D01*
X133665895Y-114200500D01*
X133672689Y-114200500D01*
X133678575Y-114197101D01*
X133793186Y-114166392D01*
X133907314Y-114100500D01*
X133973712Y-114034102D01*
X134199500Y-114034102D01*
X134199500Y-114165898D01*
X134233494Y-114292764D01*
X134233596Y-114293160D01*
X134233608Y-114293188D01*
X134286102Y-114384108D01*
X134299500Y-114407314D01*
X134392686Y-114500500D01*
X134413003Y-114512230D01*
X134506810Y-114566390D01*
X134506811Y-114566390D01*
X134506816Y-114566393D01*
X134518602Y-114569551D01*
X134530419Y-114574445D01*
X134541212Y-114580676D01*
X134551361Y-114588464D01*
X135828255Y-115865358D01*
X135838877Y-115881253D01*
X135845770Y-115897893D01*
X135849500Y-115916646D01*
X135849500Y-123959708D01*
X135847830Y-123972392D01*
X135844605Y-123984426D01*
X135839712Y-123996239D01*
X135833612Y-124006805D01*
X135833605Y-124006817D01*
X135833604Y-124006822D01*
X135799500Y-124134100D01*
X135799500Y-124265898D01*
X135833494Y-124392764D01*
X135833596Y-124393160D01*
X135833608Y-124393188D01*
X135899496Y-124507308D01*
X135899498Y-124507310D01*
X135899500Y-124507314D01*
X135992686Y-124600500D01*
X136034457Y-124624617D01*
X136106811Y-124666391D01*
X136106812Y-124666391D01*
X136106815Y-124666393D01*
X136185988Y-124687606D01*
X136207207Y-124693292D01*
X136231012Y-124699670D01*
X136233455Y-124700500D01*
X136365895Y-124700500D01*
X136372689Y-124700500D01*
X136378575Y-124697101D01*
X136493186Y-124666392D01*
X136607314Y-124600500D01*
X136700500Y-124507314D01*
X136766392Y-124393186D01*
X136797101Y-124278575D01*
X136800500Y-124272689D01*
X136800500Y-124133454D01*
X136799669Y-124131008D01*
X136766393Y-124006818D01*
X136766392Y-124006814D01*
X136759425Y-123994747D01*
X136758672Y-123993200D01*
X136758610Y-123992191D01*
X136755393Y-123984421D01*
X136752169Y-123972385D01*
X136750500Y-123959707D01*
X136750500Y-121498963D01*
X137992242Y-121498963D01*
X137994006Y-121506018D01*
X137995050Y-121511505D01*
X138024639Y-121736242D01*
X138024642Y-121736261D01*
X138084026Y-121957881D01*
X138084026Y-121957882D01*
X138084028Y-121957886D01*
X138171842Y-122169888D01*
X138174122Y-122173837D01*
X138286573Y-122368609D01*
X138286579Y-122368618D01*
X138286583Y-122368623D01*
X138426257Y-122550650D01*
X138588533Y-122712926D01*
X138728208Y-122820102D01*
X138770561Y-122852601D01*
X138770570Y-122852607D01*
X138770574Y-122852610D01*
X138969298Y-122967343D01*
X139181299Y-123055157D01*
X139352555Y-123101044D01*
X139402936Y-123114544D01*
X139402937Y-123114544D01*
X139402948Y-123114547D01*
X139630452Y-123144499D01*
X139630455Y-123144499D01*
X139859916Y-123144499D01*
X139859920Y-123144499D01*
X140087424Y-123114547D01*
X140309073Y-123055157D01*
X140521074Y-122967343D01*
X140719798Y-122852610D01*
X140901847Y-122712918D01*
X141064105Y-122550660D01*
X141203797Y-122368611D01*
X141318530Y-122169887D01*
X141406344Y-121957886D01*
X141465734Y-121736237D01*
X141495686Y-121508733D01*
X141495686Y-121279265D01*
X141465734Y-121051761D01*
X141406344Y-120830112D01*
X141318530Y-120618111D01*
X141203797Y-120419387D01*
X141203794Y-120419383D01*
X141203788Y-120419374D01*
X141171289Y-120377021D01*
X141064113Y-120237346D01*
X140901837Y-120075070D01*
X140719810Y-119935396D01*
X140719805Y-119935392D01*
X140719796Y-119935386D01*
X140521078Y-119820657D01*
X140521079Y-119820657D01*
X140521075Y-119820655D01*
X140309073Y-119732841D01*
X140309072Y-119732840D01*
X140309068Y-119732839D01*
X140087440Y-119673453D01*
X140049173Y-119668415D01*
X139859920Y-119643499D01*
X139859916Y-119643499D01*
X139630455Y-119643499D01*
X139630452Y-119643499D01*
X139563947Y-119652254D01*
X139403199Y-119673417D01*
X139402957Y-119673447D01*
X139402917Y-119673457D01*
X139181302Y-119732839D01*
X139181301Y-119732839D01*
X139035398Y-119793274D01*
X138969296Y-119820655D01*
X138969293Y-119820656D01*
X138969292Y-119820657D01*
X138770574Y-119935386D01*
X138770565Y-119935392D01*
X138770560Y-119935396D01*
X138588533Y-120075070D01*
X138426257Y-120237346D01*
X138286583Y-120419373D01*
X138286579Y-120419378D01*
X138286573Y-120419387D01*
X138171844Y-120618105D01*
X138171842Y-120618109D01*
X138144461Y-120684211D01*
X138084026Y-120830114D01*
X138084026Y-120830115D01*
X138024642Y-121051737D01*
X138024640Y-121051745D01*
X138024640Y-121051749D01*
X137994686Y-121279268D01*
X137994686Y-121279270D01*
X137994686Y-121491864D01*
X137992242Y-121498963D01*
X136750500Y-121498963D01*
X136750500Y-115640686D01*
X136742562Y-115611067D01*
X136721469Y-115532346D01*
X136721468Y-115532342D01*
X136721468Y-115532343D01*
X136719799Y-115526114D01*
X136719799Y-115526113D01*
X136660490Y-115423386D01*
X135188461Y-113951358D01*
X135180675Y-113941211D01*
X135174446Y-113930422D01*
X135169551Y-113918606D01*
X135166392Y-113906814D01*
X135158524Y-113893187D01*
X135100499Y-113792685D01*
X135007317Y-113699503D01*
X135007314Y-113699500D01*
X135007310Y-113699498D01*
X135007308Y-113699496D01*
X134893188Y-113633608D01*
X134893160Y-113633596D01*
X134892764Y-113633494D01*
X134765898Y-113599500D01*
X134765895Y-113599500D01*
X134765892Y-113599500D01*
X134634108Y-113599500D01*
X134634105Y-113599500D01*
X134634102Y-113599500D01*
X134507234Y-113633494D01*
X134506840Y-113633596D01*
X134506810Y-113633608D01*
X134390779Y-113700600D01*
X134388121Y-113704064D01*
X134304064Y-113788121D01*
X134300601Y-113790778D01*
X134233608Y-113906809D01*
X134231939Y-113913041D01*
X134231938Y-113913046D01*
X134199500Y-114034102D01*
X133973712Y-114034102D01*
X134000500Y-114007314D01*
X134014188Y-113983607D01*
X134066391Y-113893188D01*
X134066391Y-113893187D01*
X134066392Y-113893186D01*
X134097102Y-113778572D01*
X134100500Y-113772688D01*
X134100500Y-113633454D01*
X134099669Y-113631008D01*
X134066492Y-113507189D01*
X134066399Y-113506833D01*
X134066392Y-113506815D01*
X134066391Y-113506811D01*
X134000499Y-113392685D01*
X133907314Y-113299500D01*
X133907310Y-113299498D01*
X133907308Y-113299496D01*
X133793188Y-113233608D01*
X133793160Y-113233596D01*
X133792764Y-113233494D01*
X133665898Y-113199500D01*
X133665895Y-113199500D01*
X133665892Y-113199500D01*
X133534108Y-113199500D01*
X133534105Y-113199500D01*
X133534102Y-113199500D01*
X133407234Y-113233494D01*
X133406840Y-113233596D01*
X133406810Y-113233608D01*
X133290779Y-113300600D01*
X133288121Y-113304064D01*
X133204064Y-113388121D01*
X133200600Y-113390779D01*
X133133608Y-113506810D01*
X133133596Y-113506840D01*
X133133494Y-113507234D01*
X133099500Y-113634100D01*
X130500500Y-113634100D01*
X130500500Y-112414251D01*
X138074686Y-112414251D01*
X138074686Y-114453747D01*
X138083985Y-114500497D01*
X138086319Y-114512230D01*
X138088763Y-114515887D01*
X138088764Y-114515892D01*
X138088766Y-114515892D01*
X138130632Y-114578551D01*
X138134660Y-114581242D01*
X138138637Y-114583899D01*
X138138640Y-114583903D01*
X138138642Y-114583902D01*
X138196955Y-114622866D01*
X138255438Y-114634499D01*
X138255441Y-114634499D01*
X140294931Y-114634499D01*
X140294934Y-114634499D01*
X140353417Y-114622866D01*
X140419738Y-114578551D01*
X140464053Y-114512230D01*
X140475686Y-114453747D01*
X140475686Y-112414251D01*
X140464053Y-112355768D01*
X140437487Y-112316011D01*
X140437487Y-112316010D01*
X140419741Y-112289450D01*
X140419738Y-112289446D01*
X140379982Y-112262882D01*
X140373388Y-112258476D01*
X140353417Y-112245132D01*
X140294934Y-112233499D01*
X140294931Y-112233499D01*
X138255441Y-112233499D01*
X138255438Y-112233499D01*
X138220348Y-112240478D01*
X138196953Y-112245132D01*
X138130632Y-112289445D01*
X138086319Y-112355766D01*
X138086319Y-112355768D01*
X138074686Y-112414251D01*
X130500500Y-112414251D01*
X130500500Y-110799518D01*
X138074686Y-110799518D01*
X138074686Y-110988478D01*
X138104245Y-111175114D01*
X138104247Y-111175122D01*
X138104275Y-111175207D01*
X138162639Y-111354833D01*
X138248416Y-111523182D01*
X138248422Y-111523193D01*
X138248429Y-111523207D01*
X138248627Y-111523475D01*
X138359496Y-111676072D01*
X138359498Y-111676074D01*
X138359504Y-111676082D01*
X138493100Y-111809677D01*
X138493106Y-111809683D01*
X138493109Y-111809685D01*
X138493113Y-111809689D01*
X138493126Y-111809698D01*
X138493304Y-111809845D01*
X138493844Y-111810220D01*
X138645987Y-111920759D01*
X138645989Y-111920760D01*
X138645992Y-111920762D01*
X138770309Y-111984104D01*
X138814354Y-112006546D01*
X138994068Y-112064939D01*
X139180705Y-112094499D01*
X139180706Y-112094499D01*
X139369666Y-112094499D01*
X139369667Y-112094499D01*
X139556304Y-112064939D01*
X139736018Y-112006546D01*
X139780071Y-111984100D01*
X159919500Y-111984100D01*
X159919500Y-112115898D01*
X159953494Y-112242764D01*
X159953596Y-112243160D01*
X159953608Y-112243188D01*
X160018602Y-112355760D01*
X160018607Y-112355768D01*
X160019500Y-112357314D01*
X160112686Y-112450500D01*
X160154457Y-112474617D01*
X160226811Y-112516391D01*
X160226812Y-112516391D01*
X160226815Y-112516393D01*
X160305988Y-112537606D01*
X160327207Y-112543292D01*
X160351012Y-112549670D01*
X160353455Y-112550500D01*
X160485895Y-112550500D01*
X160492689Y-112550500D01*
X160498575Y-112547101D01*
X160613186Y-112516392D01*
X160727314Y-112450500D01*
X160820500Y-112357314D01*
X160877563Y-112258478D01*
X160886391Y-112243188D01*
X160886391Y-112243187D01*
X160886392Y-112243186D01*
X160917102Y-112128572D01*
X160920500Y-112122688D01*
X160920500Y-111983454D01*
X160919669Y-111981008D01*
X160886492Y-111857189D01*
X160886399Y-111856833D01*
X160886392Y-111856815D01*
X160886391Y-111856811D01*
X160820499Y-111742685D01*
X160727314Y-111649500D01*
X160727310Y-111649498D01*
X160727308Y-111649496D01*
X160613188Y-111583608D01*
X160613160Y-111583596D01*
X160612764Y-111583494D01*
X160485898Y-111549500D01*
X160485895Y-111549500D01*
X160485892Y-111549500D01*
X160354108Y-111549500D01*
X160354105Y-111549500D01*
X160354102Y-111549500D01*
X160227234Y-111583494D01*
X160226840Y-111583596D01*
X160226810Y-111583608D01*
X160110779Y-111650600D01*
X160108121Y-111654064D01*
X160024064Y-111738121D01*
X160020600Y-111740779D01*
X159953608Y-111856810D01*
X159953596Y-111856840D01*
X159953494Y-111857234D01*
X159919500Y-111984100D01*
X139780071Y-111984100D01*
X139904385Y-111920759D01*
X140057259Y-111809689D01*
X140190876Y-111676072D01*
X140301946Y-111523198D01*
X140387733Y-111354831D01*
X140446126Y-111175117D01*
X140475686Y-110988480D01*
X140475686Y-110799518D01*
X140446126Y-110612881D01*
X140387733Y-110433167D01*
X140301946Y-110264800D01*
X140191438Y-110112699D01*
X140191438Y-110112698D01*
X140190873Y-110111922D01*
X140078498Y-109999547D01*
X140075057Y-109991240D01*
X139904376Y-109867233D01*
X139736020Y-109781452D01*
X139556394Y-109723088D01*
X139556309Y-109723060D01*
X139556301Y-109723058D01*
X139412930Y-109700351D01*
X139369667Y-109693499D01*
X139180705Y-109693499D01*
X139145582Y-109699060D01*
X139145583Y-109699061D01*
X138994069Y-109723058D01*
X138994055Y-109723061D01*
X138993976Y-109723088D01*
X138814350Y-109781452D01*
X138645997Y-109867231D01*
X138493099Y-109978319D01*
X138359506Y-110111912D01*
X138248418Y-110264810D01*
X138162639Y-110433163D01*
X138104275Y-110612789D01*
X138104248Y-110612868D01*
X138104245Y-110612882D01*
X138074686Y-110799518D01*
X130500500Y-110799518D01*
X130500500Y-108259518D01*
X138074686Y-108259518D01*
X138074686Y-108448478D01*
X138104245Y-108635114D01*
X138104247Y-108635122D01*
X138104275Y-108635207D01*
X138162639Y-108814833D01*
X138248416Y-108983182D01*
X138248422Y-108983193D01*
X138248429Y-108983207D01*
X138248627Y-108983475D01*
X138359496Y-109136072D01*
X138359498Y-109136074D01*
X138359504Y-109136082D01*
X138493100Y-109269677D01*
X138493106Y-109269683D01*
X138493109Y-109269685D01*
X138493113Y-109269689D01*
X138493126Y-109269698D01*
X138493304Y-109269845D01*
X138493844Y-109270220D01*
X138645987Y-109380759D01*
X138645989Y-109380760D01*
X138645992Y-109380762D01*
X138720940Y-109418949D01*
X138814304Y-109466521D01*
X138814326Y-109466532D01*
X138814352Y-109466545D01*
X138814354Y-109466546D01*
X138994068Y-109524939D01*
X139180705Y-109554499D01*
X139180706Y-109554499D01*
X139369666Y-109554499D01*
X139369667Y-109554499D01*
X139556304Y-109524939D01*
X139736018Y-109466546D01*
X139904385Y-109380759D01*
X140057259Y-109269689D01*
X140190876Y-109136072D01*
X140301946Y-108983198D01*
X140387733Y-108814831D01*
X140446126Y-108635117D01*
X140475686Y-108448480D01*
X140475686Y-108259518D01*
X140446126Y-108072881D01*
X140387733Y-107893167D01*
X140301946Y-107724800D01*
X140241838Y-107642068D01*
X140191438Y-107572699D01*
X140191438Y-107572698D01*
X140190873Y-107571922D01*
X140078498Y-107459547D01*
X140075057Y-107451240D01*
X139904376Y-107327233D01*
X139736020Y-107241452D01*
X139556394Y-107183088D01*
X139556309Y-107183060D01*
X139556301Y-107183058D01*
X139412930Y-107160351D01*
X139369667Y-107153499D01*
X139180705Y-107153499D01*
X139145582Y-107159060D01*
X139145583Y-107159061D01*
X138994069Y-107183058D01*
X138994055Y-107183061D01*
X138993976Y-107183088D01*
X138814350Y-107241452D01*
X138645997Y-107327231D01*
X138493099Y-107438319D01*
X138359506Y-107571912D01*
X138248418Y-107724810D01*
X138162639Y-107893163D01*
X138104275Y-108072789D01*
X138104248Y-108072868D01*
X138104245Y-108072882D01*
X138074686Y-108259518D01*
X130500500Y-108259518D01*
X130500500Y-105934100D01*
X135199500Y-105934100D01*
X135199500Y-106065898D01*
X135233494Y-106192764D01*
X135233596Y-106193160D01*
X135233608Y-106193188D01*
X135280743Y-106274827D01*
X135280746Y-106274831D01*
X135299500Y-106307314D01*
X135392686Y-106400500D01*
X135414510Y-106413100D01*
X135458928Y-106438745D01*
X135506812Y-106466392D01*
X135580303Y-106486083D01*
X135607207Y-106493292D01*
X135631012Y-106499670D01*
X135633455Y-106500500D01*
X135765895Y-106500500D01*
X135772689Y-106500500D01*
X135778575Y-106497101D01*
X135893186Y-106466392D01*
X136007314Y-106400500D01*
X136100500Y-106307314D01*
X136166392Y-106193186D01*
X136197101Y-106078575D01*
X136200500Y-106072689D01*
X136200500Y-105933454D01*
X136199669Y-105931008D01*
X136166392Y-105806815D01*
X136166391Y-105806812D01*
X136129025Y-105742093D01*
X136115991Y-105719518D01*
X138074686Y-105719518D01*
X138074686Y-105908479D01*
X138078745Y-105934105D01*
X138104245Y-106095114D01*
X138104247Y-106095122D01*
X138104275Y-106095207D01*
X138162639Y-106274832D01*
X138248416Y-106443182D01*
X138248422Y-106443193D01*
X138248429Y-106443207D01*
X138248627Y-106443475D01*
X138277054Y-106482600D01*
X138359496Y-106596072D01*
X138359498Y-106596074D01*
X138359504Y-106596082D01*
X138442735Y-106679312D01*
X138493106Y-106729683D01*
X138493109Y-106729685D01*
X138493113Y-106729689D01*
X138493126Y-106729698D01*
X138493304Y-106729845D01*
X138493844Y-106730220D01*
X138645987Y-106840759D01*
X138645989Y-106840760D01*
X138645992Y-106840762D01*
X138755609Y-106896614D01*
X138814354Y-106926546D01*
X138994068Y-106984939D01*
X139180705Y-107014499D01*
X139180706Y-107014499D01*
X139369666Y-107014499D01*
X139369667Y-107014499D01*
X139556304Y-106984939D01*
X139736018Y-106926546D01*
X139904385Y-106840759D01*
X140057259Y-106729689D01*
X140190876Y-106596072D01*
X140301946Y-106443198D01*
X140387733Y-106274831D01*
X140446126Y-106095117D01*
X140475686Y-105908480D01*
X140475686Y-105719518D01*
X140446126Y-105532881D01*
X140387733Y-105353167D01*
X140301946Y-105184800D01*
X140191438Y-105032699D01*
X140191438Y-105032698D01*
X140190873Y-105031922D01*
X140078498Y-104919547D01*
X140075057Y-104911240D01*
X139904376Y-104787233D01*
X139736020Y-104701452D01*
X139556394Y-104643088D01*
X139556309Y-104643060D01*
X139556301Y-104643058D01*
X139412930Y-104620351D01*
X139369667Y-104613499D01*
X139180705Y-104613499D01*
X139145582Y-104619060D01*
X139145583Y-104619061D01*
X138994069Y-104643058D01*
X138994055Y-104643061D01*
X138993976Y-104643088D01*
X138814350Y-104701452D01*
X138645997Y-104787231D01*
X138493099Y-104898319D01*
X138359506Y-105031912D01*
X138248418Y-105184810D01*
X138162639Y-105353163D01*
X138104275Y-105532789D01*
X138104248Y-105532868D01*
X138104245Y-105532882D01*
X138104245Y-105532883D01*
X138074686Y-105719518D01*
X136115991Y-105719518D01*
X136100500Y-105692686D01*
X136007314Y-105599500D01*
X136007310Y-105599498D01*
X136007308Y-105599496D01*
X135893188Y-105533608D01*
X135893160Y-105533596D01*
X135892764Y-105533494D01*
X135765898Y-105499500D01*
X135765895Y-105499500D01*
X135765892Y-105499500D01*
X135634108Y-105499500D01*
X135634105Y-105499500D01*
X135634102Y-105499500D01*
X135507234Y-105533494D01*
X135506840Y-105533596D01*
X135506810Y-105533608D01*
X135390779Y-105600600D01*
X135388121Y-105604064D01*
X135304064Y-105688121D01*
X135300600Y-105690779D01*
X135233608Y-105806810D01*
X135233596Y-105806840D01*
X135233494Y-105807234D01*
X135199500Y-105934100D01*
X130500500Y-105934100D01*
X130500500Y-103179518D01*
X138074686Y-103179518D01*
X138074686Y-103368478D01*
X138104245Y-103555114D01*
X138104247Y-103555122D01*
X138104275Y-103555207D01*
X138162639Y-103734833D01*
X138248416Y-103903182D01*
X138248422Y-103903193D01*
X138248429Y-103903207D01*
X138248627Y-103903475D01*
X138359496Y-104056072D01*
X138359498Y-104056074D01*
X138359504Y-104056082D01*
X138493100Y-104189677D01*
X138493106Y-104189683D01*
X138493109Y-104189685D01*
X138493113Y-104189689D01*
X138493126Y-104189698D01*
X138493304Y-104189845D01*
X138493844Y-104190220D01*
X138645987Y-104300759D01*
X138645989Y-104300760D01*
X138645992Y-104300762D01*
X138720940Y-104338949D01*
X138814304Y-104386521D01*
X138814326Y-104386532D01*
X138814352Y-104386545D01*
X138814354Y-104386546D01*
X138994068Y-104444939D01*
X139180705Y-104474499D01*
X139180706Y-104474499D01*
X139369666Y-104474499D01*
X139369667Y-104474499D01*
X139556304Y-104444939D01*
X139736018Y-104386546D01*
X139904385Y-104300759D01*
X140057259Y-104189689D01*
X140190876Y-104056072D01*
X140301946Y-103903198D01*
X140387733Y-103734831D01*
X140446126Y-103555117D01*
X140475686Y-103368480D01*
X140475686Y-103179518D01*
X140446126Y-102992881D01*
X140387733Y-102813167D01*
X140301946Y-102644800D01*
X140191438Y-102492699D01*
X140191438Y-102492698D01*
X140190873Y-102491922D01*
X140078498Y-102379547D01*
X140075057Y-102371240D01*
X139904376Y-102247233D01*
X139736020Y-102161452D01*
X139556394Y-102103088D01*
X139556309Y-102103060D01*
X139556301Y-102103058D01*
X139412930Y-102080351D01*
X139369667Y-102073499D01*
X139180705Y-102073499D01*
X139145582Y-102079060D01*
X139145583Y-102079061D01*
X138994069Y-102103058D01*
X138994055Y-102103061D01*
X138993976Y-102103088D01*
X138814350Y-102161452D01*
X138645997Y-102247231D01*
X138493099Y-102358319D01*
X138359506Y-102491912D01*
X138248418Y-102644810D01*
X138162639Y-102813163D01*
X138104275Y-102992789D01*
X138104248Y-102992868D01*
X138104245Y-102992882D01*
X138074686Y-103179518D01*
X130500500Y-103179518D01*
X130500500Y-100436535D01*
X132949500Y-100436535D01*
X132949500Y-100643465D01*
X132969335Y-100743184D01*
X132969334Y-100743184D01*
X132989866Y-100846408D01*
X132989874Y-100846432D01*
X133069058Y-101037596D01*
X133124679Y-101120841D01*
X133174118Y-101194832D01*
X133184023Y-101209655D01*
X133330345Y-101355977D01*
X133502402Y-101470941D01*
X133693580Y-101550130D01*
X133896535Y-101590500D01*
X133896538Y-101590500D01*
X134103462Y-101590500D01*
X134103465Y-101590500D01*
X134306420Y-101550130D01*
X134497598Y-101470941D01*
X134669655Y-101355977D01*
X134815977Y-101209655D01*
X134930941Y-101037598D01*
X135010130Y-100846420D01*
X135050500Y-100643465D01*
X135050500Y-100639518D01*
X138074686Y-100639518D01*
X138074686Y-100828479D01*
X138078686Y-100853733D01*
X138104245Y-101015114D01*
X138104247Y-101015122D01*
X138104275Y-101015207D01*
X138162639Y-101194832D01*
X138248416Y-101363182D01*
X138248422Y-101363193D01*
X138248429Y-101363207D01*
X138248627Y-101363475D01*
X138359496Y-101516072D01*
X138359498Y-101516074D01*
X138359504Y-101516082D01*
X138433923Y-101590500D01*
X138493106Y-101649683D01*
X138493109Y-101649685D01*
X138493113Y-101649689D01*
X138493126Y-101649698D01*
X138493304Y-101649845D01*
X138493844Y-101650220D01*
X138645987Y-101760759D01*
X138645989Y-101760760D01*
X138645992Y-101760762D01*
X138720940Y-101798949D01*
X138814304Y-101846521D01*
X138814326Y-101846532D01*
X138814352Y-101846545D01*
X138814354Y-101846546D01*
X138994068Y-101904939D01*
X139180705Y-101934499D01*
X139180706Y-101934499D01*
X139369666Y-101934499D01*
X139369667Y-101934499D01*
X139556304Y-101904939D01*
X139736018Y-101846546D01*
X139904385Y-101760759D01*
X140057259Y-101649689D01*
X140190876Y-101516072D01*
X140301946Y-101363198D01*
X140387733Y-101194831D01*
X140411759Y-101120889D01*
X140446127Y-101015115D01*
X140446126Y-101015114D01*
X140447322Y-101007566D01*
X140475686Y-100828480D01*
X140475686Y-100639518D01*
X140471945Y-100615895D01*
X140451777Y-100488557D01*
X140451071Y-100484100D01*
X146749500Y-100484100D01*
X146749500Y-100615898D01*
X146783494Y-100742764D01*
X146783596Y-100743160D01*
X146783606Y-100743184D01*
X146783607Y-100743187D01*
X146783608Y-100743188D01*
X146847436Y-100853739D01*
X146849500Y-100857314D01*
X146942686Y-100950500D01*
X146984457Y-100974617D01*
X147056811Y-101016391D01*
X147056812Y-101016391D01*
X147056815Y-101016393D01*
X147105244Y-101029368D01*
X147135949Y-101037596D01*
X147181017Y-101049671D01*
X147183455Y-101050500D01*
X147315895Y-101050500D01*
X147322689Y-101050500D01*
X147328574Y-101047101D01*
X147443186Y-101016392D01*
X147445395Y-101015117D01*
X147458478Y-101007563D01*
X147557314Y-100950500D01*
X147650500Y-100857314D01*
X147716392Y-100743186D01*
X147719550Y-100731399D01*
X147724445Y-100719578D01*
X147730676Y-100708785D01*
X147738460Y-100698640D01*
X154860489Y-93576614D01*
X154918040Y-93476932D01*
X154919799Y-93473886D01*
X154947101Y-93371993D01*
X154950500Y-93366106D01*
X154950500Y-87216646D01*
X154954229Y-87197896D01*
X154961123Y-87181252D01*
X154971741Y-87165361D01*
X157435362Y-84701741D01*
X157451253Y-84691123D01*
X157467898Y-84684228D01*
X157486647Y-84680500D01*
X163657805Y-84680500D01*
X163666443Y-84681619D01*
X163667434Y-84681455D01*
X163680721Y-84684118D01*
X163682521Y-84684120D01*
X163683084Y-84684354D01*
X163683119Y-84684358D01*
X163683117Y-84684368D01*
X163690572Y-84687466D01*
X163694096Y-84688396D01*
X163695644Y-84689574D01*
X163717151Y-84698513D01*
X163721624Y-84709349D01*
X163723938Y-84711110D01*
X163724714Y-84716833D01*
X163731462Y-84733178D01*
X163729064Y-84748262D01*
X163728201Y-84750918D01*
X163721241Y-84764577D01*
X163648437Y-84864783D01*
X163648423Y-84864804D01*
X163648413Y-84864822D01*
X163562639Y-85033163D01*
X163504275Y-85212789D01*
X163504248Y-85212868D01*
X163504245Y-85212882D01*
X163494773Y-85272689D01*
X163474686Y-85399518D01*
X163474686Y-85588479D01*
X163487026Y-85666391D01*
X163504245Y-85775114D01*
X163504247Y-85775122D01*
X163504275Y-85775207D01*
X163562639Y-85954833D01*
X163648415Y-86123178D01*
X163648416Y-86123181D01*
X163648423Y-86123193D01*
X163648426Y-86123198D01*
X163674914Y-86159656D01*
X163728794Y-86233816D01*
X163736799Y-86251181D01*
X163737376Y-86253585D01*
X163731507Y-86290626D01*
X163701165Y-86312668D01*
X163689691Y-86314021D01*
X163681653Y-86314014D01*
X163681649Y-86314015D01*
X163658661Y-86318567D01*
X163649144Y-86319500D01*
X158710686Y-86319500D01*
X158620329Y-86343712D01*
X158620328Y-86343712D01*
X158620326Y-86343713D01*
X158596115Y-86350199D01*
X158596112Y-86350200D01*
X158596109Y-86350201D01*
X158491478Y-86410612D01*
X158488821Y-86414075D01*
X156204075Y-88698821D01*
X156200612Y-88701478D01*
X156146140Y-88795821D01*
X156146135Y-88795832D01*
X156140201Y-88806111D01*
X156138532Y-88812343D01*
X156138531Y-88812342D01*
X156138531Y-88812346D01*
X156136147Y-88821242D01*
X156136145Y-88821248D01*
X156109500Y-88920686D01*
X156109500Y-93523352D01*
X156105770Y-93542105D01*
X156098877Y-93558745D01*
X156088255Y-93574640D01*
X150471202Y-99191692D01*
X150466384Y-99195918D01*
X150461325Y-99199800D01*
X150455996Y-99203360D01*
X150393400Y-99239502D01*
X150393384Y-99239513D01*
X150393377Y-99239519D01*
X150314075Y-99318822D01*
X150310611Y-99321480D01*
X150250201Y-99426112D01*
X150250195Y-99426132D01*
X150219500Y-99540685D01*
X150219500Y-106403352D01*
X150215770Y-106422105D01*
X150208877Y-106438745D01*
X150198255Y-106454640D01*
X149751360Y-106901534D01*
X149741212Y-106909321D01*
X149730416Y-106915554D01*
X149718598Y-106920449D01*
X149707234Y-106923494D01*
X149706840Y-106923596D01*
X149706810Y-106923608D01*
X149590779Y-106990600D01*
X149588121Y-106994064D01*
X149504064Y-107078121D01*
X149500600Y-107080779D01*
X149433608Y-107196810D01*
X149433596Y-107196840D01*
X149433494Y-107197234D01*
X149399500Y-107324100D01*
X149399500Y-107455898D01*
X149433494Y-107582764D01*
X149433596Y-107583160D01*
X149433608Y-107583188D01*
X149499496Y-107697308D01*
X149499498Y-107697310D01*
X149499500Y-107697314D01*
X149592686Y-107790500D01*
X149634457Y-107814617D01*
X149706811Y-107856391D01*
X149706812Y-107856391D01*
X149706815Y-107856393D01*
X149785988Y-107877606D01*
X149807207Y-107883292D01*
X149831012Y-107889670D01*
X149833455Y-107890500D01*
X149965895Y-107890500D01*
X149972689Y-107890500D01*
X149978575Y-107887101D01*
X150093186Y-107856392D01*
X150207314Y-107790500D01*
X150300500Y-107697314D01*
X150366392Y-107583186D01*
X150366964Y-107581050D01*
X150369550Y-107571399D01*
X150374445Y-107559578D01*
X150380676Y-107548785D01*
X150388460Y-107538640D01*
X151030489Y-106896614D01*
X151089798Y-106793887D01*
X151089799Y-106793886D01*
X151117101Y-106691993D01*
X151120500Y-106686106D01*
X151120500Y-105934100D01*
X160799500Y-105934100D01*
X160799500Y-106065898D01*
X160833494Y-106192764D01*
X160833596Y-106193160D01*
X160833608Y-106193188D01*
X160880743Y-106274827D01*
X160880746Y-106274831D01*
X160899500Y-106307314D01*
X160992686Y-106400500D01*
X161014510Y-106413100D01*
X161058928Y-106438745D01*
X161106812Y-106466392D01*
X161180303Y-106486083D01*
X161207207Y-106493292D01*
X161231012Y-106499670D01*
X161233455Y-106500500D01*
X161365895Y-106500500D01*
X161372689Y-106500500D01*
X161378575Y-106497101D01*
X161493186Y-106466392D01*
X161607314Y-106400500D01*
X161700500Y-106307314D01*
X161766392Y-106193186D01*
X161797101Y-106078575D01*
X161800500Y-106072689D01*
X161800500Y-105933454D01*
X161799669Y-105931008D01*
X161766393Y-105806818D01*
X161766392Y-105806814D01*
X161759425Y-105794747D01*
X161758672Y-105793200D01*
X161758610Y-105792191D01*
X161755393Y-105784421D01*
X161752169Y-105772385D01*
X161750500Y-105759707D01*
X161750500Y-94316646D01*
X161754229Y-94297896D01*
X161759596Y-94284939D01*
X161761123Y-94281252D01*
X161771741Y-94265361D01*
X162448918Y-93588185D01*
X162464810Y-93577566D01*
X162481455Y-93570671D01*
X162500204Y-93566943D01*
X163518846Y-93566943D01*
X163537597Y-93570673D01*
X163549951Y-93575790D01*
X163574858Y-93598813D01*
X163623935Y-93695133D01*
X163648416Y-93743181D01*
X163648416Y-93743182D01*
X163648427Y-93743205D01*
X163648627Y-93743475D01*
X163759496Y-93896072D01*
X163759498Y-93896074D01*
X163759504Y-93896082D01*
X163833923Y-93970500D01*
X163893106Y-94029683D01*
X163893109Y-94029685D01*
X163893113Y-94029689D01*
X163893126Y-94029698D01*
X163893304Y-94029845D01*
X163893844Y-94030220D01*
X164045987Y-94140759D01*
X164045989Y-94140760D01*
X164045992Y-94140762D01*
X164120940Y-94178949D01*
X164214304Y-94226521D01*
X164214326Y-94226532D01*
X164214352Y-94226545D01*
X164214354Y-94226546D01*
X164394068Y-94284939D01*
X164580705Y-94314499D01*
X164580706Y-94314499D01*
X164769666Y-94314499D01*
X164769667Y-94314499D01*
X164956304Y-94284939D01*
X165136018Y-94226546D01*
X165304385Y-94140759D01*
X165457259Y-94029689D01*
X165590876Y-93896072D01*
X165701946Y-93743198D01*
X165787733Y-93574831D01*
X165846126Y-93395117D01*
X165875686Y-93208480D01*
X165875686Y-93019518D01*
X165846126Y-92832881D01*
X165787733Y-92653167D01*
X165780611Y-92639189D01*
X165701949Y-92484805D01*
X165701947Y-92484802D01*
X165701946Y-92484800D01*
X165590876Y-92331926D01*
X165590874Y-92331924D01*
X165590872Y-92331921D01*
X165478498Y-92219547D01*
X165475057Y-92211240D01*
X165304376Y-92087233D01*
X165136020Y-92001452D01*
X164956394Y-91943088D01*
X164956309Y-91943060D01*
X164956301Y-91943058D01*
X164812930Y-91920351D01*
X164769667Y-91913499D01*
X164580705Y-91913499D01*
X164545582Y-91919060D01*
X164545583Y-91919061D01*
X164394069Y-91943058D01*
X164394055Y-91943061D01*
X164393976Y-91943088D01*
X164214350Y-92001452D01*
X164045997Y-92087231D01*
X163893099Y-92198319D01*
X163759506Y-92331913D01*
X163759502Y-92331917D01*
X163648422Y-92484805D01*
X163574186Y-92630503D01*
X163562351Y-92645517D01*
X163552183Y-92654202D01*
X163520359Y-92665943D01*
X162224242Y-92665943D01*
X162133884Y-92690155D01*
X162133883Y-92690156D01*
X162109665Y-92696644D01*
X162109664Y-92696644D01*
X162006947Y-92755949D01*
X162006938Y-92755956D01*
X160939514Y-93823381D01*
X160939509Y-93823388D01*
X160886140Y-93915821D01*
X160886135Y-93915832D01*
X160880201Y-93926111D01*
X160878532Y-93932343D01*
X160878531Y-93932342D01*
X160878531Y-93932346D01*
X160876147Y-93941242D01*
X160876145Y-93941248D01*
X160849500Y-94040686D01*
X160849500Y-105759708D01*
X160847830Y-105772392D01*
X160844605Y-105784426D01*
X160839713Y-105796238D01*
X160833607Y-105806815D01*
X160833605Y-105806821D01*
X160799500Y-105934100D01*
X151120500Y-105934100D01*
X151120500Y-99934100D01*
X158299500Y-99934100D01*
X158299500Y-100065898D01*
X158333494Y-100192764D01*
X158333596Y-100193160D01*
X158333608Y-100193188D01*
X158379781Y-100273161D01*
X158379784Y-100273165D01*
X158399500Y-100307314D01*
X158492686Y-100400500D01*
X158534457Y-100424617D01*
X158606811Y-100466391D01*
X158606812Y-100466391D01*
X158606813Y-100466391D01*
X158606814Y-100466392D01*
X158672917Y-100484104D01*
X158731017Y-100499671D01*
X158733455Y-100500500D01*
X158865895Y-100500500D01*
X158872689Y-100500500D01*
X158878575Y-100497101D01*
X158993186Y-100466392D01*
X159107314Y-100400500D01*
X159200500Y-100307314D01*
X159266392Y-100193186D01*
X159269550Y-100181399D01*
X159274445Y-100169578D01*
X159280676Y-100158785D01*
X159288460Y-100148640D01*
X160160490Y-99276613D01*
X160219799Y-99173886D01*
X160226333Y-99149500D01*
X160250500Y-99059309D01*
X160250500Y-92716646D01*
X160254229Y-92697896D01*
X160254748Y-92696643D01*
X160261123Y-92681252D01*
X160271741Y-92665361D01*
X161888918Y-91048184D01*
X161904809Y-91037566D01*
X161921454Y-91030671D01*
X161940203Y-91026943D01*
X163518846Y-91026943D01*
X163537597Y-91030673D01*
X163549951Y-91035790D01*
X163574858Y-91058813D01*
X163606462Y-91120840D01*
X163648416Y-91203181D01*
X163648422Y-91203193D01*
X163648437Y-91203218D01*
X163648627Y-91203475D01*
X163759496Y-91356072D01*
X163759498Y-91356074D01*
X163759504Y-91356082D01*
X163893100Y-91489677D01*
X163893106Y-91489683D01*
X163893109Y-91489685D01*
X163893113Y-91489689D01*
X163893126Y-91489698D01*
X163893304Y-91489845D01*
X163893844Y-91490220D01*
X164045987Y-91600759D01*
X164045989Y-91600760D01*
X164045992Y-91600762D01*
X164120940Y-91638949D01*
X164214304Y-91686521D01*
X164214326Y-91686532D01*
X164214352Y-91686545D01*
X164214354Y-91686546D01*
X164394068Y-91744939D01*
X164580705Y-91774499D01*
X164580706Y-91774499D01*
X164769666Y-91774499D01*
X164769667Y-91774499D01*
X164956304Y-91744939D01*
X165136018Y-91686546D01*
X165304385Y-91600759D01*
X165457259Y-91489689D01*
X165590876Y-91356072D01*
X165701946Y-91203198D01*
X165787733Y-91034831D01*
X165846126Y-90855117D01*
X165875686Y-90668480D01*
X165875686Y-90479518D01*
X165846126Y-90292881D01*
X165787733Y-90113167D01*
X165787732Y-90113165D01*
X165783835Y-90105517D01*
X165702347Y-89945586D01*
X165702346Y-89945584D01*
X165701949Y-89944805D01*
X165701947Y-89944802D01*
X165701946Y-89944800D01*
X165590876Y-89791926D01*
X165590874Y-89791924D01*
X165590872Y-89791921D01*
X165478498Y-89679547D01*
X165475057Y-89671240D01*
X165304376Y-89547233D01*
X165136020Y-89461452D01*
X164956394Y-89403088D01*
X164956309Y-89403060D01*
X164956301Y-89403058D01*
X164812930Y-89380351D01*
X164769667Y-89373499D01*
X164580705Y-89373499D01*
X164545582Y-89379060D01*
X164545583Y-89379061D01*
X164394069Y-89403058D01*
X164394055Y-89403061D01*
X164393976Y-89403088D01*
X164214350Y-89461452D01*
X164045997Y-89547231D01*
X163893099Y-89658319D01*
X163759506Y-89791913D01*
X163759502Y-89791917D01*
X163648422Y-89944805D01*
X163574186Y-90090503D01*
X163562351Y-90105517D01*
X163552183Y-90114202D01*
X163520359Y-90125943D01*
X161664242Y-90125943D01*
X161549681Y-90156639D01*
X161549656Y-90156652D01*
X161549641Y-90156660D01*
X161507078Y-90181234D01*
X161507064Y-90181242D01*
X161506253Y-90181711D01*
X161446942Y-90215954D01*
X161446942Y-90215955D01*
X161438490Y-90224406D01*
X161438485Y-90224410D01*
X159444075Y-92218821D01*
X159440612Y-92221478D01*
X159380201Y-92326109D01*
X159378532Y-92332341D01*
X159378532Y-92332342D01*
X159377271Y-92337049D01*
X159377270Y-92337052D01*
X159349500Y-92440684D01*
X159349500Y-98783352D01*
X159345770Y-98802105D01*
X159338877Y-98818745D01*
X159328255Y-98834640D01*
X158651360Y-99511534D01*
X158641212Y-99519321D01*
X158630416Y-99525554D01*
X158618598Y-99530449D01*
X158607234Y-99533494D01*
X158606840Y-99533596D01*
X158606810Y-99533608D01*
X158490779Y-99600600D01*
X158488121Y-99604064D01*
X158404064Y-99688121D01*
X158400600Y-99690779D01*
X158333608Y-99806810D01*
X158333596Y-99806840D01*
X158333494Y-99807234D01*
X158299500Y-99934100D01*
X151120500Y-99934100D01*
X151120500Y-99846646D01*
X151124229Y-99827896D01*
X151128198Y-99818314D01*
X151131123Y-99811252D01*
X151141741Y-99795361D01*
X155013003Y-95924100D01*
X158159500Y-95924100D01*
X158159500Y-96055898D01*
X158193494Y-96182764D01*
X158193596Y-96183160D01*
X158193608Y-96183188D01*
X158251350Y-96283198D01*
X158259496Y-96297308D01*
X158259498Y-96297310D01*
X158259500Y-96297314D01*
X158352686Y-96390500D01*
X158381090Y-96406899D01*
X158430583Y-96435474D01*
X158466812Y-96456392D01*
X158518085Y-96470130D01*
X158567207Y-96483292D01*
X158591012Y-96489670D01*
X158593455Y-96490500D01*
X158725895Y-96490500D01*
X158732689Y-96490500D01*
X158738575Y-96487101D01*
X158853186Y-96456392D01*
X158967314Y-96390500D01*
X159060500Y-96297314D01*
X159126392Y-96183186D01*
X159157101Y-96068575D01*
X159160500Y-96062689D01*
X159160500Y-95923454D01*
X159159669Y-95921008D01*
X159126492Y-95797189D01*
X159126399Y-95796833D01*
X159126392Y-95796815D01*
X159126391Y-95796811D01*
X159060499Y-95682685D01*
X158967314Y-95589500D01*
X158967310Y-95589498D01*
X158967308Y-95589496D01*
X158853188Y-95523608D01*
X158853160Y-95523596D01*
X158852764Y-95523494D01*
X158725898Y-95489500D01*
X158725895Y-95489500D01*
X158725892Y-95489500D01*
X158594108Y-95489500D01*
X158594105Y-95489500D01*
X158594102Y-95489500D01*
X158467234Y-95523494D01*
X158466840Y-95523596D01*
X158466810Y-95523608D01*
X158350779Y-95590600D01*
X158348121Y-95594064D01*
X158264064Y-95678121D01*
X158260600Y-95680779D01*
X158193608Y-95796810D01*
X158193596Y-95796840D01*
X158193494Y-95797234D01*
X158159500Y-95924100D01*
X155013003Y-95924100D01*
X156920488Y-94016615D01*
X156920489Y-94016614D01*
X156972739Y-93926114D01*
X156979799Y-93913886D01*
X157004049Y-93823384D01*
X157010500Y-93799311D01*
X157010500Y-89196646D01*
X157014229Y-89177896D01*
X157021123Y-89161252D01*
X157031741Y-89145361D01*
X158935361Y-87241741D01*
X158951252Y-87231123D01*
X158967897Y-87224228D01*
X158986646Y-87220500D01*
X163642856Y-87220500D01*
X163651154Y-87221208D01*
X163651845Y-87221326D01*
X163680721Y-87227114D01*
X163685564Y-87227120D01*
X163689651Y-87227823D01*
X163702266Y-87235782D01*
X163716046Y-87241511D01*
X163717701Y-87245521D01*
X163721368Y-87247835D01*
X163724660Y-87262383D01*
X163730353Y-87276178D01*
X163728835Y-87280837D01*
X163729645Y-87284413D01*
X163725566Y-87290876D01*
X163720995Y-87304916D01*
X163648437Y-87404783D01*
X163648423Y-87404804D01*
X163648413Y-87404822D01*
X163562639Y-87573163D01*
X163504275Y-87752789D01*
X163504248Y-87752868D01*
X163504245Y-87752882D01*
X163474686Y-87939518D01*
X163474686Y-88128478D01*
X163504245Y-88315114D01*
X163504247Y-88315122D01*
X163504275Y-88315207D01*
X163562639Y-88494833D01*
X163648416Y-88663182D01*
X163648422Y-88663193D01*
X163648429Y-88663207D01*
X163648627Y-88663475D01*
X163759496Y-88816072D01*
X163759498Y-88816074D01*
X163759504Y-88816082D01*
X163864109Y-88920686D01*
X163893106Y-88949683D01*
X163893109Y-88949685D01*
X163893113Y-88949689D01*
X163893126Y-88949698D01*
X163893304Y-88949845D01*
X163893844Y-88950220D01*
X164045987Y-89060759D01*
X164045989Y-89060760D01*
X164045992Y-89060762D01*
X164213785Y-89146256D01*
X164213799Y-89146272D01*
X164213803Y-89146265D01*
X164214354Y-89146546D01*
X164394068Y-89204939D01*
X164580705Y-89234499D01*
X164580706Y-89234499D01*
X164769666Y-89234499D01*
X164769667Y-89234499D01*
X164956304Y-89204939D01*
X165136018Y-89146546D01*
X165304385Y-89060759D01*
X165457259Y-88949689D01*
X165590876Y-88816072D01*
X165701946Y-88663198D01*
X165787733Y-88494831D01*
X165846126Y-88315117D01*
X165875686Y-88128480D01*
X165875686Y-87939518D01*
X165846126Y-87752881D01*
X165787733Y-87573167D01*
X165701946Y-87404800D01*
X165671936Y-87363495D01*
X165630296Y-87306182D01*
X165622292Y-87288820D01*
X165620684Y-87282122D01*
X165626551Y-87245080D01*
X165653189Y-87224081D01*
X165656830Y-87222898D01*
X165671971Y-87220500D01*
X166353354Y-87220500D01*
X166372105Y-87224230D01*
X166388744Y-87231122D01*
X166404641Y-87241744D01*
X167028255Y-87865358D01*
X167038877Y-87881253D01*
X167045770Y-87897893D01*
X167049500Y-87916646D01*
X167049500Y-92559310D01*
X167073713Y-92649672D01*
X167073713Y-92649673D01*
X167074926Y-92654202D01*
X167080200Y-92673885D01*
X167080201Y-92673888D01*
X167080209Y-92673902D01*
X167139507Y-92776608D01*
X167139509Y-92776610D01*
X167139511Y-92776614D01*
X167139512Y-92776615D01*
X167139514Y-92776617D01*
X167511534Y-93148638D01*
X167519321Y-93158786D01*
X167525554Y-93169582D01*
X167530449Y-93181400D01*
X167533494Y-93192764D01*
X167533596Y-93193160D01*
X167533608Y-93193188D01*
X167599496Y-93307308D01*
X167599498Y-93307310D01*
X167599500Y-93307314D01*
X167692686Y-93400500D01*
X167734457Y-93424617D01*
X167806811Y-93466391D01*
X167806812Y-93466391D01*
X167806815Y-93466393D01*
X167885988Y-93487606D01*
X167907207Y-93493292D01*
X167931012Y-93499670D01*
X167933455Y-93500500D01*
X168065895Y-93500500D01*
X168072689Y-93500500D01*
X168078575Y-93497101D01*
X168193186Y-93466392D01*
X168307314Y-93400500D01*
X168400500Y-93307314D01*
X168466392Y-93193186D01*
X168497101Y-93078575D01*
X168500500Y-93072689D01*
X168500500Y-92933454D01*
X168499669Y-92931008D01*
X168473377Y-92832883D01*
X168466392Y-92806814D01*
X168466391Y-92806813D01*
X168466391Y-92806811D01*
X168402785Y-92696644D01*
X168400500Y-92692686D01*
X168307314Y-92599500D01*
X168307310Y-92599498D01*
X168307308Y-92599496D01*
X168193188Y-92533608D01*
X168193160Y-92533596D01*
X168192764Y-92533494D01*
X168181400Y-92530449D01*
X168169582Y-92525554D01*
X168158786Y-92519321D01*
X168148638Y-92511534D01*
X167971744Y-92334640D01*
X167961122Y-92318743D01*
X167954229Y-92302102D01*
X167950500Y-92283352D01*
X167950500Y-89896861D01*
X168689500Y-89896861D01*
X168689500Y-90103138D01*
X168691089Y-90113170D01*
X168721768Y-90306873D01*
X168721770Y-90306881D01*
X168721798Y-90306966D01*
X168785512Y-90503059D01*
X168879150Y-90686836D01*
X168879156Y-90686847D01*
X168879163Y-90686861D01*
X168879361Y-90687129D01*
X169000407Y-90853733D01*
X169000409Y-90853735D01*
X169000415Y-90853743D01*
X169146254Y-90999581D01*
X169146260Y-90999587D01*
X169146263Y-90999589D01*
X169146267Y-90999593D01*
X169146280Y-90999602D01*
X169146458Y-90999749D01*
X169146998Y-91000124D01*
X169313148Y-91120840D01*
X169313150Y-91120841D01*
X169313153Y-91120843D01*
X169474773Y-91203192D01*
X169496943Y-91214488D01*
X169693124Y-91278231D01*
X169896861Y-91310500D01*
X169896862Y-91310500D01*
X170103138Y-91310500D01*
X170103139Y-91310500D01*
X170306876Y-91278231D01*
X170503057Y-91214488D01*
X170686852Y-91120840D01*
X170853733Y-90999593D01*
X170999593Y-90853733D01*
X171120840Y-90686852D01*
X171214488Y-90503057D01*
X171278231Y-90306876D01*
X171310500Y-90103139D01*
X171310500Y-89896861D01*
X171278231Y-89693124D01*
X171214488Y-89496943D01*
X171214487Y-89496941D01*
X171120843Y-89313153D01*
X171120841Y-89313150D01*
X171120840Y-89313148D01*
X170999593Y-89146267D01*
X170999591Y-89146265D01*
X170999589Y-89146262D01*
X170853743Y-89000415D01*
X170853735Y-89000409D01*
X170853733Y-89000407D01*
X170687129Y-88879361D01*
X170687129Y-88879360D01*
X170686850Y-88879157D01*
X170686847Y-88879156D01*
X170686846Y-88879155D01*
X170686836Y-88879150D01*
X170503059Y-88785512D01*
X170306966Y-88721798D01*
X170306881Y-88721770D01*
X170306873Y-88721768D01*
X170150367Y-88696980D01*
X170103139Y-88689500D01*
X169896861Y-88689500D01*
X169858519Y-88695571D01*
X169858520Y-88695572D01*
X169693125Y-88721768D01*
X169693111Y-88721771D01*
X169693032Y-88721798D01*
X169496939Y-88785512D01*
X169313158Y-88879152D01*
X169146253Y-89000417D01*
X169000418Y-89146253D01*
X169000417Y-89146253D01*
X168879152Y-89313158D01*
X168785512Y-89496939D01*
X168721798Y-89693032D01*
X168721771Y-89693111D01*
X168721768Y-89693125D01*
X168721768Y-89693126D01*
X168689500Y-89896861D01*
X167950500Y-89896861D01*
X167950500Y-87640686D01*
X167932394Y-87573117D01*
X167919891Y-87526460D01*
X167919806Y-87526130D01*
X167919799Y-87526114D01*
X167860494Y-87423392D01*
X167860491Y-87423389D01*
X167860490Y-87423386D01*
X166846614Y-86409511D01*
X166846610Y-86409509D01*
X166846608Y-86409507D01*
X166743902Y-86350209D01*
X166743888Y-86350201D01*
X166743882Y-86350198D01*
X166719679Y-86343713D01*
X166719673Y-86343713D01*
X166689551Y-86335642D01*
X166629313Y-86319500D01*
X166629311Y-86319500D01*
X166629309Y-86319500D01*
X165665238Y-86319500D01*
X165646484Y-86315769D01*
X165640114Y-86313130D01*
X165613597Y-86286610D01*
X165612268Y-86252717D01*
X165613452Y-86249070D01*
X165620408Y-86235423D01*
X165621576Y-86233816D01*
X165701946Y-86123198D01*
X165787733Y-85954831D01*
X165846126Y-85775117D01*
X165875686Y-85588480D01*
X165875686Y-85399518D01*
X165846126Y-85212881D01*
X165787733Y-85033167D01*
X165716154Y-84892685D01*
X165701949Y-84864805D01*
X165701947Y-84864802D01*
X165701946Y-84864800D01*
X165623030Y-84756183D01*
X165615027Y-84738823D01*
X165613418Y-84732118D01*
X165619287Y-84695079D01*
X165645924Y-84674081D01*
X165649565Y-84672898D01*
X165664706Y-84670500D01*
X167407746Y-84670500D01*
X167420427Y-84672169D01*
X167432464Y-84675394D01*
X167444284Y-84680290D01*
X167444647Y-84680500D01*
X167463043Y-84691121D01*
X167506812Y-84716392D01*
X167541242Y-84725616D01*
X167571062Y-84733607D01*
X167631017Y-84749671D01*
X167633455Y-84750500D01*
X167765895Y-84750500D01*
X167772689Y-84750500D01*
X167778575Y-84747101D01*
X167893186Y-84716392D01*
X167900934Y-84711919D01*
X167908478Y-84707563D01*
X168007314Y-84650500D01*
X168100500Y-84557314D01*
X168166392Y-84443186D01*
X168197101Y-84328575D01*
X168200500Y-84322689D01*
X168200500Y-84183454D01*
X168199669Y-84181008D01*
X168172850Y-84080916D01*
X168166392Y-84056814D01*
X168166391Y-84056813D01*
X168166391Y-84056811D01*
X168122483Y-83980762D01*
X168100500Y-83942686D01*
X168007314Y-83849500D01*
X168007310Y-83849498D01*
X168007308Y-83849496D01*
X167893188Y-83783608D01*
X167893160Y-83783596D01*
X167892764Y-83783494D01*
X167765898Y-83749500D01*
X167765895Y-83749500D01*
X167765892Y-83749500D01*
X167634108Y-83749500D01*
X167634105Y-83749500D01*
X167634102Y-83749500D01*
X167568804Y-83766997D01*
X167562524Y-83768247D01*
X167556203Y-83769080D01*
X167549801Y-83769500D01*
X165672504Y-83769500D01*
X165653750Y-83765769D01*
X165647380Y-83763130D01*
X165620863Y-83736610D01*
X165619532Y-83702723D01*
X165620717Y-83699074D01*
X165627670Y-83685427D01*
X165701946Y-83583198D01*
X165787733Y-83414831D01*
X165846126Y-83235117D01*
X165875686Y-83048480D01*
X165875686Y-82859518D01*
X165846126Y-82672881D01*
X165787733Y-82493167D01*
X165750291Y-82419683D01*
X165701949Y-82324805D01*
X165701947Y-82324802D01*
X165701946Y-82324800D01*
X165590876Y-82171926D01*
X165590874Y-82171924D01*
X165590872Y-82171921D01*
X165478498Y-82059547D01*
X165475057Y-82051240D01*
X165304376Y-81927233D01*
X165136020Y-81841452D01*
X164956394Y-81783088D01*
X164956309Y-81783060D01*
X164956301Y-81783058D01*
X164812930Y-81760351D01*
X164769667Y-81753499D01*
X164580705Y-81753499D01*
X164545582Y-81759060D01*
X164545583Y-81759061D01*
X164394069Y-81783058D01*
X164394055Y-81783061D01*
X164393976Y-81783088D01*
X164214350Y-81841452D01*
X164045997Y-81927231D01*
X163893099Y-82038319D01*
X163759506Y-82171912D01*
X163648418Y-82324810D01*
X163562639Y-82493163D01*
X163504275Y-82672789D01*
X163504248Y-82672868D01*
X163504245Y-82672882D01*
X163474686Y-82859518D01*
X163474686Y-83048478D01*
X163504245Y-83235114D01*
X163504247Y-83235122D01*
X163504275Y-83235207D01*
X163562639Y-83414833D01*
X163648415Y-83583178D01*
X163648416Y-83583181D01*
X163648423Y-83583193D01*
X163648426Y-83583198D01*
X163716293Y-83676609D01*
X163728364Y-83693223D01*
X163737119Y-83729689D01*
X163717523Y-83761666D01*
X163696224Y-83770446D01*
X163692466Y-83771028D01*
X163681649Y-83771019D01*
X163642545Y-83778762D01*
X163641518Y-83778922D01*
X163641057Y-83778809D01*
X163634016Y-83779500D01*
X157210685Y-83779500D01*
X157096122Y-83810197D01*
X157096118Y-83810198D01*
X156993391Y-83869505D01*
X156993390Y-83869506D01*
X156993378Y-83869515D01*
X156993370Y-83869523D01*
X154139514Y-86723381D01*
X154139509Y-86723388D01*
X154086140Y-86815821D01*
X154086135Y-86815832D01*
X154080201Y-86826111D01*
X154078532Y-86832343D01*
X154078531Y-86832342D01*
X154078531Y-86832346D01*
X154076147Y-86841242D01*
X154076145Y-86841248D01*
X154049500Y-86940686D01*
X154049500Y-93083352D01*
X154045770Y-93102105D01*
X154038877Y-93118745D01*
X154028255Y-93134640D01*
X147101360Y-100061534D01*
X147091212Y-100069321D01*
X147080416Y-100075554D01*
X147068598Y-100080449D01*
X147057234Y-100083494D01*
X147056840Y-100083596D01*
X147056810Y-100083608D01*
X146940779Y-100150600D01*
X146938121Y-100154064D01*
X146854064Y-100238121D01*
X146850600Y-100240779D01*
X146783608Y-100356810D01*
X146783596Y-100356840D01*
X146783494Y-100357234D01*
X146749500Y-100484100D01*
X140451071Y-100484100D01*
X140446126Y-100452881D01*
X140387733Y-100273167D01*
X140372202Y-100242685D01*
X140301949Y-100104805D01*
X140301947Y-100104802D01*
X140301946Y-100104800D01*
X140190876Y-99951926D01*
X140190874Y-99951924D01*
X140190872Y-99951921D01*
X140078498Y-99839547D01*
X140075057Y-99831241D01*
X140057265Y-99818314D01*
X140057266Y-99818314D01*
X139927486Y-99724023D01*
X139927486Y-99724022D01*
X139904661Y-99707439D01*
X139904661Y-99707438D01*
X139904379Y-99707234D01*
X139904369Y-99707229D01*
X139736020Y-99621452D01*
X139556394Y-99563088D01*
X139556309Y-99563060D01*
X139556301Y-99563058D01*
X139412930Y-99540351D01*
X139369667Y-99533499D01*
X139180705Y-99533499D01*
X139145582Y-99539060D01*
X139145583Y-99539061D01*
X138994069Y-99563058D01*
X138994055Y-99563061D01*
X138993976Y-99563088D01*
X138814350Y-99621452D01*
X138645997Y-99707231D01*
X138493099Y-99818319D01*
X138359506Y-99951912D01*
X138248418Y-100104810D01*
X138162639Y-100273163D01*
X138104275Y-100452789D01*
X138104248Y-100452868D01*
X138104245Y-100452882D01*
X138096298Y-100503058D01*
X138074686Y-100639518D01*
X135050500Y-100639518D01*
X135050500Y-100436535D01*
X135010130Y-100233580D01*
X134930941Y-100042402D01*
X134815977Y-99870345D01*
X134669655Y-99724023D01*
X134669654Y-99724022D01*
X134497599Y-99609059D01*
X134497596Y-99609058D01*
X134306432Y-99529874D01*
X134306423Y-99529871D01*
X134306417Y-99529869D01*
X134306415Y-99529868D01*
X134306407Y-99529866D01*
X134224572Y-99513588D01*
X134224572Y-99513589D01*
X134103465Y-99489500D01*
X134103462Y-99489500D01*
X133896538Y-99489500D01*
X133896535Y-99489500D01*
X133795520Y-99509592D01*
X133795519Y-99509591D01*
X133693590Y-99529866D01*
X133693566Y-99529874D01*
X133502404Y-99609057D01*
X133330345Y-99724021D01*
X133184021Y-99870345D01*
X133069057Y-100042404D01*
X132989874Y-100233566D01*
X132989866Y-100233590D01*
X132975202Y-100307313D01*
X132975203Y-100307314D01*
X132949500Y-100436535D01*
X130500500Y-100436535D01*
X130500500Y-97896535D01*
X132949500Y-97896535D01*
X132949500Y-98103465D01*
X132967346Y-98193184D01*
X132967345Y-98193184D01*
X132989866Y-98306408D01*
X132989874Y-98306432D01*
X133038829Y-98424617D01*
X133056133Y-98466392D01*
X133069059Y-98497598D01*
X133070998Y-98500500D01*
X133174118Y-98654832D01*
X133184023Y-98669655D01*
X133330345Y-98815977D01*
X133502402Y-98930941D01*
X133693580Y-99010130D01*
X133896535Y-99050500D01*
X133896538Y-99050500D01*
X134103462Y-99050500D01*
X134103465Y-99050500D01*
X134306420Y-99010130D01*
X134497598Y-98930941D01*
X134669655Y-98815977D01*
X134815977Y-98669655D01*
X134930941Y-98497598D01*
X135010130Y-98306420D01*
X135050500Y-98103465D01*
X135050500Y-98099518D01*
X138074686Y-98099518D01*
X138074686Y-98288479D01*
X138077668Y-98307308D01*
X138104245Y-98475114D01*
X138104247Y-98475122D01*
X138104275Y-98475207D01*
X138162639Y-98654832D01*
X138248416Y-98823182D01*
X138248422Y-98823193D01*
X138248429Y-98823207D01*
X138248627Y-98823475D01*
X138359496Y-98976072D01*
X138359498Y-98976074D01*
X138359504Y-98976082D01*
X138433923Y-99050500D01*
X138493106Y-99109683D01*
X138493109Y-99109685D01*
X138493113Y-99109689D01*
X138493126Y-99109698D01*
X138493304Y-99109845D01*
X138493844Y-99110220D01*
X138645987Y-99220759D01*
X138645989Y-99220760D01*
X138645992Y-99220762D01*
X138755607Y-99276613D01*
X138814354Y-99306546D01*
X138994068Y-99364939D01*
X139180705Y-99394499D01*
X139180706Y-99394499D01*
X139369666Y-99394499D01*
X139369667Y-99394499D01*
X139556304Y-99364939D01*
X139736018Y-99306546D01*
X139904385Y-99220759D01*
X140057259Y-99109689D01*
X140190876Y-98976072D01*
X140301946Y-98823198D01*
X140387733Y-98654831D01*
X140446126Y-98475117D01*
X140475686Y-98288480D01*
X140475686Y-98099518D01*
X140450193Y-97938557D01*
X140449487Y-97934100D01*
X144499500Y-97934100D01*
X144499500Y-98065898D01*
X144533494Y-98192764D01*
X144533596Y-98193160D01*
X144533606Y-98193184D01*
X144588626Y-98288480D01*
X144599496Y-98307308D01*
X144599498Y-98307310D01*
X144599500Y-98307314D01*
X144692686Y-98400500D01*
X144734457Y-98424617D01*
X144806811Y-98466391D01*
X144806812Y-98466391D01*
X144806815Y-98466393D01*
X144885988Y-98487606D01*
X144907207Y-98493292D01*
X144931012Y-98499670D01*
X144933455Y-98500500D01*
X145065895Y-98500500D01*
X145072689Y-98500500D01*
X145078575Y-98497101D01*
X145193186Y-98466392D01*
X145307314Y-98400500D01*
X145400500Y-98307314D01*
X145466392Y-98193186D01*
X145466506Y-98192764D01*
X145490433Y-98103461D01*
X145497101Y-98078575D01*
X145500500Y-98072689D01*
X145500500Y-97933454D01*
X145499669Y-97931008D01*
X145466492Y-97807189D01*
X145466399Y-97806833D01*
X145466392Y-97806815D01*
X145466391Y-97806811D01*
X145401016Y-97693580D01*
X145400500Y-97692686D01*
X145307314Y-97599500D01*
X145307310Y-97599498D01*
X145307308Y-97599496D01*
X145193188Y-97533608D01*
X145193160Y-97533596D01*
X145192764Y-97533494D01*
X145065898Y-97499500D01*
X145065895Y-97499500D01*
X145065892Y-97499500D01*
X144934108Y-97499500D01*
X144934105Y-97499500D01*
X144934102Y-97499500D01*
X144807234Y-97533494D01*
X144806840Y-97533596D01*
X144806810Y-97533608D01*
X144690779Y-97600600D01*
X144688121Y-97604064D01*
X144604064Y-97688121D01*
X144600600Y-97690779D01*
X144533608Y-97806810D01*
X144533596Y-97806840D01*
X144533494Y-97807234D01*
X144499500Y-97934100D01*
X140449487Y-97934100D01*
X140446126Y-97912883D01*
X140446126Y-97912882D01*
X140446126Y-97912881D01*
X140387733Y-97733167D01*
X140387732Y-97733165D01*
X140367555Y-97693566D01*
X140302347Y-97565586D01*
X140302346Y-97565584D01*
X140301949Y-97564805D01*
X140301947Y-97564802D01*
X140301946Y-97564800D01*
X140190876Y-97411926D01*
X140190874Y-97411924D01*
X140190872Y-97411921D01*
X140078498Y-97299547D01*
X140075057Y-97291241D01*
X140057265Y-97278314D01*
X140057266Y-97278314D01*
X139927486Y-97184023D01*
X139927486Y-97184022D01*
X139904661Y-97167439D01*
X139904661Y-97167438D01*
X139904379Y-97167234D01*
X139904369Y-97167229D01*
X139736020Y-97081452D01*
X139556394Y-97023088D01*
X139556309Y-97023060D01*
X139556301Y-97023058D01*
X139412930Y-97000351D01*
X139369667Y-96993499D01*
X139180705Y-96993499D01*
X139145582Y-96999060D01*
X139145583Y-96999061D01*
X138994069Y-97023058D01*
X138994055Y-97023061D01*
X138993976Y-97023088D01*
X138814350Y-97081452D01*
X138645997Y-97167231D01*
X138493099Y-97278319D01*
X138359506Y-97411912D01*
X138248418Y-97564810D01*
X138162639Y-97733163D01*
X138104275Y-97912789D01*
X138104248Y-97912868D01*
X138104245Y-97912882D01*
X138104245Y-97912883D01*
X138074686Y-98099518D01*
X135050500Y-98099518D01*
X135050500Y-97896535D01*
X135010130Y-97693580D01*
X134930941Y-97502402D01*
X134815977Y-97330345D01*
X134669655Y-97184023D01*
X134669652Y-97184021D01*
X134612817Y-97146045D01*
X134497598Y-97069059D01*
X134497595Y-97069057D01*
X134497594Y-97069057D01*
X134386545Y-97023059D01*
X134306432Y-96989874D01*
X134306423Y-96989871D01*
X134306417Y-96989869D01*
X134306415Y-96989868D01*
X134306407Y-96989866D01*
X134224572Y-96973588D01*
X134224572Y-96973589D01*
X134103465Y-96949500D01*
X134103462Y-96949500D01*
X133896538Y-96949500D01*
X133896535Y-96949500D01*
X133795520Y-96969592D01*
X133795519Y-96969591D01*
X133693590Y-96989866D01*
X133693566Y-96989874D01*
X133502404Y-97069057D01*
X133330345Y-97184021D01*
X133184021Y-97330345D01*
X133069057Y-97502404D01*
X132989874Y-97693566D01*
X132989866Y-97693590D01*
X132969591Y-97795519D01*
X132969592Y-97795520D01*
X132949500Y-97896535D01*
X130500500Y-97896535D01*
X130500500Y-95356535D01*
X132949500Y-95356535D01*
X132949500Y-95356538D01*
X132949500Y-95563468D01*
X132954678Y-95589498D01*
X132954678Y-95589500D01*
X132954679Y-95589500D01*
X132989869Y-95766416D01*
X132989874Y-95766432D01*
X133069059Y-95957598D01*
X133174117Y-96114831D01*
X133178437Y-96121295D01*
X133184023Y-96129655D01*
X133330345Y-96275977D01*
X133502402Y-96390941D01*
X133693580Y-96470130D01*
X133896535Y-96510500D01*
X133896538Y-96510500D01*
X134103462Y-96510500D01*
X134103465Y-96510500D01*
X134306420Y-96470130D01*
X134497598Y-96390941D01*
X134669655Y-96275977D01*
X134815977Y-96129655D01*
X134930941Y-95957598D01*
X135010130Y-95766420D01*
X135050500Y-95563465D01*
X135050500Y-95559518D01*
X138074686Y-95559518D01*
X138074686Y-95748479D01*
X138082344Y-95796833D01*
X138104245Y-95935114D01*
X138104247Y-95935122D01*
X138104275Y-95935207D01*
X138162639Y-96114832D01*
X138248416Y-96283182D01*
X138248422Y-96283193D01*
X138248429Y-96283207D01*
X138248627Y-96283475D01*
X138258684Y-96297317D01*
X138359496Y-96436072D01*
X138359498Y-96436074D01*
X138359504Y-96436082D01*
X138433923Y-96510500D01*
X138493106Y-96569683D01*
X138493109Y-96569685D01*
X138493113Y-96569689D01*
X138493126Y-96569698D01*
X138493304Y-96569845D01*
X138493844Y-96570220D01*
X138645987Y-96680759D01*
X138645989Y-96680760D01*
X138645992Y-96680762D01*
X138720940Y-96718949D01*
X138814304Y-96766521D01*
X138814326Y-96766532D01*
X138814352Y-96766545D01*
X138814354Y-96766546D01*
X138994068Y-96824939D01*
X139180705Y-96854499D01*
X139180706Y-96854499D01*
X139369666Y-96854499D01*
X139369667Y-96854499D01*
X139556304Y-96824939D01*
X139736018Y-96766546D01*
X139904385Y-96680759D01*
X140057259Y-96569689D01*
X140190876Y-96436072D01*
X140301946Y-96283198D01*
X140387733Y-96114831D01*
X140446126Y-95935117D01*
X140475686Y-95748480D01*
X140475686Y-95559518D01*
X140446126Y-95372881D01*
X140387733Y-95193167D01*
X140380611Y-95179189D01*
X140301949Y-95024805D01*
X140301947Y-95024802D01*
X140301946Y-95024800D01*
X140190876Y-94871926D01*
X140190874Y-94871924D01*
X140190872Y-94871921D01*
X140078498Y-94759547D01*
X140075057Y-94751241D01*
X140057265Y-94738314D01*
X140057266Y-94738314D01*
X139927486Y-94644023D01*
X139927486Y-94644022D01*
X139904661Y-94627439D01*
X139904661Y-94627438D01*
X139904379Y-94627234D01*
X139904369Y-94627229D01*
X139736020Y-94541452D01*
X139556394Y-94483088D01*
X139556309Y-94483060D01*
X139556301Y-94483058D01*
X139412930Y-94460351D01*
X139369667Y-94453499D01*
X139180705Y-94453499D01*
X139145582Y-94459060D01*
X139145583Y-94459061D01*
X138994069Y-94483058D01*
X138994055Y-94483061D01*
X138993976Y-94483088D01*
X138814350Y-94541452D01*
X138645997Y-94627231D01*
X138493099Y-94738319D01*
X138359506Y-94871912D01*
X138248418Y-95024810D01*
X138162639Y-95193163D01*
X138104275Y-95372789D01*
X138104248Y-95372868D01*
X138104245Y-95372882D01*
X138104245Y-95372883D01*
X138074686Y-95559518D01*
X135050500Y-95559518D01*
X135050500Y-95356535D01*
X135010130Y-95153580D01*
X134930941Y-94962402D01*
X134815977Y-94790345D01*
X134669655Y-94644023D01*
X134669652Y-94644021D01*
X134612817Y-94606045D01*
X134497598Y-94529059D01*
X134497595Y-94529057D01*
X134497594Y-94529057D01*
X134386545Y-94483059D01*
X134306432Y-94449874D01*
X134306423Y-94449871D01*
X134306417Y-94449869D01*
X134306415Y-94449868D01*
X134306407Y-94449866D01*
X134224572Y-94433588D01*
X134224572Y-94433589D01*
X134103465Y-94409500D01*
X134103462Y-94409500D01*
X133896538Y-94409500D01*
X133896535Y-94409500D01*
X133795520Y-94429592D01*
X133795519Y-94429591D01*
X133693590Y-94449866D01*
X133693566Y-94449874D01*
X133502404Y-94529057D01*
X133330345Y-94644021D01*
X133184021Y-94790345D01*
X133069057Y-94962404D01*
X132989874Y-95153566D01*
X132989866Y-95153590D01*
X132979930Y-95203544D01*
X132979931Y-95203545D01*
X132949500Y-95356535D01*
X130500500Y-95356535D01*
X130500500Y-92050252D01*
X132949500Y-92050252D01*
X132949500Y-93789748D01*
X132961133Y-93848231D01*
X132978882Y-93874795D01*
X133005444Y-93914549D01*
X133005447Y-93914552D01*
X133022748Y-93926112D01*
X133022751Y-93926114D01*
X133071769Y-93958867D01*
X133130252Y-93970500D01*
X133130255Y-93970500D01*
X134869745Y-93970500D01*
X134869748Y-93970500D01*
X134928231Y-93958867D01*
X134994552Y-93914552D01*
X135038867Y-93848231D01*
X135050500Y-93789748D01*
X135050500Y-93019518D01*
X138074686Y-93019518D01*
X138074686Y-93208478D01*
X138104245Y-93395114D01*
X138104247Y-93395122D01*
X138104275Y-93395207D01*
X138162639Y-93574833D01*
X138248416Y-93743182D01*
X138248422Y-93743193D01*
X138248429Y-93743207D01*
X138248627Y-93743475D01*
X138359496Y-93896072D01*
X138359498Y-93896074D01*
X138359504Y-93896082D01*
X138433923Y-93970500D01*
X138493106Y-94029683D01*
X138493109Y-94029685D01*
X138493113Y-94029689D01*
X138493126Y-94029698D01*
X138493304Y-94029845D01*
X138493844Y-94030220D01*
X138645987Y-94140759D01*
X138645989Y-94140760D01*
X138645992Y-94140762D01*
X138720940Y-94178949D01*
X138814304Y-94226521D01*
X138814326Y-94226532D01*
X138814352Y-94226545D01*
X138814354Y-94226546D01*
X138994068Y-94284939D01*
X139180705Y-94314499D01*
X139180706Y-94314499D01*
X139369666Y-94314499D01*
X139369667Y-94314499D01*
X139556304Y-94284939D01*
X139736018Y-94226546D01*
X139904385Y-94140759D01*
X140057259Y-94029689D01*
X140190876Y-93896072D01*
X140301946Y-93743198D01*
X140387733Y-93574831D01*
X140446126Y-93395117D01*
X140475686Y-93208480D01*
X140475686Y-93019518D01*
X140446126Y-92832881D01*
X140387733Y-92653167D01*
X140380611Y-92639189D01*
X140301949Y-92484805D01*
X140301947Y-92484802D01*
X140301946Y-92484800D01*
X140190876Y-92331926D01*
X140190874Y-92331924D01*
X140190872Y-92331921D01*
X140078498Y-92219547D01*
X140075057Y-92211240D01*
X139904376Y-92087233D01*
X139736020Y-92001452D01*
X139556394Y-91943088D01*
X139556309Y-91943060D01*
X139556301Y-91943058D01*
X139412930Y-91920351D01*
X139369667Y-91913499D01*
X139180705Y-91913499D01*
X139145582Y-91919060D01*
X139145583Y-91919061D01*
X138994069Y-91943058D01*
X138994055Y-91943061D01*
X138993976Y-91943088D01*
X138814350Y-92001452D01*
X138645997Y-92087231D01*
X138493099Y-92198319D01*
X138359506Y-92331912D01*
X138248418Y-92484810D01*
X138162639Y-92653163D01*
X138104275Y-92832789D01*
X138104248Y-92832868D01*
X138104245Y-92832882D01*
X138074686Y-93019518D01*
X135050500Y-93019518D01*
X135050500Y-92050252D01*
X135038867Y-91991769D01*
X135012301Y-91952012D01*
X135012301Y-91952011D01*
X134994555Y-91925451D01*
X134994552Y-91925447D01*
X134984993Y-91919060D01*
X134954795Y-91898882D01*
X134928231Y-91881133D01*
X134869748Y-91869500D01*
X134869745Y-91869500D01*
X133130255Y-91869500D01*
X133130252Y-91869500D01*
X133095162Y-91876479D01*
X133071767Y-91881133D01*
X133005446Y-91925446D01*
X132961133Y-91991767D01*
X132961133Y-91991769D01*
X132949500Y-92050252D01*
X130500500Y-92050252D01*
X130500500Y-90479518D01*
X138074686Y-90479518D01*
X138074686Y-90668478D01*
X138104245Y-90855114D01*
X138104247Y-90855122D01*
X138104275Y-90855207D01*
X138162639Y-91034833D01*
X138248416Y-91203182D01*
X138248422Y-91203193D01*
X138248429Y-91203207D01*
X138248627Y-91203475D01*
X138359496Y-91356072D01*
X138359498Y-91356074D01*
X138359504Y-91356082D01*
X138493100Y-91489677D01*
X138493106Y-91489683D01*
X138493109Y-91489685D01*
X138493113Y-91489689D01*
X138493126Y-91489698D01*
X138493304Y-91489845D01*
X138493844Y-91490220D01*
X138645987Y-91600759D01*
X138645989Y-91600760D01*
X138645992Y-91600762D01*
X138720940Y-91638949D01*
X138814304Y-91686521D01*
X138814326Y-91686532D01*
X138814352Y-91686545D01*
X138814354Y-91686546D01*
X138994068Y-91744939D01*
X139180705Y-91774499D01*
X139180706Y-91774499D01*
X139369666Y-91774499D01*
X139369667Y-91774499D01*
X139556304Y-91744939D01*
X139736018Y-91686546D01*
X139904385Y-91600759D01*
X140057259Y-91489689D01*
X140190876Y-91356072D01*
X140301946Y-91203198D01*
X140387733Y-91034831D01*
X140446126Y-90855117D01*
X140475686Y-90668480D01*
X140475686Y-90479518D01*
X140446126Y-90292881D01*
X140387733Y-90113167D01*
X140387732Y-90113165D01*
X140383835Y-90105517D01*
X140302347Y-89945586D01*
X140302346Y-89945584D01*
X140301949Y-89944805D01*
X140301947Y-89944802D01*
X140301946Y-89944800D01*
X140190876Y-89791926D01*
X140190874Y-89791924D01*
X140190872Y-89791921D01*
X140078498Y-89679547D01*
X140075057Y-89671240D01*
X139904376Y-89547233D01*
X139736020Y-89461452D01*
X139556394Y-89403088D01*
X139556309Y-89403060D01*
X139556301Y-89403058D01*
X139412930Y-89380351D01*
X139369667Y-89373499D01*
X139180705Y-89373499D01*
X139145582Y-89379060D01*
X139145583Y-89379061D01*
X138994069Y-89403058D01*
X138994055Y-89403061D01*
X138993976Y-89403088D01*
X138814350Y-89461452D01*
X138645997Y-89547231D01*
X138493099Y-89658319D01*
X138359506Y-89791912D01*
X138248418Y-89944810D01*
X138162639Y-90113163D01*
X138104275Y-90292789D01*
X138104248Y-90292868D01*
X138104245Y-90292882D01*
X138074686Y-90479518D01*
X130500500Y-90479518D01*
X130500500Y-87939518D01*
X138074686Y-87939518D01*
X138074686Y-88128478D01*
X138104245Y-88315114D01*
X138104247Y-88315122D01*
X138104275Y-88315207D01*
X138162639Y-88494833D01*
X138248416Y-88663182D01*
X138248422Y-88663193D01*
X138248429Y-88663207D01*
X138248627Y-88663475D01*
X138359496Y-88816072D01*
X138359498Y-88816074D01*
X138359504Y-88816082D01*
X138464109Y-88920686D01*
X138493106Y-88949683D01*
X138493109Y-88949685D01*
X138493113Y-88949689D01*
X138493126Y-88949698D01*
X138493304Y-88949845D01*
X138493844Y-88950220D01*
X138645987Y-89060759D01*
X138645989Y-89060760D01*
X138645992Y-89060762D01*
X138813785Y-89146256D01*
X138813799Y-89146272D01*
X138813803Y-89146265D01*
X138814354Y-89146546D01*
X138994068Y-89204939D01*
X139180705Y-89234499D01*
X139180706Y-89234499D01*
X139369666Y-89234499D01*
X139369667Y-89234499D01*
X139556304Y-89204939D01*
X139736018Y-89146546D01*
X139904385Y-89060759D01*
X140057259Y-88949689D01*
X140190876Y-88816072D01*
X140301946Y-88663198D01*
X140387733Y-88494831D01*
X140446126Y-88315117D01*
X140475686Y-88128480D01*
X140475686Y-87939518D01*
X140446126Y-87752881D01*
X140387733Y-87573167D01*
X140387732Y-87573165D01*
X140311419Y-87423392D01*
X140302347Y-87405586D01*
X140302346Y-87405584D01*
X140301949Y-87404805D01*
X140301947Y-87404802D01*
X140301946Y-87404800D01*
X140190876Y-87251926D01*
X140190874Y-87251924D01*
X140190872Y-87251921D01*
X140078498Y-87139547D01*
X140075057Y-87131240D01*
X139904376Y-87007233D01*
X139736020Y-86921452D01*
X139556394Y-86863088D01*
X139556309Y-86863060D01*
X139556301Y-86863058D01*
X139406022Y-86839257D01*
X139404778Y-86839060D01*
X139369667Y-86833499D01*
X139369666Y-86833499D01*
X139180705Y-86833499D01*
X139145582Y-86839060D01*
X139145583Y-86839061D01*
X138994069Y-86863058D01*
X138994055Y-86863061D01*
X138993976Y-86863088D01*
X138814350Y-86921452D01*
X138645997Y-87007231D01*
X138493099Y-87118319D01*
X138359506Y-87251912D01*
X138248418Y-87404810D01*
X138162639Y-87573163D01*
X138104275Y-87752789D01*
X138104248Y-87752868D01*
X138104245Y-87752882D01*
X138074686Y-87939518D01*
X130500500Y-87939518D01*
X130500500Y-85134100D01*
X132299500Y-85134100D01*
X132299500Y-85265898D01*
X132333494Y-85392764D01*
X132333596Y-85393160D01*
X132333608Y-85393188D01*
X132399496Y-85507308D01*
X132399498Y-85507310D01*
X132399500Y-85507314D01*
X132492686Y-85600500D01*
X132534457Y-85624617D01*
X132606811Y-85666391D01*
X132606812Y-85666391D01*
X132606815Y-85666393D01*
X132685988Y-85687606D01*
X132707207Y-85693292D01*
X132731012Y-85699670D01*
X132733455Y-85700500D01*
X132865895Y-85700500D01*
X132872689Y-85700500D01*
X132878575Y-85697101D01*
X132993186Y-85666392D01*
X133107314Y-85600500D01*
X133200500Y-85507314D01*
X133266392Y-85393186D01*
X133297101Y-85278575D01*
X133300500Y-85272689D01*
X133300500Y-85135721D01*
X133300500Y-85134105D01*
X133300499Y-85134104D01*
X133300498Y-85134100D01*
X135299500Y-85134100D01*
X135299500Y-85265898D01*
X135333494Y-85392764D01*
X135333596Y-85393160D01*
X135333608Y-85393188D01*
X135399496Y-85507308D01*
X135399498Y-85507310D01*
X135399500Y-85507314D01*
X135492686Y-85600500D01*
X135534457Y-85624617D01*
X135606811Y-85666391D01*
X135606812Y-85666391D01*
X135606815Y-85666393D01*
X135685988Y-85687606D01*
X135707207Y-85693292D01*
X135731012Y-85699670D01*
X135733455Y-85700500D01*
X135865895Y-85700500D01*
X135872689Y-85700500D01*
X135878575Y-85697101D01*
X135993186Y-85666392D01*
X136107314Y-85600500D01*
X136200500Y-85507314D01*
X136262736Y-85399518D01*
X138074686Y-85399518D01*
X138074686Y-85588479D01*
X138087026Y-85666391D01*
X138104245Y-85775114D01*
X138104247Y-85775122D01*
X138104275Y-85775207D01*
X138162639Y-85954833D01*
X138248416Y-86123182D01*
X138248422Y-86123193D01*
X138248429Y-86123207D01*
X138248627Y-86123475D01*
X138359496Y-86276072D01*
X138359498Y-86276074D01*
X138359504Y-86276082D01*
X138427135Y-86343712D01*
X138493106Y-86409683D01*
X138493109Y-86409685D01*
X138493113Y-86409689D01*
X138493126Y-86409698D01*
X138493304Y-86409845D01*
X138493844Y-86410220D01*
X138645987Y-86520759D01*
X138645989Y-86520760D01*
X138645992Y-86520762D01*
X138720940Y-86558949D01*
X138814304Y-86606521D01*
X138814326Y-86606532D01*
X138814352Y-86606545D01*
X138814354Y-86606546D01*
X138994068Y-86664939D01*
X139180705Y-86694499D01*
X139180706Y-86694499D01*
X139369666Y-86694499D01*
X139369667Y-86694499D01*
X139556304Y-86664939D01*
X139736018Y-86606546D01*
X139904385Y-86520759D01*
X140057259Y-86409689D01*
X140190876Y-86276072D01*
X140301946Y-86123198D01*
X140387733Y-85954831D01*
X140446126Y-85775117D01*
X140475686Y-85588480D01*
X140475686Y-85399518D01*
X140446126Y-85212881D01*
X140387733Y-85033167D01*
X140316154Y-84892685D01*
X140301949Y-84864805D01*
X140301947Y-84864802D01*
X140301946Y-84864800D01*
X140190876Y-84711926D01*
X140190872Y-84711922D01*
X140190870Y-84711919D01*
X140078498Y-84599547D01*
X140075057Y-84591240D01*
X139904376Y-84467233D01*
X139736020Y-84381452D01*
X139556394Y-84323088D01*
X139556309Y-84323060D01*
X139556301Y-84323058D01*
X139406022Y-84299257D01*
X139404778Y-84299060D01*
X139369667Y-84293499D01*
X139369666Y-84293499D01*
X139180705Y-84293499D01*
X139145582Y-84299060D01*
X139145583Y-84299061D01*
X138994069Y-84323058D01*
X138994055Y-84323061D01*
X138993976Y-84323088D01*
X138814350Y-84381452D01*
X138645997Y-84467231D01*
X138493099Y-84578319D01*
X138359506Y-84711912D01*
X138248418Y-84864810D01*
X138162639Y-85033163D01*
X138104275Y-85212789D01*
X138104248Y-85212868D01*
X138104245Y-85212882D01*
X138094773Y-85272689D01*
X138074686Y-85399518D01*
X136262736Y-85399518D01*
X136266392Y-85393186D01*
X136268609Y-85384911D01*
X136300500Y-85265894D01*
X136300500Y-85134105D01*
X136300500Y-85133454D01*
X136299669Y-85131008D01*
X136273453Y-85033167D01*
X136266392Y-85006814D01*
X136266391Y-85006813D01*
X136266391Y-85006811D01*
X136266390Y-85006810D01*
X136200499Y-84892685D01*
X136107314Y-84799500D01*
X136107310Y-84799498D01*
X136107308Y-84799496D01*
X135993188Y-84733608D01*
X135993160Y-84733596D01*
X135992764Y-84733494D01*
X135865898Y-84699500D01*
X135865895Y-84699500D01*
X135865892Y-84699500D01*
X135734108Y-84699500D01*
X135734105Y-84699500D01*
X135734102Y-84699500D01*
X135607234Y-84733494D01*
X135606840Y-84733596D01*
X135606810Y-84733608D01*
X135492690Y-84799496D01*
X135492681Y-84799503D01*
X135404064Y-84888121D01*
X135400600Y-84890779D01*
X135333608Y-85006810D01*
X135333596Y-85006840D01*
X135333494Y-85007234D01*
X135299500Y-85134100D01*
X133300498Y-85134100D01*
X133273453Y-85033167D01*
X133266392Y-85006814D01*
X133266391Y-85006813D01*
X133266391Y-85006811D01*
X133266390Y-85006810D01*
X133200499Y-84892685D01*
X133107314Y-84799500D01*
X133107310Y-84799498D01*
X133107308Y-84799496D01*
X132993188Y-84733608D01*
X132993160Y-84733596D01*
X132992764Y-84733494D01*
X132865898Y-84699500D01*
X132865895Y-84699500D01*
X132865892Y-84699500D01*
X132734108Y-84699500D01*
X132734105Y-84699500D01*
X132734102Y-84699500D01*
X132607234Y-84733494D01*
X132606840Y-84733596D01*
X132606810Y-84733608D01*
X132492690Y-84799496D01*
X132492681Y-84799503D01*
X132404064Y-84888121D01*
X132400600Y-84890779D01*
X132333608Y-85006810D01*
X132333596Y-85006840D01*
X132333494Y-85007234D01*
X132299500Y-85134100D01*
X130500500Y-85134100D01*
X130500500Y-82859518D01*
X138074686Y-82859518D01*
X138074686Y-83048478D01*
X138104245Y-83235114D01*
X138104247Y-83235122D01*
X138104275Y-83235207D01*
X138162639Y-83414833D01*
X138248416Y-83583182D01*
X138248422Y-83583193D01*
X138248429Y-83583207D01*
X138248627Y-83583475D01*
X138359496Y-83736072D01*
X138359498Y-83736074D01*
X138359504Y-83736082D01*
X138433620Y-83810197D01*
X138493106Y-83869683D01*
X138493109Y-83869685D01*
X138493113Y-83869689D01*
X138493126Y-83869698D01*
X138493304Y-83869845D01*
X138493844Y-83870220D01*
X138645987Y-83980759D01*
X138645989Y-83980760D01*
X138645992Y-83980762D01*
X138795248Y-84056811D01*
X138814354Y-84066546D01*
X138994068Y-84124939D01*
X139180705Y-84154499D01*
X139180706Y-84154499D01*
X139369666Y-84154499D01*
X139369667Y-84154499D01*
X139556304Y-84124939D01*
X139736018Y-84066546D01*
X139904385Y-83980759D01*
X140057259Y-83869689D01*
X140190876Y-83736072D01*
X140301946Y-83583198D01*
X140387733Y-83414831D01*
X140446126Y-83235117D01*
X140475686Y-83048480D01*
X140475686Y-82859518D01*
X140446126Y-82672881D01*
X140387733Y-82493167D01*
X140350291Y-82419683D01*
X140301949Y-82324805D01*
X140301947Y-82324802D01*
X140301946Y-82324800D01*
X140190876Y-82171926D01*
X140190874Y-82171924D01*
X140190872Y-82171921D01*
X140078498Y-82059547D01*
X140075057Y-82051240D01*
X139904376Y-81927233D01*
X139736020Y-81841452D01*
X139556394Y-81783088D01*
X139556309Y-81783060D01*
X139556301Y-81783058D01*
X139412930Y-81760351D01*
X139369667Y-81753499D01*
X139180705Y-81753499D01*
X139145582Y-81759060D01*
X139145583Y-81759061D01*
X138994069Y-81783058D01*
X138994055Y-81783061D01*
X138993976Y-81783088D01*
X138814350Y-81841452D01*
X138645997Y-81927231D01*
X138493099Y-82038319D01*
X138359506Y-82171912D01*
X138248418Y-82324810D01*
X138162639Y-82493163D01*
X138104275Y-82672789D01*
X138104248Y-82672868D01*
X138104245Y-82672882D01*
X138074686Y-82859518D01*
X130500500Y-82859518D01*
X130500500Y-79862381D01*
X131549500Y-79862381D01*
X131549500Y-80137617D01*
X131580008Y-80408377D01*
X131580008Y-80408384D01*
X131580315Y-80411112D01*
X131580316Y-80411116D01*
X131641561Y-80679451D01*
X131647074Y-80695207D01*
X131732464Y-80939239D01*
X131732488Y-80939296D01*
X131732640Y-80939605D01*
X131851417Y-81186250D01*
X131851462Y-81186342D01*
X131851879Y-81187208D01*
X131851880Y-81187210D01*
X131851883Y-81187214D01*
X131851886Y-81187221D01*
X131851910Y-81187260D01*
X131851911Y-81187261D01*
X131852031Y-81187453D01*
X131852792Y-81188685D01*
X131852950Y-81188915D01*
X131941502Y-81329845D01*
X131998319Y-81420268D01*
X132014662Y-81440762D01*
X132040560Y-81473237D01*
X132153212Y-81614499D01*
X132169918Y-81635447D01*
X132169929Y-81635459D01*
X132364540Y-81830070D01*
X132364552Y-81830081D01*
X132378811Y-81841452D01*
X132579732Y-82001681D01*
X132812779Y-82148114D01*
X132812787Y-82148118D01*
X132812789Y-82148119D01*
X132812791Y-82148120D01*
X133060552Y-82267435D01*
X133060732Y-82267524D01*
X133060777Y-82267542D01*
X133060969Y-82267608D01*
X133320546Y-82358438D01*
X133588879Y-82419683D01*
X133823311Y-82446097D01*
X133837509Y-82447697D01*
X133862381Y-82450500D01*
X133862382Y-82450500D01*
X133862383Y-82450500D01*
X134137617Y-82450500D01*
X134137618Y-82450500D01*
X134162481Y-82447698D01*
X134411121Y-82419683D01*
X134679454Y-82358438D01*
X134939243Y-82267534D01*
X135137775Y-82171926D01*
X135187209Y-82148120D01*
X135187210Y-82148119D01*
X135187221Y-82148114D01*
X135420268Y-82001681D01*
X135635455Y-81830075D01*
X135830075Y-81635455D01*
X136001681Y-81420268D01*
X136148114Y-81187221D01*
X136267534Y-80939243D01*
X136358438Y-80679454D01*
X136419683Y-80411121D01*
X136430004Y-80319518D01*
X138074686Y-80319518D01*
X138074686Y-80508478D01*
X138104245Y-80695114D01*
X138104247Y-80695122D01*
X138104275Y-80695207D01*
X138162639Y-80874833D01*
X138248416Y-81043182D01*
X138248422Y-81043193D01*
X138248429Y-81043207D01*
X138248627Y-81043475D01*
X138359496Y-81196072D01*
X138359498Y-81196074D01*
X138359504Y-81196082D01*
X138493100Y-81329677D01*
X138493106Y-81329683D01*
X138493109Y-81329685D01*
X138493113Y-81329689D01*
X138493126Y-81329698D01*
X138493304Y-81329845D01*
X138493844Y-81330220D01*
X138645987Y-81440759D01*
X138645989Y-81440760D01*
X138645992Y-81440762D01*
X138709728Y-81473237D01*
X138814304Y-81526521D01*
X138814326Y-81526532D01*
X138814352Y-81526545D01*
X138814354Y-81526546D01*
X138994068Y-81584939D01*
X139180705Y-81614499D01*
X139180706Y-81614499D01*
X139369666Y-81614499D01*
X139369667Y-81614499D01*
X139556304Y-81584939D01*
X139736018Y-81526546D01*
X139904385Y-81440759D01*
X140057259Y-81329689D01*
X140190876Y-81196072D01*
X140301946Y-81043198D01*
X140387733Y-80874831D01*
X140446126Y-80695117D01*
X140475686Y-80508480D01*
X140475686Y-80319518D01*
X140446126Y-80132881D01*
X140387733Y-79953167D01*
X140352110Y-79883252D01*
X140301949Y-79784805D01*
X140301947Y-79784802D01*
X140301946Y-79784800D01*
X140190876Y-79631926D01*
X140190874Y-79631924D01*
X140190872Y-79631921D01*
X140078498Y-79519547D01*
X140075057Y-79511240D01*
X139904376Y-79387233D01*
X139736020Y-79301452D01*
X139556394Y-79243088D01*
X139556309Y-79243060D01*
X139556301Y-79243058D01*
X139412930Y-79220351D01*
X139369667Y-79213499D01*
X139180705Y-79213499D01*
X139145582Y-79219060D01*
X139145583Y-79219061D01*
X138994069Y-79243058D01*
X138994055Y-79243061D01*
X138993976Y-79243088D01*
X138814350Y-79301452D01*
X138645997Y-79387231D01*
X138493099Y-79498319D01*
X138359506Y-79631912D01*
X138248418Y-79784810D01*
X138162639Y-79953163D01*
X138104275Y-80132789D01*
X138104248Y-80132868D01*
X138104245Y-80132882D01*
X138074686Y-80319518D01*
X136430004Y-80319518D01*
X136450500Y-80137617D01*
X136450500Y-79862383D01*
X136419683Y-79588879D01*
X136358438Y-79320546D01*
X136267534Y-79060757D01*
X136267502Y-79060691D01*
X136259917Y-79044942D01*
X136259916Y-79044938D01*
X136259916Y-79044939D01*
X136148120Y-78812791D01*
X136148119Y-78812789D01*
X136148118Y-78812787D01*
X136148114Y-78812779D01*
X136001681Y-78579732D01*
X135918557Y-78475498D01*
X135830081Y-78364552D01*
X135830070Y-78364540D01*
X135635452Y-78169922D01*
X135444835Y-78017910D01*
X135444807Y-78017889D01*
X135420269Y-77998320D01*
X135420270Y-77998320D01*
X135420268Y-77998319D01*
X135188904Y-77852944D01*
X135188672Y-77852784D01*
X135187453Y-77852031D01*
X135187440Y-77852023D01*
X135187387Y-77851990D01*
X135187221Y-77851886D01*
X135187214Y-77851883D01*
X135187210Y-77851880D01*
X135187208Y-77851879D01*
X135187201Y-77851875D01*
X135187153Y-77851846D01*
X135186864Y-77851697D01*
X135186286Y-77851434D01*
X135124624Y-77821740D01*
X135124622Y-77821739D01*
X135036950Y-77779518D01*
X138074686Y-77779518D01*
X138074686Y-77968478D01*
X138104245Y-78155114D01*
X138104247Y-78155122D01*
X138104275Y-78155207D01*
X138162639Y-78334833D01*
X138248416Y-78503182D01*
X138248422Y-78503193D01*
X138248429Y-78503207D01*
X138248627Y-78503475D01*
X138359496Y-78656072D01*
X138359498Y-78656074D01*
X138359504Y-78656082D01*
X138493100Y-78789677D01*
X138493106Y-78789683D01*
X138493109Y-78789685D01*
X138493113Y-78789689D01*
X138493126Y-78789698D01*
X138493304Y-78789845D01*
X138493844Y-78790220D01*
X138645987Y-78900759D01*
X138645989Y-78900760D01*
X138645992Y-78900762D01*
X138720940Y-78938949D01*
X138814304Y-78986521D01*
X138814326Y-78986532D01*
X138814352Y-78986545D01*
X138814354Y-78986546D01*
X138994068Y-79044939D01*
X139180705Y-79074499D01*
X139180706Y-79074499D01*
X139369666Y-79074499D01*
X139369667Y-79074499D01*
X139556304Y-79044939D01*
X139736018Y-78986546D01*
X139904385Y-78900759D01*
X140057259Y-78789689D01*
X140190876Y-78656072D01*
X140301946Y-78503198D01*
X140387733Y-78334831D01*
X140446126Y-78155117D01*
X140475686Y-77968480D01*
X140475686Y-77779518D01*
X140446126Y-77592881D01*
X140387733Y-77413167D01*
X140301946Y-77244800D01*
X140191438Y-77092699D01*
X140191438Y-77092698D01*
X140190873Y-77091922D01*
X140078498Y-76979547D01*
X140075057Y-76971240D01*
X139904376Y-76847233D01*
X139736020Y-76761452D01*
X139556394Y-76703088D01*
X139556309Y-76703060D01*
X139556301Y-76703058D01*
X139412930Y-76680351D01*
X139369667Y-76673499D01*
X139180705Y-76673499D01*
X139145582Y-76679060D01*
X139145583Y-76679061D01*
X138994069Y-76703058D01*
X138994055Y-76703061D01*
X138993976Y-76703088D01*
X138814350Y-76761452D01*
X138645997Y-76847231D01*
X138493099Y-76958319D01*
X138359506Y-77091912D01*
X138248418Y-77244810D01*
X138162639Y-77413163D01*
X138104275Y-77592789D01*
X138104248Y-77592868D01*
X138104245Y-77592882D01*
X138074686Y-77779518D01*
X135036950Y-77779518D01*
X134939605Y-77732639D01*
X134939304Y-77732491D01*
X134939250Y-77732468D01*
X134939247Y-77732467D01*
X134939242Y-77732465D01*
X134939239Y-77732464D01*
X134716335Y-77654467D01*
X134709590Y-77648439D01*
X134642737Y-77633181D01*
X134551653Y-77612392D01*
X134526642Y-77606683D01*
X134411130Y-77580318D01*
X134411131Y-77580318D01*
X134410945Y-77580287D01*
X134410394Y-77580234D01*
X134137619Y-77549500D01*
X134137618Y-77549500D01*
X134137617Y-77549500D01*
X133862383Y-77549500D01*
X133862382Y-77549500D01*
X133862381Y-77549500D01*
X133591622Y-77580008D01*
X133591608Y-77580008D01*
X133588886Y-77580315D01*
X133320550Y-77641560D01*
X133060759Y-77732464D01*
X133060691Y-77732492D01*
X133060393Y-77732639D01*
X132812815Y-77851866D01*
X132812792Y-77851877D01*
X132579731Y-77998318D01*
X132364553Y-78169916D01*
X132169916Y-78364553D01*
X131998317Y-78579733D01*
X131997207Y-78581471D01*
X131997048Y-78581753D01*
X131866396Y-78789688D01*
X131866395Y-78789689D01*
X131851884Y-78812780D01*
X131851881Y-78812787D01*
X131851860Y-78812828D01*
X131732639Y-79060393D01*
X131732492Y-79060691D01*
X131732464Y-79060759D01*
X131641560Y-79320550D01*
X131580315Y-79588886D01*
X131580008Y-79591615D01*
X131580008Y-79591621D01*
X131549500Y-79862381D01*
X130500500Y-79862381D01*
X130500500Y-76559247D01*
X130504227Y-76540502D01*
X130507083Y-76533606D01*
X130533594Y-76507088D01*
X130540502Y-76504226D01*
X130559247Y-76500500D01*
X141440753Y-76500500D01*
X141459499Y-76504227D01*
G37*
%TD.AperFunction*%
%TD*%
M02*
