%TF.GenerationSoftware,KiCad,Pcbnew,10.0.1*%
%TF.CreationDate,2026-05-29T10:43:53-05:00*%
%TF.ProjectId,ESPFridge,45535046-7269-4646-9765-2e6b69636164,rev?*%
%TF.SameCoordinates,Original*%
%TF.FileFunction,Legend,Bot*%
%TF.FilePolarity,Positive*%
%FSLAX46Y46*%
G04 Gerber Fmt 4.6, Leading zero omitted, Abs format (unit mm)*
G04 Created by KiCad (PCBNEW 10.0.1) date 2026-05-29 10:43:53*
%MOMM*%
%LPD*%
G01*
G04 APERTURE LIST*
%ADD10C,0.200000*%
%ADD11C,0.300000*%
%ADD12C,0.150000*%
%ADD13C,0.127000*%
G04 APERTURE END LIST*
D10*
X99105314Y-110809523D02*
X99010076Y-110904761D01*
X99010076Y-110904761D02*
X98914838Y-111095237D01*
X98914838Y-111095237D02*
X98914838Y-111571428D01*
X98914838Y-111571428D02*
X99010076Y-111761904D01*
X99010076Y-111761904D02*
X99105314Y-111857142D01*
X99105314Y-111857142D02*
X99295790Y-111952380D01*
X99295790Y-111952380D02*
X99486266Y-111952380D01*
X99486266Y-111952380D02*
X99771980Y-111857142D01*
X99771980Y-111857142D02*
X100914838Y-110714285D01*
X100914838Y-110714285D02*
X100914838Y-111952380D01*
X98914838Y-113190475D02*
X98914838Y-113380952D01*
X98914838Y-113380952D02*
X99010076Y-113571428D01*
X99010076Y-113571428D02*
X99105314Y-113666666D01*
X99105314Y-113666666D02*
X99295790Y-113761904D01*
X99295790Y-113761904D02*
X99676742Y-113857142D01*
X99676742Y-113857142D02*
X100152933Y-113857142D01*
X100152933Y-113857142D02*
X100533885Y-113761904D01*
X100533885Y-113761904D02*
X100724361Y-113666666D01*
X100724361Y-113666666D02*
X100819600Y-113571428D01*
X100819600Y-113571428D02*
X100914838Y-113380952D01*
X100914838Y-113380952D02*
X100914838Y-113190475D01*
X100914838Y-113190475D02*
X100819600Y-112999999D01*
X100819600Y-112999999D02*
X100724361Y-112904761D01*
X100724361Y-112904761D02*
X100533885Y-112809523D01*
X100533885Y-112809523D02*
X100152933Y-112714285D01*
X100152933Y-112714285D02*
X99676742Y-112714285D01*
X99676742Y-112714285D02*
X99295790Y-112809523D01*
X99295790Y-112809523D02*
X99105314Y-112904761D01*
X99105314Y-112904761D02*
X99010076Y-112999999D01*
X99010076Y-112999999D02*
X98914838Y-113190475D01*
X99105314Y-114619047D02*
X99010076Y-114714285D01*
X99010076Y-114714285D02*
X98914838Y-114904761D01*
X98914838Y-114904761D02*
X98914838Y-115380952D01*
X98914838Y-115380952D02*
X99010076Y-115571428D01*
X99010076Y-115571428D02*
X99105314Y-115666666D01*
X99105314Y-115666666D02*
X99295790Y-115761904D01*
X99295790Y-115761904D02*
X99486266Y-115761904D01*
X99486266Y-115761904D02*
X99771980Y-115666666D01*
X99771980Y-115666666D02*
X100914838Y-114523809D01*
X100914838Y-114523809D02*
X100914838Y-115761904D01*
X98914838Y-117476190D02*
X98914838Y-117095237D01*
X98914838Y-117095237D02*
X99010076Y-116904761D01*
X99010076Y-116904761D02*
X99105314Y-116809523D01*
X99105314Y-116809523D02*
X99391028Y-116619047D01*
X99391028Y-116619047D02*
X99771980Y-116523809D01*
X99771980Y-116523809D02*
X100533885Y-116523809D01*
X100533885Y-116523809D02*
X100724361Y-116619047D01*
X100724361Y-116619047D02*
X100819600Y-116714285D01*
X100819600Y-116714285D02*
X100914838Y-116904761D01*
X100914838Y-116904761D02*
X100914838Y-117285714D01*
X100914838Y-117285714D02*
X100819600Y-117476190D01*
X100819600Y-117476190D02*
X100724361Y-117571428D01*
X100724361Y-117571428D02*
X100533885Y-117666666D01*
X100533885Y-117666666D02*
X100057695Y-117666666D01*
X100057695Y-117666666D02*
X99867219Y-117571428D01*
X99867219Y-117571428D02*
X99771980Y-117476190D01*
X99771980Y-117476190D02*
X99676742Y-117285714D01*
X99676742Y-117285714D02*
X99676742Y-116904761D01*
X99676742Y-116904761D02*
X99771980Y-116714285D01*
X99771980Y-116714285D02*
X99867219Y-116619047D01*
X99867219Y-116619047D02*
X100057695Y-116523809D01*
X100724361Y-118523809D02*
X100819600Y-118619047D01*
X100819600Y-118619047D02*
X100914838Y-118523809D01*
X100914838Y-118523809D02*
X100819600Y-118428571D01*
X100819600Y-118428571D02*
X100724361Y-118523809D01*
X100724361Y-118523809D02*
X100914838Y-118523809D01*
X98914838Y-119857142D02*
X98914838Y-120047619D01*
X98914838Y-120047619D02*
X99010076Y-120238095D01*
X99010076Y-120238095D02*
X99105314Y-120333333D01*
X99105314Y-120333333D02*
X99295790Y-120428571D01*
X99295790Y-120428571D02*
X99676742Y-120523809D01*
X99676742Y-120523809D02*
X100152933Y-120523809D01*
X100152933Y-120523809D02*
X100533885Y-120428571D01*
X100533885Y-120428571D02*
X100724361Y-120333333D01*
X100724361Y-120333333D02*
X100819600Y-120238095D01*
X100819600Y-120238095D02*
X100914838Y-120047619D01*
X100914838Y-120047619D02*
X100914838Y-119857142D01*
X100914838Y-119857142D02*
X100819600Y-119666666D01*
X100819600Y-119666666D02*
X100724361Y-119571428D01*
X100724361Y-119571428D02*
X100533885Y-119476190D01*
X100533885Y-119476190D02*
X100152933Y-119380952D01*
X100152933Y-119380952D02*
X99676742Y-119380952D01*
X99676742Y-119380952D02*
X99295790Y-119476190D01*
X99295790Y-119476190D02*
X99105314Y-119571428D01*
X99105314Y-119571428D02*
X99010076Y-119666666D01*
X99010076Y-119666666D02*
X98914838Y-119857142D01*
X98914838Y-122333333D02*
X98914838Y-121380952D01*
X98914838Y-121380952D02*
X99867219Y-121285714D01*
X99867219Y-121285714D02*
X99771980Y-121380952D01*
X99771980Y-121380952D02*
X99676742Y-121571428D01*
X99676742Y-121571428D02*
X99676742Y-122047619D01*
X99676742Y-122047619D02*
X99771980Y-122238095D01*
X99771980Y-122238095D02*
X99867219Y-122333333D01*
X99867219Y-122333333D02*
X100057695Y-122428571D01*
X100057695Y-122428571D02*
X100533885Y-122428571D01*
X100533885Y-122428571D02*
X100724361Y-122333333D01*
X100724361Y-122333333D02*
X100819600Y-122238095D01*
X100819600Y-122238095D02*
X100914838Y-122047619D01*
X100914838Y-122047619D02*
X100914838Y-121571428D01*
X100914838Y-121571428D02*
X100819600Y-121380952D01*
X100819600Y-121380952D02*
X100724361Y-121285714D01*
X100724361Y-123285714D02*
X100819600Y-123380952D01*
X100819600Y-123380952D02*
X100914838Y-123285714D01*
X100914838Y-123285714D02*
X100819600Y-123190476D01*
X100819600Y-123190476D02*
X100724361Y-123285714D01*
X100724361Y-123285714D02*
X100914838Y-123285714D01*
X99105314Y-124142857D02*
X99010076Y-124238095D01*
X99010076Y-124238095D02*
X98914838Y-124428571D01*
X98914838Y-124428571D02*
X98914838Y-124904762D01*
X98914838Y-124904762D02*
X99010076Y-125095238D01*
X99010076Y-125095238D02*
X99105314Y-125190476D01*
X99105314Y-125190476D02*
X99295790Y-125285714D01*
X99295790Y-125285714D02*
X99486266Y-125285714D01*
X99486266Y-125285714D02*
X99771980Y-125190476D01*
X99771980Y-125190476D02*
X100914838Y-124047619D01*
X100914838Y-124047619D02*
X100914838Y-125285714D01*
X98914838Y-125952381D02*
X98914838Y-127285714D01*
X98914838Y-127285714D02*
X100914838Y-126428571D01*
D11*
X101088346Y-68474400D02*
X98802632Y-68474400D01*
X99945489Y-69617257D02*
X99945489Y-67331542D01*
X101088346Y-131474400D02*
X98802632Y-131474400D01*
X99800828Y-73642856D02*
X99800828Y-74642856D01*
X101372257Y-75071428D02*
X101372257Y-73642856D01*
X101372257Y-73642856D02*
X98372257Y-73642856D01*
X98372257Y-73642856D02*
X98372257Y-75071428D01*
X101229400Y-76214285D02*
X101372257Y-76642857D01*
X101372257Y-76642857D02*
X101372257Y-77357142D01*
X101372257Y-77357142D02*
X101229400Y-77642857D01*
X101229400Y-77642857D02*
X101086542Y-77785714D01*
X101086542Y-77785714D02*
X100800828Y-77928571D01*
X100800828Y-77928571D02*
X100515114Y-77928571D01*
X100515114Y-77928571D02*
X100229400Y-77785714D01*
X100229400Y-77785714D02*
X100086542Y-77642857D01*
X100086542Y-77642857D02*
X99943685Y-77357142D01*
X99943685Y-77357142D02*
X99800828Y-76785714D01*
X99800828Y-76785714D02*
X99657971Y-76499999D01*
X99657971Y-76499999D02*
X99515114Y-76357142D01*
X99515114Y-76357142D02*
X99229400Y-76214285D01*
X99229400Y-76214285D02*
X98943685Y-76214285D01*
X98943685Y-76214285D02*
X98657971Y-76357142D01*
X98657971Y-76357142D02*
X98515114Y-76499999D01*
X98515114Y-76499999D02*
X98372257Y-76785714D01*
X98372257Y-76785714D02*
X98372257Y-77499999D01*
X98372257Y-77499999D02*
X98515114Y-77928571D01*
X101372257Y-79214285D02*
X98372257Y-79214285D01*
X98372257Y-79214285D02*
X98372257Y-80357142D01*
X98372257Y-80357142D02*
X98515114Y-80642857D01*
X98515114Y-80642857D02*
X98657971Y-80785714D01*
X98657971Y-80785714D02*
X98943685Y-80928571D01*
X98943685Y-80928571D02*
X99372257Y-80928571D01*
X99372257Y-80928571D02*
X99657971Y-80785714D01*
X99657971Y-80785714D02*
X99800828Y-80642857D01*
X99800828Y-80642857D02*
X99943685Y-80357142D01*
X99943685Y-80357142D02*
X99943685Y-79214285D01*
X99800828Y-83214285D02*
X99800828Y-82214285D01*
X101372257Y-82214285D02*
X98372257Y-82214285D01*
X98372257Y-82214285D02*
X98372257Y-83642857D01*
X101372257Y-84785714D02*
X99372257Y-84785714D01*
X99943685Y-84785714D02*
X99657971Y-84928571D01*
X99657971Y-84928571D02*
X99515114Y-85071429D01*
X99515114Y-85071429D02*
X99372257Y-85357143D01*
X99372257Y-85357143D02*
X99372257Y-85642857D01*
X101372257Y-86642857D02*
X99372257Y-86642857D01*
X98372257Y-86642857D02*
X98515114Y-86500000D01*
X98515114Y-86500000D02*
X98657971Y-86642857D01*
X98657971Y-86642857D02*
X98515114Y-86785714D01*
X98515114Y-86785714D02*
X98372257Y-86642857D01*
X98372257Y-86642857D02*
X98657971Y-86642857D01*
X101372257Y-89357143D02*
X98372257Y-89357143D01*
X101229400Y-89357143D02*
X101372257Y-89071428D01*
X101372257Y-89071428D02*
X101372257Y-88500000D01*
X101372257Y-88500000D02*
X101229400Y-88214285D01*
X101229400Y-88214285D02*
X101086542Y-88071428D01*
X101086542Y-88071428D02*
X100800828Y-87928571D01*
X100800828Y-87928571D02*
X99943685Y-87928571D01*
X99943685Y-87928571D02*
X99657971Y-88071428D01*
X99657971Y-88071428D02*
X99515114Y-88214285D01*
X99515114Y-88214285D02*
X99372257Y-88500000D01*
X99372257Y-88500000D02*
X99372257Y-89071428D01*
X99372257Y-89071428D02*
X99515114Y-89357143D01*
X99372257Y-92071429D02*
X101800828Y-92071429D01*
X101800828Y-92071429D02*
X102086542Y-91928571D01*
X102086542Y-91928571D02*
X102229400Y-91785714D01*
X102229400Y-91785714D02*
X102372257Y-91500000D01*
X102372257Y-91500000D02*
X102372257Y-91071429D01*
X102372257Y-91071429D02*
X102229400Y-90785714D01*
X101229400Y-92071429D02*
X101372257Y-91785714D01*
X101372257Y-91785714D02*
X101372257Y-91214286D01*
X101372257Y-91214286D02*
X101229400Y-90928571D01*
X101229400Y-90928571D02*
X101086542Y-90785714D01*
X101086542Y-90785714D02*
X100800828Y-90642857D01*
X100800828Y-90642857D02*
X99943685Y-90642857D01*
X99943685Y-90642857D02*
X99657971Y-90785714D01*
X99657971Y-90785714D02*
X99515114Y-90928571D01*
X99515114Y-90928571D02*
X99372257Y-91214286D01*
X99372257Y-91214286D02*
X99372257Y-91785714D01*
X99372257Y-91785714D02*
X99515114Y-92071429D01*
X101229400Y-94642857D02*
X101372257Y-94357143D01*
X101372257Y-94357143D02*
X101372257Y-93785715D01*
X101372257Y-93785715D02*
X101229400Y-93500000D01*
X101229400Y-93500000D02*
X100943685Y-93357143D01*
X100943685Y-93357143D02*
X99800828Y-93357143D01*
X99800828Y-93357143D02*
X99515114Y-93500000D01*
X99515114Y-93500000D02*
X99372257Y-93785715D01*
X99372257Y-93785715D02*
X99372257Y-94357143D01*
X99372257Y-94357143D02*
X99515114Y-94642857D01*
X99515114Y-94642857D02*
X99800828Y-94785715D01*
X99800828Y-94785715D02*
X100086542Y-94785715D01*
X100086542Y-94785715D02*
X100372257Y-93357143D01*
X99372257Y-98071429D02*
X101372257Y-98785715D01*
X101372257Y-98785715D02*
X99372257Y-99500000D01*
X101372257Y-102214286D02*
X101372257Y-100500000D01*
X101372257Y-101357143D02*
X98372257Y-101357143D01*
X98372257Y-101357143D02*
X98800828Y-101071429D01*
X98800828Y-101071429D02*
X99086542Y-100785714D01*
X99086542Y-100785714D02*
X99229400Y-100500000D01*
X101086542Y-103500000D02*
X101229400Y-103642857D01*
X101229400Y-103642857D02*
X101372257Y-103500000D01*
X101372257Y-103500000D02*
X101229400Y-103357143D01*
X101229400Y-103357143D02*
X101086542Y-103500000D01*
X101086542Y-103500000D02*
X101372257Y-103500000D01*
X98372257Y-105500000D02*
X98372257Y-105785714D01*
X98372257Y-105785714D02*
X98515114Y-106071428D01*
X98515114Y-106071428D02*
X98657971Y-106214286D01*
X98657971Y-106214286D02*
X98943685Y-106357143D01*
X98943685Y-106357143D02*
X99515114Y-106500000D01*
X99515114Y-106500000D02*
X100229400Y-106500000D01*
X100229400Y-106500000D02*
X100800828Y-106357143D01*
X100800828Y-106357143D02*
X101086542Y-106214286D01*
X101086542Y-106214286D02*
X101229400Y-106071428D01*
X101229400Y-106071428D02*
X101372257Y-105785714D01*
X101372257Y-105785714D02*
X101372257Y-105500000D01*
X101372257Y-105500000D02*
X101229400Y-105214286D01*
X101229400Y-105214286D02*
X101086542Y-105071428D01*
X101086542Y-105071428D02*
X100800828Y-104928571D01*
X100800828Y-104928571D02*
X100229400Y-104785714D01*
X100229400Y-104785714D02*
X99515114Y-104785714D01*
X99515114Y-104785714D02*
X98943685Y-104928571D01*
X98943685Y-104928571D02*
X98657971Y-105071428D01*
X98657971Y-105071428D02*
X98515114Y-105214286D01*
X98515114Y-105214286D02*
X98372257Y-105500000D01*
D12*
X112066009Y-135039285D02*
X112113628Y-135182142D01*
X112113628Y-135182142D02*
X112161247Y-135229761D01*
X112161247Y-135229761D02*
X112256485Y-135277380D01*
X112256485Y-135277380D02*
X112399342Y-135277380D01*
X112399342Y-135277380D02*
X112494580Y-135229761D01*
X112494580Y-135229761D02*
X112542200Y-135182142D01*
X112542200Y-135182142D02*
X112589819Y-135086904D01*
X112589819Y-135086904D02*
X112589819Y-134705952D01*
X112589819Y-134705952D02*
X111589819Y-134705952D01*
X111589819Y-134705952D02*
X111589819Y-135039285D01*
X111589819Y-135039285D02*
X111637438Y-135134523D01*
X111637438Y-135134523D02*
X111685057Y-135182142D01*
X111685057Y-135182142D02*
X111780295Y-135229761D01*
X111780295Y-135229761D02*
X111875533Y-135229761D01*
X111875533Y-135229761D02*
X111970771Y-135182142D01*
X111970771Y-135182142D02*
X112018390Y-135134523D01*
X112018390Y-135134523D02*
X112066009Y-135039285D01*
X112066009Y-135039285D02*
X112066009Y-134705952D01*
X111589819Y-135563095D02*
X111589819Y-136134523D01*
X112589819Y-135848809D02*
X111589819Y-135848809D01*
X112589819Y-136991666D02*
X112589819Y-136420238D01*
X112589819Y-136705952D02*
X111589819Y-136705952D01*
X111589819Y-136705952D02*
X111732676Y-136610714D01*
X111732676Y-136610714D02*
X111827914Y-136515476D01*
X111827914Y-136515476D02*
X111875533Y-136420238D01*
%TO.C,BT1*%
D13*
X89675000Y-61475000D02*
X110325000Y-61475000D01*
X89675000Y-138525000D02*
X89675000Y-61475000D01*
X99250000Y-59750000D02*
X100750000Y-59750000D01*
X100000000Y-60500000D02*
X100000000Y-59000000D01*
X100000000Y-139500000D02*
X100000000Y-141000000D01*
X110325000Y-61475000D02*
X110325000Y-138525000D01*
X110325000Y-138525000D02*
X89675000Y-138525000D01*
%TD*%
M02*
