%TF.GenerationSoftware,KiCad,Pcbnew,10.0.1*%
%TF.CreationDate,2026-05-29T10:43:53-05:00*%
%TF.ProjectId,ESPFridge,45535046-7269-4646-9765-2e6b69636164,rev?*%
%TF.SameCoordinates,Original*%
%TF.FileFunction,Paste,Top*%
%TF.FilePolarity,Positive*%
%FSLAX46Y46*%
G04 Gerber Fmt 4.6, Leading zero omitted, Abs format (unit mm)*
G04 Created by KiCad (PCBNEW 10.0.1) date 2026-05-29 10:43:53*
%MOMM*%
%LPD*%
G01*
G04 APERTURE LIST*
G04 Aperture macros list*
%AMRoundRect*
0 Rectangle with rounded corners*
0 $1 Rounding radius*
0 $2 $3 $4 $5 $6 $7 $8 $9 X,Y pos of 4 corners*
0 Add a 4 corners polygon primitive as box body*
4,1,4,$2,$3,$4,$5,$6,$7,$8,$9,$2,$3,0*
0 Add four circle primitives for the rounded corners*
1,1,$1+$1,$2,$3*
1,1,$1+$1,$4,$5*
1,1,$1+$1,$6,$7*
1,1,$1+$1,$8,$9*
0 Add four rect primitives between the rounded corners*
20,1,$1+$1,$2,$3,$4,$5,0*
20,1,$1+$1,$4,$5,$6,$7,0*
20,1,$1+$1,$6,$7,$8,$9,0*
20,1,$1+$1,$8,$9,$2,$3,0*%
G04 Aperture macros list end*
%ADD10C,0.010000*%
%ADD11RoundRect,0.250000X-0.650000X0.412500X-0.650000X-0.412500X0.650000X-0.412500X0.650000X0.412500X0*%
%ADD12RoundRect,0.150000X-0.150000X0.587500X-0.150000X-0.587500X0.150000X-0.587500X0.150000X0.587500X0*%
%ADD13R,0.700000X0.700000*%
%ADD14R,0.900000X1.500000*%
%ADD15RoundRect,0.250000X-0.350000X-0.450000X0.350000X-0.450000X0.350000X0.450000X-0.350000X0.450000X0*%
%ADD16RoundRect,0.250000X-1.100000X0.412500X-1.100000X-0.412500X1.100000X-0.412500X1.100000X0.412500X0*%
%ADD17RoundRect,0.250000X-0.450000X0.350000X-0.450000X-0.350000X0.450000X-0.350000X0.450000X0.350000X0*%
%ADD18RoundRect,0.033750X-0.101250X0.336250X-0.101250X-0.336250X0.101250X-0.336250X0.101250X0.336250X0*%
%ADD19R,0.900000X2.000000*%
%ADD20RoundRect,0.150000X-0.150000X0.512500X-0.150000X-0.512500X0.150000X-0.512500X0.150000X0.512500X0*%
%ADD21RoundRect,0.160000X0.160000X-0.245000X0.160000X0.245000X-0.160000X0.245000X-0.160000X-0.245000X0*%
%ADD22RoundRect,0.093750X0.106250X-0.093750X0.106250X0.093750X-0.106250X0.093750X-0.106250X-0.093750X0*%
%ADD23RoundRect,0.250000X0.350000X0.450000X-0.350000X0.450000X-0.350000X-0.450000X0.350000X-0.450000X0*%
%ADD24RoundRect,0.250000X0.450000X-0.350000X0.450000X0.350000X-0.450000X0.350000X-0.450000X-0.350000X0*%
%ADD25RoundRect,0.150000X0.150000X-0.587500X0.150000X0.587500X-0.150000X0.587500X-0.150000X-0.587500X0*%
%ADD26RoundRect,0.250000X0.650000X-0.412500X0.650000X0.412500X-0.650000X0.412500X-0.650000X-0.412500X0*%
%ADD27RoundRect,0.250000X-0.412500X-1.100000X0.412500X-1.100000X0.412500X1.100000X-0.412500X1.100000X0*%
%ADD28RoundRect,0.250000X-0.412500X-0.650000X0.412500X-0.650000X0.412500X0.650000X-0.412500X0.650000X0*%
%ADD29RoundRect,0.250000X-0.325000X-0.450000X0.325000X-0.450000X0.325000X0.450000X-0.325000X0.450000X0*%
%ADD30RoundRect,0.070000X-0.210000X0.605000X-0.210000X-0.605000X0.210000X-0.605000X0.210000X0.605000X0*%
G04 APERTURE END LIST*
D10*
%TO.C,U4*%
X91730000Y-68110000D02*
X90870000Y-68110000D01*
X90870000Y-67690000D01*
X91730000Y-67690000D01*
X91730000Y-68110000D01*
G36*
X91730000Y-68110000D02*
G01*
X90870000Y-68110000D01*
X90870000Y-67690000D01*
X91730000Y-67690000D01*
X91730000Y-68110000D01*
G37*
%TD*%
D11*
%TO.C,C2*%
X100000000Y-128437500D03*
X100000000Y-131562500D03*
%TD*%
D12*
%TO.C,U5*%
X102950000Y-121125000D03*
X101050000Y-121125000D03*
X102000000Y-123000000D03*
%TD*%
D13*
%TO.C,U1*%
X101699999Y-95118843D03*
X102799999Y-95118843D03*
X103899999Y-95118843D03*
X101699999Y-94018843D03*
X102799999Y-94018843D03*
X103899999Y-94018843D03*
X101699999Y-92918843D03*
X102799999Y-92918843D03*
X103899999Y-92918843D03*
D14*
X96599999Y-103728843D03*
X98099999Y-103728843D03*
X99599999Y-103728843D03*
X101099999Y-103728843D03*
X102599999Y-103728843D03*
X104099999Y-103728843D03*
X105599999Y-103728843D03*
X107099999Y-103728843D03*
X108599999Y-103728843D03*
X108599999Y-86228843D03*
X107099999Y-86228843D03*
X105599999Y-86228843D03*
X104099999Y-86228843D03*
X102599999Y-86228843D03*
X101099999Y-86228843D03*
X99599999Y-86228843D03*
X98099999Y-86228843D03*
X96599999Y-86228843D03*
%TD*%
D15*
%TO.C,R7*%
X101000000Y-71600000D03*
X103000000Y-71600000D03*
%TD*%
D16*
%TO.C,C6*%
X93000000Y-120437500D03*
X93000000Y-123562500D03*
%TD*%
D17*
%TO.C,R3*%
X91100000Y-73900000D03*
X91100000Y-75900000D03*
%TD*%
D18*
%TO.C,U4*%
X91950000Y-66905000D03*
X91300000Y-66905000D03*
X90650000Y-66905000D03*
X90650000Y-68895000D03*
X91300000Y-68895000D03*
X91950000Y-68895000D03*
%TD*%
D19*
%TO.C,J1*%
X95350000Y-115600000D03*
X97350000Y-112400000D03*
X99350000Y-115600000D03*
X101350000Y-112400000D03*
X103350000Y-115600000D03*
X105350000Y-112400000D03*
%TD*%
D20*
%TO.C,U2*%
X94950000Y-132862500D03*
X94000000Y-132862500D03*
X93050000Y-132862500D03*
X93050000Y-135137500D03*
X94000000Y-135137500D03*
X94950000Y-135137500D03*
%TD*%
D11*
%TO.C,C8*%
X105800000Y-65937500D03*
X105800000Y-69062500D03*
%TD*%
D21*
%TO.C,U6*%
X108300000Y-67800000D03*
X109100000Y-67800000D03*
D22*
X108050000Y-68687500D03*
X108700000Y-68687500D03*
X109350000Y-68687500D03*
X109350000Y-66912500D03*
X108700000Y-66912500D03*
X108050000Y-66912500D03*
%TD*%
D23*
%TO.C,R8*%
X99000000Y-81700000D03*
X97000000Y-81700000D03*
%TD*%
D11*
%TO.C,C4*%
X95100000Y-66837500D03*
X95100000Y-69962500D03*
%TD*%
%TO.C,C7*%
X98000000Y-120437500D03*
X98000000Y-123562500D03*
%TD*%
D24*
%TO.C,R6*%
X106900000Y-83800000D03*
X106900000Y-81800000D03*
%TD*%
D25*
%TO.C,Q2*%
X107450000Y-109737500D03*
X109350000Y-109737500D03*
X108400000Y-107862500D03*
%TD*%
D23*
%TO.C,R10*%
X105783930Y-106795438D03*
X103783930Y-106795438D03*
%TD*%
D25*
%TO.C,Q1*%
X101640551Y-69134241D03*
X103540551Y-69134241D03*
X102590551Y-67259241D03*
%TD*%
D26*
%TO.C,C5*%
X108000000Y-123562500D03*
X108000000Y-120437500D03*
%TD*%
D23*
%TO.C,R4*%
X97300000Y-62900000D03*
X95300000Y-62900000D03*
%TD*%
D27*
%TO.C,C3*%
X104437500Y-128000000D03*
X107562500Y-128000000D03*
%TD*%
D28*
%TO.C,C1*%
X97437500Y-107000000D03*
X100562500Y-107000000D03*
%TD*%
D24*
%TO.C,R9*%
X98490551Y-69396741D03*
X98490551Y-67396741D03*
%TD*%
D29*
%TO.C,D1*%
X103975000Y-62900000D03*
X106025000Y-62900000D03*
%TD*%
D17*
%TO.C,R11*%
X108900000Y-114300000D03*
X108900000Y-116300000D03*
%TD*%
D28*
%TO.C,C9*%
X100937500Y-75800000D03*
X104062500Y-75800000D03*
%TD*%
D30*
%TO.C,U3*%
X106950000Y-132815000D03*
X106000000Y-132815000D03*
X105050000Y-132815000D03*
X105050000Y-135185000D03*
X106000000Y-135185000D03*
X106950000Y-135185000D03*
%TD*%
D24*
%TO.C,R5*%
X102700000Y-82400000D03*
X102700000Y-80400000D03*
%TD*%
D17*
%TO.C,R2*%
X94500000Y-73900000D03*
X94500000Y-75900000D03*
%TD*%
M02*
