%TF.GenerationSoftware,KiCad,Pcbnew,10.0.1*%
%TF.CreationDate,2026-05-29T10:43:53-05:00*%
%TF.ProjectId,ESPFridge,45535046-7269-4646-9765-2e6b69636164,rev?*%
%TF.SameCoordinates,Original*%
%TF.FileFunction,Copper,L2,Bot*%
%TF.FilePolarity,Positive*%
%FSLAX46Y46*%
G04 Gerber Fmt 4.6, Leading zero omitted, Abs format (unit mm)*
G04 Created by KiCad (PCBNEW 10.0.1) date 2026-05-29 10:43:53*
%MOMM*%
%LPD*%
G01*
G04 APERTURE LIST*
%TA.AperFunction,HeatsinkPad*%
%ADD10C,0.700000*%
%TD*%
%TA.AperFunction,ComponentPad*%
%ADD11C,1.980000*%
%TD*%
%TA.AperFunction,ViaPad*%
%ADD12C,0.600000*%
%TD*%
%TA.AperFunction,Conductor*%
%ADD13C,2.000000*%
%TD*%
%TA.AperFunction,Conductor*%
%ADD14C,1.000000*%
%TD*%
%TA.AperFunction,Conductor*%
%ADD15C,0.350000*%
%TD*%
%TA.AperFunction,Conductor*%
%ADD16C,0.500000*%
%TD*%
%TA.AperFunction,Conductor*%
%ADD17C,0.750000*%
%TD*%
G04 APERTURE END LIST*
D10*
%TO.P,U1,19,GND_19*%
%TO.N,GNDREF*%
X102299999Y-95078843D03*
X103349999Y-95078843D03*
X103849999Y-94578843D03*
X101699999Y-94568843D03*
X102799999Y-94528843D03*
X102299999Y-94028843D03*
X103349999Y-94028843D03*
X101699999Y-93478843D03*
X102799999Y-93478843D03*
X103849999Y-93428843D03*
X102299999Y-92978843D03*
X103349999Y-92978843D03*
%TD*%
D11*
%TO.P,BT1,N,-_N*%
%TO.N,-BATT*%
X100000000Y-136110000D03*
%TO.P,BT1,P,+_P*%
%TO.N,+BATT*%
X100000000Y-63890000D03*
%TD*%
D12*
%TO.N,+BATT*%
X105400000Y-118800000D03*
%TO.N,GNDREF*%
X90300000Y-79800000D03*
X102400000Y-64700000D03*
X108000000Y-120100000D03*
X97100000Y-117500000D03*
X97200000Y-69200000D03*
X91300000Y-72100000D03*
X109000000Y-75100000D03*
X90300000Y-110200000D03*
X108000000Y-64400000D03*
X103500000Y-119500000D03*
X102300000Y-137900000D03*
X90300000Y-137900000D03*
X93000000Y-123800000D03*
X107900000Y-128000000D03*
X95100000Y-70100000D03*
X95400000Y-110200000D03*
X109700000Y-118800000D03*
X109700000Y-70400000D03*
X98000000Y-123800000D03*
X94600000Y-79800000D03*
X91300000Y-67900000D03*
X107796968Y-66095075D03*
X98500000Y-72500000D03*
X104500000Y-78700000D03*
X109700000Y-127900000D03*
X95800000Y-75900000D03*
X100900000Y-107000000D03*
X96400000Y-137900000D03*
X90300000Y-118700000D03*
X109700000Y-62100000D03*
X96500000Y-125800000D03*
X109700000Y-111200000D03*
X93700000Y-62100000D03*
X109700000Y-137900000D03*
X98000000Y-64200000D03*
X90300000Y-62100000D03*
X90300000Y-65800000D03*
X90300000Y-125700000D03*
X90300000Y-70600000D03*
X100000000Y-74200000D03*
X103900000Y-132800000D03*
X105100000Y-82300000D03*
X95300000Y-72700000D03*
%TO.N,+3V3*%
X103900000Y-65390000D03*
X95294427Y-65296794D03*
X97000000Y-109200000D03*
X92700000Y-116800000D03*
X92900000Y-78400000D03*
X100400000Y-78900000D03*
%TO.N,SDA*%
X96400000Y-72700000D03*
X104103704Y-67704547D03*
X98900000Y-99800000D03*
%TO.N,SCL*%
X98699609Y-98099609D03*
X96400000Y-74000000D03*
%TO.N,LED*%
X109600000Y-88800000D03*
X108850000Y-62900000D03*
%TO.N,RX*%
X103702944Y-89600000D03*
X101400000Y-109900000D03*
%TO.N,TX*%
X99400000Y-109900000D03*
X103000000Y-100200000D03*
%TO.N,WL*%
X99496478Y-77447657D03*
X94500000Y-72500000D03*
%TO.N,Net-(U2-OD)*%
X107599043Y-137099505D03*
X96800000Y-130200000D03*
%TO.N,Net-(U2-CS)*%
X106000000Y-137100000D03*
X94000000Y-131000000D03*
%TO.N,Net-(U2-OC)*%
X92500000Y-130900000D03*
X104400000Y-137100000D03*
%TO.N,Net-(Q1-G)*%
X97500000Y-71300000D03*
X109600000Y-105900000D03*
X109600000Y-91600000D03*
X106200000Y-91600000D03*
%TD*%
%TO.N,+BATT*%
D13*
X106100000Y-67884948D02*
X106100000Y-64478730D01*
X104811270Y-63190000D02*
X100700000Y-63190000D01*
X100700000Y-63190000D02*
X100000000Y-63890000D01*
X107900000Y-116300000D02*
X107900000Y-78095052D01*
X106100000Y-64478730D02*
X104811270Y-63190000D01*
X104392474Y-69592473D02*
X106100000Y-67884948D01*
X103645000Y-70339948D02*
X104392474Y-69592473D01*
X107900000Y-78095052D02*
X103645000Y-73840053D01*
X103645000Y-73840053D02*
X103645000Y-70339948D01*
X105400000Y-118800000D02*
X107900000Y-116300000D01*
%TO.N,+3V3*%
X97000000Y-112500000D02*
X92700000Y-116800000D01*
X96400000Y-78900000D02*
X95600000Y-78100000D01*
X97000000Y-79500000D02*
X95600000Y-78100000D01*
X92900000Y-78400000D02*
X92900000Y-67691221D01*
X102590000Y-66700000D02*
X96697633Y-66700000D01*
X98097657Y-78947657D02*
X98050000Y-78900000D01*
X93200000Y-78100000D02*
X92900000Y-78400000D01*
X98050000Y-78900000D02*
X96400000Y-78900000D01*
X96697633Y-66700000D02*
X95294427Y-65296794D01*
X92900000Y-67691221D02*
X95294427Y-65296794D01*
X103900000Y-65390000D02*
X102590000Y-66700000D01*
X95600000Y-78100000D02*
X93200000Y-78100000D01*
X97000000Y-109200000D02*
X97000000Y-79500000D01*
X97000000Y-109200000D02*
X97000000Y-112500000D01*
X100400000Y-78900000D02*
X100352343Y-78947657D01*
X100352343Y-78947657D02*
X98097657Y-78947657D01*
%TO.N,SDA*%
D14*
X96797056Y-72700000D02*
X97600000Y-73502944D01*
X99900000Y-98800000D02*
X98900000Y-99800000D01*
X103300000Y-77602944D02*
X103300000Y-80101219D01*
D15*
X104103704Y-67807618D02*
X103711322Y-68200000D01*
D14*
X100349399Y-81847657D02*
X99900000Y-82297056D01*
X101553562Y-81847657D02*
X100349399Y-81847657D01*
X97600000Y-74552944D02*
X98247056Y-75200000D01*
X103300000Y-80101219D02*
X101553562Y-81847657D01*
X98247056Y-75200000D02*
X100897056Y-75200000D01*
X100897056Y-75200000D02*
X103300000Y-77602944D01*
D15*
X104103704Y-67704547D02*
X104103704Y-67807618D01*
X96400000Y-72700000D02*
X96400000Y-69000000D01*
D14*
X97600000Y-73502944D02*
X97600000Y-74552944D01*
D15*
X97200000Y-68200000D02*
X103711322Y-68200000D01*
D14*
X96400000Y-72700000D02*
X96797056Y-72700000D01*
D15*
X96400000Y-69000000D02*
X97200000Y-68200000D01*
D14*
X99900000Y-82297056D02*
X99900000Y-98800000D01*
%TO.N,SCL*%
X99852343Y-80647657D02*
X101056506Y-80647657D01*
X97750000Y-76400000D02*
X96400000Y-75050000D01*
X96400000Y-75050000D02*
X96400000Y-74000000D01*
X98700000Y-81800000D02*
X98700000Y-98099218D01*
X98700000Y-81800000D02*
X99852343Y-80647657D01*
X100400000Y-76400000D02*
X97750000Y-76400000D01*
X102100000Y-79604163D02*
X102100000Y-78100000D01*
X98700000Y-98099218D02*
X98699609Y-98099609D01*
X101056506Y-80647657D02*
X102100000Y-79604163D01*
X102100000Y-78100000D02*
X100400000Y-76400000D01*
%TO.N,LED*%
X109600000Y-77390889D02*
X105345000Y-73135889D01*
X106824111Y-69565000D02*
X108915889Y-69565000D01*
X109600000Y-68880889D02*
X109600000Y-63650000D01*
X109600000Y-88800000D02*
X109600000Y-77390889D01*
X105345000Y-71044111D02*
X106824111Y-69565000D01*
X105345000Y-73135889D02*
X105345000Y-71044111D01*
X108915889Y-69565000D02*
X109600000Y-68880889D01*
X109600000Y-63650000D02*
X108850000Y-62900000D01*
%TO.N,RX*%
X104800000Y-100300000D02*
X104800000Y-106500000D01*
X104800000Y-100300000D02*
X104899999Y-100200001D01*
X104800000Y-106500000D02*
X101400000Y-109900000D01*
X104899999Y-90797055D02*
X103702944Y-89600000D01*
X104899999Y-100200001D02*
X104899999Y-90797055D01*
%TO.N,TX*%
X103000000Y-101600000D02*
X99400000Y-105200000D01*
X99400000Y-105200000D02*
X99400000Y-109900000D01*
X103000000Y-100200000D02*
X103000000Y-101600000D01*
%TO.N,WL*%
D16*
X95150000Y-76650000D02*
X96300610Y-76650000D01*
X96300610Y-76650000D02*
X97100610Y-77450000D01*
X99094135Y-77450000D02*
X99096478Y-77447657D01*
X94500000Y-76000000D02*
X95150000Y-76650000D01*
X94500000Y-72500000D02*
X94500000Y-76000000D01*
X97100610Y-77450000D02*
X99094135Y-77450000D01*
%TO.N,Net-(U2-OD)*%
D17*
X106300000Y-130200000D02*
X107599043Y-131499043D01*
X96800000Y-130200000D02*
X106300000Y-130200000D01*
X107599043Y-131499043D02*
X107599043Y-137099505D01*
%TO.N,Net-(U2-CS)*%
X94000000Y-131000000D02*
X94600000Y-131600000D01*
X94600000Y-131600000D02*
X105000000Y-131600000D01*
X105000000Y-131600000D02*
X106000000Y-132600000D01*
X106000000Y-132600000D02*
X106000000Y-137100000D01*
%TO.N,Net-(U2-OC)*%
X94200000Y-133600000D02*
X92500000Y-131900000D01*
X101500000Y-133600000D02*
X94200000Y-133600000D01*
X104400000Y-136500000D02*
X101500000Y-133600000D01*
X104400000Y-137100000D02*
X104400000Y-136500000D01*
X92500000Y-131900000D02*
X92500000Y-130900000D01*
%TO.N,Net-(Q1-G)*%
D14*
X109600000Y-91600000D02*
X109600000Y-105900000D01*
X101945000Y-74544216D02*
X101945000Y-72445000D01*
X101945000Y-72445000D02*
X100800000Y-71300000D01*
X100800000Y-71300000D02*
X97500000Y-71300000D01*
X106200000Y-78799216D02*
X106200000Y-91600000D01*
X106200000Y-78799216D02*
X101945000Y-74544216D01*
%TD*%
%TA.AperFunction,Conductor*%
%TO.N,GNDREF*%
G36*
X104126826Y-77716699D02*
G01*
X105477826Y-79067699D01*
X105499500Y-79120025D01*
X105499500Y-90227248D01*
X105477826Y-90279574D01*
X105425500Y-90301248D01*
X105373174Y-90279574D01*
X105346541Y-90252941D01*
X104149487Y-89055886D01*
X104149486Y-89055885D01*
X104034754Y-88979224D01*
X103907276Y-88926421D01*
X103907266Y-88926418D01*
X103816639Y-88908391D01*
X103771938Y-88899500D01*
X103633950Y-88899500D01*
X103595584Y-88907131D01*
X103498621Y-88926418D01*
X103498611Y-88926421D01*
X103371133Y-88979224D01*
X103256401Y-89055885D01*
X103256400Y-89055887D01*
X103158831Y-89153456D01*
X103158829Y-89153457D01*
X103082168Y-89268189D01*
X103029365Y-89395667D01*
X103029362Y-89395677D01*
X103002444Y-89531007D01*
X103002444Y-89668992D01*
X103029362Y-89804322D01*
X103029365Y-89804332D01*
X103082168Y-89931810D01*
X103158829Y-90046542D01*
X103158830Y-90046543D01*
X104177825Y-91065537D01*
X104199499Y-91117863D01*
X104199499Y-99915398D01*
X104187029Y-99956509D01*
X104179223Y-99968190D01*
X104126421Y-100095667D01*
X104126418Y-100095678D01*
X104118775Y-100134107D01*
X104118775Y-100134108D01*
X104099500Y-100231008D01*
X104099500Y-106179191D01*
X104077826Y-106231517D01*
X100855887Y-109453456D01*
X100855885Y-109453457D01*
X100779224Y-109568189D01*
X100726421Y-109695667D01*
X100726418Y-109695677D01*
X100699500Y-109831007D01*
X100699500Y-109968992D01*
X100726418Y-110104322D01*
X100726421Y-110104332D01*
X100779224Y-110231810D01*
X100855883Y-110346538D01*
X100855886Y-110346543D01*
X100953457Y-110444114D01*
X101068189Y-110520775D01*
X101195672Y-110573580D01*
X101331006Y-110600500D01*
X101331008Y-110600500D01*
X101468992Y-110600500D01*
X101468994Y-110600500D01*
X101604328Y-110573580D01*
X101731811Y-110520775D01*
X101846543Y-110444114D01*
X105344114Y-106946543D01*
X105420775Y-106831811D01*
X105473580Y-106704328D01*
X105500500Y-106568993D01*
X105500500Y-100584601D01*
X105512972Y-100543488D01*
X105520774Y-100531812D01*
X105573579Y-100404329D01*
X105600499Y-100268995D01*
X105600499Y-100131007D01*
X105600499Y-92169806D01*
X105622173Y-92117480D01*
X105674499Y-92095806D01*
X105726823Y-92117479D01*
X105753458Y-92144114D01*
X105868189Y-92220775D01*
X105995672Y-92273580D01*
X106131007Y-92300500D01*
X106131009Y-92300500D01*
X106268991Y-92300500D01*
X106268993Y-92300500D01*
X106404328Y-92273580D01*
X106531811Y-92220775D01*
X106584388Y-92185643D01*
X106639936Y-92174594D01*
X106687028Y-92206059D01*
X106699500Y-92247172D01*
X106699500Y-115772084D01*
X106677826Y-115824410D01*
X104484306Y-118017930D01*
X104373239Y-118170800D01*
X104287449Y-118339175D01*
X104229062Y-118518871D01*
X104229059Y-118518884D01*
X104199500Y-118705518D01*
X104199500Y-118894481D01*
X104229059Y-119081115D01*
X104229062Y-119081128D01*
X104287449Y-119260824D01*
X104373239Y-119429199D01*
X104484306Y-119582069D01*
X104484310Y-119582074D01*
X104617926Y-119715690D01*
X104617929Y-119715692D01*
X104617930Y-119715693D01*
X104770800Y-119826760D01*
X104850517Y-119867377D01*
X104939168Y-119912547D01*
X104939171Y-119912547D01*
X104939175Y-119912550D01*
X105118871Y-119970937D01*
X105118877Y-119970938D01*
X105118882Y-119970940D01*
X105243306Y-119990646D01*
X105305518Y-120000500D01*
X105305519Y-120000500D01*
X105494482Y-120000500D01*
X105541140Y-119993110D01*
X105681118Y-119970940D01*
X105681125Y-119970937D01*
X105681128Y-119970937D01*
X105860824Y-119912550D01*
X105860826Y-119912548D01*
X105860832Y-119912547D01*
X106029199Y-119826760D01*
X106182074Y-119715690D01*
X108815690Y-117082073D01*
X108926760Y-116929199D01*
X109012547Y-116760832D01*
X109030520Y-116705519D01*
X109070937Y-116581128D01*
X109070937Y-116581125D01*
X109070940Y-116581118D01*
X109100500Y-116394481D01*
X109100500Y-116205518D01*
X109100500Y-106547172D01*
X109122174Y-106494846D01*
X109174500Y-106473172D01*
X109215610Y-106485643D01*
X109268189Y-106520775D01*
X109395672Y-106573580D01*
X109531007Y-106600500D01*
X109531009Y-106600500D01*
X109668991Y-106600500D01*
X109668993Y-106600500D01*
X109804328Y-106573580D01*
X109931811Y-106520775D01*
X109984388Y-106485643D01*
X110039936Y-106474594D01*
X110087028Y-106506059D01*
X110099500Y-106547172D01*
X110099500Y-138225500D01*
X110077826Y-138277826D01*
X110025500Y-138299500D01*
X89974500Y-138299500D01*
X89922174Y-138277826D01*
X89900500Y-138225500D01*
X89900500Y-136016305D01*
X98809500Y-136016305D01*
X98809500Y-136203694D01*
X98838813Y-136388773D01*
X98838816Y-136388786D01*
X98896718Y-136566988D01*
X98896720Y-136566993D01*
X98981792Y-136733957D01*
X98981793Y-136733958D01*
X99091938Y-136885559D01*
X99224441Y-137018062D01*
X99224444Y-137018064D01*
X99224445Y-137018065D01*
X99376042Y-137128207D01*
X99543006Y-137213279D01*
X99543011Y-137213281D01*
X99721213Y-137271183D01*
X99721219Y-137271184D01*
X99721224Y-137271186D01*
X99844612Y-137290728D01*
X99906305Y-137300500D01*
X99906306Y-137300500D01*
X100093695Y-137300500D01*
X100139964Y-137293171D01*
X100278776Y-137271186D01*
X100278783Y-137271183D01*
X100278786Y-137271183D01*
X100456988Y-137213281D01*
X100456993Y-137213279D01*
X100530617Y-137175766D01*
X100623958Y-137128207D01*
X100775559Y-137018062D01*
X100908062Y-136885559D01*
X101018207Y-136733958D01*
X101103279Y-136566993D01*
X101149666Y-136424232D01*
X101161183Y-136388786D01*
X101161183Y-136388783D01*
X101161186Y-136388776D01*
X101190500Y-136203694D01*
X101190500Y-136016306D01*
X101161186Y-135831224D01*
X101161184Y-135831219D01*
X101161183Y-135831213D01*
X101103281Y-135653011D01*
X101103279Y-135653006D01*
X101018207Y-135486042D01*
X100908065Y-135334445D01*
X100908064Y-135334444D01*
X100908062Y-135334441D01*
X100775559Y-135201938D01*
X100775556Y-135201935D01*
X100775554Y-135201934D01*
X100623957Y-135091792D01*
X100456993Y-135006720D01*
X100456988Y-135006718D01*
X100278786Y-134948816D01*
X100278773Y-134948813D01*
X100093695Y-134919500D01*
X100093694Y-134919500D01*
X99906306Y-134919500D01*
X99906305Y-134919500D01*
X99721226Y-134948813D01*
X99721213Y-134948816D01*
X99543011Y-135006718D01*
X99543006Y-135006720D01*
X99376042Y-135091792D01*
X99224445Y-135201934D01*
X99091934Y-135334445D01*
X98981792Y-135486042D01*
X98896720Y-135653006D01*
X98896718Y-135653011D01*
X98838816Y-135831213D01*
X98838813Y-135831226D01*
X98809500Y-136016305D01*
X89900500Y-136016305D01*
X89900500Y-130824231D01*
X91924500Y-130824231D01*
X91924500Y-131975768D01*
X91963717Y-132122130D01*
X91963721Y-132122139D01*
X92039483Y-132253362D01*
X92039485Y-132253365D01*
X93846635Y-134060515D01*
X93977865Y-134136281D01*
X93977866Y-134136281D01*
X93977868Y-134136282D01*
X94051049Y-134155890D01*
X94124230Y-134175499D01*
X94124231Y-134175500D01*
X94124233Y-134175500D01*
X94124234Y-134175500D01*
X101230968Y-134175500D01*
X101283294Y-134197174D01*
X103802826Y-136716706D01*
X103824500Y-136769032D01*
X103824500Y-137175768D01*
X103863717Y-137322130D01*
X103863718Y-137322133D01*
X103863719Y-137322135D01*
X103939485Y-137453365D01*
X104046635Y-137560515D01*
X104177865Y-137636281D01*
X104324231Y-137675499D01*
X104324232Y-137675500D01*
X104324234Y-137675500D01*
X104475768Y-137675500D01*
X104475768Y-137675499D01*
X104622135Y-137636281D01*
X104753365Y-137560515D01*
X104860515Y-137453365D01*
X104936281Y-137322135D01*
X104975499Y-137175768D01*
X104975500Y-137175768D01*
X104975500Y-136424232D01*
X104975499Y-136424231D01*
X104936282Y-136277869D01*
X104936281Y-136277865D01*
X104860515Y-136146635D01*
X104753365Y-136039485D01*
X101853365Y-133139485D01*
X101853362Y-133139483D01*
X101722139Y-133063721D01*
X101722130Y-133063717D01*
X101575768Y-133024500D01*
X101575766Y-133024500D01*
X94469032Y-133024500D01*
X94416706Y-133002826D01*
X93097174Y-131683294D01*
X93075500Y-131630968D01*
X93075500Y-130924231D01*
X93424500Y-130924231D01*
X93424500Y-131075768D01*
X93463717Y-131222130D01*
X93463721Y-131222139D01*
X93539483Y-131353362D01*
X93539485Y-131353365D01*
X94246635Y-132060515D01*
X94246637Y-132060516D01*
X94353363Y-132122135D01*
X94377865Y-132136281D01*
X94377866Y-132136281D01*
X94377868Y-132136282D01*
X94451049Y-132155890D01*
X94524230Y-132175499D01*
X94524231Y-132175500D01*
X94524233Y-132175500D01*
X94524234Y-132175500D01*
X104730968Y-132175500D01*
X104783294Y-132197174D01*
X105402826Y-132816706D01*
X105424500Y-132869032D01*
X105424500Y-137175768D01*
X105463717Y-137322130D01*
X105463718Y-137322133D01*
X105463719Y-137322135D01*
X105539485Y-137453365D01*
X105646635Y-137560515D01*
X105777865Y-137636281D01*
X105924231Y-137675499D01*
X105924232Y-137675500D01*
X105924234Y-137675500D01*
X106075768Y-137675500D01*
X106075768Y-137675499D01*
X106222135Y-137636281D01*
X106353365Y-137560515D01*
X106460515Y-137453365D01*
X106536281Y-137322135D01*
X106575499Y-137175768D01*
X106575500Y-137175768D01*
X106575500Y-132524232D01*
X106575499Y-132524231D01*
X106536282Y-132377869D01*
X106536281Y-132377865D01*
X106460515Y-132246635D01*
X106353365Y-132139485D01*
X105353365Y-131139485D01*
X105353362Y-131139483D01*
X105222139Y-131063721D01*
X105222130Y-131063717D01*
X105075768Y-131024500D01*
X105075766Y-131024500D01*
X94869032Y-131024500D01*
X94816706Y-131002826D01*
X94589379Y-130775499D01*
X94353365Y-130539485D01*
X94353362Y-130539483D01*
X94222139Y-130463721D01*
X94222130Y-130463717D01*
X94075768Y-130424500D01*
X94075766Y-130424500D01*
X93924234Y-130424500D01*
X93924232Y-130424500D01*
X93777869Y-130463717D01*
X93777860Y-130463721D01*
X93646637Y-130539483D01*
X93539483Y-130646637D01*
X93463721Y-130777860D01*
X93463717Y-130777869D01*
X93424500Y-130924231D01*
X93075500Y-130924231D01*
X93075500Y-130824232D01*
X93075499Y-130824231D01*
X93063075Y-130777865D01*
X93036281Y-130677865D01*
X92960515Y-130546635D01*
X92853365Y-130439485D01*
X92853362Y-130439483D01*
X92722139Y-130363721D01*
X92722130Y-130363717D01*
X92575768Y-130324500D01*
X92575766Y-130324500D01*
X92424234Y-130324500D01*
X92424232Y-130324500D01*
X92277869Y-130363717D01*
X92277860Y-130363721D01*
X92146637Y-130439483D01*
X92039483Y-130546637D01*
X91963721Y-130677860D01*
X91963717Y-130677869D01*
X91924500Y-130824231D01*
X89900500Y-130824231D01*
X89900500Y-130124231D01*
X96224500Y-130124231D01*
X96224500Y-130275768D01*
X96263717Y-130422130D01*
X96263721Y-130422139D01*
X96339483Y-130553362D01*
X96339485Y-130553365D01*
X96446635Y-130660515D01*
X96577865Y-130736281D01*
X96724231Y-130775499D01*
X96724232Y-130775500D01*
X96724234Y-130775500D01*
X106030968Y-130775500D01*
X106083294Y-130797174D01*
X107001869Y-131715748D01*
X107023543Y-131768074D01*
X107023543Y-137175273D01*
X107062760Y-137321635D01*
X107062764Y-137321644D01*
X107063050Y-137322139D01*
X107138528Y-137452870D01*
X107245678Y-137560020D01*
X107376908Y-137635786D01*
X107523274Y-137675004D01*
X107523275Y-137675005D01*
X107523277Y-137675005D01*
X107674811Y-137675005D01*
X107674811Y-137675004D01*
X107821178Y-137635786D01*
X107952408Y-137560020D01*
X108059558Y-137452870D01*
X108135324Y-137321640D01*
X108174542Y-137175273D01*
X108174543Y-137175273D01*
X108174543Y-131423275D01*
X108174542Y-131423274D01*
X108155809Y-131353362D01*
X108135324Y-131276908D01*
X108059558Y-131145678D01*
X107952408Y-131038528D01*
X107952407Y-131038527D01*
X107949829Y-131035949D01*
X107949818Y-131035939D01*
X107336009Y-130422130D01*
X106653365Y-129739485D01*
X106653362Y-129739483D01*
X106653361Y-129739482D01*
X106522139Y-129663721D01*
X106522130Y-129663717D01*
X106375768Y-129624500D01*
X106375766Y-129624500D01*
X96724234Y-129624500D01*
X96724232Y-129624500D01*
X96577869Y-129663717D01*
X96577860Y-129663721D01*
X96446637Y-129739483D01*
X96339483Y-129846637D01*
X96263721Y-129977860D01*
X96263717Y-129977869D01*
X96224500Y-130124231D01*
X89900500Y-130124231D01*
X89900500Y-127157243D01*
X90104500Y-127157243D01*
X90104500Y-127422756D01*
X90139155Y-127685996D01*
X90207875Y-127942465D01*
X90207879Y-127942476D01*
X90309482Y-128187769D01*
X90309485Y-128187777D01*
X90442242Y-128417718D01*
X90442246Y-128417724D01*
X90603881Y-128628370D01*
X90791630Y-128816119D01*
X91002278Y-128977755D01*
X91232222Y-129110514D01*
X91477527Y-129212122D01*
X91733997Y-129280843D01*
X91734003Y-129280843D01*
X91734004Y-129280844D01*
X91734003Y-129280844D01*
X91850825Y-129296223D01*
X91997242Y-129315500D01*
X91997244Y-129315500D01*
X92262756Y-129315500D01*
X92262758Y-129315500D01*
X92465581Y-129288797D01*
X92525996Y-129280844D01*
X92525996Y-129280843D01*
X92526003Y-129280843D01*
X92782473Y-129212122D01*
X93027778Y-129110514D01*
X93257722Y-128977755D01*
X93468370Y-128816119D01*
X93656119Y-128628370D01*
X93817755Y-128417722D01*
X93950514Y-128187778D01*
X94052122Y-127942473D01*
X94120843Y-127686003D01*
X94155500Y-127422758D01*
X94155500Y-127157242D01*
X94120843Y-126893997D01*
X94052122Y-126637527D01*
X93950514Y-126392222D01*
X93817755Y-126162278D01*
X93656119Y-125951630D01*
X93468370Y-125763881D01*
X93257724Y-125602246D01*
X93257718Y-125602242D01*
X93027777Y-125469485D01*
X93027769Y-125469482D01*
X92782476Y-125367879D01*
X92782465Y-125367875D01*
X92562823Y-125309022D01*
X92526003Y-125299157D01*
X92526001Y-125299156D01*
X92525995Y-125299155D01*
X92525996Y-125299155D01*
X92314415Y-125271300D01*
X92262758Y-125264500D01*
X91997242Y-125264500D01*
X91950200Y-125270693D01*
X91734003Y-125299155D01*
X91477534Y-125367875D01*
X91477523Y-125367879D01*
X91232230Y-125469482D01*
X91232222Y-125469485D01*
X91002281Y-125602242D01*
X91002275Y-125602246D01*
X90791629Y-125763881D01*
X90603881Y-125951629D01*
X90442246Y-126162275D01*
X90442242Y-126162281D01*
X90309485Y-126392222D01*
X90309482Y-126392230D01*
X90207879Y-126637523D01*
X90207875Y-126637534D01*
X90139155Y-126894003D01*
X90104500Y-127157243D01*
X89900500Y-127157243D01*
X89900500Y-109874500D01*
X89922174Y-109822174D01*
X89974500Y-109800500D01*
X95565891Y-109800500D01*
X95565892Y-109800500D01*
X95693186Y-109766392D01*
X95693190Y-109766389D01*
X95697181Y-109764737D01*
X95753818Y-109764737D01*
X95793867Y-109804785D01*
X95799500Y-109833104D01*
X95799500Y-111972084D01*
X95777826Y-112024410D01*
X91784306Y-116017930D01*
X91673239Y-116170800D01*
X91587449Y-116339175D01*
X91529062Y-116518871D01*
X91529059Y-116518884D01*
X91499500Y-116705518D01*
X91499500Y-116894481D01*
X91529059Y-117081115D01*
X91529062Y-117081128D01*
X91587449Y-117260824D01*
X91673239Y-117429199D01*
X91784306Y-117582069D01*
X91784310Y-117582074D01*
X91917926Y-117715690D01*
X91917929Y-117715692D01*
X91917930Y-117715693D01*
X92070800Y-117826760D01*
X92150517Y-117867377D01*
X92239168Y-117912547D01*
X92239171Y-117912547D01*
X92239175Y-117912550D01*
X92418871Y-117970937D01*
X92418877Y-117970938D01*
X92418882Y-117970940D01*
X92543306Y-117990646D01*
X92605518Y-118000500D01*
X92605519Y-118000500D01*
X92794482Y-118000500D01*
X92841140Y-117993110D01*
X92981118Y-117970940D01*
X92981125Y-117970937D01*
X92981128Y-117970937D01*
X93160824Y-117912550D01*
X93160826Y-117912548D01*
X93160832Y-117912547D01*
X93329199Y-117826760D01*
X93482074Y-117715690D01*
X97915690Y-113282074D01*
X98026760Y-113129199D01*
X98112547Y-112960832D01*
X98170940Y-112781118D01*
X98200500Y-112594482D01*
X98200500Y-112405519D01*
X98200500Y-109105519D01*
X98200500Y-105131007D01*
X98699500Y-105131007D01*
X98699500Y-109968993D01*
X98708391Y-110013694D01*
X98726418Y-110104322D01*
X98726421Y-110104332D01*
X98779223Y-110231808D01*
X98779224Y-110231810D01*
X98779225Y-110231811D01*
X98855886Y-110346542D01*
X98953458Y-110444114D01*
X99068189Y-110520775D01*
X99195672Y-110573580D01*
X99331007Y-110600500D01*
X99331009Y-110600500D01*
X99468991Y-110600500D01*
X99468993Y-110600500D01*
X99604328Y-110573580D01*
X99731811Y-110520775D01*
X99846542Y-110444114D01*
X99944114Y-110346542D01*
X100020775Y-110231811D01*
X100073580Y-110104328D01*
X100100500Y-109968993D01*
X100100500Y-105520809D01*
X100122174Y-105468483D01*
X103544113Y-102046544D01*
X103544114Y-102046543D01*
X103620775Y-101931811D01*
X103673580Y-101804328D01*
X103700500Y-101668994D01*
X103700500Y-101531006D01*
X103700500Y-100131007D01*
X103673580Y-99995672D01*
X103620775Y-99868189D01*
X103544114Y-99753458D01*
X103446542Y-99655886D01*
X103331811Y-99579225D01*
X103331810Y-99579224D01*
X103331808Y-99579223D01*
X103204332Y-99526421D01*
X103204322Y-99526418D01*
X103113694Y-99508391D01*
X103068993Y-99499500D01*
X102931007Y-99499500D01*
X102892642Y-99507131D01*
X102795677Y-99526418D01*
X102795667Y-99526421D01*
X102668191Y-99579223D01*
X102553461Y-99655883D01*
X102455883Y-99753461D01*
X102379223Y-99868191D01*
X102326421Y-99995667D01*
X102326418Y-99995677D01*
X102299500Y-100131008D01*
X102299500Y-101279191D01*
X102277826Y-101331517D01*
X98855887Y-104753456D01*
X98855885Y-104753457D01*
X98779224Y-104868189D01*
X98726421Y-104995667D01*
X98726418Y-104995677D01*
X98703945Y-105108656D01*
X98699500Y-105131007D01*
X98200500Y-105131007D01*
X98200500Y-100257936D01*
X98222174Y-100205610D01*
X98274500Y-100183936D01*
X98326826Y-100205610D01*
X98336026Y-100216820D01*
X98355886Y-100246543D01*
X98453457Y-100344114D01*
X98568189Y-100420775D01*
X98695672Y-100473580D01*
X98831006Y-100500500D01*
X98831008Y-100500500D01*
X98968992Y-100500500D01*
X98968994Y-100500500D01*
X99104328Y-100473580D01*
X99231811Y-100420775D01*
X99346543Y-100344114D01*
X100444114Y-99246543D01*
X100520775Y-99131811D01*
X100573580Y-99004328D01*
X100600500Y-98868994D01*
X100600500Y-98731006D01*
X100600500Y-82622157D01*
X100622174Y-82569831D01*
X100674500Y-82548157D01*
X101622554Y-82548157D01*
X101622556Y-82548157D01*
X101757890Y-82521237D01*
X101885373Y-82468432D01*
X102000105Y-82391771D01*
X103844114Y-80547762D01*
X103913893Y-80443329D01*
X103920775Y-80433030D01*
X103973580Y-80305547D01*
X104000500Y-80170212D01*
X104000500Y-77769025D01*
X104022174Y-77716699D01*
X104074500Y-77695025D01*
X104126826Y-77716699D01*
G37*
%TD.AperFunction*%
%TA.AperFunction,Conductor*%
G36*
X110077826Y-61722174D02*
G01*
X110099500Y-61774500D01*
X110099500Y-62980191D01*
X110077826Y-63032517D01*
X110025500Y-63054191D01*
X109973174Y-63032517D01*
X109296542Y-62355885D01*
X109181810Y-62279224D01*
X109054332Y-62226421D01*
X109054322Y-62226418D01*
X108963695Y-62208391D01*
X108918994Y-62199500D01*
X108781006Y-62199500D01*
X108742640Y-62207131D01*
X108645677Y-62226418D01*
X108645667Y-62226421D01*
X108518189Y-62279224D01*
X108403457Y-62355885D01*
X108403456Y-62355887D01*
X108305887Y-62453456D01*
X108305885Y-62453457D01*
X108229224Y-62568189D01*
X108176421Y-62695667D01*
X108176418Y-62695677D01*
X108158168Y-62787430D01*
X108149500Y-62831006D01*
X108149500Y-62968994D01*
X108158391Y-63013695D01*
X108176418Y-63104322D01*
X108176421Y-63104332D01*
X108229224Y-63231810D01*
X108305885Y-63346542D01*
X108877826Y-63918483D01*
X108899500Y-63970809D01*
X108899500Y-68560080D01*
X108877826Y-68612406D01*
X108647406Y-68842826D01*
X108595080Y-68864500D01*
X106996864Y-68864500D01*
X106944538Y-68842826D01*
X106922864Y-68790500D01*
X106944538Y-68738174D01*
X107015685Y-68667027D01*
X107015690Y-68667022D01*
X107126760Y-68514147D01*
X107212547Y-68345780D01*
X107270940Y-68166066D01*
X107300500Y-67979430D01*
X107300500Y-67790467D01*
X107300500Y-64384249D01*
X107270940Y-64197612D01*
X107270938Y-64197607D01*
X107270937Y-64197601D01*
X107212550Y-64017905D01*
X107212547Y-64017901D01*
X107212547Y-64017898D01*
X107126760Y-63849531D01*
X107104723Y-63819200D01*
X107015690Y-63696656D01*
X105593344Y-62274310D01*
X105593341Y-62274307D01*
X105593339Y-62274306D01*
X105440469Y-62163239D01*
X105272094Y-62077449D01*
X105092398Y-62019062D01*
X105092385Y-62019059D01*
X104905752Y-61989500D01*
X104905751Y-61989500D01*
X100605519Y-61989500D01*
X100605518Y-61989500D01*
X100418884Y-62019059D01*
X100418871Y-62019062D01*
X100239170Y-62077451D01*
X100239166Y-62077453D01*
X100070800Y-62163239D01*
X99917928Y-62274308D01*
X99084314Y-63107921D01*
X99084306Y-63107930D01*
X98973239Y-63260800D01*
X98887449Y-63429175D01*
X98829062Y-63608871D01*
X98829059Y-63608884D01*
X98799500Y-63795518D01*
X98799500Y-63984481D01*
X98829059Y-64171115D01*
X98829062Y-64171128D01*
X98887449Y-64350824D01*
X98973239Y-64519199D01*
X99084306Y-64672069D01*
X99084310Y-64672074D01*
X99217926Y-64805690D01*
X99217929Y-64805692D01*
X99217930Y-64805693D01*
X99370800Y-64916760D01*
X99450517Y-64957377D01*
X99539168Y-65002547D01*
X99539171Y-65002547D01*
X99539175Y-65002550D01*
X99718871Y-65060937D01*
X99718877Y-65060938D01*
X99718882Y-65060940D01*
X99843306Y-65080646D01*
X99905518Y-65090500D01*
X99905519Y-65090500D01*
X100094482Y-65090500D01*
X100141140Y-65083110D01*
X100281118Y-65060940D01*
X100281125Y-65060937D01*
X100281128Y-65060937D01*
X100460824Y-65002550D01*
X100460826Y-65002548D01*
X100460832Y-65002547D01*
X100629199Y-64916760D01*
X100782074Y-64805690D01*
X101175590Y-64412174D01*
X101227916Y-64390500D01*
X103023085Y-64390500D01*
X103075411Y-64412174D01*
X103097085Y-64464500D01*
X103075411Y-64516825D01*
X102589689Y-65002547D01*
X102114410Y-65477826D01*
X102062084Y-65499500D01*
X97225549Y-65499500D01*
X97173223Y-65477826D01*
X96076506Y-64381109D01*
X96076501Y-64381104D01*
X96076498Y-64381101D01*
X96076496Y-64381100D01*
X95923626Y-64270033D01*
X95755251Y-64184243D01*
X95575555Y-64125856D01*
X95575542Y-64125853D01*
X95388909Y-64096294D01*
X95388908Y-64096294D01*
X95199945Y-64096294D01*
X95199944Y-64096294D01*
X95013311Y-64125853D01*
X95013298Y-64125856D01*
X94833602Y-64184243D01*
X94665227Y-64270033D01*
X94512357Y-64381100D01*
X91984306Y-66909151D01*
X91940637Y-66969258D01*
X91873239Y-67062021D01*
X91787449Y-67230396D01*
X91729062Y-67410092D01*
X91729059Y-67410105D01*
X91699500Y-67596739D01*
X91699500Y-78494481D01*
X91729059Y-78681115D01*
X91729062Y-78681128D01*
X91787449Y-78860824D01*
X91873239Y-79029199D01*
X91984306Y-79182069D01*
X91984310Y-79182074D01*
X92117926Y-79315690D01*
X92117929Y-79315692D01*
X92117930Y-79315693D01*
X92270800Y-79426760D01*
X92350517Y-79467377D01*
X92439168Y-79512547D01*
X92439171Y-79512547D01*
X92439175Y-79512550D01*
X92618871Y-79570937D01*
X92618877Y-79570938D01*
X92618882Y-79570940D01*
X92743306Y-79590646D01*
X92805518Y-79600500D01*
X92805519Y-79600500D01*
X92994482Y-79600500D01*
X93041140Y-79593110D01*
X93181118Y-79570940D01*
X93181125Y-79570937D01*
X93181128Y-79570937D01*
X93360824Y-79512550D01*
X93360826Y-79512548D01*
X93360832Y-79512547D01*
X93529199Y-79426760D01*
X93682074Y-79315690D01*
X93682073Y-79315690D01*
X93683529Y-79314633D01*
X93727025Y-79300500D01*
X95072084Y-79300500D01*
X95124410Y-79322174D01*
X95777826Y-79975590D01*
X95799500Y-80027916D01*
X95799500Y-80166896D01*
X95777826Y-80219222D01*
X95725500Y-80240896D01*
X95697183Y-80235264D01*
X95693181Y-80233606D01*
X95565894Y-80199500D01*
X95565892Y-80199500D01*
X89974500Y-80199500D01*
X89922174Y-80177826D01*
X89900500Y-80125500D01*
X89900500Y-63776236D01*
X90684500Y-63776236D01*
X90684500Y-64003763D01*
X90720092Y-64228486D01*
X90720095Y-64228499D01*
X90790399Y-64444873D01*
X90893696Y-64647606D01*
X91008547Y-64805685D01*
X91027434Y-64831680D01*
X91188320Y-64992566D01*
X91188323Y-64992568D01*
X91188324Y-64992569D01*
X91282429Y-65060940D01*
X91372393Y-65126303D01*
X91575121Y-65229598D01*
X91575123Y-65229598D01*
X91575126Y-65229600D01*
X91791500Y-65299904D01*
X91791506Y-65299905D01*
X91791511Y-65299907D01*
X91941328Y-65323635D01*
X92016236Y-65335500D01*
X92016237Y-65335500D01*
X92243764Y-65335500D01*
X92299944Y-65326601D01*
X92468489Y-65299907D01*
X92468496Y-65299904D01*
X92468499Y-65299904D01*
X92684873Y-65229600D01*
X92684873Y-65229599D01*
X92684879Y-65229598D01*
X92887607Y-65126303D01*
X93071680Y-64992566D01*
X93232566Y-64831680D01*
X93366303Y-64647607D01*
X93469598Y-64444879D01*
X93469600Y-64444873D01*
X93539904Y-64228499D01*
X93539904Y-64228496D01*
X93539907Y-64228489D01*
X93575500Y-64003763D01*
X93575500Y-63776237D01*
X93539907Y-63551511D01*
X93539905Y-63551506D01*
X93539904Y-63551500D01*
X93469600Y-63335126D01*
X93469598Y-63335123D01*
X93469598Y-63335121D01*
X93366303Y-63132393D01*
X93232566Y-62948320D01*
X93071680Y-62787434D01*
X93071677Y-62787431D01*
X93071675Y-62787430D01*
X92887606Y-62653696D01*
X92684873Y-62550399D01*
X92468499Y-62480095D01*
X92468486Y-62480092D01*
X92243764Y-62444500D01*
X92243763Y-62444500D01*
X92016237Y-62444500D01*
X92016236Y-62444500D01*
X91791513Y-62480092D01*
X91791500Y-62480095D01*
X91575126Y-62550399D01*
X91372393Y-62653696D01*
X91188324Y-62787430D01*
X91027430Y-62948324D01*
X90893696Y-63132393D01*
X90790399Y-63335126D01*
X90720095Y-63551500D01*
X90720092Y-63551513D01*
X90684500Y-63776236D01*
X89900500Y-63776236D01*
X89900500Y-61774500D01*
X89922174Y-61722174D01*
X89974500Y-61700500D01*
X110025500Y-61700500D01*
X110077826Y-61722174D01*
G37*
%TD.AperFunction*%
%TA.AperFunction,Conductor*%
G36*
X110077826Y-69498372D02*
G01*
X110099500Y-69550698D01*
X110099500Y-76721080D01*
X110077826Y-76773406D01*
X110025500Y-76795080D01*
X109973174Y-76773406D01*
X107405087Y-74205319D01*
X107383413Y-74152993D01*
X107405087Y-74100667D01*
X107457413Y-74078993D01*
X107471870Y-74080419D01*
X107473991Y-74080841D01*
X107473997Y-74080843D01*
X107474002Y-74080843D01*
X107474004Y-74080844D01*
X107534418Y-74088797D01*
X107737242Y-74115500D01*
X107737244Y-74115500D01*
X108002756Y-74115500D01*
X108002758Y-74115500D01*
X108205581Y-74088797D01*
X108265996Y-74080844D01*
X108265996Y-74080843D01*
X108266003Y-74080843D01*
X108522473Y-74012122D01*
X108767778Y-73910514D01*
X108997722Y-73777755D01*
X109208370Y-73616119D01*
X109396119Y-73428370D01*
X109557755Y-73217722D01*
X109690514Y-72987778D01*
X109792122Y-72742473D01*
X109860843Y-72486003D01*
X109895500Y-72222758D01*
X109895500Y-71957242D01*
X109878421Y-71827517D01*
X109860844Y-71694003D01*
X109860843Y-71694001D01*
X109860843Y-71693997D01*
X109792122Y-71437527D01*
X109690514Y-71192222D01*
X109557755Y-70962278D01*
X109525767Y-70920591D01*
X109396118Y-70751629D01*
X109208370Y-70563881D01*
X108997724Y-70402246D01*
X108997720Y-70402243D01*
X108988542Y-70396944D01*
X108954066Y-70352008D01*
X108961462Y-70295856D01*
X109006398Y-70261380D01*
X109011079Y-70260289D01*
X109120217Y-70238580D01*
X109247700Y-70185775D01*
X109362432Y-70109114D01*
X109973174Y-69498372D01*
X110025500Y-69476698D01*
X110077826Y-69498372D01*
G37*
%TD.AperFunction*%
%TA.AperFunction,Conductor*%
G36*
X95346753Y-67046884D02*
G01*
X95915559Y-67615690D01*
X95915562Y-67615692D01*
X95915563Y-67615693D01*
X96068433Y-67726760D01*
X96148150Y-67767377D01*
X96236801Y-67812547D01*
X96236804Y-67812547D01*
X96236808Y-67812550D01*
X96416504Y-67870937D01*
X96416510Y-67870938D01*
X96416515Y-67870940D01*
X96540939Y-67890646D01*
X96603151Y-67900500D01*
X96603152Y-67900500D01*
X96789810Y-67900500D01*
X96842136Y-67922174D01*
X96863810Y-67974500D01*
X96842136Y-68026826D01*
X96169438Y-68699525D01*
X96099525Y-68769437D01*
X96050090Y-68855062D01*
X96024690Y-68949857D01*
X96024685Y-68949874D01*
X96024501Y-68950559D01*
X96024500Y-68950568D01*
X96024500Y-72068863D01*
X96002826Y-72121189D01*
X95991613Y-72130391D01*
X95953463Y-72155881D01*
X95855883Y-72253461D01*
X95779223Y-72368191D01*
X95726421Y-72495667D01*
X95726418Y-72495677D01*
X95699500Y-72631008D01*
X95699500Y-72768991D01*
X95726418Y-72904322D01*
X95726421Y-72904332D01*
X95779223Y-73031808D01*
X95795655Y-73056401D01*
X95855886Y-73146542D01*
X95953458Y-73244114D01*
X95953461Y-73244116D01*
X96019843Y-73288471D01*
X96051309Y-73335563D01*
X96040260Y-73391112D01*
X96019843Y-73411529D01*
X95953461Y-73455883D01*
X95855883Y-73553461D01*
X95779223Y-73668191D01*
X95726421Y-73795667D01*
X95726418Y-73795677D01*
X95699500Y-73931008D01*
X95699500Y-75118992D01*
X95726418Y-75254322D01*
X95726421Y-75254332D01*
X95779224Y-75381810D01*
X95779225Y-75381811D01*
X95855886Y-75496543D01*
X96436371Y-76077027D01*
X96458045Y-76129353D01*
X96436371Y-76181679D01*
X96384045Y-76203353D01*
X96364898Y-76200833D01*
X96359922Y-76199500D01*
X96359919Y-76199500D01*
X95367256Y-76199500D01*
X95314930Y-76177826D01*
X94972174Y-75835070D01*
X94950500Y-75782744D01*
X94950500Y-72740539D01*
X94960416Y-72703536D01*
X94966392Y-72693186D01*
X95000500Y-72565892D01*
X95000500Y-72434108D01*
X95000500Y-72434106D01*
X95000499Y-72434105D01*
X94966393Y-72306818D01*
X94966392Y-72306814D01*
X94900500Y-72192686D01*
X94807314Y-72099500D01*
X94772195Y-72079224D01*
X94693190Y-72033610D01*
X94693181Y-72033606D01*
X94565894Y-71999500D01*
X94565892Y-71999500D01*
X94434108Y-71999500D01*
X94434106Y-71999500D01*
X94306818Y-72033606D01*
X94306809Y-72033610D01*
X94211500Y-72088637D01*
X94155347Y-72096029D01*
X94110414Y-72061551D01*
X94100500Y-72024551D01*
X94100500Y-68219137D01*
X94122174Y-68166811D01*
X95242101Y-67046884D01*
X95294427Y-67025210D01*
X95346753Y-67046884D01*
G37*
%TD.AperFunction*%
%TA.AperFunction,Conductor*%
G36*
X96901826Y-71668194D02*
G01*
X96911025Y-71679403D01*
X96955886Y-71746542D01*
X97053458Y-71844114D01*
X97168189Y-71920775D01*
X97295672Y-71973580D01*
X97431007Y-72000500D01*
X100479191Y-72000500D01*
X100531517Y-72022174D01*
X101222826Y-72713483D01*
X101244500Y-72765809D01*
X101244500Y-74474951D01*
X101222826Y-74527277D01*
X101170500Y-74548951D01*
X101142183Y-74543319D01*
X101121187Y-74534623D01*
X101101384Y-74526420D01*
X101101382Y-74526419D01*
X101101378Y-74526418D01*
X101010751Y-74508391D01*
X100966050Y-74499500D01*
X100966049Y-74499500D01*
X100966048Y-74499500D01*
X98567864Y-74499500D01*
X98515538Y-74477826D01*
X98322174Y-74284461D01*
X98300500Y-74232135D01*
X98300500Y-73433952D01*
X98273581Y-73298621D01*
X98273580Y-73298620D01*
X98273580Y-73298616D01*
X98269378Y-73288471D01*
X98220777Y-73171137D01*
X98220776Y-73171135D01*
X98220775Y-73171133D01*
X98155343Y-73073207D01*
X98144114Y-73056401D01*
X97243599Y-72155886D01*
X97172557Y-72108417D01*
X97128866Y-72079224D01*
X97001388Y-72026421D01*
X97001378Y-72026418D01*
X96910751Y-72008391D01*
X96866050Y-71999500D01*
X96866049Y-71999500D01*
X96866048Y-71999500D01*
X96849500Y-71999500D01*
X96797174Y-71977826D01*
X96775500Y-71925500D01*
X96775500Y-71720520D01*
X96797174Y-71668194D01*
X96849500Y-71646520D01*
X96901826Y-71668194D01*
G37*
%TD.AperFunction*%
%TA.AperFunction,Conductor*%
G36*
X103585357Y-68597174D02*
G01*
X103607031Y-68649500D01*
X103585357Y-68701826D01*
X102862927Y-69424258D01*
X102729306Y-69557879D01*
X102618239Y-69710749D01*
X102532449Y-69879123D01*
X102474062Y-70058819D01*
X102474059Y-70058832D01*
X102444500Y-70245466D01*
X102444500Y-71775191D01*
X102422826Y-71827517D01*
X102370500Y-71849191D01*
X102318174Y-71827517D01*
X101246542Y-70755885D01*
X101131810Y-70679224D01*
X101004332Y-70626421D01*
X101004322Y-70626418D01*
X100913695Y-70608391D01*
X100868994Y-70599500D01*
X100868993Y-70599500D01*
X97431007Y-70599500D01*
X97392642Y-70607131D01*
X97295677Y-70626418D01*
X97295667Y-70626421D01*
X97168191Y-70679223D01*
X97053461Y-70755883D01*
X96955883Y-70853461D01*
X96911029Y-70920591D01*
X96863936Y-70952057D01*
X96808388Y-70941008D01*
X96776922Y-70893915D01*
X96775500Y-70879479D01*
X96775500Y-69186189D01*
X96797174Y-69133863D01*
X97333864Y-68597174D01*
X97386190Y-68575500D01*
X103533031Y-68575500D01*
X103585357Y-68597174D01*
G37*
%TD.AperFunction*%
%TD*%
M02*
