M48
; DRILL file KiCad 10.0.1 date 2026-05-29T10:43:56
; FORMAT={-:-/ absolute / metric / decimal}
; #@! TF.CreationDate,2026-05-29T10:43:56-05:00
; #@! TF.GenerationSoftware,Kicad,Pcbnew,10.0.1
; #@! TF.FileFunction,MixedPlating,1,2
FMAT,2
METRIC
; #@! TA.AperFunction,Plated,PTH,ViaDrill
T1C0.300
; #@! TA.AperFunction,Plated,PTH,ComponentDrill
T2C0.300
; #@! TA.AperFunction,Plated,PTH,ComponentDrill
T3C1.320
; #@! TA.AperFunction,NonPlated,NPTH,ComponentDrill
T4C2.390
; #@! TA.AperFunction,NonPlated,NPTH,ComponentDrill
T5C3.550
%
G90
G05
T1
X90.3Y-62.1
X90.3Y-65.8
X90.3Y-70.6
X90.3Y-79.8
X90.3Y-110.2
X90.3Y-118.7
X90.3Y-125.7
X90.3Y-137.9
X91.3Y-67.9
X91.3Y-72.1
X92.5Y-130.9
X92.7Y-116.8
X92.9Y-78.4
X93.0Y-123.8
X93.7Y-62.1
X94.0Y-131.0
X94.5Y-72.5
X94.6Y-79.8
X95.1Y-70.1
X95.294Y-65.297
X95.3Y-72.7
X95.4Y-110.2
X95.8Y-75.9
X96.4Y-72.7
X96.4Y-74.0
X96.4Y-137.9
X96.5Y-125.8
X96.8Y-130.2
X97.0Y-109.2
X97.1Y-117.5
X97.2Y-69.2
X97.5Y-71.3
X98.0Y-64.2
X98.0Y-123.8
X98.5Y-72.5
X98.7Y-98.1
X98.9Y-99.8
X99.4Y-109.9
X99.496Y-77.448
X100.0Y-74.2
X100.4Y-78.9
X100.9Y-107.0
X101.4Y-109.9
X102.3Y-137.9
X102.4Y-64.7
X103.0Y-100.2
X103.5Y-119.5
X103.703Y-89.6
X103.9Y-65.39
X103.9Y-132.8
X104.104Y-67.705
X104.4Y-137.1
X104.5Y-78.7
X105.1Y-82.3
X105.4Y-118.8
X106.0Y-137.1
X106.2Y-91.6
X107.599Y-137.1
X107.797Y-66.095
X107.9Y-128.0
X108.0Y-64.4
X108.0Y-120.1
X108.85Y-62.9
X109.0Y-75.1
X109.6Y-88.8
X109.6Y-91.6
X109.6Y-105.9
X109.7Y-62.1
X109.7Y-70.4
X109.7Y-111.2
X109.7Y-118.8
X109.7Y-127.9
X109.7Y-137.9
T2
X101.7Y-93.479
X101.7Y-94.569
X102.3Y-92.979
X102.3Y-94.029
X102.3Y-95.079
X102.8Y-93.479
X102.8Y-94.529
X103.35Y-92.979
X103.35Y-94.029
X103.35Y-95.079
X103.85Y-93.429
X103.85Y-94.579
T3
X100.0Y-63.89
X100.0Y-136.11
T4
X92.13Y-63.89
T5
X92.13Y-127.29
X107.87Y-72.09
M30
