G04 #@! TF.FileFunction,Copper,L1,Top,Signal*
%FSLAX46Y46*%
G04 Gerber Fmt 4.6, Leading zero omitted, Abs format (unit mm)*
G04 Created by KiCad (PCBNEW 4.0.7) date 02/15/19 15:12:50*
%MOMM*%
%LPD*%
G01*
G04 APERTURE LIST*
%ADD10C,0.100000*%
%ADD11C,2.500000*%
%ADD12O,1.998980X1.998980*%
%ADD13R,1.998980X1.998980*%
%ADD14C,2.300000*%
G04 APERTURE END LIST*
D10*
D11*
X125336000Y-85919000D03*
X125336000Y-78419000D03*
X145636000Y-85919000D03*
X149136000Y-78419000D03*
X142136000Y-78419000D03*
X125336000Y-99381000D03*
X125336000Y-91881000D03*
X145636000Y-99381000D03*
X149136000Y-91881000D03*
X142136000Y-91881000D03*
D12*
X155702000Y-86360000D03*
D13*
X155702000Y-93980000D03*
D12*
X155702000Y-91440000D03*
X155702000Y-88900000D03*
X155702000Y-83820000D03*
X119380000Y-91440000D03*
D13*
X119380000Y-86360000D03*
D12*
X119380000Y-88900000D03*
D14*
X126585999Y-87215999D02*
X131251000Y-91881000D01*
X131251000Y-91881000D02*
X142136000Y-91881000D01*
X125336000Y-85919000D02*
X126585999Y-87168999D01*
X126585999Y-87168999D02*
X126585999Y-87215999D01*
X119380000Y-86360000D02*
X124895000Y-86360000D01*
X124895000Y-86360000D02*
X125336000Y-85919000D01*
X153416000Y-82296000D02*
X128959000Y-82296000D01*
X128959000Y-82296000D02*
X125336000Y-85919000D01*
X155702000Y-83820000D02*
X154940000Y-83820000D01*
X154940000Y-83820000D02*
X153416000Y-82296000D01*
X119380000Y-88900000D02*
X122355000Y-88900000D01*
X122355000Y-88900000D02*
X125336000Y-91881000D01*
X149136000Y-91881000D02*
X154657000Y-86360000D01*
X154657000Y-86360000D02*
X155702000Y-86360000D01*
X119380000Y-91440000D02*
X123698000Y-95758000D01*
X123698000Y-95758000D02*
X154940000Y-95758000D01*
X154940000Y-95758000D02*
X155702000Y-94996000D01*
X155702000Y-94996000D02*
X155702000Y-93980000D01*
M02*
