%TF.GenerationSoftware,KiCad,Pcbnew,(5.1.10)-1*%
%TF.CreationDate,2022-08-28T21:22:16-05:00*%
%TF.ProjectId,AC Logic Board,4143204c-6f67-4696-9320-426f6172642e,rev?*%
%TF.SameCoordinates,Original*%
%TF.FileFunction,Copper,L1,Top*%
%TF.FilePolarity,Positive*%
%FSLAX46Y46*%
G04 Gerber Fmt 4.6, Leading zero omitted, Abs format (unit mm)*
G04 Created by KiCad (PCBNEW (5.1.10)-1) date 2022-08-28 21:22:16*
%MOMM*%
%LPD*%
G01*
G04 APERTURE LIST*
%TA.AperFunction,ComponentPad*%
%ADD10C,2.500000*%
%TD*%
%TA.AperFunction,ComponentPad*%
%ADD11O,1.998980X1.998980*%
%TD*%
%TA.AperFunction,ComponentPad*%
%ADD12R,1.998980X1.998980*%
%TD*%
%TA.AperFunction,Conductor*%
%ADD13C,2.300000*%
%TD*%
G04 APERTURE END LIST*
D10*
%TO.P,RLY1,A2*%
%TO.N,A*%
X125336000Y-85919000D03*
%TO.P,RLY1,A1*%
%TO.N,COMMON*%
X125336000Y-78419000D03*
%TO.P,RLY1,11*%
%TO.N,AND*%
X145636000Y-85919000D03*
%TO.P,RLY1,14*%
%TO.N,B*%
X149136000Y-78419000D03*
%TO.P,RLY1,12*%
%TO.N,Net-(RLY1-Pad12)*%
X142136000Y-78419000D03*
%TD*%
%TO.P,RLY2,A2*%
%TO.N,COMMON*%
X125336000Y-99381000D03*
%TO.P,RLY2,A1*%
%TO.N,B*%
X125336000Y-91881000D03*
%TO.P,RLY2,11*%
%TO.N,OR*%
X145636000Y-99381000D03*
%TO.P,RLY2,14*%
%TO.N,B*%
X149136000Y-91881000D03*
%TO.P,RLY2,12*%
%TO.N,A*%
X142136000Y-91881000D03*
%TD*%
D11*
%TO.P,J2,4*%
%TO.N,B*%
X155702000Y-86360000D03*
D12*
%TO.P,J2,1*%
%TO.N,COMMON*%
X155702000Y-93980000D03*
D11*
%TO.P,J2,2*%
%TO.N,OR*%
X155702000Y-91440000D03*
%TO.P,J2,3*%
%TO.N,AND*%
X155702000Y-88900000D03*
%TO.P,J2,5*%
%TO.N,A*%
X155702000Y-83820000D03*
%TD*%
%TO.P,J1,3*%
%TO.N,COMMON*%
X119380000Y-91440000D03*
D12*
%TO.P,J1,1*%
%TO.N,A*%
X119380000Y-86360000D03*
D11*
%TO.P,J1,2*%
%TO.N,B*%
X119380000Y-88900000D03*
%TD*%
D13*
%TO.N,A*%
X126585999Y-87215999D02*
X131251000Y-91881000D01*
X131251000Y-91881000D02*
X142136000Y-91881000D01*
X125336000Y-85919000D02*
X126585999Y-87168999D01*
X126585999Y-87168999D02*
X126585999Y-87215999D01*
X119380000Y-86360000D02*
X124895000Y-86360000D01*
X124895000Y-86360000D02*
X125336000Y-85919000D01*
X153416000Y-82296000D02*
X128959000Y-82296000D01*
X128959000Y-82296000D02*
X125336000Y-85919000D01*
X155702000Y-83820000D02*
X154940000Y-83820000D01*
X154940000Y-83820000D02*
X153416000Y-82296000D01*
%TO.N,B*%
X119380000Y-88900000D02*
X122355000Y-88900000D01*
X122355000Y-88900000D02*
X125336000Y-91881000D01*
X149136000Y-91881000D02*
X154657000Y-86360000D01*
X154657000Y-86360000D02*
X155702000Y-86360000D01*
%TO.N,COMMON*%
X119380000Y-91440000D02*
X123698000Y-95758000D01*
X123698000Y-95758000D02*
X154940000Y-95758000D01*
X154940000Y-95758000D02*
X155702000Y-94996000D01*
X155702000Y-94996000D02*
X155702000Y-93980000D01*
%TD*%
M02*
