G04 #@! TF.FileFunction,Legend,Top*
%FSLAX46Y46*%
G04 Gerber Fmt 4.6, Leading zero omitted, Abs format (unit mm)*
G04 Created by KiCad (PCBNEW 4.0.7) date 02/15/19 15:12:50*
%MOMM*%
%LPD*%
G01*
G04 APERTURE LIST*
%ADD10C,0.100000*%
%ADD11C,0.150000*%
%ADD12C,0.200000*%
G04 APERTURE END LIST*
D10*
X154359332Y-75883333D02*
X154392666Y-75850000D01*
X154459332Y-75816667D01*
X154625999Y-75816667D01*
X154692666Y-75850000D01*
X154725999Y-75883333D01*
X154759332Y-75950000D01*
X154759332Y-76016667D01*
X154725999Y-76116667D01*
X154325999Y-76516667D01*
X154759332Y-76516667D01*
X155192666Y-75816667D02*
X155259333Y-75816667D01*
X155325999Y-75850000D01*
X155359333Y-75883333D01*
X155392666Y-75950000D01*
X155425999Y-76083333D01*
X155425999Y-76250000D01*
X155392666Y-76383333D01*
X155359333Y-76450000D01*
X155325999Y-76483333D01*
X155259333Y-76516667D01*
X155192666Y-76516667D01*
X155125999Y-76483333D01*
X155092666Y-76450000D01*
X155059333Y-76383333D01*
X155025999Y-76250000D01*
X155025999Y-76083333D01*
X155059333Y-75950000D01*
X155092666Y-75883333D01*
X155125999Y-75850000D01*
X155192666Y-75816667D01*
X156092666Y-76516667D02*
X155692666Y-76516667D01*
X155892666Y-76516667D02*
X155892666Y-75816667D01*
X155826000Y-75916667D01*
X155759333Y-75983333D01*
X155692666Y-76016667D01*
X156426000Y-76516667D02*
X156559333Y-76516667D01*
X156626000Y-76483333D01*
X156659333Y-76450000D01*
X156726000Y-76350000D01*
X156759333Y-76216667D01*
X156759333Y-75950000D01*
X156726000Y-75883333D01*
X156692667Y-75850000D01*
X156626000Y-75816667D01*
X156492667Y-75816667D01*
X156426000Y-75850000D01*
X156392667Y-75883333D01*
X156359333Y-75950000D01*
X156359333Y-76116667D01*
X156392667Y-76183333D01*
X156426000Y-76216667D01*
X156492667Y-76250000D01*
X156626000Y-76250000D01*
X156692667Y-76216667D01*
X156726000Y-76183333D01*
X156759333Y-76116667D01*
X157059334Y-76450000D02*
X157092667Y-76483333D01*
X157059334Y-76516667D01*
X157026000Y-76483333D01*
X157059334Y-76450000D01*
X157059334Y-76516667D01*
X157526000Y-75816667D02*
X157592667Y-75816667D01*
X157659333Y-75850000D01*
X157692667Y-75883333D01*
X157726000Y-75950000D01*
X157759333Y-76083333D01*
X157759333Y-76250000D01*
X157726000Y-76383333D01*
X157692667Y-76450000D01*
X157659333Y-76483333D01*
X157592667Y-76516667D01*
X157526000Y-76516667D01*
X157459333Y-76483333D01*
X157426000Y-76450000D01*
X157392667Y-76383333D01*
X157359333Y-76250000D01*
X157359333Y-76083333D01*
X157392667Y-75950000D01*
X157426000Y-75883333D01*
X157459333Y-75850000D01*
X157526000Y-75816667D01*
X158026000Y-75883333D02*
X158059334Y-75850000D01*
X158126000Y-75816667D01*
X158292667Y-75816667D01*
X158359334Y-75850000D01*
X158392667Y-75883333D01*
X158426000Y-75950000D01*
X158426000Y-76016667D01*
X158392667Y-76116667D01*
X157992667Y-76516667D01*
X158426000Y-76516667D01*
X158726001Y-76450000D02*
X158759334Y-76483333D01*
X158726001Y-76516667D01*
X158692667Y-76483333D01*
X158726001Y-76450000D01*
X158726001Y-76516667D01*
X159426000Y-76516667D02*
X159026000Y-76516667D01*
X159226000Y-76516667D02*
X159226000Y-75816667D01*
X159159334Y-75916667D01*
X159092667Y-75983333D01*
X159026000Y-76016667D01*
X160059334Y-75816667D02*
X159726001Y-75816667D01*
X159692667Y-76150000D01*
X159726001Y-76116667D01*
X159792667Y-76083333D01*
X159959334Y-76083333D01*
X160026001Y-76116667D01*
X160059334Y-76150000D01*
X160092667Y-76216667D01*
X160092667Y-76383333D01*
X160059334Y-76450000D01*
X160026001Y-76483333D01*
X159959334Y-76516667D01*
X159792667Y-76516667D01*
X159726001Y-76483333D01*
X159692667Y-76450000D01*
D11*
X117157715Y-80006857D02*
X117443429Y-80806857D01*
X117729143Y-80006857D01*
X118814858Y-80806857D02*
X118129143Y-80806857D01*
X118472001Y-80806857D02*
X118472001Y-79606857D01*
X118357715Y-79778286D01*
X118243429Y-79892571D01*
X118129143Y-79949714D01*
X119329143Y-80692571D02*
X119386286Y-80749714D01*
X119329143Y-80806857D01*
X119272000Y-80749714D01*
X119329143Y-80692571D01*
X119329143Y-80806857D01*
X120529144Y-80806857D02*
X119843429Y-80806857D01*
X120186287Y-80806857D02*
X120186287Y-79606857D01*
X120072001Y-79778286D01*
X119957715Y-79892571D01*
X119843429Y-79949714D01*
X115157714Y-77924000D02*
X115729143Y-77924000D01*
X115043429Y-78266857D02*
X115443429Y-77066857D01*
X115843429Y-78266857D01*
X116929143Y-78152571D02*
X116872000Y-78209714D01*
X116700571Y-78266857D01*
X116586285Y-78266857D01*
X116414857Y-78209714D01*
X116300571Y-78095429D01*
X116243428Y-77981143D01*
X116186285Y-77752571D01*
X116186285Y-77581143D01*
X116243428Y-77352571D01*
X116300571Y-77238286D01*
X116414857Y-77124000D01*
X116586285Y-77066857D01*
X116700571Y-77066857D01*
X116872000Y-77124000D01*
X116929143Y-77181143D01*
X118929143Y-78266857D02*
X118357714Y-78266857D01*
X118357714Y-77066857D01*
X119500572Y-78266857D02*
X119386286Y-78209714D01*
X119329143Y-78152571D01*
X119272000Y-78038286D01*
X119272000Y-77695429D01*
X119329143Y-77581143D01*
X119386286Y-77524000D01*
X119500572Y-77466857D01*
X119672000Y-77466857D01*
X119786286Y-77524000D01*
X119843429Y-77581143D01*
X119900572Y-77695429D01*
X119900572Y-78038286D01*
X119843429Y-78152571D01*
X119786286Y-78209714D01*
X119672000Y-78266857D01*
X119500572Y-78266857D01*
X120929143Y-77466857D02*
X120929143Y-78438286D01*
X120872000Y-78552571D01*
X120814857Y-78609714D01*
X120700572Y-78666857D01*
X120529143Y-78666857D01*
X120414857Y-78609714D01*
X120929143Y-78209714D02*
X120814857Y-78266857D01*
X120586286Y-78266857D01*
X120472000Y-78209714D01*
X120414857Y-78152571D01*
X120357714Y-78038286D01*
X120357714Y-77695429D01*
X120414857Y-77581143D01*
X120472000Y-77524000D01*
X120586286Y-77466857D01*
X120814857Y-77466857D01*
X120929143Y-77524000D01*
X121500571Y-78266857D02*
X121500571Y-77466857D01*
X121500571Y-77066857D02*
X121443428Y-77124000D01*
X121500571Y-77181143D01*
X121557714Y-77124000D01*
X121500571Y-77066857D01*
X121500571Y-77181143D01*
X122586286Y-78209714D02*
X122472000Y-78266857D01*
X122243429Y-78266857D01*
X122129143Y-78209714D01*
X122072000Y-78152571D01*
X122014857Y-78038286D01*
X122014857Y-77695429D01*
X122072000Y-77581143D01*
X122129143Y-77524000D01*
X122243429Y-77466857D01*
X122472000Y-77466857D01*
X122586286Y-77524000D01*
X160123143Y-95019714D02*
X160170762Y-95067333D01*
X160218381Y-95210190D01*
X160218381Y-95305428D01*
X160170762Y-95448286D01*
X160075524Y-95543524D01*
X159980286Y-95591143D01*
X159789810Y-95638762D01*
X159646952Y-95638762D01*
X159456476Y-95591143D01*
X159361238Y-95543524D01*
X159266000Y-95448286D01*
X159218381Y-95305428D01*
X159218381Y-95210190D01*
X159266000Y-95067333D01*
X159313619Y-95019714D01*
X159218381Y-94400667D02*
X159218381Y-94210190D01*
X159266000Y-94114952D01*
X159361238Y-94019714D01*
X159551714Y-93972095D01*
X159885048Y-93972095D01*
X160075524Y-94019714D01*
X160170762Y-94114952D01*
X160218381Y-94210190D01*
X160218381Y-94400667D01*
X160170762Y-94495905D01*
X160075524Y-94591143D01*
X159885048Y-94638762D01*
X159551714Y-94638762D01*
X159361238Y-94591143D01*
X159266000Y-94495905D01*
X159218381Y-94400667D01*
X160218381Y-93543524D02*
X159218381Y-93543524D01*
X159932667Y-93210190D01*
X159218381Y-92876857D01*
X160218381Y-92876857D01*
X160218381Y-91440000D02*
X159218381Y-91440000D01*
X160218381Y-88471428D02*
X160218381Y-88519047D01*
X160170762Y-88614285D01*
X160027905Y-88757142D01*
X159742190Y-88995237D01*
X159599333Y-89090476D01*
X159456476Y-89138095D01*
X159361238Y-89138095D01*
X159266000Y-89090476D01*
X159218381Y-88995237D01*
X159218381Y-88947618D01*
X159266000Y-88852380D01*
X159361238Y-88804761D01*
X159408857Y-88804761D01*
X159504095Y-88852380D01*
X159551714Y-88899999D01*
X159742190Y-89185714D01*
X159789810Y-89233333D01*
X159885048Y-89280952D01*
X160027905Y-89280952D01*
X160123143Y-89233333D01*
X160170762Y-89185714D01*
X160218381Y-89090476D01*
X160218381Y-88947618D01*
X160170762Y-88852380D01*
X160123143Y-88804761D01*
X159932667Y-88661904D01*
X159789810Y-88614285D01*
X159694571Y-88614285D01*
X159694571Y-86288571D02*
X159742190Y-86145714D01*
X159789810Y-86098095D01*
X159885048Y-86050476D01*
X160027905Y-86050476D01*
X160123143Y-86098095D01*
X160170762Y-86145714D01*
X160218381Y-86240952D01*
X160218381Y-86621905D01*
X159218381Y-86621905D01*
X159218381Y-86288571D01*
X159266000Y-86193333D01*
X159313619Y-86145714D01*
X159408857Y-86098095D01*
X159504095Y-86098095D01*
X159599333Y-86145714D01*
X159646952Y-86193333D01*
X159694571Y-86288571D01*
X159694571Y-86621905D01*
X159932667Y-84058095D02*
X159932667Y-83581904D01*
X160218381Y-84153333D02*
X159218381Y-83820000D01*
X160218381Y-83486666D01*
D12*
X152920285Y-97984571D02*
X153205999Y-97984571D01*
X153348857Y-98056000D01*
X153491714Y-98198857D01*
X153563142Y-98484571D01*
X153563142Y-98984571D01*
X153491714Y-99270286D01*
X153348857Y-99413143D01*
X153205999Y-99484571D01*
X152920285Y-99484571D01*
X152777428Y-99413143D01*
X152634571Y-99270286D01*
X152563142Y-98984571D01*
X152563142Y-98484571D01*
X152634571Y-98198857D01*
X152777428Y-98056000D01*
X152920285Y-97984571D01*
X154848857Y-98484571D02*
X154848857Y-99484571D01*
X154206000Y-98484571D02*
X154206000Y-99270286D01*
X154277428Y-99413143D01*
X154420286Y-99484571D01*
X154634571Y-99484571D01*
X154777428Y-99413143D01*
X154848857Y-99341714D01*
X155348857Y-98484571D02*
X155920286Y-98484571D01*
X155563143Y-97984571D02*
X155563143Y-99270286D01*
X155634571Y-99413143D01*
X155777429Y-99484571D01*
X155920286Y-99484571D01*
X156420286Y-98484571D02*
X156420286Y-99984571D01*
X156420286Y-98556000D02*
X156563143Y-98484571D01*
X156848857Y-98484571D01*
X156991714Y-98556000D01*
X157063143Y-98627429D01*
X157134572Y-98770286D01*
X157134572Y-99198857D01*
X157063143Y-99341714D01*
X156991714Y-99413143D01*
X156848857Y-99484571D01*
X156563143Y-99484571D01*
X156420286Y-99413143D01*
X158420286Y-98484571D02*
X158420286Y-99484571D01*
X157777429Y-98484571D02*
X157777429Y-99270286D01*
X157848857Y-99413143D01*
X157991715Y-99484571D01*
X158206000Y-99484571D01*
X158348857Y-99413143D01*
X158420286Y-99341714D01*
X158920286Y-98484571D02*
X159491715Y-98484571D01*
X159134572Y-97984571D02*
X159134572Y-99270286D01*
X159206000Y-99413143D01*
X159348858Y-99484571D01*
X159491715Y-99484571D01*
D11*
X114958857Y-90908286D02*
X114911238Y-90860667D01*
X114863619Y-90717810D01*
X114863619Y-90622572D01*
X114911238Y-90479714D01*
X115006476Y-90384476D01*
X115101714Y-90336857D01*
X115292190Y-90289238D01*
X115435048Y-90289238D01*
X115625524Y-90336857D01*
X115720762Y-90384476D01*
X115816000Y-90479714D01*
X115863619Y-90622572D01*
X115863619Y-90717810D01*
X115816000Y-90860667D01*
X115768381Y-90908286D01*
X115863619Y-91527333D02*
X115863619Y-91717810D01*
X115816000Y-91813048D01*
X115720762Y-91908286D01*
X115530286Y-91955905D01*
X115196952Y-91955905D01*
X115006476Y-91908286D01*
X114911238Y-91813048D01*
X114863619Y-91717810D01*
X114863619Y-91527333D01*
X114911238Y-91432095D01*
X115006476Y-91336857D01*
X115196952Y-91289238D01*
X115530286Y-91289238D01*
X115720762Y-91336857D01*
X115816000Y-91432095D01*
X115863619Y-91527333D01*
X114863619Y-92384476D02*
X115863619Y-92384476D01*
X115149333Y-92717810D01*
X115863619Y-93051143D01*
X114863619Y-93051143D01*
X115387429Y-88971429D02*
X115339810Y-89114286D01*
X115292190Y-89161905D01*
X115196952Y-89209524D01*
X115054095Y-89209524D01*
X114958857Y-89161905D01*
X114911238Y-89114286D01*
X114863619Y-89019048D01*
X114863619Y-88638095D01*
X115863619Y-88638095D01*
X115863619Y-88971429D01*
X115816000Y-89066667D01*
X115768381Y-89114286D01*
X115673143Y-89161905D01*
X115577905Y-89161905D01*
X115482667Y-89114286D01*
X115435048Y-89066667D01*
X115387429Y-88971429D01*
X115387429Y-88638095D01*
X115149333Y-86121905D02*
X115149333Y-86598096D01*
X114863619Y-86026667D02*
X115863619Y-86360000D01*
X114863619Y-86693334D01*
D12*
X116661714Y-99484571D02*
X116661714Y-97984571D01*
X117376000Y-98484571D02*
X117376000Y-99484571D01*
X117376000Y-98627429D02*
X117447428Y-98556000D01*
X117590286Y-98484571D01*
X117804571Y-98484571D01*
X117947428Y-98556000D01*
X118018857Y-98698857D01*
X118018857Y-99484571D01*
X118733143Y-98484571D02*
X118733143Y-99984571D01*
X118733143Y-98556000D02*
X118876000Y-98484571D01*
X119161714Y-98484571D01*
X119304571Y-98556000D01*
X119376000Y-98627429D01*
X119447429Y-98770286D01*
X119447429Y-99198857D01*
X119376000Y-99341714D01*
X119304571Y-99413143D01*
X119161714Y-99484571D01*
X118876000Y-99484571D01*
X118733143Y-99413143D01*
X120733143Y-98484571D02*
X120733143Y-99484571D01*
X120090286Y-98484571D02*
X120090286Y-99270286D01*
X120161714Y-99413143D01*
X120304572Y-99484571D01*
X120518857Y-99484571D01*
X120661714Y-99413143D01*
X120733143Y-99341714D01*
X121233143Y-98484571D02*
X121804572Y-98484571D01*
X121447429Y-97984571D02*
X121447429Y-99270286D01*
X121518857Y-99413143D01*
X121661715Y-99484571D01*
X121804572Y-99484571D01*
D11*
X125349000Y-80645000D02*
X125349000Y-79756000D01*
X125349000Y-83693000D02*
X125349000Y-84582000D01*
X125349000Y-82169000D02*
G75*
G03X125349000Y-81661000I0J254000D01*
G01*
X145669000Y-83312000D02*
X143637000Y-80645000D01*
X145669000Y-84582000D02*
X145669000Y-83312000D01*
X149098000Y-81407000D02*
X146939000Y-81407000D01*
X149098000Y-79756000D02*
X149098000Y-81407000D01*
X142113000Y-81407000D02*
X144399000Y-81407000D01*
X142113000Y-79756000D02*
X142113000Y-81407000D01*
X122986000Y-75819000D02*
X122986000Y-88519000D01*
X151986000Y-88519000D02*
X122986000Y-88519000D01*
X151986000Y-75819000D02*
X151986000Y-88519000D01*
X122986000Y-75819000D02*
X151986000Y-75819000D01*
X125349000Y-81153000D02*
G75*
G03X125349000Y-80645000I0J254000D01*
G01*
X125349000Y-81661000D02*
G75*
G03X125349000Y-81153000I0J254000D01*
G01*
X125349000Y-83185000D02*
G75*
G03X125349000Y-82677000I0J254000D01*
G01*
X125349000Y-82677000D02*
G75*
G03X125349000Y-82169000I0J254000D01*
G01*
X125349000Y-83693000D02*
G75*
G03X125349000Y-83185000I0J254000D01*
G01*
X125349000Y-94107000D02*
X125349000Y-93218000D01*
X125349000Y-97155000D02*
X125349000Y-98044000D01*
X125349000Y-95631000D02*
G75*
G03X125349000Y-95123000I0J254000D01*
G01*
X145669000Y-96774000D02*
X143637000Y-94107000D01*
X145669000Y-98044000D02*
X145669000Y-96774000D01*
X149098000Y-94869000D02*
X146939000Y-94869000D01*
X149098000Y-93218000D02*
X149098000Y-94869000D01*
X142113000Y-94869000D02*
X144399000Y-94869000D01*
X142113000Y-93218000D02*
X142113000Y-94869000D01*
X122986000Y-89281000D02*
X122986000Y-101981000D01*
X151986000Y-101981000D02*
X122986000Y-101981000D01*
X151986000Y-89281000D02*
X151986000Y-101981000D01*
X122986000Y-89281000D02*
X151986000Y-89281000D01*
X125349000Y-94615000D02*
G75*
G03X125349000Y-94107000I0J254000D01*
G01*
X125349000Y-95123000D02*
G75*
G03X125349000Y-94615000I0J254000D01*
G01*
X125349000Y-96647000D02*
G75*
G03X125349000Y-96139000I0J254000D01*
G01*
X125349000Y-96139000D02*
G75*
G03X125349000Y-95631000I0J254000D01*
G01*
X125349000Y-97155000D02*
G75*
G03X125349000Y-96647000I0J254000D01*
G01*
X158302960Y-85100160D02*
X158800800Y-85100160D01*
X158800800Y-82301080D02*
X158800800Y-95498920D01*
X158302960Y-95498920D02*
X158302960Y-82301080D01*
X153001980Y-95498920D02*
X153001980Y-82301080D01*
X152603200Y-82301080D02*
X152603200Y-95498920D01*
X158302960Y-87602060D02*
X158800800Y-87602060D01*
X158302960Y-90200480D02*
X158800800Y-90200480D01*
X158800800Y-95298260D02*
X158302960Y-95298260D01*
X158302960Y-82501740D02*
X158800800Y-82501740D01*
X158800800Y-92697300D02*
X158302960Y-92697300D01*
X158800800Y-82303620D02*
X152603200Y-82303620D01*
X152603200Y-95496380D02*
X158800800Y-95496380D01*
X122478800Y-92999560D02*
X122478800Y-84800440D01*
X122080020Y-92999560D02*
X122080020Y-84800440D01*
X116779040Y-92999560D02*
X116779040Y-84800440D01*
X116281200Y-84800440D02*
X116281200Y-92999560D01*
X116779040Y-90200480D02*
X116281200Y-90200480D01*
X116281200Y-85001100D02*
X116779040Y-85001100D01*
X116779040Y-92801440D02*
X116281200Y-92801440D01*
X116281200Y-87602060D02*
X116779040Y-87602060D01*
X116281200Y-92999560D02*
X122478800Y-92999560D01*
X122478800Y-84802980D02*
X116281200Y-84802980D01*
X134636000Y-82621381D02*
X134302666Y-82145190D01*
X134064571Y-82621381D02*
X134064571Y-81621381D01*
X134445524Y-81621381D01*
X134540762Y-81669000D01*
X134588381Y-81716619D01*
X134636000Y-81811857D01*
X134636000Y-81954714D01*
X134588381Y-82049952D01*
X134540762Y-82097571D01*
X134445524Y-82145190D01*
X134064571Y-82145190D01*
X135540762Y-82621381D02*
X135064571Y-82621381D01*
X135064571Y-81621381D01*
X136064571Y-82145190D02*
X136064571Y-82621381D01*
X135731238Y-81621381D02*
X136064571Y-82145190D01*
X136397905Y-81621381D01*
X137255048Y-82621381D02*
X136683619Y-82621381D01*
X136969333Y-82621381D02*
X136969333Y-81621381D01*
X136874095Y-81764238D01*
X136778857Y-81859476D01*
X136683619Y-81907095D01*
X134636000Y-96083381D02*
X134302666Y-95607190D01*
X134064571Y-96083381D02*
X134064571Y-95083381D01*
X134445524Y-95083381D01*
X134540762Y-95131000D01*
X134588381Y-95178619D01*
X134636000Y-95273857D01*
X134636000Y-95416714D01*
X134588381Y-95511952D01*
X134540762Y-95559571D01*
X134445524Y-95607190D01*
X134064571Y-95607190D01*
X135540762Y-96083381D02*
X135064571Y-96083381D01*
X135064571Y-95083381D01*
X136064571Y-95607190D02*
X136064571Y-96083381D01*
X135731238Y-95083381D02*
X136064571Y-95607190D01*
X136397905Y-95083381D01*
X136683619Y-95178619D02*
X136731238Y-95131000D01*
X136826476Y-95083381D01*
X137064572Y-95083381D01*
X137159810Y-95131000D01*
X137207429Y-95178619D01*
X137255048Y-95273857D01*
X137255048Y-95369095D01*
X137207429Y-95511952D01*
X136636000Y-96083381D01*
X137255048Y-96083381D01*
M02*
