%TF.GenerationSoftware,KiCad,Pcbnew,(5.1.10)-1*%
%TF.CreationDate,2022-08-28T21:22:16-05:00*%
%TF.ProjectId,AC Logic Board,4143204c-6f67-4696-9320-426f6172642e,rev?*%
%TF.SameCoordinates,Original*%
%TF.FileFunction,Legend,Bot*%
%TF.FilePolarity,Positive*%
%FSLAX46Y46*%
G04 Gerber Fmt 4.6, Leading zero omitted, Abs format (unit mm)*
G04 Created by KiCad (PCBNEW (5.1.10)-1) date 2022-08-28 21:22:16*
%MOMM*%
%LPD*%
G01*
G04 APERTURE LIST*
%ADD10C,0.150000*%
%ADD11C,0.100000*%
%ADD12C,0.200000*%
G04 APERTURE END LIST*
D10*
X151312571Y-78414571D02*
X151169714Y-78462190D01*
X151122095Y-78509809D01*
X151074476Y-78605047D01*
X151074476Y-78747904D01*
X151122095Y-78843142D01*
X151169714Y-78890761D01*
X151264952Y-78938380D01*
X151645904Y-78938380D01*
X151645904Y-77938380D01*
X151312571Y-77938380D01*
X151217333Y-77986000D01*
X151169714Y-78033619D01*
X151122095Y-78128857D01*
X151122095Y-78224095D01*
X151169714Y-78319333D01*
X151217333Y-78366952D01*
X151312571Y-78414571D01*
X151645904Y-78414571D01*
X151312571Y-91876571D02*
X151169714Y-91924190D01*
X151122095Y-91971809D01*
X151074476Y-92067047D01*
X151074476Y-92209904D01*
X151122095Y-92305142D01*
X151169714Y-92352761D01*
X151264952Y-92400380D01*
X151645904Y-92400380D01*
X151645904Y-91400380D01*
X151312571Y-91400380D01*
X151217333Y-91448000D01*
X151169714Y-91495619D01*
X151122095Y-91590857D01*
X151122095Y-91686095D01*
X151169714Y-91781333D01*
X151217333Y-91828952D01*
X151312571Y-91876571D01*
X151645904Y-91876571D01*
X140192095Y-92114666D02*
X139715904Y-92114666D01*
X140287333Y-92400380D02*
X139954000Y-91400380D01*
X139620666Y-92400380D01*
D11*
X160092666Y-75883333D02*
X160059333Y-75850000D01*
X159992666Y-75816666D01*
X159826000Y-75816666D01*
X159759333Y-75850000D01*
X159726000Y-75883333D01*
X159692666Y-75950000D01*
X159692666Y-76016666D01*
X159726000Y-76116666D01*
X160126000Y-76516666D01*
X159692666Y-76516666D01*
X159259333Y-75816666D02*
X159192666Y-75816666D01*
X159126000Y-75850000D01*
X159092666Y-75883333D01*
X159059333Y-75950000D01*
X159026000Y-76083333D01*
X159026000Y-76250000D01*
X159059333Y-76383333D01*
X159092666Y-76450000D01*
X159126000Y-76483333D01*
X159192666Y-76516666D01*
X159259333Y-76516666D01*
X159326000Y-76483333D01*
X159359333Y-76450000D01*
X159392666Y-76383333D01*
X159426000Y-76250000D01*
X159426000Y-76083333D01*
X159392666Y-75950000D01*
X159359333Y-75883333D01*
X159326000Y-75850000D01*
X159259333Y-75816666D01*
X158359333Y-76516666D02*
X158759333Y-76516666D01*
X158559333Y-76516666D02*
X158559333Y-75816666D01*
X158626000Y-75916666D01*
X158692666Y-75983333D01*
X158759333Y-76016666D01*
X158026000Y-76516666D02*
X157892666Y-76516666D01*
X157826000Y-76483333D01*
X157792666Y-76450000D01*
X157726000Y-76350000D01*
X157692666Y-76216666D01*
X157692666Y-75950000D01*
X157726000Y-75883333D01*
X157759333Y-75850000D01*
X157826000Y-75816666D01*
X157959333Y-75816666D01*
X158026000Y-75850000D01*
X158059333Y-75883333D01*
X158092666Y-75950000D01*
X158092666Y-76116666D01*
X158059333Y-76183333D01*
X158026000Y-76216666D01*
X157959333Y-76250000D01*
X157826000Y-76250000D01*
X157759333Y-76216666D01*
X157726000Y-76183333D01*
X157692666Y-76116666D01*
X157392666Y-76450000D02*
X157359333Y-76483333D01*
X157392666Y-76516666D01*
X157426000Y-76483333D01*
X157392666Y-76450000D01*
X157392666Y-76516666D01*
X156926000Y-75816666D02*
X156859333Y-75816666D01*
X156792666Y-75850000D01*
X156759333Y-75883333D01*
X156726000Y-75950000D01*
X156692666Y-76083333D01*
X156692666Y-76250000D01*
X156726000Y-76383333D01*
X156759333Y-76450000D01*
X156792666Y-76483333D01*
X156859333Y-76516666D01*
X156926000Y-76516666D01*
X156992666Y-76483333D01*
X157026000Y-76450000D01*
X157059333Y-76383333D01*
X157092666Y-76250000D01*
X157092666Y-76083333D01*
X157059333Y-75950000D01*
X157026000Y-75883333D01*
X156992666Y-75850000D01*
X156926000Y-75816666D01*
X156426000Y-75883333D02*
X156392666Y-75850000D01*
X156326000Y-75816666D01*
X156159333Y-75816666D01*
X156092666Y-75850000D01*
X156059333Y-75883333D01*
X156026000Y-75950000D01*
X156026000Y-76016666D01*
X156059333Y-76116666D01*
X156459333Y-76516666D01*
X156026000Y-76516666D01*
X155726000Y-76450000D02*
X155692666Y-76483333D01*
X155726000Y-76516666D01*
X155759333Y-76483333D01*
X155726000Y-76450000D01*
X155726000Y-76516666D01*
X155026000Y-76516666D02*
X155426000Y-76516666D01*
X155226000Y-76516666D02*
X155226000Y-75816666D01*
X155292666Y-75916666D01*
X155359333Y-75983333D01*
X155426000Y-76016666D01*
X154392666Y-75816666D02*
X154726000Y-75816666D01*
X154759333Y-76150000D01*
X154726000Y-76116666D01*
X154659333Y-76083333D01*
X154492666Y-76083333D01*
X154426000Y-76116666D01*
X154392666Y-76150000D01*
X154359333Y-76216666D01*
X154359333Y-76383333D01*
X154392666Y-76450000D01*
X154426000Y-76483333D01*
X154492666Y-76516666D01*
X154659333Y-76516666D01*
X154726000Y-76483333D01*
X154759333Y-76450000D01*
D10*
X148931238Y-99020380D02*
X148740761Y-99020380D01*
X148645523Y-99068000D01*
X148550285Y-99163238D01*
X148502666Y-99353714D01*
X148502666Y-99687047D01*
X148550285Y-99877523D01*
X148645523Y-99972761D01*
X148740761Y-100020380D01*
X148931238Y-100020380D01*
X149026476Y-99972761D01*
X149121714Y-99877523D01*
X149169333Y-99687047D01*
X149169333Y-99353714D01*
X149121714Y-99163238D01*
X149026476Y-99068000D01*
X148931238Y-99020380D01*
X147502666Y-100020380D02*
X147836000Y-99544190D01*
X148074095Y-100020380D02*
X148074095Y-99020380D01*
X147693142Y-99020380D01*
X147597904Y-99068000D01*
X147550285Y-99115619D01*
X147502666Y-99210857D01*
X147502666Y-99353714D01*
X147550285Y-99448952D01*
X147597904Y-99496571D01*
X147693142Y-99544190D01*
X148074095Y-99544190D01*
D12*
X121844285Y-99484571D02*
X121844285Y-97984571D01*
X121130000Y-98484571D02*
X121130000Y-99484571D01*
X121130000Y-98627428D02*
X121058571Y-98556000D01*
X120915714Y-98484571D01*
X120701428Y-98484571D01*
X120558571Y-98556000D01*
X120487142Y-98698857D01*
X120487142Y-99484571D01*
X119772857Y-98484571D02*
X119772857Y-99984571D01*
X119772857Y-98556000D02*
X119630000Y-98484571D01*
X119344285Y-98484571D01*
X119201428Y-98556000D01*
X119130000Y-98627428D01*
X119058571Y-98770285D01*
X119058571Y-99198857D01*
X119130000Y-99341714D01*
X119201428Y-99413142D01*
X119344285Y-99484571D01*
X119630000Y-99484571D01*
X119772857Y-99413142D01*
X117772857Y-98484571D02*
X117772857Y-99484571D01*
X118415714Y-98484571D02*
X118415714Y-99270285D01*
X118344285Y-99413142D01*
X118201428Y-99484571D01*
X117987142Y-99484571D01*
X117844285Y-99413142D01*
X117772857Y-99341714D01*
X117272857Y-98484571D02*
X116701428Y-98484571D01*
X117058571Y-97984571D02*
X117058571Y-99270285D01*
X116987142Y-99413142D01*
X116844285Y-99484571D01*
X116701428Y-99484571D01*
X159245714Y-97984571D02*
X158960000Y-97984571D01*
X158817142Y-98056000D01*
X158674285Y-98198857D01*
X158602857Y-98484571D01*
X158602857Y-98984571D01*
X158674285Y-99270285D01*
X158817142Y-99413142D01*
X158960000Y-99484571D01*
X159245714Y-99484571D01*
X159388571Y-99413142D01*
X159531428Y-99270285D01*
X159602857Y-98984571D01*
X159602857Y-98484571D01*
X159531428Y-98198857D01*
X159388571Y-98056000D01*
X159245714Y-97984571D01*
X157317142Y-98484571D02*
X157317142Y-99484571D01*
X157960000Y-98484571D02*
X157960000Y-99270285D01*
X157888571Y-99413142D01*
X157745714Y-99484571D01*
X157531428Y-99484571D01*
X157388571Y-99413142D01*
X157317142Y-99341714D01*
X156817142Y-98484571D02*
X156245714Y-98484571D01*
X156602857Y-97984571D02*
X156602857Y-99270285D01*
X156531428Y-99413142D01*
X156388571Y-99484571D01*
X156245714Y-99484571D01*
X155745714Y-98484571D02*
X155745714Y-99984571D01*
X155745714Y-98556000D02*
X155602857Y-98484571D01*
X155317142Y-98484571D01*
X155174285Y-98556000D01*
X155102857Y-98627428D01*
X155031428Y-98770285D01*
X155031428Y-99198857D01*
X155102857Y-99341714D01*
X155174285Y-99413142D01*
X155317142Y-99484571D01*
X155602857Y-99484571D01*
X155745714Y-99413142D01*
X153745714Y-98484571D02*
X153745714Y-99484571D01*
X154388571Y-98484571D02*
X154388571Y-99270285D01*
X154317142Y-99413142D01*
X154174285Y-99484571D01*
X153960000Y-99484571D01*
X153817142Y-99413142D01*
X153745714Y-99341714D01*
X153245714Y-98484571D02*
X152674285Y-98484571D01*
X153031428Y-97984571D02*
X153031428Y-99270285D01*
X152960000Y-99413142D01*
X152817142Y-99484571D01*
X152674285Y-99484571D01*
D10*
X120586285Y-80006857D02*
X120300571Y-80806857D01*
X120014857Y-80006857D01*
X118929142Y-80806857D02*
X119614857Y-80806857D01*
X119272000Y-80806857D02*
X119272000Y-79606857D01*
X119386285Y-79778285D01*
X119500571Y-79892571D01*
X119614857Y-79949714D01*
X118414857Y-80692571D02*
X118357714Y-80749714D01*
X118414857Y-80806857D01*
X118472000Y-80749714D01*
X118414857Y-80692571D01*
X118414857Y-80806857D01*
X117214857Y-80806857D02*
X117900571Y-80806857D01*
X117557714Y-80806857D02*
X117557714Y-79606857D01*
X117672000Y-79778285D01*
X117786285Y-79892571D01*
X117900571Y-79949714D01*
X122586285Y-77924000D02*
X122014857Y-77924000D01*
X122700571Y-78266857D02*
X122300571Y-77066857D01*
X121900571Y-78266857D01*
X120814857Y-78152571D02*
X120872000Y-78209714D01*
X121043428Y-78266857D01*
X121157714Y-78266857D01*
X121329142Y-78209714D01*
X121443428Y-78095428D01*
X121500571Y-77981142D01*
X121557714Y-77752571D01*
X121557714Y-77581142D01*
X121500571Y-77352571D01*
X121443428Y-77238285D01*
X121329142Y-77124000D01*
X121157714Y-77066857D01*
X121043428Y-77066857D01*
X120872000Y-77124000D01*
X120814857Y-77181142D01*
X118814857Y-78266857D02*
X119386285Y-78266857D01*
X119386285Y-77066857D01*
X118243428Y-78266857D02*
X118357714Y-78209714D01*
X118414857Y-78152571D01*
X118472000Y-78038285D01*
X118472000Y-77695428D01*
X118414857Y-77581142D01*
X118357714Y-77524000D01*
X118243428Y-77466857D01*
X118072000Y-77466857D01*
X117957714Y-77524000D01*
X117900571Y-77581142D01*
X117843428Y-77695428D01*
X117843428Y-78038285D01*
X117900571Y-78152571D01*
X117957714Y-78209714D01*
X118072000Y-78266857D01*
X118243428Y-78266857D01*
X116814857Y-77466857D02*
X116814857Y-78438285D01*
X116872000Y-78552571D01*
X116929142Y-78609714D01*
X117043428Y-78666857D01*
X117214857Y-78666857D01*
X117329142Y-78609714D01*
X116814857Y-78209714D02*
X116929142Y-78266857D01*
X117157714Y-78266857D01*
X117272000Y-78209714D01*
X117329142Y-78152571D01*
X117386285Y-78038285D01*
X117386285Y-77695428D01*
X117329142Y-77581142D01*
X117272000Y-77524000D01*
X117157714Y-77466857D01*
X116929142Y-77466857D01*
X116814857Y-77524000D01*
X116243428Y-78266857D02*
X116243428Y-77466857D01*
X116243428Y-77066857D02*
X116300571Y-77124000D01*
X116243428Y-77181142D01*
X116186285Y-77124000D01*
X116243428Y-77066857D01*
X116243428Y-77181142D01*
X115157714Y-78209714D02*
X115272000Y-78266857D01*
X115500571Y-78266857D01*
X115614857Y-78209714D01*
X115672000Y-78152571D01*
X115729142Y-78038285D01*
X115729142Y-77695428D01*
X115672000Y-77581142D01*
X115614857Y-77524000D01*
X115500571Y-77466857D01*
X115272000Y-77466857D01*
X115157714Y-77524000D01*
D12*
X152400000Y-82042000D02*
X159004000Y-82042000D01*
X152400000Y-95758000D02*
X152400000Y-82042000D01*
X159004000Y-95758000D02*
X152400000Y-95758000D01*
X122682000Y-93218000D02*
X116078000Y-93218000D01*
X122682000Y-84582000D02*
X122682000Y-93218000D01*
X116078000Y-84582000D02*
X122682000Y-84582000D01*
D10*
X158837238Y-90892380D02*
X158646761Y-90892380D01*
X158551523Y-90940000D01*
X158456285Y-91035238D01*
X158408666Y-91225714D01*
X158408666Y-91559047D01*
X158456285Y-91749523D01*
X158551523Y-91844761D01*
X158646761Y-91892380D01*
X158837238Y-91892380D01*
X158932476Y-91844761D01*
X159027714Y-91749523D01*
X159075333Y-91559047D01*
X159075333Y-91225714D01*
X159027714Y-91035238D01*
X158932476Y-90940000D01*
X158837238Y-90892380D01*
X157408666Y-91892380D02*
X157742000Y-91416190D01*
X157980095Y-91892380D02*
X157980095Y-90892380D01*
X157599142Y-90892380D01*
X157503904Y-90940000D01*
X157456285Y-90987619D01*
X157408666Y-91082857D01*
X157408666Y-91225714D01*
X157456285Y-91320952D01*
X157503904Y-91368571D01*
X157599142Y-91416190D01*
X157980095Y-91416190D01*
X160011904Y-89066666D02*
X159535714Y-89066666D01*
X160107142Y-89352380D02*
X159773809Y-88352380D01*
X159440476Y-89352380D01*
X159107142Y-89352380D02*
X159107142Y-88352380D01*
X158535714Y-89352380D01*
X158535714Y-88352380D01*
X158059523Y-89352380D02*
X158059523Y-88352380D01*
X157821428Y-88352380D01*
X157678571Y-88400000D01*
X157583333Y-88495238D01*
X157535714Y-88590476D01*
X157488095Y-88780952D01*
X157488095Y-88923809D01*
X157535714Y-89114285D01*
X157583333Y-89209523D01*
X157678571Y-89304761D01*
X157821428Y-89352380D01*
X158059523Y-89352380D01*
X157662571Y-86288571D02*
X157519714Y-86336190D01*
X157472095Y-86383809D01*
X157424476Y-86479047D01*
X157424476Y-86621904D01*
X157472095Y-86717142D01*
X157519714Y-86764761D01*
X157614952Y-86812380D01*
X157995904Y-86812380D01*
X157995904Y-85812380D01*
X157662571Y-85812380D01*
X157567333Y-85860000D01*
X157519714Y-85907619D01*
X157472095Y-86002857D01*
X157472095Y-86098095D01*
X157519714Y-86193333D01*
X157567333Y-86240952D01*
X157662571Y-86288571D01*
X157995904Y-86288571D01*
X157972095Y-83986666D02*
X157495904Y-83986666D01*
X158067333Y-84272380D02*
X157734000Y-83272380D01*
X157400666Y-84272380D01*
X159535714Y-94337142D02*
X159583333Y-94384761D01*
X159726190Y-94432380D01*
X159821428Y-94432380D01*
X159964285Y-94384761D01*
X160059523Y-94289523D01*
X160107142Y-94194285D01*
X160154761Y-94003809D01*
X160154761Y-93860952D01*
X160107142Y-93670476D01*
X160059523Y-93575238D01*
X159964285Y-93480000D01*
X159821428Y-93432380D01*
X159726190Y-93432380D01*
X159583333Y-93480000D01*
X159535714Y-93527619D01*
X158916666Y-93432380D02*
X158726190Y-93432380D01*
X158630952Y-93480000D01*
X158535714Y-93575238D01*
X158488095Y-93765714D01*
X158488095Y-94099047D01*
X158535714Y-94289523D01*
X158630952Y-94384761D01*
X158726190Y-94432380D01*
X158916666Y-94432380D01*
X159011904Y-94384761D01*
X159107142Y-94289523D01*
X159154761Y-94099047D01*
X159154761Y-93765714D01*
X159107142Y-93575238D01*
X159011904Y-93480000D01*
X158916666Y-93432380D01*
X158059523Y-94432380D02*
X158059523Y-93432380D01*
X157726190Y-94146666D01*
X157392857Y-93432380D01*
X157392857Y-94432380D01*
X117586095Y-86526666D02*
X117109904Y-86526666D01*
X117681333Y-86812380D02*
X117348000Y-85812380D01*
X117014666Y-86812380D01*
X117276571Y-88828571D02*
X117133714Y-88876190D01*
X117086095Y-88923809D01*
X117038476Y-89019047D01*
X117038476Y-89161904D01*
X117086095Y-89257142D01*
X117133714Y-89304761D01*
X117228952Y-89352380D01*
X117609904Y-89352380D01*
X117609904Y-88352380D01*
X117276571Y-88352380D01*
X117181333Y-88400000D01*
X117133714Y-88447619D01*
X117086095Y-88542857D01*
X117086095Y-88638095D01*
X117133714Y-88733333D01*
X117181333Y-88780952D01*
X117276571Y-88828571D01*
X117609904Y-88828571D01*
X117117714Y-91797142D02*
X117165333Y-91844761D01*
X117308190Y-91892380D01*
X117403428Y-91892380D01*
X117546285Y-91844761D01*
X117641523Y-91749523D01*
X117689142Y-91654285D01*
X117736761Y-91463809D01*
X117736761Y-91320952D01*
X117689142Y-91130476D01*
X117641523Y-91035238D01*
X117546285Y-90940000D01*
X117403428Y-90892380D01*
X117308190Y-90892380D01*
X117165333Y-90940000D01*
X117117714Y-90987619D01*
X116498666Y-90892380D02*
X116308190Y-90892380D01*
X116212952Y-90940000D01*
X116117714Y-91035238D01*
X116070095Y-91225714D01*
X116070095Y-91559047D01*
X116117714Y-91749523D01*
X116212952Y-91844761D01*
X116308190Y-91892380D01*
X116498666Y-91892380D01*
X116593904Y-91844761D01*
X116689142Y-91749523D01*
X116736761Y-91559047D01*
X116736761Y-91225714D01*
X116689142Y-91035238D01*
X116593904Y-90940000D01*
X116498666Y-90892380D01*
X115641523Y-91892380D02*
X115641523Y-90892380D01*
X115308190Y-91606666D01*
X114974857Y-90892380D01*
X114974857Y-91892380D01*
X150105904Y-86272666D02*
X149629714Y-86272666D01*
X150201142Y-86558380D02*
X149867809Y-85558380D01*
X149534476Y-86558380D01*
X149201142Y-86558380D02*
X149201142Y-85558380D01*
X148629714Y-86558380D01*
X148629714Y-85558380D01*
X148153523Y-86558380D02*
X148153523Y-85558380D01*
X147915428Y-85558380D01*
X147772571Y-85606000D01*
X147677333Y-85701238D01*
X147629714Y-85796476D01*
X147582095Y-85986952D01*
X147582095Y-86129809D01*
X147629714Y-86320285D01*
X147677333Y-86415523D01*
X147772571Y-86510761D01*
X147915428Y-86558380D01*
X148153523Y-86558380D01*
D12*
X125476000Y-97028000D02*
X125476000Y-97790000D01*
X125476000Y-93980000D02*
X125476000Y-93472000D01*
X125476000Y-83566000D02*
X125476000Y-84328000D01*
X125476000Y-80518000D02*
X125476000Y-80010000D01*
X147828000Y-80772000D02*
X146304000Y-80772000D01*
X145542000Y-82804000D02*
X145542000Y-82042000D01*
X145542000Y-82042000D02*
X144272000Y-80518000D01*
X143256000Y-80772000D02*
X144780000Y-80772000D01*
X145542000Y-95504000D02*
X144272000Y-93980000D01*
X145542000Y-96266000D02*
X145542000Y-95504000D01*
X147828000Y-94234000D02*
X146304000Y-94234000D01*
X143256000Y-94234000D02*
X144780000Y-94234000D01*
D10*
X128000095Y-78652666D02*
X127523904Y-78652666D01*
X128095333Y-78938380D02*
X127762000Y-77938380D01*
X127428666Y-78938380D01*
X127690571Y-91876571D02*
X127547714Y-91924190D01*
X127500095Y-91971809D01*
X127452476Y-92067047D01*
X127452476Y-92209904D01*
X127500095Y-92305142D01*
X127547714Y-92352761D01*
X127642952Y-92400380D01*
X128023904Y-92400380D01*
X128023904Y-91400380D01*
X127690571Y-91400380D01*
X127595333Y-91448000D01*
X127547714Y-91495619D01*
X127500095Y-91590857D01*
X127500095Y-91686095D01*
X127547714Y-91781333D01*
X127595333Y-91828952D01*
X127690571Y-91876571D01*
X128023904Y-91876571D01*
X129309714Y-86463142D02*
X129357333Y-86510761D01*
X129500190Y-86558380D01*
X129595428Y-86558380D01*
X129738285Y-86510761D01*
X129833523Y-86415523D01*
X129881142Y-86320285D01*
X129928761Y-86129809D01*
X129928761Y-85986952D01*
X129881142Y-85796476D01*
X129833523Y-85701238D01*
X129738285Y-85606000D01*
X129595428Y-85558380D01*
X129500190Y-85558380D01*
X129357333Y-85606000D01*
X129309714Y-85653619D01*
X128690666Y-85558380D02*
X128500190Y-85558380D01*
X128404952Y-85606000D01*
X128309714Y-85701238D01*
X128262095Y-85891714D01*
X128262095Y-86225047D01*
X128309714Y-86415523D01*
X128404952Y-86510761D01*
X128500190Y-86558380D01*
X128690666Y-86558380D01*
X128785904Y-86510761D01*
X128881142Y-86415523D01*
X128928761Y-86225047D01*
X128928761Y-85891714D01*
X128881142Y-85701238D01*
X128785904Y-85606000D01*
X128690666Y-85558380D01*
X127833523Y-86558380D02*
X127833523Y-85558380D01*
X127500190Y-86272666D01*
X127166857Y-85558380D01*
X127166857Y-86558380D01*
X129309714Y-99925142D02*
X129357333Y-99972761D01*
X129500190Y-100020380D01*
X129595428Y-100020380D01*
X129738285Y-99972761D01*
X129833523Y-99877523D01*
X129881142Y-99782285D01*
X129928761Y-99591809D01*
X129928761Y-99448952D01*
X129881142Y-99258476D01*
X129833523Y-99163238D01*
X129738285Y-99068000D01*
X129595428Y-99020380D01*
X129500190Y-99020380D01*
X129357333Y-99068000D01*
X129309714Y-99115619D01*
X128690666Y-99020380D02*
X128500190Y-99020380D01*
X128404952Y-99068000D01*
X128309714Y-99163238D01*
X128262095Y-99353714D01*
X128262095Y-99687047D01*
X128309714Y-99877523D01*
X128404952Y-99972761D01*
X128500190Y-100020380D01*
X128690666Y-100020380D01*
X128785904Y-99972761D01*
X128881142Y-99877523D01*
X128928761Y-99687047D01*
X128928761Y-99353714D01*
X128881142Y-99163238D01*
X128785904Y-99068000D01*
X128690666Y-99020380D01*
X127833523Y-100020380D02*
X127833523Y-99020380D01*
X127500190Y-99734666D01*
X127166857Y-99020380D01*
X127166857Y-100020380D01*
X135366000Y-95131380D02*
X135699333Y-94655190D01*
X135937428Y-95131380D02*
X135937428Y-94131380D01*
X135556476Y-94131380D01*
X135461238Y-94179000D01*
X135413619Y-94226619D01*
X135366000Y-94321857D01*
X135366000Y-94464714D01*
X135413619Y-94559952D01*
X135461238Y-94607571D01*
X135556476Y-94655190D01*
X135937428Y-94655190D01*
X134461238Y-95131380D02*
X134937428Y-95131380D01*
X134937428Y-94131380D01*
X133937428Y-94655190D02*
X133937428Y-95131380D01*
X134270761Y-94131380D02*
X133937428Y-94655190D01*
X133604095Y-94131380D01*
X133318380Y-94226619D02*
X133270761Y-94179000D01*
X133175523Y-94131380D01*
X132937428Y-94131380D01*
X132842190Y-94179000D01*
X132794571Y-94226619D01*
X132746952Y-94321857D01*
X132746952Y-94417095D01*
X132794571Y-94559952D01*
X133366000Y-95131380D01*
X132746952Y-95131380D01*
X135008857Y-97162333D02*
X135056476Y-97114714D01*
X135151714Y-96971857D01*
X135199333Y-96876619D01*
X135246952Y-96733761D01*
X135294571Y-96495666D01*
X135294571Y-96305190D01*
X135246952Y-96067095D01*
X135199333Y-95924238D01*
X135151714Y-95829000D01*
X135056476Y-95686142D01*
X135008857Y-95638523D01*
X134294571Y-96257571D02*
X134151714Y-96305190D01*
X134104095Y-96352809D01*
X134056476Y-96448047D01*
X134056476Y-96590904D01*
X134104095Y-96686142D01*
X134151714Y-96733761D01*
X134246952Y-96781380D01*
X134627904Y-96781380D01*
X134627904Y-95781380D01*
X134294571Y-95781380D01*
X134199333Y-95829000D01*
X134151714Y-95876619D01*
X134104095Y-95971857D01*
X134104095Y-96067095D01*
X134151714Y-96162333D01*
X134199333Y-96209952D01*
X134294571Y-96257571D01*
X134627904Y-96257571D01*
X133723142Y-97162333D02*
X133675523Y-97114714D01*
X133580285Y-96971857D01*
X133532666Y-96876619D01*
X133485047Y-96733761D01*
X133437428Y-96495666D01*
X133437428Y-96305190D01*
X133485047Y-96067095D01*
X133532666Y-95924238D01*
X133580285Y-95829000D01*
X133675523Y-95686142D01*
X133723142Y-95638523D01*
X135366000Y-81923380D02*
X135699333Y-81447190D01*
X135937428Y-81923380D02*
X135937428Y-80923380D01*
X135556476Y-80923380D01*
X135461238Y-80971000D01*
X135413619Y-81018619D01*
X135366000Y-81113857D01*
X135366000Y-81256714D01*
X135413619Y-81351952D01*
X135461238Y-81399571D01*
X135556476Y-81447190D01*
X135937428Y-81447190D01*
X134461238Y-81923380D02*
X134937428Y-81923380D01*
X134937428Y-80923380D01*
X133937428Y-81447190D02*
X133937428Y-81923380D01*
X134270761Y-80923380D02*
X133937428Y-81447190D01*
X133604095Y-80923380D01*
X132746952Y-81923380D02*
X133318380Y-81923380D01*
X133032666Y-81923380D02*
X133032666Y-80923380D01*
X133127904Y-81066238D01*
X133223142Y-81161476D01*
X133318380Y-81209095D01*
X134937428Y-83954333D02*
X134985047Y-83906714D01*
X135080285Y-83763857D01*
X135127904Y-83668619D01*
X135175523Y-83525761D01*
X135223142Y-83287666D01*
X135223142Y-83097190D01*
X135175523Y-82859095D01*
X135127904Y-82716238D01*
X135080285Y-82621000D01*
X134985047Y-82478142D01*
X134937428Y-82430523D01*
X134604095Y-83287666D02*
X134127904Y-83287666D01*
X134699333Y-83573380D02*
X134366000Y-82573380D01*
X134032666Y-83573380D01*
X133794571Y-83954333D02*
X133746952Y-83906714D01*
X133651714Y-83763857D01*
X133604095Y-83668619D01*
X133556476Y-83525761D01*
X133508857Y-83287666D01*
X133508857Y-83097190D01*
X133556476Y-82859095D01*
X133604095Y-82716238D01*
X133651714Y-82621000D01*
X133746952Y-82478142D01*
X133794571Y-82430523D01*
%TO.C,RLY1*%
X122986000Y-88519000D02*
X122986000Y-75819000D01*
X151986000Y-75819000D02*
X122986000Y-75819000D01*
X151986000Y-88519000D02*
X151986000Y-75819000D01*
X122986000Y-88519000D02*
X151986000Y-88519000D01*
%TO.C,RLY2*%
X122986000Y-101981000D02*
X122986000Y-89281000D01*
X151986000Y-89281000D02*
X122986000Y-89281000D01*
X151986000Y-101981000D02*
X151986000Y-89281000D01*
X122986000Y-101981000D02*
X151986000Y-101981000D01*
%TO.C,RLY1*%
D11*
X145325333Y-84070000D02*
X145358666Y-84103333D01*
X145458666Y-84136666D01*
X145525333Y-84136666D01*
X145625333Y-84103333D01*
X145692000Y-84036666D01*
X145725333Y-83970000D01*
X145758666Y-83836666D01*
X145758666Y-83736666D01*
X145725333Y-83603333D01*
X145692000Y-83536666D01*
X145625333Y-83470000D01*
X145525333Y-83436666D01*
X145458666Y-83436666D01*
X145358666Y-83470000D01*
X145325333Y-83503333D01*
X149664666Y-81088666D02*
X149664666Y-80388666D01*
X149264666Y-81088666D01*
X149264666Y-80388666D01*
X148798000Y-80388666D02*
X148664666Y-80388666D01*
X148598000Y-80422000D01*
X148531333Y-80488666D01*
X148498000Y-80622000D01*
X148498000Y-80855333D01*
X148531333Y-80988666D01*
X148598000Y-81055333D01*
X148664666Y-81088666D01*
X148798000Y-81088666D01*
X148864666Y-81055333D01*
X148931333Y-80988666D01*
X148964666Y-80855333D01*
X148964666Y-80622000D01*
X148931333Y-80488666D01*
X148864666Y-80422000D01*
X148798000Y-80388666D01*
X142536000Y-81088666D02*
X142536000Y-80388666D01*
X142136000Y-81088666D01*
X142136000Y-80388666D01*
X141402666Y-81022000D02*
X141436000Y-81055333D01*
X141536000Y-81088666D01*
X141602666Y-81088666D01*
X141702666Y-81055333D01*
X141769333Y-80988666D01*
X141802666Y-80922000D01*
X141836000Y-80788666D01*
X141836000Y-80688666D01*
X141802666Y-80555333D01*
X141769333Y-80488666D01*
X141702666Y-80422000D01*
X141602666Y-80388666D01*
X141536000Y-80388666D01*
X141436000Y-80422000D01*
X141402666Y-80455333D01*
X125726000Y-81569000D02*
X125759333Y-81535666D01*
X125792666Y-81435666D01*
X125792666Y-81369000D01*
X125759333Y-81269000D01*
X125692666Y-81202333D01*
X125626000Y-81169000D01*
X125492666Y-81135666D01*
X125392666Y-81135666D01*
X125259333Y-81169000D01*
X125192666Y-81202333D01*
X125126000Y-81269000D01*
X125092666Y-81369000D01*
X125092666Y-81435666D01*
X125126000Y-81535666D01*
X125159333Y-81569000D01*
X125092666Y-82002333D02*
X125092666Y-82135666D01*
X125126000Y-82202333D01*
X125192666Y-82269000D01*
X125326000Y-82302333D01*
X125559333Y-82302333D01*
X125692666Y-82269000D01*
X125759333Y-82202333D01*
X125792666Y-82135666D01*
X125792666Y-82002333D01*
X125759333Y-81935666D01*
X125692666Y-81869000D01*
X125559333Y-81835666D01*
X125326000Y-81835666D01*
X125192666Y-81869000D01*
X125126000Y-81935666D01*
X125092666Y-82002333D01*
X125792666Y-82602333D02*
X125092666Y-82602333D01*
X125792666Y-83269000D02*
X125792666Y-82935666D01*
X125092666Y-82935666D01*
%TO.C,RLY2*%
X145325333Y-97532000D02*
X145358666Y-97565333D01*
X145458666Y-97598666D01*
X145525333Y-97598666D01*
X145625333Y-97565333D01*
X145692000Y-97498666D01*
X145725333Y-97432000D01*
X145758666Y-97298666D01*
X145758666Y-97198666D01*
X145725333Y-97065333D01*
X145692000Y-96998666D01*
X145625333Y-96932000D01*
X145525333Y-96898666D01*
X145458666Y-96898666D01*
X145358666Y-96932000D01*
X145325333Y-96965333D01*
X149664666Y-94550666D02*
X149664666Y-93850666D01*
X149264666Y-94550666D01*
X149264666Y-93850666D01*
X148798000Y-93850666D02*
X148664666Y-93850666D01*
X148598000Y-93884000D01*
X148531333Y-93950666D01*
X148498000Y-94084000D01*
X148498000Y-94317333D01*
X148531333Y-94450666D01*
X148598000Y-94517333D01*
X148664666Y-94550666D01*
X148798000Y-94550666D01*
X148864666Y-94517333D01*
X148931333Y-94450666D01*
X148964666Y-94317333D01*
X148964666Y-94084000D01*
X148931333Y-93950666D01*
X148864666Y-93884000D01*
X148798000Y-93850666D01*
X142536000Y-94550666D02*
X142536000Y-93850666D01*
X142136000Y-94550666D01*
X142136000Y-93850666D01*
X141402666Y-94484000D02*
X141436000Y-94517333D01*
X141536000Y-94550666D01*
X141602666Y-94550666D01*
X141702666Y-94517333D01*
X141769333Y-94450666D01*
X141802666Y-94384000D01*
X141836000Y-94250666D01*
X141836000Y-94150666D01*
X141802666Y-94017333D01*
X141769333Y-93950666D01*
X141702666Y-93884000D01*
X141602666Y-93850666D01*
X141536000Y-93850666D01*
X141436000Y-93884000D01*
X141402666Y-93917333D01*
X125726000Y-95031000D02*
X125759333Y-94997666D01*
X125792666Y-94897666D01*
X125792666Y-94831000D01*
X125759333Y-94731000D01*
X125692666Y-94664333D01*
X125626000Y-94631000D01*
X125492666Y-94597666D01*
X125392666Y-94597666D01*
X125259333Y-94631000D01*
X125192666Y-94664333D01*
X125126000Y-94731000D01*
X125092666Y-94831000D01*
X125092666Y-94897666D01*
X125126000Y-94997666D01*
X125159333Y-95031000D01*
X125092666Y-95464333D02*
X125092666Y-95597666D01*
X125126000Y-95664333D01*
X125192666Y-95731000D01*
X125326000Y-95764333D01*
X125559333Y-95764333D01*
X125692666Y-95731000D01*
X125759333Y-95664333D01*
X125792666Y-95597666D01*
X125792666Y-95464333D01*
X125759333Y-95397666D01*
X125692666Y-95331000D01*
X125559333Y-95297666D01*
X125326000Y-95297666D01*
X125192666Y-95331000D01*
X125126000Y-95397666D01*
X125092666Y-95464333D01*
X125792666Y-96064333D02*
X125092666Y-96064333D01*
X125792666Y-96731000D02*
X125792666Y-96397666D01*
X125092666Y-96397666D01*
%TO.C,J2*%
D10*
X153495333Y-80732380D02*
X153495333Y-81446666D01*
X153542952Y-81589523D01*
X153638190Y-81684761D01*
X153781047Y-81732380D01*
X153876285Y-81732380D01*
X153066761Y-80827619D02*
X153019142Y-80780000D01*
X152923904Y-80732380D01*
X152685809Y-80732380D01*
X152590571Y-80780000D01*
X152542952Y-80827619D01*
X152495333Y-80922857D01*
X152495333Y-81018095D01*
X152542952Y-81160952D01*
X153114380Y-81732380D01*
X152495333Y-81732380D01*
%TO.C,J1*%
X122253333Y-83272380D02*
X122253333Y-83986666D01*
X122300952Y-84129523D01*
X122396190Y-84224761D01*
X122539047Y-84272380D01*
X122634285Y-84272380D01*
X121253333Y-84272380D02*
X121824761Y-84272380D01*
X121539047Y-84272380D02*
X121539047Y-83272380D01*
X121634285Y-83415238D01*
X121729523Y-83510476D01*
X121824761Y-83558095D01*
%TD*%
M02*
