M48
;DRILL file {KiCad 4.0.7} date 02/04/19 17:51:43
;FORMAT={-:-/ absolute / inch / decimal}
FMAT,2
INCH,TZ
T1C0.039
T2C0.043
T3C0.051
%
G90
G05
M72
T1
X4.7Y-3.7
X4.7Y-3.8
X4.7Y-3.9
T2
X4.7Y-3.1
X4.7Y-3.2
X4.7Y-3.3
X4.7Y-3.4
X7.3Y-3.25
X7.3Y-3.35
X7.3Y-3.45
X7.3Y-3.55
X7.3Y-3.65
X7.3Y-3.75
T3
X4.9345Y-3.0874
X4.9345Y-3.3826
X4.9345Y-3.6174
X4.9345Y-3.9126
X5.5959Y-3.0874
X5.5959Y-3.6174
X5.7337Y-3.3826
X5.7337Y-3.9126
X5.8715Y-3.0874
X5.8715Y-3.6174
X6.1045Y-3.0874
X6.1045Y-3.3826
X6.1045Y-3.6174
X6.1045Y-3.9126
X6.7659Y-3.0874
X6.7659Y-3.6174
X6.9037Y-3.3826
X6.9037Y-3.9126
X7.0415Y-3.0874
X7.0415Y-3.6174
T0
M30
