G04 #@! TF.FileFunction,Legend,Bot*
%FSLAX46Y46*%
G04 Gerber Fmt 4.6, Leading zero omitted, Abs format (unit mm)*
G04 Created by KiCad (PCBNEW 4.0.7) date 02/15/19 15:12:50*
%MOMM*%
%LPD*%
G01*
G04 APERTURE LIST*
%ADD10C,0.100000*%
%ADD11C,0.150000*%
%ADD12C,0.200000*%
G04 APERTURE END LIST*
D10*
D11*
X151312571Y-78414571D02*
X151169714Y-78462190D01*
X151122095Y-78509810D01*
X151074476Y-78605048D01*
X151074476Y-78747905D01*
X151122095Y-78843143D01*
X151169714Y-78890762D01*
X151264952Y-78938381D01*
X151645905Y-78938381D01*
X151645905Y-77938381D01*
X151312571Y-77938381D01*
X151217333Y-77986000D01*
X151169714Y-78033619D01*
X151122095Y-78128857D01*
X151122095Y-78224095D01*
X151169714Y-78319333D01*
X151217333Y-78366952D01*
X151312571Y-78414571D01*
X151645905Y-78414571D01*
X151312571Y-91876571D02*
X151169714Y-91924190D01*
X151122095Y-91971810D01*
X151074476Y-92067048D01*
X151074476Y-92209905D01*
X151122095Y-92305143D01*
X151169714Y-92352762D01*
X151264952Y-92400381D01*
X151645905Y-92400381D01*
X151645905Y-91400381D01*
X151312571Y-91400381D01*
X151217333Y-91448000D01*
X151169714Y-91495619D01*
X151122095Y-91590857D01*
X151122095Y-91686095D01*
X151169714Y-91781333D01*
X151217333Y-91828952D01*
X151312571Y-91876571D01*
X151645905Y-91876571D01*
X140192095Y-92114667D02*
X139715904Y-92114667D01*
X140287333Y-92400381D02*
X139954000Y-91400381D01*
X139620666Y-92400381D01*
D10*
X160092668Y-75883333D02*
X160059334Y-75850000D01*
X159992668Y-75816667D01*
X159826001Y-75816667D01*
X159759334Y-75850000D01*
X159726001Y-75883333D01*
X159692668Y-75950000D01*
X159692668Y-76016667D01*
X159726001Y-76116667D01*
X160126001Y-76516667D01*
X159692668Y-76516667D01*
X159259334Y-75816667D02*
X159192667Y-75816667D01*
X159126001Y-75850000D01*
X159092667Y-75883333D01*
X159059334Y-75950000D01*
X159026001Y-76083333D01*
X159026001Y-76250000D01*
X159059334Y-76383333D01*
X159092667Y-76450000D01*
X159126001Y-76483333D01*
X159192667Y-76516667D01*
X159259334Y-76516667D01*
X159326001Y-76483333D01*
X159359334Y-76450000D01*
X159392667Y-76383333D01*
X159426001Y-76250000D01*
X159426001Y-76083333D01*
X159392667Y-75950000D01*
X159359334Y-75883333D01*
X159326001Y-75850000D01*
X159259334Y-75816667D01*
X158359334Y-76516667D02*
X158759334Y-76516667D01*
X158559334Y-76516667D02*
X158559334Y-75816667D01*
X158626000Y-75916667D01*
X158692667Y-75983333D01*
X158759334Y-76016667D01*
X158026000Y-76516667D02*
X157892667Y-76516667D01*
X157826000Y-76483333D01*
X157792667Y-76450000D01*
X157726000Y-76350000D01*
X157692667Y-76216667D01*
X157692667Y-75950000D01*
X157726000Y-75883333D01*
X157759333Y-75850000D01*
X157826000Y-75816667D01*
X157959333Y-75816667D01*
X158026000Y-75850000D01*
X158059333Y-75883333D01*
X158092667Y-75950000D01*
X158092667Y-76116667D01*
X158059333Y-76183333D01*
X158026000Y-76216667D01*
X157959333Y-76250000D01*
X157826000Y-76250000D01*
X157759333Y-76216667D01*
X157726000Y-76183333D01*
X157692667Y-76116667D01*
X157392666Y-76450000D02*
X157359333Y-76483333D01*
X157392666Y-76516667D01*
X157426000Y-76483333D01*
X157392666Y-76450000D01*
X157392666Y-76516667D01*
X156926000Y-75816667D02*
X156859333Y-75816667D01*
X156792667Y-75850000D01*
X156759333Y-75883333D01*
X156726000Y-75950000D01*
X156692667Y-76083333D01*
X156692667Y-76250000D01*
X156726000Y-76383333D01*
X156759333Y-76450000D01*
X156792667Y-76483333D01*
X156859333Y-76516667D01*
X156926000Y-76516667D01*
X156992667Y-76483333D01*
X157026000Y-76450000D01*
X157059333Y-76383333D01*
X157092667Y-76250000D01*
X157092667Y-76083333D01*
X157059333Y-75950000D01*
X157026000Y-75883333D01*
X156992667Y-75850000D01*
X156926000Y-75816667D01*
X156426000Y-75883333D02*
X156392666Y-75850000D01*
X156326000Y-75816667D01*
X156159333Y-75816667D01*
X156092666Y-75850000D01*
X156059333Y-75883333D01*
X156026000Y-75950000D01*
X156026000Y-76016667D01*
X156059333Y-76116667D01*
X156459333Y-76516667D01*
X156026000Y-76516667D01*
X155725999Y-76450000D02*
X155692666Y-76483333D01*
X155725999Y-76516667D01*
X155759333Y-76483333D01*
X155725999Y-76450000D01*
X155725999Y-76516667D01*
X155026000Y-76516667D02*
X155426000Y-76516667D01*
X155226000Y-76516667D02*
X155226000Y-75816667D01*
X155292666Y-75916667D01*
X155359333Y-75983333D01*
X155426000Y-76016667D01*
X154392666Y-75816667D02*
X154725999Y-75816667D01*
X154759333Y-76150000D01*
X154725999Y-76116667D01*
X154659333Y-76083333D01*
X154492666Y-76083333D01*
X154425999Y-76116667D01*
X154392666Y-76150000D01*
X154359333Y-76216667D01*
X154359333Y-76383333D01*
X154392666Y-76450000D01*
X154425999Y-76483333D01*
X154492666Y-76516667D01*
X154659333Y-76516667D01*
X154725999Y-76483333D01*
X154759333Y-76450000D01*
D11*
X148931238Y-99020381D02*
X148740761Y-99020381D01*
X148645523Y-99068000D01*
X148550285Y-99163238D01*
X148502666Y-99353714D01*
X148502666Y-99687048D01*
X148550285Y-99877524D01*
X148645523Y-99972762D01*
X148740761Y-100020381D01*
X148931238Y-100020381D01*
X149026476Y-99972762D01*
X149121714Y-99877524D01*
X149169333Y-99687048D01*
X149169333Y-99353714D01*
X149121714Y-99163238D01*
X149026476Y-99068000D01*
X148931238Y-99020381D01*
X147502666Y-100020381D02*
X147836000Y-99544190D01*
X148074095Y-100020381D02*
X148074095Y-99020381D01*
X147693142Y-99020381D01*
X147597904Y-99068000D01*
X147550285Y-99115619D01*
X147502666Y-99210857D01*
X147502666Y-99353714D01*
X147550285Y-99448952D01*
X147597904Y-99496571D01*
X147693142Y-99544190D01*
X148074095Y-99544190D01*
D12*
X121844286Y-99484571D02*
X121844286Y-97984571D01*
X121130000Y-98484571D02*
X121130000Y-99484571D01*
X121130000Y-98627429D02*
X121058572Y-98556000D01*
X120915714Y-98484571D01*
X120701429Y-98484571D01*
X120558572Y-98556000D01*
X120487143Y-98698857D01*
X120487143Y-99484571D01*
X119772857Y-98484571D02*
X119772857Y-99984571D01*
X119772857Y-98556000D02*
X119630000Y-98484571D01*
X119344286Y-98484571D01*
X119201429Y-98556000D01*
X119130000Y-98627429D01*
X119058571Y-98770286D01*
X119058571Y-99198857D01*
X119130000Y-99341714D01*
X119201429Y-99413143D01*
X119344286Y-99484571D01*
X119630000Y-99484571D01*
X119772857Y-99413143D01*
X117772857Y-98484571D02*
X117772857Y-99484571D01*
X118415714Y-98484571D02*
X118415714Y-99270286D01*
X118344286Y-99413143D01*
X118201428Y-99484571D01*
X117987143Y-99484571D01*
X117844286Y-99413143D01*
X117772857Y-99341714D01*
X117272857Y-98484571D02*
X116701428Y-98484571D01*
X117058571Y-97984571D02*
X117058571Y-99270286D01*
X116987143Y-99413143D01*
X116844285Y-99484571D01*
X116701428Y-99484571D01*
X159245715Y-97984571D02*
X158960001Y-97984571D01*
X158817143Y-98056000D01*
X158674286Y-98198857D01*
X158602858Y-98484571D01*
X158602858Y-98984571D01*
X158674286Y-99270286D01*
X158817143Y-99413143D01*
X158960001Y-99484571D01*
X159245715Y-99484571D01*
X159388572Y-99413143D01*
X159531429Y-99270286D01*
X159602858Y-98984571D01*
X159602858Y-98484571D01*
X159531429Y-98198857D01*
X159388572Y-98056000D01*
X159245715Y-97984571D01*
X157317143Y-98484571D02*
X157317143Y-99484571D01*
X157960000Y-98484571D02*
X157960000Y-99270286D01*
X157888572Y-99413143D01*
X157745714Y-99484571D01*
X157531429Y-99484571D01*
X157388572Y-99413143D01*
X157317143Y-99341714D01*
X156817143Y-98484571D02*
X156245714Y-98484571D01*
X156602857Y-97984571D02*
X156602857Y-99270286D01*
X156531429Y-99413143D01*
X156388571Y-99484571D01*
X156245714Y-99484571D01*
X155745714Y-98484571D02*
X155745714Y-99984571D01*
X155745714Y-98556000D02*
X155602857Y-98484571D01*
X155317143Y-98484571D01*
X155174286Y-98556000D01*
X155102857Y-98627429D01*
X155031428Y-98770286D01*
X155031428Y-99198857D01*
X155102857Y-99341714D01*
X155174286Y-99413143D01*
X155317143Y-99484571D01*
X155602857Y-99484571D01*
X155745714Y-99413143D01*
X153745714Y-98484571D02*
X153745714Y-99484571D01*
X154388571Y-98484571D02*
X154388571Y-99270286D01*
X154317143Y-99413143D01*
X154174285Y-99484571D01*
X153960000Y-99484571D01*
X153817143Y-99413143D01*
X153745714Y-99341714D01*
X153245714Y-98484571D02*
X152674285Y-98484571D01*
X153031428Y-97984571D02*
X153031428Y-99270286D01*
X152960000Y-99413143D01*
X152817142Y-99484571D01*
X152674285Y-99484571D01*
D11*
X120586285Y-80006857D02*
X120300571Y-80806857D01*
X120014857Y-80006857D01*
X118929142Y-80806857D02*
X119614857Y-80806857D01*
X119271999Y-80806857D02*
X119271999Y-79606857D01*
X119386285Y-79778286D01*
X119500571Y-79892571D01*
X119614857Y-79949714D01*
X118414857Y-80692571D02*
X118357714Y-80749714D01*
X118414857Y-80806857D01*
X118472000Y-80749714D01*
X118414857Y-80692571D01*
X118414857Y-80806857D01*
X117214856Y-80806857D02*
X117900571Y-80806857D01*
X117557713Y-80806857D02*
X117557713Y-79606857D01*
X117671999Y-79778286D01*
X117786285Y-79892571D01*
X117900571Y-79949714D01*
X122586286Y-77924000D02*
X122014857Y-77924000D01*
X122700571Y-78266857D02*
X122300571Y-77066857D01*
X121900571Y-78266857D01*
X120814857Y-78152571D02*
X120872000Y-78209714D01*
X121043429Y-78266857D01*
X121157715Y-78266857D01*
X121329143Y-78209714D01*
X121443429Y-78095429D01*
X121500572Y-77981143D01*
X121557715Y-77752571D01*
X121557715Y-77581143D01*
X121500572Y-77352571D01*
X121443429Y-77238286D01*
X121329143Y-77124000D01*
X121157715Y-77066857D01*
X121043429Y-77066857D01*
X120872000Y-77124000D01*
X120814857Y-77181143D01*
X118814857Y-78266857D02*
X119386286Y-78266857D01*
X119386286Y-77066857D01*
X118243428Y-78266857D02*
X118357714Y-78209714D01*
X118414857Y-78152571D01*
X118472000Y-78038286D01*
X118472000Y-77695429D01*
X118414857Y-77581143D01*
X118357714Y-77524000D01*
X118243428Y-77466857D01*
X118072000Y-77466857D01*
X117957714Y-77524000D01*
X117900571Y-77581143D01*
X117843428Y-77695429D01*
X117843428Y-78038286D01*
X117900571Y-78152571D01*
X117957714Y-78209714D01*
X118072000Y-78266857D01*
X118243428Y-78266857D01*
X116814857Y-77466857D02*
X116814857Y-78438286D01*
X116872000Y-78552571D01*
X116929143Y-78609714D01*
X117043428Y-78666857D01*
X117214857Y-78666857D01*
X117329143Y-78609714D01*
X116814857Y-78209714D02*
X116929143Y-78266857D01*
X117157714Y-78266857D01*
X117272000Y-78209714D01*
X117329143Y-78152571D01*
X117386286Y-78038286D01*
X117386286Y-77695429D01*
X117329143Y-77581143D01*
X117272000Y-77524000D01*
X117157714Y-77466857D01*
X116929143Y-77466857D01*
X116814857Y-77524000D01*
X116243429Y-78266857D02*
X116243429Y-77466857D01*
X116243429Y-77066857D02*
X116300572Y-77124000D01*
X116243429Y-77181143D01*
X116186286Y-77124000D01*
X116243429Y-77066857D01*
X116243429Y-77181143D01*
X115157714Y-78209714D02*
X115272000Y-78266857D01*
X115500571Y-78266857D01*
X115614857Y-78209714D01*
X115672000Y-78152571D01*
X115729143Y-78038286D01*
X115729143Y-77695429D01*
X115672000Y-77581143D01*
X115614857Y-77524000D01*
X115500571Y-77466857D01*
X115272000Y-77466857D01*
X115157714Y-77524000D01*
D12*
X152400000Y-82042000D02*
X159004000Y-82042000D01*
X152400000Y-95758000D02*
X152400000Y-82042000D01*
X159004000Y-95758000D02*
X152400000Y-95758000D01*
X122682000Y-93218000D02*
X116078000Y-93218000D01*
X122682000Y-84582000D02*
X122682000Y-93218000D01*
X116078000Y-84582000D02*
X122682000Y-84582000D01*
D11*
X158837238Y-90892381D02*
X158646761Y-90892381D01*
X158551523Y-90940000D01*
X158456285Y-91035238D01*
X158408666Y-91225714D01*
X158408666Y-91559048D01*
X158456285Y-91749524D01*
X158551523Y-91844762D01*
X158646761Y-91892381D01*
X158837238Y-91892381D01*
X158932476Y-91844762D01*
X159027714Y-91749524D01*
X159075333Y-91559048D01*
X159075333Y-91225714D01*
X159027714Y-91035238D01*
X158932476Y-90940000D01*
X158837238Y-90892381D01*
X157408666Y-91892381D02*
X157742000Y-91416190D01*
X157980095Y-91892381D02*
X157980095Y-90892381D01*
X157599142Y-90892381D01*
X157503904Y-90940000D01*
X157456285Y-90987619D01*
X157408666Y-91082857D01*
X157408666Y-91225714D01*
X157456285Y-91320952D01*
X157503904Y-91368571D01*
X157599142Y-91416190D01*
X157980095Y-91416190D01*
X160011905Y-89066667D02*
X159535714Y-89066667D01*
X160107143Y-89352381D02*
X159773810Y-88352381D01*
X159440476Y-89352381D01*
X159107143Y-89352381D02*
X159107143Y-88352381D01*
X158535714Y-89352381D01*
X158535714Y-88352381D01*
X158059524Y-89352381D02*
X158059524Y-88352381D01*
X157821429Y-88352381D01*
X157678571Y-88400000D01*
X157583333Y-88495238D01*
X157535714Y-88590476D01*
X157488095Y-88780952D01*
X157488095Y-88923810D01*
X157535714Y-89114286D01*
X157583333Y-89209524D01*
X157678571Y-89304762D01*
X157821429Y-89352381D01*
X158059524Y-89352381D01*
X157662571Y-86288571D02*
X157519714Y-86336190D01*
X157472095Y-86383810D01*
X157424476Y-86479048D01*
X157424476Y-86621905D01*
X157472095Y-86717143D01*
X157519714Y-86764762D01*
X157614952Y-86812381D01*
X157995905Y-86812381D01*
X157995905Y-85812381D01*
X157662571Y-85812381D01*
X157567333Y-85860000D01*
X157519714Y-85907619D01*
X157472095Y-86002857D01*
X157472095Y-86098095D01*
X157519714Y-86193333D01*
X157567333Y-86240952D01*
X157662571Y-86288571D01*
X157995905Y-86288571D01*
X157972095Y-83986667D02*
X157495904Y-83986667D01*
X158067333Y-84272381D02*
X157734000Y-83272381D01*
X157400666Y-84272381D01*
X159535714Y-94337143D02*
X159583333Y-94384762D01*
X159726190Y-94432381D01*
X159821428Y-94432381D01*
X159964286Y-94384762D01*
X160059524Y-94289524D01*
X160107143Y-94194286D01*
X160154762Y-94003810D01*
X160154762Y-93860952D01*
X160107143Y-93670476D01*
X160059524Y-93575238D01*
X159964286Y-93480000D01*
X159821428Y-93432381D01*
X159726190Y-93432381D01*
X159583333Y-93480000D01*
X159535714Y-93527619D01*
X158916667Y-93432381D02*
X158726190Y-93432381D01*
X158630952Y-93480000D01*
X158535714Y-93575238D01*
X158488095Y-93765714D01*
X158488095Y-94099048D01*
X158535714Y-94289524D01*
X158630952Y-94384762D01*
X158726190Y-94432381D01*
X158916667Y-94432381D01*
X159011905Y-94384762D01*
X159107143Y-94289524D01*
X159154762Y-94099048D01*
X159154762Y-93765714D01*
X159107143Y-93575238D01*
X159011905Y-93480000D01*
X158916667Y-93432381D01*
X158059524Y-94432381D02*
X158059524Y-93432381D01*
X157726190Y-94146667D01*
X157392857Y-93432381D01*
X157392857Y-94432381D01*
X117586095Y-86526667D02*
X117109904Y-86526667D01*
X117681333Y-86812381D02*
X117348000Y-85812381D01*
X117014666Y-86812381D01*
X117276571Y-88828571D02*
X117133714Y-88876190D01*
X117086095Y-88923810D01*
X117038476Y-89019048D01*
X117038476Y-89161905D01*
X117086095Y-89257143D01*
X117133714Y-89304762D01*
X117228952Y-89352381D01*
X117609905Y-89352381D01*
X117609905Y-88352381D01*
X117276571Y-88352381D01*
X117181333Y-88400000D01*
X117133714Y-88447619D01*
X117086095Y-88542857D01*
X117086095Y-88638095D01*
X117133714Y-88733333D01*
X117181333Y-88780952D01*
X117276571Y-88828571D01*
X117609905Y-88828571D01*
X117117714Y-91797143D02*
X117165333Y-91844762D01*
X117308190Y-91892381D01*
X117403428Y-91892381D01*
X117546286Y-91844762D01*
X117641524Y-91749524D01*
X117689143Y-91654286D01*
X117736762Y-91463810D01*
X117736762Y-91320952D01*
X117689143Y-91130476D01*
X117641524Y-91035238D01*
X117546286Y-90940000D01*
X117403428Y-90892381D01*
X117308190Y-90892381D01*
X117165333Y-90940000D01*
X117117714Y-90987619D01*
X116498667Y-90892381D02*
X116308190Y-90892381D01*
X116212952Y-90940000D01*
X116117714Y-91035238D01*
X116070095Y-91225714D01*
X116070095Y-91559048D01*
X116117714Y-91749524D01*
X116212952Y-91844762D01*
X116308190Y-91892381D01*
X116498667Y-91892381D01*
X116593905Y-91844762D01*
X116689143Y-91749524D01*
X116736762Y-91559048D01*
X116736762Y-91225714D01*
X116689143Y-91035238D01*
X116593905Y-90940000D01*
X116498667Y-90892381D01*
X115641524Y-91892381D02*
X115641524Y-90892381D01*
X115308190Y-91606667D01*
X114974857Y-90892381D01*
X114974857Y-91892381D01*
X150105905Y-86272667D02*
X149629714Y-86272667D01*
X150201143Y-86558381D02*
X149867810Y-85558381D01*
X149534476Y-86558381D01*
X149201143Y-86558381D02*
X149201143Y-85558381D01*
X148629714Y-86558381D01*
X148629714Y-85558381D01*
X148153524Y-86558381D02*
X148153524Y-85558381D01*
X147915429Y-85558381D01*
X147772571Y-85606000D01*
X147677333Y-85701238D01*
X147629714Y-85796476D01*
X147582095Y-85986952D01*
X147582095Y-86129810D01*
X147629714Y-86320286D01*
X147677333Y-86415524D01*
X147772571Y-86510762D01*
X147915429Y-86558381D01*
X148153524Y-86558381D01*
D12*
X125476000Y-97028000D02*
X125476000Y-97790000D01*
X125476000Y-93980000D02*
X125476000Y-93472000D01*
X125476000Y-83566000D02*
X125476000Y-84328000D01*
X125476000Y-80518000D02*
X125476000Y-80010000D01*
X147828000Y-80772000D02*
X146304000Y-80772000D01*
X145542000Y-82804000D02*
X145542000Y-82042000D01*
X145542000Y-82042000D02*
X144272000Y-80518000D01*
X143256000Y-80772000D02*
X144780000Y-80772000D01*
X145542000Y-95504000D02*
X144272000Y-93980000D01*
X145542000Y-96266000D02*
X145542000Y-95504000D01*
X147828000Y-94234000D02*
X146304000Y-94234000D01*
X143256000Y-94234000D02*
X144780000Y-94234000D01*
D11*
X128000095Y-78652667D02*
X127523904Y-78652667D01*
X128095333Y-78938381D02*
X127762000Y-77938381D01*
X127428666Y-78938381D01*
X127690571Y-91876571D02*
X127547714Y-91924190D01*
X127500095Y-91971810D01*
X127452476Y-92067048D01*
X127452476Y-92209905D01*
X127500095Y-92305143D01*
X127547714Y-92352762D01*
X127642952Y-92400381D01*
X128023905Y-92400381D01*
X128023905Y-91400381D01*
X127690571Y-91400381D01*
X127595333Y-91448000D01*
X127547714Y-91495619D01*
X127500095Y-91590857D01*
X127500095Y-91686095D01*
X127547714Y-91781333D01*
X127595333Y-91828952D01*
X127690571Y-91876571D01*
X128023905Y-91876571D01*
X129309714Y-86463143D02*
X129357333Y-86510762D01*
X129500190Y-86558381D01*
X129595428Y-86558381D01*
X129738286Y-86510762D01*
X129833524Y-86415524D01*
X129881143Y-86320286D01*
X129928762Y-86129810D01*
X129928762Y-85986952D01*
X129881143Y-85796476D01*
X129833524Y-85701238D01*
X129738286Y-85606000D01*
X129595428Y-85558381D01*
X129500190Y-85558381D01*
X129357333Y-85606000D01*
X129309714Y-85653619D01*
X128690667Y-85558381D02*
X128500190Y-85558381D01*
X128404952Y-85606000D01*
X128309714Y-85701238D01*
X128262095Y-85891714D01*
X128262095Y-86225048D01*
X128309714Y-86415524D01*
X128404952Y-86510762D01*
X128500190Y-86558381D01*
X128690667Y-86558381D01*
X128785905Y-86510762D01*
X128881143Y-86415524D01*
X128928762Y-86225048D01*
X128928762Y-85891714D01*
X128881143Y-85701238D01*
X128785905Y-85606000D01*
X128690667Y-85558381D01*
X127833524Y-86558381D02*
X127833524Y-85558381D01*
X127500190Y-86272667D01*
X127166857Y-85558381D01*
X127166857Y-86558381D01*
X129309714Y-99925143D02*
X129357333Y-99972762D01*
X129500190Y-100020381D01*
X129595428Y-100020381D01*
X129738286Y-99972762D01*
X129833524Y-99877524D01*
X129881143Y-99782286D01*
X129928762Y-99591810D01*
X129928762Y-99448952D01*
X129881143Y-99258476D01*
X129833524Y-99163238D01*
X129738286Y-99068000D01*
X129595428Y-99020381D01*
X129500190Y-99020381D01*
X129357333Y-99068000D01*
X129309714Y-99115619D01*
X128690667Y-99020381D02*
X128500190Y-99020381D01*
X128404952Y-99068000D01*
X128309714Y-99163238D01*
X128262095Y-99353714D01*
X128262095Y-99687048D01*
X128309714Y-99877524D01*
X128404952Y-99972762D01*
X128500190Y-100020381D01*
X128690667Y-100020381D01*
X128785905Y-99972762D01*
X128881143Y-99877524D01*
X128928762Y-99687048D01*
X128928762Y-99353714D01*
X128881143Y-99163238D01*
X128785905Y-99068000D01*
X128690667Y-99020381D01*
X127833524Y-100020381D02*
X127833524Y-99020381D01*
X127500190Y-99734667D01*
X127166857Y-99020381D01*
X127166857Y-100020381D01*
X135366000Y-95131381D02*
X135699334Y-94655190D01*
X135937429Y-95131381D02*
X135937429Y-94131381D01*
X135556476Y-94131381D01*
X135461238Y-94179000D01*
X135413619Y-94226619D01*
X135366000Y-94321857D01*
X135366000Y-94464714D01*
X135413619Y-94559952D01*
X135461238Y-94607571D01*
X135556476Y-94655190D01*
X135937429Y-94655190D01*
X134461238Y-95131381D02*
X134937429Y-95131381D01*
X134937429Y-94131381D01*
X133937429Y-94655190D02*
X133937429Y-95131381D01*
X134270762Y-94131381D02*
X133937429Y-94655190D01*
X133604095Y-94131381D01*
X133318381Y-94226619D02*
X133270762Y-94179000D01*
X133175524Y-94131381D01*
X132937428Y-94131381D01*
X132842190Y-94179000D01*
X132794571Y-94226619D01*
X132746952Y-94321857D01*
X132746952Y-94417095D01*
X132794571Y-94559952D01*
X133366000Y-95131381D01*
X132746952Y-95131381D01*
X135008857Y-97162333D02*
X135056477Y-97114714D01*
X135151715Y-96971857D01*
X135199334Y-96876619D01*
X135246953Y-96733762D01*
X135294572Y-96495667D01*
X135294572Y-96305190D01*
X135246953Y-96067095D01*
X135199334Y-95924238D01*
X135151715Y-95829000D01*
X135056477Y-95686143D01*
X135008857Y-95638524D01*
X134294571Y-96257571D02*
X134151714Y-96305190D01*
X134104095Y-96352810D01*
X134056476Y-96448048D01*
X134056476Y-96590905D01*
X134104095Y-96686143D01*
X134151714Y-96733762D01*
X134246952Y-96781381D01*
X134627905Y-96781381D01*
X134627905Y-95781381D01*
X134294571Y-95781381D01*
X134199333Y-95829000D01*
X134151714Y-95876619D01*
X134104095Y-95971857D01*
X134104095Y-96067095D01*
X134151714Y-96162333D01*
X134199333Y-96209952D01*
X134294571Y-96257571D01*
X134627905Y-96257571D01*
X133723143Y-97162333D02*
X133675524Y-97114714D01*
X133580286Y-96971857D01*
X133532667Y-96876619D01*
X133485048Y-96733762D01*
X133437429Y-96495667D01*
X133437429Y-96305190D01*
X133485048Y-96067095D01*
X133532667Y-95924238D01*
X133580286Y-95829000D01*
X133675524Y-95686143D01*
X133723143Y-95638524D01*
X135366000Y-81923381D02*
X135699334Y-81447190D01*
X135937429Y-81923381D02*
X135937429Y-80923381D01*
X135556476Y-80923381D01*
X135461238Y-80971000D01*
X135413619Y-81018619D01*
X135366000Y-81113857D01*
X135366000Y-81256714D01*
X135413619Y-81351952D01*
X135461238Y-81399571D01*
X135556476Y-81447190D01*
X135937429Y-81447190D01*
X134461238Y-81923381D02*
X134937429Y-81923381D01*
X134937429Y-80923381D01*
X133937429Y-81447190D02*
X133937429Y-81923381D01*
X134270762Y-80923381D02*
X133937429Y-81447190D01*
X133604095Y-80923381D01*
X132746952Y-81923381D02*
X133318381Y-81923381D01*
X133032667Y-81923381D02*
X133032667Y-80923381D01*
X133127905Y-81066238D01*
X133223143Y-81161476D01*
X133318381Y-81209095D01*
X134937428Y-83954333D02*
X134985048Y-83906714D01*
X135080286Y-83763857D01*
X135127905Y-83668619D01*
X135175524Y-83525762D01*
X135223143Y-83287667D01*
X135223143Y-83097190D01*
X135175524Y-82859095D01*
X135127905Y-82716238D01*
X135080286Y-82621000D01*
X134985048Y-82478143D01*
X134937428Y-82430524D01*
X134604095Y-83287667D02*
X134127904Y-83287667D01*
X134699333Y-83573381D02*
X134366000Y-82573381D01*
X134032666Y-83573381D01*
X133794571Y-83954333D02*
X133746952Y-83906714D01*
X133651714Y-83763857D01*
X133604095Y-83668619D01*
X133556476Y-83525762D01*
X133508857Y-83287667D01*
X133508857Y-83097190D01*
X133556476Y-82859095D01*
X133604095Y-82716238D01*
X133651714Y-82621000D01*
X133746952Y-82478143D01*
X133794571Y-82430524D01*
X122986000Y-88519000D02*
X151986000Y-88519000D01*
X151986000Y-88519000D02*
X151986000Y-75819000D01*
X151986000Y-75819000D02*
X122986000Y-75819000D01*
X122986000Y-88519000D02*
X122986000Y-75819000D01*
X122986000Y-101981000D02*
X151986000Y-101981000D01*
X151986000Y-101981000D02*
X151986000Y-89281000D01*
X151986000Y-89281000D02*
X122986000Y-89281000D01*
X122986000Y-101981000D02*
X122986000Y-89281000D01*
D10*
X145325333Y-84070000D02*
X145358667Y-84103333D01*
X145458667Y-84136667D01*
X145525333Y-84136667D01*
X145625333Y-84103333D01*
X145692000Y-84036667D01*
X145725333Y-83970000D01*
X145758667Y-83836667D01*
X145758667Y-83736667D01*
X145725333Y-83603333D01*
X145692000Y-83536667D01*
X145625333Y-83470000D01*
X145525333Y-83436667D01*
X145458667Y-83436667D01*
X145358667Y-83470000D01*
X145325333Y-83503333D01*
X149664666Y-81088667D02*
X149664666Y-80388667D01*
X149264666Y-81088667D01*
X149264666Y-80388667D01*
X148798000Y-80388667D02*
X148664667Y-80388667D01*
X148598000Y-80422000D01*
X148531333Y-80488667D01*
X148498000Y-80622000D01*
X148498000Y-80855333D01*
X148531333Y-80988667D01*
X148598000Y-81055333D01*
X148664667Y-81088667D01*
X148798000Y-81088667D01*
X148864667Y-81055333D01*
X148931333Y-80988667D01*
X148964667Y-80855333D01*
X148964667Y-80622000D01*
X148931333Y-80488667D01*
X148864667Y-80422000D01*
X148798000Y-80388667D01*
X142535999Y-81088667D02*
X142535999Y-80388667D01*
X142135999Y-81088667D01*
X142135999Y-80388667D01*
X141402666Y-81022000D02*
X141436000Y-81055333D01*
X141536000Y-81088667D01*
X141602666Y-81088667D01*
X141702666Y-81055333D01*
X141769333Y-80988667D01*
X141802666Y-80922000D01*
X141836000Y-80788667D01*
X141836000Y-80688667D01*
X141802666Y-80555333D01*
X141769333Y-80488667D01*
X141702666Y-80422000D01*
X141602666Y-80388667D01*
X141536000Y-80388667D01*
X141436000Y-80422000D01*
X141402666Y-80455333D01*
X125726000Y-81569001D02*
X125759333Y-81535667D01*
X125792667Y-81435667D01*
X125792667Y-81369001D01*
X125759333Y-81269001D01*
X125692667Y-81202334D01*
X125626000Y-81169001D01*
X125492667Y-81135667D01*
X125392667Y-81135667D01*
X125259333Y-81169001D01*
X125192667Y-81202334D01*
X125126000Y-81269001D01*
X125092667Y-81369001D01*
X125092667Y-81435667D01*
X125126000Y-81535667D01*
X125159333Y-81569001D01*
X125092667Y-82002334D02*
X125092667Y-82135667D01*
X125126000Y-82202334D01*
X125192667Y-82269001D01*
X125326000Y-82302334D01*
X125559333Y-82302334D01*
X125692667Y-82269001D01*
X125759333Y-82202334D01*
X125792667Y-82135667D01*
X125792667Y-82002334D01*
X125759333Y-81935667D01*
X125692667Y-81869001D01*
X125559333Y-81835667D01*
X125326000Y-81835667D01*
X125192667Y-81869001D01*
X125126000Y-81935667D01*
X125092667Y-82002334D01*
X125792667Y-82602334D02*
X125092667Y-82602334D01*
X125792667Y-83269000D02*
X125792667Y-82935667D01*
X125092667Y-82935667D01*
X145325333Y-97532000D02*
X145358667Y-97565333D01*
X145458667Y-97598667D01*
X145525333Y-97598667D01*
X145625333Y-97565333D01*
X145692000Y-97498667D01*
X145725333Y-97432000D01*
X145758667Y-97298667D01*
X145758667Y-97198667D01*
X145725333Y-97065333D01*
X145692000Y-96998667D01*
X145625333Y-96932000D01*
X145525333Y-96898667D01*
X145458667Y-96898667D01*
X145358667Y-96932000D01*
X145325333Y-96965333D01*
X149664666Y-94550667D02*
X149664666Y-93850667D01*
X149264666Y-94550667D01*
X149264666Y-93850667D01*
X148798000Y-93850667D02*
X148664667Y-93850667D01*
X148598000Y-93884000D01*
X148531333Y-93950667D01*
X148498000Y-94084000D01*
X148498000Y-94317333D01*
X148531333Y-94450667D01*
X148598000Y-94517333D01*
X148664667Y-94550667D01*
X148798000Y-94550667D01*
X148864667Y-94517333D01*
X148931333Y-94450667D01*
X148964667Y-94317333D01*
X148964667Y-94084000D01*
X148931333Y-93950667D01*
X148864667Y-93884000D01*
X148798000Y-93850667D01*
X142535999Y-94550667D02*
X142535999Y-93850667D01*
X142135999Y-94550667D01*
X142135999Y-93850667D01*
X141402666Y-94484000D02*
X141436000Y-94517333D01*
X141536000Y-94550667D01*
X141602666Y-94550667D01*
X141702666Y-94517333D01*
X141769333Y-94450667D01*
X141802666Y-94384000D01*
X141836000Y-94250667D01*
X141836000Y-94150667D01*
X141802666Y-94017333D01*
X141769333Y-93950667D01*
X141702666Y-93884000D01*
X141602666Y-93850667D01*
X141536000Y-93850667D01*
X141436000Y-93884000D01*
X141402666Y-93917333D01*
X125726000Y-95031001D02*
X125759333Y-94997667D01*
X125792667Y-94897667D01*
X125792667Y-94831001D01*
X125759333Y-94731001D01*
X125692667Y-94664334D01*
X125626000Y-94631001D01*
X125492667Y-94597667D01*
X125392667Y-94597667D01*
X125259333Y-94631001D01*
X125192667Y-94664334D01*
X125126000Y-94731001D01*
X125092667Y-94831001D01*
X125092667Y-94897667D01*
X125126000Y-94997667D01*
X125159333Y-95031001D01*
X125092667Y-95464334D02*
X125092667Y-95597667D01*
X125126000Y-95664334D01*
X125192667Y-95731001D01*
X125326000Y-95764334D01*
X125559333Y-95764334D01*
X125692667Y-95731001D01*
X125759333Y-95664334D01*
X125792667Y-95597667D01*
X125792667Y-95464334D01*
X125759333Y-95397667D01*
X125692667Y-95331001D01*
X125559333Y-95297667D01*
X125326000Y-95297667D01*
X125192667Y-95331001D01*
X125126000Y-95397667D01*
X125092667Y-95464334D01*
X125792667Y-96064334D02*
X125092667Y-96064334D01*
X125792667Y-96731000D02*
X125792667Y-96397667D01*
X125092667Y-96397667D01*
D11*
X153495333Y-80732381D02*
X153495333Y-81446667D01*
X153542953Y-81589524D01*
X153638191Y-81684762D01*
X153781048Y-81732381D01*
X153876286Y-81732381D01*
X153066762Y-80827619D02*
X153019143Y-80780000D01*
X152923905Y-80732381D01*
X152685809Y-80732381D01*
X152590571Y-80780000D01*
X152542952Y-80827619D01*
X152495333Y-80922857D01*
X152495333Y-81018095D01*
X152542952Y-81160952D01*
X153114381Y-81732381D01*
X152495333Y-81732381D01*
X122253333Y-83272381D02*
X122253333Y-83986667D01*
X122300953Y-84129524D01*
X122396191Y-84224762D01*
X122539048Y-84272381D01*
X122634286Y-84272381D01*
X121253333Y-84272381D02*
X121824762Y-84272381D01*
X121539048Y-84272381D02*
X121539048Y-83272381D01*
X121634286Y-83415238D01*
X121729524Y-83510476D01*
X121824762Y-83558095D01*
M02*
