M48
; DRILL file KiCad 10.0.1 date 2026-05-02T12:26:42
; FORMAT={-:-/ absolute / metric / decimal}
; #@! TF.CreationDate,2026-05-02T12:26:42-05:00
; #@! TF.GenerationSoftware,Kicad,Pcbnew,10.0.1
; #@! TF.FileFunction,Plated,1,4,PTH
FMAT,2
METRIC
; #@! TA.AperFunction,Plated,PTH,ViaDrill
T1C0.300
; #@! TA.AperFunction,Plated,PTH,ComponentDrill
T2C0.600
; #@! TA.AperFunction,Plated,PTH,ComponentDrill
T3C1.000
; #@! TA.AperFunction,Plated,PTH,ComponentDrill
T4C1.020
; #@! TA.AperFunction,Plated,PTH,ComponentDrill
T5C1.220
; #@! TA.AperFunction,Plated,PTH,ComponentDrill
T6C1.300
; #@! TA.AperFunction,Plated,PTH,ComponentDrill
T7C1.490
; #@! TA.AperFunction,Plated,PTH,ComponentDrill
T8C1.830
%
G90
G05
T1
X131.8Y-113.8
X132.8Y-85.2
X133.6Y-113.7
X133.8Y-112.6
X133.9Y-111.5
X134.7Y-114.1
X135.242Y-113.194
X135.7Y-106.0
X135.8Y-85.2
X135.8Y-113.9
X136.3Y-124.2
X136.4Y-113.2
X137.2Y-111.7
X137.2Y-112.8
X137.3Y-114.25
X145.0Y-98.0
X147.25Y-100.55
X147.3Y-90.4
X149.9Y-107.39
X153.6Y-108.0
X158.66Y-95.99
X158.8Y-100.0
X158.9Y-127.0
X160.42Y-112.05
X161.3Y-106.0
X162.6Y-115.9
X162.6Y-117.2
X166.9Y-115.7
X167.0Y-112.1
X167.1Y-113.9
X167.7Y-84.25
X168.0Y-93.0
X170.1Y-111.7
X170.2Y-113.4
X170.75Y-114.45
X171.6Y-113.6
X172.9Y-112.0
X172.9Y-113.3
T2
X147.75Y-127.9
X155.25Y-134.5
T3
X134.0Y-92.92
X134.0Y-95.46
X134.0Y-98.0
X134.0Y-100.54
X161.0Y-132.46
X161.0Y-135.0
X161.0Y-137.54
T4
X139.275Y-77.874
X139.275Y-80.414
X139.275Y-82.954
X139.275Y-85.494
X139.275Y-88.034
X139.275Y-90.574
X139.275Y-93.114
X139.275Y-95.654
X139.275Y-98.194
X139.275Y-100.734
X139.275Y-103.274
X139.275Y-105.814
X139.275Y-108.354
X139.275Y-110.894
X139.275Y-113.434
X164.675Y-77.874
X164.675Y-80.414
X164.675Y-82.954
X164.675Y-85.494
X164.675Y-88.034
X164.675Y-90.574
X164.675Y-93.114
X164.675Y-95.654
X164.675Y-98.194
X164.675Y-100.734
X164.675Y-103.274
X164.675Y-105.814
X164.675Y-108.354
X164.675Y-110.894
X164.675Y-113.434
T5
X170.0Y-90.0
X170.0Y-100.0
T6
X148.25Y-135.1
X148.25Y-138.1
X156.25Y-138.1
T7
X132.8Y-129.5
X171.3Y-129.3
T8
X138.6Y-133.7
X140.0Y-137.7
X143.0Y-134.0
X165.0Y-137.7
X165.6Y-133.6
M30
