%TF.GenerationSoftware,KiCad,Pcbnew,10.0.1*%
%TF.CreationDate,2026-05-02T12:26:32-05:00*%
%TF.ProjectId,ESPDrive,45535044-7269-4766-952e-6b696361645f,rev?*%
%TF.SameCoordinates,Original*%
%TF.FileFunction,Copper,L2,Inr*%
%TF.FilePolarity,Positive*%
%FSLAX46Y46*%
G04 Gerber Fmt 4.6, Leading zero omitted, Abs format (unit mm)*
G04 Created by KiCad (PCBNEW 10.0.1) date 2026-05-02 12:26:32*
%MOMM*%
%LPD*%
G01*
G04 APERTURE LIST*
%TA.AperFunction,ComponentPad*%
%ADD10C,2.000000*%
%TD*%
%TA.AperFunction,ComponentPad*%
%ADD11R,2.000000X2.000000*%
%TD*%
%TA.AperFunction,ComponentPad*%
%ADD12C,2.220000*%
%TD*%
%TA.AperFunction,ComponentPad*%
%ADD13C,2.490000*%
%TD*%
%TA.AperFunction,ComponentPad*%
%ADD14C,2.830000*%
%TD*%
%TA.AperFunction,ComponentPad*%
%ADD15C,1.300000*%
%TD*%
%TA.AperFunction,ComponentPad*%
%ADD16C,2.300000*%
%TD*%
%TA.AperFunction,WasherPad*%
%ADD17C,4.500000*%
%TD*%
%TA.AperFunction,ComponentPad*%
%ADD18R,1.700000X1.700000*%
%TD*%
%TA.AperFunction,ComponentPad*%
%ADD19C,1.700000*%
%TD*%
%TA.AperFunction,ViaPad*%
%ADD20C,0.600000*%
%TD*%
%TA.AperFunction,ViaPad*%
%ADD21C,1.500000*%
%TD*%
%TA.AperFunction,Conductor*%
%ADD22C,0.500000*%
%TD*%
%TA.AperFunction,Conductor*%
%ADD23C,2.000000*%
%TD*%
G04 APERTURE END LIST*
D10*
%TO.N,unconnected-(MCU1-D23-Pad30)*%
%TO.C,MCU1*%
X164675186Y-77873999D03*
%TO.N,unconnected-(MCU1-D22-Pad29)*%
X164675186Y-80413999D03*
%TO.N,unconnected-(MCU1-TX0-Pad28)*%
X164675186Y-82953999D03*
%TO.N,unconnected-(MCU1-RX0-Pad27)*%
X164675186Y-85493999D03*
%TO.N,unconnected-(MCU1-D21-Pad26)*%
X164675186Y-88033999D03*
%TO.N,C_on*%
X164675186Y-90573999D03*
%TO.N,C_lights*%
X164675186Y-93113999D03*
%TO.N,C_relay*%
X164675186Y-95653999D03*
%TO.N,C_en*%
X164675186Y-98193999D03*
%TO.N,unconnected-(MCU1-RX2-Pad21)*%
X164675186Y-100733999D03*
%TO.N,C_vdiv*%
X164675186Y-103273999D03*
%TO.N,unconnected-(MCU1-D2-Pad19)*%
X164675186Y-105813999D03*
%TO.N,unconnected-(MCU1-D15-Pad18)*%
X164675186Y-108353999D03*
%TO.N,GNDREF*%
X164675186Y-110893999D03*
D11*
%TO.N,+3V3*%
X164675186Y-113433999D03*
%TO.N,unconnected-(MCU1-VIN-Pad15)*%
X139275186Y-113433999D03*
D10*
%TO.N,GNDREF*%
X139275186Y-110893999D03*
%TO.N,unconnected-(MCU1-D13-Pad13)*%
X139275186Y-108353999D03*
%TO.N,unconnected-(MCU1-D12-Pad12)*%
X139275186Y-105813999D03*
%TO.N,unconnected-(MCU1-D14-Pad11)*%
X139275186Y-103273999D03*
%TO.N,C_g*%
X139275186Y-100733999D03*
%TO.N,unconnected-(MCU1-D26-Pad9)*%
X139275186Y-98193999D03*
%TO.N,unconnected-(MCU1-D25-Pad8)*%
X139275186Y-95653999D03*
%TO.N,C_r*%
X139275186Y-93113999D03*
%TO.N,C_b*%
X139275186Y-90573999D03*
%TO.N,unconnected-(MCU1-D35-Pad5)*%
X139275186Y-88033999D03*
%TO.N,unconnected-(MCU1-D34-Pad4)*%
X139275186Y-85493999D03*
%TO.N,unconnected-(MCU1-VN-Pad3)*%
X139275186Y-82953999D03*
%TO.N,unconnected-(MCU1-VP-Pad2)*%
X139275186Y-80413999D03*
%TO.N,unconnected-(MCU1-EN-Pad1)*%
X139275186Y-77873999D03*
%TD*%
D12*
%TO.N,S_on*%
%TO.C,W8*%
X170000000Y-90000000D03*
%TD*%
%TO.N,S_lights*%
%TO.C,W9*%
X170000000Y-100000000D03*
%TD*%
D13*
%TO.N,+3V3*%
%TO.C,W2*%
X171300000Y-129300000D03*
%TD*%
D14*
%TO.N,NO*%
%TO.C,W7*%
X143000000Y-134000000D03*
%TD*%
D15*
%TO.N,+BATT*%
%TO.C,R1*%
X155250000Y-134500000D03*
%TO.N,D_relay*%
X147750000Y-127900000D03*
D16*
%TO.N,NC*%
X148250000Y-138100000D03*
%TO.N,Net-(JP1-C)*%
X156250000Y-138100000D03*
%TO.N,NO*%
X148250000Y-135100000D03*
%TD*%
D13*
%TO.N,+12V*%
%TO.C,W3*%
X132800000Y-129500000D03*
%TD*%
D17*
%TO.N,*%
%TO.C,Ref\u002A\u002A*%
X170000000Y-80000000D03*
%TD*%
D18*
%TO.N,Net-(D2-BA)*%
%TO.C,D2*%
X134000000Y-92920000D03*
D19*
%TO.N,Net-(D2-RA)*%
X134000000Y-95460000D03*
%TO.N,GNDREF*%
X134000000Y-98000000D03*
%TO.N,Net-(D2-GA)*%
X134000000Y-100540000D03*
%TD*%
D14*
%TO.N,+BATT*%
%TO.C,W1*%
X165600000Y-133600000D03*
%TD*%
%TO.N,NC*%
%TO.C,W6*%
X140000000Y-137700000D03*
%TD*%
D17*
%TO.N,*%
%TO.C,Ref\u002A\u002A*%
X134000000Y-80000000D03*
%TD*%
D14*
%TO.N,GNDREF*%
%TO.C,W4*%
X138600000Y-133700000D03*
%TD*%
D17*
%TO.N,*%
%TO.C,Ref\u002A\u002A*%
X134000000Y-136000000D03*
%TD*%
D14*
%TO.N,COM*%
%TO.C,W5*%
X165000000Y-137700000D03*
%TD*%
D17*
%TO.N,*%
%TO.C,Ref\u002A\u002A*%
X170000000Y-136000000D03*
%TD*%
D18*
%TO.N,COM*%
%TO.C,JP1*%
X161000000Y-137540000D03*
D19*
%TO.N,Net-(JP1-C)*%
X161000000Y-135000000D03*
%TO.N,+BATT*%
X161000000Y-132460000D03*
%TD*%
D20*
%TO.N,+BATT*%
X170100000Y-111700000D03*
X167000000Y-112100000D03*
X166900000Y-115700000D03*
X162600000Y-117200000D03*
X162600000Y-115900000D03*
X167100000Y-113900000D03*
X172900000Y-112000000D03*
X171600000Y-113600000D03*
X170200000Y-113400000D03*
X131800000Y-113800000D03*
X136400000Y-113200000D03*
X135800000Y-113900000D03*
X135241700Y-113193717D03*
X137300000Y-114250000D03*
X137200000Y-112800000D03*
X137200000Y-111700000D03*
X133800000Y-112600000D03*
%TO.N,C_r*%
X132800000Y-85200000D03*
%TO.N,C_b*%
X135800000Y-85200000D03*
%TO.N,C_g*%
X135700000Y-106000000D03*
%TO.N,+BATT*%
X133900000Y-111500000D03*
X172900000Y-113300000D03*
D21*
X147300000Y-90400000D03*
D20*
X153600000Y-108000000D03*
%TO.N,+3V3*%
X170750000Y-114450000D03*
X158660000Y-95990000D03*
X160420000Y-112050000D03*
%TO.N,C_relay*%
X158900000Y-127000000D03*
%TO.N,C_lights*%
X161300000Y-106000000D03*
%TO.N,C_on*%
X158800000Y-100000000D03*
%TO.N,Net-(U2-FB)*%
X134700000Y-114100000D03*
X136300000Y-124200000D03*
%TO.N,Net-(U2-EN)*%
X145000000Y-98000000D03*
X133600000Y-113700000D03*
%TO.N,Net-(R10-Pad2)*%
X147250000Y-100550000D03*
X167700000Y-84250000D03*
%TO.N,Net-(R11-Pad2)*%
X168000000Y-93000000D03*
X149900000Y-107390000D03*
%TD*%
%TO.N,Net-(U2-EN)*%
D22*
X134000000Y-115900000D02*
X133400000Y-115300000D01*
X133400000Y-113900000D02*
X133600000Y-113700000D01*
X141800000Y-115900000D02*
X134000000Y-115900000D01*
X133400000Y-115300000D02*
X133400000Y-113900000D01*
X145000000Y-112700000D02*
X141800000Y-115900000D01*
X145000000Y-98000000D02*
X145000000Y-112700000D01*
%TO.N,+3V3*%
X160000000Y-111630000D02*
X160420000Y-112050000D01*
X160000000Y-97330000D02*
X160000000Y-111630000D01*
X158660000Y-95990000D02*
X160000000Y-97330000D01*
X171300000Y-115000000D02*
X171300000Y-124549726D01*
X170750000Y-114450000D02*
X171300000Y-115000000D01*
D23*
X171300000Y-124549726D02*
X171300000Y-129300000D01*
X164675186Y-113433999D02*
X164675186Y-117924912D01*
X164675186Y-117924912D02*
X171300000Y-124549726D01*
%TO.N,C_b*%
D22*
X135800000Y-85200000D02*
X135800000Y-87098813D01*
X135800000Y-87098813D02*
X139275186Y-90573999D01*
%TO.N,C_r*%
X132800000Y-86638813D02*
X139275186Y-93113999D01*
X132800000Y-85200000D02*
X132800000Y-86638813D01*
%TO.N,C_g*%
X135700000Y-102300000D02*
X135700000Y-106000000D01*
X137266001Y-100733999D02*
X135700000Y-102300000D01*
X139275186Y-100733999D02*
X137266001Y-100733999D01*
%TO.N,+BATT*%
D23*
X161000000Y-132460000D02*
X164460000Y-132460000D01*
X164460000Y-132460000D02*
X165600000Y-133600000D01*
%TO.N,+3V3*%
D22*
X161803999Y-113433999D02*
X160420000Y-112050000D01*
X164675186Y-113433999D02*
X161803999Y-113433999D01*
%TO.N,NO*%
D23*
X144100000Y-135100000D02*
X143000000Y-134000000D01*
X148250000Y-135100000D02*
X144100000Y-135100000D01*
%TO.N,NC*%
X140400000Y-138100000D02*
X140000000Y-137700000D01*
X148250000Y-138100000D02*
X140400000Y-138100000D01*
%TO.N,Net-(JP1-C)*%
X159350000Y-135000000D02*
X161000000Y-135000000D01*
X156250000Y-138100000D02*
X159350000Y-135000000D01*
%TO.N,Net-(D2-BA)*%
D22*
X134000000Y-92920000D02*
X133920000Y-92920000D01*
%TO.N,COM*%
D23*
X165000000Y-137700000D02*
X161160000Y-137700000D01*
X161160000Y-137700000D02*
X161000000Y-137540000D01*
%TD*%
%TA.AperFunction,Conductor*%
%TO.N,GNDREF*%
G36*
X141485148Y-76514852D02*
G01*
X141499500Y-76549500D01*
X141499500Y-80065895D01*
X141533607Y-80193184D01*
X141533608Y-80193188D01*
X141591289Y-80293093D01*
X141599500Y-80307314D01*
X141692686Y-80400500D01*
X141711082Y-80411121D01*
X141806811Y-80466391D01*
X141806813Y-80466391D01*
X141806814Y-80466392D01*
X141907207Y-80493292D01*
X141934104Y-80500499D01*
X141934105Y-80500500D01*
X141934108Y-80500500D01*
X162065895Y-80500500D01*
X162065895Y-80500499D01*
X162193186Y-80466392D01*
X162307314Y-80400500D01*
X162388296Y-80319518D01*
X163474686Y-80319518D01*
X163474686Y-80508479D01*
X163504245Y-80695114D01*
X163504246Y-80695117D01*
X163562639Y-80874832D01*
X163648422Y-81043192D01*
X163648425Y-81043196D01*
X163648426Y-81043198D01*
X163759496Y-81196072D01*
X163759498Y-81196074D01*
X163759501Y-81196078D01*
X163893106Y-81329683D01*
X163893109Y-81329685D01*
X163893113Y-81329689D01*
X164045987Y-81440759D01*
X164045989Y-81440760D01*
X164045992Y-81440762D01*
X164214352Y-81526545D01*
X164214354Y-81526546D01*
X164394068Y-81584939D01*
X164580705Y-81614499D01*
X164580706Y-81614499D01*
X164769666Y-81614499D01*
X164769667Y-81614499D01*
X164956304Y-81584939D01*
X165136018Y-81526546D01*
X165304385Y-81440759D01*
X165457259Y-81329689D01*
X165590876Y-81196072D01*
X165701946Y-81043198D01*
X165787733Y-80874831D01*
X165846126Y-80695117D01*
X165875686Y-80508480D01*
X165875686Y-80319518D01*
X165846126Y-80132881D01*
X165787733Y-79953167D01*
X165741476Y-79862382D01*
X167549500Y-79862382D01*
X167549500Y-80137617D01*
X167580316Y-80411111D01*
X167580316Y-80411116D01*
X167641561Y-80679451D01*
X167732467Y-80939247D01*
X167732470Y-80939253D01*
X167851879Y-81187208D01*
X167851880Y-81187210D01*
X167851883Y-81187214D01*
X167851886Y-81187221D01*
X167998319Y-81420268D01*
X168040560Y-81473237D01*
X168169918Y-81635447D01*
X168169929Y-81635459D01*
X168364540Y-81830070D01*
X168364552Y-81830081D01*
X168378811Y-81841452D01*
X168579732Y-82001681D01*
X168812779Y-82148114D01*
X168812787Y-82148118D01*
X168812789Y-82148119D01*
X168812791Y-82148120D01*
X169060746Y-82267529D01*
X169060752Y-82267532D01*
X169060755Y-82267533D01*
X169060757Y-82267534D01*
X169320546Y-82358438D01*
X169588879Y-82419683D01*
X169823311Y-82446097D01*
X169862382Y-82450500D01*
X169862383Y-82450500D01*
X170137618Y-82450500D01*
X170162481Y-82447698D01*
X170411121Y-82419683D01*
X170679454Y-82358438D01*
X170939243Y-82267534D01*
X171187221Y-82148114D01*
X171420268Y-82001681D01*
X171635455Y-81830075D01*
X171830075Y-81635455D01*
X172001681Y-81420268D01*
X172148114Y-81187221D01*
X172267534Y-80939243D01*
X172358438Y-80679454D01*
X172419683Y-80411121D01*
X172450500Y-80137617D01*
X172450500Y-79862383D01*
X172419683Y-79588879D01*
X172358438Y-79320546D01*
X172267534Y-79060757D01*
X172259916Y-79044939D01*
X172148120Y-78812791D01*
X172148119Y-78812789D01*
X172148118Y-78812787D01*
X172148114Y-78812779D01*
X172001681Y-78579732D01*
X171830075Y-78364545D01*
X171635455Y-78169925D01*
X171635452Y-78169922D01*
X171635447Y-78169918D01*
X171420269Y-77998320D01*
X171420270Y-77998320D01*
X171420268Y-77998319D01*
X171187221Y-77851886D01*
X171187214Y-77851883D01*
X171187210Y-77851880D01*
X171187208Y-77851879D01*
X170939253Y-77732470D01*
X170939247Y-77732467D01*
X170679451Y-77641561D01*
X170679452Y-77641561D01*
X170551653Y-77612392D01*
X170411121Y-77580317D01*
X170411115Y-77580316D01*
X170411114Y-77580316D01*
X170137618Y-77549500D01*
X170137617Y-77549500D01*
X169862383Y-77549500D01*
X169862382Y-77549500D01*
X169588888Y-77580316D01*
X169588883Y-77580316D01*
X169320548Y-77641561D01*
X169060752Y-77732467D01*
X169060746Y-77732470D01*
X168812791Y-77851879D01*
X168812789Y-77851880D01*
X168579730Y-77998320D01*
X168364552Y-78169918D01*
X168364540Y-78169929D01*
X168169929Y-78364540D01*
X168169918Y-78364552D01*
X167998320Y-78579730D01*
X167998319Y-78579732D01*
X167866395Y-78789689D01*
X167851880Y-78812789D01*
X167851879Y-78812791D01*
X167732470Y-79060746D01*
X167732467Y-79060752D01*
X167641561Y-79320548D01*
X167580316Y-79588883D01*
X167580316Y-79588888D01*
X167549500Y-79862382D01*
X165741476Y-79862382D01*
X165701946Y-79784800D01*
X165590876Y-79631926D01*
X165590872Y-79631922D01*
X165590870Y-79631919D01*
X165457265Y-79498314D01*
X165457266Y-79498314D01*
X165304379Y-79387235D01*
X165136019Y-79301452D01*
X164956304Y-79243059D01*
X164956301Y-79243058D01*
X164812930Y-79220351D01*
X164769667Y-79213499D01*
X164580705Y-79213499D01*
X164545583Y-79219061D01*
X164394070Y-79243058D01*
X164394067Y-79243059D01*
X164214352Y-79301452D01*
X164045992Y-79387235D01*
X163893106Y-79498314D01*
X163759501Y-79631919D01*
X163648422Y-79784805D01*
X163562639Y-79953165D01*
X163504246Y-80132880D01*
X163504245Y-80132883D01*
X163474686Y-80319518D01*
X162388296Y-80319518D01*
X162400500Y-80307314D01*
X162466392Y-80193186D01*
X162500499Y-80065895D01*
X162500500Y-80065895D01*
X162500500Y-77779518D01*
X163474686Y-77779518D01*
X163474686Y-77968479D01*
X163504245Y-78155114D01*
X163504246Y-78155117D01*
X163562639Y-78334832D01*
X163648422Y-78503192D01*
X163648425Y-78503196D01*
X163648426Y-78503198D01*
X163759496Y-78656072D01*
X163759498Y-78656074D01*
X163759501Y-78656078D01*
X163893106Y-78789683D01*
X163893109Y-78789685D01*
X163893113Y-78789689D01*
X164045987Y-78900759D01*
X164045989Y-78900760D01*
X164045992Y-78900762D01*
X164214352Y-78986545D01*
X164214354Y-78986546D01*
X164394068Y-79044939D01*
X164580705Y-79074499D01*
X164580706Y-79074499D01*
X164769666Y-79074499D01*
X164769667Y-79074499D01*
X164956304Y-79044939D01*
X165136018Y-78986546D01*
X165304385Y-78900759D01*
X165457259Y-78789689D01*
X165590876Y-78656072D01*
X165701946Y-78503198D01*
X165787733Y-78334831D01*
X165846126Y-78155117D01*
X165875686Y-77968480D01*
X165875686Y-77779518D01*
X165846126Y-77592881D01*
X165787733Y-77413167D01*
X165701946Y-77244800D01*
X165590876Y-77091926D01*
X165590872Y-77091922D01*
X165590870Y-77091919D01*
X165457265Y-76958314D01*
X165457266Y-76958314D01*
X165304379Y-76847235D01*
X165136019Y-76761452D01*
X164956304Y-76703059D01*
X164956301Y-76703058D01*
X164812930Y-76680351D01*
X164769667Y-76673499D01*
X164580705Y-76673499D01*
X164545583Y-76679061D01*
X164394070Y-76703058D01*
X164394067Y-76703059D01*
X164214352Y-76761452D01*
X164045992Y-76847235D01*
X163893106Y-76958314D01*
X163759501Y-77091919D01*
X163648422Y-77244805D01*
X163562639Y-77413165D01*
X163504246Y-77592880D01*
X163504245Y-77592883D01*
X163474686Y-77779518D01*
X162500500Y-77779518D01*
X162500500Y-76549500D01*
X162514852Y-76514852D01*
X162549500Y-76500500D01*
X173450500Y-76500500D01*
X173485148Y-76514852D01*
X173499500Y-76549500D01*
X173499500Y-139450500D01*
X173485148Y-139485148D01*
X173450500Y-139499500D01*
X156622466Y-139499500D01*
X156587818Y-139485148D01*
X156573466Y-139450500D01*
X156587818Y-139415852D01*
X156607324Y-139403898D01*
X156626091Y-139397800D01*
X156768412Y-139351557D01*
X156957816Y-139255051D01*
X157129792Y-139130104D01*
X157129795Y-139130100D01*
X157129798Y-139130099D01*
X157280099Y-138979798D01*
X157280100Y-138979795D01*
X157280104Y-138979792D01*
X157405051Y-138807816D01*
X157501557Y-138618412D01*
X157532674Y-138522640D01*
X157544626Y-138503136D01*
X158602244Y-137445519D01*
X159799500Y-137445519D01*
X159799500Y-137634480D01*
X159829059Y-137821115D01*
X159829060Y-137821118D01*
X159887453Y-138000832D01*
X159926923Y-138078297D01*
X159944159Y-138112123D01*
X159949500Y-138134369D01*
X159949500Y-138409748D01*
X159961133Y-138468231D01*
X159978882Y-138494795D01*
X160005447Y-138534552D01*
X160023636Y-138546705D01*
X160071769Y-138578867D01*
X160130252Y-138590500D01*
X160332439Y-138590500D01*
X160367087Y-138604852D01*
X160377920Y-138615685D01*
X160377924Y-138615688D01*
X160377926Y-138615690D01*
X160530801Y-138726760D01*
X160699168Y-138812547D01*
X160878882Y-138870940D01*
X161065518Y-138900500D01*
X161065519Y-138900500D01*
X163895543Y-138900500D01*
X163930191Y-138914852D01*
X163930192Y-138914853D01*
X163947567Y-138932229D01*
X163947571Y-138932232D01*
X163947573Y-138932234D01*
X164153294Y-139081699D01*
X164379863Y-139197142D01*
X164621703Y-139275721D01*
X164872857Y-139315500D01*
X164872858Y-139315500D01*
X165127142Y-139315500D01*
X165127143Y-139315500D01*
X165378297Y-139275721D01*
X165620137Y-139197142D01*
X165846706Y-139081699D01*
X166052427Y-138932234D01*
X166052430Y-138932230D01*
X166052433Y-138932229D01*
X166232229Y-138752433D01*
X166232230Y-138752430D01*
X166232234Y-138752427D01*
X166381699Y-138546706D01*
X166497142Y-138320137D01*
X166575721Y-138078297D01*
X166615500Y-137827143D01*
X166615500Y-137572857D01*
X166575721Y-137321703D01*
X166497142Y-137079863D01*
X166381699Y-136853294D01*
X166232234Y-136647573D01*
X166232232Y-136647571D01*
X166232229Y-136647567D01*
X166052433Y-136467771D01*
X166052428Y-136467767D01*
X166028662Y-136450500D01*
X165846706Y-136318301D01*
X165620137Y-136202858D01*
X165620136Y-136202857D01*
X165620135Y-136202857D01*
X165378297Y-136124279D01*
X165378294Y-136124278D01*
X165185363Y-136093721D01*
X165127143Y-136084500D01*
X164872857Y-136084500D01*
X164825593Y-136091985D01*
X164621705Y-136124278D01*
X164621702Y-136124279D01*
X164379864Y-136202857D01*
X164153294Y-136318301D01*
X163947571Y-136467767D01*
X163947567Y-136467770D01*
X163930192Y-136485147D01*
X163895544Y-136499500D01*
X161924845Y-136499500D01*
X161915285Y-136498558D01*
X161869751Y-136489500D01*
X161869748Y-136489500D01*
X161594370Y-136489500D01*
X161572125Y-136484159D01*
X161460833Y-136427453D01*
X161281118Y-136369060D01*
X161281115Y-136369059D01*
X161137744Y-136346352D01*
X161094481Y-136339500D01*
X160905519Y-136339500D01*
X160870397Y-136345062D01*
X160718884Y-136369059D01*
X160718881Y-136369060D01*
X160539166Y-136427453D01*
X160427875Y-136484159D01*
X160405630Y-136489500D01*
X160130252Y-136489500D01*
X160079979Y-136499500D01*
X160071769Y-136501133D01*
X160005447Y-136545447D01*
X159961133Y-136611769D01*
X159949500Y-136670252D01*
X159949500Y-136670255D01*
X159949500Y-136945630D01*
X159944159Y-136967875D01*
X159887453Y-137079166D01*
X159829060Y-137258881D01*
X159829059Y-137258884D01*
X159799500Y-137445519D01*
X158602244Y-137445519D01*
X159832912Y-136214852D01*
X159867560Y-136200500D01*
X161094480Y-136200500D01*
X161094481Y-136200500D01*
X161281118Y-136170940D01*
X161460832Y-136112547D01*
X161629199Y-136026760D01*
X161782073Y-135915690D01*
X161815690Y-135882073D01*
X161835381Y-135862382D01*
X167549500Y-135862382D01*
X167549500Y-136137617D01*
X167580316Y-136411111D01*
X167580316Y-136411116D01*
X167641561Y-136679451D01*
X167732467Y-136939247D01*
X167732470Y-136939253D01*
X167851879Y-137187208D01*
X167851880Y-137187210D01*
X167851883Y-137187214D01*
X167851886Y-137187221D01*
X167936387Y-137321703D01*
X167998320Y-137420269D01*
X168169918Y-137635447D01*
X168169929Y-137635459D01*
X168364540Y-137830070D01*
X168364552Y-137830081D01*
X168473792Y-137917197D01*
X168579732Y-138001681D01*
X168812779Y-138148114D01*
X168812787Y-138148118D01*
X168812789Y-138148119D01*
X168812791Y-138148120D01*
X169060746Y-138267529D01*
X169060752Y-138267532D01*
X169060755Y-138267533D01*
X169060757Y-138267534D01*
X169320546Y-138358438D01*
X169588879Y-138419683D01*
X169823311Y-138446097D01*
X169862382Y-138450500D01*
X169862383Y-138450500D01*
X170137618Y-138450500D01*
X170162481Y-138447698D01*
X170411121Y-138419683D01*
X170679454Y-138358438D01*
X170939243Y-138267534D01*
X171187221Y-138148114D01*
X171420268Y-138001681D01*
X171635455Y-137830075D01*
X171830075Y-137635455D01*
X172001681Y-137420268D01*
X172148114Y-137187221D01*
X172267534Y-136939243D01*
X172358438Y-136679454D01*
X172419683Y-136411121D01*
X172450500Y-136137617D01*
X172450500Y-135862383D01*
X172419683Y-135588879D01*
X172358438Y-135320546D01*
X172267534Y-135060757D01*
X172263525Y-135052433D01*
X172148120Y-134812791D01*
X172148119Y-134812789D01*
X172148118Y-134812787D01*
X172148114Y-134812779D01*
X172001681Y-134579732D01*
X171895596Y-134446706D01*
X171830081Y-134364552D01*
X171830070Y-134364540D01*
X171635459Y-134169929D01*
X171635447Y-134169918D01*
X171420269Y-133998320D01*
X171420270Y-133998320D01*
X171420268Y-133998319D01*
X171187221Y-133851886D01*
X171187214Y-133851883D01*
X171187210Y-133851880D01*
X171187208Y-133851879D01*
X170939253Y-133732470D01*
X170939247Y-133732467D01*
X170708207Y-133651623D01*
X170679454Y-133641562D01*
X170679453Y-133641561D01*
X170679452Y-133641561D01*
X170551653Y-133612392D01*
X170411121Y-133580317D01*
X170411115Y-133580316D01*
X170411114Y-133580316D01*
X170137618Y-133549500D01*
X170137617Y-133549500D01*
X169862383Y-133549500D01*
X169862382Y-133549500D01*
X169588888Y-133580316D01*
X169588883Y-133580316D01*
X169320548Y-133641561D01*
X169060752Y-133732467D01*
X169060746Y-133732470D01*
X168812791Y-133851879D01*
X168812789Y-133851880D01*
X168812780Y-133851885D01*
X168812779Y-133851886D01*
X168745502Y-133894159D01*
X168579730Y-133998320D01*
X168364552Y-134169918D01*
X168364540Y-134169929D01*
X168169929Y-134364540D01*
X168169918Y-134364552D01*
X167998320Y-134579730D01*
X167972932Y-134620135D01*
X167870121Y-134783759D01*
X167851880Y-134812789D01*
X167851879Y-134812791D01*
X167732470Y-135060746D01*
X167732467Y-135060752D01*
X167641561Y-135320548D01*
X167580316Y-135588883D01*
X167580316Y-135588888D01*
X167549500Y-135862382D01*
X161835381Y-135862382D01*
X161871404Y-135826360D01*
X161915684Y-135782079D01*
X161915690Y-135782073D01*
X162026760Y-135629199D01*
X162112547Y-135460832D01*
X162170940Y-135281118D01*
X162200500Y-135094481D01*
X162200500Y-134905519D01*
X162170940Y-134718882D01*
X162112547Y-134539168D01*
X162112546Y-134539166D01*
X162026763Y-134370806D01*
X162026761Y-134370803D01*
X162026760Y-134370801D01*
X161915690Y-134217927D01*
X161915686Y-134217923D01*
X161915684Y-134217920D01*
X161782079Y-134084315D01*
X161782080Y-134084315D01*
X161629193Y-133973236D01*
X161460833Y-133887453D01*
X161281118Y-133829060D01*
X161281115Y-133829059D01*
X161137744Y-133806352D01*
X161094481Y-133799500D01*
X159444481Y-133799500D01*
X159255518Y-133799500D01*
X159220396Y-133805062D01*
X159068884Y-133829059D01*
X159068881Y-133829060D01*
X158889166Y-133887453D01*
X158720803Y-133973238D01*
X158567924Y-134084311D01*
X158567919Y-134084315D01*
X155846864Y-136805370D01*
X155827358Y-136817324D01*
X155731586Y-136848443D01*
X155542186Y-136944947D01*
X155542178Y-136944952D01*
X155370206Y-137069897D01*
X155219897Y-137220206D01*
X155094952Y-137392178D01*
X155094947Y-137392186D01*
X154998443Y-137581586D01*
X154932754Y-137783756D01*
X154932753Y-137783759D01*
X154899500Y-137993713D01*
X154899500Y-138206286D01*
X154932753Y-138416240D01*
X154932754Y-138416243D01*
X154998443Y-138618413D01*
X155094947Y-138807813D01*
X155094952Y-138807821D01*
X155219897Y-138979793D01*
X155219901Y-138979798D01*
X155370202Y-139130099D01*
X155370206Y-139130102D01*
X155370208Y-139130104D01*
X155542184Y-139255051D01*
X155731588Y-139351557D01*
X155860023Y-139393288D01*
X155892676Y-139403898D01*
X155921193Y-139428255D01*
X155924136Y-139465642D01*
X155899779Y-139494159D01*
X155877534Y-139499500D01*
X148622466Y-139499500D01*
X148587818Y-139485148D01*
X148573466Y-139450500D01*
X148587818Y-139415852D01*
X148607324Y-139403898D01*
X148626091Y-139397800D01*
X148768412Y-139351557D01*
X148957816Y-139255051D01*
X149129792Y-139130104D01*
X149129795Y-139130100D01*
X149129798Y-139130099D01*
X149280099Y-138979798D01*
X149280100Y-138979795D01*
X149280104Y-138979792D01*
X149405051Y-138807816D01*
X149501557Y-138618412D01*
X149567246Y-138416243D01*
X149600500Y-138206287D01*
X149600500Y-137993713D01*
X149567246Y-137783757D01*
X149501557Y-137581588D01*
X149405051Y-137392184D01*
X149280104Y-137220208D01*
X149280102Y-137220206D01*
X149280099Y-137220202D01*
X149129798Y-137069901D01*
X149129793Y-137069897D01*
X148957821Y-136944952D01*
X148957813Y-136944947D01*
X148768413Y-136848443D01*
X148566243Y-136782754D01*
X148566240Y-136782753D01*
X148404957Y-136757208D01*
X148356287Y-136749500D01*
X148143713Y-136749500D01*
X148104202Y-136755757D01*
X147933759Y-136782753D01*
X147933756Y-136782754D01*
X147731586Y-136848443D01*
X147641864Y-136894159D01*
X147619619Y-136899500D01*
X141435269Y-136899500D01*
X141400621Y-136885148D01*
X141391610Y-136872745D01*
X141381700Y-136853296D01*
X141381699Y-136853294D01*
X141232234Y-136647573D01*
X141232232Y-136647571D01*
X141232229Y-136647567D01*
X141052433Y-136467771D01*
X141052428Y-136467767D01*
X141028662Y-136450500D01*
X140846706Y-136318301D01*
X140620137Y-136202858D01*
X140620136Y-136202857D01*
X140620135Y-136202857D01*
X140378297Y-136124279D01*
X140378294Y-136124278D01*
X140185363Y-136093721D01*
X140127143Y-136084500D01*
X139872857Y-136084500D01*
X139825593Y-136091985D01*
X139621705Y-136124278D01*
X139621702Y-136124279D01*
X139379864Y-136202857D01*
X139153294Y-136318301D01*
X138947571Y-136467767D01*
X138767767Y-136647571D01*
X138618301Y-136853294D01*
X138502857Y-137079864D01*
X138424279Y-137321702D01*
X138424278Y-137321705D01*
X138404668Y-137445519D01*
X138384500Y-137572857D01*
X138384500Y-137827143D01*
X138384965Y-137830081D01*
X138424278Y-138078294D01*
X138424279Y-138078297D01*
X138485765Y-138267532D01*
X138502858Y-138320137D01*
X138618301Y-138546706D01*
X138749118Y-138726760D01*
X138767767Y-138752428D01*
X138767771Y-138752433D01*
X138947567Y-138932229D01*
X138947571Y-138932232D01*
X138947573Y-138932234D01*
X139153294Y-139081699D01*
X139379863Y-139197142D01*
X139621703Y-139275721D01*
X139872857Y-139315500D01*
X139872858Y-139315500D01*
X140127141Y-139315500D01*
X140127143Y-139315500D01*
X140256024Y-139295087D01*
X140271342Y-139295087D01*
X140305519Y-139300500D01*
X147619619Y-139300500D01*
X147641864Y-139305841D01*
X147731586Y-139351556D01*
X147731588Y-139351557D01*
X147860023Y-139393288D01*
X147892676Y-139403898D01*
X147921193Y-139428255D01*
X147924136Y-139465642D01*
X147899779Y-139494159D01*
X147877534Y-139499500D01*
X130549500Y-139499500D01*
X130514852Y-139485148D01*
X130500500Y-139450500D01*
X130500500Y-135862382D01*
X131549500Y-135862382D01*
X131549500Y-136137617D01*
X131580316Y-136411111D01*
X131580316Y-136411116D01*
X131641561Y-136679451D01*
X131732467Y-136939247D01*
X131732470Y-136939253D01*
X131851879Y-137187208D01*
X131851880Y-137187210D01*
X131851883Y-137187214D01*
X131851886Y-137187221D01*
X131936387Y-137321703D01*
X131998320Y-137420269D01*
X132169918Y-137635447D01*
X132169929Y-137635459D01*
X132364540Y-137830070D01*
X132364552Y-137830081D01*
X132473792Y-137917197D01*
X132579732Y-138001681D01*
X132812779Y-138148114D01*
X132812787Y-138148118D01*
X132812789Y-138148119D01*
X132812791Y-138148120D01*
X133060746Y-138267529D01*
X133060752Y-138267532D01*
X133060755Y-138267533D01*
X133060757Y-138267534D01*
X133320546Y-138358438D01*
X133588879Y-138419683D01*
X133823311Y-138446097D01*
X133862382Y-138450500D01*
X133862383Y-138450500D01*
X134137618Y-138450500D01*
X134162481Y-138447698D01*
X134411121Y-138419683D01*
X134679454Y-138358438D01*
X134939243Y-138267534D01*
X135187221Y-138148114D01*
X135420268Y-138001681D01*
X135635455Y-137830075D01*
X135830075Y-137635455D01*
X136001681Y-137420268D01*
X136148114Y-137187221D01*
X136267534Y-136939243D01*
X136358438Y-136679454D01*
X136419683Y-136411121D01*
X136450500Y-136137617D01*
X136450500Y-135862383D01*
X136419683Y-135588879D01*
X136358438Y-135320546D01*
X136267534Y-135060757D01*
X136263525Y-135052433D01*
X136148120Y-134812791D01*
X136148119Y-134812789D01*
X136148118Y-134812787D01*
X136148114Y-134812779D01*
X136001681Y-134579732D01*
X135895596Y-134446706D01*
X135830081Y-134364552D01*
X135830070Y-134364540D01*
X135635459Y-134169929D01*
X135635447Y-134169918D01*
X135420269Y-133998320D01*
X135420270Y-133998320D01*
X135420268Y-133998319D01*
X135187221Y-133851886D01*
X135187214Y-133851883D01*
X135187210Y-133851880D01*
X135187208Y-133851879D01*
X134939253Y-133732470D01*
X134939247Y-133732467D01*
X134708207Y-133651623D01*
X134679454Y-133641562D01*
X134679453Y-133641561D01*
X134679452Y-133641561D01*
X134592454Y-133621705D01*
X134411121Y-133580317D01*
X134411115Y-133580316D01*
X134411114Y-133580316D01*
X134345269Y-133572897D01*
X136985000Y-133572897D01*
X136985000Y-133827102D01*
X137024766Y-134078177D01*
X137024767Y-134078180D01*
X137103319Y-134319940D01*
X137160576Y-134432315D01*
X137704539Y-133888352D01*
X137720163Y-133966896D01*
X137789138Y-134133415D01*
X137889273Y-134283278D01*
X138016722Y-134410727D01*
X138166585Y-134510862D01*
X138333104Y-134579837D01*
X138411645Y-134595459D01*
X137867683Y-135139422D01*
X137867683Y-135139424D01*
X137980053Y-135196678D01*
X138221819Y-135275232D01*
X138221822Y-135275233D01*
X138472898Y-135315000D01*
X138727102Y-135315000D01*
X138978177Y-135275233D01*
X138978180Y-135275232D01*
X139219946Y-135196678D01*
X139332315Y-135139424D01*
X139332315Y-135139422D01*
X138788353Y-134595460D01*
X138866896Y-134579837D01*
X139033415Y-134510862D01*
X139183278Y-134410727D01*
X139310727Y-134283278D01*
X139410862Y-134133415D01*
X139479837Y-133966896D01*
X139495460Y-133888353D01*
X140039422Y-134432315D01*
X140039424Y-134432315D01*
X140096678Y-134319946D01*
X140175232Y-134078180D01*
X140175233Y-134078177D01*
X140207753Y-133872857D01*
X141384500Y-133872857D01*
X141384500Y-134127143D01*
X141391275Y-134169918D01*
X141424278Y-134378294D01*
X141424279Y-134378297D01*
X141491040Y-134583767D01*
X141502858Y-134620137D01*
X141618301Y-134846706D01*
X141725108Y-134993713D01*
X141767767Y-135052428D01*
X141767771Y-135052433D01*
X141947567Y-135232229D01*
X141947571Y-135232232D01*
X141947573Y-135232234D01*
X142153294Y-135381699D01*
X142379863Y-135497142D01*
X142621703Y-135575721D01*
X142872857Y-135615500D01*
X142897441Y-135615500D01*
X142932089Y-135629852D01*
X143184310Y-135882073D01*
X143317920Y-136015684D01*
X143317923Y-136015686D01*
X143317927Y-136015690D01*
X143470801Y-136126760D01*
X143470803Y-136126761D01*
X143470806Y-136126763D01*
X143557507Y-136170939D01*
X143639168Y-136212547D01*
X143818882Y-136270940D01*
X144005519Y-136300500D01*
X147619619Y-136300500D01*
X147641864Y-136305841D01*
X147731586Y-136351556D01*
X147731588Y-136351557D01*
X147933757Y-136417246D01*
X148143713Y-136450500D01*
X148143714Y-136450500D01*
X148356286Y-136450500D01*
X148356287Y-136450500D01*
X148566243Y-136417246D01*
X148768412Y-136351557D01*
X148957816Y-136255051D01*
X149129792Y-136130104D01*
X149129795Y-136130100D01*
X149129798Y-136130099D01*
X149280099Y-135979798D01*
X149280100Y-135979795D01*
X149280104Y-135979792D01*
X149405051Y-135807816D01*
X149501557Y-135618412D01*
X149567246Y-135416243D01*
X149600500Y-135206287D01*
X149600500Y-134993713D01*
X149567246Y-134783757D01*
X149501557Y-134581588D01*
X149417305Y-134416233D01*
X154399500Y-134416233D01*
X154399500Y-134583767D01*
X154421189Y-134692809D01*
X154432183Y-134748079D01*
X154432185Y-134748085D01*
X154496296Y-134902862D01*
X154589371Y-135042159D01*
X154707840Y-135160628D01*
X154847137Y-135253703D01*
X155001918Y-135317816D01*
X155166233Y-135350500D01*
X155166236Y-135350500D01*
X155333764Y-135350500D01*
X155333767Y-135350500D01*
X155498082Y-135317816D01*
X155652863Y-135253703D01*
X155792162Y-135160626D01*
X155910626Y-135042162D01*
X156003703Y-134902863D01*
X156067816Y-134748082D01*
X156100500Y-134583767D01*
X156100500Y-134416233D01*
X156067816Y-134251918D01*
X156003703Y-134097137D01*
X155991034Y-134078177D01*
X155910628Y-133957840D01*
X155792159Y-133839371D01*
X155652862Y-133746296D01*
X155498085Y-133682185D01*
X155498079Y-133682183D01*
X155431816Y-133669002D01*
X155333767Y-133649500D01*
X155166233Y-133649500D01*
X155084451Y-133665767D01*
X155001920Y-133682183D01*
X155001914Y-133682185D01*
X154847137Y-133746296D01*
X154707840Y-133839371D01*
X154589371Y-133957840D01*
X154496296Y-134097137D01*
X154432185Y-134251914D01*
X154432183Y-134251920D01*
X154415767Y-134334451D01*
X154399500Y-134416233D01*
X149417305Y-134416233D01*
X149405051Y-134392184D01*
X149394959Y-134378294D01*
X149303144Y-134251920D01*
X149280104Y-134220208D01*
X149280102Y-134220206D01*
X149280099Y-134220202D01*
X149129798Y-134069901D01*
X149129793Y-134069897D01*
X148957821Y-133944952D01*
X148957813Y-133944947D01*
X148768413Y-133848443D01*
X148566243Y-133782754D01*
X148566240Y-133782753D01*
X148404957Y-133757208D01*
X148356287Y-133749500D01*
X148143713Y-133749500D01*
X148104202Y-133755757D01*
X147933759Y-133782753D01*
X147933756Y-133782754D01*
X147731586Y-133848443D01*
X147641864Y-133894159D01*
X147619619Y-133899500D01*
X144661570Y-133899500D01*
X144626922Y-133885148D01*
X144613173Y-133858165D01*
X144575721Y-133621703D01*
X144497142Y-133379863D01*
X144381699Y-133153294D01*
X144232234Y-132947573D01*
X144232232Y-132947571D01*
X144232229Y-132947567D01*
X144052433Y-132767771D01*
X144052428Y-132767767D01*
X144015745Y-132741115D01*
X143846706Y-132618301D01*
X143620137Y-132502858D01*
X143620136Y-132502857D01*
X143620135Y-132502857D01*
X143378297Y-132424279D01*
X143378294Y-132424278D01*
X143300715Y-132411991D01*
X143207658Y-132397252D01*
X143127143Y-132384500D01*
X142872857Y-132384500D01*
X142825593Y-132391985D01*
X142621705Y-132424278D01*
X142621702Y-132424279D01*
X142379864Y-132502857D01*
X142153294Y-132618301D01*
X141947571Y-132767767D01*
X141767767Y-132947571D01*
X141618301Y-133153294D01*
X141502857Y-133379864D01*
X141424279Y-133621702D01*
X141424278Y-133621705D01*
X141391747Y-133827102D01*
X141384500Y-133872857D01*
X140207753Y-133872857D01*
X140209272Y-133863267D01*
X140215000Y-133827102D01*
X140215000Y-133572897D01*
X140175233Y-133321822D01*
X140175232Y-133321819D01*
X140096678Y-133080053D01*
X140039424Y-132967683D01*
X140039422Y-132967683D01*
X139495459Y-133511645D01*
X139479837Y-133433104D01*
X139410862Y-133266585D01*
X139310727Y-133116722D01*
X139183278Y-132989273D01*
X139033415Y-132889138D01*
X138866896Y-132820163D01*
X138788351Y-132804539D01*
X139227372Y-132365519D01*
X159799500Y-132365519D01*
X159799500Y-132554480D01*
X159829059Y-132741115D01*
X159829060Y-132741118D01*
X159887453Y-132920833D01*
X159973236Y-133089193D01*
X159973239Y-133089197D01*
X159973240Y-133089199D01*
X160084310Y-133242073D01*
X160084312Y-133242075D01*
X160084315Y-133242079D01*
X160217920Y-133375684D01*
X160217923Y-133375686D01*
X160217927Y-133375690D01*
X160370801Y-133486760D01*
X160370803Y-133486761D01*
X160370806Y-133486763D01*
X160539166Y-133572546D01*
X160539168Y-133572547D01*
X160718882Y-133630940D01*
X160905519Y-133660500D01*
X163935500Y-133660500D01*
X163970148Y-133674852D01*
X163984500Y-133709500D01*
X163984500Y-133727142D01*
X164024278Y-133978294D01*
X164024279Y-133978297D01*
X164102137Y-134217920D01*
X164102858Y-134220137D01*
X164218301Y-134446706D01*
X164344306Y-134620137D01*
X164367767Y-134652428D01*
X164367771Y-134652433D01*
X164547567Y-134832229D01*
X164547571Y-134832232D01*
X164547573Y-134832234D01*
X164753294Y-134981699D01*
X164979863Y-135097142D01*
X165221703Y-135175721D01*
X165472857Y-135215500D01*
X165472858Y-135215500D01*
X165727142Y-135215500D01*
X165727143Y-135215500D01*
X165978297Y-135175721D01*
X166220137Y-135097142D01*
X166446706Y-134981699D01*
X166652427Y-134832234D01*
X166652430Y-134832230D01*
X166652433Y-134832229D01*
X166832229Y-134652433D01*
X166832230Y-134652430D01*
X166832234Y-134652427D01*
X166981699Y-134446706D01*
X167097142Y-134220137D01*
X167175721Y-133978297D01*
X167215500Y-133727143D01*
X167215500Y-133472857D01*
X167175721Y-133221703D01*
X167097142Y-132979863D01*
X166981699Y-132753294D01*
X166832234Y-132547573D01*
X166832232Y-132547571D01*
X166832229Y-132547567D01*
X166652433Y-132367771D01*
X166652428Y-132367767D01*
X166649334Y-132365519D01*
X166446706Y-132218301D01*
X166220137Y-132102858D01*
X166220136Y-132102857D01*
X166220135Y-132102857D01*
X165978297Y-132024279D01*
X165978294Y-132024278D01*
X165785363Y-131993721D01*
X165727143Y-131984500D01*
X165727142Y-131984500D01*
X165702560Y-131984500D01*
X165667912Y-131970148D01*
X165242079Y-131544314D01*
X165242075Y-131544311D01*
X165089196Y-131433238D01*
X164920833Y-131347453D01*
X164741118Y-131289060D01*
X164741115Y-131289059D01*
X164597744Y-131266352D01*
X164554481Y-131259500D01*
X160905519Y-131259500D01*
X160870397Y-131265062D01*
X160718884Y-131289059D01*
X160718881Y-131289060D01*
X160539166Y-131347453D01*
X160370806Y-131433236D01*
X160217920Y-131544315D01*
X160084315Y-131677920D01*
X159973236Y-131830806D01*
X159887453Y-131999166D01*
X159829060Y-132178881D01*
X159829059Y-132178884D01*
X159799500Y-132365519D01*
X139227372Y-132365519D01*
X139332315Y-132260576D01*
X139219940Y-132203319D01*
X138978180Y-132124767D01*
X138978177Y-132124766D01*
X138727102Y-132085000D01*
X138472898Y-132085000D01*
X138221822Y-132124766D01*
X138221819Y-132124767D01*
X137980054Y-132203321D01*
X137980042Y-132203326D01*
X137867683Y-132260574D01*
X137867683Y-132260576D01*
X138411646Y-132804539D01*
X138333104Y-132820163D01*
X138166585Y-132889138D01*
X138016722Y-132989273D01*
X137889273Y-133116722D01*
X137789138Y-133266585D01*
X137720163Y-133433104D01*
X137704539Y-133511646D01*
X137160576Y-132967683D01*
X137160574Y-132967683D01*
X137103326Y-133080042D01*
X137103321Y-133080054D01*
X137024767Y-133321819D01*
X137024766Y-133321822D01*
X136985000Y-133572897D01*
X134345269Y-133572897D01*
X134137618Y-133549500D01*
X134137617Y-133549500D01*
X133862383Y-133549500D01*
X133862382Y-133549500D01*
X133588888Y-133580316D01*
X133588883Y-133580316D01*
X133320548Y-133641561D01*
X133060752Y-133732467D01*
X133060746Y-133732470D01*
X132812791Y-133851879D01*
X132812789Y-133851880D01*
X132812780Y-133851885D01*
X132812779Y-133851886D01*
X132745502Y-133894159D01*
X132579730Y-133998320D01*
X132364552Y-134169918D01*
X132364540Y-134169929D01*
X132169929Y-134364540D01*
X132169918Y-134364552D01*
X131998320Y-134579730D01*
X131972932Y-134620135D01*
X131870121Y-134783759D01*
X131851880Y-134812789D01*
X131851879Y-134812791D01*
X131732470Y-135060746D01*
X131732467Y-135060752D01*
X131641561Y-135320548D01*
X131580316Y-135588883D01*
X131580316Y-135588888D01*
X131549500Y-135862382D01*
X130500500Y-135862382D01*
X130500500Y-129386237D01*
X131354500Y-129386237D01*
X131354500Y-129613762D01*
X131390092Y-129838486D01*
X131390093Y-129838489D01*
X131460402Y-130054880D01*
X131563695Y-130257604D01*
X131563697Y-130257607D01*
X131669012Y-130402561D01*
X131697435Y-130441681D01*
X131697439Y-130441686D01*
X131858314Y-130602561D01*
X131858318Y-130602564D01*
X131858320Y-130602566D01*
X132042393Y-130736303D01*
X132245121Y-130839598D01*
X132461511Y-130909907D01*
X132686237Y-130945500D01*
X132686238Y-130945500D01*
X132913762Y-130945500D01*
X132913763Y-130945500D01*
X133138489Y-130909907D01*
X133354879Y-130839598D01*
X133557607Y-130736303D01*
X133741680Y-130602566D01*
X133741683Y-130602562D01*
X133741686Y-130602561D01*
X133902561Y-130441686D01*
X133902562Y-130441683D01*
X133902566Y-130441680D01*
X134036303Y-130257607D01*
X134139598Y-130054879D01*
X134209907Y-129838489D01*
X134245500Y-129613763D01*
X134245500Y-129386237D01*
X134209907Y-129161511D01*
X134139598Y-128945121D01*
X134036303Y-128742393D01*
X133902566Y-128558320D01*
X133902564Y-128558318D01*
X133902561Y-128558314D01*
X133741686Y-128397439D01*
X133741681Y-128397435D01*
X133557604Y-128263695D01*
X133354880Y-128160402D01*
X133138489Y-128090093D01*
X133138486Y-128090092D01*
X132965856Y-128062750D01*
X132913763Y-128054500D01*
X132686237Y-128054500D01*
X132643946Y-128061198D01*
X132461513Y-128090092D01*
X132461510Y-128090093D01*
X132245119Y-128160402D01*
X132042395Y-128263695D01*
X131858318Y-128397435D01*
X131697435Y-128558318D01*
X131563695Y-128742395D01*
X131460402Y-128945119D01*
X131390093Y-129161510D01*
X131390092Y-129161513D01*
X131354500Y-129386237D01*
X130500500Y-129386237D01*
X130500500Y-127816233D01*
X146899500Y-127816233D01*
X146899500Y-127983767D01*
X146913570Y-128054500D01*
X146932183Y-128148079D01*
X146932185Y-128148085D01*
X146996296Y-128302862D01*
X147089371Y-128442159D01*
X147207840Y-128560628D01*
X147347137Y-128653703D01*
X147501918Y-128717816D01*
X147666233Y-128750500D01*
X147666236Y-128750500D01*
X147833764Y-128750500D01*
X147833767Y-128750500D01*
X147998082Y-128717816D01*
X148152863Y-128653703D01*
X148292162Y-128560626D01*
X148410626Y-128442162D01*
X148503703Y-128302863D01*
X148567816Y-128148082D01*
X148600500Y-127983767D01*
X148600500Y-127816233D01*
X148567816Y-127651918D01*
X148503703Y-127497137D01*
X148439132Y-127400500D01*
X148410628Y-127357840D01*
X148292159Y-127239371D01*
X148152862Y-127146296D01*
X147998085Y-127082185D01*
X147998079Y-127082183D01*
X147931816Y-127069002D01*
X147833767Y-127049500D01*
X147666233Y-127049500D01*
X147584451Y-127065767D01*
X147501920Y-127082183D01*
X147501914Y-127082185D01*
X147347137Y-127146296D01*
X147207840Y-127239371D01*
X147089371Y-127357840D01*
X146996296Y-127497137D01*
X146932185Y-127651914D01*
X146932183Y-127651920D01*
X146915767Y-127734451D01*
X146899500Y-127816233D01*
X130500500Y-127816233D01*
X130500500Y-126934104D01*
X158399500Y-126934104D01*
X158399500Y-127065895D01*
X158433607Y-127193184D01*
X158433608Y-127193188D01*
X158499500Y-127307314D01*
X158592686Y-127400500D01*
X158634457Y-127424617D01*
X158706811Y-127466391D01*
X158706813Y-127466391D01*
X158706814Y-127466392D01*
X158807207Y-127493292D01*
X158834104Y-127500499D01*
X158834105Y-127500500D01*
X158834108Y-127500500D01*
X158965895Y-127500500D01*
X158965895Y-127500499D01*
X159093186Y-127466392D01*
X159207314Y-127400500D01*
X159300500Y-127307314D01*
X159366392Y-127193186D01*
X159400499Y-127065895D01*
X159400500Y-127065895D01*
X159400500Y-126934105D01*
X159400499Y-126934104D01*
X159366392Y-126806815D01*
X159366391Y-126806811D01*
X159300499Y-126692685D01*
X159207314Y-126599500D01*
X159093188Y-126533608D01*
X159093184Y-126533607D01*
X158965895Y-126499500D01*
X158965892Y-126499500D01*
X158834108Y-126499500D01*
X158834105Y-126499500D01*
X158706815Y-126533607D01*
X158706811Y-126533608D01*
X158592685Y-126599500D01*
X158592685Y-126599501D01*
X158499501Y-126692685D01*
X158499500Y-126692685D01*
X158433608Y-126806811D01*
X158433607Y-126806815D01*
X158399500Y-126934104D01*
X130500500Y-126934104D01*
X130500500Y-124134104D01*
X135799500Y-124134104D01*
X135799500Y-124265895D01*
X135833607Y-124393184D01*
X135833608Y-124393188D01*
X135899500Y-124507314D01*
X135992686Y-124600500D01*
X136034457Y-124624617D01*
X136106811Y-124666391D01*
X136106813Y-124666391D01*
X136106814Y-124666392D01*
X136207207Y-124693292D01*
X136234104Y-124700499D01*
X136234105Y-124700500D01*
X136234108Y-124700500D01*
X136365895Y-124700500D01*
X136365895Y-124700499D01*
X136493186Y-124666392D01*
X136607314Y-124600500D01*
X136700500Y-124507314D01*
X136766392Y-124393186D01*
X136800499Y-124265895D01*
X136800500Y-124265895D01*
X136800500Y-124134105D01*
X136800499Y-124134104D01*
X136788385Y-124088894D01*
X136766392Y-124006814D01*
X136766391Y-124006813D01*
X136766391Y-124006811D01*
X136700499Y-123892685D01*
X136607314Y-123799500D01*
X136493188Y-123733608D01*
X136493184Y-123733607D01*
X136365895Y-123699500D01*
X136365892Y-123699500D01*
X136234108Y-123699500D01*
X136234105Y-123699500D01*
X136106815Y-123733607D01*
X136106811Y-123733608D01*
X135992685Y-123799500D01*
X135992685Y-123799501D01*
X135899501Y-123892685D01*
X135899500Y-123892685D01*
X135833608Y-124006811D01*
X135833607Y-124006815D01*
X135799500Y-124134104D01*
X130500500Y-124134104D01*
X130500500Y-121508729D01*
X137994685Y-121508729D01*
X137994686Y-121508733D01*
X138024638Y-121736237D01*
X138024639Y-121736241D01*
X138024640Y-121736248D01*
X138084028Y-121957886D01*
X138171842Y-122169888D01*
X138286573Y-122368608D01*
X138286583Y-122368623D01*
X138426258Y-122550650D01*
X138426269Y-122550662D01*
X138588522Y-122712915D01*
X138588534Y-122712926D01*
X138770561Y-122852601D01*
X138770570Y-122852607D01*
X138770574Y-122852610D01*
X138969298Y-122967343D01*
X139181299Y-123055157D01*
X139352555Y-123101044D01*
X139402936Y-123114544D01*
X139402937Y-123114544D01*
X139402948Y-123114547D01*
X139630452Y-123144499D01*
X139630455Y-123144499D01*
X139859916Y-123144499D01*
X139859920Y-123144499D01*
X140087424Y-123114547D01*
X140309073Y-123055157D01*
X140521074Y-122967343D01*
X140719798Y-122852610D01*
X140901847Y-122712918D01*
X141064105Y-122550660D01*
X141178590Y-122401462D01*
X141203788Y-122368623D01*
X141203789Y-122368620D01*
X141203797Y-122368611D01*
X141318530Y-122169887D01*
X141406344Y-121957886D01*
X141465734Y-121736237D01*
X141495686Y-121508733D01*
X141495686Y-121279265D01*
X141465734Y-121051761D01*
X141406344Y-120830112D01*
X141318530Y-120618111D01*
X141203797Y-120419387D01*
X141203794Y-120419383D01*
X141203788Y-120419374D01*
X141064113Y-120237347D01*
X141064102Y-120237335D01*
X140901849Y-120075082D01*
X140901837Y-120075071D01*
X140719810Y-119935396D01*
X140719795Y-119935386D01*
X140521075Y-119820655D01*
X140309073Y-119732841D01*
X140087435Y-119673453D01*
X140087428Y-119673452D01*
X140087424Y-119673451D01*
X139859920Y-119643499D01*
X139630452Y-119643499D01*
X139402948Y-119673451D01*
X139402944Y-119673451D01*
X139402936Y-119673453D01*
X139181298Y-119732841D01*
X138969296Y-119820655D01*
X138770576Y-119935386D01*
X138770561Y-119935396D01*
X138588534Y-120075071D01*
X138588522Y-120075082D01*
X138426269Y-120237335D01*
X138426258Y-120237347D01*
X138286583Y-120419374D01*
X138286573Y-120419389D01*
X138171842Y-120618109D01*
X138084028Y-120830111D01*
X138024640Y-121051749D01*
X137994686Y-121279268D01*
X137994686Y-121508729D01*
X137994685Y-121508729D01*
X130500500Y-121508729D01*
X130500500Y-117134104D01*
X162099500Y-117134104D01*
X162099500Y-117265895D01*
X162133607Y-117393184D01*
X162133608Y-117393188D01*
X162199500Y-117507314D01*
X162292686Y-117600500D01*
X162334457Y-117624617D01*
X162406811Y-117666391D01*
X162406813Y-117666391D01*
X162406814Y-117666392D01*
X162507207Y-117693292D01*
X162534104Y-117700499D01*
X162534105Y-117700500D01*
X162534108Y-117700500D01*
X162665895Y-117700500D01*
X162665895Y-117700499D01*
X162793186Y-117666392D01*
X162907314Y-117600500D01*
X163000500Y-117507314D01*
X163066392Y-117393186D01*
X163100499Y-117265895D01*
X163100500Y-117265895D01*
X163100500Y-117134105D01*
X163100499Y-117134104D01*
X163066392Y-117006815D01*
X163066391Y-117006811D01*
X163000499Y-116892685D01*
X162907314Y-116799500D01*
X162793188Y-116733608D01*
X162793184Y-116733607D01*
X162665895Y-116699500D01*
X162665892Y-116699500D01*
X162534108Y-116699500D01*
X162534105Y-116699500D01*
X162406815Y-116733607D01*
X162406811Y-116733608D01*
X162292685Y-116799500D01*
X162292685Y-116799501D01*
X162199501Y-116892685D01*
X162199500Y-116892685D01*
X162133608Y-117006811D01*
X162133607Y-117006815D01*
X162099500Y-117134104D01*
X130500500Y-117134104D01*
X130500500Y-113734104D01*
X131299500Y-113734104D01*
X131299500Y-113865895D01*
X131333607Y-113993184D01*
X131333608Y-113993188D01*
X131391342Y-114093184D01*
X131399500Y-114107314D01*
X131492686Y-114200500D01*
X131504490Y-114207315D01*
X131606811Y-114266391D01*
X131606813Y-114266391D01*
X131606814Y-114266392D01*
X131638313Y-114274832D01*
X131734104Y-114300499D01*
X131734105Y-114300500D01*
X131734108Y-114300500D01*
X131865895Y-114300500D01*
X131865895Y-114300499D01*
X131993186Y-114266392D01*
X132107314Y-114200500D01*
X132200500Y-114107314D01*
X132266392Y-113993186D01*
X132300499Y-113865895D01*
X132300500Y-113865895D01*
X132300500Y-113840688D01*
X132949500Y-113840688D01*
X132949500Y-115359311D01*
X132973666Y-115449498D01*
X132973666Y-115449499D01*
X132980200Y-115473885D01*
X132980201Y-115473888D01*
X132999212Y-115506815D01*
X133039511Y-115576614D01*
X133723386Y-116260489D01*
X133826113Y-116319799D01*
X133850326Y-116326286D01*
X133895508Y-116338393D01*
X133940689Y-116350500D01*
X133940691Y-116350500D01*
X141859311Y-116350500D01*
X141889430Y-116342428D01*
X141949673Y-116326286D01*
X141973887Y-116319799D01*
X142076614Y-116260489D01*
X142502999Y-115834104D01*
X162099500Y-115834104D01*
X162099500Y-115965895D01*
X162133607Y-116093184D01*
X162133608Y-116093188D01*
X162195565Y-116200499D01*
X162199500Y-116207314D01*
X162292686Y-116300500D01*
X162326113Y-116319799D01*
X162406811Y-116366391D01*
X162406813Y-116366391D01*
X162406814Y-116366392D01*
X162507207Y-116393292D01*
X162534104Y-116400499D01*
X162534105Y-116400500D01*
X162534108Y-116400500D01*
X162665895Y-116400500D01*
X162665895Y-116400499D01*
X162793186Y-116366392D01*
X162907314Y-116300500D01*
X163000500Y-116207314D01*
X163066392Y-116093186D01*
X163100499Y-115965895D01*
X163100500Y-115965895D01*
X163100500Y-115834105D01*
X163100499Y-115834104D01*
X163090356Y-115796248D01*
X163066392Y-115706814D01*
X163066391Y-115706813D01*
X163066391Y-115706811D01*
X163000499Y-115592685D01*
X162907314Y-115499500D01*
X162793188Y-115433608D01*
X162793184Y-115433607D01*
X162665895Y-115399500D01*
X162665892Y-115399500D01*
X162534108Y-115399500D01*
X162534105Y-115399500D01*
X162406815Y-115433607D01*
X162406811Y-115433608D01*
X162292685Y-115499500D01*
X162292685Y-115499501D01*
X162199501Y-115592685D01*
X162199500Y-115592685D01*
X162133608Y-115706811D01*
X162133607Y-115706815D01*
X162099500Y-115834104D01*
X142502999Y-115834104D01*
X145360489Y-112976614D01*
X145400499Y-112907314D01*
X145419799Y-112873886D01*
X145441414Y-112793218D01*
X145450500Y-112759311D01*
X145450500Y-107934104D01*
X153099500Y-107934104D01*
X153099500Y-108065895D01*
X153133607Y-108193184D01*
X153133608Y-108193188D01*
X153199500Y-108307314D01*
X153292686Y-108400500D01*
X153334457Y-108424617D01*
X153406811Y-108466391D01*
X153406813Y-108466391D01*
X153406814Y-108466392D01*
X153507207Y-108493292D01*
X153534104Y-108500499D01*
X153534105Y-108500500D01*
X153534108Y-108500500D01*
X153665895Y-108500500D01*
X153665895Y-108500499D01*
X153793186Y-108466392D01*
X153907314Y-108400500D01*
X154000500Y-108307314D01*
X154066392Y-108193186D01*
X154100499Y-108065895D01*
X154100500Y-108065895D01*
X154100500Y-107934105D01*
X154100499Y-107934104D01*
X154066392Y-107806815D01*
X154066391Y-107806811D01*
X154019041Y-107724800D01*
X154000500Y-107692686D01*
X153907314Y-107599500D01*
X153879061Y-107583188D01*
X153793188Y-107533608D01*
X153793184Y-107533607D01*
X153665895Y-107499500D01*
X153665892Y-107499500D01*
X153534108Y-107499500D01*
X153534105Y-107499500D01*
X153406815Y-107533607D01*
X153406811Y-107533608D01*
X153292685Y-107599500D01*
X153292685Y-107599501D01*
X153199501Y-107692685D01*
X153199500Y-107692685D01*
X153133608Y-107806811D01*
X153133607Y-107806815D01*
X153099500Y-107934104D01*
X145450500Y-107934104D01*
X145450500Y-107324104D01*
X149399500Y-107324104D01*
X149399500Y-107455895D01*
X149433607Y-107583184D01*
X149433608Y-107583188D01*
X149443027Y-107599501D01*
X149499500Y-107697314D01*
X149592686Y-107790500D01*
X149634457Y-107814617D01*
X149706811Y-107856391D01*
X149706813Y-107856391D01*
X149706814Y-107856392D01*
X149807207Y-107883292D01*
X149834104Y-107890499D01*
X149834105Y-107890500D01*
X149834108Y-107890500D01*
X149965895Y-107890500D01*
X149965895Y-107890499D01*
X149971393Y-107889025D01*
X149991773Y-107883566D01*
X150050153Y-107867922D01*
X150093186Y-107856392D01*
X150207314Y-107790500D01*
X150300500Y-107697314D01*
X150366392Y-107583186D01*
X150400499Y-107455895D01*
X150400500Y-107455895D01*
X150400500Y-107324105D01*
X150400499Y-107324104D01*
X150393292Y-107297207D01*
X150366392Y-107196814D01*
X150366391Y-107196813D01*
X150366391Y-107196811D01*
X150300499Y-107082685D01*
X150207314Y-106989500D01*
X150093188Y-106923608D01*
X150093184Y-106923607D01*
X149965895Y-106889500D01*
X149965892Y-106889500D01*
X149834108Y-106889500D01*
X149834105Y-106889500D01*
X149706815Y-106923607D01*
X149706811Y-106923608D01*
X149592685Y-106989500D01*
X149592685Y-106989501D01*
X149499501Y-107082685D01*
X149499500Y-107082685D01*
X149433608Y-107196811D01*
X149433607Y-107196815D01*
X149399500Y-107324104D01*
X145450500Y-107324104D01*
X145450500Y-100484104D01*
X146749500Y-100484104D01*
X146749500Y-100615895D01*
X146783607Y-100743184D01*
X146783608Y-100743188D01*
X146847436Y-100853739D01*
X146849500Y-100857314D01*
X146942686Y-100950500D01*
X146984457Y-100974617D01*
X147056811Y-101016391D01*
X147056813Y-101016391D01*
X147056814Y-101016392D01*
X147135949Y-101037596D01*
X147184104Y-101050499D01*
X147184105Y-101050500D01*
X147184108Y-101050500D01*
X147315895Y-101050500D01*
X147315895Y-101050499D01*
X147443186Y-101016392D01*
X147445395Y-101015117D01*
X147458478Y-101007563D01*
X147557314Y-100950500D01*
X147650500Y-100857314D01*
X147716392Y-100743186D01*
X147750499Y-100615895D01*
X147750500Y-100615895D01*
X147750500Y-100484105D01*
X147750499Y-100484104D01*
X147737753Y-100436535D01*
X147716392Y-100356814D01*
X147716391Y-100356813D01*
X147716391Y-100356811D01*
X147650499Y-100242685D01*
X147557314Y-100149500D01*
X147443188Y-100083608D01*
X147443184Y-100083607D01*
X147315895Y-100049500D01*
X147315892Y-100049500D01*
X147184108Y-100049500D01*
X147184105Y-100049500D01*
X147056815Y-100083607D01*
X147056811Y-100083608D01*
X146942685Y-100149500D01*
X146942685Y-100149501D01*
X146849501Y-100242685D01*
X146849500Y-100242685D01*
X146783608Y-100356811D01*
X146783607Y-100356815D01*
X146749500Y-100484104D01*
X145450500Y-100484104D01*
X145450500Y-99934104D01*
X158299500Y-99934104D01*
X158299500Y-100065895D01*
X158333607Y-100193184D01*
X158333608Y-100193188D01*
X158370303Y-100256744D01*
X158399500Y-100307314D01*
X158492686Y-100400500D01*
X158534457Y-100424617D01*
X158606811Y-100466391D01*
X158606813Y-100466391D01*
X158606814Y-100466392D01*
X158672932Y-100484108D01*
X158734104Y-100500499D01*
X158734105Y-100500500D01*
X158734108Y-100500500D01*
X158865895Y-100500500D01*
X158865895Y-100500499D01*
X158993186Y-100466392D01*
X159107314Y-100400500D01*
X159200500Y-100307314D01*
X159266392Y-100193186D01*
X159300499Y-100065895D01*
X159300500Y-100065895D01*
X159300500Y-99934105D01*
X159300499Y-99934104D01*
X159266392Y-99806815D01*
X159266391Y-99806811D01*
X159200754Y-99693126D01*
X159200500Y-99692686D01*
X159107314Y-99599500D01*
X158993188Y-99533608D01*
X158993184Y-99533607D01*
X158865895Y-99499500D01*
X158865892Y-99499500D01*
X158734108Y-99499500D01*
X158734105Y-99499500D01*
X158606815Y-99533607D01*
X158606811Y-99533608D01*
X158492685Y-99599500D01*
X158492685Y-99599501D01*
X158399501Y-99692685D01*
X158399500Y-99692685D01*
X158333608Y-99806811D01*
X158333607Y-99806815D01*
X158299500Y-99934104D01*
X145450500Y-99934104D01*
X145450500Y-98233841D01*
X145457065Y-98209341D01*
X145466391Y-98193187D01*
X145466392Y-98193186D01*
X145500499Y-98065895D01*
X145500500Y-98065895D01*
X145500500Y-97934105D01*
X145500499Y-97934104D01*
X145490446Y-97896587D01*
X145466392Y-97806814D01*
X145466391Y-97806813D01*
X145466391Y-97806811D01*
X145423871Y-97733165D01*
X145400500Y-97692686D01*
X145307314Y-97599500D01*
X145193188Y-97533608D01*
X145193184Y-97533607D01*
X145065895Y-97499500D01*
X145065892Y-97499500D01*
X144934108Y-97499500D01*
X144934105Y-97499500D01*
X144806815Y-97533607D01*
X144806811Y-97533608D01*
X144692685Y-97599500D01*
X144692685Y-97599501D01*
X144599501Y-97692685D01*
X144599500Y-97692685D01*
X144533608Y-97806811D01*
X144533607Y-97806815D01*
X144499500Y-97934104D01*
X144499500Y-98065895D01*
X144533607Y-98193184D01*
X144533608Y-98193187D01*
X144542935Y-98209341D01*
X144549500Y-98233841D01*
X144549500Y-112493101D01*
X144535148Y-112527749D01*
X141627749Y-115435148D01*
X141593101Y-115449500D01*
X134206899Y-115449500D01*
X134172251Y-115435148D01*
X133864852Y-115127749D01*
X133850500Y-115093101D01*
X133850500Y-114161591D01*
X133864852Y-114126943D01*
X133874997Y-114119157D01*
X133907314Y-114100500D01*
X133973710Y-114034104D01*
X134199500Y-114034104D01*
X134199500Y-114165895D01*
X134233607Y-114293184D01*
X134233608Y-114293188D01*
X134286102Y-114384108D01*
X134299500Y-114407314D01*
X134392686Y-114500500D01*
X134413003Y-114512230D01*
X134506811Y-114566391D01*
X134506813Y-114566391D01*
X134506814Y-114566392D01*
X134607207Y-114593292D01*
X134634104Y-114600499D01*
X134634105Y-114600500D01*
X134634108Y-114600500D01*
X134765895Y-114600500D01*
X134765895Y-114600499D01*
X134893186Y-114566392D01*
X135007314Y-114500500D01*
X135100500Y-114407314D01*
X135166392Y-114293186D01*
X135200499Y-114165895D01*
X135200500Y-114165895D01*
X135200500Y-114034105D01*
X135200499Y-114034104D01*
X135186968Y-113983607D01*
X135166392Y-113906814D01*
X135166391Y-113906813D01*
X135166391Y-113906811D01*
X135101540Y-113794488D01*
X135100500Y-113792686D01*
X135067733Y-113759919D01*
X135053381Y-113725271D01*
X135067733Y-113690623D01*
X135102381Y-113676271D01*
X135115063Y-113677941D01*
X135175804Y-113694216D01*
X135175805Y-113694217D01*
X135273125Y-113694217D01*
X135307773Y-113708569D01*
X135322125Y-113743217D01*
X135320455Y-113755899D01*
X135299500Y-113834104D01*
X135299500Y-113965895D01*
X135333607Y-114093184D01*
X135333608Y-114093188D01*
X135386100Y-114184105D01*
X135399500Y-114207314D01*
X135492686Y-114300500D01*
X135519346Y-114315892D01*
X135606811Y-114366391D01*
X135606813Y-114366391D01*
X135606814Y-114366392D01*
X135672917Y-114384104D01*
X135734104Y-114400499D01*
X135734105Y-114400500D01*
X135734108Y-114400500D01*
X135865895Y-114400500D01*
X135865895Y-114400499D01*
X135993186Y-114366392D01*
X136107314Y-114300500D01*
X136200500Y-114207314D01*
X136213901Y-114184104D01*
X136799500Y-114184104D01*
X136799500Y-114315895D01*
X136833607Y-114443184D01*
X136833608Y-114443188D01*
X136899500Y-114557314D01*
X136992686Y-114650500D01*
X137034457Y-114674617D01*
X137106811Y-114716391D01*
X137106813Y-114716391D01*
X137106814Y-114716392D01*
X137207207Y-114743292D01*
X137234104Y-114750499D01*
X137234105Y-114750500D01*
X137234108Y-114750500D01*
X137365895Y-114750500D01*
X137365895Y-114750499D01*
X137493186Y-114716392D01*
X137607314Y-114650500D01*
X137700500Y-114557314D01*
X137766392Y-114443186D01*
X137800499Y-114315895D01*
X137800500Y-114315895D01*
X137800500Y-114184105D01*
X137800499Y-114184104D01*
X137783096Y-114119155D01*
X137766392Y-114056814D01*
X137766391Y-114056813D01*
X137766391Y-114056811D01*
X137700499Y-113942685D01*
X137607314Y-113849500D01*
X137493188Y-113783608D01*
X137493184Y-113783607D01*
X137365895Y-113749500D01*
X137365892Y-113749500D01*
X137234108Y-113749500D01*
X137234105Y-113749500D01*
X137106815Y-113783607D01*
X137106811Y-113783608D01*
X136992685Y-113849500D01*
X136899501Y-113942685D01*
X136899500Y-113942685D01*
X136833608Y-114056811D01*
X136833607Y-114056815D01*
X136799500Y-114184104D01*
X136213901Y-114184104D01*
X136246903Y-114126943D01*
X136266391Y-114093188D01*
X136266391Y-114093187D01*
X136266392Y-114093186D01*
X136300499Y-113965895D01*
X136300500Y-113965895D01*
X136300500Y-113834106D01*
X136286968Y-113783607D01*
X136281142Y-113761862D01*
X136286037Y-113724681D01*
X136315789Y-113701851D01*
X136330896Y-113700860D01*
X136330896Y-113700500D01*
X136465895Y-113700500D01*
X136465895Y-113700499D01*
X136593186Y-113666392D01*
X136604069Y-113660109D01*
X136649103Y-113634108D01*
X136707314Y-113600500D01*
X136800500Y-113507314D01*
X136866392Y-113393186D01*
X136898100Y-113274850D01*
X136920930Y-113245097D01*
X136958112Y-113240202D01*
X136969930Y-113245097D01*
X136995071Y-113259612D01*
X137006814Y-113266392D01*
X137107207Y-113293292D01*
X137134104Y-113300499D01*
X137134105Y-113300500D01*
X137134108Y-113300500D01*
X137265895Y-113300500D01*
X137265895Y-113300499D01*
X137393186Y-113266392D01*
X137404935Y-113259609D01*
X137449103Y-113234108D01*
X137507314Y-113200500D01*
X137600500Y-113107314D01*
X137666392Y-112993186D01*
X137700499Y-112865895D01*
X137700500Y-112865895D01*
X137700500Y-112734105D01*
X137700499Y-112734104D01*
X137689543Y-112693217D01*
X137666392Y-112606814D01*
X137666391Y-112606813D01*
X137666391Y-112606811D01*
X137618936Y-112524618D01*
X137600500Y-112492686D01*
X137522065Y-112414251D01*
X138074686Y-112414251D01*
X138074686Y-114453747D01*
X138086319Y-114512230D01*
X138088766Y-114515892D01*
X138130633Y-114578551D01*
X138157198Y-114596300D01*
X138196955Y-114622866D01*
X138255438Y-114634499D01*
X138255441Y-114634499D01*
X140294931Y-114634499D01*
X140294934Y-114634499D01*
X140353417Y-114622866D01*
X140419738Y-114578551D01*
X140464053Y-114512230D01*
X140475686Y-114453747D01*
X140475686Y-112414251D01*
X140464053Y-112355768D01*
X140431677Y-112307314D01*
X140419738Y-112289446D01*
X140379981Y-112262881D01*
X140353417Y-112245132D01*
X140294934Y-112233499D01*
X138255438Y-112233499D01*
X138196955Y-112245132D01*
X138130633Y-112289446D01*
X138101126Y-112333608D01*
X138086319Y-112355768D01*
X138074686Y-112414251D01*
X137522065Y-112414251D01*
X137507314Y-112399500D01*
X137393188Y-112333608D01*
X137393184Y-112333607D01*
X137265895Y-112299500D01*
X137265892Y-112299500D01*
X137134108Y-112299500D01*
X137134105Y-112299500D01*
X137006815Y-112333607D01*
X137006811Y-112333608D01*
X136892685Y-112399500D01*
X136892685Y-112399501D01*
X136799501Y-112492685D01*
X136799500Y-112492685D01*
X136733608Y-112606811D01*
X136733608Y-112606813D01*
X136701899Y-112725150D01*
X136679069Y-112754902D01*
X136641886Y-112759797D01*
X136630069Y-112754902D01*
X136593188Y-112733608D01*
X136593184Y-112733607D01*
X136465895Y-112699500D01*
X136465892Y-112699500D01*
X136334108Y-112699500D01*
X136334105Y-112699500D01*
X136206815Y-112733607D01*
X136206811Y-112733608D01*
X136092685Y-112799500D01*
X135999501Y-112892685D01*
X135999500Y-112892685D01*
X135933608Y-113006811D01*
X135933607Y-113006815D01*
X135899500Y-113134104D01*
X135899500Y-113265895D01*
X135918857Y-113338136D01*
X135913962Y-113375318D01*
X135884209Y-113398148D01*
X135869104Y-113399141D01*
X135869104Y-113399500D01*
X135768575Y-113399500D01*
X135733927Y-113385148D01*
X135719575Y-113350500D01*
X135721245Y-113337818D01*
X135738228Y-113274431D01*
X135742199Y-113259612D01*
X135742200Y-113259612D01*
X135742200Y-113127822D01*
X135742199Y-113127821D01*
X135709776Y-113006815D01*
X135708092Y-113000531D01*
X135708091Y-113000530D01*
X135708091Y-113000528D01*
X135654272Y-112907313D01*
X135642200Y-112886403D01*
X135549014Y-112793217D01*
X135548957Y-112793184D01*
X135434888Y-112727325D01*
X135434884Y-112727324D01*
X135307595Y-112693217D01*
X135307592Y-112693217D01*
X135175808Y-112693217D01*
X135175805Y-112693217D01*
X135048515Y-112727324D01*
X135048511Y-112727325D01*
X134934385Y-112793217D01*
X134934385Y-112793218D01*
X134841201Y-112886402D01*
X134841200Y-112886402D01*
X134775308Y-113000528D01*
X134775307Y-113000532D01*
X134741200Y-113127821D01*
X134741200Y-113259612D01*
X134775307Y-113386901D01*
X134775308Y-113386905D01*
X134841200Y-113501031D01*
X134873966Y-113533797D01*
X134888318Y-113568445D01*
X134873966Y-113603093D01*
X134839318Y-113617445D01*
X134826636Y-113615775D01*
X134765895Y-113599500D01*
X134765892Y-113599500D01*
X134634108Y-113599500D01*
X134634105Y-113599500D01*
X134506815Y-113633607D01*
X134506811Y-113633608D01*
X134392685Y-113699500D01*
X134392685Y-113699501D01*
X134299501Y-113792685D01*
X134299500Y-113792685D01*
X134233608Y-113906811D01*
X134233607Y-113906815D01*
X134199500Y-114034104D01*
X133973710Y-114034104D01*
X134000500Y-114007314D01*
X134014188Y-113983607D01*
X134066391Y-113893188D01*
X134066391Y-113893187D01*
X134066392Y-113893186D01*
X134100499Y-113765895D01*
X134100500Y-113765895D01*
X134100500Y-113634105D01*
X134100499Y-113634104D01*
X134073705Y-113534108D01*
X134066392Y-113506814D01*
X134066391Y-113506813D01*
X134066391Y-113506811D01*
X134004434Y-113399500D01*
X134000500Y-113392686D01*
X133907314Y-113299500D01*
X133895510Y-113292685D01*
X133793188Y-113233608D01*
X133793184Y-113233607D01*
X133665895Y-113199500D01*
X133665892Y-113199500D01*
X133534108Y-113199500D01*
X133534105Y-113199500D01*
X133406815Y-113233607D01*
X133406811Y-113233608D01*
X133292685Y-113299500D01*
X133199501Y-113392685D01*
X133199500Y-113392685D01*
X133133608Y-113506811D01*
X133133607Y-113506814D01*
X133128779Y-113524833D01*
X133116098Y-113546797D01*
X133039510Y-113623387D01*
X132980201Y-113726111D01*
X132978532Y-113732343D01*
X132978531Y-113732342D01*
X132978531Y-113732346D01*
X132949500Y-113840688D01*
X132300500Y-113840688D01*
X132300500Y-113734105D01*
X132300499Y-113734104D01*
X132282355Y-113666391D01*
X132266392Y-113606814D01*
X132266391Y-113606813D01*
X132266391Y-113606811D01*
X132219060Y-113524833D01*
X132200500Y-113492686D01*
X132107314Y-113399500D01*
X132104972Y-113398148D01*
X131993188Y-113333608D01*
X131993184Y-113333607D01*
X131865895Y-113299500D01*
X131865892Y-113299500D01*
X131734108Y-113299500D01*
X131734105Y-113299500D01*
X131606815Y-113333607D01*
X131606811Y-113333608D01*
X131492685Y-113399500D01*
X131399501Y-113492685D01*
X131399500Y-113492685D01*
X131333608Y-113606811D01*
X131333607Y-113606815D01*
X131299500Y-113734104D01*
X130500500Y-113734104D01*
X130500500Y-112534104D01*
X133299500Y-112534104D01*
X133299500Y-112665895D01*
X133333607Y-112793184D01*
X133333608Y-112793188D01*
X133399499Y-112907313D01*
X133399500Y-112907314D01*
X133492686Y-113000500D01*
X133503624Y-113006815D01*
X133606811Y-113066391D01*
X133606813Y-113066391D01*
X133606814Y-113066392D01*
X133707207Y-113093292D01*
X133734104Y-113100499D01*
X133734105Y-113100500D01*
X133734108Y-113100500D01*
X133865895Y-113100500D01*
X133865895Y-113100499D01*
X133993186Y-113066392D01*
X134107314Y-113000500D01*
X134200500Y-112907314D01*
X134266392Y-112793186D01*
X134300499Y-112665895D01*
X134300500Y-112665895D01*
X134300500Y-112534105D01*
X134300499Y-112534104D01*
X134282355Y-112466391D01*
X134266392Y-112406814D01*
X134266391Y-112406813D01*
X134266391Y-112406811D01*
X134208946Y-112307315D01*
X134200500Y-112292686D01*
X134107314Y-112199500D01*
X133993188Y-112133608D01*
X133993184Y-112133607D01*
X133865895Y-112099500D01*
X133865892Y-112099500D01*
X133734108Y-112099500D01*
X133734105Y-112099500D01*
X133606815Y-112133607D01*
X133606811Y-112133608D01*
X133492685Y-112199500D01*
X133492685Y-112199501D01*
X133399501Y-112292685D01*
X133399500Y-112292685D01*
X133333608Y-112406811D01*
X133333607Y-112406815D01*
X133299500Y-112534104D01*
X130500500Y-112534104D01*
X130500500Y-111434104D01*
X133399500Y-111434104D01*
X133399500Y-111565895D01*
X133433607Y-111693184D01*
X133433608Y-111693188D01*
X133491054Y-111792685D01*
X133499500Y-111807314D01*
X133592686Y-111900500D01*
X133603624Y-111906815D01*
X133706811Y-111966391D01*
X133706813Y-111966391D01*
X133706814Y-111966392D01*
X133807207Y-111993292D01*
X133834104Y-112000499D01*
X133834105Y-112000500D01*
X133834108Y-112000500D01*
X133965895Y-112000500D01*
X133965895Y-112000499D01*
X134093186Y-111966392D01*
X134207314Y-111900500D01*
X134300500Y-111807314D01*
X134366392Y-111693186D01*
X134382223Y-111634104D01*
X136699500Y-111634104D01*
X136699500Y-111765895D01*
X136733607Y-111893184D01*
X136733608Y-111893188D01*
X136783724Y-111979989D01*
X136799500Y-112007314D01*
X136892686Y-112100500D01*
X136934457Y-112124617D01*
X137006811Y-112166391D01*
X137006813Y-112166391D01*
X137006814Y-112166392D01*
X137106804Y-112193184D01*
X137134104Y-112200499D01*
X137134105Y-112200500D01*
X137134108Y-112200500D01*
X137265895Y-112200500D01*
X137265895Y-112200499D01*
X137393186Y-112166392D01*
X137507314Y-112100500D01*
X137588082Y-112019732D01*
X138856557Y-112019732D01*
X138994184Y-112064450D01*
X138994187Y-112064451D01*
X139180745Y-112093999D01*
X139369627Y-112093999D01*
X139556184Y-112064451D01*
X139556187Y-112064450D01*
X139693813Y-112019732D01*
X139275186Y-111601105D01*
X138856557Y-112019732D01*
X137588082Y-112019732D01*
X137600500Y-112007314D01*
X137666392Y-111893186D01*
X137700499Y-111765895D01*
X137700500Y-111765895D01*
X137700500Y-111634105D01*
X137700499Y-111634104D01*
X137682277Y-111566097D01*
X137666392Y-111506814D01*
X137666391Y-111506813D01*
X137666391Y-111506811D01*
X137624413Y-111434104D01*
X137600500Y-111392686D01*
X137507314Y-111299500D01*
X137393188Y-111233608D01*
X137393184Y-111233607D01*
X137265895Y-111199500D01*
X137265892Y-111199500D01*
X137134108Y-111199500D01*
X137134105Y-111199500D01*
X137006815Y-111233607D01*
X137006811Y-111233608D01*
X136892685Y-111299500D01*
X136892685Y-111299501D01*
X136799501Y-111392685D01*
X136799500Y-111392685D01*
X136733608Y-111506811D01*
X136733607Y-111506815D01*
X136699500Y-111634104D01*
X134382223Y-111634104D01*
X134382356Y-111633607D01*
X134386481Y-111618214D01*
X134400499Y-111565895D01*
X134400500Y-111565895D01*
X134400500Y-111434105D01*
X134400499Y-111434104D01*
X134366392Y-111306815D01*
X134366391Y-111306811D01*
X134324126Y-111233607D01*
X134300500Y-111192686D01*
X134207314Y-111099500D01*
X134093188Y-111033608D01*
X134093184Y-111033607D01*
X133965895Y-110999500D01*
X133965892Y-110999500D01*
X133834108Y-110999500D01*
X133834105Y-110999500D01*
X133706815Y-111033607D01*
X133706811Y-111033608D01*
X133592685Y-111099500D01*
X133592685Y-111099501D01*
X133499501Y-111192685D01*
X133499500Y-111192685D01*
X133433608Y-111306811D01*
X133433607Y-111306815D01*
X133399500Y-111434104D01*
X130500500Y-111434104D01*
X130500500Y-110799557D01*
X138075186Y-110799557D01*
X138075186Y-110988440D01*
X138104733Y-111174997D01*
X138104734Y-111175000D01*
X138149451Y-111312626D01*
X138568080Y-110893999D01*
X138500937Y-110826856D01*
X138765186Y-110826856D01*
X138765186Y-110961142D01*
X138799941Y-111090852D01*
X138867084Y-111207146D01*
X138962039Y-111302101D01*
X139078333Y-111369244D01*
X139208043Y-111403999D01*
X139342329Y-111403999D01*
X139472039Y-111369244D01*
X139588333Y-111302101D01*
X139683288Y-111207146D01*
X139750431Y-111090852D01*
X139785186Y-110961142D01*
X139785186Y-110893998D01*
X139982292Y-110893998D01*
X139982292Y-110893999D01*
X140400919Y-111312626D01*
X140445637Y-111175000D01*
X140445638Y-111174997D01*
X140475186Y-110988440D01*
X140475186Y-110799557D01*
X140445638Y-110613000D01*
X140445637Y-110612997D01*
X140400919Y-110475370D01*
X139982292Y-110893998D01*
X139785186Y-110893998D01*
X139785186Y-110826856D01*
X139750431Y-110697146D01*
X139683288Y-110580852D01*
X139588333Y-110485897D01*
X139472039Y-110418754D01*
X139342329Y-110383999D01*
X139208043Y-110383999D01*
X139078333Y-110418754D01*
X138962039Y-110485897D01*
X138867084Y-110580852D01*
X138799941Y-110697146D01*
X138765186Y-110826856D01*
X138500937Y-110826856D01*
X138149451Y-110475370D01*
X138104734Y-110612997D01*
X138104733Y-110613000D01*
X138075186Y-110799557D01*
X130500500Y-110799557D01*
X130500500Y-109768264D01*
X138856557Y-109768264D01*
X139275186Y-110186893D01*
X139275187Y-110186893D01*
X139693814Y-109768264D01*
X139556187Y-109723547D01*
X139556184Y-109723546D01*
X139369627Y-109693999D01*
X139180745Y-109693999D01*
X138994187Y-109723546D01*
X138994184Y-109723547D01*
X138856557Y-109768264D01*
X130500500Y-109768264D01*
X130500500Y-108259518D01*
X138074686Y-108259518D01*
X138074686Y-108448479D01*
X138104245Y-108635114D01*
X138104246Y-108635117D01*
X138162639Y-108814832D01*
X138248422Y-108983192D01*
X138248425Y-108983196D01*
X138248426Y-108983198D01*
X138359496Y-109136072D01*
X138359498Y-109136074D01*
X138359501Y-109136078D01*
X138493106Y-109269683D01*
X138493109Y-109269685D01*
X138493113Y-109269689D01*
X138645987Y-109380759D01*
X138645989Y-109380760D01*
X138645992Y-109380762D01*
X138814352Y-109466545D01*
X138814354Y-109466546D01*
X138994068Y-109524939D01*
X139180705Y-109554499D01*
X139180706Y-109554499D01*
X139369666Y-109554499D01*
X139369667Y-109554499D01*
X139556304Y-109524939D01*
X139736018Y-109466546D01*
X139904385Y-109380759D01*
X140057259Y-109269689D01*
X140190876Y-109136072D01*
X140301946Y-108983198D01*
X140387733Y-108814831D01*
X140446126Y-108635117D01*
X140475686Y-108448480D01*
X140475686Y-108259518D01*
X140446126Y-108072881D01*
X140387733Y-107893167D01*
X140301946Y-107724800D01*
X140190876Y-107571926D01*
X140190872Y-107571922D01*
X140190870Y-107571919D01*
X140057265Y-107438314D01*
X140057266Y-107438314D01*
X139904379Y-107327235D01*
X139736019Y-107241452D01*
X139556304Y-107183059D01*
X139556301Y-107183058D01*
X139412930Y-107160351D01*
X139369667Y-107153499D01*
X139180705Y-107153499D01*
X139145583Y-107159061D01*
X138994070Y-107183058D01*
X138994067Y-107183059D01*
X138814352Y-107241452D01*
X138645992Y-107327235D01*
X138493106Y-107438314D01*
X138359501Y-107571919D01*
X138248422Y-107724805D01*
X138162639Y-107893165D01*
X138104246Y-108072880D01*
X138104245Y-108072883D01*
X138074686Y-108259518D01*
X130500500Y-108259518D01*
X130500500Y-105934104D01*
X135199500Y-105934104D01*
X135199500Y-106065895D01*
X135233607Y-106193184D01*
X135233608Y-106193188D01*
X135280746Y-106274831D01*
X135299500Y-106307314D01*
X135392686Y-106400500D01*
X135434457Y-106424617D01*
X135506811Y-106466391D01*
X135506813Y-106466391D01*
X135506814Y-106466392D01*
X135607207Y-106493292D01*
X135634104Y-106500499D01*
X135634105Y-106500500D01*
X135634108Y-106500500D01*
X135765895Y-106500500D01*
X135765895Y-106500499D01*
X135893186Y-106466392D01*
X136007314Y-106400500D01*
X136100500Y-106307314D01*
X136166392Y-106193186D01*
X136200499Y-106065895D01*
X136200500Y-106065895D01*
X136200500Y-105934105D01*
X136200499Y-105934104D01*
X136166393Y-105806818D01*
X136166392Y-105806814D01*
X136157063Y-105790655D01*
X136150500Y-105766159D01*
X136150500Y-105719518D01*
X138074686Y-105719518D01*
X138074686Y-105908479D01*
X138104245Y-106095114D01*
X138104246Y-106095117D01*
X138162639Y-106274832D01*
X138248422Y-106443192D01*
X138248425Y-106443196D01*
X138248426Y-106443198D01*
X138359496Y-106596072D01*
X138359498Y-106596074D01*
X138359501Y-106596078D01*
X138493106Y-106729683D01*
X138493109Y-106729685D01*
X138493113Y-106729689D01*
X138645987Y-106840759D01*
X138645989Y-106840760D01*
X138645992Y-106840762D01*
X138808586Y-106923607D01*
X138814354Y-106926546D01*
X138994068Y-106984939D01*
X139180705Y-107014499D01*
X139180706Y-107014499D01*
X139369666Y-107014499D01*
X139369667Y-107014499D01*
X139556304Y-106984939D01*
X139736018Y-106926546D01*
X139904385Y-106840759D01*
X140057259Y-106729689D01*
X140190876Y-106596072D01*
X140301946Y-106443198D01*
X140387733Y-106274831D01*
X140446126Y-106095117D01*
X140475686Y-105908480D01*
X140475686Y-105719518D01*
X140446126Y-105532881D01*
X140387733Y-105353167D01*
X140301946Y-105184800D01*
X140190876Y-105031926D01*
X140190872Y-105031922D01*
X140190870Y-105031919D01*
X140057265Y-104898314D01*
X140057266Y-104898314D01*
X139904379Y-104787235D01*
X139736019Y-104701452D01*
X139556304Y-104643059D01*
X139556301Y-104643058D01*
X139412930Y-104620351D01*
X139369667Y-104613499D01*
X139180705Y-104613499D01*
X139145583Y-104619061D01*
X138994070Y-104643058D01*
X138994067Y-104643059D01*
X138814352Y-104701452D01*
X138645992Y-104787235D01*
X138493106Y-104898314D01*
X138359501Y-105031919D01*
X138248422Y-105184805D01*
X138162639Y-105353165D01*
X138104246Y-105532880D01*
X138104245Y-105532883D01*
X138074686Y-105719518D01*
X136150500Y-105719518D01*
X136150500Y-103179518D01*
X138074686Y-103179518D01*
X138074686Y-103368479D01*
X138104245Y-103555114D01*
X138104246Y-103555117D01*
X138162639Y-103734832D01*
X138248422Y-103903192D01*
X138248425Y-103903196D01*
X138248426Y-103903198D01*
X138359496Y-104056072D01*
X138359498Y-104056074D01*
X138359501Y-104056078D01*
X138493106Y-104189683D01*
X138493109Y-104189685D01*
X138493113Y-104189689D01*
X138645987Y-104300759D01*
X138645989Y-104300760D01*
X138645992Y-104300762D01*
X138814352Y-104386545D01*
X138814354Y-104386546D01*
X138994068Y-104444939D01*
X139180705Y-104474499D01*
X139180706Y-104474499D01*
X139369666Y-104474499D01*
X139369667Y-104474499D01*
X139556304Y-104444939D01*
X139736018Y-104386546D01*
X139904385Y-104300759D01*
X140057259Y-104189689D01*
X140190876Y-104056072D01*
X140301946Y-103903198D01*
X140387733Y-103734831D01*
X140446126Y-103555117D01*
X140475686Y-103368480D01*
X140475686Y-103179518D01*
X140446126Y-102992881D01*
X140387733Y-102813167D01*
X140301946Y-102644800D01*
X140190876Y-102491926D01*
X140190872Y-102491922D01*
X140190870Y-102491919D01*
X140057265Y-102358314D01*
X140057266Y-102358314D01*
X139904379Y-102247235D01*
X139736019Y-102161452D01*
X139556304Y-102103059D01*
X139556301Y-102103058D01*
X139412930Y-102080351D01*
X139369667Y-102073499D01*
X139180705Y-102073499D01*
X139145583Y-102079061D01*
X138994070Y-102103058D01*
X138994067Y-102103059D01*
X138814352Y-102161452D01*
X138645992Y-102247235D01*
X138493106Y-102358314D01*
X138359501Y-102491919D01*
X138248422Y-102644805D01*
X138162639Y-102813165D01*
X138104246Y-102992880D01*
X138104245Y-102992883D01*
X138074686Y-103179518D01*
X136150500Y-103179518D01*
X136150500Y-102506899D01*
X136164852Y-102472251D01*
X137438253Y-101198851D01*
X137472901Y-101184499D01*
X138127348Y-101184499D01*
X138161996Y-101198851D01*
X138171007Y-101211254D01*
X138248422Y-101363192D01*
X138248425Y-101363196D01*
X138248426Y-101363198D01*
X138359496Y-101516072D01*
X138359498Y-101516074D01*
X138359501Y-101516078D01*
X138493106Y-101649683D01*
X138493109Y-101649685D01*
X138493113Y-101649689D01*
X138645987Y-101760759D01*
X138645989Y-101760760D01*
X138645992Y-101760762D01*
X138814352Y-101846545D01*
X138814354Y-101846546D01*
X138994068Y-101904939D01*
X139180705Y-101934499D01*
X139180706Y-101934499D01*
X139369666Y-101934499D01*
X139369667Y-101934499D01*
X139556304Y-101904939D01*
X139736018Y-101846546D01*
X139904385Y-101760759D01*
X140057259Y-101649689D01*
X140190876Y-101516072D01*
X140301946Y-101363198D01*
X140387733Y-101194831D01*
X140446126Y-101015117D01*
X140475686Y-100828480D01*
X140475686Y-100639518D01*
X140446126Y-100452881D01*
X140387733Y-100273167D01*
X140372202Y-100242685D01*
X140301949Y-100104805D01*
X140301947Y-100104802D01*
X140301946Y-100104800D01*
X140190876Y-99951926D01*
X140190872Y-99951922D01*
X140190870Y-99951919D01*
X140057265Y-99818314D01*
X140057266Y-99818314D01*
X139927486Y-99724023D01*
X139904385Y-99707239D01*
X139904383Y-99707238D01*
X139904379Y-99707235D01*
X139736019Y-99621452D01*
X139556304Y-99563059D01*
X139556301Y-99563058D01*
X139412930Y-99540351D01*
X139369667Y-99533499D01*
X139180705Y-99533499D01*
X139145583Y-99539061D01*
X138994070Y-99563058D01*
X138994067Y-99563059D01*
X138814352Y-99621452D01*
X138645992Y-99707235D01*
X138493106Y-99818314D01*
X138359501Y-99951919D01*
X138248422Y-100104805D01*
X138171007Y-100256744D01*
X138142490Y-100281101D01*
X138127348Y-100283499D01*
X137206689Y-100283499D01*
X137117814Y-100307312D01*
X137117815Y-100307313D01*
X137092116Y-100314199D01*
X137092112Y-100314201D01*
X136989386Y-100373509D01*
X135339512Y-102023384D01*
X135339511Y-102023385D01*
X135280201Y-102126111D01*
X135278532Y-102132343D01*
X135278531Y-102132342D01*
X135278531Y-102132346D01*
X135249500Y-102240688D01*
X135249500Y-105766159D01*
X135242936Y-105790655D01*
X135233610Y-105806811D01*
X135233606Y-105806818D01*
X135199500Y-105934104D01*
X130500500Y-105934104D01*
X130500500Y-100436535D01*
X132949500Y-100436535D01*
X132949500Y-100643465D01*
X132969335Y-100743184D01*
X132989869Y-100846417D01*
X132989871Y-100846423D01*
X133069058Y-101037596D01*
X133174118Y-101194832D01*
X133184023Y-101209655D01*
X133330345Y-101355977D01*
X133502402Y-101470941D01*
X133693580Y-101550130D01*
X133896535Y-101590500D01*
X133896538Y-101590500D01*
X134103462Y-101590500D01*
X134103465Y-101590500D01*
X134306420Y-101550130D01*
X134497598Y-101470941D01*
X134669655Y-101355977D01*
X134815977Y-101209655D01*
X134930941Y-101037598D01*
X135010130Y-100846420D01*
X135050500Y-100643465D01*
X135050500Y-100436535D01*
X135010130Y-100233580D01*
X134930941Y-100042402D01*
X134815977Y-99870345D01*
X134669655Y-99724023D01*
X134497598Y-99609059D01*
X134497596Y-99609058D01*
X134306423Y-99529871D01*
X134306417Y-99529869D01*
X134224572Y-99513589D01*
X134103465Y-99489500D01*
X133896535Y-99489500D01*
X133795520Y-99509592D01*
X133693582Y-99529869D01*
X133693576Y-99529871D01*
X133502403Y-99609058D01*
X133330345Y-99724022D01*
X133184022Y-99870345D01*
X133069058Y-100042403D01*
X132989871Y-100233576D01*
X132989869Y-100233582D01*
X132969592Y-100335520D01*
X132949500Y-100436535D01*
X130500500Y-100436535D01*
X130500500Y-99010267D01*
X133696836Y-99010267D01*
X133896587Y-99050000D01*
X134103415Y-99050000D01*
X134103421Y-99049999D01*
X134303162Y-99010268D01*
X134303162Y-99010267D01*
X134000000Y-98707106D01*
X133696836Y-99010267D01*
X130500500Y-99010267D01*
X130500500Y-97896587D01*
X132950000Y-97896587D01*
X132950000Y-98103412D01*
X132989731Y-98303161D01*
X132989732Y-98303162D01*
X133292894Y-98000000D01*
X133292894Y-97999999D01*
X133227069Y-97934174D01*
X133500000Y-97934174D01*
X133500000Y-98065826D01*
X133534075Y-98192993D01*
X133599901Y-98307007D01*
X133692993Y-98400099D01*
X133807007Y-98465925D01*
X133934174Y-98500000D01*
X134065826Y-98500000D01*
X134192993Y-98465925D01*
X134307007Y-98400099D01*
X134400099Y-98307007D01*
X134465925Y-98192993D01*
X134500000Y-98065826D01*
X134500000Y-97999999D01*
X134707106Y-97999999D01*
X134707106Y-98000000D01*
X135010267Y-98303162D01*
X135010268Y-98303162D01*
X135049999Y-98103421D01*
X135050000Y-98103414D01*
X135050000Y-98099518D01*
X138074686Y-98099518D01*
X138074686Y-98288479D01*
X138104245Y-98475114D01*
X138104246Y-98475117D01*
X138162639Y-98654832D01*
X138248422Y-98823192D01*
X138248425Y-98823196D01*
X138248426Y-98823198D01*
X138359496Y-98976072D01*
X138359498Y-98976074D01*
X138359501Y-98976078D01*
X138493106Y-99109683D01*
X138493109Y-99109685D01*
X138493113Y-99109689D01*
X138645987Y-99220759D01*
X138645989Y-99220760D01*
X138645992Y-99220762D01*
X138814352Y-99306545D01*
X138814354Y-99306546D01*
X138994068Y-99364939D01*
X139180705Y-99394499D01*
X139180706Y-99394499D01*
X139369666Y-99394499D01*
X139369667Y-99394499D01*
X139556304Y-99364939D01*
X139736018Y-99306546D01*
X139904385Y-99220759D01*
X140057259Y-99109689D01*
X140190876Y-98976072D01*
X140301946Y-98823198D01*
X140387733Y-98654831D01*
X140446126Y-98475117D01*
X140475686Y-98288480D01*
X140475686Y-98099518D01*
X140446126Y-97912881D01*
X140387733Y-97733167D01*
X140369222Y-97696837D01*
X140301949Y-97564805D01*
X140301947Y-97564802D01*
X140301946Y-97564800D01*
X140190876Y-97411926D01*
X140190872Y-97411922D01*
X140190870Y-97411919D01*
X140057265Y-97278314D01*
X140057266Y-97278314D01*
X139904379Y-97167235D01*
X139736019Y-97081452D01*
X139556304Y-97023059D01*
X139556301Y-97023058D01*
X139412930Y-97000351D01*
X139369667Y-96993499D01*
X139180705Y-96993499D01*
X139145583Y-96999061D01*
X138994070Y-97023058D01*
X138994067Y-97023059D01*
X138814352Y-97081452D01*
X138645992Y-97167235D01*
X138493106Y-97278314D01*
X138359501Y-97411919D01*
X138248422Y-97564805D01*
X138162639Y-97733165D01*
X138104246Y-97912880D01*
X138104245Y-97912883D01*
X138074686Y-98099518D01*
X135050000Y-98099518D01*
X135050000Y-97896587D01*
X135010267Y-97696836D01*
X134707106Y-97999999D01*
X134500000Y-97999999D01*
X134500000Y-97934174D01*
X134465925Y-97807007D01*
X134400099Y-97692993D01*
X134307007Y-97599901D01*
X134192993Y-97534075D01*
X134065826Y-97500000D01*
X133934174Y-97500000D01*
X133807007Y-97534075D01*
X133692993Y-97599901D01*
X133599901Y-97692993D01*
X133534075Y-97807007D01*
X133500000Y-97934174D01*
X133227069Y-97934174D01*
X132989731Y-97696837D01*
X132950000Y-97896587D01*
X130500500Y-97896587D01*
X130500500Y-96989731D01*
X133696837Y-96989731D01*
X134000000Y-97292894D01*
X134000001Y-97292894D01*
X134303162Y-96989732D01*
X134303161Y-96989731D01*
X134103413Y-96950000D01*
X133896587Y-96950000D01*
X133696837Y-96989731D01*
X130500500Y-96989731D01*
X130500500Y-95356535D01*
X132949500Y-95356535D01*
X132949500Y-95563465D01*
X132954679Y-95589500D01*
X132989869Y-95766417D01*
X132989871Y-95766423D01*
X133069058Y-95957596D01*
X133174118Y-96114832D01*
X133184023Y-96129655D01*
X133330345Y-96275977D01*
X133502402Y-96390941D01*
X133693580Y-96470130D01*
X133896535Y-96510500D01*
X133896538Y-96510500D01*
X134103462Y-96510500D01*
X134103465Y-96510500D01*
X134306420Y-96470130D01*
X134497598Y-96390941D01*
X134669655Y-96275977D01*
X134815977Y-96129655D01*
X134930941Y-95957598D01*
X135010130Y-95766420D01*
X135050500Y-95563465D01*
X135050500Y-95559518D01*
X138074686Y-95559518D01*
X138074686Y-95748479D01*
X138104245Y-95935114D01*
X138104246Y-95935117D01*
X138162639Y-96114832D01*
X138248422Y-96283192D01*
X138248425Y-96283196D01*
X138248426Y-96283198D01*
X138359496Y-96436072D01*
X138359498Y-96436074D01*
X138359501Y-96436078D01*
X138493106Y-96569683D01*
X138493109Y-96569685D01*
X138493113Y-96569689D01*
X138645987Y-96680759D01*
X138645989Y-96680760D01*
X138645992Y-96680762D01*
X138814352Y-96766545D01*
X138814354Y-96766546D01*
X138994068Y-96824939D01*
X139180705Y-96854499D01*
X139180706Y-96854499D01*
X139369666Y-96854499D01*
X139369667Y-96854499D01*
X139556304Y-96824939D01*
X139736018Y-96766546D01*
X139904385Y-96680759D01*
X140057259Y-96569689D01*
X140190876Y-96436072D01*
X140301946Y-96283198D01*
X140387733Y-96114831D01*
X140446126Y-95935117D01*
X140447870Y-95924104D01*
X158159500Y-95924104D01*
X158159500Y-96055895D01*
X158193607Y-96183184D01*
X158193608Y-96183188D01*
X158251350Y-96283198D01*
X158259500Y-96297314D01*
X158352686Y-96390500D01*
X158418574Y-96428540D01*
X158466810Y-96456390D01*
X158466811Y-96456390D01*
X158466814Y-96456392D01*
X158484834Y-96461220D01*
X158506799Y-96473902D01*
X159535148Y-97502251D01*
X159549500Y-97536899D01*
X159549500Y-111689310D01*
X159572028Y-111773383D01*
X159572028Y-111773385D01*
X159580200Y-111803886D01*
X159580201Y-111803888D01*
X159639511Y-111906614D01*
X159639512Y-111906615D01*
X159936097Y-112203201D01*
X159948779Y-112225166D01*
X159953607Y-112243184D01*
X159953608Y-112243188D01*
X160005813Y-112333608D01*
X160019500Y-112357314D01*
X160112686Y-112450500D01*
X160140210Y-112466391D01*
X160226810Y-112516390D01*
X160226811Y-112516390D01*
X160226814Y-112516392D01*
X160244834Y-112521220D01*
X160266799Y-112533902D01*
X161527385Y-113794488D01*
X161630112Y-113853798D01*
X161654325Y-113860285D01*
X161699507Y-113872392D01*
X161744688Y-113884499D01*
X161744690Y-113884499D01*
X163425686Y-113884499D01*
X163460334Y-113898851D01*
X163474686Y-113933499D01*
X163474686Y-118019392D01*
X163504245Y-118206027D01*
X163504246Y-118206030D01*
X163562639Y-118385745D01*
X163648424Y-118554108D01*
X163759497Y-118706987D01*
X163759500Y-118706991D01*
X164643699Y-119591189D01*
X164658051Y-119625837D01*
X164643699Y-119660485D01*
X164609051Y-119674837D01*
X164599059Y-119673525D01*
X164599012Y-119673766D01*
X164597439Y-119673453D01*
X164597424Y-119673451D01*
X164369920Y-119643499D01*
X164140452Y-119643499D01*
X163912948Y-119673451D01*
X163912944Y-119673451D01*
X163912936Y-119673453D01*
X163691298Y-119732841D01*
X163479296Y-119820655D01*
X163280576Y-119935386D01*
X163280561Y-119935396D01*
X163098534Y-120075071D01*
X163098522Y-120075082D01*
X162936269Y-120237335D01*
X162936258Y-120237347D01*
X162796583Y-120419374D01*
X162796573Y-120419389D01*
X162681842Y-120618109D01*
X162594028Y-120830111D01*
X162534640Y-121051749D01*
X162504686Y-121279268D01*
X162504686Y-121508729D01*
X162504685Y-121508729D01*
X162504686Y-121508733D01*
X162534638Y-121736237D01*
X162534639Y-121736241D01*
X162534640Y-121736248D01*
X162594028Y-121957886D01*
X162681842Y-122169888D01*
X162796573Y-122368608D01*
X162796583Y-122368623D01*
X162936258Y-122550650D01*
X162936269Y-122550662D01*
X163098522Y-122712915D01*
X163098534Y-122712926D01*
X163280561Y-122852601D01*
X163280570Y-122852607D01*
X163280574Y-122852610D01*
X163479298Y-122967343D01*
X163691299Y-123055157D01*
X163862555Y-123101044D01*
X163912936Y-123114544D01*
X163912937Y-123114544D01*
X163912948Y-123114547D01*
X164140452Y-123144499D01*
X164140455Y-123144499D01*
X164369916Y-123144499D01*
X164369920Y-123144499D01*
X164597424Y-123114547D01*
X164819073Y-123055157D01*
X165031074Y-122967343D01*
X165229798Y-122852610D01*
X165411847Y-122712918D01*
X165574105Y-122550660D01*
X165688590Y-122401462D01*
X165713788Y-122368623D01*
X165713789Y-122368620D01*
X165713797Y-122368611D01*
X165828530Y-122169887D01*
X165916344Y-121957886D01*
X165975734Y-121736237D01*
X166005686Y-121508733D01*
X166005686Y-121279265D01*
X165975734Y-121051761D01*
X165975732Y-121051754D01*
X165975731Y-121051745D01*
X165975419Y-121050173D01*
X165976400Y-121049977D01*
X165980895Y-121015662D01*
X166010632Y-120992811D01*
X166047818Y-120997681D01*
X166057995Y-121005485D01*
X170085148Y-125032637D01*
X170099500Y-125067285D01*
X170099500Y-128477193D01*
X170090142Y-128505993D01*
X170081109Y-128518426D01*
X170063696Y-128542393D01*
X170063695Y-128542395D01*
X169960402Y-128745119D01*
X169890093Y-128961510D01*
X169890092Y-128961513D01*
X169854500Y-129186237D01*
X169854500Y-129413762D01*
X169890092Y-129638486D01*
X169890093Y-129638489D01*
X169960402Y-129854880D01*
X170063695Y-130057604D01*
X170197435Y-130241681D01*
X170197439Y-130241686D01*
X170358314Y-130402561D01*
X170358318Y-130402564D01*
X170358320Y-130402566D01*
X170542393Y-130536303D01*
X170745121Y-130639598D01*
X170961511Y-130709907D01*
X171186237Y-130745500D01*
X171186238Y-130745500D01*
X171413762Y-130745500D01*
X171413763Y-130745500D01*
X171638489Y-130709907D01*
X171854879Y-130639598D01*
X172057607Y-130536303D01*
X172241680Y-130402566D01*
X172241683Y-130402562D01*
X172241686Y-130402561D01*
X172402561Y-130241686D01*
X172402562Y-130241683D01*
X172402566Y-130241680D01*
X172536303Y-130057607D01*
X172639598Y-129854879D01*
X172709907Y-129638489D01*
X172745500Y-129413763D01*
X172745500Y-129186237D01*
X172709907Y-128961511D01*
X172639598Y-128745121D01*
X172536303Y-128542393D01*
X172509857Y-128505993D01*
X172500500Y-128477193D01*
X172500500Y-124455245D01*
X172470940Y-124268610D01*
X172470940Y-124268608D01*
X172412547Y-124088894D01*
X172370726Y-124006815D01*
X172326763Y-123920532D01*
X172326761Y-123920529D01*
X172326760Y-123920527D01*
X172215690Y-123767653D01*
X172215686Y-123767649D01*
X172215684Y-123767646D01*
X172082073Y-123634036D01*
X171764852Y-123316814D01*
X171750500Y-123282166D01*
X171750500Y-114940688D01*
X171750499Y-114940687D01*
X171719800Y-114826117D01*
X171719799Y-114826115D01*
X171719799Y-114826114D01*
X171694731Y-114782696D01*
X171660489Y-114723386D01*
X171233902Y-114296799D01*
X171221220Y-114274834D01*
X171216392Y-114256814D01*
X171150500Y-114142686D01*
X171057314Y-114049500D01*
X170943188Y-113983608D01*
X170943184Y-113983607D01*
X170815895Y-113949500D01*
X170815892Y-113949500D01*
X170684108Y-113949500D01*
X170684105Y-113949500D01*
X170556815Y-113983607D01*
X170556811Y-113983608D01*
X170442685Y-114049500D01*
X170442685Y-114049501D01*
X170349501Y-114142685D01*
X170349500Y-114142685D01*
X170283608Y-114256811D01*
X170283607Y-114256815D01*
X170249500Y-114384104D01*
X170249500Y-114515895D01*
X170283607Y-114643184D01*
X170283608Y-114643188D01*
X170329913Y-114723389D01*
X170349500Y-114757314D01*
X170442686Y-114850500D01*
X170508574Y-114888540D01*
X170556810Y-114916390D01*
X170556811Y-114916390D01*
X170556814Y-114916392D01*
X170574834Y-114921220D01*
X170596799Y-114933902D01*
X170835148Y-115172251D01*
X170849500Y-115206899D01*
X170849500Y-122283166D01*
X170835148Y-122317814D01*
X170800500Y-122332166D01*
X170765852Y-122317814D01*
X165890038Y-117442000D01*
X165875686Y-117407352D01*
X165875686Y-115634104D01*
X166399500Y-115634104D01*
X166399500Y-115765895D01*
X166433607Y-115893184D01*
X166433608Y-115893188D01*
X166499500Y-116007314D01*
X166592686Y-116100500D01*
X166634457Y-116124617D01*
X166706811Y-116166391D01*
X166706813Y-116166391D01*
X166706814Y-116166392D01*
X166807207Y-116193292D01*
X166834104Y-116200499D01*
X166834105Y-116200500D01*
X166834108Y-116200500D01*
X166965895Y-116200500D01*
X166965895Y-116200499D01*
X167093186Y-116166392D01*
X167207314Y-116100500D01*
X167300500Y-116007314D01*
X167366392Y-115893186D01*
X167400499Y-115765895D01*
X167400500Y-115765895D01*
X167400500Y-115634105D01*
X167400499Y-115634104D01*
X167366392Y-115506815D01*
X167366391Y-115506811D01*
X167300499Y-115392685D01*
X167207314Y-115299500D01*
X167093188Y-115233608D01*
X167093184Y-115233607D01*
X166965895Y-115199500D01*
X166965892Y-115199500D01*
X166834108Y-115199500D01*
X166834105Y-115199500D01*
X166706815Y-115233607D01*
X166706811Y-115233608D01*
X166592685Y-115299500D01*
X166592685Y-115299501D01*
X166499501Y-115392685D01*
X166499500Y-115392685D01*
X166433608Y-115506811D01*
X166433607Y-115506815D01*
X166399500Y-115634104D01*
X165875686Y-115634104D01*
X165875686Y-113834104D01*
X166599500Y-113834104D01*
X166599500Y-113965895D01*
X166633607Y-114093184D01*
X166633608Y-114093188D01*
X166686100Y-114184105D01*
X166699500Y-114207314D01*
X166792686Y-114300500D01*
X166819346Y-114315892D01*
X166906811Y-114366391D01*
X166906813Y-114366391D01*
X166906814Y-114366392D01*
X166972917Y-114384104D01*
X167034104Y-114400499D01*
X167034105Y-114400500D01*
X167034108Y-114400500D01*
X167165895Y-114400500D01*
X167165895Y-114400499D01*
X167293186Y-114366392D01*
X167407314Y-114300500D01*
X167500500Y-114207314D01*
X167566392Y-114093186D01*
X167600499Y-113965895D01*
X167600500Y-113965895D01*
X167600500Y-113834105D01*
X167600499Y-113834104D01*
X167582355Y-113766391D01*
X167566392Y-113706814D01*
X167566391Y-113706813D01*
X167566391Y-113706811D01*
X167518225Y-113623386D01*
X167500500Y-113592686D01*
X167407314Y-113499500D01*
X167293188Y-113433608D01*
X167293184Y-113433607D01*
X167165895Y-113399500D01*
X167165892Y-113399500D01*
X167034108Y-113399500D01*
X167034105Y-113399500D01*
X166906815Y-113433607D01*
X166906811Y-113433608D01*
X166792685Y-113499500D01*
X166792685Y-113499501D01*
X166699501Y-113592685D01*
X166699500Y-113592685D01*
X166633608Y-113706811D01*
X166633607Y-113706815D01*
X166599500Y-113834104D01*
X165875686Y-113834104D01*
X165875686Y-113334104D01*
X169699500Y-113334104D01*
X169699500Y-113465895D01*
X169733607Y-113593184D01*
X169733608Y-113593188D01*
X169794989Y-113699501D01*
X169799500Y-113707314D01*
X169892686Y-113800500D01*
X169934457Y-113824617D01*
X170006811Y-113866391D01*
X170006813Y-113866391D01*
X170006814Y-113866392D01*
X170074391Y-113884499D01*
X170134104Y-113900499D01*
X170134105Y-113900500D01*
X170134108Y-113900500D01*
X170265895Y-113900500D01*
X170265895Y-113900499D01*
X170393186Y-113866392D01*
X170507314Y-113800500D01*
X170600500Y-113707314D01*
X170666392Y-113593186D01*
X170682223Y-113534104D01*
X171099500Y-113534104D01*
X171099500Y-113665895D01*
X171133607Y-113793184D01*
X171133608Y-113793188D01*
X171191342Y-113893184D01*
X171199500Y-113907314D01*
X171292686Y-114000500D01*
X171304490Y-114007315D01*
X171406811Y-114066391D01*
X171406813Y-114066391D01*
X171406814Y-114066392D01*
X171506804Y-114093184D01*
X171534104Y-114100499D01*
X171534105Y-114100500D01*
X171534108Y-114100500D01*
X171665895Y-114100500D01*
X171665895Y-114100499D01*
X171793186Y-114066392D01*
X171907314Y-114000500D01*
X172000500Y-113907314D01*
X172066392Y-113793186D01*
X172100499Y-113665895D01*
X172100500Y-113665895D01*
X172100500Y-113534105D01*
X172100499Y-113534104D01*
X172089401Y-113492685D01*
X172066392Y-113406814D01*
X172066391Y-113406813D01*
X172066391Y-113406811D01*
X172000499Y-113292685D01*
X171941918Y-113234104D01*
X172399500Y-113234104D01*
X172399500Y-113365895D01*
X172433607Y-113493184D01*
X172433608Y-113493188D01*
X172495565Y-113600499D01*
X172499500Y-113607314D01*
X172592686Y-113700500D01*
X172604490Y-113707315D01*
X172706811Y-113766391D01*
X172706813Y-113766391D01*
X172706814Y-113766392D01*
X172806804Y-113793184D01*
X172834104Y-113800499D01*
X172834105Y-113800500D01*
X172834108Y-113800500D01*
X172965895Y-113800500D01*
X172965895Y-113800499D01*
X173093186Y-113766392D01*
X173207314Y-113700500D01*
X173300500Y-113607314D01*
X173366392Y-113493186D01*
X173400499Y-113365895D01*
X173400500Y-113365895D01*
X173400500Y-113234105D01*
X173400499Y-113234104D01*
X173366392Y-113106815D01*
X173366391Y-113106811D01*
X173305029Y-113000531D01*
X173300500Y-112992686D01*
X173207314Y-112899500D01*
X173195510Y-112892685D01*
X173093188Y-112833608D01*
X173093184Y-112833607D01*
X172965895Y-112799500D01*
X172965892Y-112799500D01*
X172834108Y-112799500D01*
X172834105Y-112799500D01*
X172706815Y-112833607D01*
X172706811Y-112833608D01*
X172592685Y-112899500D01*
X172499501Y-112992685D01*
X172499500Y-112992685D01*
X172433608Y-113106811D01*
X172433607Y-113106815D01*
X172399500Y-113234104D01*
X171941918Y-113234104D01*
X171907314Y-113199500D01*
X171793188Y-113133608D01*
X171793184Y-113133607D01*
X171665895Y-113099500D01*
X171665892Y-113099500D01*
X171534108Y-113099500D01*
X171534105Y-113099500D01*
X171406815Y-113133607D01*
X171406811Y-113133608D01*
X171292685Y-113199500D01*
X171199501Y-113292685D01*
X171199500Y-113292685D01*
X171133608Y-113406811D01*
X171133607Y-113406815D01*
X171099500Y-113534104D01*
X170682223Y-113534104D01*
X170684707Y-113524833D01*
X170686481Y-113518214D01*
X170700499Y-113465895D01*
X170700500Y-113465895D01*
X170700500Y-113334105D01*
X170700499Y-113334104D01*
X170682355Y-113266391D01*
X170666392Y-113206814D01*
X170666391Y-113206813D01*
X170666391Y-113206811D01*
X170624126Y-113133607D01*
X170600500Y-113092686D01*
X170507314Y-112999500D01*
X170393188Y-112933608D01*
X170393184Y-112933607D01*
X170265895Y-112899500D01*
X170265892Y-112899500D01*
X170134108Y-112899500D01*
X170134105Y-112899500D01*
X170006815Y-112933607D01*
X170006811Y-112933608D01*
X169892685Y-112999500D01*
X169892685Y-112999501D01*
X169799501Y-113092685D01*
X169799500Y-113092685D01*
X169733608Y-113206811D01*
X169733607Y-113206815D01*
X169699500Y-113334104D01*
X165875686Y-113334104D01*
X165875686Y-112414254D01*
X165875686Y-112414251D01*
X165864053Y-112355768D01*
X165831677Y-112307314D01*
X165819738Y-112289446D01*
X165779981Y-112262881D01*
X165753417Y-112245132D01*
X165694934Y-112233499D01*
X163655438Y-112233499D01*
X163596955Y-112245132D01*
X163530633Y-112289446D01*
X163501126Y-112333608D01*
X163486319Y-112355768D01*
X163474686Y-112414251D01*
X163474686Y-112414254D01*
X163474686Y-112934499D01*
X163460334Y-112969147D01*
X163425686Y-112983499D01*
X162010898Y-112983499D01*
X161976250Y-112969147D01*
X161026835Y-112019732D01*
X164256557Y-112019732D01*
X164394184Y-112064450D01*
X164394187Y-112064451D01*
X164580745Y-112093999D01*
X164769627Y-112093999D01*
X164956184Y-112064451D01*
X164956187Y-112064450D01*
X165049581Y-112034104D01*
X166499500Y-112034104D01*
X166499500Y-112165895D01*
X166533607Y-112293184D01*
X166533608Y-112293188D01*
X166594989Y-112399501D01*
X166599500Y-112407314D01*
X166692686Y-112500500D01*
X166720208Y-112516390D01*
X166806811Y-112566391D01*
X166806813Y-112566391D01*
X166806814Y-112566392D01*
X166907207Y-112593292D01*
X166934104Y-112600499D01*
X166934105Y-112600500D01*
X166934108Y-112600500D01*
X167065895Y-112600500D01*
X167065895Y-112600499D01*
X167193186Y-112566392D01*
X167307314Y-112500500D01*
X167400500Y-112407314D01*
X167466392Y-112293186D01*
X167500499Y-112165895D01*
X167500500Y-112165895D01*
X167500500Y-112034105D01*
X167500499Y-112034104D01*
X167473705Y-111934108D01*
X167466392Y-111906814D01*
X167466391Y-111906813D01*
X167466391Y-111906811D01*
X167408946Y-111807315D01*
X167400500Y-111792686D01*
X167307314Y-111699500D01*
X167259395Y-111671834D01*
X167194047Y-111634104D01*
X169599500Y-111634104D01*
X169599500Y-111765895D01*
X169633607Y-111893184D01*
X169633608Y-111893188D01*
X169683724Y-111979989D01*
X169699500Y-112007314D01*
X169792686Y-112100500D01*
X169834457Y-112124617D01*
X169906811Y-112166391D01*
X169906813Y-112166391D01*
X169906814Y-112166392D01*
X170006804Y-112193184D01*
X170034104Y-112200499D01*
X170034105Y-112200500D01*
X170034108Y-112200500D01*
X170165895Y-112200500D01*
X170165895Y-112200499D01*
X170293186Y-112166392D01*
X170407314Y-112100500D01*
X170500500Y-112007314D01*
X170542768Y-111934104D01*
X172399500Y-111934104D01*
X172399500Y-112065895D01*
X172433607Y-112193184D01*
X172433608Y-112193188D01*
X172499500Y-112307314D01*
X172592686Y-112400500D01*
X172616509Y-112414254D01*
X172706811Y-112466391D01*
X172706813Y-112466391D01*
X172706814Y-112466392D01*
X172806494Y-112493101D01*
X172834104Y-112500499D01*
X172834105Y-112500500D01*
X172834108Y-112500500D01*
X172965895Y-112500500D01*
X172965895Y-112500499D01*
X173093186Y-112466392D01*
X173207314Y-112400500D01*
X173300500Y-112307314D01*
X173366392Y-112193186D01*
X173400499Y-112065895D01*
X173400500Y-112065895D01*
X173400500Y-111934105D01*
X173400499Y-111934104D01*
X173366392Y-111806815D01*
X173366391Y-111806811D01*
X173324617Y-111734457D01*
X173300500Y-111692686D01*
X173207314Y-111599500D01*
X173093188Y-111533608D01*
X173093184Y-111533607D01*
X172965895Y-111499500D01*
X172965892Y-111499500D01*
X172834108Y-111499500D01*
X172834105Y-111499500D01*
X172706815Y-111533607D01*
X172706811Y-111533608D01*
X172592685Y-111599500D01*
X172499501Y-111692685D01*
X172499500Y-111692685D01*
X172433608Y-111806811D01*
X172433607Y-111806815D01*
X172399500Y-111934104D01*
X170542768Y-111934104D01*
X170566392Y-111893186D01*
X170600499Y-111765895D01*
X170600500Y-111765895D01*
X170600500Y-111634105D01*
X170600499Y-111634104D01*
X170582277Y-111566097D01*
X170566392Y-111506814D01*
X170566391Y-111506813D01*
X170566391Y-111506811D01*
X170524413Y-111434104D01*
X170500500Y-111392686D01*
X170407314Y-111299500D01*
X170293188Y-111233608D01*
X170293184Y-111233607D01*
X170165895Y-111199500D01*
X170165892Y-111199500D01*
X170034108Y-111199500D01*
X170034105Y-111199500D01*
X169906815Y-111233607D01*
X169906811Y-111233608D01*
X169792685Y-111299500D01*
X169792685Y-111299501D01*
X169699501Y-111392685D01*
X169699500Y-111392685D01*
X169633608Y-111506811D01*
X169633607Y-111506815D01*
X169599500Y-111634104D01*
X167194047Y-111634104D01*
X167193188Y-111633608D01*
X167193184Y-111633607D01*
X167065895Y-111599500D01*
X167065892Y-111599500D01*
X166934108Y-111599500D01*
X166934105Y-111599500D01*
X166806815Y-111633607D01*
X166806811Y-111633608D01*
X166692685Y-111699500D01*
X166692685Y-111699501D01*
X166599501Y-111792685D01*
X166599500Y-111792685D01*
X166533608Y-111906811D01*
X166533607Y-111906815D01*
X166499500Y-112034104D01*
X165049581Y-112034104D01*
X165093813Y-112019732D01*
X164675186Y-111601105D01*
X164256557Y-112019732D01*
X161026835Y-112019732D01*
X160903902Y-111896799D01*
X160891220Y-111874834D01*
X160886392Y-111856814D01*
X160820500Y-111742686D01*
X160727314Y-111649500D01*
X160613188Y-111583608D01*
X160613184Y-111583607D01*
X160595166Y-111578779D01*
X160573201Y-111566097D01*
X160464852Y-111457748D01*
X160450500Y-111423100D01*
X160450500Y-110799557D01*
X163475186Y-110799557D01*
X163475186Y-110988440D01*
X163504733Y-111174997D01*
X163504734Y-111175000D01*
X163549451Y-111312626D01*
X163968080Y-110893999D01*
X163900937Y-110826856D01*
X164165186Y-110826856D01*
X164165186Y-110961142D01*
X164199941Y-111090852D01*
X164267084Y-111207146D01*
X164362039Y-111302101D01*
X164478333Y-111369244D01*
X164608043Y-111403999D01*
X164742329Y-111403999D01*
X164872039Y-111369244D01*
X164988333Y-111302101D01*
X165083288Y-111207146D01*
X165150431Y-111090852D01*
X165185186Y-110961142D01*
X165185186Y-110893998D01*
X165382292Y-110893998D01*
X165382292Y-110893999D01*
X165800919Y-111312626D01*
X165845637Y-111175000D01*
X165845638Y-111174997D01*
X165875186Y-110988440D01*
X165875186Y-110799557D01*
X165845638Y-110613000D01*
X165845637Y-110612997D01*
X165800919Y-110475370D01*
X165382292Y-110893998D01*
X165185186Y-110893998D01*
X165185186Y-110826856D01*
X165150431Y-110697146D01*
X165083288Y-110580852D01*
X164988333Y-110485897D01*
X164872039Y-110418754D01*
X164742329Y-110383999D01*
X164608043Y-110383999D01*
X164478333Y-110418754D01*
X164362039Y-110485897D01*
X164267084Y-110580852D01*
X164199941Y-110697146D01*
X164165186Y-110826856D01*
X163900937Y-110826856D01*
X163549451Y-110475370D01*
X163504734Y-110612997D01*
X163504733Y-110613000D01*
X163475186Y-110799557D01*
X160450500Y-110799557D01*
X160450500Y-109768264D01*
X164256557Y-109768264D01*
X164675186Y-110186893D01*
X164675187Y-110186893D01*
X165093814Y-109768264D01*
X164956187Y-109723547D01*
X164956184Y-109723546D01*
X164769627Y-109693999D01*
X164580745Y-109693999D01*
X164394187Y-109723546D01*
X164394184Y-109723547D01*
X164256557Y-109768264D01*
X160450500Y-109768264D01*
X160450500Y-108259518D01*
X163474686Y-108259518D01*
X163474686Y-108448479D01*
X163504245Y-108635114D01*
X163504246Y-108635117D01*
X163562639Y-108814832D01*
X163648422Y-108983192D01*
X163648425Y-108983196D01*
X163648426Y-108983198D01*
X163759496Y-109136072D01*
X163759498Y-109136074D01*
X163759501Y-109136078D01*
X163893106Y-109269683D01*
X163893109Y-109269685D01*
X163893113Y-109269689D01*
X164045987Y-109380759D01*
X164045989Y-109380760D01*
X164045992Y-109380762D01*
X164214352Y-109466545D01*
X164214354Y-109466546D01*
X164394068Y-109524939D01*
X164580705Y-109554499D01*
X164580706Y-109554499D01*
X164769666Y-109554499D01*
X164769667Y-109554499D01*
X164956304Y-109524939D01*
X165136018Y-109466546D01*
X165304385Y-109380759D01*
X165457259Y-109269689D01*
X165590876Y-109136072D01*
X165701946Y-108983198D01*
X165787733Y-108814831D01*
X165846126Y-108635117D01*
X165875686Y-108448480D01*
X165875686Y-108259518D01*
X165846126Y-108072881D01*
X165787733Y-107893167D01*
X165701946Y-107724800D01*
X165590876Y-107571926D01*
X165590872Y-107571922D01*
X165590870Y-107571919D01*
X165457265Y-107438314D01*
X165457266Y-107438314D01*
X165304379Y-107327235D01*
X165136019Y-107241452D01*
X164956304Y-107183059D01*
X164956301Y-107183058D01*
X164812930Y-107160351D01*
X164769667Y-107153499D01*
X164580705Y-107153499D01*
X164545583Y-107159061D01*
X164394070Y-107183058D01*
X164394067Y-107183059D01*
X164214352Y-107241452D01*
X164045992Y-107327235D01*
X163893106Y-107438314D01*
X163759501Y-107571919D01*
X163648422Y-107724805D01*
X163562639Y-107893165D01*
X163504246Y-108072880D01*
X163504245Y-108072883D01*
X163474686Y-108259518D01*
X160450500Y-108259518D01*
X160450500Y-105934104D01*
X160799500Y-105934104D01*
X160799500Y-106065895D01*
X160833607Y-106193184D01*
X160833608Y-106193188D01*
X160880746Y-106274831D01*
X160899500Y-106307314D01*
X160992686Y-106400500D01*
X161034457Y-106424617D01*
X161106811Y-106466391D01*
X161106813Y-106466391D01*
X161106814Y-106466392D01*
X161207207Y-106493292D01*
X161234104Y-106500499D01*
X161234105Y-106500500D01*
X161234108Y-106500500D01*
X161365895Y-106500500D01*
X161365895Y-106500499D01*
X161493186Y-106466392D01*
X161607314Y-106400500D01*
X161700500Y-106307314D01*
X161766392Y-106193186D01*
X161800499Y-106065895D01*
X161800500Y-106065895D01*
X161800500Y-105934105D01*
X161800499Y-105934104D01*
X161766392Y-105806815D01*
X161766391Y-105806812D01*
X161729025Y-105742093D01*
X161715991Y-105719518D01*
X163474686Y-105719518D01*
X163474686Y-105908479D01*
X163504245Y-106095114D01*
X163504246Y-106095117D01*
X163562639Y-106274832D01*
X163648422Y-106443192D01*
X163648425Y-106443196D01*
X163648426Y-106443198D01*
X163759496Y-106596072D01*
X163759498Y-106596074D01*
X163759501Y-106596078D01*
X163893106Y-106729683D01*
X163893109Y-106729685D01*
X163893113Y-106729689D01*
X164045987Y-106840759D01*
X164045989Y-106840760D01*
X164045992Y-106840762D01*
X164208586Y-106923607D01*
X164214354Y-106926546D01*
X164394068Y-106984939D01*
X164580705Y-107014499D01*
X164580706Y-107014499D01*
X164769666Y-107014499D01*
X164769667Y-107014499D01*
X164956304Y-106984939D01*
X165136018Y-106926546D01*
X165304385Y-106840759D01*
X165457259Y-106729689D01*
X165590876Y-106596072D01*
X165701946Y-106443198D01*
X165787733Y-106274831D01*
X165846126Y-106095117D01*
X165875686Y-105908480D01*
X165875686Y-105719518D01*
X165846126Y-105532881D01*
X165787733Y-105353167D01*
X165701946Y-105184800D01*
X165590876Y-105031926D01*
X165590872Y-105031922D01*
X165590870Y-105031919D01*
X165457265Y-104898314D01*
X165457266Y-104898314D01*
X165304379Y-104787235D01*
X165136019Y-104701452D01*
X164956304Y-104643059D01*
X164956301Y-104643058D01*
X164812930Y-104620351D01*
X164769667Y-104613499D01*
X164580705Y-104613499D01*
X164545583Y-104619061D01*
X164394070Y-104643058D01*
X164394067Y-104643059D01*
X164214352Y-104701452D01*
X164045992Y-104787235D01*
X163893106Y-104898314D01*
X163759501Y-105031919D01*
X163648422Y-105184805D01*
X163562639Y-105353165D01*
X163504246Y-105532880D01*
X163504245Y-105532883D01*
X163474686Y-105719518D01*
X161715991Y-105719518D01*
X161700500Y-105692686D01*
X161607314Y-105599500D01*
X161493188Y-105533608D01*
X161493184Y-105533607D01*
X161365895Y-105499500D01*
X161365892Y-105499500D01*
X161234108Y-105499500D01*
X161234105Y-105499500D01*
X161106815Y-105533607D01*
X161106811Y-105533608D01*
X160992685Y-105599500D01*
X160992685Y-105599501D01*
X160899501Y-105692685D01*
X160899500Y-105692685D01*
X160833608Y-105806811D01*
X160833607Y-105806815D01*
X160799500Y-105934104D01*
X160450500Y-105934104D01*
X160450500Y-103179518D01*
X163474686Y-103179518D01*
X163474686Y-103368479D01*
X163504245Y-103555114D01*
X163504246Y-103555117D01*
X163562639Y-103734832D01*
X163648422Y-103903192D01*
X163648425Y-103903196D01*
X163648426Y-103903198D01*
X163759496Y-104056072D01*
X163759498Y-104056074D01*
X163759501Y-104056078D01*
X163893106Y-104189683D01*
X163893109Y-104189685D01*
X163893113Y-104189689D01*
X164045987Y-104300759D01*
X164045989Y-104300760D01*
X164045992Y-104300762D01*
X164214352Y-104386545D01*
X164214354Y-104386546D01*
X164394068Y-104444939D01*
X164580705Y-104474499D01*
X164580706Y-104474499D01*
X164769666Y-104474499D01*
X164769667Y-104474499D01*
X164956304Y-104444939D01*
X165136018Y-104386546D01*
X165304385Y-104300759D01*
X165457259Y-104189689D01*
X165590876Y-104056072D01*
X165701946Y-103903198D01*
X165787733Y-103734831D01*
X165846126Y-103555117D01*
X165875686Y-103368480D01*
X165875686Y-103179518D01*
X165846126Y-102992881D01*
X165787733Y-102813167D01*
X165701946Y-102644800D01*
X165590876Y-102491926D01*
X165590872Y-102491922D01*
X165590870Y-102491919D01*
X165457265Y-102358314D01*
X165457266Y-102358314D01*
X165304379Y-102247235D01*
X165136019Y-102161452D01*
X164956304Y-102103059D01*
X164956301Y-102103058D01*
X164812930Y-102080351D01*
X164769667Y-102073499D01*
X164580705Y-102073499D01*
X164545583Y-102079061D01*
X164394070Y-102103058D01*
X164394067Y-102103059D01*
X164214352Y-102161452D01*
X164045992Y-102247235D01*
X163893106Y-102358314D01*
X163759501Y-102491919D01*
X163648422Y-102644805D01*
X163562639Y-102813165D01*
X163504246Y-102992880D01*
X163504245Y-102992883D01*
X163474686Y-103179518D01*
X160450500Y-103179518D01*
X160450500Y-100639518D01*
X163474686Y-100639518D01*
X163474686Y-100828479D01*
X163504245Y-101015114D01*
X163504246Y-101015117D01*
X163562639Y-101194832D01*
X163648422Y-101363192D01*
X163648425Y-101363196D01*
X163648426Y-101363198D01*
X163759496Y-101516072D01*
X163759498Y-101516074D01*
X163759501Y-101516078D01*
X163893106Y-101649683D01*
X163893109Y-101649685D01*
X163893113Y-101649689D01*
X164045987Y-101760759D01*
X164045989Y-101760760D01*
X164045992Y-101760762D01*
X164214352Y-101846545D01*
X164214354Y-101846546D01*
X164394068Y-101904939D01*
X164580705Y-101934499D01*
X164580706Y-101934499D01*
X164769666Y-101934499D01*
X164769667Y-101934499D01*
X164956304Y-101904939D01*
X165136018Y-101846546D01*
X165304385Y-101760759D01*
X165457259Y-101649689D01*
X165590876Y-101516072D01*
X165701946Y-101363198D01*
X165787733Y-101194831D01*
X165846126Y-101015117D01*
X165875686Y-100828480D01*
X165875686Y-100639518D01*
X165846126Y-100452881D01*
X165787733Y-100273167D01*
X165772202Y-100242685D01*
X165701949Y-100104805D01*
X165701947Y-100104802D01*
X165701946Y-100104800D01*
X165590876Y-99951926D01*
X165590872Y-99951922D01*
X165590870Y-99951919D01*
X165535812Y-99896861D01*
X168689500Y-99896861D01*
X168689500Y-100103138D01*
X168721768Y-100306873D01*
X168721769Y-100306876D01*
X168785512Y-100503058D01*
X168879156Y-100686846D01*
X168879159Y-100686850D01*
X168879160Y-100686852D01*
X169000407Y-100853733D01*
X169000409Y-100853735D01*
X169000412Y-100853739D01*
X169146260Y-100999587D01*
X169146263Y-100999589D01*
X169146267Y-100999593D01*
X169313148Y-101120840D01*
X169313150Y-101120841D01*
X169313153Y-101120843D01*
X169487456Y-101209654D01*
X169496943Y-101214488D01*
X169693124Y-101278231D01*
X169896861Y-101310500D01*
X169896862Y-101310500D01*
X170103138Y-101310500D01*
X170103139Y-101310500D01*
X170306876Y-101278231D01*
X170503057Y-101214488D01*
X170686852Y-101120840D01*
X170853733Y-100999593D01*
X170999593Y-100853733D01*
X171120840Y-100686852D01*
X171214488Y-100503057D01*
X171278231Y-100306876D01*
X171310500Y-100103139D01*
X171310500Y-99896861D01*
X171278231Y-99693124D01*
X171214488Y-99496943D01*
X171210696Y-99489500D01*
X171120843Y-99313153D01*
X171120841Y-99313150D01*
X171120840Y-99313148D01*
X170999593Y-99146267D01*
X170999589Y-99146263D01*
X170999587Y-99146260D01*
X170853739Y-99000412D01*
X170853735Y-99000409D01*
X170853733Y-99000407D01*
X170686852Y-98879160D01*
X170686850Y-98879159D01*
X170686846Y-98879156D01*
X170503058Y-98785512D01*
X170306876Y-98721769D01*
X170306873Y-98721768D01*
X170150367Y-98696980D01*
X170103139Y-98689500D01*
X169896861Y-98689500D01*
X169858520Y-98695572D01*
X169693126Y-98721768D01*
X169693123Y-98721769D01*
X169496941Y-98785512D01*
X169313153Y-98879156D01*
X169146260Y-99000412D01*
X169000412Y-99146260D01*
X168879156Y-99313153D01*
X168785512Y-99496941D01*
X168721769Y-99693123D01*
X168721768Y-99693126D01*
X168689500Y-99896861D01*
X165535812Y-99896861D01*
X165457265Y-99818314D01*
X165457266Y-99818314D01*
X165327486Y-99724023D01*
X165304385Y-99707239D01*
X165304383Y-99707238D01*
X165304379Y-99707235D01*
X165136019Y-99621452D01*
X164956304Y-99563059D01*
X164956301Y-99563058D01*
X164812930Y-99540351D01*
X164769667Y-99533499D01*
X164580705Y-99533499D01*
X164545583Y-99539061D01*
X164394070Y-99563058D01*
X164394067Y-99563059D01*
X164214352Y-99621452D01*
X164045992Y-99707235D01*
X163893106Y-99818314D01*
X163759501Y-99951919D01*
X163648422Y-100104805D01*
X163562639Y-100273165D01*
X163504246Y-100452880D01*
X163504245Y-100452883D01*
X163474686Y-100639518D01*
X160450500Y-100639518D01*
X160450500Y-98099518D01*
X163474686Y-98099518D01*
X163474686Y-98288479D01*
X163504245Y-98475114D01*
X163504246Y-98475117D01*
X163562639Y-98654832D01*
X163648422Y-98823192D01*
X163648425Y-98823196D01*
X163648426Y-98823198D01*
X163759496Y-98976072D01*
X163759498Y-98976074D01*
X163759501Y-98976078D01*
X163893106Y-99109683D01*
X163893109Y-99109685D01*
X163893113Y-99109689D01*
X164045987Y-99220759D01*
X164045989Y-99220760D01*
X164045992Y-99220762D01*
X164214352Y-99306545D01*
X164214354Y-99306546D01*
X164394068Y-99364939D01*
X164580705Y-99394499D01*
X164580706Y-99394499D01*
X164769666Y-99394499D01*
X164769667Y-99394499D01*
X164956304Y-99364939D01*
X165136018Y-99306546D01*
X165304385Y-99220759D01*
X165457259Y-99109689D01*
X165590876Y-98976072D01*
X165701946Y-98823198D01*
X165787733Y-98654831D01*
X165846126Y-98475117D01*
X165875686Y-98288480D01*
X165875686Y-98099518D01*
X165846126Y-97912881D01*
X165787733Y-97733167D01*
X165769222Y-97696837D01*
X165701949Y-97564805D01*
X165701947Y-97564802D01*
X165701946Y-97564800D01*
X165590876Y-97411926D01*
X165590872Y-97411922D01*
X165590870Y-97411919D01*
X165457265Y-97278314D01*
X165457266Y-97278314D01*
X165304379Y-97167235D01*
X165136019Y-97081452D01*
X164956304Y-97023059D01*
X164956301Y-97023058D01*
X164812930Y-97000351D01*
X164769667Y-96993499D01*
X164580705Y-96993499D01*
X164545583Y-96999061D01*
X164394070Y-97023058D01*
X164394067Y-97023059D01*
X164214352Y-97081452D01*
X164045992Y-97167235D01*
X163893106Y-97278314D01*
X163759501Y-97411919D01*
X163648422Y-97564805D01*
X163562639Y-97733165D01*
X163504246Y-97912880D01*
X163504245Y-97912883D01*
X163474686Y-98099518D01*
X160450500Y-98099518D01*
X160450500Y-97270688D01*
X160421469Y-97162346D01*
X160421468Y-97162342D01*
X160421468Y-97162343D01*
X160419799Y-97156114D01*
X160419799Y-97156113D01*
X160360489Y-97053386D01*
X159143902Y-95836799D01*
X159131220Y-95814834D01*
X159126392Y-95796814D01*
X159060500Y-95682686D01*
X158967314Y-95589500D01*
X158915385Y-95559518D01*
X163474686Y-95559518D01*
X163474686Y-95748479D01*
X163504245Y-95935114D01*
X163504246Y-95935117D01*
X163562639Y-96114832D01*
X163648422Y-96283192D01*
X163648425Y-96283196D01*
X163648426Y-96283198D01*
X163759496Y-96436072D01*
X163759498Y-96436074D01*
X163759501Y-96436078D01*
X163893106Y-96569683D01*
X163893109Y-96569685D01*
X163893113Y-96569689D01*
X164045987Y-96680759D01*
X164045989Y-96680760D01*
X164045992Y-96680762D01*
X164214352Y-96766545D01*
X164214354Y-96766546D01*
X164394068Y-96824939D01*
X164580705Y-96854499D01*
X164580706Y-96854499D01*
X164769666Y-96854499D01*
X164769667Y-96854499D01*
X164956304Y-96824939D01*
X165136018Y-96766546D01*
X165304385Y-96680759D01*
X165457259Y-96569689D01*
X165590876Y-96436072D01*
X165701946Y-96283198D01*
X165787733Y-96114831D01*
X165846126Y-95935117D01*
X165875686Y-95748480D01*
X165875686Y-95559518D01*
X165846126Y-95372881D01*
X165787733Y-95193167D01*
X165787732Y-95193165D01*
X165701949Y-95024805D01*
X165701947Y-95024802D01*
X165701946Y-95024800D01*
X165590876Y-94871926D01*
X165590872Y-94871922D01*
X165590870Y-94871919D01*
X165457265Y-94738314D01*
X165457266Y-94738314D01*
X165327486Y-94644023D01*
X165304385Y-94627239D01*
X165304383Y-94627238D01*
X165304379Y-94627235D01*
X165136019Y-94541452D01*
X164956304Y-94483059D01*
X164956301Y-94483058D01*
X164812930Y-94460351D01*
X164769667Y-94453499D01*
X164580705Y-94453499D01*
X164545583Y-94459061D01*
X164394070Y-94483058D01*
X164394067Y-94483059D01*
X164214352Y-94541452D01*
X164045992Y-94627235D01*
X163893106Y-94738314D01*
X163759501Y-94871919D01*
X163648422Y-95024805D01*
X163562639Y-95193165D01*
X163504246Y-95372880D01*
X163504245Y-95372883D01*
X163474686Y-95559518D01*
X158915385Y-95559518D01*
X158853188Y-95523608D01*
X158853184Y-95523607D01*
X158725895Y-95489500D01*
X158725892Y-95489500D01*
X158594108Y-95489500D01*
X158594105Y-95489500D01*
X158466815Y-95523607D01*
X158466811Y-95523608D01*
X158352685Y-95589500D01*
X158352685Y-95589501D01*
X158259501Y-95682685D01*
X158259500Y-95682685D01*
X158193608Y-95796811D01*
X158193607Y-95796815D01*
X158159500Y-95924104D01*
X140447870Y-95924104D01*
X140475686Y-95748480D01*
X140475686Y-95559518D01*
X140446126Y-95372881D01*
X140387733Y-95193167D01*
X140387732Y-95193165D01*
X140301949Y-95024805D01*
X140301947Y-95024802D01*
X140301946Y-95024800D01*
X140190876Y-94871926D01*
X140190872Y-94871922D01*
X140190870Y-94871919D01*
X140057265Y-94738314D01*
X140057266Y-94738314D01*
X139927486Y-94644023D01*
X139904385Y-94627239D01*
X139904383Y-94627238D01*
X139904379Y-94627235D01*
X139736019Y-94541452D01*
X139556304Y-94483059D01*
X139556301Y-94483058D01*
X139412930Y-94460351D01*
X139369667Y-94453499D01*
X139180705Y-94453499D01*
X139145583Y-94459061D01*
X138994070Y-94483058D01*
X138994067Y-94483059D01*
X138814352Y-94541452D01*
X138645992Y-94627235D01*
X138493106Y-94738314D01*
X138359501Y-94871919D01*
X138248422Y-95024805D01*
X138162639Y-95193165D01*
X138104246Y-95372880D01*
X138104245Y-95372883D01*
X138074686Y-95559518D01*
X135050500Y-95559518D01*
X135050500Y-95356535D01*
X135010130Y-95153580D01*
X134930941Y-94962402D01*
X134815977Y-94790345D01*
X134669655Y-94644023D01*
X134497598Y-94529059D01*
X134386545Y-94483059D01*
X134306423Y-94449871D01*
X134306417Y-94449869D01*
X134224572Y-94433589D01*
X134103465Y-94409500D01*
X133896535Y-94409500D01*
X133795520Y-94429592D01*
X133693582Y-94449869D01*
X133693576Y-94449871D01*
X133502403Y-94529058D01*
X133330345Y-94644022D01*
X133184022Y-94790345D01*
X133069058Y-94962403D01*
X132989871Y-95153576D01*
X132989869Y-95153582D01*
X132969592Y-95255520D01*
X132949500Y-95356535D01*
X130500500Y-95356535D01*
X130500500Y-92050252D01*
X132949500Y-92050252D01*
X132949500Y-93789748D01*
X132961133Y-93848231D01*
X132978882Y-93874795D01*
X133005447Y-93914552D01*
X133032012Y-93932301D01*
X133071769Y-93958867D01*
X133130252Y-93970500D01*
X133130255Y-93970500D01*
X134869745Y-93970500D01*
X134869748Y-93970500D01*
X134928231Y-93958867D01*
X134994552Y-93914552D01*
X135038867Y-93848231D01*
X135050500Y-93789748D01*
X135050500Y-92050252D01*
X135038867Y-91991769D01*
X135012301Y-91952012D01*
X134994552Y-91925447D01*
X134954795Y-91898882D01*
X134928231Y-91881133D01*
X134869748Y-91869500D01*
X133130252Y-91869500D01*
X133071769Y-91881133D01*
X133005447Y-91925447D01*
X132966456Y-91983802D01*
X132961133Y-91991769D01*
X132949500Y-92050252D01*
X130500500Y-92050252D01*
X130500500Y-85134104D01*
X132299500Y-85134104D01*
X132299500Y-85265895D01*
X132333607Y-85393184D01*
X132333608Y-85393187D01*
X132342935Y-85409341D01*
X132349500Y-85433841D01*
X132349500Y-86698123D01*
X132373713Y-86788485D01*
X132373713Y-86788486D01*
X132380200Y-86812699D01*
X132380201Y-86812701D01*
X132439511Y-86915427D01*
X138144989Y-92620905D01*
X138159341Y-92655553D01*
X138156943Y-92670695D01*
X138104246Y-92832880D01*
X138104245Y-92832883D01*
X138074686Y-93019518D01*
X138074686Y-93208479D01*
X138104245Y-93395114D01*
X138104246Y-93395117D01*
X138162639Y-93574832D01*
X138248422Y-93743192D01*
X138248425Y-93743196D01*
X138248426Y-93743198D01*
X138359496Y-93896072D01*
X138359498Y-93896074D01*
X138359501Y-93896078D01*
X138493106Y-94029683D01*
X138493109Y-94029685D01*
X138493113Y-94029689D01*
X138645987Y-94140759D01*
X138645989Y-94140760D01*
X138645992Y-94140762D01*
X138814352Y-94226545D01*
X138814354Y-94226546D01*
X138994068Y-94284939D01*
X139180705Y-94314499D01*
X139180706Y-94314499D01*
X139369666Y-94314499D01*
X139369667Y-94314499D01*
X139556304Y-94284939D01*
X139736018Y-94226546D01*
X139904385Y-94140759D01*
X140057259Y-94029689D01*
X140190876Y-93896072D01*
X140301946Y-93743198D01*
X140387733Y-93574831D01*
X140446126Y-93395117D01*
X140475686Y-93208480D01*
X140475686Y-93019518D01*
X163474686Y-93019518D01*
X163474686Y-93208479D01*
X163504245Y-93395114D01*
X163504246Y-93395117D01*
X163562639Y-93574832D01*
X163648422Y-93743192D01*
X163648425Y-93743196D01*
X163648426Y-93743198D01*
X163759496Y-93896072D01*
X163759498Y-93896074D01*
X163759501Y-93896078D01*
X163893106Y-94029683D01*
X163893109Y-94029685D01*
X163893113Y-94029689D01*
X164045987Y-94140759D01*
X164045989Y-94140760D01*
X164045992Y-94140762D01*
X164214352Y-94226545D01*
X164214354Y-94226546D01*
X164394068Y-94284939D01*
X164580705Y-94314499D01*
X164580706Y-94314499D01*
X164769666Y-94314499D01*
X164769667Y-94314499D01*
X164956304Y-94284939D01*
X165136018Y-94226546D01*
X165304385Y-94140759D01*
X165457259Y-94029689D01*
X165590876Y-93896072D01*
X165701946Y-93743198D01*
X165787733Y-93574831D01*
X165846126Y-93395117D01*
X165875686Y-93208480D01*
X165875686Y-93019518D01*
X165862158Y-92934104D01*
X167499500Y-92934104D01*
X167499500Y-93065895D01*
X167533607Y-93193184D01*
X167533608Y-93193188D01*
X167599500Y-93307314D01*
X167692686Y-93400500D01*
X167734457Y-93424617D01*
X167806811Y-93466391D01*
X167806813Y-93466391D01*
X167806814Y-93466392D01*
X167907207Y-93493292D01*
X167934104Y-93500499D01*
X167934105Y-93500500D01*
X167934108Y-93500500D01*
X168065895Y-93500500D01*
X168065895Y-93500499D01*
X168193186Y-93466392D01*
X168307314Y-93400500D01*
X168400500Y-93307314D01*
X168466392Y-93193186D01*
X168500499Y-93065895D01*
X168500500Y-93065895D01*
X168500500Y-92934105D01*
X168500499Y-92934104D01*
X168473377Y-92832883D01*
X168466392Y-92806814D01*
X168466391Y-92806813D01*
X168466391Y-92806811D01*
X168400499Y-92692685D01*
X168307314Y-92599500D01*
X168193188Y-92533608D01*
X168193184Y-92533607D01*
X168065895Y-92499500D01*
X168065892Y-92499500D01*
X167934108Y-92499500D01*
X167934105Y-92499500D01*
X167806815Y-92533607D01*
X167806811Y-92533608D01*
X167692685Y-92599500D01*
X167692685Y-92599501D01*
X167599501Y-92692685D01*
X167599500Y-92692685D01*
X167533608Y-92806811D01*
X167533607Y-92806815D01*
X167499500Y-92934104D01*
X165862158Y-92934104D01*
X165846126Y-92832881D01*
X165787733Y-92653167D01*
X165760389Y-92599501D01*
X165701949Y-92484805D01*
X165701947Y-92484802D01*
X165701946Y-92484800D01*
X165590876Y-92331926D01*
X165590872Y-92331922D01*
X165590870Y-92331919D01*
X165457265Y-92198314D01*
X165457266Y-92198314D01*
X165304379Y-92087235D01*
X165136019Y-92001452D01*
X164956304Y-91943059D01*
X164956301Y-91943058D01*
X164812930Y-91920351D01*
X164769667Y-91913499D01*
X164580705Y-91913499D01*
X164545583Y-91919061D01*
X164394070Y-91943058D01*
X164394067Y-91943059D01*
X164214352Y-92001452D01*
X164045992Y-92087235D01*
X163893106Y-92198314D01*
X163759501Y-92331919D01*
X163648422Y-92484805D01*
X163562639Y-92653165D01*
X163504246Y-92832880D01*
X163504245Y-92832883D01*
X163474686Y-93019518D01*
X140475686Y-93019518D01*
X140446126Y-92832881D01*
X140387733Y-92653167D01*
X140360389Y-92599501D01*
X140301949Y-92484805D01*
X140301947Y-92484802D01*
X140301946Y-92484800D01*
X140190876Y-92331926D01*
X140190872Y-92331922D01*
X140190870Y-92331919D01*
X140057265Y-92198314D01*
X140057266Y-92198314D01*
X139904379Y-92087235D01*
X139736019Y-92001452D01*
X139556304Y-91943059D01*
X139556301Y-91943058D01*
X139412930Y-91920351D01*
X139369667Y-91913499D01*
X139180705Y-91913499D01*
X139145583Y-91919061D01*
X138994070Y-91943058D01*
X138994067Y-91943059D01*
X138831882Y-91995756D01*
X138794494Y-91992813D01*
X138782092Y-91983802D01*
X133264852Y-86466562D01*
X133250500Y-86431914D01*
X133250500Y-85433841D01*
X133257065Y-85409341D01*
X133266391Y-85393187D01*
X133266392Y-85393186D01*
X133300499Y-85265895D01*
X133300500Y-85265895D01*
X133300500Y-85134105D01*
X133300499Y-85134104D01*
X135299500Y-85134104D01*
X135299500Y-85265895D01*
X135333607Y-85393184D01*
X135333608Y-85393187D01*
X135342935Y-85409341D01*
X135349500Y-85433841D01*
X135349500Y-87158123D01*
X135373713Y-87248485D01*
X135373713Y-87248486D01*
X135380200Y-87272699D01*
X135380201Y-87272701D01*
X135439511Y-87375427D01*
X138144989Y-90080905D01*
X138159341Y-90115553D01*
X138156943Y-90130695D01*
X138104246Y-90292880D01*
X138104245Y-90292883D01*
X138074686Y-90479518D01*
X138074686Y-90668479D01*
X138104245Y-90855114D01*
X138104246Y-90855117D01*
X138162639Y-91034832D01*
X138248422Y-91203192D01*
X138248425Y-91203196D01*
X138248426Y-91203198D01*
X138359496Y-91356072D01*
X138359498Y-91356074D01*
X138359501Y-91356078D01*
X138493106Y-91489683D01*
X138493109Y-91489685D01*
X138493113Y-91489689D01*
X138645987Y-91600759D01*
X138645989Y-91600760D01*
X138645992Y-91600762D01*
X138814352Y-91686545D01*
X138814354Y-91686546D01*
X138994068Y-91744939D01*
X139180705Y-91774499D01*
X139180706Y-91774499D01*
X139369666Y-91774499D01*
X139369667Y-91774499D01*
X139556304Y-91744939D01*
X139736018Y-91686546D01*
X139904385Y-91600759D01*
X140057259Y-91489689D01*
X140190876Y-91356072D01*
X140301946Y-91203198D01*
X140387733Y-91034831D01*
X140446126Y-90855117D01*
X140475686Y-90668480D01*
X140475686Y-90479518D01*
X140449098Y-90311642D01*
X140448265Y-90306384D01*
X146349500Y-90306384D01*
X146349500Y-90493616D01*
X146373740Y-90615479D01*
X146386026Y-90677248D01*
X146386029Y-90677258D01*
X146457675Y-90850225D01*
X146457676Y-90850227D01*
X146457678Y-90850231D01*
X146561698Y-91005908D01*
X146694092Y-91138302D01*
X146849769Y-91242322D01*
X146849774Y-91242324D01*
X147022741Y-91313970D01*
X147022743Y-91313970D01*
X147022749Y-91313973D01*
X147206384Y-91350500D01*
X147206387Y-91350500D01*
X147393613Y-91350500D01*
X147393616Y-91350500D01*
X147577251Y-91313973D01*
X147750231Y-91242322D01*
X147905908Y-91138302D01*
X148038302Y-91005908D01*
X148142322Y-90850231D01*
X148213973Y-90677251D01*
X148250500Y-90493616D01*
X148250500Y-90479518D01*
X163474686Y-90479518D01*
X163474686Y-90668479D01*
X163504245Y-90855114D01*
X163504246Y-90855117D01*
X163562639Y-91034832D01*
X163648422Y-91203192D01*
X163648425Y-91203196D01*
X163648426Y-91203198D01*
X163759496Y-91356072D01*
X163759498Y-91356074D01*
X163759501Y-91356078D01*
X163893106Y-91489683D01*
X163893109Y-91489685D01*
X163893113Y-91489689D01*
X164045987Y-91600759D01*
X164045989Y-91600760D01*
X164045992Y-91600762D01*
X164214352Y-91686545D01*
X164214354Y-91686546D01*
X164394068Y-91744939D01*
X164580705Y-91774499D01*
X164580706Y-91774499D01*
X164769666Y-91774499D01*
X164769667Y-91774499D01*
X164956304Y-91744939D01*
X165136018Y-91686546D01*
X165304385Y-91600759D01*
X165457259Y-91489689D01*
X165590876Y-91356072D01*
X165701946Y-91203198D01*
X165787733Y-91034831D01*
X165846126Y-90855117D01*
X165875686Y-90668480D01*
X165875686Y-90479518D01*
X165846126Y-90292881D01*
X165787733Y-90113167D01*
X165782623Y-90103139D01*
X165701947Y-89944802D01*
X165686647Y-89923743D01*
X165686643Y-89923738D01*
X165667116Y-89896861D01*
X168689500Y-89896861D01*
X168689500Y-90103139D01*
X168696980Y-90150367D01*
X168721768Y-90306873D01*
X168721769Y-90306876D01*
X168785512Y-90503058D01*
X168879156Y-90686846D01*
X168879159Y-90686850D01*
X168879160Y-90686852D01*
X169000407Y-90853733D01*
X169000409Y-90853735D01*
X169000412Y-90853739D01*
X169146260Y-90999587D01*
X169146263Y-90999589D01*
X169146267Y-90999593D01*
X169313148Y-91120840D01*
X169313150Y-91120841D01*
X169313153Y-91120843D01*
X169474773Y-91203192D01*
X169496943Y-91214488D01*
X169693124Y-91278231D01*
X169896861Y-91310500D01*
X169896862Y-91310500D01*
X170103138Y-91310500D01*
X170103139Y-91310500D01*
X170306876Y-91278231D01*
X170503057Y-91214488D01*
X170686852Y-91120840D01*
X170853733Y-90999593D01*
X170999593Y-90853733D01*
X171120840Y-90686852D01*
X171214488Y-90503057D01*
X171278231Y-90306876D01*
X171310500Y-90103139D01*
X171310500Y-89896861D01*
X171278231Y-89693124D01*
X171214488Y-89496943D01*
X171208926Y-89486026D01*
X171120843Y-89313153D01*
X171120841Y-89313150D01*
X171120840Y-89313148D01*
X170999593Y-89146267D01*
X170999589Y-89146263D01*
X170999587Y-89146260D01*
X170853739Y-89000412D01*
X170853735Y-89000409D01*
X170853733Y-89000407D01*
X170686852Y-88879160D01*
X170686850Y-88879159D01*
X170686846Y-88879156D01*
X170503058Y-88785512D01*
X170306876Y-88721769D01*
X170306873Y-88721768D01*
X170150367Y-88696980D01*
X170103139Y-88689500D01*
X169896861Y-88689500D01*
X169858520Y-88695572D01*
X169693126Y-88721768D01*
X169693123Y-88721769D01*
X169496941Y-88785512D01*
X169313153Y-88879156D01*
X169146260Y-89000412D01*
X169000412Y-89146260D01*
X168879156Y-89313153D01*
X168785512Y-89496941D01*
X168721769Y-89693123D01*
X168721768Y-89693126D01*
X168706121Y-89791919D01*
X168689500Y-89896861D01*
X165667116Y-89896861D01*
X165590876Y-89791926D01*
X165590872Y-89791922D01*
X165590870Y-89791919D01*
X165457265Y-89658314D01*
X165457266Y-89658314D01*
X165318753Y-89557678D01*
X165304385Y-89547239D01*
X165304383Y-89547238D01*
X165304379Y-89547235D01*
X165136019Y-89461452D01*
X164956304Y-89403059D01*
X164956301Y-89403058D01*
X164812930Y-89380351D01*
X164769667Y-89373499D01*
X164580705Y-89373499D01*
X164545583Y-89379061D01*
X164394070Y-89403058D01*
X164394067Y-89403059D01*
X164214352Y-89461452D01*
X164045992Y-89547235D01*
X163893106Y-89658314D01*
X163759501Y-89791919D01*
X163648422Y-89944805D01*
X163562639Y-90113165D01*
X163504246Y-90292880D01*
X163504245Y-90292883D01*
X163474686Y-90479518D01*
X148250500Y-90479518D01*
X148250500Y-90306384D01*
X148213973Y-90122749D01*
X148210992Y-90115553D01*
X148142324Y-89949774D01*
X148142322Y-89949769D01*
X148038302Y-89794092D01*
X147905908Y-89661698D01*
X147900843Y-89658314D01*
X147867381Y-89635955D01*
X147750231Y-89557678D01*
X147750227Y-89557676D01*
X147750225Y-89557675D01*
X147577258Y-89486029D01*
X147577248Y-89486026D01*
X147478498Y-89466384D01*
X147393616Y-89449500D01*
X147206384Y-89449500D01*
X147121502Y-89466384D01*
X147022751Y-89486026D01*
X147022741Y-89486029D01*
X146849774Y-89557675D01*
X146849770Y-89557677D01*
X146849769Y-89557678D01*
X146810195Y-89584120D01*
X146694092Y-89661697D01*
X146561697Y-89794092D01*
X146457675Y-89949774D01*
X146386029Y-90122741D01*
X146386026Y-90122751D01*
X146384446Y-90130695D01*
X146349500Y-90306384D01*
X140448265Y-90306384D01*
X140446126Y-90292882D01*
X140446126Y-90292881D01*
X140387733Y-90113167D01*
X140382801Y-90103487D01*
X140301949Y-89944805D01*
X140301947Y-89944802D01*
X140301946Y-89944800D01*
X140190876Y-89791926D01*
X140190872Y-89791922D01*
X140190870Y-89791919D01*
X140057265Y-89658314D01*
X140057266Y-89658314D01*
X139918753Y-89557678D01*
X139904385Y-89547239D01*
X139904383Y-89547238D01*
X139904379Y-89547235D01*
X139736019Y-89461452D01*
X139556304Y-89403059D01*
X139556301Y-89403058D01*
X139412930Y-89380351D01*
X139369667Y-89373499D01*
X139180705Y-89373499D01*
X139145583Y-89379061D01*
X138994070Y-89403058D01*
X138994067Y-89403059D01*
X138831882Y-89455756D01*
X138794494Y-89452813D01*
X138782092Y-89443802D01*
X137277808Y-87939518D01*
X138074686Y-87939518D01*
X138074686Y-88128479D01*
X138104245Y-88315114D01*
X138104246Y-88315117D01*
X138162639Y-88494832D01*
X138248422Y-88663192D01*
X138248425Y-88663196D01*
X138248426Y-88663198D01*
X138359496Y-88816072D01*
X138359498Y-88816074D01*
X138359501Y-88816078D01*
X138493106Y-88949683D01*
X138493109Y-88949685D01*
X138493113Y-88949689D01*
X138645987Y-89060759D01*
X138645989Y-89060760D01*
X138645992Y-89060762D01*
X138813793Y-89146260D01*
X138814354Y-89146546D01*
X138994068Y-89204939D01*
X139180705Y-89234499D01*
X139180706Y-89234499D01*
X139369666Y-89234499D01*
X139369667Y-89234499D01*
X139556304Y-89204939D01*
X139736018Y-89146546D01*
X139904385Y-89060759D01*
X140057259Y-88949689D01*
X140190876Y-88816072D01*
X140301946Y-88663198D01*
X140387733Y-88494831D01*
X140446126Y-88315117D01*
X140475686Y-88128480D01*
X140475686Y-87939518D01*
X163474686Y-87939518D01*
X163474686Y-88128479D01*
X163504245Y-88315114D01*
X163504246Y-88315117D01*
X163562639Y-88494832D01*
X163648422Y-88663192D01*
X163648425Y-88663196D01*
X163648426Y-88663198D01*
X163759496Y-88816072D01*
X163759498Y-88816074D01*
X163759501Y-88816078D01*
X163893106Y-88949683D01*
X163893109Y-88949685D01*
X163893113Y-88949689D01*
X164045987Y-89060759D01*
X164045989Y-89060760D01*
X164045992Y-89060762D01*
X164213793Y-89146260D01*
X164214354Y-89146546D01*
X164394068Y-89204939D01*
X164580705Y-89234499D01*
X164580706Y-89234499D01*
X164769666Y-89234499D01*
X164769667Y-89234499D01*
X164956304Y-89204939D01*
X165136018Y-89146546D01*
X165304385Y-89060759D01*
X165457259Y-88949689D01*
X165590876Y-88816072D01*
X165701946Y-88663198D01*
X165787733Y-88494831D01*
X165846126Y-88315117D01*
X165875686Y-88128480D01*
X165875686Y-87939518D01*
X165846126Y-87752881D01*
X165787733Y-87573167D01*
X165701946Y-87404800D01*
X165590876Y-87251926D01*
X165590872Y-87251922D01*
X165590870Y-87251919D01*
X165457265Y-87118314D01*
X165457266Y-87118314D01*
X165304379Y-87007235D01*
X165136019Y-86921452D01*
X164956304Y-86863059D01*
X164956301Y-86863058D01*
X164812930Y-86840351D01*
X164769667Y-86833499D01*
X164580705Y-86833499D01*
X164545583Y-86839061D01*
X164394070Y-86863058D01*
X164394067Y-86863059D01*
X164214352Y-86921452D01*
X164045992Y-87007235D01*
X163893106Y-87118314D01*
X163759501Y-87251919D01*
X163648422Y-87404805D01*
X163562639Y-87573165D01*
X163504246Y-87752880D01*
X163504245Y-87752883D01*
X163474686Y-87939518D01*
X140475686Y-87939518D01*
X140446126Y-87752881D01*
X140387733Y-87573167D01*
X140301946Y-87404800D01*
X140190876Y-87251926D01*
X140190872Y-87251922D01*
X140190870Y-87251919D01*
X140057265Y-87118314D01*
X140057266Y-87118314D01*
X139904379Y-87007235D01*
X139736019Y-86921452D01*
X139556304Y-86863059D01*
X139556301Y-86863058D01*
X139412930Y-86840351D01*
X139369667Y-86833499D01*
X139180705Y-86833499D01*
X139145583Y-86839061D01*
X138994070Y-86863058D01*
X138994067Y-86863059D01*
X138814352Y-86921452D01*
X138645992Y-87007235D01*
X138493106Y-87118314D01*
X138359501Y-87251919D01*
X138248422Y-87404805D01*
X138162639Y-87573165D01*
X138104246Y-87752880D01*
X138104245Y-87752883D01*
X138074686Y-87939518D01*
X137277808Y-87939518D01*
X136264852Y-86926562D01*
X136250500Y-86891914D01*
X136250500Y-85433841D01*
X136254875Y-85413603D01*
X136255867Y-85411414D01*
X136262736Y-85399518D01*
X138074686Y-85399518D01*
X138074686Y-85588479D01*
X138104245Y-85775114D01*
X138104246Y-85775117D01*
X138162639Y-85954832D01*
X138248422Y-86123192D01*
X138248425Y-86123196D01*
X138248426Y-86123198D01*
X138359496Y-86276072D01*
X138359498Y-86276074D01*
X138359501Y-86276078D01*
X138493106Y-86409683D01*
X138493109Y-86409685D01*
X138493113Y-86409689D01*
X138645987Y-86520759D01*
X138645989Y-86520760D01*
X138645992Y-86520762D01*
X138814352Y-86606545D01*
X138814354Y-86606546D01*
X138994068Y-86664939D01*
X139180705Y-86694499D01*
X139180706Y-86694499D01*
X139369666Y-86694499D01*
X139369667Y-86694499D01*
X139556304Y-86664939D01*
X139736018Y-86606546D01*
X139904385Y-86520759D01*
X140057259Y-86409689D01*
X140190876Y-86276072D01*
X140301946Y-86123198D01*
X140387733Y-85954831D01*
X140446126Y-85775117D01*
X140475686Y-85588480D01*
X140475686Y-85399518D01*
X163474686Y-85399518D01*
X163474686Y-85588479D01*
X163504245Y-85775114D01*
X163504246Y-85775117D01*
X163562639Y-85954832D01*
X163648422Y-86123192D01*
X163648425Y-86123196D01*
X163648426Y-86123198D01*
X163759496Y-86276072D01*
X163759498Y-86276074D01*
X163759501Y-86276078D01*
X163893106Y-86409683D01*
X163893109Y-86409685D01*
X163893113Y-86409689D01*
X164045987Y-86520759D01*
X164045989Y-86520760D01*
X164045992Y-86520762D01*
X164214352Y-86606545D01*
X164214354Y-86606546D01*
X164394068Y-86664939D01*
X164580705Y-86694499D01*
X164580706Y-86694499D01*
X164769666Y-86694499D01*
X164769667Y-86694499D01*
X164956304Y-86664939D01*
X165136018Y-86606546D01*
X165304385Y-86520759D01*
X165457259Y-86409689D01*
X165590876Y-86276072D01*
X165701946Y-86123198D01*
X165787733Y-85954831D01*
X165846126Y-85775117D01*
X165875686Y-85588480D01*
X165875686Y-85399518D01*
X165846126Y-85212881D01*
X165787733Y-85033167D01*
X165701946Y-84864800D01*
X165590876Y-84711926D01*
X165590872Y-84711922D01*
X165590870Y-84711919D01*
X165457265Y-84578314D01*
X165457266Y-84578314D01*
X165304379Y-84467235D01*
X165136019Y-84381452D01*
X164956304Y-84323059D01*
X164956301Y-84323058D01*
X164812930Y-84300351D01*
X164769667Y-84293499D01*
X164580705Y-84293499D01*
X164545583Y-84299061D01*
X164394070Y-84323058D01*
X164394067Y-84323059D01*
X164214352Y-84381452D01*
X164045992Y-84467235D01*
X163893106Y-84578314D01*
X163759501Y-84711919D01*
X163648422Y-84864805D01*
X163562639Y-85033165D01*
X163504246Y-85212880D01*
X163504245Y-85212883D01*
X163474686Y-85399518D01*
X140475686Y-85399518D01*
X140446126Y-85212881D01*
X140387733Y-85033167D01*
X140301946Y-84864800D01*
X140190876Y-84711926D01*
X140190872Y-84711922D01*
X140190870Y-84711919D01*
X140057265Y-84578314D01*
X140057266Y-84578314D01*
X139904379Y-84467235D01*
X139736019Y-84381452D01*
X139556304Y-84323059D01*
X139556301Y-84323058D01*
X139412930Y-84300351D01*
X139369667Y-84293499D01*
X139180705Y-84293499D01*
X139145583Y-84299061D01*
X138994070Y-84323058D01*
X138994067Y-84323059D01*
X138814352Y-84381452D01*
X138645992Y-84467235D01*
X138493106Y-84578314D01*
X138359501Y-84711919D01*
X138248422Y-84864805D01*
X138162639Y-85033165D01*
X138104246Y-85212880D01*
X138104245Y-85212883D01*
X138074686Y-85399518D01*
X136262736Y-85399518D01*
X136266392Y-85393186D01*
X136285563Y-85321636D01*
X136300500Y-85265894D01*
X136300500Y-85134105D01*
X136300499Y-85134104D01*
X136273453Y-85033167D01*
X136266392Y-85006814D01*
X136266391Y-85006813D01*
X136266391Y-85006811D01*
X136200499Y-84892685D01*
X136107314Y-84799500D01*
X135993188Y-84733608D01*
X135993184Y-84733607D01*
X135865895Y-84699500D01*
X135865892Y-84699500D01*
X135734108Y-84699500D01*
X135734105Y-84699500D01*
X135606815Y-84733607D01*
X135606811Y-84733608D01*
X135492685Y-84799500D01*
X135399501Y-84892685D01*
X135399500Y-84892685D01*
X135333608Y-85006811D01*
X135333607Y-85006815D01*
X135299500Y-85134104D01*
X133300499Y-85134104D01*
X133273453Y-85033167D01*
X133266392Y-85006814D01*
X133266391Y-85006813D01*
X133266391Y-85006811D01*
X133200499Y-84892685D01*
X133107314Y-84799500D01*
X132993188Y-84733608D01*
X132993184Y-84733607D01*
X132865895Y-84699500D01*
X132865892Y-84699500D01*
X132734108Y-84699500D01*
X132734105Y-84699500D01*
X132606815Y-84733607D01*
X132606811Y-84733608D01*
X132492685Y-84799500D01*
X132399501Y-84892685D01*
X132399500Y-84892685D01*
X132333608Y-85006811D01*
X132333607Y-85006815D01*
X132299500Y-85134104D01*
X130500500Y-85134104D01*
X130500500Y-84184104D01*
X167199500Y-84184104D01*
X167199500Y-84315895D01*
X167233607Y-84443184D01*
X167233608Y-84443188D01*
X167299500Y-84557314D01*
X167392686Y-84650500D01*
X167434457Y-84674617D01*
X167506811Y-84716391D01*
X167506813Y-84716391D01*
X167506814Y-84716392D01*
X167571062Y-84733607D01*
X167634104Y-84750499D01*
X167634105Y-84750500D01*
X167634108Y-84750500D01*
X167765895Y-84750500D01*
X167765895Y-84750499D01*
X167893186Y-84716392D01*
X167900934Y-84711919D01*
X167908478Y-84707563D01*
X168007314Y-84650500D01*
X168100500Y-84557314D01*
X168166392Y-84443186D01*
X168200499Y-84315895D01*
X168200500Y-84315895D01*
X168200500Y-84184105D01*
X168200499Y-84184104D01*
X168192566Y-84154499D01*
X168166392Y-84056814D01*
X168166391Y-84056813D01*
X168166391Y-84056811D01*
X168122483Y-83980762D01*
X168100500Y-83942686D01*
X168007314Y-83849500D01*
X167893188Y-83783608D01*
X167893184Y-83783607D01*
X167765895Y-83749500D01*
X167765892Y-83749500D01*
X167634108Y-83749500D01*
X167634105Y-83749500D01*
X167506815Y-83783607D01*
X167506811Y-83783608D01*
X167392685Y-83849500D01*
X167392685Y-83849501D01*
X167299501Y-83942685D01*
X167299500Y-83942685D01*
X167233608Y-84056811D01*
X167233607Y-84056815D01*
X167199500Y-84184104D01*
X130500500Y-84184104D01*
X130500500Y-82859518D01*
X138074686Y-82859518D01*
X138074686Y-83048479D01*
X138104245Y-83235114D01*
X138104246Y-83235117D01*
X138162639Y-83414832D01*
X138248422Y-83583192D01*
X138248425Y-83583196D01*
X138248426Y-83583198D01*
X138359496Y-83736072D01*
X138359498Y-83736074D01*
X138359501Y-83736078D01*
X138493106Y-83869683D01*
X138493109Y-83869685D01*
X138493113Y-83869689D01*
X138645987Y-83980759D01*
X138645989Y-83980760D01*
X138645992Y-83980762D01*
X138795248Y-84056811D01*
X138814354Y-84066546D01*
X138994068Y-84124939D01*
X139180705Y-84154499D01*
X139180706Y-84154499D01*
X139369666Y-84154499D01*
X139369667Y-84154499D01*
X139556304Y-84124939D01*
X139736018Y-84066546D01*
X139904385Y-83980759D01*
X140057259Y-83869689D01*
X140190876Y-83736072D01*
X140301946Y-83583198D01*
X140387733Y-83414831D01*
X140446126Y-83235117D01*
X140475686Y-83048480D01*
X140475686Y-82859518D01*
X163474686Y-82859518D01*
X163474686Y-83048479D01*
X163504245Y-83235114D01*
X163504246Y-83235117D01*
X163562639Y-83414832D01*
X163648422Y-83583192D01*
X163648425Y-83583196D01*
X163648426Y-83583198D01*
X163759496Y-83736072D01*
X163759498Y-83736074D01*
X163759501Y-83736078D01*
X163893106Y-83869683D01*
X163893109Y-83869685D01*
X163893113Y-83869689D01*
X164045987Y-83980759D01*
X164045989Y-83980760D01*
X164045992Y-83980762D01*
X164195248Y-84056811D01*
X164214354Y-84066546D01*
X164394068Y-84124939D01*
X164580705Y-84154499D01*
X164580706Y-84154499D01*
X164769666Y-84154499D01*
X164769667Y-84154499D01*
X164856364Y-84140767D01*
X164908572Y-84132499D01*
X164916550Y-84131235D01*
X164956304Y-84124939D01*
X165136018Y-84066546D01*
X165304385Y-83980759D01*
X165457259Y-83869689D01*
X165590876Y-83736072D01*
X165701946Y-83583198D01*
X165787733Y-83414831D01*
X165846126Y-83235117D01*
X165875686Y-83048480D01*
X165875686Y-82859518D01*
X165846126Y-82672881D01*
X165787733Y-82493167D01*
X165750291Y-82419683D01*
X165701949Y-82324805D01*
X165701947Y-82324802D01*
X165701946Y-82324800D01*
X165590876Y-82171926D01*
X165590872Y-82171922D01*
X165590870Y-82171919D01*
X165457265Y-82038314D01*
X165457266Y-82038314D01*
X165304379Y-81927235D01*
X165136019Y-81841452D01*
X164956304Y-81783059D01*
X164956301Y-81783058D01*
X164812930Y-81760351D01*
X164769667Y-81753499D01*
X164580705Y-81753499D01*
X164545583Y-81759061D01*
X164394070Y-81783058D01*
X164394067Y-81783059D01*
X164214352Y-81841452D01*
X164045992Y-81927235D01*
X163893106Y-82038314D01*
X163759501Y-82171919D01*
X163648422Y-82324805D01*
X163562639Y-82493165D01*
X163504246Y-82672880D01*
X163504245Y-82672883D01*
X163474686Y-82859518D01*
X140475686Y-82859518D01*
X140446126Y-82672881D01*
X140387733Y-82493167D01*
X140350291Y-82419683D01*
X140301949Y-82324805D01*
X140301947Y-82324802D01*
X140301946Y-82324800D01*
X140190876Y-82171926D01*
X140190872Y-82171922D01*
X140190870Y-82171919D01*
X140057265Y-82038314D01*
X140057266Y-82038314D01*
X139904379Y-81927235D01*
X139736019Y-81841452D01*
X139556304Y-81783059D01*
X139556301Y-81783058D01*
X139412930Y-81760351D01*
X139369667Y-81753499D01*
X139180705Y-81753499D01*
X139145583Y-81759061D01*
X138994070Y-81783058D01*
X138994067Y-81783059D01*
X138814352Y-81841452D01*
X138645992Y-81927235D01*
X138493106Y-82038314D01*
X138359501Y-82171919D01*
X138248422Y-82324805D01*
X138162639Y-82493165D01*
X138104246Y-82672880D01*
X138104245Y-82672883D01*
X138074686Y-82859518D01*
X130500500Y-82859518D01*
X130500500Y-79862382D01*
X131549500Y-79862382D01*
X131549500Y-80137617D01*
X131580316Y-80411111D01*
X131580316Y-80411116D01*
X131641561Y-80679451D01*
X131732467Y-80939247D01*
X131732470Y-80939253D01*
X131851879Y-81187208D01*
X131851880Y-81187210D01*
X131851883Y-81187214D01*
X131851886Y-81187221D01*
X131998319Y-81420268D01*
X132040560Y-81473237D01*
X132169918Y-81635447D01*
X132169929Y-81635459D01*
X132364540Y-81830070D01*
X132364552Y-81830081D01*
X132378811Y-81841452D01*
X132579732Y-82001681D01*
X132812779Y-82148114D01*
X132812787Y-82148118D01*
X132812789Y-82148119D01*
X132812791Y-82148120D01*
X133060746Y-82267529D01*
X133060752Y-82267532D01*
X133060755Y-82267533D01*
X133060757Y-82267534D01*
X133320546Y-82358438D01*
X133588879Y-82419683D01*
X133823311Y-82446097D01*
X133862382Y-82450500D01*
X133862383Y-82450500D01*
X134137618Y-82450500D01*
X134162481Y-82447698D01*
X134411121Y-82419683D01*
X134679454Y-82358438D01*
X134939243Y-82267534D01*
X135187221Y-82148114D01*
X135420268Y-82001681D01*
X135635455Y-81830075D01*
X135830075Y-81635455D01*
X136001681Y-81420268D01*
X136148114Y-81187221D01*
X136267534Y-80939243D01*
X136358438Y-80679454D01*
X136419683Y-80411121D01*
X136430004Y-80319518D01*
X138074686Y-80319518D01*
X138074686Y-80508479D01*
X138104245Y-80695114D01*
X138104246Y-80695117D01*
X138162639Y-80874832D01*
X138248422Y-81043192D01*
X138248425Y-81043196D01*
X138248426Y-81043198D01*
X138359496Y-81196072D01*
X138359498Y-81196074D01*
X138359501Y-81196078D01*
X138493106Y-81329683D01*
X138493109Y-81329685D01*
X138493113Y-81329689D01*
X138645987Y-81440759D01*
X138645989Y-81440760D01*
X138645992Y-81440762D01*
X138814352Y-81526545D01*
X138814354Y-81526546D01*
X138994068Y-81584939D01*
X139180705Y-81614499D01*
X139180706Y-81614499D01*
X139369666Y-81614499D01*
X139369667Y-81614499D01*
X139556304Y-81584939D01*
X139736018Y-81526546D01*
X139904385Y-81440759D01*
X140057259Y-81329689D01*
X140190876Y-81196072D01*
X140301946Y-81043198D01*
X140387733Y-80874831D01*
X140446126Y-80695117D01*
X140475686Y-80508480D01*
X140475686Y-80319518D01*
X140446126Y-80132881D01*
X140387733Y-79953167D01*
X140352110Y-79883252D01*
X140301949Y-79784805D01*
X140301947Y-79784802D01*
X140301946Y-79784800D01*
X140190876Y-79631926D01*
X140190872Y-79631922D01*
X140190870Y-79631919D01*
X140057265Y-79498314D01*
X140057266Y-79498314D01*
X139904379Y-79387235D01*
X139736019Y-79301452D01*
X139556304Y-79243059D01*
X139556301Y-79243058D01*
X139412930Y-79220351D01*
X139369667Y-79213499D01*
X139180705Y-79213499D01*
X139145583Y-79219061D01*
X138994070Y-79243058D01*
X138994067Y-79243059D01*
X138814352Y-79301452D01*
X138645992Y-79387235D01*
X138493106Y-79498314D01*
X138359501Y-79631919D01*
X138248422Y-79784805D01*
X138162639Y-79953165D01*
X138104246Y-80132880D01*
X138104245Y-80132883D01*
X138074686Y-80319518D01*
X136430004Y-80319518D01*
X136450500Y-80137617D01*
X136450500Y-79862383D01*
X136419683Y-79588879D01*
X136358438Y-79320546D01*
X136267534Y-79060757D01*
X136259916Y-79044939D01*
X136148120Y-78812791D01*
X136148119Y-78812789D01*
X136148118Y-78812787D01*
X136148114Y-78812779D01*
X136001681Y-78579732D01*
X135830075Y-78364545D01*
X135635455Y-78169925D01*
X135635452Y-78169922D01*
X135635447Y-78169918D01*
X135420269Y-77998320D01*
X135420270Y-77998320D01*
X135420268Y-77998319D01*
X135187221Y-77851886D01*
X135187214Y-77851883D01*
X135187210Y-77851880D01*
X135187208Y-77851879D01*
X135124624Y-77821740D01*
X135036949Y-77779518D01*
X138074686Y-77779518D01*
X138074686Y-77968479D01*
X138104245Y-78155114D01*
X138104246Y-78155117D01*
X138162639Y-78334832D01*
X138248422Y-78503192D01*
X138248425Y-78503196D01*
X138248426Y-78503198D01*
X138359496Y-78656072D01*
X138359498Y-78656074D01*
X138359501Y-78656078D01*
X138493106Y-78789683D01*
X138493109Y-78789685D01*
X138493113Y-78789689D01*
X138645987Y-78900759D01*
X138645989Y-78900760D01*
X138645992Y-78900762D01*
X138814352Y-78986545D01*
X138814354Y-78986546D01*
X138994068Y-79044939D01*
X139180705Y-79074499D01*
X139180706Y-79074499D01*
X139369666Y-79074499D01*
X139369667Y-79074499D01*
X139556304Y-79044939D01*
X139736018Y-78986546D01*
X139904385Y-78900759D01*
X140057259Y-78789689D01*
X140190876Y-78656072D01*
X140301946Y-78503198D01*
X140387733Y-78334831D01*
X140446126Y-78155117D01*
X140475686Y-77968480D01*
X140475686Y-77779518D01*
X140446126Y-77592881D01*
X140387733Y-77413167D01*
X140301946Y-77244800D01*
X140190876Y-77091926D01*
X140190872Y-77091922D01*
X140190870Y-77091919D01*
X140057265Y-76958314D01*
X140057266Y-76958314D01*
X139904379Y-76847235D01*
X139736019Y-76761452D01*
X139556304Y-76703059D01*
X139556301Y-76703058D01*
X139412930Y-76680351D01*
X139369667Y-76673499D01*
X139180705Y-76673499D01*
X139145583Y-76679061D01*
X138994070Y-76703058D01*
X138994067Y-76703059D01*
X138814352Y-76761452D01*
X138645992Y-76847235D01*
X138493106Y-76958314D01*
X138359501Y-77091919D01*
X138248422Y-77244805D01*
X138162639Y-77413165D01*
X138104246Y-77592880D01*
X138104245Y-77592883D01*
X138074686Y-77779518D01*
X135036949Y-77779518D01*
X134939253Y-77732470D01*
X134939247Y-77732467D01*
X134679451Y-77641561D01*
X134679452Y-77641561D01*
X134551653Y-77612392D01*
X134411121Y-77580317D01*
X134411115Y-77580316D01*
X134411114Y-77580316D01*
X134137618Y-77549500D01*
X134137617Y-77549500D01*
X133862383Y-77549500D01*
X133862382Y-77549500D01*
X133588888Y-77580316D01*
X133588883Y-77580316D01*
X133320548Y-77641561D01*
X133060752Y-77732467D01*
X133060746Y-77732470D01*
X132812791Y-77851879D01*
X132812789Y-77851880D01*
X132579730Y-77998320D01*
X132364552Y-78169918D01*
X132364540Y-78169929D01*
X132169929Y-78364540D01*
X132169918Y-78364552D01*
X131998320Y-78579730D01*
X131998319Y-78579732D01*
X131866395Y-78789689D01*
X131851880Y-78812789D01*
X131851879Y-78812791D01*
X131732470Y-79060746D01*
X131732467Y-79060752D01*
X131641561Y-79320548D01*
X131580316Y-79588883D01*
X131580316Y-79588888D01*
X131549500Y-79862382D01*
X130500500Y-79862382D01*
X130500500Y-76549500D01*
X130514852Y-76514852D01*
X130549500Y-76500500D01*
X141450500Y-76500500D01*
X141485148Y-76514852D01*
G37*
%TD.AperFunction*%
%TD*%
M02*
