%TF.GenerationSoftware,KiCad,Pcbnew,10.0.1*%
%TF.CreationDate,2026-06-05T23:10:33-05:00*%
%TF.ProjectId,ESPProbe,45535050-726f-4626-952e-6b696361645f,rev?*%
%TF.SameCoordinates,Original*%
%TF.FileFunction,Soldermask,Top*%
%TF.FilePolarity,Negative*%
%FSLAX46Y46*%
G04 Gerber Fmt 4.6, Leading zero omitted, Abs format (unit mm)*
G04 Created by KiCad (PCBNEW 10.0.1) date 2026-06-05 23:10:33*
%MOMM*%
%LPD*%
G01*
G04 APERTURE LIST*
G04 Aperture macros list*
%AMRoundRect*
0 Rectangle with rounded corners*
0 $1 Rounding radius*
0 $2 $3 $4 $5 $6 $7 $8 $9 X,Y pos of 4 corners*
0 Add a 4 corners polygon primitive as box body*
4,1,4,$2,$3,$4,$5,$6,$7,$8,$9,$2,$3,0*
0 Add four circle primitives for the rounded corners*
1,1,$1+$1,$2,$3*
1,1,$1+$1,$4,$5*
1,1,$1+$1,$6,$7*
1,1,$1+$1,$8,$9*
0 Add four rect primitives between the rounded corners*
20,1,$1+$1,$2,$3,$4,$5,0*
20,1,$1+$1,$4,$5,$6,$7,0*
20,1,$1+$1,$6,$7,$8,$9,0*
20,1,$1+$1,$8,$9,$2,$3,0*%
G04 Aperture macros list end*
%ADD10RoundRect,0.250001X0.949999X-0.949999X0.949999X0.949999X-0.949999X0.949999X-0.949999X-0.949999X0*%
%ADD11C,2.400000*%
%ADD12C,2.240000*%
%ADD13R,1.500000X1.500000*%
%ADD14C,1.500000*%
%ADD15C,3.000000*%
%ADD16C,2.204000*%
%ADD17RoundRect,0.102000X1.000000X1.000000X-1.000000X1.000000X-1.000000X-1.000000X1.000000X-1.000000X0*%
G04 APERTURE END LIST*
D10*
%TO.C,J1*%
X144996908Y-70798264D03*
D11*
X144996908Y-65718264D03*
%TD*%
D12*
%TO.C,W2*%
X104000000Y-75000000D03*
%TD*%
D10*
%TO.C,J3*%
X145000000Y-98840000D03*
D11*
X145000000Y-93760000D03*
%TD*%
D12*
%TO.C,W3*%
X104000000Y-67000000D03*
%TD*%
%TO.C,W1*%
X104000000Y-100000000D03*
%TD*%
D10*
%TO.C,J2*%
X145000000Y-84840000D03*
D11*
X145000000Y-79760000D03*
%TD*%
D13*
%TO.C,U4*%
X103400000Y-84190000D03*
D14*
X103400000Y-86730000D03*
X103400000Y-89270000D03*
X103400000Y-91810000D03*
%TD*%
D15*
%TO.C,MCU1*%
X110770000Y-61525000D03*
X110770000Y-108475000D03*
X135280000Y-61525000D03*
X135280000Y-108475000D03*
D16*
X110300000Y-64955000D03*
X110300000Y-67495000D03*
X110300000Y-70035000D03*
X110300000Y-72575000D03*
X110300000Y-75115000D03*
X110300000Y-77655000D03*
X110300000Y-80195000D03*
X110300000Y-82735000D03*
X110300000Y-85275000D03*
X110300000Y-87815000D03*
X110300000Y-90355000D03*
X110300000Y-92895000D03*
X110300000Y-95435000D03*
X110300000Y-97975000D03*
D17*
X110300000Y-100515000D03*
X135700000Y-100515000D03*
D16*
X135700000Y-97975000D03*
X135700000Y-95435000D03*
X135700000Y-92895000D03*
X135700000Y-90355000D03*
X135700000Y-87815000D03*
X135700000Y-85275000D03*
X135700000Y-82735000D03*
X135700000Y-80195000D03*
X135700000Y-77655000D03*
X135700000Y-75115000D03*
X135700000Y-72575000D03*
X135700000Y-70035000D03*
X135700000Y-67495000D03*
X135700000Y-64955000D03*
%TD*%
M02*
