M48
; DRILL file KiCad 10.0.1 date 2026-06-05T23:10:36
; FORMAT={-:-/ absolute / metric / decimal}
; #@! TF.CreationDate,2026-06-05T23:10:36-05:00
; #@! TF.GenerationSoftware,Kicad,Pcbnew,10.0.1
; #@! TF.FileFunction,MixedPlating,1,2
FMAT,2
METRIC
; #@! TA.AperFunction,Plated,PTH,ViaDrill
T1C0.300
; #@! TA.AperFunction,Plated,PTH,ComponentDrill
T2C0.800
; #@! TA.AperFunction,Plated,PTH,ComponentDrill
T3C1.020
; #@! TA.AperFunction,Plated,PTH,ComponentDrill
T4C1.220
; #@! TA.AperFunction,Plated,PTH,ComponentDrill
T5C1.600
; #@! TA.AperFunction,NonPlated,NPTH,ComponentDrill
T6C3.000
%
G90
G05
T1
X101.9Y-60.9
X101.9Y-78.9
X101.9Y-103.1
X108.2Y-60.9
X112.1Y-63.2
X115.2Y-91.5
X115.3Y-77.5
X115.3Y-103.1
X123.0Y-67.9
X123.7Y-89.6
X126.7Y-81.1
X131.9Y-103.1
X132.1Y-89.4
X133.0Y-74.0
X133.9Y-63.1
X137.3Y-100.1
X137.8Y-60.9
X138.1Y-70.9
X138.1Y-85.0
X138.8Y-99.2
X139.4Y-75.9
X139.4Y-89.4
X140.733Y-99.947
X141.699Y-75.397
X141.7Y-89.4
X141.7Y-99.8
X143.2Y-68.2
X143.2Y-82.3
X143.2Y-96.3
X147.1Y-60.9
X147.1Y-74.9
X147.1Y-88.9
X147.1Y-103.1
T2
X103.4Y-84.19
X103.4Y-86.73
X103.4Y-89.27
X103.4Y-91.81
T3
X110.3Y-64.955
X110.3Y-67.495
X110.3Y-70.035
X110.3Y-72.575
X110.3Y-75.115
X110.3Y-77.655
X110.3Y-80.195
X110.3Y-82.735
X110.3Y-85.275
X110.3Y-87.815
X110.3Y-90.355
X110.3Y-92.895
X110.3Y-95.435
X110.3Y-97.975
X110.3Y-100.515
X135.7Y-64.955
X135.7Y-67.495
X135.7Y-70.035
X135.7Y-72.575
X135.7Y-75.115
X135.7Y-77.655
X135.7Y-80.195
X135.7Y-82.735
X135.7Y-85.275
X135.7Y-87.815
X135.7Y-90.355
X135.7Y-92.895
X135.7Y-95.435
X135.7Y-97.975
X135.7Y-100.515
T4
X104.0Y-67.0
X104.0Y-75.0
X104.0Y-100.0
T5
X144.997Y-65.718
X144.997Y-70.798
X145.0Y-79.76
X145.0Y-84.84
X145.0Y-93.76
X145.0Y-98.84
T6
X110.77Y-61.525
X110.77Y-108.475
X135.28Y-61.525
X135.28Y-108.475
M30
