%TF.GenerationSoftware,KiCad,Pcbnew,10.0.1*%
%TF.CreationDate,2026-06-05T23:10:33-05:00*%
%TF.ProjectId,ESPProbe,45535050-726f-4626-952e-6b696361645f,rev?*%
%TF.SameCoordinates,Original*%
%TF.FileFunction,Copper,L1,Top*%
%TF.FilePolarity,Positive*%
%FSLAX46Y46*%
G04 Gerber Fmt 4.6, Leading zero omitted, Abs format (unit mm)*
G04 Created by KiCad (PCBNEW 10.0.1) date 2026-06-05 23:10:33*
%MOMM*%
%LPD*%
G01*
G04 APERTURE LIST*
G04 Aperture macros list*
%AMRoundRect*
0 Rectangle with rounded corners*
0 $1 Rounding radius*
0 $2 $3 $4 $5 $6 $7 $8 $9 X,Y pos of 4 corners*
0 Add a 4 corners polygon primitive as box body*
4,1,4,$2,$3,$4,$5,$6,$7,$8,$9,$2,$3,0*
0 Add four circle primitives for the rounded corners*
1,1,$1+$1,$2,$3*
1,1,$1+$1,$4,$5*
1,1,$1+$1,$6,$7*
1,1,$1+$1,$8,$9*
0 Add four rect primitives between the rounded corners*
20,1,$1+$1,$2,$3,$4,$5,0*
20,1,$1+$1,$4,$5,$6,$7,0*
20,1,$1+$1,$6,$7,$8,$9,0*
20,1,$1+$1,$8,$9,$2,$3,0*%
G04 Aperture macros list end*
%TA.AperFunction,ComponentPad*%
%ADD10RoundRect,0.250001X0.949999X-0.949999X0.949999X0.949999X-0.949999X0.949999X-0.949999X-0.949999X0*%
%TD*%
%TA.AperFunction,ComponentPad*%
%ADD11C,2.400000*%
%TD*%
%TA.AperFunction,ComponentPad*%
%ADD12C,2.220000*%
%TD*%
%TA.AperFunction,ComponentPad*%
%ADD13R,1.500000X1.500000*%
%TD*%
%TA.AperFunction,ComponentPad*%
%ADD14C,1.500000*%
%TD*%
%TA.AperFunction,ComponentPad*%
%ADD15C,2.000000*%
%TD*%
%TA.AperFunction,ComponentPad*%
%ADD16R,2.000000X2.000000*%
%TD*%
%TA.AperFunction,ViaPad*%
%ADD17C,0.700000*%
%TD*%
%TA.AperFunction,Conductor*%
%ADD18C,0.340000*%
%TD*%
%TA.AperFunction,Conductor*%
%ADD19C,0.320000*%
%TD*%
%TA.AperFunction,Conductor*%
%ADD20C,2.000000*%
%TD*%
%TA.AperFunction,Conductor*%
%ADD21C,1.000000*%
%TD*%
%TA.AperFunction,Conductor*%
%ADD22C,0.500000*%
%TD*%
G04 APERTURE END LIST*
D10*
%TO.P,J1,1,Pin_1_1*%
%TO.N,Net-(J1-Pin_1)*%
X144996908Y-70798264D03*
D11*
%TO.P,J1,2,Pin_2_2*%
%TO.N,Net-(J1-Pin_2)*%
X144996908Y-65718264D03*
%TD*%
D12*
%TO.P,W2,1*%
%TO.N,+3V3*%
X104000000Y-75000000D03*
%TD*%
D10*
%TO.P,J3,1,Pin_1_1*%
%TO.N,Net-(J3-Pin_1)*%
X145000000Y-98840000D03*
D11*
%TO.P,J3,2,Pin_2_2*%
%TO.N,Net-(J3-Pin_2)*%
X145000000Y-93760000D03*
%TD*%
D12*
%TO.P,W3,1*%
%TO.N,GNDREF*%
X104000000Y-67000000D03*
%TD*%
%TO.P,W1,1*%
%TO.N,+5V*%
X104000000Y-100000000D03*
%TD*%
D10*
%TO.P,J2,1,Pin_1_1*%
%TO.N,Net-(J2-Pin_1)*%
X145000000Y-84840000D03*
D11*
%TO.P,J2,2,Pin_2_2*%
%TO.N,Net-(J2-Pin_2)*%
X145000000Y-79760000D03*
%TD*%
D13*
%TO.P,U4,1,VDD_1*%
%TO.N,+3V3*%
X103400000Y-84190000D03*
D14*
%TO.P,U4,2,SDA_2*%
%TO.N,DHT*%
X103400000Y-86730000D03*
%TO.P,U4,3,GND_3*%
%TO.N,GNDREF*%
X103400000Y-89270000D03*
%TO.P,U4,4,GND_4*%
X103400000Y-91810000D03*
%TD*%
D15*
%TO.P,MCU1,1,EN_1*%
%TO.N,unconnected-(MCU1-EN-Pad1)*%
X110300000Y-64955000D03*
%TO.P,MCU1,2,VP_2*%
%TO.N,unconnected-(MCU1-VP-Pad2)*%
X110300000Y-67495000D03*
%TO.P,MCU1,3,VN_3*%
%TO.N,unconnected-(MCU1-VN-Pad3)*%
X110300000Y-70035000D03*
%TO.P,MCU1,4,D34_4*%
%TO.N,unconnected-(MCU1-D34-Pad4)*%
X110300000Y-72575000D03*
%TO.P,MCU1,5,D35_5*%
%TO.N,unconnected-(MCU1-D35-Pad5)*%
X110300000Y-75115000D03*
%TO.P,MCU1,6,D32_6*%
%TO.N,DHT*%
X110300000Y-77655000D03*
%TO.P,MCU1,7,D33_7*%
%TO.N,+3V3*%
X110300000Y-80195000D03*
%TO.P,MCU1,8,D25_8*%
%TO.N,CS1*%
X110300000Y-82735000D03*
%TO.P,MCU1,9,D26_9*%
%TO.N,CS2*%
X110300000Y-85275000D03*
%TO.P,MCU1,10,D27_10*%
%TO.N,CS3*%
X110300000Y-87815000D03*
%TO.P,MCU1,11,D14_11*%
%TO.N,unconnected-(MCU1-D14-Pad11)*%
X110300000Y-90355000D03*
%TO.P,MCU1,12,D12_12*%
%TO.N,unconnected-(MCU1-D12-Pad12)*%
X110300000Y-92895000D03*
%TO.P,MCU1,13,D13_13*%
%TO.N,unconnected-(MCU1-D13-Pad13)*%
X110300000Y-95435000D03*
%TO.P,MCU1,14,GND_14*%
%TO.N,GNDREF*%
X110300000Y-97975000D03*
D16*
%TO.P,MCU1,15,VIN_15*%
%TO.N,+5V*%
X110300000Y-100515000D03*
%TO.P,MCU1,16,3V3_16*%
%TO.N,+3V3*%
X135700000Y-100515000D03*
D15*
%TO.P,MCU1,17,GND_17*%
%TO.N,GNDREF*%
X135700000Y-97975000D03*
%TO.P,MCU1,18,D15_18*%
%TO.N,unconnected-(MCU1-D15-Pad18)*%
X135700000Y-95435000D03*
%TO.P,MCU1,19,D2_19*%
%TO.N,unconnected-(MCU1-D2-Pad19)*%
X135700000Y-92895000D03*
%TO.P,MCU1,20,D4_20*%
%TO.N,unconnected-(MCU1-D4-Pad20)*%
X135700000Y-90355000D03*
%TO.P,MCU1,21,RX2_21*%
%TO.N,unconnected-(MCU1-RX2-Pad21)*%
X135700000Y-87815000D03*
%TO.P,MCU1,22,TX2_22*%
%TO.N,unconnected-(MCU1-TX2-Pad22)*%
X135700000Y-85275000D03*
%TO.P,MCU1,23,D5_23*%
%TO.N,unconnected-(MCU1-D5-Pad23)*%
X135700000Y-82735000D03*
%TO.P,MCU1,24,D18_24*%
%TO.N,SCK*%
X135700000Y-80195000D03*
%TO.P,MCU1,25,D19_25*%
%TO.N,MISO*%
X135700000Y-77655000D03*
%TO.P,MCU1,26,D21_26*%
%TO.N,unconnected-(MCU1-D21-Pad26)*%
X135700000Y-75115000D03*
%TO.P,MCU1,27,RX0_27*%
%TO.N,unconnected-(MCU1-RX0-Pad27)*%
X135700000Y-72575000D03*
%TO.P,MCU1,28,TX0_28*%
%TO.N,unconnected-(MCU1-TX0-Pad28)*%
X135700000Y-70035000D03*
%TO.P,MCU1,29,D22_29*%
%TO.N,unconnected-(MCU1-D22-Pad29)*%
X135700000Y-67495000D03*
%TO.P,MCU1,30,D23_30*%
%TO.N,unconnected-(MCU1-D23-Pad30)*%
X135700000Y-64955000D03*
%TD*%
D17*
%TO.N,GNDREF*%
X101900000Y-78900000D03*
X137800000Y-60900000D03*
X108200000Y-60900000D03*
X115300000Y-77500000D03*
X133000000Y-74000000D03*
X132100000Y-89400000D03*
X123700000Y-89600000D03*
X115200000Y-91500000D03*
%TO.N,+3V3*%
X143200000Y-68200000D03*
X143200000Y-96300000D03*
X143200000Y-82300000D03*
%TO.N,GNDREF*%
X131900000Y-103100000D03*
X147100000Y-103100000D03*
X101900000Y-103100000D03*
X147100000Y-74900000D03*
X126700000Y-81100000D03*
X101900000Y-60900000D03*
X115300000Y-103100000D03*
X137300000Y-100100000D03*
X133900000Y-63100000D03*
X147100000Y-88900000D03*
X112100000Y-63200000D03*
X123000000Y-67900000D03*
X147100000Y-60900000D03*
%TO.N,CS1*%
X138100000Y-70900000D03*
%TO.N,CS2*%
X138100000Y-85000000D03*
%TO.N,CS3*%
X140732590Y-99947336D03*
%TO.N,SCK*%
X141700000Y-99800000D03*
X141700000Y-89400000D03*
X141698622Y-75397268D03*
%TO.N,MISO*%
X139400000Y-89400000D03*
X139400000Y-75900000D03*
X138800000Y-99200000D03*
%TD*%
%TO.N,CS3*%
D18*
X137700000Y-94800000D02*
X137700000Y-99300000D01*
X137700000Y-99300000D02*
X138347336Y-99947336D01*
X137065000Y-94165000D02*
X137700000Y-94800000D01*
D19*
X130165000Y-94165000D02*
X137065000Y-94165000D01*
D18*
X123815000Y-87815000D02*
X130165000Y-94165000D01*
X110300000Y-87815000D02*
X123815000Y-87815000D01*
%TO.N,+3V3*%
D20*
X104000000Y-83590000D02*
X103400000Y-84190000D01*
D21*
X143200000Y-82300000D02*
X143196908Y-82296908D01*
X143196908Y-68203092D02*
X143200000Y-68200000D01*
X135700000Y-100515000D02*
X135700000Y-101000000D01*
D20*
X104000000Y-75000000D02*
X104000000Y-83590000D01*
D21*
X143100000Y-101300000D02*
X143100000Y-96300000D01*
X135700000Y-101000000D02*
X137000000Y-102300000D01*
X143096908Y-82296908D02*
X143096908Y-68203092D01*
X143100000Y-96300000D02*
X143100000Y-82300000D01*
X137000000Y-102300000D02*
X142200000Y-102300000D01*
X142200000Y-102300000D02*
X143200000Y-101300000D01*
%TO.N,DHT*%
D22*
X103400000Y-86730000D02*
X105770000Y-86730000D01*
X105770000Y-86730000D02*
X107200000Y-85300000D01*
X108245000Y-77655000D02*
X110300000Y-77655000D01*
X107200000Y-78700000D02*
X108245000Y-77655000D01*
X107200000Y-85300000D02*
X107200000Y-78700000D01*
%TO.N,CS1*%
D18*
X110300000Y-82735000D02*
X120365000Y-82735000D01*
X137695000Y-71305000D02*
X138100000Y-70900000D01*
D19*
X131795000Y-71305000D02*
X137695000Y-71305000D01*
D18*
X120365000Y-82735000D02*
X131795000Y-71305000D01*
%TO.N,CS2*%
D19*
X129645000Y-86545000D02*
X137655000Y-86545000D01*
D18*
X110300000Y-85275000D02*
X128375000Y-85275000D01*
X128375000Y-85275000D02*
X129645000Y-86545000D01*
X138100000Y-86100000D02*
X138100000Y-85000000D01*
X137655000Y-86545000D02*
X138100000Y-86100000D01*
%TO.N,CS3*%
X140732590Y-99947336D02*
X138347336Y-99947336D01*
%TO.N,SCK*%
D22*
X141698622Y-75198622D02*
X140300000Y-73800000D01*
X139200000Y-73800000D02*
X137700000Y-75300000D01*
X141698622Y-75397268D02*
X141698622Y-75198622D01*
X141698622Y-89398622D02*
X141700000Y-89400000D01*
X137700000Y-78195000D02*
X135700000Y-80195000D01*
X141698622Y-75397268D02*
X141698622Y-89398622D01*
X137700000Y-75300000D02*
X137700000Y-78195000D01*
X140300000Y-73800000D02*
X139200000Y-73800000D01*
X141700000Y-89400000D02*
X141700000Y-99800000D01*
%TO.N,MISO*%
X139400000Y-89400000D02*
X139400000Y-98600000D01*
X139400000Y-75900000D02*
X139400000Y-89400000D01*
X139400000Y-98600000D02*
X138800000Y-99200000D01*
%TD*%
%TA.AperFunction,Conductor*%
%TO.N,GNDREF*%
G36*
X109291091Y-60505750D02*
G01*
X109300799Y-60509771D01*
X109300816Y-60509788D01*
X109300840Y-60509788D01*
X109300846Y-60509791D01*
X109319853Y-60528823D01*
X109338141Y-60547110D01*
X109338470Y-60547902D01*
X109341351Y-60592130D01*
X109340520Y-60595230D01*
X109338434Y-60600264D01*
X109338434Y-60600712D01*
X109338118Y-60601027D01*
X109333629Y-60611864D01*
X109290374Y-60686785D01*
X109241596Y-60771270D01*
X109156290Y-60977217D01*
X109098595Y-61192537D01*
X109069500Y-61413533D01*
X109069500Y-61636465D01*
X109098595Y-61857463D01*
X109127075Y-61963751D01*
X109130934Y-61978151D01*
X109156290Y-62072781D01*
X109241595Y-62278726D01*
X109353052Y-62471774D01*
X109488753Y-62648624D01*
X109488755Y-62648626D01*
X109488759Y-62648631D01*
X109646368Y-62806240D01*
X109646372Y-62806243D01*
X109646376Y-62806247D01*
X109646386Y-62806255D01*
X109646397Y-62806264D01*
X109646523Y-62806359D01*
X109823226Y-62941948D01*
X110016274Y-63053405D01*
X110222219Y-63138710D01*
X110437537Y-63196404D01*
X110658543Y-63225500D01*
X110658544Y-63225500D01*
X110881456Y-63225500D01*
X110881457Y-63225500D01*
X111102463Y-63196404D01*
X111317781Y-63138710D01*
X111523726Y-63053405D01*
X111716774Y-62941948D01*
X111893624Y-62806247D01*
X112051247Y-62648624D01*
X112186948Y-62471774D01*
X112298405Y-62278726D01*
X112361501Y-62126395D01*
X112376458Y-62104012D01*
X112381714Y-62098756D01*
X112430507Y-62078552D01*
X112479293Y-62098765D01*
X112479295Y-62098767D01*
X112499500Y-62147552D01*
X112499500Y-66934108D01*
X112499500Y-67065892D01*
X112533608Y-67193186D01*
X112599500Y-67307314D01*
X112692686Y-67400500D01*
X112806814Y-67466392D01*
X112934108Y-67500500D01*
X112934109Y-67500500D01*
X133065891Y-67500500D01*
X133065892Y-67500500D01*
X133193186Y-67466392D01*
X133307279Y-67400520D01*
X134499500Y-67400520D01*
X134499500Y-67589479D01*
X134499501Y-67589493D01*
X134529058Y-67776110D01*
X134529059Y-67776116D01*
X134529063Y-67776128D01*
X134587441Y-67955797D01*
X134587449Y-67955821D01*
X134587452Y-67955829D01*
X134587452Y-67955830D01*
X134587455Y-67955837D01*
X134631132Y-68041557D01*
X134631132Y-68041559D01*
X134631133Y-68041559D01*
X134673240Y-68124200D01*
X134673242Y-68124203D01*
X134673246Y-68124209D01*
X134673254Y-68124221D01*
X134783091Y-68275398D01*
X134783109Y-68275422D01*
X134784300Y-68277061D01*
X134784308Y-68277070D01*
X134784310Y-68277073D01*
X134784510Y-68277273D01*
X134784514Y-68277278D01*
X134917919Y-68410683D01*
X134917924Y-68410687D01*
X134917927Y-68410690D01*
X134917930Y-68410692D01*
X134917938Y-68410699D01*
X134917942Y-68410702D01*
X134918216Y-68410926D01*
X134919027Y-68411491D01*
X135070794Y-68521756D01*
X135070807Y-68521764D01*
X135071068Y-68521896D01*
X135239161Y-68607544D01*
X135239165Y-68607545D01*
X135239168Y-68607547D01*
X135418882Y-68665940D01*
X135605519Y-68695500D01*
X135605521Y-68695500D01*
X135794479Y-68695500D01*
X135794481Y-68695500D01*
X135981118Y-68665940D01*
X136160832Y-68607547D01*
X136329199Y-68521760D01*
X136480971Y-68411491D01*
X136482061Y-68410699D01*
X136482063Y-68410697D01*
X136482073Y-68410690D01*
X136615690Y-68277073D01*
X136621561Y-68268993D01*
X136726757Y-68124203D01*
X136726759Y-68124200D01*
X136726760Y-68124199D01*
X136812547Y-67955832D01*
X136870940Y-67776118D01*
X136900500Y-67589481D01*
X136900500Y-67400519D01*
X136900499Y-67400517D01*
X136900499Y-67400508D01*
X136885821Y-67307844D01*
X136885738Y-67307317D01*
X136870941Y-67213888D01*
X136870940Y-67213887D01*
X136870940Y-67213882D01*
X136812547Y-67034168D01*
X136812545Y-67034165D01*
X136812544Y-67034161D01*
X136732919Y-66877888D01*
X136726890Y-66866056D01*
X136726764Y-66865807D01*
X136726756Y-66865794D01*
X136615701Y-66712941D01*
X136615701Y-66712940D01*
X136615681Y-66712917D01*
X136482081Y-66579317D01*
X136482058Y-66579297D01*
X136329221Y-66468254D01*
X136329209Y-66468246D01*
X136329203Y-66468242D01*
X136329200Y-66468240D01*
X136246559Y-66426133D01*
X136246559Y-66426132D01*
X136246557Y-66426132D01*
X136160837Y-66382455D01*
X136160833Y-66382453D01*
X136160832Y-66382453D01*
X136160829Y-66382452D01*
X136160821Y-66382449D01*
X136160797Y-66382441D01*
X136003811Y-66331433D01*
X135981126Y-66324062D01*
X135981121Y-66324060D01*
X135981116Y-66324059D01*
X135981091Y-66324054D01*
X135794513Y-66294503D01*
X135794489Y-66294500D01*
X135794482Y-66294500D01*
X135794481Y-66294500D01*
X135605519Y-66294500D01*
X135605517Y-66294500D01*
X135605509Y-66294500D01*
X135605485Y-66294503D01*
X135418907Y-66324054D01*
X135418882Y-66324059D01*
X135418870Y-66324063D01*
X135239172Y-66382451D01*
X135070799Y-66468240D01*
X135070777Y-66468254D01*
X134917941Y-66579297D01*
X134917940Y-66579297D01*
X134917917Y-66579317D01*
X134784317Y-66712917D01*
X134784297Y-66712940D01*
X134784297Y-66712941D01*
X134673254Y-66865777D01*
X134673243Y-66865794D01*
X134673242Y-66865796D01*
X134673240Y-66865799D01*
X134596260Y-67016883D01*
X134587451Y-67034172D01*
X134529063Y-67213870D01*
X134529059Y-67213882D01*
X134529058Y-67213887D01*
X134529058Y-67213888D01*
X134499501Y-67400506D01*
X134499500Y-67400520D01*
X133307279Y-67400520D01*
X133307314Y-67400500D01*
X133400500Y-67307314D01*
X133466392Y-67193186D01*
X133500500Y-67065892D01*
X133500500Y-64860520D01*
X134499500Y-64860520D01*
X134499500Y-65049479D01*
X134499501Y-65049493D01*
X134520628Y-65182887D01*
X134529058Y-65236110D01*
X134529059Y-65236116D01*
X134529060Y-65236119D01*
X134529065Y-65236135D01*
X134579157Y-65390303D01*
X134587450Y-65415826D01*
X134587455Y-65415838D01*
X134631132Y-65501558D01*
X134631132Y-65501559D01*
X134631133Y-65501559D01*
X134673240Y-65584200D01*
X134673242Y-65584203D01*
X134673246Y-65584209D01*
X134673254Y-65584221D01*
X134783091Y-65735398D01*
X134783109Y-65735422D01*
X134784300Y-65737061D01*
X134784308Y-65737070D01*
X134784310Y-65737073D01*
X134784510Y-65737273D01*
X134784514Y-65737278D01*
X134917919Y-65870683D01*
X134917924Y-65870687D01*
X134917927Y-65870690D01*
X134917930Y-65870692D01*
X134917938Y-65870699D01*
X134917942Y-65870702D01*
X134918216Y-65870926D01*
X134919027Y-65871491D01*
X135070794Y-65981756D01*
X135070807Y-65981764D01*
X135071068Y-65981896D01*
X135239161Y-66067544D01*
X135239165Y-66067545D01*
X135239168Y-66067547D01*
X135418882Y-66125940D01*
X135605519Y-66155500D01*
X135605521Y-66155500D01*
X135794479Y-66155500D01*
X135794481Y-66155500D01*
X135981118Y-66125940D01*
X136160832Y-66067547D01*
X136329199Y-65981760D01*
X136480971Y-65871491D01*
X136482061Y-65870699D01*
X136482063Y-65870697D01*
X136482073Y-65870690D01*
X136615690Y-65737073D01*
X136647493Y-65693301D01*
X136709433Y-65608047D01*
X143596408Y-65608047D01*
X143596408Y-65828479D01*
X143596410Y-65828507D01*
X143596410Y-65828509D01*
X143630887Y-66046188D01*
X143630892Y-66046213D01*
X143630895Y-66046222D01*
X143630896Y-66046226D01*
X143637824Y-66067548D01*
X143699005Y-66255846D01*
X143699016Y-66255879D01*
X143699019Y-66255887D01*
X143799081Y-66452268D01*
X143799087Y-66452277D01*
X143799095Y-66452290D01*
X143799099Y-66452295D01*
X143799103Y-66452302D01*
X143928659Y-66630622D01*
X143928674Y-66630638D01*
X144084532Y-66786496D01*
X144084548Y-66786511D01*
X144262868Y-66916067D01*
X144262872Y-66916069D01*
X144262881Y-66916076D01*
X144262894Y-66916084D01*
X144262897Y-66916085D01*
X144262907Y-66916092D01*
X144458199Y-67015598D01*
X144458200Y-67015598D01*
X144459289Y-67016153D01*
X144459293Y-67016154D01*
X144459302Y-67016159D01*
X144459304Y-67016159D01*
X144459517Y-67016268D01*
X144460100Y-67016472D01*
X144461524Y-67016881D01*
X144663813Y-67082607D01*
X144667163Y-67083995D01*
X144837456Y-67110967D01*
X144837457Y-67110967D01*
X144886686Y-67118764D01*
X144886688Y-67118764D01*
X145107128Y-67118764D01*
X145107130Y-67118764D01*
X145324859Y-67084279D01*
X145534514Y-67016159D01*
X145566226Y-67000001D01*
X145726327Y-66918425D01*
X145730705Y-66916194D01*
X145730760Y-66916166D01*
X145730905Y-66916092D01*
X145730921Y-66916084D01*
X145730921Y-66916083D01*
X145730930Y-66916079D01*
X145800139Y-66865796D01*
X145854278Y-66826462D01*
X145909265Y-66786512D01*
X145909265Y-66786511D01*
X145909273Y-66786506D01*
X145909275Y-66786503D01*
X145910472Y-66785634D01*
X145910494Y-66785618D01*
X145913743Y-66783257D01*
X145916987Y-66778791D01*
X146065150Y-66630629D01*
X146079305Y-66611147D01*
X146147499Y-66517283D01*
X146190026Y-66458751D01*
X146194711Y-66452302D01*
X146194723Y-66452286D01*
X146203881Y-66434314D01*
X146260057Y-66324063D01*
X146294361Y-66256738D01*
X146294364Y-66256732D01*
X146295045Y-66255395D01*
X146295623Y-66253346D01*
X146362923Y-66046215D01*
X146397408Y-65828486D01*
X146397408Y-65608042D01*
X146362923Y-65390313D01*
X146294803Y-65180658D01*
X146294798Y-65180649D01*
X146294797Y-65180645D01*
X146263572Y-65119363D01*
X146194736Y-64984263D01*
X146194729Y-64984253D01*
X146194728Y-64984250D01*
X146194720Y-64984237D01*
X146104838Y-64860524D01*
X146065155Y-64805904D01*
X146065140Y-64805888D01*
X145909282Y-64650030D01*
X145909266Y-64650015D01*
X145730946Y-64520459D01*
X145730939Y-64520455D01*
X145730934Y-64520451D01*
X145730921Y-64520443D01*
X145730912Y-64520437D01*
X145534531Y-64420375D01*
X145534523Y-64420372D01*
X145534490Y-64420361D01*
X145464629Y-64397662D01*
X145324867Y-64352251D01*
X145324862Y-64352249D01*
X145324857Y-64352248D01*
X145324832Y-64352243D01*
X145107162Y-64317767D01*
X145107138Y-64317764D01*
X145107131Y-64317764D01*
X145107130Y-64317764D01*
X144886686Y-64317764D01*
X144886684Y-64317764D01*
X144886676Y-64317764D01*
X144886652Y-64317767D01*
X144668982Y-64352243D01*
X144668957Y-64352248D01*
X144668945Y-64352252D01*
X144459309Y-64420366D01*
X144459291Y-64420373D01*
X144262897Y-64520440D01*
X144262881Y-64520451D01*
X144262868Y-64520459D01*
X144084548Y-64650015D01*
X144084532Y-64650030D01*
X143928674Y-64805888D01*
X143928659Y-64805904D01*
X143799103Y-64984224D01*
X143799095Y-64984237D01*
X143799084Y-64984253D01*
X143699017Y-65180647D01*
X143699010Y-65180665D01*
X143680990Y-65236126D01*
X143630895Y-65390304D01*
X143630891Y-65390319D01*
X143630889Y-65390326D01*
X143630887Y-65390338D01*
X143596410Y-65608017D01*
X143596410Y-65608019D01*
X143596408Y-65608047D01*
X136709433Y-65608047D01*
X136726757Y-65584203D01*
X136726759Y-65584200D01*
X136731955Y-65574004D01*
X136731955Y-65574003D01*
X136812547Y-65415832D01*
X136870940Y-65236118D01*
X136900500Y-65049481D01*
X136900500Y-64860519D01*
X136870940Y-64673882D01*
X136812547Y-64494168D01*
X136812545Y-64494165D01*
X136812544Y-64494161D01*
X136726896Y-64326068D01*
X136726764Y-64325807D01*
X136726756Y-64325794D01*
X136615701Y-64172941D01*
X136615701Y-64172940D01*
X136615681Y-64172917D01*
X136482081Y-64039317D01*
X136482058Y-64039297D01*
X136329221Y-63928254D01*
X136329209Y-63928246D01*
X136329203Y-63928242D01*
X136329200Y-63928240D01*
X136246559Y-63886133D01*
X136246559Y-63886132D01*
X136246557Y-63886132D01*
X136160837Y-63842455D01*
X136160833Y-63842453D01*
X136160832Y-63842453D01*
X136160829Y-63842452D01*
X136160821Y-63842449D01*
X136160797Y-63842441D01*
X136047172Y-63805522D01*
X135981126Y-63784062D01*
X135981121Y-63784060D01*
X135981116Y-63784059D01*
X135981091Y-63784054D01*
X135794513Y-63754503D01*
X135794489Y-63754500D01*
X135794482Y-63754500D01*
X135794481Y-63754500D01*
X135605519Y-63754500D01*
X135605517Y-63754500D01*
X135605509Y-63754500D01*
X135605485Y-63754503D01*
X135418907Y-63784054D01*
X135418882Y-63784059D01*
X135418870Y-63784063D01*
X135239172Y-63842451D01*
X135070799Y-63928240D01*
X135070777Y-63928254D01*
X134917941Y-64039297D01*
X134917940Y-64039297D01*
X134917917Y-64039317D01*
X134784317Y-64172917D01*
X134784297Y-64172940D01*
X134784297Y-64172941D01*
X134673254Y-64325777D01*
X134673240Y-64325799D01*
X134587451Y-64494172D01*
X134529063Y-64673870D01*
X134529059Y-64673882D01*
X134529058Y-64673888D01*
X134499501Y-64860506D01*
X134499500Y-64860520D01*
X133500500Y-64860520D01*
X133500500Y-61991875D01*
X133505665Y-61968929D01*
X133505752Y-61965469D01*
X133507929Y-61960214D01*
X133508346Y-61959797D01*
X133509507Y-61957351D01*
X133522951Y-61945193D01*
X133545272Y-61922874D01*
X133547633Y-61922874D01*
X133548677Y-61921930D01*
X133567467Y-61922874D01*
X133598083Y-61922875D01*
X133599939Y-61924506D01*
X133601421Y-61924581D01*
X133606824Y-61930556D01*
X133631499Y-61952239D01*
X133631672Y-61952540D01*
X133635850Y-61962654D01*
X133636842Y-61963751D01*
X133636783Y-61964913D01*
X133638498Y-61969064D01*
X133644611Y-61991875D01*
X133666290Y-62072781D01*
X133751595Y-62278726D01*
X133863052Y-62471774D01*
X133998753Y-62648624D01*
X133998755Y-62648626D01*
X133998759Y-62648631D01*
X134156368Y-62806240D01*
X134156372Y-62806243D01*
X134156376Y-62806247D01*
X134156386Y-62806255D01*
X134156397Y-62806264D01*
X134156523Y-62806359D01*
X134333226Y-62941948D01*
X134526274Y-63053405D01*
X134732219Y-63138710D01*
X134947537Y-63196404D01*
X135168543Y-63225500D01*
X135168544Y-63225500D01*
X135391456Y-63225500D01*
X135391457Y-63225500D01*
X135612463Y-63196404D01*
X135827781Y-63138710D01*
X136033726Y-63053405D01*
X136226774Y-62941948D01*
X136403624Y-62806247D01*
X136561247Y-62648624D01*
X136696948Y-62471774D01*
X136808405Y-62278726D01*
X136893710Y-62072781D01*
X136951404Y-61857463D01*
X136980500Y-61636457D01*
X136980500Y-61413543D01*
X136951404Y-61192537D01*
X136893710Y-60977219D01*
X136808405Y-60771274D01*
X136718688Y-60615882D01*
X136710036Y-60590392D01*
X136708665Y-60579980D01*
X136722332Y-60528969D01*
X136722842Y-60528303D01*
X136759724Y-60503677D01*
X136762828Y-60502845D01*
X136780668Y-60500500D01*
X147416776Y-60500500D01*
X147443175Y-60505750D01*
X147452883Y-60509771D01*
X147490225Y-60547110D01*
X147494248Y-60556822D01*
X147499500Y-60583224D01*
X147499500Y-103416775D01*
X147494248Y-103443180D01*
X147490228Y-103452885D01*
X147452889Y-103490225D01*
X147443179Y-103494247D01*
X147416776Y-103499500D01*
X101583224Y-103499500D01*
X101556822Y-103494248D01*
X101547112Y-103490226D01*
X101509773Y-103452887D01*
X101505749Y-103443173D01*
X101500500Y-103416775D01*
X101500500Y-99896866D01*
X102689500Y-99896866D01*
X102689500Y-100103132D01*
X102689502Y-100103160D01*
X102689502Y-100103162D01*
X102721763Y-100306849D01*
X102721767Y-100306869D01*
X102721771Y-100306884D01*
X102735943Y-100350500D01*
X102773565Y-100466289D01*
X102785681Y-100503576D01*
X102786742Y-100505471D01*
X102879160Y-100686853D01*
X102879162Y-100686856D01*
X102879166Y-100686862D01*
X102879174Y-100686874D01*
X102999211Y-100852089D01*
X103000397Y-100853721D01*
X103000405Y-100853730D01*
X103000407Y-100853733D01*
X103000605Y-100853931D01*
X103000609Y-100853936D01*
X103146259Y-100999586D01*
X103146264Y-100999590D01*
X103146267Y-100999593D01*
X103146270Y-100999595D01*
X103146278Y-100999602D01*
X103146282Y-100999605D01*
X103146556Y-100999829D01*
X103147367Y-101000394D01*
X103313141Y-101120836D01*
X103313154Y-101120844D01*
X103313415Y-101120976D01*
X103496930Y-101214482D01*
X103496934Y-101214483D01*
X103496943Y-101214488D01*
X103693124Y-101278231D01*
X103896861Y-101310500D01*
X103896863Y-101310500D01*
X104103137Y-101310500D01*
X104103139Y-101310500D01*
X104306876Y-101278231D01*
X104503057Y-101214488D01*
X104686852Y-101120840D01*
X104852631Y-101000394D01*
X104853721Y-100999602D01*
X104853723Y-100999600D01*
X104853733Y-100999593D01*
X104999593Y-100853733D01*
X105000788Y-100852089D01*
X105120837Y-100686856D01*
X105120839Y-100686853D01*
X105120840Y-100686852D01*
X105214488Y-100503057D01*
X105278231Y-100306876D01*
X105310500Y-100103139D01*
X105310500Y-99896861D01*
X105278231Y-99693124D01*
X105214488Y-99496943D01*
X105214483Y-99496934D01*
X105214482Y-99496930D01*
X105120976Y-99313415D01*
X105120844Y-99313154D01*
X105120836Y-99313141D01*
X104999605Y-99146281D01*
X104999604Y-99146280D01*
X104999584Y-99146257D01*
X104853741Y-99000414D01*
X104853718Y-99000394D01*
X104853717Y-99000393D01*
X104686874Y-98879174D01*
X104686861Y-98879166D01*
X104686856Y-98879162D01*
X104686853Y-98879160D01*
X104681850Y-98876611D01*
X104593205Y-98831443D01*
X104593205Y-98831444D01*
X104503059Y-98785513D01*
X104503058Y-98785512D01*
X104503057Y-98785512D01*
X104422973Y-98759491D01*
X104422972Y-98759490D01*
X104306893Y-98721774D01*
X104306887Y-98721772D01*
X104306884Y-98721771D01*
X104306879Y-98721769D01*
X104306877Y-98721769D01*
X104306874Y-98721768D01*
X104306849Y-98721763D01*
X104103171Y-98689503D01*
X104103147Y-98689500D01*
X104103140Y-98689500D01*
X104103139Y-98689500D01*
X103896861Y-98689500D01*
X103896859Y-98689500D01*
X103896851Y-98689500D01*
X103896827Y-98689503D01*
X103693149Y-98721763D01*
X103693124Y-98721768D01*
X103693115Y-98721771D01*
X103496946Y-98785511D01*
X103496941Y-98785513D01*
X103346803Y-98862011D01*
X103313146Y-98879160D01*
X103313124Y-98879174D01*
X103146281Y-99000393D01*
X103146280Y-99000394D01*
X103146257Y-99000414D01*
X103000414Y-99146257D01*
X103000394Y-99146280D01*
X103000393Y-99146281D01*
X102879174Y-99313124D01*
X102879163Y-99313141D01*
X102879162Y-99313143D01*
X102879160Y-99313146D01*
X102785513Y-99496941D01*
X102785511Y-99496946D01*
X102775588Y-99527487D01*
X102721772Y-99693112D01*
X102721768Y-99693124D01*
X102721763Y-99693149D01*
X102689502Y-99896836D01*
X102689502Y-99896838D01*
X102689500Y-99896866D01*
X101500500Y-99896866D01*
X101500500Y-97872689D01*
X109000000Y-97872689D01*
X109000000Y-98077310D01*
X109000001Y-98077324D01*
X109032008Y-98279410D01*
X109032012Y-98279425D01*
X109095242Y-98474025D01*
X109095245Y-98474033D01*
X109142512Y-98566799D01*
X109142513Y-98566799D01*
X109679537Y-98029776D01*
X109728326Y-98009567D01*
X109777116Y-98029777D01*
X109794974Y-98060707D01*
X109799422Y-98077306D01*
X109824756Y-98171857D01*
X109891894Y-98288141D01*
X109891896Y-98288144D01*
X109891898Y-98288147D01*
X109891900Y-98288149D01*
X109891903Y-98288153D01*
X109986846Y-98383096D01*
X109986850Y-98383099D01*
X109986853Y-98383102D01*
X109986857Y-98383104D01*
X109986858Y-98383105D01*
X110103142Y-98450243D01*
X110103141Y-98450243D01*
X110103145Y-98450244D01*
X110103147Y-98450245D01*
X110214290Y-98480025D01*
X110256186Y-98512172D01*
X110263080Y-98564531D01*
X110245221Y-98595463D01*
X109853189Y-98987494D01*
X109708199Y-99132484D01*
X109708199Y-99132486D01*
X109785038Y-99171638D01*
X109794268Y-99176341D01*
X109807636Y-99185316D01*
X109807758Y-99185356D01*
X109816731Y-99193021D01*
X109816791Y-99193138D01*
X109816898Y-99193231D01*
X109822427Y-99204202D01*
X109840703Y-99240077D01*
X109840626Y-99240313D01*
X109840665Y-99240391D01*
X109836269Y-99253717D01*
X109824379Y-99290301D01*
X109824158Y-99290437D01*
X109824123Y-99290544D01*
X109823366Y-99290925D01*
X109788391Y-99312489D01*
X109788330Y-99312504D01*
X109778086Y-99313745D01*
X109776963Y-99314311D01*
X109776009Y-99313996D01*
X109771854Y-99314500D01*
X109280249Y-99314500D01*
X109251010Y-99320315D01*
X109251010Y-99320316D01*
X109221768Y-99326133D01*
X109155447Y-99370447D01*
X109111133Y-99436767D01*
X109101148Y-99486968D01*
X109099500Y-99495252D01*
X109099500Y-101534747D01*
X109111133Y-101593231D01*
X109155447Y-101659552D01*
X109199762Y-101689162D01*
X109221769Y-101703867D01*
X109280252Y-101715500D01*
X109280253Y-101715500D01*
X111319747Y-101715500D01*
X111319748Y-101715500D01*
X111378231Y-101703867D01*
X111444552Y-101659552D01*
X111488867Y-101593231D01*
X111500500Y-101534748D01*
X111500500Y-99495252D01*
X111488867Y-99436769D01*
X111462184Y-99396836D01*
X111462184Y-99396835D01*
X111444553Y-99370449D01*
X111444552Y-99370447D01*
X111378231Y-99326133D01*
X111319748Y-99314500D01*
X111319747Y-99314500D01*
X110833704Y-99314500D01*
X110821274Y-99309351D01*
X110807296Y-99309246D01*
X110801283Y-99306755D01*
X110791579Y-99297051D01*
X110784914Y-99294290D01*
X110777418Y-99282888D01*
X110763942Y-99269411D01*
X110763945Y-99216601D01*
X110791636Y-99184178D01*
X110795689Y-99181694D01*
X110800408Y-99179053D01*
X110891797Y-99132487D01*
X110891796Y-99132487D01*
X110891799Y-99132486D01*
X110891799Y-99132484D01*
X110354778Y-98595463D01*
X110334568Y-98546673D01*
X110354778Y-98497883D01*
X110385706Y-98480026D01*
X110496853Y-98450245D01*
X110496855Y-98450243D01*
X110496857Y-98450243D01*
X110610178Y-98384816D01*
X110613147Y-98383102D01*
X110708102Y-98288147D01*
X110775245Y-98171853D01*
X110805025Y-98060707D01*
X110837172Y-98018813D01*
X110889531Y-98011919D01*
X110920463Y-98029778D01*
X111457484Y-98566799D01*
X111457485Y-98566799D01*
X111457486Y-98566799D01*
X111504756Y-98474027D01*
X111504757Y-98474025D01*
X111567987Y-98279425D01*
X111567991Y-98279410D01*
X111599998Y-98077324D01*
X111600000Y-98077310D01*
X111600000Y-97872689D01*
X111599998Y-97872675D01*
X111567991Y-97670589D01*
X111567987Y-97670574D01*
X111504757Y-97475974D01*
X111504754Y-97475966D01*
X111499166Y-97465000D01*
X111457486Y-97383199D01*
X111457484Y-97383199D01*
X110920463Y-97920220D01*
X110871673Y-97940430D01*
X110822883Y-97920220D01*
X110805025Y-97889289D01*
X110775245Y-97778147D01*
X110775243Y-97778144D01*
X110775243Y-97778142D01*
X110708105Y-97661858D01*
X110708104Y-97661857D01*
X110708102Y-97661853D01*
X110708099Y-97661850D01*
X110708096Y-97661846D01*
X110613153Y-97566903D01*
X110613149Y-97566900D01*
X110613147Y-97566898D01*
X110613144Y-97566896D01*
X110613141Y-97566894D01*
X110496857Y-97499756D01*
X110408062Y-97475964D01*
X110385709Y-97469974D01*
X110343812Y-97437826D01*
X110336919Y-97385468D01*
X110354777Y-97354537D01*
X110891799Y-96817513D01*
X110891799Y-96817512D01*
X110891797Y-96817510D01*
X110799037Y-96770246D01*
X110798043Y-96769874D01*
X110796762Y-96769507D01*
X110652255Y-96722553D01*
X110628765Y-96709397D01*
X110623117Y-96704573D01*
X110599143Y-96657519D01*
X110615462Y-96607294D01*
X110617623Y-96604764D01*
X110648762Y-96583960D01*
X110760832Y-96547547D01*
X110929199Y-96461760D01*
X111080971Y-96351491D01*
X111082061Y-96350699D01*
X111082063Y-96350697D01*
X111082073Y-96350690D01*
X111215690Y-96217073D01*
X111326760Y-96064199D01*
X111412547Y-95895832D01*
X111470940Y-95716118D01*
X111500500Y-95529481D01*
X111500500Y-95340519D01*
X111470940Y-95153882D01*
X111412547Y-94974168D01*
X111412545Y-94974165D01*
X111412544Y-94974161D01*
X111326896Y-94806068D01*
X111326764Y-94805807D01*
X111326756Y-94805794D01*
X111229816Y-94672369D01*
X111215701Y-94652940D01*
X111215681Y-94652917D01*
X111082081Y-94519317D01*
X111082058Y-94519297D01*
X110929221Y-94408254D01*
X110929209Y-94408246D01*
X110929203Y-94408242D01*
X110929200Y-94408240D01*
X110846559Y-94366133D01*
X110846559Y-94366132D01*
X110846557Y-94366132D01*
X110760837Y-94322455D01*
X110760833Y-94322453D01*
X110760832Y-94322453D01*
X110760829Y-94322452D01*
X110760821Y-94322449D01*
X110760797Y-94322441D01*
X110647172Y-94285522D01*
X110581126Y-94264062D01*
X110581121Y-94264060D01*
X110581116Y-94264059D01*
X110581091Y-94264054D01*
X110394513Y-94234503D01*
X110394489Y-94234500D01*
X110394482Y-94234500D01*
X110394481Y-94234500D01*
X110205519Y-94234500D01*
X110205517Y-94234500D01*
X110205509Y-94234500D01*
X110205485Y-94234503D01*
X110018907Y-94264054D01*
X110018882Y-94264059D01*
X110018870Y-94264063D01*
X109839172Y-94322451D01*
X109670799Y-94408240D01*
X109670777Y-94408254D01*
X109517941Y-94519297D01*
X109517940Y-94519297D01*
X109517917Y-94519317D01*
X109384317Y-94652917D01*
X109384297Y-94652940D01*
X109384297Y-94652941D01*
X109273254Y-94805777D01*
X109273240Y-94805799D01*
X109187451Y-94974172D01*
X109129063Y-95153870D01*
X109129059Y-95153882D01*
X109129058Y-95153888D01*
X109099501Y-95340507D01*
X109099500Y-95340524D01*
X109099500Y-95529474D01*
X109099501Y-95529491D01*
X109129058Y-95716110D01*
X109129059Y-95716116D01*
X109129063Y-95716128D01*
X109187441Y-95895797D01*
X109187455Y-95895837D01*
X109231132Y-95981557D01*
X109231132Y-95981559D01*
X109231133Y-95981559D01*
X109273240Y-96064200D01*
X109273242Y-96064203D01*
X109273246Y-96064209D01*
X109273254Y-96064221D01*
X109383091Y-96215398D01*
X109383109Y-96215422D01*
X109384300Y-96217061D01*
X109384308Y-96217070D01*
X109384310Y-96217073D01*
X109384510Y-96217273D01*
X109384514Y-96217278D01*
X109517919Y-96350683D01*
X109517924Y-96350687D01*
X109517927Y-96350690D01*
X109517930Y-96350692D01*
X109517938Y-96350699D01*
X109517942Y-96350702D01*
X109518216Y-96350926D01*
X109519027Y-96351491D01*
X109670794Y-96461756D01*
X109670807Y-96461764D01*
X109671068Y-96461896D01*
X109839155Y-96547541D01*
X109839159Y-96547542D01*
X109839168Y-96547547D01*
X109947745Y-96582825D01*
X109971238Y-96595984D01*
X109976885Y-96600808D01*
X110000856Y-96647864D01*
X109984533Y-96698087D01*
X109982377Y-96700611D01*
X109951235Y-96721418D01*
X109800969Y-96770244D01*
X109708199Y-96817512D01*
X109708199Y-96817513D01*
X110245221Y-97354536D01*
X110265431Y-97403326D01*
X110245221Y-97452116D01*
X110214289Y-97469975D01*
X110103142Y-97499756D01*
X109986858Y-97566894D01*
X109986846Y-97566903D01*
X109891903Y-97661846D01*
X109891894Y-97661858D01*
X109824756Y-97778142D01*
X109794975Y-97889289D01*
X109762826Y-97931187D01*
X109710468Y-97938080D01*
X109679536Y-97920221D01*
X109142513Y-97383199D01*
X109142512Y-97383199D01*
X109095244Y-97475970D01*
X109095242Y-97475976D01*
X109032016Y-97670564D01*
X109032011Y-97670578D01*
X109032009Y-97670583D01*
X109032008Y-97670587D01*
X109032008Y-97670589D01*
X109000001Y-97872675D01*
X109000000Y-97872689D01*
X101500500Y-97872689D01*
X101500500Y-92779320D01*
X102996363Y-92779320D01*
X102996363Y-92779321D01*
X103046447Y-92800066D01*
X103059154Y-92812773D01*
X103093727Y-92819650D01*
X103093726Y-92819650D01*
X103118373Y-92824552D01*
X103296577Y-92860000D01*
X103296581Y-92860000D01*
X103503418Y-92860000D01*
X103503419Y-92860000D01*
X103706243Y-92819656D01*
X103706244Y-92819656D01*
X103706247Y-92819655D01*
X103706273Y-92819650D01*
X103706277Y-92819649D01*
X103752447Y-92800524D01*
X109099500Y-92800524D01*
X109099500Y-92989474D01*
X109099501Y-92989491D01*
X109129058Y-93176110D01*
X109129059Y-93176116D01*
X109129063Y-93176128D01*
X109144096Y-93222395D01*
X109187452Y-93355830D01*
X109187455Y-93355838D01*
X109226282Y-93432039D01*
X109226282Y-93432040D01*
X109226283Y-93432040D01*
X109273240Y-93524200D01*
X109273242Y-93524203D01*
X109273246Y-93524209D01*
X109273254Y-93524221D01*
X109383105Y-93675418D01*
X109383137Y-93675460D01*
X109384300Y-93677061D01*
X109384308Y-93677070D01*
X109384310Y-93677073D01*
X109384506Y-93677269D01*
X109384510Y-93677274D01*
X109517919Y-93810683D01*
X109517924Y-93810687D01*
X109517927Y-93810690D01*
X109517930Y-93810692D01*
X109517938Y-93810699D01*
X109517942Y-93810702D01*
X109518216Y-93810926D01*
X109519027Y-93811491D01*
X109670794Y-93921756D01*
X109670807Y-93921764D01*
X109671068Y-93921896D01*
X109839161Y-94007544D01*
X109839165Y-94007545D01*
X109839168Y-94007547D01*
X110013731Y-94064266D01*
X110017087Y-94065656D01*
X110157853Y-94087951D01*
X110157854Y-94087951D01*
X110168902Y-94089700D01*
X110205519Y-94095500D01*
X110205521Y-94095500D01*
X110394479Y-94095500D01*
X110394481Y-94095500D01*
X110581118Y-94065940D01*
X110760832Y-94007547D01*
X110929199Y-93921760D01*
X111002469Y-93868526D01*
X111081606Y-93811029D01*
X111082024Y-93810731D01*
X111082067Y-93810694D01*
X111082066Y-93810694D01*
X111082073Y-93810690D01*
X111215690Y-93677073D01*
X111235521Y-93649779D01*
X111326757Y-93524203D01*
X111326759Y-93524200D01*
X111326760Y-93524199D01*
X111412547Y-93355832D01*
X111470940Y-93176118D01*
X111500500Y-92989481D01*
X111500500Y-92800519D01*
X111497142Y-92779320D01*
X111470941Y-92613888D01*
X111470940Y-92613887D01*
X111470940Y-92613882D01*
X111470937Y-92613875D01*
X111470654Y-92612083D01*
X111469265Y-92608728D01*
X111454145Y-92562195D01*
X111412547Y-92434168D01*
X111412545Y-92434165D01*
X111412544Y-92434161D01*
X111326896Y-92266068D01*
X111326764Y-92265807D01*
X111326756Y-92265794D01*
X111218101Y-92116244D01*
X111215701Y-92112940D01*
X111215681Y-92112917D01*
X111082081Y-91979317D01*
X111082058Y-91979297D01*
X110929221Y-91868254D01*
X110929209Y-91868246D01*
X110929203Y-91868242D01*
X110929200Y-91868240D01*
X110814894Y-91809999D01*
X110814894Y-91809998D01*
X110814893Y-91809998D01*
X110760838Y-91782455D01*
X110760830Y-91782452D01*
X110683540Y-91757339D01*
X110683539Y-91757338D01*
X110616104Y-91735427D01*
X110581126Y-91724062D01*
X110581121Y-91724060D01*
X110581116Y-91724059D01*
X110581091Y-91724054D01*
X110394513Y-91694503D01*
X110394489Y-91694500D01*
X110394482Y-91694500D01*
X110394481Y-91694500D01*
X110205519Y-91694500D01*
X110205517Y-91694500D01*
X110205509Y-91694500D01*
X110205485Y-91694503D01*
X110018907Y-91724054D01*
X110018882Y-91724059D01*
X110018870Y-91724063D01*
X109839172Y-91782451D01*
X109670799Y-91868240D01*
X109670777Y-91868254D01*
X109517941Y-91979297D01*
X109517940Y-91979297D01*
X109517917Y-91979317D01*
X109384317Y-92112917D01*
X109384297Y-92112940D01*
X109384297Y-92112941D01*
X109273254Y-92265777D01*
X109273240Y-92265799D01*
X109187452Y-92434170D01*
X109129063Y-92613870D01*
X109129059Y-92613882D01*
X109129058Y-92613887D01*
X109129058Y-92613888D01*
X109099501Y-92800506D01*
X109099501Y-92800515D01*
X109099500Y-92800524D01*
X103752447Y-92800524D01*
X103803634Y-92779321D01*
X103803634Y-92779320D01*
X103803634Y-92779319D01*
X103400001Y-92375686D01*
X103399999Y-92375686D01*
X102996363Y-92779320D01*
X101500500Y-92779320D01*
X101500500Y-91706576D01*
X102350000Y-91706576D01*
X102350000Y-91913422D01*
X102390347Y-92116266D01*
X102390355Y-92116285D01*
X102417881Y-92182740D01*
X102430678Y-92213633D01*
X102430678Y-92213634D01*
X102834314Y-91810000D01*
X102834314Y-91809999D01*
X102781654Y-91757339D01*
X103000000Y-91757339D01*
X103000000Y-91862661D01*
X103013601Y-91913422D01*
X103027259Y-91964395D01*
X103079917Y-92055603D01*
X103154396Y-92130082D01*
X103245604Y-92182740D01*
X103245606Y-92182741D01*
X103347339Y-92210000D01*
X103452660Y-92210000D01*
X103452661Y-92210000D01*
X103554394Y-92182741D01*
X103645606Y-92130080D01*
X103720080Y-92055606D01*
X103772741Y-91964394D01*
X103800000Y-91862661D01*
X103800000Y-91809999D01*
X103965685Y-91809999D01*
X104369319Y-92213635D01*
X104369320Y-92213635D01*
X104409646Y-92116285D01*
X104409646Y-92116284D01*
X104409645Y-92116284D01*
X104409649Y-92116277D01*
X104409650Y-92116273D01*
X104450000Y-91913419D01*
X104450000Y-91706580D01*
X104409650Y-91503727D01*
X104369321Y-91406363D01*
X104369320Y-91406363D01*
X103965686Y-91809998D01*
X103965686Y-91809999D01*
X103965685Y-91809999D01*
X103800000Y-91809999D01*
X103800000Y-91757339D01*
X103772741Y-91655606D01*
X103772740Y-91655604D01*
X103720082Y-91564396D01*
X103645603Y-91489917D01*
X103554395Y-91437259D01*
X103503527Y-91423629D01*
X103452661Y-91410000D01*
X103452660Y-91410000D01*
X103347340Y-91410000D01*
X103347339Y-91410000D01*
X103313428Y-91419086D01*
X103245604Y-91437259D01*
X103154396Y-91489917D01*
X103079917Y-91564396D01*
X103027259Y-91655604D01*
X103008917Y-91724059D01*
X103000000Y-91757339D01*
X102781654Y-91757339D01*
X102430678Y-91406364D01*
X102390348Y-91503732D01*
X102350000Y-91706576D01*
X101500500Y-91706576D01*
X101500500Y-90840678D01*
X102996364Y-90840678D01*
X103399999Y-91244314D01*
X103400000Y-91244314D01*
X103400001Y-91244314D01*
X103803635Y-90840678D01*
X103706270Y-90800349D01*
X103706266Y-90800348D01*
X103503422Y-90760000D01*
X103503419Y-90760000D01*
X103296581Y-90760000D01*
X103296578Y-90760000D01*
X103093732Y-90800348D01*
X103093730Y-90800348D01*
X103093729Y-90800349D01*
X102996364Y-90840678D01*
X101500500Y-90840678D01*
X101500500Y-90239320D01*
X102996363Y-90239320D01*
X102996363Y-90239321D01*
X103046447Y-90260066D01*
X103059154Y-90272773D01*
X103093727Y-90279650D01*
X103093726Y-90279650D01*
X103118373Y-90284552D01*
X103296577Y-90320000D01*
X103296581Y-90320000D01*
X103503418Y-90320000D01*
X103503419Y-90320000D01*
X103706243Y-90279656D01*
X103706244Y-90279656D01*
X103706247Y-90279655D01*
X103706273Y-90279650D01*
X103706277Y-90279649D01*
X103752447Y-90260524D01*
X109099500Y-90260524D01*
X109099500Y-90449474D01*
X109099501Y-90449491D01*
X109129058Y-90636110D01*
X109129059Y-90636116D01*
X109129063Y-90636128D01*
X109169312Y-90760000D01*
X109187453Y-90815833D01*
X109200112Y-90840676D01*
X109200112Y-90840678D01*
X109200113Y-90840678D01*
X109273240Y-90984200D01*
X109273242Y-90984203D01*
X109273246Y-90984209D01*
X109273254Y-90984221D01*
X109383091Y-91135398D01*
X109383109Y-91135422D01*
X109384300Y-91137061D01*
X109384308Y-91137070D01*
X109384310Y-91137073D01*
X109384510Y-91137273D01*
X109384514Y-91137278D01*
X109517919Y-91270683D01*
X109517924Y-91270687D01*
X109517927Y-91270690D01*
X109517930Y-91270692D01*
X109517938Y-91270699D01*
X109517942Y-91270702D01*
X109518216Y-91270926D01*
X109519027Y-91271491D01*
X109670794Y-91381756D01*
X109670807Y-91381764D01*
X109671068Y-91381896D01*
X109839161Y-91467544D01*
X109839165Y-91467545D01*
X109839168Y-91467547D01*
X110018882Y-91525940D01*
X110205519Y-91555500D01*
X110205521Y-91555500D01*
X110394479Y-91555500D01*
X110394481Y-91555500D01*
X110581118Y-91525940D01*
X110760832Y-91467547D01*
X110929199Y-91381760D01*
X111080971Y-91271491D01*
X111082061Y-91270699D01*
X111082063Y-91270697D01*
X111082073Y-91270690D01*
X111215690Y-91137073D01*
X111326760Y-90984199D01*
X111412547Y-90815832D01*
X111470940Y-90636118D01*
X111500500Y-90449481D01*
X111500500Y-90260519D01*
X111497142Y-90239320D01*
X111470941Y-90073888D01*
X111470940Y-90073887D01*
X111470940Y-90073882D01*
X111470937Y-90073875D01*
X111470654Y-90072083D01*
X111469265Y-90068728D01*
X111412547Y-89894170D01*
X111412547Y-89894168D01*
X111412545Y-89894165D01*
X111412544Y-89894161D01*
X111326896Y-89726068D01*
X111326764Y-89725807D01*
X111326756Y-89725794D01*
X111218101Y-89576244D01*
X111215701Y-89572940D01*
X111215681Y-89572917D01*
X111082081Y-89439317D01*
X111082058Y-89439297D01*
X110929221Y-89328254D01*
X110929209Y-89328246D01*
X110929203Y-89328242D01*
X110929200Y-89328240D01*
X110814894Y-89269999D01*
X110814894Y-89269998D01*
X110814893Y-89269998D01*
X110760838Y-89242455D01*
X110760830Y-89242452D01*
X110683540Y-89217339D01*
X110683539Y-89217338D01*
X110616104Y-89195427D01*
X110581126Y-89184062D01*
X110581121Y-89184060D01*
X110581116Y-89184059D01*
X110581091Y-89184054D01*
X110394513Y-89154503D01*
X110394489Y-89154500D01*
X110394482Y-89154500D01*
X110394481Y-89154500D01*
X110205519Y-89154500D01*
X110205517Y-89154500D01*
X110205509Y-89154500D01*
X110205485Y-89154503D01*
X110018907Y-89184054D01*
X110018882Y-89184059D01*
X110018870Y-89184063D01*
X109839172Y-89242451D01*
X109670799Y-89328240D01*
X109670777Y-89328254D01*
X109517941Y-89439297D01*
X109517940Y-89439297D01*
X109517917Y-89439317D01*
X109384317Y-89572917D01*
X109384297Y-89572940D01*
X109384297Y-89572941D01*
X109273254Y-89725777D01*
X109273240Y-89725799D01*
X109187451Y-89894172D01*
X109129063Y-90073870D01*
X109129059Y-90073882D01*
X109129058Y-90073887D01*
X109129058Y-90073888D01*
X109099501Y-90260506D01*
X109099501Y-90260515D01*
X109099500Y-90260524D01*
X103752447Y-90260524D01*
X103803634Y-90239321D01*
X103803634Y-90239320D01*
X103803634Y-90239319D01*
X103400001Y-89835686D01*
X103399999Y-89835686D01*
X102996363Y-90239320D01*
X101500500Y-90239320D01*
X101500500Y-89166576D01*
X102350000Y-89166576D01*
X102350000Y-89373422D01*
X102390347Y-89576266D01*
X102390355Y-89576285D01*
X102417881Y-89642740D01*
X102430678Y-89673633D01*
X102430678Y-89673634D01*
X102834314Y-89270000D01*
X102834314Y-89269999D01*
X102781654Y-89217339D01*
X103000000Y-89217339D01*
X103000000Y-89322661D01*
X103013601Y-89373422D01*
X103027259Y-89424395D01*
X103079917Y-89515603D01*
X103154396Y-89590082D01*
X103245604Y-89642740D01*
X103245606Y-89642741D01*
X103347339Y-89670000D01*
X103452660Y-89670000D01*
X103452661Y-89670000D01*
X103554394Y-89642741D01*
X103645606Y-89590080D01*
X103720080Y-89515606D01*
X103736289Y-89487532D01*
X103764135Y-89439300D01*
X103772741Y-89424394D01*
X103800000Y-89322661D01*
X103800000Y-89269999D01*
X103965685Y-89269999D01*
X104369319Y-89673635D01*
X104369320Y-89673635D01*
X104409646Y-89576285D01*
X104409646Y-89576284D01*
X104409645Y-89576284D01*
X104409649Y-89576277D01*
X104409650Y-89576273D01*
X104450000Y-89373419D01*
X104450000Y-89166580D01*
X104409650Y-88963727D01*
X104369321Y-88866363D01*
X104369320Y-88866363D01*
X103965686Y-89269998D01*
X103965686Y-89269999D01*
X103965685Y-89269999D01*
X103800000Y-89269999D01*
X103800000Y-89217339D01*
X103772741Y-89115606D01*
X103772740Y-89115604D01*
X103720082Y-89024396D01*
X103645603Y-88949917D01*
X103554395Y-88897259D01*
X103480450Y-88877446D01*
X103452661Y-88870000D01*
X103452660Y-88870000D01*
X103347340Y-88870000D01*
X103347339Y-88870000D01*
X103319550Y-88877446D01*
X103245604Y-88897259D01*
X103154396Y-88949917D01*
X103079917Y-89024396D01*
X103027259Y-89115604D01*
X103008917Y-89184059D01*
X103000000Y-89217339D01*
X102781654Y-89217339D01*
X102430678Y-88866364D01*
X102390348Y-88963732D01*
X102350000Y-89166576D01*
X101500500Y-89166576D01*
X101500500Y-88300678D01*
X102996364Y-88300678D01*
X103399999Y-88704314D01*
X103400000Y-88704314D01*
X103400001Y-88704314D01*
X103803635Y-88300678D01*
X103706270Y-88260349D01*
X103706266Y-88260348D01*
X103503422Y-88220000D01*
X103503419Y-88220000D01*
X103296581Y-88220000D01*
X103296578Y-88220000D01*
X103093732Y-88260348D01*
X103093730Y-88260348D01*
X103093729Y-88260349D01*
X102996364Y-88300678D01*
X101500500Y-88300678D01*
X101500500Y-87720524D01*
X109099500Y-87720524D01*
X109099500Y-87909474D01*
X109099501Y-87909491D01*
X109129058Y-88096110D01*
X109129059Y-88096116D01*
X109129063Y-88096128D01*
X109158102Y-88185500D01*
X109187453Y-88275833D01*
X109200112Y-88300676D01*
X109200112Y-88300678D01*
X109200113Y-88300678D01*
X109273240Y-88444200D01*
X109273242Y-88444203D01*
X109273246Y-88444209D01*
X109273254Y-88444221D01*
X109383091Y-88595398D01*
X109383109Y-88595422D01*
X109384300Y-88597061D01*
X109384308Y-88597070D01*
X109384310Y-88597073D01*
X109384510Y-88597273D01*
X109384514Y-88597278D01*
X109517919Y-88730683D01*
X109517924Y-88730687D01*
X109517927Y-88730690D01*
X109517930Y-88730692D01*
X109517938Y-88730699D01*
X109517942Y-88730702D01*
X109518216Y-88730926D01*
X109519027Y-88731491D01*
X109670794Y-88841756D01*
X109670807Y-88841764D01*
X109671068Y-88841896D01*
X109839161Y-88927544D01*
X109839165Y-88927545D01*
X109839168Y-88927547D01*
X110018882Y-88985940D01*
X110205519Y-89015500D01*
X110205521Y-89015500D01*
X110394479Y-89015500D01*
X110394481Y-89015500D01*
X110581118Y-88985940D01*
X110760832Y-88927547D01*
X110829667Y-88892473D01*
X110838027Y-88888888D01*
X110870481Y-88877449D01*
X112337638Y-88191985D01*
X112366845Y-88185500D01*
X123619229Y-88185500D01*
X123645634Y-88190752D01*
X123669064Y-88200458D01*
X123691448Y-88215415D01*
X129937507Y-94461474D01*
X130021993Y-94510251D01*
X130116222Y-94535500D01*
X130116225Y-94535500D01*
X130213777Y-94535500D01*
X130213778Y-94535500D01*
X130223514Y-94532891D01*
X130237976Y-94529016D01*
X130246794Y-94527262D01*
X130255709Y-94526088D01*
X130264709Y-94525500D01*
X134731433Y-94525500D01*
X134757839Y-94530753D01*
X134764700Y-94533595D01*
X134802042Y-94570937D01*
X134802042Y-94623746D01*
X134799201Y-94630605D01*
X134785062Y-94651779D01*
X134785114Y-94651817D01*
X134785112Y-94651819D01*
X134785156Y-94651854D01*
X134785138Y-94651876D01*
X134785216Y-94651948D01*
X134784318Y-94652917D01*
X134784293Y-94652946D01*
X134673254Y-94805777D01*
X134673240Y-94805799D01*
X134587451Y-94974172D01*
X134529063Y-95153870D01*
X134529059Y-95153882D01*
X134529058Y-95153888D01*
X134499501Y-95340507D01*
X134499500Y-95340524D01*
X134499500Y-95529474D01*
X134499501Y-95529491D01*
X134529058Y-95716110D01*
X134529059Y-95716116D01*
X134529063Y-95716128D01*
X134587441Y-95895797D01*
X134587455Y-95895837D01*
X134631132Y-95981557D01*
X134631132Y-95981559D01*
X134631133Y-95981559D01*
X134673240Y-96064200D01*
X134673242Y-96064203D01*
X134673246Y-96064209D01*
X134673254Y-96064221D01*
X134783091Y-96215398D01*
X134783109Y-96215422D01*
X134784300Y-96217061D01*
X134784308Y-96217070D01*
X134784310Y-96217073D01*
X134784510Y-96217273D01*
X134784514Y-96217278D01*
X134917919Y-96350683D01*
X134917924Y-96350687D01*
X134917927Y-96350690D01*
X134917930Y-96350692D01*
X134917938Y-96350699D01*
X134917942Y-96350702D01*
X134918216Y-96350926D01*
X134919027Y-96351491D01*
X135070794Y-96461756D01*
X135070807Y-96461764D01*
X135071068Y-96461896D01*
X135239155Y-96547541D01*
X135239159Y-96547542D01*
X135239168Y-96547547D01*
X135347745Y-96582825D01*
X135371238Y-96595984D01*
X135376885Y-96600808D01*
X135400856Y-96647864D01*
X135384533Y-96698087D01*
X135382377Y-96700611D01*
X135351235Y-96721418D01*
X135200969Y-96770244D01*
X135108199Y-96817512D01*
X135108199Y-96817513D01*
X135645221Y-97354536D01*
X135665431Y-97403326D01*
X135645221Y-97452116D01*
X135614289Y-97469975D01*
X135503142Y-97499756D01*
X135386858Y-97566894D01*
X135386846Y-97566903D01*
X135291903Y-97661846D01*
X135291894Y-97661858D01*
X135224756Y-97778142D01*
X135194975Y-97889289D01*
X135162826Y-97931187D01*
X135110468Y-97938080D01*
X135079536Y-97920221D01*
X134542513Y-97383199D01*
X134542512Y-97383199D01*
X134495244Y-97475970D01*
X134495242Y-97475976D01*
X134432016Y-97670564D01*
X134432011Y-97670578D01*
X134432009Y-97670583D01*
X134432008Y-97670587D01*
X134432008Y-97670589D01*
X134400001Y-97872675D01*
X134400000Y-97872689D01*
X134400000Y-98077310D01*
X134400001Y-98077324D01*
X134432008Y-98279410D01*
X134432012Y-98279425D01*
X134495242Y-98474025D01*
X134495245Y-98474033D01*
X134542512Y-98566799D01*
X134542513Y-98566799D01*
X135079537Y-98029776D01*
X135128326Y-98009567D01*
X135177116Y-98029777D01*
X135194974Y-98060707D01*
X135199422Y-98077306D01*
X135224756Y-98171857D01*
X135291894Y-98288141D01*
X135291896Y-98288144D01*
X135291898Y-98288147D01*
X135291900Y-98288149D01*
X135291903Y-98288153D01*
X135386846Y-98383096D01*
X135386850Y-98383099D01*
X135386853Y-98383102D01*
X135386857Y-98383104D01*
X135386858Y-98383105D01*
X135503142Y-98450243D01*
X135503141Y-98450243D01*
X135503145Y-98450244D01*
X135503147Y-98450245D01*
X135614290Y-98480025D01*
X135656186Y-98512172D01*
X135663080Y-98564531D01*
X135645221Y-98595463D01*
X135253189Y-98987494D01*
X135108199Y-99132484D01*
X135108199Y-99132486D01*
X135185038Y-99171638D01*
X135194268Y-99176341D01*
X135207636Y-99185316D01*
X135207758Y-99185356D01*
X135216731Y-99193021D01*
X135216791Y-99193138D01*
X135216898Y-99193231D01*
X135222427Y-99204202D01*
X135240703Y-99240077D01*
X135240626Y-99240313D01*
X135240665Y-99240391D01*
X135236269Y-99253717D01*
X135224379Y-99290301D01*
X135224158Y-99290437D01*
X135224123Y-99290544D01*
X135223366Y-99290925D01*
X135188391Y-99312489D01*
X135188330Y-99312504D01*
X135178086Y-99313745D01*
X135176963Y-99314311D01*
X135176009Y-99313996D01*
X135171854Y-99314500D01*
X134680249Y-99314500D01*
X134651010Y-99320315D01*
X134651010Y-99320316D01*
X134621768Y-99326133D01*
X134555447Y-99370447D01*
X134511133Y-99436767D01*
X134501148Y-99486968D01*
X134499500Y-99495252D01*
X134499500Y-101534747D01*
X134511133Y-101593231D01*
X134555447Y-101659552D01*
X134599762Y-101689162D01*
X134621769Y-101703867D01*
X134680252Y-101715500D01*
X134716421Y-101715500D01*
X134751921Y-101725333D01*
X134787271Y-101746543D01*
X136451528Y-102745097D01*
X136464341Y-102755002D01*
X136464549Y-102755206D01*
X136553457Y-102844114D01*
X136553466Y-102844120D01*
X136668182Y-102920771D01*
X136668189Y-102920775D01*
X136795672Y-102973580D01*
X136795673Y-102973580D01*
X136795675Y-102973581D01*
X136886300Y-102991606D01*
X136886301Y-102991607D01*
X136886302Y-102991607D01*
X136931006Y-103000500D01*
X136931007Y-103000500D01*
X142268992Y-103000500D01*
X142268993Y-103000500D01*
X142268994Y-103000500D01*
X142335748Y-102987221D01*
X142404324Y-102973581D01*
X142404324Y-102973580D01*
X142404328Y-102973580D01*
X142531811Y-102920775D01*
X142646543Y-102844114D01*
X143744114Y-101746543D01*
X143820775Y-101631811D01*
X143873580Y-101504328D01*
X143900500Y-101368994D01*
X143900500Y-101231006D01*
X143878614Y-101120976D01*
X143873581Y-101095674D01*
X143833780Y-100999586D01*
X143820775Y-100968188D01*
X143820772Y-100968183D01*
X143820770Y-100968180D01*
X143817811Y-100963750D01*
X143809157Y-100945451D01*
X143803471Y-100926707D01*
X143800500Y-100906677D01*
X143800500Y-100290950D01*
X143805749Y-100264553D01*
X143809771Y-100254842D01*
X143847107Y-100217501D01*
X143850546Y-100216076D01*
X143899728Y-100214701D01*
X143965301Y-100237646D01*
X143967109Y-100237815D01*
X143967124Y-100237823D01*
X143967125Y-100237817D01*
X143970559Y-100238138D01*
X143995735Y-100240500D01*
X146004264Y-100240499D01*
X146034698Y-100237646D01*
X146162882Y-100192793D01*
X146272150Y-100112150D01*
X146352793Y-100002882D01*
X146397646Y-99874698D01*
X146400500Y-99844265D01*
X146400499Y-97835736D01*
X146397646Y-97805302D01*
X146352793Y-97677118D01*
X146352790Y-97677113D01*
X146352787Y-97677109D01*
X146352780Y-97677098D01*
X146272150Y-97567848D01*
X146162900Y-97487218D01*
X146162886Y-97487209D01*
X146162878Y-97487204D01*
X146034699Y-97442353D01*
X146015219Y-97440527D01*
X146015218Y-97440526D01*
X146006141Y-97439675D01*
X146004265Y-97439500D01*
X146004263Y-97439500D01*
X143995745Y-97439500D01*
X143995740Y-97439500D01*
X143965300Y-97442354D01*
X143965297Y-97442354D01*
X143904146Y-97463751D01*
X143903038Y-97464098D01*
X143901225Y-97463934D01*
X143878583Y-97467131D01*
X143868097Y-97466542D01*
X143853824Y-97459668D01*
X143850440Y-97459364D01*
X143848589Y-97457147D01*
X143820517Y-97443628D01*
X143820514Y-97443625D01*
X143819378Y-97442354D01*
X143818046Y-97440863D01*
X143800500Y-97394890D01*
X143800500Y-94717787D01*
X143805750Y-94691388D01*
X143808595Y-94684519D01*
X143845934Y-94647178D01*
X143898742Y-94647176D01*
X143898755Y-94647181D01*
X143901820Y-94648451D01*
X143929776Y-94670488D01*
X143929829Y-94670436D01*
X143929838Y-94670445D01*
X143930000Y-94670307D01*
X143930934Y-94671401D01*
X143931222Y-94671628D01*
X143931754Y-94672360D01*
X143931758Y-94672365D01*
X143931762Y-94672369D01*
X144010614Y-94751221D01*
X144087636Y-94828243D01*
X144087640Y-94828247D01*
X144265960Y-94957803D01*
X144265964Y-94957805D01*
X144265973Y-94957812D01*
X144265986Y-94957820D01*
X144265989Y-94957821D01*
X144265999Y-94957828D01*
X144461291Y-95057334D01*
X144461292Y-95057334D01*
X144462381Y-95057889D01*
X144462385Y-95057890D01*
X144462394Y-95057895D01*
X144462396Y-95057895D01*
X144462609Y-95058004D01*
X144463192Y-95058208D01*
X144464616Y-95058617D01*
X144666905Y-95124343D01*
X144670255Y-95125731D01*
X144848030Y-95153888D01*
X144848031Y-95153888D01*
X144889778Y-95160500D01*
X144889780Y-95160500D01*
X145110220Y-95160500D01*
X145110222Y-95160500D01*
X145327951Y-95126015D01*
X145537606Y-95057895D01*
X145537618Y-95057889D01*
X145734013Y-94957820D01*
X145734016Y-94957817D01*
X145734022Y-94957815D01*
X145912365Y-94828242D01*
X146068242Y-94672365D01*
X146074683Y-94663500D01*
X146079413Y-94656991D01*
X146209988Y-94477267D01*
X146209629Y-94472709D01*
X146213785Y-94462680D01*
X146214400Y-94461474D01*
X146297889Y-94297618D01*
X146297889Y-94297617D01*
X146297895Y-94297606D01*
X146297896Y-94297600D01*
X146298138Y-94297127D01*
X146298715Y-94295082D01*
X146366015Y-94087951D01*
X146400500Y-93870222D01*
X146400500Y-93649778D01*
X146366015Y-93432049D01*
X146297895Y-93222394D01*
X146297890Y-93222385D01*
X146297889Y-93222381D01*
X146266664Y-93161099D01*
X146197828Y-93025999D01*
X146197820Y-93025986D01*
X146197812Y-93025973D01*
X146171308Y-92989493D01*
X146068247Y-92847640D01*
X146068232Y-92847624D01*
X145912374Y-92691766D01*
X145912358Y-92691751D01*
X145734038Y-92562195D01*
X145734031Y-92562191D01*
X145734026Y-92562187D01*
X145734013Y-92562179D01*
X145734004Y-92562173D01*
X145537623Y-92462111D01*
X145537615Y-92462108D01*
X145537582Y-92462097D01*
X145451630Y-92434170D01*
X145451602Y-92434161D01*
X145327959Y-92393987D01*
X145327954Y-92393985D01*
X145327949Y-92393984D01*
X145327924Y-92393979D01*
X145110254Y-92359503D01*
X145110230Y-92359500D01*
X145110223Y-92359500D01*
X145110222Y-92359500D01*
X144889778Y-92359500D01*
X144889776Y-92359500D01*
X144889768Y-92359500D01*
X144889744Y-92359503D01*
X144672074Y-92393979D01*
X144672049Y-92393984D01*
X144672037Y-92393988D01*
X144462401Y-92462102D01*
X144462383Y-92462109D01*
X144265989Y-92562176D01*
X144265973Y-92562187D01*
X144265960Y-92562195D01*
X144087640Y-92691751D01*
X144087636Y-92691755D01*
X143931758Y-92847634D01*
X143931018Y-92848523D01*
X143930977Y-92848489D01*
X143930702Y-92848791D01*
X143930511Y-92848616D01*
X143913749Y-92863584D01*
X143907285Y-92867545D01*
X143855125Y-92875805D01*
X143812401Y-92844763D01*
X143812394Y-92844752D01*
X143810660Y-92841921D01*
X143800500Y-92805881D01*
X143800500Y-86290950D01*
X143805749Y-86264553D01*
X143809772Y-86254840D01*
X143809774Y-86254839D01*
X143809774Y-86254836D01*
X143809778Y-86254826D01*
X143829544Y-86235066D01*
X143847107Y-86217501D01*
X143850546Y-86216076D01*
X143899728Y-86214701D01*
X143965301Y-86237646D01*
X143967109Y-86237815D01*
X143967124Y-86237823D01*
X143967125Y-86237817D01*
X143970559Y-86238138D01*
X143995735Y-86240500D01*
X146004264Y-86240499D01*
X146034698Y-86237646D01*
X146162882Y-86192793D01*
X146272150Y-86112150D01*
X146352793Y-86002882D01*
X146397646Y-85874698D01*
X146400500Y-85844265D01*
X146400499Y-83835736D01*
X146397646Y-83805302D01*
X146352793Y-83677118D01*
X146352790Y-83677113D01*
X146352787Y-83677109D01*
X146352780Y-83677098D01*
X146272150Y-83567848D01*
X146162900Y-83487218D01*
X146162886Y-83487209D01*
X146162878Y-83487204D01*
X146034699Y-83442353D01*
X146015219Y-83440527D01*
X146015218Y-83440526D01*
X146006141Y-83439675D01*
X146004265Y-83439500D01*
X146004263Y-83439500D01*
X143995745Y-83439500D01*
X143995740Y-83439500D01*
X143965300Y-83442354D01*
X143965297Y-83442354D01*
X143904146Y-83463751D01*
X143903038Y-83464098D01*
X143901225Y-83463934D01*
X143878583Y-83467131D01*
X143868097Y-83466542D01*
X143853824Y-83459668D01*
X143850440Y-83459364D01*
X143848589Y-83457147D01*
X143820517Y-83443628D01*
X143820514Y-83443625D01*
X143819378Y-83442354D01*
X143818046Y-83440863D01*
X143800500Y-83394890D01*
X143800500Y-82693317D01*
X143803470Y-82673292D01*
X143809156Y-82654546D01*
X143817815Y-82636240D01*
X143820775Y-82631811D01*
X143873580Y-82504329D01*
X143900500Y-82368994D01*
X143900500Y-82231006D01*
X143875595Y-82105801D01*
X143873581Y-82095675D01*
X143820777Y-81968193D01*
X143820773Y-81968186D01*
X143814718Y-81959124D01*
X143806065Y-81940825D01*
X143800379Y-81922080D01*
X143797408Y-81902051D01*
X143797408Y-80713532D01*
X143802658Y-80687133D01*
X143805503Y-80680264D01*
X143842842Y-80642923D01*
X143895650Y-80642921D01*
X143898725Y-80644194D01*
X143928136Y-80667380D01*
X143931758Y-80672365D01*
X143931762Y-80672369D01*
X144083592Y-80824199D01*
X144087636Y-80828243D01*
X144087640Y-80828247D01*
X144265960Y-80957803D01*
X144265964Y-80957805D01*
X144265973Y-80957812D01*
X144265986Y-80957820D01*
X144265989Y-80957821D01*
X144265999Y-80957828D01*
X144461291Y-81057334D01*
X144461292Y-81057334D01*
X144462381Y-81057889D01*
X144462383Y-81057889D01*
X144462610Y-81058005D01*
X144463188Y-81058207D01*
X144464616Y-81058617D01*
X144672049Y-81126015D01*
X144889778Y-81160500D01*
X144889780Y-81160500D01*
X145110220Y-81160500D01*
X145110222Y-81160500D01*
X145327951Y-81126015D01*
X145537606Y-81057895D01*
X145696223Y-80977075D01*
X145729427Y-80960156D01*
X145729650Y-80960063D01*
X145733862Y-80957897D01*
X145733872Y-80957891D01*
X145734013Y-80957820D01*
X145734014Y-80957818D01*
X145734019Y-80957815D01*
X145734022Y-80957815D01*
X145912365Y-80828242D01*
X146068242Y-80672365D01*
X146083752Y-80651018D01*
X146197812Y-80494026D01*
X146209988Y-80477267D01*
X146209629Y-80472709D01*
X146213771Y-80462707D01*
X146297889Y-80297618D01*
X146297889Y-80297616D01*
X146297895Y-80297606D01*
X146297897Y-80297598D01*
X146298140Y-80297122D01*
X146298719Y-80295069D01*
X146300532Y-80289491D01*
X146366015Y-80087951D01*
X146400500Y-79870222D01*
X146400500Y-79649778D01*
X146366015Y-79432049D01*
X146297895Y-79222394D01*
X146297890Y-79222385D01*
X146297889Y-79222381D01*
X146248848Y-79126133D01*
X146197828Y-79025999D01*
X146197820Y-79025986D01*
X146197812Y-79025973D01*
X146197803Y-79025960D01*
X146068247Y-78847640D01*
X146068232Y-78847624D01*
X145912374Y-78691766D01*
X145912358Y-78691751D01*
X145734038Y-78562195D01*
X145734031Y-78562191D01*
X145734026Y-78562187D01*
X145734013Y-78562179D01*
X145734004Y-78562173D01*
X145537623Y-78462111D01*
X145537615Y-78462108D01*
X145537582Y-78462097D01*
X145467721Y-78439398D01*
X145418459Y-78423392D01*
X145327959Y-78393987D01*
X145327954Y-78393985D01*
X145327949Y-78393984D01*
X145327924Y-78393979D01*
X145110254Y-78359503D01*
X145110230Y-78359500D01*
X145110223Y-78359500D01*
X145110222Y-78359500D01*
X144889778Y-78359500D01*
X144889776Y-78359500D01*
X144889768Y-78359500D01*
X144889744Y-78359503D01*
X144672074Y-78393979D01*
X144672049Y-78393984D01*
X144672037Y-78393988D01*
X144462401Y-78462102D01*
X144462383Y-78462109D01*
X144265989Y-78562176D01*
X144265973Y-78562187D01*
X144265960Y-78562195D01*
X144087640Y-78691751D01*
X144087636Y-78691755D01*
X143931755Y-78847637D01*
X143931753Y-78847639D01*
X143931753Y-78847640D01*
X143930294Y-78849648D01*
X143910528Y-78867918D01*
X143904195Y-78871799D01*
X143852035Y-78880061D01*
X143809310Y-78849020D01*
X143809308Y-78849016D01*
X143807574Y-78846186D01*
X143797408Y-78810137D01*
X143797408Y-72249214D01*
X143802657Y-72222817D01*
X143806680Y-72213104D01*
X143806682Y-72213103D01*
X143806682Y-72213100D01*
X143806686Y-72213090D01*
X143826452Y-72193330D01*
X143844015Y-72175765D01*
X143847454Y-72174340D01*
X143896636Y-72172965D01*
X143962209Y-72195910D01*
X143964017Y-72196079D01*
X143964032Y-72196087D01*
X143964033Y-72196081D01*
X143967467Y-72196402D01*
X143992643Y-72198764D01*
X146001172Y-72198763D01*
X146031606Y-72195910D01*
X146159790Y-72151057D01*
X146269058Y-72070414D01*
X146349701Y-71961146D01*
X146394554Y-71832962D01*
X146397408Y-71802529D01*
X146397407Y-69794000D01*
X146394554Y-69763566D01*
X146349701Y-69635382D01*
X146349698Y-69635377D01*
X146349695Y-69635373D01*
X146349688Y-69635362D01*
X146269058Y-69526112D01*
X146159808Y-69445482D01*
X146159794Y-69445473D01*
X146159786Y-69445468D01*
X146031607Y-69400617D01*
X146012127Y-69398791D01*
X146012126Y-69398790D01*
X146003049Y-69397939D01*
X146001173Y-69397764D01*
X146001171Y-69397764D01*
X143992653Y-69397764D01*
X143992648Y-69397764D01*
X143962208Y-69400618D01*
X143962205Y-69400618D01*
X143901054Y-69422015D01*
X143899946Y-69422362D01*
X143898133Y-69422198D01*
X143875491Y-69425395D01*
X143865005Y-69424806D01*
X143850732Y-69417932D01*
X143847348Y-69417628D01*
X143845497Y-69415411D01*
X143817425Y-69401892D01*
X143817422Y-69401889D01*
X143816286Y-69400618D01*
X143814954Y-69399127D01*
X143797408Y-69353154D01*
X143797408Y-68597948D01*
X143800378Y-68577921D01*
X143806066Y-68559167D01*
X143814722Y-68540869D01*
X143820775Y-68531811D01*
X143873580Y-68404328D01*
X143879359Y-68375278D01*
X143893000Y-68306697D01*
X143900500Y-68268994D01*
X143900500Y-68131006D01*
X143874196Y-67998767D01*
X143873581Y-67995674D01*
X143857078Y-67955832D01*
X143857078Y-67955831D01*
X143857078Y-67955830D01*
X143840235Y-67915170D01*
X143820775Y-67868189D01*
X143820771Y-67868183D01*
X143820770Y-67868180D01*
X143744120Y-67753466D01*
X143744120Y-67753465D01*
X143744112Y-67753455D01*
X143646541Y-67655884D01*
X143646501Y-67655857D01*
X143547159Y-67589479D01*
X143531819Y-67579229D01*
X143531813Y-67579226D01*
X143531811Y-67579225D01*
X143440151Y-67541258D01*
X143440150Y-67541257D01*
X143440043Y-67541213D01*
X143404327Y-67526418D01*
X143404324Y-67526417D01*
X143274024Y-67500500D01*
X143274021Y-67500500D01*
X143268994Y-67499500D01*
X143268991Y-67499500D01*
X143131009Y-67499500D01*
X143131006Y-67499500D01*
X143125979Y-67500500D01*
X143125899Y-67500516D01*
X143125378Y-67500619D01*
X143118768Y-67501596D01*
X143112045Y-67502259D01*
X143105273Y-67502592D01*
X143027913Y-67502592D01*
X142998112Y-67508520D01*
X142983211Y-67511484D01*
X142899249Y-67528185D01*
X142894700Y-67528633D01*
X142879902Y-67534763D01*
X142867690Y-67539821D01*
X142776189Y-67577721D01*
X142765092Y-67582318D01*
X142650376Y-67658969D01*
X142650364Y-67658978D01*
X142650356Y-67658986D01*
X142650346Y-67658995D01*
X142552811Y-67756530D01*
X142552802Y-67756540D01*
X142552794Y-67756548D01*
X142552785Y-67756560D01*
X142476134Y-67871276D01*
X142423327Y-67998767D01*
X142396408Y-68134094D01*
X142396408Y-82365904D01*
X142396407Y-82365904D01*
X142397511Y-82371450D01*
X142398504Y-82378138D01*
X142399167Y-82384861D01*
X142399500Y-82391633D01*
X142399500Y-101067538D01*
X142394247Y-101093945D01*
X142384541Y-101117375D01*
X142369584Y-101139758D01*
X141939758Y-101569584D01*
X141917376Y-101584540D01*
X141893947Y-101594246D01*
X141867539Y-101599500D01*
X137424827Y-101599500D01*
X137376037Y-101579290D01*
X137361875Y-101558750D01*
X136906548Y-100544126D01*
X136900500Y-100515876D01*
X136900500Y-99495252D01*
X136897025Y-99477782D01*
X136890108Y-99443009D01*
X136888867Y-99436769D01*
X136862184Y-99396836D01*
X136862184Y-99396835D01*
X136844553Y-99370449D01*
X136844552Y-99370447D01*
X136778231Y-99326133D01*
X136719748Y-99314500D01*
X136719747Y-99314500D01*
X136233704Y-99314500D01*
X136221274Y-99309351D01*
X136207296Y-99309246D01*
X136201283Y-99306755D01*
X136191579Y-99297051D01*
X136184914Y-99294290D01*
X136177418Y-99282888D01*
X136163942Y-99269411D01*
X136163945Y-99216601D01*
X136191636Y-99184178D01*
X136195689Y-99181694D01*
X136200408Y-99179053D01*
X136291797Y-99132487D01*
X136291796Y-99132487D01*
X136291799Y-99132486D01*
X136291799Y-99132484D01*
X135754778Y-98595463D01*
X135734568Y-98546673D01*
X135754778Y-98497883D01*
X135785706Y-98480026D01*
X135896853Y-98450245D01*
X135896855Y-98450243D01*
X135896857Y-98450243D01*
X136010178Y-98384816D01*
X136013147Y-98383102D01*
X136108102Y-98288147D01*
X136175245Y-98171853D01*
X136205025Y-98060707D01*
X136237172Y-98018813D01*
X136289531Y-98011919D01*
X136320463Y-98029778D01*
X136857484Y-98566799D01*
X136857485Y-98566799D01*
X136857486Y-98566799D01*
X136904756Y-98474027D01*
X136904757Y-98474025D01*
X136967987Y-98279425D01*
X136967991Y-98279410D01*
X136999998Y-98077324D01*
X137000000Y-98077310D01*
X137000000Y-97872689D01*
X136999998Y-97872675D01*
X136967991Y-97670589D01*
X136967987Y-97670574D01*
X136904757Y-97475974D01*
X136904754Y-97475966D01*
X136899166Y-97465000D01*
X136857486Y-97383199D01*
X136857484Y-97383199D01*
X136320463Y-97920220D01*
X136271673Y-97940430D01*
X136222883Y-97920220D01*
X136205025Y-97889289D01*
X136175245Y-97778147D01*
X136175243Y-97778144D01*
X136175243Y-97778142D01*
X136108105Y-97661858D01*
X136108104Y-97661857D01*
X136108102Y-97661853D01*
X136108099Y-97661850D01*
X136108096Y-97661846D01*
X136013153Y-97566903D01*
X136013149Y-97566900D01*
X136013147Y-97566898D01*
X136013144Y-97566896D01*
X136013141Y-97566894D01*
X135896857Y-97499756D01*
X135808062Y-97475964D01*
X135785709Y-97469974D01*
X135743812Y-97437826D01*
X135736919Y-97385468D01*
X135754777Y-97354537D01*
X136291799Y-96817513D01*
X136291799Y-96817512D01*
X136291797Y-96817510D01*
X136199037Y-96770246D01*
X136198043Y-96769874D01*
X136196762Y-96769507D01*
X136052255Y-96722553D01*
X136028765Y-96709397D01*
X136023117Y-96704573D01*
X135999143Y-96657519D01*
X136015462Y-96607294D01*
X136017623Y-96604764D01*
X136048762Y-96583960D01*
X136160832Y-96547547D01*
X136329199Y-96461760D01*
X136480971Y-96351491D01*
X136482061Y-96350699D01*
X136482063Y-96350697D01*
X136482073Y-96350690D01*
X136615690Y-96217073D01*
X136726760Y-96064199D01*
X136812547Y-95895832D01*
X136870940Y-95716118D01*
X136900500Y-95529481D01*
X136900500Y-95340519D01*
X136870940Y-95153882D01*
X136812547Y-94974168D01*
X136812545Y-94974165D01*
X136812544Y-94974161D01*
X136726896Y-94806068D01*
X136726764Y-94805807D01*
X136726756Y-94805794D01*
X136629816Y-94672369D01*
X136615701Y-94652940D01*
X136615678Y-94652913D01*
X136614785Y-94651949D01*
X136614861Y-94651877D01*
X136614843Y-94651854D01*
X136614886Y-94651819D01*
X136614885Y-94651817D01*
X136614943Y-94651774D01*
X136600800Y-94630609D01*
X136597957Y-94623747D01*
X136597957Y-94570937D01*
X136635297Y-94533596D01*
X136642168Y-94530750D01*
X136668567Y-94525500D01*
X136859229Y-94525500D01*
X136885635Y-94530753D01*
X136909064Y-94540458D01*
X136931448Y-94555415D01*
X137299584Y-94923550D01*
X137314541Y-94945933D01*
X137324247Y-94969365D01*
X137329500Y-94995770D01*
X137329500Y-99348776D01*
X137335306Y-99370447D01*
X137335307Y-99370448D01*
X137354749Y-99443009D01*
X137374826Y-99477782D01*
X137403522Y-99527487D01*
X137403524Y-99527490D01*
X137403526Y-99527493D01*
X137403530Y-99527498D01*
X137979166Y-100103132D01*
X138050862Y-100174828D01*
X138119845Y-100243811D01*
X138172048Y-100273950D01*
X138204328Y-100292587D01*
X138298558Y-100317836D01*
X138298559Y-100317836D01*
X139980515Y-100317836D01*
X139998646Y-100320260D01*
X140534810Y-100466291D01*
X140541790Y-100467018D01*
X140552482Y-100468995D01*
X140660115Y-100497836D01*
X140660118Y-100497836D01*
X140805062Y-100497836D01*
X140805065Y-100497836D01*
X140945075Y-100460320D01*
X141070605Y-100387845D01*
X141173099Y-100285351D01*
X141206825Y-100226933D01*
X141224574Y-100206694D01*
X141226453Y-100205251D01*
X141232906Y-100200299D01*
X141283916Y-100186629D01*
X141283922Y-100186630D01*
X141288554Y-100187240D01*
X141328335Y-100206859D01*
X141361985Y-100240509D01*
X141487515Y-100312984D01*
X141627525Y-100350500D01*
X141627528Y-100350500D01*
X141772472Y-100350500D01*
X141772475Y-100350500D01*
X141912485Y-100312984D01*
X142038015Y-100240509D01*
X142140509Y-100138015D01*
X142212984Y-100012485D01*
X142250500Y-99872475D01*
X142250500Y-99727525D01*
X142250226Y-99725449D01*
X142248357Y-99713547D01*
X142248187Y-99710103D01*
X142220835Y-99526455D01*
X142155024Y-99084576D01*
X142155023Y-99084572D01*
X142155021Y-99084558D01*
X142152277Y-99072710D01*
X142150500Y-99057150D01*
X142150500Y-90141135D01*
X142154064Y-90120629D01*
X142153918Y-90120593D01*
X142154416Y-90118605D01*
X142154549Y-90117846D01*
X142154551Y-90117837D01*
X142154744Y-90117302D01*
X142248540Y-89487528D01*
X142248539Y-89487519D01*
X142248639Y-89485474D01*
X142249969Y-89476966D01*
X142249910Y-89476959D01*
X142250500Y-89472478D01*
X142250500Y-89327524D01*
X142249910Y-89323045D01*
X142249925Y-89323043D01*
X142248568Y-89314459D01*
X142248438Y-89311965D01*
X142248439Y-89311957D01*
X142153320Y-88682253D01*
X142152549Y-88679836D01*
X142152385Y-88679321D01*
X142149122Y-88658354D01*
X142149122Y-76138403D01*
X142152686Y-76117897D01*
X142152540Y-76117861D01*
X142153038Y-76115873D01*
X142153171Y-76115114D01*
X142153173Y-76115105D01*
X142153366Y-76114570D01*
X142247162Y-75484796D01*
X142247161Y-75484787D01*
X142247261Y-75482742D01*
X142248591Y-75474234D01*
X142248532Y-75474227D01*
X142249122Y-75469746D01*
X142249122Y-75324795D01*
X142249122Y-75324793D01*
X142211606Y-75184783D01*
X142139131Y-75059253D01*
X142139129Y-75059251D01*
X142139127Y-75059247D01*
X142137478Y-75057098D01*
X142132465Y-75049597D01*
X142130612Y-75046388D01*
X142121550Y-75030691D01*
X142119857Y-75027221D01*
X142059114Y-74922013D01*
X142059113Y-74922012D01*
X142059111Y-74922008D01*
X142059110Y-74922007D01*
X142059105Y-74922001D01*
X141705619Y-74568515D01*
X141663346Y-74520773D01*
X141659077Y-74516098D01*
X141658590Y-74515581D01*
X141639540Y-74502436D01*
X141136000Y-73998896D01*
X140576622Y-73439517D01*
X140576620Y-73439516D01*
X140576616Y-73439513D01*
X140576614Y-73439511D01*
X140576611Y-73439509D01*
X140576608Y-73439507D01*
X140576596Y-73439500D01*
X140576593Y-73439498D01*
X140473894Y-73380203D01*
X140473892Y-73380202D01*
X140473888Y-73380201D01*
X140460351Y-73376574D01*
X140449673Y-73373713D01*
X140449671Y-73373712D01*
X140387579Y-73357075D01*
X140387577Y-73357074D01*
X140359309Y-73349500D01*
X139140691Y-73349500D01*
X139123321Y-73354154D01*
X139035021Y-73377813D01*
X139035016Y-73377815D01*
X139026114Y-73380201D01*
X139026113Y-73380201D01*
X139026111Y-73380202D01*
X138982696Y-73405266D01*
X138982697Y-73405267D01*
X138952518Y-73422690D01*
X138952457Y-73422724D01*
X138923393Y-73439505D01*
X138923384Y-73439511D01*
X138923375Y-73439518D01*
X137339521Y-75023373D01*
X137339515Y-75023380D01*
X137339506Y-75023392D01*
X137297094Y-75096853D01*
X137280201Y-75126113D01*
X137257864Y-75209479D01*
X137249500Y-75240693D01*
X137249500Y-77966091D01*
X137244247Y-77992498D01*
X137234541Y-78015928D01*
X137219584Y-78038311D01*
X136839431Y-78418463D01*
X136817019Y-78433432D01*
X136758836Y-78457503D01*
X136706026Y-78457480D01*
X136668699Y-78420122D01*
X136668722Y-78367312D01*
X136676633Y-78353192D01*
X136726757Y-78284203D01*
X136726759Y-78284200D01*
X136726760Y-78284199D01*
X136812547Y-78115832D01*
X136870940Y-77936118D01*
X136900500Y-77749481D01*
X136900500Y-77560519D01*
X136870940Y-77373882D01*
X136812547Y-77194168D01*
X136812545Y-77194165D01*
X136812544Y-77194161D01*
X136726896Y-77026068D01*
X136726764Y-77025807D01*
X136726756Y-77025794D01*
X136615701Y-76872941D01*
X136615701Y-76872940D01*
X136615681Y-76872917D01*
X136482081Y-76739317D01*
X136482058Y-76739297D01*
X136329221Y-76628254D01*
X136329209Y-76628246D01*
X136329203Y-76628242D01*
X136329200Y-76628240D01*
X136246559Y-76586133D01*
X136246559Y-76586132D01*
X136246557Y-76586132D01*
X136160837Y-76542455D01*
X136160833Y-76542453D01*
X136160832Y-76542453D01*
X136160829Y-76542452D01*
X136160821Y-76542449D01*
X136160797Y-76542441D01*
X136047172Y-76505522D01*
X135981126Y-76484062D01*
X135981121Y-76484060D01*
X135981116Y-76484059D01*
X135981091Y-76484054D01*
X135794513Y-76454503D01*
X135794489Y-76454500D01*
X135794482Y-76454500D01*
X135794481Y-76454500D01*
X135605519Y-76454500D01*
X135605517Y-76454500D01*
X135605509Y-76454500D01*
X135605485Y-76454503D01*
X135418907Y-76484054D01*
X135418882Y-76484059D01*
X135418870Y-76484063D01*
X135239172Y-76542451D01*
X135070799Y-76628240D01*
X135070777Y-76628254D01*
X134917941Y-76739297D01*
X134917940Y-76739297D01*
X134917917Y-76739317D01*
X134784317Y-76872917D01*
X134784297Y-76872940D01*
X134784297Y-76872941D01*
X134673254Y-77025777D01*
X134673240Y-77025799D01*
X134587451Y-77194172D01*
X134529063Y-77373870D01*
X134529059Y-77373882D01*
X134529058Y-77373888D01*
X134499501Y-77560506D01*
X134499500Y-77560520D01*
X134499500Y-77749479D01*
X134499501Y-77749493D01*
X134529058Y-77936111D01*
X134529062Y-77936126D01*
X134543258Y-77979816D01*
X134562264Y-78038311D01*
X134587454Y-78115834D01*
X134587455Y-78115838D01*
X134601384Y-78143174D01*
X134601384Y-78143175D01*
X134601385Y-78143175D01*
X134673240Y-78284200D01*
X134673242Y-78284203D01*
X134673243Y-78284204D01*
X134673254Y-78284221D01*
X134783091Y-78435398D01*
X134783109Y-78435422D01*
X134784300Y-78437061D01*
X134784308Y-78437070D01*
X134784310Y-78437073D01*
X134784510Y-78437273D01*
X134784514Y-78437278D01*
X134917919Y-78570683D01*
X134917924Y-78570687D01*
X134917927Y-78570690D01*
X134917930Y-78570692D01*
X134917938Y-78570699D01*
X134917942Y-78570702D01*
X134918216Y-78570926D01*
X134919027Y-78571491D01*
X135070794Y-78681756D01*
X135070807Y-78681764D01*
X135071068Y-78681896D01*
X135239161Y-78767544D01*
X135239165Y-78767545D01*
X135239168Y-78767547D01*
X135418882Y-78825940D01*
X135418887Y-78825940D01*
X135418888Y-78825941D01*
X135502634Y-78839205D01*
X135503192Y-78839303D01*
X135524989Y-78853172D01*
X135547069Y-78866703D01*
X135547216Y-78867316D01*
X135547747Y-78867654D01*
X135553351Y-78892871D01*
X135559398Y-78918054D01*
X135559068Y-78918591D01*
X135559205Y-78919206D01*
X135545335Y-78941003D01*
X135531805Y-78963083D01*
X135530997Y-78963534D01*
X135530854Y-78963761D01*
X135530422Y-78963856D01*
X135517626Y-78971020D01*
X135340901Y-79044136D01*
X135331010Y-79050377D01*
X135315516Y-79057643D01*
X135239175Y-79082449D01*
X135239173Y-79082450D01*
X135070799Y-79168240D01*
X135070777Y-79168254D01*
X134917941Y-79279297D01*
X134917940Y-79279297D01*
X134917917Y-79279317D01*
X134784317Y-79412917D01*
X134784297Y-79412940D01*
X134784297Y-79412941D01*
X134673254Y-79565777D01*
X134673240Y-79565799D01*
X134587451Y-79734172D01*
X134529063Y-79913870D01*
X134529059Y-79913882D01*
X134529058Y-79913887D01*
X134529058Y-79913888D01*
X134499501Y-80100506D01*
X134499500Y-80100520D01*
X134499500Y-80289479D01*
X134499501Y-80289493D01*
X134529058Y-80476111D01*
X134529062Y-80476126D01*
X134534877Y-80494022D01*
X134579322Y-80630808D01*
X134587453Y-80655833D01*
X134595872Y-80672355D01*
X134595872Y-80672357D01*
X134595873Y-80672357D01*
X134673240Y-80824200D01*
X134673242Y-80824203D01*
X134673246Y-80824209D01*
X134673254Y-80824221D01*
X134783091Y-80975398D01*
X134783109Y-80975422D01*
X134784300Y-80977061D01*
X134784308Y-80977070D01*
X134784310Y-80977073D01*
X134784510Y-80977273D01*
X134784514Y-80977278D01*
X134917919Y-81110683D01*
X134917924Y-81110687D01*
X134917927Y-81110690D01*
X134917930Y-81110692D01*
X134917938Y-81110699D01*
X134917942Y-81110702D01*
X134918216Y-81110926D01*
X134919027Y-81111491D01*
X135070794Y-81221756D01*
X135070807Y-81221764D01*
X135071068Y-81221896D01*
X135239161Y-81307544D01*
X135239165Y-81307545D01*
X135239168Y-81307547D01*
X135418882Y-81365940D01*
X135605519Y-81395500D01*
X135605521Y-81395500D01*
X135794479Y-81395500D01*
X135794481Y-81395500D01*
X135981118Y-81365940D01*
X136160832Y-81307547D01*
X136329199Y-81221760D01*
X136480971Y-81111491D01*
X136482061Y-81110699D01*
X136482063Y-81110697D01*
X136482073Y-81110690D01*
X136615690Y-80977073D01*
X136629673Y-80957828D01*
X136723822Y-80828243D01*
X136726760Y-80824199D01*
X136812547Y-80655832D01*
X136837670Y-80578508D01*
X136845907Y-80561520D01*
X136850861Y-80554098D01*
X136850864Y-80554094D01*
X137461568Y-79077973D01*
X137476530Y-79055570D01*
X138060489Y-78471614D01*
X138119799Y-78368887D01*
X138128022Y-78338196D01*
X138150500Y-78254309D01*
X138150500Y-75528907D01*
X138155751Y-75502505D01*
X138165459Y-75479067D01*
X138180412Y-75456690D01*
X139356690Y-74280412D01*
X139379067Y-74265459D01*
X139402505Y-74255751D01*
X139428907Y-74250500D01*
X140071093Y-74250500D01*
X140097498Y-74255752D01*
X140120928Y-74265458D01*
X140143312Y-74280415D01*
X140959750Y-75096853D01*
X140974362Y-75118418D01*
X141156319Y-75542154D01*
X141161164Y-75559214D01*
X141243877Y-76114567D01*
X141243877Y-76114570D01*
X141244889Y-76117756D01*
X141248122Y-76138630D01*
X141248122Y-88659182D01*
X141244555Y-88679836D01*
X141244651Y-88679860D01*
X141244324Y-88681171D01*
X141244125Y-88682326D01*
X141243832Y-88683146D01*
X141151372Y-89312888D01*
X141151286Y-89314735D01*
X141149996Y-89323032D01*
X141150090Y-89323045D01*
X141149500Y-89327527D01*
X141149500Y-89472475D01*
X141150090Y-89476956D01*
X141150036Y-89476962D01*
X141151358Y-89485377D01*
X141151468Y-89487588D01*
X141245255Y-90117299D01*
X141245255Y-90117302D01*
X141246267Y-90120488D01*
X141249500Y-90141362D01*
X141249500Y-99058191D01*
X141247425Y-99074985D01*
X141244913Y-99084992D01*
X141187813Y-99468373D01*
X141176652Y-99486968D01*
X141168356Y-99506998D01*
X141163399Y-99509051D01*
X141160637Y-99513654D01*
X141139596Y-99518910D01*
X141119566Y-99527208D01*
X141114607Y-99525154D01*
X141109401Y-99526455D01*
X141074671Y-99508960D01*
X141074195Y-99509582D01*
X141070925Y-99507073D01*
X141070776Y-99506998D01*
X141070608Y-99506830D01*
X141070605Y-99506827D01*
X140960068Y-99443008D01*
X140960067Y-99443007D01*
X140952940Y-99438892D01*
X140949308Y-99436105D01*
X140940844Y-99432598D01*
X140936302Y-99432001D01*
X140872363Y-99414868D01*
X140805065Y-99396836D01*
X140805064Y-99396836D01*
X140660116Y-99396836D01*
X140660115Y-99396836D01*
X140630723Y-99404711D01*
X140551478Y-99425944D01*
X140538427Y-99428127D01*
X140534819Y-99428378D01*
X140534803Y-99428381D01*
X139998644Y-99574411D01*
X139980512Y-99576836D01*
X139351331Y-99576836D01*
X139324911Y-99571577D01*
X139323186Y-99570862D01*
X139285852Y-99533511D01*
X139285865Y-99480701D01*
X139294157Y-99466056D01*
X139627642Y-99015853D01*
X139634079Y-99005536D01*
X139643820Y-98993281D01*
X139760489Y-98876614D01*
X139813087Y-98785513D01*
X139819797Y-98773892D01*
X139819797Y-98773890D01*
X139819799Y-98773887D01*
X139828488Y-98741459D01*
X139850500Y-98659309D01*
X139850500Y-90141135D01*
X139854064Y-90120629D01*
X139853918Y-90120593D01*
X139854416Y-90118605D01*
X139854549Y-90117846D01*
X139854551Y-90117837D01*
X139854744Y-90117302D01*
X139948540Y-89487528D01*
X139948539Y-89487519D01*
X139948639Y-89485474D01*
X139949969Y-89476966D01*
X139949910Y-89476959D01*
X139950500Y-89472478D01*
X139950500Y-89327524D01*
X139949910Y-89323044D01*
X139949962Y-89323037D01*
X139948639Y-89314609D01*
X139948529Y-89312412D01*
X139948530Y-89312405D01*
X139854744Y-88682698D01*
X139853731Y-88679505D01*
X139850500Y-88658638D01*
X139850500Y-76641135D01*
X139854064Y-76620629D01*
X139853918Y-76620593D01*
X139854416Y-76618605D01*
X139854549Y-76617846D01*
X139854551Y-76617837D01*
X139854744Y-76617302D01*
X139948540Y-75987528D01*
X139948539Y-75987519D01*
X139948639Y-75985474D01*
X139949969Y-75976966D01*
X139949910Y-75976959D01*
X139950500Y-75972478D01*
X139950500Y-75827527D01*
X139950500Y-75827526D01*
X139950500Y-75827525D01*
X139912984Y-75687515D01*
X139840509Y-75561985D01*
X139738015Y-75459491D01*
X139612485Y-75387016D01*
X139472475Y-75349500D01*
X139472472Y-75349500D01*
X139327526Y-75349500D01*
X139327525Y-75349500D01*
X139301999Y-75356339D01*
X139188507Y-75386749D01*
X139187581Y-75386982D01*
X139187494Y-75387025D01*
X139062011Y-75459474D01*
X139061983Y-75459492D01*
X139061973Y-75459500D01*
X138959500Y-75561973D01*
X138959492Y-75561983D01*
X138959474Y-75562011D01*
X138887025Y-75687494D01*
X138886982Y-75687581D01*
X138886749Y-75688507D01*
X138849500Y-75827526D01*
X138849500Y-75972475D01*
X138850090Y-75976956D01*
X138850036Y-75976962D01*
X138851358Y-75985377D01*
X138851468Y-75987588D01*
X138945255Y-76617299D01*
X138945255Y-76617302D01*
X138946267Y-76620488D01*
X138949500Y-76641362D01*
X138949500Y-88658862D01*
X138945935Y-88679368D01*
X138946082Y-88679405D01*
X138945585Y-88681382D01*
X138945453Y-88682145D01*
X138945256Y-88682693D01*
X138945255Y-88682697D01*
X138851458Y-89312472D01*
X138851359Y-89314538D01*
X138850031Y-89323038D01*
X138850090Y-89323046D01*
X138849500Y-89327522D01*
X138849501Y-89327524D01*
X138849500Y-89327528D01*
X138849500Y-89472475D01*
X138850090Y-89476956D01*
X138850036Y-89476962D01*
X138851358Y-89485377D01*
X138851468Y-89487588D01*
X138945255Y-90117299D01*
X138945255Y-90117302D01*
X138946267Y-90120488D01*
X138949500Y-90141362D01*
X138949500Y-98363261D01*
X138929290Y-98412051D01*
X138921571Y-98418706D01*
X138475912Y-98748825D01*
X138473433Y-98751075D01*
X138462864Y-98758796D01*
X138462931Y-98758903D01*
X138461986Y-98759489D01*
X138461973Y-98759500D01*
X138359500Y-98861973D01*
X138359492Y-98861983D01*
X138359474Y-98862011D01*
X138287025Y-98987494D01*
X138286982Y-98987581D01*
X138286749Y-98988507D01*
X138264186Y-99072715D01*
X138255743Y-99104228D01*
X138249500Y-99127526D01*
X138249500Y-99145228D01*
X138244245Y-99171638D01*
X138241402Y-99178500D01*
X138204057Y-99215840D01*
X138151250Y-99215837D01*
X138144387Y-99212994D01*
X138122004Y-99198037D01*
X138100415Y-99176448D01*
X138085458Y-99154065D01*
X138075751Y-99130631D01*
X138070500Y-99104228D01*
X138070500Y-94751221D01*
X138063340Y-94724499D01*
X138063340Y-94724500D01*
X138057864Y-94704063D01*
X138045252Y-94656993D01*
X137996474Y-94572508D01*
X137996471Y-94572505D01*
X137996468Y-94572501D01*
X137996466Y-94572498D01*
X137292495Y-93868528D01*
X137292494Y-93868527D01*
X137292493Y-93868526D01*
X137292490Y-93868524D01*
X137292487Y-93868522D01*
X137292481Y-93868518D01*
X137292467Y-93868509D01*
X137219794Y-93826553D01*
X137219788Y-93826550D01*
X137208009Y-93819750D01*
X137208008Y-93819749D01*
X137208007Y-93819749D01*
X137194869Y-93816228D01*
X137194863Y-93816226D01*
X137120876Y-93796402D01*
X137113778Y-93794500D01*
X137113777Y-93794500D01*
X137016222Y-93794500D01*
X136992042Y-93800978D01*
X136983199Y-93802737D01*
X136974304Y-93803909D01*
X136965291Y-93804500D01*
X136668567Y-93804500D01*
X136642157Y-93799245D01*
X136635295Y-93796402D01*
X136597955Y-93759057D01*
X136597957Y-93706252D01*
X136600801Y-93699387D01*
X136614187Y-93679360D01*
X136613927Y-93679138D01*
X136615685Y-93677079D01*
X136615689Y-93677074D01*
X136615690Y-93677073D01*
X136635521Y-93649779D01*
X136726757Y-93524203D01*
X136726759Y-93524200D01*
X136726760Y-93524199D01*
X136812547Y-93355832D01*
X136870940Y-93176118D01*
X136900500Y-92989481D01*
X136900500Y-92800519D01*
X136897142Y-92779320D01*
X136870941Y-92613888D01*
X136870940Y-92613887D01*
X136870940Y-92613882D01*
X136870937Y-92613875D01*
X136870654Y-92612083D01*
X136869265Y-92608728D01*
X136854145Y-92562195D01*
X136812547Y-92434168D01*
X136812545Y-92434165D01*
X136812544Y-92434161D01*
X136726896Y-92266068D01*
X136726764Y-92265807D01*
X136726756Y-92265794D01*
X136618101Y-92116244D01*
X136615701Y-92112940D01*
X136615681Y-92112917D01*
X136482081Y-91979317D01*
X136482058Y-91979297D01*
X136329221Y-91868254D01*
X136329209Y-91868246D01*
X136329203Y-91868242D01*
X136329200Y-91868240D01*
X136214894Y-91809999D01*
X136214894Y-91809998D01*
X136214893Y-91809998D01*
X136160838Y-91782455D01*
X136160830Y-91782452D01*
X136083540Y-91757339D01*
X136083539Y-91757338D01*
X136016104Y-91735427D01*
X135981126Y-91724062D01*
X135981121Y-91724060D01*
X135981116Y-91724059D01*
X135981091Y-91724054D01*
X135794513Y-91694503D01*
X135794489Y-91694500D01*
X135794482Y-91694500D01*
X135794481Y-91694500D01*
X135605519Y-91694500D01*
X135605517Y-91694500D01*
X135605509Y-91694500D01*
X135605485Y-91694503D01*
X135418907Y-91724054D01*
X135418882Y-91724059D01*
X135418870Y-91724063D01*
X135239172Y-91782451D01*
X135070799Y-91868240D01*
X135070777Y-91868254D01*
X134917941Y-91979297D01*
X134917940Y-91979297D01*
X134917917Y-91979317D01*
X134784317Y-92112917D01*
X134784297Y-92112940D01*
X134784297Y-92112941D01*
X134673254Y-92265777D01*
X134673240Y-92265799D01*
X134587452Y-92434170D01*
X134529063Y-92613870D01*
X134529059Y-92613882D01*
X134529058Y-92613887D01*
X134529058Y-92613888D01*
X134499501Y-92800506D01*
X134499501Y-92800515D01*
X134499500Y-92800524D01*
X134499500Y-92989474D01*
X134499501Y-92989491D01*
X134529058Y-93176110D01*
X134529059Y-93176116D01*
X134529063Y-93176128D01*
X134544096Y-93222395D01*
X134587452Y-93355830D01*
X134587455Y-93355838D01*
X134626282Y-93432039D01*
X134626282Y-93432040D01*
X134626283Y-93432040D01*
X134673240Y-93524200D01*
X134673242Y-93524203D01*
X134673246Y-93524209D01*
X134673254Y-93524221D01*
X134784297Y-93677057D01*
X134784297Y-93677058D01*
X134784320Y-93677085D01*
X134785214Y-93678050D01*
X134785137Y-93678121D01*
X134785156Y-93678145D01*
X134785112Y-93678179D01*
X134785114Y-93678182D01*
X134785055Y-93678224D01*
X134799199Y-93699390D01*
X134802041Y-93706251D01*
X134802042Y-93759062D01*
X134764708Y-93796401D01*
X134761288Y-93797817D01*
X134757844Y-93799244D01*
X134731433Y-93804500D01*
X130370771Y-93804500D01*
X130344366Y-93799247D01*
X130320934Y-93789541D01*
X130298551Y-93774584D01*
X126784491Y-90260524D01*
X134499500Y-90260524D01*
X134499500Y-90449474D01*
X134499501Y-90449491D01*
X134529058Y-90636110D01*
X134529059Y-90636116D01*
X134529063Y-90636128D01*
X134569312Y-90760000D01*
X134587453Y-90815833D01*
X134600112Y-90840676D01*
X134600112Y-90840678D01*
X134600113Y-90840678D01*
X134673240Y-90984200D01*
X134673242Y-90984203D01*
X134673246Y-90984209D01*
X134673254Y-90984221D01*
X134783091Y-91135398D01*
X134783109Y-91135422D01*
X134784300Y-91137061D01*
X134784308Y-91137070D01*
X134784310Y-91137073D01*
X134784510Y-91137273D01*
X134784514Y-91137278D01*
X134917919Y-91270683D01*
X134917924Y-91270687D01*
X134917927Y-91270690D01*
X134917930Y-91270692D01*
X134917938Y-91270699D01*
X134917942Y-91270702D01*
X134918216Y-91270926D01*
X134919027Y-91271491D01*
X135070794Y-91381756D01*
X135070807Y-91381764D01*
X135071068Y-91381896D01*
X135239161Y-91467544D01*
X135239165Y-91467545D01*
X135239168Y-91467547D01*
X135418882Y-91525940D01*
X135605519Y-91555500D01*
X135605521Y-91555500D01*
X135794479Y-91555500D01*
X135794481Y-91555500D01*
X135981118Y-91525940D01*
X136160832Y-91467547D01*
X136329199Y-91381760D01*
X136480971Y-91271491D01*
X136482061Y-91270699D01*
X136482063Y-91270697D01*
X136482073Y-91270690D01*
X136615690Y-91137073D01*
X136726760Y-90984199D01*
X136812547Y-90815832D01*
X136870940Y-90636118D01*
X136900500Y-90449481D01*
X136900500Y-90260519D01*
X136897142Y-90239320D01*
X136870941Y-90073888D01*
X136870940Y-90073887D01*
X136870940Y-90073882D01*
X136870937Y-90073875D01*
X136870654Y-90072083D01*
X136869265Y-90068728D01*
X136812547Y-89894170D01*
X136812547Y-89894168D01*
X136812545Y-89894165D01*
X136812544Y-89894161D01*
X136726896Y-89726068D01*
X136726764Y-89725807D01*
X136726756Y-89725794D01*
X136618101Y-89576244D01*
X136615701Y-89572940D01*
X136615681Y-89572917D01*
X136482081Y-89439317D01*
X136482058Y-89439297D01*
X136329221Y-89328254D01*
X136329209Y-89328246D01*
X136329203Y-89328242D01*
X136329200Y-89328240D01*
X136214894Y-89269999D01*
X136214894Y-89269998D01*
X136214893Y-89269998D01*
X136160838Y-89242455D01*
X136160830Y-89242452D01*
X136083540Y-89217339D01*
X136083539Y-89217338D01*
X136016104Y-89195427D01*
X135981126Y-89184062D01*
X135981121Y-89184060D01*
X135981116Y-89184059D01*
X135981091Y-89184054D01*
X135794513Y-89154503D01*
X135794489Y-89154500D01*
X135794482Y-89154500D01*
X135794481Y-89154500D01*
X135605519Y-89154500D01*
X135605517Y-89154500D01*
X135605509Y-89154500D01*
X135605485Y-89154503D01*
X135418907Y-89184054D01*
X135418882Y-89184059D01*
X135418870Y-89184063D01*
X135239172Y-89242451D01*
X135070799Y-89328240D01*
X135070777Y-89328254D01*
X134917941Y-89439297D01*
X134917940Y-89439297D01*
X134917917Y-89439317D01*
X134784317Y-89572917D01*
X134784297Y-89572940D01*
X134784297Y-89572941D01*
X134673254Y-89725777D01*
X134673240Y-89725799D01*
X134587451Y-89894172D01*
X134529063Y-90073870D01*
X134529059Y-90073882D01*
X134529058Y-90073887D01*
X134529058Y-90073888D01*
X134499501Y-90260506D01*
X134499501Y-90260515D01*
X134499500Y-90260524D01*
X126784491Y-90260524D01*
X124042493Y-87518526D01*
X124042486Y-87518520D01*
X124019307Y-87505139D01*
X124019305Y-87505138D01*
X124000250Y-87494137D01*
X124000250Y-87494136D01*
X123958011Y-87469750D01*
X123958008Y-87469749D01*
X123914330Y-87458045D01*
X123914323Y-87458042D01*
X123876401Y-87447882D01*
X123863778Y-87444500D01*
X123863777Y-87444500D01*
X112366848Y-87444500D01*
X112337641Y-87438014D01*
X112158182Y-87354170D01*
X110870316Y-86752472D01*
X110870314Y-86752471D01*
X110835602Y-86739945D01*
X110827699Y-86736522D01*
X110760834Y-86702454D01*
X110760833Y-86702453D01*
X110760832Y-86702453D01*
X110760829Y-86702452D01*
X110760819Y-86702449D01*
X110760797Y-86702441D01*
X110647172Y-86665522D01*
X110581126Y-86644062D01*
X110581121Y-86644060D01*
X110581116Y-86644059D01*
X110581091Y-86644054D01*
X110394513Y-86614503D01*
X110394489Y-86614500D01*
X110394482Y-86614500D01*
X110394481Y-86614500D01*
X110205519Y-86614500D01*
X110205517Y-86614500D01*
X110205509Y-86614500D01*
X110205485Y-86614503D01*
X110018907Y-86644054D01*
X110018882Y-86644059D01*
X110018870Y-86644063D01*
X109839172Y-86702451D01*
X109670799Y-86788240D01*
X109670777Y-86788254D01*
X109517941Y-86899297D01*
X109517940Y-86899297D01*
X109517917Y-86899317D01*
X109384317Y-87032917D01*
X109384297Y-87032940D01*
X109384297Y-87032941D01*
X109273254Y-87185777D01*
X109273240Y-87185799D01*
X109187451Y-87354172D01*
X109129063Y-87533870D01*
X109129059Y-87533882D01*
X109129058Y-87533887D01*
X109129058Y-87533888D01*
X109111413Y-87645299D01*
X109099501Y-87720507D01*
X109099500Y-87720524D01*
X101500500Y-87720524D01*
X101500500Y-86636375D01*
X102449500Y-86636375D01*
X102449500Y-86823623D01*
X102486023Y-87007243D01*
X102496667Y-87032940D01*
X102545072Y-87149799D01*
X102557682Y-87180240D01*
X102661669Y-87335866D01*
X102661686Y-87335891D01*
X102661691Y-87335898D01*
X102661698Y-87335908D01*
X102763804Y-87438014D01*
X102794090Y-87468300D01*
X102794100Y-87468308D01*
X102949736Y-87572301D01*
X102949760Y-87572317D01*
X102949763Y-87572319D01*
X102949764Y-87572319D01*
X102949765Y-87572320D01*
X102950566Y-87572711D01*
X102952004Y-87573247D01*
X103122749Y-87643973D01*
X103122750Y-87643973D01*
X103122752Y-87643974D01*
X103306380Y-87680500D01*
X103306384Y-87680500D01*
X103493619Y-87680500D01*
X103493620Y-87680500D01*
X103646280Y-87650134D01*
X103677247Y-87643974D01*
X103677247Y-87643973D01*
X103677249Y-87643973D01*
X103677251Y-87643973D01*
X103677252Y-87643972D01*
X103683918Y-87642647D01*
X103683921Y-87642646D01*
X103693845Y-87640672D01*
X103697039Y-87638634D01*
X103696675Y-87637638D01*
X103980370Y-87533870D01*
X104934981Y-87184698D01*
X104958684Y-87180500D01*
X105829306Y-87180500D01*
X105829309Y-87180500D01*
X105919673Y-87156286D01*
X105943887Y-87149799D01*
X106046614Y-87090489D01*
X107560489Y-85576614D01*
X107572326Y-85556111D01*
X107597227Y-85512984D01*
X107609457Y-85491797D01*
X107619799Y-85473886D01*
X107650500Y-85359309D01*
X107650500Y-85180520D01*
X109099500Y-85180520D01*
X109099500Y-85369479D01*
X109099501Y-85369493D01*
X109129058Y-85556111D01*
X109129062Y-85556126D01*
X109158102Y-85645500D01*
X109186839Y-85733943D01*
X109187454Y-85735834D01*
X109187455Y-85735838D01*
X109209702Y-85779499D01*
X109209702Y-85779500D01*
X109209703Y-85779500D01*
X109273240Y-85904200D01*
X109273242Y-85904203D01*
X109273246Y-85904209D01*
X109273254Y-85904221D01*
X109383105Y-86055418D01*
X109383137Y-86055460D01*
X109384300Y-86057061D01*
X109384308Y-86057070D01*
X109384310Y-86057073D01*
X109384506Y-86057269D01*
X109384510Y-86057274D01*
X109517919Y-86190683D01*
X109517924Y-86190687D01*
X109517927Y-86190690D01*
X109517930Y-86190692D01*
X109517938Y-86190699D01*
X109517942Y-86190702D01*
X109518216Y-86190926D01*
X109519027Y-86191491D01*
X109670794Y-86301756D01*
X109670807Y-86301764D01*
X109671068Y-86301896D01*
X109839161Y-86387544D01*
X109839165Y-86387545D01*
X109839168Y-86387547D01*
X110018882Y-86445940D01*
X110018887Y-86445940D01*
X110018888Y-86445941D01*
X110061910Y-86452755D01*
X110205519Y-86475500D01*
X110205521Y-86475500D01*
X110394479Y-86475500D01*
X110394481Y-86475500D01*
X110581118Y-86445940D01*
X110760832Y-86387547D01*
X110839740Y-86347340D01*
X110854609Y-86341812D01*
X110868374Y-86338434D01*
X112337639Y-85651985D01*
X112366846Y-85645500D01*
X128179229Y-85645500D01*
X128205634Y-85650752D01*
X128229064Y-85660458D01*
X128251448Y-85675415D01*
X129417498Y-86841466D01*
X129417504Y-86841470D01*
X129417507Y-86841473D01*
X129417509Y-86841474D01*
X129417892Y-86841750D01*
X129419284Y-86842499D01*
X129476058Y-86875278D01*
X129500065Y-86889139D01*
X129501990Y-86890250D01*
X129501992Y-86890251D01*
X129596222Y-86915500D01*
X129596225Y-86915500D01*
X129693776Y-86915500D01*
X129693777Y-86915500D01*
X129703513Y-86912891D01*
X129717975Y-86909016D01*
X129726793Y-86907262D01*
X129735708Y-86906088D01*
X129744708Y-86905500D01*
X134731433Y-86905500D01*
X134757839Y-86910753D01*
X134764700Y-86913595D01*
X134802042Y-86950937D01*
X134802042Y-87003746D01*
X134799201Y-87010605D01*
X134785062Y-87031779D01*
X134785114Y-87031817D01*
X134785112Y-87031819D01*
X134785156Y-87031854D01*
X134785138Y-87031876D01*
X134785216Y-87031948D01*
X134784318Y-87032917D01*
X134784293Y-87032946D01*
X134673254Y-87185777D01*
X134673240Y-87185799D01*
X134587451Y-87354172D01*
X134529063Y-87533870D01*
X134529059Y-87533882D01*
X134529058Y-87533887D01*
X134529058Y-87533888D01*
X134511413Y-87645299D01*
X134499501Y-87720507D01*
X134499500Y-87720524D01*
X134499500Y-87909474D01*
X134499501Y-87909491D01*
X134529058Y-88096110D01*
X134529059Y-88096116D01*
X134529063Y-88096128D01*
X134558102Y-88185500D01*
X134587453Y-88275833D01*
X134600112Y-88300676D01*
X134600112Y-88300678D01*
X134600113Y-88300678D01*
X134673240Y-88444200D01*
X134673242Y-88444203D01*
X134673246Y-88444209D01*
X134673254Y-88444221D01*
X134783091Y-88595398D01*
X134783109Y-88595422D01*
X134784300Y-88597061D01*
X134784308Y-88597070D01*
X134784310Y-88597073D01*
X134784510Y-88597273D01*
X134784514Y-88597278D01*
X134917919Y-88730683D01*
X134917924Y-88730687D01*
X134917927Y-88730690D01*
X134917930Y-88730692D01*
X134917938Y-88730699D01*
X134917942Y-88730702D01*
X134918216Y-88730926D01*
X134919027Y-88731491D01*
X135070794Y-88841756D01*
X135070807Y-88841764D01*
X135071068Y-88841896D01*
X135239161Y-88927544D01*
X135239165Y-88927545D01*
X135239168Y-88927547D01*
X135418882Y-88985940D01*
X135605519Y-89015500D01*
X135605521Y-89015500D01*
X135794479Y-89015500D01*
X135794481Y-89015500D01*
X135981118Y-88985940D01*
X136160832Y-88927547D01*
X136329199Y-88841760D01*
X136480971Y-88731491D01*
X136482061Y-88730699D01*
X136482063Y-88730697D01*
X136482073Y-88730690D01*
X136615690Y-88597073D01*
X136726760Y-88444199D01*
X136812547Y-88275832D01*
X136870940Y-88096118D01*
X136900500Y-87909481D01*
X136900500Y-87720519D01*
X136900499Y-87720508D01*
X136894161Y-87680500D01*
X136888376Y-87643973D01*
X136870941Y-87533888D01*
X136870940Y-87533887D01*
X136870940Y-87533882D01*
X136812547Y-87354168D01*
X136812545Y-87354165D01*
X136812544Y-87354161D01*
X136726896Y-87186068D01*
X136726764Y-87185807D01*
X136726756Y-87185794D01*
X136615701Y-87032941D01*
X136615701Y-87032940D01*
X136615678Y-87032913D01*
X136614785Y-87031949D01*
X136614861Y-87031877D01*
X136614843Y-87031854D01*
X136614886Y-87031819D01*
X136614885Y-87031817D01*
X136614943Y-87031774D01*
X136600800Y-87010609D01*
X136597957Y-87003747D01*
X136597957Y-86950937D01*
X136635297Y-86913596D01*
X136642168Y-86910750D01*
X136668567Y-86905500D01*
X137555291Y-86905500D01*
X137564297Y-86906090D01*
X137573192Y-86907261D01*
X137582044Y-86909022D01*
X137606221Y-86915500D01*
X137606222Y-86915500D01*
X137703775Y-86915500D01*
X137703778Y-86915500D01*
X137798007Y-86890251D01*
X137882493Y-86841474D01*
X138396474Y-86327493D01*
X138417572Y-86290950D01*
X138427056Y-86274523D01*
X138441514Y-86249480D01*
X138441515Y-86249481D01*
X138441517Y-86249474D01*
X138445251Y-86243008D01*
X138458706Y-86192793D01*
X138470500Y-86148778D01*
X138470500Y-86051222D01*
X138470500Y-85752075D01*
X138472925Y-85733943D01*
X138497013Y-85645500D01*
X138618955Y-85197779D01*
X138619682Y-85190795D01*
X138621658Y-85180109D01*
X138650500Y-85072475D01*
X138650500Y-84927525D01*
X138612984Y-84787515D01*
X138540509Y-84661985D01*
X138438015Y-84559491D01*
X138334386Y-84499660D01*
X138312487Y-84487017D01*
X138312486Y-84487016D01*
X138312485Y-84487016D01*
X138172475Y-84449500D01*
X138172472Y-84449500D01*
X138027526Y-84449500D01*
X138027525Y-84449500D01*
X138001999Y-84456339D01*
X137888507Y-84486749D01*
X137887581Y-84486982D01*
X137887494Y-84487025D01*
X137762011Y-84559474D01*
X137761983Y-84559492D01*
X137761973Y-84559500D01*
X137659500Y-84661973D01*
X137659493Y-84661982D01*
X137659474Y-84662011D01*
X137587025Y-84787494D01*
X137586982Y-84787581D01*
X137586749Y-84788507D01*
X137556339Y-84901999D01*
X137549500Y-84927525D01*
X137549500Y-85072475D01*
X137568633Y-85143877D01*
X137578451Y-85180519D01*
X137578442Y-85180521D01*
X137578459Y-85180549D01*
X137578616Y-85181136D01*
X137580792Y-85194161D01*
X137581044Y-85197781D01*
X137627809Y-85369481D01*
X137707060Y-85660458D01*
X137727075Y-85733942D01*
X137729500Y-85752075D01*
X137729500Y-85904228D01*
X137724247Y-85930635D01*
X137714541Y-85954065D01*
X137699584Y-85976448D01*
X137521448Y-86154584D01*
X137499066Y-86169540D01*
X137475637Y-86179246D01*
X137449229Y-86184500D01*
X136668567Y-86184500D01*
X136642157Y-86179245D01*
X136635295Y-86176402D01*
X136597955Y-86139057D01*
X136597955Y-86138179D01*
X136597957Y-86086252D01*
X136600803Y-86079383D01*
X136614197Y-86059344D01*
X136614160Y-86059313D01*
X136614097Y-86059267D01*
X136614100Y-86059261D01*
X136613938Y-86059123D01*
X136615681Y-86057081D01*
X136615690Y-86057073D01*
X136616893Y-86055418D01*
X136726757Y-85904203D01*
X136726759Y-85904200D01*
X136735170Y-85887693D01*
X136812547Y-85735832D01*
X136870940Y-85556118D01*
X136900500Y-85369481D01*
X136900500Y-85180519D01*
X136900499Y-85180508D01*
X136892319Y-85128866D01*
X136885342Y-85084817D01*
X136870941Y-84993888D01*
X136870940Y-84993887D01*
X136870940Y-84993882D01*
X136812547Y-84814168D01*
X136812545Y-84814165D01*
X136812544Y-84814161D01*
X136726896Y-84646068D01*
X136726764Y-84645807D01*
X136726756Y-84645794D01*
X136615701Y-84492941D01*
X136615701Y-84492940D01*
X136615681Y-84492917D01*
X136482081Y-84359317D01*
X136482058Y-84359297D01*
X136329221Y-84248254D01*
X136329209Y-84248246D01*
X136329203Y-84248242D01*
X136329200Y-84248240D01*
X136246559Y-84206133D01*
X136246559Y-84206132D01*
X136246557Y-84206132D01*
X136160837Y-84162455D01*
X136160833Y-84162453D01*
X136160832Y-84162453D01*
X136160829Y-84162452D01*
X136160821Y-84162449D01*
X136160797Y-84162441D01*
X136047172Y-84125522D01*
X135981126Y-84104062D01*
X135981121Y-84104060D01*
X135981116Y-84104059D01*
X135981091Y-84104054D01*
X135794513Y-84074503D01*
X135794489Y-84074500D01*
X135794482Y-84074500D01*
X135794481Y-84074500D01*
X135605519Y-84074500D01*
X135605517Y-84074500D01*
X135605509Y-84074500D01*
X135605485Y-84074503D01*
X135418907Y-84104054D01*
X135418882Y-84104059D01*
X135418870Y-84104063D01*
X135239172Y-84162451D01*
X135070799Y-84248240D01*
X135070777Y-84248254D01*
X134917941Y-84359297D01*
X134917940Y-84359297D01*
X134917917Y-84359317D01*
X134784317Y-84492917D01*
X134784297Y-84492940D01*
X134784297Y-84492941D01*
X134673254Y-84645777D01*
X134673240Y-84645799D01*
X134587451Y-84814172D01*
X134529063Y-84993870D01*
X134529059Y-84993882D01*
X134529058Y-84993887D01*
X134529058Y-84993888D01*
X134499501Y-85180506D01*
X134499500Y-85180520D01*
X134499500Y-85369479D01*
X134499501Y-85369493D01*
X134529058Y-85556111D01*
X134529062Y-85556126D01*
X134558102Y-85645500D01*
X134586839Y-85733943D01*
X134587454Y-85735834D01*
X134587455Y-85735838D01*
X134609702Y-85779499D01*
X134609702Y-85779500D01*
X134609703Y-85779500D01*
X134673240Y-85904200D01*
X134673242Y-85904203D01*
X134673246Y-85904209D01*
X134673254Y-85904221D01*
X134784297Y-86057057D01*
X134784297Y-86057058D01*
X134784320Y-86057085D01*
X134785214Y-86058050D01*
X134785137Y-86058121D01*
X134785156Y-86058145D01*
X134785112Y-86058179D01*
X134785114Y-86058182D01*
X134785055Y-86058224D01*
X134799199Y-86079390D01*
X134802041Y-86086251D01*
X134802042Y-86139062D01*
X134764708Y-86176401D01*
X134761288Y-86177817D01*
X134757844Y-86179244D01*
X134731433Y-86184500D01*
X129850770Y-86184500D01*
X129824365Y-86179247D01*
X129800933Y-86169541D01*
X129778550Y-86154584D01*
X129200586Y-85576620D01*
X128602495Y-84978528D01*
X128602488Y-84978522D01*
X128569966Y-84959747D01*
X128569964Y-84959746D01*
X128569941Y-84959733D01*
X128549249Y-84947786D01*
X128549244Y-84947781D01*
X128518011Y-84929749D01*
X128518007Y-84929748D01*
X128479669Y-84919474D01*
X128479666Y-84919474D01*
X128436401Y-84907882D01*
X128423778Y-84904500D01*
X128423777Y-84904500D01*
X112366849Y-84904500D01*
X112337642Y-84898014D01*
X110868373Y-84211564D01*
X110868371Y-84211563D01*
X110868368Y-84211562D01*
X110868363Y-84211561D01*
X110852728Y-84207479D01*
X110838834Y-84202197D01*
X110802348Y-84183606D01*
X110760837Y-84162455D01*
X110760833Y-84162453D01*
X110760832Y-84162453D01*
X110760829Y-84162452D01*
X110760821Y-84162449D01*
X110760797Y-84162441D01*
X110647172Y-84125522D01*
X110581126Y-84104062D01*
X110581121Y-84104060D01*
X110581116Y-84104059D01*
X110581091Y-84104054D01*
X110394513Y-84074503D01*
X110394489Y-84074500D01*
X110394482Y-84074500D01*
X110394481Y-84074500D01*
X110205519Y-84074500D01*
X110205517Y-84074500D01*
X110205509Y-84074500D01*
X110205485Y-84074503D01*
X110018907Y-84104054D01*
X110018882Y-84104059D01*
X110018870Y-84104063D01*
X109839172Y-84162451D01*
X109670799Y-84248240D01*
X109670777Y-84248254D01*
X109517941Y-84359297D01*
X109517940Y-84359297D01*
X109517917Y-84359317D01*
X109384317Y-84492917D01*
X109384297Y-84492940D01*
X109384297Y-84492941D01*
X109273254Y-84645777D01*
X109273240Y-84645799D01*
X109187451Y-84814172D01*
X109129063Y-84993870D01*
X109129059Y-84993882D01*
X109129058Y-84993887D01*
X109129058Y-84993888D01*
X109099501Y-85180506D01*
X109099500Y-85180520D01*
X107650500Y-85180520D01*
X107650500Y-82640520D01*
X109099500Y-82640520D01*
X109099500Y-82829479D01*
X109099501Y-82829493D01*
X109129058Y-83016111D01*
X109129062Y-83016126D01*
X109141973Y-83055862D01*
X109160522Y-83112948D01*
X109187452Y-83195829D01*
X109187455Y-83195838D01*
X109209702Y-83239499D01*
X109209702Y-83239500D01*
X109209703Y-83239500D01*
X109273240Y-83364200D01*
X109273242Y-83364203D01*
X109273246Y-83364209D01*
X109273254Y-83364221D01*
X109383091Y-83515398D01*
X109383109Y-83515422D01*
X109384300Y-83517061D01*
X109384308Y-83517070D01*
X109384310Y-83517073D01*
X109384510Y-83517273D01*
X109384514Y-83517278D01*
X109517919Y-83650683D01*
X109517924Y-83650687D01*
X109517927Y-83650690D01*
X109517930Y-83650692D01*
X109517938Y-83650699D01*
X109517942Y-83650702D01*
X109518216Y-83650926D01*
X109519027Y-83651491D01*
X109670794Y-83761756D01*
X109670807Y-83761764D01*
X109671068Y-83761896D01*
X109839161Y-83847544D01*
X109839165Y-83847545D01*
X109839168Y-83847547D01*
X110018882Y-83905940D01*
X110018887Y-83905940D01*
X110018888Y-83905941D01*
X110037381Y-83908870D01*
X110205519Y-83935500D01*
X110205521Y-83935500D01*
X110394479Y-83935500D01*
X110394481Y-83935500D01*
X110581118Y-83905940D01*
X110760832Y-83847547D01*
X110829667Y-83812473D01*
X110838027Y-83808888D01*
X110870481Y-83797449D01*
X112337638Y-83111985D01*
X112366845Y-83105500D01*
X120413776Y-83105500D01*
X120413778Y-83105500D01*
X120460892Y-83092875D01*
X120508008Y-83080251D01*
X120550250Y-83055862D01*
X120592493Y-83031474D01*
X120983447Y-82640520D01*
X134499500Y-82640520D01*
X134499500Y-82829479D01*
X134499501Y-82829493D01*
X134529058Y-83016111D01*
X134529062Y-83016126D01*
X134541973Y-83055862D01*
X134560522Y-83112948D01*
X134587452Y-83195829D01*
X134587455Y-83195838D01*
X134609702Y-83239499D01*
X134609702Y-83239500D01*
X134609703Y-83239500D01*
X134673240Y-83364200D01*
X134673242Y-83364203D01*
X134673246Y-83364209D01*
X134673254Y-83364221D01*
X134783091Y-83515398D01*
X134783109Y-83515422D01*
X134784300Y-83517061D01*
X134784308Y-83517070D01*
X134784310Y-83517073D01*
X134784510Y-83517273D01*
X134784514Y-83517278D01*
X134917919Y-83650683D01*
X134917924Y-83650687D01*
X134917927Y-83650690D01*
X134917930Y-83650692D01*
X134917938Y-83650699D01*
X134917942Y-83650702D01*
X134918216Y-83650926D01*
X134919027Y-83651491D01*
X135070794Y-83761756D01*
X135070807Y-83761764D01*
X135071068Y-83761896D01*
X135239161Y-83847544D01*
X135239165Y-83847545D01*
X135239168Y-83847547D01*
X135418882Y-83905940D01*
X135418887Y-83905940D01*
X135418888Y-83905941D01*
X135437381Y-83908870D01*
X135605519Y-83935500D01*
X135605521Y-83935500D01*
X135794479Y-83935500D01*
X135794481Y-83935500D01*
X135981118Y-83905940D01*
X136160832Y-83847547D01*
X136329199Y-83761760D01*
X136435563Y-83684482D01*
X136445699Y-83677118D01*
X136481616Y-83651023D01*
X136482021Y-83650733D01*
X136482065Y-83650696D01*
X136482066Y-83650694D01*
X136482073Y-83650690D01*
X136615690Y-83517073D01*
X136647004Y-83473974D01*
X136726757Y-83364203D01*
X136726759Y-83364200D01*
X136727998Y-83361769D01*
X136812547Y-83195832D01*
X136870940Y-83016118D01*
X136900500Y-82829481D01*
X136900500Y-82640519D01*
X136899821Y-82636232D01*
X136899120Y-82631806D01*
X136899119Y-82631805D01*
X136870941Y-82453888D01*
X136870940Y-82453887D01*
X136870940Y-82453882D01*
X136870937Y-82453875D01*
X136870654Y-82452083D01*
X136869265Y-82448728D01*
X136848513Y-82384861D01*
X136812547Y-82274168D01*
X136812545Y-82274165D01*
X136812544Y-82274161D01*
X136726896Y-82106068D01*
X136726764Y-82105807D01*
X136726756Y-82105794D01*
X136626777Y-81968186D01*
X136615701Y-81952940D01*
X136615681Y-81952917D01*
X136482081Y-81819317D01*
X136482058Y-81819297D01*
X136329221Y-81708254D01*
X136329209Y-81708246D01*
X136329203Y-81708242D01*
X136329200Y-81708240D01*
X136246559Y-81666133D01*
X136246559Y-81666132D01*
X136246557Y-81666132D01*
X136160837Y-81622455D01*
X136160833Y-81622453D01*
X136160832Y-81622453D01*
X136160829Y-81622452D01*
X136160821Y-81622449D01*
X136160797Y-81622441D01*
X136047172Y-81585522D01*
X135981126Y-81564062D01*
X135981121Y-81564060D01*
X135981116Y-81564059D01*
X135981091Y-81564054D01*
X135794513Y-81534503D01*
X135794489Y-81534500D01*
X135794482Y-81534500D01*
X135794481Y-81534500D01*
X135605519Y-81534500D01*
X135605517Y-81534500D01*
X135605509Y-81534500D01*
X135605485Y-81534503D01*
X135418907Y-81564054D01*
X135418882Y-81564059D01*
X135418870Y-81564063D01*
X135239172Y-81622451D01*
X135070799Y-81708240D01*
X135070777Y-81708254D01*
X134917941Y-81819297D01*
X134917940Y-81819297D01*
X134917917Y-81819317D01*
X134784317Y-81952917D01*
X134784297Y-81952940D01*
X134784297Y-81952941D01*
X134673254Y-82105777D01*
X134673240Y-82105799D01*
X134587451Y-82274172D01*
X134529063Y-82453870D01*
X134529059Y-82453882D01*
X134529058Y-82453887D01*
X134529058Y-82453888D01*
X134499501Y-82640506D01*
X134499500Y-82640520D01*
X120983447Y-82640520D01*
X128603446Y-75020520D01*
X134499500Y-75020520D01*
X134499500Y-75209479D01*
X134499501Y-75209493D01*
X134517763Y-75324795D01*
X134529058Y-75396110D01*
X134529059Y-75396116D01*
X134529063Y-75396128D01*
X134581804Y-75558449D01*
X134581807Y-75558457D01*
X134582954Y-75561985D01*
X134587453Y-75575832D01*
X134604737Y-75609753D01*
X134605500Y-75611251D01*
X134605507Y-75611266D01*
X134644358Y-75687515D01*
X134673240Y-75744200D01*
X134673242Y-75744203D01*
X134673246Y-75744209D01*
X134673254Y-75744221D01*
X134783091Y-75895398D01*
X134783109Y-75895422D01*
X134784300Y-75897061D01*
X134784308Y-75897070D01*
X134784310Y-75897073D01*
X134784510Y-75897273D01*
X134784514Y-75897278D01*
X134917919Y-76030683D01*
X134917924Y-76030687D01*
X134917927Y-76030690D01*
X134917930Y-76030692D01*
X134917938Y-76030699D01*
X134917942Y-76030702D01*
X134918216Y-76030926D01*
X134919027Y-76031491D01*
X135070794Y-76141756D01*
X135070807Y-76141764D01*
X135071068Y-76141896D01*
X135239161Y-76227544D01*
X135239165Y-76227545D01*
X135239168Y-76227547D01*
X135418882Y-76285940D01*
X135605519Y-76315500D01*
X135605521Y-76315500D01*
X135794479Y-76315500D01*
X135794481Y-76315500D01*
X135981118Y-76285940D01*
X136160832Y-76227547D01*
X136329199Y-76141760D01*
X136480971Y-76031491D01*
X136482061Y-76030699D01*
X136482063Y-76030697D01*
X136482073Y-76030690D01*
X136615690Y-75897073D01*
X136726760Y-75744199D01*
X136812547Y-75575832D01*
X136870940Y-75396118D01*
X136900500Y-75209481D01*
X136900500Y-75020519D01*
X136900499Y-75020517D01*
X136900499Y-75020508D01*
X136892550Y-74970326D01*
X136884896Y-74922001D01*
X136870941Y-74833888D01*
X136870940Y-74833887D01*
X136870940Y-74833882D01*
X136812547Y-74654168D01*
X136812545Y-74654165D01*
X136812544Y-74654161D01*
X136726896Y-74486068D01*
X136726764Y-74485807D01*
X136726756Y-74485794D01*
X136615701Y-74332941D01*
X136615701Y-74332940D01*
X136615681Y-74332917D01*
X136482081Y-74199317D01*
X136482058Y-74199297D01*
X136329221Y-74088254D01*
X136329209Y-74088246D01*
X136329203Y-74088242D01*
X136329200Y-74088240D01*
X136279061Y-74062693D01*
X136247066Y-74046391D01*
X136247050Y-74046383D01*
X136246559Y-74046133D01*
X136160832Y-74002453D01*
X136154504Y-74000397D01*
X136149891Y-73998898D01*
X136149887Y-73998896D01*
X136031747Y-73960510D01*
X135981126Y-73944062D01*
X135981121Y-73944060D01*
X135981116Y-73944059D01*
X135981091Y-73944054D01*
X135794513Y-73914503D01*
X135794489Y-73914500D01*
X135794482Y-73914500D01*
X135794481Y-73914500D01*
X135605519Y-73914500D01*
X135605517Y-73914500D01*
X135605509Y-73914500D01*
X135605485Y-73914503D01*
X135418907Y-73944054D01*
X135418882Y-73944059D01*
X135418870Y-73944063D01*
X135239172Y-74002451D01*
X135070799Y-74088240D01*
X135070777Y-74088254D01*
X134917941Y-74199297D01*
X134917940Y-74199297D01*
X134917917Y-74199317D01*
X134784317Y-74332917D01*
X134784297Y-74332940D01*
X134784297Y-74332941D01*
X134673254Y-74485777D01*
X134673240Y-74485799D01*
X134587451Y-74654172D01*
X134529063Y-74833870D01*
X134529059Y-74833882D01*
X134529058Y-74833887D01*
X134529058Y-74833888D01*
X134499501Y-75020506D01*
X134499500Y-75020520D01*
X128603446Y-75020520D01*
X131928554Y-71695412D01*
X131950931Y-71680459D01*
X131974369Y-71670751D01*
X132000771Y-71665500D01*
X134731433Y-71665500D01*
X134757838Y-71670752D01*
X134764695Y-71673593D01*
X134764700Y-71673595D01*
X134802042Y-71710937D01*
X134802042Y-71763746D01*
X134799201Y-71770605D01*
X134785062Y-71791779D01*
X134785114Y-71791817D01*
X134785112Y-71791819D01*
X134785156Y-71791854D01*
X134785138Y-71791876D01*
X134785216Y-71791948D01*
X134784318Y-71792917D01*
X134784293Y-71792946D01*
X134673254Y-71945777D01*
X134673240Y-71945799D01*
X134587451Y-72114172D01*
X134529063Y-72293870D01*
X134529059Y-72293882D01*
X134529058Y-72293888D01*
X134499501Y-72480507D01*
X134499500Y-72480524D01*
X134499500Y-72669474D01*
X134499501Y-72669491D01*
X134529058Y-72856110D01*
X134529059Y-72856116D01*
X134529063Y-72856128D01*
X134587441Y-73035797D01*
X134587455Y-73035837D01*
X134631132Y-73121557D01*
X134631132Y-73121559D01*
X134631133Y-73121559D01*
X134673240Y-73204200D01*
X134673242Y-73204203D01*
X134673246Y-73204209D01*
X134673254Y-73204221D01*
X134783091Y-73355398D01*
X134783109Y-73355422D01*
X134784300Y-73357061D01*
X134784308Y-73357070D01*
X134784310Y-73357073D01*
X134784510Y-73357273D01*
X134784514Y-73357278D01*
X134917919Y-73490683D01*
X134917924Y-73490687D01*
X134917927Y-73490690D01*
X134917930Y-73490692D01*
X134917938Y-73490699D01*
X134917942Y-73490702D01*
X134918216Y-73490926D01*
X134919027Y-73491491D01*
X135070794Y-73601756D01*
X135070807Y-73601764D01*
X135071068Y-73601896D01*
X135239161Y-73687544D01*
X135239165Y-73687545D01*
X135239168Y-73687547D01*
X135418882Y-73745940D01*
X135418887Y-73745940D01*
X135418888Y-73745941D01*
X135534576Y-73764264D01*
X135605519Y-73775500D01*
X135605521Y-73775500D01*
X135794479Y-73775500D01*
X135794481Y-73775500D01*
X135981118Y-73745940D01*
X136160832Y-73687547D01*
X136329199Y-73601760D01*
X136480971Y-73491491D01*
X136482061Y-73490699D01*
X136482063Y-73490697D01*
X136482073Y-73490690D01*
X136615690Y-73357073D01*
X136726760Y-73204199D01*
X136812547Y-73035832D01*
X136870940Y-72856118D01*
X136900500Y-72669481D01*
X136900500Y-72480519D01*
X136870940Y-72293882D01*
X136812547Y-72114168D01*
X136812545Y-72114165D01*
X136812544Y-72114161D01*
X136726896Y-71946068D01*
X136726764Y-71945807D01*
X136726756Y-71945794D01*
X136615701Y-71792941D01*
X136615701Y-71792940D01*
X136615678Y-71792913D01*
X136614785Y-71791949D01*
X136614861Y-71791877D01*
X136614843Y-71791854D01*
X136614886Y-71791819D01*
X136614885Y-71791817D01*
X136614943Y-71791774D01*
X136600800Y-71770609D01*
X136597957Y-71763747D01*
X136597957Y-71710937D01*
X136635297Y-71673596D01*
X136642168Y-71670750D01*
X136668567Y-71665500D01*
X137550518Y-71665500D01*
X137563979Y-71666826D01*
X137582449Y-71670500D01*
X137618478Y-71670500D01*
X137636335Y-71672851D01*
X137639112Y-71673595D01*
X137646222Y-71675500D01*
X137743775Y-71675500D01*
X137743778Y-71675500D01*
X137838007Y-71650251D01*
X137889707Y-71620402D01*
X137922487Y-71601478D01*
X137922489Y-71601476D01*
X137922493Y-71601474D01*
X137931524Y-71592441D01*
X137951608Y-71578486D01*
X138309270Y-71414878D01*
X138309274Y-71414874D01*
X138311553Y-71413565D01*
X138312267Y-71413109D01*
X138312482Y-71412984D01*
X138312485Y-71412984D01*
X138438015Y-71340509D01*
X138540509Y-71238015D01*
X138612984Y-71112485D01*
X138650500Y-70972475D01*
X138650500Y-70827525D01*
X138612984Y-70687515D01*
X138540509Y-70561985D01*
X138438015Y-70459491D01*
X138312485Y-70387016D01*
X138172475Y-70349500D01*
X138172472Y-70349500D01*
X138027526Y-70349500D01*
X138027525Y-70349500D01*
X138001999Y-70356339D01*
X137888507Y-70386749D01*
X137887581Y-70386982D01*
X137887494Y-70387025D01*
X137762011Y-70459474D01*
X137761983Y-70459492D01*
X137761973Y-70459500D01*
X137659500Y-70561973D01*
X137659492Y-70561983D01*
X137659491Y-70561985D01*
X137587063Y-70687429D01*
X137586824Y-70687799D01*
X137586826Y-70687800D01*
X137585124Y-70690723D01*
X137585122Y-70690728D01*
X137489822Y-70899062D01*
X137487470Y-70904203D01*
X137448795Y-70940165D01*
X137424723Y-70944500D01*
X136668567Y-70944500D01*
X136642157Y-70939245D01*
X136635295Y-70936402D01*
X136597955Y-70899057D01*
X136597955Y-70894441D01*
X136597957Y-70846252D01*
X136600803Y-70839383D01*
X136614197Y-70819344D01*
X136614160Y-70819313D01*
X136614097Y-70819267D01*
X136614100Y-70819261D01*
X136613938Y-70819123D01*
X136615681Y-70817081D01*
X136615690Y-70817073D01*
X136616893Y-70815418D01*
X136709613Y-70687800D01*
X136726760Y-70664199D01*
X136812547Y-70495832D01*
X136870940Y-70316118D01*
X136900500Y-70129481D01*
X136900500Y-69940519D01*
X136872473Y-69763564D01*
X136870941Y-69753888D01*
X136870940Y-69753887D01*
X136870940Y-69753882D01*
X136812547Y-69574168D01*
X136812545Y-69574165D01*
X136812544Y-69574161D01*
X136726896Y-69406068D01*
X136726764Y-69405807D01*
X136726756Y-69405794D01*
X136615701Y-69252941D01*
X136615701Y-69252940D01*
X136615681Y-69252917D01*
X136482081Y-69119317D01*
X136482058Y-69119297D01*
X136329221Y-69008254D01*
X136329209Y-69008246D01*
X136329203Y-69008242D01*
X136329200Y-69008240D01*
X136246559Y-68966133D01*
X136246559Y-68966132D01*
X136246557Y-68966132D01*
X136160837Y-68922455D01*
X136160833Y-68922453D01*
X136160832Y-68922453D01*
X136160829Y-68922452D01*
X136160821Y-68922449D01*
X136160797Y-68922441D01*
X136047172Y-68885522D01*
X135981126Y-68864062D01*
X135981121Y-68864060D01*
X135981116Y-68864059D01*
X135981091Y-68864054D01*
X135794513Y-68834503D01*
X135794489Y-68834500D01*
X135794482Y-68834500D01*
X135794481Y-68834500D01*
X135605519Y-68834500D01*
X135605517Y-68834500D01*
X135605509Y-68834500D01*
X135605485Y-68834503D01*
X135418907Y-68864054D01*
X135418882Y-68864059D01*
X135418870Y-68864063D01*
X135239172Y-68922451D01*
X135070799Y-69008240D01*
X135070777Y-69008254D01*
X134917941Y-69119297D01*
X134917940Y-69119297D01*
X134917917Y-69119317D01*
X134784317Y-69252917D01*
X134784297Y-69252940D01*
X134784297Y-69252941D01*
X134673254Y-69405777D01*
X134673240Y-69405799D01*
X134587451Y-69574172D01*
X134529063Y-69753870D01*
X134529059Y-69753882D01*
X134529058Y-69753887D01*
X134529058Y-69753888D01*
X134499501Y-69940506D01*
X134499500Y-69940520D01*
X134499500Y-70129479D01*
X134499501Y-70129493D01*
X134529058Y-70316111D01*
X134529062Y-70316126D01*
X134552099Y-70387025D01*
X134575645Y-70459490D01*
X134587453Y-70495831D01*
X134587456Y-70495838D01*
X134621159Y-70561983D01*
X134621159Y-70561985D01*
X134621160Y-70561985D01*
X134673240Y-70664200D01*
X134673242Y-70664203D01*
X134673246Y-70664209D01*
X134673254Y-70664221D01*
X134784297Y-70817057D01*
X134784297Y-70817058D01*
X134784320Y-70817085D01*
X134785214Y-70818050D01*
X134785137Y-70818121D01*
X134785156Y-70818145D01*
X134785112Y-70818179D01*
X134785114Y-70818182D01*
X134785055Y-70818224D01*
X134799199Y-70839390D01*
X134802041Y-70846251D01*
X134802042Y-70899062D01*
X134764708Y-70936401D01*
X134761288Y-70937817D01*
X134757844Y-70939244D01*
X134731433Y-70944500D01*
X131894709Y-70944500D01*
X131885696Y-70943909D01*
X131876800Y-70942737D01*
X131867956Y-70940977D01*
X131843781Y-70934500D01*
X131843778Y-70934500D01*
X131746222Y-70934500D01*
X131739124Y-70936402D01*
X131652985Y-70959482D01*
X131652059Y-70959715D01*
X131651983Y-70959753D01*
X131567524Y-71008514D01*
X131567509Y-71008523D01*
X131567498Y-71008532D01*
X120241448Y-82334584D01*
X120219066Y-82349540D01*
X120195637Y-82359246D01*
X120169229Y-82364500D01*
X112366848Y-82364500D01*
X112337641Y-82358014D01*
X112319503Y-82349540D01*
X110870316Y-81672472D01*
X110870314Y-81672471D01*
X110835602Y-81659945D01*
X110827699Y-81656522D01*
X110760834Y-81622454D01*
X110760833Y-81622453D01*
X110760832Y-81622453D01*
X110760829Y-81622452D01*
X110760819Y-81622449D01*
X110760797Y-81622441D01*
X110647172Y-81585522D01*
X110581126Y-81564062D01*
X110581121Y-81564060D01*
X110581116Y-81564059D01*
X110581091Y-81564054D01*
X110394513Y-81534503D01*
X110394489Y-81534500D01*
X110394482Y-81534500D01*
X110394481Y-81534500D01*
X110205519Y-81534500D01*
X110205517Y-81534500D01*
X110205509Y-81534500D01*
X110205485Y-81534503D01*
X110018907Y-81564054D01*
X110018882Y-81564059D01*
X110018870Y-81564063D01*
X109839172Y-81622451D01*
X109670799Y-81708240D01*
X109670777Y-81708254D01*
X109517941Y-81819297D01*
X109517940Y-81819297D01*
X109517917Y-81819317D01*
X109384317Y-81952917D01*
X109384297Y-81952940D01*
X109384297Y-81952941D01*
X109273254Y-82105777D01*
X109273240Y-82105799D01*
X109187451Y-82274172D01*
X109129063Y-82453870D01*
X109129059Y-82453882D01*
X109129058Y-82453887D01*
X109129058Y-82453888D01*
X109099501Y-82640506D01*
X109099500Y-82640520D01*
X107650500Y-82640520D01*
X107650500Y-80100520D01*
X109099500Y-80100520D01*
X109099500Y-80289479D01*
X109099501Y-80289493D01*
X109129058Y-80476111D01*
X109129062Y-80476126D01*
X109134877Y-80494022D01*
X109179322Y-80630808D01*
X109187453Y-80655833D01*
X109195872Y-80672355D01*
X109195872Y-80672357D01*
X109195873Y-80672357D01*
X109273240Y-80824200D01*
X109273242Y-80824203D01*
X109273246Y-80824209D01*
X109273254Y-80824221D01*
X109383091Y-80975398D01*
X109383109Y-80975422D01*
X109384300Y-80977061D01*
X109384308Y-80977070D01*
X109384310Y-80977073D01*
X109384510Y-80977273D01*
X109384514Y-80977278D01*
X109517919Y-81110683D01*
X109517924Y-81110687D01*
X109517927Y-81110690D01*
X109517930Y-81110692D01*
X109517938Y-81110699D01*
X109517942Y-81110702D01*
X109518216Y-81110926D01*
X109519027Y-81111491D01*
X109670794Y-81221756D01*
X109670807Y-81221764D01*
X109671068Y-81221896D01*
X109839161Y-81307544D01*
X109839165Y-81307545D01*
X109839168Y-81307547D01*
X110018882Y-81365940D01*
X110205519Y-81395500D01*
X110205521Y-81395500D01*
X110394479Y-81395500D01*
X110394481Y-81395500D01*
X110581118Y-81365940D01*
X110760832Y-81307547D01*
X110929199Y-81221760D01*
X111080971Y-81111491D01*
X111082061Y-81110699D01*
X111082063Y-81110697D01*
X111082073Y-81110690D01*
X111215690Y-80977073D01*
X111229673Y-80957828D01*
X111323822Y-80828243D01*
X111326760Y-80824199D01*
X111412547Y-80655832D01*
X111470940Y-80476118D01*
X111500500Y-80289481D01*
X111500500Y-80100519D01*
X111498509Y-80087951D01*
X111470941Y-79913888D01*
X111470940Y-79913887D01*
X111470940Y-79913882D01*
X111470937Y-79913875D01*
X111470654Y-79912083D01*
X111469265Y-79908728D01*
X111456757Y-79870234D01*
X111412547Y-79734168D01*
X111412545Y-79734165D01*
X111412544Y-79734161D01*
X111326896Y-79566068D01*
X111326764Y-79565807D01*
X111326756Y-79565794D01*
X111215701Y-79412941D01*
X111215701Y-79412940D01*
X111215681Y-79412917D01*
X111082081Y-79279317D01*
X111082058Y-79279297D01*
X110929221Y-79168254D01*
X110929209Y-79168246D01*
X110929203Y-79168242D01*
X110929200Y-79168240D01*
X110846559Y-79126133D01*
X110846559Y-79126132D01*
X110846558Y-79126132D01*
X110760838Y-79082455D01*
X110760834Y-79082453D01*
X110731647Y-79072970D01*
X110731647Y-79072969D01*
X110620163Y-79036746D01*
X110581126Y-79024062D01*
X110581121Y-79024060D01*
X110581116Y-79024059D01*
X110581091Y-79024054D01*
X110394513Y-78994503D01*
X110394489Y-78994500D01*
X110394482Y-78994500D01*
X110394481Y-78994500D01*
X110205519Y-78994500D01*
X110205517Y-78994500D01*
X110205509Y-78994500D01*
X110205485Y-78994503D01*
X110018907Y-79024054D01*
X110018882Y-79024059D01*
X110018870Y-79024063D01*
X109839172Y-79082451D01*
X109670799Y-79168240D01*
X109670777Y-79168254D01*
X109517941Y-79279297D01*
X109517940Y-79279297D01*
X109517917Y-79279317D01*
X109384317Y-79412917D01*
X109384297Y-79412940D01*
X109384297Y-79412941D01*
X109273254Y-79565777D01*
X109273240Y-79565799D01*
X109187451Y-79734172D01*
X109129063Y-79913870D01*
X109129059Y-79913882D01*
X109129058Y-79913887D01*
X109129058Y-79913888D01*
X109099501Y-80100506D01*
X109099500Y-80100520D01*
X107650500Y-80100520D01*
X107650500Y-78928907D01*
X107655751Y-78902505D01*
X107665459Y-78879067D01*
X107680413Y-78856689D01*
X108346292Y-78190809D01*
X108395081Y-78170600D01*
X108421508Y-78175862D01*
X109740133Y-78722702D01*
X109751541Y-78725282D01*
X109767632Y-78731097D01*
X109839168Y-78767547D01*
X110013731Y-78824266D01*
X110017087Y-78825656D01*
X110155921Y-78847645D01*
X110155922Y-78847645D01*
X110167418Y-78849465D01*
X110205519Y-78855500D01*
X110205521Y-78855500D01*
X110394479Y-78855500D01*
X110394481Y-78855500D01*
X110581118Y-78825940D01*
X110760832Y-78767547D01*
X110929199Y-78681760D01*
X110985724Y-78640692D01*
X111082061Y-78570699D01*
X111082063Y-78570697D01*
X111082073Y-78570690D01*
X111215690Y-78437073D01*
X111225640Y-78423379D01*
X111326757Y-78284203D01*
X111326759Y-78284200D01*
X111326760Y-78284199D01*
X111412547Y-78115832D01*
X111470940Y-77936118D01*
X111500500Y-77749481D01*
X111500500Y-77560519D01*
X111470940Y-77373882D01*
X111412547Y-77194168D01*
X111412545Y-77194165D01*
X111412544Y-77194161D01*
X111326896Y-77026068D01*
X111326764Y-77025807D01*
X111326756Y-77025794D01*
X111215701Y-76872941D01*
X111215701Y-76872940D01*
X111215681Y-76872917D01*
X111082081Y-76739317D01*
X111082058Y-76739297D01*
X110929221Y-76628254D01*
X110929209Y-76628246D01*
X110929203Y-76628242D01*
X110929200Y-76628240D01*
X110846559Y-76586133D01*
X110846559Y-76586132D01*
X110846557Y-76586132D01*
X110760837Y-76542455D01*
X110760833Y-76542453D01*
X110760832Y-76542453D01*
X110760829Y-76542452D01*
X110760821Y-76542449D01*
X110760797Y-76542441D01*
X110647172Y-76505522D01*
X110581126Y-76484062D01*
X110581121Y-76484060D01*
X110581116Y-76484059D01*
X110581091Y-76484054D01*
X110394513Y-76454503D01*
X110394489Y-76454500D01*
X110394482Y-76454500D01*
X110394481Y-76454500D01*
X110205519Y-76454500D01*
X110205517Y-76454500D01*
X110205509Y-76454500D01*
X110205485Y-76454503D01*
X110018907Y-76484054D01*
X110018882Y-76484059D01*
X110018870Y-76484063D01*
X109839174Y-76542450D01*
X109839170Y-76542452D01*
X109766726Y-76579362D01*
X109748888Y-76585551D01*
X109740141Y-76587294D01*
X109740133Y-76587296D01*
X108264526Y-77199237D01*
X108246668Y-77203965D01*
X108242396Y-77204500D01*
X108185691Y-77204500D01*
X108140508Y-77216606D01*
X108135930Y-77217832D01*
X108135927Y-77217833D01*
X108113182Y-77223927D01*
X108071109Y-77235200D01*
X108071105Y-77235202D01*
X107968392Y-77294505D01*
X107968373Y-77294520D01*
X106839521Y-78423373D01*
X106839515Y-78423380D01*
X106839506Y-78423392D01*
X106780201Y-78526113D01*
X106749500Y-78640693D01*
X106749500Y-85071092D01*
X106744247Y-85097499D01*
X106734541Y-85120929D01*
X106719584Y-85143312D01*
X105613312Y-86249584D01*
X105590930Y-86264540D01*
X105567501Y-86274246D01*
X105541093Y-86279500D01*
X104958687Y-86279500D01*
X104934984Y-86275301D01*
X104905591Y-86264550D01*
X104751605Y-86208226D01*
X103699828Y-85823514D01*
X103695049Y-85821834D01*
X103695018Y-85821823D01*
X103694988Y-85821813D01*
X103694437Y-85821627D01*
X103694433Y-85821626D01*
X103694432Y-85821626D01*
X103692212Y-85821127D01*
X103680937Y-85817553D01*
X103677250Y-85816025D01*
X103677246Y-85816024D01*
X103493623Y-85779500D01*
X103493620Y-85779500D01*
X103493616Y-85779500D01*
X103306384Y-85779500D01*
X103306380Y-85779500D01*
X103306377Y-85779500D01*
X103122755Y-85816023D01*
X103003699Y-85865338D01*
X102949763Y-85887680D01*
X102949761Y-85887680D01*
X102949759Y-85887682D01*
X102949744Y-85887693D01*
X102794107Y-85991685D01*
X102794099Y-85991691D01*
X102794083Y-85991704D01*
X102661704Y-86124083D01*
X102661691Y-86124099D01*
X102661685Y-86124107D01*
X102557692Y-86279743D01*
X102557693Y-86279744D01*
X102557682Y-86279759D01*
X102557682Y-86279760D01*
X102557680Y-86279763D01*
X102548567Y-86301764D01*
X102486023Y-86452755D01*
X102449500Y-86636375D01*
X101500500Y-86636375D01*
X101500500Y-84095520D01*
X102199500Y-84095520D01*
X102199500Y-84284479D01*
X102199501Y-84284493D01*
X102229058Y-84471111D01*
X102229062Y-84471126D01*
X102257769Y-84559474D01*
X102257774Y-84559490D01*
X102287453Y-84650832D01*
X102287456Y-84650839D01*
X102293134Y-84661982D01*
X102293135Y-84661983D01*
X102373240Y-84819200D01*
X102373242Y-84819203D01*
X102373246Y-84819209D01*
X102429898Y-84897182D01*
X102439699Y-84916417D01*
X102446123Y-84936187D01*
X102449500Y-84957510D01*
X102449500Y-84959746D01*
X102449499Y-84959746D01*
X102456291Y-84993888D01*
X102461133Y-85018231D01*
X102497377Y-85072475D01*
X102505448Y-85084553D01*
X102540467Y-85107952D01*
X102540468Y-85107952D01*
X102548617Y-85113397D01*
X102571769Y-85128867D01*
X102630252Y-85140500D01*
X102643163Y-85140500D01*
X102653335Y-85143724D01*
X102653448Y-85143819D01*
X102653810Y-85143877D01*
X102673582Y-85150301D01*
X102692814Y-85160099D01*
X102770796Y-85216757D01*
X102770799Y-85216759D01*
X102770807Y-85216764D01*
X102771068Y-85216896D01*
X102939161Y-85302544D01*
X102939165Y-85302545D01*
X102939168Y-85302547D01*
X103118882Y-85360940D01*
X103118887Y-85360940D01*
X103118888Y-85360941D01*
X103172871Y-85369491D01*
X103305519Y-85390500D01*
X103305521Y-85390500D01*
X103494479Y-85390500D01*
X103494481Y-85390500D01*
X103681118Y-85360940D01*
X103860832Y-85302547D01*
X104029199Y-85216760D01*
X104107184Y-85160100D01*
X104126415Y-85150300D01*
X104146192Y-85143875D01*
X104167508Y-85140500D01*
X104169747Y-85140500D01*
X104169748Y-85140500D01*
X104228231Y-85128867D01*
X104294552Y-85084552D01*
X104338867Y-85018231D01*
X104348942Y-84967576D01*
X104354238Y-84951546D01*
X104365296Y-84928167D01*
X104378877Y-84908885D01*
X104915690Y-84372074D01*
X104924959Y-84359317D01*
X105005659Y-84248242D01*
X105026760Y-84219199D01*
X105112547Y-84050832D01*
X105170940Y-83871118D01*
X105200500Y-83684482D01*
X105200500Y-83495519D01*
X105200500Y-75555241D01*
X105202406Y-75539134D01*
X105202408Y-75539127D01*
X105206117Y-75523678D01*
X105211729Y-75508470D01*
X105214045Y-75503925D01*
X105214423Y-75503207D01*
X105214486Y-75503061D01*
X105214486Y-75503060D01*
X105214488Y-75503057D01*
X105278231Y-75306876D01*
X105310500Y-75103139D01*
X105310500Y-75020520D01*
X109099500Y-75020520D01*
X109099500Y-75209479D01*
X109099501Y-75209493D01*
X109117763Y-75324795D01*
X109129058Y-75396110D01*
X109129059Y-75396116D01*
X109129063Y-75396128D01*
X109181804Y-75558449D01*
X109181807Y-75558457D01*
X109182954Y-75561985D01*
X109187453Y-75575832D01*
X109204737Y-75609753D01*
X109205500Y-75611251D01*
X109205507Y-75611266D01*
X109244358Y-75687515D01*
X109273240Y-75744200D01*
X109273242Y-75744203D01*
X109273246Y-75744209D01*
X109273254Y-75744221D01*
X109383091Y-75895398D01*
X109383109Y-75895422D01*
X109384300Y-75897061D01*
X109384308Y-75897070D01*
X109384310Y-75897073D01*
X109384510Y-75897273D01*
X109384514Y-75897278D01*
X109517919Y-76030683D01*
X109517924Y-76030687D01*
X109517927Y-76030690D01*
X109517930Y-76030692D01*
X109517938Y-76030699D01*
X109517942Y-76030702D01*
X109518216Y-76030926D01*
X109519027Y-76031491D01*
X109670794Y-76141756D01*
X109670807Y-76141764D01*
X109671068Y-76141896D01*
X109839161Y-76227544D01*
X109839165Y-76227545D01*
X109839168Y-76227547D01*
X110018882Y-76285940D01*
X110205519Y-76315500D01*
X110205521Y-76315500D01*
X110394479Y-76315500D01*
X110394481Y-76315500D01*
X110581118Y-76285940D01*
X110760832Y-76227547D01*
X110929199Y-76141760D01*
X111080971Y-76031491D01*
X111082061Y-76030699D01*
X111082063Y-76030697D01*
X111082073Y-76030690D01*
X111215690Y-75897073D01*
X111326760Y-75744199D01*
X111412547Y-75575832D01*
X111470940Y-75396118D01*
X111500500Y-75209481D01*
X111500500Y-75020519D01*
X111500499Y-75020517D01*
X111500499Y-75020508D01*
X111492550Y-74970326D01*
X111484896Y-74922001D01*
X111470941Y-74833888D01*
X111470940Y-74833887D01*
X111470940Y-74833882D01*
X111412547Y-74654168D01*
X111412545Y-74654165D01*
X111412544Y-74654161D01*
X111326896Y-74486068D01*
X111326764Y-74485807D01*
X111326756Y-74485794D01*
X111215701Y-74332941D01*
X111215701Y-74332940D01*
X111215681Y-74332917D01*
X111082081Y-74199317D01*
X111082058Y-74199297D01*
X110929221Y-74088254D01*
X110929209Y-74088246D01*
X110929203Y-74088242D01*
X110929200Y-74088240D01*
X110879061Y-74062693D01*
X110847066Y-74046391D01*
X110847050Y-74046383D01*
X110846559Y-74046133D01*
X110760832Y-74002453D01*
X110754504Y-74000397D01*
X110749891Y-73998898D01*
X110749887Y-73998896D01*
X110631747Y-73960510D01*
X110581126Y-73944062D01*
X110581121Y-73944060D01*
X110581116Y-73944059D01*
X110581091Y-73944054D01*
X110394513Y-73914503D01*
X110394489Y-73914500D01*
X110394482Y-73914500D01*
X110394481Y-73914500D01*
X110205519Y-73914500D01*
X110205517Y-73914500D01*
X110205509Y-73914500D01*
X110205485Y-73914503D01*
X110018907Y-73944054D01*
X110018882Y-73944059D01*
X110018870Y-73944063D01*
X109839172Y-74002451D01*
X109670799Y-74088240D01*
X109670777Y-74088254D01*
X109517941Y-74199297D01*
X109517940Y-74199297D01*
X109517917Y-74199317D01*
X109384317Y-74332917D01*
X109384297Y-74332940D01*
X109384297Y-74332941D01*
X109273254Y-74485777D01*
X109273240Y-74485799D01*
X109187451Y-74654172D01*
X109129063Y-74833870D01*
X109129059Y-74833882D01*
X109129058Y-74833887D01*
X109129058Y-74833888D01*
X109099501Y-75020506D01*
X109099500Y-75020520D01*
X105310500Y-75020520D01*
X105310500Y-74896861D01*
X105278231Y-74693124D01*
X105214488Y-74496943D01*
X105214483Y-74496934D01*
X105214482Y-74496930D01*
X105120976Y-74313415D01*
X105120844Y-74313154D01*
X105120836Y-74313141D01*
X104999605Y-74146281D01*
X104999604Y-74146280D01*
X104999584Y-74146257D01*
X104853741Y-74000414D01*
X104853718Y-74000394D01*
X104853717Y-74000393D01*
X104686874Y-73879174D01*
X104686861Y-73879166D01*
X104686856Y-73879162D01*
X104686853Y-73879160D01*
X104683412Y-73877406D01*
X104593205Y-73831443D01*
X104593205Y-73831444D01*
X104503057Y-73785512D01*
X104437663Y-73764264D01*
X104306884Y-73721771D01*
X104306879Y-73721769D01*
X104306877Y-73721769D01*
X104306874Y-73721768D01*
X104306849Y-73721763D01*
X104103171Y-73689503D01*
X104103147Y-73689500D01*
X104103140Y-73689500D01*
X104103139Y-73689500D01*
X103896861Y-73689500D01*
X103896859Y-73689500D01*
X103896851Y-73689500D01*
X103896827Y-73689503D01*
X103693149Y-73721763D01*
X103693124Y-73721768D01*
X103693115Y-73721771D01*
X103496946Y-73785511D01*
X103496941Y-73785513D01*
X103313150Y-73879158D01*
X103313146Y-73879160D01*
X103313124Y-73879174D01*
X103146281Y-74000393D01*
X103146280Y-74000394D01*
X103146257Y-74000414D01*
X103000414Y-74146257D01*
X103000394Y-74146280D01*
X103000393Y-74146281D01*
X102879174Y-74313124D01*
X102879163Y-74313141D01*
X102879162Y-74313143D01*
X102879160Y-74313146D01*
X102785513Y-74496941D01*
X102785511Y-74496946D01*
X102734426Y-74654169D01*
X102721772Y-74693112D01*
X102721768Y-74693124D01*
X102721763Y-74693149D01*
X102689502Y-74896836D01*
X102689502Y-74896838D01*
X102689500Y-74896866D01*
X102689500Y-75103132D01*
X102689502Y-75103160D01*
X102689502Y-75103162D01*
X102721763Y-75306849D01*
X102721768Y-75306874D01*
X102721771Y-75306883D01*
X102721775Y-75306898D01*
X102727591Y-75324796D01*
X102785511Y-75503056D01*
X102785516Y-75503067D01*
X102788271Y-75508474D01*
X102793883Y-75523684D01*
X102797592Y-75539127D01*
X102799500Y-75555241D01*
X102799500Y-83050431D01*
X102794247Y-83076838D01*
X102784541Y-83100268D01*
X102769585Y-83122651D01*
X102696407Y-83195829D01*
X102681111Y-83211125D01*
X102661830Y-83224705D01*
X102638477Y-83235753D01*
X102622431Y-83241055D01*
X102571768Y-83251133D01*
X102505447Y-83295447D01*
X102461133Y-83361767D01*
X102449500Y-83420250D01*
X102449500Y-83422487D01*
X102446122Y-83443811D01*
X102439697Y-83463583D01*
X102429897Y-83482816D01*
X102373254Y-83560777D01*
X102373240Y-83560799D01*
X102287451Y-83729172D01*
X102229063Y-83908870D01*
X102229059Y-83908882D01*
X102229058Y-83908888D01*
X102199501Y-84095506D01*
X102199500Y-84095520D01*
X101500500Y-84095520D01*
X101500500Y-72480524D01*
X109099500Y-72480524D01*
X109099500Y-72669474D01*
X109099501Y-72669491D01*
X109129058Y-72856110D01*
X109129059Y-72856116D01*
X109129063Y-72856128D01*
X109187441Y-73035797D01*
X109187455Y-73035837D01*
X109231132Y-73121557D01*
X109231132Y-73121559D01*
X109231133Y-73121559D01*
X109273240Y-73204200D01*
X109273242Y-73204203D01*
X109273246Y-73204209D01*
X109273254Y-73204221D01*
X109383091Y-73355398D01*
X109383109Y-73355422D01*
X109384300Y-73357061D01*
X109384308Y-73357070D01*
X109384310Y-73357073D01*
X109384510Y-73357273D01*
X109384514Y-73357278D01*
X109517919Y-73490683D01*
X109517924Y-73490687D01*
X109517927Y-73490690D01*
X109517930Y-73490692D01*
X109517938Y-73490699D01*
X109517942Y-73490702D01*
X109518216Y-73490926D01*
X109519027Y-73491491D01*
X109670794Y-73601756D01*
X109670807Y-73601764D01*
X109671068Y-73601896D01*
X109839161Y-73687544D01*
X109839165Y-73687545D01*
X109839168Y-73687547D01*
X110018882Y-73745940D01*
X110018887Y-73745940D01*
X110018888Y-73745941D01*
X110134576Y-73764264D01*
X110205519Y-73775500D01*
X110205521Y-73775500D01*
X110394479Y-73775500D01*
X110394481Y-73775500D01*
X110581118Y-73745940D01*
X110760832Y-73687547D01*
X110929199Y-73601760D01*
X111080971Y-73491491D01*
X111082061Y-73490699D01*
X111082063Y-73490697D01*
X111082073Y-73490690D01*
X111215690Y-73357073D01*
X111326760Y-73204199D01*
X111412547Y-73035832D01*
X111470940Y-72856118D01*
X111500500Y-72669481D01*
X111500500Y-72480519D01*
X111470940Y-72293882D01*
X111412547Y-72114168D01*
X111412545Y-72114165D01*
X111412544Y-72114161D01*
X111326896Y-71946068D01*
X111326764Y-71945807D01*
X111326756Y-71945794D01*
X111215701Y-71792941D01*
X111215701Y-71792940D01*
X111215681Y-71792917D01*
X111082081Y-71659317D01*
X111082058Y-71659297D01*
X110929221Y-71548254D01*
X110929209Y-71548246D01*
X110929203Y-71548242D01*
X110929200Y-71548240D01*
X110846559Y-71506133D01*
X110846559Y-71506132D01*
X110846558Y-71506132D01*
X110760838Y-71462455D01*
X110760830Y-71462452D01*
X110724045Y-71450500D01*
X110724044Y-71450499D01*
X110629938Y-71419922D01*
X110581126Y-71404062D01*
X110581121Y-71404060D01*
X110581116Y-71404059D01*
X110581091Y-71404054D01*
X110394513Y-71374503D01*
X110394489Y-71374500D01*
X110394482Y-71374500D01*
X110394481Y-71374500D01*
X110205519Y-71374500D01*
X110205517Y-71374500D01*
X110205509Y-71374500D01*
X110205485Y-71374503D01*
X110018907Y-71404054D01*
X110018882Y-71404059D01*
X110018870Y-71404063D01*
X109839172Y-71462451D01*
X109670799Y-71548240D01*
X109670777Y-71548254D01*
X109517941Y-71659297D01*
X109517940Y-71659297D01*
X109517917Y-71659317D01*
X109384317Y-71792917D01*
X109384297Y-71792940D01*
X109384297Y-71792941D01*
X109273254Y-71945777D01*
X109273240Y-71945799D01*
X109187451Y-72114172D01*
X109129063Y-72293870D01*
X109129059Y-72293882D01*
X109129058Y-72293888D01*
X109099501Y-72480507D01*
X109099500Y-72480524D01*
X101500500Y-72480524D01*
X101500500Y-69940520D01*
X109099500Y-69940520D01*
X109099500Y-70129479D01*
X109099501Y-70129493D01*
X109129058Y-70316111D01*
X109129062Y-70316126D01*
X109152099Y-70387025D01*
X109175645Y-70459490D01*
X109187453Y-70495831D01*
X109187456Y-70495838D01*
X109221159Y-70561983D01*
X109221159Y-70561985D01*
X109221160Y-70561985D01*
X109273240Y-70664200D01*
X109273242Y-70664203D01*
X109273246Y-70664209D01*
X109273254Y-70664221D01*
X109383105Y-70815418D01*
X109383137Y-70815460D01*
X109384300Y-70817061D01*
X109384308Y-70817070D01*
X109384310Y-70817073D01*
X109384506Y-70817269D01*
X109384510Y-70817274D01*
X109517919Y-70950683D01*
X109517924Y-70950687D01*
X109517927Y-70950690D01*
X109517930Y-70950692D01*
X109517938Y-70950699D01*
X109517942Y-70950702D01*
X109518216Y-70950926D01*
X109519027Y-70951491D01*
X109670794Y-71061756D01*
X109670807Y-71061764D01*
X109671068Y-71061896D01*
X109839161Y-71147544D01*
X109839165Y-71147545D01*
X109839168Y-71147547D01*
X110018882Y-71205940D01*
X110205519Y-71235500D01*
X110205521Y-71235500D01*
X110394479Y-71235500D01*
X110394481Y-71235500D01*
X110581118Y-71205940D01*
X110760832Y-71147547D01*
X110929199Y-71061760D01*
X111002469Y-71008526D01*
X111081606Y-70951029D01*
X111082024Y-70950731D01*
X111082070Y-70950692D01*
X111082073Y-70950690D01*
X111215690Y-70817073D01*
X111216893Y-70815418D01*
X111309613Y-70687800D01*
X111326760Y-70664199D01*
X111412547Y-70495832D01*
X111470940Y-70316118D01*
X111500500Y-70129481D01*
X111500500Y-69940519D01*
X111472473Y-69763564D01*
X111470941Y-69753888D01*
X111470940Y-69753887D01*
X111470940Y-69753882D01*
X111412547Y-69574168D01*
X111412545Y-69574165D01*
X111412544Y-69574161D01*
X111326896Y-69406068D01*
X111326764Y-69405807D01*
X111326756Y-69405794D01*
X111215701Y-69252941D01*
X111215701Y-69252940D01*
X111215681Y-69252917D01*
X111082081Y-69119317D01*
X111082058Y-69119297D01*
X110929221Y-69008254D01*
X110929209Y-69008246D01*
X110929203Y-69008242D01*
X110929200Y-69008240D01*
X110846559Y-68966133D01*
X110846559Y-68966132D01*
X110846557Y-68966132D01*
X110760837Y-68922455D01*
X110760833Y-68922453D01*
X110760832Y-68922453D01*
X110760829Y-68922452D01*
X110760821Y-68922449D01*
X110760797Y-68922441D01*
X110647172Y-68885522D01*
X110581126Y-68864062D01*
X110581121Y-68864060D01*
X110581116Y-68864059D01*
X110581091Y-68864054D01*
X110394513Y-68834503D01*
X110394489Y-68834500D01*
X110394482Y-68834500D01*
X110394481Y-68834500D01*
X110205519Y-68834500D01*
X110205517Y-68834500D01*
X110205509Y-68834500D01*
X110205485Y-68834503D01*
X110018907Y-68864054D01*
X110018882Y-68864059D01*
X110018870Y-68864063D01*
X109839172Y-68922451D01*
X109670799Y-69008240D01*
X109670777Y-69008254D01*
X109517941Y-69119297D01*
X109517940Y-69119297D01*
X109517917Y-69119317D01*
X109384317Y-69252917D01*
X109384297Y-69252940D01*
X109384297Y-69252941D01*
X109273254Y-69405777D01*
X109273240Y-69405799D01*
X109187451Y-69574172D01*
X109129063Y-69753870D01*
X109129059Y-69753882D01*
X109129058Y-69753887D01*
X109129058Y-69753888D01*
X109099501Y-69940506D01*
X109099500Y-69940520D01*
X101500500Y-69940520D01*
X101500500Y-66889036D01*
X102590000Y-66889036D01*
X102590000Y-67110962D01*
X102590002Y-67110990D01*
X102590002Y-67110992D01*
X102624713Y-67330149D01*
X102624718Y-67330174D01*
X102624719Y-67330177D01*
X102624721Y-67330184D01*
X102647571Y-67400508D01*
X102693299Y-67541244D01*
X102693306Y-67541262D01*
X102760726Y-67673582D01*
X102760728Y-67673584D01*
X102760729Y-67673584D01*
X103296104Y-67138208D01*
X103344893Y-67117999D01*
X103393683Y-67138209D01*
X103412566Y-67173531D01*
X103413441Y-67177928D01*
X103413442Y-67177931D01*
X103419761Y-67193186D01*
X103459424Y-67288943D01*
X103459425Y-67288945D01*
X103526178Y-67388848D01*
X103526180Y-67388850D01*
X103526182Y-67388853D01*
X103611147Y-67473818D01*
X103611149Y-67473819D01*
X103611151Y-67473821D01*
X103711054Y-67540574D01*
X103711056Y-67540575D01*
X103822069Y-67586558D01*
X103826454Y-67587430D01*
X103870366Y-67616766D01*
X103880673Y-67668561D01*
X103861788Y-67703895D01*
X103326414Y-68239268D01*
X103326414Y-68239270D01*
X103458716Y-68306682D01*
X103458746Y-68306697D01*
X103458749Y-68306698D01*
X103669815Y-68375278D01*
X103669830Y-68375282D01*
X103669849Y-68375285D01*
X103889003Y-68409996D01*
X103889010Y-68409996D01*
X103889018Y-68409998D01*
X103889033Y-68410000D01*
X104110962Y-68410000D01*
X104110967Y-68410000D01*
X104110981Y-68409998D01*
X104330169Y-68375282D01*
X104330184Y-68375278D01*
X104541250Y-68306698D01*
X104541252Y-68306697D01*
X104673584Y-68239270D01*
X104673584Y-68239268D01*
X104138211Y-67703895D01*
X104118001Y-67655105D01*
X104138211Y-67606315D01*
X104173543Y-67587430D01*
X104177931Y-67586558D01*
X104288944Y-67540575D01*
X104388853Y-67473818D01*
X104473818Y-67388853D01*
X104540575Y-67288944D01*
X104586558Y-67177931D01*
X104587430Y-67173544D01*
X104616765Y-67129633D01*
X104668559Y-67119325D01*
X104703895Y-67138211D01*
X105239268Y-67673584D01*
X105239269Y-67673584D01*
X105239270Y-67673584D01*
X105282124Y-67589479D01*
X105306694Y-67541258D01*
X105306698Y-67541249D01*
X105306918Y-67540574D01*
X105338659Y-67442884D01*
X105352425Y-67400520D01*
X109099500Y-67400520D01*
X109099500Y-67589479D01*
X109099501Y-67589493D01*
X109129058Y-67776110D01*
X109129059Y-67776116D01*
X109129063Y-67776128D01*
X109187441Y-67955797D01*
X109187449Y-67955821D01*
X109187452Y-67955829D01*
X109187452Y-67955830D01*
X109187455Y-67955837D01*
X109231132Y-68041557D01*
X109231132Y-68041559D01*
X109231133Y-68041559D01*
X109273240Y-68124200D01*
X109273242Y-68124203D01*
X109273246Y-68124209D01*
X109273254Y-68124221D01*
X109383091Y-68275398D01*
X109383109Y-68275422D01*
X109384300Y-68277061D01*
X109384308Y-68277070D01*
X109384310Y-68277073D01*
X109384510Y-68277273D01*
X109384514Y-68277278D01*
X109517919Y-68410683D01*
X109517924Y-68410687D01*
X109517927Y-68410690D01*
X109517930Y-68410692D01*
X109517938Y-68410699D01*
X109517942Y-68410702D01*
X109518216Y-68410926D01*
X109519027Y-68411491D01*
X109670794Y-68521756D01*
X109670807Y-68521764D01*
X109671068Y-68521896D01*
X109839161Y-68607544D01*
X109839165Y-68607545D01*
X109839168Y-68607547D01*
X110018882Y-68665940D01*
X110205519Y-68695500D01*
X110205521Y-68695500D01*
X110394479Y-68695500D01*
X110394481Y-68695500D01*
X110581118Y-68665940D01*
X110760832Y-68607547D01*
X110929199Y-68521760D01*
X111080971Y-68411491D01*
X111082061Y-68410699D01*
X111082063Y-68410697D01*
X111082073Y-68410690D01*
X111215690Y-68277073D01*
X111221561Y-68268993D01*
X111326757Y-68124203D01*
X111326759Y-68124200D01*
X111326760Y-68124199D01*
X111412547Y-67955832D01*
X111470940Y-67776118D01*
X111500500Y-67589481D01*
X111500500Y-67400519D01*
X111500499Y-67400517D01*
X111500499Y-67400508D01*
X111485821Y-67307844D01*
X111485738Y-67307317D01*
X111470941Y-67213888D01*
X111470940Y-67213887D01*
X111470940Y-67213882D01*
X111412547Y-67034168D01*
X111412545Y-67034165D01*
X111412544Y-67034161D01*
X111332919Y-66877888D01*
X111326890Y-66866056D01*
X111326764Y-66865807D01*
X111326756Y-66865794D01*
X111215701Y-66712941D01*
X111215701Y-66712940D01*
X111215681Y-66712917D01*
X111082081Y-66579317D01*
X111082058Y-66579297D01*
X110929221Y-66468254D01*
X110929209Y-66468246D01*
X110929203Y-66468242D01*
X110929200Y-66468240D01*
X110846559Y-66426133D01*
X110846559Y-66426132D01*
X110846557Y-66426132D01*
X110760837Y-66382455D01*
X110760833Y-66382453D01*
X110760832Y-66382453D01*
X110760829Y-66382452D01*
X110760821Y-66382449D01*
X110760797Y-66382441D01*
X110603811Y-66331433D01*
X110581126Y-66324062D01*
X110581121Y-66324060D01*
X110581116Y-66324059D01*
X110581091Y-66324054D01*
X110394513Y-66294503D01*
X110394489Y-66294500D01*
X110394482Y-66294500D01*
X110394481Y-66294500D01*
X110205519Y-66294500D01*
X110205517Y-66294500D01*
X110205509Y-66294500D01*
X110205485Y-66294503D01*
X110018907Y-66324054D01*
X110018882Y-66324059D01*
X110018870Y-66324063D01*
X109839172Y-66382451D01*
X109670799Y-66468240D01*
X109670777Y-66468254D01*
X109517941Y-66579297D01*
X109517940Y-66579297D01*
X109517917Y-66579317D01*
X109384317Y-66712917D01*
X109384297Y-66712940D01*
X109384297Y-66712941D01*
X109273254Y-66865777D01*
X109273243Y-66865794D01*
X109273242Y-66865796D01*
X109273240Y-66865799D01*
X109196260Y-67016883D01*
X109187451Y-67034172D01*
X109129063Y-67213870D01*
X109129059Y-67213882D01*
X109129058Y-67213887D01*
X109129058Y-67213888D01*
X109099501Y-67400506D01*
X109099500Y-67400520D01*
X105352425Y-67400520D01*
X105359753Y-67377967D01*
X105360517Y-67375611D01*
X105361909Y-67371328D01*
X105361911Y-67371326D01*
X105361911Y-67371322D01*
X105375279Y-67330180D01*
X105375282Y-67330169D01*
X105409998Y-67110981D01*
X105410000Y-67110967D01*
X105410000Y-66889032D01*
X105409998Y-66889018D01*
X105375282Y-66669830D01*
X105375278Y-66669815D01*
X105306698Y-66458749D01*
X105306697Y-66458746D01*
X105303408Y-66452292D01*
X105239270Y-66326414D01*
X105239268Y-66326414D01*
X104703895Y-66861786D01*
X104655105Y-66881996D01*
X104606315Y-66861786D01*
X104587430Y-66826455D01*
X104586558Y-66822069D01*
X104540575Y-66711056D01*
X104513041Y-66669849D01*
X104473821Y-66611151D01*
X104473819Y-66611149D01*
X104473818Y-66611147D01*
X104388853Y-66526182D01*
X104388850Y-66526180D01*
X104388848Y-66526178D01*
X104288945Y-66459425D01*
X104288943Y-66459424D01*
X104177927Y-66413440D01*
X104173539Y-66412568D01*
X104129629Y-66383228D01*
X104119326Y-66331433D01*
X104138209Y-66296105D01*
X104673584Y-65760729D01*
X104673584Y-65760728D01*
X104673582Y-65760726D01*
X104541263Y-65693306D01*
X104541261Y-65693305D01*
X104541244Y-65693299D01*
X104330193Y-65624724D01*
X104330184Y-65624721D01*
X104330179Y-65624719D01*
X104330177Y-65624719D01*
X104330174Y-65624718D01*
X104330149Y-65624713D01*
X104110991Y-65590002D01*
X104110984Y-65590001D01*
X104110981Y-65590001D01*
X104110967Y-65590000D01*
X104110962Y-65590000D01*
X103889032Y-65590000D01*
X103889012Y-65590001D01*
X103889008Y-65590001D01*
X103669849Y-65624713D01*
X103669824Y-65624718D01*
X103669821Y-65624719D01*
X103669805Y-65624724D01*
X103458755Y-65693299D01*
X103458752Y-65693300D01*
X103458750Y-65693301D01*
X103326418Y-65760726D01*
X103326414Y-65760728D01*
X103326414Y-65760729D01*
X103861789Y-66296104D01*
X103881999Y-66344894D01*
X103861789Y-66393684D01*
X103826462Y-66412568D01*
X103822070Y-66413441D01*
X103711056Y-66459424D01*
X103711054Y-66459425D01*
X103611151Y-66526178D01*
X103611142Y-66526186D01*
X103526186Y-66611142D01*
X103526178Y-66611151D01*
X103459425Y-66711054D01*
X103459424Y-66711056D01*
X103413441Y-66822070D01*
X103412568Y-66826462D01*
X103383227Y-66870371D01*
X103331431Y-66880673D01*
X103296104Y-66861789D01*
X102760729Y-66326414D01*
X102760728Y-66326414D01*
X102693301Y-66458750D01*
X102654492Y-66578188D01*
X102624724Y-66669805D01*
X102624719Y-66669821D01*
X102624718Y-66669824D01*
X102624713Y-66669849D01*
X102590002Y-66889006D01*
X102590002Y-66889008D01*
X102590000Y-66889036D01*
X101500500Y-66889036D01*
X101500500Y-64860520D01*
X109099500Y-64860520D01*
X109099500Y-65049479D01*
X109099501Y-65049493D01*
X109120628Y-65182887D01*
X109129058Y-65236110D01*
X109129059Y-65236116D01*
X109129060Y-65236119D01*
X109129065Y-65236135D01*
X109179157Y-65390303D01*
X109187450Y-65415826D01*
X109187455Y-65415838D01*
X109231132Y-65501558D01*
X109231132Y-65501559D01*
X109231133Y-65501559D01*
X109273240Y-65584200D01*
X109273242Y-65584203D01*
X109273246Y-65584209D01*
X109273254Y-65584221D01*
X109383091Y-65735398D01*
X109383109Y-65735422D01*
X109384300Y-65737061D01*
X109384308Y-65737070D01*
X109384310Y-65737073D01*
X109384510Y-65737273D01*
X109384514Y-65737278D01*
X109517919Y-65870683D01*
X109517924Y-65870687D01*
X109517927Y-65870690D01*
X109517930Y-65870692D01*
X109517938Y-65870699D01*
X109517942Y-65870702D01*
X109518216Y-65870926D01*
X109519027Y-65871491D01*
X109670794Y-65981756D01*
X109670807Y-65981764D01*
X109671068Y-65981896D01*
X109839161Y-66067544D01*
X109839165Y-66067545D01*
X109839168Y-66067547D01*
X110018882Y-66125940D01*
X110205519Y-66155500D01*
X110205521Y-66155500D01*
X110394479Y-66155500D01*
X110394481Y-66155500D01*
X110581118Y-66125940D01*
X110760832Y-66067547D01*
X110929199Y-65981760D01*
X111080971Y-65871491D01*
X111082061Y-65870699D01*
X111082063Y-65870697D01*
X111082073Y-65870690D01*
X111215690Y-65737073D01*
X111247493Y-65693301D01*
X111326757Y-65584203D01*
X111326759Y-65584200D01*
X111326760Y-65584199D01*
X111412547Y-65415832D01*
X111470940Y-65236118D01*
X111500500Y-65049481D01*
X111500500Y-64860519D01*
X111470940Y-64673882D01*
X111412547Y-64494168D01*
X111412545Y-64494165D01*
X111412544Y-64494161D01*
X111326896Y-64326068D01*
X111326764Y-64325807D01*
X111326756Y-64325794D01*
X111215701Y-64172941D01*
X111215701Y-64172940D01*
X111215681Y-64172917D01*
X111082081Y-64039317D01*
X111082058Y-64039297D01*
X110929221Y-63928254D01*
X110929209Y-63928246D01*
X110929203Y-63928242D01*
X110929200Y-63928240D01*
X110846559Y-63886133D01*
X110846559Y-63886132D01*
X110846557Y-63886132D01*
X110760837Y-63842455D01*
X110760833Y-63842453D01*
X110760832Y-63842453D01*
X110760829Y-63842452D01*
X110760821Y-63842449D01*
X110760797Y-63842441D01*
X110647172Y-63805522D01*
X110581126Y-63784062D01*
X110581121Y-63784060D01*
X110581116Y-63784059D01*
X110581091Y-63784054D01*
X110394513Y-63754503D01*
X110394489Y-63754500D01*
X110394482Y-63754500D01*
X110394481Y-63754500D01*
X110205519Y-63754500D01*
X110205517Y-63754500D01*
X110205509Y-63754500D01*
X110205485Y-63754503D01*
X110018907Y-63784054D01*
X110018882Y-63784059D01*
X110018870Y-63784063D01*
X109839172Y-63842451D01*
X109670799Y-63928240D01*
X109670777Y-63928254D01*
X109517941Y-64039297D01*
X109517940Y-64039297D01*
X109517917Y-64039317D01*
X109384317Y-64172917D01*
X109384297Y-64172940D01*
X109384297Y-64172941D01*
X109273254Y-64325777D01*
X109273240Y-64325799D01*
X109187451Y-64494172D01*
X109129063Y-64673870D01*
X109129059Y-64673882D01*
X109129058Y-64673888D01*
X109099501Y-64860506D01*
X109099500Y-64860520D01*
X101500500Y-64860520D01*
X101500500Y-60583224D01*
X101505749Y-60556827D01*
X101509771Y-60547116D01*
X101547107Y-60509775D01*
X101556827Y-60505749D01*
X101583224Y-60500500D01*
X109264692Y-60500500D01*
X109291091Y-60505750D01*
G37*
%TD.AperFunction*%
%TD*%
%TA.AperFunction,Conductor*%
%TO.N,CS3*%
G36*
X110779250Y-86937588D02*
G01*
X110783331Y-86938654D01*
X112286328Y-87640862D01*
X112290006Y-87643562D01*
X112292117Y-87645869D01*
X112295185Y-87653767D01*
X112295185Y-87975224D01*
X112294294Y-87979703D01*
X112293098Y-87982589D01*
X112287241Y-87988710D01*
X110783496Y-88691267D01*
X110779064Y-88692355D01*
X110777085Y-88692443D01*
X110768923Y-88689614D01*
X110767773Y-88688622D01*
X110765125Y-88685331D01*
X110388179Y-87988710D01*
X110298303Y-87822613D01*
X110296956Y-87818252D01*
X110296600Y-87814814D01*
X110297947Y-87808045D01*
X110765042Y-86944822D01*
X110767949Y-86941314D01*
X110769492Y-86940061D01*
X110777728Y-86937475D01*
X110779250Y-86937588D01*
G37*
%TD.AperFunction*%
%TD*%
%TA.AperFunction,Conductor*%
%TO.N,+3V3*%
G36*
X136699982Y-100589247D02*
G01*
X136703587Y-100593780D01*
X137272357Y-101861193D01*
X137272618Y-101870144D01*
X137269956Y-101874256D01*
X136575012Y-102569200D01*
X136566739Y-102572627D01*
X136560720Y-102570960D01*
X134812720Y-101522160D01*
X134807390Y-101514966D01*
X134808708Y-101506108D01*
X134809887Y-101504480D01*
X135453907Y-100760127D01*
X135461160Y-100756192D01*
X136691321Y-100586979D01*
X136699982Y-100589247D01*
G37*
%TD.AperFunction*%
%TD*%
%TA.AperFunction,Conductor*%
%TO.N,DHT*%
G36*
X103629262Y-86016519D02*
G01*
X104888708Y-86477190D01*
X104895301Y-86483250D01*
X104896389Y-86488178D01*
X104896389Y-86971821D01*
X104892962Y-86980094D01*
X104888708Y-86982809D01*
X103629268Y-87443478D01*
X103620321Y-87443102D01*
X103614261Y-87436509D01*
X103614073Y-87435952D01*
X103396461Y-86733462D01*
X103396461Y-86726538D01*
X103614073Y-86024045D01*
X103619794Y-86017158D01*
X103628711Y-86016333D01*
X103629262Y-86016519D01*
G37*
%TD.AperFunction*%
%TD*%
%TA.AperFunction,Conductor*%
%TO.N,DHT*%
G36*
X109833626Y-76782361D02*
G01*
X110302802Y-77649432D01*
X110303725Y-77658339D01*
X110302802Y-77660568D01*
X109833626Y-78527638D01*
X109826675Y-78533283D01*
X109818854Y-78532878D01*
X108312033Y-77907993D01*
X108305704Y-77901658D01*
X108304815Y-77897185D01*
X108304815Y-77412814D01*
X108308242Y-77404541D01*
X108312030Y-77402007D01*
X109818856Y-76777120D01*
X109827809Y-76777118D01*
X109833626Y-76782361D01*
G37*
%TD.AperFunction*%
%TD*%
%TA.AperFunction,Conductor*%
%TO.N,CS1*%
G36*
X110779250Y-81857588D02*
G01*
X110783331Y-81858654D01*
X112286328Y-82560862D01*
X112290006Y-82563562D01*
X112292117Y-82565869D01*
X112295185Y-82573767D01*
X112295185Y-82895224D01*
X112294294Y-82899703D01*
X112293098Y-82902589D01*
X112287241Y-82908710D01*
X110783496Y-83611267D01*
X110779064Y-83612355D01*
X110777085Y-83612443D01*
X110768923Y-83609614D01*
X110767773Y-83608622D01*
X110765125Y-83605331D01*
X110388179Y-82908710D01*
X110298303Y-82742613D01*
X110296956Y-82738252D01*
X110296600Y-82734814D01*
X110297947Y-82728045D01*
X110765042Y-81864822D01*
X110767949Y-81861314D01*
X110769492Y-81860061D01*
X110777728Y-81857475D01*
X110779250Y-81857588D01*
G37*
%TD.AperFunction*%
%TD*%
%TA.AperFunction,Conductor*%
%TO.N,CS1*%
G36*
X137787000Y-70770224D02*
G01*
X138098192Y-70895315D01*
X138104590Y-70901580D01*
X138104684Y-70901807D01*
X138229774Y-71212998D01*
X138229680Y-71221953D01*
X138223785Y-71228002D01*
X137808309Y-71418058D01*
X137807919Y-71418227D01*
X137697151Y-71464109D01*
X137692674Y-71465000D01*
X137582449Y-71465000D01*
X137574176Y-71461573D01*
X137570749Y-71453300D01*
X137570749Y-71156700D01*
X137574176Y-71148427D01*
X137582449Y-71145000D01*
X137603299Y-71145000D01*
X137603300Y-71145000D01*
X137771998Y-70776213D01*
X137778555Y-70770116D01*
X137787000Y-70770224D01*
G37*
%TD.AperFunction*%
%TD*%
%TA.AperFunction,Conductor*%
%TO.N,CS2*%
G36*
X110781388Y-84397746D02*
G01*
X112288437Y-85101847D01*
X112294482Y-85108453D01*
X112295185Y-85112447D01*
X112295185Y-85437552D01*
X112291758Y-85445825D01*
X112288437Y-85448152D01*
X110781389Y-86152252D01*
X110772443Y-86152649D01*
X110766148Y-86147221D01*
X110297196Y-85280566D01*
X110296274Y-85271661D01*
X110297194Y-85269438D01*
X110766149Y-84402777D01*
X110773098Y-84397134D01*
X110781388Y-84397746D01*
G37*
%TD.AperFunction*%
%TD*%
%TA.AperFunction,Conductor*%
%TO.N,CS2*%
G36*
X138104562Y-84997952D02*
G01*
X138267591Y-85067494D01*
X138413980Y-85129939D01*
X138420245Y-85136337D01*
X138420678Y-85143776D01*
X138272349Y-85688381D01*
X138266868Y-85695462D01*
X138261060Y-85697006D01*
X137938940Y-85697006D01*
X137930667Y-85693579D01*
X137927651Y-85688381D01*
X137779321Y-85143776D01*
X137780454Y-85134893D01*
X137786019Y-85129939D01*
X138095409Y-84997963D01*
X138104364Y-84997870D01*
X138104562Y-84997952D01*
G37*
%TD.AperFunction*%
%TD*%
%TA.AperFunction,Conductor*%
%TO.N,CS3*%
G36*
X140597696Y-99627790D02*
G01*
X140602650Y-99633355D01*
X140734625Y-99942745D01*
X140734719Y-99951700D01*
X140734625Y-99951927D01*
X140602650Y-100261316D01*
X140596252Y-100267581D01*
X140588813Y-100268014D01*
X140044209Y-100119685D01*
X140037128Y-100114204D01*
X140035584Y-100108396D01*
X140035584Y-99786275D01*
X140039011Y-99778002D01*
X140044206Y-99774987D01*
X140588814Y-99626657D01*
X140597696Y-99627790D01*
G37*
%TD.AperFunction*%
%TD*%
%TA.AperFunction,Conductor*%
%TO.N,SCK*%
G36*
X141509004Y-74656487D02*
G01*
X141509491Y-74657004D01*
X141968475Y-75175368D01*
X141971393Y-75183834D01*
X141967471Y-75191884D01*
X141967398Y-75191948D01*
X141821368Y-75319096D01*
X141818700Y-75320843D01*
X141386237Y-75526001D01*
X141377293Y-75526451D01*
X141370651Y-75520445D01*
X141370471Y-75520046D01*
X141284636Y-75320154D01*
X141150822Y-75008532D01*
X141150708Y-74999579D01*
X141153299Y-74995646D01*
X141492459Y-74656486D01*
X141500731Y-74653060D01*
X141509004Y-74656487D01*
G37*
%TD.AperFunction*%
%TD*%
%TA.AperFunction,Conductor*%
%TO.N,SCK*%
G36*
X136935766Y-78610405D02*
G01*
X136939557Y-78612940D01*
X137282059Y-78955442D01*
X137285486Y-78963715D01*
X137284597Y-78968188D01*
X136660974Y-80475532D01*
X136654645Y-80481867D01*
X136646824Y-80482272D01*
X135701955Y-80200918D01*
X135695004Y-80195273D01*
X135694081Y-80193044D01*
X135412727Y-79248175D01*
X135413650Y-79239268D01*
X135419466Y-79234025D01*
X136926812Y-78610402D01*
X136935766Y-78610405D01*
G37*
%TD.AperFunction*%
%TD*%
%TA.AperFunction,Conductor*%
%TO.N,SCK*%
G36*
X141946829Y-88706421D02*
G01*
X141950125Y-88712946D01*
X142045244Y-89342650D01*
X142043091Y-89351343D01*
X142035423Y-89355967D01*
X142035327Y-89355981D01*
X141700280Y-89403757D01*
X141696963Y-89403755D01*
X141364609Y-89355985D01*
X141356908Y-89351416D01*
X141354693Y-89342740D01*
X141447154Y-88712994D01*
X141451746Y-88705307D01*
X141458730Y-88702994D01*
X141938556Y-88702994D01*
X141946829Y-88706421D01*
G37*
%TD.AperFunction*%
%TD*%
%TA.AperFunction,Conductor*%
%TO.N,SCK*%
G36*
X142033981Y-75441284D02*
G01*
X142041684Y-75445849D01*
X142043904Y-75454524D01*
X142043894Y-75454590D01*
X141950108Y-76084298D01*
X141945500Y-76091976D01*
X141938536Y-76094274D01*
X141458708Y-76094274D01*
X141450435Y-76090847D01*
X141447136Y-76084298D01*
X141353349Y-75454590D01*
X141355519Y-75445902D01*
X141363197Y-75441294D01*
X141363191Y-75441294D01*
X141696967Y-75393511D01*
X141700277Y-75393511D01*
X142033981Y-75441284D01*
G37*
%TD.AperFunction*%
%TD*%
%TA.AperFunction,Conductor*%
%TO.N,SCK*%
G36*
X141942062Y-99103883D02*
G01*
X141944170Y-99104757D01*
X141950141Y-99110300D01*
X141950639Y-99111288D01*
X141951763Y-99114830D01*
X142044929Y-99740375D01*
X142044707Y-99744938D01*
X142044275Y-99746665D01*
X142038948Y-99753857D01*
X142037449Y-99754757D01*
X142033084Y-99756308D01*
X141702482Y-99803638D01*
X141700824Y-99803756D01*
X141699176Y-99803756D01*
X141697518Y-99803638D01*
X141366945Y-99756312D01*
X141362640Y-99754797D01*
X141361107Y-99753889D01*
X141355736Y-99746724D01*
X141355735Y-99746721D01*
X141355302Y-99745028D01*
X141355065Y-99740405D01*
X141355070Y-99740375D01*
X141448171Y-99115270D01*
X141449708Y-99110978D01*
X141450885Y-99109017D01*
X141457255Y-99103927D01*
X141457931Y-99103704D01*
X141458308Y-99103581D01*
X141461967Y-99102994D01*
X141937587Y-99102994D01*
X141942062Y-99103883D01*
G37*
%TD.AperFunction*%
%TD*%
%TA.AperFunction,Conductor*%
%TO.N,SCK*%
G36*
X142035359Y-89444016D02*
G01*
X142043062Y-89448581D01*
X142045282Y-89457256D01*
X142045272Y-89457322D01*
X141951486Y-90087030D01*
X141946878Y-90094708D01*
X141939914Y-90097006D01*
X141460086Y-90097006D01*
X141451813Y-90093579D01*
X141448514Y-90087030D01*
X141354727Y-89457322D01*
X141356897Y-89448634D01*
X141364575Y-89444026D01*
X141364569Y-89444026D01*
X141698345Y-89396243D01*
X141701655Y-89396243D01*
X142035359Y-89444016D01*
G37*
%TD.AperFunction*%
%TD*%
%TA.AperFunction,Conductor*%
%TO.N,MISO*%
G36*
X139735359Y-89444016D02*
G01*
X139743062Y-89448581D01*
X139745282Y-89457256D01*
X139745272Y-89457322D01*
X139651486Y-90087030D01*
X139646878Y-90094708D01*
X139639914Y-90097006D01*
X139160086Y-90097006D01*
X139151813Y-90093579D01*
X139148514Y-90087030D01*
X139054727Y-89457322D01*
X139056897Y-89448634D01*
X139064575Y-89444026D01*
X139064569Y-89444026D01*
X139398345Y-89396243D01*
X139401655Y-89396243D01*
X139735359Y-89444016D01*
G37*
%TD.AperFunction*%
%TD*%
%TA.AperFunction,Conductor*%
%TO.N,MISO*%
G36*
X139735359Y-75944016D02*
G01*
X139743062Y-75948581D01*
X139745282Y-75957256D01*
X139745272Y-75957322D01*
X139651486Y-76587030D01*
X139646878Y-76594708D01*
X139639914Y-76597006D01*
X139160086Y-76597006D01*
X139151813Y-76593579D01*
X139148514Y-76587030D01*
X139054727Y-75957322D01*
X139056897Y-75948634D01*
X139064575Y-75944026D01*
X139064569Y-75944026D01*
X139398345Y-75896243D01*
X139401655Y-75896243D01*
X139735359Y-75944016D01*
G37*
%TD.AperFunction*%
%TD*%
%TA.AperFunction,Conductor*%
%TO.N,MISO*%
G36*
X139648187Y-88706421D02*
G01*
X139651486Y-88712970D01*
X139745272Y-89342677D01*
X139743102Y-89351365D01*
X139735424Y-89355973D01*
X139735358Y-89355983D01*
X139401658Y-89403756D01*
X139398342Y-89403756D01*
X139064641Y-89355983D01*
X139056937Y-89351418D01*
X139054717Y-89342744D01*
X139148514Y-88712969D01*
X139153122Y-88705292D01*
X139160086Y-88702994D01*
X139639914Y-88702994D01*
X139648187Y-88706421D01*
G37*
%TD.AperFunction*%
%TD*%
%TA.AperFunction,Conductor*%
%TO.N,MISO*%
G36*
X139120546Y-98536153D02*
G01*
X139121536Y-98536652D01*
X139124543Y-98538827D01*
X139460856Y-98875140D01*
X139463392Y-98878935D01*
X139464265Y-98881042D01*
X139464565Y-98889191D01*
X139464218Y-98890241D01*
X139462511Y-98893534D01*
X139086062Y-99401740D01*
X139082681Y-99404808D01*
X139081153Y-99405725D01*
X139072297Y-99407044D01*
X139070603Y-99406621D01*
X139066421Y-99404632D01*
X138799183Y-99204326D01*
X138797927Y-99203237D01*
X138796761Y-99202071D01*
X138795672Y-99200815D01*
X138595386Y-98933604D01*
X138593413Y-98929488D01*
X138592971Y-98927761D01*
X138594239Y-98918898D01*
X138595132Y-98917391D01*
X138598229Y-98913958D01*
X138627842Y-98892023D01*
X139106111Y-98537749D01*
X139110233Y-98535803D01*
X139112450Y-98535250D01*
X139120546Y-98536153D01*
G37*
%TD.AperFunction*%
%TD*%
M02*
