G04 #@! TF.FileFunction,Legend,Top*
%FSLAX46Y46*%
G04 Gerber Fmt 4.6, Leading zero omitted, Abs format (unit mm)*
G04 Created by KiCad (PCBNEW 4.0.4-stable) date 12/11/17 12:25:10*
%MOMM*%
%LPD*%
G01*
G04 APERTURE LIST*
%ADD10C,0.100000*%
%ADD11C,0.150000*%
%ADD12C,0.200000*%
%ADD13C,0.120000*%
%ADD14C,0.203200*%
%ADD15C,0.127000*%
%ADD16C,0.508000*%
%ADD17C,0.381000*%
%ADD18C,0.152400*%
G04 APERTURE END LIST*
D10*
D11*
X56953572Y-83864405D02*
X56572619Y-83864405D01*
X56572619Y-83064405D01*
X57105952Y-83064405D02*
X57563095Y-83064405D01*
X57334524Y-83864405D02*
X57334524Y-83064405D01*
X58248810Y-83864405D02*
X57791667Y-83864405D01*
X58020238Y-83864405D02*
X58020238Y-83064405D01*
X57944048Y-83178690D01*
X57867857Y-83254881D01*
X57791667Y-83292976D01*
X59010715Y-83864405D02*
X58553572Y-83864405D01*
X58782143Y-83864405D02*
X58782143Y-83064405D01*
X58705953Y-83178690D01*
X58629762Y-83254881D01*
X58553572Y-83292976D01*
X59772620Y-83864405D02*
X59315477Y-83864405D01*
X59544048Y-83864405D02*
X59544048Y-83064405D01*
X59467858Y-83178690D01*
X59391667Y-83254881D01*
X59315477Y-83292976D01*
X60039287Y-83064405D02*
X60572620Y-83064405D01*
X60229763Y-83864405D01*
X60877382Y-83559643D02*
X61486906Y-83559643D01*
X61791668Y-83064405D02*
X62286906Y-83064405D01*
X62020239Y-83369167D01*
X62134525Y-83369167D01*
X62210715Y-83407262D01*
X62248811Y-83445357D01*
X62286906Y-83521548D01*
X62286906Y-83712024D01*
X62248811Y-83788214D01*
X62210715Y-83826310D01*
X62134525Y-83864405D01*
X61905953Y-83864405D01*
X61829763Y-83826310D01*
X61791668Y-83788214D01*
X62629763Y-83788214D02*
X62667858Y-83826310D01*
X62629763Y-83864405D01*
X62591668Y-83826310D01*
X62629763Y-83788214D01*
X62629763Y-83864405D01*
X62934525Y-83064405D02*
X63429763Y-83064405D01*
X63163096Y-83369167D01*
X63277382Y-83369167D01*
X63353572Y-83407262D01*
X63391668Y-83445357D01*
X63429763Y-83521548D01*
X63429763Y-83712024D01*
X63391668Y-83788214D01*
X63353572Y-83826310D01*
X63277382Y-83864405D01*
X63048810Y-83864405D01*
X62972620Y-83826310D01*
X62934525Y-83788214D01*
X63658334Y-83064405D02*
X63925001Y-83864405D01*
X64191668Y-83064405D01*
D12*
X110331429Y-58713714D02*
X110569524Y-59380381D01*
X110807620Y-58713714D01*
X111712382Y-59380381D02*
X111140953Y-59380381D01*
X111426667Y-59380381D02*
X111426667Y-58380381D01*
X111331429Y-58523238D01*
X111236191Y-58618476D01*
X111140953Y-58666095D01*
X112140953Y-59285143D02*
X112188572Y-59332762D01*
X112140953Y-59380381D01*
X112093334Y-59332762D01*
X112140953Y-59285143D01*
X112140953Y-59380381D01*
X112807619Y-58380381D02*
X112902858Y-58380381D01*
X112998096Y-58428000D01*
X113045715Y-58475619D01*
X113093334Y-58570857D01*
X113140953Y-58761333D01*
X113140953Y-58999429D01*
X113093334Y-59189905D01*
X113045715Y-59285143D01*
X112998096Y-59332762D01*
X112902858Y-59380381D01*
X112807619Y-59380381D01*
X112712381Y-59332762D01*
X112664762Y-59285143D01*
X112617143Y-59189905D01*
X112569524Y-58999429D01*
X112569524Y-58761333D01*
X112617143Y-58570857D01*
X112664762Y-58475619D01*
X112712381Y-58428000D01*
X112807619Y-58380381D01*
D11*
X77150000Y-67081333D02*
X77183333Y-67014667D01*
X77183333Y-66914667D01*
X77150000Y-66814667D01*
X77083333Y-66748000D01*
X77016667Y-66714667D01*
X76883333Y-66681333D01*
X76783333Y-66681333D01*
X76650000Y-66714667D01*
X76583333Y-66748000D01*
X76516667Y-66814667D01*
X76483333Y-66914667D01*
X76483333Y-66981333D01*
X76516667Y-67081333D01*
X76550000Y-67114667D01*
X76783333Y-67114667D01*
X76783333Y-66981333D01*
X76483333Y-67414667D02*
X76950000Y-67414667D01*
X76816667Y-67414667D02*
X76883333Y-67448000D01*
X76916667Y-67481333D01*
X76950000Y-67548000D01*
X76950000Y-67614667D01*
X76483333Y-67948000D02*
X76516667Y-67881333D01*
X76550000Y-67848000D01*
X76616667Y-67814666D01*
X76816667Y-67814666D01*
X76883333Y-67848000D01*
X76916667Y-67881333D01*
X76950000Y-67948000D01*
X76950000Y-68048000D01*
X76916667Y-68114666D01*
X76883333Y-68148000D01*
X76816667Y-68181333D01*
X76616667Y-68181333D01*
X76550000Y-68148000D01*
X76516667Y-68114666D01*
X76483333Y-68048000D01*
X76483333Y-67948000D01*
X76950000Y-68781333D02*
X76483333Y-68781333D01*
X76950000Y-68481333D02*
X76583333Y-68481333D01*
X76516667Y-68514666D01*
X76483333Y-68581333D01*
X76483333Y-68681333D01*
X76516667Y-68747999D01*
X76550000Y-68781333D01*
X76950000Y-69114666D02*
X76483333Y-69114666D01*
X76883333Y-69114666D02*
X76916667Y-69147999D01*
X76950000Y-69214666D01*
X76950000Y-69314666D01*
X76916667Y-69381332D01*
X76850000Y-69414666D01*
X76483333Y-69414666D01*
X76483333Y-70047999D02*
X77183333Y-70047999D01*
X76516667Y-70047999D02*
X76483333Y-69981332D01*
X76483333Y-69847999D01*
X76516667Y-69781332D01*
X76550000Y-69747999D01*
X76616667Y-69714665D01*
X76816667Y-69714665D01*
X76883333Y-69747999D01*
X76916667Y-69781332D01*
X76950000Y-69847999D01*
X76950000Y-69981332D01*
X76916667Y-70047999D01*
X75983333Y-66714667D02*
X75416667Y-66714667D01*
X75350000Y-66748000D01*
X75316667Y-66781333D01*
X75283333Y-66848000D01*
X75283333Y-66981333D01*
X75316667Y-67048000D01*
X75350000Y-67081333D01*
X75416667Y-67114667D01*
X75983333Y-67114667D01*
X75316667Y-67414666D02*
X75283333Y-67514666D01*
X75283333Y-67681333D01*
X75316667Y-67748000D01*
X75350000Y-67781333D01*
X75416667Y-67814666D01*
X75483333Y-67814666D01*
X75550000Y-67781333D01*
X75583333Y-67748000D01*
X75616667Y-67681333D01*
X75650000Y-67548000D01*
X75683333Y-67481333D01*
X75716667Y-67448000D01*
X75783333Y-67414666D01*
X75850000Y-67414666D01*
X75916667Y-67448000D01*
X75950000Y-67481333D01*
X75983333Y-67548000D01*
X75983333Y-67714666D01*
X75950000Y-67814666D01*
X75650000Y-68348000D02*
X75616667Y-68448000D01*
X75583333Y-68481333D01*
X75516667Y-68514667D01*
X75416667Y-68514667D01*
X75350000Y-68481333D01*
X75316667Y-68448000D01*
X75283333Y-68381333D01*
X75283333Y-68114667D01*
X75983333Y-68114667D01*
X75983333Y-68348000D01*
X75950000Y-68414667D01*
X75916667Y-68448000D01*
X75850000Y-68481333D01*
X75783333Y-68481333D01*
X75716667Y-68448000D01*
X75683333Y-68414667D01*
X75650000Y-68348000D01*
X75650000Y-68114667D01*
X75983333Y-69248000D02*
X75283333Y-69481333D01*
X75983333Y-69714666D01*
X75283333Y-70248000D02*
X75983333Y-70248000D01*
X75316667Y-70248000D02*
X75283333Y-70181333D01*
X75283333Y-70048000D01*
X75316667Y-69981333D01*
X75350000Y-69948000D01*
X75416667Y-69914666D01*
X75616667Y-69914666D01*
X75683333Y-69948000D01*
X75716667Y-69981333D01*
X75750000Y-70048000D01*
X75750000Y-70181333D01*
X75716667Y-70248000D01*
X75283333Y-70881333D02*
X75983333Y-70881333D01*
X75316667Y-70881333D02*
X75283333Y-70814666D01*
X75283333Y-70681333D01*
X75316667Y-70614666D01*
X75350000Y-70581333D01*
X75416667Y-70547999D01*
X75616667Y-70547999D01*
X75683333Y-70581333D01*
X75716667Y-70614666D01*
X75750000Y-70681333D01*
X75750000Y-70814666D01*
X75716667Y-70881333D01*
X65079904Y-96829571D02*
X65413238Y-96829571D01*
X65556095Y-97353381D02*
X65079904Y-97353381D01*
X65079904Y-96353381D01*
X65556095Y-96353381D01*
X67841810Y-96829571D02*
X67984667Y-96877190D01*
X68032286Y-96924810D01*
X68079905Y-97020048D01*
X68079905Y-97162905D01*
X68032286Y-97258143D01*
X67984667Y-97305762D01*
X67889429Y-97353381D01*
X67508476Y-97353381D01*
X67508476Y-96353381D01*
X67841810Y-96353381D01*
X67937048Y-96401000D01*
X67984667Y-96448619D01*
X68032286Y-96543857D01*
X68032286Y-96639095D01*
X67984667Y-96734333D01*
X67937048Y-96781952D01*
X67841810Y-96829571D01*
X67508476Y-96829571D01*
X70603715Y-97258143D02*
X70556096Y-97305762D01*
X70413239Y-97353381D01*
X70318001Y-97353381D01*
X70175143Y-97305762D01*
X70079905Y-97210524D01*
X70032286Y-97115286D01*
X69984667Y-96924810D01*
X69984667Y-96781952D01*
X70032286Y-96591476D01*
X70079905Y-96496238D01*
X70175143Y-96401000D01*
X70318001Y-96353381D01*
X70413239Y-96353381D01*
X70556096Y-96401000D01*
X70603715Y-96448619D01*
D10*
X114935000Y-94742000D02*
X114935000Y-95250000D01*
X111887000Y-94742000D02*
X114935000Y-94742000D01*
X101600000Y-95250000D02*
X102108000Y-95250000D01*
D11*
X113284048Y-99639429D02*
X114045953Y-99639429D01*
X115824048Y-99639429D02*
X116585953Y-99639429D01*
X116205001Y-100020381D02*
X116205001Y-99258476D01*
D12*
X111252000Y-102235000D02*
X109982000Y-102235000D01*
D10*
X101600000Y-95250000D02*
X101092000Y-95885000D01*
X101092000Y-94615000D02*
X101600000Y-95250000D01*
X100076000Y-95885000D02*
X99822000Y-95885000D01*
X99822000Y-94615000D02*
X100076000Y-94615000D01*
X99568000Y-95250000D02*
X99822000Y-95250000D01*
X99822000Y-96520000D02*
X99568000Y-96520000D01*
X99822000Y-93980000D02*
X99822000Y-96520000D01*
X99568000Y-93980000D02*
X99822000Y-93980000D01*
D11*
X100584000Y-96337381D02*
X100584000Y-95337381D01*
X100298286Y-95067381D02*
X100298286Y-94067381D01*
X100869715Y-95067381D01*
X100869715Y-94067381D01*
X102386380Y-94924571D02*
X102719714Y-94924571D01*
X102862571Y-95448381D02*
X102386380Y-95448381D01*
X102386380Y-94448381D01*
X102862571Y-94448381D01*
X103195904Y-95448381D02*
X103719714Y-94781714D01*
X103195904Y-94781714D02*
X103719714Y-95448381D01*
X103957809Y-94781714D02*
X104338761Y-94781714D01*
X104100666Y-94448381D02*
X104100666Y-95305524D01*
X104148285Y-95400762D01*
X104243523Y-95448381D01*
X104338761Y-95448381D01*
X105053048Y-95400762D02*
X104957810Y-95448381D01*
X104767333Y-95448381D01*
X104672095Y-95400762D01*
X104624476Y-95305524D01*
X104624476Y-94924571D01*
X104672095Y-94829333D01*
X104767333Y-94781714D01*
X104957810Y-94781714D01*
X105053048Y-94829333D01*
X105100667Y-94924571D01*
X105100667Y-95019810D01*
X104624476Y-95115048D01*
X105529238Y-95448381D02*
X105529238Y-94781714D01*
X105529238Y-94972190D02*
X105576857Y-94876952D01*
X105624476Y-94829333D01*
X105719714Y-94781714D01*
X105814953Y-94781714D01*
X106148286Y-94781714D02*
X106148286Y-95448381D01*
X106148286Y-94876952D02*
X106195905Y-94829333D01*
X106291143Y-94781714D01*
X106434001Y-94781714D01*
X106529239Y-94829333D01*
X106576858Y-94924571D01*
X106576858Y-95448381D01*
X107481620Y-95448381D02*
X107481620Y-94924571D01*
X107434001Y-94829333D01*
X107338763Y-94781714D01*
X107148286Y-94781714D01*
X107053048Y-94829333D01*
X107481620Y-95400762D02*
X107386382Y-95448381D01*
X107148286Y-95448381D01*
X107053048Y-95400762D01*
X107005429Y-95305524D01*
X107005429Y-95210286D01*
X107053048Y-95115048D01*
X107148286Y-95067429D01*
X107386382Y-95067429D01*
X107481620Y-95019810D01*
X108100667Y-95448381D02*
X108005429Y-95400762D01*
X107957810Y-95305524D01*
X107957810Y-94448381D01*
X109719716Y-95448381D02*
X109243525Y-95448381D01*
X109243525Y-94448381D01*
X110053049Y-94924571D02*
X110386383Y-94924571D01*
X110529240Y-95448381D02*
X110053049Y-95448381D01*
X110053049Y-94448381D01*
X110529240Y-94448381D01*
X110957811Y-95448381D02*
X110957811Y-94448381D01*
X111195906Y-94448381D01*
X111338764Y-94496000D01*
X111434002Y-94591238D01*
X111481621Y-94686476D01*
X111529240Y-94876952D01*
X111529240Y-95019810D01*
X111481621Y-95210286D01*
X111434002Y-95305524D01*
X111338764Y-95400762D01*
X111195906Y-95448381D01*
X110957811Y-95448381D01*
X46843905Y-74828809D02*
X46882000Y-74866904D01*
X46920095Y-74943095D01*
X46920095Y-75133571D01*
X46882000Y-75209761D01*
X46843905Y-75247857D01*
X46767714Y-75285952D01*
X46691524Y-75285952D01*
X46577238Y-75247857D01*
X46120095Y-74790714D01*
X46120095Y-75285952D01*
X46920095Y-75781190D02*
X46920095Y-75857381D01*
X46882000Y-75933571D01*
X46843905Y-75971666D01*
X46767714Y-76009762D01*
X46615333Y-76047857D01*
X46424857Y-76047857D01*
X46272476Y-76009762D01*
X46196286Y-75971666D01*
X46158190Y-75933571D01*
X46120095Y-75857381D01*
X46120095Y-75781190D01*
X46158190Y-75705000D01*
X46196286Y-75666904D01*
X46272476Y-75628809D01*
X46424857Y-75590714D01*
X46615333Y-75590714D01*
X46767714Y-75628809D01*
X46843905Y-75666904D01*
X46882000Y-75705000D01*
X46920095Y-75781190D01*
X46120095Y-76809762D02*
X46120095Y-76352619D01*
X46120095Y-76581190D02*
X46920095Y-76581190D01*
X46805810Y-76505000D01*
X46729619Y-76428809D01*
X46691524Y-76352619D01*
X46920095Y-77076429D02*
X46920095Y-77609762D01*
X46120095Y-77266905D01*
X46196286Y-77914524D02*
X46158190Y-77952619D01*
X46120095Y-77914524D01*
X46158190Y-77876429D01*
X46196286Y-77914524D01*
X46120095Y-77914524D01*
X46120095Y-78714524D02*
X46120095Y-78257381D01*
X46120095Y-78485952D02*
X46920095Y-78485952D01*
X46805810Y-78409762D01*
X46729619Y-78333571D01*
X46691524Y-78257381D01*
X46843905Y-79019286D02*
X46882000Y-79057381D01*
X46920095Y-79133572D01*
X46920095Y-79324048D01*
X46882000Y-79400238D01*
X46843905Y-79438334D01*
X46767714Y-79476429D01*
X46691524Y-79476429D01*
X46577238Y-79438334D01*
X46120095Y-78981191D01*
X46120095Y-79476429D01*
X46196286Y-79819286D02*
X46158190Y-79857381D01*
X46120095Y-79819286D01*
X46158190Y-79781191D01*
X46196286Y-79819286D01*
X46120095Y-79819286D01*
X46920095Y-80352619D02*
X46920095Y-80428810D01*
X46882000Y-80505000D01*
X46843905Y-80543095D01*
X46767714Y-80581191D01*
X46615333Y-80619286D01*
X46424857Y-80619286D01*
X46272476Y-80581191D01*
X46196286Y-80543095D01*
X46158190Y-80505000D01*
X46120095Y-80428810D01*
X46120095Y-80352619D01*
X46158190Y-80276429D01*
X46196286Y-80238333D01*
X46272476Y-80200238D01*
X46424857Y-80162143D01*
X46615333Y-80162143D01*
X46767714Y-80200238D01*
X46843905Y-80238333D01*
X46882000Y-80276429D01*
X46920095Y-80352619D01*
X46120095Y-81000238D02*
X46120095Y-81152619D01*
X46158190Y-81228810D01*
X46196286Y-81266905D01*
X46310571Y-81343096D01*
X46462952Y-81381191D01*
X46767714Y-81381191D01*
X46843905Y-81343096D01*
X46882000Y-81305000D01*
X46920095Y-81228810D01*
X46920095Y-81076429D01*
X46882000Y-81000238D01*
X46843905Y-80962143D01*
X46767714Y-80924048D01*
X46577238Y-80924048D01*
X46501048Y-80962143D01*
X46462952Y-81000238D01*
X46424857Y-81076429D01*
X46424857Y-81228810D01*
X46462952Y-81305000D01*
X46501048Y-81343096D01*
X46577238Y-81381191D01*
X47809143Y-75019286D02*
X47809143Y-75285953D01*
X47390095Y-75400239D02*
X47390095Y-75019286D01*
X48190095Y-75019286D01*
X48190095Y-75400239D01*
X47390095Y-75743096D02*
X47923429Y-75743096D01*
X47771048Y-75743096D02*
X47847238Y-75781191D01*
X47885333Y-75819287D01*
X47923429Y-75895477D01*
X47923429Y-75971668D01*
X47390095Y-76238334D02*
X47923429Y-76238334D01*
X48190095Y-76238334D02*
X48152000Y-76200239D01*
X48113905Y-76238334D01*
X48152000Y-76276429D01*
X48190095Y-76238334D01*
X48113905Y-76238334D01*
X47428190Y-76962143D02*
X47390095Y-76885953D01*
X47390095Y-76733572D01*
X47428190Y-76657381D01*
X47466286Y-76619286D01*
X47542476Y-76581191D01*
X47771048Y-76581191D01*
X47847238Y-76619286D01*
X47885333Y-76657381D01*
X47923429Y-76733572D01*
X47923429Y-76885953D01*
X47885333Y-76962143D01*
X47390095Y-77914524D02*
X48190095Y-77914524D01*
X47618667Y-78181191D01*
X48190095Y-78447858D01*
X47390095Y-78447858D01*
X47428190Y-79133572D02*
X47390095Y-79057382D01*
X47390095Y-78905001D01*
X47428190Y-78828810D01*
X47504381Y-78790715D01*
X47809143Y-78790715D01*
X47885333Y-78828810D01*
X47923429Y-78905001D01*
X47923429Y-79057382D01*
X47885333Y-79133572D01*
X47809143Y-79171667D01*
X47732952Y-79171667D01*
X47656762Y-78790715D01*
X47923429Y-79514524D02*
X47390095Y-79514524D01*
X47847238Y-79514524D02*
X47885333Y-79552619D01*
X47923429Y-79628810D01*
X47923429Y-79743096D01*
X47885333Y-79819286D01*
X47809143Y-79857381D01*
X47390095Y-79857381D01*
X47923429Y-80162144D02*
X47923429Y-80581191D01*
X47390095Y-80162144D01*
X47390095Y-80581191D01*
X47428190Y-81190715D02*
X47390095Y-81114525D01*
X47390095Y-80962144D01*
X47428190Y-80885953D01*
X47504381Y-80847858D01*
X47809143Y-80847858D01*
X47885333Y-80885953D01*
X47923429Y-80962144D01*
X47923429Y-81114525D01*
X47885333Y-81190715D01*
X47809143Y-81228810D01*
X47732952Y-81228810D01*
X47656762Y-80847858D01*
D12*
X101576666Y-59332762D02*
X101719523Y-59380381D01*
X101957619Y-59380381D01*
X102052857Y-59332762D01*
X102100476Y-59285143D01*
X102148095Y-59189905D01*
X102148095Y-59094667D01*
X102100476Y-58999429D01*
X102052857Y-58951810D01*
X101957619Y-58904190D01*
X101767142Y-58856571D01*
X101671904Y-58808952D01*
X101624285Y-58761333D01*
X101576666Y-58666095D01*
X101576666Y-58570857D01*
X101624285Y-58475619D01*
X101671904Y-58428000D01*
X101767142Y-58380381D01*
X102005238Y-58380381D01*
X102148095Y-58428000D01*
X102957619Y-59332762D02*
X102862381Y-59380381D01*
X102671904Y-59380381D01*
X102576666Y-59332762D01*
X102529047Y-59237524D01*
X102529047Y-58856571D01*
X102576666Y-58761333D01*
X102671904Y-58713714D01*
X102862381Y-58713714D01*
X102957619Y-58761333D01*
X103005238Y-58856571D01*
X103005238Y-58951810D01*
X102529047Y-59047048D01*
X103433809Y-59380381D02*
X103433809Y-58713714D01*
X103433809Y-58904190D02*
X103481428Y-58808952D01*
X103529047Y-58761333D01*
X103624285Y-58713714D01*
X103719524Y-58713714D01*
X104052857Y-59380381D02*
X104052857Y-58713714D01*
X104052857Y-58380381D02*
X104005238Y-58428000D01*
X104052857Y-58475619D01*
X104100476Y-58428000D01*
X104052857Y-58380381D01*
X104052857Y-58475619D01*
X104957619Y-59380381D02*
X104957619Y-58856571D01*
X104910000Y-58761333D01*
X104814762Y-58713714D01*
X104624285Y-58713714D01*
X104529047Y-58761333D01*
X104957619Y-59332762D02*
X104862381Y-59380381D01*
X104624285Y-59380381D01*
X104529047Y-59332762D01*
X104481428Y-59237524D01*
X104481428Y-59142286D01*
X104529047Y-59047048D01*
X104624285Y-58999429D01*
X104862381Y-58999429D01*
X104957619Y-58951810D01*
X105576666Y-59380381D02*
X105481428Y-59332762D01*
X105433809Y-59237524D01*
X105433809Y-58380381D01*
X107243334Y-58428000D02*
X107148096Y-58380381D01*
X107005239Y-58380381D01*
X106862381Y-58428000D01*
X106767143Y-58523238D01*
X106719524Y-58618476D01*
X106671905Y-58808952D01*
X106671905Y-58951810D01*
X106719524Y-59142286D01*
X106767143Y-59237524D01*
X106862381Y-59332762D01*
X107005239Y-59380381D01*
X107100477Y-59380381D01*
X107243334Y-59332762D01*
X107290953Y-59285143D01*
X107290953Y-58951810D01*
X107100477Y-58951810D01*
X107719524Y-59380381D02*
X107719524Y-58380381D01*
X108100477Y-58380381D01*
X108195715Y-58428000D01*
X108243334Y-58475619D01*
X108290953Y-58570857D01*
X108290953Y-58713714D01*
X108243334Y-58808952D01*
X108195715Y-58856571D01*
X108100477Y-58904190D01*
X107719524Y-58904190D01*
X108671905Y-59332762D02*
X108814762Y-59380381D01*
X109052858Y-59380381D01*
X109148096Y-59332762D01*
X109195715Y-59285143D01*
X109243334Y-59189905D01*
X109243334Y-59094667D01*
X109195715Y-58999429D01*
X109148096Y-58951810D01*
X109052858Y-58904190D01*
X108862381Y-58856571D01*
X108767143Y-58808952D01*
X108719524Y-58761333D01*
X108671905Y-58666095D01*
X108671905Y-58570857D01*
X108719524Y-58475619D01*
X108767143Y-58428000D01*
X108862381Y-58380381D01*
X109100477Y-58380381D01*
X109243334Y-58428000D01*
X118562381Y-80970238D02*
X118086190Y-81303572D01*
X118562381Y-81541667D02*
X117562381Y-81541667D01*
X117562381Y-81160714D01*
X117610000Y-81065476D01*
X117657619Y-81017857D01*
X117752857Y-80970238D01*
X117895714Y-80970238D01*
X117990952Y-81017857D01*
X118038571Y-81065476D01*
X118086190Y-81160714D01*
X118086190Y-81541667D01*
X118514762Y-80589286D02*
X118562381Y-80446429D01*
X118562381Y-80208333D01*
X118514762Y-80113095D01*
X118467143Y-80065476D01*
X118371905Y-80017857D01*
X118276667Y-80017857D01*
X118181429Y-80065476D01*
X118133810Y-80113095D01*
X118086190Y-80208333D01*
X118038571Y-80398810D01*
X117990952Y-80494048D01*
X117943333Y-80541667D01*
X117848095Y-80589286D01*
X117752857Y-80589286D01*
X117657619Y-80541667D01*
X117610000Y-80494048D01*
X117562381Y-80398810D01*
X117562381Y-80160714D01*
X117610000Y-80017857D01*
X117657619Y-79636905D02*
X117610000Y-79589286D01*
X117562381Y-79494048D01*
X117562381Y-79255952D01*
X117610000Y-79160714D01*
X117657619Y-79113095D01*
X117752857Y-79065476D01*
X117848095Y-79065476D01*
X117990952Y-79113095D01*
X118562381Y-79684524D01*
X118562381Y-79065476D01*
X117562381Y-78732143D02*
X117562381Y-78113095D01*
X117943333Y-78446429D01*
X117943333Y-78303571D01*
X117990952Y-78208333D01*
X118038571Y-78160714D01*
X118133810Y-78113095D01*
X118371905Y-78113095D01*
X118467143Y-78160714D01*
X118514762Y-78208333D01*
X118562381Y-78303571D01*
X118562381Y-78589286D01*
X118514762Y-78684524D01*
X118467143Y-78732143D01*
X117657619Y-77732143D02*
X117610000Y-77684524D01*
X117562381Y-77589286D01*
X117562381Y-77351190D01*
X117610000Y-77255952D01*
X117657619Y-77208333D01*
X117752857Y-77160714D01*
X117848095Y-77160714D01*
X117990952Y-77208333D01*
X118562381Y-77779762D01*
X118562381Y-77160714D01*
X46029619Y-84391667D02*
X47029619Y-84391667D01*
X47029619Y-84772620D01*
X46982000Y-84867858D01*
X46934381Y-84915477D01*
X46839143Y-84963096D01*
X46696286Y-84963096D01*
X46601048Y-84915477D01*
X46553429Y-84867858D01*
X46505810Y-84772620D01*
X46505810Y-84391667D01*
X47029619Y-85296429D02*
X46029619Y-85534524D01*
X46743905Y-85725001D01*
X46029619Y-85915477D01*
X47029619Y-86153572D01*
X46029619Y-87105953D02*
X46505810Y-86772619D01*
X46029619Y-86534524D02*
X47029619Y-86534524D01*
X47029619Y-86915477D01*
X46982000Y-87010715D01*
X46934381Y-87058334D01*
X46839143Y-87105953D01*
X46696286Y-87105953D01*
X46601048Y-87058334D01*
X46553429Y-87010715D01*
X46505810Y-86915477D01*
X46505810Y-86534524D01*
X47029619Y-94464286D02*
X47029619Y-95035715D01*
X46029619Y-94750000D02*
X47029619Y-94750000D01*
X46029619Y-95369048D02*
X47029619Y-95369048D01*
X47029619Y-95750001D01*
X46982000Y-95845239D01*
X46934381Y-95892858D01*
X46839143Y-95940477D01*
X46696286Y-95940477D01*
X46601048Y-95892858D01*
X46553429Y-95845239D01*
X46505810Y-95750001D01*
X46505810Y-95369048D01*
X46029619Y-91908334D02*
X46505810Y-91575000D01*
X46029619Y-91336905D02*
X47029619Y-91336905D01*
X47029619Y-91717858D01*
X46982000Y-91813096D01*
X46934381Y-91860715D01*
X46839143Y-91908334D01*
X46696286Y-91908334D01*
X46601048Y-91860715D01*
X46553429Y-91813096D01*
X46505810Y-91717858D01*
X46505810Y-91336905D01*
X47029619Y-92241667D02*
X46029619Y-92908334D01*
X47029619Y-92908334D02*
X46029619Y-92241667D01*
X47029619Y-88138095D02*
X47029619Y-88709524D01*
X46029619Y-88423809D02*
X47029619Y-88423809D01*
X47029619Y-88947619D02*
X46029619Y-89614286D01*
X47029619Y-89614286D02*
X46029619Y-88947619D01*
X46029619Y-97186905D02*
X47029619Y-97186905D01*
X47029619Y-97567858D01*
X46982000Y-97663096D01*
X46934381Y-97710715D01*
X46839143Y-97758334D01*
X46696286Y-97758334D01*
X46601048Y-97710715D01*
X46553429Y-97663096D01*
X46505810Y-97567858D01*
X46505810Y-97186905D01*
X46029619Y-98186905D02*
X47029619Y-98186905D01*
X47029619Y-98567858D01*
X46982000Y-98663096D01*
X46934381Y-98710715D01*
X46839143Y-98758334D01*
X46696286Y-98758334D01*
X46601048Y-98710715D01*
X46553429Y-98663096D01*
X46505810Y-98567858D01*
X46505810Y-98186905D01*
X46077238Y-99139286D02*
X46029619Y-99282143D01*
X46029619Y-99520239D01*
X46077238Y-99615477D01*
X46124857Y-99663096D01*
X46220095Y-99710715D01*
X46315333Y-99710715D01*
X46410571Y-99663096D01*
X46458190Y-99615477D01*
X46505810Y-99520239D01*
X46553429Y-99329762D01*
X46601048Y-99234524D01*
X46648667Y-99186905D01*
X46743905Y-99139286D01*
X46839143Y-99139286D01*
X46934381Y-99186905D01*
X46982000Y-99234524D01*
X47029619Y-99329762D01*
X47029619Y-99567858D01*
X46982000Y-99710715D01*
X52887619Y-66024524D02*
X53887619Y-66024524D01*
X53887619Y-66405477D01*
X53840000Y-66500715D01*
X53792381Y-66548334D01*
X53697143Y-66595953D01*
X53554286Y-66595953D01*
X53459048Y-66548334D01*
X53411429Y-66500715D01*
X53363810Y-66405477D01*
X53363810Y-66024524D01*
X53887619Y-66929286D02*
X52887619Y-67167381D01*
X53601905Y-67357858D01*
X52887619Y-67548334D01*
X53887619Y-67786429D01*
X52887619Y-68738810D02*
X53363810Y-68405476D01*
X52887619Y-68167381D02*
X53887619Y-68167381D01*
X53887619Y-68548334D01*
X53840000Y-68643572D01*
X53792381Y-68691191D01*
X53697143Y-68738810D01*
X53554286Y-68738810D01*
X53459048Y-68691191D01*
X53411429Y-68643572D01*
X53363810Y-68548334D01*
X53363810Y-68167381D01*
X52935238Y-69881667D02*
X52887619Y-70024524D01*
X52887619Y-70262620D01*
X52935238Y-70357858D01*
X52982857Y-70405477D01*
X53078095Y-70453096D01*
X53173333Y-70453096D01*
X53268571Y-70405477D01*
X53316190Y-70357858D01*
X53363810Y-70262620D01*
X53411429Y-70072143D01*
X53459048Y-69976905D01*
X53506667Y-69929286D01*
X53601905Y-69881667D01*
X53697143Y-69881667D01*
X53792381Y-69929286D01*
X53840000Y-69976905D01*
X53887619Y-70072143D01*
X53887619Y-70310239D01*
X53840000Y-70453096D01*
X52887619Y-71453096D02*
X53363810Y-71119762D01*
X52887619Y-70881667D02*
X53887619Y-70881667D01*
X53887619Y-71262620D01*
X53840000Y-71357858D01*
X53792381Y-71405477D01*
X53697143Y-71453096D01*
X53554286Y-71453096D01*
X53459048Y-71405477D01*
X53411429Y-71357858D01*
X53363810Y-71262620D01*
X53363810Y-70881667D01*
X52982857Y-72453096D02*
X52935238Y-72405477D01*
X52887619Y-72262620D01*
X52887619Y-72167382D01*
X52935238Y-72024524D01*
X53030476Y-71929286D01*
X53125714Y-71881667D01*
X53316190Y-71834048D01*
X53459048Y-71834048D01*
X53649524Y-71881667D01*
X53744762Y-71929286D01*
X53840000Y-72024524D01*
X53887619Y-72167382D01*
X53887619Y-72262620D01*
X53840000Y-72405477D01*
X53792381Y-72453096D01*
X46587243Y-66361093D02*
X46587243Y-66694427D01*
X46063433Y-66837284D02*
X46063433Y-66361093D01*
X47063433Y-66361093D01*
X47063433Y-66837284D01*
X47063433Y-67170617D02*
X46063433Y-67837284D01*
X47063433Y-67837284D02*
X46063433Y-67170617D01*
X47063433Y-68075379D02*
X47063433Y-68646808D01*
X46063433Y-68361093D02*
X47063433Y-68361093D01*
X47063433Y-69980617D02*
X46253909Y-69980617D01*
X46158671Y-70028236D01*
X46111052Y-70075855D01*
X46063433Y-70171093D01*
X46063433Y-70361570D01*
X46111052Y-70456808D01*
X46158671Y-70504427D01*
X46253909Y-70552046D01*
X47063433Y-70552046D01*
X46111052Y-70980617D02*
X46063433Y-71123474D01*
X46063433Y-71361570D01*
X46111052Y-71456808D01*
X46158671Y-71504427D01*
X46253909Y-71552046D01*
X46349147Y-71552046D01*
X46444385Y-71504427D01*
X46492004Y-71456808D01*
X46539624Y-71361570D01*
X46587243Y-71171093D01*
X46634862Y-71075855D01*
X46682481Y-71028236D01*
X46777719Y-70980617D01*
X46872957Y-70980617D01*
X46968195Y-71028236D01*
X47015814Y-71075855D01*
X47063433Y-71171093D01*
X47063433Y-71409189D01*
X47015814Y-71552046D01*
X46587243Y-72313951D02*
X46539624Y-72456808D01*
X46492004Y-72504427D01*
X46396766Y-72552046D01*
X46253909Y-72552046D01*
X46158671Y-72504427D01*
X46111052Y-72456808D01*
X46063433Y-72361570D01*
X46063433Y-71980617D01*
X47063433Y-71980617D01*
X47063433Y-72313951D01*
X47015814Y-72409189D01*
X46968195Y-72456808D01*
X46872957Y-72504427D01*
X46777719Y-72504427D01*
X46682481Y-72456808D01*
X46634862Y-72409189D01*
X46587243Y-72313951D01*
X46587243Y-71980617D01*
X48420814Y-68067522D02*
X47785814Y-68067522D01*
X48420814Y-70607522D02*
X47785814Y-70607522D01*
X48420814Y-71877522D02*
X49690814Y-71877522D01*
X48420814Y-69337522D02*
X48420814Y-71877522D01*
X48420814Y-69337522D02*
X49690814Y-69337522D01*
X48420814Y-66797522D02*
X48420814Y-69337522D01*
X49690814Y-66797522D02*
X48420814Y-66797522D01*
D11*
X78576428Y-58148571D02*
X78576428Y-58748571D01*
X78233571Y-58148571D01*
X78233571Y-58748571D01*
X77605000Y-58205714D02*
X77633571Y-58177143D01*
X77719285Y-58148571D01*
X77776428Y-58148571D01*
X77862143Y-58177143D01*
X77919285Y-58234286D01*
X77947857Y-58291429D01*
X77976428Y-58405714D01*
X77976428Y-58491429D01*
X77947857Y-58605714D01*
X77919285Y-58662857D01*
X77862143Y-58720000D01*
X77776428Y-58748571D01*
X77719285Y-58748571D01*
X77633571Y-58720000D01*
X77605000Y-58691429D01*
X76307857Y-58748571D02*
X76107857Y-58148571D01*
X75907857Y-58748571D01*
X75450714Y-58148571D02*
X75450714Y-58748571D01*
X75450714Y-58177143D02*
X75507857Y-58148571D01*
X75622143Y-58148571D01*
X75679285Y-58177143D01*
X75707857Y-58205714D01*
X75736428Y-58262857D01*
X75736428Y-58434286D01*
X75707857Y-58491429D01*
X75679285Y-58520000D01*
X75622143Y-58548571D01*
X75507857Y-58548571D01*
X75450714Y-58520000D01*
X74907857Y-58148571D02*
X74907857Y-58748571D01*
X74907857Y-58177143D02*
X74965000Y-58148571D01*
X75079286Y-58148571D01*
X75136428Y-58177143D01*
X75165000Y-58205714D01*
X75193571Y-58262857D01*
X75193571Y-58434286D01*
X75165000Y-58491429D01*
X75136428Y-58520000D01*
X75079286Y-58548571D01*
X74965000Y-58548571D01*
X74907857Y-58520000D01*
X73553571Y-58148571D02*
X73553571Y-58748571D01*
X73410714Y-58748571D01*
X73324999Y-58720000D01*
X73267857Y-58662857D01*
X73239285Y-58605714D01*
X73210714Y-58491429D01*
X73210714Y-58405714D01*
X73239285Y-58291429D01*
X73267857Y-58234286D01*
X73324999Y-58177143D01*
X73410714Y-58148571D01*
X73553571Y-58148571D01*
X72953571Y-58377143D02*
X72496428Y-58377143D01*
X72724999Y-58148571D02*
X72724999Y-58605714D01*
X71013571Y-58148571D02*
X71013571Y-58748571D01*
X70870714Y-58748571D01*
X70784999Y-58720000D01*
X70727857Y-58662857D01*
X70699285Y-58605714D01*
X70670714Y-58491429D01*
X70670714Y-58405714D01*
X70699285Y-58291429D01*
X70727857Y-58234286D01*
X70784999Y-58177143D01*
X70870714Y-58148571D01*
X71013571Y-58148571D01*
X70413571Y-58377143D02*
X69956428Y-58377143D01*
X68659286Y-58748571D02*
X68459286Y-58148571D01*
X68259286Y-58748571D01*
X67802143Y-58177143D02*
X67859286Y-58148571D01*
X67973572Y-58148571D01*
X68030714Y-58177143D01*
X68059286Y-58205714D01*
X68087857Y-58262857D01*
X68087857Y-58434286D01*
X68059286Y-58491429D01*
X68030714Y-58520000D01*
X67973572Y-58548571D01*
X67859286Y-58548571D01*
X67802143Y-58520000D01*
X67287857Y-58177143D02*
X67345000Y-58148571D01*
X67459286Y-58148571D01*
X67516428Y-58177143D01*
X67545000Y-58205714D01*
X67573571Y-58262857D01*
X67573571Y-58434286D01*
X67545000Y-58491429D01*
X67516428Y-58520000D01*
X67459286Y-58548571D01*
X67345000Y-58548571D01*
X67287857Y-58520000D01*
X58242142Y-58720000D02*
X58299285Y-58748571D01*
X58384999Y-58748571D01*
X58470714Y-58720000D01*
X58527856Y-58662857D01*
X58556428Y-58605714D01*
X58584999Y-58491429D01*
X58584999Y-58405714D01*
X58556428Y-58291429D01*
X58527856Y-58234286D01*
X58470714Y-58177143D01*
X58384999Y-58148571D01*
X58327856Y-58148571D01*
X58242142Y-58177143D01*
X58213571Y-58205714D01*
X58213571Y-58405714D01*
X58327856Y-58405714D01*
X57956428Y-58148571D02*
X57956428Y-58748571D01*
X57613571Y-58148571D01*
X57613571Y-58748571D01*
X57327857Y-58148571D02*
X57327857Y-58748571D01*
X57185000Y-58748571D01*
X57099285Y-58720000D01*
X57042143Y-58662857D01*
X57013571Y-58605714D01*
X56985000Y-58491429D01*
X56985000Y-58405714D01*
X57013571Y-58291429D01*
X57042143Y-58234286D01*
X57099285Y-58177143D01*
X57185000Y-58148571D01*
X57327857Y-58148571D01*
X61525000Y-58377143D02*
X61067857Y-58377143D01*
X61296428Y-58148571D02*
X61296428Y-58605714D01*
X60839286Y-58748571D02*
X60467857Y-58748571D01*
X60667857Y-58520000D01*
X60582143Y-58520000D01*
X60525000Y-58491429D01*
X60496429Y-58462857D01*
X60467857Y-58405714D01*
X60467857Y-58262857D01*
X60496429Y-58205714D01*
X60525000Y-58177143D01*
X60582143Y-58148571D01*
X60753571Y-58148571D01*
X60810714Y-58177143D01*
X60839286Y-58205714D01*
X60210714Y-58205714D02*
X60182142Y-58177143D01*
X60210714Y-58148571D01*
X60239285Y-58177143D01*
X60210714Y-58205714D01*
X60210714Y-58148571D01*
X59982143Y-58748571D02*
X59610714Y-58748571D01*
X59810714Y-58520000D01*
X59725000Y-58520000D01*
X59667857Y-58491429D01*
X59639286Y-58462857D01*
X59610714Y-58405714D01*
X59610714Y-58262857D01*
X59639286Y-58205714D01*
X59667857Y-58177143D01*
X59725000Y-58148571D01*
X59896428Y-58148571D01*
X59953571Y-58177143D01*
X59982143Y-58205714D01*
X59439285Y-58748571D02*
X59239285Y-58148571D01*
X59039285Y-58748571D01*
X56016429Y-58377143D02*
X55559286Y-58377143D01*
X55787857Y-58148571D02*
X55787857Y-58605714D01*
X54987858Y-58748571D02*
X55273572Y-58748571D01*
X55302143Y-58462857D01*
X55273572Y-58491429D01*
X55216429Y-58520000D01*
X55073572Y-58520000D01*
X55016429Y-58491429D01*
X54987858Y-58462857D01*
X54959286Y-58405714D01*
X54959286Y-58262857D01*
X54987858Y-58205714D01*
X55016429Y-58177143D01*
X55073572Y-58148571D01*
X55216429Y-58148571D01*
X55273572Y-58177143D01*
X55302143Y-58205714D01*
X54787857Y-58748571D02*
X54587857Y-58148571D01*
X54387857Y-58748571D01*
D12*
X95210476Y-101417381D02*
X95210476Y-100417381D01*
X95781905Y-101417381D01*
X95781905Y-100417381D01*
X96448571Y-100417381D02*
X96639048Y-100417381D01*
X96734286Y-100465000D01*
X96829524Y-100560238D01*
X96877143Y-100750714D01*
X96877143Y-101084048D01*
X96829524Y-101274524D01*
X96734286Y-101369762D01*
X96639048Y-101417381D01*
X96448571Y-101417381D01*
X96353333Y-101369762D01*
X96258095Y-101274524D01*
X96210476Y-101084048D01*
X96210476Y-100750714D01*
X96258095Y-100560238D01*
X96353333Y-100465000D01*
X96448571Y-100417381D01*
X97877143Y-101417381D02*
X97543809Y-100941190D01*
X97305714Y-101417381D02*
X97305714Y-100417381D01*
X97686667Y-100417381D01*
X97781905Y-100465000D01*
X97829524Y-100512619D01*
X97877143Y-100607857D01*
X97877143Y-100750714D01*
X97829524Y-100845952D01*
X97781905Y-100893571D01*
X97686667Y-100941190D01*
X97305714Y-100941190D01*
X95567619Y-103957381D02*
X95567619Y-102957381D01*
X96043809Y-103957381D02*
X96043809Y-102957381D01*
X96615238Y-103957381D01*
X96615238Y-102957381D01*
X96948571Y-102957381D02*
X97281904Y-103957381D01*
X97615238Y-102957381D01*
X98933000Y-103505000D02*
X98298000Y-103505000D01*
X98933000Y-100965000D02*
X98298000Y-100965000D01*
X98933000Y-99695000D02*
X100203000Y-99695000D01*
X98933000Y-102235000D02*
X98933000Y-99695000D01*
X100203000Y-102235000D02*
X98933000Y-102235000D01*
X98933000Y-104775000D02*
X98933000Y-102235000D01*
X100203000Y-104775000D02*
X98933000Y-104775000D01*
X104592381Y-105949286D02*
X103592381Y-105949286D01*
X103925714Y-105473096D02*
X104592381Y-105473096D01*
X104020952Y-105473096D02*
X103973333Y-105425477D01*
X103925714Y-105330239D01*
X103925714Y-105187381D01*
X103973333Y-105092143D01*
X104068571Y-105044524D01*
X104592381Y-105044524D01*
X103925714Y-104663572D02*
X104592381Y-104425477D01*
X103925714Y-104187381D01*
X104544762Y-103425476D02*
X104592381Y-103520714D01*
X104592381Y-103711191D01*
X104544762Y-103806429D01*
X104449524Y-103854048D01*
X104068571Y-103854048D01*
X103973333Y-103806429D01*
X103925714Y-103711191D01*
X103925714Y-103520714D01*
X103973333Y-103425476D01*
X104068571Y-103377857D01*
X104163810Y-103377857D01*
X104259048Y-103854048D01*
X104592381Y-102949286D02*
X103925714Y-102949286D01*
X104116190Y-102949286D02*
X104020952Y-102901667D01*
X103973333Y-102854048D01*
X103925714Y-102758810D01*
X103925714Y-102663571D01*
X103925714Y-102473095D02*
X103925714Y-102092143D01*
X103592381Y-102330238D02*
X104449524Y-102330238D01*
X104544762Y-102282619D01*
X104592381Y-102187381D01*
X104592381Y-102092143D01*
X104592381Y-100996904D02*
X103592381Y-100996904D01*
X103592381Y-100615951D01*
X103640000Y-100520713D01*
X103687619Y-100473094D01*
X103782857Y-100425475D01*
X103925714Y-100425475D01*
X104020952Y-100473094D01*
X104068571Y-100520713D01*
X104116190Y-100615951D01*
X104116190Y-100996904D01*
X104592381Y-99996904D02*
X103592381Y-99996904D01*
X103592381Y-99615951D01*
X103640000Y-99520713D01*
X103687619Y-99473094D01*
X103782857Y-99425475D01*
X103925714Y-99425475D01*
X104020952Y-99473094D01*
X104068571Y-99520713D01*
X104116190Y-99615951D01*
X104116190Y-99996904D01*
X104544762Y-99044523D02*
X104592381Y-98901666D01*
X104592381Y-98663570D01*
X104544762Y-98568332D01*
X104497143Y-98520713D01*
X104401905Y-98473094D01*
X104306667Y-98473094D01*
X104211429Y-98520713D01*
X104163810Y-98568332D01*
X104116190Y-98663570D01*
X104068571Y-98854047D01*
X104020952Y-98949285D01*
X103973333Y-98996904D01*
X103878095Y-99044523D01*
X103782857Y-99044523D01*
X103687619Y-98996904D01*
X103640000Y-98949285D01*
X103592381Y-98854047D01*
X103592381Y-98615951D01*
X103640000Y-98473094D01*
X111252000Y-103505000D02*
X111887000Y-103505000D01*
X111252000Y-100965000D02*
X111887000Y-100965000D01*
X111252000Y-104775000D02*
X109982000Y-104775000D01*
X111252000Y-102235000D02*
X111252000Y-104775000D01*
X111252000Y-99695000D02*
X111252000Y-102235000D01*
X109982000Y-99695000D02*
X111252000Y-99695000D01*
X106449762Y-106068334D02*
X106497381Y-105925477D01*
X106497381Y-105687381D01*
X106449762Y-105592143D01*
X106402143Y-105544524D01*
X106306905Y-105496905D01*
X106211667Y-105496905D01*
X106116429Y-105544524D01*
X106068810Y-105592143D01*
X106021190Y-105687381D01*
X105973571Y-105877858D01*
X105925952Y-105973096D01*
X105878333Y-106020715D01*
X105783095Y-106068334D01*
X105687857Y-106068334D01*
X105592619Y-106020715D01*
X105545000Y-105973096D01*
X105497381Y-105877858D01*
X105497381Y-105639762D01*
X105545000Y-105496905D01*
X106449762Y-104687381D02*
X106497381Y-104782619D01*
X106497381Y-104973096D01*
X106449762Y-105068334D01*
X106354524Y-105115953D01*
X105973571Y-105115953D01*
X105878333Y-105068334D01*
X105830714Y-104973096D01*
X105830714Y-104782619D01*
X105878333Y-104687381D01*
X105973571Y-104639762D01*
X106068810Y-104639762D01*
X106164048Y-105115953D01*
X106497381Y-104211191D02*
X105830714Y-104211191D01*
X106021190Y-104211191D02*
X105925952Y-104163572D01*
X105878333Y-104115953D01*
X105830714Y-104020715D01*
X105830714Y-103925476D01*
X106497381Y-103592143D02*
X105830714Y-103592143D01*
X105497381Y-103592143D02*
X105545000Y-103639762D01*
X105592619Y-103592143D01*
X105545000Y-103544524D01*
X105497381Y-103592143D01*
X105592619Y-103592143D01*
X106497381Y-102687381D02*
X105973571Y-102687381D01*
X105878333Y-102735000D01*
X105830714Y-102830238D01*
X105830714Y-103020715D01*
X105878333Y-103115953D01*
X106449762Y-102687381D02*
X106497381Y-102782619D01*
X106497381Y-103020715D01*
X106449762Y-103115953D01*
X106354524Y-103163572D01*
X106259286Y-103163572D01*
X106164048Y-103115953D01*
X106116429Y-103020715D01*
X106116429Y-102782619D01*
X106068810Y-102687381D01*
X106497381Y-102068334D02*
X106449762Y-102163572D01*
X106354524Y-102211191D01*
X105497381Y-102211191D01*
X106497381Y-100925476D02*
X105497381Y-100925476D01*
X105497381Y-100544523D01*
X105545000Y-100449285D01*
X105592619Y-100401666D01*
X105687857Y-100354047D01*
X105830714Y-100354047D01*
X105925952Y-100401666D01*
X105973571Y-100449285D01*
X106021190Y-100544523D01*
X106021190Y-100925476D01*
X106497381Y-99925476D02*
X105497381Y-99925476D01*
X105497381Y-99544523D01*
X105545000Y-99449285D01*
X105592619Y-99401666D01*
X105687857Y-99354047D01*
X105830714Y-99354047D01*
X105925952Y-99401666D01*
X105973571Y-99449285D01*
X106021190Y-99544523D01*
X106021190Y-99925476D01*
X106449762Y-98973095D02*
X106497381Y-98830238D01*
X106497381Y-98592142D01*
X106449762Y-98496904D01*
X106402143Y-98449285D01*
X106306905Y-98401666D01*
X106211667Y-98401666D01*
X106116429Y-98449285D01*
X106068810Y-98496904D01*
X106021190Y-98592142D01*
X105973571Y-98782619D01*
X105925952Y-98877857D01*
X105878333Y-98925476D01*
X105783095Y-98973095D01*
X105687857Y-98973095D01*
X105592619Y-98925476D01*
X105545000Y-98877857D01*
X105497381Y-98782619D01*
X105497381Y-98544523D01*
X105545000Y-98401666D01*
X113101429Y-103957381D02*
X112768095Y-103481190D01*
X112530000Y-103957381D02*
X112530000Y-102957381D01*
X112910953Y-102957381D01*
X113006191Y-103005000D01*
X113053810Y-103052619D01*
X113101429Y-103147857D01*
X113101429Y-103290714D01*
X113053810Y-103385952D01*
X113006191Y-103433571D01*
X112910953Y-103481190D01*
X112530000Y-103481190D01*
X113530000Y-103957381D02*
X113530000Y-102957381D01*
X112403095Y-101417381D02*
X112403095Y-100417381D01*
X112641190Y-100417381D01*
X112784048Y-100465000D01*
X112879286Y-100560238D01*
X112926905Y-100655476D01*
X112974524Y-100845952D01*
X112974524Y-100988810D01*
X112926905Y-101179286D01*
X112879286Y-101274524D01*
X112784048Y-101369762D01*
X112641190Y-101417381D01*
X112403095Y-101417381D01*
X113974524Y-101322143D02*
X113926905Y-101369762D01*
X113784048Y-101417381D01*
X113688810Y-101417381D01*
X113545952Y-101369762D01*
X113450714Y-101274524D01*
X113403095Y-101179286D01*
X113355476Y-100988810D01*
X113355476Y-100845952D01*
X113403095Y-100655476D01*
X113450714Y-100560238D01*
X113545952Y-100465000D01*
X113688810Y-100417381D01*
X113784048Y-100417381D01*
X113926905Y-100465000D01*
X113974524Y-100512619D01*
X114403095Y-101417381D02*
X114403095Y-100417381D01*
X114641190Y-100417381D01*
X114784048Y-100465000D01*
X114879286Y-100560238D01*
X114926905Y-100655476D01*
X114974524Y-100845952D01*
X114974524Y-100988810D01*
X114926905Y-101179286D01*
X114879286Y-101274524D01*
X114784048Y-101369762D01*
X114641190Y-101417381D01*
X114403095Y-101417381D01*
D11*
X104267000Y-76962000D02*
X104267000Y-77724000D01*
X104267000Y-77724000D02*
X102743000Y-77724000D01*
X102743000Y-77724000D02*
X102743000Y-76962000D01*
X105791000Y-88138000D02*
X101219000Y-88138000D01*
X101219000Y-88138000D02*
X101219000Y-76962000D01*
X101219000Y-76962000D02*
X105791000Y-76962000D01*
X105791000Y-76962000D02*
X105791000Y-88138000D01*
D13*
X111065000Y-78165000D02*
X116265000Y-78165000D01*
X111065000Y-67945000D02*
X111065000Y-78165000D01*
X116265000Y-65345000D02*
X116265000Y-78165000D01*
X111065000Y-67945000D02*
X113665000Y-67945000D01*
X113665000Y-67945000D02*
X113665000Y-65345000D01*
X113665000Y-65345000D02*
X116265000Y-65345000D01*
X111065000Y-66675000D02*
X111065000Y-65345000D01*
X111065000Y-65345000D02*
X112395000Y-65345000D01*
X49159180Y-79665136D02*
G75*
G03X55194482Y-79666000I3017820J1179136D01*
G01*
X49159180Y-77306864D02*
G75*
G02X55194482Y-77306000I3017820J-1179136D01*
G01*
X49159180Y-77306864D02*
G75*
G03X49159518Y-79666000I3017820J-1179136D01*
G01*
X52177000Y-81686000D02*
X52177000Y-75286000D01*
X52137000Y-81686000D02*
X52137000Y-75286000D01*
X52097000Y-81686000D02*
X52097000Y-75286000D01*
X52057000Y-81684000D02*
X52057000Y-75288000D01*
X52017000Y-81683000D02*
X52017000Y-75289000D01*
X51977000Y-81680000D02*
X51977000Y-75292000D01*
X51937000Y-81678000D02*
X51937000Y-75294000D01*
X51897000Y-81674000D02*
X51897000Y-79466000D01*
X51897000Y-77506000D02*
X51897000Y-75298000D01*
X51857000Y-81671000D02*
X51857000Y-79466000D01*
X51857000Y-77506000D02*
X51857000Y-75301000D01*
X51817000Y-81666000D02*
X51817000Y-79466000D01*
X51817000Y-77506000D02*
X51817000Y-75306000D01*
X51777000Y-81662000D02*
X51777000Y-79466000D01*
X51777000Y-77506000D02*
X51777000Y-75310000D01*
X51737000Y-81656000D02*
X51737000Y-79466000D01*
X51737000Y-77506000D02*
X51737000Y-75316000D01*
X51697000Y-81651000D02*
X51697000Y-79466000D01*
X51697000Y-77506000D02*
X51697000Y-75321000D01*
X51657000Y-81644000D02*
X51657000Y-79466000D01*
X51657000Y-77506000D02*
X51657000Y-75328000D01*
X51617000Y-81638000D02*
X51617000Y-79466000D01*
X51617000Y-77506000D02*
X51617000Y-75334000D01*
X51577000Y-81630000D02*
X51577000Y-79466000D01*
X51577000Y-77506000D02*
X51577000Y-75342000D01*
X51537000Y-81623000D02*
X51537000Y-79466000D01*
X51537000Y-77506000D02*
X51537000Y-75349000D01*
X51497000Y-81614000D02*
X51497000Y-79466000D01*
X51497000Y-77506000D02*
X51497000Y-75358000D01*
X51456000Y-81605000D02*
X51456000Y-79466000D01*
X51456000Y-77506000D02*
X51456000Y-75367000D01*
X51416000Y-81596000D02*
X51416000Y-79466000D01*
X51416000Y-77506000D02*
X51416000Y-75376000D01*
X51376000Y-81586000D02*
X51376000Y-79466000D01*
X51376000Y-77506000D02*
X51376000Y-75386000D01*
X51336000Y-81576000D02*
X51336000Y-79466000D01*
X51336000Y-77506000D02*
X51336000Y-75396000D01*
X51296000Y-81565000D02*
X51296000Y-79466000D01*
X51296000Y-77506000D02*
X51296000Y-75407000D01*
X51256000Y-81553000D02*
X51256000Y-79466000D01*
X51256000Y-77506000D02*
X51256000Y-75419000D01*
X51216000Y-81541000D02*
X51216000Y-79466000D01*
X51216000Y-77506000D02*
X51216000Y-75431000D01*
X51176000Y-81528000D02*
X51176000Y-79466000D01*
X51176000Y-77506000D02*
X51176000Y-75444000D01*
X51136000Y-81515000D02*
X51136000Y-79466000D01*
X51136000Y-77506000D02*
X51136000Y-75457000D01*
X51096000Y-81501000D02*
X51096000Y-79466000D01*
X51096000Y-77506000D02*
X51096000Y-75471000D01*
X51056000Y-81487000D02*
X51056000Y-79466000D01*
X51056000Y-77506000D02*
X51056000Y-75485000D01*
X51016000Y-81472000D02*
X51016000Y-79466000D01*
X51016000Y-77506000D02*
X51016000Y-75500000D01*
X50976000Y-81456000D02*
X50976000Y-79466000D01*
X50976000Y-77506000D02*
X50976000Y-75516000D01*
X50936000Y-81440000D02*
X50936000Y-79466000D01*
X50936000Y-77506000D02*
X50936000Y-75532000D01*
X50896000Y-81423000D02*
X50896000Y-79466000D01*
X50896000Y-77506000D02*
X50896000Y-75549000D01*
X50856000Y-81405000D02*
X50856000Y-79466000D01*
X50856000Y-77506000D02*
X50856000Y-75567000D01*
X50816000Y-81387000D02*
X50816000Y-79466000D01*
X50816000Y-77506000D02*
X50816000Y-75585000D01*
X50776000Y-81368000D02*
X50776000Y-79466000D01*
X50776000Y-77506000D02*
X50776000Y-75604000D01*
X50736000Y-81349000D02*
X50736000Y-79466000D01*
X50736000Y-77506000D02*
X50736000Y-75623000D01*
X50696000Y-81329000D02*
X50696000Y-79466000D01*
X50696000Y-77506000D02*
X50696000Y-75643000D01*
X50656000Y-81308000D02*
X50656000Y-79466000D01*
X50656000Y-77506000D02*
X50656000Y-75664000D01*
X50616000Y-81286000D02*
X50616000Y-79466000D01*
X50616000Y-77506000D02*
X50616000Y-75686000D01*
X50576000Y-81264000D02*
X50576000Y-79466000D01*
X50576000Y-77506000D02*
X50576000Y-75708000D01*
X50536000Y-81241000D02*
X50536000Y-79466000D01*
X50536000Y-77506000D02*
X50536000Y-75731000D01*
X50496000Y-81217000D02*
X50496000Y-79466000D01*
X50496000Y-77506000D02*
X50496000Y-75755000D01*
X50456000Y-81192000D02*
X50456000Y-79466000D01*
X50456000Y-77506000D02*
X50456000Y-75780000D01*
X50416000Y-81167000D02*
X50416000Y-79466000D01*
X50416000Y-77506000D02*
X50416000Y-75805000D01*
X50376000Y-81140000D02*
X50376000Y-79466000D01*
X50376000Y-77506000D02*
X50376000Y-75832000D01*
X50336000Y-81113000D02*
X50336000Y-79466000D01*
X50336000Y-77506000D02*
X50336000Y-75859000D01*
X50296000Y-81085000D02*
X50296000Y-79466000D01*
X50296000Y-77506000D02*
X50296000Y-75887000D01*
X50256000Y-81056000D02*
X50256000Y-79466000D01*
X50256000Y-77506000D02*
X50256000Y-75916000D01*
X50216000Y-81026000D02*
X50216000Y-79466000D01*
X50216000Y-77506000D02*
X50216000Y-75946000D01*
X50176000Y-80996000D02*
X50176000Y-79466000D01*
X50176000Y-77506000D02*
X50176000Y-75976000D01*
X50136000Y-80964000D02*
X50136000Y-79466000D01*
X50136000Y-77506000D02*
X50136000Y-76008000D01*
X50096000Y-80931000D02*
X50096000Y-79466000D01*
X50096000Y-77506000D02*
X50096000Y-76041000D01*
X50056000Y-80897000D02*
X50056000Y-79466000D01*
X50056000Y-77506000D02*
X50056000Y-76075000D01*
X50016000Y-80861000D02*
X50016000Y-79466000D01*
X50016000Y-77506000D02*
X50016000Y-76111000D01*
X49976000Y-80825000D02*
X49976000Y-79466000D01*
X49976000Y-77506000D02*
X49976000Y-76147000D01*
X49936000Y-80787000D02*
X49936000Y-76185000D01*
X49896000Y-80748000D02*
X49896000Y-76224000D01*
X49856000Y-80708000D02*
X49856000Y-76264000D01*
X49816000Y-80666000D02*
X49816000Y-76306000D01*
X49776000Y-80623000D02*
X49776000Y-76349000D01*
X49736000Y-80578000D02*
X49736000Y-76394000D01*
X49696000Y-80531000D02*
X49696000Y-76441000D01*
X49656000Y-80483000D02*
X49656000Y-76489000D01*
X49616000Y-80432000D02*
X49616000Y-76540000D01*
X49576000Y-80380000D02*
X49576000Y-76592000D01*
X49536000Y-80325000D02*
X49536000Y-76647000D01*
X49496000Y-80267000D02*
X49496000Y-76705000D01*
X49456000Y-80207000D02*
X49456000Y-76765000D01*
X49416000Y-80144000D02*
X49416000Y-76828000D01*
X49376000Y-80077000D02*
X49376000Y-76895000D01*
X49336000Y-80006000D02*
X49336000Y-76966000D01*
X49296000Y-79931000D02*
X49296000Y-77041000D01*
X49256000Y-79850000D02*
X49256000Y-77122000D01*
X49216000Y-79764000D02*
X49216000Y-77208000D01*
X49176000Y-79670000D02*
X49176000Y-77302000D01*
X49136000Y-79567000D02*
X49136000Y-77405000D01*
X49096000Y-79452000D02*
X49096000Y-77520000D01*
X49056000Y-79320000D02*
X49056000Y-77652000D01*
X49016000Y-79162000D02*
X49016000Y-77810000D01*
X48976000Y-78954000D02*
X48976000Y-78018000D01*
X55627000Y-78486000D02*
X54427000Y-78486000D01*
X55027000Y-79136000D02*
X55027000Y-77836000D01*
X57875864Y-64947180D02*
G75*
G03X57875000Y-70982482I1179136J-3017820D01*
G01*
X60234136Y-64947180D02*
G75*
G02X60235000Y-70982482I-1179136J-3017820D01*
G01*
X60234136Y-64947180D02*
G75*
G03X57875000Y-64947518I-1179136J-3017820D01*
G01*
X55855000Y-67965000D02*
X62255000Y-67965000D01*
X55855000Y-67925000D02*
X62255000Y-67925000D01*
X55855000Y-67885000D02*
X62255000Y-67885000D01*
X55857000Y-67845000D02*
X62253000Y-67845000D01*
X55858000Y-67805000D02*
X62252000Y-67805000D01*
X55861000Y-67765000D02*
X62249000Y-67765000D01*
X55863000Y-67725000D02*
X62247000Y-67725000D01*
X55867000Y-67685000D02*
X58075000Y-67685000D01*
X60035000Y-67685000D02*
X62243000Y-67685000D01*
X55870000Y-67645000D02*
X58075000Y-67645000D01*
X60035000Y-67645000D02*
X62240000Y-67645000D01*
X55875000Y-67605000D02*
X58075000Y-67605000D01*
X60035000Y-67605000D02*
X62235000Y-67605000D01*
X55879000Y-67565000D02*
X58075000Y-67565000D01*
X60035000Y-67565000D02*
X62231000Y-67565000D01*
X55885000Y-67525000D02*
X58075000Y-67525000D01*
X60035000Y-67525000D02*
X62225000Y-67525000D01*
X55890000Y-67485000D02*
X58075000Y-67485000D01*
X60035000Y-67485000D02*
X62220000Y-67485000D01*
X55897000Y-67445000D02*
X58075000Y-67445000D01*
X60035000Y-67445000D02*
X62213000Y-67445000D01*
X55903000Y-67405000D02*
X58075000Y-67405000D01*
X60035000Y-67405000D02*
X62207000Y-67405000D01*
X55911000Y-67365000D02*
X58075000Y-67365000D01*
X60035000Y-67365000D02*
X62199000Y-67365000D01*
X55918000Y-67325000D02*
X58075000Y-67325000D01*
X60035000Y-67325000D02*
X62192000Y-67325000D01*
X55927000Y-67285000D02*
X58075000Y-67285000D01*
X60035000Y-67285000D02*
X62183000Y-67285000D01*
X55936000Y-67244000D02*
X58075000Y-67244000D01*
X60035000Y-67244000D02*
X62174000Y-67244000D01*
X55945000Y-67204000D02*
X58075000Y-67204000D01*
X60035000Y-67204000D02*
X62165000Y-67204000D01*
X55955000Y-67164000D02*
X58075000Y-67164000D01*
X60035000Y-67164000D02*
X62155000Y-67164000D01*
X55965000Y-67124000D02*
X58075000Y-67124000D01*
X60035000Y-67124000D02*
X62145000Y-67124000D01*
X55976000Y-67084000D02*
X58075000Y-67084000D01*
X60035000Y-67084000D02*
X62134000Y-67084000D01*
X55988000Y-67044000D02*
X58075000Y-67044000D01*
X60035000Y-67044000D02*
X62122000Y-67044000D01*
X56000000Y-67004000D02*
X58075000Y-67004000D01*
X60035000Y-67004000D02*
X62110000Y-67004000D01*
X56013000Y-66964000D02*
X58075000Y-66964000D01*
X60035000Y-66964000D02*
X62097000Y-66964000D01*
X56026000Y-66924000D02*
X58075000Y-66924000D01*
X60035000Y-66924000D02*
X62084000Y-66924000D01*
X56040000Y-66884000D02*
X58075000Y-66884000D01*
X60035000Y-66884000D02*
X62070000Y-66884000D01*
X56054000Y-66844000D02*
X58075000Y-66844000D01*
X60035000Y-66844000D02*
X62056000Y-66844000D01*
X56069000Y-66804000D02*
X58075000Y-66804000D01*
X60035000Y-66804000D02*
X62041000Y-66804000D01*
X56085000Y-66764000D02*
X58075000Y-66764000D01*
X60035000Y-66764000D02*
X62025000Y-66764000D01*
X56101000Y-66724000D02*
X58075000Y-66724000D01*
X60035000Y-66724000D02*
X62009000Y-66724000D01*
X56118000Y-66684000D02*
X58075000Y-66684000D01*
X60035000Y-66684000D02*
X61992000Y-66684000D01*
X56136000Y-66644000D02*
X58075000Y-66644000D01*
X60035000Y-66644000D02*
X61974000Y-66644000D01*
X56154000Y-66604000D02*
X58075000Y-66604000D01*
X60035000Y-66604000D02*
X61956000Y-66604000D01*
X56173000Y-66564000D02*
X58075000Y-66564000D01*
X60035000Y-66564000D02*
X61937000Y-66564000D01*
X56192000Y-66524000D02*
X58075000Y-66524000D01*
X60035000Y-66524000D02*
X61918000Y-66524000D01*
X56212000Y-66484000D02*
X58075000Y-66484000D01*
X60035000Y-66484000D02*
X61898000Y-66484000D01*
X56233000Y-66444000D02*
X58075000Y-66444000D01*
X60035000Y-66444000D02*
X61877000Y-66444000D01*
X56255000Y-66404000D02*
X58075000Y-66404000D01*
X60035000Y-66404000D02*
X61855000Y-66404000D01*
X56277000Y-66364000D02*
X58075000Y-66364000D01*
X60035000Y-66364000D02*
X61833000Y-66364000D01*
X56300000Y-66324000D02*
X58075000Y-66324000D01*
X60035000Y-66324000D02*
X61810000Y-66324000D01*
X56324000Y-66284000D02*
X58075000Y-66284000D01*
X60035000Y-66284000D02*
X61786000Y-66284000D01*
X56349000Y-66244000D02*
X58075000Y-66244000D01*
X60035000Y-66244000D02*
X61761000Y-66244000D01*
X56374000Y-66204000D02*
X58075000Y-66204000D01*
X60035000Y-66204000D02*
X61736000Y-66204000D01*
X56401000Y-66164000D02*
X58075000Y-66164000D01*
X60035000Y-66164000D02*
X61709000Y-66164000D01*
X56428000Y-66124000D02*
X58075000Y-66124000D01*
X60035000Y-66124000D02*
X61682000Y-66124000D01*
X56456000Y-66084000D02*
X58075000Y-66084000D01*
X60035000Y-66084000D02*
X61654000Y-66084000D01*
X56485000Y-66044000D02*
X58075000Y-66044000D01*
X60035000Y-66044000D02*
X61625000Y-66044000D01*
X56515000Y-66004000D02*
X58075000Y-66004000D01*
X60035000Y-66004000D02*
X61595000Y-66004000D01*
X56545000Y-65964000D02*
X58075000Y-65964000D01*
X60035000Y-65964000D02*
X61565000Y-65964000D01*
X56577000Y-65924000D02*
X58075000Y-65924000D01*
X60035000Y-65924000D02*
X61533000Y-65924000D01*
X56610000Y-65884000D02*
X58075000Y-65884000D01*
X60035000Y-65884000D02*
X61500000Y-65884000D01*
X56644000Y-65844000D02*
X58075000Y-65844000D01*
X60035000Y-65844000D02*
X61466000Y-65844000D01*
X56680000Y-65804000D02*
X58075000Y-65804000D01*
X60035000Y-65804000D02*
X61430000Y-65804000D01*
X56716000Y-65764000D02*
X58075000Y-65764000D01*
X60035000Y-65764000D02*
X61394000Y-65764000D01*
X56754000Y-65724000D02*
X61356000Y-65724000D01*
X56793000Y-65684000D02*
X61317000Y-65684000D01*
X56833000Y-65644000D02*
X61277000Y-65644000D01*
X56875000Y-65604000D02*
X61235000Y-65604000D01*
X56918000Y-65564000D02*
X61192000Y-65564000D01*
X56963000Y-65524000D02*
X61147000Y-65524000D01*
X57010000Y-65484000D02*
X61100000Y-65484000D01*
X57058000Y-65444000D02*
X61052000Y-65444000D01*
X57109000Y-65404000D02*
X61001000Y-65404000D01*
X57161000Y-65364000D02*
X60949000Y-65364000D01*
X57216000Y-65324000D02*
X60894000Y-65324000D01*
X57274000Y-65284000D02*
X60836000Y-65284000D01*
X57334000Y-65244000D02*
X60776000Y-65244000D01*
X57397000Y-65204000D02*
X60713000Y-65204000D01*
X57464000Y-65164000D02*
X60646000Y-65164000D01*
X57535000Y-65124000D02*
X60575000Y-65124000D01*
X57610000Y-65084000D02*
X60500000Y-65084000D01*
X57691000Y-65044000D02*
X60419000Y-65044000D01*
X57777000Y-65004000D02*
X60333000Y-65004000D01*
X57871000Y-64964000D02*
X60239000Y-64964000D01*
X57974000Y-64924000D02*
X60136000Y-64924000D01*
X58089000Y-64884000D02*
X60021000Y-64884000D01*
X58221000Y-64844000D02*
X59889000Y-64844000D01*
X58379000Y-64804000D02*
X59731000Y-64804000D01*
X58587000Y-64764000D02*
X59523000Y-64764000D01*
X59055000Y-71415000D02*
X59055000Y-70215000D01*
X58405000Y-70815000D02*
X59705000Y-70815000D01*
X95465000Y-95250000D02*
G75*
G03X95465000Y-95250000I-11090000J0D01*
G01*
X84375000Y-106300000D02*
X84375000Y-84200000D01*
X84335000Y-106300000D02*
X84335000Y-84200000D01*
X84295000Y-106300000D02*
X84295000Y-84200000D01*
X84255000Y-106300000D02*
X84255000Y-84200000D01*
X84215000Y-106299000D02*
X84215000Y-84201000D01*
X84175000Y-106299000D02*
X84175000Y-84201000D01*
X84135000Y-106298000D02*
X84135000Y-84202000D01*
X84095000Y-106297000D02*
X84095000Y-84203000D01*
X84055000Y-106296000D02*
X84055000Y-84204000D01*
X84015000Y-106295000D02*
X84015000Y-84205000D01*
X83975000Y-106293000D02*
X83975000Y-84207000D01*
X83935000Y-106292000D02*
X83935000Y-84208000D01*
X83895000Y-106290000D02*
X83895000Y-84210000D01*
X83855000Y-106288000D02*
X83855000Y-84212000D01*
X83815000Y-106286000D02*
X83815000Y-84214000D01*
X83775000Y-106284000D02*
X83775000Y-84216000D01*
X83735000Y-106282000D02*
X83735000Y-84218000D01*
X83695000Y-106280000D02*
X83695000Y-84220000D01*
X83654000Y-106277000D02*
X83654000Y-84223000D01*
X83614000Y-106274000D02*
X83614000Y-84226000D01*
X83574000Y-106272000D02*
X83574000Y-84228000D01*
X83534000Y-106269000D02*
X83534000Y-84231000D01*
X83494000Y-106266000D02*
X83494000Y-84234000D01*
X83454000Y-106262000D02*
X83454000Y-84238000D01*
X83414000Y-106259000D02*
X83414000Y-84241000D01*
X83374000Y-106255000D02*
X83374000Y-84245000D01*
X83334000Y-106252000D02*
X83334000Y-84248000D01*
X83294000Y-106248000D02*
X83294000Y-84252000D01*
X83254000Y-106244000D02*
X83254000Y-84256000D01*
X83214000Y-106240000D02*
X83214000Y-84260000D01*
X83174000Y-106235000D02*
X83174000Y-84265000D01*
X83134000Y-106231000D02*
X83134000Y-84269000D01*
X83094000Y-106226000D02*
X83094000Y-84274000D01*
X83054000Y-106222000D02*
X83054000Y-84278000D01*
X83014000Y-106217000D02*
X83014000Y-84283000D01*
X82974000Y-106212000D02*
X82974000Y-84288000D01*
X82934000Y-106207000D02*
X82934000Y-84293000D01*
X82894000Y-106201000D02*
X82894000Y-84299000D01*
X82854000Y-106196000D02*
X82854000Y-84304000D01*
X82814000Y-106190000D02*
X82814000Y-84310000D01*
X82774000Y-106184000D02*
X82774000Y-84316000D01*
X82734000Y-106179000D02*
X82734000Y-84321000D01*
X82694000Y-106173000D02*
X82694000Y-84327000D01*
X82654000Y-106166000D02*
X82654000Y-84334000D01*
X82614000Y-106160000D02*
X82614000Y-84340000D01*
X82574000Y-106153000D02*
X82574000Y-84347000D01*
X82534000Y-106147000D02*
X82534000Y-84353000D01*
X82494000Y-106140000D02*
X82494000Y-84360000D01*
X82454000Y-106133000D02*
X82454000Y-84367000D01*
X82414000Y-106126000D02*
X82414000Y-84374000D01*
X82374000Y-106119000D02*
X82374000Y-84381000D01*
X82334000Y-106111000D02*
X82334000Y-84389000D01*
X82294000Y-106104000D02*
X82294000Y-84396000D01*
X82254000Y-106096000D02*
X82254000Y-84404000D01*
X82214000Y-106088000D02*
X82214000Y-84412000D01*
X82174000Y-106080000D02*
X82174000Y-84420000D01*
X82134000Y-106072000D02*
X82134000Y-84428000D01*
X82094000Y-106064000D02*
X82094000Y-84436000D01*
X82054000Y-106055000D02*
X82054000Y-84445000D01*
X82014000Y-106046000D02*
X82014000Y-84454000D01*
X81974000Y-106038000D02*
X81974000Y-84462000D01*
X81934000Y-106029000D02*
X81934000Y-84471000D01*
X81894000Y-106020000D02*
X81894000Y-84480000D01*
X81854000Y-106010000D02*
X81854000Y-84490000D01*
X81814000Y-106001000D02*
X81814000Y-84499000D01*
X81774000Y-105991000D02*
X81774000Y-84509000D01*
X81734000Y-105982000D02*
X81734000Y-84518000D01*
X81694000Y-105972000D02*
X81694000Y-84528000D01*
X81654000Y-105962000D02*
X81654000Y-84538000D01*
X81614000Y-105952000D02*
X81614000Y-84548000D01*
X81574000Y-105941000D02*
X81574000Y-84559000D01*
X81534000Y-105931000D02*
X81534000Y-97430000D01*
X81534000Y-93070000D02*
X81534000Y-84569000D01*
X81494000Y-105920000D02*
X81494000Y-97430000D01*
X81494000Y-93070000D02*
X81494000Y-84580000D01*
X81454000Y-105909000D02*
X81454000Y-97430000D01*
X81454000Y-93070000D02*
X81454000Y-84591000D01*
X81414000Y-105898000D02*
X81414000Y-97430000D01*
X81414000Y-93070000D02*
X81414000Y-84602000D01*
X81374000Y-105887000D02*
X81374000Y-97430000D01*
X81374000Y-93070000D02*
X81374000Y-84613000D01*
X81334000Y-105876000D02*
X81334000Y-97430000D01*
X81334000Y-93070000D02*
X81334000Y-84624000D01*
X81294000Y-105864000D02*
X81294000Y-97430000D01*
X81294000Y-93070000D02*
X81294000Y-84636000D01*
X81254000Y-105853000D02*
X81254000Y-97430000D01*
X81254000Y-93070000D02*
X81254000Y-84647000D01*
X81214000Y-105841000D02*
X81214000Y-97430000D01*
X81214000Y-93070000D02*
X81214000Y-84659000D01*
X81174000Y-105829000D02*
X81174000Y-97430000D01*
X81174000Y-93070000D02*
X81174000Y-84671000D01*
X81134000Y-105817000D02*
X81134000Y-97430000D01*
X81134000Y-93070000D02*
X81134000Y-84683000D01*
X81094000Y-105804000D02*
X81094000Y-97430000D01*
X81094000Y-93070000D02*
X81094000Y-84696000D01*
X81054000Y-105792000D02*
X81054000Y-97430000D01*
X81054000Y-93070000D02*
X81054000Y-84708000D01*
X81014000Y-105779000D02*
X81014000Y-97430000D01*
X81014000Y-93070000D02*
X81014000Y-84721000D01*
X80974000Y-105766000D02*
X80974000Y-97430000D01*
X80974000Y-93070000D02*
X80974000Y-84734000D01*
X80934000Y-105753000D02*
X80934000Y-97430000D01*
X80934000Y-93070000D02*
X80934000Y-84747000D01*
X80894000Y-105740000D02*
X80894000Y-97430000D01*
X80894000Y-93070000D02*
X80894000Y-84760000D01*
X80854000Y-105727000D02*
X80854000Y-97430000D01*
X80854000Y-93070000D02*
X80854000Y-84773000D01*
X80814000Y-105714000D02*
X80814000Y-97430000D01*
X80814000Y-93070000D02*
X80814000Y-84786000D01*
X80774000Y-105700000D02*
X80774000Y-97430000D01*
X80774000Y-93070000D02*
X80774000Y-84800000D01*
X80734000Y-105686000D02*
X80734000Y-97430000D01*
X80734000Y-93070000D02*
X80734000Y-84814000D01*
X80694000Y-105672000D02*
X80694000Y-97430000D01*
X80694000Y-93070000D02*
X80694000Y-84828000D01*
X80654000Y-105658000D02*
X80654000Y-97430000D01*
X80654000Y-93070000D02*
X80654000Y-84842000D01*
X80614000Y-105644000D02*
X80614000Y-97430000D01*
X80614000Y-93070000D02*
X80614000Y-84856000D01*
X80574000Y-105629000D02*
X80574000Y-97430000D01*
X80574000Y-93070000D02*
X80574000Y-84871000D01*
X80534000Y-105614000D02*
X80534000Y-97430000D01*
X80534000Y-93070000D02*
X80534000Y-84886000D01*
X80494000Y-105600000D02*
X80494000Y-97430000D01*
X80494000Y-93070000D02*
X80494000Y-84900000D01*
X80454000Y-105585000D02*
X80454000Y-97430000D01*
X80454000Y-93070000D02*
X80454000Y-84915000D01*
X80414000Y-105569000D02*
X80414000Y-97430000D01*
X80414000Y-93070000D02*
X80414000Y-84931000D01*
X80374000Y-105554000D02*
X80374000Y-97430000D01*
X80374000Y-93070000D02*
X80374000Y-84946000D01*
X80334000Y-105538000D02*
X80334000Y-97430000D01*
X80334000Y-93070000D02*
X80334000Y-84962000D01*
X80294000Y-105523000D02*
X80294000Y-97430000D01*
X80294000Y-93070000D02*
X80294000Y-84977000D01*
X80254000Y-105507000D02*
X80254000Y-97430000D01*
X80254000Y-93070000D02*
X80254000Y-84993000D01*
X80214000Y-105491000D02*
X80214000Y-97430000D01*
X80214000Y-93070000D02*
X80214000Y-85009000D01*
X80174000Y-105474000D02*
X80174000Y-97430000D01*
X80174000Y-93070000D02*
X80174000Y-85026000D01*
X80134000Y-105458000D02*
X80134000Y-97430000D01*
X80134000Y-93070000D02*
X80134000Y-85042000D01*
X80094000Y-105441000D02*
X80094000Y-97430000D01*
X80094000Y-93070000D02*
X80094000Y-85059000D01*
X80054000Y-105424000D02*
X80054000Y-97430000D01*
X80054000Y-93070000D02*
X80054000Y-85076000D01*
X80014000Y-105407000D02*
X80014000Y-97430000D01*
X80014000Y-93070000D02*
X80014000Y-85093000D01*
X79974000Y-105390000D02*
X79974000Y-97430000D01*
X79974000Y-93070000D02*
X79974000Y-85110000D01*
X79934000Y-105373000D02*
X79934000Y-97430000D01*
X79934000Y-93070000D02*
X79934000Y-85127000D01*
X79894000Y-105355000D02*
X79894000Y-97430000D01*
X79894000Y-93070000D02*
X79894000Y-85145000D01*
X79854000Y-105338000D02*
X79854000Y-97430000D01*
X79854000Y-93070000D02*
X79854000Y-85162000D01*
X79814000Y-105320000D02*
X79814000Y-97430000D01*
X79814000Y-93070000D02*
X79814000Y-85180000D01*
X79774000Y-105301000D02*
X79774000Y-97430000D01*
X79774000Y-93070000D02*
X79774000Y-85199000D01*
X79734000Y-105283000D02*
X79734000Y-97430000D01*
X79734000Y-93070000D02*
X79734000Y-85217000D01*
X79694000Y-105265000D02*
X79694000Y-97430000D01*
X79694000Y-93070000D02*
X79694000Y-85235000D01*
X79654000Y-105246000D02*
X79654000Y-97430000D01*
X79654000Y-93070000D02*
X79654000Y-85254000D01*
X79614000Y-105227000D02*
X79614000Y-97430000D01*
X79614000Y-93070000D02*
X79614000Y-85273000D01*
X79574000Y-105208000D02*
X79574000Y-97430000D01*
X79574000Y-93070000D02*
X79574000Y-85292000D01*
X79534000Y-105189000D02*
X79534000Y-97430000D01*
X79534000Y-93070000D02*
X79534000Y-85311000D01*
X79494000Y-105169000D02*
X79494000Y-97430000D01*
X79494000Y-93070000D02*
X79494000Y-85331000D01*
X79454000Y-105149000D02*
X79454000Y-97430000D01*
X79454000Y-93070000D02*
X79454000Y-85351000D01*
X79414000Y-105129000D02*
X79414000Y-97430000D01*
X79414000Y-93070000D02*
X79414000Y-85371000D01*
X79374000Y-105109000D02*
X79374000Y-97430000D01*
X79374000Y-93070000D02*
X79374000Y-85391000D01*
X79334000Y-105089000D02*
X79334000Y-97430000D01*
X79334000Y-93070000D02*
X79334000Y-85411000D01*
X79294000Y-105069000D02*
X79294000Y-97430000D01*
X79294000Y-93070000D02*
X79294000Y-85431000D01*
X79254000Y-105048000D02*
X79254000Y-97430000D01*
X79254000Y-93070000D02*
X79254000Y-85452000D01*
X79214000Y-105027000D02*
X79214000Y-97430000D01*
X79214000Y-93070000D02*
X79214000Y-85473000D01*
X79174000Y-105006000D02*
X79174000Y-97430000D01*
X79174000Y-93070000D02*
X79174000Y-85494000D01*
X79134000Y-104984000D02*
X79134000Y-97430000D01*
X79134000Y-93070000D02*
X79134000Y-85516000D01*
X79094000Y-104963000D02*
X79094000Y-97430000D01*
X79094000Y-93070000D02*
X79094000Y-85537000D01*
X79054000Y-104941000D02*
X79054000Y-97430000D01*
X79054000Y-93070000D02*
X79054000Y-85559000D01*
X79014000Y-104919000D02*
X79014000Y-97430000D01*
X79014000Y-93070000D02*
X79014000Y-85581000D01*
X78974000Y-104897000D02*
X78974000Y-97430000D01*
X78974000Y-93070000D02*
X78974000Y-85603000D01*
X78934000Y-104875000D02*
X78934000Y-97430000D01*
X78934000Y-93070000D02*
X78934000Y-85625000D01*
X78894000Y-104852000D02*
X78894000Y-97430000D01*
X78894000Y-93070000D02*
X78894000Y-85648000D01*
X78854000Y-104829000D02*
X78854000Y-97430000D01*
X78854000Y-93070000D02*
X78854000Y-85671000D01*
X78814000Y-104806000D02*
X78814000Y-97430000D01*
X78814000Y-93070000D02*
X78814000Y-85694000D01*
X78774000Y-104783000D02*
X78774000Y-97430000D01*
X78774000Y-93070000D02*
X78774000Y-85717000D01*
X78734000Y-104759000D02*
X78734000Y-97430000D01*
X78734000Y-93070000D02*
X78734000Y-85741000D01*
X78694000Y-104736000D02*
X78694000Y-97430000D01*
X78694000Y-93070000D02*
X78694000Y-85764000D01*
X78654000Y-104712000D02*
X78654000Y-97430000D01*
X78654000Y-93070000D02*
X78654000Y-85788000D01*
X78614000Y-104687000D02*
X78614000Y-97430000D01*
X78614000Y-93070000D02*
X78614000Y-85813000D01*
X78574000Y-104663000D02*
X78574000Y-97430000D01*
X78574000Y-93070000D02*
X78574000Y-85837000D01*
X78534000Y-104638000D02*
X78534000Y-97430000D01*
X78534000Y-93070000D02*
X78534000Y-85862000D01*
X78494000Y-104613000D02*
X78494000Y-97430000D01*
X78494000Y-93070000D02*
X78494000Y-85887000D01*
X78454000Y-104588000D02*
X78454000Y-97430000D01*
X78454000Y-93070000D02*
X78454000Y-85912000D01*
X78414000Y-104563000D02*
X78414000Y-97430000D01*
X78414000Y-93070000D02*
X78414000Y-85937000D01*
X78374000Y-104537000D02*
X78374000Y-97430000D01*
X78374000Y-93070000D02*
X78374000Y-85963000D01*
X78334000Y-104511000D02*
X78334000Y-97430000D01*
X78334000Y-93070000D02*
X78334000Y-85989000D01*
X78294000Y-104485000D02*
X78294000Y-97430000D01*
X78294000Y-93070000D02*
X78294000Y-86015000D01*
X78254000Y-104459000D02*
X78254000Y-97430000D01*
X78254000Y-93070000D02*
X78254000Y-86041000D01*
X78214000Y-104432000D02*
X78214000Y-97430000D01*
X78214000Y-93070000D02*
X78214000Y-86068000D01*
X78174000Y-104406000D02*
X78174000Y-97430000D01*
X78174000Y-93070000D02*
X78174000Y-86094000D01*
X78134000Y-104378000D02*
X78134000Y-97430000D01*
X78134000Y-93070000D02*
X78134000Y-86122000D01*
X78094000Y-104351000D02*
X78094000Y-97430000D01*
X78094000Y-93070000D02*
X78094000Y-86149000D01*
X78054000Y-104323000D02*
X78054000Y-97430000D01*
X78054000Y-93070000D02*
X78054000Y-86177000D01*
X78014000Y-104296000D02*
X78014000Y-97430000D01*
X78014000Y-93070000D02*
X78014000Y-86204000D01*
X77974000Y-104267000D02*
X77974000Y-97430000D01*
X77974000Y-93070000D02*
X77974000Y-86233000D01*
X77934000Y-104239000D02*
X77934000Y-97430000D01*
X77934000Y-93070000D02*
X77934000Y-86261000D01*
X77894000Y-104210000D02*
X77894000Y-97430000D01*
X77894000Y-93070000D02*
X77894000Y-86290000D01*
X77854000Y-104181000D02*
X77854000Y-97430000D01*
X77854000Y-93070000D02*
X77854000Y-86319000D01*
X77814000Y-104152000D02*
X77814000Y-97430000D01*
X77814000Y-93070000D02*
X77814000Y-86348000D01*
X77774000Y-104123000D02*
X77774000Y-97430000D01*
X77774000Y-93070000D02*
X77774000Y-86377000D01*
X77734000Y-104093000D02*
X77734000Y-97430000D01*
X77734000Y-93070000D02*
X77734000Y-86407000D01*
X77694000Y-104063000D02*
X77694000Y-97430000D01*
X77694000Y-93070000D02*
X77694000Y-86437000D01*
X77654000Y-104033000D02*
X77654000Y-97430000D01*
X77654000Y-93070000D02*
X77654000Y-86467000D01*
X77614000Y-104002000D02*
X77614000Y-97430000D01*
X77614000Y-93070000D02*
X77614000Y-86498000D01*
X77574000Y-103971000D02*
X77574000Y-97430000D01*
X77574000Y-93070000D02*
X77574000Y-86529000D01*
X77534000Y-103940000D02*
X77534000Y-97430000D01*
X77534000Y-93070000D02*
X77534000Y-86560000D01*
X77494000Y-103908000D02*
X77494000Y-97430000D01*
X77494000Y-93070000D02*
X77494000Y-86592000D01*
X77454000Y-103877000D02*
X77454000Y-97430000D01*
X77454000Y-93070000D02*
X77454000Y-86623000D01*
X77414000Y-103845000D02*
X77414000Y-97430000D01*
X77414000Y-93070000D02*
X77414000Y-86655000D01*
X77374000Y-103812000D02*
X77374000Y-97430000D01*
X77374000Y-93070000D02*
X77374000Y-86688000D01*
X77334000Y-103779000D02*
X77334000Y-97430000D01*
X77334000Y-93070000D02*
X77334000Y-86721000D01*
X77294000Y-103746000D02*
X77294000Y-97430000D01*
X77294000Y-93070000D02*
X77294000Y-86754000D01*
X77254000Y-103713000D02*
X77254000Y-97430000D01*
X77254000Y-93070000D02*
X77254000Y-86787000D01*
X77214000Y-103679000D02*
X77214000Y-97430000D01*
X77214000Y-93070000D02*
X77214000Y-86821000D01*
X77174000Y-103645000D02*
X77174000Y-86855000D01*
X77134000Y-103611000D02*
X77134000Y-86889000D01*
X77094000Y-103576000D02*
X77094000Y-86924000D01*
X77054000Y-103542000D02*
X77054000Y-86958000D01*
X77014000Y-103506000D02*
X77014000Y-86994000D01*
X76974000Y-103471000D02*
X76974000Y-87029000D01*
X76934000Y-103435000D02*
X76934000Y-87065000D01*
X76894000Y-103398000D02*
X76894000Y-87102000D01*
X76854000Y-103361000D02*
X76854000Y-87139000D01*
X76814000Y-103324000D02*
X76814000Y-87176000D01*
X76774000Y-103287000D02*
X76774000Y-87213000D01*
X76734000Y-103249000D02*
X76734000Y-87251000D01*
X76694000Y-103211000D02*
X76694000Y-87289000D01*
X76654000Y-103172000D02*
X76654000Y-87328000D01*
X76614000Y-103133000D02*
X76614000Y-87367000D01*
X76574000Y-103094000D02*
X76574000Y-87406000D01*
X76534000Y-103054000D02*
X76534000Y-87446000D01*
X76494000Y-103014000D02*
X76494000Y-87486000D01*
X76454000Y-102973000D02*
X76454000Y-87527000D01*
X76414000Y-102932000D02*
X76414000Y-87568000D01*
X76374000Y-102891000D02*
X76374000Y-87609000D01*
X76334000Y-102849000D02*
X76334000Y-87651000D01*
X76294000Y-102807000D02*
X76294000Y-87693000D01*
X76254000Y-102764000D02*
X76254000Y-87736000D01*
X76214000Y-102721000D02*
X76214000Y-87779000D01*
X76175000Y-102677000D02*
X76175000Y-87823000D01*
X76135000Y-102633000D02*
X76135000Y-87867000D01*
X76095000Y-102588000D02*
X76095000Y-87912000D01*
X76055000Y-102543000D02*
X76055000Y-87957000D01*
X76015000Y-102497000D02*
X76015000Y-88003000D01*
X75975000Y-102451000D02*
X75975000Y-88049000D01*
X75935000Y-102405000D02*
X75935000Y-88095000D01*
X75895000Y-102357000D02*
X75895000Y-88143000D01*
X75855000Y-102310000D02*
X75855000Y-88190000D01*
X75815000Y-102261000D02*
X75815000Y-88239000D01*
X75775000Y-102213000D02*
X75775000Y-88287000D01*
X75735000Y-102163000D02*
X75735000Y-88337000D01*
X75695000Y-102113000D02*
X75695000Y-88387000D01*
X75655000Y-102062000D02*
X75655000Y-88438000D01*
X75615000Y-102011000D02*
X75615000Y-88489000D01*
X75575000Y-101959000D02*
X75575000Y-88541000D01*
X75535000Y-101907000D02*
X75535000Y-88593000D01*
X75495000Y-101854000D02*
X75495000Y-88646000D01*
X75455000Y-101800000D02*
X75455000Y-88700000D01*
X75415000Y-101746000D02*
X75415000Y-88754000D01*
X75375000Y-101690000D02*
X75375000Y-88810000D01*
X75335000Y-101634000D02*
X75335000Y-88866000D01*
X75295000Y-101578000D02*
X75295000Y-88922000D01*
X75255000Y-101520000D02*
X75255000Y-88980000D01*
X75215000Y-101462000D02*
X75215000Y-89038000D01*
X75175000Y-101403000D02*
X75175000Y-89097000D01*
X75135000Y-101343000D02*
X75135000Y-89157000D01*
X75095000Y-101283000D02*
X75095000Y-89217000D01*
X75055000Y-101221000D02*
X75055000Y-89279000D01*
X75015000Y-101158000D02*
X75015000Y-89342000D01*
X74975000Y-101095000D02*
X74975000Y-89405000D01*
X74935000Y-101031000D02*
X74935000Y-89469000D01*
X74895000Y-100965000D02*
X74895000Y-89535000D01*
X74855000Y-100899000D02*
X74855000Y-89601000D01*
X74815000Y-100831000D02*
X74815000Y-89669000D01*
X74775000Y-100763000D02*
X74775000Y-89737000D01*
X74735000Y-100693000D02*
X74735000Y-89807000D01*
X74695000Y-100622000D02*
X74695000Y-89878000D01*
X74655000Y-100550000D02*
X74655000Y-89950000D01*
X74615000Y-100476000D02*
X74615000Y-90024000D01*
X74575000Y-100402000D02*
X74575000Y-90098000D01*
X74535000Y-100325000D02*
X74535000Y-90175000D01*
X74495000Y-100248000D02*
X74495000Y-90252000D01*
X74455000Y-100168000D02*
X74455000Y-90332000D01*
X74415000Y-100088000D02*
X74415000Y-90412000D01*
X74375000Y-100005000D02*
X74375000Y-90495000D01*
X74335000Y-99921000D02*
X74335000Y-90579000D01*
X74295000Y-99835000D02*
X74295000Y-90665000D01*
X74255000Y-99746000D02*
X74255000Y-90754000D01*
X74215000Y-99656000D02*
X74215000Y-90844000D01*
X74175000Y-99563000D02*
X74175000Y-90937000D01*
X74135000Y-99468000D02*
X74135000Y-91032000D01*
X74095000Y-99371000D02*
X74095000Y-91129000D01*
X74055000Y-99271000D02*
X74055000Y-91229000D01*
X74015000Y-99168000D02*
X74015000Y-91332000D01*
X73975000Y-99061000D02*
X73975000Y-91439000D01*
X73935000Y-98951000D02*
X73935000Y-91549000D01*
X73895000Y-98838000D02*
X73895000Y-91662000D01*
X73855000Y-98720000D02*
X73855000Y-91780000D01*
X73815000Y-98598000D02*
X73815000Y-91902000D01*
X73775000Y-98471000D02*
X73775000Y-92029000D01*
X73735000Y-98338000D02*
X73735000Y-92162000D01*
X73695000Y-98198000D02*
X73695000Y-92302000D01*
X73655000Y-98051000D02*
X73655000Y-92449000D01*
X73615000Y-97896000D02*
X73615000Y-92604000D01*
X73575000Y-97730000D02*
X73575000Y-92770000D01*
X73535000Y-97552000D02*
X73535000Y-92948000D01*
X73495000Y-97358000D02*
X73495000Y-93142000D01*
X73455000Y-97145000D02*
X73455000Y-93355000D01*
X73415000Y-96904000D02*
X73415000Y-93596000D01*
X73375000Y-96621000D02*
X73375000Y-93879000D01*
X73335000Y-96262000D02*
X73335000Y-94238000D01*
X73295000Y-95681000D02*
X73295000Y-94819000D01*
X94575000Y-95250000D02*
X91575000Y-95250000D01*
X93075000Y-96750000D02*
X93075000Y-93750000D01*
X81435000Y-82975000D02*
X81435000Y-80855000D01*
X81435000Y-80855000D02*
X77315000Y-80855000D01*
X77315000Y-80855000D02*
X77315000Y-82975000D01*
X77315000Y-82975000D02*
X81435000Y-82975000D01*
X82205000Y-81915000D02*
X81435000Y-81915000D01*
X76545000Y-81915000D02*
X77315000Y-81915000D01*
X80775000Y-82975000D02*
X80775000Y-80855000D01*
D11*
X106426000Y-64389000D02*
X106426000Y-69469000D01*
X106426000Y-69469000D02*
X101854000Y-69469000D01*
X101854000Y-69469000D02*
X101854000Y-64389000D01*
X101854000Y-64389000D02*
X106426000Y-64389000D01*
X104902000Y-64389000D02*
X104902000Y-64897000D01*
X104902000Y-64897000D02*
X103632000Y-64897000D01*
X103632000Y-64897000D02*
X103632000Y-64389000D01*
D14*
X52875000Y-103205000D02*
X52875000Y-103805000D01*
X52475000Y-103205000D02*
X52975000Y-103205000D01*
X52475000Y-103205000D02*
X52475000Y-103805000D01*
X52475000Y-103805000D02*
X52975000Y-103805000D01*
X54175000Y-103505000D02*
G75*
G03X54175000Y-103505000I-200000J0D01*
G01*
X54975000Y-103505000D02*
G75*
G03X54975000Y-103505000I-1000000J0D01*
G01*
X55975000Y-104505000D02*
G75*
G03X55975000Y-104505000I-200000J0D01*
G01*
X55275000Y-104805000D02*
X55275000Y-102205000D01*
X55275000Y-102205000D02*
X52675000Y-102205000D01*
X52675000Y-102205000D02*
X52675000Y-104805000D01*
X52675000Y-104805000D02*
X55275000Y-104805000D01*
D13*
X49630814Y-73207522D02*
X52290814Y-73207522D01*
X49630814Y-68067522D02*
X49630814Y-73207522D01*
X52290814Y-68067522D02*
X52290814Y-73207522D01*
X49630814Y-68067522D02*
X52290814Y-68067522D01*
X49630814Y-66797522D02*
X49630814Y-65467522D01*
X49630814Y-65467522D02*
X50960814Y-65467522D01*
X100270000Y-106105000D02*
X102930000Y-106105000D01*
X100270000Y-100965000D02*
X100270000Y-106105000D01*
X102930000Y-100965000D02*
X102930000Y-106105000D01*
X100270000Y-100965000D02*
X102930000Y-100965000D01*
X100270000Y-99695000D02*
X100270000Y-98365000D01*
X100270000Y-98365000D02*
X101600000Y-98365000D01*
X107255000Y-106105000D02*
X109915000Y-106105000D01*
X107255000Y-100965000D02*
X107255000Y-106105000D01*
X109915000Y-100965000D02*
X109915000Y-106105000D01*
X107255000Y-100965000D02*
X109915000Y-100965000D01*
X107255000Y-99695000D02*
X107255000Y-98365000D01*
X107255000Y-98365000D02*
X108585000Y-98365000D01*
D11*
X58245000Y-105105000D02*
X58245000Y-104455000D01*
X58995000Y-105105000D02*
X58245000Y-105105000D01*
X63095000Y-105105000D02*
X60095000Y-105105000D01*
X60095000Y-101905000D02*
X63095000Y-101905000D01*
D13*
X79435000Y-62163000D02*
X79435000Y-59503000D01*
X69215000Y-62163000D02*
X79435000Y-62163000D01*
X69215000Y-59503000D02*
X79435000Y-59503000D01*
X69215000Y-62163000D02*
X69215000Y-59503000D01*
X67945000Y-62163000D02*
X66615000Y-62163000D01*
X66615000Y-62163000D02*
X66615000Y-60833000D01*
X111065000Y-93405000D02*
X116265000Y-93405000D01*
X111065000Y-83185000D02*
X111065000Y-93405000D01*
X116265000Y-80585000D02*
X116265000Y-93405000D01*
X111065000Y-83185000D02*
X113665000Y-83185000D01*
X113665000Y-83185000D02*
X113665000Y-80585000D01*
X113665000Y-80585000D02*
X116265000Y-80585000D01*
X111065000Y-81915000D02*
X111065000Y-80585000D01*
X111065000Y-80585000D02*
X112395000Y-80585000D01*
X65891000Y-95957000D02*
X69491000Y-95957000D01*
X65366816Y-95229795D02*
G75*
G03X65891000Y-95957000I2324184J1122795D01*
G01*
X65334600Y-93008193D02*
G75*
G02X67691000Y-91507000I2356400J-1098807D01*
G01*
X70047400Y-93008193D02*
G75*
G03X67691000Y-91507000I-2356400J-1098807D01*
G01*
X70015184Y-95229795D02*
G75*
G02X69491000Y-95957000I-2324184J1122795D01*
G01*
X66085000Y-88040000D02*
X66085000Y-89760000D01*
X66085000Y-89760000D02*
X69805000Y-89760000D01*
X69805000Y-89760000D02*
X69805000Y-88040000D01*
X69805000Y-88040000D02*
X66085000Y-88040000D01*
X65015000Y-88900000D02*
X66085000Y-88900000D01*
X70875000Y-88900000D02*
X69805000Y-88900000D01*
X72345000Y-105000000D02*
X72345000Y-103280000D01*
X72345000Y-103280000D02*
X68625000Y-103280000D01*
X68625000Y-103280000D02*
X68625000Y-105000000D01*
X68625000Y-105000000D02*
X72345000Y-105000000D01*
X73415000Y-104140000D02*
X72345000Y-104140000D01*
X67555000Y-104140000D02*
X68625000Y-104140000D01*
X66085000Y-84865000D02*
X66085000Y-86585000D01*
X66085000Y-86585000D02*
X69805000Y-86585000D01*
X69805000Y-86585000D02*
X69805000Y-84865000D01*
X69805000Y-84865000D02*
X66085000Y-84865000D01*
X65015000Y-85725000D02*
X66085000Y-85725000D01*
X70875000Y-85725000D02*
X69805000Y-85725000D01*
X92665000Y-82775000D02*
X92665000Y-81055000D01*
X92665000Y-81055000D02*
X88945000Y-81055000D01*
X88945000Y-81055000D02*
X88945000Y-82775000D01*
X88945000Y-82775000D02*
X92665000Y-82775000D01*
X93735000Y-81915000D02*
X92665000Y-81915000D01*
X87875000Y-81915000D02*
X88945000Y-81915000D01*
X54401000Y-84865000D02*
X54401000Y-86585000D01*
X54401000Y-86585000D02*
X58121000Y-86585000D01*
X58121000Y-86585000D02*
X58121000Y-84865000D01*
X58121000Y-84865000D02*
X54401000Y-84865000D01*
X53331000Y-85725000D02*
X54401000Y-85725000D01*
X59191000Y-85725000D02*
X58121000Y-85725000D01*
X54401000Y-91215000D02*
X54401000Y-92935000D01*
X54401000Y-92935000D02*
X58121000Y-92935000D01*
X58121000Y-92935000D02*
X58121000Y-91215000D01*
X58121000Y-91215000D02*
X54401000Y-91215000D01*
X53331000Y-92075000D02*
X54401000Y-92075000D01*
X59191000Y-92075000D02*
X58121000Y-92075000D01*
X54401000Y-88040000D02*
X54401000Y-89760000D01*
X54401000Y-89760000D02*
X58121000Y-89760000D01*
X58121000Y-89760000D02*
X58121000Y-88040000D01*
X58121000Y-88040000D02*
X54401000Y-88040000D01*
X53331000Y-88900000D02*
X54401000Y-88900000D01*
X59191000Y-88900000D02*
X58121000Y-88900000D01*
X54401000Y-94390000D02*
X54401000Y-96110000D01*
X54401000Y-96110000D02*
X58121000Y-96110000D01*
X58121000Y-96110000D02*
X58121000Y-94390000D01*
X58121000Y-94390000D02*
X54401000Y-94390000D01*
X53331000Y-95250000D02*
X54401000Y-95250000D01*
X59191000Y-95250000D02*
X58121000Y-95250000D01*
X54401000Y-97565000D02*
X54401000Y-99285000D01*
X54401000Y-99285000D02*
X58121000Y-99285000D01*
X58121000Y-99285000D02*
X58121000Y-97565000D01*
X58121000Y-97565000D02*
X54401000Y-97565000D01*
X53331000Y-98425000D02*
X54401000Y-98425000D01*
X59191000Y-98425000D02*
X58121000Y-98425000D01*
X63749000Y-76195000D02*
X62489000Y-76195000D01*
X56929000Y-76195000D02*
X58189000Y-76195000D01*
X63749000Y-79955000D02*
X63749000Y-76195000D01*
X56929000Y-82205000D02*
X56929000Y-76195000D01*
D15*
X94361000Y-78486000D02*
X94361000Y-79121000D01*
X94361000Y-79121000D02*
X82169000Y-79121000D01*
X82169000Y-79121000D02*
X82169000Y-78486000D01*
X94361000Y-62611000D02*
X94361000Y-61849000D01*
X94361000Y-61849000D02*
X82931000Y-61849000D01*
X82931000Y-61849000D02*
X82169000Y-62611000D01*
D16*
X81534000Y-62230000D02*
G75*
G03X81534000Y-62230000I-254000J0D01*
G01*
D17*
G36*
X83813270Y-62230000D02*
X92710000Y-62230000D01*
X92710000Y-78752490D01*
X83813270Y-78752490D01*
X83813270Y-62230000D01*
G37*
X83813270Y-62230000D02*
X92710000Y-62230000D01*
X92710000Y-78752490D01*
X83813270Y-78752490D01*
X83813270Y-62230000D01*
D13*
X61655000Y-62163000D02*
X61655000Y-59503000D01*
X56515000Y-62163000D02*
X61655000Y-62163000D01*
X56515000Y-59503000D02*
X61655000Y-59503000D01*
X56515000Y-62163000D02*
X56515000Y-59503000D01*
X55245000Y-62163000D02*
X53915000Y-62163000D01*
X53915000Y-62163000D02*
X53915000Y-60833000D01*
X112335000Y-95825000D02*
X112335000Y-98485000D01*
X114935000Y-95825000D02*
X112335000Y-95825000D01*
X114935000Y-98485000D02*
X112335000Y-98485000D01*
X114935000Y-95825000D02*
X114935000Y-98485000D01*
X116205000Y-95825000D02*
X117535000Y-95825000D01*
X117535000Y-95825000D02*
X117535000Y-97155000D01*
X97535000Y-93340000D02*
X97535000Y-97160000D01*
X97535000Y-97160000D02*
X99315000Y-97160000D01*
X99315000Y-97160000D02*
X99315000Y-93340000D01*
X97535000Y-93340000D02*
X99315000Y-93340000D01*
X78487000Y-75184000D02*
X78487000Y-72644000D01*
X76707000Y-72644000D02*
X76707000Y-75184000D01*
X76707000Y-72644000D02*
X78487000Y-72644000D01*
X78487000Y-75184000D02*
X76707000Y-75184000D01*
X74930000Y-66168000D02*
X77470000Y-66168000D01*
X77470000Y-64388000D02*
X74930000Y-64388000D01*
X77470000Y-64388000D02*
X77470000Y-66168000D01*
X74930000Y-66168000D02*
X74930000Y-64388000D01*
X68850000Y-100715000D02*
X70850000Y-100715000D01*
X70850000Y-98675000D02*
X68850000Y-98675000D01*
X68164555Y-64322149D02*
G75*
G03X68162000Y-72155082I1177445J-3916851D01*
G01*
X70519445Y-64322149D02*
G75*
G02X70522000Y-72155082I-1177445J-3916851D01*
G01*
X70519445Y-64322149D02*
G75*
G03X68162000Y-64322918I-1177445J-3916851D01*
G01*
X65292000Y-68239000D02*
X73392000Y-68239000D01*
X65292000Y-68199000D02*
X73392000Y-68199000D01*
X65292000Y-68159000D02*
X73392000Y-68159000D01*
X65293000Y-68119000D02*
X73391000Y-68119000D01*
X65295000Y-68079000D02*
X73389000Y-68079000D01*
X65296000Y-68039000D02*
X73388000Y-68039000D01*
X65299000Y-67999000D02*
X73385000Y-67999000D01*
X65301000Y-67959000D02*
X73383000Y-67959000D01*
X65304000Y-67919000D02*
X73380000Y-67919000D01*
X65307000Y-67879000D02*
X73377000Y-67879000D01*
X65311000Y-67839000D02*
X73373000Y-67839000D01*
X65315000Y-67799000D02*
X73369000Y-67799000D01*
X65320000Y-67759000D02*
X73364000Y-67759000D01*
X65325000Y-67719000D02*
X73359000Y-67719000D01*
X65330000Y-67679000D02*
X73354000Y-67679000D01*
X65336000Y-67639000D02*
X73348000Y-67639000D01*
X65342000Y-67599000D02*
X73342000Y-67599000D01*
X65348000Y-67559000D02*
X73336000Y-67559000D01*
X65355000Y-67518000D02*
X73329000Y-67518000D01*
X65363000Y-67478000D02*
X73321000Y-67478000D01*
X65371000Y-67438000D02*
X73313000Y-67438000D01*
X65379000Y-67398000D02*
X73305000Y-67398000D01*
X65387000Y-67358000D02*
X73297000Y-67358000D01*
X65396000Y-67318000D02*
X73288000Y-67318000D01*
X65406000Y-67278000D02*
X73278000Y-67278000D01*
X65416000Y-67238000D02*
X73268000Y-67238000D01*
X65426000Y-67198000D02*
X73258000Y-67198000D01*
X65437000Y-67158000D02*
X73247000Y-67158000D01*
X65448000Y-67118000D02*
X73236000Y-67118000D01*
X65459000Y-67078000D02*
X73225000Y-67078000D01*
X65472000Y-67038000D02*
X73212000Y-67038000D01*
X65484000Y-66998000D02*
X73200000Y-66998000D01*
X65497000Y-66958000D02*
X73187000Y-66958000D01*
X65510000Y-66918000D02*
X73174000Y-66918000D01*
X65524000Y-66878000D02*
X73160000Y-66878000D01*
X65539000Y-66838000D02*
X73145000Y-66838000D01*
X65553000Y-66798000D02*
X73131000Y-66798000D01*
X65569000Y-66758000D02*
X73115000Y-66758000D01*
X65584000Y-66718000D02*
X68362000Y-66718000D01*
X70322000Y-66718000D02*
X73100000Y-66718000D01*
X65601000Y-66678000D02*
X68362000Y-66678000D01*
X70322000Y-66678000D02*
X73083000Y-66678000D01*
X65617000Y-66638000D02*
X68362000Y-66638000D01*
X70322000Y-66638000D02*
X73067000Y-66638000D01*
X65635000Y-66598000D02*
X68362000Y-66598000D01*
X70322000Y-66598000D02*
X73049000Y-66598000D01*
X65652000Y-66558000D02*
X68362000Y-66558000D01*
X70322000Y-66558000D02*
X73032000Y-66558000D01*
X65671000Y-66518000D02*
X68362000Y-66518000D01*
X70322000Y-66518000D02*
X73013000Y-66518000D01*
X65690000Y-66478000D02*
X68362000Y-66478000D01*
X70322000Y-66478000D02*
X72994000Y-66478000D01*
X65709000Y-66438000D02*
X68362000Y-66438000D01*
X70322000Y-66438000D02*
X72975000Y-66438000D01*
X65729000Y-66398000D02*
X68362000Y-66398000D01*
X70322000Y-66398000D02*
X72955000Y-66398000D01*
X65749000Y-66358000D02*
X68362000Y-66358000D01*
X70322000Y-66358000D02*
X72935000Y-66358000D01*
X65770000Y-66318000D02*
X68362000Y-66318000D01*
X70322000Y-66318000D02*
X72914000Y-66318000D01*
X65792000Y-66278000D02*
X68362000Y-66278000D01*
X70322000Y-66278000D02*
X72892000Y-66278000D01*
X65814000Y-66238000D02*
X68362000Y-66238000D01*
X70322000Y-66238000D02*
X72870000Y-66238000D01*
X65837000Y-66198000D02*
X68362000Y-66198000D01*
X70322000Y-66198000D02*
X72847000Y-66198000D01*
X65860000Y-66158000D02*
X68362000Y-66158000D01*
X70322000Y-66158000D02*
X72824000Y-66158000D01*
X65884000Y-66118000D02*
X68362000Y-66118000D01*
X70322000Y-66118000D02*
X72800000Y-66118000D01*
X65908000Y-66078000D02*
X68362000Y-66078000D01*
X70322000Y-66078000D02*
X72776000Y-66078000D01*
X65934000Y-66038000D02*
X68362000Y-66038000D01*
X70322000Y-66038000D02*
X72750000Y-66038000D01*
X65959000Y-65998000D02*
X68362000Y-65998000D01*
X70322000Y-65998000D02*
X72725000Y-65998000D01*
X65986000Y-65958000D02*
X68362000Y-65958000D01*
X70322000Y-65958000D02*
X72698000Y-65958000D01*
X66013000Y-65918000D02*
X68362000Y-65918000D01*
X70322000Y-65918000D02*
X72671000Y-65918000D01*
X66041000Y-65878000D02*
X68362000Y-65878000D01*
X70322000Y-65878000D02*
X72643000Y-65878000D01*
X66070000Y-65838000D02*
X68362000Y-65838000D01*
X70322000Y-65838000D02*
X72614000Y-65838000D01*
X66099000Y-65798000D02*
X68362000Y-65798000D01*
X70322000Y-65798000D02*
X72585000Y-65798000D01*
X66129000Y-65758000D02*
X68362000Y-65758000D01*
X70322000Y-65758000D02*
X72555000Y-65758000D01*
X66160000Y-65718000D02*
X68362000Y-65718000D01*
X70322000Y-65718000D02*
X72524000Y-65718000D01*
X66192000Y-65678000D02*
X68362000Y-65678000D01*
X70322000Y-65678000D02*
X72492000Y-65678000D01*
X66224000Y-65638000D02*
X68362000Y-65638000D01*
X70322000Y-65638000D02*
X72460000Y-65638000D01*
X66258000Y-65598000D02*
X68362000Y-65598000D01*
X70322000Y-65598000D02*
X72426000Y-65598000D01*
X66292000Y-65558000D02*
X68362000Y-65558000D01*
X70322000Y-65558000D02*
X72392000Y-65558000D01*
X66327000Y-65518000D02*
X68362000Y-65518000D01*
X70322000Y-65518000D02*
X72357000Y-65518000D01*
X66363000Y-65478000D02*
X68362000Y-65478000D01*
X70322000Y-65478000D02*
X72321000Y-65478000D01*
X66400000Y-65438000D02*
X68362000Y-65438000D01*
X70322000Y-65438000D02*
X72284000Y-65438000D01*
X66438000Y-65398000D02*
X68362000Y-65398000D01*
X70322000Y-65398000D02*
X72246000Y-65398000D01*
X66477000Y-65358000D02*
X68362000Y-65358000D01*
X70322000Y-65358000D02*
X72207000Y-65358000D01*
X66518000Y-65318000D02*
X68362000Y-65318000D01*
X70322000Y-65318000D02*
X72166000Y-65318000D01*
X66559000Y-65278000D02*
X68362000Y-65278000D01*
X70322000Y-65278000D02*
X72125000Y-65278000D01*
X66602000Y-65238000D02*
X68362000Y-65238000D01*
X70322000Y-65238000D02*
X72082000Y-65238000D01*
X66645000Y-65198000D02*
X68362000Y-65198000D01*
X70322000Y-65198000D02*
X72039000Y-65198000D01*
X66690000Y-65158000D02*
X68362000Y-65158000D01*
X70322000Y-65158000D02*
X71994000Y-65158000D01*
X66737000Y-65118000D02*
X68362000Y-65118000D01*
X70322000Y-65118000D02*
X71947000Y-65118000D01*
X66785000Y-65078000D02*
X68362000Y-65078000D01*
X70322000Y-65078000D02*
X71899000Y-65078000D01*
X66834000Y-65038000D02*
X68362000Y-65038000D01*
X70322000Y-65038000D02*
X71850000Y-65038000D01*
X66885000Y-64998000D02*
X68362000Y-64998000D01*
X70322000Y-64998000D02*
X71799000Y-64998000D01*
X66938000Y-64958000D02*
X68362000Y-64958000D01*
X70322000Y-64958000D02*
X71746000Y-64958000D01*
X66993000Y-64918000D02*
X68362000Y-64918000D01*
X70322000Y-64918000D02*
X71691000Y-64918000D01*
X67049000Y-64878000D02*
X68362000Y-64878000D01*
X70322000Y-64878000D02*
X71635000Y-64878000D01*
X67108000Y-64838000D02*
X68362000Y-64838000D01*
X70322000Y-64838000D02*
X71576000Y-64838000D01*
X67169000Y-64798000D02*
X68362000Y-64798000D01*
X70322000Y-64798000D02*
X71515000Y-64798000D01*
X67233000Y-64758000D02*
X71451000Y-64758000D01*
X67299000Y-64718000D02*
X71385000Y-64718000D01*
X67368000Y-64678000D02*
X71316000Y-64678000D01*
X67440000Y-64638000D02*
X71244000Y-64638000D01*
X67516000Y-64598000D02*
X71168000Y-64598000D01*
X67597000Y-64558000D02*
X71087000Y-64558000D01*
X67682000Y-64518000D02*
X71002000Y-64518000D01*
X67772000Y-64478000D02*
X70912000Y-64478000D01*
X67869000Y-64438000D02*
X70815000Y-64438000D01*
X67973000Y-64398000D02*
X70711000Y-64398000D01*
X68088000Y-64358000D02*
X70596000Y-64358000D01*
X68215000Y-64318000D02*
X70469000Y-64318000D01*
X68359000Y-64278000D02*
X70325000Y-64278000D01*
X68528000Y-64238000D02*
X70156000Y-64238000D01*
X68744000Y-64198000D02*
X69940000Y-64198000D01*
X69096000Y-64158000D02*
X69588000Y-64158000D01*
X69342000Y-72939000D02*
X69342000Y-71739000D01*
X68692000Y-72339000D02*
X69992000Y-72339000D01*
X70519445Y-82108851D02*
G75*
G03X70522000Y-74275918I-1177445J3916851D01*
G01*
X68164555Y-82108851D02*
G75*
G02X68162000Y-74275918I1177445J3916851D01*
G01*
X68164555Y-82108851D02*
G75*
G03X70522000Y-82108082I1177445J3916851D01*
G01*
X73392000Y-78192000D02*
X65292000Y-78192000D01*
X73392000Y-78232000D02*
X65292000Y-78232000D01*
X73392000Y-78272000D02*
X65292000Y-78272000D01*
X73391000Y-78312000D02*
X65293000Y-78312000D01*
X73389000Y-78352000D02*
X65295000Y-78352000D01*
X73388000Y-78392000D02*
X65296000Y-78392000D01*
X73385000Y-78432000D02*
X65299000Y-78432000D01*
X73383000Y-78472000D02*
X65301000Y-78472000D01*
X73380000Y-78512000D02*
X65304000Y-78512000D01*
X73377000Y-78552000D02*
X65307000Y-78552000D01*
X73373000Y-78592000D02*
X65311000Y-78592000D01*
X73369000Y-78632000D02*
X65315000Y-78632000D01*
X73364000Y-78672000D02*
X65320000Y-78672000D01*
X73359000Y-78712000D02*
X65325000Y-78712000D01*
X73354000Y-78752000D02*
X65330000Y-78752000D01*
X73348000Y-78792000D02*
X65336000Y-78792000D01*
X73342000Y-78832000D02*
X65342000Y-78832000D01*
X73336000Y-78872000D02*
X65348000Y-78872000D01*
X73329000Y-78913000D02*
X65355000Y-78913000D01*
X73321000Y-78953000D02*
X65363000Y-78953000D01*
X73313000Y-78993000D02*
X65371000Y-78993000D01*
X73305000Y-79033000D02*
X65379000Y-79033000D01*
X73297000Y-79073000D02*
X65387000Y-79073000D01*
X73288000Y-79113000D02*
X65396000Y-79113000D01*
X73278000Y-79153000D02*
X65406000Y-79153000D01*
X73268000Y-79193000D02*
X65416000Y-79193000D01*
X73258000Y-79233000D02*
X65426000Y-79233000D01*
X73247000Y-79273000D02*
X65437000Y-79273000D01*
X73236000Y-79313000D02*
X65448000Y-79313000D01*
X73225000Y-79353000D02*
X65459000Y-79353000D01*
X73212000Y-79393000D02*
X65472000Y-79393000D01*
X73200000Y-79433000D02*
X65484000Y-79433000D01*
X73187000Y-79473000D02*
X65497000Y-79473000D01*
X73174000Y-79513000D02*
X65510000Y-79513000D01*
X73160000Y-79553000D02*
X65524000Y-79553000D01*
X73145000Y-79593000D02*
X65539000Y-79593000D01*
X73131000Y-79633000D02*
X65553000Y-79633000D01*
X73115000Y-79673000D02*
X65569000Y-79673000D01*
X73100000Y-79713000D02*
X70322000Y-79713000D01*
X68362000Y-79713000D02*
X65584000Y-79713000D01*
X73083000Y-79753000D02*
X70322000Y-79753000D01*
X68362000Y-79753000D02*
X65601000Y-79753000D01*
X73067000Y-79793000D02*
X70322000Y-79793000D01*
X68362000Y-79793000D02*
X65617000Y-79793000D01*
X73049000Y-79833000D02*
X70322000Y-79833000D01*
X68362000Y-79833000D02*
X65635000Y-79833000D01*
X73032000Y-79873000D02*
X70322000Y-79873000D01*
X68362000Y-79873000D02*
X65652000Y-79873000D01*
X73013000Y-79913000D02*
X70322000Y-79913000D01*
X68362000Y-79913000D02*
X65671000Y-79913000D01*
X72994000Y-79953000D02*
X70322000Y-79953000D01*
X68362000Y-79953000D02*
X65690000Y-79953000D01*
X72975000Y-79993000D02*
X70322000Y-79993000D01*
X68362000Y-79993000D02*
X65709000Y-79993000D01*
X72955000Y-80033000D02*
X70322000Y-80033000D01*
X68362000Y-80033000D02*
X65729000Y-80033000D01*
X72935000Y-80073000D02*
X70322000Y-80073000D01*
X68362000Y-80073000D02*
X65749000Y-80073000D01*
X72914000Y-80113000D02*
X70322000Y-80113000D01*
X68362000Y-80113000D02*
X65770000Y-80113000D01*
X72892000Y-80153000D02*
X70322000Y-80153000D01*
X68362000Y-80153000D02*
X65792000Y-80153000D01*
X72870000Y-80193000D02*
X70322000Y-80193000D01*
X68362000Y-80193000D02*
X65814000Y-80193000D01*
X72847000Y-80233000D02*
X70322000Y-80233000D01*
X68362000Y-80233000D02*
X65837000Y-80233000D01*
X72824000Y-80273000D02*
X70322000Y-80273000D01*
X68362000Y-80273000D02*
X65860000Y-80273000D01*
X72800000Y-80313000D02*
X70322000Y-80313000D01*
X68362000Y-80313000D02*
X65884000Y-80313000D01*
X72776000Y-80353000D02*
X70322000Y-80353000D01*
X68362000Y-80353000D02*
X65908000Y-80353000D01*
X72750000Y-80393000D02*
X70322000Y-80393000D01*
X68362000Y-80393000D02*
X65934000Y-80393000D01*
X72725000Y-80433000D02*
X70322000Y-80433000D01*
X68362000Y-80433000D02*
X65959000Y-80433000D01*
X72698000Y-80473000D02*
X70322000Y-80473000D01*
X68362000Y-80473000D02*
X65986000Y-80473000D01*
X72671000Y-80513000D02*
X70322000Y-80513000D01*
X68362000Y-80513000D02*
X66013000Y-80513000D01*
X72643000Y-80553000D02*
X70322000Y-80553000D01*
X68362000Y-80553000D02*
X66041000Y-80553000D01*
X72614000Y-80593000D02*
X70322000Y-80593000D01*
X68362000Y-80593000D02*
X66070000Y-80593000D01*
X72585000Y-80633000D02*
X70322000Y-80633000D01*
X68362000Y-80633000D02*
X66099000Y-80633000D01*
X72555000Y-80673000D02*
X70322000Y-80673000D01*
X68362000Y-80673000D02*
X66129000Y-80673000D01*
X72524000Y-80713000D02*
X70322000Y-80713000D01*
X68362000Y-80713000D02*
X66160000Y-80713000D01*
X72492000Y-80753000D02*
X70322000Y-80753000D01*
X68362000Y-80753000D02*
X66192000Y-80753000D01*
X72460000Y-80793000D02*
X70322000Y-80793000D01*
X68362000Y-80793000D02*
X66224000Y-80793000D01*
X72426000Y-80833000D02*
X70322000Y-80833000D01*
X68362000Y-80833000D02*
X66258000Y-80833000D01*
X72392000Y-80873000D02*
X70322000Y-80873000D01*
X68362000Y-80873000D02*
X66292000Y-80873000D01*
X72357000Y-80913000D02*
X70322000Y-80913000D01*
X68362000Y-80913000D02*
X66327000Y-80913000D01*
X72321000Y-80953000D02*
X70322000Y-80953000D01*
X68362000Y-80953000D02*
X66363000Y-80953000D01*
X72284000Y-80993000D02*
X70322000Y-80993000D01*
X68362000Y-80993000D02*
X66400000Y-80993000D01*
X72246000Y-81033000D02*
X70322000Y-81033000D01*
X68362000Y-81033000D02*
X66438000Y-81033000D01*
X72207000Y-81073000D02*
X70322000Y-81073000D01*
X68362000Y-81073000D02*
X66477000Y-81073000D01*
X72166000Y-81113000D02*
X70322000Y-81113000D01*
X68362000Y-81113000D02*
X66518000Y-81113000D01*
X72125000Y-81153000D02*
X70322000Y-81153000D01*
X68362000Y-81153000D02*
X66559000Y-81153000D01*
X72082000Y-81193000D02*
X70322000Y-81193000D01*
X68362000Y-81193000D02*
X66602000Y-81193000D01*
X72039000Y-81233000D02*
X70322000Y-81233000D01*
X68362000Y-81233000D02*
X66645000Y-81233000D01*
X71994000Y-81273000D02*
X70322000Y-81273000D01*
X68362000Y-81273000D02*
X66690000Y-81273000D01*
X71947000Y-81313000D02*
X70322000Y-81313000D01*
X68362000Y-81313000D02*
X66737000Y-81313000D01*
X71899000Y-81353000D02*
X70322000Y-81353000D01*
X68362000Y-81353000D02*
X66785000Y-81353000D01*
X71850000Y-81393000D02*
X70322000Y-81393000D01*
X68362000Y-81393000D02*
X66834000Y-81393000D01*
X71799000Y-81433000D02*
X70322000Y-81433000D01*
X68362000Y-81433000D02*
X66885000Y-81433000D01*
X71746000Y-81473000D02*
X70322000Y-81473000D01*
X68362000Y-81473000D02*
X66938000Y-81473000D01*
X71691000Y-81513000D02*
X70322000Y-81513000D01*
X68362000Y-81513000D02*
X66993000Y-81513000D01*
X71635000Y-81553000D02*
X70322000Y-81553000D01*
X68362000Y-81553000D02*
X67049000Y-81553000D01*
X71576000Y-81593000D02*
X70322000Y-81593000D01*
X68362000Y-81593000D02*
X67108000Y-81593000D01*
X71515000Y-81633000D02*
X70322000Y-81633000D01*
X68362000Y-81633000D02*
X67169000Y-81633000D01*
X71451000Y-81673000D02*
X67233000Y-81673000D01*
X71385000Y-81713000D02*
X67299000Y-81713000D01*
X71316000Y-81753000D02*
X67368000Y-81753000D01*
X71244000Y-81793000D02*
X67440000Y-81793000D01*
X71168000Y-81833000D02*
X67516000Y-81833000D01*
X71087000Y-81873000D02*
X67597000Y-81873000D01*
X71002000Y-81913000D02*
X67682000Y-81913000D01*
X70912000Y-81953000D02*
X67772000Y-81953000D01*
X70815000Y-81993000D02*
X67869000Y-81993000D01*
X70711000Y-82033000D02*
X67973000Y-82033000D01*
X70596000Y-82073000D02*
X68088000Y-82073000D01*
X70469000Y-82113000D02*
X68215000Y-82113000D01*
X70325000Y-82153000D02*
X68359000Y-82153000D01*
X70156000Y-82193000D02*
X68528000Y-82193000D01*
X69940000Y-82233000D02*
X68744000Y-82233000D01*
X69588000Y-82273000D02*
X69096000Y-82273000D01*
X69342000Y-73492000D02*
X69342000Y-74692000D01*
X69992000Y-74092000D02*
X68692000Y-74092000D01*
X96770000Y-61262000D02*
X96770000Y-63262000D01*
X98810000Y-63262000D02*
X98810000Y-61262000D01*
X100822000Y-73275000D02*
X98822000Y-73275000D01*
X98822000Y-75315000D02*
X100822000Y-75315000D01*
X100314000Y-89150000D02*
X98314000Y-89150000D01*
X98314000Y-91190000D02*
X100314000Y-91190000D01*
X106549000Y-72533000D02*
X106549000Y-74533000D01*
X108589000Y-74533000D02*
X108589000Y-72533000D01*
X103775000Y-62742000D02*
X105775000Y-62742000D01*
X105775000Y-60702000D02*
X103775000Y-60702000D01*
X98429000Y-84439000D02*
X98429000Y-82439000D01*
X96389000Y-82439000D02*
X96389000Y-84439000D01*
X105680000Y-91190000D02*
X107680000Y-91190000D01*
X107680000Y-89150000D02*
X105680000Y-89150000D01*
X47476000Y-85175000D02*
X47476000Y-86275000D01*
X47476000Y-86275000D02*
X50076000Y-86275000D01*
X47476000Y-85175000D02*
X50076000Y-85175000D01*
X47476000Y-91525000D02*
X47476000Y-92625000D01*
X47476000Y-92625000D02*
X50076000Y-92625000D01*
X47476000Y-91525000D02*
X50076000Y-91525000D01*
X47476000Y-88350000D02*
X47476000Y-89450000D01*
X47476000Y-89450000D02*
X50076000Y-89450000D01*
X47476000Y-88350000D02*
X50076000Y-88350000D01*
X47476000Y-94700000D02*
X47476000Y-95800000D01*
X47476000Y-95800000D02*
X50076000Y-95800000D01*
X47476000Y-94700000D02*
X50076000Y-94700000D01*
X51076000Y-98975000D02*
X51076000Y-97875000D01*
X51076000Y-97875000D02*
X48476000Y-97875000D01*
X51076000Y-98975000D02*
X48476000Y-98975000D01*
D11*
X102528810Y-76652381D02*
X102528810Y-75652381D01*
X103576429Y-76557143D02*
X103528810Y-76604762D01*
X103385953Y-76652381D01*
X103290715Y-76652381D01*
X103147857Y-76604762D01*
X103052619Y-76509524D01*
X103005000Y-76414286D01*
X102957381Y-76223810D01*
X102957381Y-76080952D01*
X103005000Y-75890476D01*
X103052619Y-75795238D01*
X103147857Y-75700000D01*
X103290715Y-75652381D01*
X103385953Y-75652381D01*
X103528810Y-75700000D01*
X103576429Y-75747619D01*
X104528810Y-76652381D02*
X103957381Y-76652381D01*
X104243095Y-76652381D02*
X104243095Y-75652381D01*
X104147857Y-75795238D01*
X104052619Y-75890476D01*
X103957381Y-75938095D01*
X109291381Y-84549857D02*
X108291381Y-84549857D01*
X109005667Y-84216523D01*
X108291381Y-83883190D01*
X109291381Y-83883190D01*
X109005667Y-83454619D02*
X109005667Y-82978428D01*
X109291381Y-83549857D02*
X108291381Y-83216524D01*
X109291381Y-82883190D01*
X108291381Y-82645095D02*
X109291381Y-81978428D01*
X108291381Y-81978428D02*
X109291381Y-82645095D01*
X108291381Y-81692714D02*
X108291381Y-81073666D01*
X108672333Y-81407000D01*
X108672333Y-81264142D01*
X108719952Y-81168904D01*
X108767571Y-81121285D01*
X108862810Y-81073666D01*
X109100905Y-81073666D01*
X109196143Y-81121285D01*
X109243762Y-81168904D01*
X109291381Y-81264142D01*
X109291381Y-81549857D01*
X109243762Y-81645095D01*
X109196143Y-81692714D01*
X108386619Y-80692714D02*
X108339000Y-80645095D01*
X108291381Y-80549857D01*
X108291381Y-80311761D01*
X108339000Y-80216523D01*
X108386619Y-80168904D01*
X108481857Y-80121285D01*
X108577095Y-80121285D01*
X108719952Y-80168904D01*
X109291381Y-80740333D01*
X109291381Y-80121285D01*
X108291381Y-79787952D02*
X108291381Y-79168904D01*
X108672333Y-79502238D01*
X108672333Y-79359380D01*
X108719952Y-79264142D01*
X108767571Y-79216523D01*
X108862810Y-79168904D01*
X109100905Y-79168904D01*
X109196143Y-79216523D01*
X109243762Y-79264142D01*
X109291381Y-79359380D01*
X109291381Y-79645095D01*
X109243762Y-79740333D01*
X109196143Y-79787952D01*
X108386619Y-78787952D02*
X108339000Y-78740333D01*
X108291381Y-78645095D01*
X108291381Y-78406999D01*
X108339000Y-78311761D01*
X108386619Y-78264142D01*
X108481857Y-78216523D01*
X108577095Y-78216523D01*
X108719952Y-78264142D01*
X109291381Y-78835571D01*
X109291381Y-78216523D01*
X110307381Y-72493095D02*
X109307381Y-72493095D01*
X109307381Y-72112142D01*
X109355000Y-72016904D01*
X109402619Y-71969285D01*
X109497857Y-71921666D01*
X109640714Y-71921666D01*
X109735952Y-71969285D01*
X109783571Y-72016904D01*
X109831190Y-72112142D01*
X109831190Y-72493095D01*
X109307381Y-71588333D02*
X109307381Y-70969285D01*
X109688333Y-71302619D01*
X109688333Y-71159761D01*
X109735952Y-71064523D01*
X109783571Y-71016904D01*
X109878810Y-70969285D01*
X110116905Y-70969285D01*
X110212143Y-71016904D01*
X110259762Y-71064523D01*
X110307381Y-71159761D01*
X110307381Y-71445476D01*
X110259762Y-71540714D01*
X110212143Y-71588333D01*
D12*
X118652857Y-73126429D02*
X117452857Y-73126429D01*
X117452857Y-72840714D01*
X117510000Y-72669286D01*
X117624286Y-72555000D01*
X117738571Y-72497857D01*
X117967143Y-72440714D01*
X118138571Y-72440714D01*
X118367143Y-72497857D01*
X118481429Y-72555000D01*
X118595714Y-72669286D01*
X118652857Y-72840714D01*
X118652857Y-73126429D01*
X117452857Y-72097857D02*
X117452857Y-71412143D01*
X118652857Y-71755000D02*
X117452857Y-71755000D01*
X118652857Y-71012143D02*
X117452857Y-71012143D01*
X118652857Y-70326428D02*
X117967143Y-70840714D01*
X117452857Y-70326428D02*
X118138571Y-71012143D01*
D11*
X54530334Y-74652143D02*
X54482715Y-74699762D01*
X54339858Y-74747381D01*
X54244620Y-74747381D01*
X54101762Y-74699762D01*
X54006524Y-74604524D01*
X53958905Y-74509286D01*
X53911286Y-74318810D01*
X53911286Y-74175952D01*
X53958905Y-73985476D01*
X54006524Y-73890238D01*
X54101762Y-73795000D01*
X54244620Y-73747381D01*
X54339858Y-73747381D01*
X54482715Y-73795000D01*
X54530334Y-73842619D01*
X54911286Y-73842619D02*
X54958905Y-73795000D01*
X55054143Y-73747381D01*
X55292239Y-73747381D01*
X55387477Y-73795000D01*
X55435096Y-73842619D01*
X55482715Y-73937857D01*
X55482715Y-74033095D01*
X55435096Y-74175952D01*
X54863667Y-74747381D01*
X55482715Y-74747381D01*
X56475334Y-72620143D02*
X56427715Y-72667762D01*
X56284858Y-72715381D01*
X56189620Y-72715381D01*
X56046762Y-72667762D01*
X55951524Y-72572524D01*
X55903905Y-72477286D01*
X55856286Y-72286810D01*
X55856286Y-72143952D01*
X55903905Y-71953476D01*
X55951524Y-71858238D01*
X56046762Y-71763000D01*
X56189620Y-71715381D01*
X56284858Y-71715381D01*
X56427715Y-71763000D01*
X56475334Y-71810619D01*
X56808667Y-71715381D02*
X57427715Y-71715381D01*
X57094381Y-72096333D01*
X57237239Y-72096333D01*
X57332477Y-72143952D01*
X57380096Y-72191571D01*
X57427715Y-72286810D01*
X57427715Y-72524905D01*
X57380096Y-72620143D01*
X57332477Y-72667762D01*
X57237239Y-72715381D01*
X56951524Y-72715381D01*
X56856286Y-72667762D01*
X56808667Y-72620143D01*
X77303334Y-105894143D02*
X77255715Y-105941762D01*
X77112858Y-105989381D01*
X77017620Y-105989381D01*
X76874762Y-105941762D01*
X76779524Y-105846524D01*
X76731905Y-105751286D01*
X76684286Y-105560810D01*
X76684286Y-105417952D01*
X76731905Y-105227476D01*
X76779524Y-105132238D01*
X76874762Y-105037000D01*
X77017620Y-104989381D01*
X77112858Y-104989381D01*
X77255715Y-105037000D01*
X77303334Y-105084619D01*
X77636667Y-104989381D02*
X78303334Y-104989381D01*
X77874762Y-105989381D01*
X91733953Y-105465571D02*
X91876810Y-105513190D01*
X91924429Y-105560810D01*
X91972048Y-105656048D01*
X91972048Y-105798905D01*
X91924429Y-105894143D01*
X91876810Y-105941762D01*
X91781572Y-105989381D01*
X91400619Y-105989381D01*
X91400619Y-104989381D01*
X91733953Y-104989381D01*
X91829191Y-105037000D01*
X91876810Y-105084619D01*
X91924429Y-105179857D01*
X91924429Y-105275095D01*
X91876810Y-105370333D01*
X91829191Y-105417952D01*
X91733953Y-105465571D01*
X91400619Y-105465571D01*
X92829191Y-105989381D02*
X92829191Y-105465571D01*
X92781572Y-105370333D01*
X92686334Y-105322714D01*
X92495857Y-105322714D01*
X92400619Y-105370333D01*
X92829191Y-105941762D02*
X92733953Y-105989381D01*
X92495857Y-105989381D01*
X92400619Y-105941762D01*
X92353000Y-105846524D01*
X92353000Y-105751286D01*
X92400619Y-105656048D01*
X92495857Y-105608429D01*
X92733953Y-105608429D01*
X92829191Y-105560810D01*
X93733953Y-105941762D02*
X93638715Y-105989381D01*
X93448238Y-105989381D01*
X93353000Y-105941762D01*
X93305381Y-105894143D01*
X93257762Y-105798905D01*
X93257762Y-105513190D01*
X93305381Y-105417952D01*
X93353000Y-105370333D01*
X93448238Y-105322714D01*
X93638715Y-105322714D01*
X93733953Y-105370333D01*
X94162524Y-105989381D02*
X94162524Y-104989381D01*
X94257762Y-105608429D02*
X94543477Y-105989381D01*
X94543477Y-105322714D02*
X94162524Y-105703667D01*
X95400620Y-105322714D02*
X95400620Y-105989381D01*
X94972048Y-105322714D02*
X94972048Y-105846524D01*
X95019667Y-105941762D01*
X95114905Y-105989381D01*
X95257763Y-105989381D01*
X95353001Y-105941762D01*
X95400620Y-105894143D01*
X95876810Y-105322714D02*
X95876810Y-106322714D01*
X95876810Y-105370333D02*
X95972048Y-105322714D01*
X96162525Y-105322714D01*
X96257763Y-105370333D01*
X96305382Y-105417952D01*
X96353001Y-105513190D01*
X96353001Y-105798905D01*
X96305382Y-105894143D01*
X96257763Y-105941762D01*
X96162525Y-105989381D01*
X95972048Y-105989381D01*
X95876810Y-105941762D01*
X77874905Y-84526381D02*
X77874905Y-83526381D01*
X78113000Y-83526381D01*
X78255858Y-83574000D01*
X78351096Y-83669238D01*
X78398715Y-83764476D01*
X78446334Y-83954952D01*
X78446334Y-84097810D01*
X78398715Y-84288286D01*
X78351096Y-84383524D01*
X78255858Y-84478762D01*
X78113000Y-84526381D01*
X77874905Y-84526381D01*
X79398715Y-84526381D02*
X78827286Y-84526381D01*
X79113000Y-84526381D02*
X79113000Y-83526381D01*
X79017762Y-83669238D01*
X78922524Y-83764476D01*
X78827286Y-83812095D01*
X103163810Y-64079381D02*
X103163810Y-63079381D01*
X104211429Y-63984143D02*
X104163810Y-64031762D01*
X104020953Y-64079381D01*
X103925715Y-64079381D01*
X103782857Y-64031762D01*
X103687619Y-63936524D01*
X103640000Y-63841286D01*
X103592381Y-63650810D01*
X103592381Y-63507952D01*
X103640000Y-63317476D01*
X103687619Y-63222238D01*
X103782857Y-63127000D01*
X103925715Y-63079381D01*
X104020953Y-63079381D01*
X104163810Y-63127000D01*
X104211429Y-63174619D01*
X104592381Y-63174619D02*
X104640000Y-63127000D01*
X104735238Y-63079381D01*
X104973334Y-63079381D01*
X105068572Y-63127000D01*
X105116191Y-63174619D01*
X105163810Y-63269857D01*
X105163810Y-63365095D01*
X105116191Y-63507952D01*
X104544762Y-64079381D01*
X105163810Y-64079381D01*
X100362095Y-70667571D02*
X100695429Y-70667571D01*
X100838286Y-71191381D02*
X100362095Y-71191381D01*
X100362095Y-70191381D01*
X100838286Y-70191381D01*
X101266857Y-70667571D02*
X101600191Y-70667571D01*
X101743048Y-71191381D02*
X101266857Y-71191381D01*
X101266857Y-70191381D01*
X101743048Y-70191381D01*
X102171619Y-71191381D02*
X102171619Y-70191381D01*
X102552572Y-70191381D01*
X102647810Y-70239000D01*
X102695429Y-70286619D01*
X102743048Y-70381857D01*
X102743048Y-70524714D01*
X102695429Y-70619952D01*
X102647810Y-70667571D01*
X102552572Y-70715190D01*
X102171619Y-70715190D01*
X103743048Y-71191381D02*
X103409714Y-70715190D01*
X103171619Y-71191381D02*
X103171619Y-70191381D01*
X103552572Y-70191381D01*
X103647810Y-70239000D01*
X103695429Y-70286619D01*
X103743048Y-70381857D01*
X103743048Y-70524714D01*
X103695429Y-70619952D01*
X103647810Y-70667571D01*
X103552572Y-70715190D01*
X103171619Y-70715190D01*
X104362095Y-70191381D02*
X104552572Y-70191381D01*
X104647810Y-70239000D01*
X104743048Y-70334238D01*
X104790667Y-70524714D01*
X104790667Y-70858048D01*
X104743048Y-71048524D01*
X104647810Y-71143762D01*
X104552572Y-71191381D01*
X104362095Y-71191381D01*
X104266857Y-71143762D01*
X104171619Y-71048524D01*
X104124000Y-70858048D01*
X104124000Y-70524714D01*
X104171619Y-70334238D01*
X104266857Y-70239000D01*
X104362095Y-70191381D01*
X105219238Y-71191381D02*
X105219238Y-70191381D01*
X105552572Y-70905667D01*
X105885905Y-70191381D01*
X105885905Y-71191381D01*
D18*
X56279143Y-105537000D02*
X56642000Y-105537000D01*
X56206571Y-105754714D02*
X56460571Y-104992714D01*
X56714571Y-105754714D01*
X56968572Y-105754714D02*
X56968572Y-104992714D01*
X57404000Y-105754714D01*
X57404000Y-104992714D01*
X57658000Y-104992714D02*
X58093429Y-104992714D01*
X57875715Y-105754714D02*
X57875715Y-104992714D01*
D11*
X50127481Y-63919903D02*
X50127481Y-64634189D01*
X50079861Y-64777046D01*
X49984623Y-64872284D01*
X49841766Y-64919903D01*
X49746528Y-64919903D01*
X50603671Y-64919903D02*
X50603671Y-63919903D01*
X50984624Y-63919903D01*
X51079862Y-63967522D01*
X51127481Y-64015141D01*
X51175100Y-64110379D01*
X51175100Y-64253236D01*
X51127481Y-64348474D01*
X51079862Y-64396093D01*
X50984624Y-64443712D01*
X50603671Y-64443712D01*
X52127481Y-64919903D02*
X51556052Y-64919903D01*
X51841766Y-64919903D02*
X51841766Y-63919903D01*
X51746528Y-64062760D01*
X51651290Y-64157998D01*
X51556052Y-64205617D01*
X100766667Y-96817381D02*
X100766667Y-97531667D01*
X100719047Y-97674524D01*
X100623809Y-97769762D01*
X100480952Y-97817381D01*
X100385714Y-97817381D01*
X101242857Y-97817381D02*
X101242857Y-96817381D01*
X101623810Y-96817381D01*
X101719048Y-96865000D01*
X101766667Y-96912619D01*
X101814286Y-97007857D01*
X101814286Y-97150714D01*
X101766667Y-97245952D01*
X101719048Y-97293571D01*
X101623810Y-97341190D01*
X101242857Y-97341190D01*
X102195238Y-96912619D02*
X102242857Y-96865000D01*
X102338095Y-96817381D01*
X102576191Y-96817381D01*
X102671429Y-96865000D01*
X102719048Y-96912619D01*
X102766667Y-97007857D01*
X102766667Y-97103095D01*
X102719048Y-97245952D01*
X102147619Y-97817381D01*
X102766667Y-97817381D01*
X107751667Y-96817381D02*
X107751667Y-97531667D01*
X107704047Y-97674524D01*
X107608809Y-97769762D01*
X107465952Y-97817381D01*
X107370714Y-97817381D01*
X108227857Y-97817381D02*
X108227857Y-96817381D01*
X108608810Y-96817381D01*
X108704048Y-96865000D01*
X108751667Y-96912619D01*
X108799286Y-97007857D01*
X108799286Y-97150714D01*
X108751667Y-97245952D01*
X108704048Y-97293571D01*
X108608810Y-97341190D01*
X108227857Y-97341190D01*
X109132619Y-96817381D02*
X109751667Y-96817381D01*
X109418333Y-97198333D01*
X109561191Y-97198333D01*
X109656429Y-97245952D01*
X109704048Y-97293571D01*
X109751667Y-97388810D01*
X109751667Y-97626905D01*
X109704048Y-97722143D01*
X109656429Y-97769762D01*
X109561191Y-97817381D01*
X109275476Y-97817381D01*
X109180238Y-97769762D01*
X109132619Y-97722143D01*
X61428334Y-101036381D02*
X60952143Y-101036381D01*
X60952143Y-100036381D01*
X62285477Y-101036381D02*
X61714048Y-101036381D01*
X61999762Y-101036381D02*
X61999762Y-100036381D01*
X61904524Y-100179238D01*
X61809286Y-100274476D01*
X61714048Y-100322095D01*
X81097381Y-60936095D02*
X80097381Y-60936095D01*
X80097381Y-60555142D01*
X80145000Y-60459904D01*
X80192619Y-60412285D01*
X80287857Y-60364666D01*
X80430714Y-60364666D01*
X80525952Y-60412285D01*
X80573571Y-60459904D01*
X80621190Y-60555142D01*
X80621190Y-60936095D01*
X81097381Y-59412285D02*
X81097381Y-59983714D01*
X81097381Y-59698000D02*
X80097381Y-59698000D01*
X80240238Y-59793238D01*
X80335476Y-59888476D01*
X80383095Y-59983714D01*
X64857381Y-62094905D02*
X65666905Y-62094905D01*
X65762143Y-62047286D01*
X65809762Y-61999667D01*
X65857381Y-61904429D01*
X65857381Y-61713952D01*
X65809762Y-61618714D01*
X65762143Y-61571095D01*
X65666905Y-61523476D01*
X64857381Y-61523476D01*
X65809762Y-61094905D02*
X65857381Y-60952048D01*
X65857381Y-60713952D01*
X65809762Y-60618714D01*
X65762143Y-60571095D01*
X65666905Y-60523476D01*
X65571667Y-60523476D01*
X65476429Y-60571095D01*
X65428810Y-60618714D01*
X65381190Y-60713952D01*
X65333571Y-60904429D01*
X65285952Y-60999667D01*
X65238333Y-61047286D01*
X65143095Y-61094905D01*
X65047857Y-61094905D01*
X64952619Y-61047286D01*
X64905000Y-60999667D01*
X64857381Y-60904429D01*
X64857381Y-60666333D01*
X64905000Y-60523476D01*
X65333571Y-59761571D02*
X65381190Y-59618714D01*
X65428810Y-59571095D01*
X65524048Y-59523476D01*
X65666905Y-59523476D01*
X65762143Y-59571095D01*
X65809762Y-59618714D01*
X65857381Y-59713952D01*
X65857381Y-60094905D01*
X64857381Y-60094905D01*
X64857381Y-59761571D01*
X64905000Y-59666333D01*
X64952619Y-59618714D01*
X65047857Y-59571095D01*
X65143095Y-59571095D01*
X65238333Y-59618714D01*
X65285952Y-59666333D01*
X65333571Y-59761571D01*
X65333571Y-60094905D01*
X110307381Y-87733095D02*
X109307381Y-87733095D01*
X109307381Y-87352142D01*
X109355000Y-87256904D01*
X109402619Y-87209285D01*
X109497857Y-87161666D01*
X109640714Y-87161666D01*
X109735952Y-87209285D01*
X109783571Y-87256904D01*
X109831190Y-87352142D01*
X109831190Y-87733095D01*
X109402619Y-86780714D02*
X109355000Y-86733095D01*
X109307381Y-86637857D01*
X109307381Y-86399761D01*
X109355000Y-86304523D01*
X109402619Y-86256904D01*
X109497857Y-86209285D01*
X109593095Y-86209285D01*
X109735952Y-86256904D01*
X110307381Y-86828333D01*
X110307381Y-86209285D01*
D12*
X118310000Y-87737857D02*
X118310000Y-87166428D01*
X118652857Y-87852142D02*
X117452857Y-87452142D01*
X118652857Y-87052142D01*
X117452857Y-86823571D02*
X117452857Y-86137857D01*
X118652857Y-86480714D02*
X117452857Y-86480714D01*
D11*
X71024762Y-92622619D02*
X70929524Y-92575000D01*
X70834286Y-92479762D01*
X70691429Y-92336905D01*
X70596190Y-92289286D01*
X70500952Y-92289286D01*
X70548571Y-92527381D02*
X70453333Y-92479762D01*
X70358095Y-92384524D01*
X70310476Y-92194048D01*
X70310476Y-91860714D01*
X70358095Y-91670238D01*
X70453333Y-91575000D01*
X70548571Y-91527381D01*
X70739048Y-91527381D01*
X70834286Y-91575000D01*
X70929524Y-91670238D01*
X70977143Y-91860714D01*
X70977143Y-92194048D01*
X70929524Y-92384524D01*
X70834286Y-92479762D01*
X70739048Y-92527381D01*
X70548571Y-92527381D01*
X71929524Y-92527381D02*
X71358095Y-92527381D01*
X71643809Y-92527381D02*
X71643809Y-91527381D01*
X71548571Y-91670238D01*
X71453333Y-91765476D01*
X71358095Y-91813095D01*
X73620334Y-89352381D02*
X73287000Y-88876190D01*
X73048905Y-89352381D02*
X73048905Y-88352381D01*
X73429858Y-88352381D01*
X73525096Y-88400000D01*
X73572715Y-88447619D01*
X73620334Y-88542857D01*
X73620334Y-88685714D01*
X73572715Y-88780952D01*
X73525096Y-88828571D01*
X73429858Y-88876190D01*
X73048905Y-88876190D01*
X74572715Y-89352381D02*
X74001286Y-89352381D01*
X74287000Y-89352381D02*
X74287000Y-88352381D01*
X74191762Y-88495238D01*
X74096524Y-88590476D01*
X74001286Y-88638095D01*
X70318334Y-106452381D02*
X69985000Y-105976190D01*
X69746905Y-106452381D02*
X69746905Y-105452381D01*
X70127858Y-105452381D01*
X70223096Y-105500000D01*
X70270715Y-105547619D01*
X70318334Y-105642857D01*
X70318334Y-105785714D01*
X70270715Y-105880952D01*
X70223096Y-105928571D01*
X70127858Y-105976190D01*
X69746905Y-105976190D01*
X70699286Y-105547619D02*
X70746905Y-105500000D01*
X70842143Y-105452381D01*
X71080239Y-105452381D01*
X71175477Y-105500000D01*
X71223096Y-105547619D01*
X71270715Y-105642857D01*
X71270715Y-105738095D01*
X71223096Y-105880952D01*
X70651667Y-106452381D01*
X71270715Y-106452381D01*
X73620334Y-86177381D02*
X73287000Y-85701190D01*
X73048905Y-86177381D02*
X73048905Y-85177381D01*
X73429858Y-85177381D01*
X73525096Y-85225000D01*
X73572715Y-85272619D01*
X73620334Y-85367857D01*
X73620334Y-85510714D01*
X73572715Y-85605952D01*
X73525096Y-85653571D01*
X73429858Y-85701190D01*
X73048905Y-85701190D01*
X73953667Y-85177381D02*
X74572715Y-85177381D01*
X74239381Y-85558333D01*
X74382239Y-85558333D01*
X74477477Y-85605952D01*
X74525096Y-85653571D01*
X74572715Y-85748810D01*
X74572715Y-85986905D01*
X74525096Y-86082143D01*
X74477477Y-86129762D01*
X74382239Y-86177381D01*
X74096524Y-86177381D01*
X74001286Y-86129762D01*
X73953667Y-86082143D01*
X90701834Y-84526381D02*
X90368500Y-84050190D01*
X90130405Y-84526381D02*
X90130405Y-83526381D01*
X90511358Y-83526381D01*
X90606596Y-83574000D01*
X90654215Y-83621619D01*
X90701834Y-83716857D01*
X90701834Y-83859714D01*
X90654215Y-83954952D01*
X90606596Y-84002571D01*
X90511358Y-84050190D01*
X90130405Y-84050190D01*
X91558977Y-83859714D02*
X91558977Y-84526381D01*
X91320881Y-83478762D02*
X91082786Y-84193048D01*
X91701834Y-84193048D01*
X61936334Y-86177381D02*
X61603000Y-85701190D01*
X61364905Y-86177381D02*
X61364905Y-85177381D01*
X61745858Y-85177381D01*
X61841096Y-85225000D01*
X61888715Y-85272619D01*
X61936334Y-85367857D01*
X61936334Y-85510714D01*
X61888715Y-85605952D01*
X61841096Y-85653571D01*
X61745858Y-85701190D01*
X61364905Y-85701190D01*
X62841096Y-85177381D02*
X62364905Y-85177381D01*
X62317286Y-85653571D01*
X62364905Y-85605952D01*
X62460143Y-85558333D01*
X62698239Y-85558333D01*
X62793477Y-85605952D01*
X62841096Y-85653571D01*
X62888715Y-85748810D01*
X62888715Y-85986905D01*
X62841096Y-86082143D01*
X62793477Y-86129762D01*
X62698239Y-86177381D01*
X62460143Y-86177381D01*
X62364905Y-86129762D01*
X62317286Y-86082143D01*
X61936334Y-92527381D02*
X61603000Y-92051190D01*
X61364905Y-92527381D02*
X61364905Y-91527381D01*
X61745858Y-91527381D01*
X61841096Y-91575000D01*
X61888715Y-91622619D01*
X61936334Y-91717857D01*
X61936334Y-91860714D01*
X61888715Y-91955952D01*
X61841096Y-92003571D01*
X61745858Y-92051190D01*
X61364905Y-92051190D01*
X62793477Y-91527381D02*
X62603000Y-91527381D01*
X62507762Y-91575000D01*
X62460143Y-91622619D01*
X62364905Y-91765476D01*
X62317286Y-91955952D01*
X62317286Y-92336905D01*
X62364905Y-92432143D01*
X62412524Y-92479762D01*
X62507762Y-92527381D01*
X62698239Y-92527381D01*
X62793477Y-92479762D01*
X62841096Y-92432143D01*
X62888715Y-92336905D01*
X62888715Y-92098810D01*
X62841096Y-92003571D01*
X62793477Y-91955952D01*
X62698239Y-91908333D01*
X62507762Y-91908333D01*
X62412524Y-91955952D01*
X62364905Y-92003571D01*
X62317286Y-92098810D01*
X61936334Y-89352381D02*
X61603000Y-88876190D01*
X61364905Y-89352381D02*
X61364905Y-88352381D01*
X61745858Y-88352381D01*
X61841096Y-88400000D01*
X61888715Y-88447619D01*
X61936334Y-88542857D01*
X61936334Y-88685714D01*
X61888715Y-88780952D01*
X61841096Y-88828571D01*
X61745858Y-88876190D01*
X61364905Y-88876190D01*
X62269667Y-88352381D02*
X62936334Y-88352381D01*
X62507762Y-89352381D01*
X61936334Y-95702381D02*
X61603000Y-95226190D01*
X61364905Y-95702381D02*
X61364905Y-94702381D01*
X61745858Y-94702381D01*
X61841096Y-94750000D01*
X61888715Y-94797619D01*
X61936334Y-94892857D01*
X61936334Y-95035714D01*
X61888715Y-95130952D01*
X61841096Y-95178571D01*
X61745858Y-95226190D01*
X61364905Y-95226190D01*
X62507762Y-95130952D02*
X62412524Y-95083333D01*
X62364905Y-95035714D01*
X62317286Y-94940476D01*
X62317286Y-94892857D01*
X62364905Y-94797619D01*
X62412524Y-94750000D01*
X62507762Y-94702381D01*
X62698239Y-94702381D01*
X62793477Y-94750000D01*
X62841096Y-94797619D01*
X62888715Y-94892857D01*
X62888715Y-94940476D01*
X62841096Y-95035714D01*
X62793477Y-95083333D01*
X62698239Y-95130952D01*
X62507762Y-95130952D01*
X62412524Y-95178571D01*
X62364905Y-95226190D01*
X62317286Y-95321429D01*
X62317286Y-95511905D01*
X62364905Y-95607143D01*
X62412524Y-95654762D01*
X62507762Y-95702381D01*
X62698239Y-95702381D01*
X62793477Y-95654762D01*
X62841096Y-95607143D01*
X62888715Y-95511905D01*
X62888715Y-95321429D01*
X62841096Y-95226190D01*
X62793477Y-95178571D01*
X62698239Y-95130952D01*
X61936334Y-98877381D02*
X61603000Y-98401190D01*
X61364905Y-98877381D02*
X61364905Y-97877381D01*
X61745858Y-97877381D01*
X61841096Y-97925000D01*
X61888715Y-97972619D01*
X61936334Y-98067857D01*
X61936334Y-98210714D01*
X61888715Y-98305952D01*
X61841096Y-98353571D01*
X61745858Y-98401190D01*
X61364905Y-98401190D01*
X62412524Y-98877381D02*
X62603000Y-98877381D01*
X62698239Y-98829762D01*
X62745858Y-98782143D01*
X62841096Y-98639286D01*
X62888715Y-98448810D01*
X62888715Y-98067857D01*
X62841096Y-97972619D01*
X62793477Y-97925000D01*
X62698239Y-97877381D01*
X62507762Y-97877381D01*
X62412524Y-97925000D01*
X62364905Y-97972619D01*
X62317286Y-98067857D01*
X62317286Y-98305952D01*
X62364905Y-98401190D01*
X62412524Y-98448810D01*
X62507762Y-98496429D01*
X62698239Y-98496429D01*
X62793477Y-98448810D01*
X62841096Y-98401190D01*
X62888715Y-98305952D01*
X61976095Y-72477381D02*
X61976095Y-73286905D01*
X62023714Y-73382143D01*
X62071333Y-73429762D01*
X62166571Y-73477381D01*
X62357048Y-73477381D01*
X62452286Y-73429762D01*
X62499905Y-73382143D01*
X62547524Y-73286905D01*
X62547524Y-72477381D01*
X63547524Y-73477381D02*
X62976095Y-73477381D01*
X63261809Y-73477381D02*
X63261809Y-72477381D01*
X63166571Y-72620238D01*
X63071333Y-72715476D01*
X62976095Y-72763095D01*
X81788095Y-60412381D02*
X81788095Y-61221905D01*
X81835714Y-61317143D01*
X81883333Y-61364762D01*
X81978571Y-61412381D01*
X82169048Y-61412381D01*
X82264286Y-61364762D01*
X82311905Y-61317143D01*
X82359524Y-61221905D01*
X82359524Y-60412381D01*
X82788095Y-60507619D02*
X82835714Y-60460000D01*
X82930952Y-60412381D01*
X83169048Y-60412381D01*
X83264286Y-60460000D01*
X83311905Y-60507619D01*
X83359524Y-60602857D01*
X83359524Y-60698095D01*
X83311905Y-60840952D01*
X82740476Y-61412381D01*
X83359524Y-61412381D01*
X84122143Y-60232857D02*
X84122143Y-59032857D01*
X84807858Y-60232857D01*
X84807858Y-59032857D01*
X85379286Y-59604286D02*
X85779286Y-59604286D01*
X85950715Y-60232857D02*
X85379286Y-60232857D01*
X85379286Y-59032857D01*
X85950715Y-59032857D01*
X86693572Y-59032857D02*
X86922143Y-59032857D01*
X87036429Y-59090000D01*
X87150715Y-59204286D01*
X87207857Y-59432857D01*
X87207857Y-59832857D01*
X87150715Y-60061429D01*
X87036429Y-60175714D01*
X86922143Y-60232857D01*
X86693572Y-60232857D01*
X86579286Y-60175714D01*
X86465000Y-60061429D01*
X86407857Y-59832857D01*
X86407857Y-59432857D01*
X86465000Y-59204286D01*
X86579286Y-59090000D01*
X86693572Y-59032857D01*
X87722143Y-59775714D02*
X88636429Y-59775714D01*
X89207857Y-60232857D02*
X89207857Y-59032857D01*
X89607857Y-59890000D01*
X90007857Y-59032857D01*
X90007857Y-60232857D01*
X90750715Y-59547143D02*
X90636429Y-59490000D01*
X90579286Y-59432857D01*
X90522143Y-59318571D01*
X90522143Y-59261429D01*
X90579286Y-59147143D01*
X90636429Y-59090000D01*
X90750715Y-59032857D01*
X90979286Y-59032857D01*
X91093572Y-59090000D01*
X91150715Y-59147143D01*
X91207858Y-59261429D01*
X91207858Y-59318571D01*
X91150715Y-59432857D01*
X91093572Y-59490000D01*
X90979286Y-59547143D01*
X90750715Y-59547143D01*
X90636429Y-59604286D01*
X90579286Y-59661429D01*
X90522143Y-59775714D01*
X90522143Y-60004286D01*
X90579286Y-60118571D01*
X90636429Y-60175714D01*
X90750715Y-60232857D01*
X90979286Y-60232857D01*
X91093572Y-60175714D01*
X91150715Y-60118571D01*
X91207858Y-60004286D01*
X91207858Y-59775714D01*
X91150715Y-59661429D01*
X91093572Y-59604286D01*
X90979286Y-59547143D01*
X91722143Y-60232857D02*
X91722143Y-59032857D01*
X92407858Y-60232857D01*
X92407858Y-59032857D01*
X63317381Y-61571095D02*
X62317381Y-61571095D01*
X62317381Y-61190142D01*
X62365000Y-61094904D01*
X62412619Y-61047285D01*
X62507857Y-60999666D01*
X62650714Y-60999666D01*
X62745952Y-61047285D01*
X62793571Y-61094904D01*
X62841190Y-61190142D01*
X62841190Y-61571095D01*
X62650714Y-60142523D02*
X63317381Y-60142523D01*
X62269762Y-60380619D02*
X62984048Y-60618714D01*
X62984048Y-59999666D01*
X53157381Y-62166333D02*
X52157381Y-62166333D01*
X52157381Y-61785380D01*
X52205000Y-61690142D01*
X52252619Y-61642523D01*
X52347857Y-61594904D01*
X52490714Y-61594904D01*
X52585952Y-61642523D01*
X52633571Y-61690142D01*
X52681190Y-61785380D01*
X52681190Y-62166333D01*
X52157381Y-61261571D02*
X53157381Y-61023476D01*
X52443095Y-60832999D01*
X53157381Y-60642523D01*
X52157381Y-60404428D01*
X53157381Y-59452047D02*
X52681190Y-59785381D01*
X53157381Y-60023476D02*
X52157381Y-60023476D01*
X52157381Y-59642523D01*
X52205000Y-59547285D01*
X52252619Y-59499666D01*
X52347857Y-59452047D01*
X52490714Y-59452047D01*
X52585952Y-59499666D01*
X52633571Y-59547285D01*
X52681190Y-59642523D01*
X52681190Y-60023476D01*
X118987381Y-97893095D02*
X117987381Y-97893095D01*
X117987381Y-97512142D01*
X118035000Y-97416904D01*
X118082619Y-97369285D01*
X118177857Y-97321666D01*
X118320714Y-97321666D01*
X118415952Y-97369285D01*
X118463571Y-97416904D01*
X118511190Y-97512142D01*
X118511190Y-97893095D01*
X117987381Y-96416904D02*
X117987381Y-96893095D01*
X118463571Y-96940714D01*
X118415952Y-96893095D01*
X118368333Y-96797857D01*
X118368333Y-96559761D01*
X118415952Y-96464523D01*
X118463571Y-96416904D01*
X118558810Y-96369285D01*
X118796905Y-96369285D01*
X118892143Y-96416904D01*
X118939762Y-96464523D01*
X118987381Y-96559761D01*
X118987381Y-96797857D01*
X118939762Y-96893095D01*
X118892143Y-96940714D01*
X76144381Y-74334619D02*
X75668190Y-74667953D01*
X76144381Y-74906048D02*
X75144381Y-74906048D01*
X75144381Y-74525095D01*
X75192000Y-74429857D01*
X75239619Y-74382238D01*
X75334857Y-74334619D01*
X75477714Y-74334619D01*
X75572952Y-74382238D01*
X75620571Y-74429857D01*
X75668190Y-74525095D01*
X75668190Y-74906048D01*
X76096762Y-73953667D02*
X76144381Y-73810810D01*
X76144381Y-73572714D01*
X76096762Y-73477476D01*
X76049143Y-73429857D01*
X75953905Y-73382238D01*
X75858667Y-73382238D01*
X75763429Y-73429857D01*
X75715810Y-73477476D01*
X75668190Y-73572714D01*
X75620571Y-73763191D01*
X75572952Y-73858429D01*
X75525333Y-73906048D01*
X75430095Y-73953667D01*
X75334857Y-73953667D01*
X75239619Y-73906048D01*
X75192000Y-73858429D01*
X75144381Y-73763191D01*
X75144381Y-73525095D01*
X75192000Y-73382238D01*
X75144381Y-73096524D02*
X75144381Y-72525095D01*
X76144381Y-72810810D02*
X75144381Y-72810810D01*
X69683334Y-101957143D02*
X69635715Y-102004762D01*
X69492858Y-102052381D01*
X69397620Y-102052381D01*
X69254762Y-102004762D01*
X69159524Y-101909524D01*
X69111905Y-101814286D01*
X69064286Y-101623810D01*
X69064286Y-101480952D01*
X69111905Y-101290476D01*
X69159524Y-101195238D01*
X69254762Y-101100000D01*
X69397620Y-101052381D01*
X69492858Y-101052381D01*
X69635715Y-101100000D01*
X69683334Y-101147619D01*
X70635715Y-102052381D02*
X70064286Y-102052381D01*
X70350000Y-102052381D02*
X70350000Y-101052381D01*
X70254762Y-101195238D01*
X70159524Y-101290476D01*
X70064286Y-101338095D01*
X64619143Y-68365666D02*
X64666762Y-68413285D01*
X64714381Y-68556142D01*
X64714381Y-68651380D01*
X64666762Y-68794238D01*
X64571524Y-68889476D01*
X64476286Y-68937095D01*
X64285810Y-68984714D01*
X64142952Y-68984714D01*
X63952476Y-68937095D01*
X63857238Y-68889476D01*
X63762000Y-68794238D01*
X63714381Y-68651380D01*
X63714381Y-68556142D01*
X63762000Y-68413285D01*
X63809619Y-68365666D01*
X64047714Y-67508523D02*
X64714381Y-67508523D01*
X63666762Y-67746619D02*
X64381048Y-67984714D01*
X64381048Y-67365666D01*
X75009143Y-78358666D02*
X75056762Y-78406285D01*
X75104381Y-78549142D01*
X75104381Y-78644380D01*
X75056762Y-78787238D01*
X74961524Y-78882476D01*
X74866286Y-78930095D01*
X74675810Y-78977714D01*
X74532952Y-78977714D01*
X74342476Y-78930095D01*
X74247238Y-78882476D01*
X74152000Y-78787238D01*
X74104381Y-78644380D01*
X74104381Y-78549142D01*
X74152000Y-78406285D01*
X74199619Y-78358666D01*
X74104381Y-77453904D02*
X74104381Y-77930095D01*
X74580571Y-77977714D01*
X74532952Y-77930095D01*
X74485333Y-77834857D01*
X74485333Y-77596761D01*
X74532952Y-77501523D01*
X74580571Y-77453904D01*
X74675810Y-77406285D01*
X74913905Y-77406285D01*
X75009143Y-77453904D01*
X75056762Y-77501523D01*
X75104381Y-77596761D01*
X75104381Y-77834857D01*
X75056762Y-77930095D01*
X75009143Y-77977714D01*
X95210334Y-60682143D02*
X95162715Y-60729762D01*
X95019858Y-60777381D01*
X94924620Y-60777381D01*
X94781762Y-60729762D01*
X94686524Y-60634524D01*
X94638905Y-60539286D01*
X94591286Y-60348810D01*
X94591286Y-60205952D01*
X94638905Y-60015476D01*
X94686524Y-59920238D01*
X94781762Y-59825000D01*
X94924620Y-59777381D01*
X95019858Y-59777381D01*
X95162715Y-59825000D01*
X95210334Y-59872619D01*
X96067477Y-59777381D02*
X95877000Y-59777381D01*
X95781762Y-59825000D01*
X95734143Y-59872619D01*
X95638905Y-60015476D01*
X95591286Y-60205952D01*
X95591286Y-60586905D01*
X95638905Y-60682143D01*
X95686524Y-60729762D01*
X95781762Y-60777381D01*
X95972239Y-60777381D01*
X96067477Y-60729762D01*
X96115096Y-60682143D01*
X96162715Y-60586905D01*
X96162715Y-60348810D01*
X96115096Y-60253571D01*
X96067477Y-60205952D01*
X95972239Y-60158333D01*
X95781762Y-60158333D01*
X95686524Y-60205952D01*
X95638905Y-60253571D01*
X95591286Y-60348810D01*
X99655334Y-72747143D02*
X99607715Y-72794762D01*
X99464858Y-72842381D01*
X99369620Y-72842381D01*
X99226762Y-72794762D01*
X99131524Y-72699524D01*
X99083905Y-72604286D01*
X99036286Y-72413810D01*
X99036286Y-72270952D01*
X99083905Y-72080476D01*
X99131524Y-71985238D01*
X99226762Y-71890000D01*
X99369620Y-71842381D01*
X99464858Y-71842381D01*
X99607715Y-71890000D01*
X99655334Y-71937619D01*
X100226762Y-72270952D02*
X100131524Y-72223333D01*
X100083905Y-72175714D01*
X100036286Y-72080476D01*
X100036286Y-72032857D01*
X100083905Y-71937619D01*
X100131524Y-71890000D01*
X100226762Y-71842381D01*
X100417239Y-71842381D01*
X100512477Y-71890000D01*
X100560096Y-71937619D01*
X100607715Y-72032857D01*
X100607715Y-72080476D01*
X100560096Y-72175714D01*
X100512477Y-72223333D01*
X100417239Y-72270952D01*
X100226762Y-72270952D01*
X100131524Y-72318571D01*
X100083905Y-72366190D01*
X100036286Y-72461429D01*
X100036286Y-72651905D01*
X100083905Y-72747143D01*
X100131524Y-72794762D01*
X100226762Y-72842381D01*
X100417239Y-72842381D01*
X100512477Y-72794762D01*
X100560096Y-72747143D01*
X100607715Y-72651905D01*
X100607715Y-72461429D01*
X100560096Y-72366190D01*
X100512477Y-72318571D01*
X100417239Y-72270952D01*
X97115334Y-88622143D02*
X97067715Y-88669762D01*
X96924858Y-88717381D01*
X96829620Y-88717381D01*
X96686762Y-88669762D01*
X96591524Y-88574524D01*
X96543905Y-88479286D01*
X96496286Y-88288810D01*
X96496286Y-88145952D01*
X96543905Y-87955476D01*
X96591524Y-87860238D01*
X96686762Y-87765000D01*
X96829620Y-87717381D01*
X96924858Y-87717381D01*
X97067715Y-87765000D01*
X97115334Y-87812619D01*
X97591524Y-88717381D02*
X97782000Y-88717381D01*
X97877239Y-88669762D01*
X97924858Y-88622143D01*
X98020096Y-88479286D01*
X98067715Y-88288810D01*
X98067715Y-87907857D01*
X98020096Y-87812619D01*
X97972477Y-87765000D01*
X97877239Y-87717381D01*
X97686762Y-87717381D01*
X97591524Y-87765000D01*
X97543905Y-87812619D01*
X97496286Y-87907857D01*
X97496286Y-88145952D01*
X97543905Y-88241190D01*
X97591524Y-88288810D01*
X97686762Y-88336429D01*
X97877239Y-88336429D01*
X97972477Y-88288810D01*
X98020096Y-88241190D01*
X98067715Y-88145952D01*
X106021143Y-74175857D02*
X106068762Y-74223476D01*
X106116381Y-74366333D01*
X106116381Y-74461571D01*
X106068762Y-74604429D01*
X105973524Y-74699667D01*
X105878286Y-74747286D01*
X105687810Y-74794905D01*
X105544952Y-74794905D01*
X105354476Y-74747286D01*
X105259238Y-74699667D01*
X105164000Y-74604429D01*
X105116381Y-74461571D01*
X105116381Y-74366333D01*
X105164000Y-74223476D01*
X105211619Y-74175857D01*
X106116381Y-73223476D02*
X106116381Y-73794905D01*
X106116381Y-73509191D02*
X105116381Y-73509191D01*
X105259238Y-73604429D01*
X105354476Y-73699667D01*
X105402095Y-73794905D01*
X105116381Y-72604429D02*
X105116381Y-72509190D01*
X105164000Y-72413952D01*
X105211619Y-72366333D01*
X105306857Y-72318714D01*
X105497333Y-72271095D01*
X105735429Y-72271095D01*
X105925905Y-72318714D01*
X106021143Y-72366333D01*
X106068762Y-72413952D01*
X106116381Y-72509190D01*
X106116381Y-72604429D01*
X106068762Y-72699667D01*
X106021143Y-72747286D01*
X105925905Y-72794905D01*
X105735429Y-72842524D01*
X105497333Y-72842524D01*
X105306857Y-72794905D01*
X105211619Y-72747286D01*
X105164000Y-72699667D01*
X105116381Y-72604429D01*
X109212143Y-62079143D02*
X109164524Y-62126762D01*
X109021667Y-62174381D01*
X108926429Y-62174381D01*
X108783571Y-62126762D01*
X108688333Y-62031524D01*
X108640714Y-61936286D01*
X108593095Y-61745810D01*
X108593095Y-61602952D01*
X108640714Y-61412476D01*
X108688333Y-61317238D01*
X108783571Y-61222000D01*
X108926429Y-61174381D01*
X109021667Y-61174381D01*
X109164524Y-61222000D01*
X109212143Y-61269619D01*
X110164524Y-62174381D02*
X109593095Y-62174381D01*
X109878809Y-62174381D02*
X109878809Y-61174381D01*
X109783571Y-61317238D01*
X109688333Y-61412476D01*
X109593095Y-61460095D01*
X111116905Y-62174381D02*
X110545476Y-62174381D01*
X110831190Y-62174381D02*
X110831190Y-61174381D01*
X110735952Y-61317238D01*
X110640714Y-61412476D01*
X110545476Y-61460095D01*
X97766143Y-79128857D02*
X97813762Y-79176476D01*
X97861381Y-79319333D01*
X97861381Y-79414571D01*
X97813762Y-79557429D01*
X97718524Y-79652667D01*
X97623286Y-79700286D01*
X97432810Y-79747905D01*
X97289952Y-79747905D01*
X97099476Y-79700286D01*
X97004238Y-79652667D01*
X96909000Y-79557429D01*
X96861381Y-79414571D01*
X96861381Y-79319333D01*
X96909000Y-79176476D01*
X96956619Y-79128857D01*
X97861381Y-78176476D02*
X97861381Y-78747905D01*
X97861381Y-78462191D02*
X96861381Y-78462191D01*
X97004238Y-78557429D01*
X97099476Y-78652667D01*
X97147095Y-78747905D01*
X96956619Y-77795524D02*
X96909000Y-77747905D01*
X96861381Y-77652667D01*
X96861381Y-77414571D01*
X96909000Y-77319333D01*
X96956619Y-77271714D01*
X97051857Y-77224095D01*
X97147095Y-77224095D01*
X97289952Y-77271714D01*
X97861381Y-77843143D01*
X97861381Y-77224095D01*
X106037143Y-92559143D02*
X105989524Y-92606762D01*
X105846667Y-92654381D01*
X105751429Y-92654381D01*
X105608571Y-92606762D01*
X105513333Y-92511524D01*
X105465714Y-92416286D01*
X105418095Y-92225810D01*
X105418095Y-92082952D01*
X105465714Y-91892476D01*
X105513333Y-91797238D01*
X105608571Y-91702000D01*
X105751429Y-91654381D01*
X105846667Y-91654381D01*
X105989524Y-91702000D01*
X106037143Y-91749619D01*
X106989524Y-92654381D02*
X106418095Y-92654381D01*
X106703809Y-92654381D02*
X106703809Y-91654381D01*
X106608571Y-91797238D01*
X106513333Y-91892476D01*
X106418095Y-91940095D01*
X107322857Y-91654381D02*
X107941905Y-91654381D01*
X107608571Y-92035333D01*
X107751429Y-92035333D01*
X107846667Y-92082952D01*
X107894286Y-92130571D01*
X107941905Y-92225810D01*
X107941905Y-92463905D01*
X107894286Y-92559143D01*
X107846667Y-92606762D01*
X107751429Y-92654381D01*
X107465714Y-92654381D01*
X107370476Y-92606762D01*
X107322857Y-92559143D01*
X48537905Y-84727381D02*
X48537905Y-83727381D01*
X48776000Y-83727381D01*
X48918858Y-83775000D01*
X49014096Y-83870238D01*
X49061715Y-83965476D01*
X49109334Y-84155952D01*
X49109334Y-84298810D01*
X49061715Y-84489286D01*
X49014096Y-84584524D01*
X48918858Y-84679762D01*
X48776000Y-84727381D01*
X48537905Y-84727381D01*
X49490286Y-83822619D02*
X49537905Y-83775000D01*
X49633143Y-83727381D01*
X49871239Y-83727381D01*
X49966477Y-83775000D01*
X50014096Y-83822619D01*
X50061715Y-83917857D01*
X50061715Y-84013095D01*
X50014096Y-84155952D01*
X49442667Y-84727381D01*
X50061715Y-84727381D01*
X48537905Y-91077381D02*
X48537905Y-90077381D01*
X48776000Y-90077381D01*
X48918858Y-90125000D01*
X49014096Y-90220238D01*
X49061715Y-90315476D01*
X49109334Y-90505952D01*
X49109334Y-90648810D01*
X49061715Y-90839286D01*
X49014096Y-90934524D01*
X48918858Y-91029762D01*
X48776000Y-91077381D01*
X48537905Y-91077381D01*
X49442667Y-90077381D02*
X50061715Y-90077381D01*
X49728381Y-90458333D01*
X49871239Y-90458333D01*
X49966477Y-90505952D01*
X50014096Y-90553571D01*
X50061715Y-90648810D01*
X50061715Y-90886905D01*
X50014096Y-90982143D01*
X49966477Y-91029762D01*
X49871239Y-91077381D01*
X49585524Y-91077381D01*
X49490286Y-91029762D01*
X49442667Y-90982143D01*
X48537905Y-87902381D02*
X48537905Y-86902381D01*
X48776000Y-86902381D01*
X48918858Y-86950000D01*
X49014096Y-87045238D01*
X49061715Y-87140476D01*
X49109334Y-87330952D01*
X49109334Y-87473810D01*
X49061715Y-87664286D01*
X49014096Y-87759524D01*
X48918858Y-87854762D01*
X48776000Y-87902381D01*
X48537905Y-87902381D01*
X49966477Y-87235714D02*
X49966477Y-87902381D01*
X49728381Y-86854762D02*
X49490286Y-87569048D01*
X50109334Y-87569048D01*
X48537905Y-94252381D02*
X48537905Y-93252381D01*
X48776000Y-93252381D01*
X48918858Y-93300000D01*
X49014096Y-93395238D01*
X49061715Y-93490476D01*
X49109334Y-93680952D01*
X49109334Y-93823810D01*
X49061715Y-94014286D01*
X49014096Y-94109524D01*
X48918858Y-94204762D01*
X48776000Y-94252381D01*
X48537905Y-94252381D01*
X50014096Y-93252381D02*
X49537905Y-93252381D01*
X49490286Y-93728571D01*
X49537905Y-93680952D01*
X49633143Y-93633333D01*
X49871239Y-93633333D01*
X49966477Y-93680952D01*
X50014096Y-93728571D01*
X50061715Y-93823810D01*
X50061715Y-94061905D01*
X50014096Y-94157143D01*
X49966477Y-94204762D01*
X49871239Y-94252381D01*
X49633143Y-94252381D01*
X49537905Y-94204762D01*
X49490286Y-94157143D01*
X48537905Y-100327381D02*
X48537905Y-99327381D01*
X48776000Y-99327381D01*
X48918858Y-99375000D01*
X49014096Y-99470238D01*
X49061715Y-99565476D01*
X49109334Y-99755952D01*
X49109334Y-99898810D01*
X49061715Y-100089286D01*
X49014096Y-100184524D01*
X48918858Y-100279762D01*
X48776000Y-100327381D01*
X48537905Y-100327381D01*
X49966477Y-99327381D02*
X49776000Y-99327381D01*
X49680762Y-99375000D01*
X49633143Y-99422619D01*
X49537905Y-99565476D01*
X49490286Y-99755952D01*
X49490286Y-100136905D01*
X49537905Y-100232143D01*
X49585524Y-100279762D01*
X49680762Y-100327381D01*
X49871239Y-100327381D01*
X49966477Y-100279762D01*
X50014096Y-100232143D01*
X50061715Y-100136905D01*
X50061715Y-99898810D01*
X50014096Y-99803571D01*
X49966477Y-99755952D01*
X49871239Y-99708333D01*
X49680762Y-99708333D01*
X49585524Y-99755952D01*
X49537905Y-99803571D01*
X49490286Y-99898810D01*
M02*
