G04 #@! TF.FileFunction,Soldermask,Bot*
%FSLAX46Y46*%
G04 Gerber Fmt 4.6, Leading zero omitted, Abs format (unit mm)*
G04 Created by KiCad (PCBNEW 4.0.4-stable) date 12/11/17 12:25:10*
%MOMM*%
%LPD*%
G01*
G04 APERTURE LIST*
%ADD10C,0.100000*%
%ADD11R,2.100000X2.100000*%
%ADD12O,2.100000X2.100000*%
%ADD13C,4.200000*%
%ADD14R,2.000000X2.000000*%
%ADD15C,2.000000*%
%ADD16R,4.400000X4.400000*%
%ADD17C,4.400000*%
%ADD18O,2.000000X2.000000*%
%ADD19C,1.920000*%
%ADD20R,1.920000X1.920000*%
%ADD21C,1.800000*%
%ADD22O,1.800000X1.800000*%
G04 APERTURE END LIST*
D10*
D11*
X112395000Y-66675000D03*
D12*
X114935000Y-66675000D03*
X112395000Y-69215000D03*
X114935000Y-69215000D03*
X112395000Y-71755000D03*
X114935000Y-71755000D03*
X112395000Y-74295000D03*
X114935000Y-74295000D03*
X112395000Y-76835000D03*
X114935000Y-76835000D03*
D13*
X116840000Y-104140000D03*
X116840000Y-60325000D03*
X48260000Y-60325000D03*
D14*
X53427000Y-78486000D03*
D15*
X50927000Y-78486000D03*
D14*
X59055000Y-69215000D03*
D15*
X59055000Y-66715000D03*
D16*
X89375000Y-95250000D03*
D17*
X79375000Y-95250000D03*
D14*
X83185000Y-81915000D03*
D18*
X75565000Y-81915000D03*
D11*
X50960814Y-66797522D03*
D12*
X50960814Y-69337522D03*
X50960814Y-71877522D03*
D11*
X101600000Y-99695000D03*
D12*
X101600000Y-102235000D03*
X101600000Y-104775000D03*
D11*
X108585000Y-99695000D03*
D12*
X108585000Y-102235000D03*
X108585000Y-104775000D03*
D11*
X67945000Y-60833000D03*
D12*
X70485000Y-60833000D03*
X73025000Y-60833000D03*
X75565000Y-60833000D03*
X78105000Y-60833000D03*
D11*
X112395000Y-81915000D03*
D12*
X114935000Y-81915000D03*
X112395000Y-84455000D03*
X114935000Y-84455000D03*
X112395000Y-86995000D03*
X114935000Y-86995000D03*
X112395000Y-89535000D03*
X114935000Y-89535000D03*
X112395000Y-92075000D03*
X114935000Y-92075000D03*
D19*
X67691000Y-94107000D03*
X70231000Y-94107000D03*
D20*
X65151000Y-94107000D03*
D21*
X64135000Y-88900000D03*
D22*
X71755000Y-88900000D03*
D21*
X74295000Y-104140000D03*
D22*
X66675000Y-104140000D03*
D21*
X64135000Y-85725000D03*
D22*
X71755000Y-85725000D03*
D21*
X94615000Y-81915000D03*
D22*
X86995000Y-81915000D03*
D21*
X52451000Y-85725000D03*
D22*
X60071000Y-85725000D03*
D21*
X52451000Y-92075000D03*
D22*
X60071000Y-92075000D03*
D21*
X52451000Y-88900000D03*
D22*
X60071000Y-88900000D03*
D21*
X52451000Y-95250000D03*
D22*
X60071000Y-95250000D03*
D21*
X52451000Y-98425000D03*
D22*
X60071000Y-98425000D03*
D11*
X55245000Y-60833000D03*
D12*
X57785000Y-60833000D03*
X60325000Y-60833000D03*
D13*
X48260000Y-104140000D03*
D11*
X116205000Y-97155000D03*
D12*
X113665000Y-97155000D03*
D14*
X69342000Y-70739000D03*
D15*
X69342000Y-65739000D03*
D14*
X69342000Y-75692000D03*
D15*
X69342000Y-80692000D03*
M02*
