M48
;DRILL file {KiCad 4.0.4-stable} date 12/11/17 12:25:13
;FORMAT={-:-/ absolute / metric / decimal}
FMAT,2
METRIC,TZ
T1C0.300
T2C0.400
T3C0.700
T4C0.800
T5C1.000
T6C2.000
T7C2.200
%
G90
G05
M71
T1
X75.311Y-101.727
X76.454Y-85.725
X78.74Y-63.119
X101.727Y-87.63
X103.886Y-87.63
X114.427Y-105.791
X115.824Y-78.994
T2
X93.345Y-60.452
X97.155Y-67.945
X98.425Y-67.31
X102.87Y-81.28
X102.997Y-92.202
X104.14Y-81.915
T3
X52.451Y-85.725
X52.451Y-88.9
X52.451Y-92.075
X52.451Y-95.25
X52.451Y-98.425
X60.071Y-85.725
X60.071Y-88.9
X60.071Y-92.075
X60.071Y-95.25
X60.071Y-98.425
X64.135Y-85.725
X64.135Y-88.9
X66.675Y-104.14
X71.755Y-85.725
X71.755Y-88.9
X74.295Y-104.14
X86.995Y-81.915
X94.615Y-81.915
T4
X50.927Y-78.486
X53.427Y-78.486
X59.055Y-66.715
X59.055Y-69.215
X65.151Y-94.107
X67.691Y-94.107
X69.342Y-65.739
X69.342Y-70.739
X69.342Y-75.692
X69.342Y-80.692
X70.231Y-94.107
X75.565Y-81.915
X83.185Y-81.915
T5
X50.961Y-66.798
X50.961Y-69.338
X50.961Y-71.878
X55.245Y-60.833
X57.785Y-60.833
X60.325Y-60.833
X67.945Y-60.833
X70.485Y-60.833
X73.025Y-60.833
X75.565Y-60.833
X78.105Y-60.833
X101.6Y-99.695
X101.6Y-102.235
X101.6Y-104.775
X108.585Y-99.695
X108.585Y-102.235
X108.585Y-104.775
X112.395Y-66.675
X112.395Y-69.215
X112.395Y-71.755
X112.395Y-74.295
X112.395Y-76.835
X112.395Y-81.915
X112.395Y-84.455
X112.395Y-86.995
X112.395Y-89.535
X112.395Y-92.075
X113.665Y-97.155
X114.935Y-66.675
X114.935Y-69.215
X114.935Y-71.755
X114.935Y-74.295
X114.935Y-76.835
X114.935Y-81.915
X114.935Y-84.455
X114.935Y-86.995
X114.935Y-89.535
X114.935Y-92.075
X116.205Y-97.155
T6
X79.375Y-95.25
X89.375Y-95.25
T7
X48.26Y-60.325
X48.26Y-104.14
X116.84Y-60.325
X116.84Y-104.14
T0
M30
