%TF.GenerationSoftware,KiCad,Pcbnew,(6.0.9)*%
%TF.CreationDate,2022-11-13T04:59:30-06:00*%
%TF.ProjectId,Charger,43686172-6765-4722-9e6b-696361645f70,rev?*%
%TF.SameCoordinates,Original*%
%TF.FileFunction,Legend,Top*%
%TF.FilePolarity,Positive*%
%FSLAX46Y46*%
G04 Gerber Fmt 4.6, Leading zero omitted, Abs format (unit mm)*
G04 Created by KiCad (PCBNEW (6.0.9)) date 2022-11-13 04:59:30*
%MOMM*%
%LPD*%
G01*
G04 APERTURE LIST*
%ADD10C,0.030000*%
%ADD11C,0.050000*%
G04 APERTURE END LIST*
D10*
X149033333Y-90066666D02*
X149033333Y-89971428D01*
X149090476Y-90085714D02*
X148890476Y-90019047D01*
X149090476Y-89952380D01*
X148890476Y-89790476D02*
X148890476Y-89885714D01*
X148985714Y-89895238D01*
X148976190Y-89885714D01*
X148966666Y-89866666D01*
X148966666Y-89819047D01*
X148976190Y-89800000D01*
X148985714Y-89790476D01*
X149004761Y-89780952D01*
X149052380Y-89780952D01*
X149071428Y-89790476D01*
X149080952Y-89800000D01*
X149090476Y-89819047D01*
X149090476Y-89866666D01*
X149080952Y-89885714D01*
X149071428Y-89895238D01*
X151033333Y-90066666D02*
X151033333Y-89971428D01*
X151090476Y-90085714D02*
X150890476Y-90019047D01*
X151090476Y-89952380D01*
X151090476Y-89876190D02*
X151090476Y-89838095D01*
X151080952Y-89819047D01*
X151071428Y-89809523D01*
X151042857Y-89790476D01*
X151004761Y-89780952D01*
X150928571Y-89780952D01*
X150909523Y-89790476D01*
X150900000Y-89800000D01*
X150890476Y-89819047D01*
X150890476Y-89857142D01*
X150900000Y-89876190D01*
X150909523Y-89885714D01*
X150928571Y-89895238D01*
X150976190Y-89895238D01*
X150995238Y-89885714D01*
X151004761Y-89876190D01*
X151014285Y-89857142D01*
X151014285Y-89819047D01*
X151004761Y-89800000D01*
X150995238Y-89790476D01*
X150976190Y-89780952D01*
X150533333Y-90066666D02*
X150533333Y-89971428D01*
X150590476Y-90085714D02*
X150390476Y-90019047D01*
X150590476Y-89952380D01*
X150476190Y-89857142D02*
X150466666Y-89876190D01*
X150457142Y-89885714D01*
X150438095Y-89895238D01*
X150428571Y-89895238D01*
X150409523Y-89885714D01*
X150400000Y-89876190D01*
X150390476Y-89857142D01*
X150390476Y-89819047D01*
X150400000Y-89800000D01*
X150409523Y-89790476D01*
X150428571Y-89780952D01*
X150438095Y-89780952D01*
X150457142Y-89790476D01*
X150466666Y-89800000D01*
X150476190Y-89819047D01*
X150476190Y-89857142D01*
X150485714Y-89876190D01*
X150495238Y-89885714D01*
X150514285Y-89895238D01*
X150552380Y-89895238D01*
X150571428Y-89885714D01*
X150580952Y-89876190D01*
X150590476Y-89857142D01*
X150590476Y-89819047D01*
X150580952Y-89800000D01*
X150571428Y-89790476D01*
X150552380Y-89780952D01*
X150514285Y-89780952D01*
X150495238Y-89790476D01*
X150485714Y-89800000D01*
X150476190Y-89819047D01*
X150033333Y-90066666D02*
X150033333Y-89971428D01*
X150090476Y-90085714D02*
X149890476Y-90019047D01*
X150090476Y-89952380D01*
X149890476Y-89904761D02*
X149890476Y-89771428D01*
X150090476Y-89857142D01*
X147533333Y-90066666D02*
X147533333Y-89971428D01*
X147590476Y-90085714D02*
X147390476Y-90019047D01*
X147590476Y-89952380D01*
X147409523Y-89895238D02*
X147400000Y-89885714D01*
X147390476Y-89866666D01*
X147390476Y-89819047D01*
X147400000Y-89800000D01*
X147409523Y-89790476D01*
X147428571Y-89780952D01*
X147447619Y-89780952D01*
X147476190Y-89790476D01*
X147590476Y-89904761D01*
X147590476Y-89780952D01*
X151533333Y-90238095D02*
X151533333Y-90142857D01*
X151590476Y-90257142D02*
X151390476Y-90190476D01*
X151590476Y-90123809D01*
X151590476Y-89952380D02*
X151590476Y-90066666D01*
X151590476Y-90009523D02*
X151390476Y-90009523D01*
X151419047Y-90028571D01*
X151438095Y-90047619D01*
X151447619Y-90066666D01*
X151390476Y-89828571D02*
X151390476Y-89809523D01*
X151400000Y-89790476D01*
X151409523Y-89780952D01*
X151428571Y-89771428D01*
X151466666Y-89761904D01*
X151514285Y-89761904D01*
X151552380Y-89771428D01*
X151571428Y-89780952D01*
X151580952Y-89790476D01*
X151590476Y-89809523D01*
X151590476Y-89828571D01*
X151580952Y-89847619D01*
X151571428Y-89857142D01*
X151552380Y-89866666D01*
X151514285Y-89876190D01*
X151466666Y-89876190D01*
X151428571Y-89866666D01*
X151409523Y-89857142D01*
X151400000Y-89847619D01*
X151390476Y-89828571D01*
X149533333Y-90066666D02*
X149533333Y-89971428D01*
X149590476Y-90085714D02*
X149390476Y-90019047D01*
X149590476Y-89952380D01*
X149390476Y-89800000D02*
X149390476Y-89838095D01*
X149400000Y-89857142D01*
X149409523Y-89866666D01*
X149438095Y-89885714D01*
X149476190Y-89895238D01*
X149552380Y-89895238D01*
X149571428Y-89885714D01*
X149580952Y-89876190D01*
X149590476Y-89857142D01*
X149590476Y-89819047D01*
X149580952Y-89800000D01*
X149571428Y-89790476D01*
X149552380Y-89780952D01*
X149504761Y-89780952D01*
X149485714Y-89790476D01*
X149476190Y-89800000D01*
X149466666Y-89819047D01*
X149466666Y-89857142D01*
X149476190Y-89876190D01*
X149485714Y-89885714D01*
X149504761Y-89895238D01*
X148033333Y-90066666D02*
X148033333Y-89971428D01*
X148090476Y-90085714D02*
X147890476Y-90019047D01*
X148090476Y-89952380D01*
X147890476Y-89904761D02*
X147890476Y-89780952D01*
X147966666Y-89847619D01*
X147966666Y-89819047D01*
X147976190Y-89800000D01*
X147985714Y-89790476D01*
X148004761Y-89780952D01*
X148052380Y-89780952D01*
X148071428Y-89790476D01*
X148080952Y-89800000D01*
X148090476Y-89819047D01*
X148090476Y-89876190D01*
X148080952Y-89895238D01*
X148071428Y-89904761D01*
D11*
X148964285Y-92335714D02*
X149064285Y-92635714D01*
X149164285Y-92335714D01*
X149264285Y-92521428D02*
X149492857Y-92521428D01*
X149378571Y-92635714D02*
X149378571Y-92407142D01*
D10*
X147033333Y-90066666D02*
X147033333Y-89971428D01*
X147090476Y-90085714D02*
X146890476Y-90019047D01*
X147090476Y-89952380D01*
X147090476Y-89780952D02*
X147090476Y-89895238D01*
X147090476Y-89838095D02*
X146890476Y-89838095D01*
X146919047Y-89857142D01*
X146938095Y-89876190D01*
X146947619Y-89895238D01*
X152033333Y-90238095D02*
X152033333Y-90142857D01*
X152090476Y-90257142D02*
X151890476Y-90190476D01*
X152090476Y-90123809D01*
X152090476Y-89952380D02*
X152090476Y-90066666D01*
X152090476Y-90009523D02*
X151890476Y-90009523D01*
X151919047Y-90028571D01*
X151938095Y-90047619D01*
X151947619Y-90066666D01*
X152090476Y-89761904D02*
X152090476Y-89876190D01*
X152090476Y-89819047D02*
X151890476Y-89819047D01*
X151919047Y-89838095D01*
X151938095Y-89857142D01*
X151947619Y-89876190D01*
X152533333Y-90238095D02*
X152533333Y-90142857D01*
X152590476Y-90257142D02*
X152390476Y-90190476D01*
X152590476Y-90123809D01*
X152590476Y-89952380D02*
X152590476Y-90066666D01*
X152590476Y-90009523D02*
X152390476Y-90009523D01*
X152419047Y-90028571D01*
X152438095Y-90047619D01*
X152447619Y-90066666D01*
X152409523Y-89876190D02*
X152400000Y-89866666D01*
X152390476Y-89847619D01*
X152390476Y-89800000D01*
X152400000Y-89780952D01*
X152409523Y-89771428D01*
X152428571Y-89761904D01*
X152447619Y-89761904D01*
X152476190Y-89771428D01*
X152590476Y-89885714D01*
X152590476Y-89761904D01*
X148533333Y-90066666D02*
X148533333Y-89971428D01*
X148590476Y-90085714D02*
X148390476Y-90019047D01*
X148590476Y-89952380D01*
X148457142Y-89800000D02*
X148590476Y-89800000D01*
X148380952Y-89847619D02*
X148523809Y-89895238D01*
X148523809Y-89771428D01*
D11*
X152800000Y-92607142D02*
X152785714Y-92621428D01*
X152742857Y-92635714D01*
X152714285Y-92635714D01*
X152671428Y-92621428D01*
X152642857Y-92592857D01*
X152628571Y-92564285D01*
X152614285Y-92507142D01*
X152614285Y-92464285D01*
X152628571Y-92407142D01*
X152642857Y-92378571D01*
X152671428Y-92350000D01*
X152714285Y-92335714D01*
X152742857Y-92335714D01*
X152785714Y-92350000D01*
X152800000Y-92364285D01*
X153100000Y-92607142D02*
X153085714Y-92621428D01*
X153042857Y-92635714D01*
X153014285Y-92635714D01*
X152971428Y-92621428D01*
X152942857Y-92592857D01*
X152928571Y-92564285D01*
X152914285Y-92507142D01*
X152914285Y-92464285D01*
X152928571Y-92407142D01*
X152942857Y-92378571D01*
X152971428Y-92350000D01*
X153014285Y-92335714D01*
X153042857Y-92335714D01*
X153085714Y-92350000D01*
X153100000Y-92364285D01*
X153385714Y-92635714D02*
X153214285Y-92635714D01*
X153300000Y-92635714D02*
X153300000Y-92335714D01*
X153271428Y-92378571D01*
X153242857Y-92407142D01*
X153214285Y-92421428D01*
M02*
