%TF.GenerationSoftware,KiCad,Pcbnew,10.0.1*%
%TF.CreationDate,2026-05-24T23:37:13-05:00*%
%TF.ProjectId,ESPDrive,45535044-7269-4766-952e-6b696361645f,rev?*%
%TF.SameCoordinates,Original*%
%TF.FileFunction,Legend,Bot*%
%TF.FilePolarity,Positive*%
%FSLAX46Y46*%
G04 Gerber Fmt 4.6, Leading zero omitted, Abs format (unit mm)*
G04 Created by KiCad (PCBNEW 10.0.1) date 2026-05-24 23:37:13*
%MOMM*%
%LPD*%
G01*
G04 APERTURE LIST*
G04 Aperture macros list*
%AMRoundRect*
0 Rectangle with rounded corners*
0 $1 Rounding radius*
0 $2 $3 $4 $5 $6 $7 $8 $9 X,Y pos of 4 corners*
0 Add a 4 corners polygon primitive as box body*
4,1,4,$2,$3,$4,$5,$6,$7,$8,$9,$2,$3,0*
0 Add four circle primitives for the rounded corners*
1,1,$1+$1,$2,$3*
1,1,$1+$1,$4,$5*
1,1,$1+$1,$6,$7*
1,1,$1+$1,$8,$9*
0 Add four rect primitives between the rounded corners*
20,1,$1+$1,$2,$3,$4,$5,0*
20,1,$1+$1,$4,$5,$6,$7,0*
20,1,$1+$1,$6,$7,$8,$9,0*
20,1,$1+$1,$8,$9,$2,$3,0*%
G04 Aperture macros list end*
%ADD10C,0.150000*%
%ADD11C,0.120000*%
%ADD12C,2.220000*%
%ADD13C,2.490000*%
%ADD14C,2.830000*%
%ADD15C,3.000000*%
%ADD16C,2.204000*%
%ADD17RoundRect,0.102000X1.000000X1.000000X-1.000000X1.000000X-1.000000X-1.000000X1.000000X-1.000000X0*%
%ADD18C,2.240000*%
%ADD19C,2.510000*%
%ADD20C,2.850000*%
%ADD21C,1.300000*%
%ADD22C,2.300000*%
%ADD23C,4.520000*%
%ADD24R,1.700000X1.700000*%
%ADD25C,1.700000*%
%ADD26RoundRect,0.250000X0.475000X-0.337500X0.475000X0.337500X-0.475000X0.337500X-0.475000X-0.337500X0*%
%ADD27RoundRect,0.250000X-0.350000X-0.450000X0.350000X-0.450000X0.350000X0.450000X-0.350000X0.450000X0*%
%ADD28RoundRect,0.150000X-0.150000X0.587500X-0.150000X-0.587500X0.150000X-0.587500X0.150000X0.587500X0*%
%ADD29RoundRect,0.250000X0.450000X-0.350000X0.450000X0.350000X-0.450000X0.350000X-0.450000X-0.350000X0*%
%ADD30RoundRect,0.150000X-0.587500X-0.150000X0.587500X-0.150000X0.587500X0.150000X-0.587500X0.150000X0*%
%ADD31RoundRect,0.250000X-0.337500X-0.475000X0.337500X-0.475000X0.337500X0.475000X-0.337500X0.475000X0*%
%ADD32RoundRect,0.250000X-0.450000X0.350000X-0.450000X-0.350000X0.450000X-0.350000X0.450000X0.350000X0*%
%ADD33RoundRect,0.250000X0.350000X0.450000X-0.350000X0.450000X-0.350000X-0.450000X0.350000X-0.450000X0*%
G04 APERTURE END LIST*
D10*
X131607027Y-92918771D02*
X131435599Y-92975914D01*
X131435599Y-92975914D02*
X131378456Y-93033057D01*
X131378456Y-93033057D02*
X131321313Y-93147342D01*
X131321313Y-93147342D02*
X131321313Y-93318771D01*
X131321313Y-93318771D02*
X131378456Y-93433057D01*
X131378456Y-93433057D02*
X131435599Y-93490200D01*
X131435599Y-93490200D02*
X131549884Y-93547342D01*
X131549884Y-93547342D02*
X132007027Y-93547342D01*
X132007027Y-93547342D02*
X132007027Y-92347342D01*
X132007027Y-92347342D02*
X131607027Y-92347342D01*
X131607027Y-92347342D02*
X131492742Y-92404485D01*
X131492742Y-92404485D02*
X131435599Y-92461628D01*
X131435599Y-92461628D02*
X131378456Y-92575914D01*
X131378456Y-92575914D02*
X131378456Y-92690200D01*
X131378456Y-92690200D02*
X131435599Y-92804485D01*
X131435599Y-92804485D02*
X131492742Y-92861628D01*
X131492742Y-92861628D02*
X131607027Y-92918771D01*
X131607027Y-92918771D02*
X132007027Y-92918771D01*
X131321313Y-96047342D02*
X131721313Y-95475914D01*
X132007027Y-96047342D02*
X132007027Y-94847342D01*
X132007027Y-94847342D02*
X131549884Y-94847342D01*
X131549884Y-94847342D02*
X131435599Y-94904485D01*
X131435599Y-94904485D02*
X131378456Y-94961628D01*
X131378456Y-94961628D02*
X131321313Y-95075914D01*
X131321313Y-95075914D02*
X131321313Y-95247342D01*
X131321313Y-95247342D02*
X131378456Y-95361628D01*
X131378456Y-95361628D02*
X131435599Y-95418771D01*
X131435599Y-95418771D02*
X131549884Y-95475914D01*
X131549884Y-95475914D02*
X132007027Y-95475914D01*
X132149884Y-97990200D02*
X131235599Y-97990200D01*
X131378456Y-99904485D02*
X131492742Y-99847342D01*
X131492742Y-99847342D02*
X131664170Y-99847342D01*
X131664170Y-99847342D02*
X131835599Y-99904485D01*
X131835599Y-99904485D02*
X131949884Y-100018771D01*
X131949884Y-100018771D02*
X132007027Y-100133057D01*
X132007027Y-100133057D02*
X132064170Y-100361628D01*
X132064170Y-100361628D02*
X132064170Y-100533057D01*
X132064170Y-100533057D02*
X132007027Y-100761628D01*
X132007027Y-100761628D02*
X131949884Y-100875914D01*
X131949884Y-100875914D02*
X131835599Y-100990200D01*
X131835599Y-100990200D02*
X131664170Y-101047342D01*
X131664170Y-101047342D02*
X131549884Y-101047342D01*
X131549884Y-101047342D02*
X131378456Y-100990200D01*
X131378456Y-100990200D02*
X131321313Y-100933057D01*
X131321313Y-100933057D02*
X131321313Y-100533057D01*
X131321313Y-100533057D02*
X131549884Y-100533057D01*
X170657142Y-91545342D02*
X170428570Y-91545342D01*
X170428570Y-91545342D02*
X170314285Y-91602485D01*
X170314285Y-91602485D02*
X170199999Y-91716771D01*
X170199999Y-91716771D02*
X170142856Y-91945342D01*
X170142856Y-91945342D02*
X170142856Y-92345342D01*
X170142856Y-92345342D02*
X170199999Y-92573914D01*
X170199999Y-92573914D02*
X170314285Y-92688200D01*
X170314285Y-92688200D02*
X170428570Y-92745342D01*
X170428570Y-92745342D02*
X170657142Y-92745342D01*
X170657142Y-92745342D02*
X170771428Y-92688200D01*
X170771428Y-92688200D02*
X170885713Y-92573914D01*
X170885713Y-92573914D02*
X170942856Y-92345342D01*
X170942856Y-92345342D02*
X170942856Y-91945342D01*
X170942856Y-91945342D02*
X170885713Y-91716771D01*
X170885713Y-91716771D02*
X170771428Y-91602485D01*
X170771428Y-91602485D02*
X170657142Y-91545342D01*
X169628570Y-91945342D02*
X169628570Y-92745342D01*
X169628570Y-92059628D02*
X169571427Y-92002485D01*
X169571427Y-92002485D02*
X169457142Y-91945342D01*
X169457142Y-91945342D02*
X169285713Y-91945342D01*
X169285713Y-91945342D02*
X169171427Y-92002485D01*
X169171427Y-92002485D02*
X169114285Y-92116771D01*
X169114285Y-92116771D02*
X169114285Y-92745342D01*
X171828571Y-102845342D02*
X172399999Y-102845342D01*
X172399999Y-102845342D02*
X172399999Y-101645342D01*
X171428570Y-102845342D02*
X171428570Y-102045342D01*
X171428570Y-101645342D02*
X171485713Y-101702485D01*
X171485713Y-101702485D02*
X171428570Y-101759628D01*
X171428570Y-101759628D02*
X171371427Y-101702485D01*
X171371427Y-101702485D02*
X171428570Y-101645342D01*
X171428570Y-101645342D02*
X171428570Y-101759628D01*
X170342856Y-102045342D02*
X170342856Y-103016771D01*
X170342856Y-103016771D02*
X170399998Y-103131057D01*
X170399998Y-103131057D02*
X170457141Y-103188200D01*
X170457141Y-103188200D02*
X170571427Y-103245342D01*
X170571427Y-103245342D02*
X170742856Y-103245342D01*
X170742856Y-103245342D02*
X170857141Y-103188200D01*
X170342856Y-102788200D02*
X170457141Y-102845342D01*
X170457141Y-102845342D02*
X170685713Y-102845342D01*
X170685713Y-102845342D02*
X170799998Y-102788200D01*
X170799998Y-102788200D02*
X170857141Y-102731057D01*
X170857141Y-102731057D02*
X170914284Y-102616771D01*
X170914284Y-102616771D02*
X170914284Y-102273914D01*
X170914284Y-102273914D02*
X170857141Y-102159628D01*
X170857141Y-102159628D02*
X170799998Y-102102485D01*
X170799998Y-102102485D02*
X170685713Y-102045342D01*
X170685713Y-102045342D02*
X170457141Y-102045342D01*
X170457141Y-102045342D02*
X170342856Y-102102485D01*
X169771427Y-102845342D02*
X169771427Y-101645342D01*
X169257142Y-102845342D02*
X169257142Y-102216771D01*
X169257142Y-102216771D02*
X169314284Y-102102485D01*
X169314284Y-102102485D02*
X169428570Y-102045342D01*
X169428570Y-102045342D02*
X169599999Y-102045342D01*
X169599999Y-102045342D02*
X169714284Y-102102485D01*
X169714284Y-102102485D02*
X169771427Y-102159628D01*
X168857142Y-102045342D02*
X168399999Y-102045342D01*
X168685713Y-101645342D02*
X168685713Y-102673914D01*
X168685713Y-102673914D02*
X168628570Y-102788200D01*
X168628570Y-102788200D02*
X168514285Y-102845342D01*
X168514285Y-102845342D02*
X168399999Y-102845342D01*
X168057142Y-102788200D02*
X167942856Y-102845342D01*
X167942856Y-102845342D02*
X167714285Y-102845342D01*
X167714285Y-102845342D02*
X167599999Y-102788200D01*
X167599999Y-102788200D02*
X167542856Y-102673914D01*
X167542856Y-102673914D02*
X167542856Y-102616771D01*
X167542856Y-102616771D02*
X167599999Y-102502485D01*
X167599999Y-102502485D02*
X167714285Y-102445342D01*
X167714285Y-102445342D02*
X167885714Y-102445342D01*
X167885714Y-102445342D02*
X167999999Y-102388200D01*
X167999999Y-102388200D02*
X168057142Y-102273914D01*
X168057142Y-102273914D02*
X168057142Y-102216771D01*
X168057142Y-102216771D02*
X167999999Y-102102485D01*
X167999999Y-102102485D02*
X167885714Y-102045342D01*
X167885714Y-102045342D02*
X167714285Y-102045342D01*
X167714285Y-102045342D02*
X167599999Y-102102485D01*
X134670111Y-130745342D02*
X134270111Y-131945342D01*
X134270111Y-131945342D02*
X133870111Y-130745342D01*
X133298683Y-131945342D02*
X133412968Y-131888200D01*
X133412968Y-131888200D02*
X133470111Y-131831057D01*
X133470111Y-131831057D02*
X133527254Y-131716771D01*
X133527254Y-131716771D02*
X133527254Y-131373914D01*
X133527254Y-131373914D02*
X133470111Y-131259628D01*
X133470111Y-131259628D02*
X133412968Y-131202485D01*
X133412968Y-131202485D02*
X133298683Y-131145342D01*
X133298683Y-131145342D02*
X133127254Y-131145342D01*
X133127254Y-131145342D02*
X133012968Y-131202485D01*
X133012968Y-131202485D02*
X132955826Y-131259628D01*
X132955826Y-131259628D02*
X132898683Y-131373914D01*
X132898683Y-131373914D02*
X132898683Y-131716771D01*
X132898683Y-131716771D02*
X132955826Y-131831057D01*
X132955826Y-131831057D02*
X133012968Y-131888200D01*
X133012968Y-131888200D02*
X133127254Y-131945342D01*
X133127254Y-131945342D02*
X133298683Y-131945342D01*
X131870112Y-131145342D02*
X131870112Y-131945342D01*
X132384397Y-131145342D02*
X132384397Y-131773914D01*
X132384397Y-131773914D02*
X132327254Y-131888200D01*
X132327254Y-131888200D02*
X132212969Y-131945342D01*
X132212969Y-131945342D02*
X132041540Y-131945342D01*
X132041540Y-131945342D02*
X131927254Y-131888200D01*
X131927254Y-131888200D02*
X131870112Y-131831057D01*
X131470112Y-131145342D02*
X131012969Y-131145342D01*
X131298683Y-130745342D02*
X131298683Y-131773914D01*
X131298683Y-131773914D02*
X131241540Y-131888200D01*
X131241540Y-131888200D02*
X131127255Y-131945342D01*
X131127255Y-131945342D02*
X131012969Y-131945342D01*
X140798683Y-131445342D02*
X140398683Y-132645342D01*
X140398683Y-132645342D02*
X139998683Y-131445342D01*
X139598683Y-132188200D02*
X138684398Y-132188200D01*
X143670112Y-138945342D02*
X143670112Y-137745342D01*
X143670112Y-137745342D02*
X142984398Y-138945342D01*
X142984398Y-138945342D02*
X142984398Y-137745342D01*
X141727255Y-138831057D02*
X141784398Y-138888200D01*
X141784398Y-138888200D02*
X141955826Y-138945342D01*
X141955826Y-138945342D02*
X142070112Y-138945342D01*
X142070112Y-138945342D02*
X142241541Y-138888200D01*
X142241541Y-138888200D02*
X142355826Y-138773914D01*
X142355826Y-138773914D02*
X142412969Y-138659628D01*
X142412969Y-138659628D02*
X142470112Y-138431057D01*
X142470112Y-138431057D02*
X142470112Y-138259628D01*
X142470112Y-138259628D02*
X142412969Y-138031057D01*
X142412969Y-138031057D02*
X142355826Y-137916771D01*
X142355826Y-137916771D02*
X142241541Y-137802485D01*
X142241541Y-137802485D02*
X142070112Y-137745342D01*
X142070112Y-137745342D02*
X141955826Y-137745342D01*
X141955826Y-137745342D02*
X141784398Y-137802485D01*
X141784398Y-137802485D02*
X141727255Y-137859628D01*
X145627255Y-136645342D02*
X145627255Y-135445342D01*
X145627255Y-135445342D02*
X144941541Y-136645342D01*
X144941541Y-136645342D02*
X144941541Y-135445342D01*
X144141541Y-135445342D02*
X143912969Y-135445342D01*
X143912969Y-135445342D02*
X143798684Y-135502485D01*
X143798684Y-135502485D02*
X143684398Y-135616771D01*
X143684398Y-135616771D02*
X143627255Y-135845342D01*
X143627255Y-135845342D02*
X143627255Y-136245342D01*
X143627255Y-136245342D02*
X143684398Y-136473914D01*
X143684398Y-136473914D02*
X143798684Y-136588200D01*
X143798684Y-136588200D02*
X143912969Y-136645342D01*
X143912969Y-136645342D02*
X144141541Y-136645342D01*
X144141541Y-136645342D02*
X144255827Y-136588200D01*
X144255827Y-136588200D02*
X144370112Y-136473914D01*
X144370112Y-136473914D02*
X144427255Y-136245342D01*
X144427255Y-136245342D02*
X144427255Y-135845342D01*
X144427255Y-135845342D02*
X144370112Y-135616771D01*
X144370112Y-135616771D02*
X144255827Y-135502485D01*
X144255827Y-135502485D02*
X144141541Y-135445342D01*
X164998683Y-130945342D02*
X164598683Y-132145342D01*
X164598683Y-132145342D02*
X164198683Y-130945342D01*
X163798683Y-131688200D02*
X162884398Y-131688200D01*
X163341540Y-132145342D02*
X163341540Y-131231057D01*
X169955827Y-139631057D02*
X170012970Y-139688200D01*
X170012970Y-139688200D02*
X170184398Y-139745342D01*
X170184398Y-139745342D02*
X170298684Y-139745342D01*
X170298684Y-139745342D02*
X170470113Y-139688200D01*
X170470113Y-139688200D02*
X170584398Y-139573914D01*
X170584398Y-139573914D02*
X170641541Y-139459628D01*
X170641541Y-139459628D02*
X170698684Y-139231057D01*
X170698684Y-139231057D02*
X170698684Y-139059628D01*
X170698684Y-139059628D02*
X170641541Y-138831057D01*
X170641541Y-138831057D02*
X170584398Y-138716771D01*
X170584398Y-138716771D02*
X170470113Y-138602485D01*
X170470113Y-138602485D02*
X170298684Y-138545342D01*
X170298684Y-138545342D02*
X170184398Y-138545342D01*
X170184398Y-138545342D02*
X170012970Y-138602485D01*
X170012970Y-138602485D02*
X169955827Y-138659628D01*
X169212970Y-138545342D02*
X168984398Y-138545342D01*
X168984398Y-138545342D02*
X168870113Y-138602485D01*
X168870113Y-138602485D02*
X168755827Y-138716771D01*
X168755827Y-138716771D02*
X168698684Y-138945342D01*
X168698684Y-138945342D02*
X168698684Y-139345342D01*
X168698684Y-139345342D02*
X168755827Y-139573914D01*
X168755827Y-139573914D02*
X168870113Y-139688200D01*
X168870113Y-139688200D02*
X168984398Y-139745342D01*
X168984398Y-139745342D02*
X169212970Y-139745342D01*
X169212970Y-139745342D02*
X169327256Y-139688200D01*
X169327256Y-139688200D02*
X169441541Y-139573914D01*
X169441541Y-139573914D02*
X169498684Y-139345342D01*
X169498684Y-139345342D02*
X169498684Y-138945342D01*
X169498684Y-138945342D02*
X169441541Y-138716771D01*
X169441541Y-138716771D02*
X169327256Y-138602485D01*
X169327256Y-138602485D02*
X169212970Y-138545342D01*
X168184398Y-139745342D02*
X168184398Y-138545342D01*
X168184398Y-138545342D02*
X167784398Y-139402485D01*
X167784398Y-139402485D02*
X167384398Y-138545342D01*
X167384398Y-138545342D02*
X167384398Y-139745342D01*
X172741540Y-130945342D02*
X171998683Y-130945342D01*
X171998683Y-130945342D02*
X172398683Y-131402485D01*
X172398683Y-131402485D02*
X172227254Y-131402485D01*
X172227254Y-131402485D02*
X172112969Y-131459628D01*
X172112969Y-131459628D02*
X172055826Y-131516771D01*
X172055826Y-131516771D02*
X171998683Y-131631057D01*
X171998683Y-131631057D02*
X171998683Y-131916771D01*
X171998683Y-131916771D02*
X172055826Y-132031057D01*
X172055826Y-132031057D02*
X172112969Y-132088200D01*
X172112969Y-132088200D02*
X172227254Y-132145342D01*
X172227254Y-132145342D02*
X172570111Y-132145342D01*
X172570111Y-132145342D02*
X172684397Y-132088200D01*
X172684397Y-132088200D02*
X172741540Y-132031057D01*
X171655826Y-130945342D02*
X171255826Y-132145342D01*
X171255826Y-132145342D02*
X170855826Y-130945342D01*
X170570112Y-130945342D02*
X169827255Y-130945342D01*
X169827255Y-130945342D02*
X170227255Y-131402485D01*
X170227255Y-131402485D02*
X170055826Y-131402485D01*
X170055826Y-131402485D02*
X169941541Y-131459628D01*
X169941541Y-131459628D02*
X169884398Y-131516771D01*
X169884398Y-131516771D02*
X169827255Y-131631057D01*
X169827255Y-131631057D02*
X169827255Y-131916771D01*
X169827255Y-131916771D02*
X169884398Y-132031057D01*
X169884398Y-132031057D02*
X169941541Y-132088200D01*
X169941541Y-132088200D02*
X170055826Y-132145342D01*
X170055826Y-132145342D02*
X170398683Y-132145342D01*
X170398683Y-132145342D02*
X170512969Y-132088200D01*
X170512969Y-132088200D02*
X170570112Y-132031057D01*
X135954657Y-97571428D02*
X135954657Y-98142856D01*
X135954657Y-98142856D02*
X137154657Y-98142856D01*
X136583228Y-97171427D02*
X136583228Y-96771427D01*
X135954657Y-96599999D02*
X135954657Y-97171427D01*
X135954657Y-97171427D02*
X137154657Y-97171427D01*
X137154657Y-97171427D02*
X137154657Y-96599999D01*
X135954657Y-96085713D02*
X137154657Y-96085713D01*
X137154657Y-96085713D02*
X137154657Y-95799999D01*
X137154657Y-95799999D02*
X137097514Y-95628570D01*
X137097514Y-95628570D02*
X136983228Y-95514285D01*
X136983228Y-95514285D02*
X136868942Y-95457142D01*
X136868942Y-95457142D02*
X136640371Y-95399999D01*
X136640371Y-95399999D02*
X136468942Y-95399999D01*
X136468942Y-95399999D02*
X136240371Y-95457142D01*
X136240371Y-95457142D02*
X136126085Y-95514285D01*
X136126085Y-95514285D02*
X136011800Y-95628570D01*
X136011800Y-95628570D02*
X135954657Y-95799999D01*
X135954657Y-95799999D02*
X135954657Y-96085713D01*
X158142855Y-105328985D02*
X158071427Y-105257557D01*
X158071427Y-105257557D02*
X157928570Y-105186128D01*
X157928570Y-105186128D02*
X157571427Y-105186128D01*
X157571427Y-105186128D02*
X157428570Y-105257557D01*
X157428570Y-105257557D02*
X157357141Y-105328985D01*
X157357141Y-105328985D02*
X157285712Y-105471842D01*
X157285712Y-105471842D02*
X157285712Y-105614700D01*
X157285712Y-105614700D02*
X157357141Y-105828985D01*
X157357141Y-105828985D02*
X158214284Y-106686128D01*
X158214284Y-106686128D02*
X157285712Y-106686128D01*
X156357141Y-105186128D02*
X156214284Y-105186128D01*
X156214284Y-105186128D02*
X156071427Y-105257557D01*
X156071427Y-105257557D02*
X155999999Y-105328985D01*
X155999999Y-105328985D02*
X155928570Y-105471842D01*
X155928570Y-105471842D02*
X155857141Y-105757557D01*
X155857141Y-105757557D02*
X155857141Y-106114700D01*
X155857141Y-106114700D02*
X155928570Y-106400414D01*
X155928570Y-106400414D02*
X155999999Y-106543271D01*
X155999999Y-106543271D02*
X156071427Y-106614700D01*
X156071427Y-106614700D02*
X156214284Y-106686128D01*
X156214284Y-106686128D02*
X156357141Y-106686128D01*
X156357141Y-106686128D02*
X156499999Y-106614700D01*
X156499999Y-106614700D02*
X156571427Y-106543271D01*
X156571427Y-106543271D02*
X156642856Y-106400414D01*
X156642856Y-106400414D02*
X156714284Y-106114700D01*
X156714284Y-106114700D02*
X156714284Y-105757557D01*
X156714284Y-105757557D02*
X156642856Y-105471842D01*
X156642856Y-105471842D02*
X156571427Y-105328985D01*
X156571427Y-105328985D02*
X156499999Y-105257557D01*
X156499999Y-105257557D02*
X156357141Y-105186128D01*
X155285713Y-105328985D02*
X155214285Y-105257557D01*
X155214285Y-105257557D02*
X155071428Y-105186128D01*
X155071428Y-105186128D02*
X154714285Y-105186128D01*
X154714285Y-105186128D02*
X154571428Y-105257557D01*
X154571428Y-105257557D02*
X154499999Y-105328985D01*
X154499999Y-105328985D02*
X154428570Y-105471842D01*
X154428570Y-105471842D02*
X154428570Y-105614700D01*
X154428570Y-105614700D02*
X154499999Y-105828985D01*
X154499999Y-105828985D02*
X155357142Y-106686128D01*
X155357142Y-106686128D02*
X154428570Y-106686128D01*
X153142857Y-105186128D02*
X153428571Y-105186128D01*
X153428571Y-105186128D02*
X153571428Y-105257557D01*
X153571428Y-105257557D02*
X153642857Y-105328985D01*
X153642857Y-105328985D02*
X153785714Y-105543271D01*
X153785714Y-105543271D02*
X153857142Y-105828985D01*
X153857142Y-105828985D02*
X153857142Y-106400414D01*
X153857142Y-106400414D02*
X153785714Y-106543271D01*
X153785714Y-106543271D02*
X153714285Y-106614700D01*
X153714285Y-106614700D02*
X153571428Y-106686128D01*
X153571428Y-106686128D02*
X153285714Y-106686128D01*
X153285714Y-106686128D02*
X153142857Y-106614700D01*
X153142857Y-106614700D02*
X153071428Y-106543271D01*
X153071428Y-106543271D02*
X152999999Y-106400414D01*
X152999999Y-106400414D02*
X152999999Y-106043271D01*
X152999999Y-106043271D02*
X153071428Y-105900414D01*
X153071428Y-105900414D02*
X153142857Y-105828985D01*
X153142857Y-105828985D02*
X153285714Y-105757557D01*
X153285714Y-105757557D02*
X153571428Y-105757557D01*
X153571428Y-105757557D02*
X153714285Y-105828985D01*
X153714285Y-105828985D02*
X153785714Y-105900414D01*
X153785714Y-105900414D02*
X153857142Y-106043271D01*
X152357143Y-106543271D02*
X152285714Y-106614700D01*
X152285714Y-106614700D02*
X152357143Y-106686128D01*
X152357143Y-106686128D02*
X152428571Y-106614700D01*
X152428571Y-106614700D02*
X152357143Y-106543271D01*
X152357143Y-106543271D02*
X152357143Y-106686128D01*
X151357142Y-105186128D02*
X151214285Y-105186128D01*
X151214285Y-105186128D02*
X151071428Y-105257557D01*
X151071428Y-105257557D02*
X151000000Y-105328985D01*
X151000000Y-105328985D02*
X150928571Y-105471842D01*
X150928571Y-105471842D02*
X150857142Y-105757557D01*
X150857142Y-105757557D02*
X150857142Y-106114700D01*
X150857142Y-106114700D02*
X150928571Y-106400414D01*
X150928571Y-106400414D02*
X151000000Y-106543271D01*
X151000000Y-106543271D02*
X151071428Y-106614700D01*
X151071428Y-106614700D02*
X151214285Y-106686128D01*
X151214285Y-106686128D02*
X151357142Y-106686128D01*
X151357142Y-106686128D02*
X151500000Y-106614700D01*
X151500000Y-106614700D02*
X151571428Y-106543271D01*
X151571428Y-106543271D02*
X151642857Y-106400414D01*
X151642857Y-106400414D02*
X151714285Y-106114700D01*
X151714285Y-106114700D02*
X151714285Y-105757557D01*
X151714285Y-105757557D02*
X151642857Y-105471842D01*
X151642857Y-105471842D02*
X151571428Y-105328985D01*
X151571428Y-105328985D02*
X151500000Y-105257557D01*
X151500000Y-105257557D02*
X151357142Y-105186128D01*
X149500000Y-105186128D02*
X150214286Y-105186128D01*
X150214286Y-105186128D02*
X150285714Y-105900414D01*
X150285714Y-105900414D02*
X150214286Y-105828985D01*
X150214286Y-105828985D02*
X150071429Y-105757557D01*
X150071429Y-105757557D02*
X149714286Y-105757557D01*
X149714286Y-105757557D02*
X149571429Y-105828985D01*
X149571429Y-105828985D02*
X149500000Y-105900414D01*
X149500000Y-105900414D02*
X149428571Y-106043271D01*
X149428571Y-106043271D02*
X149428571Y-106400414D01*
X149428571Y-106400414D02*
X149500000Y-106543271D01*
X149500000Y-106543271D02*
X149571429Y-106614700D01*
X149571429Y-106614700D02*
X149714286Y-106686128D01*
X149714286Y-106686128D02*
X150071429Y-106686128D01*
X150071429Y-106686128D02*
X150214286Y-106614700D01*
X150214286Y-106614700D02*
X150285714Y-106543271D01*
X148785715Y-106543271D02*
X148714286Y-106614700D01*
X148714286Y-106614700D02*
X148785715Y-106686128D01*
X148785715Y-106686128D02*
X148857143Y-106614700D01*
X148857143Y-106614700D02*
X148785715Y-106543271D01*
X148785715Y-106543271D02*
X148785715Y-106686128D01*
X147285714Y-106686128D02*
X148142857Y-106686128D01*
X147714286Y-106686128D02*
X147714286Y-105186128D01*
X147714286Y-105186128D02*
X147857143Y-105400414D01*
X147857143Y-105400414D02*
X148000000Y-105543271D01*
X148000000Y-105543271D02*
X148142857Y-105614700D01*
X146714286Y-105328985D02*
X146642858Y-105257557D01*
X146642858Y-105257557D02*
X146500001Y-105186128D01*
X146500001Y-105186128D02*
X146142858Y-105186128D01*
X146142858Y-105186128D02*
X146000001Y-105257557D01*
X146000001Y-105257557D02*
X145928572Y-105328985D01*
X145928572Y-105328985D02*
X145857143Y-105471842D01*
X145857143Y-105471842D02*
X145857143Y-105614700D01*
X145857143Y-105614700D02*
X145928572Y-105828985D01*
X145928572Y-105828985D02*
X146785715Y-106686128D01*
X146785715Y-106686128D02*
X145857143Y-106686128D01*
X162000000Y-101869819D02*
X161333333Y-101869819D01*
X161047619Y-102917438D02*
X162000000Y-102917438D01*
X162000000Y-102917438D02*
X162000000Y-100917438D01*
X162000000Y-100917438D02*
X161047619Y-100917438D01*
X160285714Y-102822200D02*
X160000000Y-102917438D01*
X160000000Y-102917438D02*
X159523809Y-102917438D01*
X159523809Y-102917438D02*
X159333333Y-102822200D01*
X159333333Y-102822200D02*
X159238095Y-102726961D01*
X159238095Y-102726961D02*
X159142857Y-102536485D01*
X159142857Y-102536485D02*
X159142857Y-102346009D01*
X159142857Y-102346009D02*
X159238095Y-102155533D01*
X159238095Y-102155533D02*
X159333333Y-102060295D01*
X159333333Y-102060295D02*
X159523809Y-101965057D01*
X159523809Y-101965057D02*
X159904762Y-101869819D01*
X159904762Y-101869819D02*
X160095238Y-101774580D01*
X160095238Y-101774580D02*
X160190476Y-101679342D01*
X160190476Y-101679342D02*
X160285714Y-101488866D01*
X160285714Y-101488866D02*
X160285714Y-101298390D01*
X160285714Y-101298390D02*
X160190476Y-101107914D01*
X160190476Y-101107914D02*
X160095238Y-101012676D01*
X160095238Y-101012676D02*
X159904762Y-100917438D01*
X159904762Y-100917438D02*
X159428571Y-100917438D01*
X159428571Y-100917438D02*
X159142857Y-101012676D01*
X158285714Y-102917438D02*
X158285714Y-100917438D01*
X158285714Y-100917438D02*
X157523809Y-100917438D01*
X157523809Y-100917438D02*
X157333333Y-101012676D01*
X157333333Y-101012676D02*
X157238095Y-101107914D01*
X157238095Y-101107914D02*
X157142857Y-101298390D01*
X157142857Y-101298390D02*
X157142857Y-101584104D01*
X157142857Y-101584104D02*
X157238095Y-101774580D01*
X157238095Y-101774580D02*
X157333333Y-101869819D01*
X157333333Y-101869819D02*
X157523809Y-101965057D01*
X157523809Y-101965057D02*
X158285714Y-101965057D01*
X156285714Y-102917438D02*
X156285714Y-100917438D01*
X156285714Y-100917438D02*
X155809524Y-100917438D01*
X155809524Y-100917438D02*
X155523809Y-101012676D01*
X155523809Y-101012676D02*
X155333333Y-101203152D01*
X155333333Y-101203152D02*
X155238095Y-101393628D01*
X155238095Y-101393628D02*
X155142857Y-101774580D01*
X155142857Y-101774580D02*
X155142857Y-102060295D01*
X155142857Y-102060295D02*
X155238095Y-102441247D01*
X155238095Y-102441247D02*
X155333333Y-102631723D01*
X155333333Y-102631723D02*
X155523809Y-102822200D01*
X155523809Y-102822200D02*
X155809524Y-102917438D01*
X155809524Y-102917438D02*
X156285714Y-102917438D01*
X154285714Y-102917438D02*
X154285714Y-101584104D01*
X154285714Y-101965057D02*
X154190476Y-101774580D01*
X154190476Y-101774580D02*
X154095238Y-101679342D01*
X154095238Y-101679342D02*
X153904762Y-101584104D01*
X153904762Y-101584104D02*
X153714285Y-101584104D01*
X153047619Y-102917438D02*
X153047619Y-101584104D01*
X153047619Y-100917438D02*
X153142857Y-101012676D01*
X153142857Y-101012676D02*
X153047619Y-101107914D01*
X153047619Y-101107914D02*
X152952381Y-101012676D01*
X152952381Y-101012676D02*
X153047619Y-100917438D01*
X153047619Y-100917438D02*
X153047619Y-101107914D01*
X152285714Y-101584104D02*
X151809524Y-102917438D01*
X151809524Y-102917438D02*
X151333333Y-101584104D01*
X149809523Y-102822200D02*
X149999999Y-102917438D01*
X149999999Y-102917438D02*
X150380952Y-102917438D01*
X150380952Y-102917438D02*
X150571428Y-102822200D01*
X150571428Y-102822200D02*
X150666666Y-102631723D01*
X150666666Y-102631723D02*
X150666666Y-101869819D01*
X150666666Y-101869819D02*
X150571428Y-101679342D01*
X150571428Y-101679342D02*
X150380952Y-101584104D01*
X150380952Y-101584104D02*
X149999999Y-101584104D01*
X149999999Y-101584104D02*
X149809523Y-101679342D01*
X149809523Y-101679342D02*
X149714285Y-101869819D01*
X149714285Y-101869819D02*
X149714285Y-102060295D01*
X149714285Y-102060295D02*
X150666666Y-102250771D01*
X147523808Y-101584104D02*
X147047618Y-102917438D01*
X147047618Y-102917438D02*
X146571427Y-101584104D01*
X144761903Y-102917438D02*
X145904760Y-102917438D01*
X145333332Y-102917438D02*
X145333332Y-100917438D01*
X145333332Y-100917438D02*
X145523808Y-101203152D01*
X145523808Y-101203152D02*
X145714284Y-101393628D01*
X145714284Y-101393628D02*
X145904760Y-101488866D01*
X143904760Y-102726961D02*
X143809522Y-102822200D01*
X143809522Y-102822200D02*
X143904760Y-102917438D01*
X143904760Y-102917438D02*
X143999998Y-102822200D01*
X143999998Y-102822200D02*
X143904760Y-102726961D01*
X143904760Y-102726961D02*
X143904760Y-102917438D01*
X141904760Y-102917438D02*
X143047617Y-102917438D01*
X142476189Y-102917438D02*
X142476189Y-100917438D01*
X142476189Y-100917438D02*
X142666665Y-101203152D01*
X142666665Y-101203152D02*
X142857141Y-101393628D01*
X142857141Y-101393628D02*
X143047617Y-101488866D01*
X152166666Y-138254819D02*
X152499999Y-137778628D01*
X152738094Y-138254819D02*
X152738094Y-137254819D01*
X152738094Y-137254819D02*
X152357142Y-137254819D01*
X152357142Y-137254819D02*
X152261904Y-137302438D01*
X152261904Y-137302438D02*
X152214285Y-137350057D01*
X152214285Y-137350057D02*
X152166666Y-137445295D01*
X152166666Y-137445295D02*
X152166666Y-137588152D01*
X152166666Y-137588152D02*
X152214285Y-137683390D01*
X152214285Y-137683390D02*
X152261904Y-137731009D01*
X152261904Y-137731009D02*
X152357142Y-137778628D01*
X152357142Y-137778628D02*
X152738094Y-137778628D01*
X151214285Y-138254819D02*
X151785713Y-138254819D01*
X151499999Y-138254819D02*
X151499999Y-137254819D01*
X151499999Y-137254819D02*
X151595237Y-137397676D01*
X151595237Y-137397676D02*
X151690475Y-137492914D01*
X151690475Y-137492914D02*
X151785713Y-137540533D01*
X156014285Y-135654819D02*
X155442857Y-135654819D01*
X155728571Y-136654819D02*
X155728571Y-135654819D01*
X155109523Y-136131009D02*
X154776190Y-136131009D01*
X154633333Y-136654819D02*
X155109523Y-136654819D01*
X155109523Y-136654819D02*
X155109523Y-135654819D01*
X155109523Y-135654819D02*
X154633333Y-135654819D01*
X154204761Y-136273866D02*
X153442857Y-136273866D01*
X153014285Y-136607200D02*
X152871428Y-136654819D01*
X152871428Y-136654819D02*
X152633333Y-136654819D01*
X152633333Y-136654819D02*
X152538095Y-136607200D01*
X152538095Y-136607200D02*
X152490476Y-136559580D01*
X152490476Y-136559580D02*
X152442857Y-136464342D01*
X152442857Y-136464342D02*
X152442857Y-136369104D01*
X152442857Y-136369104D02*
X152490476Y-136273866D01*
X152490476Y-136273866D02*
X152538095Y-136226247D01*
X152538095Y-136226247D02*
X152633333Y-136178628D01*
X152633333Y-136178628D02*
X152823809Y-136131009D01*
X152823809Y-136131009D02*
X152919047Y-136083390D01*
X152919047Y-136083390D02*
X152966666Y-136035771D01*
X152966666Y-136035771D02*
X153014285Y-135940533D01*
X153014285Y-135940533D02*
X153014285Y-135845295D01*
X153014285Y-135845295D02*
X152966666Y-135750057D01*
X152966666Y-135750057D02*
X152919047Y-135702438D01*
X152919047Y-135702438D02*
X152823809Y-135654819D01*
X152823809Y-135654819D02*
X152585714Y-135654819D01*
X152585714Y-135654819D02*
X152442857Y-135702438D01*
X152014285Y-136654819D02*
X152014285Y-135654819D01*
X152014285Y-135654819D02*
X151633333Y-135654819D01*
X151633333Y-135654819D02*
X151538095Y-135702438D01*
X151538095Y-135702438D02*
X151490476Y-135750057D01*
X151490476Y-135750057D02*
X151442857Y-135845295D01*
X151442857Y-135845295D02*
X151442857Y-135988152D01*
X151442857Y-135988152D02*
X151490476Y-136083390D01*
X151490476Y-136083390D02*
X151538095Y-136131009D01*
X151538095Y-136131009D02*
X151633333Y-136178628D01*
X151633333Y-136178628D02*
X152014285Y-136178628D01*
X151014285Y-136654819D02*
X151014285Y-135654819D01*
X151014285Y-135654819D02*
X150776190Y-135654819D01*
X150776190Y-135654819D02*
X150633333Y-135702438D01*
X150633333Y-135702438D02*
X150538095Y-135797676D01*
X150538095Y-135797676D02*
X150490476Y-135892914D01*
X150490476Y-135892914D02*
X150442857Y-136083390D01*
X150442857Y-136083390D02*
X150442857Y-136226247D01*
X150442857Y-136226247D02*
X150490476Y-136416723D01*
X150490476Y-136416723D02*
X150538095Y-136511961D01*
X150538095Y-136511961D02*
X150633333Y-136607200D01*
X150633333Y-136607200D02*
X150776190Y-136654819D01*
X150776190Y-136654819D02*
X151014285Y-136654819D01*
X150157142Y-135654819D02*
X149585714Y-135654819D01*
X149871428Y-136654819D02*
X149871428Y-135654819D01*
X159742857Y-89759580D02*
X159790476Y-89807200D01*
X159790476Y-89807200D02*
X159933333Y-89854819D01*
X159933333Y-89854819D02*
X160028571Y-89854819D01*
X160028571Y-89854819D02*
X160171428Y-89807200D01*
X160171428Y-89807200D02*
X160266666Y-89711961D01*
X160266666Y-89711961D02*
X160314285Y-89616723D01*
X160314285Y-89616723D02*
X160361904Y-89426247D01*
X160361904Y-89426247D02*
X160361904Y-89283390D01*
X160361904Y-89283390D02*
X160314285Y-89092914D01*
X160314285Y-89092914D02*
X160266666Y-88997676D01*
X160266666Y-88997676D02*
X160171428Y-88902438D01*
X160171428Y-88902438D02*
X160028571Y-88854819D01*
X160028571Y-88854819D02*
X159933333Y-88854819D01*
X159933333Y-88854819D02*
X159790476Y-88902438D01*
X159790476Y-88902438D02*
X159742857Y-88950057D01*
X158790476Y-89854819D02*
X159361904Y-89854819D01*
X159076190Y-89854819D02*
X159076190Y-88854819D01*
X159076190Y-88854819D02*
X159171428Y-88997676D01*
X159171428Y-88997676D02*
X159266666Y-89092914D01*
X159266666Y-89092914D02*
X159361904Y-89140533D01*
X157933333Y-89188152D02*
X157933333Y-89854819D01*
X158171428Y-88807200D02*
X158409523Y-89521485D01*
X158409523Y-89521485D02*
X157790476Y-89521485D01*
X155166666Y-126254819D02*
X155499999Y-125778628D01*
X155738094Y-126254819D02*
X155738094Y-125254819D01*
X155738094Y-125254819D02*
X155357142Y-125254819D01*
X155357142Y-125254819D02*
X155261904Y-125302438D01*
X155261904Y-125302438D02*
X155214285Y-125350057D01*
X155214285Y-125350057D02*
X155166666Y-125445295D01*
X155166666Y-125445295D02*
X155166666Y-125588152D01*
X155166666Y-125588152D02*
X155214285Y-125683390D01*
X155214285Y-125683390D02*
X155261904Y-125731009D01*
X155261904Y-125731009D02*
X155357142Y-125778628D01*
X155357142Y-125778628D02*
X155738094Y-125778628D01*
X154833332Y-125254819D02*
X154214285Y-125254819D01*
X154214285Y-125254819D02*
X154547618Y-125635771D01*
X154547618Y-125635771D02*
X154404761Y-125635771D01*
X154404761Y-125635771D02*
X154309523Y-125683390D01*
X154309523Y-125683390D02*
X154261904Y-125731009D01*
X154261904Y-125731009D02*
X154214285Y-125826247D01*
X154214285Y-125826247D02*
X154214285Y-126064342D01*
X154214285Y-126064342D02*
X154261904Y-126159580D01*
X154261904Y-126159580D02*
X154309523Y-126207200D01*
X154309523Y-126207200D02*
X154404761Y-126254819D01*
X154404761Y-126254819D02*
X154690475Y-126254819D01*
X154690475Y-126254819D02*
X154785713Y-126207200D01*
X154785713Y-126207200D02*
X154833332Y-126159580D01*
X149166666Y-119359580D02*
X149214285Y-119407200D01*
X149214285Y-119407200D02*
X149357142Y-119454819D01*
X149357142Y-119454819D02*
X149452380Y-119454819D01*
X149452380Y-119454819D02*
X149595237Y-119407200D01*
X149595237Y-119407200D02*
X149690475Y-119311961D01*
X149690475Y-119311961D02*
X149738094Y-119216723D01*
X149738094Y-119216723D02*
X149785713Y-119026247D01*
X149785713Y-119026247D02*
X149785713Y-118883390D01*
X149785713Y-118883390D02*
X149738094Y-118692914D01*
X149738094Y-118692914D02*
X149690475Y-118597676D01*
X149690475Y-118597676D02*
X149595237Y-118502438D01*
X149595237Y-118502438D02*
X149452380Y-118454819D01*
X149452380Y-118454819D02*
X149357142Y-118454819D01*
X149357142Y-118454819D02*
X149214285Y-118502438D01*
X149214285Y-118502438D02*
X149166666Y-118550057D01*
X148595237Y-118883390D02*
X148690475Y-118835771D01*
X148690475Y-118835771D02*
X148738094Y-118788152D01*
X148738094Y-118788152D02*
X148785713Y-118692914D01*
X148785713Y-118692914D02*
X148785713Y-118645295D01*
X148785713Y-118645295D02*
X148738094Y-118550057D01*
X148738094Y-118550057D02*
X148690475Y-118502438D01*
X148690475Y-118502438D02*
X148595237Y-118454819D01*
X148595237Y-118454819D02*
X148404761Y-118454819D01*
X148404761Y-118454819D02*
X148309523Y-118502438D01*
X148309523Y-118502438D02*
X148261904Y-118550057D01*
X148261904Y-118550057D02*
X148214285Y-118645295D01*
X148214285Y-118645295D02*
X148214285Y-118692914D01*
X148214285Y-118692914D02*
X148261904Y-118788152D01*
X148261904Y-118788152D02*
X148309523Y-118835771D01*
X148309523Y-118835771D02*
X148404761Y-118883390D01*
X148404761Y-118883390D02*
X148595237Y-118883390D01*
X148595237Y-118883390D02*
X148690475Y-118931009D01*
X148690475Y-118931009D02*
X148738094Y-118978628D01*
X148738094Y-118978628D02*
X148785713Y-119073866D01*
X148785713Y-119073866D02*
X148785713Y-119264342D01*
X148785713Y-119264342D02*
X148738094Y-119359580D01*
X148738094Y-119359580D02*
X148690475Y-119407200D01*
X148690475Y-119407200D02*
X148595237Y-119454819D01*
X148595237Y-119454819D02*
X148404761Y-119454819D01*
X148404761Y-119454819D02*
X148309523Y-119407200D01*
X148309523Y-119407200D02*
X148261904Y-119359580D01*
X148261904Y-119359580D02*
X148214285Y-119264342D01*
X148214285Y-119264342D02*
X148214285Y-119073866D01*
X148214285Y-119073866D02*
X148261904Y-118978628D01*
X148261904Y-118978628D02*
X148309523Y-118931009D01*
X148309523Y-118931009D02*
X148404761Y-118883390D01*
X154042857Y-93454819D02*
X154376190Y-92978628D01*
X154614285Y-93454819D02*
X154614285Y-92454819D01*
X154614285Y-92454819D02*
X154233333Y-92454819D01*
X154233333Y-92454819D02*
X154138095Y-92502438D01*
X154138095Y-92502438D02*
X154090476Y-92550057D01*
X154090476Y-92550057D02*
X154042857Y-92645295D01*
X154042857Y-92645295D02*
X154042857Y-92788152D01*
X154042857Y-92788152D02*
X154090476Y-92883390D01*
X154090476Y-92883390D02*
X154138095Y-92931009D01*
X154138095Y-92931009D02*
X154233333Y-92978628D01*
X154233333Y-92978628D02*
X154614285Y-92978628D01*
X153090476Y-93454819D02*
X153661904Y-93454819D01*
X153376190Y-93454819D02*
X153376190Y-92454819D01*
X153376190Y-92454819D02*
X153471428Y-92597676D01*
X153471428Y-92597676D02*
X153566666Y-92692914D01*
X153566666Y-92692914D02*
X153661904Y-92740533D01*
X152519047Y-92883390D02*
X152614285Y-92835771D01*
X152614285Y-92835771D02*
X152661904Y-92788152D01*
X152661904Y-92788152D02*
X152709523Y-92692914D01*
X152709523Y-92692914D02*
X152709523Y-92645295D01*
X152709523Y-92645295D02*
X152661904Y-92550057D01*
X152661904Y-92550057D02*
X152614285Y-92502438D01*
X152614285Y-92502438D02*
X152519047Y-92454819D01*
X152519047Y-92454819D02*
X152328571Y-92454819D01*
X152328571Y-92454819D02*
X152233333Y-92502438D01*
X152233333Y-92502438D02*
X152185714Y-92550057D01*
X152185714Y-92550057D02*
X152138095Y-92645295D01*
X152138095Y-92645295D02*
X152138095Y-92692914D01*
X152138095Y-92692914D02*
X152185714Y-92788152D01*
X152185714Y-92788152D02*
X152233333Y-92835771D01*
X152233333Y-92835771D02*
X152328571Y-92883390D01*
X152328571Y-92883390D02*
X152519047Y-92883390D01*
X152519047Y-92883390D02*
X152614285Y-92931009D01*
X152614285Y-92931009D02*
X152661904Y-92978628D01*
X152661904Y-92978628D02*
X152709523Y-93073866D01*
X152709523Y-93073866D02*
X152709523Y-93264342D01*
X152709523Y-93264342D02*
X152661904Y-93359580D01*
X152661904Y-93359580D02*
X152614285Y-93407200D01*
X152614285Y-93407200D02*
X152519047Y-93454819D01*
X152519047Y-93454819D02*
X152328571Y-93454819D01*
X152328571Y-93454819D02*
X152233333Y-93407200D01*
X152233333Y-93407200D02*
X152185714Y-93359580D01*
X152185714Y-93359580D02*
X152138095Y-93264342D01*
X152138095Y-93264342D02*
X152138095Y-93073866D01*
X152138095Y-93073866D02*
X152185714Y-92978628D01*
X152185714Y-92978628D02*
X152233333Y-92931009D01*
X152233333Y-92931009D02*
X152328571Y-92883390D01*
X157538094Y-132954819D02*
X157538094Y-131954819D01*
X157538094Y-131954819D02*
X157299999Y-131954819D01*
X157299999Y-131954819D02*
X157157142Y-132002438D01*
X157157142Y-132002438D02*
X157061904Y-132097676D01*
X157061904Y-132097676D02*
X157014285Y-132192914D01*
X157014285Y-132192914D02*
X156966666Y-132383390D01*
X156966666Y-132383390D02*
X156966666Y-132526247D01*
X156966666Y-132526247D02*
X157014285Y-132716723D01*
X157014285Y-132716723D02*
X157061904Y-132811961D01*
X157061904Y-132811961D02*
X157157142Y-132907200D01*
X157157142Y-132907200D02*
X157299999Y-132954819D01*
X157299999Y-132954819D02*
X157538094Y-132954819D01*
X156014285Y-132954819D02*
X156585713Y-132954819D01*
X156299999Y-132954819D02*
X156299999Y-131954819D01*
X156299999Y-131954819D02*
X156395237Y-132097676D01*
X156395237Y-132097676D02*
X156490475Y-132192914D01*
X156490475Y-132192914D02*
X156585713Y-132240533D01*
X173042857Y-96554819D02*
X173376190Y-96078628D01*
X173614285Y-96554819D02*
X173614285Y-95554819D01*
X173614285Y-95554819D02*
X173233333Y-95554819D01*
X173233333Y-95554819D02*
X173138095Y-95602438D01*
X173138095Y-95602438D02*
X173090476Y-95650057D01*
X173090476Y-95650057D02*
X173042857Y-95745295D01*
X173042857Y-95745295D02*
X173042857Y-95888152D01*
X173042857Y-95888152D02*
X173090476Y-95983390D01*
X173090476Y-95983390D02*
X173138095Y-96031009D01*
X173138095Y-96031009D02*
X173233333Y-96078628D01*
X173233333Y-96078628D02*
X173614285Y-96078628D01*
X172090476Y-96554819D02*
X172661904Y-96554819D01*
X172376190Y-96554819D02*
X172376190Y-95554819D01*
X172376190Y-95554819D02*
X172471428Y-95697676D01*
X172471428Y-95697676D02*
X172566666Y-95792914D01*
X172566666Y-95792914D02*
X172661904Y-95840533D01*
X171138095Y-96554819D02*
X171709523Y-96554819D01*
X171423809Y-96554819D02*
X171423809Y-95554819D01*
X171423809Y-95554819D02*
X171519047Y-95697676D01*
X171519047Y-95697676D02*
X171614285Y-95792914D01*
X171614285Y-95792914D02*
X171709523Y-95840533D01*
X148495238Y-131712557D02*
X148590476Y-131664938D01*
X148590476Y-131664938D02*
X148685714Y-131569700D01*
X148685714Y-131569700D02*
X148828571Y-131426842D01*
X148828571Y-131426842D02*
X148923809Y-131379223D01*
X148923809Y-131379223D02*
X149019047Y-131379223D01*
X148971428Y-131617319D02*
X149066666Y-131569700D01*
X149066666Y-131569700D02*
X149161904Y-131474461D01*
X149161904Y-131474461D02*
X149209523Y-131283985D01*
X149209523Y-131283985D02*
X149209523Y-130950652D01*
X149209523Y-130950652D02*
X149161904Y-130760176D01*
X149161904Y-130760176D02*
X149066666Y-130664938D01*
X149066666Y-130664938D02*
X148971428Y-130617319D01*
X148971428Y-130617319D02*
X148780952Y-130617319D01*
X148780952Y-130617319D02*
X148685714Y-130664938D01*
X148685714Y-130664938D02*
X148590476Y-130760176D01*
X148590476Y-130760176D02*
X148542857Y-130950652D01*
X148542857Y-130950652D02*
X148542857Y-131283985D01*
X148542857Y-131283985D02*
X148590476Y-131474461D01*
X148590476Y-131474461D02*
X148685714Y-131569700D01*
X148685714Y-131569700D02*
X148780952Y-131617319D01*
X148780952Y-131617319D02*
X148971428Y-131617319D01*
X148209523Y-130617319D02*
X147590476Y-130617319D01*
X147590476Y-130617319D02*
X147923809Y-130998271D01*
X147923809Y-130998271D02*
X147780952Y-130998271D01*
X147780952Y-130998271D02*
X147685714Y-131045890D01*
X147685714Y-131045890D02*
X147638095Y-131093509D01*
X147638095Y-131093509D02*
X147590476Y-131188747D01*
X147590476Y-131188747D02*
X147590476Y-131426842D01*
X147590476Y-131426842D02*
X147638095Y-131522080D01*
X147638095Y-131522080D02*
X147685714Y-131569700D01*
X147685714Y-131569700D02*
X147780952Y-131617319D01*
X147780952Y-131617319D02*
X148066666Y-131617319D01*
X148066666Y-131617319D02*
X148161904Y-131569700D01*
X148161904Y-131569700D02*
X148209523Y-131522080D01*
X151995238Y-89150057D02*
X152090476Y-89102438D01*
X152090476Y-89102438D02*
X152185714Y-89007200D01*
X152185714Y-89007200D02*
X152328571Y-88864342D01*
X152328571Y-88864342D02*
X152423809Y-88816723D01*
X152423809Y-88816723D02*
X152519047Y-88816723D01*
X152471428Y-89054819D02*
X152566666Y-89007200D01*
X152566666Y-89007200D02*
X152661904Y-88911961D01*
X152661904Y-88911961D02*
X152709523Y-88721485D01*
X152709523Y-88721485D02*
X152709523Y-88388152D01*
X152709523Y-88388152D02*
X152661904Y-88197676D01*
X152661904Y-88197676D02*
X152566666Y-88102438D01*
X152566666Y-88102438D02*
X152471428Y-88054819D01*
X152471428Y-88054819D02*
X152280952Y-88054819D01*
X152280952Y-88054819D02*
X152185714Y-88102438D01*
X152185714Y-88102438D02*
X152090476Y-88197676D01*
X152090476Y-88197676D02*
X152042857Y-88388152D01*
X152042857Y-88388152D02*
X152042857Y-88721485D01*
X152042857Y-88721485D02*
X152090476Y-88911961D01*
X152090476Y-88911961D02*
X152185714Y-89007200D01*
X152185714Y-89007200D02*
X152280952Y-89054819D01*
X152280952Y-89054819D02*
X152471428Y-89054819D01*
X151661904Y-88150057D02*
X151614285Y-88102438D01*
X151614285Y-88102438D02*
X151519047Y-88054819D01*
X151519047Y-88054819D02*
X151280952Y-88054819D01*
X151280952Y-88054819D02*
X151185714Y-88102438D01*
X151185714Y-88102438D02*
X151138095Y-88150057D01*
X151138095Y-88150057D02*
X151090476Y-88245295D01*
X151090476Y-88245295D02*
X151090476Y-88340533D01*
X151090476Y-88340533D02*
X151138095Y-88483390D01*
X151138095Y-88483390D02*
X151709523Y-89054819D01*
X151709523Y-89054819D02*
X151090476Y-89054819D01*
X148066666Y-86359580D02*
X148114285Y-86407200D01*
X148114285Y-86407200D02*
X148257142Y-86454819D01*
X148257142Y-86454819D02*
X148352380Y-86454819D01*
X148352380Y-86454819D02*
X148495237Y-86407200D01*
X148495237Y-86407200D02*
X148590475Y-86311961D01*
X148590475Y-86311961D02*
X148638094Y-86216723D01*
X148638094Y-86216723D02*
X148685713Y-86026247D01*
X148685713Y-86026247D02*
X148685713Y-85883390D01*
X148685713Y-85883390D02*
X148638094Y-85692914D01*
X148638094Y-85692914D02*
X148590475Y-85597676D01*
X148590475Y-85597676D02*
X148495237Y-85502438D01*
X148495237Y-85502438D02*
X148352380Y-85454819D01*
X148352380Y-85454819D02*
X148257142Y-85454819D01*
X148257142Y-85454819D02*
X148114285Y-85502438D01*
X148114285Y-85502438D02*
X148066666Y-85550057D01*
X147161904Y-85454819D02*
X147638094Y-85454819D01*
X147638094Y-85454819D02*
X147685713Y-85931009D01*
X147685713Y-85931009D02*
X147638094Y-85883390D01*
X147638094Y-85883390D02*
X147542856Y-85835771D01*
X147542856Y-85835771D02*
X147304761Y-85835771D01*
X147304761Y-85835771D02*
X147209523Y-85883390D01*
X147209523Y-85883390D02*
X147161904Y-85931009D01*
X147161904Y-85931009D02*
X147114285Y-86026247D01*
X147114285Y-86026247D02*
X147114285Y-86264342D01*
X147114285Y-86264342D02*
X147161904Y-86359580D01*
X147161904Y-86359580D02*
X147209523Y-86407200D01*
X147209523Y-86407200D02*
X147304761Y-86454819D01*
X147304761Y-86454819D02*
X147542856Y-86454819D01*
X147542856Y-86454819D02*
X147638094Y-86407200D01*
X147638094Y-86407200D02*
X147685713Y-86359580D01*
X142266666Y-119454819D02*
X142599999Y-118978628D01*
X142838094Y-119454819D02*
X142838094Y-118454819D01*
X142838094Y-118454819D02*
X142457142Y-118454819D01*
X142457142Y-118454819D02*
X142361904Y-118502438D01*
X142361904Y-118502438D02*
X142314285Y-118550057D01*
X142314285Y-118550057D02*
X142266666Y-118645295D01*
X142266666Y-118645295D02*
X142266666Y-118788152D01*
X142266666Y-118788152D02*
X142314285Y-118883390D01*
X142314285Y-118883390D02*
X142361904Y-118931009D01*
X142361904Y-118931009D02*
X142457142Y-118978628D01*
X142457142Y-118978628D02*
X142838094Y-118978628D01*
X141695237Y-118883390D02*
X141790475Y-118835771D01*
X141790475Y-118835771D02*
X141838094Y-118788152D01*
X141838094Y-118788152D02*
X141885713Y-118692914D01*
X141885713Y-118692914D02*
X141885713Y-118645295D01*
X141885713Y-118645295D02*
X141838094Y-118550057D01*
X141838094Y-118550057D02*
X141790475Y-118502438D01*
X141790475Y-118502438D02*
X141695237Y-118454819D01*
X141695237Y-118454819D02*
X141504761Y-118454819D01*
X141504761Y-118454819D02*
X141409523Y-118502438D01*
X141409523Y-118502438D02*
X141361904Y-118550057D01*
X141361904Y-118550057D02*
X141314285Y-118645295D01*
X141314285Y-118645295D02*
X141314285Y-118692914D01*
X141314285Y-118692914D02*
X141361904Y-118788152D01*
X141361904Y-118788152D02*
X141409523Y-118835771D01*
X141409523Y-118835771D02*
X141504761Y-118883390D01*
X141504761Y-118883390D02*
X141695237Y-118883390D01*
X141695237Y-118883390D02*
X141790475Y-118931009D01*
X141790475Y-118931009D02*
X141838094Y-118978628D01*
X141838094Y-118978628D02*
X141885713Y-119073866D01*
X141885713Y-119073866D02*
X141885713Y-119264342D01*
X141885713Y-119264342D02*
X141838094Y-119359580D01*
X141838094Y-119359580D02*
X141790475Y-119407200D01*
X141790475Y-119407200D02*
X141695237Y-119454819D01*
X141695237Y-119454819D02*
X141504761Y-119454819D01*
X141504761Y-119454819D02*
X141409523Y-119407200D01*
X141409523Y-119407200D02*
X141361904Y-119359580D01*
X141361904Y-119359580D02*
X141314285Y-119264342D01*
X141314285Y-119264342D02*
X141314285Y-119073866D01*
X141314285Y-119073866D02*
X141361904Y-118978628D01*
X141361904Y-118978628D02*
X141409523Y-118931009D01*
X141409523Y-118931009D02*
X141504761Y-118883390D01*
X158166666Y-82804819D02*
X158499999Y-82328628D01*
X158738094Y-82804819D02*
X158738094Y-81804819D01*
X158738094Y-81804819D02*
X158357142Y-81804819D01*
X158357142Y-81804819D02*
X158261904Y-81852438D01*
X158261904Y-81852438D02*
X158214285Y-81900057D01*
X158214285Y-81900057D02*
X158166666Y-81995295D01*
X158166666Y-81995295D02*
X158166666Y-82138152D01*
X158166666Y-82138152D02*
X158214285Y-82233390D01*
X158214285Y-82233390D02*
X158261904Y-82281009D01*
X158261904Y-82281009D02*
X158357142Y-82328628D01*
X158357142Y-82328628D02*
X158738094Y-82328628D01*
X157785713Y-81900057D02*
X157738094Y-81852438D01*
X157738094Y-81852438D02*
X157642856Y-81804819D01*
X157642856Y-81804819D02*
X157404761Y-81804819D01*
X157404761Y-81804819D02*
X157309523Y-81852438D01*
X157309523Y-81852438D02*
X157261904Y-81900057D01*
X157261904Y-81900057D02*
X157214285Y-81995295D01*
X157214285Y-81995295D02*
X157214285Y-82090533D01*
X157214285Y-82090533D02*
X157261904Y-82233390D01*
X157261904Y-82233390D02*
X157833332Y-82804819D01*
X157833332Y-82804819D02*
X157214285Y-82804819D01*
X144742857Y-92259580D02*
X144790476Y-92307200D01*
X144790476Y-92307200D02*
X144933333Y-92354819D01*
X144933333Y-92354819D02*
X145028571Y-92354819D01*
X145028571Y-92354819D02*
X145171428Y-92307200D01*
X145171428Y-92307200D02*
X145266666Y-92211961D01*
X145266666Y-92211961D02*
X145314285Y-92116723D01*
X145314285Y-92116723D02*
X145361904Y-91926247D01*
X145361904Y-91926247D02*
X145361904Y-91783390D01*
X145361904Y-91783390D02*
X145314285Y-91592914D01*
X145314285Y-91592914D02*
X145266666Y-91497676D01*
X145266666Y-91497676D02*
X145171428Y-91402438D01*
X145171428Y-91402438D02*
X145028571Y-91354819D01*
X145028571Y-91354819D02*
X144933333Y-91354819D01*
X144933333Y-91354819D02*
X144790476Y-91402438D01*
X144790476Y-91402438D02*
X144742857Y-91450057D01*
X143790476Y-92354819D02*
X144361904Y-92354819D01*
X144076190Y-92354819D02*
X144076190Y-91354819D01*
X144076190Y-91354819D02*
X144171428Y-91497676D01*
X144171428Y-91497676D02*
X144266666Y-91592914D01*
X144266666Y-91592914D02*
X144361904Y-91640533D01*
X143457142Y-91354819D02*
X142838095Y-91354819D01*
X142838095Y-91354819D02*
X143171428Y-91735771D01*
X143171428Y-91735771D02*
X143028571Y-91735771D01*
X143028571Y-91735771D02*
X142933333Y-91783390D01*
X142933333Y-91783390D02*
X142885714Y-91831009D01*
X142885714Y-91831009D02*
X142838095Y-91926247D01*
X142838095Y-91926247D02*
X142838095Y-92164342D01*
X142838095Y-92164342D02*
X142885714Y-92259580D01*
X142885714Y-92259580D02*
X142933333Y-92307200D01*
X142933333Y-92307200D02*
X143028571Y-92354819D01*
X143028571Y-92354819D02*
X143314285Y-92354819D01*
X143314285Y-92354819D02*
X143409523Y-92307200D01*
X143409523Y-92307200D02*
X143457142Y-92259580D01*
X132442857Y-84954819D02*
X132776190Y-84478628D01*
X133014285Y-84954819D02*
X133014285Y-83954819D01*
X133014285Y-83954819D02*
X132633333Y-83954819D01*
X132633333Y-83954819D02*
X132538095Y-84002438D01*
X132538095Y-84002438D02*
X132490476Y-84050057D01*
X132490476Y-84050057D02*
X132442857Y-84145295D01*
X132442857Y-84145295D02*
X132442857Y-84288152D01*
X132442857Y-84288152D02*
X132490476Y-84383390D01*
X132490476Y-84383390D02*
X132538095Y-84431009D01*
X132538095Y-84431009D02*
X132633333Y-84478628D01*
X132633333Y-84478628D02*
X133014285Y-84478628D01*
X131490476Y-84954819D02*
X132061904Y-84954819D01*
X131776190Y-84954819D02*
X131776190Y-83954819D01*
X131776190Y-83954819D02*
X131871428Y-84097676D01*
X131871428Y-84097676D02*
X131966666Y-84192914D01*
X131966666Y-84192914D02*
X132061904Y-84240533D01*
X130633333Y-84288152D02*
X130633333Y-84954819D01*
X130871428Y-83907200D02*
X131109523Y-84621485D01*
X131109523Y-84621485D02*
X130490476Y-84621485D01*
X135642857Y-84954819D02*
X135976190Y-84478628D01*
X136214285Y-84954819D02*
X136214285Y-83954819D01*
X136214285Y-83954819D02*
X135833333Y-83954819D01*
X135833333Y-83954819D02*
X135738095Y-84002438D01*
X135738095Y-84002438D02*
X135690476Y-84050057D01*
X135690476Y-84050057D02*
X135642857Y-84145295D01*
X135642857Y-84145295D02*
X135642857Y-84288152D01*
X135642857Y-84288152D02*
X135690476Y-84383390D01*
X135690476Y-84383390D02*
X135738095Y-84431009D01*
X135738095Y-84431009D02*
X135833333Y-84478628D01*
X135833333Y-84478628D02*
X136214285Y-84478628D01*
X134690476Y-84954819D02*
X135261904Y-84954819D01*
X134976190Y-84954819D02*
X134976190Y-83954819D01*
X134976190Y-83954819D02*
X135071428Y-84097676D01*
X135071428Y-84097676D02*
X135166666Y-84192914D01*
X135166666Y-84192914D02*
X135261904Y-84240533D01*
X133833333Y-83954819D02*
X134023809Y-83954819D01*
X134023809Y-83954819D02*
X134119047Y-84002438D01*
X134119047Y-84002438D02*
X134166666Y-84050057D01*
X134166666Y-84050057D02*
X134261904Y-84192914D01*
X134261904Y-84192914D02*
X134309523Y-84383390D01*
X134309523Y-84383390D02*
X134309523Y-84764342D01*
X134309523Y-84764342D02*
X134261904Y-84859580D01*
X134261904Y-84859580D02*
X134214285Y-84907200D01*
X134214285Y-84907200D02*
X134119047Y-84954819D01*
X134119047Y-84954819D02*
X133928571Y-84954819D01*
X133928571Y-84954819D02*
X133833333Y-84907200D01*
X133833333Y-84907200D02*
X133785714Y-84859580D01*
X133785714Y-84859580D02*
X133738095Y-84764342D01*
X133738095Y-84764342D02*
X133738095Y-84526247D01*
X133738095Y-84526247D02*
X133785714Y-84431009D01*
X133785714Y-84431009D02*
X133833333Y-84383390D01*
X133833333Y-84383390D02*
X133928571Y-84335771D01*
X133928571Y-84335771D02*
X134119047Y-84335771D01*
X134119047Y-84335771D02*
X134214285Y-84383390D01*
X134214285Y-84383390D02*
X134261904Y-84431009D01*
X134261904Y-84431009D02*
X134309523Y-84526247D01*
X151141868Y-126254819D02*
X151475201Y-125778628D01*
X151713296Y-126254819D02*
X151713296Y-125254819D01*
X151713296Y-125254819D02*
X151332344Y-125254819D01*
X151332344Y-125254819D02*
X151237106Y-125302438D01*
X151237106Y-125302438D02*
X151189487Y-125350057D01*
X151189487Y-125350057D02*
X151141868Y-125445295D01*
X151141868Y-125445295D02*
X151141868Y-125588152D01*
X151141868Y-125588152D02*
X151189487Y-125683390D01*
X151189487Y-125683390D02*
X151237106Y-125731009D01*
X151237106Y-125731009D02*
X151332344Y-125778628D01*
X151332344Y-125778628D02*
X151713296Y-125778628D01*
X150284725Y-125588152D02*
X150284725Y-126254819D01*
X150522820Y-125207200D02*
X150760915Y-125921485D01*
X150760915Y-125921485D02*
X150141868Y-125921485D01*
X150642857Y-98354819D02*
X150976190Y-97878628D01*
X151214285Y-98354819D02*
X151214285Y-97354819D01*
X151214285Y-97354819D02*
X150833333Y-97354819D01*
X150833333Y-97354819D02*
X150738095Y-97402438D01*
X150738095Y-97402438D02*
X150690476Y-97450057D01*
X150690476Y-97450057D02*
X150642857Y-97545295D01*
X150642857Y-97545295D02*
X150642857Y-97688152D01*
X150642857Y-97688152D02*
X150690476Y-97783390D01*
X150690476Y-97783390D02*
X150738095Y-97831009D01*
X150738095Y-97831009D02*
X150833333Y-97878628D01*
X150833333Y-97878628D02*
X151214285Y-97878628D01*
X149690476Y-98354819D02*
X150261904Y-98354819D01*
X149976190Y-98354819D02*
X149976190Y-97354819D01*
X149976190Y-97354819D02*
X150071428Y-97497676D01*
X150071428Y-97497676D02*
X150166666Y-97592914D01*
X150166666Y-97592914D02*
X150261904Y-97640533D01*
X149357142Y-97354819D02*
X148690476Y-97354819D01*
X148690476Y-97354819D02*
X149119047Y-98354819D01*
X146766666Y-91154819D02*
X147099999Y-90678628D01*
X147338094Y-91154819D02*
X147338094Y-90154819D01*
X147338094Y-90154819D02*
X146957142Y-90154819D01*
X146957142Y-90154819D02*
X146861904Y-90202438D01*
X146861904Y-90202438D02*
X146814285Y-90250057D01*
X146814285Y-90250057D02*
X146766666Y-90345295D01*
X146766666Y-90345295D02*
X146766666Y-90488152D01*
X146766666Y-90488152D02*
X146814285Y-90583390D01*
X146814285Y-90583390D02*
X146861904Y-90631009D01*
X146861904Y-90631009D02*
X146957142Y-90678628D01*
X146957142Y-90678628D02*
X147338094Y-90678628D01*
X145909523Y-90154819D02*
X146099999Y-90154819D01*
X146099999Y-90154819D02*
X146195237Y-90202438D01*
X146195237Y-90202438D02*
X146242856Y-90250057D01*
X146242856Y-90250057D02*
X146338094Y-90392914D01*
X146338094Y-90392914D02*
X146385713Y-90583390D01*
X146385713Y-90583390D02*
X146385713Y-90964342D01*
X146385713Y-90964342D02*
X146338094Y-91059580D01*
X146338094Y-91059580D02*
X146290475Y-91107200D01*
X146290475Y-91107200D02*
X146195237Y-91154819D01*
X146195237Y-91154819D02*
X146004761Y-91154819D01*
X146004761Y-91154819D02*
X145909523Y-91107200D01*
X145909523Y-91107200D02*
X145861904Y-91059580D01*
X145861904Y-91059580D02*
X145814285Y-90964342D01*
X145814285Y-90964342D02*
X145814285Y-90726247D01*
X145814285Y-90726247D02*
X145861904Y-90631009D01*
X145861904Y-90631009D02*
X145909523Y-90583390D01*
X145909523Y-90583390D02*
X146004761Y-90535771D01*
X146004761Y-90535771D02*
X146195237Y-90535771D01*
X146195237Y-90535771D02*
X146290475Y-90583390D01*
X146290475Y-90583390D02*
X146338094Y-90631009D01*
X146338094Y-90631009D02*
X146385713Y-90726247D01*
X148066666Y-83454819D02*
X148399999Y-82978628D01*
X148638094Y-83454819D02*
X148638094Y-82454819D01*
X148638094Y-82454819D02*
X148257142Y-82454819D01*
X148257142Y-82454819D02*
X148161904Y-82502438D01*
X148161904Y-82502438D02*
X148114285Y-82550057D01*
X148114285Y-82550057D02*
X148066666Y-82645295D01*
X148066666Y-82645295D02*
X148066666Y-82788152D01*
X148066666Y-82788152D02*
X148114285Y-82883390D01*
X148114285Y-82883390D02*
X148161904Y-82931009D01*
X148161904Y-82931009D02*
X148257142Y-82978628D01*
X148257142Y-82978628D02*
X148638094Y-82978628D01*
X147733332Y-82454819D02*
X147066666Y-82454819D01*
X147066666Y-82454819D02*
X147495237Y-83454819D01*
X145166666Y-113804819D02*
X145499999Y-113328628D01*
X145738094Y-113804819D02*
X145738094Y-112804819D01*
X145738094Y-112804819D02*
X145357142Y-112804819D01*
X145357142Y-112804819D02*
X145261904Y-112852438D01*
X145261904Y-112852438D02*
X145214285Y-112900057D01*
X145214285Y-112900057D02*
X145166666Y-112995295D01*
X145166666Y-112995295D02*
X145166666Y-113138152D01*
X145166666Y-113138152D02*
X145214285Y-113233390D01*
X145214285Y-113233390D02*
X145261904Y-113281009D01*
X145261904Y-113281009D02*
X145357142Y-113328628D01*
X145357142Y-113328628D02*
X145738094Y-113328628D01*
X144690475Y-113804819D02*
X144499999Y-113804819D01*
X144499999Y-113804819D02*
X144404761Y-113757200D01*
X144404761Y-113757200D02*
X144357142Y-113709580D01*
X144357142Y-113709580D02*
X144261904Y-113566723D01*
X144261904Y-113566723D02*
X144214285Y-113376247D01*
X144214285Y-113376247D02*
X144214285Y-112995295D01*
X144214285Y-112995295D02*
X144261904Y-112900057D01*
X144261904Y-112900057D02*
X144309523Y-112852438D01*
X144309523Y-112852438D02*
X144404761Y-112804819D01*
X144404761Y-112804819D02*
X144595237Y-112804819D01*
X144595237Y-112804819D02*
X144690475Y-112852438D01*
X144690475Y-112852438D02*
X144738094Y-112900057D01*
X144738094Y-112900057D02*
X144785713Y-112995295D01*
X144785713Y-112995295D02*
X144785713Y-113233390D01*
X144785713Y-113233390D02*
X144738094Y-113328628D01*
X144738094Y-113328628D02*
X144690475Y-113376247D01*
X144690475Y-113376247D02*
X144595237Y-113423866D01*
X144595237Y-113423866D02*
X144404761Y-113423866D01*
X144404761Y-113423866D02*
X144309523Y-113376247D01*
X144309523Y-113376247D02*
X144261904Y-113328628D01*
X144261904Y-113328628D02*
X144214285Y-113233390D01*
X152766666Y-83454819D02*
X153099999Y-82978628D01*
X153338094Y-83454819D02*
X153338094Y-82454819D01*
X153338094Y-82454819D02*
X152957142Y-82454819D01*
X152957142Y-82454819D02*
X152861904Y-82502438D01*
X152861904Y-82502438D02*
X152814285Y-82550057D01*
X152814285Y-82550057D02*
X152766666Y-82645295D01*
X152766666Y-82645295D02*
X152766666Y-82788152D01*
X152766666Y-82788152D02*
X152814285Y-82883390D01*
X152814285Y-82883390D02*
X152861904Y-82931009D01*
X152861904Y-82931009D02*
X152957142Y-82978628D01*
X152957142Y-82978628D02*
X153338094Y-82978628D01*
X151861904Y-82454819D02*
X152338094Y-82454819D01*
X152338094Y-82454819D02*
X152385713Y-82931009D01*
X152385713Y-82931009D02*
X152338094Y-82883390D01*
X152338094Y-82883390D02*
X152242856Y-82835771D01*
X152242856Y-82835771D02*
X152004761Y-82835771D01*
X152004761Y-82835771D02*
X151909523Y-82883390D01*
X151909523Y-82883390D02*
X151861904Y-82931009D01*
X151861904Y-82931009D02*
X151814285Y-83026247D01*
X151814285Y-83026247D02*
X151814285Y-83264342D01*
X151814285Y-83264342D02*
X151861904Y-83359580D01*
X151861904Y-83359580D02*
X151909523Y-83407200D01*
X151909523Y-83407200D02*
X152004761Y-83454819D01*
X152004761Y-83454819D02*
X152242856Y-83454819D01*
X152242856Y-83454819D02*
X152338094Y-83407200D01*
X152338094Y-83407200D02*
X152385713Y-83359580D01*
X132242857Y-104654819D02*
X132576190Y-104178628D01*
X132814285Y-104654819D02*
X132814285Y-103654819D01*
X132814285Y-103654819D02*
X132433333Y-103654819D01*
X132433333Y-103654819D02*
X132338095Y-103702438D01*
X132338095Y-103702438D02*
X132290476Y-103750057D01*
X132290476Y-103750057D02*
X132242857Y-103845295D01*
X132242857Y-103845295D02*
X132242857Y-103988152D01*
X132242857Y-103988152D02*
X132290476Y-104083390D01*
X132290476Y-104083390D02*
X132338095Y-104131009D01*
X132338095Y-104131009D02*
X132433333Y-104178628D01*
X132433333Y-104178628D02*
X132814285Y-104178628D01*
X131290476Y-104654819D02*
X131861904Y-104654819D01*
X131576190Y-104654819D02*
X131576190Y-103654819D01*
X131576190Y-103654819D02*
X131671428Y-103797676D01*
X131671428Y-103797676D02*
X131766666Y-103892914D01*
X131766666Y-103892914D02*
X131861904Y-103940533D01*
X130385714Y-103654819D02*
X130861904Y-103654819D01*
X130861904Y-103654819D02*
X130909523Y-104131009D01*
X130909523Y-104131009D02*
X130861904Y-104083390D01*
X130861904Y-104083390D02*
X130766666Y-104035771D01*
X130766666Y-104035771D02*
X130528571Y-104035771D01*
X130528571Y-104035771D02*
X130433333Y-104083390D01*
X130433333Y-104083390D02*
X130385714Y-104131009D01*
X130385714Y-104131009D02*
X130338095Y-104226247D01*
X130338095Y-104226247D02*
X130338095Y-104464342D01*
X130338095Y-104464342D02*
X130385714Y-104559580D01*
X130385714Y-104559580D02*
X130433333Y-104607200D01*
X130433333Y-104607200D02*
X130528571Y-104654819D01*
X130528571Y-104654819D02*
X130766666Y-104654819D01*
X130766666Y-104654819D02*
X130861904Y-104607200D01*
X130861904Y-104607200D02*
X130909523Y-104559580D01*
X173042857Y-86554819D02*
X173376190Y-86078628D01*
X173614285Y-86554819D02*
X173614285Y-85554819D01*
X173614285Y-85554819D02*
X173233333Y-85554819D01*
X173233333Y-85554819D02*
X173138095Y-85602438D01*
X173138095Y-85602438D02*
X173090476Y-85650057D01*
X173090476Y-85650057D02*
X173042857Y-85745295D01*
X173042857Y-85745295D02*
X173042857Y-85888152D01*
X173042857Y-85888152D02*
X173090476Y-85983390D01*
X173090476Y-85983390D02*
X173138095Y-86031009D01*
X173138095Y-86031009D02*
X173233333Y-86078628D01*
X173233333Y-86078628D02*
X173614285Y-86078628D01*
X172090476Y-86554819D02*
X172661904Y-86554819D01*
X172376190Y-86554819D02*
X172376190Y-85554819D01*
X172376190Y-85554819D02*
X172471428Y-85697676D01*
X172471428Y-85697676D02*
X172566666Y-85792914D01*
X172566666Y-85792914D02*
X172661904Y-85840533D01*
X171471428Y-85554819D02*
X171376190Y-85554819D01*
X171376190Y-85554819D02*
X171280952Y-85602438D01*
X171280952Y-85602438D02*
X171233333Y-85650057D01*
X171233333Y-85650057D02*
X171185714Y-85745295D01*
X171185714Y-85745295D02*
X171138095Y-85935771D01*
X171138095Y-85935771D02*
X171138095Y-86173866D01*
X171138095Y-86173866D02*
X171185714Y-86364342D01*
X171185714Y-86364342D02*
X171233333Y-86459580D01*
X171233333Y-86459580D02*
X171280952Y-86507200D01*
X171280952Y-86507200D02*
X171376190Y-86554819D01*
X171376190Y-86554819D02*
X171471428Y-86554819D01*
X171471428Y-86554819D02*
X171566666Y-86507200D01*
X171566666Y-86507200D02*
X171614285Y-86459580D01*
X171614285Y-86459580D02*
X171661904Y-86364342D01*
X171661904Y-86364342D02*
X171709523Y-86173866D01*
X171709523Y-86173866D02*
X171709523Y-85935771D01*
X171709523Y-85935771D02*
X171661904Y-85745295D01*
X171661904Y-85745295D02*
X171614285Y-85650057D01*
X171614285Y-85650057D02*
X171566666Y-85602438D01*
X171566666Y-85602438D02*
X171471428Y-85554819D01*
%TO.C,R1*%
X146000000Y-126500000D02*
X158000000Y-126500000D01*
X146000000Y-139500000D02*
X146000000Y-126500000D01*
X146000000Y-139500000D02*
X158000000Y-139500000D01*
X151365000Y-138588000D02*
X150603000Y-139477000D01*
X152635000Y-138588000D02*
X151365000Y-138588000D01*
X153402080Y-139477000D02*
X152640080Y-138588000D01*
X158000000Y-139500000D02*
X158000000Y-126500000D01*
X157871981Y-126903500D02*
G75*
G02*
X157304019Y-126903500I-283981J0D01*
G01*
X157304019Y-126903500D02*
G75*
G02*
X157871981Y-126903500I283981J0D01*
G01*
%TO.C,C14*%
D11*
X158365000Y-92361252D02*
X158365000Y-91838748D01*
X159835000Y-92361252D02*
X159835000Y-91838748D01*
%TO.C,R3*%
X154772936Y-127265000D02*
X155227064Y-127265000D01*
X154772936Y-128735000D02*
X155227064Y-128735000D01*
%TO.C,C8*%
X146265000Y-119261252D02*
X146265000Y-118738748D01*
X147735000Y-119261252D02*
X147735000Y-118738748D01*
%TO.C,R18*%
X149772936Y-92265000D02*
X150227064Y-92265000D01*
X149772936Y-93735000D02*
X150227064Y-93735000D01*
%TO.C,D1*%
X153440000Y-130240000D02*
X153440000Y-131760000D01*
X153440000Y-131760000D02*
X154440000Y-131760000D01*
X153490000Y-130240000D02*
X153440000Y-130240000D01*
X155390000Y-130240000D02*
X154610000Y-130240000D01*
X155560000Y-131760000D02*
X156560000Y-131760000D01*
X156560000Y-130240000D02*
X156510000Y-130240000D01*
X156560000Y-131760000D02*
X156560000Y-130240000D01*
X154950000Y-129940000D02*
X154620000Y-129700000D01*
X154950000Y-129460000D01*
X154950000Y-129940000D01*
G36*
X154950000Y-129940000D02*
G01*
X154620000Y-129700000D01*
X154950000Y-129460000D01*
X154950000Y-129940000D01*
G37*
%TO.C,R11*%
X169265000Y-96227064D02*
X169265000Y-95772936D01*
X170735000Y-96227064D02*
X170735000Y-95772936D01*
%TO.C,Q3*%
X149440000Y-130402500D02*
X149440000Y-131922500D01*
X149440000Y-131922500D02*
X150440000Y-131922500D01*
X149490000Y-130402500D02*
X149440000Y-130402500D01*
X151390000Y-130402500D02*
X150610000Y-130402500D01*
X151560000Y-131922500D02*
X152560000Y-131922500D01*
X152560000Y-130402500D02*
X152510000Y-130402500D01*
X152560000Y-131922500D02*
X152560000Y-130402500D01*
X150950000Y-130102500D02*
X150620000Y-129862500D01*
X150950000Y-129622500D01*
X150950000Y-130102500D01*
G36*
X150950000Y-130102500D02*
G01*
X150620000Y-129862500D01*
X150950000Y-129622500D01*
X150950000Y-130102500D01*
G37*
%TO.C,Q2*%
X149177500Y-88390000D02*
X149177500Y-88440000D01*
X149177500Y-89560000D02*
X149177500Y-90340000D01*
X149177500Y-91460000D02*
X149177500Y-91510000D01*
X149177500Y-91510000D02*
X150697500Y-91510000D01*
X150697500Y-88390000D02*
X149177500Y-88390000D01*
X150697500Y-89390000D02*
X150697500Y-88390000D01*
X150697500Y-91510000D02*
X150697500Y-90510000D01*
X148637500Y-90330000D02*
X148397500Y-90000000D01*
X148877500Y-90000000D01*
X148637500Y-90330000D01*
G36*
X148637500Y-90330000D02*
G01*
X148397500Y-90000000D01*
X148877500Y-90000000D01*
X148637500Y-90330000D01*
G37*
%TO.C,C5*%
X144738748Y-85265000D02*
X145261252Y-85265000D01*
X144738748Y-86735000D02*
X145261252Y-86735000D01*
%TO.C,R8*%
X143265000Y-118772936D02*
X143265000Y-119227064D01*
X144735000Y-118772936D02*
X144735000Y-119227064D01*
%TO.C,R2*%
X158227064Y-83265000D02*
X157772936Y-83265000D01*
X158227064Y-84735000D02*
X157772936Y-84735000D01*
%TO.C,C13*%
X143365000Y-94861252D02*
X143365000Y-94338748D01*
X144835000Y-94861252D02*
X144835000Y-94338748D01*
%TO.C,R14*%
X131265000Y-87772936D02*
X131265000Y-88227064D01*
X132735000Y-87772936D02*
X132735000Y-88227064D01*
%TO.C,R16*%
X134265000Y-87772936D02*
X134265000Y-88227064D01*
X135735000Y-87772936D02*
X135735000Y-88227064D01*
%TO.C,R4*%
X151227064Y-127265000D02*
X150772936Y-127265000D01*
X151227064Y-128735000D02*
X150772936Y-128735000D01*
%TO.C,R17*%
X150227064Y-95265000D02*
X149772936Y-95265000D01*
X150227064Y-96735000D02*
X149772936Y-96735000D01*
%TO.C,R6*%
X144772936Y-88265000D02*
X145227064Y-88265000D01*
X144772936Y-89735000D02*
X145227064Y-89735000D01*
%TO.C,R7*%
X145227064Y-82265000D02*
X144772936Y-82265000D01*
X145227064Y-83735000D02*
X144772936Y-83735000D01*
%TO.C,R9*%
X145227064Y-114265000D02*
X144772936Y-114265000D01*
X145227064Y-115735000D02*
X144772936Y-115735000D01*
%TO.C,R5*%
X153765000Y-82772936D02*
X153765000Y-83227064D01*
X155235000Y-82772936D02*
X155235000Y-83227064D01*
%TO.C,R15*%
X133265000Y-105227064D02*
X133265000Y-104772936D01*
X134735000Y-105227064D02*
X134735000Y-104772936D01*
%TO.C,R10*%
X169265000Y-86227064D02*
X169265000Y-85772936D01*
X170735000Y-86227064D02*
X170735000Y-85772936D01*
%TD*%
D12*
%TO.C,W8*%
X170000000Y-90000000D03*
%TD*%
%TO.C,W9*%
X170000000Y-100000000D03*
%TD*%
D13*
%TO.C,W2*%
X171300000Y-129300000D03*
%TD*%
D14*
%TO.C,W7*%
X143000000Y-134000000D03*
%TD*%
D13*
%TO.C,W3*%
X132800000Y-129500000D03*
%TD*%
D14*
%TO.C,W1*%
X165600000Y-133600000D03*
%TD*%
%TO.C,W6*%
X140000000Y-137700000D03*
%TD*%
%TO.C,W4*%
X138900000Y-134250000D03*
%TD*%
%TO.C,W5*%
X165000000Y-137700000D03*
%TD*%
%LPC*%
D15*
%TO.C,MCU1*%
X139745186Y-74443999D03*
X139745186Y-121393999D03*
X164255186Y-74443999D03*
X164255186Y-121393999D03*
D16*
X139275186Y-77873999D03*
X139275186Y-80413999D03*
X139275186Y-82953999D03*
X139275186Y-85493999D03*
X139275186Y-88033999D03*
X139275186Y-90573999D03*
X139275186Y-93113999D03*
X139275186Y-95653999D03*
X139275186Y-98193999D03*
X139275186Y-100733999D03*
X139275186Y-103273999D03*
X139275186Y-105813999D03*
X139275186Y-108353999D03*
X139275186Y-110893999D03*
D17*
X139275186Y-113433999D03*
X164675186Y-113433999D03*
D16*
X164675186Y-110893999D03*
X164675186Y-108353999D03*
X164675186Y-105813999D03*
X164675186Y-103273999D03*
X164675186Y-100733999D03*
X164675186Y-98193999D03*
X164675186Y-95653999D03*
X164675186Y-93113999D03*
X164675186Y-90573999D03*
X164675186Y-88033999D03*
X164675186Y-85493999D03*
X164675186Y-82953999D03*
X164675186Y-80413999D03*
X164675186Y-77873999D03*
%TD*%
D18*
%TO.C,W8*%
X170000000Y-90000000D03*
%TD*%
%TO.C,W9*%
X170000000Y-100000000D03*
%TD*%
D19*
%TO.C,W2*%
X171300000Y-129300000D03*
%TD*%
D20*
%TO.C,W7*%
X143000000Y-134000000D03*
%TD*%
D21*
%TO.C,R1*%
X155250000Y-134500000D03*
X147750000Y-127900000D03*
D22*
X148250000Y-138100000D03*
X156250000Y-138100000D03*
X148250000Y-135100000D03*
%TD*%
D19*
%TO.C,W3*%
X132800000Y-129500000D03*
%TD*%
D23*
%TO.C,Ref\u002A\u002A*%
X170000000Y-80000000D03*
%TD*%
D24*
%TO.C,D2*%
X134000000Y-92920000D03*
D25*
X134000000Y-95460000D03*
X134000000Y-98000000D03*
X134000000Y-100540000D03*
%TD*%
D20*
%TO.C,W1*%
X165600000Y-133600000D03*
%TD*%
%TO.C,W6*%
X140000000Y-137700000D03*
%TD*%
D23*
%TO.C,Ref\u002A\u002A*%
X134000000Y-80000000D03*
%TD*%
D20*
%TO.C,W4*%
X138900000Y-134250000D03*
%TD*%
D23*
%TO.C,Ref\u002A\u002A*%
X134000000Y-136000000D03*
%TD*%
D20*
%TO.C,W5*%
X165000000Y-137700000D03*
%TD*%
D23*
%TO.C,Ref\u002A\u002A*%
X170000000Y-136000000D03*
%TD*%
D24*
%TO.C,JP1*%
X161000000Y-137540000D03*
D25*
X161000000Y-135000000D03*
X161000000Y-132460000D03*
%TD*%
D26*
%TO.C,C14*%
X159100000Y-93137500D03*
X159100000Y-91062500D03*
%TD*%
D27*
%TO.C,R3*%
X154000000Y-128000000D03*
X156000000Y-128000000D03*
%TD*%
D26*
%TO.C,C8*%
X147000000Y-120037500D03*
X147000000Y-117962500D03*
%TD*%
D27*
%TO.C,R18*%
X149000000Y-93000000D03*
X151000000Y-93000000D03*
%TD*%
D28*
%TO.C,D1*%
X154050000Y-130062500D03*
X155950000Y-130062500D03*
X155000000Y-131937500D03*
%TD*%
D29*
%TO.C,R11*%
X170000000Y-97000000D03*
X170000000Y-95000000D03*
%TD*%
D28*
%TO.C,Q3*%
X150050000Y-130225000D03*
X151950000Y-130225000D03*
X151000000Y-132100000D03*
%TD*%
D30*
%TO.C,Q2*%
X149000000Y-90900000D03*
X149000000Y-89000000D03*
X150875000Y-89950000D03*
%TD*%
D31*
%TO.C,C5*%
X143962500Y-86000000D03*
X146037500Y-86000000D03*
%TD*%
D32*
%TO.C,R8*%
X144000000Y-118000000D03*
X144000000Y-120000000D03*
%TD*%
D33*
%TO.C,R2*%
X159000000Y-84000000D03*
X157000000Y-84000000D03*
%TD*%
D26*
%TO.C,C13*%
X144100000Y-95637500D03*
X144100000Y-93562500D03*
%TD*%
D32*
%TO.C,R14*%
X132000000Y-87000000D03*
X132000000Y-89000000D03*
%TD*%
%TO.C,R16*%
X135000000Y-87000000D03*
X135000000Y-89000000D03*
%TD*%
D33*
%TO.C,R4*%
X152000000Y-128000000D03*
X150000000Y-128000000D03*
%TD*%
%TO.C,R17*%
X151000000Y-96000000D03*
X149000000Y-96000000D03*
%TD*%
D27*
%TO.C,R6*%
X144000000Y-89000000D03*
X146000000Y-89000000D03*
%TD*%
D33*
%TO.C,R7*%
X146000000Y-83000000D03*
X144000000Y-83000000D03*
%TD*%
%TO.C,R9*%
X146000000Y-115000000D03*
X144000000Y-115000000D03*
%TD*%
D32*
%TO.C,R5*%
X154500000Y-82000000D03*
X154500000Y-84000000D03*
%TD*%
D29*
%TO.C,R15*%
X134000000Y-106000000D03*
X134000000Y-104000000D03*
%TD*%
%TO.C,R10*%
X170000000Y-87000000D03*
X170000000Y-85000000D03*
%TD*%
%LPD*%
M02*
