%TF.GenerationSoftware,KiCad,Pcbnew,10.0.1*%
%TF.CreationDate,2026-05-03T10:31:16-05:00*%
%TF.ProjectId,ESPDrive,45535044-7269-4766-952e-6b696361645f,rev?*%
%TF.SameCoordinates,Original*%
%TF.FileFunction,Legend,Top*%
%TF.FilePolarity,Positive*%
%FSLAX46Y46*%
G04 Gerber Fmt 4.6, Leading zero omitted, Abs format (unit mm)*
G04 Created by KiCad (PCBNEW 10.0.1) date 2026-05-03 10:31:16*
%MOMM*%
%LPD*%
G01*
G04 APERTURE LIST*
G04 Aperture macros list*
%AMRoundRect*
0 Rectangle with rounded corners*
0 $1 Rounding radius*
0 $2 $3 $4 $5 $6 $7 $8 $9 X,Y pos of 4 corners*
0 Add a 4 corners polygon primitive as box body*
4,1,4,$2,$3,$4,$5,$6,$7,$8,$9,$2,$3,0*
0 Add four circle primitives for the rounded corners*
1,1,$1+$1,$2,$3*
1,1,$1+$1,$4,$5*
1,1,$1+$1,$6,$7*
1,1,$1+$1,$8,$9*
0 Add four rect primitives between the rounded corners*
20,1,$1+$1,$2,$3,$4,$5,0*
20,1,$1+$1,$4,$5,$6,$7,0*
20,1,$1+$1,$6,$7,$8,$9,0*
20,1,$1+$1,$8,$9,$2,$3,0*%
G04 Aperture macros list end*
%ADD10C,0.150000*%
%ADD11C,0.120000*%
%ADD12C,0.127000*%
%ADD13C,0.200000*%
%ADD14C,2.220000*%
%ADD15C,2.490000*%
%ADD16C,2.830000*%
%ADD17RoundRect,0.250000X-0.650000X0.412500X-0.650000X-0.412500X0.650000X-0.412500X0.650000X0.412500X0*%
%ADD18RoundRect,0.250000X-0.475000X0.337500X-0.475000X-0.337500X0.475000X-0.337500X0.475000X0.337500X0*%
%ADD19RoundRect,0.250000X0.412500X1.100000X-0.412500X1.100000X-0.412500X-1.100000X0.412500X-1.100000X0*%
%ADD20C,3.000000*%
%ADD21C,2.204000*%
%ADD22RoundRect,0.102000X1.000000X1.000000X-1.000000X1.000000X-1.000000X-1.000000X1.000000X-1.000000X0*%
%ADD23RoundRect,0.150000X-0.150000X0.512500X-0.150000X-0.512500X0.150000X-0.512500X0.150000X0.512500X0*%
%ADD24C,2.240000*%
%ADD25RoundRect,0.250001X-1.499999X0.949999X-1.499999X-0.949999X1.499999X-0.949999X1.499999X0.949999X0*%
%ADD26RoundRect,0.250000X-0.412500X-1.100000X0.412500X-1.100000X0.412500X1.100000X-0.412500X1.100000X0*%
%ADD27RoundRect,0.250000X0.475000X-0.337500X0.475000X0.337500X-0.475000X0.337500X-0.475000X-0.337500X0*%
%ADD28C,2.510000*%
%ADD29C,2.850000*%
%ADD30C,1.300000*%
%ADD31C,2.300000*%
%ADD32C,4.520000*%
%ADD33R,1.700000X1.700000*%
%ADD34C,1.700000*%
%ADD35RoundRect,0.249999X-0.750001X-0.640001X0.750001X-0.640001X0.750001X0.640001X-0.750001X0.640001X0*%
%ADD36RoundRect,0.250000X-0.450000X0.350000X-0.450000X-0.350000X0.450000X-0.350000X0.450000X0.350000X0*%
%ADD37RoundRect,0.250000X0.450000X-0.350000X0.450000X0.350000X-0.450000X0.350000X-0.450000X-0.350000X0*%
G04 APERTURE END LIST*
D10*
X158900000Y-132400000D02*
X159400000Y-132400000D01*
X158900000Y-132500000D02*
X158900000Y-132400000D01*
X158900000Y-134700000D02*
X158200000Y-134700000D01*
X158900000Y-135100000D02*
X158900000Y-134300000D01*
X158900000Y-137800000D02*
X158900000Y-137900000D01*
X158900000Y-137900000D02*
X160050000Y-137900000D01*
X158432735Y-134109529D02*
X159232735Y-133842862D01*
X159232735Y-133842862D02*
X158432735Y-133576196D01*
X158927973Y-133309529D02*
X158927973Y-132700006D01*
X159232735Y-133004767D02*
X158623211Y-133004767D01*
X159187324Y-137053354D02*
X159225420Y-137091450D01*
X159225420Y-137091450D02*
X159263515Y-137205735D01*
X159263515Y-137205735D02*
X159263515Y-137281926D01*
X159263515Y-137281926D02*
X159225420Y-137396212D01*
X159225420Y-137396212D02*
X159149229Y-137472402D01*
X159149229Y-137472402D02*
X159073039Y-137510497D01*
X159073039Y-137510497D02*
X158920658Y-137548593D01*
X158920658Y-137548593D02*
X158806372Y-137548593D01*
X158806372Y-137548593D02*
X158653991Y-137510497D01*
X158653991Y-137510497D02*
X158577800Y-137472402D01*
X158577800Y-137472402D02*
X158501610Y-137396212D01*
X158501610Y-137396212D02*
X158463515Y-137281926D01*
X158463515Y-137281926D02*
X158463515Y-137205735D01*
X158463515Y-137205735D02*
X158501610Y-137091450D01*
X158501610Y-137091450D02*
X158539705Y-137053354D01*
X158463515Y-136558116D02*
X158463515Y-136405735D01*
X158463515Y-136405735D02*
X158501610Y-136329545D01*
X158501610Y-136329545D02*
X158577800Y-136253354D01*
X158577800Y-136253354D02*
X158730181Y-136215259D01*
X158730181Y-136215259D02*
X158996848Y-136215259D01*
X158996848Y-136215259D02*
X159149229Y-136253354D01*
X159149229Y-136253354D02*
X159225420Y-136329545D01*
X159225420Y-136329545D02*
X159263515Y-136405735D01*
X159263515Y-136405735D02*
X159263515Y-136558116D01*
X159263515Y-136558116D02*
X159225420Y-136634307D01*
X159225420Y-136634307D02*
X159149229Y-136710497D01*
X159149229Y-136710497D02*
X158996848Y-136748593D01*
X158996848Y-136748593D02*
X158730181Y-136748593D01*
X158730181Y-136748593D02*
X158577800Y-136710497D01*
X158577800Y-136710497D02*
X158501610Y-136634307D01*
X158501610Y-136634307D02*
X158463515Y-136558116D01*
X159263515Y-135872402D02*
X158463515Y-135872402D01*
X158463515Y-135872402D02*
X159034943Y-135605736D01*
X159034943Y-135605736D02*
X158463515Y-135339069D01*
X158463515Y-135339069D02*
X159263515Y-135339069D01*
X130845943Y-133322765D02*
X130160229Y-133322765D01*
X130503086Y-133322765D02*
X130503086Y-132122765D01*
X130503086Y-132122765D02*
X130388800Y-132294194D01*
X130388800Y-132294194D02*
X130274515Y-132408480D01*
X130274515Y-132408480D02*
X130160229Y-132465623D01*
X131303086Y-132237051D02*
X131360229Y-132179908D01*
X131360229Y-132179908D02*
X131474515Y-132122765D01*
X131474515Y-132122765D02*
X131760229Y-132122765D01*
X131760229Y-132122765D02*
X131874515Y-132179908D01*
X131874515Y-132179908D02*
X131931657Y-132237051D01*
X131931657Y-132237051D02*
X131988800Y-132351337D01*
X131988800Y-132351337D02*
X131988800Y-132465623D01*
X131988800Y-132465623D02*
X131931657Y-132637051D01*
X131931657Y-132637051D02*
X131245943Y-133322765D01*
X131245943Y-133322765D02*
X131988800Y-133322765D01*
X132331657Y-132122765D02*
X132731657Y-133322765D01*
X132731657Y-133322765D02*
X133131657Y-132122765D01*
X134388800Y-132065623D02*
X133360228Y-133608480D01*
X135360228Y-132122765D02*
X134788800Y-132122765D01*
X134788800Y-132122765D02*
X134731657Y-132694194D01*
X134731657Y-132694194D02*
X134788800Y-132637051D01*
X134788800Y-132637051D02*
X134903086Y-132579908D01*
X134903086Y-132579908D02*
X135188800Y-132579908D01*
X135188800Y-132579908D02*
X135303086Y-132637051D01*
X135303086Y-132637051D02*
X135360228Y-132694194D01*
X135360228Y-132694194D02*
X135417371Y-132808480D01*
X135417371Y-132808480D02*
X135417371Y-133094194D01*
X135417371Y-133094194D02*
X135360228Y-133208480D01*
X135360228Y-133208480D02*
X135303086Y-133265623D01*
X135303086Y-133265623D02*
X135188800Y-133322765D01*
X135188800Y-133322765D02*
X134903086Y-133322765D01*
X134903086Y-133322765D02*
X134788800Y-133265623D01*
X134788800Y-133265623D02*
X134731657Y-133208480D01*
X135760228Y-132122765D02*
X136160228Y-133322765D01*
X136160228Y-133322765D02*
X136560228Y-132122765D01*
X136612969Y-135645342D02*
X137012969Y-136845342D01*
X137012969Y-136845342D02*
X137412969Y-135645342D01*
X137812969Y-136388200D02*
X138727255Y-136388200D01*
X141884398Y-139345342D02*
X141884398Y-138145342D01*
X141884398Y-138145342D02*
X142570112Y-139345342D01*
X142570112Y-139345342D02*
X142570112Y-138145342D01*
X143827255Y-139231057D02*
X143770112Y-139288200D01*
X143770112Y-139288200D02*
X143598684Y-139345342D01*
X143598684Y-139345342D02*
X143484398Y-139345342D01*
X143484398Y-139345342D02*
X143312969Y-139288200D01*
X143312969Y-139288200D02*
X143198684Y-139173914D01*
X143198684Y-139173914D02*
X143141541Y-139059628D01*
X143141541Y-139059628D02*
X143084398Y-138831057D01*
X143084398Y-138831057D02*
X143084398Y-138659628D01*
X143084398Y-138659628D02*
X143141541Y-138431057D01*
X143141541Y-138431057D02*
X143198684Y-138316771D01*
X143198684Y-138316771D02*
X143312969Y-138202485D01*
X143312969Y-138202485D02*
X143484398Y-138145342D01*
X143484398Y-138145342D02*
X143598684Y-138145342D01*
X143598684Y-138145342D02*
X143770112Y-138202485D01*
X143770112Y-138202485D02*
X143827255Y-138259628D01*
X142684398Y-136945342D02*
X142684398Y-135745342D01*
X142684398Y-135745342D02*
X143370112Y-136945342D01*
X143370112Y-136945342D02*
X143370112Y-135745342D01*
X144170112Y-135745342D02*
X144398684Y-135745342D01*
X144398684Y-135745342D02*
X144512969Y-135802485D01*
X144512969Y-135802485D02*
X144627255Y-135916771D01*
X144627255Y-135916771D02*
X144684398Y-136145342D01*
X144684398Y-136145342D02*
X144684398Y-136545342D01*
X144684398Y-136545342D02*
X144627255Y-136773914D01*
X144627255Y-136773914D02*
X144512969Y-136888200D01*
X144512969Y-136888200D02*
X144398684Y-136945342D01*
X144398684Y-136945342D02*
X144170112Y-136945342D01*
X144170112Y-136945342D02*
X144055827Y-136888200D01*
X144055827Y-136888200D02*
X143941541Y-136773914D01*
X143941541Y-136773914D02*
X143884398Y-136545342D01*
X143884398Y-136545342D02*
X143884398Y-136145342D01*
X143884398Y-136145342D02*
X143941541Y-135916771D01*
X143941541Y-135916771D02*
X144055827Y-135802485D01*
X144055827Y-135802485D02*
X144170112Y-135745342D01*
X167220112Y-139581057D02*
X167162969Y-139638200D01*
X167162969Y-139638200D02*
X166991541Y-139695342D01*
X166991541Y-139695342D02*
X166877255Y-139695342D01*
X166877255Y-139695342D02*
X166705826Y-139638200D01*
X166705826Y-139638200D02*
X166591541Y-139523914D01*
X166591541Y-139523914D02*
X166534398Y-139409628D01*
X166534398Y-139409628D02*
X166477255Y-139181057D01*
X166477255Y-139181057D02*
X166477255Y-139009628D01*
X166477255Y-139009628D02*
X166534398Y-138781057D01*
X166534398Y-138781057D02*
X166591541Y-138666771D01*
X166591541Y-138666771D02*
X166705826Y-138552485D01*
X166705826Y-138552485D02*
X166877255Y-138495342D01*
X166877255Y-138495342D02*
X166991541Y-138495342D01*
X166991541Y-138495342D02*
X167162969Y-138552485D01*
X167162969Y-138552485D02*
X167220112Y-138609628D01*
X167962969Y-138495342D02*
X168191541Y-138495342D01*
X168191541Y-138495342D02*
X168305826Y-138552485D01*
X168305826Y-138552485D02*
X168420112Y-138666771D01*
X168420112Y-138666771D02*
X168477255Y-138895342D01*
X168477255Y-138895342D02*
X168477255Y-139295342D01*
X168477255Y-139295342D02*
X168420112Y-139523914D01*
X168420112Y-139523914D02*
X168305826Y-139638200D01*
X168305826Y-139638200D02*
X168191541Y-139695342D01*
X168191541Y-139695342D02*
X167962969Y-139695342D01*
X167962969Y-139695342D02*
X167848684Y-139638200D01*
X167848684Y-139638200D02*
X167734398Y-139523914D01*
X167734398Y-139523914D02*
X167677255Y-139295342D01*
X167677255Y-139295342D02*
X167677255Y-138895342D01*
X167677255Y-138895342D02*
X167734398Y-138666771D01*
X167734398Y-138666771D02*
X167848684Y-138552485D01*
X167848684Y-138552485D02*
X167962969Y-138495342D01*
X168991541Y-139695342D02*
X168991541Y-138495342D01*
X168991541Y-138495342D02*
X169391541Y-139352485D01*
X169391541Y-139352485D02*
X169791541Y-138495342D01*
X169791541Y-138495342D02*
X169791541Y-139695342D01*
X167912969Y-132145342D02*
X168312969Y-133345342D01*
X168312969Y-133345342D02*
X168712969Y-132145342D01*
X169112969Y-132888200D02*
X170027255Y-132888200D01*
X169570112Y-133345342D02*
X169570112Y-132431057D01*
X169770112Y-130845342D02*
X170512969Y-130845342D01*
X170512969Y-130845342D02*
X170112969Y-131302485D01*
X170112969Y-131302485D02*
X170284398Y-131302485D01*
X170284398Y-131302485D02*
X170398684Y-131359628D01*
X170398684Y-131359628D02*
X170455826Y-131416771D01*
X170455826Y-131416771D02*
X170512969Y-131531057D01*
X170512969Y-131531057D02*
X170512969Y-131816771D01*
X170512969Y-131816771D02*
X170455826Y-131931057D01*
X170455826Y-131931057D02*
X170398684Y-131988200D01*
X170398684Y-131988200D02*
X170284398Y-132045342D01*
X170284398Y-132045342D02*
X169941541Y-132045342D01*
X169941541Y-132045342D02*
X169827255Y-131988200D01*
X169827255Y-131988200D02*
X169770112Y-131931057D01*
X170855826Y-130845342D02*
X171255826Y-132045342D01*
X171255826Y-132045342D02*
X171655826Y-130845342D01*
X171941540Y-130845342D02*
X172684397Y-130845342D01*
X172684397Y-130845342D02*
X172284397Y-131302485D01*
X172284397Y-131302485D02*
X172455826Y-131302485D01*
X172455826Y-131302485D02*
X172570112Y-131359628D01*
X172570112Y-131359628D02*
X172627254Y-131416771D01*
X172627254Y-131416771D02*
X172684397Y-131531057D01*
X172684397Y-131531057D02*
X172684397Y-131816771D01*
X172684397Y-131816771D02*
X172627254Y-131931057D01*
X172627254Y-131931057D02*
X172570112Y-131988200D01*
X172570112Y-131988200D02*
X172455826Y-132045342D01*
X172455826Y-132045342D02*
X172112969Y-132045342D01*
X172112969Y-132045342D02*
X171998683Y-131988200D01*
X171998683Y-131988200D02*
X171941540Y-131931057D01*
X131485714Y-92918771D02*
X131657142Y-92975914D01*
X131657142Y-92975914D02*
X131714285Y-93033057D01*
X131714285Y-93033057D02*
X131771428Y-93147342D01*
X131771428Y-93147342D02*
X131771428Y-93318771D01*
X131771428Y-93318771D02*
X131714285Y-93433057D01*
X131714285Y-93433057D02*
X131657142Y-93490200D01*
X131657142Y-93490200D02*
X131542857Y-93547342D01*
X131542857Y-93547342D02*
X131085714Y-93547342D01*
X131085714Y-93547342D02*
X131085714Y-92347342D01*
X131085714Y-92347342D02*
X131485714Y-92347342D01*
X131485714Y-92347342D02*
X131600000Y-92404485D01*
X131600000Y-92404485D02*
X131657142Y-92461628D01*
X131657142Y-92461628D02*
X131714285Y-92575914D01*
X131714285Y-92575914D02*
X131714285Y-92690200D01*
X131714285Y-92690200D02*
X131657142Y-92804485D01*
X131657142Y-92804485D02*
X131600000Y-92861628D01*
X131600000Y-92861628D02*
X131485714Y-92918771D01*
X131485714Y-92918771D02*
X131085714Y-92918771D01*
X131771428Y-96047342D02*
X131371428Y-95475914D01*
X131085714Y-96047342D02*
X131085714Y-94847342D01*
X131085714Y-94847342D02*
X131542857Y-94847342D01*
X131542857Y-94847342D02*
X131657142Y-94904485D01*
X131657142Y-94904485D02*
X131714285Y-94961628D01*
X131714285Y-94961628D02*
X131771428Y-95075914D01*
X131771428Y-95075914D02*
X131771428Y-95247342D01*
X131771428Y-95247342D02*
X131714285Y-95361628D01*
X131714285Y-95361628D02*
X131657142Y-95418771D01*
X131657142Y-95418771D02*
X131542857Y-95475914D01*
X131542857Y-95475914D02*
X131085714Y-95475914D01*
X130942857Y-97990200D02*
X131857143Y-97990200D01*
X131714285Y-99904485D02*
X131600000Y-99847342D01*
X131600000Y-99847342D02*
X131428571Y-99847342D01*
X131428571Y-99847342D02*
X131257142Y-99904485D01*
X131257142Y-99904485D02*
X131142857Y-100018771D01*
X131142857Y-100018771D02*
X131085714Y-100133057D01*
X131085714Y-100133057D02*
X131028571Y-100361628D01*
X131028571Y-100361628D02*
X131028571Y-100533057D01*
X131028571Y-100533057D02*
X131085714Y-100761628D01*
X131085714Y-100761628D02*
X131142857Y-100875914D01*
X131142857Y-100875914D02*
X131257142Y-100990200D01*
X131257142Y-100990200D02*
X131428571Y-101047342D01*
X131428571Y-101047342D02*
X131542857Y-101047342D01*
X131542857Y-101047342D02*
X131714285Y-100990200D01*
X131714285Y-100990200D02*
X131771428Y-100933057D01*
X131771428Y-100933057D02*
X131771428Y-100533057D01*
X131771428Y-100533057D02*
X131542857Y-100533057D01*
X133228571Y-90545342D02*
X132657143Y-90545342D01*
X132657143Y-90545342D02*
X132657143Y-89345342D01*
X133628572Y-89916771D02*
X134028572Y-89916771D01*
X134200000Y-90545342D02*
X133628572Y-90545342D01*
X133628572Y-90545342D02*
X133628572Y-89345342D01*
X133628572Y-89345342D02*
X134200000Y-89345342D01*
X134714286Y-90545342D02*
X134714286Y-89345342D01*
X134714286Y-89345342D02*
X135000000Y-89345342D01*
X135000000Y-89345342D02*
X135171429Y-89402485D01*
X135171429Y-89402485D02*
X135285714Y-89516771D01*
X135285714Y-89516771D02*
X135342857Y-89631057D01*
X135342857Y-89631057D02*
X135400000Y-89859628D01*
X135400000Y-89859628D02*
X135400000Y-90031057D01*
X135400000Y-90031057D02*
X135342857Y-90259628D01*
X135342857Y-90259628D02*
X135285714Y-90373914D01*
X135285714Y-90373914D02*
X135171429Y-90488200D01*
X135171429Y-90488200D02*
X135000000Y-90545342D01*
X135000000Y-90545342D02*
X134714286Y-90545342D01*
X169342857Y-86145342D02*
X169571429Y-86145342D01*
X169571429Y-86145342D02*
X169685714Y-86202485D01*
X169685714Y-86202485D02*
X169800000Y-86316771D01*
X169800000Y-86316771D02*
X169857143Y-86545342D01*
X169857143Y-86545342D02*
X169857143Y-86945342D01*
X169857143Y-86945342D02*
X169800000Y-87173914D01*
X169800000Y-87173914D02*
X169685714Y-87288200D01*
X169685714Y-87288200D02*
X169571429Y-87345342D01*
X169571429Y-87345342D02*
X169342857Y-87345342D01*
X169342857Y-87345342D02*
X169228572Y-87288200D01*
X169228572Y-87288200D02*
X169114286Y-87173914D01*
X169114286Y-87173914D02*
X169057143Y-86945342D01*
X169057143Y-86945342D02*
X169057143Y-86545342D01*
X169057143Y-86545342D02*
X169114286Y-86316771D01*
X169114286Y-86316771D02*
X169228572Y-86202485D01*
X169228572Y-86202485D02*
X169342857Y-86145342D01*
X170371429Y-86545342D02*
X170371429Y-87345342D01*
X170371429Y-86659628D02*
X170428572Y-86602485D01*
X170428572Y-86602485D02*
X170542857Y-86545342D01*
X170542857Y-86545342D02*
X170714286Y-86545342D01*
X170714286Y-86545342D02*
X170828572Y-86602485D01*
X170828572Y-86602485D02*
X170885715Y-86716771D01*
X170885715Y-86716771D02*
X170885715Y-87345342D01*
X168271428Y-97845342D02*
X167700000Y-97845342D01*
X167700000Y-97845342D02*
X167700000Y-96645342D01*
X168671429Y-97845342D02*
X168671429Y-97045342D01*
X168671429Y-96645342D02*
X168614286Y-96702485D01*
X168614286Y-96702485D02*
X168671429Y-96759628D01*
X168671429Y-96759628D02*
X168728572Y-96702485D01*
X168728572Y-96702485D02*
X168671429Y-96645342D01*
X168671429Y-96645342D02*
X168671429Y-96759628D01*
X169757144Y-97045342D02*
X169757144Y-98016771D01*
X169757144Y-98016771D02*
X169700001Y-98131057D01*
X169700001Y-98131057D02*
X169642858Y-98188200D01*
X169642858Y-98188200D02*
X169528572Y-98245342D01*
X169528572Y-98245342D02*
X169357144Y-98245342D01*
X169357144Y-98245342D02*
X169242858Y-98188200D01*
X169757144Y-97788200D02*
X169642858Y-97845342D01*
X169642858Y-97845342D02*
X169414286Y-97845342D01*
X169414286Y-97845342D02*
X169300001Y-97788200D01*
X169300001Y-97788200D02*
X169242858Y-97731057D01*
X169242858Y-97731057D02*
X169185715Y-97616771D01*
X169185715Y-97616771D02*
X169185715Y-97273914D01*
X169185715Y-97273914D02*
X169242858Y-97159628D01*
X169242858Y-97159628D02*
X169300001Y-97102485D01*
X169300001Y-97102485D02*
X169414286Y-97045342D01*
X169414286Y-97045342D02*
X169642858Y-97045342D01*
X169642858Y-97045342D02*
X169757144Y-97102485D01*
X170328572Y-97845342D02*
X170328572Y-96645342D01*
X170842858Y-97845342D02*
X170842858Y-97216771D01*
X170842858Y-97216771D02*
X170785715Y-97102485D01*
X170785715Y-97102485D02*
X170671429Y-97045342D01*
X170671429Y-97045342D02*
X170500000Y-97045342D01*
X170500000Y-97045342D02*
X170385715Y-97102485D01*
X170385715Y-97102485D02*
X170328572Y-97159628D01*
X171242857Y-97045342D02*
X171700000Y-97045342D01*
X171414286Y-96645342D02*
X171414286Y-97673914D01*
X171414286Y-97673914D02*
X171471429Y-97788200D01*
X171471429Y-97788200D02*
X171585714Y-97845342D01*
X171585714Y-97845342D02*
X171700000Y-97845342D01*
X172042857Y-97788200D02*
X172157143Y-97845342D01*
X172157143Y-97845342D02*
X172385714Y-97845342D01*
X172385714Y-97845342D02*
X172500000Y-97788200D01*
X172500000Y-97788200D02*
X172557143Y-97673914D01*
X172557143Y-97673914D02*
X172557143Y-97616771D01*
X172557143Y-97616771D02*
X172500000Y-97502485D01*
X172500000Y-97502485D02*
X172385714Y-97445342D01*
X172385714Y-97445342D02*
X172214286Y-97445342D01*
X172214286Y-97445342D02*
X172100000Y-97388200D01*
X172100000Y-97388200D02*
X172042857Y-97273914D01*
X172042857Y-97273914D02*
X172042857Y-97216771D01*
X172042857Y-97216771D02*
X172100000Y-97102485D01*
X172100000Y-97102485D02*
X172214286Y-97045342D01*
X172214286Y-97045342D02*
X172385714Y-97045342D01*
X172385714Y-97045342D02*
X172500000Y-97102485D01*
X135333333Y-107159580D02*
X135285714Y-107207200D01*
X135285714Y-107207200D02*
X135142857Y-107254819D01*
X135142857Y-107254819D02*
X135047619Y-107254819D01*
X135047619Y-107254819D02*
X134904762Y-107207200D01*
X134904762Y-107207200D02*
X134809524Y-107111961D01*
X134809524Y-107111961D02*
X134761905Y-107016723D01*
X134761905Y-107016723D02*
X134714286Y-106826247D01*
X134714286Y-106826247D02*
X134714286Y-106683390D01*
X134714286Y-106683390D02*
X134761905Y-106492914D01*
X134761905Y-106492914D02*
X134809524Y-106397676D01*
X134809524Y-106397676D02*
X134904762Y-106302438D01*
X134904762Y-106302438D02*
X135047619Y-106254819D01*
X135047619Y-106254819D02*
X135142857Y-106254819D01*
X135142857Y-106254819D02*
X135285714Y-106302438D01*
X135285714Y-106302438D02*
X135333333Y-106350057D01*
X136190476Y-106588152D02*
X136190476Y-107254819D01*
X135952381Y-106207200D02*
X135714286Y-106921485D01*
X135714286Y-106921485D02*
X136333333Y-106921485D01*
X137583333Y-116559580D02*
X137535714Y-116607200D01*
X137535714Y-116607200D02*
X137392857Y-116654819D01*
X137392857Y-116654819D02*
X137297619Y-116654819D01*
X137297619Y-116654819D02*
X137154762Y-116607200D01*
X137154762Y-116607200D02*
X137059524Y-116511961D01*
X137059524Y-116511961D02*
X137011905Y-116416723D01*
X137011905Y-116416723D02*
X136964286Y-116226247D01*
X136964286Y-116226247D02*
X136964286Y-116083390D01*
X136964286Y-116083390D02*
X137011905Y-115892914D01*
X137011905Y-115892914D02*
X137059524Y-115797676D01*
X137059524Y-115797676D02*
X137154762Y-115702438D01*
X137154762Y-115702438D02*
X137297619Y-115654819D01*
X137297619Y-115654819D02*
X137392857Y-115654819D01*
X137392857Y-115654819D02*
X137535714Y-115702438D01*
X137535714Y-115702438D02*
X137583333Y-115750057D01*
X137916667Y-115654819D02*
X138583333Y-115654819D01*
X138583333Y-115654819D02*
X138154762Y-116654819D01*
X143757142Y-129359580D02*
X143709523Y-129407200D01*
X143709523Y-129407200D02*
X143566666Y-129454819D01*
X143566666Y-129454819D02*
X143471428Y-129454819D01*
X143471428Y-129454819D02*
X143328571Y-129407200D01*
X143328571Y-129407200D02*
X143233333Y-129311961D01*
X143233333Y-129311961D02*
X143185714Y-129216723D01*
X143185714Y-129216723D02*
X143138095Y-129026247D01*
X143138095Y-129026247D02*
X143138095Y-128883390D01*
X143138095Y-128883390D02*
X143185714Y-128692914D01*
X143185714Y-128692914D02*
X143233333Y-128597676D01*
X143233333Y-128597676D02*
X143328571Y-128502438D01*
X143328571Y-128502438D02*
X143471428Y-128454819D01*
X143471428Y-128454819D02*
X143566666Y-128454819D01*
X143566666Y-128454819D02*
X143709523Y-128502438D01*
X143709523Y-128502438D02*
X143757142Y-128550057D01*
X144709523Y-129454819D02*
X144138095Y-129454819D01*
X144423809Y-129454819D02*
X144423809Y-128454819D01*
X144423809Y-128454819D02*
X144328571Y-128597676D01*
X144328571Y-128597676D02*
X144233333Y-128692914D01*
X144233333Y-128692914D02*
X144138095Y-128740533D01*
X145328571Y-128454819D02*
X145423809Y-128454819D01*
X145423809Y-128454819D02*
X145519047Y-128502438D01*
X145519047Y-128502438D02*
X145566666Y-128550057D01*
X145566666Y-128550057D02*
X145614285Y-128645295D01*
X145614285Y-128645295D02*
X145661904Y-128835771D01*
X145661904Y-128835771D02*
X145661904Y-129073866D01*
X145661904Y-129073866D02*
X145614285Y-129264342D01*
X145614285Y-129264342D02*
X145566666Y-129359580D01*
X145566666Y-129359580D02*
X145519047Y-129407200D01*
X145519047Y-129407200D02*
X145423809Y-129454819D01*
X145423809Y-129454819D02*
X145328571Y-129454819D01*
X145328571Y-129454819D02*
X145233333Y-129407200D01*
X145233333Y-129407200D02*
X145185714Y-129359580D01*
X145185714Y-129359580D02*
X145138095Y-129264342D01*
X145138095Y-129264342D02*
X145090476Y-129073866D01*
X145090476Y-129073866D02*
X145090476Y-128835771D01*
X145090476Y-128835771D02*
X145138095Y-128645295D01*
X145138095Y-128645295D02*
X145185714Y-128550057D01*
X145185714Y-128550057D02*
X145233333Y-128502438D01*
X145233333Y-128502438D02*
X145328571Y-128454819D01*
X150066667Y-124654819D02*
X150066667Y-123654819D01*
X150066667Y-123654819D02*
X150400000Y-124369104D01*
X150400000Y-124369104D02*
X150733333Y-123654819D01*
X150733333Y-123654819D02*
X150733333Y-124654819D01*
X151780952Y-124559580D02*
X151733333Y-124607200D01*
X151733333Y-124607200D02*
X151590476Y-124654819D01*
X151590476Y-124654819D02*
X151495238Y-124654819D01*
X151495238Y-124654819D02*
X151352381Y-124607200D01*
X151352381Y-124607200D02*
X151257143Y-124511961D01*
X151257143Y-124511961D02*
X151209524Y-124416723D01*
X151209524Y-124416723D02*
X151161905Y-124226247D01*
X151161905Y-124226247D02*
X151161905Y-124083390D01*
X151161905Y-124083390D02*
X151209524Y-123892914D01*
X151209524Y-123892914D02*
X151257143Y-123797676D01*
X151257143Y-123797676D02*
X151352381Y-123702438D01*
X151352381Y-123702438D02*
X151495238Y-123654819D01*
X151495238Y-123654819D02*
X151590476Y-123654819D01*
X151590476Y-123654819D02*
X151733333Y-123702438D01*
X151733333Y-123702438D02*
X151780952Y-123750057D01*
X152209524Y-123654819D02*
X152209524Y-124464342D01*
X152209524Y-124464342D02*
X152257143Y-124559580D01*
X152257143Y-124559580D02*
X152304762Y-124607200D01*
X152304762Y-124607200D02*
X152400000Y-124654819D01*
X152400000Y-124654819D02*
X152590476Y-124654819D01*
X152590476Y-124654819D02*
X152685714Y-124607200D01*
X152685714Y-124607200D02*
X152733333Y-124559580D01*
X152733333Y-124559580D02*
X152780952Y-124464342D01*
X152780952Y-124464342D02*
X152780952Y-123654819D01*
X153780952Y-124654819D02*
X153209524Y-124654819D01*
X153495238Y-124654819D02*
X153495238Y-123654819D01*
X153495238Y-123654819D02*
X153400000Y-123797676D01*
X153400000Y-123797676D02*
X153304762Y-123892914D01*
X153304762Y-123892914D02*
X153209524Y-123940533D01*
X164538095Y-115154819D02*
X164538095Y-115964342D01*
X164538095Y-115964342D02*
X164585714Y-116059580D01*
X164585714Y-116059580D02*
X164633333Y-116107200D01*
X164633333Y-116107200D02*
X164728571Y-116154819D01*
X164728571Y-116154819D02*
X164919047Y-116154819D01*
X164919047Y-116154819D02*
X165014285Y-116107200D01*
X165014285Y-116107200D02*
X165061904Y-116059580D01*
X165061904Y-116059580D02*
X165109523Y-115964342D01*
X165109523Y-115964342D02*
X165109523Y-115154819D01*
X166109523Y-116154819D02*
X165538095Y-116154819D01*
X165823809Y-116154819D02*
X165823809Y-115154819D01*
X165823809Y-115154819D02*
X165728571Y-115297676D01*
X165728571Y-115297676D02*
X165633333Y-115392914D01*
X165633333Y-115392914D02*
X165538095Y-115440533D01*
X130933333Y-128154819D02*
X130457143Y-128154819D01*
X130457143Y-128154819D02*
X130457143Y-127154819D01*
X131790476Y-128154819D02*
X131219048Y-128154819D01*
X131504762Y-128154819D02*
X131504762Y-127154819D01*
X131504762Y-127154819D02*
X131409524Y-127297676D01*
X131409524Y-127297676D02*
X131314286Y-127392914D01*
X131314286Y-127392914D02*
X131219048Y-127440533D01*
X160033333Y-129359580D02*
X159985714Y-129407200D01*
X159985714Y-129407200D02*
X159842857Y-129454819D01*
X159842857Y-129454819D02*
X159747619Y-129454819D01*
X159747619Y-129454819D02*
X159604762Y-129407200D01*
X159604762Y-129407200D02*
X159509524Y-129311961D01*
X159509524Y-129311961D02*
X159461905Y-129216723D01*
X159461905Y-129216723D02*
X159414286Y-129026247D01*
X159414286Y-129026247D02*
X159414286Y-128883390D01*
X159414286Y-128883390D02*
X159461905Y-128692914D01*
X159461905Y-128692914D02*
X159509524Y-128597676D01*
X159509524Y-128597676D02*
X159604762Y-128502438D01*
X159604762Y-128502438D02*
X159747619Y-128454819D01*
X159747619Y-128454819D02*
X159842857Y-128454819D01*
X159842857Y-128454819D02*
X159985714Y-128502438D01*
X159985714Y-128502438D02*
X160033333Y-128550057D01*
X160509524Y-129454819D02*
X160700000Y-129454819D01*
X160700000Y-129454819D02*
X160795238Y-129407200D01*
X160795238Y-129407200D02*
X160842857Y-129359580D01*
X160842857Y-129359580D02*
X160938095Y-129216723D01*
X160938095Y-129216723D02*
X160985714Y-129026247D01*
X160985714Y-129026247D02*
X160985714Y-128645295D01*
X160985714Y-128645295D02*
X160938095Y-128550057D01*
X160938095Y-128550057D02*
X160890476Y-128502438D01*
X160890476Y-128502438D02*
X160795238Y-128454819D01*
X160795238Y-128454819D02*
X160604762Y-128454819D01*
X160604762Y-128454819D02*
X160509524Y-128502438D01*
X160509524Y-128502438D02*
X160461905Y-128550057D01*
X160461905Y-128550057D02*
X160414286Y-128645295D01*
X160414286Y-128645295D02*
X160414286Y-128883390D01*
X160414286Y-128883390D02*
X160461905Y-128978628D01*
X160461905Y-128978628D02*
X160509524Y-129026247D01*
X160509524Y-129026247D02*
X160604762Y-129073866D01*
X160604762Y-129073866D02*
X160795238Y-129073866D01*
X160795238Y-129073866D02*
X160890476Y-129026247D01*
X160890476Y-129026247D02*
X160938095Y-128978628D01*
X160938095Y-128978628D02*
X160985714Y-128883390D01*
X158857142Y-125759580D02*
X158809523Y-125807200D01*
X158809523Y-125807200D02*
X158666666Y-125854819D01*
X158666666Y-125854819D02*
X158571428Y-125854819D01*
X158571428Y-125854819D02*
X158428571Y-125807200D01*
X158428571Y-125807200D02*
X158333333Y-125711961D01*
X158333333Y-125711961D02*
X158285714Y-125616723D01*
X158285714Y-125616723D02*
X158238095Y-125426247D01*
X158238095Y-125426247D02*
X158238095Y-125283390D01*
X158238095Y-125283390D02*
X158285714Y-125092914D01*
X158285714Y-125092914D02*
X158333333Y-124997676D01*
X158333333Y-124997676D02*
X158428571Y-124902438D01*
X158428571Y-124902438D02*
X158571428Y-124854819D01*
X158571428Y-124854819D02*
X158666666Y-124854819D01*
X158666666Y-124854819D02*
X158809523Y-124902438D01*
X158809523Y-124902438D02*
X158857142Y-124950057D01*
X159809523Y-125854819D02*
X159238095Y-125854819D01*
X159523809Y-125854819D02*
X159523809Y-124854819D01*
X159523809Y-124854819D02*
X159428571Y-124997676D01*
X159428571Y-124997676D02*
X159333333Y-125092914D01*
X159333333Y-125092914D02*
X159238095Y-125140533D01*
X160761904Y-125854819D02*
X160190476Y-125854819D01*
X160476190Y-125854819D02*
X160476190Y-124854819D01*
X160476190Y-124854819D02*
X160380952Y-124997676D01*
X160380952Y-124997676D02*
X160285714Y-125092914D01*
X160285714Y-125092914D02*
X160190476Y-125140533D01*
X132133333Y-109059580D02*
X132085714Y-109107200D01*
X132085714Y-109107200D02*
X131942857Y-109154819D01*
X131942857Y-109154819D02*
X131847619Y-109154819D01*
X131847619Y-109154819D02*
X131704762Y-109107200D01*
X131704762Y-109107200D02*
X131609524Y-109011961D01*
X131609524Y-109011961D02*
X131561905Y-108916723D01*
X131561905Y-108916723D02*
X131514286Y-108726247D01*
X131514286Y-108726247D02*
X131514286Y-108583390D01*
X131514286Y-108583390D02*
X131561905Y-108392914D01*
X131561905Y-108392914D02*
X131609524Y-108297676D01*
X131609524Y-108297676D02*
X131704762Y-108202438D01*
X131704762Y-108202438D02*
X131847619Y-108154819D01*
X131847619Y-108154819D02*
X131942857Y-108154819D01*
X131942857Y-108154819D02*
X132085714Y-108202438D01*
X132085714Y-108202438D02*
X132133333Y-108250057D01*
X132514286Y-108250057D02*
X132561905Y-108202438D01*
X132561905Y-108202438D02*
X132657143Y-108154819D01*
X132657143Y-108154819D02*
X132895238Y-108154819D01*
X132895238Y-108154819D02*
X132990476Y-108202438D01*
X132990476Y-108202438D02*
X133038095Y-108250057D01*
X133038095Y-108250057D02*
X133085714Y-108345295D01*
X133085714Y-108345295D02*
X133085714Y-108440533D01*
X133085714Y-108440533D02*
X133038095Y-108583390D01*
X133038095Y-108583390D02*
X132466667Y-109154819D01*
X132466667Y-109154819D02*
X133085714Y-109154819D01*
X171333333Y-108459580D02*
X171285714Y-108507200D01*
X171285714Y-108507200D02*
X171142857Y-108554819D01*
X171142857Y-108554819D02*
X171047619Y-108554819D01*
X171047619Y-108554819D02*
X170904762Y-108507200D01*
X170904762Y-108507200D02*
X170809524Y-108411961D01*
X170809524Y-108411961D02*
X170761905Y-108316723D01*
X170761905Y-108316723D02*
X170714286Y-108126247D01*
X170714286Y-108126247D02*
X170714286Y-107983390D01*
X170714286Y-107983390D02*
X170761905Y-107792914D01*
X170761905Y-107792914D02*
X170809524Y-107697676D01*
X170809524Y-107697676D02*
X170904762Y-107602438D01*
X170904762Y-107602438D02*
X171047619Y-107554819D01*
X171047619Y-107554819D02*
X171142857Y-107554819D01*
X171142857Y-107554819D02*
X171285714Y-107602438D01*
X171285714Y-107602438D02*
X171333333Y-107650057D01*
X172285714Y-108554819D02*
X171714286Y-108554819D01*
X172000000Y-108554819D02*
X172000000Y-107554819D01*
X172000000Y-107554819D02*
X171904762Y-107697676D01*
X171904762Y-107697676D02*
X171809524Y-107792914D01*
X171809524Y-107792914D02*
X171714286Y-107840533D01*
X164257142Y-131859580D02*
X164209523Y-131907200D01*
X164209523Y-131907200D02*
X164066666Y-131954819D01*
X164066666Y-131954819D02*
X163971428Y-131954819D01*
X163971428Y-131954819D02*
X163828571Y-131907200D01*
X163828571Y-131907200D02*
X163733333Y-131811961D01*
X163733333Y-131811961D02*
X163685714Y-131716723D01*
X163685714Y-131716723D02*
X163638095Y-131526247D01*
X163638095Y-131526247D02*
X163638095Y-131383390D01*
X163638095Y-131383390D02*
X163685714Y-131192914D01*
X163685714Y-131192914D02*
X163733333Y-131097676D01*
X163733333Y-131097676D02*
X163828571Y-131002438D01*
X163828571Y-131002438D02*
X163971428Y-130954819D01*
X163971428Y-130954819D02*
X164066666Y-130954819D01*
X164066666Y-130954819D02*
X164209523Y-131002438D01*
X164209523Y-131002438D02*
X164257142Y-131050057D01*
X165209523Y-131954819D02*
X164638095Y-131954819D01*
X164923809Y-131954819D02*
X164923809Y-130954819D01*
X164923809Y-130954819D02*
X164828571Y-131097676D01*
X164828571Y-131097676D02*
X164733333Y-131192914D01*
X164733333Y-131192914D02*
X164638095Y-131240533D01*
X166066666Y-130954819D02*
X165876190Y-130954819D01*
X165876190Y-130954819D02*
X165780952Y-131002438D01*
X165780952Y-131002438D02*
X165733333Y-131050057D01*
X165733333Y-131050057D02*
X165638095Y-131192914D01*
X165638095Y-131192914D02*
X165590476Y-131383390D01*
X165590476Y-131383390D02*
X165590476Y-131764342D01*
X165590476Y-131764342D02*
X165638095Y-131859580D01*
X165638095Y-131859580D02*
X165685714Y-131907200D01*
X165685714Y-131907200D02*
X165780952Y-131954819D01*
X165780952Y-131954819D02*
X165971428Y-131954819D01*
X165971428Y-131954819D02*
X166066666Y-131907200D01*
X166066666Y-131907200D02*
X166114285Y-131859580D01*
X166114285Y-131859580D02*
X166161904Y-131764342D01*
X166161904Y-131764342D02*
X166161904Y-131526247D01*
X166161904Y-131526247D02*
X166114285Y-131431009D01*
X166114285Y-131431009D02*
X166066666Y-131383390D01*
X166066666Y-131383390D02*
X165971428Y-131335771D01*
X165971428Y-131335771D02*
X165780952Y-131335771D01*
X165780952Y-131335771D02*
X165685714Y-131383390D01*
X165685714Y-131383390D02*
X165638095Y-131431009D01*
X165638095Y-131431009D02*
X165590476Y-131526247D01*
X172733333Y-128054819D02*
X172257143Y-128054819D01*
X172257143Y-128054819D02*
X172257143Y-127054819D01*
X173019048Y-127150057D02*
X173066667Y-127102438D01*
X173066667Y-127102438D02*
X173161905Y-127054819D01*
X173161905Y-127054819D02*
X173400000Y-127054819D01*
X173400000Y-127054819D02*
X173495238Y-127102438D01*
X173495238Y-127102438D02*
X173542857Y-127150057D01*
X173542857Y-127150057D02*
X173590476Y-127245295D01*
X173590476Y-127245295D02*
X173590476Y-127340533D01*
X173590476Y-127340533D02*
X173542857Y-127483390D01*
X173542857Y-127483390D02*
X172971429Y-128054819D01*
X172971429Y-128054819D02*
X173590476Y-128054819D01*
X130238095Y-118154819D02*
X130238095Y-118964342D01*
X130238095Y-118964342D02*
X130285714Y-119059580D01*
X130285714Y-119059580D02*
X130333333Y-119107200D01*
X130333333Y-119107200D02*
X130428571Y-119154819D01*
X130428571Y-119154819D02*
X130619047Y-119154819D01*
X130619047Y-119154819D02*
X130714285Y-119107200D01*
X130714285Y-119107200D02*
X130761904Y-119059580D01*
X130761904Y-119059580D02*
X130809523Y-118964342D01*
X130809523Y-118964342D02*
X130809523Y-118154819D01*
X131238095Y-118250057D02*
X131285714Y-118202438D01*
X131285714Y-118202438D02*
X131380952Y-118154819D01*
X131380952Y-118154819D02*
X131619047Y-118154819D01*
X131619047Y-118154819D02*
X131714285Y-118202438D01*
X131714285Y-118202438D02*
X131761904Y-118250057D01*
X131761904Y-118250057D02*
X131809523Y-118345295D01*
X131809523Y-118345295D02*
X131809523Y-118440533D01*
X131809523Y-118440533D02*
X131761904Y-118583390D01*
X131761904Y-118583390D02*
X131190476Y-119154819D01*
X131190476Y-119154819D02*
X131809523Y-119154819D01*
X151238095Y-112354819D02*
X151238095Y-113164342D01*
X151238095Y-113164342D02*
X151285714Y-113259580D01*
X151285714Y-113259580D02*
X151333333Y-113307200D01*
X151333333Y-113307200D02*
X151428571Y-113354819D01*
X151428571Y-113354819D02*
X151619047Y-113354819D01*
X151619047Y-113354819D02*
X151714285Y-113307200D01*
X151714285Y-113307200D02*
X151761904Y-113259580D01*
X151761904Y-113259580D02*
X151809523Y-113164342D01*
X151809523Y-113164342D02*
X151809523Y-112354819D01*
X152190476Y-112354819D02*
X152809523Y-112354819D01*
X152809523Y-112354819D02*
X152476190Y-112735771D01*
X152476190Y-112735771D02*
X152619047Y-112735771D01*
X152619047Y-112735771D02*
X152714285Y-112783390D01*
X152714285Y-112783390D02*
X152761904Y-112831009D01*
X152761904Y-112831009D02*
X152809523Y-112926247D01*
X152809523Y-112926247D02*
X152809523Y-113164342D01*
X152809523Y-113164342D02*
X152761904Y-113259580D01*
X152761904Y-113259580D02*
X152714285Y-113307200D01*
X152714285Y-113307200D02*
X152619047Y-113354819D01*
X152619047Y-113354819D02*
X152333333Y-113354819D01*
X152333333Y-113354819D02*
X152238095Y-113307200D01*
X152238095Y-113307200D02*
X152190476Y-113259580D01*
X168433333Y-108059580D02*
X168385714Y-108107200D01*
X168385714Y-108107200D02*
X168242857Y-108154819D01*
X168242857Y-108154819D02*
X168147619Y-108154819D01*
X168147619Y-108154819D02*
X168004762Y-108107200D01*
X168004762Y-108107200D02*
X167909524Y-108011961D01*
X167909524Y-108011961D02*
X167861905Y-107916723D01*
X167861905Y-107916723D02*
X167814286Y-107726247D01*
X167814286Y-107726247D02*
X167814286Y-107583390D01*
X167814286Y-107583390D02*
X167861905Y-107392914D01*
X167861905Y-107392914D02*
X167909524Y-107297676D01*
X167909524Y-107297676D02*
X168004762Y-107202438D01*
X168004762Y-107202438D02*
X168147619Y-107154819D01*
X168147619Y-107154819D02*
X168242857Y-107154819D01*
X168242857Y-107154819D02*
X168385714Y-107202438D01*
X168385714Y-107202438D02*
X168433333Y-107250057D01*
X168766667Y-107154819D02*
X169385714Y-107154819D01*
X169385714Y-107154819D02*
X169052381Y-107535771D01*
X169052381Y-107535771D02*
X169195238Y-107535771D01*
X169195238Y-107535771D02*
X169290476Y-107583390D01*
X169290476Y-107583390D02*
X169338095Y-107631009D01*
X169338095Y-107631009D02*
X169385714Y-107726247D01*
X169385714Y-107726247D02*
X169385714Y-107964342D01*
X169385714Y-107964342D02*
X169338095Y-108059580D01*
X169338095Y-108059580D02*
X169290476Y-108107200D01*
X169290476Y-108107200D02*
X169195238Y-108154819D01*
X169195238Y-108154819D02*
X168909524Y-108154819D01*
X168909524Y-108154819D02*
X168814286Y-108107200D01*
X168814286Y-108107200D02*
X168766667Y-108059580D01*
X143657142Y-125859580D02*
X143609523Y-125907200D01*
X143609523Y-125907200D02*
X143466666Y-125954819D01*
X143466666Y-125954819D02*
X143371428Y-125954819D01*
X143371428Y-125954819D02*
X143228571Y-125907200D01*
X143228571Y-125907200D02*
X143133333Y-125811961D01*
X143133333Y-125811961D02*
X143085714Y-125716723D01*
X143085714Y-125716723D02*
X143038095Y-125526247D01*
X143038095Y-125526247D02*
X143038095Y-125383390D01*
X143038095Y-125383390D02*
X143085714Y-125192914D01*
X143085714Y-125192914D02*
X143133333Y-125097676D01*
X143133333Y-125097676D02*
X143228571Y-125002438D01*
X143228571Y-125002438D02*
X143371428Y-124954819D01*
X143371428Y-124954819D02*
X143466666Y-124954819D01*
X143466666Y-124954819D02*
X143609523Y-125002438D01*
X143609523Y-125002438D02*
X143657142Y-125050057D01*
X144609523Y-125954819D02*
X144038095Y-125954819D01*
X144323809Y-125954819D02*
X144323809Y-124954819D01*
X144323809Y-124954819D02*
X144228571Y-125097676D01*
X144228571Y-125097676D02*
X144133333Y-125192914D01*
X144133333Y-125192914D02*
X144038095Y-125240533D01*
X144990476Y-125050057D02*
X145038095Y-125002438D01*
X145038095Y-125002438D02*
X145133333Y-124954819D01*
X145133333Y-124954819D02*
X145371428Y-124954819D01*
X145371428Y-124954819D02*
X145466666Y-125002438D01*
X145466666Y-125002438D02*
X145514285Y-125050057D01*
X145514285Y-125050057D02*
X145561904Y-125145295D01*
X145561904Y-125145295D02*
X145561904Y-125240533D01*
X145561904Y-125240533D02*
X145514285Y-125383390D01*
X145514285Y-125383390D02*
X144942857Y-125954819D01*
X144942857Y-125954819D02*
X145561904Y-125954819D01*
X138557142Y-131909580D02*
X138509523Y-131957200D01*
X138509523Y-131957200D02*
X138366666Y-132004819D01*
X138366666Y-132004819D02*
X138271428Y-132004819D01*
X138271428Y-132004819D02*
X138128571Y-131957200D01*
X138128571Y-131957200D02*
X138033333Y-131861961D01*
X138033333Y-131861961D02*
X137985714Y-131766723D01*
X137985714Y-131766723D02*
X137938095Y-131576247D01*
X137938095Y-131576247D02*
X137938095Y-131433390D01*
X137938095Y-131433390D02*
X137985714Y-131242914D01*
X137985714Y-131242914D02*
X138033333Y-131147676D01*
X138033333Y-131147676D02*
X138128571Y-131052438D01*
X138128571Y-131052438D02*
X138271428Y-131004819D01*
X138271428Y-131004819D02*
X138366666Y-131004819D01*
X138366666Y-131004819D02*
X138509523Y-131052438D01*
X138509523Y-131052438D02*
X138557142Y-131100057D01*
X139509523Y-132004819D02*
X138938095Y-132004819D01*
X139223809Y-132004819D02*
X139223809Y-131004819D01*
X139223809Y-131004819D02*
X139128571Y-131147676D01*
X139128571Y-131147676D02*
X139033333Y-131242914D01*
X139033333Y-131242914D02*
X138938095Y-131290533D01*
X140414285Y-131004819D02*
X139938095Y-131004819D01*
X139938095Y-131004819D02*
X139890476Y-131481009D01*
X139890476Y-131481009D02*
X139938095Y-131433390D01*
X139938095Y-131433390D02*
X140033333Y-131385771D01*
X140033333Y-131385771D02*
X140271428Y-131385771D01*
X140271428Y-131385771D02*
X140366666Y-131433390D01*
X140366666Y-131433390D02*
X140414285Y-131481009D01*
X140414285Y-131481009D02*
X140461904Y-131576247D01*
X140461904Y-131576247D02*
X140461904Y-131814342D01*
X140461904Y-131814342D02*
X140414285Y-131909580D01*
X140414285Y-131909580D02*
X140366666Y-131957200D01*
X140366666Y-131957200D02*
X140271428Y-132004819D01*
X140271428Y-132004819D02*
X140033333Y-132004819D01*
X140033333Y-132004819D02*
X139938095Y-131957200D01*
X139938095Y-131957200D02*
X139890476Y-131909580D01*
X171933333Y-114159580D02*
X171885714Y-114207200D01*
X171885714Y-114207200D02*
X171742857Y-114254819D01*
X171742857Y-114254819D02*
X171647619Y-114254819D01*
X171647619Y-114254819D02*
X171504762Y-114207200D01*
X171504762Y-114207200D02*
X171409524Y-114111961D01*
X171409524Y-114111961D02*
X171361905Y-114016723D01*
X171361905Y-114016723D02*
X171314286Y-113826247D01*
X171314286Y-113826247D02*
X171314286Y-113683390D01*
X171314286Y-113683390D02*
X171361905Y-113492914D01*
X171361905Y-113492914D02*
X171409524Y-113397676D01*
X171409524Y-113397676D02*
X171504762Y-113302438D01*
X171504762Y-113302438D02*
X171647619Y-113254819D01*
X171647619Y-113254819D02*
X171742857Y-113254819D01*
X171742857Y-113254819D02*
X171885714Y-113302438D01*
X171885714Y-113302438D02*
X171933333Y-113350057D01*
X172790476Y-113254819D02*
X172600000Y-113254819D01*
X172600000Y-113254819D02*
X172504762Y-113302438D01*
X172504762Y-113302438D02*
X172457143Y-113350057D01*
X172457143Y-113350057D02*
X172361905Y-113492914D01*
X172361905Y-113492914D02*
X172314286Y-113683390D01*
X172314286Y-113683390D02*
X172314286Y-114064342D01*
X172314286Y-114064342D02*
X172361905Y-114159580D01*
X172361905Y-114159580D02*
X172409524Y-114207200D01*
X172409524Y-114207200D02*
X172504762Y-114254819D01*
X172504762Y-114254819D02*
X172695238Y-114254819D01*
X172695238Y-114254819D02*
X172790476Y-114207200D01*
X172790476Y-114207200D02*
X172838095Y-114159580D01*
X172838095Y-114159580D02*
X172885714Y-114064342D01*
X172885714Y-114064342D02*
X172885714Y-113826247D01*
X172885714Y-113826247D02*
X172838095Y-113731009D01*
X172838095Y-113731009D02*
X172790476Y-113683390D01*
X172790476Y-113683390D02*
X172695238Y-113635771D01*
X172695238Y-113635771D02*
X172504762Y-113635771D01*
X172504762Y-113635771D02*
X172409524Y-113683390D01*
X172409524Y-113683390D02*
X172361905Y-113731009D01*
X172361905Y-113731009D02*
X172314286Y-113826247D01*
X158657142Y-98454819D02*
X158323809Y-97978628D01*
X158085714Y-98454819D02*
X158085714Y-97454819D01*
X158085714Y-97454819D02*
X158466666Y-97454819D01*
X158466666Y-97454819D02*
X158561904Y-97502438D01*
X158561904Y-97502438D02*
X158609523Y-97550057D01*
X158609523Y-97550057D02*
X158657142Y-97645295D01*
X158657142Y-97645295D02*
X158657142Y-97788152D01*
X158657142Y-97788152D02*
X158609523Y-97883390D01*
X158609523Y-97883390D02*
X158561904Y-97931009D01*
X158561904Y-97931009D02*
X158466666Y-97978628D01*
X158466666Y-97978628D02*
X158085714Y-97978628D01*
X159609523Y-98454819D02*
X159038095Y-98454819D01*
X159323809Y-98454819D02*
X159323809Y-97454819D01*
X159323809Y-97454819D02*
X159228571Y-97597676D01*
X159228571Y-97597676D02*
X159133333Y-97692914D01*
X159133333Y-97692914D02*
X159038095Y-97740533D01*
X159990476Y-97550057D02*
X160038095Y-97502438D01*
X160038095Y-97502438D02*
X160133333Y-97454819D01*
X160133333Y-97454819D02*
X160371428Y-97454819D01*
X160371428Y-97454819D02*
X160466666Y-97502438D01*
X160466666Y-97502438D02*
X160514285Y-97550057D01*
X160514285Y-97550057D02*
X160561904Y-97645295D01*
X160561904Y-97645295D02*
X160561904Y-97740533D01*
X160561904Y-97740533D02*
X160514285Y-97883390D01*
X160514285Y-97883390D02*
X159942857Y-98454819D01*
X159942857Y-98454819D02*
X160561904Y-98454819D01*
X159357142Y-112454819D02*
X159023809Y-111978628D01*
X158785714Y-112454819D02*
X158785714Y-111454819D01*
X158785714Y-111454819D02*
X159166666Y-111454819D01*
X159166666Y-111454819D02*
X159261904Y-111502438D01*
X159261904Y-111502438D02*
X159309523Y-111550057D01*
X159309523Y-111550057D02*
X159357142Y-111645295D01*
X159357142Y-111645295D02*
X159357142Y-111788152D01*
X159357142Y-111788152D02*
X159309523Y-111883390D01*
X159309523Y-111883390D02*
X159261904Y-111931009D01*
X159261904Y-111931009D02*
X159166666Y-111978628D01*
X159166666Y-111978628D02*
X158785714Y-111978628D01*
X160309523Y-112454819D02*
X159738095Y-112454819D01*
X160023809Y-112454819D02*
X160023809Y-111454819D01*
X160023809Y-111454819D02*
X159928571Y-111597676D01*
X159928571Y-111597676D02*
X159833333Y-111692914D01*
X159833333Y-111692914D02*
X159738095Y-111740533D01*
X160642857Y-111454819D02*
X161261904Y-111454819D01*
X161261904Y-111454819D02*
X160928571Y-111835771D01*
X160928571Y-111835771D02*
X161071428Y-111835771D01*
X161071428Y-111835771D02*
X161166666Y-111883390D01*
X161166666Y-111883390D02*
X161214285Y-111931009D01*
X161214285Y-111931009D02*
X161261904Y-112026247D01*
X161261904Y-112026247D02*
X161261904Y-112264342D01*
X161261904Y-112264342D02*
X161214285Y-112359580D01*
X161214285Y-112359580D02*
X161166666Y-112407200D01*
X161166666Y-112407200D02*
X161071428Y-112454819D01*
X161071428Y-112454819D02*
X160785714Y-112454819D01*
X160785714Y-112454819D02*
X160690476Y-112407200D01*
X160690476Y-112407200D02*
X160642857Y-112359580D01*
X158666666Y-129854819D02*
X158666666Y-130569104D01*
X158666666Y-130569104D02*
X158619047Y-130711961D01*
X158619047Y-130711961D02*
X158523809Y-130807200D01*
X158523809Y-130807200D02*
X158380952Y-130854819D01*
X158380952Y-130854819D02*
X158285714Y-130854819D01*
X159142857Y-130854819D02*
X159142857Y-129854819D01*
X159142857Y-129854819D02*
X159523809Y-129854819D01*
X159523809Y-129854819D02*
X159619047Y-129902438D01*
X159619047Y-129902438D02*
X159666666Y-129950057D01*
X159666666Y-129950057D02*
X159714285Y-130045295D01*
X159714285Y-130045295D02*
X159714285Y-130188152D01*
X159714285Y-130188152D02*
X159666666Y-130283390D01*
X159666666Y-130283390D02*
X159619047Y-130331009D01*
X159619047Y-130331009D02*
X159523809Y-130378628D01*
X159523809Y-130378628D02*
X159142857Y-130378628D01*
X160666666Y-130854819D02*
X160095238Y-130854819D01*
X160380952Y-130854819D02*
X160380952Y-129854819D01*
X160380952Y-129854819D02*
X160285714Y-129997676D01*
X160285714Y-129997676D02*
X160190476Y-130092914D01*
X160190476Y-130092914D02*
X160095238Y-130140533D01*
%TO.C,C4*%
D11*
X134590000Y-109688748D02*
X134590000Y-111111252D01*
X136410000Y-109688748D02*
X136410000Y-111111252D01*
%TO.C,C7*%
X135165000Y-115938748D02*
X135165000Y-116461252D01*
X136635000Y-115938748D02*
X136635000Y-116461252D01*
%TO.C,C10*%
X140911252Y-127696000D02*
X139488748Y-127696000D01*
X140911252Y-130416000D02*
X139488748Y-130416000D01*
%TO.C,MCU1*%
D12*
X137745186Y-72443999D02*
X166255186Y-72443999D01*
X137745186Y-123393999D02*
X137745186Y-72443999D01*
X137745186Y-123393999D02*
X137745186Y-72443999D01*
X143195186Y-72443999D02*
X137745186Y-72443999D01*
X148475186Y-123393999D02*
X137745186Y-123393999D01*
X155186186Y-123393999D02*
X148475186Y-123393999D01*
X160885186Y-72443999D02*
X143195186Y-72443999D01*
X166255186Y-72443999D02*
X160885186Y-72443999D01*
X166255186Y-72443999D02*
X166255186Y-123393999D01*
X166255186Y-72443999D02*
X166255186Y-123393999D01*
X166255186Y-123393999D02*
X137745186Y-123393999D01*
X166255186Y-123393999D02*
X155186186Y-123393999D01*
D13*
X137075186Y-77918999D02*
G75*
G02*
X136875186Y-77918999I-100000J0D01*
G01*
X136875186Y-77918999D02*
G75*
G02*
X137075186Y-77918999I100000J0D01*
G01*
%TO.C,U1*%
D11*
X167340000Y-115190000D02*
X167390000Y-115190000D01*
X167340000Y-117010000D02*
X167340000Y-115190000D01*
X167390000Y-117010000D02*
X167340000Y-117010000D01*
X170410000Y-115190000D02*
X170460000Y-115190000D01*
X170460000Y-115190000D02*
X170460000Y-117010000D01*
X170460000Y-117010000D02*
X170410000Y-117010000D01*
X170740000Y-114890000D02*
X170410000Y-114650000D01*
X170740000Y-114410000D01*
X170740000Y-114890000D01*
G36*
X170740000Y-114890000D02*
G01*
X170410000Y-114650000D01*
X170740000Y-114410000D01*
X170740000Y-114890000D01*
G37*
%TO.C,L1*%
X130590000Y-119340000D02*
X131990000Y-119340000D01*
X130590000Y-126660000D02*
X130590000Y-119340000D01*
X131990000Y-126660000D02*
X130590000Y-126660000D01*
X136010000Y-119340000D02*
X137410000Y-119340000D01*
X137410000Y-119340000D02*
X137410000Y-126660000D01*
X137410000Y-126660000D02*
X136010000Y-126660000D01*
%TO.C,C9*%
X163088748Y-127640000D02*
X164511252Y-127640000D01*
X163088748Y-130360000D02*
X164511252Y-130360000D01*
%TO.C,C11*%
X163088748Y-124084000D02*
X164511252Y-124084000D01*
X163088748Y-126804000D02*
X164511252Y-126804000D01*
%TO.C,C2*%
X131565000Y-111961252D02*
X131565000Y-111438748D01*
X133035000Y-111961252D02*
X133035000Y-111438748D01*
%TO.C,C1*%
X170765000Y-111398752D02*
X170765000Y-110876248D01*
X172235000Y-111398752D02*
X172235000Y-110876248D01*
%TO.C,C16*%
X167565000Y-129338748D02*
X167565000Y-129861252D01*
X169035000Y-129338748D02*
X169035000Y-129861252D01*
%TO.C,R1*%
D10*
X146000000Y-126500000D02*
X158000000Y-126500000D01*
X146000000Y-126502400D02*
X146000000Y-139502400D01*
X146000000Y-139500000D02*
X158000000Y-139500000D01*
X150603000Y-139477000D02*
X151365000Y-138588000D01*
X151365000Y-138588000D02*
X152635000Y-138588000D01*
X152640080Y-138588000D02*
X153402080Y-139477000D01*
X158000000Y-126497600D02*
X158000000Y-139497600D01*
X157871981Y-126904000D02*
G75*
G02*
X157304019Y-126904000I-283981J0D01*
G01*
X157304019Y-126904000D02*
G75*
G02*
X157871981Y-126904000I283981J0D01*
G01*
%TO.C,D2*%
D11*
X132620000Y-91540000D02*
X134000000Y-91540000D01*
X132620000Y-92920000D02*
X132620000Y-91540000D01*
X132620000Y-94190000D02*
X132620000Y-101920000D01*
X132620000Y-94190000D02*
X135380000Y-94190000D01*
X132620000Y-101920000D02*
X135380000Y-101920000D01*
X135380000Y-94190000D02*
X135380000Y-101920000D01*
%TO.C,L2*%
X166590000Y-119340000D02*
X167990000Y-119340000D01*
X166590000Y-126660000D02*
X166590000Y-119340000D01*
X167990000Y-126660000D02*
X166590000Y-126660000D01*
X172010000Y-119340000D02*
X173410000Y-119340000D01*
X173410000Y-119340000D02*
X173410000Y-126660000D01*
X173410000Y-126660000D02*
X172010000Y-126660000D01*
%TO.C,U2*%
X131140000Y-115190000D02*
X131190000Y-115190000D01*
X131140000Y-117010000D02*
X131140000Y-115190000D01*
X131190000Y-117010000D02*
X131140000Y-117010000D01*
X134210000Y-115190000D02*
X134260000Y-115190000D01*
X134260000Y-115190000D02*
X134260000Y-117010000D01*
X134260000Y-117010000D02*
X134210000Y-117010000D01*
X134540000Y-114890000D02*
X134210000Y-114650000D01*
X134540000Y-114410000D01*
X134540000Y-114890000D01*
G36*
X134540000Y-114890000D02*
G01*
X134210000Y-114650000D01*
X134540000Y-114410000D01*
X134540000Y-114890000D01*
G37*
%TO.C,U3*%
X148765000Y-101860000D02*
X148765000Y-112140000D01*
X148765000Y-112140000D02*
X155235000Y-112140000D01*
X151000000Y-101860000D02*
X148765000Y-101860000D01*
X155235000Y-101860000D02*
X153000000Y-101860000D01*
X155235000Y-112140000D02*
X155235000Y-101860000D01*
X153000000Y-101860000D02*
G75*
G02*
X151000000Y-101860000I-1000000J0D01*
G01*
%TO.C,C3*%
X167690000Y-110488748D02*
X167690000Y-111911252D01*
X169510000Y-110488748D02*
X169510000Y-111911252D01*
%TO.C,C12*%
X140911252Y-124140000D02*
X139488748Y-124140000D01*
X140911252Y-126860000D02*
X139488748Y-126860000D01*
%TO.C,C15*%
X135665000Y-129438748D02*
X135665000Y-129961252D01*
X137135000Y-129438748D02*
X137135000Y-129961252D01*
%TO.C,C6*%
X171465000Y-115938748D02*
X171465000Y-116461252D01*
X172935000Y-115938748D02*
X172935000Y-116461252D01*
%TO.C,R12*%
X156265000Y-98772936D02*
X156265000Y-99227064D01*
X157735000Y-98772936D02*
X157735000Y-99227064D01*
%TO.C,R13*%
X159265000Y-109227064D02*
X159265000Y-108772936D01*
X160735000Y-109227064D02*
X160735000Y-108772936D01*
%TO.C,JP1*%
X159620000Y-136270000D02*
X159620000Y-131080000D01*
X162380000Y-131080000D02*
X159620000Y-131080000D01*
X162380000Y-136270000D02*
X159620000Y-136270000D01*
X162380000Y-136270000D02*
X162380000Y-131080000D01*
X162380000Y-137540000D02*
X162380000Y-138920000D01*
X162380000Y-138920000D02*
X161000000Y-138920000D01*
%TD*%
D14*
%TO.C,W8*%
X170000000Y-90000000D03*
%TD*%
%TO.C,W9*%
X170000000Y-100000000D03*
%TD*%
D15*
%TO.C,W2*%
X171300000Y-129300000D03*
%TD*%
D16*
%TO.C,W7*%
X143000000Y-134000000D03*
%TD*%
D15*
%TO.C,W3*%
X132800000Y-129500000D03*
%TD*%
D16*
%TO.C,W1*%
X165600000Y-133600000D03*
%TD*%
%TO.C,W6*%
X140000000Y-137700000D03*
%TD*%
%TO.C,W4*%
X138900000Y-134250000D03*
%TD*%
%TO.C,W5*%
X165000000Y-137700000D03*
%TD*%
%LPC*%
D17*
%TO.C,C4*%
X135500000Y-108837500D03*
X135500000Y-111962500D03*
%TD*%
D18*
%TO.C,C7*%
X135900000Y-115162500D03*
X135900000Y-117237500D03*
%TD*%
D19*
%TO.C,C10*%
X141762500Y-129056000D03*
X138637500Y-129056000D03*
%TD*%
D20*
%TO.C,MCU1*%
X139745186Y-74443999D03*
X139745186Y-121393999D03*
X164255186Y-74443999D03*
X164255186Y-121393999D03*
D21*
X139275186Y-77873999D03*
X139275186Y-80413999D03*
X139275186Y-82953999D03*
X139275186Y-85493999D03*
X139275186Y-88033999D03*
X139275186Y-90573999D03*
X139275186Y-93113999D03*
X139275186Y-95653999D03*
X139275186Y-98193999D03*
X139275186Y-100733999D03*
X139275186Y-103273999D03*
X139275186Y-105813999D03*
X139275186Y-108353999D03*
X139275186Y-110893999D03*
D22*
X139275186Y-113433999D03*
X164675186Y-113433999D03*
D21*
X164675186Y-110893999D03*
X164675186Y-108353999D03*
X164675186Y-105813999D03*
X164675186Y-103273999D03*
X164675186Y-100733999D03*
X164675186Y-98193999D03*
X164675186Y-95653999D03*
X164675186Y-93113999D03*
X164675186Y-90573999D03*
X164675186Y-88033999D03*
X164675186Y-85493999D03*
X164675186Y-82953999D03*
X164675186Y-80413999D03*
X164675186Y-77873999D03*
%TD*%
D23*
%TO.C,U1*%
X169850000Y-114962500D03*
X168900000Y-114962500D03*
X167950000Y-114962500D03*
X167950000Y-117237500D03*
X168900000Y-117237500D03*
X169850000Y-117237500D03*
%TD*%
D24*
%TO.C,W8*%
X170000000Y-90000000D03*
%TD*%
D25*
%TO.C,L1*%
X134000000Y-120000000D03*
X134000000Y-126000000D03*
%TD*%
D26*
%TO.C,C9*%
X162237500Y-129000000D03*
X165362500Y-129000000D03*
%TD*%
D24*
%TO.C,W9*%
X170000000Y-100000000D03*
%TD*%
D26*
%TO.C,C11*%
X162237500Y-125444000D03*
X165362500Y-125444000D03*
%TD*%
D27*
%TO.C,C2*%
X132300000Y-112737500D03*
X132300000Y-110662500D03*
%TD*%
%TO.C,C1*%
X171500000Y-112175000D03*
X171500000Y-110100000D03*
%TD*%
D28*
%TO.C,W2*%
X171300000Y-129300000D03*
%TD*%
D18*
%TO.C,C16*%
X168300000Y-128562500D03*
X168300000Y-130637500D03*
%TD*%
D29*
%TO.C,W7*%
X143000000Y-134000000D03*
%TD*%
D30*
%TO.C,R1*%
X155250000Y-134500000D03*
X147750000Y-127900000D03*
D31*
X148250000Y-138100000D03*
X156250000Y-138100000D03*
X148250000Y-135100000D03*
%TD*%
D28*
%TO.C,W3*%
X132800000Y-129500000D03*
%TD*%
D32*
%TO.C,Ref\u002A\u002A*%
X170000000Y-80000000D03*
%TD*%
D33*
%TO.C,D2*%
X134000000Y-92920000D03*
D34*
X134000000Y-95460000D03*
X134000000Y-98000000D03*
X134000000Y-100540000D03*
%TD*%
D29*
%TO.C,W1*%
X165600000Y-133600000D03*
%TD*%
D25*
%TO.C,L2*%
X170000000Y-120000000D03*
X170000000Y-126000000D03*
%TD*%
D23*
%TO.C,U2*%
X133650000Y-114962500D03*
X132700000Y-114962500D03*
X131750000Y-114962500D03*
X131750000Y-117237500D03*
X132700000Y-117237500D03*
X133650000Y-117237500D03*
%TD*%
D35*
%TO.C,U3*%
X147235000Y-103190000D03*
X147235000Y-105730000D03*
X147235000Y-108270000D03*
X147235000Y-110810000D03*
X156765000Y-110810000D03*
X156765000Y-108270000D03*
X156765000Y-105730000D03*
X156765000Y-103190000D03*
%TD*%
D29*
%TO.C,W6*%
X140000000Y-137700000D03*
%TD*%
D17*
%TO.C,C3*%
X168600000Y-109637500D03*
X168600000Y-112762500D03*
%TD*%
D32*
%TO.C,Ref\u002A\u002A*%
X134000000Y-80000000D03*
%TD*%
D19*
%TO.C,C12*%
X141762500Y-125500000D03*
X138637500Y-125500000D03*
%TD*%
D18*
%TO.C,C15*%
X136400000Y-128662500D03*
X136400000Y-130737500D03*
%TD*%
D29*
%TO.C,W4*%
X138900000Y-134250000D03*
%TD*%
D18*
%TO.C,C6*%
X172200000Y-115162500D03*
X172200000Y-117237500D03*
%TD*%
D32*
%TO.C,Ref\u002A\u002A*%
X134000000Y-136000000D03*
%TD*%
D29*
%TO.C,W5*%
X165000000Y-137700000D03*
%TD*%
D32*
%TO.C,Ref\u002A\u002A*%
X170000000Y-136000000D03*
%TD*%
D36*
%TO.C,R12*%
X157000000Y-98000000D03*
X157000000Y-100000000D03*
%TD*%
D37*
%TO.C,R13*%
X160000000Y-110000000D03*
X160000000Y-108000000D03*
%TD*%
D33*
%TO.C,JP1*%
X161000000Y-137540000D03*
D34*
X161000000Y-135000000D03*
X161000000Y-132460000D03*
%TD*%
%LPD*%
M02*
